<?xml version="1.0" encoding="utf-8"?>
<!-- Generator: Adobe Illustrator 25.0.1, SVG Export Plug-In . SVG Version: 6.00 Build 0)  -->
<svg version="1.1" id="Layer_1" xmlns="http://www.w3.org/2000/svg" xmlns:xlink="http://www.w3.org/1999/xlink" x="0px" y="0px"
	 viewBox="0 0 340 119" style="enable-background:new 0 0 340 119;" xml:space="preserve">
<style type="text/css">
	.st0{fill:#D2D2D2;}
	.st1{fill:none;}
	.st2{fill:#151515;}
</style>
<g id="Accordion" transform="translate(-360 -222)">
	<rect id="Rectangle" x="360" y="340" class="st0" width="340" height="1"/>
	<g id="Caret" transform="translate(-334 -36)">
		<rect id="Rectangle-2" x="994" y="335" class="st1" width="24" height="24"/>
		<path id="Icon" class="st2" d="M1010.9,347.9l-6.8,6.8c-0.5,0.4-1.1,0.4-1.6,0l-1.2-1c-0.4-0.5-0.4-1.3,0-1.8l4.8-4.8l-4.8-4.8
			c-0.4-0.5-0.4-1.3,0-1.8l1.2-1.2c0.5-0.4,1.1-0.4,1.6,0l6.8,6.8C1011.3,346.6,1011.3,347.4,1010.9,347.9z"/>
	</g>
	<path id="Path" class="st2" d="M392.2,316.3c-2.9,0-5.2-2.2-5.3-5.1c0-0.1,0-0.1,0-0.2c-0.1-2.8,2.2-5.2,5-5.3c0.1,0,0.1,0,0.2,0
		c1.6,0,3.2,0.7,4.2,1.9l1.4-1.4c-1.5-1.6-3.5-2.4-5.6-2.4c-4-0.1-7.3,3.1-7.3,7c0,0.1,0,0.1,0,0.2c0,4,3.2,7.2,7.2,7.2
		c0.1,0,0.1,0,0.2,0c2.1,0,4.1-0.9,5.6-2.4l-1.4-1.4C395.3,315.6,393.8,316.3,392.2,316.3z M398.7,312.9c0,2.9,2.3,5.3,5.2,5.3h0.1
		c2.9,0,5.3-2.3,5.3-5.2v-0.1c0-2.9-2.3-5.2-5.2-5.3H404C401.1,307.6,398.8,309.9,398.7,312.9C398.7,312.8,398.7,312.9,398.7,312.9z
		 M404,316.4c-1.9,0-3.4-1.6-3.3-3.5c0,0,0,0,0-0.1c-0.1-1.9,1.4-3.5,3.3-3.5c0,0,0,0,0.1,0c1.9,0,3.4,1.6,3.3,3.5l0,0
		C407.4,314.8,405.9,316.4,404,316.4L404,316.4z M411.2,318h2v-7.3c0.5-0.9,1.5-1.4,2.5-1.3c1.3-0.1,2.4,0.9,2.5,2.2
		c0,0.1,0,0.3,0,0.4v6.1h2v-6.4c0.1-2.1-1.5-3.9-3.6-4c-0.1,0-0.2,0-0.4,0c-1.1,0-2.2,0.4-3.1,1.2v-1h-2V318H411.2z M423.5,315.5
		c0,1.8,1.1,2.7,3,2.7c0.6,0,1.3-0.1,1.9-0.3v-1.7c-0.5,0.2-1,0.3-1.5,0.2c-1.1,0-1.5-0.4-1.5-1.4v-5.5h3v-1.7h-3v-3.1l-2,0.5v2.6
		h-2.2v1.7h2.2v6H423.5z M433.1,318.2c1.1,0,2.3-0.3,3.2-1.1v0.9h2v-6.7c0-2.3-1.5-3.6-4.2-3.6c-1.5,0-2.9,0.4-4.2,1l0.7,1.5
		c1-0.5,2.1-0.8,3.2-0.9c1.6,0,2.5,0.7,2.5,2.2v1.1c-0.9-0.4-1.8-0.6-2.8-0.6c-2.6,0-4.1,1.2-4.1,3.1
		C429.4,316.9,430.9,318.2,433.1,318.2z M431.3,315c0-1,0.9-1.7,2.4-1.7c0.9,0,1.8,0.2,2.6,0.6v1.8c-0.7,0.6-1.7,1-2.7,1
		C432.2,316.7,431.3,316,431.3,315z M441.6,306.2c0.7,0,1.2-0.6,1.2-1.2c0-0.7-0.6-1.2-1.2-1.2c-0.7,0-1.2,0.6-1.2,1.2l0,0
		C440.3,305.6,440.9,306.2,441.6,306.2L441.6,306.2z M442.6,307.8h-2V318h2V307.8z M444.9,318h2v-7.3c0.5-0.9,1.5-1.4,2.5-1.3
		c1.3-0.1,2.4,0.9,2.5,2.2c0,0.1,0,0.3,0,0.4v6.1h2v-6.4c0.1-2.1-1.5-3.9-3.6-4c-0.1,0-0.2,0-0.4,0c-1.1,0-2.2,0.4-3.1,1.2v-1h-2
		V318H444.9z M465.1,316.8l-1.3-1.3c-0.7,0.6-1.6,0.9-2.6,0.9c-1.7,0-3.2-1.2-3.4-2.9h8v-0.6c0.2-2.8-2-5.2-4.8-5.3
		c-0.1,0-0.1,0-0.2,0c-2.8,0-5.1,2.3-5.1,5.1v0.1c0,2.9,2.3,5.3,5.2,5.3h0.1C462.6,318.2,464,317.7,465.1,316.8z M460.9,309.3
		c1.5,0.1,2.8,1.2,3,2.7h-6C458,310.5,459.3,309.4,460.9,309.3z M467.7,318h2v-6.8c0.4-1.1,1.5-1.9,2.6-1.9c0.4,0,0.8,0.1,1.2,0.2
		v-1.8c-0.3-0.1-0.7-0.2-1-0.2c-1.1,0-2.2,0.5-2.8,1.5v-1.3h-2L467.7,318L467.7,318z M478.4,316.7c1.3,1,2.8,1.6,4.5,1.5
		c2.4,0,4.3-1.4,4.3-3.2c0-1.6-1.1-2.5-3.1-2.8l-1.8-0.3c-1.2-0.2-1.7-0.5-1.7-1.3s0.8-1.4,2-1.4s2.3,0.4,3.2,1.1l1-1.3
		c-1.2-0.9-2.6-1.3-4.1-1.3c-2.4,0-4,1.2-4,3.1c0,1.6,1,2.5,3,2.8l1.8,0.3c1.1,0.2,1.6,0.6,1.6,1.3c0,0.9-1,1.5-2.4,1.5
		c-1.2,0-2.4-0.5-3.3-1.3L478.4,316.7z M490.6,307.8h-2v6.4c-0.1,2.1,1.5,3.9,3.6,4c0.1,0,0.2,0,0.4,0c1.1,0,2.3-0.4,3.1-1.2v1h2
		v-10.2h-2v7.3c-0.5,0.9-1.5,1.4-2.5,1.3c-1.3,0.1-2.4-0.9-2.5-2.2c0-0.1,0-0.2,0-0.4v-6H490.6z M500,322.1h2v-5c0.9,0.7,2,1,3.1,1
		c2.8,0,5.2-2.3,5.2-5.1v-0.1c0.1-2.8-2.2-5.2-5-5.2h-0.1c-1.1,0-2.3,0.4-3.1,1.1v-1h-2v14.3H500z M504.8,309.4
		c1.9,0,3.4,1.5,3.4,3.4v0.1c0.1,1.9-1.4,3.4-3.3,3.5c-0.1,0-0.1,0-0.2,0c-1.1,0-2.1-0.4-2.8-1.2v-4.6
		C502.7,309.8,503.7,309.4,504.8,309.4z M512.1,322.1h2v-5c0.9,0.7,2,1,3.1,1c2.8,0,5.2-2.3,5.2-5.1v-0.1c0.1-2.8-2.2-5.2-5-5.2
		h-0.1c-1.1,0-2.3,0.4-3.1,1.1v-1h-2v14.3H512.1z M516.9,309.4c1.9,0,3.4,1.5,3.4,3.4v0.1c0.1,1.9-1.4,3.4-3.3,3.5
		c-0.1,0-0.1,0-0.2,0c-1.1,0-2.1-0.4-2.8-1.2v-4.6C514.8,309.8,515.9,309.4,516.9,309.4z M523.8,312.9c0,2.9,2.3,5.3,5.2,5.3h0.1
		c2.9,0,5.3-2.3,5.3-5.2v-0.1c0-2.9-2.3-5.2-5.2-5.3h-0.1C526.2,307.6,523.9,309.9,523.8,312.9C523.8,312.8,523.8,312.9,523.8,312.9
		z M529.1,316.4c-1.9,0-3.4-1.6-3.3-3.5c0,0,0,0,0-0.1c-0.1-1.9,1.4-3.5,3.3-3.5c0,0,0,0,0.1,0c1.9,0,3.4,1.6,3.3,3.5l0,0
		C532.5,314.8,531,316.4,529.1,316.4L529.1,316.4L529.1,316.4z M536.3,318h2v-6.8c0.4-1.1,1.5-1.9,2.6-1.9c0.4,0,0.8,0.1,1.2,0.2
		v-1.8c-0.3-0.1-0.7-0.2-1-0.2c-1.1,0-2.2,0.5-2.8,1.5v-1.3h-2V318z M545.1,315.5c0,1.8,1.1,2.7,3,2.7c0.6,0,1.3-0.1,1.9-0.3v-1.7
		c-0.5,0.2-1,0.3-1.5,0.2c-1.1,0-1.5-0.4-1.5-1.4v-5.5h3v-1.7h-3v-3.1l-2,0.5v2.6h-2v1.7h2.2v6H545.1z"/>
	<rect id="Rectangle-3" x="360" y="281" class="st0" width="340" height="1"/>
	<g id="Caret-2" transform="translate(-334 -95)">
		<rect id="Rectangle-4" x="994" y="335" class="st1" width="24" height="24"/>
		<path id="Icon-2" class="st2" d="M1010.9,347.9l-6.8,6.8c-0.5,0.4-1.1,0.4-1.6,0l-1.2-1c-0.4-0.5-0.4-1.3,0-1.8l4.8-4.8l-4.8-4.8
			c-0.4-0.5-0.4-1.3,0-1.8l1.2-1.2c0.5-0.4,1.1-0.4,1.6,0l6.8,6.8C1011.3,346.6,1011.3,347.4,1010.9,347.9z"/>
	</g>
	<path id="Path-2" class="st2" d="M392.6,258l5.2-10.4V259h2v-14H397l-4.4,8.9l-4.4-8.9h-2.8v14h2v-11.4L392.6,258z M404.4,248.8h-2
		v6.4c-0.1,2.1,1.5,3.9,3.6,4c0.1,0,0.2,0,0.4,0c1.1,0,2.3-0.4,3.1-1.2v1h2v-10.2h-2v7.3c-0.5,0.9-1.5,1.4-2.5,1.3
		c-1.3,0.1-2.4-0.9-2.5-2.2c0-0.1,0-0.2,0-0.4v-6H404.4z M415.7,244.6l-2,0.4v14h2V244.6z M419.4,256.5c0,1.8,1.1,2.7,3,2.7
		c0.6,0,1.3-0.1,1.9-0.3v-1.7c-0.5,0.2-1,0.3-1.5,0.2c-1.1,0-1.5-0.4-1.5-1.4v-5.5h3v-1.7h-3v-3.1l-2,0.5v2.6h-2.2v1.7h2.2v6H419.4z
		 M426.9,247.2c0.7,0,1.2-0.6,1.2-1.2c0-0.7-0.6-1.2-1.2-1.2c-0.7,0-1.2,0.6-1.2,1.2l0,0C425.7,246.6,426.2,247.2,426.9,247.2
		L426.9,247.2z M427.9,248.8h-2V259h2V248.8z M430.2,263.1h2v-5c0.9,0.7,2,1,3.1,1c2.8,0,5.2-2.3,5.2-5.1v-0.1
		c0.1-2.8-2.2-5.2-5-5.2h-0.1c-1.1,0-2.3,0.4-3.1,1.1v-1h-2v14.3H430.2z M435.1,250.4c1.9,0,3.4,1.5,3.4,3.4v0.1
		c0.1,1.9-1.4,3.4-3.3,3.5c-0.1,0-0.1,0-0.2,0c-1.1,0-2.1-0.4-2.8-1.2v-4.6C433,250.8,434,250.4,435.1,250.4z M444.4,244.6l-2,0.4
		v14h2V244.6z M455.6,257.8l-1.3-1.3c-0.7,0.6-1.6,0.9-2.6,0.9c-1.7,0-3.2-1.2-3.4-2.9h8v-0.6c0.2-2.8-2-5.2-4.8-5.3
		c-0.1,0-0.1,0-0.2,0c-2.8,0-5.1,2.3-5.1,5.1v0.1c0,2.9,2.3,5.3,5.2,5.3h0.1C453.1,259.2,454.4,258.7,455.6,257.8z M451.3,250.3
		c1.5,0.1,2.8,1.2,3,2.7h-6C448.5,251.5,449.8,250.4,451.3,250.3z M465.6,259.2c1.1,0,2.3-0.3,3.2-1.1v0.9h2v-6.7
		c0-2.3-1.5-3.6-4.2-3.6c-1.5,0-2.9,0.4-4.2,1l0.7,1.5c1-0.5,2.1-0.8,3.2-0.9c1.6,0,2.5,0.7,2.5,2.2v1.1c-0.9-0.4-1.8-0.6-2.8-0.6
		c-2.6,0-4.1,1.2-4.1,3.1C461.9,257.9,463.4,259.2,465.6,259.2z M463.8,256c0-1,0.9-1.7,2.4-1.7c0.9,0,1.8,0.2,2.6,0.6v1.8
		c-0.7,0.6-1.7,1-2.7,1C464.7,257.7,463.8,257,463.8,256z M473,259h2v-6.8c0.4-1.1,1.5-1.9,2.6-1.9c0.4,0,0.8,0.1,1.2,0.2v-1.8
		c-0.3-0.1-0.7-0.2-1-0.2c-1.1,0-2.2,0.5-2.8,1.5v-1.3h-2L473,259L473,259z M484.7,257.4c-1.9,0-3.4-1.5-3.3-3.4v-0.1
		c-0.1-1.9,1.4-3.4,3.2-3.5h0.1c1.1,0,2.1,0.5,2.8,1.3l1.3-1.4c-1.1-1.1-2.6-1.7-4.1-1.7c-2.9,0-5.2,2.3-5.2,5.2v0.1
		c0,2.9,2.2,5.2,5.1,5.3h0.1c1.5,0,3-0.6,4-1.7l-1.2-1.3C486.7,257,485.7,257.4,484.7,257.4z M490.2,259h2v-7.3
		c0.5-0.9,1.5-1.4,2.5-1.3c1.3-0.1,2.4,0.9,2.5,2.2c0,0.1,0,0.3,0,0.4v6.1h2v-6.4c0.1-2.1-1.5-3.9-3.6-4c-0.1,0-0.2,0-0.4,0
		c-1.1,0-2.2,0.4-3.1,1.2v-5.3l-2,0.4v14H490.2z M502.6,247.2c0.7,0,1.2-0.6,1.2-1.2c0-0.7-0.6-1.2-1.2-1.2c-0.7,0-1.2,0.6-1.2,1.2
		l0,0C501.4,246.6,501.9,247.2,502.6,247.2L502.6,247.2z M503.6,248.8h-2V259h2V248.8z M507.3,256.5c0,1.8,1.1,2.7,3,2.7
		c0.6,0,1.3-0.1,1.9-0.3v-1.7c-0.5,0.2-1,0.3-1.5,0.2c-1.1,0-1.5-0.4-1.5-1.4v-5.5h3v-1.7h-3v-3.1l-2,0.5v2.6H505v1.7h2.2
		L507.3,256.5L507.3,256.5z M522.3,257.8l-1.3-1.3c-0.7,0.6-1.6,0.9-2.6,0.9c-1.7,0-3.2-1.2-3.4-2.9h8v-0.6c0.2-2.8-2-5.2-4.8-5.3
		c-0.1,0-0.1,0-0.2,0c-2.8,0-5.1,2.3-5.1,5.1v0.1c0,2.9,2.3,5.3,5.2,5.3h0.1C519.8,259.2,521.2,258.7,522.3,257.8z M518.1,250.3
		c1.5,0.1,2.8,1.2,3,2.7h-6C515.2,251.5,516.5,250.4,518.1,250.3z M529.9,257.4c-1.9,0-3.4-1.5-3.3-3.4v-0.1
		c-0.1-1.9,1.4-3.4,3.2-3.5h0.1c1.1,0,2.1,0.5,2.8,1.3l1.3-1.4c-1.1-1.1-2.6-1.7-4.1-1.7c-2.9,0-5.2,2.3-5.2,5.2v0.1
		c0,2.9,2.2,5.2,5.1,5.3h0.1c1.5,0,3-0.6,4-1.7l-1.2-1.3C531.9,257,530.9,257.4,529.9,257.4z M536.9,256.5c0,1.8,1.1,2.7,3,2.7
		c0.6,0,1.3-0.1,1.9-0.3v-1.7c-0.5,0.2-1,0.3-1.5,0.2c-1.1,0-1.5-0.4-1.5-1.4v-5.5h3v-1.7h-3v-3.1l-2,0.5v2.6h-2.2v1.7h2.2
		L536.9,256.5L536.9,256.5z M545.4,248.8h-2v6.4c-0.1,2.1,1.5,3.9,3.6,4c0.1,0,0.2,0,0.4,0c1.1,0,2.3-0.4,3.1-1.2v1h2v-10.2h-2v7.3
		c-0.5,0.9-1.5,1.4-2.5,1.3c-1.3,0.1-2.4-0.9-2.5-2.2c0-0.1,0-0.2,0-0.4L545.4,248.8L545.4,248.8z M554.7,259h2v-6.8
		c0.4-1.1,1.5-1.9,2.6-1.9c0.4,0,0.8,0.1,1.2,0.2v-1.8c-0.3-0.1-0.7-0.2-1-0.2c-1.1,0-2.2,0.5-2.8,1.5v-1.3h-2V259z M570.4,257.8
		l-1.3-1.3c-0.7,0.6-1.6,0.9-2.6,0.9c-1.7,0-3.2-1.2-3.4-2.9h8v-0.6c0.2-2.8-2-5.2-4.8-5.3c-0.1,0-0.1,0-0.2,0
		c-2.8,0-5.1,2.3-5.1,5.1v0.1c0,2.9,2.3,5.3,5.2,5.3h0.1C567.9,259.2,569.2,258.7,570.4,257.8z M566.1,250.3c1.5,0.1,2.8,1.2,3,2.7
		h-6C563.3,251.5,564.6,250.4,566.1,250.3z M572.1,257.7c1.3,1,2.8,1.6,4.5,1.5c2.4,0,4.3-1.4,4.3-3.2c0-1.6-1.1-2.5-3.1-2.8
		l-1.8-0.3c-1.2-0.2-1.7-0.5-1.7-1.3s0.8-1.4,2-1.4s2.3,0.4,3.2,1.1l1-1.3c-1.2-0.9-2.6-1.3-4.1-1.3c-2.4,0-4,1.2-4,3.1
		c0,1.6,1,2.5,3,2.8l1.8,0.3c1.1,0.2,1.6,0.6,1.6,1.3c0,0.9-1,1.5-2.4,1.5c-1.2,0-2.4-0.5-3.3-1.3L572.1,257.7z"/>
	<rect id="Rectangle-5" x="360" y="222" class="st0" width="340" height="1"/>
</g>
</svg>
