<svg xmlns="http://www.w3.org/2000/svg" xmlns:xlink="http://www.w3.org/1999/xlink" width="884" height="293" viewBox="0 0 884 293"><defs><style>.a{fill:#d2d2d2;}.b{fill:none;}.c{fill:#151515;}.d{fill:#fff;stroke:#d2d2d2;}.e{fill:#06c;}.f{fill:#e00;}.g{stroke:none;}.h{filter:url(#a);}</style><filter id="a" x="0" y="56" width="884" height="187" filterUnits="userSpaceOnUse"><feOffset dy="3" input="SourceAlpha"/><feGaussianBlur stdDeviation="2" result="b"/><feFlood flood-opacity="0.102"/><feComposite operator="in" in2="b"/><feComposite in="SourceGraphic"/></filter></defs><g transform="translate(-418 -1334)"><g transform="translate(64 1112)"><rect class="a" width="872" height="1" transform="translate(360 514)"/><g transform="translate(1192 473)"><rect class="b" width="24" height="24"/><path class="c" d="M12.35,9.85l-6.8,6.8a1.217,1.217,0,0,1-1.6,0l-1.2-1a1.493,1.493,0,0,1,0-1.8l4.8-4.8-4.8-4.8a1.493,1.493,0,0,1,0-1.8l1.2-1.2a1.217,1.217,0,0,1,1.6,0l6.8,6.8A1.493,1.493,0,0,1,12.35,9.85Z" transform="translate(4.55 3.05)"/></g><path class="c" d="M.02,0H2.2L3.84-4.1H10.1L11.72,0H14L8.28-14H5.82ZM4.54-5.84l2.44-6.14L9.42-5.84ZM15.18,0h2V-7.32a2.866,2.866,0,0,1,2.5-1.32,2.374,2.374,0,0,1,2.54,2.58V0H24.2V-6.4a3.8,3.8,0,0,0-3.96-3.98,4.16,4.16,0,0,0-3.06,1.22v-1.02h-2ZM29.76.18A4.792,4.792,0,0,0,32.92-.88V0h1.96V-6.74c0-2.36-1.54-3.64-4.16-3.64a9.555,9.555,0,0,0-4.18,1.04l.74,1.5a7.377,7.377,0,0,1,3.16-.86c1.62,0,2.48.72,2.48,2.16v1.08a7.04,7.04,0,0,0-2.78-.56c-2.38,0-4.12,1.06-4.12,3.1C26.02-1.1,27.54.18,29.76.18ZM27.94-2.96c0-1.06.96-1.68,2.36-1.68a5.34,5.34,0,0,1,2.62.6v1.78a3.915,3.915,0,0,1-2.7.96C28.88-1.3,27.94-1.96,27.94-2.96ZM39.18-14.44l-2,.44V0h2ZM44.1.86a2.093,2.093,0,0,1-2.02,1.5,3.356,3.356,0,0,1-.88-.08V4.04a4.341,4.341,0,0,0,1.06.1c1.94,0,2.98-.94,3.9-3.04l4.86-11.28H48.86L45.58-2.4,42.6-10.18H40.4L44.46.02Zm9.88-3.38c0,1.76,1.06,2.7,3.04,2.7a6.851,6.851,0,0,0,1.9-.3V-1.8a3.862,3.862,0,0,1-1.46.24c-1.08,0-1.5-.38-1.5-1.42V-8.5h3v-1.68h-3v-3.08l-1.98.48v2.6H51.82V-8.5h2.16Zm7.44-9.3a1.229,1.229,0,0,0,1.22-1.24,1.229,1.229,0,0,0-1.22-1.24,1.246,1.246,0,0,0-1.24,1.24A1.246,1.246,0,0,0,61.42-11.82Zm1,1.64h-2V0h2Zm7.2,8.6A3.377,3.377,0,0,1,66.28-5.1a3.364,3.364,0,0,1,3.3-3.5,3.784,3.784,0,0,1,2.8,1.28l1.26-1.36a5.828,5.828,0,0,0-4.1-1.7A5.2,5.2,0,0,0,64.3-5.1,5.191,5.191,0,0,0,69.54.18a5.63,5.63,0,0,0,4.02-1.7l-1.2-1.3A3.72,3.72,0,0,1,69.62-1.58Zm4.72.26A6.794,6.794,0,0,0,78.8.18c2.42,0,4.26-1.36,4.26-3.2,0-1.56-1.02-2.54-3.08-2.84l-1.84-.26c-1.2-.18-1.68-.52-1.68-1.28,0-.86.86-1.38,2.04-1.38a5.589,5.589,0,0,1,3.22,1.06l1.02-1.32a6.988,6.988,0,0,0-4.1-1.3c-2.34,0-3.98,1.22-3.98,3.08,0,1.58,1.04,2.54,3.04,2.82l1.84.26c1.14.16,1.64.58,1.64,1.3,0,.82-.84,1.52-2.44,1.52a5.235,5.235,0,0,1-3.32-1.28Zm26.28.22c-.74-.56-1.5-1.18-2.26-1.84a12.563,12.563,0,0,0,1.7-4.4l-1.78-.28A10.937,10.937,0,0,1,97.04-4.1c-1.26-1.16-2.44-2.34-3.36-3.3l1.02-.62c1.42-.86,2.14-1.84,2.14-3.14a3.145,3.145,0,0,0-3.42-3.06,3.406,3.406,0,0,0-3.6,3.38,4.573,4.573,0,0,0,1.24,3.12l-.22.12C88.88-6.52,88.1-5.44,88.1-3.76,88.1-1.4,90,.2,92.86.2a6.262,6.262,0,0,0,4.36-1.66c.72.64,1.48,1.24,2.2,1.78Zm-8.96-9.76a1.694,1.694,0,0,1,1.7-1.82A1.585,1.585,0,0,1,95-11.1a2.207,2.207,0,0,1-1.3,1.92l-1.02.6A3.547,3.547,0,0,1,91.66-10.86ZM89.98-3.88c0-1,.48-1.7,1.86-2.5l.22-.12a50.755,50.755,0,0,0,3.88,3.92,4.257,4.257,0,0,1-2.96,1.16C91.16-1.42,89.98-2.38,89.98-3.88ZM114.08,0h1.98V-14.44l-2,.44v4.66a5.1,5.1,0,0,0-3.06-1,5.144,5.144,0,0,0-5.18,5.24A5.153,5.153,0,0,0,110.96.16a4.808,4.808,0,0,0,3.12-1.12Zm-6.3-5.12a3.408,3.408,0,0,1,3.46-3.5,3.8,3.8,0,0,1,2.82,1.2V-2.8a3.645,3.645,0,0,1-2.82,1.22A3.442,3.442,0,0,1,107.78-5.12ZM121.62.18a4.792,4.792,0,0,0,3.16-1.06V0h1.96V-6.74c0-2.36-1.54-3.64-4.16-3.64a9.555,9.555,0,0,0-4.18,1.04l.74,1.5a7.377,7.377,0,0,1,3.16-.86c1.62,0,2.48.72,2.48,2.16v1.08A7.04,7.04,0,0,0,122-6.02c-2.38,0-4.12,1.06-4.12,3.1C117.88-1.1,119.4.18,121.62.18ZM119.8-2.96c0-1.06.96-1.68,2.36-1.68a5.34,5.34,0,0,1,2.62.6v1.78a3.915,3.915,0,0,1-2.7.96C120.74-1.3,119.8-1.96,119.8-2.96Zm10.18.44c0,1.76,1.06,2.7,3.04,2.7a6.851,6.851,0,0,0,1.9-.3V-1.8a3.862,3.862,0,0,1-1.46.24c-1.08,0-1.5-.38-1.5-1.42V-8.5h3v-1.68h-3v-3.08l-1.98.48v2.6h-2.16V-8.5h2.16Zm9.68,2.7a4.792,4.792,0,0,0,3.16-1.06V0h1.96V-6.74c0-2.36-1.54-3.64-4.16-3.64a9.555,9.555,0,0,0-4.18,1.04l.74,1.5a7.377,7.377,0,0,1,3.16-.86c1.62,0,2.48.72,2.48,2.16v1.08a7.04,7.04,0,0,0-2.78-.56c-2.38,0-4.12,1.06-4.12,3.1C135.92-1.1,137.44.18,139.66.18Zm-1.82-3.14c0-1.06.96-1.68,2.36-1.68a5.34,5.34,0,0,1,2.62.6v1.78a3.915,3.915,0,0,1-2.7.96C138.78-1.3,137.84-1.96,137.84-2.96ZM151.26,0h2V-7.42a2.646,2.646,0,0,1,2.3-1.22,2.283,2.283,0,0,1,2.32,2.58V0h2V-6.4a4.239,4.239,0,0,0-.08-.88,2.71,2.71,0,0,1,2.38-1.36,2.287,2.287,0,0,1,2.34,2.58V0h1.98V-6.4a3.725,3.725,0,0,0-3.8-3.98,4.086,4.086,0,0,0-3.44,1.68,3.631,3.631,0,0,0-3.16-1.68,3.89,3.89,0,0,0-2.84,1.14v-.94h-2Zm20.8.18a4.792,4.792,0,0,0,3.16-1.06V0h1.96V-6.74c0-2.36-1.54-3.64-4.16-3.64a9.555,9.555,0,0,0-4.18,1.04l.74,1.5a7.377,7.377,0,0,1,3.16-.86c1.62,0,2.48.72,2.48,2.16v1.08a7.04,7.04,0,0,0-2.78-.56c-2.38,0-4.12,1.06-4.12,3.1C168.32-1.1,169.84.18,172.06.18Zm-1.82-3.14c0-1.06.96-1.68,2.36-1.68a5.34,5.34,0,0,1,2.62.6v1.78a3.915,3.915,0,0,1-2.7.96C171.18-1.3,170.24-1.96,170.24-2.96ZM179.48,0h2V-7.32a2.866,2.866,0,0,1,2.5-1.32,2.374,2.374,0,0,1,2.54,2.58V0h1.98V-6.4a3.8,3.8,0,0,0-3.96-3.98,4.16,4.16,0,0,0-3.06,1.22v-1.02h-2Zm14.58.18a4.792,4.792,0,0,0,3.16-1.06V0h1.96V-6.74c0-2.36-1.54-3.64-4.16-3.64a9.555,9.555,0,0,0-4.18,1.04l.74,1.5a7.377,7.377,0,0,1,3.16-.86c1.62,0,2.48.72,2.48,2.16v1.08a7.04,7.04,0,0,0-2.78-.56c-2.38,0-4.12,1.06-4.12,3.1C190.32-1.1,191.84.18,194.06.18Zm-1.82-3.14c0-1.06.96-1.68,2.36-1.68a5.34,5.34,0,0,1,2.62.6v1.78a3.915,3.915,0,0,1-2.7.96C193.18-1.3,192.24-1.96,192.24-2.96ZM206.16.08A4.746,4.746,0,0,0,209.2-1V.1c0,1.6-.94,2.42-2.72,2.42a6.893,6.893,0,0,1-3.26-.88l-.78,1.56a8.464,8.464,0,0,0,4.1,1c2.98,0,4.66-1.44,4.66-4.12V-10.18h-1.98v.84a4.913,4.913,0,0,0-3.02-1.02,5.135,5.135,0,0,0-5.16,5.22A5.115,5.115,0,0,0,206.16.08ZM203-5.14a3.391,3.391,0,0,1,3.4-3.48,3.671,3.671,0,0,1,2.8,1.18v4.6a3.671,3.671,0,0,1-2.8,1.18A3.391,3.391,0,0,1,203-5.14Zm10.08.04A5.238,5.238,0,0,0,218.42.18a6,6,0,0,0,3.94-1.34l-1.28-1.26a3.96,3.96,0,0,1-2.58.9,3.434,3.434,0,0,1-3.44-2.92h8.04v-.58a5.041,5.041,0,0,0-4.92-5.32A5.115,5.115,0,0,0,213.08-5.1Zm5.06-3.56a3.133,3.133,0,0,1,2.98,2.72h-6.04A3.129,3.129,0,0,1,218.14-8.66ZM224.98,0h2V-7.42a2.646,2.646,0,0,1,2.3-1.22,2.283,2.283,0,0,1,2.32,2.58V0h2V-6.4a4.239,4.239,0,0,0-.08-.88,2.71,2.71,0,0,1,2.38-1.36,2.287,2.287,0,0,1,2.34,2.58V0h1.98V-6.4a3.725,3.725,0,0,0-3.8-3.98,4.086,4.086,0,0,0-3.44,1.68,3.631,3.631,0,0,0-3.16-1.68,3.89,3.89,0,0,0-2.84,1.14v-.94h-2ZM242.1-5.1A5.238,5.238,0,0,0,247.44.18a6,6,0,0,0,3.94-1.34L250.1-2.42a3.96,3.96,0,0,1-2.58.9,3.434,3.434,0,0,1-3.44-2.92h8.04v-.58a5.041,5.041,0,0,0-4.92-5.32A5.115,5.115,0,0,0,242.1-5.1Zm5.06-3.56a3.133,3.133,0,0,1,2.98,2.72H244.1A3.129,3.129,0,0,1,247.16-8.66ZM254,0h2V-7.32a2.866,2.866,0,0,1,2.5-1.32,2.374,2.374,0,0,1,2.54,2.58V0h1.98V-6.4a3.8,3.8,0,0,0-3.96-3.98A4.16,4.16,0,0,0,256-9.16v-1.02h-2Zm12.28-2.52c0,1.76,1.06,2.7,3.04,2.7a6.851,6.851,0,0,0,1.9-.3V-1.8a3.862,3.862,0,0,1-1.46.24c-1.08,0-1.5-.38-1.5-1.42V-8.5h3v-1.68h-3v-3.08l-1.98.48v2.6h-2.16V-8.5h2.16Z" transform="translate(384 492)"/><g transform="translate(360 281)"><g class="h" transform="matrix(1, 0, 0, 1, -6, -59)"><g class="d" transform="translate(6 59)"><rect class="g" width="872" height="175"/><rect class="b" x="0.5" y="0.5" width="871" height="174"/></g></g><g transform="translate(24 128)"><path class="e" d="M7,0,5.5,1.5,10,6H0V8H10L5.5,12.5,7,14l7-7Z" transform="translate(106 5)"/><path class="e" d="M1.134,0h9.5V-2.3H3.744V-12.6H1.134ZM11.448-4.68A4.882,4.882,0,0,0,16.488.18a5.622,5.622,0,0,0,3.8-1.35l-1.62-1.476a2.952,2.952,0,0,1-2.07.756,2.7,2.7,0,0,1-2.664-1.962h6.984V-4.5a4.733,4.733,0,0,0-4.644-5.04A4.787,4.787,0,0,0,11.448-4.68Zm4.77-2.826A2.384,2.384,0,0,1,18.5-5.616h-4.59A2.355,2.355,0,0,1,16.218-7.506ZM25.362.162A4.389,4.389,0,0,0,28.08-.666V0h2.43V-6.084c0-2.25-1.494-3.474-4-3.474A9.86,9.86,0,0,0,22.338-8.55l.9,1.818A7.277,7.277,0,0,1,26.1-7.506c1.314,0,1.98.54,1.98,1.638V-5.2a7.242,7.242,0,0,0-2.286-.36c-2.34,0-3.852,1.008-3.852,2.844C21.942-1.062,23.292.162,25.362.162ZM24.3-2.772c0-.756.72-1.17,1.8-1.17a5.558,5.558,0,0,1,1.98.342v1.4a3.59,3.59,0,0,1-2.07.594C24.966-1.6,24.3-2.052,24.3-2.772ZM32.382,0h2.466V-6.084A2.49,2.49,0,0,1,37.116-7.47a2.965,2.965,0,0,1,1.26.252v-2.16a2.125,2.125,0,0,0-1.026-.216,3.053,3.053,0,0,0-2.5,1.242V-9.378H32.382Zm7.326,0h2.466V-6.5A2.2,2.2,0,0,1,44.1-7.434a1.842,1.842,0,0,1,1.962,1.962V0H48.51V-5.832A3.558,3.558,0,0,0,44.8-9.558a3.912,3.912,0,0,0-2.628.936v-.756H39.708ZM54,0h2.466V-6.57a2.085,2.085,0,0,1,1.746-.864,1.75,1.75,0,0,1,1.764,1.962V0h2.466V-5.832a3.839,3.839,0,0,0-.054-.666,2.111,2.111,0,0,1,1.8-.936A1.763,1.763,0,0,1,65.97-5.472V0h2.466V-5.832a3.512,3.512,0,0,0-3.6-3.726,3.95,3.95,0,0,0-3.1,1.386,3.374,3.374,0,0,0-2.826-1.386,3.647,3.647,0,0,0-2.448.882v-.7H54ZM69.912-4.68a4.873,4.873,0,0,0,5,4.86,4.873,4.873,0,0,0,5-4.86,4.888,4.888,0,0,0-5-4.878A4.888,4.888,0,0,0,69.912-4.68Zm7.6,0a2.634,2.634,0,0,1-2.592,2.718A2.634,2.634,0,0,1,72.324-4.68a2.638,2.638,0,0,1,2.592-2.736A2.627,2.627,0,0,1,77.508-4.68ZM81.4,0h2.466V-6.084A2.49,2.49,0,0,1,86.13-7.47a2.965,2.965,0,0,1,1.26.252v-2.16a2.125,2.125,0,0,0-1.026-.216,3.053,3.053,0,0,0-2.5,1.242V-9.378H81.4Zm6.48-4.68A4.882,4.882,0,0,0,92.916.18a5.622,5.622,0,0,0,3.8-1.35l-1.62-1.476a2.952,2.952,0,0,1-2.07.756A2.7,2.7,0,0,1,90.36-3.852h6.984V-4.5A4.733,4.733,0,0,0,92.7-9.54,4.787,4.787,0,0,0,87.876-4.68Zm4.77-2.826a2.384,2.384,0,0,1,2.286,1.89h-4.59A2.355,2.355,0,0,1,92.646-7.506Z" transform="translate(0 18)"/></g><path class="c" d="M4.416,16,7.264,6.5,10.112,16h1.232L13.776,4.8H12.56l-1.9,9.232L7.888,4.8h-1.2L3.92,14.032,2.016,4.8H.768L3.184,16Zm10.176-3.9a3.907,3.907,0,0,0,3.872,4.048,4.5,4.5,0,0,0,2.928-1.04l-.736-.8a3.191,3.191,0,0,1-2.144.8,2.81,2.81,0,0,1-2.768-2.768h6.128V12a3.7,3.7,0,0,0-3.584-3.936A3.812,3.812,0,0,0,14.592,12.1Zm3.68-3.008A2.572,2.572,0,0,1,20.7,11.52H15.776A2.581,2.581,0,0,1,18.272,9.088ZM27.184,12.1a3.907,3.907,0,0,0,3.872,4.048,4.5,4.5,0,0,0,2.928-1.04l-.736-.8a3.191,3.191,0,0,1-2.144.8,2.81,2.81,0,0,1-2.768-2.768h6.128V12A3.7,3.7,0,0,0,30.88,8.064,3.812,3.812,0,0,0,27.184,12.1Zm3.68-3.008A2.572,2.572,0,0,1,33.3,11.52H28.368A2.581,2.581,0,0,1,30.864,9.088ZM34.976,16H36.3l2.32-3.184L40.96,16h1.376l-3.024-4.048,2.816-3.76H40.784l-2.128,2.96-2.144-2.96H35.1l2.848,3.776Zm8.832,3.184h1.168V15.008a3.14,3.14,0,0,0,2.448,1.1A3.8,3.8,0,0,0,51.1,12.1a3.78,3.78,0,0,0-3.616-4A3.081,3.081,0,0,0,44.96,9.312V8.192H43.808ZM47.2,9.12a2.8,2.8,0,0,1,2.736,2.992,2.769,2.769,0,0,1-4.96,1.9V10.192A2.688,2.688,0,0,1,47.2,9.12Zm8.384,7.024a3.321,3.321,0,0,0,2.48-1.04V16h1.152V10.816c0-1.808-1.12-2.752-3.024-2.752a6.539,6.539,0,0,0-2.944.752l.448.9a5.037,5.037,0,0,1,2.352-.672c1.312,0,2.016.624,2.016,1.936v1.056A4.683,4.683,0,0,0,55.7,11.44c-1.7,0-2.928.864-2.928,2.3C52.768,15.168,53.936,16.144,55.584,16.144Zm-1.7-2.416c0-.912.832-1.456,1.968-1.456a4.052,4.052,0,0,1,2.208.576v1.5a3.116,3.116,0,0,1-2.24.9C54.688,15.248,53.888,14.64,53.888,13.728ZM61.536,16H62.7V10.24a2.32,2.32,0,0,1,2.048-1.2,2.023,2.023,0,0,1,2.1,2.24V16h1.168V10.944A2.722,2.722,0,0,0,65.2,8.064a2.813,2.813,0,0,0-2.5,1.408V8.192H61.536ZM76.1,16h1.168V4.56L76.08,4.8V9.168A3.2,3.2,0,0,0,73.664,8.1a3.8,3.8,0,0,0-3.68,4.016,3.78,3.78,0,0,0,3.616,4,3.139,3.139,0,0,0,2.5-1.168Zm-4.944-3.9a2.775,2.775,0,0,1,2.72-2.976,2.813,2.813,0,0,1,2.208,1.04v3.888a2.7,2.7,0,0,1-2.208,1.04A2.789,2.789,0,0,1,71.152,12.1Zm8.08,0A3.907,3.907,0,0,0,83.1,16.144a4.5,4.5,0,0,0,2.928-1.04l-.736-.8a3.191,3.191,0,0,1-2.144.8,2.81,2.81,0,0,1-2.768-2.768h6.128V12a3.7,3.7,0,0,0-3.584-3.936A3.812,3.812,0,0,0,79.232,12.1Zm3.68-3.008a2.572,2.572,0,0,1,2.432,2.432H80.416A2.581,2.581,0,0,1,82.912,9.088ZM94.224,16h1.168V4.56l-1.184.24V9.168A3.2,3.2,0,0,0,91.792,8.1a3.8,3.8,0,0,0-3.68,4.016,3.78,3.78,0,0,0,3.616,4,3.139,3.139,0,0,0,2.5-1.168ZM89.28,12.1A2.775,2.775,0,0,1,92,9.12a2.813,2.813,0,0,1,2.208,1.04v3.888A2.7,2.7,0,0,1,92,15.088,2.789,2.789,0,0,1,89.28,12.1Zm11.808,0a3.816,3.816,0,1,0,7.616,0,3.814,3.814,0,1,0-7.616,0Zm6.448.016a2.663,2.663,0,1,1-5.28,0,2.664,2.664,0,1,1,5.28,0Zm4.3-3.92h-1.168v5.056a2.722,2.722,0,0,0,2.816,2.88,2.813,2.813,0,0,0,2.5-1.408V16h1.168V8.192h-1.168v5.76a2.32,2.32,0,0,1-2.048,1.2,2.023,2.023,0,0,1-2.1-2.24ZM119.456,16h1.168V10.656a2.2,2.2,0,0,1,2.1-1.584,2.768,2.768,0,0,1,.816.144V8.16a2.3,2.3,0,0,0-.736-.112,2.321,2.321,0,0,0-2.176,1.7V8.192h-1.168Zm11.776.144a3.321,3.321,0,0,0,2.48-1.04V16h1.152V10.816c0-1.808-1.12-2.752-3.024-2.752a6.539,6.539,0,0,0-2.944.752l.448.9A5.037,5.037,0,0,1,131.7,9.04c1.312,0,2.016.624,2.016,1.936v1.056a4.683,4.683,0,0,0-2.368-.592c-1.7,0-2.928.864-2.928,2.3C128.416,15.168,129.584,16.144,131.232,16.144Zm-1.7-2.416c0-.912.832-1.456,1.968-1.456a4.052,4.052,0,0,1,2.208.576v1.5a3.116,3.116,0,0,1-2.24.9C130.336,15.248,129.536,14.64,129.536,13.728Zm8.816-9.168-1.168.24V16h1.168Zm3.488,0-1.168.24V16h1.168Zm2.912,1.664a.84.84,0,1,0-.832-.848A.83.83,0,0,0,144.752,6.224Zm.576,1.968H144.16V16h1.168Zm4.752,7.952a3.321,3.321,0,0,0,2.48-1.04V16h1.152V10.816c0-1.808-1.12-2.752-3.024-2.752a6.539,6.539,0,0,0-2.944.752l.448.9a5.037,5.037,0,0,1,2.352-.672c1.312,0,2.016.624,2.016,1.936v1.056a4.683,4.683,0,0,0-2.368-.592c-1.7,0-2.928.864-2.928,2.3C147.264,15.168,148.432,16.144,150.08,16.144Zm-1.7-2.416c0-.912.832-1.456,1.968-1.456a4.052,4.052,0,0,1,2.208.576v1.5a3.116,3.116,0,0,1-2.24.9C149.184,15.248,148.384,14.64,148.384,13.728ZM156.032,16H157.2V10.24a2.32,2.32,0,0,1,2.048-1.2,2.023,2.023,0,0,1,2.1,2.24V16h1.168V10.944a2.722,2.722,0,0,0-2.816-2.88,2.813,2.813,0,0,0-2.5,1.408V8.192h-1.168Zm12.336-.912a2.817,2.817,0,0,1-2.72-2.992,2.832,2.832,0,0,1,2.72-2.976,2.983,2.983,0,0,1,2.144.976l.752-.816a4.146,4.146,0,0,0-2.912-1.216A3.912,3.912,0,0,0,164.48,12.1a3.876,3.876,0,0,0,6.736,2.784l-.72-.72A2.791,2.791,0,0,1,168.368,15.088Zm3.92-2.992a3.907,3.907,0,0,0,3.872,4.048,4.5,4.5,0,0,0,2.928-1.04l-.736-.8a3.191,3.191,0,0,1-2.144.8,2.81,2.81,0,0,1-2.768-2.768h6.128V12a3.7,3.7,0,0,0-3.584-3.936A3.812,3.812,0,0,0,172.288,12.1Zm3.68-3.008A2.572,2.572,0,0,1,178.4,11.52h-4.928A2.581,2.581,0,0,1,175.968,9.088Zm4.864,5.824a4.33,4.33,0,0,0,3.184,1.232c1.76,0,3.04-1.088,3.024-2.416.016-1.184-.736-1.824-2.272-2.1l-1.3-.24c-.96-.176-1.36-.448-1.36-1.12,0-.768.72-1.248,1.7-1.248a3.943,3.943,0,0,1,2.416.88l.624-.8a4.858,4.858,0,0,0-2.992-1.04c-1.648,0-2.816.96-2.816,2.288,0,1.168.752,1.792,2.208,2.048l1.3.224c.976.176,1.392.512,1.392,1.168,0,.768-.7,1.408-1.968,1.408a3.5,3.5,0,0,1-2.464-1.024Zm12.576-.672c0,1.216.688,1.9,2.048,1.9a4.714,4.714,0,0,0,1.376-.208V14.9a2.881,2.881,0,0,1-1.1.208c-.832,0-1.152-.336-1.152-1.168V9.152h2.256v-.96h-2.256V5.936l-1.168.272V8.192h-1.616v.96h1.616Zm4.464-2.144a3.816,3.816,0,1,0,7.616,0,3.814,3.814,0,1,0-7.616,0Zm6.448.016a2.663,2.663,0,1,1-5.28,0,2.664,2.664,0,1,1,5.28,0ZM216.5,16h1.168V10.944a2.722,2.722,0,0,0-2.816-2.88,2.813,2.813,0,0,0-2.5,1.408V4.56l-1.168.24V16h1.168V10.24a2.32,2.32,0,0,1,2.048-1.2,2.023,2.023,0,0,1,2.1,2.24Zm3.136-3.9a3.907,3.907,0,0,0,3.872,4.048,4.5,4.5,0,0,0,2.928-1.04l-.736-.8a3.191,3.191,0,0,1-2.144.8,2.81,2.81,0,0,1-2.768-2.768h6.128V12a3.7,3.7,0,0,0-3.584-3.936A3.812,3.812,0,0,0,219.632,12.1Zm3.68-3.008a2.572,2.572,0,0,1,2.432,2.432h-4.928A2.581,2.581,0,0,1,223.312,9.088ZM230,4.56l-1.168.24V16H230Zm2.32,14.624h1.168V15.008a3.14,3.14,0,0,0,2.448,1.1,3.8,3.8,0,0,0,3.68-4.016A3.78,3.78,0,0,0,236,8.1a3.081,3.081,0,0,0-2.528,1.216V8.192H232.32ZM235.712,9.12a2.8,2.8,0,0,1,2.736,2.992,2.769,2.769,0,0,1-4.96,1.9V10.192A2.687,2.687,0,0,1,235.712,9.12ZM251.088,16h1.168V4.56l-1.184.24V9.168A3.2,3.2,0,0,0,248.656,8.1a3.8,3.8,0,0,0-3.68,4.016,3.78,3.78,0,0,0,3.616,4,3.139,3.139,0,0,0,2.5-1.168Zm-4.944-3.9a2.775,2.775,0,0,1,2.72-2.976,2.813,2.813,0,0,1,2.208,1.04v3.888a2.7,2.7,0,0,1-2.208,1.04A2.789,2.789,0,0,1,246.144,12.1Zm8.08,0a3.907,3.907,0,0,0,3.872,4.048,4.5,4.5,0,0,0,2.928-1.04l-.736-.8a3.191,3.191,0,0,1-2.144.8,2.81,2.81,0,0,1-2.768-2.768H261.5V12a3.7,3.7,0,0,0-3.584-3.936A3.812,3.812,0,0,0,254.224,12.1Zm3.68-3.008a2.572,2.572,0,0,1,2.432,2.432h-4.928A2.581,2.581,0,0,1,257.9,9.088ZM265.456,16h1.1l3.216-7.808h-1.248l-2.5,6.336-2.5-6.336h-1.3Zm5.12-3.9a3.907,3.907,0,0,0,3.872,4.048,4.5,4.5,0,0,0,2.928-1.04l-.736-.8a3.191,3.191,0,0,1-2.144.8,2.81,2.81,0,0,1-2.768-2.768h6.128V12a3.7,3.7,0,0,0-3.584-3.936A3.812,3.812,0,0,0,270.576,12.1Zm3.68-3.008a2.572,2.572,0,0,1,2.432,2.432H271.76A2.581,2.581,0,0,1,274.256,9.088Zm6.688-4.528-1.168.24V16h1.168Zm1.984,7.536a3.816,3.816,0,1,0,7.616,0,3.814,3.814,0,1,0-7.616,0Zm6.448.016a2.663,2.663,0,1,1-5.28,0,2.664,2.664,0,1,1,5.28,0Zm3.136,7.072h1.168V15.008a3.14,3.14,0,0,0,2.448,1.1,3.8,3.8,0,0,0,3.68-4.016,3.78,3.78,0,0,0-3.616-4,3.081,3.081,0,0,0-2.528,1.216V8.192h-1.152ZM295.9,9.12a2.8,2.8,0,0,1,2.736,2.992,2.769,2.769,0,0,1-4.96,1.9V10.192A2.688,2.688,0,0,1,295.9,9.12ZM301.44,12.1a3.907,3.907,0,0,0,3.872,4.048,4.5,4.5,0,0,0,2.928-1.04l-.736-.8a3.191,3.191,0,0,1-2.144.8,2.81,2.81,0,0,1-2.768-2.768h6.128V12a3.7,3.7,0,0,0-3.584-3.936A3.812,3.812,0,0,0,301.44,12.1Zm3.68-3.008a2.572,2.572,0,0,1,2.432,2.432h-4.928A2.581,2.581,0,0,1,305.12,9.088ZM310.64,16h1.168V10.656a2.2,2.2,0,0,1,2.1-1.584,2.768,2.768,0,0,1,.816.144V8.16a2.3,2.3,0,0,0-.736-.112,2.321,2.321,0,0,0-2.176,1.7V8.192H310.64Zm4.784-1.088a4.33,4.33,0,0,0,3.184,1.232c1.76,0,3.04-1.088,3.024-2.416.016-1.184-.736-1.824-2.272-2.1l-1.3-.24c-.96-.176-1.36-.448-1.36-1.12,0-.768.72-1.248,1.7-1.248a3.943,3.943,0,0,1,2.416.88l.624-.8a4.858,4.858,0,0,0-2.992-1.04c-1.648,0-2.816.96-2.816,2.288,0,1.168.752,1.792,2.208,2.048l1.3.224c.976.176,1.392.512,1.392,1.168,0,.768-.7,1.408-1.968,1.408a3.5,3.5,0,0,1-2.464-1.024ZM327.056,16h1.168V10.656a2.2,2.2,0,0,1,2.1-1.584,2.768,2.768,0,0,1,.816.144V8.16a2.3,2.3,0,0,0-.736-.112,2.321,2.321,0,0,0-2.176,1.7V8.192h-1.168Zm6.784-7.808h-1.168v5.056a2.722,2.722,0,0,0,2.816,2.88,2.813,2.813,0,0,0,2.5-1.408V16h1.168V8.192h-1.168v5.76a2.32,2.32,0,0,1-2.048,1.2,2.023,2.023,0,0,1-2.1-2.24ZM341.456,16h1.168V10.24a2.32,2.32,0,0,1,2.048-1.2,2.023,2.023,0,0,1,2.1,2.24V16h1.168V10.944a2.722,2.722,0,0,0-2.816-2.88,2.813,2.813,0,0,0-2.5,1.408V8.192h-1.168Zm16.064-.912A2.817,2.817,0,0,1,354.8,12.1a2.832,2.832,0,0,1,2.72-2.976,2.983,2.983,0,0,1,2.144.976l.752-.816A4.146,4.146,0,0,0,357.5,8.064a3.912,3.912,0,0,0-3.872,4.032,3.876,3.876,0,0,0,6.736,2.784l-.72-.72A2.791,2.791,0,0,1,357.52,15.088Zm3.92-2.992a3.816,3.816,0,1,0,7.616,0,3.814,3.814,0,1,0-7.616,0Zm6.448.016a2.663,2.663,0,1,1-5.28,0,2.664,2.664,0,1,1,5.28,0ZM371.024,16h1.168V10.24a2.32,2.32,0,0,1,2.048-1.2,2.023,2.023,0,0,1,2.1,2.24V16H377.5V10.944a2.722,2.722,0,0,0-2.816-2.88,2.813,2.813,0,0,0-2.5,1.408V8.192h-1.168Zm9.408-1.76c0,1.216.688,1.9,2.048,1.9a4.713,4.713,0,0,0,1.376-.208V14.9a2.881,2.881,0,0,1-1.1.208c-.832,0-1.152-.336-1.152-1.168V9.152h2.256v-.96H381.6V5.936l-1.168.272V8.192h-1.616v.96h1.616Zm7.488,1.9a3.321,3.321,0,0,0,2.48-1.04V16h1.152V10.816c0-1.808-1.12-2.752-3.024-2.752a6.539,6.539,0,0,0-2.944.752l.448.9a5.037,5.037,0,0,1,2.352-.672c1.312,0,2.016.624,2.016,1.936v1.056a4.683,4.683,0,0,0-2.368-.592c-1.7,0-2.928.864-2.928,2.3C385.1,15.168,386.272,16.144,387.92,16.144Zm-1.7-2.416c0-.912.832-1.456,1.968-1.456a4.052,4.052,0,0,1,2.208.576v1.5a3.116,3.116,0,0,1-2.24.9C387.024,15.248,386.224,14.64,386.224,13.728Zm8.24-7.5a.84.84,0,1,0-.832-.848A.83.83,0,0,0,394.464,6.224Zm.576,1.968h-1.168V16h1.168ZM397.36,16h1.168V10.24a2.32,2.32,0,0,1,2.048-1.2,2.023,2.023,0,0,1,2.1,2.24V16h1.168V10.944a2.722,2.722,0,0,0-2.816-2.88,2.813,2.813,0,0,0-2.5,1.408V8.192H397.36Zm8.448-3.9a3.907,3.907,0,0,0,3.872,4.048,4.5,4.5,0,0,0,2.928-1.04l-.736-.8a3.191,3.191,0,0,1-2.144.8,2.81,2.81,0,0,1-2.768-2.768h6.128V12A3.7,3.7,0,0,0,409.5,8.064,3.812,3.812,0,0,0,405.808,12.1Zm3.68-3.008a2.572,2.572,0,0,1,2.432,2.432h-4.928A2.581,2.581,0,0,1,409.488,9.088ZM415.008,16h1.168V10.656a2.2,2.2,0,0,1,2.1-1.584,2.768,2.768,0,0,1,.816.144V8.16a2.3,2.3,0,0,0-.736-.112,2.321,2.321,0,0,0-2.176,1.7V8.192h-1.168Zm5.056-5.008V12h5.328V10.992Zm14.752,1.1a3.78,3.78,0,0,0-3.616-4,3.091,3.091,0,0,0-2.512,1.184V4.56l-1.168.24V16h1.152V14.976a3.081,3.081,0,0,0,2.464,1.136A3.8,3.8,0,0,0,434.816,12.1Zm-3.9-2.976a2.8,2.8,0,0,1,2.736,2.992,2.769,2.769,0,0,1-4.96,1.9V10.192A2.688,2.688,0,0,1,430.912,9.12Zm8.384,7.024a3.321,3.321,0,0,0,2.48-1.04V16h1.152V10.816c0-1.808-1.12-2.752-3.024-2.752a6.539,6.539,0,0,0-2.944.752l.448.9a5.037,5.037,0,0,1,2.352-.672c1.312,0,2.016.624,2.016,1.936v1.056a4.683,4.683,0,0,0-2.368-.592c-1.7,0-2.928.864-2.928,2.3C436.48,15.168,437.648,16.144,439.3,16.144Zm-1.7-2.416c0-.912.832-1.456,1.968-1.456a4.052,4.052,0,0,1,2.208.576v1.5a3.116,3.116,0,0,1-2.24.9C438.4,15.248,437.6,14.64,437.6,13.728Zm6.912,1.184a4.33,4.33,0,0,0,3.184,1.232c1.76,0,3.04-1.088,3.024-2.416.016-1.184-.736-1.824-2.272-2.1l-1.3-.24c-.96-.176-1.36-.448-1.36-1.12,0-.768.72-1.248,1.7-1.248a3.943,3.943,0,0,1,2.416.88l.624-.8a4.858,4.858,0,0,0-2.992-1.04c-1.648,0-2.816.96-2.816,2.288,0,1.168.752,1.792,2.208,2.048l1.3.224c.976.176,1.392.512,1.392,1.168,0,.768-.7,1.408-1.968,1.408a3.5,3.5,0,0,1-2.464-1.024ZM452.16,12.1a3.907,3.907,0,0,0,3.872,4.048,4.5,4.5,0,0,0,2.928-1.04l-.736-.8a3.191,3.191,0,0,1-2.144.8,2.81,2.81,0,0,1-2.768-2.768h6.128V12a3.7,3.7,0,0,0-3.584-3.936A3.812,3.812,0,0,0,452.16,12.1Zm3.68-3.008a2.572,2.572,0,0,1,2.432,2.432h-4.928A2.581,2.581,0,0,1,455.84,9.088ZM467.152,16h1.168V4.56l-1.184.24V9.168A3.2,3.2,0,0,0,464.72,8.1a3.8,3.8,0,0,0-3.68,4.016,3.78,3.78,0,0,0,3.616,4,3.139,3.139,0,0,0,2.5-1.168Zm-4.944-3.9a2.775,2.775,0,0,1,2.72-2.976,2.813,2.813,0,0,1,2.208,1.04v3.888a2.7,2.7,0,0,1-2.208,1.04A2.789,2.789,0,0,1,462.208,12.1Zm14.576,4.048a3.321,3.321,0,0,0,2.48-1.04V16h1.152V10.816c0-1.808-1.12-2.752-3.024-2.752a6.539,6.539,0,0,0-2.944.752l.448.9a5.037,5.037,0,0,1,2.352-.672c1.312,0,2.016.624,2.016,1.936v1.056a4.683,4.683,0,0,0-2.368-.592c-1.7,0-2.928.864-2.928,2.3C473.968,15.168,475.136,16.144,476.784,16.144Zm-1.7-2.416c0-.912.832-1.456,1.968-1.456a4.052,4.052,0,0,1,2.208.576v1.5a3.116,3.116,0,0,1-2.24.9C475.888,15.248,475.088,14.64,475.088,13.728Zm7.648,5.456H483.9V15.008a3.14,3.14,0,0,0,2.448,1.1,3.8,3.8,0,0,0,3.68-4.016,3.78,3.78,0,0,0-3.616-4,3.081,3.081,0,0,0-2.528,1.216V8.192h-1.152ZM486.128,9.12a2.8,2.8,0,0,1,2.736,2.992,2.769,2.769,0,0,1-4.96,1.9V10.192A2.688,2.688,0,0,1,486.128,9.12ZM492,19.184h1.168V15.008a3.14,3.14,0,0,0,2.448,1.1A3.8,3.8,0,0,0,499.3,12.1a3.78,3.78,0,0,0-3.616-4,3.081,3.081,0,0,0-2.528,1.216V8.192H492ZM495.392,9.12a2.8,2.8,0,0,1,2.736,2.992,2.769,2.769,0,0,1-4.96,1.9V10.192A2.688,2.688,0,0,1,495.392,9.12Zm5.216,5.792a4.33,4.33,0,0,0,3.184,1.232c1.76,0,3.04-1.088,3.024-2.416.016-1.184-.736-1.824-2.272-2.1l-1.3-.24c-.96-.176-1.36-.448-1.36-1.12,0-.768.72-1.248,1.7-1.248A3.943,3.943,0,0,1,506,9.9l.624-.8a4.858,4.858,0,0,0-2.992-1.04c-1.648,0-2.816.96-2.816,2.288,0,1.168.752,1.792,2.208,2.048l1.3.224c.976.176,1.392.512,1.392,1.168,0,.768-.7,1.408-1.968,1.408a3.5,3.5,0,0,1-2.464-1.024Zm8.256-.528a.873.873,0,1,0,.832.88A.861.861,0,0,0,508.864,14.384ZM515.744,16h1.232V4.8h-1.232Zm4.736-1.76c0,1.216.688,1.9,2.048,1.9a4.714,4.714,0,0,0,1.376-.208V14.9a2.881,2.881,0,0,1-1.1.208c-.832,0-1.152-.336-1.152-1.168V9.152H523.9v-.96h-2.256V5.936l-1.168.272V8.192h-1.616v.96h1.616ZM529.264,16h1.168V10.192a2.171,2.171,0,0,1,1.9-1.152,1.939,1.939,0,0,1,1.936,2.208V16h1.168V10.96a3.236,3.236,0,0,0-.064-.688,2.2,2.2,0,0,1,1.952-1.232c1.216,0,1.92.864,1.92,2.208V16h1.184V10.96a2.669,2.669,0,0,0-2.672-2.9,2.915,2.915,0,0,0-2.608,1.52,2.56,2.56,0,0,0-2.384-1.52,2.672,2.672,0,0,0-2.336,1.344V8.192h-1.168ZM542.4,12.1a3.907,3.907,0,0,0,3.872,4.048A4.5,4.5,0,0,0,549.2,15.1l-.736-.8a3.191,3.191,0,0,1-2.144.8,2.81,2.81,0,0,1-2.768-2.768h6.128V12A3.7,3.7,0,0,0,546.1,8.064,3.812,3.812,0,0,0,542.4,12.1Zm3.68-3.008a2.572,2.572,0,0,1,2.432,2.432h-4.928A2.581,2.581,0,0,1,546.08,9.088Zm7.824,7.056a3.321,3.321,0,0,0,2.48-1.04V16h1.152V10.816c0-1.808-1.12-2.752-3.024-2.752a6.539,6.539,0,0,0-2.944.752l.448.9a5.037,5.037,0,0,1,2.352-.672c1.312,0,2.016.624,2.016,1.936v1.056a4.683,4.683,0,0,0-2.368-.592c-1.7,0-2.928.864-2.928,2.3C551.088,15.168,552.256,16.144,553.9,16.144Zm-1.7-2.416c0-.912.832-1.456,1.968-1.456a4.052,4.052,0,0,1,2.208.576v1.5a3.116,3.116,0,0,1-2.24.9C553.008,15.248,552.208,14.64,552.208,13.728ZM559.856,16h1.168V10.24a2.32,2.32,0,0,1,2.048-1.2,2.023,2.023,0,0,1,2.1,2.24V16h1.168V10.944a2.722,2.722,0,0,0-2.816-2.88,2.813,2.813,0,0,0-2.5,1.408V8.192h-1.168Zm8.048-1.088a4.33,4.33,0,0,0,3.184,1.232c1.76,0,3.04-1.088,3.024-2.416.016-1.184-.736-1.824-2.272-2.1l-1.3-.24c-.96-.176-1.36-.448-1.36-1.12,0-.768.72-1.248,1.7-1.248a3.943,3.943,0,0,1,2.416.88l.624-.8a4.858,4.858,0,0,0-2.992-1.04c-1.648,0-2.816.96-2.816,2.288,0,1.168.752,1.792,2.208,2.048l1.3.224c.976.176,1.392.512,1.392,1.168,0,.768-.7,1.408-1.968,1.408a3.5,3.5,0,0,1-2.464-1.024ZM579.536,16H580.7V10.192a2.171,2.171,0,0,1,1.9-1.152,1.939,1.939,0,0,1,1.936,2.208V16h1.168V10.96a3.236,3.236,0,0,0-.064-.688A2.2,2.2,0,0,1,587.6,9.04c1.216,0,1.92.864,1.92,2.208V16H590.7V10.96a2.669,2.669,0,0,0-2.672-2.9,2.915,2.915,0,0,0-2.608,1.52,2.56,2.56,0,0,0-2.384-1.52A2.672,2.672,0,0,0,580.7,9.408V8.192h-1.168Zm13.136-3.9a3.816,3.816,0,1,0,7.616,0,3.814,3.814,0,1,0-7.616,0Zm6.448.016a2.663,2.663,0,1,1-5.28,0,2.664,2.664,0,1,1,5.28,0ZM602.256,16h1.168V10.656a2.2,2.2,0,0,1,2.1-1.584,2.768,2.768,0,0,1,.816.144V8.16a2.3,2.3,0,0,0-.736-.112,2.321,2.321,0,0,0-2.176,1.7V8.192h-1.168Zm4.7-3.9a3.907,3.907,0,0,0,3.872,4.048,4.5,4.5,0,0,0,2.928-1.04l-.736-.8a3.191,3.191,0,0,1-2.144.8,2.81,2.81,0,0,1-2.768-2.768h6.128V12a3.7,3.7,0,0,0-3.584-3.936A3.812,3.812,0,0,0,606.96,12.1Zm3.68-3.008a2.572,2.572,0,0,1,2.432,2.432h-4.928A2.581,2.581,0,0,1,610.64,9.088Zm12.8,6a2.817,2.817,0,0,1-2.72-2.992,2.832,2.832,0,0,1,2.72-2.976,2.983,2.983,0,0,1,2.144.976l.752-.816a4.146,4.146,0,0,0-2.912-1.216,3.912,3.912,0,0,0-3.872,4.032,3.876,3.876,0,0,0,6.736,2.784l-.72-.72A2.791,2.791,0,0,1,623.44,15.088Zm9.888.912H634.5V10.944a2.722,2.722,0,0,0-2.816-2.88,2.813,2.813,0,0,0-2.5,1.408V4.56l-1.168.24V16h1.168V10.24a2.32,2.32,0,0,1,2.048-1.2,2.023,2.023,0,0,1,2.1,2.24Zm3.136-3.9a3.816,3.816,0,1,0,7.616,0,3.814,3.814,0,1,0-7.616,0Zm6.448.016a2.663,2.663,0,1,1-5.28,0,2.664,2.664,0,1,1,5.28,0Zm3.728-5.888a.84.84,0,1,0-.832-.848A.83.83,0,0,0,646.64,6.224Zm.576,1.968h-1.168V16h1.168Zm5.872,6.9a2.817,2.817,0,0,1-2.72-2.992,2.832,2.832,0,0,1,2.72-2.976,2.983,2.983,0,0,1,2.144.976l.752-.816a4.146,4.146,0,0,0-2.912-1.216A3.912,3.912,0,0,0,649.2,12.1a3.876,3.876,0,0,0,6.736,2.784l-.72-.72A2.791,2.791,0,0,1,653.088,15.088Zm3.92-2.992a3.907,3.907,0,0,0,3.872,4.048,4.5,4.5,0,0,0,2.928-1.04l-.736-.8a3.191,3.191,0,0,1-2.144.8,2.81,2.81,0,0,1-2.768-2.768h6.128V12A3.7,3.7,0,0,0,660.7,8.064,3.812,3.812,0,0,0,657.008,12.1Zm3.68-3.008a2.572,2.572,0,0,1,2.432,2.432h-4.928A2.581,2.581,0,0,1,660.688,9.088Zm11.68,7.056a3.321,3.321,0,0,0,2.48-1.04V16H676V10.816c0-1.808-1.12-2.752-3.024-2.752a6.539,6.539,0,0,0-2.944.752l.448.9a5.037,5.037,0,0,1,2.352-.672c1.312,0,2.016.624,2.016,1.936v1.056a4.683,4.683,0,0,0-2.368-.592c-1.7,0-2.928.864-2.928,2.3C669.552,15.168,670.72,16.144,672.368,16.144Zm-1.7-2.416c0-.912.832-1.456,1.968-1.456a4.052,4.052,0,0,1,2.208.576v1.5a3.116,3.116,0,0,1-2.24.9C671.472,15.248,670.672,14.64,670.672,13.728ZM678.32,16h1.168V10.24a2.32,2.32,0,0,1,2.048-1.2,2.023,2.023,0,0,1,2.1,2.24V16H684.8V10.944a2.722,2.722,0,0,0-2.816-2.88,2.813,2.813,0,0,0-2.5,1.408V8.192H678.32Zm14.56,0h1.168V4.56l-1.184.24V9.168A3.2,3.2,0,0,0,690.448,8.1a3.8,3.8,0,0,0-3.68,4.016,3.78,3.78,0,0,0,3.616,4,3.139,3.139,0,0,0,2.5-1.168Zm-4.944-3.9a2.775,2.775,0,0,1,2.72-2.976,2.813,2.813,0,0,1,2.208,1.04v3.888a2.7,2.7,0,0,1-2.208,1.04A2.789,2.789,0,0,1,687.936,12.1ZM.416,32.192v.96H2.16V40H3.328V33.152h2.24v-.96H3.328V30.976c0-.944.416-1.36,1.28-1.36a2.856,2.856,0,0,1,.96.144V28.7a3.664,3.664,0,0,0-1.056-.144,2.147,2.147,0,0,0-2.352,2.4v1.232ZM8.192,28.56l-1.168.24V40H8.192ZM10.176,36.1a3.907,3.907,0,0,0,3.872,4.048,4.5,4.5,0,0,0,2.928-1.04l-.736-.8a3.191,3.191,0,0,1-2.144.8,2.81,2.81,0,0,1-2.768-2.768h6.128V36a3.7,3.7,0,0,0-3.584-3.936A3.812,3.812,0,0,0,10.176,36.1Zm3.68-3.008a2.572,2.572,0,0,1,2.432,2.432H11.36A2.581,2.581,0,0,1,13.856,33.088ZM17.968,40H19.3l2.32-3.184L23.952,40h1.376L22.3,35.952l2.816-3.76H23.776l-2.128,2.96L19.5,32.192H18.1l2.848,3.776Zm9.424-9.776a.84.84,0,1,0-.832-.848A.83.83,0,0,0,27.392,30.224Zm.576,1.968H26.8V40h1.168Zm9.616,3.9a3.78,3.78,0,0,0-3.616-4,3.091,3.091,0,0,0-2.512,1.184V28.56l-1.168.24V40H31.44V38.976A3.081,3.081,0,0,0,33.9,40.112,3.8,3.8,0,0,0,37.584,36.1Zm-3.9-2.976a2.8,2.8,0,0,1,2.736,2.992,2.769,2.769,0,0,1-4.96,1.9V34.192A2.688,2.688,0,0,1,33.68,33.12Zm6.464-2.9a.84.84,0,1,0-.832-.848A.83.83,0,0,0,40.144,30.224Zm.576,1.968H39.552V40H40.72Zm3.488-3.632-1.168.24V40h1.168Zm2.912,1.664a.84.84,0,1,0-.832-.848A.83.83,0,0,0,47.12,30.224Zm.576,1.968H46.528V40H47.7ZM50.96,38.24c0,1.216.688,1.9,2.048,1.9a4.713,4.713,0,0,0,1.376-.208V38.9a2.881,2.881,0,0,1-1.1.208c-.832,0-1.152-.336-1.152-1.168V33.152h2.256v-.96H52.128V29.936l-1.168.272v1.984H49.344v.96H50.96ZM57.9,41.088c-.32.8-.736.992-1.264.992a3.939,3.939,0,0,1-.64-.064v1.04a2.568,2.568,0,0,0,.752.112c1.168,0,1.76-.5,2.24-1.728L62.8,32.192H61.52l-2.512,6.432L56.64,32.192H55.328l3.024,7.792Zm9.36-8.9v.96h1.744V40h1.168V33.152h2.24v-.96h-2.24V30.976c0-.944.416-1.36,1.28-1.36a2.856,2.856,0,0,1,.96.144V28.7a3.664,3.664,0,0,0-1.056-.144,2.147,2.147,0,0,0-2.352,2.4v1.232Zm5.856,3.9a3.816,3.816,0,1,0,7.616,0,3.814,3.814,0,1,0-7.616,0Zm6.448.016a2.663,2.663,0,1,1-5.28,0,2.664,2.664,0,1,1,5.28,0ZM82.7,40h1.168V34.656a2.2,2.2,0,0,1,2.1-1.584,2.768,2.768,0,0,1,.816.144V32.16a2.3,2.3,0,0,0-.736-.112,2.321,2.321,0,0,0-2.176,1.7V32.192H82.7Zm11.072,1.088c-.32.8-.736.992-1.264.992a3.939,3.939,0,0,1-.64-.064v1.04a2.568,2.568,0,0,0,.752.112c1.168,0,1.76-.5,2.24-1.728l3.808-9.248h-1.28L94.88,38.624l-2.368-6.432H91.2l3.024,7.792ZM99.488,36.1a3.816,3.816,0,1,0,7.616,0,3.814,3.814,0,1,0-7.616,0Zm6.448.016a2.663,2.663,0,1,1-5.28,0,2.664,2.664,0,1,1,5.28,0Zm4.3-3.92h-1.168v5.056a2.722,2.722,0,0,0,2.816,2.88,2.813,2.813,0,0,0,2.5-1.408V40h1.168V32.192h-1.168v5.76a2.32,2.32,0,0,1-2.048,1.2,2.023,2.023,0,0,1-2.1-2.24ZM117.856,40h1.168V34.656a2.2,2.2,0,0,1,2.1-1.584,2.768,2.768,0,0,1,.816.144V32.16a2.3,2.3,0,0,0-.736-.112,2.321,2.321,0,0,0-2.176,1.7V32.192h-1.168Zm14.656,0h1.168V34.944a2.722,2.722,0,0,0-2.816-2.88,2.814,2.814,0,0,0-2.5,1.408V28.56l-1.168.24V40h1.168V34.24a2.32,2.32,0,0,1,2.048-1.2,2.023,2.023,0,0,1,2.1,2.24Zm5.04,1.088c-.32.8-.736.992-1.264.992a3.939,3.939,0,0,1-.64-.064v1.04a2.568,2.568,0,0,0,.752.112c1.168,0,1.76-.5,2.24-1.728l3.808-9.248h-1.28l-2.512,6.432-2.368-6.432h-1.312L138,39.984ZM151.216,36.1a3.78,3.78,0,0,0-3.616-4,3.091,3.091,0,0,0-2.512,1.184V28.56l-1.168.24V40h1.152V38.976a3.081,3.081,0,0,0,2.464,1.136A3.8,3.8,0,0,0,151.216,36.1Zm-3.9-2.976a2.8,2.8,0,0,1,2.736,2.992,2.769,2.769,0,0,1-4.96,1.9V34.192A2.687,2.687,0,0,1,147.312,33.12ZM153.184,40h1.168V34.656a2.2,2.2,0,0,1,2.1-1.584,2.768,2.768,0,0,1,.816.144V32.16a2.3,2.3,0,0,0-.736-.112,2.321,2.321,0,0,0-2.176,1.7V32.192h-1.168Zm6.208-9.776a.84.84,0,1,0-.832-.848A.83.83,0,0,0,159.392,30.224Zm.576,1.968H158.8V40h1.168Zm8.1,7.808h1.168V28.56l-1.184.24v4.368a3.2,3.2,0,0,0-2.416-1.072,3.8,3.8,0,0,0-3.68,4.016,3.78,3.78,0,0,0,3.616,4,3.139,3.139,0,0,0,2.5-1.168Zm-4.944-3.9a2.775,2.775,0,0,1,2.72-2.976,2.813,2.813,0,0,1,2.208,1.04v3.888a2.7,2.7,0,0,1-2.208,1.04A2.789,2.789,0,0,1,163.12,36.1Zm15.7,2.992a3,3,0,0,1,0-5.968,2.983,2.983,0,0,1,2.144.976l.752-.816a4.146,4.146,0,0,0-2.912-1.216,4.044,4.044,0,0,0,0,8.08,3.955,3.955,0,0,0,2.864-1.264l-.72-.72A2.791,2.791,0,0,1,178.816,39.088ZM184.56,28.56l-1.168.24V40h1.168Zm1.984,7.536a3.816,3.816,0,1,0,7.616,0,3.814,3.814,0,1,0-7.616,0Zm6.448.016a2.663,2.663,0,1,1-5.28,0,2.664,2.664,0,1,1,5.28,0Zm4.3-3.92h-1.168v5.056a2.722,2.722,0,0,0,2.816,2.88,2.813,2.813,0,0,0,2.5-1.408V40h1.168V32.192H201.44v5.76a2.32,2.32,0,0,1-2.048,1.2,2.023,2.023,0,0,1-2.1-2.24ZM210.688,40h1.168V28.56l-1.184.24v4.368a3.2,3.2,0,0,0-2.416-1.072,3.8,3.8,0,0,0-3.68,4.016,3.78,3.78,0,0,0,3.616,4,3.139,3.139,0,0,0,2.5-1.168Zm-4.944-3.9a2.775,2.775,0,0,1,2.72-2.976,2.813,2.813,0,0,1,2.208,1.04v3.888a2.7,2.7,0,0,1-2.208,1.04A2.789,2.789,0,0,1,205.744,36.1Zm14.576,4.048a3.321,3.321,0,0,0,2.48-1.04V40h1.152V34.816c0-1.808-1.12-2.752-3.024-2.752a6.539,6.539,0,0,0-2.944.752l.448.9a5.037,5.037,0,0,1,2.352-.672c1.312,0,2.016.624,2.016,1.936v1.056a4.683,4.683,0,0,0-2.368-.592c-1.7,0-2.928.864-2.928,2.3C217.5,39.168,218.672,40.144,220.32,40.144Zm-1.7-2.416c0-.912.832-1.456,1.968-1.456a4.052,4.052,0,0,1,2.208.576v1.5a3.116,3.116,0,0,1-2.24.9C219.424,39.248,218.624,38.64,218.624,37.728ZM226.272,40h1.168V34.24a2.32,2.32,0,0,1,2.048-1.2,2.023,2.023,0,0,1,2.1,2.24V40h1.168V34.944a2.722,2.722,0,0,0-2.816-2.88,2.813,2.813,0,0,0-2.5,1.408v-1.28h-1.168Zm14.56,0H242V28.56l-1.184.24v4.368A3.2,3.2,0,0,0,238.4,32.1a3.8,3.8,0,0,0-3.68,4.016,3.78,3.78,0,0,0,3.616,4,3.139,3.139,0,0,0,2.5-1.168Zm-4.944-3.9a2.775,2.775,0,0,1,2.72-2.976,2.813,2.813,0,0,1,2.208,1.04v3.888a2.7,2.7,0,0,1-2.208,1.04A2.789,2.789,0,0,1,235.888,36.1Zm17.92,3.9h1.168V28.56l-1.184.24v4.368a3.2,3.2,0,0,0-2.416-1.072,3.8,3.8,0,0,0-3.68,4.016,3.78,3.78,0,0,0,3.616,4,3.139,3.139,0,0,0,2.5-1.168Zm-4.944-3.9a2.775,2.775,0,0,1,2.72-2.976,2.813,2.813,0,0,1,2.208,1.04v3.888a2.7,2.7,0,0,1-2.208,1.04A2.789,2.789,0,0,1,248.864,36.1Zm10.848,4.048a3.321,3.321,0,0,0,2.48-1.04V40h1.152V34.816c0-1.808-1.12-2.752-3.024-2.752a6.539,6.539,0,0,0-2.944.752l.448.9a5.037,5.037,0,0,1,2.352-.672c1.312,0,2.016.624,2.016,1.936v1.056a4.683,4.683,0,0,0-2.368-.592c-1.7,0-2.928.864-2.928,2.3C256.9,39.168,258.064,40.144,259.712,40.144Zm-1.7-2.416c0-.912.832-1.456,1.968-1.456a4.052,4.052,0,0,1,2.208.576v1.5a3.116,3.116,0,0,1-2.24.9C258.816,39.248,258.016,38.64,258.016,37.728Zm8.272.512c0,1.216.688,1.9,2.048,1.9a4.713,4.713,0,0,0,1.376-.208V38.9a2.881,2.881,0,0,1-1.1.208c-.832,0-1.152-.336-1.152-1.168V33.152h2.256v-.96h-2.256V29.936l-1.168.272v1.984h-1.616v.96h1.616Zm7.488,1.9a3.321,3.321,0,0,0,2.48-1.04V40h1.152V34.816c0-1.808-1.12-2.752-3.024-2.752a6.539,6.539,0,0,0-2.944.752l.448.9a5.037,5.037,0,0,1,2.352-.672c1.312,0,2.016.624,2.016,1.936v1.056a4.683,4.683,0,0,0-2.368-.592c-1.7,0-2.928.864-2.928,2.3C270.96,39.168,272.128,40.144,273.776,40.144Zm-1.7-2.416c0-.912.832-1.456,1.968-1.456a4.052,4.052,0,0,1,2.208.576v1.5a3.116,3.116,0,0,1-2.24.9C272.88,39.248,272.08,38.64,272.08,37.728ZM287.024,36.1a3.78,3.78,0,0,0-3.616-4A3.091,3.091,0,0,0,280.9,33.28V28.56l-1.168.24V40h1.152V38.976a3.081,3.081,0,0,0,2.464,1.136A3.8,3.8,0,0,0,287.024,36.1Zm-3.9-2.976a2.8,2.8,0,0,1,2.736,2.992,2.769,2.769,0,0,1-4.96,1.9V34.192A2.688,2.688,0,0,1,283.12,33.12Zm8.384,7.024a3.321,3.321,0,0,0,2.48-1.04V40h1.152V34.816c0-1.808-1.12-2.752-3.024-2.752a6.539,6.539,0,0,0-2.944.752l.448.9a5.037,5.037,0,0,1,2.352-.672c1.312,0,2.016.624,2.016,1.936v1.056a4.683,4.683,0,0,0-2.368-.592c-1.7,0-2.928.864-2.928,2.3C288.688,39.168,289.856,40.144,291.5,40.144Zm-1.7-2.416c0-.912.832-1.456,1.968-1.456a4.052,4.052,0,0,1,2.208.576v1.5a3.116,3.116,0,0,1-2.24.9C290.608,39.248,289.808,38.64,289.808,37.728Zm6.912,1.184a4.33,4.33,0,0,0,3.184,1.232c1.76,0,3.04-1.088,3.024-2.416.016-1.184-.736-1.824-2.272-2.1l-1.3-.24c-.96-.176-1.36-.448-1.36-1.12,0-.768.72-1.248,1.7-1.248a3.943,3.943,0,0,1,2.416.88l.624-.8a4.858,4.858,0,0,0-2.992-1.04c-1.648,0-2.816.96-2.816,2.288,0,1.168.752,1.792,2.208,2.048l1.3.224c.976.176,1.392.512,1.392,1.168,0,.768-.7,1.408-1.968,1.408a3.5,3.5,0,0,1-2.464-1.024Zm7.648-2.816a3.907,3.907,0,0,0,3.872,4.048,4.5,4.5,0,0,0,2.928-1.04l-.736-.8a3.191,3.191,0,0,1-2.144.8,2.81,2.81,0,0,1-2.768-2.768h6.128V36a3.7,3.7,0,0,0-3.584-3.936A3.812,3.812,0,0,0,304.368,36.1Zm3.68-3.008a2.572,2.572,0,0,1,2.432,2.432h-4.928A2.581,2.581,0,0,1,308.048,33.088ZM323.072,40h1.168V28.56l-1.184.24v4.368A3.2,3.2,0,0,0,320.64,32.1a3.8,3.8,0,0,0-3.68,4.016,3.78,3.78,0,0,0,3.616,4,3.139,3.139,0,0,0,2.5-1.168Zm-4.944-3.9a2.775,2.775,0,0,1,2.72-2.976,2.813,2.813,0,0,1,2.208,1.04v3.888a2.7,2.7,0,0,1-2.208,1.04A2.789,2.789,0,0,1,318.128,36.1Zm8.08,0a3.907,3.907,0,0,0,3.872,4.048,4.5,4.5,0,0,0,2.928-1.04l-.736-.8a3.191,3.191,0,0,1-2.144.8,2.81,2.81,0,0,1-2.768-2.768h6.128V36a3.7,3.7,0,0,0-3.584-3.936A3.812,3.812,0,0,0,326.208,36.1Zm3.68-3.008a2.572,2.572,0,0,1,2.432,2.432h-4.928A2.581,2.581,0,0,1,329.888,33.088Zm5.52,10.1h1.168V39.008a3.14,3.14,0,0,0,2.448,1.1A3.8,3.8,0,0,0,342.7,36.1a3.78,3.78,0,0,0-3.616-4,3.081,3.081,0,0,0-2.528,1.216v-1.12h-1.152ZM338.8,33.12a2.8,2.8,0,0,1,2.736,2.992,2.769,2.769,0,0,1-4.96,1.9V34.192A2.688,2.688,0,0,1,338.8,33.12Zm7.04-4.56-1.168.24V40h1.168Zm1.984,7.536a3.816,3.816,0,1,0,7.616,0,3.814,3.814,0,1,0-7.616,0Zm6.448.016a2.663,2.663,0,1,1-5.28,0,2.664,2.664,0,1,1,5.28,0Zm4.544,4.976c-.32.8-.736.992-1.264.992a3.939,3.939,0,0,1-.64-.064v1.04a2.568,2.568,0,0,0,.752.112c1.168,0,1.76-.5,2.24-1.728l3.808-9.248h-1.28l-2.512,6.432-2.368-6.432H356.24l3.024,7.792ZM365.184,40h1.168V34.192a2.171,2.171,0,0,1,1.9-1.152,1.939,1.939,0,0,1,1.936,2.208V40h1.168V34.96a3.238,3.238,0,0,0-.064-.688,2.2,2.2,0,0,1,1.952-1.232c1.216,0,1.92.864,1.92,2.208V40h1.184V34.96a2.669,2.669,0,0,0-2.672-2.9,2.915,2.915,0,0,0-2.608,1.52,2.56,2.56,0,0,0-2.384-1.52,2.672,2.672,0,0,0-2.336,1.344V32.192h-1.168Zm13.136-3.9a3.907,3.907,0,0,0,3.872,4.048,4.5,4.5,0,0,0,2.928-1.04l-.736-.8a3.191,3.191,0,0,1-2.144.8,2.81,2.81,0,0,1-2.768-2.768H385.6V36a3.7,3.7,0,0,0-3.584-3.936A3.812,3.812,0,0,0,378.32,36.1ZM382,33.088a2.572,2.572,0,0,1,2.432,2.432H379.5A2.581,2.581,0,0,1,382,33.088ZM387.52,40h1.168V34.24a2.32,2.32,0,0,1,2.048-1.2,2.023,2.023,0,0,1,2.1,2.24V40H394V34.944a2.722,2.722,0,0,0-2.816-2.88,2.813,2.813,0,0,0-2.5,1.408v-1.28H387.52Zm9.408-1.76c0,1.216.688,1.9,2.048,1.9a4.713,4.713,0,0,0,1.376-.208V38.9a2.881,2.881,0,0,1-1.1.208c-.832,0-1.152-.336-1.152-1.168V33.152h2.256v-.96H398.1V29.936l-1.168.272v1.984h-1.616v.96h1.616Zm4.48.672a4.33,4.33,0,0,0,3.184,1.232c1.76,0,3.04-1.088,3.024-2.416.016-1.184-.736-1.824-2.272-2.1l-1.3-.24c-.96-.176-1.36-.448-1.36-1.12,0-.768.72-1.248,1.7-1.248a3.943,3.943,0,0,1,2.416.88l.624-.8a4.858,4.858,0,0,0-2.992-1.04c-1.648,0-2.816.96-2.816,2.288,0,1.168.752,1.792,2.208,2.048l1.3.224c.976.176,1.392.512,1.392,1.168,0,.768-.7,1.408-1.968,1.408a3.5,3.5,0,0,1-2.464-1.024Zm8.256-.528a.873.873,0,1,0,.832.88A.861.861,0,0,0,409.664,38.384Z" transform="translate(24 67)"/><g transform="translate(832 18)"><rect class="b" width="24" height="24"/><path class="c" d="M8.24,12.475,1.354,5.589a1.232,1.232,0,0,1,0-1.62L2.569,2.754a1.232,1.232,0,0,1,1.62,0L9.05,7.615l4.861-4.861a1.232,1.232,0,0,1,1.62,0l1.215,1.215a1.232,1.232,0,0,1,0,1.62L9.86,12.475A1.232,1.232,0,0,1,8.24,12.475Z" transform="translate(2.95 4.55)"/></g><path class="c" d="M8.22-1.72A5.172,5.172,0,0,1,2.96-7a5.134,5.134,0,0,1,5.2-5.28,5.563,5.563,0,0,1,4.24,1.92l1.4-1.44a7.554,7.554,0,0,0-5.64-2.42A7.194,7.194,0,0,0,.82-7,7.182,7.182,0,0,0,8.16.22a7.628,7.628,0,0,0,5.6-2.42L12.38-3.6A5.427,5.427,0,0,1,8.22-1.72Zm6.5-3.38A5.246,5.246,0,0,0,20.02.2,5.229,5.229,0,0,0,25.3-5.1a5.225,5.225,0,0,0-5.28-5.28A5.242,5.242,0,0,0,14.72-5.1Zm8.64,0a3.419,3.419,0,0,1-3.34,3.54A3.406,3.406,0,0,1,16.68-5.1a3.4,3.4,0,0,1,3.34-3.52A3.4,3.4,0,0,1,23.36-5.1ZM27.18,0h2V-7.32a2.866,2.866,0,0,1,2.5-1.32,2.374,2.374,0,0,1,2.54,2.58V0H36.2V-6.4a3.8,3.8,0,0,0-3.96-3.98,4.16,4.16,0,0,0-3.06,1.22v-1.02h-2ZM39.46-2.52c0,1.76,1.06,2.7,3.04,2.7a6.851,6.851,0,0,0,1.9-.3V-1.8a3.862,3.862,0,0,1-1.46.24c-1.08,0-1.5-.38-1.5-1.42V-8.5h3v-1.68h-3v-3.08l-1.98.48v2.6H37.3V-8.5h2.16ZM49.14.18A4.792,4.792,0,0,0,52.3-.88V0h1.96V-6.74c0-2.36-1.54-3.64-4.16-3.64a9.555,9.555,0,0,0-4.18,1.04l.74,1.5a7.377,7.377,0,0,1,3.16-.86c1.62,0,2.48.72,2.48,2.16v1.08a7.04,7.04,0,0,0-2.78-.56c-2.38,0-4.12,1.06-4.12,3.1C45.4-1.1,46.92.18,49.14.18ZM47.32-2.96c0-1.06.96-1.68,2.36-1.68a5.34,5.34,0,0,1,2.62.6v1.78a3.915,3.915,0,0,1-2.7.96C48.26-1.3,47.32-1.96,47.32-2.96Zm10.24-8.86a1.229,1.229,0,0,0,1.22-1.24,1.229,1.229,0,0,0-1.22-1.24,1.246,1.246,0,0,0-1.24,1.24A1.246,1.246,0,0,0,57.56-11.82Zm1,1.64h-2V0h2ZM60.88,0h2V-7.32a2.866,2.866,0,0,1,2.5-1.32,2.374,2.374,0,0,1,2.54,2.58V0H69.9V-6.4a3.8,3.8,0,0,0-3.96-3.98,4.16,4.16,0,0,0-3.06,1.22v-1.02h-2Zm10.9-5.1A5.238,5.238,0,0,0,77.12.18a6,6,0,0,0,3.94-1.34L79.78-2.42a3.96,3.96,0,0,1-2.58.9,3.434,3.434,0,0,1-3.44-2.92H81.8v-.58a5.041,5.041,0,0,0-4.92-5.32A5.115,5.115,0,0,0,71.78-5.1Zm5.06-3.56a3.133,3.133,0,0,1,2.98,2.72H73.78A3.129,3.129,0,0,1,76.84-8.66ZM83.68,0h2V-6.82A2.741,2.741,0,0,1,88.3-8.66a3.566,3.566,0,0,1,1.2.22v-1.8a2.909,2.909,0,0,0-1.04-.16,3.264,3.264,0,0,0-2.78,1.48v-1.26h-2ZM94.36-1.32A6.794,6.794,0,0,0,98.82.18c2.42,0,4.26-1.36,4.26-3.2,0-1.56-1.02-2.54-3.08-2.84l-1.84-.26c-1.2-.18-1.68-.52-1.68-1.28,0-.86.86-1.38,2.04-1.38a5.589,5.589,0,0,1,3.22,1.06l1.02-1.32a6.988,6.988,0,0,0-4.1-1.3c-2.34,0-3.98,1.22-3.98,3.08,0,1.58,1.04,2.54,3.04,2.82l1.84.26c1.14.16,1.64.58,1.64,1.3,0,.82-.84,1.52-2.44,1.52a5.235,5.235,0,0,1-3.32-1.28Zm12.22-8.86H104.6v6.4A3.8,3.8,0,0,0,108.56.2a4.16,4.16,0,0,0,3.06-1.22V0h2V-10.18h-2v7.32a2.866,2.866,0,0,1-2.5,1.32,2.374,2.374,0,0,1-2.54-2.58Zm9.36,14.32h2V-.84a5.038,5.038,0,0,0,3.04,1,5.153,5.153,0,0,0,5.2-5.26,5.136,5.136,0,0,0-5.14-5.24,4.808,4.808,0,0,0-3.12,1.12v-.96h-1.98ZM120.76-8.6a3.425,3.425,0,0,1,3.46,3.52,3.408,3.408,0,0,1-3.46,3.5,3.788,3.788,0,0,1-2.82-1.18V-7.4A3.631,3.631,0,0,1,120.76-8.6Zm7.3,12.74h2V-.84a5.038,5.038,0,0,0,3.04,1,5.153,5.153,0,0,0,5.2-5.26,5.136,5.136,0,0,0-5.14-5.24,4.808,4.808,0,0,0-3.12,1.12v-.96h-1.98ZM132.88-8.6a3.425,3.425,0,0,1,3.46,3.52,3.408,3.408,0,0,1-3.46,3.5,3.788,3.788,0,0,1-2.82-1.18V-7.4A3.631,3.631,0,0,1,132.88-8.6Zm6.86,3.5a5.246,5.246,0,0,0,5.3,5.3,5.229,5.229,0,0,0,5.28-5.3,5.225,5.225,0,0,0-5.28-5.28A5.242,5.242,0,0,0,139.74-5.1Zm8.64,0a3.419,3.419,0,0,1-3.34,3.54A3.406,3.406,0,0,1,141.7-5.1a3.4,3.4,0,0,1,3.34-3.52A3.4,3.4,0,0,1,148.38-5.1ZM152.2,0h2V-6.82a2.741,2.741,0,0,1,2.62-1.84,3.566,3.566,0,0,1,1.2.22v-1.8a2.909,2.909,0,0,0-1.04-.16,3.264,3.264,0,0,0-2.78,1.48v-1.26h-2Zm8.98-2.52c0,1.76,1.06,2.7,3.04,2.7a6.851,6.851,0,0,0,1.9-.3V-1.8a3.862,3.862,0,0,1-1.46.24c-1.08,0-1.5-.38-1.5-1.42V-8.5h3v-1.68h-3v-3.08l-1.98.48v2.6h-2.16V-8.5h2.16Z" transform="translate(24 37)"/><rect class="f" width="3" height="175"/></g><g transform="translate(1192 240)"><rect class="b" width="24" height="24"/><path class="c" d="M12.35,9.85l-6.8,6.8a1.217,1.217,0,0,1-1.6,0l-1.2-1a1.493,1.493,0,0,1,0-1.8l4.8-4.8-4.8-4.8a1.493,1.493,0,0,1,0-1.8l1.2-1.2a1.217,1.217,0,0,1,1.6,0l6.8,6.8A1.493,1.493,0,0,1,12.35,9.85Z" transform="translate(4.55 3.05)"/></g><path class="c" d="M8.6-1l5.22-10.42V0H15.8V-14H13L8.62-5.06,4.22-14H1.42V0H3.38V-11.4Zm11.76-9.18H18.38v6.4A3.8,3.8,0,0,0,22.34.2,4.16,4.16,0,0,0,25.4-1.02V0h2V-10.18h-2v7.32a2.866,2.866,0,0,1-2.5,1.32,2.374,2.374,0,0,1-2.54-2.58Zm11.36-4.26-2,.44V0h2ZM35.38-2.52c0,1.76,1.06,2.7,3.04,2.7a6.851,6.851,0,0,0,1.9-.3V-1.8a3.862,3.862,0,0,1-1.46.24c-1.08,0-1.5-.38-1.5-1.42V-8.5h3v-1.68h-3v-3.08l-1.98.48v2.6H33.22V-8.5h2.16Zm7.44-9.3a1.229,1.229,0,0,0,1.22-1.24,1.229,1.229,0,0,0-1.22-1.24,1.246,1.246,0,0,0-1.24,1.24A1.246,1.246,0,0,0,42.82-11.82Zm1,1.64h-2V0h2ZM46.14,4.14h2V-.84a5.038,5.038,0,0,0,3.04,1,5.153,5.153,0,0,0,5.2-5.26,5.136,5.136,0,0,0-5.14-5.24,4.808,4.808,0,0,0-3.12,1.12v-.96H46.14ZM50.96-8.6a3.425,3.425,0,0,1,3.46,3.52,3.408,3.408,0,0,1-3.46,3.5,3.788,3.788,0,0,1-2.82-1.18V-7.4A3.631,3.631,0,0,1,50.96-8.6Zm9.3-5.84-2,.44V0h2ZM62.14-5.1A5.238,5.238,0,0,0,67.48.18a6,6,0,0,0,3.94-1.34L70.14-2.42a3.96,3.96,0,0,1-2.58.9,3.434,3.434,0,0,1-3.44-2.92h8.04v-.58a5.041,5.041,0,0,0-4.92-5.32A5.115,5.115,0,0,0,62.14-5.1ZM67.2-8.66a3.133,3.133,0,0,1,2.98,2.72H64.14A3.129,3.129,0,0,1,67.2-8.66ZM81.46.18A4.792,4.792,0,0,0,84.62-.88V0h1.96V-6.74c0-2.36-1.54-3.64-4.16-3.64a9.555,9.555,0,0,0-4.18,1.04l.74,1.5a7.377,7.377,0,0,1,3.16-.86c1.62,0,2.48.72,2.48,2.16v1.08a7.04,7.04,0,0,0-2.78-.56c-2.38,0-4.12,1.06-4.12,3.1C77.72-1.1,79.24.18,81.46.18ZM79.64-2.96c0-1.06.96-1.68,2.36-1.68a5.34,5.34,0,0,1,2.62.6v1.78a3.915,3.915,0,0,1-2.7.96C80.58-1.3,79.64-1.96,79.64-2.96ZM88.88,0h2V-6.82A2.741,2.741,0,0,1,93.5-8.66a3.566,3.566,0,0,1,1.2.22v-1.8a2.909,2.909,0,0,0-1.04-.16,3.264,3.264,0,0,0-2.78,1.48v-1.26h-2Zm11.7-1.58A3.377,3.377,0,0,1,97.24-5.1a3.364,3.364,0,0,1,3.3-3.5,3.784,3.784,0,0,1,2.8,1.28l1.26-1.36a5.828,5.828,0,0,0-4.1-1.7A5.2,5.2,0,0,0,95.26-5.1,5.191,5.191,0,0,0,100.5.18a5.63,5.63,0,0,0,4.02-1.7l-1.2-1.3A3.72,3.72,0,0,1,100.58-1.58ZM113.18,0h1.98V-6.4a3.8,3.8,0,0,0-3.96-3.98,4.16,4.16,0,0,0-3.06,1.22v-5.28l-2,.44V0h2V-7.32a2.866,2.866,0,0,1,2.5-1.32,2.374,2.374,0,0,1,2.54,2.58Zm5.3-11.82a1.229,1.229,0,0,0,1.22-1.24,1.229,1.229,0,0,0-1.22-1.24,1.246,1.246,0,0,0-1.24,1.24A1.246,1.246,0,0,0,118.48-11.82Zm1,1.64h-2V0h2Zm3.66,7.66c0,1.76,1.06,2.7,3.04,2.7a6.851,6.851,0,0,0,1.9-.3V-1.8a3.862,3.862,0,0,1-1.46.24c-1.08,0-1.5-.38-1.5-1.42V-8.5h3v-1.68h-3v-3.08l-1.98.48v2.6h-2.16V-8.5h2.16Zm5.78-2.58A5.238,5.238,0,0,0,134.26.18a6,6,0,0,0,3.94-1.34l-1.28-1.26a3.96,3.96,0,0,1-2.58.9,3.434,3.434,0,0,1-3.44-2.92h8.04v-.58a5.041,5.041,0,0,0-4.92-5.32A5.115,5.115,0,0,0,128.92-5.1Zm5.06-3.56a3.133,3.133,0,0,1,2.98,2.72h-6.04A3.129,3.129,0,0,1,133.98-8.66Zm11.76,7.08A3.377,3.377,0,0,1,142.4-5.1a3.364,3.364,0,0,1,3.3-3.5,3.784,3.784,0,0,1,2.8,1.28l1.26-1.36a5.828,5.828,0,0,0-4.1-1.7,5.2,5.2,0,0,0-5.24,5.28A5.191,5.191,0,0,0,145.66.18a5.63,5.63,0,0,0,4.02-1.7l-1.2-1.3A3.72,3.72,0,0,1,145.74-1.58Zm7.1-.94c0,1.76,1.06,2.7,3.04,2.7a6.851,6.851,0,0,0,1.9-.3V-1.8a3.862,3.862,0,0,1-1.46.24c-1.08,0-1.5-.38-1.5-1.42V-8.5h3v-1.68h-3v-3.08l-1.98.48v2.6h-2.16V-8.5h2.16Zm8.42-7.66h-1.98v6.4A3.8,3.8,0,0,0,163.24.2a4.16,4.16,0,0,0,3.06-1.22V0h2V-10.18h-2v7.32a2.866,2.866,0,0,1-2.5,1.32,2.374,2.374,0,0,1-2.54-2.58ZM170.62,0h2V-6.82a2.741,2.741,0,0,1,2.62-1.84,3.566,3.566,0,0,1,1.2.22v-1.8a2.909,2.909,0,0,0-1.04-.16,3.264,3.264,0,0,0-2.78,1.48v-1.26h-2ZM177-5.1A5.238,5.238,0,0,0,182.34.18a6,6,0,0,0,3.94-1.34L185-2.42a3.96,3.96,0,0,1-2.58.9,3.434,3.434,0,0,1-3.44-2.92h8.04v-.58a5.041,5.041,0,0,0-4.92-5.32A5.115,5.115,0,0,0,177-5.1Zm5.06-3.56a3.133,3.133,0,0,1,2.98,2.72H179A3.129,3.129,0,0,1,182.06-8.66Zm6,7.34a6.794,6.794,0,0,0,4.46,1.5c2.42,0,4.26-1.36,4.26-3.2,0-1.56-1.02-2.54-3.08-2.84l-1.84-.26c-1.2-.18-1.68-.52-1.68-1.28,0-.86.86-1.38,2.04-1.38a5.589,5.589,0,0,1,3.22,1.06l1.02-1.32a6.988,6.988,0,0,0-4.1-1.3c-2.34,0-3.98,1.22-3.98,3.08,0,1.58,1.04,2.54,3.04,2.82l1.84.26c1.14.16,1.64.58,1.64,1.3,0,.82-.84,1.52-2.44,1.52a5.235,5.235,0,0,1-3.32-1.28Z" transform="translate(384 259)"/><rect class="a" width="872" height="1" transform="translate(360 222)"/></g></g></svg>