<?xml version="1.0" encoding="utf-8"?>
<!-- Generator: Adobe Illustrator 24.2.1, SVG Export Plug-In . SVG Version: 6.00 Build 0)  -->
<svg version="1.1" id="Layer_1" xmlns="http://www.w3.org/2000/svg" xmlns:xlink="http://www.w3.org/1999/xlink" x="0px" y="0px"
	 viewBox="0 0 340 200" style="enable-background:new 0 0 340 200;" xml:space="preserve">
<style type="text/css">
	.st0{fill:none;}
	.st1{fill:none;stroke:#151515;}
	.st2{enable-background:new    ;}
	.st3{fill:#151515;}
	.st4{fill:#EE0000;}
	.st5{fill:#FFFFFF;}
</style>
<g transform="translate(-431 -2189)">
	<g transform="translate(7 7)">
		<g transform="translate(177 -50)">
			<g transform="translate(424 2304)">
				<path class="st0" d="M3,0h140c1.66,0,3,1.34,3,3v50c0,1.66-1.34,3-3,3H3c-1.66,0-3-1.34-3-3V3C0,1.34,1.34,0,3,0z"/>
				<path class="st1" d="M3,0.5h140c1.38,0,2.5,1.12,2.5,2.5v50c0,1.38-1.12,2.5-2.5,2.5H3c-1.38,0-2.5-1.12-2.5-2.5V3
					C0.5,1.62,1.62,0.5,3,0.5z"/>
			</g>
			<g class="st2">
				<path class="st3" d="M465.62,2334.59l1.52,1.5c-1.07,1.28-2.83,2.06-4.59,2.06c-3.38,0-5.97-2.51-5.97-5.76
					c0-3.25,2.61-5.78,5.97-5.78c1.81,0,3.6,0.8,4.66,2.1l-1.57,1.55c-0.8-0.99-1.89-1.52-3.09-1.52c-2.05,0-3.59,1.57-3.59,3.65
					c0,2.05,1.57,3.62,3.65,3.62C463.78,2336.02,464.84,2335.54,465.62,2334.59z"/>
				<path class="st3" d="M472.1,2329.5c2.5,0,4.45,1.9,4.45,4.34c0,2.43-1.95,4.32-4.45,4.32c-2.5,0-4.45-1.89-4.45-4.32
					C467.65,2331.41,469.6,2329.5,472.1,2329.5z M472.1,2331.41c-1.28,0-2.3,1.06-2.3,2.43c0,1.34,1.01,2.42,2.3,2.42
					s2.3-1.07,2.3-2.42C474.4,2332.46,473.39,2331.41,472.1,2331.41z"/>
				<path class="st3" d="M477.86,2329.66h2.19v0.67c0.62-0.54,1.42-0.83,2.34-0.83c1.95,0,3.3,1.38,3.3,3.31v5.19h-2.18v-4.87
					c0-1.04-0.67-1.74-1.74-1.74c-0.74,0-1.33,0.27-1.71,0.83v5.78h-2.19V2329.66z"/>
				<path class="st3" d="M488.19,2331.5h-1.71v-1.84h1.71v-2.13l2.19-0.5v2.62h2.37v1.84h-2.37v3.7c0,0.78,0.3,1.07,1.15,1.07
					c0.43,0,0.75-0.06,1.17-0.19v1.79c-0.48,0.14-1.23,0.26-1.7,0.26c-1.82,0-2.82-0.83-2.82-2.48V2331.5z"/>
				<path class="st3" d="M493.44,2335.58c0-1.63,1.34-2.53,3.43-2.53c0.72,0,1.41,0.11,2.03,0.32v-0.59c0-0.98-0.59-1.46-1.76-1.46
					c-0.75,0-1.57,0.26-2.54,0.69l-0.8-1.62c1.3-0.59,2.48-0.9,3.71-0.9c2.22,0,3.55,1.09,3.55,3.09v5.41h-2.16v-0.59
					c-0.71,0.51-1.47,0.74-2.42,0.74C494.64,2338.14,493.44,2337.06,493.44,2335.58z M497.06,2336.58c0.71,0,1.33-0.18,1.84-0.53
					v-1.25c-0.51-0.19-1.09-0.3-1.76-0.3c-0.96,0-1.6,0.37-1.6,1.04C495.54,2336.17,496.13,2336.58,497.06,2336.58z"/>
				<path class="st3" d="M508.82,2335.31l1.31,1.36c-0.86,0.94-2.1,1.49-3.39,1.49c-2.47,0-4.37-1.89-4.37-4.32
					c0-2.43,1.91-4.34,4.37-4.34c1.33,0,2.59,0.54,3.46,1.49l-1.34,1.42c-0.62-0.69-1.3-1.01-2.07-1.01c-1.26,0-2.24,1.06-2.24,2.43
					c0,1.38,0.99,2.4,2.29,2.4C507.59,2336.24,508.23,2335.94,508.82,2335.31z"/>
				<path class="st3" d="M512.56,2331.5h-1.71v-1.84h1.71v-2.13l2.19-0.5v2.62h2.37v1.84h-2.37v3.7c0,0.78,0.3,1.07,1.15,1.07
					c0.43,0,0.75-0.06,1.17-0.19v1.79c-0.48,0.14-1.23,0.26-1.7,0.26c-1.82,0-2.82-0.83-2.82-2.48V2331.5z"/>
				<path class="st3" d="M523.57,2334.53c0,1.04,0.67,1.75,1.75,1.75c0.74,0,1.33-0.27,1.71-0.83v-5.78h2.19v8.34h-2.19v-0.67
					c-0.62,0.54-1.42,0.83-2.34,0.83c-1.95,0-3.3-1.38-3.3-3.31v-5.19h2.18V2334.53z"/>
				<path class="st3" d="M531.29,2335.55c0.71,0.48,1.6,0.94,2.71,0.94c1.14,0,1.62-0.43,1.62-0.88c0-0.43-0.3-0.67-1.04-0.78
					l-1.6-0.24c-1.68-0.24-2.53-1.1-2.53-2.42c0-1.67,1.41-2.64,3.47-2.64c1.27,0,2.43,0.38,3.43,1.04l-1.06,1.41
					c-0.72-0.43-1.55-0.8-2.58-0.8c-0.75,0-1.31,0.29-1.31,0.82c0,0.45,0.3,0.67,1.14,0.78l1.6,0.24c1.7,0.26,2.54,1.12,2.54,2.38
					c0,1.63-1.62,2.75-3.65,2.75c-1.43,0-2.8-0.35-3.83-1.15L531.29,2335.55z"/>
			</g>
		</g>
		<g transform="translate(17 -50)">
			<path class="st4" d="M427,2304h130c1.66,0,3,1.34,3,3v50c0,1.66-1.34,3-3,3H427c-1.66,0-3-1.34-3-3v-50
				C424,2305.34,425.34,2304,427,2304z"/>
			<g class="st2">
				<path class="st5" d="M457.38,2334.56c1.26,1.12,2.42,1.63,3.79,1.63c1.42,0,2.29-0.56,2.29-1.41c0-0.74-0.45-1.14-1.84-1.38
					l-2.22-0.38c-1.95-0.34-2.93-1.41-2.93-2.99c0-2.08,1.66-3.39,4.42-3.39c1.62,0,3.36,0.58,4.63,1.57l-1.25,1.73
					c-1.2-0.93-2.34-1.34-3.54-1.34c-1.23,0-2.05,0.5-2.05,1.26c0,0.67,0.42,1.04,1.6,1.22l2.11,0.35c2.29,0.38,3.35,1.46,3.35,3.15
					c0,2.18-1.82,3.59-4.72,3.59c-1.81,0-3.62-0.7-4.96-1.94L457.38,2334.56z"/>
				<path class="st5" d="M467.79,2331.5h-1.71v-1.84h1.71v-2.13l2.19-0.5v2.62h2.37v1.84h-2.37v3.7c0,0.78,0.3,1.07,1.15,1.07
					c0.43,0,0.75-0.06,1.17-0.19v1.79c-0.48,0.14-1.23,0.26-1.7,0.26c-1.82,0-2.82-0.83-2.82-2.48V2331.5z"/>
				<path class="st5" d="M473.04,2335.58c0-1.63,1.34-2.53,3.43-2.53c0.72,0,1.41,0.11,2.03,0.32v-0.59c0-0.98-0.59-1.46-1.76-1.46
					c-0.75,0-1.57,0.26-2.54,0.69l-0.8-1.62c1.3-0.59,2.48-0.9,3.71-0.9c2.23,0,3.55,1.09,3.55,3.09v5.41h-2.16v-0.59
					c-0.7,0.51-1.47,0.74-2.42,0.74C474.24,2338.14,473.04,2337.06,473.04,2335.58z M476.66,2336.58c0.7,0,1.33-0.18,1.84-0.53
					v-1.25c-0.51-0.19-1.09-0.3-1.76-0.3c-0.96,0-1.6,0.37-1.6,1.04C475.14,2336.17,475.73,2336.58,476.66,2336.58z"/>
				<path class="st5" d="M482.32,2329.66h2.19v0.91c0.56-0.74,1.34-1.1,2.22-1.1c0.43,0.02,0.69,0.06,0.91,0.19v1.92
					c-0.29-0.14-0.7-0.22-1.12-0.22c-0.82,0-1.58,0.4-2.02,1.23v5.41h-2.19V2329.66z"/>
				<path class="st5" d="M490.16,2331.5h-1.71v-1.84h1.71v-2.13l2.19-0.5v2.62h2.37v1.84h-2.37v3.7c0,0.78,0.3,1.07,1.15,1.07
					c0.43,0,0.75-0.06,1.17-0.19v1.79c-0.48,0.14-1.23,0.26-1.7,0.26c-1.82,0-2.82-0.83-2.82-2.48V2331.5z"/>
				<path class="st5" d="M500.16,2331.5h-1.71v-1.84h1.71v-2.13l2.19-0.5v2.62h2.37v1.84h-2.37v3.7c0,0.78,0.3,1.07,1.15,1.07
					c0.43,0,0.75-0.06,1.17-0.19v1.79c-0.48,0.14-1.23,0.26-1.7,0.26c-1.82,0-2.82-0.83-2.82-2.48V2331.5z"/>
				<path class="st5" d="M505.78,2329.66h2.19v0.91c0.56-0.74,1.34-1.1,2.22-1.1c0.43,0.02,0.69,0.06,0.91,0.19v1.92
					c-0.29-0.14-0.7-0.22-1.12-0.22c-0.82,0-1.58,0.4-2.02,1.23v5.41h-2.19V2329.66z"/>
				<path class="st5" d="M512.13,2327.42c0-0.69,0.58-1.25,1.25-1.25c0.69,0,1.25,0.56,1.25,1.25s-0.56,1.25-1.25,1.25
					C512.7,2328.67,512.13,2328.11,512.13,2327.42z M514.48,2338h-2.19v-8.34h2.19V2338z"/>
				<path class="st5" d="M515.78,2335.58c0-1.63,1.34-2.53,3.43-2.53c0.72,0,1.41,0.11,2.03,0.32v-0.59c0-0.98-0.59-1.46-1.76-1.46
					c-0.75,0-1.57,0.26-2.54,0.69l-0.8-1.62c1.3-0.59,2.48-0.9,3.71-0.9c2.23,0,3.55,1.09,3.55,3.09v5.41h-2.16v-0.59
					c-0.7,0.51-1.47,0.74-2.42,0.74C516.98,2338.14,515.78,2337.06,515.78,2335.58z M519.39,2336.58c0.7,0,1.33-0.18,1.84-0.53
					v-1.25c-0.51-0.19-1.09-0.3-1.76-0.3c-0.96,0-1.6,0.37-1.6,1.04C517.87,2336.17,518.46,2336.58,519.39,2336.58z"/>
				<path class="st5" d="M527.25,2338h-2.19v-11.2l2.19-0.48V2338z"/>
			</g>
		</g>
	</g>
	<rect x="431" y="2189" class="st0" width="340" height="200"/>
</g>
</svg>
