<?xml version="1.0" encoding="utf-8"?>
<!-- Generator: Adobe Illustrator 21.1.0, SVG Export Plug-In . SVG Version: 6.00 Build 0)  -->
<!DOCTYPE svg PUBLIC "-//W3C//DTD SVG 1.1//EN" "http://www.w3.org/Graphics/SVG/1.1/DTD/svg11.dtd">
<svg version="1.1" id="Layer_1" xmlns="http://www.w3.org/2000/svg" xmlns:xlink="http://www.w3.org/1999/xlink" x="0px" y="0px"
	 viewBox="0 0 32 32" style="enable-background:new 0 0 32 32;" xml:space="preserve">
<path d="M25.11,14.11c0.04-0.14-0.02-0.29-0.16-0.35l-2.82-1.38c-0.04-0.02-0.09-0.03-0.13-0.03H10.43c-0.04,0-0.08,0.01-0.12,0.02
	l-3.24,1.38c-0.14,0.06-0.21,0.22-0.17,0.36c-0.01,0.03-0.02,0.05-0.02,0.08v5.15c0,0.17,0.14,0.31,0.31,0.31h17.63
	c0.17,0,0.31-0.14,0.31-0.31v-5.15C25.12,14.16,25.11,14.14,25.11,14.11L25.11,14.11z M10.49,12.96h11.44l1.89,0.92H8.32
	C8.32,13.89,10.49,12.96,10.49,12.96z M24.51,19.04H7.49v-4.46h17.02V19.04z M8.6,16.14c0,0.23,0.19,0.42,0.42,0.42
	s0.42-0.19,0.42-0.42c0-0.23-0.19-0.42-0.42-0.42S8.6,15.91,8.6,16.14z M8.6,17.64c0,0.23,0.19,0.42,0.42,0.42s0.42-0.19,0.42-0.42
	c0-0.23-0.19-0.42-0.42-0.42S8.6,17.41,8.6,17.64z M23.33,15.93H10.46c-0.08,0-0.15-0.07-0.15-0.15s0.07-0.15,0.15-0.15h12.87
	c0.08,0,0.15,0.07,0.15,0.15S23.41,15.93,23.33,15.93z M23.33,17.77H10.46c-0.08,0-0.15-0.07-0.15-0.15c0-0.08,0.07-0.15,0.15-0.15
	h12.87c0.08,0,0.15,0.07,0.15,0.15C23.48,17.71,23.41,17.77,23.33,17.77z M23.33,16.85H10.46c-0.08,0-0.15-0.07-0.15-0.15
	c0-0.08,0.07-0.15,0.15-0.15h12.87c0.08,0,0.15,0.07,0.15,0.15C23.48,16.79,23.41,16.85,23.33,16.85z"/>
</svg>
