<?xml version="1.0" encoding="utf-8"?>
<!-- Generator: Adobe Illustrator 21.1.0, SVG Export Plug-In . SVG Version: 6.00 Build 0)  -->
<!DOCTYPE svg PUBLIC "-//W3C//DTD SVG 1.1//EN" "http://www.w3.org/Graphics/SVG/1.1/DTD/svg11.dtd">
<svg version="1.1" id="Layer_1" xmlns="http://www.w3.org/2000/svg" xmlns:xlink="http://www.w3.org/1999/xlink" x="0px" y="0px"
	 viewBox="0 0 32 32" style="enable-background:new 0 0 32 32;" xml:space="preserve">
<path d="M26.92,13.81c0-0.02,0-0.03-0.01-0.05s-0.02-0.03-0.03-0.05c-0.01-0.01-0.01-0.03-0.03-0.04c-0.01-0.02-0.03-0.03-0.05-0.04
	c-0.01-0.01-0.02-0.02-0.03-0.02l-3.62-1.82c-0.04-0.02-0.08-0.03-0.12-0.03H8.95c-0.04,0-0.08,0.01-0.12,0.03l-3.62,1.82
	c-0.01,0.01-0.02,0.02-0.03,0.02c-0.02,0.01-0.03,0.02-0.05,0.04c-0.01,0.01-0.02,0.03-0.03,0.04c-0.01,0.01-0.02,0.03-0.02,0.04
	c-0.01,0.02-0.01,0.04-0.01,0.06c0,0.01-0.01,0.02-0.01,0.03v6.11c0,0.15,0.12,0.26,0.26,0.26h21.35c0.15,0,0.26-0.12,0.26-0.26
	v-6.11C26.93,13.84,26.93,13.83,26.92,13.81L26.92,13.81z M26.41,17.56H24.1c-0.35,0-0.65-0.29-0.65-0.65s0.29-0.65,0.65-0.65h2.31
	V17.56z M9.01,12.29h13.98l2.58,1.3H6.43L9.01,12.29L9.01,12.29z M5.59,19.7v-5.59h20.82V16H24.1c-0.5,0-0.91,0.41-0.91,0.91
	c0,0.5,0.41,0.91,0.91,0.91h2.31v1.89L5.59,19.7L5.59,19.7z M6.62,16.66c-0.07,0.07-0.11,0.16-0.11,0.25s0.04,0.19,0.11,0.25
	c0.07,0.07,0.16,0.11,0.26,0.11c0.09,0,0.19-0.04,0.25-0.11c0.07-0.07,0.11-0.16,0.11-0.25c0-0.09-0.04-0.19-0.11-0.25
	C6.99,16.52,6.75,16.52,6.62,16.66L6.62,16.66z M12.89,16.55c-0.2,0-0.36,0.16-0.36,0.36s0.16,0.36,0.36,0.36
	c0.2,0,0.36-0.16,0.36-0.36S13.09,16.55,12.89,16.55z M17.41,16.55c-0.2,0-0.36,0.16-0.36,0.36s0.16,0.36,0.36,0.36
	c0.2,0,0.36-0.16,0.36-0.36S17.61,16.55,17.41,16.55z M11.39,16.55c-0.2,0-0.36,0.16-0.36,0.36s0.16,0.36,0.36,0.36
	c0.2,0,0.36-0.16,0.36-0.36S11.58,16.55,11.39,16.55z M9.88,16.55c-0.2,0-0.36,0.16-0.36,0.36s0.16,0.36,0.36,0.36
	c0.2,0,0.36-0.16,0.36-0.36S10.08,16.55,9.88,16.55z M14.4,16.55c-0.2,0-0.36,0.16-0.36,0.36s0.16,0.36,0.36,0.36
	s0.36-0.16,0.36-0.36S14.6,16.55,14.4,16.55z M15.9,16.55c-0.2,0-0.36,0.16-0.36,0.36s0.16,0.36,0.36,0.36s0.36-0.16,0.36-0.36
	S16.1,16.55,15.9,16.55z M8.38,16.55c-0.2,0-0.36,0.16-0.36,0.36s0.16,0.36,0.36,0.36c0.2,0,0.36-0.16,0.36-0.36
	S8.57,16.55,8.38,16.55z M20.42,16.55c-0.2,0-0.36,0.16-0.36,0.36s0.16,0.36,0.36,0.36c0.2,0,0.36-0.16,0.36-0.36
	S20.62,16.55,20.42,16.55z M18.91,16.55c-0.2,0-0.36,0.16-0.36,0.36s0.16,0.36,0.36,0.36s0.36-0.16,0.36-0.36
	S19.11,16.55,18.91,16.55z M21.67,16.66c-0.07,0.07-0.1,0.16-0.1,0.25c0,0.1,0.04,0.19,0.1,0.25c0.07,0.07,0.16,0.11,0.25,0.11
	c0.1,0,0.19-0.04,0.26-0.1c0.07-0.07,0.1-0.16,0.1-0.26c0-0.09-0.04-0.19-0.1-0.25C22.04,16.52,21.8,16.52,21.67,16.66L21.67,16.66z
	 M6.62,15.2c-0.07,0.06-0.11,0.16-0.11,0.25c0,0.09,0.04,0.19,0.11,0.25c0.07,0.07,0.16,0.11,0.26,0.11c0.09,0,0.18-0.04,0.25-0.11
	c0.07-0.06,0.11-0.16,0.11-0.25c0-0.09-0.04-0.19-0.11-0.25C6.99,15.06,6.75,15.06,6.62,15.2L6.62,15.2z M9.88,15.09
	c-0.2,0-0.36,0.16-0.36,0.36c0,0.2,0.16,0.36,0.36,0.36c0.2,0,0.36-0.16,0.36-0.36S10.08,15.09,9.88,15.09z M11.39,15.09
	c-0.2,0-0.36,0.16-0.36,0.36c0,0.2,0.16,0.36,0.36,0.36c0.2,0,0.36-0.16,0.36-0.36S11.58,15.09,11.39,15.09z M12.89,15.09
	c-0.2,0-0.36,0.16-0.36,0.36c0,0.2,0.16,0.36,0.36,0.36c0.2,0,0.36-0.16,0.36-0.36S13.09,15.09,12.89,15.09z M8.38,15.09
	c-0.2,0-0.36,0.16-0.36,0.36c0,0.2,0.16,0.36,0.36,0.36c0.2,0,0.36-0.16,0.36-0.36S8.57,15.09,8.38,15.09z M17.41,15.09
	c-0.2,0-0.36,0.16-0.36,0.36c0,0.2,0.16,0.36,0.36,0.36c0.2,0,0.36-0.16,0.36-0.36S17.61,15.09,17.41,15.09z M20.42,15.09
	c-0.2,0-0.36,0.16-0.36,0.36c0,0.2,0.16,0.36,0.36,0.36c0.2,0,0.36-0.16,0.36-0.36S20.62,15.09,20.42,15.09z M14.4,15.09
	c-0.2,0-0.36,0.16-0.36,0.36c0,0.2,0.16,0.36,0.36,0.36s0.36-0.16,0.36-0.36S14.6,15.09,14.4,15.09z M18.91,15.09
	c-0.2,0-0.36,0.16-0.36,0.36c0,0.2,0.16,0.36,0.36,0.36s0.36-0.16,0.36-0.36S19.11,15.09,18.91,15.09z M15.9,15.09
	c-0.2,0-0.36,0.16-0.36,0.36c0,0.2,0.16,0.36,0.36,0.36s0.36-0.16,0.36-0.36S16.1,15.09,15.9,15.09z M21.67,15.2
	c-0.07,0.07-0.1,0.16-0.1,0.25c0,0.09,0.04,0.19,0.1,0.25c0.07,0.07,0.16,0.11,0.25,0.11c0.1,0,0.19-0.04,0.26-0.11
	c0.07-0.06,0.1-0.16,0.1-0.25c0-0.09-0.04-0.19-0.1-0.25C22.04,15.06,21.8,15.06,21.67,15.2z M6.62,18.11
	c-0.07,0.07-0.11,0.16-0.11,0.26c0,0.09,0.04,0.19,0.11,0.25c0.07,0.07,0.16,0.1,0.26,0.1c0.09,0,0.18-0.04,0.25-0.1
	c0.07-0.07,0.11-0.16,0.11-0.25c0-0.1-0.04-0.19-0.11-0.26C6.99,17.98,6.75,17.98,6.62,18.11L6.62,18.11z M8.38,18.01
	c-0.2,0-0.36,0.16-0.36,0.36s0.16,0.36,0.36,0.36c0.2,0,0.36-0.16,0.36-0.36S8.57,18.01,8.38,18.01z M17.41,18.01
	c-0.2,0-0.36,0.16-0.36,0.36s0.16,0.36,0.36,0.36c0.2,0,0.36-0.16,0.36-0.36S17.61,18.01,17.41,18.01z M15.9,18.01
	c-0.2,0-0.36,0.16-0.36,0.36s0.16,0.36,0.36,0.36s0.36-0.16,0.36-0.36S16.1,18.01,15.9,18.01z M18.91,18.01
	c-0.2,0-0.36,0.16-0.36,0.36s0.16,0.36,0.36,0.36s0.36-0.16,0.36-0.36S19.11,18.01,18.91,18.01z M20.42,18.01
	c-0.2,0-0.36,0.16-0.36,0.36s0.16,0.36,0.36,0.36c0.2,0,0.36-0.16,0.36-0.36S20.62,18.01,20.42,18.01z M14.4,18.01
	c-0.2,0-0.36,0.16-0.36,0.36s0.16,0.36,0.36,0.36s0.36-0.16,0.36-0.36S14.6,18.01,14.4,18.01z M11.39,18.01
	c-0.2,0-0.36,0.16-0.36,0.36s0.16,0.36,0.36,0.36c0.2,0,0.36-0.16,0.36-0.36S11.58,18.01,11.39,18.01z M12.89,18.01
	c-0.2,0-0.36,0.16-0.36,0.36s0.16,0.36,0.36,0.36c0.2,0,0.36-0.16,0.36-0.36S13.09,18.01,12.89,18.01z M9.88,18.01
	c-0.2,0-0.36,0.16-0.36,0.36s0.16,0.36,0.36,0.36c0.2,0,0.36-0.16,0.36-0.36S10.08,18.01,9.88,18.01z M21.67,18.11
	c-0.07,0.07-0.1,0.16-0.1,0.26c0,0.09,0.04,0.19,0.1,0.25c0.07,0.07,0.16,0.1,0.25,0.1c0.1,0,0.19-0.04,0.26-0.1
	c0.07-0.07,0.1-0.16,0.1-0.25c0-0.1-0.04-0.19-0.1-0.25C22.04,17.98,21.8,17.98,21.67,18.11L21.67,18.11z"/>
</svg>
