<?xml version="1.0" encoding="utf-8"?>
<!-- Generator: Adobe Illustrator 21.1.0, SVG Export Plug-In . SVG Version: 6.00 Build 0)  -->
<!DOCTYPE svg PUBLIC "-//W3C//DTD SVG 1.1//EN" "http://www.w3.org/Graphics/SVG/1.1/DTD/svg11.dtd">
<svg version="1.1" id="Layer_1" xmlns="http://www.w3.org/2000/svg" xmlns:xlink="http://www.w3.org/1999/xlink" x="0px" y="0px"
	 viewBox="0 0 32 32" style="enable-background:new 0 0 32 32;" xml:space="preserve">
<path d="M25.11,14.11c0.04-0.14-0.02-0.29-0.16-0.35l-2.82-1.38c-0.04-0.02-0.09-0.03-0.13-0.03H10.43c-0.04,0-0.08,0.01-0.12,0.02
	l-3.24,1.38c-0.14,0.06-0.21,0.22-0.17,0.36c-0.01,0.03-0.02,0.05-0.02,0.08v5.15c0,0.17,0.14,0.31,0.31,0.31h17.63
	c0.17,0,0.31-0.14,0.31-0.31v-5.15C25.12,14.16,25.11,14.14,25.11,14.11z M10.49,12.96h11.44l1.89,0.92H8.32L10.49,12.96
	L10.49,12.96z M24.51,19.04H7.49v-4.46h17.02V19.04z M8.62,16.79C8.62,16.79,8.62,16.79,8.62,16.79c0,0.24,0.19,0.43,0.42,0.43
	s0.42-0.19,0.42-0.42c0,0,0,0,0,0s0,0,0-0.01c0-0.23-0.19-0.42-0.42-0.42S8.62,16.55,8.62,16.79C8.62,16.79,8.62,16.79,8.62,16.79z
	 M10.11,16.79c0,0,0,0.01,0,0.01c0,0.23,0.19,0.42,0.42,0.42s0.42-0.19,0.42-0.42c0,0,0-0.01,0-0.01c0,0,0-0.01,0-0.01
	c0-0.23-0.19-0.42-0.42-0.42s-0.42,0.19-0.42,0.42C10.11,16.78,10.11,16.79,10.11,16.79L10.11,16.79z M23.68,17.99
	c0,0.08-0.07,0.15-0.15,0.15h-0.92c-0.08,0-0.15-0.07-0.15-0.15v-2.45c0-0.08,0.07-0.15,0.15-0.15h0.92c0.08,0,0.15,0.07,0.15,0.15
	V17.99z M22.76,17.83h0.61v-2.15h-0.61V17.83z M21.84,17.99c0,0.08-0.07,0.15-0.15,0.15h-0.92c-0.08,0-0.15-0.07-0.15-0.15v-2.45
	c0-0.08,0.07-0.15,0.15-0.15h0.92c0.08,0,0.15,0.07,0.15,0.15V17.99z M20.92,17.83h0.61v-2.15h-0.61V17.83z"/>
</svg>
