<?xml version="1.0" encoding="utf-8"?>
<!-- Generator: Adobe Illustrator 25.0.1, SVG Export Plug-In . SVG Version: 6.00 Build 0)  -->
<svg version="1.1" id="Icon" xmlns="http://www.w3.org/2000/svg" xmlns:xlink="http://www.w3.org/1999/xlink" x="0px" y="0px"
	 viewBox="0 0 36 28.4" style="enable-background:new 0 0 36 28.4;" xml:space="preserve">
<path d="M35,0H1C0.4,0,0,0.4,0,1v26.4c0,0.5,0.4,1,1,1h34c0.5,0,1-0.4,1-1V1C36,0.4,35.6,0,35,0z M34,26.4H2V2H34V26.4z"/>
<path d="M6.8,5.7C6.9,5.8,7,5.8,7.1,5.9C7.3,5.9,7.4,6,7.5,6c0.5,0,1-0.4,1-1c0-0.1,0-0.3-0.1-0.4C8.2,4.1,7.6,3.8,7.1,4.1
	C6.9,4.2,6.7,4.3,6.6,4.6c-0.1,0.2-0.1,0.5,0,0.8C6.7,5.5,6.7,5.6,6.8,5.7z"/>
<path d="M4.2,5.7C4.4,5.8,4.6,6,4.9,6c0.1,0,0.3,0,0.4-0.1c0.1,0,0.2-0.1,0.3-0.2C5.8,5.5,5.9,5.2,5.9,5c0-0.1,0-0.3-0.1-0.4
	C5.6,4.1,5,3.8,4.5,4.1C4.3,4.2,4.1,4.3,4,4.6C3.9,4.8,3.9,5.1,4,5.3C4.1,5.5,4.1,5.6,4.2,5.7z"/>
<path d="M11.5,6h19.6c0.5,0,1-0.4,1-1s-0.4-1-1-1H11.5c-0.5,0-1,0.4-1,1S10.9,6,11.5,6z"/>
<path d="M5.2,11.6v10.6c0,0.5,0.4,1,1,1H18c0.5,0,1-0.4,1-1V11.6c0-0.5-0.4-1-1-1H6.2C5.7,10.6,5.2,11,5.2,11.6z M7.2,12.6H17v8.6
	H7.2V12.6z"/>
<path d="M29.8,11.9h-8.2c-0.5,0-1,0.4-1,1s0.4,1,1,1h8.2c0.5,0,1-0.4,1-1S30.3,11.9,29.8,11.9z"/>
<path d="M29.8,15.9h-8.2c-0.5,0-1,0.4-1,1s0.4,1,1,1h8.2c0.5,0,1-0.4,1-1S30.3,15.9,29.8,15.9z"/>
<path d="M26.2,19.8h-4.7c-0.5,0-1,0.4-1,1c0,0.5,0.4,1,1,1h4.7c0.5,0,1-0.4,1-1C27.2,20.3,26.8,19.8,26.2,19.8z"/>
</svg>
