<svg xmlns="http://www.w3.org/2000/svg" xmlns:xlink="http://www.w3.org/1999/xlink" width="255" height="150" viewBox="0 0 255 150"><defs><style>.a{clip-path:url(#b);}.b{fill:#d2d2d2;}.c{fill:#e00;}.d{fill:#151515;}.e{fill:#6a6e73;}.f{fill:#fff;}</style><clipPath id="b"><rect width="255" height="150"/></clipPath></defs><g id="a" class="a"><rect class="f" width="255" height="150"/><g transform="translate(-283.998 -207.813)"><rect class="b" width="1" height="95" transform="translate(359.998 246.034)"/><rect class="c" width="3" height="27" transform="translate(359.998 295.034)"/><path class="d" d="M.8.661h.764V-2.663L4.95.661H5.992L2.369-2.872,5.912-6.286H4.94l-3.375,3.3v-3.3H.8ZM7.232-4.182H6.508v3.136A1.688,1.688,0,0,0,8.255.741,1.745,1.745,0,0,0,9.8-.133V.661h.725V-4.182H9.8V-.609a1.439,1.439,0,0,1-1.27.744,1.255,1.255,0,0,1-1.3-1.39Zm9.25,2.422A2.345,2.345,0,0,0,14.24-4.242a1.918,1.918,0,0,0-1.558.734V-6.435l-.725.149V.661h.715V.026a1.911,1.911,0,0,0,1.528.7A2.36,2.36,0,0,0,16.483-1.76ZM14.061-3.606a1.738,1.738,0,0,1,1.7,1.856,1.732,1.732,0,0,1-1.7,1.856,1.716,1.716,0,0,1-1.38-.675V-2.941A1.667,1.667,0,0,1,14.061-3.606ZM17.495-1.76A2.423,2.423,0,0,0,19.9.751,2.79,2.79,0,0,0,21.713.106l-.457-.5a1.979,1.979,0,0,1-1.33.5A1.743,1.743,0,0,1,18.21-1.611h3.8V-1.82a2.294,2.294,0,0,0-2.223-2.442A2.365,2.365,0,0,0,17.495-1.76Zm2.283-1.866a1.6,1.6,0,0,1,1.509,1.509H18.229A1.6,1.6,0,0,1,19.778-3.626ZM23.2.661h.725V-2.654a1.362,1.362,0,0,1,1.3-.983,1.717,1.717,0,0,1,.506.089V-4.2a1.425,1.425,0,0,0-.457-.069,1.44,1.44,0,0,0-1.35,1.052v-.963H23.2Zm3.484,0h.725V-2.912a1.439,1.439,0,0,1,1.27-.744,1.255,1.255,0,0,1,1.3,1.39V.661h.725V-2.475a1.688,1.688,0,0,0-1.747-1.787,1.745,1.745,0,0,0-1.548.873v-.794h-.725Zm5.24-2.422a2.423,2.423,0,0,0,2.4,2.511A2.79,2.79,0,0,0,36.144.106l-.457-.5a1.979,1.979,0,0,1-1.33.5,1.743,1.743,0,0,1-1.717-1.717h3.8V-1.82a2.294,2.294,0,0,0-2.223-2.442A2.365,2.365,0,0,0,31.926-1.76Zm2.283-1.866a1.6,1.6,0,0,1,1.509,1.509H32.661A1.6,1.6,0,0,1,34.209-3.626ZM38.02-.43c0,.754.427,1.181,1.27,1.181a2.924,2.924,0,0,0,.854-.129V-.023a1.787,1.787,0,0,1-.685.129c-.516,0-.715-.208-.715-.725V-3.587h1.4v-.6h-1.4v-1.4l-.725.169v1.231h-1v.6h1Zm2.769-1.33a2.423,2.423,0,0,0,2.4,2.511A2.79,2.79,0,0,0,45.007.106l-.457-.5a1.979,1.979,0,0,1-1.33.5A1.743,1.743,0,0,1,41.5-1.611h3.8V-1.82a2.294,2.294,0,0,0-2.223-2.442A2.365,2.365,0,0,0,40.789-1.76Zm2.283-1.866a1.6,1.6,0,0,1,1.509,1.509H41.524A1.6,1.6,0,0,1,43.072-3.626ZM46.089-.013a2.686,2.686,0,0,0,1.975.764,1.681,1.681,0,0,0,1.876-1.5c.01-.734-.457-1.131-1.409-1.3l-.8-.149c-.6-.109-.844-.278-.844-.695,0-.476.447-.774,1.052-.774a2.446,2.446,0,0,1,1.5.546l.387-.5a3.014,3.014,0,0,0-1.856-.645c-1.022,0-1.747.6-1.747,1.419,0,.725.466,1.112,1.37,1.27l.8.139c.605.109.863.318.863.725,0,.476-.437.873-1.221.873A2.169,2.169,0,0,1,46.506-.47Zm7.94-4.169H53.3v3.136A1.688,1.688,0,0,0,55.051.741,1.745,1.745,0,0,0,56.6-.133V.661h.725V-4.182H56.6V-.609a1.439,1.439,0,0,1-1.27.744,1.255,1.255,0,0,1-1.3-1.39ZM58.3-.013a2.686,2.686,0,0,0,1.975.764,1.681,1.681,0,0,0,1.876-1.5c.01-.734-.457-1.131-1.409-1.3l-.8-.149c-.6-.109-.844-.278-.844-.695,0-.476.447-.774,1.052-.774a2.446,2.446,0,0,1,1.5.546l.387-.5a3.014,3.014,0,0,0-1.856-.645c-1.022,0-1.747.6-1.747,1.419,0,.725.466,1.112,1.37,1.27l.8.139c.605.109.863.318.863.725,0,.476-.437.873-1.221.873A2.169,2.169,0,0,1,58.714-.47ZM63.041-1.76a2.423,2.423,0,0,0,2.4,2.511A2.789,2.789,0,0,0,67.259.106l-.457-.5a1.979,1.979,0,0,1-1.33.5,1.743,1.743,0,0,1-1.717-1.717h3.8V-1.82a2.294,2.294,0,0,0-2.223-2.442A2.365,2.365,0,0,0,63.041-1.76Zm2.283-1.866a1.6,1.6,0,0,1,1.509,1.509H63.776A1.6,1.6,0,0,1,65.324-3.626ZM68.341-.013a2.686,2.686,0,0,0,1.975.764,1.681,1.681,0,0,0,1.876-1.5c.01-.734-.457-1.131-1.409-1.3l-.8-.149c-.6-.109-.844-.278-.844-.695,0-.476.447-.774,1.052-.774a2.446,2.446,0,0,1,1.5.546l.387-.5a3.014,3.014,0,0,0-1.856-.645c-1.022,0-1.747.6-1.747,1.419,0,.725.466,1.112,1.37,1.27l.8.139c.605.109.863.318.863.725,0,.476-.437.873-1.221.873A2.169,2.169,0,0,1,68.758-.47Z" transform="translate(373.316 309.825)"/><path class="e" d="M2.695.662l1.767-5.9L6.228.662h.764L8.5-6.285H7.747L6.566-.558,4.849-6.285H4.1L2.387-.558,1.206-6.285H.432L1.931.662Zm10.272,0h.725V-2.474A1.688,1.688,0,0,0,11.945-4.26a1.745,1.745,0,0,0-1.548.873V-6.434l-.725.149V.662H10.4V-2.911a1.439,1.439,0,0,1,1.27-.744,1.255,1.255,0,0,1,1.3,1.39ZM16.63.752A2.06,2.06,0,0,0,18.168.107V.662h.715V-2.553c0-1.122-.695-1.707-1.876-1.707a4.056,4.056,0,0,0-1.826.466l.278.556a3.125,3.125,0,0,1,1.459-.417c.814,0,1.251.387,1.251,1.2V-1.8A2.905,2.905,0,0,0,16.7-2.166c-1.052,0-1.816.536-1.816,1.429A1.561,1.561,0,0,0,16.63.752Zm-1.052-1.5c0-.566.516-.9,1.221-.9a2.513,2.513,0,0,1,1.37.357V-.36A1.933,1.933,0,0,1,16.779.2C16.074.2,15.578-.181,15.578-.747Zm5.131.318c0,.754.427,1.181,1.27,1.181a2.924,2.924,0,0,0,.854-.129V-.022a1.787,1.787,0,0,1-.685.129c-.516,0-.715-.208-.715-.725V-3.586h1.4v-.6h-1.4v-1.4l-.725.169v1.231h-1v.6h1ZM26.525-5.4a.515.515,0,0,0,.516-.526.513.513,0,0,0-.516-.516.513.513,0,0,0-.516.516A.515.515,0,0,0,26.525-5.4Zm.357,1.221h-.725V.662h.725Zm.983,4.169A2.686,2.686,0,0,0,29.84.752a1.681,1.681,0,0,0,1.876-1.5c.01-.734-.457-1.131-1.409-1.3L29.5-2.2c-.6-.109-.844-.278-.844-.695,0-.476.447-.774,1.052-.774a2.446,2.446,0,0,1,1.5.546l.387-.5a3.014,3.014,0,0,0-1.856-.645c-1.022,0-1.747.6-1.747,1.419,0,.725.466,1.112,1.37,1.27l.8.139c.605.109.863.318.863.725,0,.476-.437.873-1.221.873a2.169,2.169,0,0,1-1.528-.635Zm7.384.675h.764V-2.663L39.4.662H40.44L36.817-2.871l3.543-3.414h-.973l-3.375,3.3v-3.3h-.764Zm6.431-4.843h-.725v3.136A1.688,1.688,0,0,0,42.7.742a1.745,1.745,0,0,0,1.548-.873V.662h.725V-4.181h-.725V-.608a1.439,1.439,0,0,1-1.27.744,1.255,1.255,0,0,1-1.3-1.39Zm9.25,2.422a2.345,2.345,0,0,0-2.243-2.481,1.918,1.918,0,0,0-1.558.734V-6.434l-.725.149V.662h.715V.027a1.911,1.911,0,0,0,1.528.7A2.36,2.36,0,0,0,50.931-1.759ZM48.509-3.605a1.738,1.738,0,0,1,1.7,1.856,1.732,1.732,0,0,1-1.7,1.856,1.716,1.716,0,0,1-1.38-.675V-2.94A1.667,1.667,0,0,1,48.509-3.605Zm3.434,1.846a2.423,2.423,0,0,0,2.4,2.511A2.79,2.79,0,0,0,56.161.107L55.7-.39a1.979,1.979,0,0,1-1.33.5A1.743,1.743,0,0,1,52.658-1.61h3.8v-.208A2.294,2.294,0,0,0,54.236-4.26,2.365,2.365,0,0,0,51.943-1.759Zm2.283-1.866a1.6,1.6,0,0,1,1.509,1.509H52.678A1.6,1.6,0,0,1,54.226-3.625ZM57.65.662h.725V-2.653a1.362,1.362,0,0,1,1.3-.983,1.717,1.717,0,0,1,.506.089V-4.2a1.425,1.425,0,0,0-.457-.069,1.44,1.44,0,0,0-1.35,1.052v-.963H57.65Zm3.484,0h.725V-2.911a1.439,1.439,0,0,1,1.27-.744,1.255,1.255,0,0,1,1.3,1.39V.662h.725V-2.474A1.688,1.688,0,0,0,63.407-4.26a1.745,1.745,0,0,0-1.548.873v-.794h-.725Zm5.24-2.422a2.423,2.423,0,0,0,2.4,2.511A2.789,2.789,0,0,0,70.592.107l-.457-.5a1.979,1.979,0,0,1-1.33.5A1.743,1.743,0,0,1,67.089-1.61h3.8v-.208A2.294,2.294,0,0,0,68.667-4.26,2.365,2.365,0,0,0,66.374-1.759Zm2.283-1.866a1.6,1.6,0,0,1,1.509,1.509H67.109A1.6,1.6,0,0,1,68.657-3.625Zm3.811,3.2c0,.754.427,1.181,1.27,1.181a2.924,2.924,0,0,0,.854-.129V-.022a1.787,1.787,0,0,1-.685.129c-.516,0-.715-.208-.715-.725V-3.586h1.4v-.6h-1.4v-1.4l-.725.169v1.231h-1v.6h1Zm2.769-1.33a2.423,2.423,0,0,0,2.4,2.511A2.79,2.79,0,0,0,79.455.107L79-.39a1.979,1.979,0,0,1-1.33.5A1.743,1.743,0,0,1,75.952-1.61h3.8v-.208A2.294,2.294,0,0,0,77.53-4.26,2.365,2.365,0,0,0,75.237-1.759ZM77.52-3.625a1.6,1.6,0,0,1,1.509,1.509H75.972A1.6,1.6,0,0,1,77.52-3.625ZM80.537-.013a2.686,2.686,0,0,0,1.975.764,1.681,1.681,0,0,0,1.876-1.5c.01-.734-.457-1.131-1.409-1.3l-.8-.149c-.6-.109-.844-.278-.844-.695,0-.476.447-.774,1.052-.774a2.446,2.446,0,0,1,1.5.546l.387-.5a3.014,3.014,0,0,0-1.856-.645c-1.022,0-1.747.6-1.747,1.419,0,.725.466,1.112,1.37,1.27l.8.139c.605.109.863.318.863.725,0,.476-.437.873-1.221.873a2.169,2.169,0,0,1-1.528-.635ZM88.11-2.94c.794-.566,1.112-.973,1.112-1.707a1.852,1.852,0,0,0-2.035-1.717A2.64,2.64,0,0,0,85-5.193l.556.377a1.964,1.964,0,0,1,1.6-.893,1.225,1.225,0,0,1,1.36,1.072c0,.486-.258.794-.744,1.171l-.417.308a1.892,1.892,0,0,0-.774,1.876h.625A1.434,1.434,0,0,1,87.793-2.7Zm-1.2,2.6a.534.534,0,0,0-.526.546.521.521,0,1,0,1.042,0A.532.532,0,0,0,86.909-.34Z" transform="translate(373.278 282.254)"/><path class="d" d="M4.737-1.744V-5.591H4.058v3.838A1.6,1.6,0,0,1,2.47.064,1.613,1.613,0,0,1,.882-1.145L.264-.9A2.227,2.227,0,0,0,2.461.682,2.192,2.192,0,0,0,4.737-1.744Zm6.387-.282V-5.591h-.679v3.564c0,1.332-.75,2.091-1.8,2.091s-1.8-.759-1.8-2.091V-5.591H6.166v3.564A2.416,2.416,0,0,0,8.645.682,2.421,2.421,0,0,0,11.124-2.027ZM15.677.144l2.364-4.932V.585h.644V-5.591h-.944L15.677-1.2,13.612-5.591h-.944V.585H13.3v-5.39Zm4.676.441h.679V-1.939H22.9a1.791,1.791,0,0,0,1.967-1.826A1.786,1.786,0,0,0,22.9-5.591h-2.55Zm2.479-5.576A1.2,1.2,0,0,1,24.19-3.765a1.206,1.206,0,0,1-1.359,1.244h-1.8v-2.47Zm4.985,0h2.135V.585h.679V-4.991h2.126v-.6h-4.94ZM39.32-2.5a3.1,3.1,0,0,0-3.07-3.185A3.1,3.1,0,0,0,33.18-2.5,3.1,3.1,0,0,0,36.25.682,3.1,3.1,0,0,0,39.32-2.5Zm-.688,0A2.44,2.44,0,0,1,36.25.064,2.446,2.446,0,0,1,33.868-2.5,2.446,2.446,0,0,1,36.25-5.07,2.44,2.44,0,0,1,38.632-2.5ZM42.3-.43a3.484,3.484,0,0,0,2.523,1.1c1.517,0,2.356-.873,2.356-1.862,0-.909-.529-1.42-1.879-1.659l-.988-.168c-.759-.132-1.165-.371-1.165-.979,0-.768.741-1.1,1.473-1.1a3.273,3.273,0,0,1,2.056.75l.4-.512A3.91,3.91,0,0,0,44.64-5.67c-1.129,0-2.144.565-2.144,1.729,0,.873.521,1.341,1.632,1.535l1,.168c1,.176,1.376.468,1.376,1.085,0,.688-.635,1.244-1.65,1.244a2.973,2.973,0,0,1-2.126-1ZM48.425.585h4.252V-.006H49.1V-2.238h2.453V-2.83H49.1V-5h3.538v-.591H48.425Zm8.1-.521A2.473,2.473,0,0,1,54.054-2.5,2.469,2.469,0,0,1,56.506-5.07a2.475,2.475,0,0,1,1.879.865l.45-.468a3.088,3.088,0,0,0-2.329-1.015A3.13,3.13,0,0,0,53.365-2.5,3.13,3.13,0,0,0,56.506.682,3.12,3.12,0,0,0,58.818-.333l-.441-.45A2.42,2.42,0,0,1,56.524.064ZM59.7-4.991h2.135V.585h.679V-4.991H64.64v-.6H59.7ZM65.752.585h.679V-5.591h-.679ZM73.939-2.5a3.1,3.1,0,0,0-3.07-3.185A3.1,3.1,0,0,0,67.8-2.5,3.1,3.1,0,0,0,70.869.682,3.1,3.1,0,0,0,73.939-2.5Zm-.688,0A2.44,2.44,0,0,1,70.869.064,2.446,2.446,0,0,1,68.487-2.5,2.446,2.446,0,0,1,70.869-5.07,2.44,2.44,0,0,1,73.251-2.5Zm2.064-3.088V.585h.644V-4.576L79.673.585h.591V-5.591h-.644V-.553L75.995-5.591Z" transform="translate(360.027 230.501)"/></g></g></svg>