<?xml version="1.0" encoding="utf-8"?>
<!-- Generator: Adobe Illustrator 22.1.0, SVG Export Plug-In . SVG Version: 6.00 Build 0)  -->
<svg version="1.1" id="Layer_1" xmlns="http://www.w3.org/2000/svg" xmlns:xlink="http://www.w3.org/1999/xlink" x="0px" y="0px"
	 viewBox="0 0 67.6 67.3" style="enable-background:new 0 0 67.6 67.3;" xml:space="preserve">
<style type="text/css">
	.st0{fill:#AEE339;}
</style>
<title>rhelements-logo-final-final</title>
<path class="st0" d="M27.3,6.6c-2,10.5-10.2,18.6-20.6,20.7c6.2,0.6,12.2,2.4,17.7,5.2c3.1-2.3,5.9-5.1,8.2-8.2
	C29.7,18.8,27.9,12.8,27.3,6.6z"/>
<path class="st0" d="M66,27.7c-14.4,0-26-11.6-26-26H27.8c0,21.1,17.1,38.1,38.2,38.2V27.7z"/>
<path class="st0" d="M1.8,39.9c14.4,0,26,11.6,26,26H40c0-21.1-17.1-38.1-38.2-38.2V39.9z"/>
<path class="st0" d="M40.4,61c2-10.4,10.2-18.6,20.6-20.6c-6.2-0.6-12.2-2.4-17.7-5.2c-3.1,2.3-5.9,5.1-8.2,8.2
	C38,48.8,39.8,54.8,40.4,61z"/>
</svg>
