<?xml version="1.0" encoding="utf-8"?>
<!-- Generator: Adobe Illustrator 22.1.0, SVG Export Plug-In . SVG Version: 6.00 Build 0)  -->
<svg version="1.1" id="Layer_1" xmlns="http://www.w3.org/2000/svg" xmlns:xlink="http://www.w3.org/1999/xlink" x="0px" y="0px"
	 viewBox="0 0 67.7 67.5" style="enable-background:new 0 0 67.7 67.5;" xml:space="preserve">
<style type="text/css">
	.st0{fill:#A2C935;}
	.st1{opacity:0.45;fill:#231F20;enable-background:new    ;}
	.st2{fill:#AEE339;}
</style>
<title>rhelements-logo-final-final</title>
<g>
	<g id="Layer_1_1_">
		<path class="st0" d="M27.3,1.7c0,14.4-11.6,26-26,26v12.2c21.1,0,38.1-17.1,38.2-38.2H27.3z"/>
		<path class="st0" d="M39.5,65.9c0-14.4,11.6-26,26-26V27.7c-21.1,0-38.1,17.1-38.2,38.2H39.5z"/>
		<path class="st1" d="M34.7,43.3c-4.8,6.5-7.4,14.4-7.4,22.6h12.2c0-1.6,0.2-3.3,0.5-4.9C39.3,54.8,37.6,48.8,34.7,43.3z"/>
		<path class="st1" d="M65.5,27.7c-8.1,0-16,2.6-22.6,7.4c5.5,2.8,11.5,4.6,17.7,5.2c1.6-0.3,3.3-0.5,4.9-0.5V27.7z"/>
		<path class="st1" d="M32.1,24.3c4.8-6.5,7.4-14.4,7.4-22.6H27.3c0,1.6-0.2,3.3-0.5,4.9C27.4,12.8,29.2,18.8,32.1,24.3z"/>
		<path class="st1" d="M1.3,39.9c8.1,0,16-2.6,22.6-7.4c-5.5-2.8-11.5-4.6-17.7-5.2c-1.6,0.3-3.3,0.5-4.9,0.5V39.9z"/>
		<path class="st2" d="M1.3,39.9c14.4,0,26,11.6,26,26h12.2c0-21.1-17.1-38.1-38.2-38.2V39.9z"/>
		<path class="st2" d="M65.5,27.7c-14.4,0-26-11.6-26-26H27.3c0,21.1,17.1,38.1,38.2,38.2V27.7z"/>
	</g>
</g>
</svg>
