<?xml version="1.0" encoding="utf-8"?>
<!-- Generator: Adobe Illustrator 22.1.0, SVG Export Plug-In . SVG Version: 6.00 Build 0)  -->
<svg version="1.1" id="Layer_1" xmlns="http://www.w3.org/2000/svg" xmlns:xlink="http://www.w3.org/1999/xlink" x="0px" y="0px"
	 viewBox="0 0 70.4 67.9" style="enable-background:new 0 0 70.4 67.9;" xml:space="preserve">
<style type="text/css">
	.st0{fill:#046A89;}
	.st1{opacity:0.45;fill:#231F20;enable-background:new    ;}
	.st2{fill:#0477A4;}
</style>
<title>rhelements-logo-final-final</title>
<g>
	<g id="Layer_1_1_">
		<path class="st0" d="M28.6,2.3c0,14.4-11.6,26-26,26v12.2c21.1,0,38.1-17.1,38.2-38.2H28.6z"/>
		<path class="st0" d="M40.8,66.4c0-14.4,11.6-26,26-26V28.3c-21.1,0-38.1,17.1-38.2,38.2H40.8z"/>
		<path class="st1" d="M36,43.9c-4.8,6.5-7.4,14.4-7.4,22.6h12.2c0-1.6,0.2-3.3,0.5-4.9C40.6,55.4,38.8,49.4,36,43.9z"/>
		<path class="st1" d="M66.8,28.3c-8.1,0-16,2.6-22.6,7.4c5.5,2.8,11.5,4.6,17.7,5.2c1.6-0.3,3.3-0.5,4.9-0.5V28.3z"/>
		<path class="st1" d="M33.3,24.9c4.8-6.5,7.4-14.4,7.4-22.6H28.6c0,1.6-0.2,3.3-0.5,4.9C28.7,13.4,30.5,19.4,33.3,24.9z"/>
		<path class="st1" d="M2.6,40.4c8.1,0,16-2.6,22.6-7.4c-5.5-2.8-11.5-4.6-17.7-5.2c-1.6,0.3-3.3,0.5-4.9,0.5V40.4z"/>
		<path class="st2" d="M2.6,40.4c14.4,0,26,11.6,26,26h12.2c0-21.1-17.1-38.1-38.2-38.2V40.4z"/>
		<path class="st2" d="M66.8,28.3c-14.4,0-26-11.6-26-26H28.6c0,21.1,17.1,38.1,38.2,38.2V28.3z"/>
	</g>
</g>
</svg>
