<?xml version="1.0" encoding="utf-8"?>
<!-- Generator: Adobe Illustrator 22.1.0, SVG Export Plug-In . SVG Version: 6.00 Build 0)  -->
<svg version="1.1" id="Layer_1" xmlns="http://www.w3.org/2000/svg" xmlns:xlink="http://www.w3.org/1999/xlink" x="0px" y="0px"
	 viewBox="0 0 382.5 64.2" style="enable-background:new 0 0 382.5 64.2;" xml:space="preserve">
<style type="text/css">
	.st0{fill:#AEE339;}
</style>
<title>rhelements-logo-final-final</title>
<path class="st0" d="M88.4,12.2h18.9c4.8,0,8.2,1.2,10.4,3.6c3.8,4.6,4.3,11.2,1.2,16.3c-1.3,2.2-3.4,3.9-5.9,4.7l7.9,16.3h-8.9
	l-7.6-15.2h-8.2v15.2h-7.9L88.4,12.2z M107.5,30.4c1.5,0.1,3-0.4,4.1-1.5c1.7-2.3,1.7-5.4,0-7.6c-1.1-1.1-2.6-1.7-4.1-1.5H96.3v10.7
	H107.5z"/>
<path class="st0" d="M150.9,35.8h-17.1v17.3h-7.9V12.2h7.9v16.1h17.1V12.2h7.9v40.8h-7.9V35.8z"/>
<path class="st0" d="M166.6,12.2h23.3v3.9h-19.2V30h12.9v3.9h-12.9v15.3h20.5v3.9h-24.5V12.2z"/>
<path class="st0" d="M197.9,13l4.1-2v42.1h-4.1V13z"/>
<path class="st0" d="M213.9,51.6c-2-1.5-3.6-3.4-4.5-5.7c-1.1-2.5-1.6-5.1-1.6-7.8c-0.1-2.9,0.5-5.7,1.6-8.4c1-2.2,2.5-4.1,4.5-5.4
	c2-1.2,4.4-1.9,6.8-1.8c2.1,0,4.2,0.5,6,1.5c1.9,1.1,3.3,2.8,4.2,4.8c1.1,2.5,1.7,5.3,1.6,8.1c0,1,0,2-0.1,2.8h-20.3
	c0.2,2.7,1.2,5.3,2.8,7.4c1.5,1.8,3.7,2.8,6,2.7c2.4,0,4.8-0.8,6.7-2.3l2.2,2.7c-1.3,1-2.7,1.9-4.3,2.4c-1.5,0.6-3.2,0.9-4.8,0.9
	C218.3,53.8,215.9,53.1,213.9,51.6z M228.3,36.2c0-3.6-0.8-6.2-2.4-7.7c-1.4-1.4-3.3-2.2-5.3-2.2c-2.3-0.1-4.5,0.8-6.1,2.5
	c-1.6,1.7-2.5,4.1-2.6,7.4L228.3,36.2z"/>
<path class="st0" d="M272.6,34.8c0-5.7-2.2-8.6-6.5-8.6c-2-0.1-3.9,0.9-5,2.5c-1.3,1.8-1.9,3.9-1.8,6.1v18.2h-4.1V34.8
	c0-5.7-2.2-8.6-6.5-8.6c-2-0.1-3.9,0.7-5.1,2.2c-1.2,1.7-1.9,3.8-1.8,5.9v18.7h-4.1V23.3h4.1v2.9c1-1.1,2.2-2.1,3.6-2.7
	c1.4-0.6,3-0.9,4.5-0.9c1.6,0,3.2,0.4,4.6,1.2c1.4,0.8,2.6,1.9,3.4,3.3c0.9-1.4,2.1-2.5,3.5-3.3c1.5-0.9,3.2-1.3,5-1.3
	c1.8,0,3.6,0.4,5.2,1.3c1.5,0.9,2.8,2.1,3.6,3.7c0.9,1.7,1.4,3.7,1.3,5.6v19.9h-4.1L272.6,34.8z"/>
<path class="st0" d="M288,51.6c-2-1.5-3.6-3.4-4.5-5.7c-1.1-2.5-1.6-5.1-1.6-7.8c-0.1-2.9,0.5-5.7,1.6-8.4c1-2.2,2.5-4.1,4.5-5.4
	c2-1.2,4.4-1.9,6.8-1.8c2.1,0,4.2,0.5,6,1.5c1.9,1.1,3.3,2.8,4.2,4.8c1.1,2.5,1.7,5.3,1.6,8.1c0,1,0,2-0.1,2.8h-20.3
	c0.2,2.7,1.2,5.3,2.8,7.4c1.5,1.8,3.7,2.8,6,2.7c2.4,0,4.8-0.8,6.7-2.3l2.2,2.7c-1.3,1-2.7,1.9-4.2,2.4c-1.5,0.6-3.2,0.9-4.8,0.9
	C292.4,53.8,290,53.1,288,51.6z M302.5,36.2c0-3.6-0.8-6.2-2.4-7.7c-1.4-1.4-3.3-2.2-5.3-2.2c-2.3-0.1-4.5,0.8-6.1,2.5
	c-1.6,1.7-2.5,4.1-2.6,7.4L302.5,36.2z"/>
<path class="st0" d="M330.2,34.9c0-3-0.6-5.2-1.9-6.6c-1.3-1.4-3.2-2.2-5.1-2.1c-4.9,0-7.4,2.8-7.4,8.5v18.3h-4.1V23.3h4.1v3.3
	c1.7-2.6,4.6-4.1,7.7-4c3.6,0,6.3,1.1,8.1,3.3c1.7,2.2,2.6,5.8,2.6,10.7v16.5h-4.1L330.2,34.9z"/>
<path class="st0" d="M344.6,51.9c-1-1.5-1.5-3.2-1.4-5v-20h-5.1v-3.6h5.1V13l4.1-2v12.3h7.6V27h-7.5v18.2c-0.1,1.2,0.2,2.4,0.6,3.5
	c0.5,0.9,1.5,1.4,2.6,1.2c0.8,0,1.6-0.1,2.3-0.5c0.8-0.4,1.5-0.8,2.2-1.3l-0.5,4.2c-1.7,0.9-3.5,1.4-5.4,1.3
	C347.4,53.9,345.7,53.2,344.6,51.9z"/>
<path class="st0" d="M363,52.3c-1.8-0.9-3.4-2.2-4.7-3.8l2.9-2.5c1,1.2,2.2,2.2,3.5,2.9c1.3,0.8,2.7,1.2,4.2,1.2
	c1.5,0.1,3-0.3,4.2-1.1c1.1-0.7,1.7-1.9,1.6-3.2c0-1.5-0.7-2.9-1.9-3.8c-1.7-1.2-3.6-2.1-5.5-2.9c-2.4-0.9-4.6-2.2-6.6-3.7
	c-2.9-2.7-3-7.2-0.4-10.1c0.2-0.3,0.5-0.5,0.8-0.7c2-1.5,4.5-2.2,6.9-2.1c3.8-0.1,7.3,1.6,9.7,4.5l-2.7,2.3c-1.8-2-4.4-3.2-7.1-3.2
	c-1.4-0.1-2.9,0.3-4.1,1.1c-1,0.6-1.5,1.7-1.5,2.8c0,0.9,0.3,1.8,0.9,2.4c0.6,0.7,1.4,1.3,2.2,1.7c0.9,0.4,2.1,1,3.7,1.6
	c1.7,0.6,3.3,1.4,4.9,2.2c1.3,0.7,2.4,1.7,3.3,2.9c0.9,1.4,1.4,3,1.3,4.6c0.1,2.3-0.9,4.5-2.7,6c-2.1,1.6-4.7,2.4-7.3,2.2
	C366.7,53.8,364.7,53.3,363,52.3z"/>
<path class="st0" d="M25.5,4.9c-2,10.5-10.2,18.6-20.6,20.7c6.2,0.6,12.2,2.4,17.7,5.2c3.1-2.3,5.9-5.1,8.2-8.2
	C27.9,17.1,26.1,11.1,25.5,4.9z"/>
<path class="st0" d="M64.2,26c-14.4,0-26-11.6-26-26H26c0,21.1,17.1,38.1,38.2,38.2V26z"/>
<path class="st0" d="M0,38.2c14.4,0,26,11.6,26,26h12.2C38.1,43.1,21.1,26,0,26V38.2z"/>
<path class="st0" d="M38.6,59.3c2-10.4,10.2-18.6,20.6-20.6c-6.2-0.6-12.2-2.4-17.7-5.2c-3.1,2.3-5.9,5.1-8.2,8.2
	C36.3,47.1,38,53.1,38.6,59.3z"/>
</svg>
