<?xml version="1.0" encoding="utf-8"?>
<!-- Generator: Adobe Illustrator 24.2.1, SVG Export Plug-In . SVG Version: 6.00 Build 0)  -->
<svg version="1.1" id="Layer_1" xmlns="http://www.w3.org/2000/svg" xmlns:xlink="http://www.w3.org/1999/xlink" x="0px" y="0px"
	 viewBox="0 0 340 200" style="enable-background:new 0 0 340 200;" xml:space="preserve">
<style type="text/css">
	.st0{fill:#D2D2D2;}
	.st1{fill:#FFFFFF;}
	.st2{enable-background:new    ;}
	.st3{fill:#151515;}
	.st4{fill:#EE0000;}
	.st5{fill:#F5F5F5;}
	.st6{fill:#6A6E73;}
	.st7{fill:none;}
</style>
<g transform="translate(-956 -5476)">
	<rect x="956" y="5654" class="st0" width="340" height="1"/>
	<rect x="1257" y="5601" class="st0" width="1" height="53"/>
	<g transform="translate(564 5355)">
		<rect x="532" y="246" class="st1" width="161" height="54"/>
		<g class="st2">
			<path class="st3" d="M565.39,266.8h1.23V278h-1.23V266.8z"/>
			<path class="st3" d="M569.23,270.19h1.17v1.26c0.59-0.93,1.44-1.39,2.48-1.39c1.68,0,2.83,1.17,2.83,2.88V278h-1.17v-4.72
				c0-1.38-0.82-2.24-2.1-2.24c-0.86,0-1.58,0.42-2.05,1.2V278h-1.17V270.19z"/>
			<path class="st3" d="M578.82,270.19v-1.71c0-1.54,0.83-2.4,2.34-2.4c0.43,0,0.77,0.05,1.06,0.14v1.06
				c-0.35-0.1-0.59-0.14-0.95-0.14c-0.9,0-1.28,0.43-1.28,1.36v1.7h2.23v0.96h-2.23V278h-1.17v-6.85h-1.74v-0.96H578.82z"/>
			<path class="st3" d="M583.74,270.19h1.17v1.58c0.4-1.09,1.18-1.73,2.18-1.73c0.27,0,0.5,0.03,0.74,0.11v1.06
				c-0.26-0.08-0.56-0.14-0.82-0.14c-0.96,0-1.7,0.58-2.1,1.58V278h-1.17V270.19z"/>
			<path class="st3" d="M588.61,275.76c0-1.39,1.17-2.32,2.93-2.32c0.9,0,1.7,0.19,2.38,0.61v-1.07c0-1.28-0.69-1.94-2.02-1.94
				c-0.72,0-1.46,0.21-2.37,0.67l-0.43-0.9c1.07-0.51,2-0.75,2.94-0.75c1.94,0,3.03,0.98,3.03,2.75V278h-1.15v-0.91
				c-0.69,0.7-1.52,1.06-2.48,1.06C589.78,278.14,588.61,277.17,588.61,275.76z M591.68,277.25c0.88,0,1.6-0.29,2.24-0.9v-1.5
				c-0.66-0.38-1.33-0.56-2.21-0.56c-1.2,0-1.98,0.58-1.98,1.44C589.73,276.64,590.51,277.25,591.68,277.25z"/>
			<path class="st3" d="M597.31,276.22c0.93,0.69,1.68,0.98,2.51,0.98c1.14,0,1.97-0.59,1.97-1.41c0-0.64-0.42-0.98-1.41-1.17
				l-1.28-0.22c-1.52-0.27-2.21-0.91-2.21-2.05c0-1.34,1.17-2.29,2.82-2.29c1.07,0,1.98,0.3,2.98,0.98l-0.58,0.82
				c-0.82-0.58-1.62-0.83-2.45-0.83c-1.02,0-1.7,0.48-1.7,1.25c0,0.64,0.34,0.94,1.34,1.12l1.31,0.24c1.57,0.29,2.27,0.94,2.27,2.1
				c0,1.36-1.31,2.42-3.04,2.42c-1.28,0-2.4-0.4-3.17-1.15L597.31,276.22z"/>
			<path class="st3" d="M605.44,271.15h-1.62v-0.96h1.62v-2.14l1.17-0.27v2.42h2.24v0.96h-2.24v4.79c0,0.83,0.32,1.17,1.14,1.17
				c0.4,0,0.67-0.05,1.1-0.21v1.04c-0.43,0.14-0.91,0.21-1.36,0.21c-1.34,0-2.05-0.66-2.05-1.91V271.15z"/>
			<path class="st3" d="M610.56,270.19h1.17v1.58c0.4-1.09,1.18-1.73,2.18-1.73c0.27,0,0.5,0.03,0.74,0.11v1.06
				c-0.26-0.08-0.56-0.14-0.82-0.14c-0.96,0-1.7,0.58-2.1,1.58V278h-1.17V270.19z"/>
			<path class="st3" d="M617.2,274.89c0,1.39,0.8,2.26,2.08,2.26c0.86,0,1.58-0.42,2.05-1.18v-5.78h1.17V278h-1.17v-1.26
				c-0.59,0.93-1.42,1.39-2.48,1.39c-1.68,0-2.83-1.18-2.83-2.9v-5.04h1.18V274.89z"/>
			<path class="st3" d="M630.64,276.16l0.72,0.72c-0.75,0.8-1.83,1.26-2.96,1.26c-2.16,0-3.86-1.78-3.86-4.05
				c0-2.26,1.68-4.03,3.86-4.03c1.15,0,2.24,0.45,3.01,1.22l-0.75,0.82c-0.56-0.61-1.39-0.98-2.21-0.98c-1.54,0-2.74,1.31-2.74,2.98
				c0,1.7,1.2,2.99,2.75,2.99C629.31,277.09,630.1,276.77,630.64,276.16z"/>
			<path class="st3" d="M634.13,271.15h-1.62v-0.96h1.62v-2.14l1.17-0.27v2.42h2.24v0.96h-2.24v4.79c0,0.83,0.32,1.17,1.14,1.17
				c0.4,0,0.67-0.05,1.1-0.21v1.04c-0.43,0.14-0.91,0.21-1.36,0.21c-1.34,0-2.05-0.66-2.05-1.91V271.15z"/>
			<path class="st3" d="M640.38,274.89c0,1.39,0.8,2.26,2.08,2.26c0.86,0,1.58-0.42,2.05-1.18v-5.78h1.17V278h-1.17v-1.26
				c-0.59,0.93-1.42,1.39-2.48,1.39c-1.68,0-2.83-1.18-2.83-2.9v-5.04h1.18V274.89z"/>
			<path class="st3" d="M648.08,270.19h1.17v1.58c0.4-1.09,1.18-1.73,2.18-1.73c0.27,0,0.5,0.03,0.74,0.11v1.06
				c-0.26-0.08-0.56-0.14-0.82-0.14c-0.96,0-1.7,0.58-2.1,1.58V278h-1.17V270.19z"/>
			<path class="st3" d="M656.74,278.14c-2.19,0-3.87-1.76-3.87-4.05s1.6-4.03,3.68-4.03c2.05,0,3.58,1.7,3.58,3.94v0.35H654
				c0.11,1.58,1.3,2.77,2.79,2.77c0.82,0,1.62-0.3,2.14-0.8l0.74,0.78C658.77,277.81,657.83,278.14,656.74,278.14z M654.03,273.52
				h4.95c-0.18-1.41-1.17-2.45-2.45-2.45C655.23,271.07,654.24,272.08,654.03,273.52z"/>
		</g>
	</g>
	<rect x="1096" y="5601" class="st4" width="161" height="3"/>
	<rect x="1095" y="5601" class="st0" width="1" height="53"/>
	<g transform="translate(456 5355)">
		<rect x="532" y="246" class="st5" width="107" height="53"/>
		<g class="st2">
			<path class="st6" d="M573.99,275.52l0.8,0.82c-1.09,1.18-2.58,1.84-4.19,1.84c-3.22,0-5.7-2.56-5.7-5.78
				c0-3.23,2.5-5.78,5.7-5.78c1.65,0,3.17,0.66,4.23,1.84l-0.82,0.85c-0.83-0.99-2.11-1.57-3.41-1.57c-2.53,0-4.45,2.03-4.45,4.66
				s1.92,4.66,4.48,4.66C571.92,277.06,573.17,276.5,573.99,275.52z"/>
			<path class="st6" d="M577.99,278h-1.17v-11.44l1.17-0.24V278z"/>
			<path class="st6" d="M583.83,270.06c2.18,0,3.81,1.73,3.81,4.03c0,2.32-1.65,4.07-3.81,4.07c-2.15,0-3.79-1.76-3.79-4.07
				C580.03,271.79,581.66,270.06,583.83,270.06z M586.48,274.11c0-1.73-1.14-3.03-2.66-3.03c-1.52,0-2.64,1.3-2.64,3.03
				c0,1.75,1.12,3.01,2.64,3.01C585.35,277.12,586.48,275.84,586.48,274.11z"/>
			<path class="st6" d="M590.82,274.89c0,1.39,0.8,2.26,2.08,2.26c0.86,0,1.58-0.42,2.05-1.18v-5.78h1.17V278h-1.17v-1.26
				c-0.59,0.93-1.42,1.39-2.48,1.39c-1.68,0-2.83-1.18-2.83-2.9v-5.04h1.18V274.89z"/>
			<path class="st6" d="M604.26,276.96c-0.59,0.75-1.47,1.15-2.5,1.15c-2.03,0-3.6-1.76-3.6-4c0-2.26,1.6-4.02,3.67-4.02
				c0.96,0,1.81,0.38,2.43,1.09v-4.63l1.17-0.24V278h-1.17V276.96z M602.05,277.09c0.91,0,1.71-0.37,2.21-1.04v-3.87
				c-0.51-0.66-1.33-1.06-2.21-1.06c-1.57,0-2.74,1.26-2.74,2.98C599.31,275.81,600.48,277.09,602.05,277.09z"/>
		</g>
	</g>
	<rect x="956" y="5536" class="st0" width="340" height="1"/>
	<rect x="1099" y="5534" class="st4" width="161" height="3"/>
	<g class="st2">
		<path class="st3" d="M1132.39,5503.8h1.23v11.2h-1.23V5503.8z"/>
		<path class="st3" d="M1136.23,5507.19h1.17v1.26c0.59-0.93,1.44-1.39,2.48-1.39c1.68,0,2.83,1.17,2.83,2.88v5.06h-1.17v-4.72
			c0-1.38-0.82-2.24-2.1-2.24c-0.86,0-1.58,0.42-2.05,1.2v5.76h-1.17V5507.19z"/>
		<path class="st3" d="M1145.82,5507.19v-1.71c0-1.54,0.83-2.4,2.34-2.4c0.43,0,0.77,0.05,1.06,0.14v1.06
			c-0.35-0.1-0.59-0.14-0.95-0.14c-0.9,0-1.28,0.43-1.28,1.36v1.7h2.23v0.96h-2.23v6.85h-1.17v-6.85h-1.74v-0.96H1145.82z"/>
		<path class="st3" d="M1150.74,5507.19h1.17v1.58c0.4-1.09,1.18-1.73,2.18-1.73c0.27,0,0.5,0.03,0.74,0.11v1.06
			c-0.26-0.08-0.56-0.14-0.82-0.14c-0.96,0-1.7,0.58-2.1,1.58v5.35h-1.17V5507.19z"/>
		<path class="st3" d="M1155.61,5512.76c0-1.39,1.17-2.32,2.93-2.32c0.9,0,1.7,0.19,2.38,0.61v-1.07c0-1.28-0.69-1.94-2.02-1.94
			c-0.72,0-1.46,0.21-2.37,0.67l-0.43-0.9c1.07-0.51,2-0.75,2.94-0.75c1.94,0,3.03,0.98,3.03,2.75v5.19h-1.15v-0.91
			c-0.69,0.7-1.52,1.06-2.48,1.06C1156.78,5515.14,1155.61,5514.17,1155.61,5512.76z M1158.68,5514.25c0.88,0,1.6-0.29,2.24-0.9
			v-1.5c-0.66-0.38-1.33-0.56-2.21-0.56c-1.2,0-1.98,0.58-1.98,1.44C1156.73,5513.64,1157.51,5514.25,1158.68,5514.25z"/>
		<path class="st3" d="M1164.31,5513.22c0.93,0.69,1.68,0.98,2.51,0.98c1.14,0,1.97-0.59,1.97-1.41c0-0.64-0.42-0.98-1.41-1.17
			l-1.28-0.22c-1.52-0.27-2.21-0.91-2.21-2.05c0-1.34,1.17-2.29,2.82-2.29c1.07,0,1.98,0.3,2.98,0.98l-0.58,0.82
			c-0.82-0.58-1.62-0.83-2.45-0.83c-1.02,0-1.7,0.48-1.7,1.25c0,0.64,0.34,0.94,1.34,1.12l1.31,0.24c1.57,0.29,2.27,0.94,2.27,2.1
			c0,1.36-1.31,2.42-3.04,2.42c-1.28,0-2.4-0.4-3.17-1.15L1164.31,5513.22z"/>
		<path class="st3" d="M1172.44,5508.15h-1.62v-0.96h1.62v-2.14l1.17-0.27v2.42h2.24v0.96h-2.24v4.79c0,0.83,0.32,1.17,1.14,1.17
			c0.4,0,0.67-0.05,1.1-0.21v1.04c-0.43,0.14-0.91,0.21-1.36,0.21c-1.34,0-2.05-0.66-2.05-1.91V5508.15z"/>
		<path class="st3" d="M1177.56,5507.19h1.17v1.58c0.4-1.09,1.18-1.73,2.18-1.73c0.27,0,0.5,0.03,0.74,0.11v1.06
			c-0.26-0.08-0.56-0.14-0.82-0.14c-0.96,0-1.7,0.58-2.1,1.58v5.35h-1.17V5507.19z"/>
		<path class="st3" d="M1184.2,5511.89c0,1.39,0.8,2.26,2.08,2.26c0.86,0,1.58-0.42,2.05-1.18v-5.78h1.17v7.81h-1.17v-1.26
			c-0.59,0.93-1.42,1.39-2.48,1.39c-1.68,0-2.83-1.18-2.83-2.9v-5.04h1.18V5511.89z"/>
		<path class="st3" d="M1197.64,5513.16l0.72,0.72c-0.75,0.8-1.83,1.26-2.96,1.26c-2.16,0-3.86-1.78-3.86-4.05
			c0-2.26,1.68-4.03,3.86-4.03c1.15,0,2.24,0.45,3.01,1.22l-0.75,0.82c-0.56-0.61-1.39-0.98-2.21-0.98c-1.54,0-2.74,1.31-2.74,2.98
			c0,1.7,1.2,2.99,2.75,2.99C1196.31,5514.09,1197.1,5513.77,1197.64,5513.16z"/>
		<path class="st3" d="M1201.13,5508.15h-1.62v-0.96h1.62v-2.14l1.17-0.27v2.42h2.24v0.96h-2.24v4.79c0,0.83,0.32,1.17,1.14,1.17
			c0.4,0,0.67-0.05,1.1-0.21v1.04c-0.43,0.14-0.91,0.21-1.36,0.21c-1.34,0-2.05-0.66-2.05-1.91V5508.15z"/>
		<path class="st3" d="M1207.38,5511.89c0,1.39,0.8,2.26,2.08,2.26c0.86,0,1.58-0.42,2.05-1.18v-5.78h1.17v7.81h-1.17v-1.26
			c-0.59,0.93-1.42,1.39-2.48,1.39c-1.68,0-2.83-1.18-2.83-2.9v-5.04h1.18V5511.89z"/>
		<path class="st3" d="M1215.08,5507.19h1.17v1.58c0.4-1.09,1.18-1.73,2.18-1.73c0.27,0,0.5,0.03,0.74,0.11v1.06
			c-0.26-0.08-0.56-0.14-0.82-0.14c-0.96,0-1.7,0.58-2.1,1.58v5.35h-1.17V5507.19z"/>
		<path class="st3" d="M1223.74,5515.14c-2.19,0-3.87-1.76-3.87-4.05s1.6-4.03,3.68-4.03c2.05,0,3.58,1.7,3.58,3.94v0.35H1221
			c0.11,1.58,1.3,2.77,2.79,2.77c0.82,0,1.62-0.3,2.14-0.8l0.74,0.78C1225.77,5514.81,1224.83,5515.14,1223.74,5515.14z
			 M1221.03,5510.52h4.95c-0.18-1.41-1.17-2.45-2.45-2.45C1222.23,5508.07,1221.24,5509.08,1221.03,5510.52z"/>
	</g>
	<g class="st2">
		<path class="st6" d="M1033.99,5512.52l0.8,0.82c-1.09,1.18-2.58,1.84-4.19,1.84c-3.22,0-5.7-2.56-5.7-5.78
			c0-3.23,2.5-5.78,5.7-5.78c1.65,0,3.17,0.66,4.23,1.84l-0.82,0.85c-0.83-0.99-2.11-1.57-3.41-1.57c-2.53,0-4.45,2.03-4.45,4.66
			s1.92,4.66,4.48,4.66C1031.92,5514.06,1033.17,5513.5,1033.99,5512.52z"/>
		<path class="st6" d="M1037.99,5515h-1.17v-11.44l1.17-0.24V5515z"/>
		<path class="st6" d="M1043.83,5507.06c2.18,0,3.81,1.73,3.81,4.03c0,2.32-1.65,4.07-3.81,4.07c-2.15,0-3.79-1.76-3.79-4.07
			C1040.03,5508.79,1041.66,5507.06,1043.83,5507.06z M1046.48,5511.11c0-1.73-1.14-3.03-2.66-3.03c-1.52,0-2.64,1.3-2.64,3.03
			c0,1.75,1.12,3.01,2.64,3.01C1045.35,5514.12,1046.48,5512.84,1046.48,5511.11z"/>
		<path class="st6" d="M1050.82,5511.89c0,1.39,0.8,2.26,2.08,2.26c0.86,0,1.58-0.42,2.05-1.18v-5.78h1.17v7.81h-1.17v-1.26
			c-0.59,0.93-1.42,1.39-2.48,1.39c-1.68,0-2.83-1.18-2.83-2.9v-5.04h1.18V5511.89z"/>
		<path class="st6" d="M1064.26,5513.96c-0.59,0.75-1.47,1.15-2.5,1.15c-2.03,0-3.6-1.76-3.6-4c0-2.26,1.6-4.02,3.67-4.02
			c0.96,0,1.81,0.38,2.43,1.09v-4.63l1.17-0.24V5515h-1.17V5513.96z M1062.05,5514.09c0.91,0,1.71-0.37,2.21-1.04v-3.87
			c-0.51-0.66-1.33-1.06-2.21-1.06c-1.57,0-2.74,1.26-2.74,2.98C1059.31,5512.81,1060.48,5514.09,1062.05,5514.09z"/>
	</g>
	<rect x="956" y="5476" class="st7" width="340" height="200"/>
</g>
</svg>
