<svg id="Artwork" xmlns="http://www.w3.org/2000/svg" viewBox="0 0 1040.06 168.45"><defs><style>.cls-1{fill:#fff;}.cls-2{fill:#e00;}</style></defs><title>Logo-Red_Hat-Ecosystem_Catalog-A-Reverse-RGB</title><g id="Logos"><g id="Reverse"><g id="Type"><path class="cls-1" d="M318.62,9.25h25.44c11.13,0,18.65,6.72,18.65,16.56,0,7.36-4.48,13-11.52,15.36l12.48,24.08h-9.29l-11.59-23H327v23h-8.4Zm8.4,7.36V35.33h16.33c6.56,0,10.87-3.76,10.87-9.36s-4.31-9.36-10.87-9.36Z"/><path class="cls-1" d="M387.5,66a21,21,0,0,1-21.36-21.12c0-11.76,9-21,20.4-21,11.21,0,19.68,9.28,19.68,21.28v2.32H374.06a13.74,13.74,0,0,0,13.76,11.68,15.84,15.84,0,0,0,10.32-3.6l5.13,5A24.33,24.33,0,0,1,387.5,66ZM374.14,41.49H398.3c-1.19-6.24-6-10.88-11.92-10.88C380.22,30.61,375.34,35,374.14,41.49Z"/><path class="cls-1" d="M445.18,61.41a19.23,19.23,0,0,1-12.48,4.48c-11.52,0-20.56-9.2-20.56-21a20.72,20.72,0,0,1,33-17V9.25l8-1.76V65.25h-7.92Zm-11.36-2.48a14.67,14.67,0,0,0,11.28-4.88V35.57a14.89,14.89,0,0,0-11.28-4.8,13.63,13.63,0,0,0-13.84,14A13.77,13.77,0,0,0,433.82,58.93Z"/><path class="cls-1" d="M480.22,9.25h8.4v24h29.76v-24h8.41v56h-8.41V40.85H488.62v24.4h-8.4Z"/><path class="cls-1" d="M534.38,53.57c0-7.68,6.24-12.4,16.48-12.4A28.75,28.75,0,0,1,562,43.41V39.09c0-5.76-3.44-8.64-9.92-8.64-3.76,0-7.6,1-12.64,3.44l-3-6c6.08-2.88,11.36-4.16,16.72-4.16,10.56,0,16.64,5.2,16.64,14.56v27H562V61.73A19.32,19.32,0,0,1,549.34,66C540.46,66,534.38,60.93,534.38,53.57Zm16.8,6.48A15.66,15.66,0,0,0,562,56.21v-7a21.15,21.15,0,0,0-10.48-2.48c-5.84,0-9.44,2.64-9.44,6.72C542.06,57.33,545.74,60.05,551.18,60.05Z"/><path class="cls-1" d="M582.7,31.25h-8.64V24.53h8.64V14.13l7.92-1.92V24.53h12v6.72h-12V53.33c0,4.16,1.68,5.68,6,5.68a15.68,15.68,0,0,0,5.84-1v6.72a26.48,26.48,0,0,1-7.59,1.2c-7.93,0-12.17-3.76-12.17-10.8Z"/><path class="cls-1" d="M318,93.25h43v10.08H329.58v12.8H350.3v9.76H329.58v13.28h31.77v10.08H318Z"/><path class="cls-1" d="M396.87,135.81l6.56,6.8a23.14,23.14,0,0,1-17,7.44,21.64,21.64,0,1,1,0-43.28,23.47,23.47,0,0,1,17.29,7.44L397,121.33c-3-3.36-6.41-5-10.32-5-6.33,0-11.21,5.28-11.21,12.16s5,12,11.45,12C390.71,140.45,393.9,139,396.87,135.81Z"/><path class="cls-1" d="M427.83,106.77c12.48,0,22.24,9.52,22.24,21.68s-9.76,21.6-22.24,21.6-22.25-9.44-22.25-21.6S415.34,106.77,427.83,106.77Zm11.52,21.68c0-6.88-5.05-12.16-11.52-12.16s-11.53,5.28-11.53,12.16c0,6.72,5.05,12.08,11.53,12.08S439.35,135.17,439.35,128.45Z"/><path class="cls-1" d="M458.71,137c4.87,3.2,9.12,4.72,13.51,4.72,4.89,0,8.09-1.76,8.09-4.4,0-2.16-1.6-3.36-5.2-3.92l-8-1.2c-8.24-1.28-12.65-5.36-12.65-12.08,0-8.08,6.73-13.2,17.37-13.2a30.75,30.75,0,0,1,17.12,5.2l-5.28,7c-4.56-2.72-8.64-4-12.88-4-4,0-6.57,1.6-6.57,4.08,0,2.24,1.61,3.36,5.69,3.92l8,1.2c8.16,1.2,12.71,5.44,12.71,11.92,0,7.84-7.75,13.76-18.24,13.76-7.59,0-14.4-2-19.12-5.76Z"/><path class="cls-1" d="M507.19,149.65,491,107.57H503L513.35,136l11.84-28.4H537l-19.2,45c-4.32,10.08-9.37,13.92-18.48,13.92a20,20,0,0,1-4.89-.48v-9.44a17.19,17.19,0,0,0,3.84.32c3.92,0,6.65-1.92,8.24-5.68Z"/><path class="cls-1" d="M543.26,137c4.88,3.2,9.12,4.72,13.52,4.72,4.88,0,8.09-1.76,8.09-4.4,0-2.16-1.61-3.36-5.21-3.92l-8-1.2c-8.24-1.28-12.64-5.36-12.64-12.08,0-8.08,6.72-13.2,17.36-13.2a30.75,30.75,0,0,1,17.12,5.2l-5.28,7c-4.56-2.72-8.64-4-12.88-4-4,0-6.56,1.6-6.56,4.08,0,2.24,1.6,3.36,5.68,3.92l8,1.2c8.16,1.2,12.72,5.44,12.72,11.92,0,7.84-7.76,13.76-18.24,13.76-7.6,0-14.4-2-19.12-5.76Z"/><path class="cls-1" d="M585.5,116.77h-8.56v-9.2h8.56V96.93l11-2.48v13.12H608.3v9.2H596.46v18.48c0,3.92,1.52,5.36,5.76,5.36a16.86,16.86,0,0,0,5.84-1v9a34,34,0,0,1-8.48,1.28c-9.28,0-14.08-4.24-14.08-12.4Z"/><path class="cls-1" d="M633.83,150.05c-12.65,0-22.41-9.44-22.41-21.6a21.28,21.28,0,0,1,21.45-21.6c11.84,0,20.64,9.6,20.64,22.4v2.88h-31a12,12,0,0,0,11.84,8.72,13.15,13.15,0,0,0,9.21-3.36l7.2,6.56A25,25,0,0,1,633.83,150.05Zm-11.45-25.76h20.41c-1.36-5-5.36-8.4-10.17-8.4C627.58,115.89,623.74,119.17,622.38,124.29Z"/><path class="cls-1" d="M660.22,107.57h11v3.12a16.21,16.21,0,0,1,10.88-3.92A15,15,0,0,1,694.62,113a17.18,17.18,0,0,1,13.77-6.24c9.36,0,15.92,6.8,15.92,16.56v25.92h-11V124.93c0-5.28-3-8.72-7.84-8.72a9.38,9.38,0,0,0-8,4.16,18.87,18.87,0,0,1,.24,3v25.92h-11V124.93c0-5.28-3-8.72-7.84-8.72a9.31,9.31,0,0,0-7.77,3.76v29.28h-11Z"/><path class="cls-1" d="M792.54,132.21l7.6,7.52a30.78,30.78,0,0,1-23,10.32c-16.88,0-29.84-12.56-29.84-28.8s13-28.88,29.84-28.88c9,0,18.08,4.08,23.28,10.48l-7.84,7.76a19.5,19.5,0,0,0-15.44-7.6c-10.16,0-17.92,7.84-17.92,18.24a17.8,17.8,0,0,0,18.24,18.08A19.22,19.22,0,0,0,792.54,132.21Z"/><path class="cls-1" d="M804.22,137.17c0-7.92,6.4-12.64,17.12-12.64a33.71,33.71,0,0,1,10.16,1.6v-3c0-4.8-3-7.28-8.8-7.28-3.52,0-7.44,1.12-12.72,3.44l-4-8.08a43.46,43.46,0,0,1,18.56-4.48c11.28,0,17.76,5.6,17.76,15.44v27H831.5v-2.88a19.81,19.81,0,0,1-12.08,3.6C810.46,150,804.22,144.77,804.22,137.17Zm18.08,5a15.78,15.78,0,0,0,9.2-2.64v-6.24a24.22,24.22,0,0,0-8.8-1.52c-5,0-8,2-8,5.2S817.66,142.13,822.3,142.13Z"/><path class="cls-1" d="M854.7,116.77h-8.56v-9.2h8.56V96.93l11-2.48v13.12H877.5v9.2H865.66v18.48c0,3.92,1.52,5.36,5.76,5.36a16.86,16.86,0,0,0,5.84-1v9a34,34,0,0,1-8.48,1.28c-9.28,0-14.08-4.24-14.08-12.4Z"/><path class="cls-1" d="M880.94,137.17c0-7.92,6.4-12.64,17.12-12.64a33.71,33.71,0,0,1,10.16,1.6v-3c0-4.8-3-7.28-8.8-7.28-3.52,0-7.44,1.12-12.72,3.44l-4-8.08a43.46,43.46,0,0,1,18.56-4.48c11.28,0,17.76,5.6,17.76,15.44v27h-10.8v-2.88a19.81,19.81,0,0,1-12.08,3.6C887.18,150,880.94,144.77,880.94,137.17Zm18.08,5a15.78,15.78,0,0,0,9.2-2.64v-6.24a24.22,24.22,0,0,0-8.8-1.52c-5,0-8,2-8,5.2S894.38,142.13,899,142.13Z"/><path class="cls-1" d="M938.3,149.25h-11v-56l11-2.4Z"/><path class="cls-1" d="M967.18,106.77c12.48,0,22.24,9.52,22.24,21.68s-9.76,21.6-22.24,21.6-22.24-9.44-22.24-21.6S954.7,106.77,967.18,106.77Zm11.52,21.68c0-6.88-5-12.16-11.52-12.16s-11.52,5.28-11.52,12.16c0,6.72,5,12.08,11.52,12.08S978.7,135.17,978.7,128.45Z"/><path class="cls-1" d="M994.54,128.13a21.14,21.14,0,0,1,21.44-21.2,20.32,20.32,0,0,1,11.28,3.36v-2.72h10.8v41.68c0,11-7.28,17.2-20.64,17.2a38.76,38.76,0,0,1-17.36-3.76l3.84-8.56a29.69,29.69,0,0,0,13.28,3.36c6.56,0,9.92-2.88,9.92-8.32v-3.44a18.87,18.87,0,0,1-11.44,3.76A21.1,21.1,0,0,1,994.54,128.13Zm22.8,12.08a13.73,13.73,0,0,0,9.76-3.76v-16.4a14,14,0,0,0-9.68-3.76,12,12,0,1,0-.08,23.92Z"/></g><g id="Hat_icon" data-name="Hat icon"><path id="Red_hat" data-name="Red hat" class="cls-2" d="M129,92.24c12.5,0,30.61-2.58,30.61-17.46a14,14,0,0,0-.31-3.42L151.82,39c-1.72-7.12-3.23-10.35-15.74-16.6-9.7-5-30.82-13.15-37.07-13.15-5.82,0-7.55,7.54-14.45,7.54-6.68,0-11.64-5.6-17.89-5.6-6,0-9.92,4.1-12.93,12.5,0,0-8.41,23.72-9.49,27.16A6.43,6.43,0,0,0,44,52.79C44,62,80.32,92.24,129,92.24Zm32.55-11.42c1.73,8.19,1.73,9.05,1.73,10.13,0,14-15.74,21.77-36.44,21.77-46.77,0-87.73-27.37-87.73-45.48a18.32,18.32,0,0,1,1.51-7.33C23.77,60.77,2,63.79,2,83c0,31.48,74.59,70.28,133.65,70.28,45.27,0,56.7-20.48,56.7-36.65C192.35,103.88,181.35,89.44,161.52,80.82Z"/><path id="Black_band" data-name="Black band" d="M161.52,80.82c1.73,8.19,1.73,9.05,1.73,10.13,0,14-15.74,21.77-36.44,21.77-46.77,0-87.73-27.37-87.73-45.48a18.32,18.32,0,0,1,1.51-7.33l3.66-9.06A6.43,6.43,0,0,0,44,52.79C44,62,80.32,92.24,129,92.24c12.5,0,30.61-2.58,30.61-17.46a14,14,0,0,0-.31-3.42Z"/></g><path id="Dividing_line" data-name="Dividing line" class="cls-1" d="M255.47,160.75a2.25,2.25,0,0,1-2.25-2.25V4.25a2.25,2.25,0,0,1,4.5,0V158.5A2.25,2.25,0,0,1,255.47,160.75Z"/></g></g></svg>