<svg xmlns="http://www.w3.org/2000/svg" viewBox="0 0 935.58 162.75"><defs><style>.cls-1{fill:#fff;}.cls-2{fill:#e00;}</style></defs><title>Logo-Red_Hat-Customer_Portal-A-Reverse-RGB</title><g id="Two_lines" data-name="Two lines"><g id="Two_line_logo" data-name="Two line logo"><path class="cls-1" d="M318.62,9.25h25.44c11.13,0,18.64,6.72,18.64,16.56,0,7.36-4.47,13-11.51,15.36l12.48,24.08h-9.29l-11.6-23H327v23h-8.4Zm8.4,7.36V35.33h16.33c6.55,0,10.87-3.76,10.87-9.36s-4.32-9.36-10.87-9.36Z"/><path class="cls-1" d="M387.5,66a21,21,0,0,1-21.36-21.12c0-11.76,9-21,20.4-21,11.2,0,19.68,9.28,19.68,21.28v2.32H374.06a13.74,13.74,0,0,0,13.76,11.68,15.84,15.84,0,0,0,10.32-3.6l5.13,5A24.33,24.33,0,0,1,387.5,66ZM374.14,41.49H398.3c-1.19-6.24-6-10.88-11.92-10.88C380.22,30.61,375.34,35,374.14,41.49Z"/><path class="cls-1" d="M445.18,61.41a19.23,19.23,0,0,1-12.48,4.48c-11.52,0-20.56-9.2-20.56-21a20.72,20.72,0,0,1,33-17V9.25l8-1.76V65.25h-7.92Zm-11.36-2.48a14.67,14.67,0,0,0,11.28-4.88V35.57a14.89,14.89,0,0,0-11.28-4.8,13.63,13.63,0,0,0-13.84,14A13.77,13.77,0,0,0,433.82,58.93Z"/><path class="cls-1" d="M480.22,9.25h8.4v24h29.76v-24h8.4v56h-8.4V40.85H488.62v24.4h-8.4Z"/><path class="cls-1" d="M534.38,53.57c0-7.68,6.24-12.4,16.48-12.4A28.75,28.75,0,0,1,562,43.41V39.09c0-5.76-3.44-8.64-9.92-8.64-3.76,0-7.6,1-12.64,3.44l-3-6c6.08-2.88,11.36-4.16,16.72-4.16,10.56,0,16.64,5.2,16.64,14.56v27H562V61.73A19.32,19.32,0,0,1,549.34,66C540.46,66,534.38,60.93,534.38,53.57Zm16.8,6.48A15.66,15.66,0,0,0,562,56.21v-7a21.15,21.15,0,0,0-10.48-2.48c-5.84,0-9.44,2.64-9.44,6.72C542.06,57.33,545.74,60.05,551.18,60.05Z"/><path class="cls-1" d="M582.7,31.25h-8.64V24.53h8.64V14.13l7.92-1.92V24.53h12v6.72h-12V53.33c0,4.16,1.68,5.68,6,5.68a15.72,15.72,0,0,0,5.84-1v6.72a26.5,26.5,0,0,1-7.6,1.2c-7.92,0-12.16-3.76-12.16-10.8Z"/><path class="cls-1" d="M361,132.21l7.59,7.52a30.76,30.76,0,0,1-23,10.32c-16.88,0-29.84-12.56-29.84-28.8s13-28.88,29.84-28.88c9,0,18.09,4.08,23.28,10.48l-7.83,7.76a19.52,19.52,0,0,0-15.45-7.6c-10.16,0-17.92,7.84-17.92,18.24A17.8,17.8,0,0,0,346,139.33,19.24,19.24,0,0,0,361,132.21Z"/><path class="cls-1" d="M383.74,131.81c0,5.36,3.44,8.8,8.64,8.8a10.05,10.05,0,0,0,8.65-4.16V107.57h11v41.68H401v-3.36a17.79,17.79,0,0,1-11.77,4.16c-9.68,0-16.48-6.88-16.48-16.64V107.57h11Z"/><path class="cls-1" d="M422.46,137c4.88,3.2,9.12,4.72,13.52,4.72,4.88,0,8.08-1.76,8.08-4.4,0-2.16-1.6-3.36-5.2-3.92l-8-1.2c-8.24-1.28-12.64-5.36-12.64-12.08,0-8.08,6.72-13.2,17.36-13.2a30.75,30.75,0,0,1,17.12,5.2l-5.28,7c-4.56-2.72-8.64-4-12.88-4-4,0-6.56,1.6-6.56,4.08,0,2.24,1.6,3.36,5.68,3.92l8,1.2c8.16,1.2,12.72,5.44,12.72,11.92,0,7.84-7.76,13.76-18.24,13.76-7.6,0-14.4-2-19.12-5.76Z"/><path class="cls-1" d="M464.7,116.77h-8.56v-9.2h8.56V96.93l11-2.48v13.12H487.5v9.2H475.66v18.48c0,3.92,1.52,5.36,5.76,5.36a16.86,16.86,0,0,0,5.84-1v9a34,34,0,0,1-8.48,1.28c-9.28,0-14.08-4.24-14.08-12.4Z"/><path class="cls-1" d="M512.86,106.77c12.48,0,22.24,9.52,22.24,21.68s-9.76,21.6-22.24,21.6-22.24-9.44-22.24-21.6S500.38,106.77,512.86,106.77Zm11.52,21.68c0-6.88-5-12.16-11.52-12.16s-11.52,5.28-11.52,12.16c0,6.72,5,12.08,11.52,12.08S524.38,135.17,524.38,128.45Z"/><path class="cls-1" d="M541.82,107.57h11v3.12a16.21,16.21,0,0,1,10.88-3.92A15,15,0,0,1,576.22,113,17.16,17.16,0,0,1,590,106.77c9.36,0,15.91,6.8,15.91,16.56v25.92h-11V124.93c0-5.28-3-8.72-7.83-8.72a9.37,9.37,0,0,0-8,4.16,18.89,18.89,0,0,1,.23,3v25.92h-11V124.93c0-5.28-3-8.72-7.84-8.72a9.3,9.3,0,0,0-7.76,3.76v29.28h-11Z"/><path class="cls-1" d="M634.78,150.05c-12.64,0-22.4-9.44-22.4-21.6a21.28,21.28,0,0,1,21.44-21.6c11.84,0,20.64,9.6,20.64,22.4v2.88h-31a12,12,0,0,0,11.84,8.72,13.12,13.12,0,0,0,9.2-3.36l7.2,6.56A25,25,0,0,1,634.78,150.05Zm-11.44-25.76h20.4c-1.36-5-5.36-8.4-10.16-8.4C628.54,115.89,624.7,119.17,623.34,124.29Z"/><path class="cls-1" d="M661.18,107.57h11v4.56a13.26,13.26,0,0,1,11.12-5.52,9.44,9.44,0,0,1,4.56,1v9.6a14,14,0,0,0-5.6-1.12,11,11,0,0,0-10.08,6.24v27h-11Z"/><path class="cls-1" d="M710.54,93.25h28.08c11,0,18.8,7.28,18.8,17.6,0,10-7.92,17.28-18.8,17.28H722.14v21.12h-11.6Zm11.6,10v15.28h15.2c5,0,8.32-3,8.32-7.6s-3.28-7.68-8.32-7.68Z"/><path class="cls-1" d="M782.14,106.77c12.48,0,22.24,9.52,22.24,21.68s-9.76,21.6-22.24,21.6-22.24-9.44-22.24-21.6S769.66,106.77,782.14,106.77Zm11.52,21.68c0-6.88-5-12.16-11.52-12.16s-11.52,5.28-11.52,12.16c0,6.72,5,12.08,11.52,12.08S793.66,135.17,793.66,128.45Z"/><path class="cls-1" d="M811.1,107.57h11v4.56a13.26,13.26,0,0,1,11.12-5.52,9.44,9.44,0,0,1,4.56,1v9.6a14,14,0,0,0-5.6-1.12,11,11,0,0,0-10.08,6.24v27h-11Z"/><path class="cls-1" d="M850,116.77h-8.56v-9.2H850V96.93l11-2.48v13.12h11.84v9.2H860.94v18.48c0,3.92,1.52,5.36,5.76,5.36a16.86,16.86,0,0,0,5.84-1v9a34,34,0,0,1-8.48,1.28c-9.28,0-14.08-4.24-14.08-12.4Z"/><path class="cls-1" d="M876.22,137.17c0-7.92,6.4-12.64,17.12-12.64a33.71,33.71,0,0,1,10.16,1.6v-3c0-4.8-3-7.28-8.8-7.28-3.52,0-7.44,1.12-12.72,3.44l-4-8.08a43.46,43.46,0,0,1,18.56-4.48c11.28,0,17.76,5.6,17.76,15.44v27H903.5v-2.88a19.81,19.81,0,0,1-12.08,3.6C882.46,150,876.22,144.77,876.22,137.17Zm18.08,5a15.78,15.78,0,0,0,9.2-2.64v-6.24a24.22,24.22,0,0,0-8.8-1.52c-5,0-8,2-8,5.2S889.66,142.13,894.3,142.13Z"/><path class="cls-1" d="M933.58,149.25h-11v-56l11-2.4Z"/><g id="Hat_icon" data-name="Hat icon"><path id="Red_hat" data-name="Red hat" class="cls-2" d="M129,92.24c12.5,0,30.61-2.58,30.61-17.46a14,14,0,0,0-.31-3.42L151.82,39c-1.72-7.12-3.23-10.35-15.74-16.6-9.7-5-30.82-13.15-37.07-13.15-5.83,0-7.55,7.54-14.45,7.54-6.68,0-11.64-5.6-17.89-5.6-6,0-9.92,4.1-12.93,12.5,0,0-8.41,23.72-9.49,27.16A6.43,6.43,0,0,0,44,52.79C44,62,80.32,92.24,129,92.24Zm32.55-11.42c1.72,8.19,1.72,9.05,1.72,10.13,0,14-15.73,21.77-36.43,21.77-46.77,0-87.73-27.37-87.73-45.48a18.32,18.32,0,0,1,1.51-7.33C23.77,60.77,2,63.79,2,83c0,31.48,74.59,70.28,133.65,70.28,45.27,0,56.7-20.48,56.7-36.65C192.35,103.88,181.35,89.44,161.52,80.82Z"/><path id="Black_band" data-name="Black band" d="M161.52,80.82c1.72,8.19,1.72,9.05,1.72,10.13,0,14-15.73,21.77-36.43,21.77-46.77,0-87.73-27.37-87.73-45.48a18.32,18.32,0,0,1,1.51-7.33l3.66-9.06A6.43,6.43,0,0,0,44,52.79C44,62,80.32,92.24,129,92.24c12.5,0,30.61-2.58,30.61-17.46a14,14,0,0,0-.31-3.42Z"/></g><path id="Dividing_line" data-name="Dividing line" class="cls-1" d="M255.47,160.75a2.25,2.25,0,0,1-2.25-2.25V4.25a2.25,2.25,0,0,1,4.5,0V158.5A2.25,2.25,0,0,1,255.47,160.75Z"/></g></g></svg>