<?xml version="1.0" encoding="utf-8"?>
<!-- Generator: Adobe Illustrator 24.2.1, SVG Export Plug-In . SVG Version: 6.00 Build 0)  -->
<svg version="1.1" id="Layer_1" xmlns="http://www.w3.org/2000/svg" xmlns:xlink="http://www.w3.org/1999/xlink" x="0px" y="0px"
	 viewBox="0 0 340 200" style="enable-background:new 0 0 340 200;" xml:space="preserve">
<style type="text/css">
	.st0{fill:#151515;}
	.st1{fill:none;}
	.st2{enable-background:new    ;}
	.st3{fill:#FFFFFF;}
	.st4{fill:none;stroke:#FFFFFF;stroke-width:1.4;stroke-linecap:round;stroke-miterlimit:10;}
	.st5{fill:none;stroke:#FFFFFF;stroke-width:1.4;stroke-linecap:round;}
	.st6{fill:#EE0000;}
</style>
<g transform="translate(-956 -4064)">
	<rect x="956" y="4128" class="st0" width="340" height="72"/>
	<g transform="translate(111 3912)">
		<g transform="translate(0 -5)">
			<rect x="1124" y="261" class="st1" width="33" height="18"/>
			<g class="st2">
				<path class="st3" d="M1125.07,265.6h0.92v7.58h4.74V274h-5.66V265.6z"/>
				<path class="st3" d="M1134.49,268.05c1.63,0,2.85,1.3,2.85,3.02c0,1.74-1.23,3.05-2.85,3.05c-1.61,0-2.84-1.32-2.84-3.05
					C1131.64,269.35,1132.87,268.05,1134.49,268.05z M1136.48,271.09c0-1.3-0.85-2.27-1.99-2.27c-1.14,0-1.98,0.97-1.98,2.27
					c0,1.31,0.84,2.25,1.98,2.25C1135.62,273.34,1136.48,272.38,1136.48,271.09z"/>
				<path class="st3" d="M1138.63,271.07c0-1.68,1.2-3,2.75-3c0.73,0,1.37,0.29,1.83,0.83v-0.75h0.86v6.15
					c0,1.45-0.88,2.25-2.47,2.25c-0.79,0-1.61-0.23-2.28-0.61l0.37-0.67c0.72,0.37,1.27,0.54,1.87,0.54c1.07,0,1.63-0.52,1.63-1.5
					v-1.1c-0.44,0.56-1.1,0.86-1.87,0.86C1139.8,274.07,1138.63,272.75,1138.63,271.07z M1141.54,273.32c0.68,0,1.28-0.29,1.66-0.79
					v-2.89c-0.38-0.49-1-0.79-1.66-0.79c-1.18,0-2.05,0.95-2.05,2.23S1140.37,273.32,1141.54,273.32z"/>
				<path class="st3" d="M1148.48,266.07c0-0.34,0.29-0.62,0.64-0.62c0.34,0,0.62,0.29,0.62,0.62c0,0.36-0.28,0.64-0.62,0.64
					C1148.75,266.71,1148.48,266.43,1148.48,266.07z M1149.55,274h-0.88v-5.85h0.88V274z"/>
				<path class="st3" d="M1151.35,268.15h0.88v0.95c0.44-0.7,1.08-1.04,1.86-1.04c1.26,0,2.12,0.88,2.12,2.16V274h-0.88v-3.54
					c0-1.03-0.61-1.68-1.57-1.68c-0.65,0-1.19,0.31-1.54,0.9V274h-0.88V268.15z"/>
			</g>
		</g>
		<g transform="translate(1132 234)">
			<path class="st4" d="M0,18c0-4.97,4.03-9,9-9s9,4.03,9,9"/>
			<circle class="st4" cx="9" cy="4.5" r="4.5"/>
		</g>
	</g>
	<g transform="translate(57 3912)">
		<g transform="translate(0 -5)">
			<rect x="1124" y="261" class="st1" width="30" height="18"/>
			<g class="st2">
				<path class="st3" d="M1125.93,266.67V274h-0.86v-8.4h1.28l2.81,5.97l2.81-5.97h1.28v8.4h-0.88v-7.3l-3.21,6.7L1125.93,266.67z"
					/>
				<path class="st3" d="M1137.87,274.11c-1.64,0-2.9-1.32-2.9-3.04c0-1.71,1.2-3.02,2.76-3.02c1.54,0,2.69,1.27,2.69,2.95v0.26
					h-4.59c0.08,1.19,0.97,2.08,2.09,2.08c0.61,0,1.21-0.23,1.61-0.6l0.55,0.59C1139.39,273.86,1138.69,274.11,1137.87,274.11z
					 M1135.84,270.64h3.71c-0.13-1.06-0.88-1.83-1.83-1.83C1136.74,268.81,1136,269.56,1135.84,270.64z"/>
				<path class="st3" d="M1141.92,268.15h0.88v0.95c0.44-0.7,1.08-1.04,1.86-1.04c1.26,0,2.12,0.88,2.12,2.16V274h-0.88v-3.54
					c0-1.03-0.61-1.68-1.57-1.68c-0.65,0-1.19,0.31-1.54,0.9V274h-0.88V268.15z"/>
				<path class="st3" d="M1149.33,271.67c0,1.04,0.6,1.69,1.56,1.69c0.65,0,1.19-0.31,1.54-0.89v-4.33h0.88V274h-0.88v-0.95
					c-0.44,0.7-1.07,1.04-1.86,1.04c-1.26,0-2.12-0.89-2.12-2.17v-3.78h0.89V271.67z"/>
			</g>
		</g>
		<g transform="translate(562 -13)">
			<rect x="568" y="247" class="st1" width="18" height="18"/>
			<line class="st5" x1="568" y1="263" x2="586" y2="263"/>
			<line class="st5" x1="568" y1="256" x2="586" y2="256"/>
			<line class="st5" x1="568" y1="249" x2="586" y2="249"/>
		</g>
	</g>
	<g transform="translate(975.5 4147.5)">
		<path class="st3" d="M129.21,21.01c0,2.64,1.6,3.93,4.49,3.93c0.89-0.03,1.78-0.15,2.64-0.38V21.5c-0.55,0.18-1.13,0.27-1.71,0.27
			c-1.2,0-1.64-0.38-1.64-1.49v-4.71h3.47v-3.16h-3.47v-4l-3.78,0.82v3.18h-2.51v3.16h2.49v5.44H129.21z M117.43,21.08
			c0-0.82,0.82-1.22,2.07-1.22c0.76,0,1.51,0.09,2.24,0.29v1.6c-0.72,0.4-1.53,0.6-2.36,0.58
			C118.17,22.32,117.43,21.86,117.43,21.08 M118.59,24.99c1.21,0.04,2.41-0.3,3.42-0.96v0.76h3.73v-7.93c0-3.02-2.02-4.67-5.42-4.67
			c-2,0.03-3.97,0.49-5.78,1.36l1.36,2.78c1.17-0.56,2.44-0.89,3.73-0.98c1.56,0,2.36,0.6,2.36,1.84v0.6
			c-0.91-0.24-1.86-0.36-2.8-0.36c-3.18,0-5.09,1.33-5.09,3.71C114.1,23.32,115.83,24.99,118.59,24.99 M98.06,24.79h4.02v-6.42h6.73
			v6.4h4.02V8.41h-4.02v6.29h-6.73V8.41h-4.02L98.06,24.79z M82.74,18.59c0-1.73,1.39-3.13,3.12-3.14c0.04,0,0.08,0,0.12,0
			c0.96-0.01,1.89,0.33,2.62,0.96v4.33c-0.71,0.67-1.65,1.02-2.62,1c-1.75,0.04-3.2-1.35-3.24-3.1
			C82.74,18.62,82.74,18.61,82.74,18.59 M88.66,24.79h3.73V7.59l-3.78,0.82v4.64c-3.04-1.77-6.94-0.74-8.71,2.29
			c-1.77,3.04-0.74,6.94,2.29,8.71c0.92,0.54,1.97,0.84,3.04,0.86h0.11c1.19,0,2.35-0.37,3.31-1.07L88.66,24.79z M71.5,15.28
			c1.2,0.01,2.25,0.81,2.6,1.96h-5.16C69.23,16.06,70.29,15.25,71.5,15.28 M65.12,18.61c0.04,3.58,2.98,6.45,6.56,6.4
			c0.06,0,0.12,0,0.18,0c1.9,0.07,3.74-0.6,5.16-1.87l-2.51-2.22c-0.66,0.64-1.55,0.97-2.47,0.93c-1.32,0.04-2.53-0.74-3.04-1.96
			h8.8v-0.93c0-3.93-2.64-6.76-6.24-6.76c-3.5-0.05-6.39,2.74-6.44,6.24C65.12,18.5,65.13,18.56,65.12,18.61 M58.61,11.86
			c1.02-0.13,1.95,0.59,2.08,1.61c0.13,1.02-0.59,1.95-1.61,2.08c-0.15,0.02-0.31,0.02-0.46,0h-3.98v-3.69H58.61z M50.61,24.77h4.02
			v-5.96h3.07l3.09,5.96h4.49l-3.6-6.56c1.87-0.76,3.09-2.58,3.09-4.6c0-2.93-2.31-5.22-5.78-5.22h-8.38V24.77z"/>
		<path class="st6" d="M28.72,18.94c2.78,0,6.8-0.58,6.8-3.89c0-0.25-0.02-0.51-0.07-0.76l-1.64-7.2c-0.38-1.58-0.71-2.31-3.49-3.69
			C28.17,2.3,23.48,0.5,22.08,0.5c-1.31,0-1.69,1.67-3.22,1.67c-1.49,0-2.58-1.24-3.98-1.24c-1.33,0-2.2,0.91-2.87,2.78
			c0,0-1.87,5.27-2.11,6.04c-0.04,0.14-0.05,0.28-0.04,0.42C9.83,12.21,17.9,18.92,28.72,18.94 M35.94,16.41
			c0.2,0.73,0.33,1.49,0.38,2.24c0,3.11-3.49,4.84-8.09,4.84c-10.4,0-19.49-6.09-19.49-10.11c0-0.56,0.11-1.11,0.33-1.62
			c-3.73,0.18-8.58,0.84-8.58,5.11c0,7,16.58,15.62,29.69,15.62c10.07,0,12.6-4.56,12.6-8.16C42.79,21.52,40.35,18.32,35.94,16.41"
			/>
		<path d="M35.94,16.41c0.2,0.73,0.33,1.49,0.38,2.24c0,3.11-3.49,4.84-8.09,4.84c-10.4,0-19.49-6.09-19.49-10.11
			c0-0.56,0.11-1.11,0.33-1.62L9.9,9.74c-0.04,0.14-0.05,0.28-0.04,0.42c0,2.04,8.07,8.76,18.87,8.76c2.78,0,6.8-0.58,6.8-3.89
			c0-0.25-0.02-0.51-0.07-0.76L35.94,16.41z"/>
	</g>
	<rect x="956" y="4064" class="st1" width="340" height="200"/>
</g>
</svg>
