<svg width="1136" height="264" viewBox="0 0 1136 264" fill="none" xmlns="http://www.w3.org/2000/svg">
<rect x="0.5" y="0.5" width="1135" height="263" rx="2.5" fill="white" stroke="#C7C7C7"/>
<rect x="64" y="228" width="1008" height="24" fill="#E0E0E0"/>
<rect x="64" y="188" width="1008" height="24" fill="#E0E0E0"/>
<rect x="64" y="136" width="504" height="36" fill="#E0E0E0"/>
<rect width="1136" height="72" fill="#151515"/>
<mask id="path-6-inside-1_18_3627" fill="white">
<path d="M680 48H1088V184H680V48Z"/>
</mask>
<path d="M680 48H1088V184H680V48Z" fill="#E9F7DF"/>
<path d="M680 50H1088V46H680V50Z" fill="#3D7317" mask="url(#path-6-inside-1_18_3627)"/>
<g clip-path="url(#clip0_18_3627)">
<path d="M704 68.5C699.59 68.5 696 72.09 696 76.5C696 80.91 699.59 84.5 704 84.5C708.41 84.5 712 80.91 712 76.5C712 72.09 708.41 68.5 704 68.5ZM707.9 74.9L703.575 79.225C703.415 79.385 703.21 79.46 703 79.46C702.79 79.46 702.585 79.38 702.425 79.225L700.1 76.9C699.88 76.68 699.88 76.325 700.1 76.105C700.32 75.885 700.675 75.885 700.895 76.105L702.995 78.21L707.095 74.105C707.315 73.885 707.67 73.885 707.89 74.105C708.11 74.325 708.11 74.68 707.89 74.9H707.9Z" fill="#3D7317"/>
</g>
<path d="M724.452 81.154C723.687 81.154 722.963 81.0233 722.282 80.762C721.61 80.4913 720.961 80.0947 720.336 79.572L721.246 78.34C721.881 78.8533 722.445 79.222 722.94 79.446C723.444 79.6607 723.981 79.768 724.55 79.768C724.979 79.768 725.357 79.7027 725.684 79.572C726.02 79.432 726.277 79.2453 726.454 79.012C726.641 78.7787 726.734 78.508 726.734 78.2C726.734 77.7987 726.599 77.4953 726.328 77.29C726.067 77.0753 725.609 76.912 724.956 76.8L723.15 76.492C722.301 76.3427 721.666 76.058 721.246 75.638C720.835 75.2087 720.63 74.6627 720.63 74C720.63 73.412 720.779 72.8987 721.078 72.46C721.377 72.012 721.792 71.6667 722.324 71.424C722.865 71.172 723.505 71.046 724.242 71.046C724.979 71.046 725.679 71.1533 726.342 71.368C727.005 71.5827 727.616 71.8953 728.176 72.306L727.322 73.566C726.827 73.1927 726.319 72.9127 725.796 72.726C725.273 72.53 724.737 72.432 724.186 72.432C723.794 72.432 723.449 72.4927 723.15 72.614C722.861 72.7353 722.632 72.9033 722.464 73.118C722.305 73.3327 722.226 73.5707 722.226 73.832C722.226 74.1867 722.343 74.462 722.576 74.658C722.819 74.8447 723.206 74.9847 723.738 75.078L725.488 75.372C726.477 75.5493 727.205 75.8573 727.672 76.296C728.148 76.7347 728.386 77.3273 728.386 78.074C728.386 78.6713 728.218 79.2033 727.882 79.67C727.555 80.1367 727.098 80.5007 726.51 80.762C725.922 81.0233 725.236 81.154 724.452 81.154ZM732.288 81.112C731.803 81.112 731.378 81.0047 731.014 80.79C730.65 80.5753 730.361 80.2813 730.146 79.908C729.941 79.5347 729.838 79.1007 729.838 78.606V73.986H731.434V78.144C731.434 78.6667 731.569 79.082 731.84 79.39C732.12 79.6887 732.498 79.838 732.974 79.838C733.291 79.838 733.576 79.768 733.828 79.628C734.089 79.488 734.313 79.278 734.5 78.998V73.986H736.082V81H734.5V79.866C734.229 80.2767 733.907 80.5893 733.534 80.804C733.161 81.0093 732.745 81.112 732.288 81.112ZM741.263 81.126C740.6 81.126 739.998 80.9673 739.457 80.65C738.925 80.3233 738.5 79.8847 738.183 79.334C737.875 78.7833 737.721 78.172 737.721 77.5C737.721 76.8187 737.875 76.2073 738.183 75.666C738.5 75.1153 738.925 74.6813 739.457 74.364C739.998 74.0373 740.6 73.874 741.263 73.874C741.804 73.874 742.317 73.9767 742.803 74.182C743.297 74.3873 743.717 74.6813 744.062 75.064L743.083 76.086C742.84 75.8153 742.569 75.61 742.271 75.47C741.972 75.33 741.655 75.26 741.319 75.26C740.936 75.26 740.591 75.3627 740.283 75.568C739.984 75.764 739.746 76.03 739.569 76.366C739.391 76.702 739.303 77.08 739.303 77.5C739.303 77.92 739.391 78.3027 739.569 78.648C739.746 78.984 739.984 79.25 740.283 79.446C740.591 79.642 740.936 79.74 741.319 79.74C741.655 79.74 741.972 79.67 742.271 79.53C742.569 79.39 742.84 79.1893 743.083 78.928L744.062 79.936C743.717 80.3187 743.297 80.6127 742.803 80.818C742.317 81.0233 741.804 81.126 741.263 81.126ZM748.386 81.126C747.723 81.126 747.121 80.9673 746.58 80.65C746.048 80.3233 745.623 79.8847 745.306 79.334C744.998 78.7833 744.844 78.172 744.844 77.5C744.844 76.8187 744.998 76.2073 745.306 75.666C745.623 75.1153 746.048 74.6813 746.58 74.364C747.121 74.0373 747.723 73.874 748.386 73.874C748.927 73.874 749.44 73.9767 749.926 74.182C750.42 74.3873 750.84 74.6813 751.186 75.064L750.206 76.086C749.963 75.8153 749.692 75.61 749.394 75.47C749.095 75.33 748.778 75.26 748.442 75.26C748.059 75.26 747.714 75.3627 747.406 75.568C747.107 75.764 746.869 76.03 746.692 76.366C746.514 76.702 746.426 77.08 746.426 77.5C746.426 77.92 746.514 78.3027 746.692 78.648C746.869 78.984 747.107 79.25 747.406 79.446C747.714 79.642 748.059 79.74 748.442 79.74C748.778 79.74 749.095 79.67 749.394 79.53C749.692 79.39 749.963 79.1893 750.206 78.928L751.186 79.936C750.84 80.3187 750.42 80.6127 749.926 80.818C749.44 81.0233 748.927 81.126 748.386 81.126ZM755.551 81.14C754.879 81.14 754.272 80.9813 753.731 80.664C753.189 80.3373 752.76 79.9033 752.443 79.362C752.125 78.8113 751.967 78.1907 751.967 77.5C751.967 76.8093 752.116 76.1933 752.415 75.652C752.713 75.1107 753.119 74.6813 753.633 74.364C754.155 74.0373 754.734 73.874 755.369 73.874C756.022 73.874 756.596 74.0327 757.091 74.35C757.595 74.6673 757.987 75.0967 758.267 75.638C758.556 76.1793 758.701 76.8 758.701 77.5V77.878H753.521C753.577 78.2607 753.698 78.6013 753.885 78.9C754.081 79.1893 754.328 79.418 754.627 79.586C754.935 79.754 755.266 79.838 755.621 79.838C755.947 79.838 756.255 79.782 756.545 79.67C756.843 79.5487 757.091 79.3853 757.287 79.18L758.323 80.118C757.893 80.4727 757.455 80.734 757.007 80.902C756.568 81.0607 756.083 81.14 755.551 81.14ZM753.535 76.898H757.203C757.147 76.562 757.03 76.2633 756.853 76.002C756.685 75.7407 756.47 75.5353 756.209 75.386C755.957 75.2367 755.677 75.162 755.369 75.162C755.061 75.162 754.776 75.2367 754.515 75.386C754.263 75.526 754.053 75.7267 753.885 75.988C753.717 76.2493 753.6 76.5527 753.535 76.898ZM762.762 81.14C762.165 81.14 761.605 81.0607 761.082 80.902C760.569 80.734 760.126 80.496 759.752 80.188L760.494 79.138C760.961 79.4273 761.362 79.6327 761.698 79.754C762.044 79.8753 762.394 79.936 762.748 79.936C763.168 79.936 763.509 79.8473 763.77 79.67C764.032 79.4927 764.162 79.264 764.162 78.984C764.162 78.7693 764.083 78.6013 763.924 78.48C763.775 78.3493 763.528 78.2513 763.182 78.186L761.95 77.976C761.269 77.8453 760.76 77.6213 760.424 77.304C760.088 76.9867 759.92 76.5667 759.92 76.044C759.92 75.6053 760.032 75.2273 760.256 74.91C760.49 74.5833 760.807 74.3313 761.208 74.154C761.619 73.9673 762.095 73.874 762.636 73.874C763.122 73.874 763.593 73.944 764.05 74.084C764.508 74.224 764.956 74.434 765.394 74.714L764.652 75.764C764.298 75.5307 763.943 75.3627 763.588 75.26C763.243 75.148 762.893 75.092 762.538 75.092C762.174 75.092 761.88 75.1667 761.656 75.316C761.442 75.456 761.334 75.652 761.334 75.904C761.334 76.128 761.404 76.3007 761.544 76.422C761.694 76.534 761.95 76.618 762.314 76.674L763.56 76.912C764.26 77.0333 764.778 77.2573 765.114 77.584C765.46 77.9013 765.632 78.326 765.632 78.858C765.632 79.2873 765.506 79.6747 765.254 80.02C765.002 80.3653 764.662 80.6407 764.232 80.846C763.803 81.042 763.313 81.14 762.762 81.14ZM769.462 81.14C768.864 81.14 768.304 81.0607 767.782 80.902C767.268 80.734 766.825 80.496 766.452 80.188L767.194 79.138C767.66 79.4273 768.062 79.6327 768.398 79.754C768.743 79.8753 769.093 79.936 769.448 79.936C769.868 79.936 770.208 79.8473 770.47 79.67C770.731 79.4927 770.862 79.264 770.862 78.984C770.862 78.7693 770.782 78.6013 770.624 78.48C770.474 78.3493 770.227 78.2513 769.882 78.186L768.65 77.976C767.968 77.8453 767.46 77.6213 767.124 77.304C766.788 76.9867 766.62 76.5667 766.62 76.044C766.62 75.6053 766.732 75.2273 766.956 74.91C767.189 74.5833 767.506 74.3313 767.908 74.154C768.318 73.9673 768.794 73.874 769.336 73.874C769.821 73.874 770.292 73.944 770.75 74.084C771.207 74.224 771.655 74.434 772.094 74.714L771.352 75.764C770.997 75.5307 770.642 75.3627 770.288 75.26C769.942 75.148 769.592 75.092 769.238 75.092C768.874 75.092 768.58 75.1667 768.356 75.316C768.141 75.456 768.034 75.652 768.034 75.904C768.034 76.128 768.104 76.3007 768.244 76.422C768.393 76.534 768.65 76.618 769.014 76.674L770.26 76.912C770.96 77.0333 771.478 77.2573 771.814 77.584C772.159 77.9013 772.332 78.326 772.332 78.858C772.332 79.2873 772.206 79.6747 771.954 80.02C771.702 80.3653 771.361 80.6407 770.932 80.846C770.502 81.042 770.012 81.14 769.462 81.14Z" fill="#151515"/>
<g clip-path="url(#clip1_18_3627)">
<path d="M1066.95 72L1070.68 68.2773C1070.94 68.0136 1070.94 67.5864 1070.68 67.3228C1070.41 67.0591 1069.99 67.0591 1069.72 67.3228L1066 71.0452L1062.28 67.3228C1062.01 67.0591 1061.59 67.0591 1061.32 67.3228C1061.06 67.5865 1061.06 68.0136 1061.32 68.2773L1065.05 72L1061.32 75.7225C1061.06 75.9862 1061.06 76.4139 1061.32 76.6776C1061.45 76.8094 1061.63 76.875 1061.8 76.875C1061.97 76.875 1062.15 76.8094 1062.28 76.6776L1066 72.9548L1069.72 76.6776C1069.85 76.8094 1070.03 76.875 1070.2 76.875C1070.37 76.875 1070.55 76.8094 1070.68 76.6776C1070.94 76.4139 1070.94 75.9862 1070.68 75.7225L1066.95 72Z" fill="#151515"/>
</g>
<path d="M723.976 110V105.996L720.168 100.2H721.428L724.55 105.058L727.686 100.2H728.876L725.054 106.024V110H723.976ZM731.662 110.112C731.027 110.112 730.458 109.958 729.954 109.65C729.45 109.342 729.053 108.922 728.764 108.39C728.475 107.858 728.33 107.256 728.33 106.584C728.33 105.912 728.475 105.31 728.764 104.778C729.053 104.246 729.45 103.826 729.954 103.518C730.458 103.21 731.027 103.056 731.662 103.056C732.287 103.056 732.847 103.21 733.342 103.518C733.846 103.826 734.243 104.246 734.532 104.778C734.821 105.31 734.966 105.912 734.966 106.584C734.966 107.256 734.821 107.858 734.532 108.39C734.243 108.922 733.846 109.342 733.342 109.65C732.847 109.958 732.287 110.112 731.662 110.112ZM731.648 109.216C732.096 109.216 732.493 109.104 732.838 108.88C733.183 108.647 733.454 108.329 733.65 107.928C733.855 107.527 733.958 107.079 733.958 106.584C733.958 106.08 733.855 105.632 733.65 105.24C733.454 104.839 733.183 104.526 732.838 104.302C732.493 104.069 732.096 103.952 731.648 103.952C731.2 103.952 730.803 104.069 730.458 104.302C730.113 104.526 729.837 104.839 729.632 105.24C729.436 105.632 729.338 106.08 729.338 106.584C729.338 107.079 729.436 107.527 729.632 107.928C729.837 108.329 730.113 108.647 730.458 108.88C730.803 109.104 731.2 109.216 731.648 109.216ZM739.195 110.112C738.71 110.112 738.28 110.005 737.907 109.79C737.534 109.575 737.24 109.277 737.025 108.894C736.82 108.511 736.717 108.073 736.717 107.578V103.168H737.753V107.284C737.753 107.891 737.916 108.371 738.243 108.726C738.57 109.081 739.013 109.258 739.573 109.258C739.956 109.258 740.296 109.169 740.595 108.992C740.903 108.815 741.16 108.558 741.365 108.222V103.168H742.387V110H741.365V108.894C741.104 109.295 740.791 109.599 740.427 109.804C740.072 110.009 739.662 110.112 739.195 110.112ZM744.484 110V103.168H745.506V104.568C745.683 104.092 745.935 103.723 746.262 103.462C746.598 103.191 746.98 103.056 747.41 103.056C747.531 103.056 747.643 103.065 747.746 103.084C747.848 103.093 747.951 103.117 748.054 103.154V104.078C747.942 104.041 747.82 104.013 747.69 103.994C747.568 103.966 747.452 103.952 747.34 103.952C746.92 103.952 746.551 104.073 746.234 104.316C745.926 104.559 745.683 104.899 745.506 105.338V110H744.484ZM752.673 110V103.168H753.695V104.274C753.956 103.863 754.269 103.56 754.633 103.364C754.997 103.159 755.408 103.056 755.865 103.056C756.36 103.056 756.789 103.163 757.153 103.378C757.526 103.583 757.816 103.877 758.021 104.26C758.236 104.633 758.343 105.072 758.343 105.576V110H757.321V105.87C757.321 105.263 757.153 104.787 756.817 104.442C756.49 104.087 756.047 103.91 755.487 103.91C755.114 103.91 754.773 103.999 754.465 104.176C754.157 104.353 753.9 104.615 753.695 104.96V110H752.673ZM763.478 110.14C762.843 110.14 762.269 109.986 761.756 109.678C761.242 109.361 760.836 108.936 760.538 108.404C760.239 107.863 760.09 107.256 760.09 106.584C760.09 105.912 760.23 105.31 760.51 104.778C760.799 104.246 761.186 103.826 761.672 103.518C762.157 103.21 762.698 103.056 763.296 103.056C763.902 103.056 764.439 103.21 764.906 103.518C765.382 103.817 765.755 104.227 766.026 104.75C766.306 105.263 766.446 105.847 766.446 106.5V106.808H761.084C761.121 107.275 761.247 107.695 761.462 108.068C761.686 108.432 761.975 108.721 762.33 108.936C762.694 109.141 763.09 109.244 763.52 109.244C763.874 109.244 764.215 109.183 764.542 109.062C764.878 108.931 765.162 108.759 765.396 108.544L766.04 109.23C765.648 109.538 765.242 109.767 764.822 109.916C764.402 110.065 763.954 110.14 763.478 110.14ZM761.112 106.08H765.438C765.391 105.669 765.265 105.305 765.06 104.988C764.864 104.661 764.612 104.405 764.304 104.218C764.005 104.031 763.669 103.938 763.296 103.938C762.922 103.938 762.582 104.031 762.274 104.218C761.966 104.395 761.709 104.647 761.504 104.974C761.308 105.291 761.177 105.66 761.112 106.08ZM769.272 110L767.396 103.168H768.39L769.818 108.628L771.456 103.168H772.366L774.004 108.628L775.418 103.168H776.384L774.522 110H773.528L771.904 104.484L770.28 110H769.272ZM783.211 110.126C782.726 110.126 782.296 110.037 781.923 109.86C781.55 109.683 781.256 109.44 781.041 109.132C780.836 108.815 780.733 108.451 780.733 108.04C780.733 107.629 780.84 107.275 781.055 106.976C781.27 106.668 781.568 106.43 781.951 106.262C782.334 106.094 782.782 106.01 783.295 106.01C783.687 106.01 784.056 106.052 784.401 106.136C784.756 106.22 785.082 106.355 785.381 106.542V105.604C785.381 105.044 785.232 104.624 784.933 104.344C784.634 104.055 784.196 103.91 783.617 103.91C783.3 103.91 782.973 103.957 782.637 104.05C782.31 104.143 781.946 104.293 781.545 104.498L781.167 103.714C782.082 103.275 782.94 103.056 783.743 103.056C784.592 103.056 785.246 103.266 785.703 103.686C786.16 104.097 786.389 104.689 786.389 105.464V110H785.381V109.202C785.082 109.51 784.751 109.743 784.387 109.902C784.023 110.051 783.631 110.126 783.211 110.126ZM781.713 108.012C781.713 108.413 781.867 108.735 782.175 108.978C782.492 109.221 782.908 109.342 783.421 109.342C783.804 109.342 784.154 109.277 784.471 109.146C784.798 109.015 785.101 108.819 785.381 108.558V107.242C785.092 107.074 784.793 106.953 784.485 106.878C784.177 106.794 783.832 106.752 783.449 106.752C782.926 106.752 782.506 106.869 782.189 107.102C781.872 107.326 781.713 107.629 781.713 108.012ZM791.532 110.112C790.897 110.112 790.323 109.958 789.81 109.65C789.306 109.333 788.905 108.908 788.606 108.376C788.307 107.835 788.158 107.237 788.158 106.584C788.158 105.921 788.307 105.324 788.606 104.792C788.905 104.26 789.306 103.84 789.81 103.532C790.323 103.215 790.897 103.056 791.532 103.056C792.036 103.056 792.517 103.149 792.974 103.336C793.431 103.523 793.828 103.784 794.164 104.12L793.506 104.834C793.263 104.563 792.969 104.353 792.624 104.204C792.279 104.055 791.929 103.98 791.574 103.98C791.126 103.98 790.72 104.097 790.356 104.33C790.001 104.563 789.717 104.876 789.502 105.268C789.287 105.66 789.18 106.099 789.18 106.584C789.18 107.069 789.287 107.508 789.502 107.9C789.717 108.292 790.001 108.605 790.356 108.838C790.72 109.071 791.126 109.188 791.574 109.188C791.929 109.188 792.279 109.113 792.624 108.964C792.969 108.805 793.263 108.595 793.506 108.334L794.164 109.048C793.828 109.384 793.431 109.645 792.974 109.832C792.517 110.019 792.036 110.112 791.532 110.112ZM798.45 110.112C797.815 110.112 797.241 109.958 796.728 109.65C796.224 109.333 795.823 108.908 795.524 108.376C795.225 107.835 795.076 107.237 795.076 106.584C795.076 105.921 795.225 105.324 795.524 104.792C795.823 104.26 796.224 103.84 796.728 103.532C797.241 103.215 797.815 103.056 798.45 103.056C798.954 103.056 799.435 103.149 799.892 103.336C800.349 103.523 800.746 103.784 801.082 104.12L800.424 104.834C800.181 104.563 799.887 104.353 799.542 104.204C799.197 104.055 798.847 103.98 798.492 103.98C798.044 103.98 797.638 104.097 797.274 104.33C796.919 104.563 796.635 104.876 796.42 105.268C796.205 105.66 796.098 106.099 796.098 106.584C796.098 107.069 796.205 107.508 796.42 107.9C796.635 108.292 796.919 108.605 797.274 108.838C797.638 109.071 798.044 109.188 798.492 109.188C798.847 109.188 799.197 109.113 799.542 108.964C799.887 108.805 800.181 108.595 800.424 108.334L801.082 109.048C800.746 109.384 800.349 109.645 799.892 109.832C799.435 110.019 798.954 110.112 798.45 110.112ZM805.326 110.112C804.691 110.112 804.122 109.958 803.618 109.65C803.114 109.342 802.717 108.922 802.428 108.39C802.139 107.858 801.994 107.256 801.994 106.584C801.994 105.912 802.139 105.31 802.428 104.778C802.717 104.246 803.114 103.826 803.618 103.518C804.122 103.21 804.691 103.056 805.326 103.056C805.951 103.056 806.511 103.21 807.006 103.518C807.51 103.826 807.907 104.246 808.196 104.778C808.485 105.31 808.63 105.912 808.63 106.584C808.63 107.256 808.485 107.858 808.196 108.39C807.907 108.922 807.51 109.342 807.006 109.65C806.511 109.958 805.951 110.112 805.326 110.112ZM805.312 109.216C805.76 109.216 806.157 109.104 806.502 108.88C806.847 108.647 807.118 108.329 807.314 107.928C807.519 107.527 807.622 107.079 807.622 106.584C807.622 106.08 807.519 105.632 807.314 105.24C807.118 104.839 806.847 104.526 806.502 104.302C806.157 104.069 805.76 103.952 805.312 103.952C804.864 103.952 804.467 104.069 804.122 104.302C803.777 104.526 803.501 104.839 803.296 105.24C803.1 105.632 803.002 106.08 803.002 106.584C803.002 107.079 803.1 107.527 803.296 107.928C803.501 108.329 803.777 108.647 804.122 108.88C804.467 109.104 804.864 109.216 805.312 109.216ZM812.859 110.112C812.374 110.112 811.944 110.005 811.571 109.79C811.198 109.575 810.904 109.277 810.689 108.894C810.484 108.511 810.381 108.073 810.381 107.578V103.168H811.417V107.284C811.417 107.891 811.58 108.371 811.907 108.726C812.234 109.081 812.677 109.258 813.237 109.258C813.62 109.258 813.96 109.169 814.259 108.992C814.567 108.815 814.824 108.558 815.029 108.222V103.168H816.051V110H815.029V108.894C814.768 109.295 814.455 109.599 814.091 109.804C813.736 110.009 813.326 110.112 812.859 110.112ZM818.148 110V103.168H819.17V104.274C819.431 103.863 819.744 103.56 820.108 103.364C820.472 103.159 820.882 103.056 821.34 103.056C821.834 103.056 822.264 103.163 822.628 103.378C823.001 103.583 823.29 103.877 823.496 104.26C823.71 104.633 823.818 105.072 823.818 105.576V110H822.796V105.87C822.796 105.263 822.628 104.787 822.292 104.442C821.965 104.087 821.522 103.91 820.962 103.91C820.588 103.91 820.248 103.999 819.94 104.176C819.632 104.353 819.375 104.615 819.17 104.96V110H818.148ZM828.271 110.14C827.683 110.14 827.235 110 826.927 109.72C826.629 109.431 826.479 109.015 826.479 108.474V104.008H825.065V103.168H826.479V101.292L827.501 101.054V103.168H829.461V104.008H827.501V108.208C827.501 108.572 827.576 108.833 827.725 108.992C827.884 109.151 828.141 109.23 828.495 109.23C828.673 109.23 828.831 109.216 828.971 109.188C829.111 109.16 829.275 109.113 829.461 109.048V109.958C829.275 110.023 829.079 110.07 828.873 110.098C828.668 110.126 828.467 110.14 828.271 110.14ZM834.226 110V99.892L835.248 99.682V104.274C835.509 103.863 835.822 103.56 836.186 103.364C836.55 103.159 836.96 103.056 837.418 103.056C837.912 103.056 838.342 103.163 838.706 103.378C839.079 103.583 839.368 103.877 839.574 104.26C839.788 104.633 839.896 105.072 839.896 105.576V110H838.874V105.87C838.874 105.263 838.706 104.787 838.37 104.442C838.043 104.087 837.6 103.91 837.04 103.91C836.666 103.91 836.326 103.999 836.018 104.176C835.71 104.353 835.453 104.615 835.248 104.96V110H834.226ZM844.064 110.126C843.579 110.126 843.15 110.037 842.776 109.86C842.403 109.683 842.109 109.44 841.894 109.132C841.689 108.815 841.586 108.451 841.586 108.04C841.586 107.629 841.694 107.275 841.908 106.976C842.123 106.668 842.422 106.43 842.804 106.262C843.187 106.094 843.635 106.01 844.148 106.01C844.54 106.01 844.909 106.052 845.254 106.136C845.609 106.22 845.936 106.355 846.234 106.542V105.604C846.234 105.044 846.085 104.624 845.786 104.344C845.488 104.055 845.049 103.91 844.47 103.91C844.153 103.91 843.826 103.957 843.49 104.05C843.164 104.143 842.8 104.293 842.398 104.498L842.02 103.714C842.935 103.275 843.794 103.056 844.596 103.056C845.446 103.056 846.099 103.266 846.556 103.686C847.014 104.097 847.242 104.689 847.242 105.464V110H846.234V109.202C845.936 109.51 845.604 109.743 845.24 109.902C844.876 110.051 844.484 110.126 844.064 110.126ZM842.566 108.012C842.566 108.413 842.72 108.735 843.028 108.978C843.346 109.221 843.761 109.342 844.274 109.342C844.657 109.342 845.007 109.277 845.324 109.146C845.651 109.015 845.954 108.819 846.234 108.558V107.242C845.945 107.074 845.646 106.953 845.338 106.878C845.03 106.794 844.685 106.752 844.302 106.752C843.78 106.752 843.36 106.869 843.042 107.102C842.725 107.326 842.566 107.629 842.566 108.012ZM851.434 110.14C850.874 110.14 850.356 110.056 849.88 109.888C849.404 109.711 848.998 109.459 848.662 109.132L849.208 108.46C849.618 108.759 849.996 108.978 850.342 109.118C850.687 109.249 851.042 109.314 851.406 109.314C851.9 109.314 852.311 109.197 852.638 108.964C852.964 108.731 853.128 108.432 853.128 108.068C853.128 107.788 853.03 107.569 852.834 107.41C852.647 107.251 852.334 107.13 851.896 107.046L850.776 106.85C850.113 106.729 849.623 106.523 849.306 106.234C848.998 105.945 848.844 105.553 848.844 105.058C848.844 104.666 848.946 104.321 849.152 104.022C849.366 103.723 849.66 103.49 850.034 103.322C850.407 103.145 850.832 103.056 851.308 103.056C851.774 103.056 852.218 103.126 852.638 103.266C853.058 103.397 853.482 103.611 853.912 103.91L853.408 104.624C853.053 104.372 852.698 104.19 852.344 104.078C851.989 103.957 851.63 103.896 851.266 103.896C850.818 103.896 850.458 103.994 850.188 104.19C849.917 104.386 849.782 104.652 849.782 104.988C849.782 105.268 849.866 105.483 850.034 105.632C850.211 105.781 850.519 105.893 850.958 105.968L852.106 106.178C852.796 106.299 853.3 106.509 853.618 106.808C853.935 107.107 854.094 107.508 854.094 108.012C854.094 108.413 853.977 108.777 853.744 109.104C853.51 109.421 853.193 109.673 852.792 109.86C852.39 110.047 851.938 110.14 851.434 110.14ZM858.917 110V99.99L859.939 99.78V104.106C860.201 103.779 860.518 103.527 860.891 103.35C861.265 103.173 861.68 103.084 862.137 103.084C862.735 103.084 863.267 103.243 863.733 103.56C864.209 103.868 864.587 104.288 864.867 104.82C865.147 105.343 865.287 105.931 865.287 106.584C865.287 107.237 865.143 107.83 864.853 108.362C864.573 108.894 864.191 109.319 863.705 109.636C863.229 109.944 862.688 110.098 862.081 110.098C861.652 110.098 861.251 110.014 860.877 109.846C860.513 109.669 860.196 109.421 859.925 109.104V110H858.917ZM861.885 109.216C862.343 109.216 862.749 109.104 863.103 108.88C863.467 108.647 863.752 108.334 863.957 107.942C864.172 107.541 864.279 107.093 864.279 106.598C864.279 106.094 864.172 105.646 863.957 105.254C863.752 104.862 863.467 104.554 863.103 104.33C862.749 104.097 862.343 103.98 861.885 103.98C861.484 103.98 861.111 104.064 860.765 104.232C860.429 104.391 860.154 104.619 859.939 104.918V108.264C860.163 108.563 860.443 108.796 860.779 108.964C861.125 109.132 861.493 109.216 861.885 109.216ZM870.159 110.14C869.525 110.14 868.951 109.986 868.437 109.678C867.924 109.361 867.518 108.936 867.219 108.404C866.921 107.863 866.771 107.256 866.771 106.584C866.771 105.912 866.911 105.31 867.191 104.778C867.481 104.246 867.868 103.826 868.353 103.518C868.839 103.21 869.38 103.056 869.977 103.056C870.584 103.056 871.121 103.21 871.587 103.518C872.063 103.817 872.437 104.227 872.707 104.75C872.987 105.263 873.127 105.847 873.127 106.5V106.808H867.765C867.803 107.275 867.929 107.695 868.143 108.068C868.367 108.432 868.657 108.721 869.011 108.936C869.375 109.141 869.772 109.244 870.201 109.244C870.556 109.244 870.897 109.183 871.223 109.062C871.559 108.931 871.844 108.759 872.077 108.544L872.721 109.23C872.329 109.538 871.923 109.767 871.503 109.916C871.083 110.065 870.635 110.14 870.159 110.14ZM867.793 106.08H872.119C872.073 105.669 871.947 105.305 871.741 104.988C871.545 104.661 871.293 104.405 870.985 104.218C870.687 104.031 870.351 103.938 869.977 103.938C869.604 103.938 869.263 104.031 868.955 104.218C868.647 104.395 868.391 104.647 868.185 104.974C867.989 105.291 867.859 105.66 867.793 106.08ZM877.952 110.14C877.318 110.14 876.744 109.986 876.23 109.678C875.717 109.361 875.311 108.936 875.012 108.404C874.714 107.863 874.564 107.256 874.564 106.584C874.564 105.912 874.704 105.31 874.984 104.778C875.274 104.246 875.661 103.826 876.146 103.518C876.632 103.21 877.173 103.056 877.77 103.056C878.377 103.056 878.914 103.21 879.38 103.518C879.856 103.817 880.23 104.227 880.5 104.75C880.78 105.263 880.92 105.847 880.92 106.5V106.808H875.558C875.596 107.275 875.722 107.695 875.936 108.068C876.16 108.432 876.45 108.721 876.804 108.936C877.168 109.141 877.565 109.244 877.994 109.244C878.349 109.244 878.69 109.183 879.016 109.062C879.352 108.931 879.637 108.759 879.87 108.544L880.514 109.23C880.122 109.538 879.716 109.767 879.296 109.916C878.876 110.065 878.428 110.14 877.952 110.14ZM875.586 106.08H879.912C879.866 105.669 879.74 105.305 879.534 104.988C879.338 104.661 879.086 104.405 878.778 104.218C878.48 104.031 878.144 103.938 877.77 103.938C877.397 103.938 877.056 104.031 876.748 104.218C876.44 104.395 876.184 104.647 875.978 104.974C875.782 105.291 875.652 105.66 875.586 106.08ZM882.665 110V103.168H883.687V104.274C883.949 103.863 884.261 103.56 884.625 103.364C884.989 103.159 885.4 103.056 885.857 103.056C886.352 103.056 886.781 103.163 887.145 103.378C887.519 103.583 887.808 103.877 888.013 104.26C888.228 104.633 888.335 105.072 888.335 105.576V110H887.313V105.87C887.313 105.263 887.145 104.787 886.809 104.442C886.483 104.087 886.039 103.91 885.479 103.91C885.106 103.91 884.765 103.999 884.457 104.176C884.149 104.353 883.893 104.615 883.687 104.96V110H882.665ZM896.723 110.112C896.089 110.112 895.515 109.958 895.001 109.65C894.497 109.333 894.096 108.908 893.797 108.376C893.499 107.835 893.349 107.237 893.349 106.584C893.349 105.921 893.499 105.324 893.797 104.792C894.096 104.26 894.497 103.84 895.001 103.532C895.515 103.215 896.089 103.056 896.723 103.056C897.227 103.056 897.708 103.149 898.165 103.336C898.623 103.523 899.019 103.784 899.355 104.12L898.697 104.834C898.455 104.563 898.161 104.353 897.815 104.204C897.47 104.055 897.12 103.98 896.765 103.98C896.317 103.98 895.911 104.097 895.547 104.33C895.193 104.563 894.908 104.876 894.693 105.268C894.479 105.66 894.371 106.099 894.371 106.584C894.371 107.069 894.479 107.508 894.693 107.9C894.908 108.292 895.193 108.605 895.547 108.838C895.911 109.071 896.317 109.188 896.765 109.188C897.12 109.188 897.47 109.113 897.815 108.964C898.161 108.805 898.455 108.595 898.697 108.334L899.355 109.048C899.019 109.384 898.623 109.645 898.165 109.832C897.708 110.019 897.227 110.112 896.723 110.112ZM900.78 110V103.168H901.802V104.568C901.98 104.092 902.232 103.723 902.558 103.462C902.894 103.191 903.277 103.056 903.706 103.056C903.828 103.056 903.94 103.065 904.042 103.084C904.145 103.093 904.248 103.117 904.35 103.154V104.078C904.238 104.041 904.117 104.013 903.986 103.994C903.865 103.966 903.748 103.952 903.636 103.952C903.216 103.952 902.848 104.073 902.53 104.316C902.222 104.559 901.98 104.899 901.802 105.338V110H900.78ZM908.359 110.14C907.724 110.14 907.15 109.986 906.637 109.678C906.123 109.361 905.717 108.936 905.419 108.404C905.12 107.863 904.971 107.256 904.971 106.584C904.971 105.912 905.111 105.31 905.391 104.778C905.68 104.246 906.067 103.826 906.553 103.518C907.038 103.21 907.579 103.056 908.177 103.056C908.783 103.056 909.32 103.21 909.787 103.518C910.263 103.817 910.636 104.227 910.907 104.75C911.187 105.263 911.327 105.847 911.327 106.5V106.808H905.965C906.002 107.275 906.128 107.695 906.343 108.068C906.567 108.432 906.856 108.721 907.211 108.936C907.575 109.141 907.971 109.244 908.401 109.244C908.755 109.244 909.096 109.183 909.423 109.062C909.759 108.931 910.043 108.759 910.277 108.544L910.921 109.23C910.529 109.538 910.123 109.767 909.703 109.916C909.283 110.065 908.835 110.14 908.359 110.14ZM905.993 106.08H910.319C910.272 105.669 910.146 105.305 909.941 104.988C909.745 104.661 909.493 104.405 909.185 104.218C908.886 104.031 908.55 103.938 908.177 103.938C907.803 103.938 907.463 104.031 907.155 104.218C906.847 104.395 906.59 104.647 906.385 104.974C906.189 105.291 906.058 105.66 905.993 106.08ZM915.049 110.126C914.563 110.126 914.134 110.037 913.761 109.86C913.387 109.683 913.093 109.44 912.879 109.132C912.673 108.815 912.571 108.451 912.571 108.04C912.571 107.629 912.678 107.275 912.893 106.976C913.107 106.668 913.406 106.43 913.789 106.262C914.171 106.094 914.619 106.01 915.133 106.01C915.525 106.01 915.893 106.052 916.239 106.136C916.593 106.22 916.92 106.355 917.219 106.542V105.604C917.219 105.044 917.069 104.624 916.771 104.344C916.472 104.055 916.033 103.91 915.455 103.91C915.137 103.91 914.811 103.957 914.475 104.05C914.148 104.143 913.784 104.293 913.383 104.498L913.005 103.714C913.919 103.275 914.778 103.056 915.581 103.056C916.43 103.056 917.083 103.266 917.541 103.686C917.998 104.097 918.227 104.689 918.227 105.464V110H917.219V109.202C916.92 109.51 916.589 109.743 916.225 109.902C915.861 110.051 915.469 110.126 915.049 110.126ZM913.551 108.012C913.551 108.413 913.705 108.735 914.013 108.978C914.33 109.221 914.745 109.342 915.259 109.342C915.641 109.342 915.991 109.277 916.309 109.146C916.635 109.015 916.939 108.819 917.219 108.558V107.242C916.929 107.074 916.631 106.953 916.323 106.878C916.015 106.794 915.669 106.752 915.287 106.752C914.764 106.752 914.344 106.869 914.027 107.102C913.709 107.326 913.551 107.629 913.551 108.012ZM922.703 110.14C922.115 110.14 921.667 110 921.359 109.72C921.06 109.431 920.911 109.015 920.911 108.474V104.008H919.497V103.168H920.911V101.292L921.933 101.054V103.168H923.893V104.008H921.933V108.208C921.933 108.572 922.007 108.833 922.157 108.992C922.315 109.151 922.572 109.23 922.927 109.23C923.104 109.23 923.263 109.216 923.403 109.188C923.543 109.16 923.706 109.113 923.893 109.048V109.958C923.706 110.023 923.51 110.07 923.305 110.098C923.099 110.126 922.899 110.14 922.703 110.14ZM928.333 110.14C927.698 110.14 927.124 109.986 926.611 109.678C926.098 109.361 925.692 108.936 925.393 108.404C925.094 107.863 924.945 107.256 924.945 106.584C924.945 105.912 925.085 105.31 925.365 104.778C925.654 104.246 926.042 103.826 926.527 103.518C927.012 103.21 927.554 103.056 928.151 103.056C928.758 103.056 929.294 103.21 929.761 103.518C930.237 103.817 930.61 104.227 930.881 104.75C931.161 105.263 931.301 105.847 931.301 106.5V106.808H925.939C925.976 107.275 926.102 107.695 926.317 108.068C926.541 108.432 926.83 108.721 927.185 108.936C927.549 109.141 927.946 109.244 928.375 109.244C928.73 109.244 929.07 109.183 929.397 109.062C929.733 108.931 930.018 108.759 930.251 108.544L930.895 109.23C930.503 109.538 930.097 109.767 929.677 109.916C929.257 110.065 928.809 110.14 928.333 110.14ZM925.967 106.08H930.293C930.246 105.669 930.12 105.305 929.915 104.988C929.719 104.661 929.467 104.405 929.159 104.218C928.86 104.031 928.524 103.938 928.151 103.938C927.778 103.938 927.437 104.031 927.129 104.218C926.821 104.395 926.564 104.647 926.359 104.974C926.163 105.291 926.032 105.66 925.967 106.08ZM935.888 110.098C935.3 110.098 934.768 109.944 934.292 109.636C933.816 109.319 933.438 108.899 933.158 108.376C932.878 107.844 932.738 107.251 932.738 106.598C932.738 105.935 932.878 105.343 933.158 104.82C933.447 104.288 933.835 103.868 934.32 103.56C934.805 103.243 935.347 103.084 935.944 103.084C936.364 103.084 936.756 103.168 937.12 103.336C937.484 103.495 937.801 103.728 938.072 104.036V99.892L939.094 99.682V110H938.072V109.09C937.811 109.417 937.493 109.669 937.12 109.846C936.747 110.014 936.336 110.098 935.888 110.098ZM936.14 109.202C936.541 109.202 936.91 109.123 937.246 108.964C937.582 108.805 937.857 108.581 938.072 108.292V104.904C937.848 104.615 937.563 104.391 937.218 104.232C936.882 104.064 936.523 103.98 936.14 103.98C935.683 103.98 935.272 104.092 934.908 104.316C934.553 104.54 934.269 104.848 934.054 105.24C933.849 105.632 933.746 106.08 933.746 106.584C933.746 107.079 933.849 107.527 934.054 107.928C934.269 108.32 934.553 108.633 934.908 108.866C935.272 109.09 935.683 109.202 936.14 109.202ZM946.576 110.14C946.016 110.14 945.498 110.056 945.022 109.888C944.546 109.711 944.14 109.459 943.804 109.132L944.35 108.46C944.761 108.759 945.139 108.978 945.484 109.118C945.829 109.249 946.184 109.314 946.548 109.314C947.043 109.314 947.453 109.197 947.78 108.964C948.107 108.731 948.27 108.432 948.27 108.068C948.27 107.788 948.172 107.569 947.976 107.41C947.789 107.251 947.477 107.13 947.038 107.046L945.918 106.85C945.255 106.729 944.765 106.523 944.448 106.234C944.14 105.945 943.986 105.553 943.986 105.058C943.986 104.666 944.089 104.321 944.294 104.022C944.509 103.723 944.803 103.49 945.176 103.322C945.549 103.145 945.974 103.056 946.45 103.056C946.917 103.056 947.36 103.126 947.78 103.266C948.2 103.397 948.625 103.611 949.054 103.91L948.55 104.624C948.195 104.372 947.841 104.19 947.486 104.078C947.131 103.957 946.772 103.896 946.408 103.896C945.96 103.896 945.601 103.994 945.33 104.19C945.059 104.386 944.924 104.652 944.924 104.988C944.924 105.268 945.008 105.483 945.176 105.632C945.353 105.781 945.661 105.893 946.1 105.968L947.248 106.178C947.939 106.299 948.443 106.509 948.76 106.808C949.077 107.107 949.236 107.508 949.236 108.012C949.236 108.413 949.119 108.777 948.886 109.104C948.653 109.421 948.335 109.673 947.934 109.86C947.533 110.047 947.08 110.14 946.576 110.14ZM953.228 110.112C952.743 110.112 952.314 110.005 951.94 109.79C951.567 109.575 951.273 109.277 951.058 108.894C950.853 108.511 950.75 108.073 950.75 107.578V103.168H951.786V107.284C951.786 107.891 951.95 108.371 952.276 108.726C952.603 109.081 953.046 109.258 953.606 109.258C953.989 109.258 954.33 109.169 954.628 108.992C954.936 108.815 955.193 108.558 955.398 108.222V103.168H956.42V110H955.398V108.894C955.137 109.295 954.824 109.599 954.46 109.804C954.106 110.009 953.695 110.112 953.228 110.112ZM961.583 110.112C960.948 110.112 960.374 109.958 959.861 109.65C959.357 109.333 958.955 108.908 958.657 108.376C958.358 107.835 958.209 107.237 958.209 106.584C958.209 105.921 958.358 105.324 958.657 104.792C958.955 104.26 959.357 103.84 959.861 103.532C960.374 103.215 960.948 103.056 961.583 103.056C962.087 103.056 962.567 103.149 963.025 103.336C963.482 103.523 963.879 103.784 964.215 104.12L963.557 104.834C963.314 104.563 963.02 104.353 962.675 104.204C962.329 104.055 961.979 103.98 961.625 103.98C961.177 103.98 960.771 104.097 960.407 104.33C960.052 104.563 959.767 104.876 959.553 105.268C959.338 105.66 959.231 106.099 959.231 106.584C959.231 107.069 959.338 107.508 959.553 107.9C959.767 108.292 960.052 108.605 960.407 108.838C960.771 109.071 961.177 109.188 961.625 109.188C961.979 109.188 962.329 109.113 962.675 108.964C963.02 108.805 963.314 108.595 963.557 108.334L964.215 109.048C963.879 109.384 963.482 109.645 963.025 109.832C962.567 110.019 962.087 110.112 961.583 110.112ZM968.501 110.112C967.866 110.112 967.292 109.958 966.779 109.65C966.275 109.333 965.873 108.908 965.575 108.376C965.276 107.835 965.127 107.237 965.127 106.584C965.127 105.921 965.276 105.324 965.575 104.792C965.873 104.26 966.275 103.84 966.779 103.532C967.292 103.215 967.866 103.056 968.501 103.056C969.005 103.056 969.485 103.149 969.943 103.336C970.4 103.523 970.797 103.784 971.133 104.12L970.475 104.834C970.232 104.563 969.938 104.353 969.593 104.204C969.247 104.055 968.897 103.98 968.543 103.98C968.095 103.98 967.689 104.097 967.325 104.33C966.97 104.563 966.685 104.876 966.471 105.268C966.256 105.66 966.149 106.099 966.149 106.584C966.149 107.069 966.256 107.508 966.471 107.9C966.685 108.292 966.97 108.605 967.325 108.838C967.689 109.071 968.095 109.188 968.543 109.188C968.897 109.188 969.247 109.113 969.593 108.964C969.938 108.805 970.232 108.595 970.475 108.334L971.133 109.048C970.797 109.384 970.4 109.645 969.943 109.832C969.485 110.019 969.005 110.112 968.501 110.112ZM975.433 110.14C974.798 110.14 974.224 109.986 973.711 109.678C973.197 109.361 972.791 108.936 972.493 108.404C972.194 107.863 972.045 107.256 972.045 106.584C972.045 105.912 972.185 105.31 972.465 104.778C972.754 104.246 973.141 103.826 973.627 103.518C974.112 103.21 974.653 103.056 975.251 103.056C975.857 103.056 976.394 103.21 976.861 103.518C977.337 103.817 977.71 104.227 977.981 104.75C978.261 105.263 978.401 105.847 978.401 106.5V106.808H973.039C973.076 107.275 973.202 107.695 973.417 108.068C973.641 108.432 973.93 108.721 974.285 108.936C974.649 109.141 975.045 109.244 975.475 109.244C975.829 109.244 976.17 109.183 976.497 109.062C976.833 108.931 977.117 108.759 977.351 108.544L977.995 109.23C977.603 109.538 977.197 109.767 976.777 109.916C976.357 110.065 975.909 110.14 975.433 110.14ZM973.067 106.08H977.393C977.346 105.669 977.22 105.305 977.015 104.988C976.819 104.661 976.567 104.405 976.259 104.218C975.96 104.031 975.624 103.938 975.251 103.938C974.877 103.938 974.537 104.031 974.229 104.218C973.921 104.395 973.664 104.647 973.459 104.974C973.263 105.291 973.132 105.66 973.067 106.08ZM982.328 110.14C981.768 110.14 981.25 110.056 980.774 109.888C980.298 109.711 979.892 109.459 979.556 109.132L980.102 108.46C980.513 108.759 980.891 108.978 981.236 109.118C981.581 109.249 981.936 109.314 982.3 109.314C982.795 109.314 983.205 109.197 983.532 108.964C983.859 108.731 984.022 108.432 984.022 108.068C984.022 107.788 983.924 107.569 983.728 107.41C983.541 107.251 983.229 107.13 982.79 107.046L981.67 106.85C981.007 106.729 980.517 106.523 980.2 106.234C979.892 105.945 979.738 105.553 979.738 105.058C979.738 104.666 979.841 104.321 980.046 104.022C980.261 103.723 980.555 103.49 980.928 103.322C981.301 103.145 981.726 103.056 982.202 103.056C982.669 103.056 983.112 103.126 983.532 103.266C983.952 103.397 984.377 103.611 984.806 103.91L984.302 104.624C983.947 104.372 983.593 104.19 983.238 104.078C982.883 103.957 982.524 103.896 982.16 103.896C981.712 103.896 981.353 103.994 981.082 104.19C980.811 104.386 980.676 104.652 980.676 104.988C980.676 105.268 980.76 105.483 980.928 105.632C981.105 105.781 981.413 105.893 981.852 105.968L983 106.178C983.691 106.299 984.195 106.509 984.512 106.808C984.829 107.107 984.988 107.508 984.988 108.012C984.988 108.413 984.871 108.777 984.638 109.104C984.405 109.421 984.087 109.673 983.686 109.86C983.285 110.047 982.832 110.14 982.328 110.14ZM988.658 110.14C988.098 110.14 987.58 110.056 987.104 109.888C986.628 109.711 986.222 109.459 985.886 109.132L986.432 108.46C986.843 108.759 987.221 108.978 987.566 109.118C987.911 109.249 988.266 109.314 988.63 109.314C989.125 109.314 989.535 109.197 989.862 108.964C990.189 108.731 990.352 108.432 990.352 108.068C990.352 107.788 990.254 107.569 990.058 107.41C989.871 107.251 989.559 107.13 989.12 107.046L988 106.85C987.337 106.729 986.847 106.523 986.53 106.234C986.222 105.945 986.068 105.553 986.068 105.058C986.068 104.666 986.171 104.321 986.376 104.022C986.591 103.723 986.885 103.49 987.258 103.322C987.631 103.145 988.056 103.056 988.532 103.056C988.999 103.056 989.442 103.126 989.862 103.266C990.282 103.397 990.707 103.611 991.136 103.91L990.632 104.624C990.277 104.372 989.923 104.19 989.568 104.078C989.213 103.957 988.854 103.896 988.49 103.896C988.042 103.896 987.683 103.994 987.412 104.19C987.141 104.386 987.006 104.652 987.006 104.988C987.006 105.268 987.09 105.483 987.258 105.632C987.435 105.781 987.743 105.893 988.182 105.968L989.33 106.178C990.021 106.299 990.525 106.509 990.842 106.808C991.159 107.107 991.318 107.508 991.318 108.012C991.318 108.413 991.201 108.777 990.968 109.104C990.735 109.421 990.417 109.673 990.016 109.86C989.615 110.047 989.162 110.14 988.658 110.14ZM993.606 110V104.008H992.08V103.168H993.606V101.74C993.606 101.068 993.783 100.55 994.138 100.186C994.492 99.822 994.996 99.64 995.65 99.64C995.836 99.64 996.004 99.6493 996.154 99.668C996.312 99.6867 996.452 99.7193 996.574 99.766V100.69C996.424 100.643 996.289 100.611 996.168 100.592C996.046 100.573 995.906 100.564 995.748 100.564C995.356 100.564 995.071 100.662 994.894 100.858C994.716 101.045 994.628 101.343 994.628 101.754V103.168H996.574V104.008H994.628V110H993.606ZM1000.36 110.112C999.87 110.112 999.44 110.005 999.067 109.79C998.694 109.575 998.4 109.277 998.185 108.894C997.98 108.511 997.877 108.073 997.877 107.578V103.168H998.913V107.284C998.913 107.891 999.076 108.371 999.403 108.726C999.73 109.081 1000.17 109.258 1000.73 109.258C1001.12 109.258 1001.46 109.169 1001.76 108.992C1002.06 108.815 1002.32 108.558 1002.53 108.222V103.168H1003.55V110H1002.53V108.894C1002.26 109.295 1001.95 109.599 1001.59 109.804C1001.23 110.009 1000.82 110.112 1000.36 110.112ZM1005.64 110V99.892L1006.67 99.682V110H1005.64ZM1008.76 110V99.892L1009.78 99.682V110H1008.76ZM1012.17 113.066C1011.96 113.066 1011.74 113.033 1011.51 112.968V112.058C1011.61 112.077 1011.71 112.091 1011.81 112.1C1011.91 112.109 1012 112.114 1012.07 112.114C1012.34 112.114 1012.55 112.044 1012.72 111.904C1012.9 111.764 1013.04 111.545 1013.17 111.246L1013.67 110L1011.04 103.168H1012.17L1014.24 108.782L1016.44 103.168H1017.58L1014.13 111.554C1013.98 111.918 1013.82 112.212 1013.64 112.436C1013.46 112.66 1013.26 112.819 1013.03 112.912C1012.79 113.015 1012.51 113.066 1012.17 113.066ZM1018.63 110.112C1018.43 110.112 1018.25 110.037 1018.1 109.888C1017.96 109.739 1017.89 109.561 1017.89 109.356C1017.89 109.141 1017.96 108.964 1018.1 108.824C1018.25 108.675 1018.43 108.6 1018.63 108.6C1018.84 108.6 1019.01 108.675 1019.15 108.824C1019.3 108.964 1019.38 109.141 1019.38 109.356C1019.38 109.561 1019.3 109.739 1019.15 109.888C1019.01 110.037 1018.84 110.112 1018.63 110.112Z" fill="#151515"/>
<rect x="720.5" y="132.5" width="97" height="35" rx="2.5" stroke="#0066CC"/>
<path d="M742.592 156.176C741.792 156.176 741.045 156.032 740.352 155.744C739.669 155.445 739.067 155.035 738.544 154.512C738.021 153.979 737.616 153.365 737.328 152.672C737.04 151.968 736.896 151.211 736.896 150.4C736.896 149.589 737.04 148.837 737.328 148.144C737.616 147.44 738.021 146.827 738.544 146.304C739.067 145.771 739.669 145.36 740.352 145.072C741.045 144.773 741.792 144.624 742.592 144.624C743.147 144.624 743.675 144.699 744.176 144.848C744.688 144.987 745.168 145.195 745.616 145.472C746.064 145.739 746.464 146.069 746.816 146.464L746 147.312C745.584 146.811 745.072 146.427 744.464 146.16C743.867 145.883 743.243 145.744 742.592 145.744C741.963 145.744 741.376 145.861 740.832 146.096C740.288 146.331 739.813 146.661 739.408 147.088C739.013 147.515 738.704 148.011 738.48 148.576C738.256 149.131 738.144 149.739 738.144 150.4C738.144 151.051 738.256 151.659 738.48 152.224C738.704 152.789 739.013 153.285 739.408 153.712C739.813 154.139 740.288 154.469 740.832 154.704C741.376 154.939 741.963 155.056 742.592 155.056C743.243 155.056 743.867 154.917 744.464 154.64C745.072 154.363 745.584 153.979 746 153.488L746.816 154.336C746.464 154.731 746.064 155.067 745.616 155.344C745.168 155.611 744.688 155.819 744.176 155.968C743.675 156.107 743.147 156.176 742.592 156.176ZM752.031 156.128C751.306 156.128 750.655 155.952 750.079 155.6C749.503 155.248 749.05 154.768 748.719 154.16C748.388 153.552 748.223 152.864 748.223 152.096C748.223 151.328 748.388 150.64 748.719 150.032C749.05 149.424 749.503 148.944 750.079 148.592C750.655 148.24 751.306 148.064 752.031 148.064C752.746 148.064 753.386 148.24 753.951 148.592C754.527 148.944 754.98 149.424 755.311 150.032C755.642 150.64 755.807 151.328 755.807 152.096C755.807 152.864 755.642 153.552 755.311 154.16C754.98 154.768 754.527 155.248 753.951 155.6C753.386 155.952 752.746 156.128 752.031 156.128ZM752.015 155.104C752.527 155.104 752.98 154.976 753.375 154.72C753.77 154.453 754.079 154.091 754.303 153.632C754.538 153.173 754.655 152.661 754.655 152.096C754.655 151.52 754.538 151.008 754.303 150.56C754.079 150.101 753.77 149.744 753.375 149.488C752.98 149.221 752.527 149.088 752.015 149.088C751.503 149.088 751.05 149.221 750.655 149.488C750.26 149.744 749.946 150.101 749.711 150.56C749.487 151.008 749.375 151.52 749.375 152.096C749.375 152.661 749.487 153.173 749.711 153.632C749.946 154.091 750.26 154.453 750.655 154.72C751.05 154.976 751.503 155.104 752.015 155.104ZM757.856 156V148.192H759.024V149.456C759.323 148.987 759.68 148.64 760.096 148.416C760.512 148.181 760.982 148.064 761.504 148.064C762.07 148.064 762.56 148.187 762.976 148.432C763.403 148.667 763.734 149.003 763.968 149.44C764.214 149.867 764.336 150.368 764.336 150.944V156H763.168V151.28C763.168 150.587 762.976 150.043 762.592 149.648C762.219 149.243 761.712 149.04 761.072 149.04C760.646 149.04 760.256 149.141 759.904 149.344C759.552 149.547 759.259 149.845 759.024 150.24V156H757.856ZM769.426 156.16C768.754 156.16 768.242 156 767.89 155.68C767.549 155.349 767.378 154.875 767.378 154.256V149.152H765.762V148.192H767.378V146.048L768.546 145.776V148.192H770.786V149.152H768.546V153.952C768.546 154.368 768.631 154.667 768.802 154.848C768.983 155.029 769.277 155.12 769.682 155.12C769.885 155.12 770.066 155.104 770.226 155.072C770.386 155.04 770.573 154.987 770.786 154.912V155.952C770.573 156.027 770.349 156.08 770.114 156.112C769.879 156.144 769.65 156.16 769.426 156.16ZM772.481 156V148.192H773.649V156H772.481ZM773.073 146.256C772.838 146.256 772.636 146.176 772.465 146.016C772.305 145.845 772.225 145.648 772.225 145.424C772.225 145.2 772.305 145.008 772.465 144.848C772.636 144.677 772.838 144.592 773.073 144.592C773.308 144.592 773.505 144.677 773.665 144.848C773.836 145.008 773.921 145.2 773.921 145.424C773.921 145.648 773.836 145.845 773.665 146.016C773.505 146.176 773.308 146.256 773.073 146.256ZM776.044 156V148.192H777.212V149.456C777.51 148.987 777.868 148.64 778.284 148.416C778.7 148.181 779.169 148.064 779.692 148.064C780.257 148.064 780.748 148.187 781.164 148.432C781.59 148.667 781.921 149.003 782.156 149.44C782.401 149.867 782.524 150.368 782.524 150.944V156H781.356V151.28C781.356 150.587 781.164 150.043 780.78 149.648C780.406 149.243 779.9 149.04 779.26 149.04C778.833 149.04 778.444 149.141 778.092 149.344C777.74 149.547 777.446 149.845 777.212 150.24V156H776.044ZM787.578 156.128C787.023 156.128 786.532 156.005 786.106 155.76C785.679 155.515 785.343 155.173 785.098 154.736C784.863 154.299 784.746 153.797 784.746 153.232V148.192H785.93V152.896C785.93 153.589 786.116 154.139 786.49 154.544C786.863 154.949 787.37 155.152 788.01 155.152C788.447 155.152 788.836 155.051 789.178 154.848C789.53 154.645 789.823 154.352 790.058 153.968V148.192H791.226V156H790.058V154.736C789.759 155.195 789.402 155.541 788.986 155.776C788.58 156.011 788.111 156.128 787.578 156.128ZM797.142 156.16C796.417 156.16 795.761 155.984 795.174 155.632C794.587 155.269 794.123 154.784 793.782 154.176C793.441 153.557 793.27 152.864 793.27 152.096C793.27 151.328 793.43 150.64 793.75 150.032C794.081 149.424 794.523 148.944 795.078 148.592C795.633 148.24 796.251 148.064 796.934 148.064C797.627 148.064 798.241 148.24 798.774 148.592C799.318 148.933 799.745 149.403 800.054 150C800.374 150.587 800.534 151.253 800.534 152V152.352H794.406C794.449 152.885 794.593 153.365 794.838 153.792C795.094 154.208 795.425 154.539 795.83 154.784C796.246 155.019 796.699 155.136 797.19 155.136C797.595 155.136 797.985 155.067 798.358 154.928C798.742 154.779 799.067 154.581 799.334 154.336L800.07 155.12C799.622 155.472 799.158 155.733 798.678 155.904C798.198 156.075 797.686 156.16 797.142 156.16ZM794.438 151.52H799.382C799.329 151.051 799.185 150.635 798.95 150.272C798.726 149.899 798.438 149.605 798.086 149.392C797.745 149.179 797.361 149.072 796.934 149.072C796.507 149.072 796.118 149.179 795.766 149.392C795.414 149.595 795.121 149.883 794.886 150.256C794.662 150.619 794.513 151.04 794.438 151.52Z" fill="#0066CC"/>
<path d="M848.56 156.176C847.76 156.176 847.019 156.027 846.336 155.728C845.653 155.429 845.051 155.019 844.528 154.496C844.016 153.963 843.616 153.349 843.328 152.656C843.04 151.952 842.896 151.2 842.896 150.4C842.896 149.6 843.04 148.853 843.328 148.16C843.616 147.456 844.016 146.843 844.528 146.32C845.051 145.787 845.653 145.371 846.336 145.072C847.019 144.773 847.76 144.624 848.56 144.624C849.413 144.624 850.219 144.779 850.976 145.088C851.744 145.397 852.395 145.856 852.928 146.464L852.096 147.296C851.68 146.795 851.157 146.411 850.528 146.144C849.899 145.877 849.243 145.744 848.56 145.744C847.931 145.744 847.349 145.867 846.816 146.112C846.283 146.347 845.813 146.677 845.408 147.104C845.013 147.52 844.704 148.011 844.48 148.576C844.256 149.141 844.144 149.749 844.144 150.4C844.144 151.051 844.256 151.659 844.48 152.224C844.704 152.789 845.013 153.285 845.408 153.712C845.813 154.128 846.283 154.459 846.816 154.704C847.349 154.939 847.931 155.056 848.56 155.056C849.307 155.056 849.973 154.891 850.56 154.56C851.157 154.229 851.637 153.776 852 153.2C852.373 152.613 852.592 151.957 852.656 151.232H848.88V150.144H853.904V150.64C853.904 151.419 853.771 152.144 853.504 152.816C853.237 153.477 852.859 154.064 852.368 154.576C851.888 155.077 851.323 155.472 850.672 155.76C850.021 156.037 849.317 156.176 848.56 156.176ZM859.437 156.128C858.712 156.128 858.061 155.952 857.485 155.6C856.909 155.248 856.456 154.768 856.125 154.16C855.795 153.552 855.629 152.864 855.629 152.096C855.629 151.328 855.795 150.64 856.125 150.032C856.456 149.424 856.909 148.944 857.485 148.592C858.061 148.24 858.712 148.064 859.437 148.064C860.152 148.064 860.792 148.24 861.357 148.592C861.933 148.944 862.387 149.424 862.717 150.032C863.048 150.64 863.213 151.328 863.213 152.096C863.213 152.864 863.048 153.552 862.717 154.16C862.387 154.768 861.933 155.248 861.357 155.6C860.792 155.952 860.152 156.128 859.437 156.128ZM859.421 155.104C859.933 155.104 860.387 154.976 860.781 154.72C861.176 154.453 861.485 154.091 861.709 153.632C861.944 153.173 862.061 152.661 862.061 152.096C862.061 151.52 861.944 151.008 861.709 150.56C861.485 150.101 861.176 149.744 860.781 149.488C860.387 149.221 859.933 149.088 859.421 149.088C858.909 149.088 858.456 149.221 858.061 149.488C857.667 149.744 857.352 150.101 857.117 150.56C856.893 151.008 856.781 151.52 856.781 152.096C856.781 152.661 856.893 153.173 857.117 153.632C857.352 154.091 857.667 154.453 858.061 154.72C858.456 154.976 858.909 155.104 859.421 155.104ZM871.973 156.16C871.301 156.16 870.789 156 870.437 155.68C870.096 155.349 869.925 154.875 869.925 154.256V149.152H868.309V148.192H869.925V146.048L871.093 145.776V148.192H873.333V149.152H871.093V153.952C871.093 154.368 871.178 154.667 871.349 154.848C871.53 155.029 871.824 155.12 872.229 155.12C872.432 155.12 872.613 155.104 872.773 155.072C872.933 155.04 873.12 154.987 873.333 154.912V155.952C873.12 156.027 872.896 156.08 872.661 156.112C872.426 156.144 872.197 156.16 871.973 156.16ZM878.344 156.128C877.618 156.128 876.968 155.952 876.392 155.6C875.816 155.248 875.362 154.768 875.032 154.16C874.701 153.552 874.536 152.864 874.536 152.096C874.536 151.328 874.701 150.64 875.032 150.032C875.362 149.424 875.816 148.944 876.392 148.592C876.968 148.24 877.618 148.064 878.344 148.064C879.058 148.064 879.698 148.24 880.264 148.592C880.84 148.944 881.293 149.424 881.624 150.032C881.954 150.64 882.12 151.328 882.12 152.096C882.12 152.864 881.954 153.552 881.624 154.16C881.293 154.768 880.84 155.248 880.264 155.6C879.698 155.952 879.058 156.128 878.344 156.128ZM878.328 155.104C878.84 155.104 879.293 154.976 879.688 154.72C880.082 154.453 880.392 154.091 880.616 153.632C880.85 153.173 880.968 152.661 880.968 152.096C880.968 151.52 880.85 151.008 880.616 150.56C880.392 150.101 880.082 149.744 879.688 149.488C879.293 149.221 878.84 149.088 878.328 149.088C877.816 149.088 877.362 149.221 876.968 149.488C876.573 149.744 876.258 150.101 876.024 150.56C875.8 151.008 875.688 151.52 875.688 152.096C875.688 152.661 875.8 153.173 876.024 153.632C876.258 154.091 876.573 154.453 876.968 154.72C877.362 154.976 877.816 155.104 878.328 155.104ZM891.151 156.112C890.479 156.112 889.871 155.936 889.327 155.584C888.783 155.221 888.351 154.741 888.031 154.144C887.711 153.536 887.551 152.859 887.551 152.112C887.551 151.355 887.711 150.677 888.031 150.08C888.362 149.472 888.804 148.992 889.359 148.64C889.914 148.277 890.532 148.096 891.215 148.096C891.695 148.096 892.143 148.192 892.559 148.384C892.975 148.565 893.338 148.832 893.647 149.184V144.448L894.815 144.208V156H893.647V154.96C893.348 155.333 892.986 155.621 892.559 155.824C892.132 156.016 891.663 156.112 891.151 156.112ZM891.439 155.088C891.898 155.088 892.319 154.997 892.703 154.816C893.087 154.635 893.402 154.379 893.647 154.048V150.176C893.391 149.845 893.066 149.589 892.671 149.408C892.287 149.216 891.876 149.12 891.439 149.12C890.916 149.12 890.447 149.248 890.031 149.504C889.626 149.76 889.3 150.112 889.055 150.56C888.82 151.008 888.703 151.52 888.703 152.096C888.703 152.661 888.82 153.173 889.055 153.632C889.3 154.08 889.626 154.437 890.031 154.704C890.447 154.96 890.916 155.088 891.439 155.088ZM899.632 156.144C899.077 156.144 898.586 156.043 898.16 155.84C897.733 155.637 897.397 155.36 897.152 155.008C896.917 154.645 896.8 154.229 896.8 153.76C896.8 153.291 896.922 152.885 897.168 152.544C897.413 152.192 897.754 151.92 898.192 151.728C898.629 151.536 899.141 151.44 899.728 151.44C900.176 151.44 900.597 151.488 900.992 151.584C901.397 151.68 901.77 151.835 902.112 152.048V150.976C902.112 150.336 901.941 149.856 901.6 149.536C901.258 149.205 900.757 149.04 900.096 149.04C899.733 149.04 899.36 149.093 898.976 149.2C898.602 149.307 898.186 149.477 897.728 149.712L897.296 148.816C898.341 148.315 899.322 148.064 900.24 148.064C901.21 148.064 901.957 148.304 902.48 148.784C903.002 149.253 903.264 149.931 903.264 150.816V156H902.112V155.088C901.77 155.44 901.392 155.707 900.976 155.888C900.56 156.059 900.112 156.144 899.632 156.144ZM897.92 153.728C897.92 154.187 898.096 154.555 898.448 154.832C898.81 155.109 899.285 155.248 899.872 155.248C900.309 155.248 900.709 155.173 901.072 155.024C901.445 154.875 901.792 154.651 902.112 154.352V152.848C901.781 152.656 901.44 152.517 901.088 152.432C900.736 152.336 900.341 152.288 899.904 152.288C899.306 152.288 898.826 152.421 898.464 152.688C898.101 152.944 897.92 153.291 897.92 153.728ZM908.054 156.16C907.414 156.16 906.822 156.064 906.278 155.872C905.734 155.669 905.27 155.381 904.886 155.008L905.51 154.24C905.979 154.581 906.411 154.832 906.806 154.992C907.2 155.141 907.606 155.216 908.022 155.216C908.587 155.216 909.056 155.083 909.43 154.816C909.803 154.549 909.99 154.208 909.99 153.792C909.99 153.472 909.878 153.221 909.654 153.04C909.44 152.859 909.083 152.72 908.582 152.624L907.302 152.4C906.544 152.261 905.984 152.027 905.622 151.696C905.27 151.365 905.094 150.917 905.094 150.352C905.094 149.904 905.211 149.509 905.446 149.168C905.691 148.827 906.027 148.56 906.454 148.368C906.88 148.165 907.366 148.064 907.91 148.064C908.443 148.064 908.95 148.144 909.43 148.304C909.91 148.453 910.395 148.699 910.886 149.04L910.31 149.856C909.904 149.568 909.499 149.36 909.094 149.232C908.688 149.093 908.278 149.024 907.862 149.024C907.35 149.024 906.939 149.136 906.63 149.36C906.32 149.584 906.166 149.888 906.166 150.272C906.166 150.592 906.262 150.837 906.454 151.008C906.656 151.179 907.008 151.307 907.51 151.392L908.822 151.632C909.611 151.771 910.187 152.011 910.55 152.352C910.912 152.693 911.094 153.152 911.094 153.728C911.094 154.187 910.96 154.603 910.694 154.976C910.427 155.339 910.064 155.627 909.606 155.84C909.147 156.053 908.63 156.16 908.054 156.16ZM912.872 156V144.448L914.04 144.208V149.456C914.339 148.987 914.696 148.64 915.112 148.416C915.528 148.181 915.997 148.064 916.52 148.064C917.085 148.064 917.576 148.187 917.992 148.432C918.419 148.667 918.749 149.003 918.984 149.44C919.229 149.867 919.352 150.368 919.352 150.944V156H918.184V151.28C918.184 150.587 917.992 150.043 917.608 149.648C917.235 149.243 916.728 149.04 916.088 149.04C915.661 149.04 915.272 149.141 914.92 149.344C914.568 149.547 914.275 149.845 914.04 150.24V156H912.872ZM921.7 156V144.56L922.868 144.32V149.264C923.167 148.891 923.529 148.603 923.956 148.4C924.383 148.197 924.857 148.096 925.38 148.096C926.063 148.096 926.671 148.277 927.204 148.64C927.748 148.992 928.18 149.472 928.5 150.08C928.82 150.677 928.98 151.349 928.98 152.096C928.98 152.843 928.815 153.52 928.484 154.128C928.164 154.736 927.727 155.221 927.172 155.584C926.628 155.936 926.009 156.112 925.316 156.112C924.825 156.112 924.367 156.016 923.94 155.824C923.524 155.621 923.161 155.339 922.852 154.976V156H921.7ZM925.092 155.104C925.615 155.104 926.079 154.976 926.484 154.72C926.9 154.453 927.225 154.096 927.46 153.648C927.705 153.189 927.828 152.677 927.828 152.112C927.828 151.536 927.705 151.024 927.46 150.576C927.225 150.128 926.9 149.776 926.484 149.52C926.079 149.253 925.615 149.12 925.092 149.12C924.633 149.12 924.207 149.216 923.812 149.408C923.428 149.589 923.113 149.851 922.868 150.192V154.016C923.124 154.357 923.444 154.624 923.828 154.816C924.223 155.008 924.644 155.104 925.092 155.104ZM934.484 156.128C933.759 156.128 933.108 155.952 932.532 155.6C931.956 155.248 931.503 154.768 931.172 154.16C930.841 153.552 930.676 152.864 930.676 152.096C930.676 151.328 930.841 150.64 931.172 150.032C931.503 149.424 931.956 148.944 932.532 148.592C933.108 148.24 933.759 148.064 934.484 148.064C935.199 148.064 935.839 148.24 936.404 148.592C936.98 148.944 937.433 149.424 937.764 150.032C938.095 150.64 938.26 151.328 938.26 152.096C938.26 152.864 938.095 153.552 937.764 154.16C937.433 154.768 936.98 155.248 936.404 155.6C935.839 155.952 935.199 156.128 934.484 156.128ZM934.468 155.104C934.98 155.104 935.433 154.976 935.828 154.72C936.223 154.453 936.532 154.091 936.756 153.632C936.991 153.173 937.108 152.661 937.108 152.096C937.108 151.52 936.991 151.008 936.756 150.56C936.532 150.101 936.223 149.744 935.828 149.488C935.433 149.221 934.98 149.088 934.468 149.088C933.956 149.088 933.503 149.221 933.108 149.488C932.713 149.744 932.399 150.101 932.164 150.56C931.94 151.008 931.828 151.52 931.828 152.096C931.828 152.661 931.94 153.173 932.164 153.632C932.399 154.091 932.713 154.453 933.108 154.72C933.503 154.976 933.956 155.104 934.468 155.104ZM942.804 156.144C942.249 156.144 941.758 156.043 941.332 155.84C940.905 155.637 940.569 155.36 940.324 155.008C940.089 154.645 939.972 154.229 939.972 153.76C939.972 153.291 940.094 152.885 940.34 152.544C940.585 152.192 940.926 151.92 941.364 151.728C941.801 151.536 942.313 151.44 942.9 151.44C943.348 151.44 943.769 151.488 944.164 151.584C944.569 151.68 944.942 151.835 945.284 152.048V150.976C945.284 150.336 945.113 149.856 944.772 149.536C944.43 149.205 943.929 149.04 943.268 149.04C942.905 149.04 942.532 149.093 942.148 149.2C941.774 149.307 941.358 149.477 940.9 149.712L940.468 148.816C941.513 148.315 942.494 148.064 943.411 148.064C944.382 148.064 945.129 148.304 945.652 148.784C946.174 149.253 946.436 149.931 946.436 150.816V156H945.284V155.088C944.942 155.44 944.564 155.707 944.148 155.888C943.732 156.059 943.284 156.144 942.804 156.144ZM941.092 153.728C941.092 154.187 941.268 154.555 941.62 154.832C941.982 155.109 942.457 155.248 943.044 155.248C943.481 155.248 943.881 155.173 944.244 155.024C944.617 154.875 944.964 154.651 945.284 154.352V152.848C944.953 152.656 944.612 152.517 944.26 152.432C943.908 152.336 943.513 152.288 943.076 152.288C942.478 152.288 941.998 152.421 941.636 152.688C941.273 152.944 941.092 153.291 941.092 153.728ZM948.809 156V148.192H949.977V149.792C950.18 149.248 950.468 148.827 950.841 148.528C951.225 148.219 951.663 148.064 952.153 148.064C952.292 148.064 952.42 148.075 952.537 148.096C952.655 148.107 952.772 148.133 952.889 148.176V149.232C952.761 149.189 952.623 149.157 952.473 149.136C952.335 149.104 952.201 149.088 952.073 149.088C951.593 149.088 951.172 149.227 950.809 149.504C950.457 149.781 950.18 150.171 949.977 150.672V156H948.809ZM957.198 156.112C956.526 156.112 955.918 155.936 955.374 155.584C954.83 155.221 954.398 154.741 954.078 154.144C953.758 153.536 953.598 152.859 953.598 152.112C953.598 151.355 953.758 150.677 954.078 150.08C954.409 149.472 954.851 148.992 955.406 148.64C955.961 148.277 956.579 148.096 957.262 148.096C957.742 148.096 958.19 148.192 958.606 148.384C959.022 148.565 959.385 148.832 959.694 149.184V144.448L960.862 144.208V156H959.694V154.96C959.395 155.333 959.033 155.621 958.606 155.824C958.179 156.016 957.71 156.112 957.198 156.112ZM957.486 155.088C957.945 155.088 958.366 154.997 958.75 154.816C959.134 154.635 959.449 154.379 959.694 154.048V150.176C959.438 149.845 959.113 149.589 958.718 149.408C958.334 149.216 957.923 149.12 957.486 149.12C956.963 149.12 956.494 149.248 956.078 149.504C955.673 149.76 955.347 150.112 955.102 150.56C954.867 151.008 954.75 151.52 954.75 152.096C954.75 152.661 954.867 153.173 955.102 153.632C955.347 154.08 955.673 154.437 956.078 154.704C956.494 154.96 956.963 155.088 957.486 155.088Z" fill="#0066CC"/>
<defs>
<clipPath id="clip0_18_3627">
<rect width="16" height="16" fill="white" transform="translate(696 68.5)"/>
</clipPath>
<clipPath id="clip1_18_3627">
<rect width="12" height="12" fill="white" transform="translate(1060 66)"/>
</clipPath>
</defs>
</svg>
