<svg width="1140" height="464" viewBox="0 0 1140 464" fill="none" xmlns="http://www.w3.org/2000/svg">
<rect x="0.5" y="0.5" width="1139" height="463" rx="2.5" fill="white" stroke="#C7C7C7"/>
<rect x="64" y="428" width="1012" height="24" fill="#E0E0E0"/>
<rect x="64" y="388" width="1012" height="24" fill="#E0E0E0"/>
<rect x="64" y="348" width="1012" height="24" fill="#E0E0E0"/>
<rect x="64" y="308" width="1012" height="24" fill="#E0E0E0"/>
<rect x="64" y="268" width="1012" height="24" fill="#E0E0E0"/>
<rect x="64" y="228" width="1012" height="24" fill="#E0E0E0"/>
<rect x="64" y="188" width="1012" height="24" fill="#E0E0E0"/>
<rect x="64" y="136" width="506" height="36" fill="#E0E0E0"/>
<rect width="1140" height="72" fill="#151515"/>
<rect x="684" y="300" width="408" height="84" fill="white"/>
<rect opacity="0.5" x="684.5" y="300.5" width="407" height="83" stroke="#B300B3" stroke-dasharray="4 4"/>
<g clip-path="url(#clip0_15_3383)">
<path d="M853 334.5C848.59 334.5 845 338.09 845 342.5C845 346.91 848.59 350.5 853 350.5C857.41 350.5 861 346.91 861 342.5C861 338.09 857.41 334.5 853 334.5ZM853.5 349.475V348C853.5 347.725 853.275 347.5 853 347.5C852.725 347.5 852.5 347.725 852.5 348V349.475C849.04 349.23 846.27 346.46 846.025 343H847.5C847.775 343 848 342.775 848 342.5C848 342.225 847.775 342 847.5 342H846.025C846.285 338.375 849.31 335.5 853 335.5C856.69 335.5 859.715 338.375 859.975 342H858.5C858.225 342 858 342.225 858 342.5C858 342.775 858.225 343 858.5 343H859.975C859.73 346.46 856.96 349.23 853.5 349.475Z" fill="#B300B3"/>
<path d="M853.5 342.295V338C853.5 337.725 853.275 337.5 853 337.5C852.725 337.5 852.5 337.725 852.5 338V342.5C852.5 342.635 852.555 342.76 852.645 342.855L854.645 344.855C854.745 344.955 854.87 345 855 345C855.13 345 855.255 344.95 855.355 344.855C855.55 344.66 855.55 344.345 855.355 344.15L853.5 342.295Z" fill="#B300B3"/>
</g>
<path d="M872.298 347.154C871.626 347.154 871.029 347.033 870.506 346.79C869.983 346.547 869.568 346.216 869.26 345.796C868.961 345.367 868.812 344.886 868.812 344.354C868.812 343.953 868.91 343.584 869.106 343.248C869.302 342.903 869.573 342.609 869.918 342.366C870.273 342.114 870.674 341.937 871.122 341.834C870.553 341.675 870.086 341.391 869.722 340.98C869.367 340.569 869.19 340.107 869.19 339.594C869.19 339.109 869.325 338.675 869.596 338.292C869.867 337.909 870.235 337.606 870.702 337.382C871.178 337.158 871.71 337.046 872.298 337.046C872.895 337.046 873.427 337.158 873.894 337.382C874.361 337.606 874.729 337.909 875 338.292C875.271 338.675 875.406 339.109 875.406 339.594C875.406 340.107 875.229 340.569 874.874 340.98C874.519 341.391 874.053 341.675 873.474 341.834C874.155 341.993 874.711 342.305 875.14 342.772C875.569 343.229 875.784 343.757 875.784 344.354C875.784 344.886 875.635 345.367 875.336 345.796C875.037 346.216 874.622 346.547 874.09 346.79C873.567 347.033 872.97 347.154 872.298 347.154ZM872.298 341.414C872.699 341.414 873.059 341.335 873.376 341.176C873.703 341.017 873.959 340.807 874.146 340.546C874.333 340.275 874.426 339.972 874.426 339.636C874.426 339.3 874.333 338.997 874.146 338.726C873.959 338.455 873.703 338.245 873.376 338.096C873.059 337.937 872.699 337.858 872.298 337.858C871.897 337.858 871.533 337.937 871.206 338.096C870.889 338.245 870.637 338.455 870.45 338.726C870.263 338.997 870.17 339.3 870.17 339.636C870.17 339.972 870.263 340.275 870.45 340.546C870.637 340.807 870.889 341.017 871.206 341.176C871.533 341.335 871.897 341.414 872.298 341.414ZM872.298 346.342C872.774 346.342 873.199 346.253 873.572 346.076C873.945 345.899 874.239 345.656 874.454 345.348C874.678 345.04 874.79 344.695 874.79 344.312C874.79 343.929 874.678 343.584 874.454 343.276C874.239 342.968 873.945 342.725 873.572 342.548C873.199 342.371 872.774 342.282 872.298 342.282C871.822 342.282 871.397 342.371 871.024 342.548C870.651 342.725 870.352 342.968 870.128 343.276C869.913 343.584 869.806 343.929 869.806 344.312C869.806 344.695 869.913 345.04 870.128 345.348C870.352 345.656 870.651 345.899 871.024 346.076C871.397 346.253 871.822 346.342 872.298 346.342ZM883.031 347.14C882.471 347.14 881.953 347.056 881.477 346.888C881.001 346.711 880.595 346.459 880.259 346.132L880.805 345.46C881.216 345.759 881.594 345.978 881.939 346.118C882.285 346.249 882.639 346.314 883.003 346.314C883.498 346.314 883.909 346.197 884.235 345.964C884.562 345.731 884.725 345.432 884.725 345.068C884.725 344.788 884.627 344.569 884.431 344.41C884.245 344.251 883.932 344.13 883.493 344.046L882.373 343.85C881.711 343.729 881.221 343.523 880.903 343.234C880.595 342.945 880.441 342.553 880.441 342.058C880.441 341.666 880.544 341.321 880.749 341.022C880.964 340.723 881.258 340.49 881.631 340.322C882.005 340.145 882.429 340.056 882.905 340.056C883.372 340.056 883.815 340.126 884.235 340.266C884.655 340.397 885.08 340.611 885.509 340.91L885.005 341.624C884.651 341.372 884.296 341.19 883.941 341.078C883.587 340.957 883.227 340.896 882.863 340.896C882.415 340.896 882.056 340.994 881.785 341.19C881.515 341.386 881.379 341.652 881.379 341.988C881.379 342.268 881.463 342.483 881.631 342.632C881.809 342.781 882.117 342.893 882.555 342.968L883.703 343.178C884.394 343.299 884.898 343.509 885.215 343.808C885.533 344.107 885.691 344.508 885.691 345.012C885.691 345.413 885.575 345.777 885.341 346.104C885.108 346.421 884.791 346.673 884.389 346.86C883.988 347.047 883.535 347.14 883.031 347.14ZM890.396 347.14C889.761 347.14 889.187 346.986 888.674 346.678C888.16 346.361 887.754 345.936 887.456 345.404C887.157 344.863 887.008 344.256 887.008 343.584C887.008 342.912 887.148 342.31 887.428 341.778C887.717 341.246 888.104 340.826 888.59 340.518C889.075 340.21 889.616 340.056 890.214 340.056C890.82 340.056 891.357 340.21 891.824 340.518C892.3 340.817 892.673 341.227 892.944 341.75C893.224 342.263 893.364 342.847 893.364 343.5V343.808H888.002C888.039 344.275 888.165 344.695 888.38 345.068C888.604 345.432 888.893 345.721 889.248 345.936C889.612 346.141 890.008 346.244 890.438 346.244C890.792 346.244 891.133 346.183 891.46 346.062C891.796 345.931 892.08 345.759 892.314 345.544L892.958 346.23C892.566 346.538 892.16 346.767 891.74 346.916C891.32 347.065 890.872 347.14 890.396 347.14ZM888.03 343.08H892.356C892.309 342.669 892.183 342.305 891.978 341.988C891.782 341.661 891.53 341.405 891.222 341.218C890.923 341.031 890.587 340.938 890.214 340.938C889.84 340.938 889.5 341.031 889.192 341.218C888.884 341.395 888.627 341.647 888.422 341.974C888.226 342.291 888.095 342.66 888.03 343.08ZM898.175 347.112C897.54 347.112 896.966 346.958 896.453 346.65C895.949 346.333 895.547 345.908 895.249 345.376C894.95 344.835 894.801 344.237 894.801 343.584C894.801 342.921 894.95 342.324 895.249 341.792C895.547 341.26 895.949 340.84 896.453 340.532C896.966 340.215 897.54 340.056 898.175 340.056C898.679 340.056 899.159 340.149 899.617 340.336C900.074 340.523 900.471 340.784 900.807 341.12L900.149 341.834C899.906 341.563 899.612 341.353 899.267 341.204C898.921 341.055 898.571 340.98 898.217 340.98C897.769 340.98 897.363 341.097 896.999 341.33C896.644 341.563 896.359 341.876 896.145 342.268C895.93 342.66 895.823 343.099 895.823 343.584C895.823 344.069 895.93 344.508 896.145 344.9C896.359 345.292 896.644 345.605 896.999 345.838C897.363 346.071 897.769 346.188 898.217 346.188C898.571 346.188 898.921 346.113 899.267 345.964C899.612 345.805 899.906 345.595 900.149 345.334L900.807 346.048C900.471 346.384 900.074 346.645 899.617 346.832C899.159 347.019 898.679 347.112 898.175 347.112ZM905.051 347.112C904.416 347.112 903.847 346.958 903.343 346.65C902.839 346.342 902.442 345.922 902.153 345.39C901.863 344.858 901.719 344.256 901.719 343.584C901.719 342.912 901.863 342.31 902.153 341.778C902.442 341.246 902.839 340.826 903.343 340.518C903.847 340.21 904.416 340.056 905.051 340.056C905.676 340.056 906.236 340.21 906.731 340.518C907.235 340.826 907.631 341.246 907.921 341.778C908.21 342.31 908.355 342.912 908.355 343.584C908.355 344.256 908.21 344.858 907.921 345.39C907.631 345.922 907.235 346.342 906.731 346.65C906.236 346.958 905.676 347.112 905.051 347.112ZM905.037 346.216C905.485 346.216 905.881 346.104 906.227 345.88C906.572 345.647 906.843 345.329 907.039 344.928C907.244 344.527 907.347 344.079 907.347 343.584C907.347 343.08 907.244 342.632 907.039 342.24C906.843 341.839 906.572 341.526 906.227 341.302C905.881 341.069 905.485 340.952 905.037 340.952C904.589 340.952 904.192 341.069 903.847 341.302C903.501 341.526 903.226 341.839 903.021 342.24C902.825 342.632 902.727 343.08 902.727 343.584C902.727 344.079 902.825 344.527 903.021 344.928C903.226 345.329 903.501 345.647 903.847 345.88C904.192 346.104 904.589 346.216 905.037 346.216ZM910.148 347V340.168H911.17V341.274C911.431 340.863 911.744 340.56 912.108 340.364C912.472 340.159 912.882 340.056 913.34 340.056C913.834 340.056 914.264 340.163 914.628 340.378C915.001 340.583 915.29 340.877 915.496 341.26C915.71 341.633 915.818 342.072 915.818 342.576V347H914.796V342.87C914.796 342.263 914.628 341.787 914.292 341.442C913.965 341.087 913.522 340.91 912.962 340.91C912.588 340.91 912.248 340.999 911.94 341.176C911.632 341.353 911.375 341.615 911.17 341.96V347H910.148ZM920.714 347.098C920.126 347.098 919.594 346.944 919.118 346.636C918.642 346.319 918.264 345.899 917.984 345.376C917.704 344.844 917.564 344.251 917.564 343.598C917.564 342.935 917.704 342.343 917.984 341.82C918.274 341.288 918.661 340.868 919.146 340.56C919.632 340.243 920.173 340.084 920.77 340.084C921.19 340.084 921.582 340.168 921.946 340.336C922.31 340.495 922.628 340.728 922.898 341.036V336.892L923.92 336.682V347H922.898V346.09C922.637 346.417 922.32 346.669 921.946 346.846C921.573 347.014 921.162 347.098 920.714 347.098ZM920.966 346.202C921.368 346.202 921.736 346.123 922.072 345.964C922.408 345.805 922.684 345.581 922.898 345.292V341.904C922.674 341.615 922.39 341.391 922.044 341.232C921.708 341.064 921.349 340.98 920.966 340.98C920.509 340.98 920.098 341.092 919.734 341.316C919.38 341.54 919.095 341.848 918.88 342.24C918.675 342.632 918.572 343.08 918.572 343.584C918.572 344.079 918.675 344.527 918.88 344.928C919.095 345.32 919.38 345.633 919.734 345.866C920.098 346.09 920.509 346.202 920.966 346.202ZM928.135 347.14C927.575 347.14 927.057 347.056 926.581 346.888C926.105 346.711 925.699 346.459 925.363 346.132L925.909 345.46C926.319 345.759 926.697 345.978 927.043 346.118C927.388 346.249 927.743 346.314 928.107 346.314C928.601 346.314 929.012 346.197 929.339 345.964C929.665 345.731 929.829 345.432 929.829 345.068C929.829 344.788 929.731 344.569 929.535 344.41C929.348 344.251 929.035 344.13 928.597 344.046L927.477 343.85C926.814 343.729 926.324 343.523 926.007 343.234C925.699 342.945 925.545 342.553 925.545 342.058C925.545 341.666 925.647 341.321 925.853 341.022C926.067 340.723 926.361 340.49 926.735 340.322C927.108 340.145 927.533 340.056 928.009 340.056C928.475 340.056 928.919 340.126 929.339 340.266C929.759 340.397 930.183 340.611 930.613 340.91L930.109 341.624C929.754 341.372 929.399 341.19 929.045 341.078C928.69 340.957 928.331 340.896 927.967 340.896C927.519 340.896 927.159 340.994 926.889 341.19C926.618 341.386 926.483 341.652 926.483 341.988C926.483 342.268 926.567 342.483 926.735 342.632C926.912 342.781 927.22 342.893 927.659 342.968L928.807 343.178C929.497 343.299 930.001 343.509 930.319 343.808C930.636 344.107 930.795 344.508 930.795 345.012C930.795 345.413 930.678 345.777 930.445 346.104C930.211 346.421 929.894 346.673 929.493 346.86C929.091 347.047 928.639 347.14 928.135 347.14Z" fill="#B300B3"/>
<rect x="684" y="200" width="408" height="84" fill="white"/>
<rect opacity="0.5" x="684.5" y="200.5" width="407" height="83" stroke="#B300B3" stroke-dasharray="4 4"/>
<g clip-path="url(#clip1_15_3383)">
<path d="M853 234.5C848.59 234.5 845 238.09 845 242.5C845 246.91 848.59 250.5 853 250.5C857.41 250.5 861 246.91 861 242.5C861 238.09 857.41 234.5 853 234.5ZM853.5 249.475V248C853.5 247.725 853.275 247.5 853 247.5C852.725 247.5 852.5 247.725 852.5 248V249.475C849.04 249.23 846.27 246.46 846.025 243H847.5C847.775 243 848 242.775 848 242.5C848 242.225 847.775 242 847.5 242H846.025C846.285 238.375 849.31 235.5 853 235.5C856.69 235.5 859.715 238.375 859.975 242H858.5C858.225 242 858 242.225 858 242.5C858 242.775 858.225 243 858.5 243H859.975C859.73 246.46 856.96 249.23 853.5 249.475Z" fill="#B300B3"/>
<path d="M853.5 242.295V238C853.5 237.725 853.275 237.5 853 237.5C852.725 237.5 852.5 237.725 852.5 238V242.5C852.5 242.635 852.555 242.76 852.645 242.855L854.645 244.855C854.745 244.955 854.87 245 855 245C855.13 245 855.255 244.95 855.355 244.855C855.55 244.66 855.55 244.345 855.355 244.15L853.5 242.295Z" fill="#B300B3"/>
</g>
<path d="M872.298 247.154C871.626 247.154 871.029 247.033 870.506 246.79C869.983 246.547 869.568 246.216 869.26 245.796C868.961 245.367 868.812 244.886 868.812 244.354C868.812 243.953 868.91 243.584 869.106 243.248C869.302 242.903 869.573 242.609 869.918 242.366C870.273 242.114 870.674 241.937 871.122 241.834C870.553 241.675 870.086 241.391 869.722 240.98C869.367 240.569 869.19 240.107 869.19 239.594C869.19 239.109 869.325 238.675 869.596 238.292C869.867 237.909 870.235 237.606 870.702 237.382C871.178 237.158 871.71 237.046 872.298 237.046C872.895 237.046 873.427 237.158 873.894 237.382C874.361 237.606 874.729 237.909 875 238.292C875.271 238.675 875.406 239.109 875.406 239.594C875.406 240.107 875.229 240.569 874.874 240.98C874.519 241.391 874.053 241.675 873.474 241.834C874.155 241.993 874.711 242.305 875.14 242.772C875.569 243.229 875.784 243.757 875.784 244.354C875.784 244.886 875.635 245.367 875.336 245.796C875.037 246.216 874.622 246.547 874.09 246.79C873.567 247.033 872.97 247.154 872.298 247.154ZM872.298 241.414C872.699 241.414 873.059 241.335 873.376 241.176C873.703 241.017 873.959 240.807 874.146 240.546C874.333 240.275 874.426 239.972 874.426 239.636C874.426 239.3 874.333 238.997 874.146 238.726C873.959 238.455 873.703 238.245 873.376 238.096C873.059 237.937 872.699 237.858 872.298 237.858C871.897 237.858 871.533 237.937 871.206 238.096C870.889 238.245 870.637 238.455 870.45 238.726C870.263 238.997 870.17 239.3 870.17 239.636C870.17 239.972 870.263 240.275 870.45 240.546C870.637 240.807 870.889 241.017 871.206 241.176C871.533 241.335 871.897 241.414 872.298 241.414ZM872.298 246.342C872.774 246.342 873.199 246.253 873.572 246.076C873.945 245.899 874.239 245.656 874.454 245.348C874.678 245.04 874.79 244.695 874.79 244.312C874.79 243.929 874.678 243.584 874.454 243.276C874.239 242.968 873.945 242.725 873.572 242.548C873.199 242.371 872.774 242.282 872.298 242.282C871.822 242.282 871.397 242.371 871.024 242.548C870.651 242.725 870.352 242.968 870.128 243.276C869.913 243.584 869.806 243.929 869.806 244.312C869.806 244.695 869.913 245.04 870.128 245.348C870.352 245.656 870.651 245.899 871.024 246.076C871.397 246.253 871.822 246.342 872.298 246.342ZM883.031 247.14C882.471 247.14 881.953 247.056 881.477 246.888C881.001 246.711 880.595 246.459 880.259 246.132L880.805 245.46C881.216 245.759 881.594 245.978 881.939 246.118C882.285 246.249 882.639 246.314 883.003 246.314C883.498 246.314 883.909 246.197 884.235 245.964C884.562 245.731 884.725 245.432 884.725 245.068C884.725 244.788 884.627 244.569 884.431 244.41C884.245 244.251 883.932 244.13 883.493 244.046L882.373 243.85C881.711 243.729 881.221 243.523 880.903 243.234C880.595 242.945 880.441 242.553 880.441 242.058C880.441 241.666 880.544 241.321 880.749 241.022C880.964 240.723 881.258 240.49 881.631 240.322C882.005 240.145 882.429 240.056 882.905 240.056C883.372 240.056 883.815 240.126 884.235 240.266C884.655 240.397 885.08 240.611 885.509 240.91L885.005 241.624C884.651 241.372 884.296 241.19 883.941 241.078C883.587 240.957 883.227 240.896 882.863 240.896C882.415 240.896 882.056 240.994 881.785 241.19C881.515 241.386 881.379 241.652 881.379 241.988C881.379 242.268 881.463 242.483 881.631 242.632C881.809 242.781 882.117 242.893 882.555 242.968L883.703 243.178C884.394 243.299 884.898 243.509 885.215 243.808C885.533 244.107 885.691 244.508 885.691 245.012C885.691 245.413 885.575 245.777 885.341 246.104C885.108 246.421 884.791 246.673 884.389 246.86C883.988 247.047 883.535 247.14 883.031 247.14ZM890.396 247.14C889.761 247.14 889.187 246.986 888.674 246.678C888.16 246.361 887.754 245.936 887.456 245.404C887.157 244.863 887.008 244.256 887.008 243.584C887.008 242.912 887.148 242.31 887.428 241.778C887.717 241.246 888.104 240.826 888.59 240.518C889.075 240.21 889.616 240.056 890.214 240.056C890.82 240.056 891.357 240.21 891.824 240.518C892.3 240.817 892.673 241.227 892.944 241.75C893.224 242.263 893.364 242.847 893.364 243.5V243.808H888.002C888.039 244.275 888.165 244.695 888.38 245.068C888.604 245.432 888.893 245.721 889.248 245.936C889.612 246.141 890.008 246.244 890.438 246.244C890.792 246.244 891.133 246.183 891.46 246.062C891.796 245.931 892.08 245.759 892.314 245.544L892.958 246.23C892.566 246.538 892.16 246.767 891.74 246.916C891.32 247.065 890.872 247.14 890.396 247.14ZM888.03 243.08H892.356C892.309 242.669 892.183 242.305 891.978 241.988C891.782 241.661 891.53 241.405 891.222 241.218C890.923 241.031 890.587 240.938 890.214 240.938C889.84 240.938 889.5 241.031 889.192 241.218C888.884 241.395 888.627 241.647 888.422 241.974C888.226 242.291 888.095 242.66 888.03 243.08ZM898.175 247.112C897.54 247.112 896.966 246.958 896.453 246.65C895.949 246.333 895.547 245.908 895.249 245.376C894.95 244.835 894.801 244.237 894.801 243.584C894.801 242.921 894.95 242.324 895.249 241.792C895.547 241.26 895.949 240.84 896.453 240.532C896.966 240.215 897.54 240.056 898.175 240.056C898.679 240.056 899.159 240.149 899.617 240.336C900.074 240.523 900.471 240.784 900.807 241.12L900.149 241.834C899.906 241.563 899.612 241.353 899.267 241.204C898.921 241.055 898.571 240.98 898.217 240.98C897.769 240.98 897.363 241.097 896.999 241.33C896.644 241.563 896.359 241.876 896.145 242.268C895.93 242.66 895.823 243.099 895.823 243.584C895.823 244.069 895.93 244.508 896.145 244.9C896.359 245.292 896.644 245.605 896.999 245.838C897.363 246.071 897.769 246.188 898.217 246.188C898.571 246.188 898.921 246.113 899.267 245.964C899.612 245.805 899.906 245.595 900.149 245.334L900.807 246.048C900.471 246.384 900.074 246.645 899.617 246.832C899.159 247.019 898.679 247.112 898.175 247.112ZM905.051 247.112C904.416 247.112 903.847 246.958 903.343 246.65C902.839 246.342 902.442 245.922 902.153 245.39C901.863 244.858 901.719 244.256 901.719 243.584C901.719 242.912 901.863 242.31 902.153 241.778C902.442 241.246 902.839 240.826 903.343 240.518C903.847 240.21 904.416 240.056 905.051 240.056C905.676 240.056 906.236 240.21 906.731 240.518C907.235 240.826 907.631 241.246 907.921 241.778C908.21 242.31 908.355 242.912 908.355 243.584C908.355 244.256 908.21 244.858 907.921 245.39C907.631 245.922 907.235 246.342 906.731 246.65C906.236 246.958 905.676 247.112 905.051 247.112ZM905.037 246.216C905.485 246.216 905.881 246.104 906.227 245.88C906.572 245.647 906.843 245.329 907.039 244.928C907.244 244.527 907.347 244.079 907.347 243.584C907.347 243.08 907.244 242.632 907.039 242.24C906.843 241.839 906.572 241.526 906.227 241.302C905.881 241.069 905.485 240.952 905.037 240.952C904.589 240.952 904.192 241.069 903.847 241.302C903.501 241.526 903.226 241.839 903.021 242.24C902.825 242.632 902.727 243.08 902.727 243.584C902.727 244.079 902.825 244.527 903.021 244.928C903.226 245.329 903.501 245.647 903.847 245.88C904.192 246.104 904.589 246.216 905.037 246.216ZM910.148 247V240.168H911.17V241.274C911.431 240.863 911.744 240.56 912.108 240.364C912.472 240.159 912.882 240.056 913.34 240.056C913.834 240.056 914.264 240.163 914.628 240.378C915.001 240.583 915.29 240.877 915.496 241.26C915.71 241.633 915.818 242.072 915.818 242.576V247H914.796V242.87C914.796 242.263 914.628 241.787 914.292 241.442C913.965 241.087 913.522 240.91 912.962 240.91C912.588 240.91 912.248 240.999 911.94 241.176C911.632 241.353 911.375 241.615 911.17 241.96V247H910.148ZM920.714 247.098C920.126 247.098 919.594 246.944 919.118 246.636C918.642 246.319 918.264 245.899 917.984 245.376C917.704 244.844 917.564 244.251 917.564 243.598C917.564 242.935 917.704 242.343 917.984 241.82C918.274 241.288 918.661 240.868 919.146 240.56C919.632 240.243 920.173 240.084 920.77 240.084C921.19 240.084 921.582 240.168 921.946 240.336C922.31 240.495 922.628 240.728 922.898 241.036V236.892L923.92 236.682V247H922.898V246.09C922.637 246.417 922.32 246.669 921.946 246.846C921.573 247.014 921.162 247.098 920.714 247.098ZM920.966 246.202C921.368 246.202 921.736 246.123 922.072 245.964C922.408 245.805 922.684 245.581 922.898 245.292V241.904C922.674 241.615 922.39 241.391 922.044 241.232C921.708 241.064 921.349 240.98 920.966 240.98C920.509 240.98 920.098 241.092 919.734 241.316C919.38 241.54 919.095 241.848 918.88 242.24C918.675 242.632 918.572 243.08 918.572 243.584C918.572 244.079 918.675 244.527 918.88 244.928C919.095 245.32 919.38 245.633 919.734 245.866C920.098 246.09 920.509 246.202 920.966 246.202ZM928.135 247.14C927.575 247.14 927.057 247.056 926.581 246.888C926.105 246.711 925.699 246.459 925.363 246.132L925.909 245.46C926.319 245.759 926.697 245.978 927.043 246.118C927.388 246.249 927.743 246.314 928.107 246.314C928.601 246.314 929.012 246.197 929.339 245.964C929.665 245.731 929.829 245.432 929.829 245.068C929.829 244.788 929.731 244.569 929.535 244.41C929.348 244.251 929.035 244.13 928.597 244.046L927.477 243.85C926.814 243.729 926.324 243.523 926.007 243.234C925.699 242.945 925.545 242.553 925.545 242.058C925.545 241.666 925.647 241.321 925.853 241.022C926.067 240.723 926.361 240.49 926.735 240.322C927.108 240.145 927.533 240.056 928.009 240.056C928.475 240.056 928.919 240.126 929.339 240.266C929.759 240.397 930.183 240.611 930.613 240.91L930.109 241.624C929.754 241.372 929.399 241.19 929.045 241.078C928.69 240.957 928.331 240.896 927.967 240.896C927.519 240.896 927.159 240.994 926.889 241.19C926.618 241.386 926.483 241.652 926.483 241.988C926.483 242.268 926.567 242.483 926.735 242.632C926.912 242.781 927.22 242.893 927.659 242.968L928.807 243.178C929.497 243.299 930.001 243.509 930.319 243.808C930.636 244.107 930.795 244.508 930.795 245.012C930.795 245.413 930.678 245.777 930.445 246.104C930.211 246.421 929.894 246.673 929.493 246.86C929.091 247.047 928.639 247.14 928.135 247.14Z" fill="#B300B3"/>
<g filter="url(#filter0_d_15_3383)">
<mask id="path-21-inside-1_15_3383" fill="white">
<path d="M684 48H1092V184H684V48Z"/>
</mask>
<path d="M684 48H1092V184H684V48Z" fill="white" shape-rendering="crispEdges"/>
<path d="M684 50H1092V46H684V50Z" fill="#9E4A06" mask="url(#path-21-inside-1_15_3383)"/>
<g clip-path="url(#clip2_15_3383)">
<path d="M708 68.5C703.59 68.5 700 72.09 700 76.5C700 80.91 703.59 84.5 708 84.5C712.41 84.5 716 80.91 716 76.5C716 72.09 712.41 68.5 708 68.5ZM707.375 73C707.375 72.655 707.655 72.375 708 72.375C708.345 72.375 708.625 72.655 708.625 73V77C708.625 77.345 708.345 77.625 708 77.625C707.655 77.625 707.375 77.345 707.375 77V73ZM708 81.255C707.585 81.255 707.25 80.92 707.25 80.505C707.25 80.09 707.585 79.755 708 79.755C708.415 79.755 708.75 80.09 708.75 80.505C708.75 80.92 708.415 81.255 708 81.255Z" fill="#B1380B"/>
</g>
<path d="M725.176 81V71.2H732.19V72.628H726.856V75.358H730.58V76.758H726.856V79.572H732.246V81H725.176ZM733.949 81V73.986H735.531V75.498C735.736 74.966 736.002 74.56 736.329 74.28C736.655 74 737.033 73.86 737.463 73.86C737.593 73.8693 737.71 73.8833 737.813 73.902C737.915 73.9113 738.027 73.944 738.149 74V75.386C738.027 75.33 737.887 75.288 737.729 75.26C737.579 75.232 737.43 75.218 737.281 75.218C736.898 75.218 736.553 75.3207 736.245 75.526C735.946 75.7313 735.708 76.016 735.531 76.38V81H733.949ZM739.445 81V73.986H741.027V75.498C741.232 74.966 741.498 74.56 741.825 74.28C742.152 74 742.53 73.86 742.959 73.86C743.09 73.8693 743.206 73.8833 743.309 73.902C743.412 73.9113 743.524 73.944 743.645 74V75.386C743.524 75.33 743.384 75.288 743.225 75.26C743.076 75.232 742.926 75.218 742.777 75.218C742.394 75.218 742.049 75.3207 741.741 75.526C741.442 75.7313 741.204 76.016 741.027 76.38V81H739.445ZM747.819 81.126C747.156 81.126 746.554 80.9673 746.013 80.65C745.481 80.3327 745.061 79.9033 744.753 79.362C744.445 78.8113 744.291 78.1907 744.291 77.5C744.291 76.8093 744.445 76.1933 744.753 75.652C745.061 75.1013 745.481 74.6673 746.013 74.35C746.545 74.0327 747.147 73.874 747.819 73.874C748.491 73.874 749.088 74.0327 749.611 74.35C750.143 74.6673 750.563 75.1013 750.871 75.652C751.179 76.1933 751.333 76.8093 751.333 77.5C751.333 78.1907 751.179 78.8113 750.871 79.362C750.563 79.9033 750.143 80.3327 749.611 80.65C749.088 80.9673 748.491 81.126 747.819 81.126ZM747.819 79.782C748.201 79.782 748.537 79.684 748.827 79.488C749.125 79.292 749.359 79.0213 749.527 78.676C749.695 78.3213 749.779 77.9293 749.779 77.5C749.779 77.0613 749.695 76.674 749.527 76.338C749.359 75.9927 749.125 75.722 748.827 75.526C748.537 75.3207 748.201 75.218 747.819 75.218C747.436 75.218 747.095 75.3207 746.797 75.526C746.498 75.722 746.265 75.9927 746.097 76.338C745.929 76.674 745.845 77.0613 745.845 77.5C745.845 77.9387 745.929 78.3307 746.097 78.676C746.265 79.0213 746.498 79.292 746.797 79.488C747.095 79.684 747.436 79.782 747.819 79.782ZM752.966 81V73.986H754.548V75.498C754.754 74.966 755.02 74.56 755.346 74.28C755.673 74 756.051 73.86 756.48 73.86C756.611 73.8693 756.728 73.8833 756.83 73.902C756.933 73.9113 757.045 73.944 757.166 74V75.386C757.045 75.33 756.905 75.288 756.746 75.26C756.597 75.232 756.448 75.218 756.298 75.218C755.916 75.218 755.57 75.3207 755.262 75.526C754.964 75.7313 754.726 76.016 754.548 76.38V81H752.966Z" fill="#151515"/>
<g clip-path="url(#clip3_15_3383)">
<path d="M1070.95 72L1074.68 68.2773C1074.94 68.0136 1074.94 67.5864 1074.68 67.3228C1074.41 67.0591 1073.99 67.0591 1073.72 67.3228L1070 71.0452L1066.28 67.3228C1066.01 67.0591 1065.59 67.0591 1065.32 67.3228C1065.06 67.5865 1065.06 68.0136 1065.32 68.2773L1069.05 72L1065.32 75.7225C1065.06 75.9862 1065.06 76.4139 1065.32 76.6776C1065.45 76.8094 1065.63 76.875 1065.8 76.875C1065.97 76.875 1066.15 76.8094 1066.28 76.6776L1070 72.9548L1073.72 76.6776C1073.85 76.8094 1074.03 76.875 1074.2 76.875C1074.37 76.875 1074.55 76.8094 1074.68 76.6776C1074.94 76.4139 1074.94 75.9862 1074.68 75.7225L1070.95 72Z" fill="#151515"/>
</g>
<path d="M727.976 110V105.996L724.168 100.2H725.428L728.55 105.058L731.686 100.2H732.876L729.054 106.024V110H727.976ZM735.662 110.112C735.027 110.112 734.458 109.958 733.954 109.65C733.45 109.342 733.053 108.922 732.764 108.39C732.475 107.858 732.33 107.256 732.33 106.584C732.33 105.912 732.475 105.31 732.764 104.778C733.053 104.246 733.45 103.826 733.954 103.518C734.458 103.21 735.027 103.056 735.662 103.056C736.287 103.056 736.847 103.21 737.342 103.518C737.846 103.826 738.243 104.246 738.532 104.778C738.821 105.31 738.966 105.912 738.966 106.584C738.966 107.256 738.821 107.858 738.532 108.39C738.243 108.922 737.846 109.342 737.342 109.65C736.847 109.958 736.287 110.112 735.662 110.112ZM735.648 109.216C736.096 109.216 736.493 109.104 736.838 108.88C737.183 108.647 737.454 108.329 737.65 107.928C737.855 107.527 737.958 107.079 737.958 106.584C737.958 106.08 737.855 105.632 737.65 105.24C737.454 104.839 737.183 104.526 736.838 104.302C736.493 104.069 736.096 103.952 735.648 103.952C735.2 103.952 734.803 104.069 734.458 104.302C734.113 104.526 733.837 104.839 733.632 105.24C733.436 105.632 733.338 106.08 733.338 106.584C733.338 107.079 733.436 107.527 733.632 107.928C733.837 108.329 734.113 108.647 734.458 108.88C734.803 109.104 735.2 109.216 735.648 109.216ZM743.195 110.112C742.71 110.112 742.28 110.005 741.907 109.79C741.534 109.575 741.24 109.277 741.025 108.894C740.82 108.511 740.717 108.073 740.717 107.578V103.168H741.753V107.284C741.753 107.891 741.916 108.371 742.243 108.726C742.57 109.081 743.013 109.258 743.573 109.258C743.956 109.258 744.296 109.169 744.595 108.992C744.903 108.815 745.16 108.558 745.365 108.222V103.168H746.387V110H745.365V108.894C745.104 109.295 744.791 109.599 744.427 109.804C744.072 110.009 743.662 110.112 743.195 110.112ZM748.484 110V103.168H749.506V104.568C749.683 104.092 749.935 103.723 750.262 103.462C750.598 103.191 750.98 103.056 751.41 103.056C751.531 103.056 751.643 103.065 751.746 103.084C751.848 103.093 751.951 103.117 752.054 103.154V104.078C751.942 104.041 751.82 104.013 751.69 103.994C751.568 103.966 751.452 103.952 751.34 103.952C750.92 103.952 750.551 104.073 750.234 104.316C749.926 104.559 749.683 104.899 749.506 105.338V110H748.484ZM758.787 110.126C758.302 110.126 757.872 110.037 757.499 109.86C757.126 109.683 756.832 109.44 756.617 109.132C756.412 108.815 756.309 108.451 756.309 108.04C756.309 107.629 756.416 107.275 756.631 106.976C756.846 106.668 757.144 106.43 757.527 106.262C757.91 106.094 758.358 106.01 758.871 106.01C759.263 106.01 759.632 106.052 759.977 106.136C760.332 106.22 760.658 106.355 760.957 106.542V105.604C760.957 105.044 760.808 104.624 760.509 104.344C760.21 104.055 759.772 103.91 759.193 103.91C758.876 103.91 758.549 103.957 758.213 104.05C757.886 104.143 757.522 104.293 757.121 104.498L756.743 103.714C757.658 103.275 758.516 103.056 759.319 103.056C760.168 103.056 760.822 103.266 761.279 103.686C761.736 104.097 761.965 104.689 761.965 105.464V110H760.957V109.202C760.658 109.51 760.327 109.743 759.963 109.902C759.599 110.051 759.207 110.126 758.787 110.126ZM757.289 108.012C757.289 108.413 757.443 108.735 757.751 108.978C758.068 109.221 758.484 109.342 758.997 109.342C759.38 109.342 759.73 109.277 760.047 109.146C760.374 109.015 760.677 108.819 760.957 108.558V107.242C760.668 107.074 760.369 106.953 760.061 106.878C759.753 106.794 759.408 106.752 759.025 106.752C758.502 106.752 758.082 106.869 757.765 107.102C757.448 107.326 757.289 107.629 757.289 108.012ZM767.108 110.112C766.474 110.112 765.9 109.958 765.386 109.65C764.882 109.333 764.481 108.908 764.182 108.376C763.884 107.835 763.734 107.237 763.734 106.584C763.734 105.921 763.884 105.324 764.182 104.792C764.481 104.26 764.882 103.84 765.386 103.532C765.9 103.215 766.474 103.056 767.108 103.056C767.612 103.056 768.093 103.149 768.55 103.336C769.008 103.523 769.404 103.784 769.74 104.12L769.082 104.834C768.84 104.563 768.546 104.353 768.2 104.204C767.855 104.055 767.505 103.98 767.15 103.98C766.702 103.98 766.296 104.097 765.932 104.33C765.578 104.563 765.293 104.876 765.078 105.268C764.864 105.66 764.756 106.099 764.756 106.584C764.756 107.069 764.864 107.508 765.078 107.9C765.293 108.292 765.578 108.605 765.932 108.838C766.296 109.071 766.702 109.188 767.15 109.188C767.505 109.188 767.855 109.113 768.2 108.964C768.546 108.805 768.84 108.595 769.082 108.334L769.74 109.048C769.404 109.384 769.008 109.645 768.55 109.832C768.093 110.019 767.612 110.112 767.108 110.112ZM774.026 110.112C773.391 110.112 772.817 109.958 772.304 109.65C771.8 109.333 771.399 108.908 771.1 108.376C770.801 107.835 770.652 107.237 770.652 106.584C770.652 105.921 770.801 105.324 771.1 104.792C771.399 104.26 771.8 103.84 772.304 103.532C772.817 103.215 773.391 103.056 774.026 103.056C774.53 103.056 775.011 103.149 775.468 103.336C775.925 103.523 776.322 103.784 776.658 104.12L776 104.834C775.757 104.563 775.463 104.353 775.118 104.204C774.773 104.055 774.423 103.98 774.068 103.98C773.62 103.98 773.214 104.097 772.85 104.33C772.495 104.563 772.211 104.876 771.996 105.268C771.781 105.66 771.674 106.099 771.674 106.584C771.674 107.069 771.781 107.508 771.996 107.9C772.211 108.292 772.495 108.605 772.85 108.838C773.214 109.071 773.62 109.188 774.068 109.188C774.423 109.188 774.773 109.113 775.118 108.964C775.463 108.805 775.757 108.595 776 108.334L776.658 109.048C776.322 109.384 775.925 109.645 775.468 109.832C775.011 110.019 774.53 110.112 774.026 110.112ZM780.902 110.112C780.267 110.112 779.698 109.958 779.194 109.65C778.69 109.342 778.293 108.922 778.004 108.39C777.715 107.858 777.57 107.256 777.57 106.584C777.57 105.912 777.715 105.31 778.004 104.778C778.293 104.246 778.69 103.826 779.194 103.518C779.698 103.21 780.267 103.056 780.902 103.056C781.527 103.056 782.087 103.21 782.582 103.518C783.086 103.826 783.483 104.246 783.772 104.778C784.061 105.31 784.206 105.912 784.206 106.584C784.206 107.256 784.061 107.858 783.772 108.39C783.483 108.922 783.086 109.342 782.582 109.65C782.087 109.958 781.527 110.112 780.902 110.112ZM780.888 109.216C781.336 109.216 781.733 109.104 782.078 108.88C782.423 108.647 782.694 108.329 782.89 107.928C783.095 107.527 783.198 107.079 783.198 106.584C783.198 106.08 783.095 105.632 782.89 105.24C782.694 104.839 782.423 104.526 782.078 104.302C781.733 104.069 781.336 103.952 780.888 103.952C780.44 103.952 780.043 104.069 779.698 104.302C779.353 104.526 779.077 104.839 778.872 105.24C778.676 105.632 778.578 106.08 778.578 106.584C778.578 107.079 778.676 107.527 778.872 107.928C779.077 108.329 779.353 108.647 779.698 108.88C780.043 109.104 780.44 109.216 780.888 109.216ZM788.435 110.112C787.95 110.112 787.521 110.005 787.147 109.79C786.774 109.575 786.48 109.277 786.265 108.894C786.06 108.511 785.957 108.073 785.957 107.578V103.168H786.993V107.284C786.993 107.891 787.157 108.371 787.483 108.726C787.81 109.081 788.253 109.258 788.813 109.258C789.196 109.258 789.537 109.169 789.835 108.992C790.143 108.815 790.4 108.558 790.605 108.222V103.168H791.627V110H790.605V108.894C790.344 109.295 790.031 109.599 789.667 109.804C789.313 110.009 788.902 110.112 788.435 110.112ZM793.724 110V103.168H794.746V104.274C795.007 103.863 795.32 103.56 795.684 103.364C796.048 103.159 796.458 103.056 796.916 103.056C797.41 103.056 797.84 103.163 798.204 103.378C798.577 103.583 798.866 103.877 799.072 104.26C799.286 104.633 799.394 105.072 799.394 105.576V110H798.372V105.87C798.372 105.263 798.204 104.787 797.868 104.442C797.541 104.087 797.098 103.91 796.538 103.91C796.164 103.91 795.824 103.999 795.516 104.176C795.208 104.353 794.951 104.615 794.746 104.96V110H793.724ZM803.847 110.14C803.259 110.14 802.811 110 802.503 109.72C802.205 109.431 802.055 109.015 802.055 108.474V104.008H800.641V103.168H802.055V101.292L803.077 101.054V103.168H805.037V104.008H803.077V108.208C803.077 108.572 803.152 108.833 803.301 108.992C803.46 109.151 803.717 109.23 804.071 109.23C804.249 109.23 804.407 109.216 804.547 109.188C804.687 109.16 804.851 109.113 805.037 109.048V109.958C804.851 110.023 804.655 110.07 804.449 110.098C804.244 110.126 804.043 110.14 803.847 110.14ZM812.868 110.112C812.233 110.112 811.659 109.958 811.146 109.65C810.642 109.333 810.241 108.908 809.942 108.376C809.643 107.835 809.494 107.237 809.494 106.584C809.494 105.921 809.643 105.324 809.942 104.792C810.241 104.26 810.642 103.84 811.146 103.532C811.659 103.215 812.233 103.056 812.868 103.056C813.372 103.056 813.853 103.149 814.31 103.336C814.767 103.523 815.164 103.784 815.5 104.12L814.842 104.834C814.599 104.563 814.305 104.353 813.96 104.204C813.615 104.055 813.265 103.98 812.91 103.98C812.462 103.98 812.056 104.097 811.692 104.33C811.337 104.563 811.053 104.876 810.838 105.268C810.623 105.66 810.516 106.099 810.516 106.584C810.516 107.069 810.623 107.508 810.838 107.9C811.053 108.292 811.337 108.605 811.692 108.838C812.056 109.071 812.462 109.188 812.91 109.188C813.265 109.188 813.615 109.113 813.96 108.964C814.305 108.805 814.599 108.595 814.842 108.334L815.5 109.048C815.164 109.384 814.767 109.645 814.31 109.832C813.853 110.019 813.372 110.112 812.868 110.112ZM819.039 110.126C818.554 110.126 818.124 110.037 817.751 109.86C817.378 109.683 817.084 109.44 816.869 109.132C816.664 108.815 816.561 108.451 816.561 108.04C816.561 107.629 816.668 107.275 816.883 106.976C817.098 106.668 817.396 106.43 817.779 106.262C818.162 106.094 818.61 106.01 819.123 106.01C819.515 106.01 819.884 106.052 820.229 106.136C820.584 106.22 820.91 106.355 821.209 106.542V105.604C821.209 105.044 821.06 104.624 820.761 104.344C820.462 104.055 820.024 103.91 819.445 103.91C819.128 103.91 818.801 103.957 818.465 104.05C818.138 104.143 817.774 104.293 817.373 104.498L816.995 103.714C817.91 103.275 818.768 103.056 819.571 103.056C820.42 103.056 821.074 103.266 821.531 103.686C821.988 104.097 822.217 104.689 822.217 105.464V110H821.209V109.202C820.91 109.51 820.579 109.743 820.215 109.902C819.851 110.051 819.459 110.126 819.039 110.126ZM817.541 108.012C817.541 108.413 817.695 108.735 818.003 108.978C818.32 109.221 818.736 109.342 819.249 109.342C819.632 109.342 819.982 109.277 820.299 109.146C820.626 109.015 820.929 108.819 821.209 108.558V107.242C820.92 107.074 820.621 106.953 820.313 106.878C820.005 106.794 819.66 106.752 819.277 106.752C818.754 106.752 818.334 106.869 818.017 107.102C817.7 107.326 817.541 107.629 817.541 108.012ZM824.294 110V103.168H825.316V104.274C825.577 103.863 825.89 103.56 826.254 103.364C826.618 103.159 827.029 103.056 827.486 103.056C827.981 103.056 828.41 103.163 828.774 103.378C829.147 103.583 829.437 103.877 829.642 104.26C829.857 104.633 829.964 105.072 829.964 105.576V110H828.942V105.87C828.942 105.263 828.774 104.787 828.438 104.442C828.111 104.087 827.668 103.91 827.108 103.91C826.735 103.91 826.394 103.999 826.086 104.176C825.778 104.353 825.521 104.615 825.316 104.96V110H824.294ZM832.019 110V103.168H833.041V104.274C833.302 103.863 833.615 103.56 833.979 103.364C834.343 103.159 834.753 103.056 835.211 103.056C835.705 103.056 836.135 103.163 836.499 103.378C836.872 103.583 837.161 103.877 837.367 104.26C837.581 104.633 837.689 105.072 837.689 105.576V110H836.667V105.87C836.667 105.263 836.499 104.787 836.163 104.442C835.836 104.087 835.393 103.91 834.833 103.91C834.459 103.91 834.119 103.999 833.811 104.176C833.503 104.353 833.246 104.615 833.041 104.96V110H832.019ZM842.767 110.112C842.133 110.112 841.563 109.958 841.059 109.65C840.555 109.342 840.159 108.922 839.869 108.39C839.58 107.858 839.435 107.256 839.435 106.584C839.435 105.912 839.58 105.31 839.869 104.778C840.159 104.246 840.555 103.826 841.059 103.518C841.563 103.21 842.133 103.056 842.767 103.056C843.393 103.056 843.953 103.21 844.447 103.518C844.951 103.826 845.348 104.246 845.637 104.778C845.927 105.31 846.071 105.912 846.071 106.584C846.071 107.256 845.927 107.858 845.637 108.39C845.348 108.922 844.951 109.342 844.447 109.65C843.953 109.958 843.393 110.112 842.767 110.112ZM842.753 109.216C843.201 109.216 843.598 109.104 843.943 108.88C844.289 108.647 844.559 108.329 844.755 107.928C844.961 107.527 845.063 107.079 845.063 106.584C845.063 106.08 844.961 105.632 844.755 105.24C844.559 104.839 844.289 104.526 843.943 104.302C843.598 104.069 843.201 103.952 842.753 103.952C842.305 103.952 841.909 104.069 841.563 104.302C841.218 104.526 840.943 104.839 840.737 105.24C840.541 105.632 840.443 106.08 840.443 106.584C840.443 107.079 840.541 107.527 840.737 107.928C840.943 108.329 841.218 108.647 841.563 108.88C841.909 109.104 842.305 109.216 842.753 109.216ZM850.045 110.14C849.457 110.14 849.009 110 848.701 109.72C848.402 109.431 848.253 109.015 848.253 108.474V104.008H846.839V103.168H848.253V101.292L849.275 101.054V103.168H851.235V104.008H849.275V108.208C849.275 108.572 849.349 108.833 849.499 108.992C849.657 109.151 849.914 109.23 850.269 109.23C850.446 109.23 850.605 109.216 850.745 109.188C850.885 109.16 851.048 109.113 851.235 109.048V109.958C851.048 110.023 850.852 110.07 850.647 110.098C850.441 110.126 850.241 110.14 850.045 110.14ZM855.999 110V99.99L857.021 99.78V104.106C857.283 103.779 857.6 103.527 857.973 103.35C858.347 103.173 858.762 103.084 859.219 103.084C859.817 103.084 860.349 103.243 860.815 103.56C861.291 103.868 861.669 104.288 861.949 104.82C862.229 105.343 862.369 105.931 862.369 106.584C862.369 107.237 862.225 107.83 861.935 108.362C861.655 108.894 861.273 109.319 860.787 109.636C860.311 109.944 859.77 110.098 859.163 110.098C858.734 110.098 858.333 110.014 857.959 109.846C857.595 109.669 857.278 109.421 857.007 109.104V110H855.999ZM858.967 109.216C859.425 109.216 859.831 109.104 860.185 108.88C860.549 108.647 860.834 108.334 861.039 107.942C861.254 107.541 861.361 107.093 861.361 106.598C861.361 106.094 861.254 105.646 861.039 105.254C860.834 104.862 860.549 104.554 860.185 104.33C859.831 104.097 859.425 103.98 858.967 103.98C858.566 103.98 858.193 104.064 857.847 104.232C857.511 104.391 857.236 104.619 857.021 104.918V108.264C857.245 108.563 857.525 108.796 857.861 108.964C858.207 109.132 858.575 109.216 858.967 109.216ZM867.241 110.14C866.607 110.14 866.033 109.986 865.519 109.678C865.006 109.361 864.6 108.936 864.301 108.404C864.003 107.863 863.853 107.256 863.853 106.584C863.853 105.912 863.993 105.31 864.273 104.778C864.563 104.246 864.95 103.826 865.435 103.518C865.921 103.21 866.462 103.056 867.059 103.056C867.666 103.056 868.203 103.21 868.669 103.518C869.145 103.817 869.519 104.227 869.789 104.75C870.069 105.263 870.209 105.847 870.209 106.5V106.808H864.847C864.885 107.275 865.011 107.695 865.225 108.068C865.449 108.432 865.739 108.721 866.093 108.936C866.457 109.141 866.854 109.244 867.283 109.244C867.638 109.244 867.979 109.183 868.305 109.062C868.641 108.931 868.926 108.759 869.159 108.544L869.803 109.23C869.411 109.538 869.005 109.767 868.585 109.916C868.165 110.065 867.717 110.14 867.241 110.14ZM864.875 106.08H869.201C869.155 105.669 869.029 105.305 868.823 104.988C868.627 104.661 868.375 104.405 868.067 104.218C867.769 104.031 867.433 103.938 867.059 103.938C866.686 103.938 866.345 104.031 866.037 104.218C865.729 104.395 865.473 104.647 865.267 104.974C865.071 105.291 864.941 105.66 864.875 106.08ZM877.658 110.112C877.173 110.112 876.743 110.005 876.37 109.79C875.997 109.575 875.703 109.277 875.488 108.894C875.283 108.511 875.18 108.073 875.18 107.578V103.168H876.216V107.284C876.216 107.891 876.379 108.371 876.706 108.726C877.033 109.081 877.476 109.258 878.036 109.258C878.419 109.258 878.759 109.169 879.058 108.992C879.366 108.815 879.623 108.558 879.828 108.222V103.168H880.85V110H879.828V108.894C879.567 109.295 879.254 109.599 878.89 109.804C878.535 110.009 878.125 110.112 877.658 110.112ZM882.946 112.926V103.168H883.954V104.148C884.216 103.803 884.533 103.541 884.906 103.364C885.289 103.177 885.709 103.084 886.166 103.084C886.764 103.084 887.296 103.243 887.762 103.56C888.238 103.868 888.616 104.288 888.896 104.82C889.176 105.343 889.316 105.931 889.316 106.584C889.316 107.237 889.172 107.83 888.882 108.362C888.602 108.894 888.22 109.319 887.734 109.636C887.258 109.944 886.717 110.098 886.11 110.098C885.681 110.098 885.284 110.019 884.92 109.86C884.556 109.692 884.239 109.454 883.968 109.146V112.926H882.946ZM885.914 109.216C886.372 109.216 886.778 109.104 887.132 108.88C887.496 108.647 887.781 108.334 887.986 107.942C888.201 107.541 888.308 107.093 888.308 106.598C888.308 106.094 888.201 105.646 887.986 105.254C887.781 104.862 887.496 104.554 887.132 104.33C886.778 104.097 886.372 103.98 885.914 103.98C885.513 103.98 885.14 104.064 884.794 104.232C884.458 104.391 884.183 104.619 883.968 104.918V108.264C884.192 108.563 884.472 108.796 884.808 108.964C885.154 109.132 885.522 109.216 885.914 109.216ZM893.951 110.098C893.363 110.098 892.831 109.944 892.355 109.636C891.879 109.319 891.501 108.899 891.221 108.376C890.941 107.844 890.801 107.251 890.801 106.598C890.801 105.935 890.941 105.343 891.221 104.82C891.51 104.288 891.897 103.868 892.383 103.56C892.868 103.243 893.409 103.084 894.007 103.084C894.427 103.084 894.819 103.168 895.183 103.336C895.547 103.495 895.864 103.728 896.135 104.036V99.892L897.157 99.682V110H896.135V109.09C895.873 109.417 895.556 109.669 895.183 109.846C894.809 110.014 894.399 110.098 893.951 110.098ZM894.203 109.202C894.604 109.202 894.973 109.123 895.309 108.964C895.645 108.805 895.92 108.581 896.135 108.292V104.904C895.911 104.615 895.626 104.391 895.281 104.232C894.945 104.064 894.585 103.98 894.203 103.98C893.745 103.98 893.335 104.092 892.971 104.316C892.616 104.54 892.331 104.848 892.117 105.24C891.911 105.632 891.809 106.08 891.809 106.584C891.809 107.079 891.911 107.527 892.117 107.928C892.331 108.32 892.616 108.633 892.971 108.866C893.335 109.09 893.745 109.202 894.203 109.202ZM901.371 110.126C900.886 110.126 900.456 110.037 900.083 109.86C899.71 109.683 899.416 109.44 899.201 109.132C898.996 108.815 898.893 108.451 898.893 108.04C898.893 107.629 899 107.275 899.215 106.976C899.43 106.668 899.728 106.43 900.111 106.262C900.494 106.094 900.942 106.01 901.455 106.01C901.847 106.01 902.216 106.052 902.561 106.136C902.916 106.22 903.242 106.355 903.541 106.542V105.604C903.541 105.044 903.392 104.624 903.093 104.344C902.794 104.055 902.356 103.91 901.777 103.91C901.46 103.91 901.133 103.957 900.797 104.05C900.47 104.143 900.106 104.293 899.705 104.498L899.327 103.714C900.242 103.275 901.1 103.056 901.903 103.056C902.752 103.056 903.406 103.266 903.863 103.686C904.32 104.097 904.549 104.689 904.549 105.464V110H903.541V109.202C903.242 109.51 902.911 109.743 902.547 109.902C902.183 110.051 901.791 110.126 901.371 110.126ZM899.873 108.012C899.873 108.413 900.027 108.735 900.335 108.978C900.652 109.221 901.068 109.342 901.581 109.342C901.964 109.342 902.314 109.277 902.631 109.146C902.958 109.015 903.261 108.819 903.541 108.558V107.242C903.252 107.074 902.953 106.953 902.645 106.878C902.337 106.794 901.992 106.752 901.609 106.752C901.086 106.752 900.666 106.869 900.349 107.102C900.032 107.326 899.873 107.629 899.873 108.012ZM909.025 110.14C908.437 110.14 907.989 110 907.681 109.72C907.382 109.431 907.233 109.015 907.233 108.474V104.008H905.819V103.168H907.233V101.292L908.255 101.054V103.168H910.215V104.008H908.255V108.208C908.255 108.572 908.33 108.833 908.479 108.992C908.638 109.151 908.894 109.23 909.249 109.23C909.426 109.23 909.585 109.216 909.725 109.188C909.865 109.16 910.028 109.113 910.215 109.048V109.958C910.028 110.023 909.832 110.07 909.627 110.098C909.422 110.126 909.221 110.14 909.025 110.14ZM914.655 110.14C914.021 110.14 913.447 109.986 912.933 109.678C912.42 109.361 912.014 108.936 911.715 108.404C911.417 107.863 911.267 107.256 911.267 106.584C911.267 105.912 911.407 105.31 911.687 104.778C911.977 104.246 912.364 103.826 912.849 103.518C913.335 103.21 913.876 103.056 914.473 103.056C915.08 103.056 915.617 103.21 916.083 103.518C916.559 103.817 916.933 104.227 917.203 104.75C917.483 105.263 917.623 105.847 917.623 106.5V106.808H912.261C912.299 107.275 912.425 107.695 912.639 108.068C912.863 108.432 913.153 108.721 913.507 108.936C913.871 109.141 914.268 109.244 914.697 109.244C915.052 109.244 915.393 109.183 915.719 109.062C916.055 108.931 916.34 108.759 916.573 108.544L917.217 109.23C916.825 109.538 916.419 109.767 915.999 109.916C915.579 110.065 915.131 110.14 914.655 110.14ZM912.289 106.08H916.615C916.569 105.669 916.443 105.305 916.237 104.988C916.041 104.661 915.789 104.405 915.481 104.218C915.183 104.031 914.847 103.938 914.473 103.938C914.1 103.938 913.759 104.031 913.451 104.218C913.143 104.395 912.887 104.647 912.681 104.974C912.485 105.291 912.355 105.66 912.289 106.08ZM922.21 110.098C921.622 110.098 921.09 109.944 920.614 109.636C920.138 109.319 919.76 108.899 919.48 108.376C919.2 107.844 919.06 107.251 919.06 106.598C919.06 105.935 919.2 105.343 919.48 104.82C919.77 104.288 920.157 103.868 920.642 103.56C921.128 103.243 921.669 103.084 922.266 103.084C922.686 103.084 923.078 103.168 923.442 103.336C923.806 103.495 924.124 103.728 924.394 104.036V99.892L925.416 99.682V110H924.394V109.09C924.133 109.417 923.816 109.669 923.442 109.846C923.069 110.014 922.658 110.098 922.21 110.098ZM922.462 109.202C922.864 109.202 923.232 109.123 923.568 108.964C923.904 108.805 924.18 108.581 924.394 108.292V104.904C924.17 104.615 923.886 104.391 923.54 104.232C923.204 104.064 922.845 103.98 922.462 103.98C922.005 103.98 921.594 104.092 921.23 104.316C920.876 104.54 920.591 104.848 920.376 105.24C920.171 105.632 920.068 106.08 920.068 106.584C920.068 107.079 920.171 107.527 920.376 107.928C920.591 108.32 920.876 108.633 921.23 108.866C921.594 109.09 922.005 109.202 922.462 109.202ZM933.626 110.098C933.038 110.098 932.506 109.944 932.03 109.636C931.554 109.319 931.176 108.899 930.896 108.376C930.616 107.844 930.476 107.251 930.476 106.598C930.476 105.935 930.616 105.343 930.896 104.82C931.186 104.288 931.573 103.868 932.058 103.56C932.544 103.243 933.085 103.084 933.682 103.084C934.102 103.084 934.494 103.168 934.858 103.336C935.222 103.495 935.54 103.728 935.81 104.036V99.892L936.832 99.682V110H935.81V109.09C935.549 109.417 935.232 109.669 934.858 109.846C934.485 110.014 934.074 110.098 933.626 110.098ZM933.878 109.202C934.28 109.202 934.648 109.123 934.984 108.964C935.32 108.805 935.596 108.581 935.81 108.292V104.904C935.586 104.615 935.302 104.391 934.956 104.232C934.62 104.064 934.261 103.98 933.878 103.98C933.421 103.98 933.01 104.092 932.646 104.316C932.292 104.54 932.007 104.848 931.792 105.24C931.587 105.632 931.484 106.08 931.484 106.584C931.484 107.079 931.587 107.527 931.792 107.928C932.007 108.32 932.292 108.633 932.646 108.866C933.01 109.09 933.421 109.202 933.878 109.202ZM941.369 110.112C940.883 110.112 940.454 110.005 940.081 109.79C939.707 109.575 939.413 109.277 939.199 108.894C938.993 108.511 938.891 108.073 938.891 107.578V103.168H939.927V107.284C939.927 107.891 940.09 108.371 940.417 108.726C940.743 109.081 941.187 109.258 941.747 109.258C942.129 109.258 942.47 109.169 942.769 108.992C943.077 108.815 943.333 108.558 943.539 108.222V103.168H944.561V110H943.539V108.894C943.277 109.295 942.965 109.599 942.601 109.804C942.246 110.009 941.835 110.112 941.369 110.112ZM949.737 110.14C949.103 110.14 948.529 109.986 948.015 109.678C947.502 109.361 947.096 108.936 946.797 108.404C946.499 107.863 946.349 107.256 946.349 106.584C946.349 105.912 946.489 105.31 946.769 104.778C947.059 104.246 947.446 103.826 947.931 103.518C948.417 103.21 948.958 103.056 949.555 103.056C950.162 103.056 950.699 103.21 951.165 103.518C951.641 103.817 952.015 104.227 952.285 104.75C952.565 105.263 952.705 105.847 952.705 106.5V106.808H947.343C947.381 107.275 947.507 107.695 947.721 108.068C947.945 108.432 948.235 108.721 948.589 108.936C948.953 109.141 949.35 109.244 949.779 109.244C950.134 109.244 950.475 109.183 950.801 109.062C951.137 108.931 951.422 108.759 951.655 108.544L952.299 109.23C951.907 109.538 951.501 109.767 951.081 109.916C950.661 110.065 950.213 110.14 949.737 110.14ZM947.371 106.08H951.697C951.651 105.669 951.525 105.305 951.319 104.988C951.123 104.661 950.871 104.405 950.563 104.218C950.265 104.031 949.929 103.938 949.555 103.938C949.182 103.938 948.841 104.031 948.533 104.218C948.225 104.395 947.969 104.647 947.763 104.974C947.567 105.291 947.437 105.66 947.371 106.08ZM960.322 110.14C959.734 110.14 959.286 110 958.978 109.72C958.679 109.431 958.53 109.015 958.53 108.474V104.008H957.116V103.168H958.53V101.292L959.552 101.054V103.168H961.512V104.008H959.552V108.208C959.552 108.572 959.627 108.833 959.776 108.992C959.935 109.151 960.191 109.23 960.546 109.23C960.723 109.23 960.882 109.216 961.022 109.188C961.162 109.16 961.325 109.113 961.512 109.048V109.958C961.325 110.023 961.129 110.07 960.924 110.098C960.719 110.126 960.518 110.14 960.322 110.14ZM965.896 110.112C965.262 110.112 964.692 109.958 964.188 109.65C963.684 109.342 963.288 108.922 962.998 108.39C962.709 107.858 962.564 107.256 962.564 106.584C962.564 105.912 962.709 105.31 962.998 104.778C963.288 104.246 963.684 103.826 964.188 103.518C964.692 103.21 965.262 103.056 965.896 103.056C966.522 103.056 967.082 103.21 967.576 103.518C968.08 103.826 968.477 104.246 968.766 104.778C969.056 105.31 969.2 105.912 969.2 106.584C969.2 107.256 969.056 107.858 968.766 108.39C968.477 108.922 968.08 109.342 967.576 109.65C967.082 109.958 966.522 110.112 965.896 110.112ZM965.882 109.216C966.33 109.216 966.727 109.104 967.072 108.88C967.418 108.647 967.688 108.329 967.884 107.928C968.09 107.527 968.192 107.079 968.192 106.584C968.192 106.08 968.09 105.632 967.884 105.24C967.688 104.839 967.418 104.526 967.072 104.302C966.727 104.069 966.33 103.952 965.882 103.952C965.434 103.952 965.038 104.069 964.692 104.302C964.347 104.526 964.072 104.839 963.866 105.24C963.67 105.632 963.572 106.08 963.572 106.584C963.572 107.079 963.67 107.527 963.866 107.928C964.072 108.329 964.347 108.647 964.692 108.88C965.038 109.104 965.434 109.216 965.882 109.216ZM976.375 110.126C975.89 110.126 975.46 110.037 975.087 109.86C974.714 109.683 974.42 109.44 974.205 109.132C974 108.815 973.897 108.451 973.897 108.04C973.897 107.629 974.004 107.275 974.219 106.976C974.434 106.668 974.732 106.43 975.115 106.262C975.498 106.094 975.946 106.01 976.459 106.01C976.851 106.01 977.22 106.052 977.565 106.136C977.92 106.22 978.246 106.355 978.545 106.542V105.604C978.545 105.044 978.396 104.624 978.097 104.344C977.798 104.055 977.36 103.91 976.781 103.91C976.464 103.91 976.137 103.957 975.801 104.05C975.474 104.143 975.11 104.293 974.709 104.498L974.331 103.714C975.246 103.275 976.104 103.056 976.907 103.056C977.756 103.056 978.41 103.266 978.867 103.686C979.324 104.097 979.553 104.689 979.553 105.464V110H978.545V109.202C978.246 109.51 977.915 109.743 977.551 109.902C977.187 110.051 976.795 110.126 976.375 110.126ZM974.877 108.012C974.877 108.413 975.031 108.735 975.339 108.978C975.656 109.221 976.072 109.342 976.585 109.342C976.968 109.342 977.318 109.277 977.635 109.146C977.962 109.015 978.265 108.819 978.545 108.558V107.242C978.256 107.074 977.957 106.953 977.649 106.878C977.341 106.794 976.996 106.752 976.613 106.752C976.09 106.752 975.67 106.869 975.353 107.102C975.036 107.326 974.877 107.629 974.877 108.012ZM987.012 110.14C986.452 110.14 985.934 110.056 985.458 109.888C984.982 109.711 984.576 109.459 984.24 109.132L984.786 108.46C985.196 108.759 985.574 108.978 985.92 109.118C986.265 109.249 986.62 109.314 986.984 109.314C987.478 109.314 987.889 109.197 988.216 108.964C988.542 108.731 988.706 108.432 988.706 108.068C988.706 107.788 988.608 107.569 988.412 107.41C988.225 107.251 987.912 107.13 987.474 107.046L986.354 106.85C985.691 106.729 985.201 106.523 984.884 106.234C984.576 105.945 984.422 105.553 984.422 105.058C984.422 104.666 984.524 104.321 984.73 104.022C984.944 103.723 985.238 103.49 985.612 103.322C985.985 103.145 986.41 103.056 986.886 103.056C987.352 103.056 987.796 103.126 988.216 103.266C988.636 103.397 989.06 103.611 989.49 103.91L988.986 104.624C988.631 104.372 988.276 104.19 987.922 104.078C987.567 103.957 987.208 103.896 986.844 103.896C986.396 103.896 986.036 103.994 985.766 104.19C985.495 104.386 985.36 104.652 985.36 104.988C985.36 105.268 985.444 105.483 985.612 105.632C985.789 105.781 986.097 105.893 986.536 105.968L987.684 106.178C988.374 106.299 988.878 106.509 989.196 106.808C989.513 107.107 989.672 107.508 989.672 108.012C989.672 108.413 989.555 108.777 989.322 109.104C989.088 109.421 988.771 109.673 988.37 109.86C987.968 110.047 987.516 110.14 987.012 110.14ZM994.376 110.14C993.741 110.14 993.167 109.986 992.654 109.678C992.141 109.361 991.735 108.936 991.436 108.404C991.137 107.863 990.988 107.256 990.988 106.584C990.988 105.912 991.128 105.31 991.408 104.778C991.697 104.246 992.085 103.826 992.57 103.518C993.055 103.21 993.597 103.056 994.194 103.056C994.801 103.056 995.337 103.21 995.804 103.518C996.28 103.817 996.653 104.227 996.924 104.75C997.204 105.263 997.344 105.847 997.344 106.5V106.808H991.982C992.019 107.275 992.145 107.695 992.36 108.068C992.584 108.432 992.873 108.721 993.228 108.936C993.592 109.141 993.989 109.244 994.418 109.244C994.773 109.244 995.113 109.183 995.44 109.062C995.776 108.931 996.061 108.759 996.294 108.544L996.938 109.23C996.546 109.538 996.14 109.767 995.72 109.916C995.3 110.065 994.852 110.14 994.376 110.14ZM992.01 106.08H996.336C996.289 105.669 996.163 105.305 995.958 104.988C995.762 104.661 995.51 104.405 995.202 104.218C994.903 104.031 994.567 103.938 994.194 103.938C993.821 103.938 993.48 104.031 993.172 104.218C992.864 104.395 992.607 104.647 992.402 104.974C992.206 105.291 992.075 105.66 992.01 106.08ZM999.089 110V103.168H1000.11V104.568C1000.29 104.092 1000.54 103.723 1000.87 103.462C1001.2 103.191 1001.59 103.056 1002.02 103.056C1002.14 103.056 1002.25 103.065 1002.35 103.084C1002.45 103.093 1002.56 103.117 1002.66 103.154V104.078C1002.55 104.041 1002.43 104.013 1002.3 103.994C1002.17 103.966 1002.06 103.952 1001.95 103.952C1001.53 103.952 1001.16 104.073 1000.84 104.316C1000.53 104.559 1000.29 104.899 1000.11 105.338V110H999.089ZM1006.18 110L1003.38 103.168H1004.48L1006.69 108.726L1008.88 103.168H1009.97L1007.16 110H1006.18ZM1014.1 110.14C1013.47 110.14 1012.9 109.986 1012.38 109.678C1011.87 109.361 1011.46 108.936 1011.16 108.404C1010.87 107.863 1010.72 107.256 1010.72 106.584C1010.72 105.912 1010.86 105.31 1011.14 104.778C1011.43 104.246 1011.81 103.826 1012.3 103.518C1012.78 103.21 1013.33 103.056 1013.92 103.056C1014.53 103.056 1015.07 103.21 1015.53 103.518C1016.01 103.817 1016.38 104.227 1016.65 104.75C1016.93 105.263 1017.07 105.847 1017.07 106.5V106.808H1011.71C1011.75 107.275 1011.87 107.695 1012.09 108.068C1012.31 108.432 1012.6 108.721 1012.96 108.936C1013.32 109.141 1013.72 109.244 1014.15 109.244C1014.5 109.244 1014.84 109.183 1015.17 109.062C1015.5 108.931 1015.79 108.759 1016.02 108.544L1016.67 109.23C1016.27 109.538 1015.87 109.767 1015.45 109.916C1015.03 110.065 1014.58 110.14 1014.1 110.14ZM1011.74 106.08H1016.06C1016.02 105.669 1015.89 105.305 1015.69 104.988C1015.49 104.661 1015.24 104.405 1014.93 104.218C1014.63 104.031 1014.3 103.938 1013.92 103.938C1013.55 103.938 1013.21 104.031 1012.9 104.218C1012.59 104.395 1012.34 104.647 1012.13 104.974C1011.93 105.291 1011.8 105.66 1011.74 106.08ZM1018.82 110V103.168H1019.84V104.568C1020.02 104.092 1020.27 103.723 1020.6 103.462C1020.93 103.191 1021.31 103.056 1021.74 103.056C1021.86 103.056 1021.98 103.065 1022.08 103.084C1022.18 103.093 1022.28 103.117 1022.39 103.154V104.078C1022.28 104.041 1022.15 104.013 1022.02 103.994C1021.9 103.966 1021.79 103.952 1021.67 103.952C1021.25 103.952 1020.88 104.073 1020.57 104.316C1020.26 104.559 1020.02 104.899 1019.84 105.338V110H1018.82ZM1030.09 110.14C1029.45 110.14 1028.88 109.986 1028.37 109.678C1027.85 109.361 1027.45 108.936 1027.15 108.404C1026.85 107.863 1026.7 107.256 1026.7 106.584C1026.7 105.912 1026.84 105.31 1027.12 104.778C1027.41 104.246 1027.8 103.826 1028.28 103.518C1028.77 103.21 1029.31 103.056 1029.91 103.056C1030.51 103.056 1031.05 103.21 1031.52 103.518C1031.99 103.817 1032.36 104.227 1032.64 104.75C1032.92 105.263 1033.06 105.847 1033.06 106.5V106.808H1027.69C1027.73 107.275 1027.86 107.695 1028.07 108.068C1028.3 108.432 1028.58 108.721 1028.94 108.936C1029.3 109.141 1029.7 109.244 1030.13 109.244C1030.48 109.244 1030.82 109.183 1031.15 109.062C1031.49 108.931 1031.77 108.759 1032.01 108.544L1032.65 109.23C1032.26 109.538 1031.85 109.767 1031.43 109.916C1031.01 110.065 1030.56 110.14 1030.09 110.14ZM1027.72 106.08H1032.05C1032 105.669 1031.87 105.305 1031.67 104.988C1031.47 104.661 1031.22 104.405 1030.91 104.218C1030.61 104.031 1030.28 103.938 1029.91 103.938C1029.53 103.938 1029.19 104.031 1028.88 104.218C1028.58 104.395 1028.32 104.647 1028.11 104.974C1027.92 105.291 1027.79 105.66 1027.72 106.08ZM1034.8 110V103.168H1035.82V104.568C1036 104.092 1036.25 103.723 1036.58 103.462C1036.91 103.191 1037.3 103.056 1037.73 103.056C1037.85 103.056 1037.96 103.065 1038.06 103.084C1038.16 103.093 1038.27 103.117 1038.37 103.154V104.078C1038.26 104.041 1038.14 104.013 1038.01 103.994C1037.88 103.966 1037.77 103.952 1037.66 103.952C1037.24 103.952 1036.87 104.073 1036.55 104.316C1036.24 104.559 1036 104.899 1035.82 105.338V110H1034.8ZM1039.72 110V103.168H1040.74V104.568C1040.92 104.092 1041.17 103.723 1041.5 103.462C1041.84 103.191 1042.22 103.056 1042.65 103.056C1042.77 103.056 1042.88 103.065 1042.98 103.084C1043.09 103.093 1043.19 103.117 1043.29 103.154V104.078C1043.18 104.041 1043.06 104.013 1042.93 103.994C1042.81 103.966 1042.69 103.952 1042.58 103.952C1042.16 103.952 1041.79 104.073 1041.47 104.316C1041.16 104.559 1040.92 104.899 1040.74 105.338V110H1039.72ZM1047.24 110.112C1046.61 110.112 1046.04 109.958 1045.54 109.65C1045.03 109.342 1044.64 108.922 1044.35 108.39C1044.06 107.858 1043.91 107.256 1043.91 106.584C1043.91 105.912 1044.06 105.31 1044.35 104.778C1044.64 104.246 1045.03 103.826 1045.54 103.518C1046.04 103.21 1046.61 103.056 1047.24 103.056C1047.87 103.056 1048.43 103.21 1048.92 103.518C1049.43 103.826 1049.82 104.246 1050.11 104.778C1050.4 105.31 1050.55 105.912 1050.55 106.584C1050.55 107.256 1050.4 107.858 1050.11 108.39C1049.82 108.922 1049.43 109.342 1048.92 109.65C1048.43 109.958 1047.87 110.112 1047.24 110.112ZM1047.23 109.216C1047.68 109.216 1048.07 109.104 1048.42 108.88C1048.77 108.647 1049.04 108.329 1049.23 107.928C1049.44 107.527 1049.54 107.079 1049.54 106.584C1049.54 106.08 1049.44 105.632 1049.23 105.24C1049.04 104.839 1048.77 104.526 1048.42 104.302C1048.07 104.069 1047.68 103.952 1047.23 103.952C1046.78 103.952 1046.39 104.069 1046.04 104.302C1045.69 104.526 1045.42 104.839 1045.21 105.24C1045.02 105.632 1044.92 106.08 1044.92 106.584C1044.92 107.079 1045.02 107.527 1045.21 107.928C1045.42 108.329 1045.69 108.647 1046.04 108.88C1046.39 109.104 1046.78 109.216 1047.23 109.216ZM1052.34 110V103.168H1053.36V104.568C1053.54 104.092 1053.79 103.723 1054.12 103.462C1054.46 103.191 1054.84 103.056 1055.27 103.056C1055.39 103.056 1055.5 103.065 1055.6 103.084C1055.71 103.093 1055.81 103.117 1055.91 103.154V104.078C1055.8 104.041 1055.68 104.013 1055.55 103.994C1055.43 103.966 1055.31 103.952 1055.2 103.952C1054.78 103.952 1054.41 104.073 1054.09 104.316C1053.78 104.559 1053.54 104.899 1053.36 105.338V110H1052.34ZM1056.91 110.112C1056.7 110.112 1056.53 110.037 1056.38 109.888C1056.24 109.739 1056.17 109.561 1056.17 109.356C1056.17 109.141 1056.24 108.964 1056.38 108.824C1056.53 108.675 1056.7 108.6 1056.91 108.6C1057.12 108.6 1057.29 108.675 1057.43 108.824C1057.58 108.964 1057.65 109.141 1057.65 109.356C1057.65 109.561 1057.58 109.739 1057.43 109.888C1057.29 110.037 1057.12 110.112 1056.91 110.112Z" fill="#151515"/>
<rect x="724.5" y="132.5" width="97" height="35" rx="2.5" stroke="#0066CC"/>
<path d="M744.32 156V145.888H740.448V144.8H749.424V145.888H745.552V156H744.32ZM750.356 156V148.192H751.524V149.792C751.727 149.248 752.015 148.827 752.388 148.528C752.772 148.219 753.21 148.064 753.7 148.064C753.839 148.064 753.967 148.075 754.084 148.096C754.202 148.107 754.319 148.133 754.436 148.176V149.232C754.308 149.189 754.17 149.157 754.02 149.136C753.882 149.104 753.748 149.088 753.62 149.088C753.14 149.088 752.719 149.227 752.356 149.504C752.004 149.781 751.727 150.171 751.524 150.672V156H750.356ZM756.474 159.504C756.228 159.504 755.978 159.467 755.722 159.392V158.352C755.828 158.373 755.94 158.389 756.058 158.4C756.175 158.411 756.276 158.416 756.362 158.416C756.66 158.416 756.906 158.336 757.098 158.176C757.3 158.016 757.471 157.765 757.61 157.424L758.186 156L755.178 148.192H756.474L758.842 154.608L761.354 148.192H762.65L758.714 157.776C758.543 158.192 758.356 158.528 758.154 158.784C757.951 159.04 757.716 159.221 757.45 159.328C757.183 159.445 756.857 159.504 756.474 159.504ZM770.257 156.144C769.702 156.144 769.211 156.043 768.785 155.84C768.358 155.637 768.022 155.36 767.777 155.008C767.542 154.645 767.425 154.229 767.425 153.76C767.425 153.291 767.547 152.885 767.793 152.544C768.038 152.192 768.379 151.92 768.817 151.728C769.254 151.536 769.766 151.44 770.353 151.44C770.801 151.44 771.222 151.488 771.617 151.584C772.022 151.68 772.395 151.835 772.737 152.048V150.976C772.737 150.336 772.566 149.856 772.225 149.536C771.883 149.205 771.382 149.04 770.721 149.04C770.358 149.04 769.985 149.093 769.601 149.2C769.227 149.307 768.811 149.477 768.353 149.712L767.921 148.816C768.966 148.315 769.947 148.064 770.865 148.064C771.835 148.064 772.582 148.304 773.105 148.784C773.627 149.253 773.889 149.931 773.889 150.816V156H772.737V155.088C772.395 155.44 772.017 155.707 771.601 155.888C771.185 156.059 770.737 156.144 770.257 156.144ZM768.545 153.728C768.545 154.187 768.721 154.555 769.073 154.832C769.435 155.109 769.91 155.248 770.497 155.248C770.934 155.248 771.334 155.173 771.697 155.024C772.07 154.875 772.417 154.651 772.737 154.352V152.848C772.406 152.656 772.065 152.517 771.713 152.432C771.361 152.336 770.966 152.288 770.529 152.288C769.931 152.288 769.451 152.421 769.089 152.688C768.726 152.944 768.545 153.291 768.545 153.728ZM779.879 159.504C779.356 159.504 778.828 159.429 778.295 159.28C777.772 159.141 777.287 158.944 776.839 158.688L777.335 157.792C777.815 158.037 778.252 158.219 778.647 158.336C779.041 158.453 779.436 158.512 779.831 158.512C780.545 158.512 781.084 158.341 781.447 158C781.82 157.659 782.007 157.163 782.007 156.512V154.944C781.708 155.317 781.345 155.605 780.919 155.808C780.492 156 780.023 156.096 779.511 156.096C778.839 156.096 778.231 155.92 777.687 155.568C777.143 155.205 776.711 154.725 776.391 154.128C776.071 153.52 775.911 152.843 775.911 152.096C775.911 151.349 776.071 150.677 776.391 150.08C776.721 149.472 777.164 148.992 777.719 148.64C778.273 148.277 778.892 148.096 779.575 148.096C780.065 148.096 780.519 148.192 780.935 148.384C781.351 148.565 781.713 148.837 782.023 149.2V148.192H783.175V156.496C783.175 157.467 782.892 158.208 782.327 158.72C781.761 159.243 780.945 159.504 779.879 159.504ZM779.799 155.088C780.257 155.088 780.679 154.997 781.063 154.816C781.447 154.624 781.761 154.363 782.007 154.032V150.176C781.751 149.845 781.425 149.589 781.031 149.408C780.647 149.216 780.236 149.12 779.799 149.12C779.276 149.12 778.807 149.248 778.391 149.504C777.985 149.76 777.66 150.112 777.414 150.56C777.18 151.008 777.062 151.52 777.062 152.096C777.062 152.661 777.18 153.173 777.414 153.632C777.66 154.08 777.985 154.437 778.391 154.704C778.807 154.96 779.276 155.088 779.799 155.088ZM787.991 156.144C787.436 156.144 786.946 156.043 786.519 155.84C786.092 155.637 785.756 155.36 785.511 155.008C785.276 154.645 785.159 154.229 785.159 153.76C785.159 153.291 785.282 152.885 785.527 152.544C785.772 152.192 786.114 151.92 786.551 151.728C786.988 151.536 787.5 151.44 788.087 151.44C788.535 151.44 788.956 151.488 789.351 151.584C789.756 151.68 790.13 151.835 790.471 152.048V150.976C790.471 150.336 790.3 149.856 789.959 149.536C789.618 149.205 789.116 149.04 788.455 149.04C788.092 149.04 787.719 149.093 787.335 149.2C786.962 149.307 786.546 149.477 786.087 149.712L785.655 148.816C786.7 148.315 787.682 148.064 788.599 148.064C789.57 148.064 790.316 148.304 790.839 148.784C791.362 149.253 791.623 149.931 791.623 150.816V156H790.471V155.088C790.13 155.44 789.751 155.707 789.335 155.888C788.919 156.059 788.471 156.144 787.991 156.144ZM786.279 153.728C786.279 154.187 786.455 154.555 786.807 154.832C787.17 155.109 787.644 155.248 788.231 155.248C788.668 155.248 789.068 155.173 789.431 155.024C789.804 154.875 790.151 154.651 790.471 154.352V152.848C790.14 152.656 789.799 152.517 789.447 152.432C789.095 152.336 788.7 152.288 788.263 152.288C787.666 152.288 787.186 152.421 786.823 152.688C786.46 152.944 786.279 153.291 786.279 153.728ZM793.981 156V148.192H795.149V156H793.981ZM794.573 146.256C794.338 146.256 794.136 146.176 793.965 146.016C793.805 145.845 793.725 145.648 793.725 145.424C793.725 145.2 793.805 145.008 793.965 144.848C794.136 144.677 794.338 144.592 794.573 144.592C794.808 144.592 795.005 144.677 795.165 144.848C795.336 145.008 795.421 145.2 795.421 145.424C795.421 145.648 795.336 145.845 795.165 146.016C795.005 146.176 794.808 146.256 794.573 146.256ZM797.544 156V148.192H798.712V149.456C799.01 148.987 799.368 148.64 799.784 148.416C800.2 148.181 800.669 148.064 801.192 148.064C801.757 148.064 802.248 148.187 802.664 148.432C803.09 148.667 803.421 149.003 803.656 149.44C803.901 149.867 804.024 150.368 804.024 150.944V156H802.856V151.28C802.856 150.587 802.664 150.043 802.28 149.648C801.906 149.243 801.4 149.04 800.76 149.04C800.333 149.04 799.944 149.141 799.592 149.344C799.24 149.547 798.946 149.845 798.712 150.24V156H797.544Z" fill="#0066CC"/>
<path d="M847.424 156V144.8H848.656V154.912H854.976V156H847.424ZM859.969 156.128C859.243 156.128 858.593 155.952 858.017 155.6C857.441 155.248 856.987 154.768 856.657 154.16C856.326 153.552 856.161 152.864 856.161 152.096C856.161 151.328 856.326 150.64 856.657 150.032C856.987 149.424 857.441 148.944 858.017 148.592C858.593 148.24 859.243 148.064 859.969 148.064C860.683 148.064 861.323 148.24 861.889 148.592C862.465 148.944 862.918 149.424 863.249 150.032C863.579 150.64 863.745 151.328 863.745 152.096C863.745 152.864 863.579 153.552 863.249 154.16C862.918 154.768 862.465 155.248 861.889 155.6C861.323 155.952 860.683 156.128 859.969 156.128ZM859.953 155.104C860.465 155.104 860.918 154.976 861.313 154.72C861.707 154.453 862.017 154.091 862.241 153.632C862.475 153.173 862.593 152.661 862.593 152.096C862.593 151.52 862.475 151.008 862.241 150.56C862.017 150.101 861.707 149.744 861.313 149.488C860.918 149.221 860.465 149.088 859.953 149.088C859.441 149.088 858.987 149.221 858.593 149.488C858.198 149.744 857.883 150.101 857.649 150.56C857.425 151.008 857.312 151.52 857.312 152.096C857.312 152.661 857.425 153.173 857.649 153.632C857.883 154.091 858.198 154.453 858.593 154.72C858.987 154.976 859.441 155.104 859.953 155.104ZM869.41 159.504C868.887 159.504 868.359 159.429 867.826 159.28C867.303 159.141 866.818 158.944 866.37 158.688L866.866 157.792C867.346 158.037 867.783 158.219 868.178 158.336C868.572 158.453 868.967 158.512 869.362 158.512C870.076 158.512 870.615 158.341 870.978 158C871.351 157.659 871.538 157.163 871.538 156.512V154.944C871.239 155.317 870.876 155.605 870.45 155.808C870.023 156 869.554 156.096 869.042 156.096C868.37 156.096 867.762 155.92 867.218 155.568C866.674 155.205 866.242 154.725 865.922 154.128C865.602 153.52 865.442 152.843 865.442 152.096C865.442 151.349 865.602 150.677 865.922 150.08C866.252 149.472 866.695 148.992 867.25 148.64C867.804 148.277 868.423 148.096 869.106 148.096C869.596 148.096 870.05 148.192 870.466 148.384C870.882 148.565 871.244 148.837 871.554 149.2V148.192H872.706V156.496C872.706 157.467 872.423 158.208 871.858 158.72C871.292 159.243 870.476 159.504 869.41 159.504ZM869.33 155.088C869.788 155.088 870.21 154.997 870.594 154.816C870.978 154.624 871.292 154.363 871.538 154.032V150.176C871.282 149.845 870.956 149.589 870.562 149.408C870.178 149.216 869.767 149.12 869.33 149.12C868.807 149.12 868.338 149.248 867.922 149.504C867.516 149.76 867.191 150.112 866.946 150.56C866.711 151.008 866.594 151.52 866.594 152.096C866.594 152.661 866.711 153.173 866.946 153.632C867.191 154.08 867.516 154.437 867.922 154.704C868.338 154.96 868.807 155.088 869.33 155.088ZM882.297 156.128C881.571 156.128 880.921 155.952 880.345 155.6C879.769 155.248 879.315 154.768 878.985 154.16C878.654 153.552 878.489 152.864 878.489 152.096C878.489 151.328 878.654 150.64 878.985 150.032C879.315 149.424 879.769 148.944 880.345 148.592C880.921 148.24 881.571 148.064 882.297 148.064C883.011 148.064 883.651 148.24 884.217 148.592C884.793 148.944 885.246 149.424 885.577 150.032C885.907 150.64 886.073 151.328 886.073 152.096C886.073 152.864 885.907 153.552 885.577 154.16C885.246 154.768 884.793 155.248 884.217 155.6C883.651 155.952 883.011 156.128 882.297 156.128ZM882.281 155.104C882.793 155.104 883.246 154.976 883.641 154.72C884.035 154.453 884.345 154.091 884.569 153.632C884.803 153.173 884.921 152.661 884.921 152.096C884.921 151.52 884.803 151.008 884.569 150.56C884.345 150.101 884.035 149.744 883.641 149.488C883.246 149.221 882.793 149.088 882.281 149.088C881.769 149.088 881.315 149.221 880.921 149.488C880.526 149.744 880.211 150.101 879.977 150.56C879.753 151.008 879.641 151.52 879.641 152.096C879.641 152.661 879.753 153.173 879.977 153.632C880.211 154.091 880.526 154.453 880.921 154.72C881.315 154.976 881.769 155.104 882.281 155.104ZM890.906 156.128C890.351 156.128 889.861 156.005 889.434 155.76C889.007 155.515 888.671 155.173 888.426 154.736C888.191 154.299 888.074 153.797 888.074 153.232V148.192H889.258V152.896C889.258 153.589 889.445 154.139 889.818 154.544C890.191 154.949 890.698 155.152 891.338 155.152C891.775 155.152 892.165 155.051 892.506 154.848C892.858 154.645 893.151 154.352 893.386 153.968V148.192H894.554V156H893.386V154.736C893.087 155.195 892.73 155.541 892.314 155.776C891.909 156.011 891.439 156.128 890.906 156.128ZM899.926 156.16C899.254 156.16 898.742 156 898.39 155.68C898.049 155.349 897.878 154.875 897.878 154.256V149.152H896.262V148.192H897.878V146.048L899.046 145.776V148.192H901.286V149.152H899.046V153.952C899.046 154.368 899.131 154.667 899.302 154.848C899.483 155.029 899.777 155.12 900.182 155.12C900.385 155.12 900.566 155.104 900.726 155.072C900.886 155.04 901.073 154.987 901.286 154.912V155.952C901.073 156.027 900.849 156.08 900.614 156.112C900.379 156.144 900.15 156.16 899.926 156.16Z" fill="#0066CC"/>
</g>
<defs>
<filter id="filter0_d_15_3383" x="668" y="40" width="440" height="168" filterUnits="userSpaceOnUse" color-interpolation-filters="sRGB">
<feFlood flood-opacity="0" result="BackgroundImageFix"/>
<feColorMatrix in="SourceAlpha" type="matrix" values="0 0 0 0 0 0 0 0 0 0 0 0 0 0 0 0 0 0 127 0" result="hardAlpha"/>
<feOffset dy="8"/>
<feGaussianBlur stdDeviation="8"/>
<feComposite in2="hardAlpha" operator="out"/>
<feColorMatrix type="matrix" values="0 0 0 0 0.0823529 0 0 0 0 0.0823529 0 0 0 0 0.0823529 0 0 0 0.3 0"/>
<feBlend mode="normal" in2="BackgroundImageFix" result="effect1_dropShadow_15_3383"/>
<feBlend mode="normal" in="SourceGraphic" in2="effect1_dropShadow_15_3383" result="shape"/>
</filter>
<clipPath id="clip0_15_3383">
<rect width="16" height="16" fill="white" transform="translate(845 334.5)"/>
</clipPath>
<clipPath id="clip1_15_3383">
<rect width="16" height="16" fill="white" transform="translate(845 234.5)"/>
</clipPath>
<clipPath id="clip2_15_3383">
<rect width="16" height="16" fill="white" transform="translate(700 68.5)"/>
</clipPath>
<clipPath id="clip3_15_3383">
<rect width="12" height="12" fill="white" transform="translate(1064 66)"/>
</clipPath>
</defs>
</svg>
