<svg width="456" height="203" viewBox="0 0 456 203" fill="none" xmlns="http://www.w3.org/2000/svg">
<g filter="url(#filter0_d_10_2131)">
<mask id="path-1-inside-1_10_2131" fill="white">
<path d="M24 124H432V179H24V124Z"/>
</mask>
<path d="M24 124H432V179H24V124Z" fill="white" shape-rendering="crispEdges"/>
<path d="M24 126H432V122H24V126Z" fill="#DCA614" mask="url(#path-1-inside-1_10_2131)"/>
<g clip-path="url(#clip0_10_2131)">
<path d="M55.7149 158.375L48.6449 146.125C48.5099 145.895 48.2649 145.75 47.9949 145.75C47.7299 145.75 47.4799 145.895 47.3449 146.125L40.2699 158.375C40.2049 158.49 40.1699 158.62 40.1699 158.75C40.1699 158.88 40.2049 159.01 40.2699 159.125C40.4049 159.355 40.6549 159.5 40.9199 159.5H55.0649C55.3299 159.5 55.5799 159.355 55.7149 159.125C55.7799 159.01 55.8149 158.88 55.8149 158.75C55.8149 158.62 55.7799 158.49 55.7149 158.375ZM47.3749 150C47.3749 149.655 47.6549 149.375 47.9999 149.375C48.3449 149.375 48.6249 149.655 48.6249 150V153.5C48.6249 153.845 48.3449 154.125 47.9999 154.125C47.6549 154.125 47.3749 153.845 47.3749 153.5V150ZM47.9999 157.75C47.5849 157.75 47.2499 157.415 47.2499 157C47.2499 156.585 47.5849 156.25 47.9999 156.25C48.4149 156.25 48.7499 156.585 48.7499 157C48.7499 157.415 48.4149 157.75 47.9999 157.75Z" fill="#DCA614"/>
</g>
<path d="M66.856 155.544H68.802C69.39 155.544 69.922 155.395 70.398 155.096C70.874 154.788 71.252 154.373 71.532 153.85C71.812 153.327 71.952 152.744 71.952 152.1C71.952 151.447 71.812 150.863 71.532 150.35C71.252 149.827 70.874 149.417 70.398 149.118C69.922 148.81 69.39 148.656 68.802 148.656H66.856V155.544ZM65.176 157V147.2H68.76C69.4693 147.2 70.1227 147.326 70.72 147.578C71.3173 147.83 71.8353 148.18 72.274 148.628C72.722 149.067 73.0673 149.585 73.31 150.182C73.5527 150.77 73.674 151.409 73.674 152.1C73.674 152.791 73.5527 153.435 73.31 154.032C73.0673 154.62 72.722 155.138 72.274 155.586C71.8353 156.025 71.3173 156.37 70.72 156.622C70.1227 156.874 69.4693 157 68.76 157H65.176ZM78.5766 157.126C77.914 157.126 77.312 156.967 76.7706 156.65C76.2386 156.333 75.8186 155.903 75.5106 155.362C75.2026 154.811 75.0486 154.191 75.0486 153.5C75.0486 152.809 75.2026 152.193 75.5106 151.652C75.8186 151.101 76.2386 150.667 76.7706 150.35C77.3026 150.033 77.9046 149.874 78.5766 149.874C79.2486 149.874 79.846 150.033 80.3686 150.35C80.9006 150.667 81.3206 151.101 81.6286 151.652C81.9366 152.193 82.0906 152.809 82.0906 153.5C82.0906 154.191 81.9366 154.811 81.6286 155.362C81.3206 155.903 80.9006 156.333 80.3686 156.65C79.846 156.967 79.2486 157.126 78.5766 157.126ZM78.5766 155.782C78.9593 155.782 79.2953 155.684 79.5846 155.488C79.8833 155.292 80.1166 155.021 80.2846 154.676C80.4526 154.321 80.5366 153.929 80.5366 153.5C80.5366 153.061 80.4526 152.674 80.2846 152.338C80.1166 151.993 79.8833 151.722 79.5846 151.526C79.2953 151.321 78.9593 151.218 78.5766 151.218C78.194 151.218 77.8533 151.321 77.5546 151.526C77.256 151.722 77.0226 151.993 76.8546 152.338C76.6866 152.674 76.6026 153.061 76.6026 153.5C76.6026 153.939 76.6866 154.331 76.8546 154.676C77.0226 155.021 77.256 155.292 77.5546 155.488C77.8533 155.684 78.194 155.782 78.5766 155.782ZM84.8194 157L82.9294 149.986H84.4414L85.6734 154.928L87.1294 149.986H88.4594L89.9014 154.928L91.1334 149.986H92.6034L90.7134 157H89.2014L87.7734 152.058L86.3594 157H84.8194ZM93.896 157V149.986H95.478V151.134C95.7487 150.714 96.0707 150.401 96.444 150.196C96.8173 149.981 97.2327 149.874 97.69 149.874C98.1753 149.874 98.6 149.981 98.964 150.196C99.328 150.401 99.6127 150.691 99.818 151.064C100.033 151.437 100.14 151.876 100.14 152.38V157H98.544V152.828C98.544 152.315 98.404 151.909 98.124 151.61C97.844 151.302 97.4707 151.148 97.004 151.148C96.6867 151.148 96.3973 151.223 96.136 151.372C95.884 151.512 95.6647 151.722 95.478 152.002V157H93.896ZM102.044 157V146.962L103.626 146.682V157H102.044ZM108.778 157.126C108.115 157.126 107.513 156.967 106.972 156.65C106.44 156.333 106.02 155.903 105.712 155.362C105.404 154.811 105.25 154.191 105.25 153.5C105.25 152.809 105.404 152.193 105.712 151.652C106.02 151.101 106.44 150.667 106.972 150.35C107.504 150.033 108.106 149.874 108.778 149.874C109.45 149.874 110.047 150.033 110.57 150.35C111.102 150.667 111.522 151.101 111.83 151.652C112.138 152.193 112.292 152.809 112.292 153.5C112.292 154.191 112.138 154.811 111.83 155.362C111.522 155.903 111.102 156.333 110.57 156.65C110.047 156.967 109.45 157.126 108.778 157.126ZM108.778 155.782C109.16 155.782 109.496 155.684 109.786 155.488C110.084 155.292 110.318 155.021 110.486 154.676C110.654 154.321 110.738 153.929 110.738 153.5C110.738 153.061 110.654 152.674 110.486 152.338C110.318 151.993 110.084 151.722 109.786 151.526C109.496 151.321 109.16 151.218 108.778 151.218C108.395 151.218 108.054 151.321 107.756 151.526C107.457 151.722 107.224 151.993 107.056 152.338C106.888 152.674 106.804 153.061 106.804 153.5C106.804 153.939 106.888 154.331 107.056 154.676C107.224 155.021 107.457 155.292 107.756 155.488C108.054 155.684 108.395 155.782 108.778 155.782ZM116.122 157.126C115.636 157.126 115.202 157.037 114.82 156.86C114.446 156.673 114.152 156.421 113.938 156.104C113.732 155.777 113.63 155.404 113.63 154.984C113.63 154.564 113.737 154.2 113.952 153.892C114.176 153.584 114.488 153.346 114.89 153.178C115.291 153.01 115.767 152.926 116.318 152.926C116.644 152.926 116.966 152.963 117.284 153.038C117.601 153.103 117.909 153.215 118.208 153.374V152.59C118.208 152.123 118.072 151.773 117.802 151.54C117.54 151.307 117.139 151.19 116.598 151.19C116.308 151.19 115.996 151.237 115.66 151.33C115.333 151.414 114.964 151.549 114.554 151.736L113.994 150.588C115.02 150.112 115.991 149.874 116.906 149.874C117.82 149.874 118.525 150.098 119.02 150.546C119.524 150.985 119.776 151.61 119.776 152.422V157H118.208V156.272C117.909 156.561 117.587 156.776 117.242 156.916C116.896 157.056 116.523 157.126 116.122 157.126ZM115.114 154.956C115.114 155.283 115.244 155.539 115.506 155.726C115.767 155.913 116.117 156.006 116.556 156.006C116.873 156.006 117.167 155.959 117.438 155.866C117.718 155.763 117.974 155.614 118.208 155.418V154.284C117.965 154.172 117.713 154.088 117.452 154.032C117.19 153.976 116.906 153.948 116.598 153.948C116.14 153.948 115.776 154.037 115.506 154.214C115.244 154.391 115.114 154.639 115.114 154.956ZM124.533 157.07C123.945 157.07 123.413 156.911 122.937 156.594C122.461 156.267 122.078 155.838 121.789 155.306C121.509 154.765 121.369 154.163 121.369 153.5C121.369 152.828 121.514 152.226 121.803 151.694C122.092 151.153 122.484 150.723 122.979 150.406C123.483 150.089 124.038 149.93 124.645 149.93C125.046 149.93 125.42 150.009 125.765 150.168C126.12 150.317 126.428 150.541 126.689 150.84V146.962L128.271 146.682V157H126.703V156.076C126.451 156.393 126.138 156.641 125.765 156.818C125.392 156.986 124.981 157.07 124.533 157.07ZM125.023 155.74C125.359 155.74 125.672 155.675 125.961 155.544C126.25 155.404 126.493 155.213 126.689 154.97V152.016C126.484 151.773 126.236 151.587 125.947 151.456C125.658 151.325 125.35 151.26 125.023 151.26C124.622 151.26 124.262 151.358 123.945 151.554C123.637 151.741 123.39 152.002 123.203 152.338C123.016 152.674 122.923 153.061 122.923 153.5C122.923 153.92 123.016 154.303 123.203 154.648C123.39 154.984 123.637 155.25 123.945 155.446C124.262 155.642 124.622 155.74 125.023 155.74ZM136.6 157.126C135.938 157.126 135.336 156.967 134.794 156.65C134.262 156.323 133.838 155.885 133.52 155.334C133.212 154.783 133.058 154.172 133.058 153.5C133.058 152.819 133.212 152.207 133.52 151.666C133.838 151.115 134.262 150.681 134.794 150.364C135.336 150.037 135.938 149.874 136.6 149.874C137.142 149.874 137.655 149.977 138.14 150.182C138.635 150.387 139.055 150.681 139.4 151.064L138.42 152.086C138.178 151.815 137.907 151.61 137.608 151.47C137.31 151.33 136.992 151.26 136.656 151.26C136.274 151.26 135.928 151.363 135.62 151.568C135.322 151.764 135.084 152.03 134.906 152.366C134.729 152.702 134.64 153.08 134.64 153.5C134.64 153.92 134.729 154.303 134.906 154.648C135.084 154.984 135.322 155.25 135.62 155.446C135.928 155.642 136.274 155.74 136.656 155.74C136.992 155.74 137.31 155.67 137.608 155.53C137.907 155.39 138.178 155.189 138.42 154.928L139.4 155.936C139.055 156.319 138.635 156.613 138.14 156.818C137.655 157.023 137.142 157.126 136.6 157.126ZM143.709 157.126C143.047 157.126 142.445 156.967 141.903 156.65C141.371 156.333 140.951 155.903 140.643 155.362C140.335 154.811 140.181 154.191 140.181 153.5C140.181 152.809 140.335 152.193 140.643 151.652C140.951 151.101 141.371 150.667 141.903 150.35C142.435 150.033 143.037 149.874 143.709 149.874C144.381 149.874 144.979 150.033 145.501 150.35C146.033 150.667 146.453 151.101 146.761 151.652C147.069 152.193 147.223 152.809 147.223 153.5C147.223 154.191 147.069 154.811 146.761 155.362C146.453 155.903 146.033 156.333 145.501 156.65C144.979 156.967 144.381 157.126 143.709 157.126ZM143.709 155.782C144.092 155.782 144.428 155.684 144.717 155.488C145.016 155.292 145.249 155.021 145.417 154.676C145.585 154.321 145.669 153.929 145.669 153.5C145.669 153.061 145.585 152.674 145.417 152.338C145.249 151.993 145.016 151.722 144.717 151.526C144.428 151.321 144.092 151.218 143.709 151.218C143.327 151.218 142.986 151.321 142.687 151.526C142.389 151.722 142.155 151.993 141.987 152.338C141.819 152.674 141.735 153.061 141.735 153.5C141.735 153.939 141.819 154.331 141.987 154.676C142.155 155.021 142.389 155.292 142.687 155.488C142.986 155.684 143.327 155.782 143.709 155.782ZM148.857 157V149.986H150.439V151.092C150.7 150.691 151.004 150.387 151.349 150.182C151.704 149.977 152.091 149.874 152.511 149.874C152.996 149.874 153.416 149.995 153.771 150.238C154.135 150.481 154.406 150.807 154.583 151.218C154.863 150.779 155.194 150.448 155.577 150.224C155.969 149.991 156.412 149.874 156.907 149.874C157.355 149.874 157.752 149.981 158.097 150.196C158.452 150.411 158.722 150.709 158.909 151.092C159.105 151.475 159.203 151.913 159.203 152.408V157H157.621V152.758C157.621 152.263 157.495 151.871 157.243 151.582C156.991 151.293 156.646 151.148 156.207 151.148C155.927 151.148 155.666 151.218 155.423 151.358C155.19 151.498 154.984 151.708 154.807 151.988C154.816 152.053 154.821 152.123 154.821 152.198C154.83 152.263 154.835 152.333 154.835 152.408V157H153.239V152.758C153.239 152.263 153.113 151.871 152.861 151.582C152.609 151.293 152.264 151.148 151.825 151.148C151.256 151.148 150.794 151.419 150.439 151.96V157H148.857ZM161.121 159.926V149.986H162.675V150.98C162.927 150.644 163.239 150.387 163.613 150.21C163.995 150.023 164.411 149.93 164.859 149.93C165.456 149.93 165.993 150.089 166.469 150.406C166.945 150.723 167.323 151.153 167.603 151.694C167.883 152.235 168.023 152.837 168.023 153.5C168.023 154.163 167.878 154.765 167.589 155.306C167.299 155.847 166.907 156.277 166.413 156.594C165.918 156.911 165.367 157.07 164.761 157.07C164.341 157.07 163.953 156.995 163.599 156.846C163.253 156.687 162.955 156.463 162.703 156.174V159.926H161.121ZM164.383 155.754C164.784 155.754 165.139 155.656 165.447 155.46C165.764 155.264 166.011 154.998 166.189 154.662C166.375 154.317 166.469 153.929 166.469 153.5C166.469 153.071 166.375 152.688 166.189 152.352C166.011 152.016 165.764 151.75 165.447 151.554C165.139 151.358 164.784 151.26 164.383 151.26C164.037 151.26 163.72 151.33 163.431 151.47C163.141 151.601 162.899 151.792 162.703 152.044V154.97C162.908 155.213 163.155 155.404 163.445 155.544C163.734 155.684 164.047 155.754 164.383 155.754ZM169.679 157V146.962L171.261 146.682V157H169.679ZM176.469 157.14C175.797 157.14 175.19 156.981 174.649 156.664C174.107 156.337 173.678 155.903 173.361 155.362C173.043 154.811 172.885 154.191 172.885 153.5C172.885 152.809 173.034 152.193 173.333 151.652C173.631 151.111 174.037 150.681 174.551 150.364C175.073 150.037 175.652 149.874 176.287 149.874C176.94 149.874 177.514 150.033 178.009 150.35C178.513 150.667 178.905 151.097 179.185 151.638C179.474 152.179 179.619 152.8 179.619 153.5V153.878H174.439C174.495 154.261 174.616 154.601 174.803 154.9C174.999 155.189 175.246 155.418 175.545 155.586C175.853 155.754 176.184 155.838 176.539 155.838C176.865 155.838 177.173 155.782 177.463 155.67C177.761 155.549 178.009 155.385 178.205 155.18L179.241 156.118C178.811 156.473 178.373 156.734 177.925 156.902C177.486 157.061 177.001 157.14 176.469 157.14ZM174.453 152.898H178.121C178.065 152.562 177.948 152.263 177.771 152.002C177.603 151.741 177.388 151.535 177.127 151.386C176.875 151.237 176.595 151.162 176.287 151.162C175.979 151.162 175.694 151.237 175.433 151.386C175.181 151.526 174.971 151.727 174.803 151.988C174.635 152.249 174.518 152.553 174.453 152.898ZM184.051 157.14C183.342 157.14 182.805 156.977 182.441 156.65C182.077 156.314 181.895 155.824 181.895 155.18V151.246H180.495V149.986H181.895V148.054L183.477 147.718V149.986H185.423V151.246H183.477V154.83C183.477 155.175 183.552 155.423 183.701 155.572C183.85 155.712 184.102 155.782 184.457 155.782C184.616 155.782 184.76 155.773 184.891 155.754C185.031 155.726 185.204 155.679 185.409 155.614V156.944C185.213 157.009 184.989 157.056 184.737 157.084C184.494 157.121 184.266 157.14 184.051 157.14ZM189.976 157.14C189.304 157.14 188.698 156.981 188.156 156.664C187.615 156.337 187.186 155.903 186.868 155.362C186.551 154.811 186.392 154.191 186.392 153.5C186.392 152.809 186.542 152.193 186.84 151.652C187.139 151.111 187.545 150.681 188.058 150.364C188.581 150.037 189.16 149.874 189.794 149.874C190.448 149.874 191.022 150.033 191.516 150.35C192.02 150.667 192.412 151.097 192.692 151.638C192.982 152.179 193.126 152.8 193.126 153.5V153.878H187.946C188.002 154.261 188.124 154.601 188.31 154.9C188.506 155.189 188.754 155.418 189.052 155.586C189.36 155.754 189.692 155.838 190.046 155.838C190.373 155.838 190.681 155.782 190.97 155.67C191.269 155.549 191.516 155.385 191.712 155.18L192.748 156.118C192.319 156.473 191.88 156.734 191.432 156.902C190.994 157.061 190.508 157.14 189.976 157.14ZM187.96 152.898H191.628C191.572 152.562 191.456 152.263 191.278 152.002C191.11 151.741 190.896 151.535 190.634 151.386C190.382 151.237 190.102 151.162 189.794 151.162C189.486 151.162 189.202 151.237 188.94 151.386C188.688 151.526 188.478 151.727 188.31 151.988C188.142 152.249 188.026 152.553 187.96 152.898ZM199.116 157L197.226 149.986H198.738L199.97 154.928L201.426 149.986H202.756L204.198 154.928L205.43 149.986H206.9L205.01 157H203.498L202.07 152.058L200.656 157H199.116ZM208.179 157V149.986H209.761V157H208.179ZM208.977 148.558C208.706 148.558 208.473 148.465 208.277 148.278C208.09 148.082 207.997 147.853 207.997 147.592C207.997 147.321 208.09 147.093 208.277 146.906C208.473 146.71 208.706 146.612 208.977 146.612C209.248 146.612 209.476 146.71 209.663 146.906C209.859 147.093 209.957 147.317 209.957 147.578C209.957 147.849 209.859 148.082 209.663 148.278C209.476 148.465 209.248 148.558 208.977 148.558ZM214.744 157.14C214.035 157.14 213.498 156.977 213.134 156.65C212.77 156.314 212.588 155.824 212.588 155.18V151.246H211.188V149.986H212.588V148.054L214.17 147.718V149.986H216.116V151.246H214.17V154.83C214.17 155.175 214.245 155.423 214.394 155.572C214.544 155.712 214.796 155.782 215.15 155.782C215.309 155.782 215.454 155.773 215.584 155.754C215.724 155.726 215.897 155.679 216.102 155.614V156.944C215.906 157.009 215.682 157.056 215.43 157.084C215.188 157.121 214.959 157.14 214.744 157.14ZM217.517 157V146.962L219.099 146.682V151.134C219.37 150.714 219.692 150.401 220.065 150.196C220.438 149.981 220.854 149.874 221.311 149.874C221.796 149.874 222.221 149.981 222.585 150.196C222.949 150.401 223.234 150.691 223.439 151.064C223.654 151.437 223.761 151.876 223.761 152.38V157H222.165V152.828C222.165 152.315 222.025 151.909 221.745 151.61C221.465 151.302 221.092 151.148 220.625 151.148C220.308 151.148 220.018 151.223 219.757 151.372C219.505 151.512 219.286 151.722 219.099 152.002V157H217.517ZM232.072 157.14C231.4 157.14 230.793 156.981 230.252 156.664C229.711 156.337 229.281 155.903 228.964 155.362C228.647 154.811 228.488 154.191 228.488 153.5C228.488 152.809 228.637 152.193 228.936 151.652C229.235 151.111 229.641 150.681 230.154 150.364C230.677 150.037 231.255 149.874 231.89 149.874C232.543 149.874 233.117 150.033 233.612 150.35C234.116 150.667 234.508 151.097 234.788 151.638C235.077 152.179 235.222 152.8 235.222 153.5V153.878H230.042C230.098 154.261 230.219 154.601 230.406 154.9C230.602 155.189 230.849 155.418 231.148 155.586C231.456 155.754 231.787 155.838 232.142 155.838C232.469 155.838 232.777 155.782 233.066 155.67C233.365 155.549 233.612 155.385 233.808 155.18L234.844 156.118C234.415 156.473 233.976 156.734 233.528 156.902C233.089 157.061 232.604 157.14 232.072 157.14ZM230.056 152.898H233.724C233.668 152.562 233.551 152.263 233.374 152.002C233.206 151.741 232.991 151.535 232.73 151.386C232.478 151.237 232.198 151.162 231.89 151.162C231.582 151.162 231.297 151.237 231.036 151.386C230.784 151.526 230.574 151.727 230.406 151.988C230.238 152.249 230.121 152.553 230.056 152.898ZM236.835 157V149.986H238.417V151.498C238.623 150.966 238.889 150.56 239.215 150.28C239.542 150 239.92 149.86 240.349 149.86C240.48 149.869 240.597 149.883 240.699 149.902C240.802 149.911 240.914 149.944 241.035 150V151.386C240.914 151.33 240.774 151.288 240.615 151.26C240.466 151.232 240.317 151.218 240.167 151.218C239.785 151.218 239.439 151.321 239.131 151.526C238.833 151.731 238.595 152.016 238.417 152.38V157H236.835ZM242.332 157V149.986H243.914V151.498C244.119 150.966 244.385 150.56 244.712 150.28C245.038 150 245.416 149.86 245.846 149.86C245.976 149.869 246.093 149.883 246.196 149.902C246.298 149.911 246.41 149.944 246.532 150V151.386C246.41 151.33 246.27 151.288 246.112 151.26C245.962 151.232 245.813 151.218 245.664 151.218C245.281 151.218 244.936 151.321 244.628 151.526C244.329 151.731 244.091 152.016 243.914 152.38V157H242.332ZM250.706 157.126C250.043 157.126 249.441 156.967 248.9 156.65C248.368 156.333 247.948 155.903 247.64 155.362C247.332 154.811 247.178 154.191 247.178 153.5C247.178 152.809 247.332 152.193 247.64 151.652C247.948 151.101 248.368 150.667 248.9 150.35C249.432 150.033 250.034 149.874 250.706 149.874C251.378 149.874 251.975 150.033 252.498 150.35C253.03 150.667 253.45 151.101 253.758 151.652C254.066 152.193 254.22 152.809 254.22 153.5C254.22 154.191 254.066 154.811 253.758 155.362C253.45 155.903 253.03 156.333 252.498 156.65C251.975 156.967 251.378 157.126 250.706 157.126ZM250.706 155.782C251.088 155.782 251.424 155.684 251.714 155.488C252.012 155.292 252.246 155.021 252.414 154.676C252.582 154.321 252.666 153.929 252.666 153.5C252.666 153.061 252.582 152.674 252.414 152.338C252.246 151.993 252.012 151.722 251.714 151.526C251.424 151.321 251.088 151.218 250.706 151.218C250.323 151.218 249.982 151.321 249.684 151.526C249.385 151.722 249.152 151.993 248.984 152.338C248.816 152.674 248.732 153.061 248.732 153.5C248.732 153.939 248.816 154.331 248.984 154.676C249.152 155.021 249.385 155.292 249.684 155.488C249.982 155.684 250.323 155.782 250.706 155.782ZM255.853 157V149.986H257.435V151.498C257.64 150.966 257.906 150.56 258.233 150.28C258.56 150 258.938 149.86 259.367 149.86C259.498 149.869 259.614 149.883 259.717 149.902C259.82 149.911 259.932 149.944 260.053 150V151.386C259.932 151.33 259.792 151.288 259.633 151.26C259.484 151.232 259.334 151.218 259.185 151.218C258.802 151.218 258.457 151.321 258.149 151.526C257.85 151.731 257.612 152.016 257.435 152.38V157H255.853ZM263.756 157.14C263.159 157.14 262.599 157.061 262.076 156.902C261.563 156.734 261.12 156.496 260.746 156.188L261.488 155.138C261.955 155.427 262.356 155.633 262.692 155.754C263.038 155.875 263.388 155.936 263.742 155.936C264.162 155.936 264.503 155.847 264.764 155.67C265.026 155.493 265.156 155.264 265.156 154.984C265.156 154.769 265.077 154.601 264.918 154.48C264.769 154.349 264.522 154.251 264.176 154.186L262.944 153.976C262.263 153.845 261.754 153.621 261.418 153.304C261.082 152.987 260.914 152.567 260.914 152.044C260.914 151.605 261.026 151.227 261.25 150.91C261.484 150.583 261.801 150.331 262.202 150.154C262.613 149.967 263.089 149.874 263.63 149.874C264.116 149.874 264.587 149.944 265.044 150.084C265.502 150.224 265.95 150.434 266.388 150.714L265.646 151.764C265.292 151.531 264.937 151.363 264.582 151.26C264.237 151.148 263.887 151.092 263.532 151.092C263.168 151.092 262.874 151.167 262.65 151.316C262.436 151.456 262.328 151.652 262.328 151.904C262.328 152.128 262.398 152.301 262.538 152.422C262.688 152.534 262.944 152.618 263.308 152.674L264.554 152.912C265.254 153.033 265.772 153.257 266.108 153.584C266.454 153.901 266.626 154.326 266.626 154.858C266.626 155.287 266.5 155.675 266.248 156.02C265.996 156.365 265.656 156.641 265.226 156.846C264.797 157.042 264.307 157.14 263.756 157.14Z" fill="#151515"/>
<g clip-path="url(#clip1_10_2131)">
<path d="M410.955 148L414.678 144.277C414.941 144.014 414.941 143.586 414.678 143.323C414.414 143.059 413.986 143.059 413.722 143.323L410 147.045L406.277 143.323C406.014 143.059 405.586 143.059 405.323 143.323C405.059 143.586 405.059 144.014 405.323 144.277L409.045 148L405.323 151.722C405.059 151.986 405.059 152.414 405.323 152.678C405.455 152.809 405.627 152.875 405.8 152.875C405.973 152.875 406.145 152.809 406.277 152.678L410 148.955L413.722 152.678C413.854 152.809 414.027 152.875 414.2 152.875C414.373 152.875 414.546 152.809 414.678 152.678C414.941 152.414 414.941 151.986 414.678 151.722L410.955 148Z" fill="#151515"/>
</g>
</g>
<g filter="url(#filter1_d_10_2131)">
<mask id="path-6-inside-2_10_2131" fill="white">
<path d="M24 8H432V92H24V8Z"/>
</mask>
<path d="M24 8H432V92H24V8Z" fill="white" shape-rendering="crispEdges"/>
<path d="M24 10H432V6H24V10Z" fill="#DCA614" mask="url(#path-6-inside-2_10_2131)"/>
<g clip-path="url(#clip2_10_2131)">
<path d="M55.7149 42.375L48.6449 30.125C48.5099 29.895 48.2649 29.75 47.9949 29.75C47.7299 29.75 47.4799 29.895 47.3449 30.125L40.2699 42.375C40.2049 42.49 40.1699 42.62 40.1699 42.75C40.1699 42.88 40.2049 43.01 40.2699 43.125C40.4049 43.355 40.6549 43.5 40.9199 43.5H55.0649C55.3299 43.5 55.5799 43.355 55.7149 43.125C55.7799 43.01 55.8149 42.88 55.8149 42.75C55.8149 42.62 55.7799 42.49 55.7149 42.375ZM47.3749 34C47.3749 33.655 47.6549 33.375 47.9999 33.375C48.3449 33.375 48.6249 33.655 48.6249 34V37.5C48.6249 37.845 48.3449 38.125 47.9999 38.125C47.6549 38.125 47.3749 37.845 47.3749 37.5V34ZM47.9999 41.75C47.5849 41.75 47.2499 41.415 47.2499 41C47.2499 40.585 47.5849 40.25 47.9999 40.25C48.4149 40.25 48.7499 40.585 48.7499 41C48.7499 41.415 48.4149 41.75 47.9999 41.75Z" fill="#DCA614"/>
</g>
<path d="M66.856 39.544H68.802C69.39 39.544 69.922 39.3947 70.398 39.096C70.874 38.788 71.252 38.3727 71.532 37.85C71.812 37.3273 71.952 36.744 71.952 36.1C71.952 35.4467 71.812 34.8633 71.532 34.35C71.252 33.8273 70.874 33.4167 70.398 33.118C69.922 32.81 69.39 32.656 68.802 32.656H66.856V39.544ZM65.176 41V31.2H68.76C69.4693 31.2 70.1227 31.326 70.72 31.578C71.3173 31.83 71.8353 32.18 72.274 32.628C72.722 33.0667 73.0673 33.5847 73.31 34.182C73.5527 34.77 73.674 35.4093 73.674 36.1C73.674 36.7907 73.5527 37.4347 73.31 38.032C73.0673 38.62 72.722 39.138 72.274 39.586C71.8353 40.0247 71.3173 40.37 70.72 40.622C70.1227 40.874 69.4693 41 68.76 41H65.176ZM78.5766 41.126C77.914 41.126 77.312 40.9673 76.7706 40.65C76.2386 40.3327 75.8186 39.9033 75.5106 39.362C75.2026 38.8113 75.0486 38.1907 75.0486 37.5C75.0486 36.8093 75.2026 36.1933 75.5106 35.652C75.8186 35.1013 76.2386 34.6673 76.7706 34.35C77.3026 34.0327 77.9046 33.874 78.5766 33.874C79.2486 33.874 79.846 34.0327 80.3686 34.35C80.9006 34.6673 81.3206 35.1013 81.6286 35.652C81.9366 36.1933 82.0906 36.8093 82.0906 37.5C82.0906 38.1907 81.9366 38.8113 81.6286 39.362C81.3206 39.9033 80.9006 40.3327 80.3686 40.65C79.846 40.9673 79.2486 41.126 78.5766 41.126ZM78.5766 39.782C78.9593 39.782 79.2953 39.684 79.5846 39.488C79.8833 39.292 80.1166 39.0213 80.2846 38.676C80.4526 38.3213 80.5366 37.9293 80.5366 37.5C80.5366 37.0613 80.4526 36.674 80.2846 36.338C80.1166 35.9927 79.8833 35.722 79.5846 35.526C79.2953 35.3207 78.9593 35.218 78.5766 35.218C78.194 35.218 77.8533 35.3207 77.5546 35.526C77.256 35.722 77.0226 35.9927 76.8546 36.338C76.6866 36.674 76.6026 37.0613 76.6026 37.5C76.6026 37.9387 76.6866 38.3307 76.8546 38.676C77.0226 39.0213 77.256 39.292 77.5546 39.488C77.8533 39.684 78.194 39.782 78.5766 39.782ZM84.8194 41L82.9294 33.986H84.4414L85.6734 38.928L87.1294 33.986H88.4594L89.9014 38.928L91.1334 33.986H92.6034L90.7134 41H89.2014L87.7734 36.058L86.3594 41H84.8194ZM93.896 41V33.986H95.478V35.134C95.7487 34.714 96.0707 34.4013 96.444 34.196C96.8173 33.9813 97.2327 33.874 97.69 33.874C98.1753 33.874 98.6 33.9813 98.964 34.196C99.328 34.4013 99.6127 34.6907 99.818 35.064C100.033 35.4373 100.14 35.876 100.14 36.38V41H98.544V36.828C98.544 36.3147 98.404 35.9087 98.124 35.61C97.844 35.302 97.4707 35.148 97.004 35.148C96.6867 35.148 96.3973 35.2227 96.136 35.372C95.884 35.512 95.6647 35.722 95.478 36.002V41H93.896ZM102.044 41V30.962L103.626 30.682V41H102.044ZM108.778 41.126C108.115 41.126 107.513 40.9673 106.972 40.65C106.44 40.3327 106.02 39.9033 105.712 39.362C105.404 38.8113 105.25 38.1907 105.25 37.5C105.25 36.8093 105.404 36.1933 105.712 35.652C106.02 35.1013 106.44 34.6673 106.972 34.35C107.504 34.0327 108.106 33.874 108.778 33.874C109.45 33.874 110.047 34.0327 110.57 34.35C111.102 34.6673 111.522 35.1013 111.83 35.652C112.138 36.1933 112.292 36.8093 112.292 37.5C112.292 38.1907 112.138 38.8113 111.83 39.362C111.522 39.9033 111.102 40.3327 110.57 40.65C110.047 40.9673 109.45 41.126 108.778 41.126ZM108.778 39.782C109.16 39.782 109.496 39.684 109.786 39.488C110.084 39.292 110.318 39.0213 110.486 38.676C110.654 38.3213 110.738 37.9293 110.738 37.5C110.738 37.0613 110.654 36.674 110.486 36.338C110.318 35.9927 110.084 35.722 109.786 35.526C109.496 35.3207 109.16 35.218 108.778 35.218C108.395 35.218 108.054 35.3207 107.756 35.526C107.457 35.722 107.224 35.9927 107.056 36.338C106.888 36.674 106.804 37.0613 106.804 37.5C106.804 37.9387 106.888 38.3307 107.056 38.676C107.224 39.0213 107.457 39.292 107.756 39.488C108.054 39.684 108.395 39.782 108.778 39.782ZM116.122 41.126C115.636 41.126 115.202 41.0373 114.82 40.86C114.446 40.6733 114.152 40.4213 113.938 40.104C113.732 39.7773 113.63 39.404 113.63 38.984C113.63 38.564 113.737 38.2 113.952 37.892C114.176 37.584 114.488 37.346 114.89 37.178C115.291 37.01 115.767 36.926 116.318 36.926C116.644 36.926 116.966 36.9633 117.284 37.038C117.601 37.1033 117.909 37.2153 118.208 37.374V36.59C118.208 36.1233 118.072 35.7733 117.802 35.54C117.54 35.3067 117.139 35.19 116.598 35.19C116.308 35.19 115.996 35.2367 115.66 35.33C115.333 35.414 114.964 35.5493 114.554 35.736L113.994 34.588C115.02 34.112 115.991 33.874 116.906 33.874C117.82 33.874 118.525 34.098 119.02 34.546C119.524 34.9847 119.776 35.61 119.776 36.422V41H118.208V40.272C117.909 40.5613 117.587 40.776 117.242 40.916C116.896 41.056 116.523 41.126 116.122 41.126ZM115.114 38.956C115.114 39.2827 115.244 39.5393 115.506 39.726C115.767 39.9127 116.117 40.006 116.556 40.006C116.873 40.006 117.167 39.9593 117.438 39.866C117.718 39.7633 117.974 39.614 118.208 39.418V38.284C117.965 38.172 117.713 38.088 117.452 38.032C117.19 37.976 116.906 37.948 116.598 37.948C116.14 37.948 115.776 38.0367 115.506 38.214C115.244 38.3913 115.114 38.6387 115.114 38.956ZM124.533 41.07C123.945 41.07 123.413 40.9113 122.937 40.594C122.461 40.2673 122.078 39.838 121.789 39.306C121.509 38.7647 121.369 38.1627 121.369 37.5C121.369 36.828 121.514 36.226 121.803 35.694C122.092 35.1527 122.484 34.7233 122.979 34.406C123.483 34.0887 124.038 33.93 124.645 33.93C125.046 33.93 125.42 34.0093 125.765 34.168C126.12 34.3173 126.428 34.5413 126.689 34.84V30.962L128.271 30.682V41H126.703V40.076C126.451 40.3933 126.138 40.6407 125.765 40.818C125.392 40.986 124.981 41.07 124.533 41.07ZM125.023 39.74C125.359 39.74 125.672 39.6747 125.961 39.544C126.25 39.404 126.493 39.2127 126.689 38.97V36.016C126.484 35.7733 126.236 35.5867 125.947 35.456C125.658 35.3253 125.35 35.26 125.023 35.26C124.622 35.26 124.262 35.358 123.945 35.554C123.637 35.7407 123.39 36.002 123.203 36.338C123.016 36.674 122.923 37.0613 122.923 37.5C122.923 37.92 123.016 38.3027 123.203 38.648C123.39 38.984 123.637 39.25 123.945 39.446C124.262 39.642 124.622 39.74 125.023 39.74ZM136.6 41.126C135.938 41.126 135.336 40.9673 134.794 40.65C134.262 40.3233 133.838 39.8847 133.52 39.334C133.212 38.7833 133.058 38.172 133.058 37.5C133.058 36.8187 133.212 36.2073 133.52 35.666C133.838 35.1153 134.262 34.6813 134.794 34.364C135.336 34.0373 135.938 33.874 136.6 33.874C137.142 33.874 137.655 33.9767 138.14 34.182C138.635 34.3873 139.055 34.6813 139.4 35.064L138.42 36.086C138.178 35.8153 137.907 35.61 137.608 35.47C137.31 35.33 136.992 35.26 136.656 35.26C136.274 35.26 135.928 35.3627 135.62 35.568C135.322 35.764 135.084 36.03 134.906 36.366C134.729 36.702 134.64 37.08 134.64 37.5C134.64 37.92 134.729 38.3027 134.906 38.648C135.084 38.984 135.322 39.25 135.62 39.446C135.928 39.642 136.274 39.74 136.656 39.74C136.992 39.74 137.31 39.67 137.608 39.53C137.907 39.39 138.178 39.1893 138.42 38.928L139.4 39.936C139.055 40.3187 138.635 40.6127 138.14 40.818C137.655 41.0233 137.142 41.126 136.6 41.126ZM143.709 41.126C143.047 41.126 142.445 40.9673 141.903 40.65C141.371 40.3327 140.951 39.9033 140.643 39.362C140.335 38.8113 140.181 38.1907 140.181 37.5C140.181 36.8093 140.335 36.1933 140.643 35.652C140.951 35.1013 141.371 34.6673 141.903 34.35C142.435 34.0327 143.037 33.874 143.709 33.874C144.381 33.874 144.979 34.0327 145.501 34.35C146.033 34.6673 146.453 35.1013 146.761 35.652C147.069 36.1933 147.223 36.8093 147.223 37.5C147.223 38.1907 147.069 38.8113 146.761 39.362C146.453 39.9033 146.033 40.3327 145.501 40.65C144.979 40.9673 144.381 41.126 143.709 41.126ZM143.709 39.782C144.092 39.782 144.428 39.684 144.717 39.488C145.016 39.292 145.249 39.0213 145.417 38.676C145.585 38.3213 145.669 37.9293 145.669 37.5C145.669 37.0613 145.585 36.674 145.417 36.338C145.249 35.9927 145.016 35.722 144.717 35.526C144.428 35.3207 144.092 35.218 143.709 35.218C143.327 35.218 142.986 35.3207 142.687 35.526C142.389 35.722 142.155 35.9927 141.987 36.338C141.819 36.674 141.735 37.0613 141.735 37.5C141.735 37.9387 141.819 38.3307 141.987 38.676C142.155 39.0213 142.389 39.292 142.687 39.488C142.986 39.684 143.327 39.782 143.709 39.782ZM148.857 41V33.986H150.439V35.092C150.7 34.6907 151.004 34.3873 151.349 34.182C151.704 33.9767 152.091 33.874 152.511 33.874C152.996 33.874 153.416 33.9953 153.771 34.238C154.135 34.4807 154.406 34.8073 154.583 35.218C154.863 34.7793 155.194 34.448 155.577 34.224C155.969 33.9907 156.412 33.874 156.907 33.874C157.355 33.874 157.752 33.9813 158.097 34.196C158.452 34.4107 158.722 34.7093 158.909 35.092C159.105 35.4747 159.203 35.9133 159.203 36.408V41H157.621V36.758C157.621 36.2633 157.495 35.8713 157.243 35.582C156.991 35.2927 156.646 35.148 156.207 35.148C155.927 35.148 155.666 35.218 155.423 35.358C155.19 35.498 154.984 35.708 154.807 35.988C154.816 36.0533 154.821 36.1233 154.821 36.198C154.83 36.2633 154.835 36.3333 154.835 36.408V41H153.239V36.758C153.239 36.2633 153.113 35.8713 152.861 35.582C152.609 35.2927 152.264 35.148 151.825 35.148C151.256 35.148 150.794 35.4187 150.439 35.96V41H148.857ZM161.121 43.926V33.986H162.675V34.98C162.927 34.644 163.239 34.3873 163.613 34.21C163.995 34.0233 164.411 33.93 164.859 33.93C165.456 33.93 165.993 34.0887 166.469 34.406C166.945 34.7233 167.323 35.1527 167.603 35.694C167.883 36.2353 168.023 36.8373 168.023 37.5C168.023 38.1627 167.878 38.7647 167.589 39.306C167.299 39.8473 166.907 40.2767 166.413 40.594C165.918 40.9113 165.367 41.07 164.761 41.07C164.341 41.07 163.953 40.9953 163.599 40.846C163.253 40.6873 162.955 40.4633 162.703 40.174V43.926H161.121ZM164.383 39.754C164.784 39.754 165.139 39.656 165.447 39.46C165.764 39.264 166.011 38.998 166.189 38.662C166.375 38.3167 166.469 37.9293 166.469 37.5C166.469 37.0707 166.375 36.688 166.189 36.352C166.011 36.016 165.764 35.75 165.447 35.554C165.139 35.358 164.784 35.26 164.383 35.26C164.037 35.26 163.72 35.33 163.431 35.47C163.141 35.6007 162.899 35.792 162.703 36.044V38.97C162.908 39.2127 163.155 39.404 163.445 39.544C163.734 39.684 164.047 39.754 164.383 39.754ZM169.679 41V30.962L171.261 30.682V41H169.679ZM176.469 41.14C175.797 41.14 175.19 40.9813 174.649 40.664C174.107 40.3373 173.678 39.9033 173.361 39.362C173.043 38.8113 172.885 38.1907 172.885 37.5C172.885 36.8093 173.034 36.1933 173.333 35.652C173.631 35.1107 174.037 34.6813 174.551 34.364C175.073 34.0373 175.652 33.874 176.287 33.874C176.94 33.874 177.514 34.0327 178.009 34.35C178.513 34.6673 178.905 35.0967 179.185 35.638C179.474 36.1793 179.619 36.8 179.619 37.5V37.878H174.439C174.495 38.2607 174.616 38.6013 174.803 38.9C174.999 39.1893 175.246 39.418 175.545 39.586C175.853 39.754 176.184 39.838 176.539 39.838C176.865 39.838 177.173 39.782 177.463 39.67C177.761 39.5487 178.009 39.3853 178.205 39.18L179.241 40.118C178.811 40.4727 178.373 40.734 177.925 40.902C177.486 41.0607 177.001 41.14 176.469 41.14ZM174.453 36.898H178.121C178.065 36.562 177.948 36.2633 177.771 36.002C177.603 35.7407 177.388 35.5353 177.127 35.386C176.875 35.2367 176.595 35.162 176.287 35.162C175.979 35.162 175.694 35.2367 175.433 35.386C175.181 35.526 174.971 35.7267 174.803 35.988C174.635 36.2493 174.518 36.5527 174.453 36.898ZM184.051 41.14C183.342 41.14 182.805 40.9767 182.441 40.65C182.077 40.314 181.895 39.824 181.895 39.18V35.246H180.495V33.986H181.895V32.054L183.477 31.718V33.986H185.423V35.246H183.477V38.83C183.477 39.1753 183.552 39.4227 183.701 39.572C183.85 39.712 184.102 39.782 184.457 39.782C184.616 39.782 184.76 39.7727 184.891 39.754C185.031 39.726 185.204 39.6793 185.409 39.614V40.944C185.213 41.0093 184.989 41.056 184.737 41.084C184.494 41.1213 184.266 41.14 184.051 41.14ZM189.976 41.14C189.304 41.14 188.698 40.9813 188.156 40.664C187.615 40.3373 187.186 39.9033 186.868 39.362C186.551 38.8113 186.392 38.1907 186.392 37.5C186.392 36.8093 186.542 36.1933 186.84 35.652C187.139 35.1107 187.545 34.6813 188.058 34.364C188.581 34.0373 189.16 33.874 189.794 33.874C190.448 33.874 191.022 34.0327 191.516 34.35C192.02 34.6673 192.412 35.0967 192.692 35.638C192.982 36.1793 193.126 36.8 193.126 37.5V37.878H187.946C188.002 38.2607 188.124 38.6013 188.31 38.9C188.506 39.1893 188.754 39.418 189.052 39.586C189.36 39.754 189.692 39.838 190.046 39.838C190.373 39.838 190.681 39.782 190.97 39.67C191.269 39.5487 191.516 39.3853 191.712 39.18L192.748 40.118C192.319 40.4727 191.88 40.734 191.432 40.902C190.994 41.0607 190.508 41.14 189.976 41.14ZM187.96 36.898H191.628C191.572 36.562 191.456 36.2633 191.278 36.002C191.11 35.7407 190.896 35.5353 190.634 35.386C190.382 35.2367 190.102 35.162 189.794 35.162C189.486 35.162 189.202 35.2367 188.94 35.386C188.688 35.526 188.478 35.7267 188.31 35.988C188.142 36.2493 188.026 36.5527 187.96 36.898ZM199.116 41L197.226 33.986H198.738L199.97 38.928L201.426 33.986H202.756L204.198 38.928L205.43 33.986H206.9L205.01 41H203.498L202.07 36.058L200.656 41H199.116ZM208.179 41V33.986H209.761V41H208.179ZM208.977 32.558C208.706 32.558 208.473 32.4647 208.277 32.278C208.09 32.082 207.997 31.8533 207.997 31.592C207.997 31.3213 208.09 31.0927 208.277 30.906C208.473 30.71 208.706 30.612 208.977 30.612C209.248 30.612 209.476 30.71 209.663 30.906C209.859 31.0927 209.957 31.3167 209.957 31.578C209.957 31.8487 209.859 32.082 209.663 32.278C209.476 32.4647 209.248 32.558 208.977 32.558ZM214.744 41.14C214.035 41.14 213.498 40.9767 213.134 40.65C212.77 40.314 212.588 39.824 212.588 39.18V35.246H211.188V33.986H212.588V32.054L214.17 31.718V33.986H216.116V35.246H214.17V38.83C214.17 39.1753 214.245 39.4227 214.394 39.572C214.544 39.712 214.796 39.782 215.15 39.782C215.309 39.782 215.454 39.7727 215.584 39.754C215.724 39.726 215.897 39.6793 216.102 39.614V40.944C215.906 41.0093 215.682 41.056 215.43 41.084C215.188 41.1213 214.959 41.14 214.744 41.14ZM217.517 41V30.962L219.099 30.682V35.134C219.37 34.714 219.692 34.4013 220.065 34.196C220.438 33.9813 220.854 33.874 221.311 33.874C221.796 33.874 222.221 33.9813 222.585 34.196C222.949 34.4013 223.234 34.6907 223.439 35.064C223.654 35.4373 223.761 35.876 223.761 36.38V41H222.165V36.828C222.165 36.3147 222.025 35.9087 221.745 35.61C221.465 35.302 221.092 35.148 220.625 35.148C220.308 35.148 220.018 35.2227 219.757 35.372C219.505 35.512 219.286 35.722 219.099 36.002V41H217.517ZM232.072 41.14C231.4 41.14 230.793 40.9813 230.252 40.664C229.711 40.3373 229.281 39.9033 228.964 39.362C228.647 38.8113 228.488 38.1907 228.488 37.5C228.488 36.8093 228.637 36.1933 228.936 35.652C229.235 35.1107 229.641 34.6813 230.154 34.364C230.677 34.0373 231.255 33.874 231.89 33.874C232.543 33.874 233.117 34.0327 233.612 34.35C234.116 34.6673 234.508 35.0967 234.788 35.638C235.077 36.1793 235.222 36.8 235.222 37.5V37.878H230.042C230.098 38.2607 230.219 38.6013 230.406 38.9C230.602 39.1893 230.849 39.418 231.148 39.586C231.456 39.754 231.787 39.838 232.142 39.838C232.469 39.838 232.777 39.782 233.066 39.67C233.365 39.5487 233.612 39.3853 233.808 39.18L234.844 40.118C234.415 40.4727 233.976 40.734 233.528 40.902C233.089 41.0607 232.604 41.14 232.072 41.14ZM230.056 36.898H233.724C233.668 36.562 233.551 36.2633 233.374 36.002C233.206 35.7407 232.991 35.5353 232.73 35.386C232.478 35.2367 232.198 35.162 231.89 35.162C231.582 35.162 231.297 35.2367 231.036 35.386C230.784 35.526 230.574 35.7267 230.406 35.988C230.238 36.2493 230.121 36.5527 230.056 36.898ZM236.835 41V33.986H238.417V35.498C238.623 34.966 238.889 34.56 239.215 34.28C239.542 34 239.92 33.86 240.349 33.86C240.48 33.8693 240.597 33.8833 240.699 33.902C240.802 33.9113 240.914 33.944 241.035 34V35.386C240.914 35.33 240.774 35.288 240.615 35.26C240.466 35.232 240.317 35.218 240.167 35.218C239.785 35.218 239.439 35.3207 239.131 35.526C238.833 35.7313 238.595 36.016 238.417 36.38V41H236.835ZM242.332 41V33.986H243.914V35.498C244.119 34.966 244.385 34.56 244.712 34.28C245.038 34 245.416 33.86 245.846 33.86C245.976 33.8693 246.093 33.8833 246.196 33.902C246.298 33.9113 246.41 33.944 246.532 34V35.386C246.41 35.33 246.27 35.288 246.112 35.26C245.962 35.232 245.813 35.218 245.664 35.218C245.281 35.218 244.936 35.3207 244.628 35.526C244.329 35.7313 244.091 36.016 243.914 36.38V41H242.332ZM250.706 41.126C250.043 41.126 249.441 40.9673 248.9 40.65C248.368 40.3327 247.948 39.9033 247.64 39.362C247.332 38.8113 247.178 38.1907 247.178 37.5C247.178 36.8093 247.332 36.1933 247.64 35.652C247.948 35.1013 248.368 34.6673 248.9 34.35C249.432 34.0327 250.034 33.874 250.706 33.874C251.378 33.874 251.975 34.0327 252.498 34.35C253.03 34.6673 253.45 35.1013 253.758 35.652C254.066 36.1933 254.22 36.8093 254.22 37.5C254.22 38.1907 254.066 38.8113 253.758 39.362C253.45 39.9033 253.03 40.3327 252.498 40.65C251.975 40.9673 251.378 41.126 250.706 41.126ZM250.706 39.782C251.088 39.782 251.424 39.684 251.714 39.488C252.012 39.292 252.246 39.0213 252.414 38.676C252.582 38.3213 252.666 37.9293 252.666 37.5C252.666 37.0613 252.582 36.674 252.414 36.338C252.246 35.9927 252.012 35.722 251.714 35.526C251.424 35.3207 251.088 35.218 250.706 35.218C250.323 35.218 249.982 35.3207 249.684 35.526C249.385 35.722 249.152 35.9927 248.984 36.338C248.816 36.674 248.732 37.0613 248.732 37.5C248.732 37.9387 248.816 38.3307 248.984 38.676C249.152 39.0213 249.385 39.292 249.684 39.488C249.982 39.684 250.323 39.782 250.706 39.782ZM255.853 41V33.986H257.435V35.498C257.64 34.966 257.906 34.56 258.233 34.28C258.56 34 258.938 33.86 259.367 33.86C259.498 33.8693 259.614 33.8833 259.717 33.902C259.82 33.9113 259.932 33.944 260.053 34V35.386C259.932 35.33 259.792 35.288 259.633 35.26C259.484 35.232 259.334 35.218 259.185 35.218C258.802 35.218 258.457 35.3207 258.149 35.526C257.85 35.7313 257.612 36.016 257.435 36.38V41H255.853ZM263.756 41.14C263.159 41.14 262.599 41.0607 262.076 40.902C261.563 40.734 261.12 40.496 260.746 40.188L261.488 39.138C261.955 39.4273 262.356 39.6327 262.692 39.754C263.038 39.8753 263.388 39.936 263.742 39.936C264.162 39.936 264.503 39.8473 264.764 39.67C265.026 39.4927 265.156 39.264 265.156 38.984C265.156 38.7693 265.077 38.6013 264.918 38.48C264.769 38.3493 264.522 38.2513 264.176 38.186L262.944 37.976C262.263 37.8453 261.754 37.6213 261.418 37.304C261.082 36.9867 260.914 36.5667 260.914 36.044C260.914 35.6053 261.026 35.2273 261.25 34.91C261.484 34.5833 261.801 34.3313 262.202 34.154C262.613 33.9673 263.089 33.874 263.63 33.874C264.116 33.874 264.587 33.944 265.044 34.084C265.502 34.224 265.95 34.434 266.388 34.714L265.646 35.764C265.292 35.5307 264.937 35.3627 264.582 35.26C264.237 35.148 263.887 35.092 263.532 35.092C263.168 35.092 262.874 35.1667 262.65 35.316C262.436 35.456 262.328 35.652 262.328 35.904C262.328 36.128 262.398 36.3007 262.538 36.422C262.688 36.534 262.944 36.618 263.308 36.674L264.554 36.912C265.254 37.0333 265.772 37.2573 266.108 37.584C266.454 37.9013 266.626 38.326 266.626 38.858C266.626 39.2873 266.5 39.6747 266.248 40.02C265.996 40.3653 265.656 40.6407 265.226 40.846C264.797 41.042 264.307 41.14 263.756 41.14Z" fill="#151515"/>
<g clip-path="url(#clip3_10_2131)">
<path d="M410.955 32L414.678 28.2773C414.941 28.0136 414.941 27.5864 414.678 27.3228C414.414 27.0591 413.986 27.0591 413.722 27.3228L410 31.0452L406.277 27.3228C406.014 27.0591 405.586 27.0591 405.323 27.3228C405.059 27.5865 405.059 28.0136 405.323 28.2773L409.045 32L405.323 35.7225C405.059 35.9862 405.059 36.4139 405.323 36.6776C405.455 36.8094 405.627 36.875 405.8 36.875C405.973 36.875 406.145 36.8094 406.277 36.6776L410 32.9548L413.722 36.6776C413.854 36.8094 414.027 36.875 414.2 36.875C414.373 36.875 414.546 36.8094 414.678 36.6776C414.941 36.4139 414.941 35.9862 414.678 35.7225L410.955 32Z" fill="#151515"/>
</g>
<path d="M65.246 70V60.2H71.938V61.152H66.324V64.652H70.16V65.59H66.324V70H65.246ZM72.8977 70V63.168H73.9197V64.568C74.097 64.092 74.349 63.7233 74.6757 63.462C75.0117 63.1913 75.3943 63.056 75.8237 63.056C75.945 63.056 76.057 63.0653 76.1597 63.084C76.2623 63.0933 76.365 63.1167 76.4677 63.154V64.078C76.3557 64.0407 76.2343 64.0127 76.1037 63.994C75.9823 63.966 75.8657 63.952 75.7537 63.952C75.3337 63.952 74.965 64.0733 74.6477 64.316C74.3397 64.5587 74.097 64.8993 73.9197 65.338V70H72.8977ZM80.4197 70.112C79.785 70.112 79.2157 69.958 78.7117 69.65C78.2077 69.342 77.811 68.922 77.5217 68.39C77.2324 67.858 77.0877 67.256 77.0877 66.584C77.0877 65.912 77.2324 65.31 77.5217 64.778C77.811 64.246 78.2077 63.826 78.7117 63.518C79.2157 63.21 79.785 63.056 80.4197 63.056C81.045 63.056 81.605 63.21 82.0997 63.518C82.6037 63.826 83.0004 64.246 83.2897 64.778C83.579 65.31 83.7237 65.912 83.7237 66.584C83.7237 67.256 83.579 67.858 83.2897 68.39C83.0004 68.922 82.6037 69.342 82.0997 69.65C81.605 69.958 81.045 70.112 80.4197 70.112ZM80.4057 69.216C80.8537 69.216 81.2504 69.104 81.5957 68.88C81.941 68.6467 82.2117 68.3293 82.4077 67.928C82.613 67.5267 82.7157 67.0787 82.7157 66.584C82.7157 66.08 82.613 65.632 82.4077 65.24C82.2117 64.8387 81.941 64.526 81.5957 64.302C81.2504 64.0687 80.8537 63.952 80.4057 63.952C79.9577 63.952 79.561 64.0687 79.2157 64.302C78.8704 64.526 78.595 64.8387 78.3897 65.24C78.1937 65.632 78.0957 66.08 78.0957 66.584C78.0957 67.0787 78.1937 67.5267 78.3897 67.928C78.595 68.3293 78.8704 68.6467 79.2157 68.88C79.561 69.104 79.9577 69.216 80.4057 69.216ZM85.5168 70V63.168H86.5388V64.232C86.8001 63.84 87.0988 63.546 87.4348 63.35C87.7708 63.154 88.1488 63.056 88.5688 63.056C89.0541 63.056 89.4788 63.1773 89.8428 63.42C90.2068 63.6533 90.4821 63.9753 90.6688 64.386C90.9395 63.9473 91.2615 63.616 91.6348 63.392C92.0175 63.168 92.4561 63.056 92.9508 63.056C93.4081 63.056 93.8095 63.1633 94.1548 63.378C94.5095 63.5927 94.7848 63.8913 94.9808 64.274C95.1768 64.6473 95.2748 65.086 95.2748 65.59V70H94.2528V65.842C94.2528 65.2447 94.1035 64.7733 93.8048 64.428C93.5061 64.0827 93.0955 63.91 92.5728 63.91C92.2181 63.91 91.8961 63.9987 91.6068 64.176C91.3268 64.3533 91.0795 64.624 90.8648 64.988C90.8835 65.0813 90.8975 65.1793 90.9068 65.282C90.9161 65.3847 90.9208 65.4873 90.9208 65.59V70H89.8988V65.842C89.8988 65.2447 89.7448 64.7733 89.4368 64.428C89.1381 64.0827 88.7275 63.91 88.2048 63.91C87.5048 63.91 86.9495 64.246 86.5388 64.918V70H85.5168ZM103.215 70.14C102.627 70.14 102.179 70 101.871 69.72C101.572 69.4307 101.423 69.0153 101.423 68.474V64.008H100.009V63.168H101.423V61.292L102.445 61.054V63.168H104.405V64.008H102.445V68.208C102.445 68.572 102.519 68.8333 102.669 68.992C102.827 69.1507 103.084 69.23 103.439 69.23C103.616 69.23 103.775 69.216 103.915 69.188C104.055 69.16 104.218 69.1133 104.405 69.048V69.958C104.218 70.0233 104.022 70.07 103.817 70.098C103.611 70.126 103.411 70.14 103.215 70.14ZM105.902 70V59.892L106.924 59.682V64.274C107.185 63.8633 107.498 63.56 107.862 63.364C108.226 63.1587 108.636 63.056 109.094 63.056C109.588 63.056 110.018 63.1633 110.382 63.378C110.755 63.5833 111.044 63.8773 111.25 64.26C111.464 64.6333 111.572 65.072 111.572 65.576V70H110.55V65.87C110.55 65.2633 110.382 64.7873 110.046 64.442C109.719 64.0873 109.276 63.91 108.716 63.91C108.342 63.91 108.002 63.9987 107.694 64.176C107.386 64.3533 107.129 64.6147 106.924 64.96V70H105.902ZM116.706 70.14C116.072 70.14 115.498 69.986 114.984 69.678C114.471 69.3607 114.065 68.936 113.766 68.404C113.468 67.8627 113.318 67.256 113.318 66.584C113.318 65.912 113.458 65.31 113.738 64.778C114.028 64.246 114.415 63.826 114.9 63.518C115.386 63.21 115.927 63.056 116.524 63.056C117.131 63.056 117.668 63.21 118.134 63.518C118.61 63.8167 118.984 64.2273 119.254 64.75C119.534 65.2633 119.674 65.8467 119.674 66.5V66.808H114.312C114.35 67.2747 114.476 67.6947 114.69 68.068C114.914 68.432 115.204 68.7213 115.558 68.936C115.922 69.1413 116.319 69.244 116.748 69.244C117.103 69.244 117.444 69.1833 117.77 69.062C118.106 68.9313 118.391 68.7587 118.624 68.544L119.268 69.23C118.876 69.538 118.47 69.7667 118.05 69.916C117.63 70.0653 117.182 70.14 116.706 70.14ZM114.34 66.08H118.666C118.62 65.6693 118.494 65.3053 118.288 64.988C118.092 64.6613 117.84 64.4047 117.532 64.218C117.234 64.0313 116.898 63.938 116.524 63.938C116.151 63.938 115.81 64.0313 115.502 64.218C115.194 64.3953 114.938 64.6473 114.732 64.974C114.536 65.2913 114.406 65.66 114.34 66.08ZM128.089 70.154C127.323 70.154 126.6 70.0233 125.919 69.762C125.247 69.4913 124.598 69.0947 123.973 68.572L124.883 67.34C125.517 67.8533 126.082 68.222 126.577 68.446C127.081 68.6607 127.617 68.768 128.187 68.768C128.616 68.768 128.994 68.7027 129.321 68.572C129.657 68.432 129.913 68.2453 130.091 68.012C130.277 67.7787 130.371 67.508 130.371 67.2C130.371 66.7987 130.235 66.4953 129.965 66.29C129.703 66.0753 129.246 65.912 128.593 65.8L126.787 65.492C125.937 65.3427 125.303 65.058 124.883 64.638C124.472 64.2087 124.267 63.6627 124.267 63C124.267 62.412 124.416 61.8987 124.715 61.46C125.013 61.012 125.429 60.6667 125.961 60.424C126.502 60.172 127.141 60.046 127.879 60.046C128.616 60.046 129.316 60.1533 129.979 60.368C130.641 60.5827 131.253 60.8953 131.813 61.306L130.959 62.566C130.464 62.1927 129.955 61.9127 129.433 61.726C128.91 61.53 128.373 61.432 127.823 61.432C127.431 61.432 127.085 61.4927 126.787 61.614C126.497 61.7353 126.269 61.9033 126.101 62.118C125.942 62.3327 125.863 62.5707 125.863 62.832C125.863 63.1867 125.979 63.462 126.213 63.658C126.455 63.8447 126.843 63.9847 127.375 64.078L129.125 64.372C130.114 64.5493 130.842 64.8573 131.309 65.296C131.785 65.7347 132.023 66.3273 132.023 67.074C132.023 67.6713 131.855 68.2033 131.519 68.67C131.192 69.1367 130.735 69.5007 130.147 69.762C129.559 70.0233 128.873 70.154 128.089 70.154ZM136.93 70.14C136.258 70.14 135.651 69.9813 135.11 69.664C134.568 69.3373 134.139 68.9033 133.822 68.362C133.504 67.8113 133.346 67.1907 133.346 66.5C133.346 65.8093 133.495 65.1933 133.794 64.652C134.092 64.1107 134.498 63.6813 135.012 63.364C135.534 63.0373 136.113 62.874 136.748 62.874C137.401 62.874 137.975 63.0327 138.47 63.35C138.974 63.6673 139.366 64.0967 139.646 64.638C139.935 65.1793 140.079 65.8 140.079 66.5V66.878H134.9C134.956 67.2607 135.077 67.6013 135.264 67.9C135.46 68.1893 135.707 68.418 136.006 68.586C136.314 68.754 136.645 68.838 137 68.838C137.326 68.838 137.634 68.782 137.924 68.67C138.222 68.5487 138.47 68.3853 138.666 68.18L139.702 69.118C139.272 69.4727 138.834 69.734 138.386 69.902C137.947 70.0607 137.462 70.14 136.93 70.14ZM134.914 65.898H138.582C138.526 65.562 138.409 65.2633 138.232 65.002C138.064 64.7407 137.849 64.5353 137.588 64.386C137.336 64.2367 137.056 64.162 136.748 64.162C136.44 64.162 136.155 64.2367 135.894 64.386C135.642 64.526 135.432 64.7267 135.264 64.988C135.096 65.2493 134.979 65.5527 134.914 65.898ZM144.512 70.14C143.802 70.14 143.266 69.9767 142.902 69.65C142.538 69.314 142.356 68.824 142.356 68.18V64.246H140.956V62.986H142.356V61.054L143.938 60.718V62.986H145.884V64.246H143.938V67.83C143.938 68.1753 144.012 68.4227 144.162 68.572C144.311 68.712 144.563 68.782 144.918 68.782C145.076 68.782 145.221 68.7727 145.352 68.754C145.492 68.726 145.664 68.6793 145.87 68.614V69.944C145.674 70.0093 145.45 70.056 145.198 70.084C144.955 70.1213 144.726 70.14 144.512 70.14ZM150.445 70.14C149.736 70.14 149.199 69.9767 148.835 69.65C148.471 69.314 148.289 68.824 148.289 68.18V64.246H146.889V62.986H148.289V61.054L149.871 60.718V62.986H151.817V64.246H149.871V67.83C149.871 68.1753 149.946 68.4227 150.095 68.572C150.245 68.712 150.497 68.782 150.851 68.782C151.01 68.782 151.155 68.7727 151.285 68.754C151.425 68.726 151.598 68.6793 151.803 68.614V69.944C151.607 70.0093 151.383 70.056 151.131 70.084C150.889 70.1213 150.66 70.14 150.445 70.14ZM153.204 70V62.986H154.786V70H153.204ZM154.002 61.558C153.732 61.558 153.498 61.4647 153.302 61.278C153.116 61.082 153.022 60.8533 153.022 60.592C153.022 60.3213 153.116 60.0927 153.302 59.906C153.498 59.71 153.732 59.612 154.002 59.612C154.273 59.612 154.502 59.71 154.688 59.906C154.884 60.0927 154.982 60.3167 154.982 60.578C154.982 60.8487 154.884 61.082 154.688 61.278C154.502 61.4647 154.273 61.558 154.002 61.558ZM156.746 70V62.986H158.328V64.134C158.598 63.714 158.92 63.4013 159.294 63.196C159.667 62.9813 160.082 62.874 160.54 62.874C161.025 62.874 161.45 62.9813 161.814 63.196C162.178 63.4013 162.462 63.6907 162.668 64.064C162.882 64.4373 162.99 64.876 162.99 65.38V70H161.394V65.828C161.394 65.3147 161.254 64.9087 160.974 64.61C160.694 64.302 160.32 64.148 159.854 64.148C159.536 64.148 159.247 64.2227 158.986 64.372C158.734 64.512 158.514 64.722 158.328 65.002V70H156.746ZM168.17 73.066C167.675 73.066 167.185 73.0053 166.7 72.884C166.215 72.7627 165.767 72.5947 165.356 72.38L165.902 71.218C166.322 71.414 166.705 71.5587 167.05 71.652C167.405 71.7547 167.755 71.806 168.1 71.806C168.688 71.806 169.131 71.6753 169.43 71.414C169.738 71.1527 169.892 70.7653 169.892 70.252V69.062C169.64 69.37 169.327 69.6127 168.954 69.79C168.581 69.958 168.175 70.042 167.736 70.042C167.148 70.042 166.616 69.8833 166.14 69.566C165.664 69.2393 165.281 68.81 164.992 68.278C164.712 67.7367 164.572 67.1347 164.572 66.472C164.572 65.8093 164.717 65.212 165.006 64.68C165.295 64.148 165.687 63.7233 166.182 63.406C166.686 63.0887 167.241 62.93 167.848 62.93C168.259 62.93 168.641 63.0093 168.996 63.168C169.351 63.3267 169.654 63.56 169.906 63.868V62.986H171.474V70.252C171.474 71.1573 171.189 71.8527 170.62 72.338C170.051 72.8233 169.234 73.066 168.17 73.066ZM168.226 68.726C168.562 68.726 168.875 68.6607 169.164 68.53C169.453 68.39 169.696 68.1987 169.892 67.956V65.016C169.687 64.7733 169.439 64.5867 169.15 64.456C168.861 64.3253 168.553 64.26 168.226 64.26C167.825 64.26 167.465 64.358 167.148 64.554C166.84 64.7407 166.593 65.002 166.406 65.338C166.219 65.6647 166.126 66.0473 166.126 66.486C166.126 66.906 166.219 67.2887 166.406 67.634C166.593 67.97 166.84 68.236 167.148 68.432C167.465 68.628 167.825 68.726 168.226 68.726ZM175.805 70.14C175.208 70.14 174.648 70.0607 174.125 69.902C173.612 69.734 173.169 69.496 172.795 69.188L173.537 68.138C174.004 68.4273 174.405 68.6327 174.741 68.754C175.087 68.8753 175.437 68.936 175.791 68.936C176.211 68.936 176.552 68.8473 176.813 68.67C177.075 68.4927 177.205 68.264 177.205 67.984C177.205 67.7693 177.126 67.6013 176.967 67.48C176.818 67.3493 176.571 67.2513 176.225 67.186L174.993 66.976C174.312 66.8453 173.803 66.6213 173.467 66.304C173.131 65.9867 172.963 65.5667 172.963 65.044C172.963 64.6053 173.075 64.2273 173.299 63.91C173.533 63.5833 173.85 63.3313 174.251 63.154C174.662 62.9673 175.138 62.874 175.679 62.874C176.165 62.874 176.636 62.944 177.093 63.084C177.551 63.224 177.999 63.434 178.437 63.714L177.695 64.764C177.341 64.5307 176.986 64.3627 176.631 64.26C176.286 64.148 175.936 64.092 175.581 64.092C175.217 64.092 174.923 64.1667 174.699 64.316C174.485 64.456 174.377 64.652 174.377 64.904C174.377 65.128 174.447 65.3007 174.587 65.422C174.737 65.534 174.993 65.618 175.357 65.674L176.603 65.912C177.303 66.0333 177.821 66.2573 178.157 66.584C178.503 66.9013 178.675 67.326 178.675 67.858C178.675 68.2873 178.549 68.6747 178.297 69.02C178.045 69.3653 177.705 69.6407 177.275 69.846C176.846 70.042 176.356 70.14 175.805 70.14ZM186.066 70.14C185.478 70.14 185.03 70 184.722 69.72C184.423 69.4307 184.274 69.0153 184.274 68.474V64.008H182.86V63.168H184.274V61.292L185.296 61.054V63.168H187.256V64.008H185.296V68.208C185.296 68.572 185.371 68.8333 185.52 68.992C185.679 69.1507 185.935 69.23 186.29 69.23C186.467 69.23 186.626 69.216 186.766 69.188C186.906 69.16 187.069 69.1133 187.256 69.048V69.958C187.069 70.0233 186.873 70.07 186.668 70.098C186.463 70.126 186.262 70.14 186.066 70.14ZM190.867 70.126C190.382 70.126 189.952 70.0373 189.579 69.86C189.206 69.6827 188.912 69.44 188.697 69.132C188.492 68.8147 188.389 68.4507 188.389 68.04C188.389 67.6293 188.496 67.2747 188.711 66.976C188.926 66.668 189.224 66.43 189.607 66.262C189.99 66.094 190.438 66.01 190.951 66.01C191.343 66.01 191.712 66.052 192.057 66.136C192.412 66.22 192.738 66.3553 193.037 66.542V65.604C193.037 65.044 192.888 64.624 192.589 64.344C192.29 64.0547 191.852 63.91 191.273 63.91C190.956 63.91 190.629 63.9567 190.293 64.05C189.966 64.1433 189.602 64.2927 189.201 64.498L188.823 63.714C189.738 63.2753 190.596 63.056 191.399 63.056C192.248 63.056 192.902 63.266 193.359 63.686C193.816 64.0967 194.045 64.6893 194.045 65.464V70H193.037V69.202C192.738 69.51 192.407 69.7433 192.043 69.902C191.679 70.0513 191.287 70.126 190.867 70.126ZM189.369 68.012C189.369 68.4133 189.523 68.7353 189.831 68.978C190.148 69.2207 190.564 69.342 191.077 69.342C191.46 69.342 191.81 69.2767 192.127 69.146C192.454 69.0153 192.757 68.8193 193.037 68.558V67.242C192.748 67.074 192.449 66.9527 192.141 66.878C191.833 66.794 191.488 66.752 191.105 66.752C190.582 66.752 190.162 66.8687 189.845 67.102C189.528 67.326 189.369 67.6293 189.369 68.012ZM196.122 70V59.99L197.144 59.78V64.106C197.406 63.7793 197.723 63.5273 198.096 63.35C198.47 63.1727 198.885 63.084 199.342 63.084C199.94 63.084 200.472 63.2427 200.938 63.56C201.414 63.868 201.792 64.288 202.072 64.82C202.352 65.3427 202.492 65.9307 202.492 66.584C202.492 67.2373 202.348 67.83 202.058 68.362C201.778 68.894 201.396 69.3187 200.91 69.636C200.434 69.944 199.893 70.098 199.286 70.098C198.857 70.098 198.456 70.014 198.082 69.846C197.718 69.6687 197.401 69.4213 197.13 69.104V70H196.122ZM199.09 69.216C199.548 69.216 199.954 69.104 200.308 68.88C200.672 68.6467 200.957 68.334 201.162 67.942C201.377 67.5407 201.484 67.0927 201.484 66.598C201.484 66.094 201.377 65.646 201.162 65.254C200.957 64.862 200.672 64.554 200.308 64.33C199.954 64.0967 199.548 63.98 199.09 63.98C198.689 63.98 198.316 64.064 197.97 64.232C197.634 64.3907 197.359 64.6193 197.144 64.918V68.264C197.368 68.5627 197.648 68.796 197.984 68.964C198.33 69.132 198.698 69.216 199.09 69.216ZM203.579 72.198L204.419 68.964H205.511L204.377 72.198H203.579ZM212.81 70.14C212.25 70.14 211.732 70.056 211.256 69.888C210.78 69.7107 210.374 69.4587 210.038 69.132L210.584 68.46C210.995 68.7587 211.373 68.978 211.718 69.118C212.064 69.2487 212.418 69.314 212.782 69.314C213.277 69.314 213.688 69.1973 214.014 68.964C214.341 68.7307 214.504 68.432 214.504 68.068C214.504 67.788 214.406 67.5687 214.21 67.41C214.024 67.2513 213.711 67.13 213.272 67.046L212.152 66.85C211.49 66.7287 211 66.5233 210.682 66.234C210.374 65.9447 210.22 65.5527 210.22 65.058C210.22 64.666 210.323 64.3207 210.528 64.022C210.743 63.7233 211.037 63.49 211.41 63.322C211.784 63.1447 212.208 63.056 212.684 63.056C213.151 63.056 213.594 63.126 214.014 63.266C214.434 63.3967 214.859 63.6113 215.288 63.91L214.784 64.624C214.43 64.372 214.075 64.19 213.72 64.078C213.366 63.9567 213.006 63.896 212.642 63.896C212.194 63.896 211.835 63.994 211.564 64.19C211.294 64.386 211.158 64.652 211.158 64.988C211.158 65.268 211.242 65.4827 211.41 65.632C211.588 65.7813 211.896 65.8933 212.334 65.968L213.482 66.178C214.173 66.2993 214.677 66.5093 214.994 66.808C215.312 67.1067 215.47 67.508 215.47 68.012C215.47 68.4133 215.354 68.7773 215.12 69.104C214.887 69.4213 214.57 69.6733 214.168 69.86C213.767 70.0467 213.314 70.14 212.81 70.14ZM220.175 70.14C219.54 70.14 218.966 69.986 218.453 69.678C217.94 69.3607 217.534 68.936 217.235 68.404C216.936 67.8627 216.787 67.256 216.787 66.584C216.787 65.912 216.927 65.31 217.207 64.778C217.496 64.246 217.884 63.826 218.369 63.518C218.854 63.21 219.396 63.056 219.993 63.056C220.6 63.056 221.136 63.21 221.603 63.518C222.079 63.8167 222.452 64.2273 222.723 64.75C223.003 65.2633 223.143 65.8467 223.143 66.5V66.808H217.781C217.818 67.2747 217.944 67.6947 218.159 68.068C218.383 68.432 218.672 68.7213 219.027 68.936C219.391 69.1413 219.788 69.244 220.217 69.244C220.572 69.244 220.912 69.1833 221.239 69.062C221.575 68.9313 221.86 68.7587 222.093 68.544L222.737 69.23C222.345 69.538 221.939 69.7667 221.519 69.916C221.099 70.0653 220.651 70.14 220.175 70.14ZM217.809 66.08H222.135C222.088 65.6693 221.962 65.3053 221.757 64.988C221.561 64.6613 221.309 64.4047 221.001 64.218C220.702 64.0313 220.366 63.938 219.993 63.938C219.62 63.938 219.279 64.0313 218.971 64.218C218.663 64.3953 218.406 64.6473 218.201 64.974C218.005 65.2913 217.874 65.66 217.809 66.08ZM224.888 70V59.892L225.91 59.682V70H224.888ZM231.085 70.14C230.45 70.14 229.876 69.986 229.363 69.678C228.85 69.3607 228.444 68.936 228.145 68.404C227.846 67.8627 227.697 67.256 227.697 66.584C227.697 65.912 227.837 65.31 228.117 64.778C228.406 64.246 228.794 63.826 229.279 63.518C229.764 63.21 230.306 63.056 230.903 63.056C231.51 63.056 232.046 63.21 232.513 63.518C232.989 63.8167 233.362 64.2273 233.633 64.75C233.913 65.2633 234.053 65.8467 234.053 66.5V66.808H228.691C228.728 67.2747 228.854 67.6947 229.069 68.068C229.293 68.432 229.582 68.7213 229.937 68.936C230.301 69.1413 230.698 69.244 231.127 69.244C231.482 69.244 231.822 69.1833 232.149 69.062C232.485 68.9313 232.77 68.7587 233.003 68.544L233.647 69.23C233.255 69.538 232.849 69.7667 232.429 69.916C232.009 70.0653 231.561 70.14 231.085 70.14ZM228.719 66.08H233.045C232.998 65.6693 232.872 65.3053 232.667 64.988C232.471 64.6613 232.219 64.4047 231.911 64.218C231.612 64.0313 231.276 63.938 230.903 63.938C230.53 63.938 230.189 64.0313 229.881 64.218C229.573 64.3953 229.316 64.6473 229.111 64.974C228.915 65.2913 228.784 65.66 228.719 66.08ZM238.864 70.112C238.229 70.112 237.655 69.958 237.142 69.65C236.638 69.3327 236.237 68.908 235.938 68.376C235.639 67.8347 235.49 67.2373 235.49 66.584C235.49 65.9213 235.639 65.324 235.938 64.792C236.237 64.26 236.638 63.84 237.142 63.532C237.655 63.2147 238.229 63.056 238.864 63.056C239.368 63.056 239.849 63.1493 240.306 63.336C240.763 63.5227 241.16 63.784 241.496 64.12L240.838 64.834C240.595 64.5633 240.301 64.3533 239.956 64.204C239.611 64.0547 239.261 63.98 238.906 63.98C238.458 63.98 238.052 64.0967 237.688 64.33C237.333 64.5633 237.049 64.876 236.834 65.268C236.619 65.66 236.512 66.0987 236.512 66.584C236.512 67.0693 236.619 67.508 236.834 67.9C237.049 68.292 237.333 68.6047 237.688 68.838C238.052 69.0713 238.458 69.188 238.906 69.188C239.261 69.188 239.611 69.1133 239.956 68.964C240.301 68.8053 240.595 68.5953 240.838 68.334L241.496 69.048C241.16 69.384 240.763 69.6453 240.306 69.832C239.849 70.0187 239.368 70.112 238.864 70.112ZM245.662 70.14C245.074 70.14 244.626 70 244.318 69.72C244.019 69.4307 243.87 69.0153 243.87 68.474V64.008H242.456V63.168H243.87V61.292L244.892 61.054V63.168H246.852V64.008H244.892V68.208C244.892 68.572 244.966 68.8333 245.116 68.992C245.274 69.1507 245.531 69.23 245.886 69.23C246.063 69.23 246.222 69.216 246.362 69.188C246.502 69.16 246.665 69.1133 246.852 69.048V69.958C246.665 70.0233 246.469 70.07 246.264 70.098C246.058 70.126 245.858 70.14 245.662 70.14ZM311.078 70.112C310.873 70.112 310.695 70.0373 310.546 69.888C310.406 69.7387 310.336 69.5613 310.336 69.356C310.336 69.1413 310.406 68.964 310.546 68.824C310.695 68.6747 310.873 68.6 311.078 68.6C311.283 68.6 311.456 68.6747 311.596 68.824C311.745 68.964 311.82 69.1413 311.82 69.356C311.82 69.5613 311.745 69.7387 311.596 69.888C311.456 70.0373 311.283 70.112 311.078 70.112Z" fill="#151515"/>
<path d="M254.528 70L250.692 60.2H251.84L255.2 68.964L258.574 60.2H259.68L255.816 70H254.528ZM260.845 70V63.168H261.867V70H260.845ZM261.363 61.474C261.157 61.474 260.98 61.404 260.831 61.264C260.691 61.1147 260.621 60.942 260.621 60.746C260.621 60.55 260.691 60.382 260.831 60.242C260.98 60.0927 261.157 60.018 261.363 60.018C261.568 60.018 261.741 60.0927 261.881 60.242C262.03 60.382 262.105 60.55 262.105 60.746C262.105 60.942 262.03 61.1147 261.881 61.264C261.741 61.404 261.568 61.474 261.363 61.474ZM267.042 70.14C266.407 70.14 265.833 69.986 265.32 69.678C264.807 69.3607 264.401 68.936 264.102 68.404C263.803 67.8627 263.654 67.256 263.654 66.584C263.654 65.912 263.794 65.31 264.074 64.778C264.363 64.246 264.751 63.826 265.236 63.518C265.721 63.21 266.263 63.056 266.86 63.056C267.467 63.056 268.003 63.21 268.47 63.518C268.946 63.8167 269.319 64.2273 269.59 64.75C269.87 65.2633 270.01 65.8467 270.01 66.5V66.808H264.648C264.685 67.2747 264.811 67.6947 265.026 68.068C265.25 68.432 265.539 68.7213 265.894 68.936C266.258 69.1413 266.655 69.244 267.084 69.244C267.439 69.244 267.779 69.1833 268.106 69.062C268.442 68.9313 268.727 68.7587 268.96 68.544L269.604 69.23C269.212 69.538 268.806 69.7667 268.386 69.916C267.966 70.0653 267.518 70.14 267.042 70.14ZM264.676 66.08H269.002C268.955 65.6693 268.829 65.3053 268.624 64.988C268.428 64.6613 268.176 64.4047 267.868 64.218C267.569 64.0313 267.233 63.938 266.86 63.938C266.487 63.938 266.146 64.0313 265.838 64.218C265.53 64.3953 265.273 64.6473 265.068 64.974C264.872 65.2913 264.741 65.66 264.676 66.08ZM272.836 70L270.96 63.168H271.954L273.382 68.628L275.02 63.168H275.93L277.568 68.628L278.982 63.168H279.948L278.086 70H277.092L275.468 64.484L273.844 70H272.836ZM284.661 70V59.892L285.683 59.682V70H284.661ZM290.803 70.112C290.168 70.112 289.599 69.958 289.095 69.65C288.591 69.342 288.194 68.922 287.905 68.39C287.615 67.858 287.471 67.256 287.471 66.584C287.471 65.912 287.615 65.31 287.905 64.778C288.194 64.246 288.591 63.826 289.095 63.518C289.599 63.21 290.168 63.056 290.803 63.056C291.428 63.056 291.988 63.21 292.483 63.518C292.987 63.826 293.383 64.246 293.673 64.778C293.962 65.31 294.107 65.912 294.107 66.584C294.107 67.256 293.962 67.858 293.673 68.39C293.383 68.922 292.987 69.342 292.483 69.65C291.988 69.958 291.428 70.112 290.803 70.112ZM290.789 69.216C291.237 69.216 291.633 69.104 291.979 68.88C292.324 68.6467 292.595 68.3293 292.791 67.928C292.996 67.5267 293.099 67.0787 293.099 66.584C293.099 66.08 292.996 65.632 292.791 65.24C292.595 64.8387 292.324 64.526 291.979 64.302C291.633 64.0687 291.237 63.952 290.789 63.952C290.341 63.952 289.944 64.0687 289.599 64.302C289.253 64.526 288.978 64.8387 288.773 65.24C288.577 65.632 288.479 66.08 288.479 66.584C288.479 67.0787 288.577 67.5267 288.773 67.928C288.978 68.3293 289.253 68.6467 289.599 68.88C289.944 69.104 290.341 69.216 290.789 69.216ZM299.064 73.066C298.606 73.066 298.144 73.0007 297.678 72.87C297.22 72.7487 296.796 72.576 296.404 72.352L296.838 71.568C297.258 71.7827 297.64 71.9413 297.986 72.044C298.331 72.1467 298.676 72.198 299.022 72.198C299.647 72.198 300.118 72.0487 300.436 71.75C300.762 71.4513 300.926 71.0173 300.926 70.448V69.076C300.664 69.4027 300.347 69.6547 299.974 69.832C299.6 70 299.19 70.084 298.742 70.084C298.154 70.084 297.622 69.93 297.146 69.622C296.67 69.3047 296.292 68.8847 296.012 68.362C295.732 67.83 295.592 67.2373 295.592 66.584C295.592 65.9307 295.732 65.3427 296.012 64.82C296.301 64.288 296.688 63.868 297.174 63.56C297.659 63.2427 298.2 63.084 298.798 63.084C299.227 63.084 299.624 63.168 299.988 63.336C300.352 63.4947 300.669 63.7327 300.94 64.05V63.168H301.948V70.434C301.948 71.2833 301.7 71.932 301.206 72.38C300.711 72.8373 299.997 73.066 299.064 73.066ZM298.994 69.202C299.395 69.202 299.764 69.1227 300.1 68.964C300.436 68.796 300.711 68.5673 300.926 68.278V64.904C300.702 64.6147 300.417 64.3907 300.072 64.232C299.736 64.064 299.376 63.98 298.994 63.98C298.536 63.98 298.126 64.092 297.762 64.316C297.407 64.54 297.122 64.848 296.908 65.24C296.702 65.632 296.6 66.08 296.6 66.584C296.6 67.0787 296.702 67.5267 296.908 67.928C297.122 68.32 297.407 68.6327 297.762 68.866C298.126 69.09 298.536 69.202 298.994 69.202ZM306.162 70.14C305.602 70.14 305.084 70.056 304.608 69.888C304.132 69.7107 303.726 69.4587 303.39 69.132L303.936 68.46C304.347 68.7587 304.725 68.978 305.07 69.118C305.415 69.2487 305.77 69.314 306.134 69.314C306.629 69.314 307.039 69.1973 307.366 68.964C307.693 68.7307 307.856 68.432 307.856 68.068C307.856 67.788 307.758 67.5687 307.562 67.41C307.375 67.2513 307.063 67.13 306.624 67.046L305.504 66.85C304.841 66.7287 304.351 66.5233 304.034 66.234C303.726 65.9447 303.572 65.5527 303.572 65.058C303.572 64.666 303.675 64.3207 303.88 64.022C304.095 63.7233 304.389 63.49 304.762 63.322C305.135 63.1447 305.56 63.056 306.036 63.056C306.503 63.056 306.946 63.126 307.366 63.266C307.786 63.3967 308.211 63.6113 308.64 63.91L308.136 64.624C307.781 64.372 307.427 64.19 307.072 64.078C306.717 63.9567 306.358 63.896 305.994 63.896C305.546 63.896 305.187 63.994 304.916 64.19C304.645 64.386 304.51 64.652 304.51 64.988C304.51 65.268 304.594 65.4827 304.762 65.632C304.939 65.7813 305.247 65.8933 305.686 65.968L306.834 66.178C307.525 66.2993 308.029 66.5093 308.346 66.808C308.663 67.1067 308.822 67.508 308.822 68.012C308.822 68.4133 308.705 68.7773 308.472 69.104C308.239 69.4213 307.921 69.6733 307.52 69.86C307.119 70.0467 306.666 70.14 306.162 70.14Z" fill="#0066CC"/>
<path d="M250.566 73.5H309.328V74.9H250.566V73.5Z" fill="#0066CC"/>
</g>
<defs>
<filter id="filter0_d_10_2131" x="8" y="116" width="440" height="87" filterUnits="userSpaceOnUse" color-interpolation-filters="sRGB">
<feFlood flood-opacity="0" result="BackgroundImageFix"/>
<feColorMatrix in="SourceAlpha" type="matrix" values="0 0 0 0 0 0 0 0 0 0 0 0 0 0 0 0 0 0 127 0" result="hardAlpha"/>
<feOffset dy="8"/>
<feGaussianBlur stdDeviation="8"/>
<feComposite in2="hardAlpha" operator="out"/>
<feColorMatrix type="matrix" values="0 0 0 0 0.0823529 0 0 0 0 0.0823529 0 0 0 0 0.0823529 0 0 0 0.3 0"/>
<feBlend mode="normal" in2="BackgroundImageFix" result="effect1_dropShadow_10_2131"/>
<feBlend mode="normal" in="SourceGraphic" in2="effect1_dropShadow_10_2131" result="shape"/>
</filter>
<filter id="filter1_d_10_2131" x="8" y="0" width="440" height="116" filterUnits="userSpaceOnUse" color-interpolation-filters="sRGB">
<feFlood flood-opacity="0" result="BackgroundImageFix"/>
<feColorMatrix in="SourceAlpha" type="matrix" values="0 0 0 0 0 0 0 0 0 0 0 0 0 0 0 0 0 0 127 0" result="hardAlpha"/>
<feOffset dy="8"/>
<feGaussianBlur stdDeviation="8"/>
<feComposite in2="hardAlpha" operator="out"/>
<feColorMatrix type="matrix" values="0 0 0 0 0.0823529 0 0 0 0 0.0823529 0 0 0 0 0.0823529 0 0 0 0.3 0"/>
<feBlend mode="normal" in2="BackgroundImageFix" result="effect1_dropShadow_10_2131"/>
<feBlend mode="normal" in="SourceGraphic" in2="effect1_dropShadow_10_2131" result="shape"/>
</filter>
<clipPath id="clip0_10_2131">
<rect width="16" height="16" fill="white" transform="translate(40 144.5)"/>
</clipPath>
<clipPath id="clip1_10_2131">
<rect width="12" height="12" fill="white" transform="translate(404 142)"/>
</clipPath>
<clipPath id="clip2_10_2131">
<rect width="16" height="16" fill="white" transform="translate(40 28.5)"/>
</clipPath>
<clipPath id="clip3_10_2131">
<rect width="12" height="12" fill="white" transform="translate(404 26)"/>
</clipPath>
</defs>
</svg>
