<svg width="1136" height="825" viewBox="0 0 1136 825" fill="none" xmlns="http://www.w3.org/2000/svg">
<g opacity="0.05">
<rect width="80" height="825" fill="#EE0000"/>
<rect x="96" width="80" height="825" fill="#EE0000"/>
<rect x="192" width="80" height="825" fill="#EE0000"/>
<rect x="288" width="80" height="825" fill="#EE0000"/>
<rect x="384" width="80" height="825" fill="#EE0000"/>
<rect x="480" width="80" height="825" fill="#EE0000"/>
<rect x="576" width="80" height="825" fill="#EE0000"/>
<rect x="672" width="80" height="825" fill="#EE0000"/>
<rect x="768" width="80" height="825" fill="#EE0000"/>
<rect x="864" width="80" height="825" fill="#EE0000"/>
<rect x="960" width="80" height="825" fill="#EE0000"/>
<rect x="1056" width="80" height="825" fill="#EE0000"/>
</g>
<mask id="path-13-inside-1_16_1982" fill="white">
<path d="M384 383C384 381.343 385.343 380 387 380H749C750.657 380 752 381.343 752 383V825H384V383Z"/>
</mask>
<path d="M384 383C384 381.343 385.343 380 387 380H749C750.657 380 752 381.343 752 383V825H384V383Z" fill="white"/>
<path d="M383 383C383 380.791 384.791 379 387 379H749C751.209 379 753 380.791 753 383H751C751 381.895 750.105 381 749 381H387C385.895 381 385 381.895 385 383H383ZM752 825H384H752ZM383 825V383C383 380.791 384.791 379 387 379V381C385.895 381 385 381.895 385 383V825H383ZM749 379C751.209 379 753 380.791 753 383V825H751V383C751 381.895 750.105 381 749 381V379Z" fill="#C7C7C7" mask="url(#path-13-inside-1_16_1982)"/>
<rect x="416" y="729" width="304" height="96" fill="#E0E0E0"/>
<rect x="384" y="705" width="368" height="120" fill="url(#paint0_linear_16_1982)"/>
<rect x="384" y="705" width="368" height="120" fill="url(#paint1_linear_16_1982)"/>
<rect x="416" y="601" width="304" height="96" fill="#E0E0E0"/>
<mask id="path-19-inside-2_16_1982" fill="white">
<path d="M416 514H720V569H416V514Z"/>
</mask>
<path d="M416 514H720V569H416V514Z" fill="#FFE3D9"/>
<path d="M416 516H720V512H416V516Z" fill="#B1380B" mask="url(#path-19-inside-2_16_1982)"/>
<g clip-path="url(#clip0_16_1982)">
<path d="M440 534.5C435.59 534.5 432 538.09 432 542.5C432 546.91 435.59 550.5 440 550.5C444.41 550.5 448 546.91 448 542.5C448 538.09 444.41 534.5 440 534.5ZM439.375 539C439.375 538.655 439.655 538.375 440 538.375C440.345 538.375 440.625 538.655 440.625 539V543C440.625 543.345 440.345 543.625 440 543.625C439.655 543.625 439.375 543.345 439.375 543V539ZM440 547.255C439.585 547.255 439.25 546.92 439.25 546.505C439.25 546.09 439.585 545.755 440 545.755C440.415 545.755 440.75 546.09 440.75 546.505C440.75 546.92 440.415 547.255 440 547.255Z" fill="#B1380B"/>
</g>
<path d="M457.176 547V537.2H464.218V538.628H458.856V541.428H462.552V542.828H458.856V547H457.176ZM465.634 547V539.986H467.216V547H465.634ZM466.432 538.558C466.161 538.558 465.928 538.465 465.732 538.278C465.545 538.082 465.452 537.853 465.452 537.592C465.452 537.321 465.545 537.093 465.732 536.906C465.928 536.71 466.161 536.612 466.432 536.612C466.703 536.612 466.931 536.71 467.118 536.906C467.314 537.093 467.412 537.317 467.412 537.578C467.412 537.849 467.314 538.082 467.118 538.278C466.931 538.465 466.703 538.558 466.432 538.558ZM468.363 547L471.009 543.388L468.475 539.986H470.337L471.975 542.296L473.613 539.986H475.391L472.829 543.43L475.503 547H473.655L471.891 544.55L470.127 547H468.363ZM483.06 547.14C482.388 547.14 481.782 546.981 481.24 546.664C480.699 546.337 480.27 545.903 479.952 545.362C479.635 544.811 479.476 544.191 479.476 543.5C479.476 542.809 479.626 542.193 479.924 541.652C480.223 541.111 480.629 540.681 481.142 540.364C481.665 540.037 482.244 539.874 482.878 539.874C483.532 539.874 484.106 540.033 484.6 540.35C485.104 540.667 485.496 541.097 485.776 541.638C486.066 542.179 486.21 542.8 486.21 543.5V543.878H481.03C481.086 544.261 481.208 544.601 481.394 544.9C481.59 545.189 481.838 545.418 482.136 545.586C482.444 545.754 482.776 545.838 483.13 545.838C483.457 545.838 483.765 545.782 484.054 545.67C484.353 545.549 484.6 545.385 484.796 545.18L485.832 546.118C485.403 546.473 484.964 546.734 484.516 546.902C484.078 547.061 483.592 547.14 483.06 547.14ZM481.044 542.898H484.712C484.656 542.562 484.54 542.263 484.362 542.002C484.194 541.741 483.98 541.535 483.718 541.386C483.466 541.237 483.186 541.162 482.878 541.162C482.57 541.162 482.286 541.237 482.024 541.386C481.772 541.526 481.562 541.727 481.394 541.988C481.226 542.249 481.11 542.553 481.044 542.898ZM487.824 547V539.986H489.406V541.498C489.611 540.966 489.877 540.56 490.204 540.28C490.53 540 490.908 539.86 491.338 539.86C491.468 539.869 491.585 539.883 491.688 539.902C491.79 539.911 491.902 539.944 492.024 540V541.386C491.902 541.33 491.762 541.288 491.604 541.26C491.454 541.232 491.305 541.218 491.156 541.218C490.773 541.218 490.428 541.321 490.12 541.526C489.821 541.731 489.583 542.016 489.406 542.38V547H487.824ZM493.32 547V539.986H494.902V541.498C495.107 540.966 495.373 540.56 495.7 540.28C496.027 540 496.405 539.86 496.834 539.86C496.965 539.869 497.081 539.883 497.184 539.902C497.287 539.911 497.399 539.944 497.52 540V541.386C497.399 541.33 497.259 541.288 497.1 541.26C496.951 541.232 496.801 541.218 496.652 541.218C496.269 541.218 495.924 541.321 495.616 541.526C495.317 541.731 495.079 542.016 494.902 542.38V547H493.32ZM501.694 547.126C501.031 547.126 500.429 546.967 499.888 546.65C499.356 546.333 498.936 545.903 498.628 545.362C498.32 544.811 498.166 544.191 498.166 543.5C498.166 542.809 498.32 542.193 498.628 541.652C498.936 541.101 499.356 540.667 499.888 540.35C500.42 540.033 501.022 539.874 501.694 539.874C502.366 539.874 502.963 540.033 503.486 540.35C504.018 540.667 504.438 541.101 504.746 541.652C505.054 542.193 505.208 542.809 505.208 543.5C505.208 544.191 505.054 544.811 504.746 545.362C504.438 545.903 504.018 546.333 503.486 546.65C502.963 546.967 502.366 547.126 501.694 547.126ZM501.694 545.782C502.076 545.782 502.412 545.684 502.702 545.488C503 545.292 503.234 545.021 503.402 544.676C503.57 544.321 503.654 543.929 503.654 543.5C503.654 543.061 503.57 542.674 503.402 542.338C503.234 541.993 503 541.722 502.702 541.526C502.412 541.321 502.076 541.218 501.694 541.218C501.311 541.218 500.97 541.321 500.672 541.526C500.373 541.722 500.14 541.993 499.972 542.338C499.804 542.674 499.72 543.061 499.72 543.5C499.72 543.939 499.804 544.331 499.972 544.676C500.14 545.021 500.373 545.292 500.672 545.488C500.97 545.684 501.311 545.782 501.694 545.782ZM506.841 547V539.986H508.423V541.498C508.629 540.966 508.895 540.56 509.221 540.28C509.548 540 509.926 539.86 510.355 539.86C510.486 539.869 510.603 539.883 510.705 539.902C510.808 539.911 510.92 539.944 511.041 540V541.386C510.92 541.33 510.78 541.288 510.621 541.26C510.472 541.232 510.323 541.218 510.173 541.218C509.791 541.218 509.445 541.321 509.137 541.526C508.839 541.731 508.601 542.016 508.423 542.38V547H506.841ZM514.745 547.14C514.147 547.14 513.587 547.061 513.065 546.902C512.551 546.734 512.108 546.496 511.735 546.188L512.477 545.138C512.943 545.427 513.345 545.633 513.681 545.754C514.026 545.875 514.376 545.936 514.731 545.936C515.151 545.936 515.491 545.847 515.753 545.67C516.014 545.493 516.145 545.264 516.145 544.984C516.145 544.769 516.065 544.601 515.907 544.48C515.757 544.349 515.51 544.251 515.165 544.186L513.933 543.976C513.251 543.845 512.743 543.621 512.407 543.304C512.071 542.987 511.903 542.567 511.903 542.044C511.903 541.605 512.015 541.227 512.239 540.91C512.472 540.583 512.789 540.331 513.191 540.154C513.601 539.967 514.077 539.874 514.619 539.874C515.104 539.874 515.575 539.944 516.033 540.084C516.49 540.224 516.938 540.434 517.377 540.714L516.635 541.764C516.28 541.531 515.925 541.363 515.571 541.26C515.225 541.148 514.875 541.092 514.521 541.092C514.157 541.092 513.863 541.167 513.639 541.316C513.424 541.456 513.317 541.652 513.317 541.904C513.317 542.128 513.387 542.301 513.527 542.422C513.676 542.534 513.933 542.618 514.297 542.674L515.543 542.912C516.243 543.033 516.761 543.257 517.097 543.584C517.442 543.901 517.615 544.326 517.615 544.858C517.615 545.287 517.489 545.675 517.237 546.02C516.985 546.365 516.644 546.641 516.215 546.846C515.785 547.042 515.295 547.14 514.745 547.14ZM525.233 547.14C524.523 547.14 523.987 546.977 523.623 546.65C523.259 546.314 523.077 545.824 523.077 545.18V541.246H521.677V539.986H523.077V538.054L524.659 537.718V539.986H526.605V541.246H524.659V544.83C524.659 545.175 524.733 545.423 524.883 545.572C525.032 545.712 525.284 545.782 525.639 545.782C525.797 545.782 525.942 545.773 526.073 545.754C526.213 545.726 526.385 545.679 526.591 545.614V546.944C526.395 547.009 526.171 547.056 525.919 547.084C525.676 547.121 525.447 547.14 525.233 547.14ZM531.102 547.126C530.439 547.126 529.837 546.967 529.296 546.65C528.764 546.333 528.344 545.903 528.036 545.362C527.728 544.811 527.574 544.191 527.574 543.5C527.574 542.809 527.728 542.193 528.036 541.652C528.344 541.101 528.764 540.667 529.296 540.35C529.828 540.033 530.43 539.874 531.102 539.874C531.774 539.874 532.371 540.033 532.894 540.35C533.426 540.667 533.846 541.101 534.154 541.652C534.462 542.193 534.616 542.809 534.616 543.5C534.616 544.191 534.462 544.811 534.154 545.362C533.846 545.903 533.426 546.333 532.894 546.65C532.371 546.967 531.774 547.126 531.102 547.126ZM531.102 545.782C531.485 545.782 531.821 545.684 532.11 545.488C532.409 545.292 532.642 545.021 532.81 544.676C532.978 544.321 533.062 543.929 533.062 543.5C533.062 543.061 532.978 542.674 532.81 542.338C532.642 541.993 532.409 541.722 532.11 541.526C531.821 541.321 531.485 541.218 531.102 541.218C530.719 541.218 530.379 541.321 530.08 541.526C529.781 541.722 529.548 541.993 529.38 542.338C529.212 542.674 529.128 543.061 529.128 543.5C529.128 543.939 529.212 544.331 529.38 544.676C529.548 545.021 529.781 545.292 530.08 545.488C530.379 545.684 530.719 545.782 531.102 545.782ZM539.394 549.926V539.986H540.948V540.98C541.2 540.644 541.513 540.387 541.886 540.21C542.269 540.023 542.684 539.93 543.132 539.93C543.729 539.93 544.266 540.089 544.742 540.406C545.218 540.723 545.596 541.153 545.876 541.694C546.156 542.235 546.296 542.837 546.296 543.5C546.296 544.163 546.151 544.765 545.862 545.306C545.573 545.847 545.181 546.277 544.686 546.594C544.191 546.911 543.641 547.07 543.034 547.07C542.614 547.07 542.227 546.995 541.872 546.846C541.527 546.687 541.228 546.463 540.976 546.174V549.926H539.394ZM542.656 545.754C543.057 545.754 543.412 545.656 543.72 545.46C544.037 545.264 544.285 544.998 544.462 544.662C544.649 544.317 544.742 543.929 544.742 543.5C544.742 543.071 544.649 542.688 544.462 542.352C544.285 542.016 544.037 541.75 543.72 541.554C543.412 541.358 543.057 541.26 542.656 541.26C542.311 541.26 541.993 541.33 541.704 541.47C541.415 541.601 541.172 541.792 540.976 542.044V544.97C541.181 545.213 541.429 545.404 541.718 545.544C542.007 545.684 542.32 545.754 542.656 545.754ZM547.953 547V539.986H549.535V541.498C549.74 540.966 550.006 540.56 550.333 540.28C550.659 540 551.037 539.86 551.467 539.86C551.597 539.869 551.714 539.883 551.817 539.902C551.919 539.911 552.031 539.944 552.153 540V541.386C552.031 541.33 551.891 541.288 551.733 541.26C551.583 541.232 551.434 541.218 551.285 541.218C550.902 541.218 550.557 541.321 550.249 541.526C549.95 541.731 549.712 542.016 549.535 542.38V547H547.953ZM556.327 547.126C555.664 547.126 555.062 546.967 554.521 546.65C553.989 546.333 553.569 545.903 553.261 545.362C552.953 544.811 552.799 544.191 552.799 543.5C552.799 542.809 552.953 542.193 553.261 541.652C553.569 541.101 553.989 540.667 554.521 540.35C555.053 540.033 555.655 539.874 556.327 539.874C556.999 539.874 557.596 540.033 558.119 540.35C558.651 540.667 559.071 541.101 559.379 541.652C559.687 542.193 559.841 542.809 559.841 543.5C559.841 544.191 559.687 544.811 559.379 545.362C559.071 545.903 558.651 546.333 558.119 546.65C557.596 546.967 556.999 547.126 556.327 547.126ZM556.327 545.782C556.709 545.782 557.045 545.684 557.335 545.488C557.633 545.292 557.867 545.021 558.035 544.676C558.203 544.321 558.287 543.929 558.287 543.5C558.287 543.061 558.203 542.674 558.035 542.338C557.867 541.993 557.633 541.722 557.335 541.526C557.045 541.321 556.709 541.218 556.327 541.218C555.944 541.218 555.603 541.321 555.305 541.526C555.006 541.722 554.773 541.993 554.605 542.338C554.437 542.674 554.353 543.061 554.353 543.5C554.353 543.939 554.437 544.331 554.605 544.676C554.773 545.021 555.006 545.292 555.305 545.488C555.603 545.684 555.944 545.782 556.327 545.782ZM564.694 547.126C564.031 547.126 563.429 546.967 562.888 546.65C562.356 546.323 561.931 545.885 561.614 545.334C561.306 544.783 561.152 544.172 561.152 543.5C561.152 542.819 561.306 542.207 561.614 541.666C561.931 541.115 562.356 540.681 562.888 540.364C563.429 540.037 564.031 539.874 564.694 539.874C565.235 539.874 565.749 539.977 566.234 540.182C566.729 540.387 567.149 540.681 567.494 541.064L566.514 542.086C566.271 541.815 566.001 541.61 565.702 541.47C565.403 541.33 565.086 541.26 564.75 541.26C564.367 541.26 564.022 541.363 563.714 541.568C563.415 541.764 563.177 542.03 563 542.366C562.823 542.702 562.734 543.08 562.734 543.5C562.734 543.92 562.823 544.303 563 544.648C563.177 544.984 563.415 545.25 563.714 545.446C564.022 545.642 564.367 545.74 564.75 545.74C565.086 545.74 565.403 545.67 565.702 545.53C566.001 545.39 566.271 545.189 566.514 544.928L567.494 545.936C567.149 546.319 566.729 546.613 566.234 546.818C565.749 547.023 565.235 547.126 564.694 547.126ZM571.859 547.14C571.187 547.14 570.581 546.981 570.039 546.664C569.498 546.337 569.069 545.903 568.751 545.362C568.434 544.811 568.275 544.191 568.275 543.5C568.275 542.809 568.425 542.193 568.723 541.652C569.022 541.111 569.428 540.681 569.941 540.364C570.464 540.037 571.043 539.874 571.677 539.874C572.331 539.874 572.905 540.033 573.399 540.35C573.903 540.667 574.295 541.097 574.575 541.638C574.865 542.179 575.009 542.8 575.009 543.5V543.878H569.829C569.885 544.261 570.007 544.601 570.193 544.9C570.389 545.189 570.637 545.418 570.935 545.586C571.243 545.754 571.575 545.838 571.929 545.838C572.256 545.838 572.564 545.782 572.853 545.67C573.152 545.549 573.399 545.385 573.595 545.18L574.631 546.118C574.202 546.473 573.763 546.734 573.315 546.902C572.877 547.061 572.391 547.14 571.859 547.14ZM569.843 542.898H573.511C573.455 542.562 573.339 542.263 573.161 542.002C572.993 541.741 572.779 541.535 572.517 541.386C572.265 541.237 571.985 541.162 571.677 541.162C571.369 541.162 571.085 541.237 570.823 541.386C570.571 541.526 570.361 541.727 570.193 541.988C570.025 542.249 569.909 542.553 569.843 542.898ZM579.912 547.14C579.24 547.14 578.633 546.981 578.092 546.664C577.551 546.337 577.121 545.903 576.804 545.362C576.487 544.811 576.328 544.191 576.328 543.5C576.328 542.809 576.477 542.193 576.776 541.652C577.075 541.111 577.481 540.681 577.994 540.364C578.517 540.037 579.095 539.874 579.73 539.874C580.383 539.874 580.957 540.033 581.452 540.35C581.956 540.667 582.348 541.097 582.628 541.638C582.917 542.179 583.062 542.8 583.062 543.5V543.878H577.882C577.938 544.261 578.059 544.601 578.246 544.9C578.442 545.189 578.689 545.418 578.988 545.586C579.296 545.754 579.627 545.838 579.982 545.838C580.309 545.838 580.617 545.782 580.906 545.67C581.205 545.549 581.452 545.385 581.648 545.18L582.684 546.118C582.255 546.473 581.816 546.734 581.368 546.902C580.929 547.061 580.444 547.14 579.912 547.14ZM577.896 542.898H581.564C581.508 542.562 581.391 542.263 581.214 542.002C581.046 541.741 580.831 541.535 580.57 541.386C580.318 541.237 580.038 541.162 579.73 541.162C579.422 541.162 579.137 541.237 578.876 541.386C578.624 541.526 578.414 541.727 578.246 541.988C578.078 542.249 577.961 542.553 577.896 542.898ZM587.545 547.07C586.957 547.07 586.425 546.911 585.949 546.594C585.473 546.267 585.09 545.838 584.801 545.306C584.521 544.765 584.381 544.163 584.381 543.5C584.381 542.828 584.525 542.226 584.815 541.694C585.104 541.153 585.496 540.723 585.991 540.406C586.495 540.089 587.05 539.93 587.657 539.93C588.058 539.93 588.431 540.009 588.777 540.168C589.131 540.317 589.439 540.541 589.701 540.84V536.962L591.283 536.682V547H589.715V546.076C589.463 546.393 589.15 546.641 588.777 546.818C588.403 546.986 587.993 547.07 587.545 547.07ZM588.035 545.74C588.371 545.74 588.683 545.675 588.973 545.544C589.262 545.404 589.505 545.213 589.701 544.97V542.016C589.495 541.773 589.248 541.587 588.959 541.456C588.669 541.325 588.361 541.26 588.035 541.26C587.633 541.26 587.274 541.358 586.957 541.554C586.649 541.741 586.401 542.002 586.215 542.338C586.028 542.674 585.935 543.061 585.935 543.5C585.935 543.92 586.028 544.303 586.215 544.648C586.401 544.984 586.649 545.25 586.957 545.446C587.274 545.642 587.633 545.74 588.035 545.74ZM597.624 547L595.734 539.986H597.246L598.478 544.928L599.934 539.986H601.264L602.706 544.928L603.938 539.986H605.408L603.518 547H602.006L600.578 542.058L599.164 547H597.624ZM606.687 547V539.986H608.269V547H606.687ZM607.485 538.558C607.214 538.558 606.981 538.465 606.785 538.278C606.598 538.082 606.505 537.853 606.505 537.592C606.505 537.321 606.598 537.093 606.785 536.906C606.981 536.71 607.214 536.612 607.485 536.612C607.755 536.612 607.984 536.71 608.171 536.906C608.367 537.093 608.465 537.317 608.465 537.578C608.465 537.849 608.367 538.082 608.171 538.278C607.984 538.465 607.755 538.558 607.485 538.558ZM613.252 547.14C612.543 547.14 612.006 546.977 611.642 546.65C611.278 546.314 611.096 545.824 611.096 545.18V541.246H609.696V539.986H611.096V538.054L612.678 537.718V539.986H614.624V541.246H612.678V544.83C612.678 545.175 612.753 545.423 612.902 545.572C613.051 545.712 613.303 545.782 613.658 545.782C613.817 545.782 613.961 545.773 614.092 545.754C614.232 545.726 614.405 545.679 614.61 545.614V546.944C614.414 547.009 614.19 547.056 613.938 547.084C613.695 547.121 613.467 547.14 613.252 547.14ZM616.025 547V536.962L617.607 536.682V541.134C617.878 540.714 618.2 540.401 618.573 540.196C618.946 539.981 619.362 539.874 619.819 539.874C620.304 539.874 620.729 539.981 621.093 540.196C621.457 540.401 621.742 540.691 621.947 541.064C622.162 541.437 622.269 541.876 622.269 542.38V547H620.673V542.828C620.673 542.315 620.533 541.909 620.253 541.61C619.973 541.302 619.6 541.148 619.133 541.148C618.816 541.148 618.526 541.223 618.265 541.372C618.013 541.512 617.794 541.722 617.607 542.002V547H616.025ZM629.698 547.14C629.101 547.14 628.541 547.061 628.018 546.902C627.505 546.734 627.061 546.496 626.688 546.188L627.43 545.138C627.897 545.427 628.298 545.633 628.634 545.754C628.979 545.875 629.329 545.936 629.684 545.936C630.104 545.936 630.445 545.847 630.706 545.67C630.967 545.493 631.098 545.264 631.098 544.984C631.098 544.769 631.019 544.601 630.86 544.48C630.711 544.349 630.463 544.251 630.118 544.186L628.886 543.976C628.205 543.845 627.696 543.621 627.36 543.304C627.024 542.987 626.856 542.567 626.856 542.044C626.856 541.605 626.968 541.227 627.192 540.91C627.425 540.583 627.743 540.331 628.144 540.154C628.555 539.967 629.031 539.874 629.572 539.874C630.057 539.874 630.529 539.944 630.986 540.084C631.443 540.224 631.891 540.434 632.33 540.714L631.588 541.764C631.233 541.531 630.879 541.363 630.524 541.26C630.179 541.148 629.829 541.092 629.474 541.092C629.11 541.092 628.816 541.167 628.592 541.316C628.377 541.456 628.27 541.652 628.27 541.904C628.27 542.128 628.34 542.301 628.48 542.422C628.629 542.534 628.886 542.618 629.25 542.674L630.496 542.912C631.196 543.033 631.714 543.257 632.05 543.584C632.395 543.901 632.568 544.326 632.568 544.858C632.568 545.287 632.442 545.675 632.19 546.02C631.938 546.365 631.597 546.641 631.168 546.846C630.739 547.042 630.249 547.14 629.698 547.14ZM634.003 547V539.986H635.585V547H634.003ZM634.801 538.558C634.53 538.558 634.297 538.465 634.101 538.278C633.914 538.082 633.821 537.853 633.821 537.592C633.821 537.321 633.914 537.093 634.101 536.906C634.297 536.71 634.53 536.612 634.801 536.612C635.072 536.612 635.3 536.71 635.487 536.906C635.683 537.093 635.781 537.317 635.781 537.578C635.781 537.849 635.683 538.082 635.487 538.278C635.3 538.465 635.072 538.558 634.801 538.558ZM640.82 550.066C640.326 550.066 639.836 550.005 639.35 549.884C638.865 549.763 638.417 549.595 638.006 549.38L638.552 548.218C638.972 548.414 639.355 548.559 639.7 548.652C640.055 548.755 640.405 548.806 640.75 548.806C641.338 548.806 641.782 548.675 642.08 548.414C642.388 548.153 642.542 547.765 642.542 547.252V546.062C642.29 546.37 641.978 546.613 641.604 546.79C641.231 546.958 640.825 547.042 640.386 547.042C639.798 547.042 639.266 546.883 638.79 546.566C638.314 546.239 637.932 545.81 637.642 545.278C637.362 544.737 637.222 544.135 637.222 543.472C637.222 542.809 637.367 542.212 637.656 541.68C637.946 541.148 638.338 540.723 638.832 540.406C639.336 540.089 639.892 539.93 640.498 539.93C640.909 539.93 641.292 540.009 641.646 540.168C642.001 540.327 642.304 540.56 642.556 540.868V539.986H644.124V547.252C644.124 548.157 643.84 548.853 643.27 549.338C642.701 549.823 641.884 550.066 640.82 550.066ZM640.876 545.726C641.212 545.726 641.525 545.661 641.814 545.53C642.104 545.39 642.346 545.199 642.542 544.956V542.016C642.337 541.773 642.09 541.587 641.8 541.456C641.511 541.325 641.203 541.26 640.876 541.26C640.475 541.26 640.116 541.358 639.798 541.554C639.49 541.741 639.243 542.002 639.056 542.338C638.87 542.665 638.776 543.047 638.776 543.486C638.776 543.906 638.87 544.289 639.056 544.634C639.243 544.97 639.49 545.236 639.798 545.432C640.116 545.628 640.475 545.726 640.876 545.726ZM646.076 547V539.986H647.658V541.134C647.928 540.714 648.25 540.401 648.624 540.196C648.997 539.981 649.412 539.874 649.87 539.874C650.355 539.874 650.78 539.981 651.144 540.196C651.508 540.401 651.792 540.691 651.998 541.064C652.212 541.437 652.32 541.876 652.32 542.38V547H650.724V542.828C650.724 542.315 650.584 541.909 650.304 541.61C650.024 541.302 649.65 541.148 649.184 541.148C648.866 541.148 648.577 541.223 648.316 541.372C648.064 541.512 647.844 541.722 647.658 542.002V547H646.076ZM656.55 547.112C656.064 547.112 655.64 547.005 655.276 546.79C654.912 546.575 654.622 546.281 654.408 545.908C654.202 545.535 654.1 545.101 654.1 544.606V539.986H655.696V544.144C655.696 544.667 655.831 545.082 656.102 545.39C656.382 545.689 656.76 545.838 657.236 545.838C657.553 545.838 657.838 545.768 658.09 545.628C658.351 545.488 658.575 545.278 658.762 544.998V539.986H660.344V547H658.762V545.866C658.491 546.277 658.169 546.589 657.796 546.804C657.422 547.009 657.007 547.112 656.55 547.112ZM662.304 549.926V539.986H663.858V540.98C664.11 540.644 664.423 540.387 664.796 540.21C665.179 540.023 665.594 539.93 666.042 539.93C666.64 539.93 667.176 540.089 667.652 540.406C668.128 540.723 668.506 541.153 668.786 541.694C669.066 542.235 669.206 542.837 669.206 543.5C669.206 544.163 669.062 544.765 668.772 545.306C668.483 545.847 668.091 546.277 667.596 546.594C667.102 546.911 666.551 547.07 665.944 547.07C665.524 547.07 665.137 546.995 664.782 546.846C664.437 546.687 664.138 546.463 663.886 546.174V549.926H662.304ZM665.566 545.754C665.968 545.754 666.322 545.656 666.63 545.46C666.948 545.264 667.195 544.998 667.372 544.662C667.559 544.317 667.652 543.929 667.652 543.5C667.652 543.071 667.559 542.688 667.372 542.352C667.195 542.016 666.948 541.75 666.63 541.554C666.322 541.358 665.968 541.26 665.566 541.26C665.221 541.26 664.904 541.33 664.614 541.47C664.325 541.601 664.082 541.792 663.886 542.044V544.97C664.092 545.213 664.339 545.404 664.628 545.544C664.918 545.684 665.23 545.754 665.566 545.754Z" fill="#151515"/>
<rect x="416" y="458" width="304" height="24" fill="#E0E0E0"/>
<rect x="416" y="410" width="152" height="32" fill="#E0E0E0"/>
<rect y="292" width="752" height="24" fill="#E0E0E0"/>
<rect y="252" width="752" height="24" fill="#E0E0E0"/>
<rect y="200" width="464" height="36" fill="#E0E0E0"/>
<mask id="path-28-inside-3_16_1982" fill="white">
<path d="M0 32H1136V168H0V32Z"/>
</mask>
<path d="M0 32H1136V168H0V32Z" fill="#E9F7DF"/>
<path d="M0 34H1136V30H0V34Z" fill="#3D7317" mask="url(#path-28-inside-3_16_1982)"/>
<g clip-path="url(#clip1_16_1982)">
<path d="M24 52.5C19.59 52.5 16 56.09 16 60.5C16 64.91 19.59 68.5 24 68.5C28.41 68.5 32 64.91 32 60.5C32 56.09 28.41 52.5 24 52.5ZM27.9 58.9L23.575 63.225C23.415 63.385 23.21 63.46 23 63.46C22.79 63.46 22.585 63.38 22.425 63.225L20.1 60.9C19.88 60.68 19.88 60.325 20.1 60.105C20.32 59.885 20.675 59.885 20.895 60.105L22.995 62.21L27.095 58.105C27.315 57.885 27.67 57.885 27.89 58.105C28.11 58.325 28.11 58.68 27.89 58.9H27.9Z" fill="#3D7317"/>
</g>
<path d="M44.452 65.154C43.6867 65.154 42.9633 65.0233 42.282 64.762C41.61 64.4913 40.9613 64.0947 40.336 63.572L41.246 62.34C41.8807 62.8533 42.4453 63.222 42.94 63.446C43.444 63.6607 43.9807 63.768 44.55 63.768C44.9793 63.768 45.3573 63.7027 45.684 63.572C46.02 63.432 46.2767 63.2453 46.454 63.012C46.6407 62.7787 46.734 62.508 46.734 62.2C46.734 61.7987 46.5987 61.4953 46.328 61.29C46.0667 61.0753 45.6093 60.912 44.956 60.8L43.15 60.492C42.3007 60.3427 41.666 60.058 41.246 59.638C40.8353 59.2087 40.63 58.6627 40.63 58C40.63 57.412 40.7793 56.8987 41.078 56.46C41.3767 56.012 41.792 55.6667 42.324 55.424C42.8653 55.172 43.5047 55.046 44.242 55.046C44.9793 55.046 45.6793 55.1533 46.342 55.368C47.0047 55.5827 47.616 55.8953 48.176 56.306L47.322 57.566C46.8273 57.1927 46.3187 56.9127 45.796 56.726C45.2733 56.53 44.7367 56.432 44.186 56.432C43.794 56.432 43.4487 56.4927 43.15 56.614C42.8607 56.7353 42.632 56.9033 42.464 57.118C42.3053 57.3327 42.226 57.5707 42.226 57.832C42.226 58.1867 42.3427 58.462 42.576 58.658C42.8187 58.8447 43.206 58.9847 43.738 59.078L45.488 59.372C46.4773 59.5493 47.2053 59.8573 47.672 60.296C48.148 60.7347 48.386 61.3273 48.386 62.074C48.386 62.6713 48.218 63.2033 47.882 63.67C47.5553 64.1367 47.098 64.5007 46.51 64.762C45.922 65.0233 45.236 65.154 44.452 65.154ZM52.2881 65.112C51.8027 65.112 51.3781 65.0047 51.0141 64.79C50.6501 64.5753 50.3607 64.2813 50.1461 63.908C49.9407 63.5347 49.8381 63.1007 49.8381 62.606V57.986H51.4341V62.144C51.4341 62.6667 51.5694 63.082 51.8401 63.39C52.1201 63.6887 52.4981 63.838 52.9741 63.838C53.2914 63.838 53.5761 63.768 53.8281 63.628C54.0894 63.488 54.3134 63.278 54.5001 62.998V57.986H56.0821V65H54.5001V63.866C54.2294 64.2767 53.9074 64.5893 53.5341 64.804C53.1607 65.0093 52.7454 65.112 52.2881 65.112ZM61.2625 65.126C60.5998 65.126 59.9978 64.9673 59.4565 64.65C58.9245 64.3233 58.4998 63.8847 58.1825 63.334C57.8745 62.7833 57.7205 62.172 57.7205 61.5C57.7205 60.8187 57.8745 60.2073 58.1825 59.666C58.4998 59.1153 58.9245 58.6813 59.4565 58.364C59.9978 58.0373 60.5998 57.874 61.2625 57.874C61.8038 57.874 62.3172 57.9767 62.8025 58.182C63.2972 58.3873 63.7172 58.6813 64.0625 59.064L63.0825 60.086C62.8398 59.8153 62.5692 59.61 62.2705 59.47C61.9718 59.33 61.6545 59.26 61.3185 59.26C60.9358 59.26 60.5905 59.3627 60.2825 59.568C59.9838 59.764 59.7458 60.03 59.5685 60.366C59.3912 60.702 59.3025 61.08 59.3025 61.5C59.3025 61.92 59.3912 62.3027 59.5685 62.648C59.7458 62.984 59.9838 63.25 60.2825 63.446C60.5905 63.642 60.9358 63.74 61.3185 63.74C61.6545 63.74 61.9718 63.67 62.2705 63.53C62.5692 63.39 62.8398 63.1893 63.0825 62.928L64.0625 63.936C63.7172 64.3187 63.2972 64.6127 62.8025 64.818C62.3172 65.0233 61.8038 65.126 61.2625 65.126ZM68.3855 65.126C67.7229 65.126 67.1209 64.9673 66.5795 64.65C66.0475 64.3233 65.6229 63.8847 65.3055 63.334C64.9975 62.7833 64.8435 62.172 64.8435 61.5C64.8435 60.8187 64.9975 60.2073 65.3055 59.666C65.6229 59.1153 66.0475 58.6813 66.5795 58.364C67.1209 58.0373 67.7229 57.874 68.3855 57.874C68.9269 57.874 69.4402 57.9767 69.9255 58.182C70.4202 58.3873 70.8402 58.6813 71.1855 59.064L70.2055 60.086C69.9629 59.8153 69.6922 59.61 69.3935 59.47C69.0949 59.33 68.7775 59.26 68.4415 59.26C68.0589 59.26 67.7135 59.3627 67.4055 59.568C67.1069 59.764 66.8689 60.03 66.6915 60.366C66.5142 60.702 66.4255 61.08 66.4255 61.5C66.4255 61.92 66.5142 62.3027 66.6915 62.648C66.8689 62.984 67.1069 63.25 67.4055 63.446C67.7135 63.642 68.0589 63.74 68.4415 63.74C68.7775 63.74 69.0949 63.67 69.3935 63.53C69.6922 63.39 69.9629 63.1893 70.2055 62.928L71.1855 63.936C70.8402 64.3187 70.4202 64.6127 69.9255 64.818C69.4402 65.0233 68.9269 65.126 68.3855 65.126ZM75.5506 65.14C74.8786 65.14 74.2719 64.9813 73.7306 64.664C73.1893 64.3373 72.7599 63.9033 72.4426 63.362C72.1253 62.8113 71.9666 62.1907 71.9666 61.5C71.9666 60.8093 72.1159 60.1933 72.4146 59.652C72.7133 59.1107 73.1193 58.6813 73.6326 58.364C74.1553 58.0373 74.7339 57.874 75.3686 57.874C76.0219 57.874 76.5959 58.0327 77.0906 58.35C77.5946 58.6673 77.9866 59.0967 78.2666 59.638C78.5559 60.1793 78.7006 60.8 78.7006 61.5V61.878H73.5206C73.5766 62.2607 73.6979 62.6013 73.8846 62.9C74.0806 63.1893 74.3279 63.418 74.6266 63.586C74.9346 63.754 75.2659 63.838 75.6206 63.838C75.9473 63.838 76.2553 63.782 76.5446 63.67C76.8433 63.5487 77.0906 63.3853 77.2866 63.18L78.3226 64.118C77.8933 64.4727 77.4546 64.734 77.0066 64.902C76.5679 65.0607 76.0826 65.14 75.5506 65.14ZM73.5346 60.898H77.2026C77.1466 60.562 77.0299 60.2633 76.8526 60.002C76.6846 59.7407 76.4699 59.5353 76.2086 59.386C75.9566 59.2367 75.6766 59.162 75.3686 59.162C75.0606 59.162 74.7759 59.2367 74.5146 59.386C74.2626 59.526 74.0526 59.7267 73.8846 59.988C73.7166 60.2493 73.5999 60.5527 73.5346 60.898ZM82.7623 65.14C82.165 65.14 81.605 65.0607 81.0823 64.902C80.569 64.734 80.1257 64.496 79.7523 64.188L80.4943 63.138C80.961 63.4273 81.3623 63.6327 81.6983 63.754C82.0437 63.8753 82.3937 63.936 82.7483 63.936C83.1683 63.936 83.509 63.8473 83.7703 63.67C84.0317 63.4927 84.1623 63.264 84.1623 62.984C84.1623 62.7693 84.083 62.6013 83.9243 62.48C83.775 62.3493 83.5277 62.2513 83.1823 62.186L81.9503 61.976C81.269 61.8453 80.7603 61.6213 80.4243 61.304C80.0883 60.9867 79.9203 60.5667 79.9203 60.044C79.9203 59.6053 80.0323 59.2273 80.2563 58.91C80.4897 58.5833 80.807 58.3313 81.2083 58.154C81.619 57.9673 82.095 57.874 82.6363 57.874C83.1217 57.874 83.593 57.944 84.0503 58.084C84.5077 58.224 84.9557 58.434 85.3943 58.714L84.6523 59.764C84.2977 59.5307 83.943 59.3627 83.5883 59.26C83.243 59.148 82.893 59.092 82.5383 59.092C82.1743 59.092 81.8803 59.1667 81.6563 59.316C81.4417 59.456 81.3343 59.652 81.3343 59.904C81.3343 60.128 81.4043 60.3007 81.5443 60.422C81.6937 60.534 81.9503 60.618 82.3143 60.674L83.5603 60.912C84.2603 61.0333 84.7783 61.2573 85.1143 61.584C85.4597 61.9013 85.6323 62.326 85.6323 62.858C85.6323 63.2873 85.5063 63.6747 85.2543 64.02C85.0023 64.3653 84.6617 64.6407 84.2323 64.846C83.803 65.042 83.313 65.14 82.7623 65.14ZM89.4616 65.14C88.8642 65.14 88.3042 65.0607 87.7816 64.902C87.2682 64.734 86.8249 64.496 86.4516 64.188L87.1936 63.138C87.6602 63.4273 88.0616 63.6327 88.3976 63.754C88.7429 63.8753 89.0929 63.936 89.4476 63.936C89.8676 63.936 90.2082 63.8473 90.4696 63.67C90.7309 63.4927 90.8616 63.264 90.8616 62.984C90.8616 62.7693 90.7822 62.6013 90.6236 62.48C90.4742 62.3493 90.2269 62.2513 89.8816 62.186L88.6496 61.976C87.9682 61.8453 87.4596 61.6213 87.1236 61.304C86.7876 60.9867 86.6196 60.5667 86.6196 60.044C86.6196 59.6053 86.7316 59.2273 86.9556 58.91C87.1889 58.5833 87.5062 58.3313 87.9076 58.154C88.3182 57.9673 88.7942 57.874 89.3356 57.874C89.8209 57.874 90.2922 57.944 90.7496 58.084C91.2069 58.224 91.6549 58.434 92.0936 58.714L91.3516 59.764C90.9969 59.5307 90.6422 59.3627 90.2876 59.26C89.9422 59.148 89.5922 59.092 89.2376 59.092C88.8736 59.092 88.5796 59.1667 88.3556 59.316C88.1409 59.456 88.0336 59.652 88.0336 59.904C88.0336 60.128 88.1036 60.3007 88.2436 60.422C88.3929 60.534 88.6496 60.618 89.0136 60.674L90.2596 60.912C90.9596 61.0333 91.4776 61.2573 91.8136 61.584C92.1589 61.9013 92.3316 62.326 92.3316 62.858C92.3316 63.2873 92.2056 63.6747 91.9536 64.02C91.7016 64.3653 91.3609 64.6407 90.9316 64.846C90.5022 65.042 90.0122 65.14 89.4616 65.14Z" fill="#151515"/>
<g clip-path="url(#clip2_16_1982)">
<path d="M1114.95 56L1118.68 52.2773C1118.94 52.0136 1118.94 51.5864 1118.68 51.3228C1118.41 51.0591 1117.99 51.0591 1117.72 51.3228L1114 55.0452L1110.28 51.3228C1110.01 51.0591 1109.59 51.0591 1109.32 51.3228C1109.06 51.5865 1109.06 52.0136 1109.32 52.2773L1113.05 56L1109.32 59.7225C1109.06 59.9862 1109.06 60.4139 1109.32 60.6776C1109.45 60.8094 1109.63 60.875 1109.8 60.875C1109.97 60.875 1110.15 60.8094 1110.28 60.6776L1114 56.9548L1117.72 60.6776C1117.85 60.8094 1118.03 60.875 1118.2 60.875C1118.37 60.875 1118.55 60.8094 1118.68 60.6776C1118.94 60.4139 1118.94 59.9862 1118.68 59.7225L1114.95 56Z" fill="#151515"/>
</g>
<path d="M43.976 94V89.996L40.168 84.2H41.428L44.55 89.058L47.686 84.2H48.876L45.054 90.024V94H43.976ZM51.6619 94.112C51.0272 94.112 50.4579 93.958 49.9539 93.65C49.4499 93.342 49.0532 92.922 48.7639 92.39C48.4746 91.858 48.3299 91.256 48.3299 90.584C48.3299 89.912 48.4746 89.31 48.7639 88.778C49.0532 88.246 49.4499 87.826 49.9539 87.518C50.4579 87.21 51.0272 87.056 51.6619 87.056C52.2872 87.056 52.8472 87.21 53.3419 87.518C53.8459 87.826 54.2426 88.246 54.5319 88.778C54.8212 89.31 54.9659 89.912 54.9659 90.584C54.9659 91.256 54.8212 91.858 54.5319 92.39C54.2426 92.922 53.8459 93.342 53.3419 93.65C52.8472 93.958 52.2872 94.112 51.6619 94.112ZM51.6479 93.216C52.0959 93.216 52.4926 93.104 52.8379 92.88C53.1832 92.6467 53.4539 92.3293 53.6499 91.928C53.8552 91.5267 53.9579 91.0787 53.9579 90.584C53.9579 90.08 53.8552 89.632 53.6499 89.24C53.4539 88.8387 53.1832 88.526 52.8379 88.302C52.4926 88.0687 52.0959 87.952 51.6479 87.952C51.1999 87.952 50.8032 88.0687 50.4579 88.302C50.1126 88.526 49.8372 88.8387 49.6319 89.24C49.4359 89.632 49.3379 90.08 49.3379 90.584C49.3379 91.0787 49.4359 91.5267 49.6319 91.928C49.8372 92.3293 50.1126 92.6467 50.4579 92.88C50.8032 93.104 51.1999 93.216 51.6479 93.216ZM59.195 94.112C58.7097 94.112 58.2803 94.0047 57.907 93.79C57.5337 93.5753 57.2397 93.2767 57.025 92.894C56.8197 92.5113 56.717 92.0727 56.717 91.578V87.168H57.753V91.284C57.753 91.8907 57.9163 92.3713 58.243 92.726C58.5697 93.0807 59.013 93.258 59.573 93.258C59.9557 93.258 60.2963 93.1693 60.595 92.992C60.903 92.8147 61.1597 92.558 61.365 92.222V87.168H62.387V94H61.365V92.894C61.1037 93.2953 60.791 93.5987 60.427 93.804C60.0723 94.0093 59.6617 94.112 59.195 94.112ZM64.4836 94V87.168H65.5056V88.568C65.6829 88.092 65.9349 87.7233 66.2616 87.462C66.5976 87.1913 66.9803 87.056 67.4096 87.056C67.5309 87.056 67.6429 87.0653 67.7456 87.084C67.8483 87.0933 67.9509 87.1167 68.0536 87.154V88.078C67.9416 88.0407 67.8203 88.0127 67.6896 87.994C67.5683 87.966 67.4516 87.952 67.3396 87.952C66.9196 87.952 66.5509 88.0733 66.2336 88.316C65.9256 88.5587 65.6829 88.8993 65.5056 89.338V94H64.4836ZM72.673 94V87.168H73.695V88.274C73.9564 87.8633 74.269 87.56 74.633 87.364C74.997 87.1587 75.4077 87.056 75.865 87.056C76.3597 87.056 76.789 87.1633 77.153 87.378C77.5264 87.5833 77.8157 87.8773 78.021 88.26C78.2357 88.6333 78.343 89.072 78.343 89.576V94H77.321V89.87C77.321 89.2633 77.153 88.7873 76.817 88.442C76.4904 88.0873 76.047 87.91 75.487 87.91C75.1137 87.91 74.773 87.9987 74.465 88.176C74.157 88.3533 73.9004 88.6147 73.695 88.96V94H72.673ZM83.4777 94.14C82.843 94.14 82.269 93.986 81.7557 93.678C81.2423 93.3607 80.8363 92.936 80.5377 92.404C80.239 91.8627 80.0897 91.256 80.0897 90.584C80.0897 89.912 80.2297 89.31 80.5097 88.778C80.799 88.246 81.1863 87.826 81.6717 87.518C82.157 87.21 82.6983 87.056 83.2957 87.056C83.9023 87.056 84.439 87.21 84.9057 87.518C85.3817 87.8167 85.755 88.2273 86.0257 88.75C86.3057 89.2633 86.4457 89.8467 86.4457 90.5V90.808H81.0837C81.121 91.2747 81.247 91.6947 81.4617 92.068C81.6857 92.432 81.975 92.7213 82.3297 92.936C82.6937 93.1413 83.0903 93.244 83.5197 93.244C83.8743 93.244 84.215 93.1833 84.5417 93.062C84.8777 92.9313 85.1623 92.7587 85.3957 92.544L86.0397 93.23C85.6477 93.538 85.2417 93.7667 84.8217 93.916C84.4017 94.0653 83.9537 94.14 83.4777 94.14ZM81.1117 90.08H85.4377C85.391 89.6693 85.265 89.3053 85.0597 88.988C84.8637 88.6613 84.6117 88.4047 84.3037 88.218C84.005 88.0313 83.669 87.938 83.2957 87.938C82.9223 87.938 82.5817 88.0313 82.2737 88.218C81.9657 88.3953 81.709 88.6473 81.5037 88.974C81.3077 89.2913 81.177 89.66 81.1117 90.08ZM89.2719 94L87.3959 87.168H88.3899L89.8179 92.628L91.4559 87.168H92.3659L94.0039 92.628L95.4179 87.168H96.3839L94.5219 94H93.5279L91.9039 88.484L90.2799 94H89.2719ZM103.211 94.126C102.726 94.126 102.296 94.0373 101.923 93.86C101.55 93.6827 101.256 93.44 101.041 93.132C100.836 92.8147 100.733 92.4507 100.733 92.04C100.733 91.6293 100.84 91.2747 101.055 90.976C101.27 90.668 101.568 90.43 101.951 90.262C102.334 90.094 102.782 90.01 103.295 90.01C103.687 90.01 104.056 90.052 104.401 90.136C104.756 90.22 105.082 90.3553 105.381 90.542V89.604C105.381 89.044 105.232 88.624 104.933 88.344C104.634 88.0547 104.196 87.91 103.617 87.91C103.3 87.91 102.973 87.9567 102.637 88.05C102.31 88.1433 101.946 88.2927 101.545 88.498L101.167 87.714C102.082 87.2753 102.94 87.056 103.743 87.056C104.592 87.056 105.246 87.266 105.703 87.686C106.16 88.0967 106.389 88.6893 106.389 89.464V94H105.381V93.202C105.082 93.51 104.751 93.7433 104.387 93.902C104.023 94.0513 103.631 94.126 103.211 94.126ZM101.713 92.012C101.713 92.4133 101.867 92.7353 102.175 92.978C102.492 93.2207 102.908 93.342 103.421 93.342C103.804 93.342 104.154 93.2767 104.471 93.146C104.798 93.0153 105.101 92.8193 105.381 92.558V91.242C105.092 91.074 104.793 90.9527 104.485 90.878C104.177 90.794 103.832 90.752 103.449 90.752C102.926 90.752 102.506 90.8687 102.189 91.102C101.872 91.326 101.713 91.6293 101.713 92.012ZM111.532 94.112C110.897 94.112 110.323 93.958 109.81 93.65C109.306 93.3327 108.905 92.908 108.606 92.376C108.307 91.8347 108.158 91.2373 108.158 90.584C108.158 89.9213 108.307 89.324 108.606 88.792C108.905 88.26 109.306 87.84 109.81 87.532C110.323 87.2147 110.897 87.056 111.532 87.056C112.036 87.056 112.517 87.1493 112.974 87.336C113.431 87.5227 113.828 87.784 114.164 88.12L113.506 88.834C113.263 88.5633 112.969 88.3533 112.624 88.204C112.279 88.0547 111.929 87.98 111.574 87.98C111.126 87.98 110.72 88.0967 110.356 88.33C110.001 88.5633 109.717 88.876 109.502 89.268C109.287 89.66 109.18 90.0987 109.18 90.584C109.18 91.0693 109.287 91.508 109.502 91.9C109.717 92.292 110.001 92.6047 110.356 92.838C110.72 93.0713 111.126 93.188 111.574 93.188C111.929 93.188 112.279 93.1133 112.624 92.964C112.969 92.8053 113.263 92.5953 113.506 92.334L114.164 93.048C113.828 93.384 113.431 93.6453 112.974 93.832C112.517 94.0187 112.036 94.112 111.532 94.112ZM118.45 94.112C117.815 94.112 117.241 93.958 116.728 93.65C116.224 93.3327 115.823 92.908 115.524 92.376C115.225 91.8347 115.076 91.2373 115.076 90.584C115.076 89.9213 115.225 89.324 115.524 88.792C115.823 88.26 116.224 87.84 116.728 87.532C117.241 87.2147 117.815 87.056 118.45 87.056C118.954 87.056 119.435 87.1493 119.892 87.336C120.349 87.5227 120.746 87.784 121.082 88.12L120.424 88.834C120.181 88.5633 119.887 88.3533 119.542 88.204C119.197 88.0547 118.847 87.98 118.492 87.98C118.044 87.98 117.638 88.0967 117.274 88.33C116.919 88.5633 116.635 88.876 116.42 89.268C116.205 89.66 116.098 90.0987 116.098 90.584C116.098 91.0693 116.205 91.508 116.42 91.9C116.635 92.292 116.919 92.6047 117.274 92.838C117.638 93.0713 118.044 93.188 118.492 93.188C118.847 93.188 119.197 93.1133 119.542 92.964C119.887 92.8053 120.181 92.5953 120.424 92.334L121.082 93.048C120.746 93.384 120.349 93.6453 119.892 93.832C119.435 94.0187 118.954 94.112 118.45 94.112ZM125.326 94.112C124.691 94.112 124.122 93.958 123.618 93.65C123.114 93.342 122.717 92.922 122.428 92.39C122.139 91.858 121.994 91.256 121.994 90.584C121.994 89.912 122.139 89.31 122.428 88.778C122.717 88.246 123.114 87.826 123.618 87.518C124.122 87.21 124.691 87.056 125.326 87.056C125.951 87.056 126.511 87.21 127.006 87.518C127.51 87.826 127.907 88.246 128.196 88.778C128.485 89.31 128.63 89.912 128.63 90.584C128.63 91.256 128.485 91.858 128.196 92.39C127.907 92.922 127.51 93.342 127.006 93.65C126.511 93.958 125.951 94.112 125.326 94.112ZM125.312 93.216C125.76 93.216 126.157 93.104 126.502 92.88C126.847 92.6467 127.118 92.3293 127.314 91.928C127.519 91.5267 127.622 91.0787 127.622 90.584C127.622 90.08 127.519 89.632 127.314 89.24C127.118 88.8387 126.847 88.526 126.502 88.302C126.157 88.0687 125.76 87.952 125.312 87.952C124.864 87.952 124.467 88.0687 124.122 88.302C123.777 88.526 123.501 88.8387 123.296 89.24C123.1 89.632 123.002 90.08 123.002 90.584C123.002 91.0787 123.1 91.5267 123.296 91.928C123.501 92.3293 123.777 92.6467 124.122 92.88C124.467 93.104 124.864 93.216 125.312 93.216ZM132.859 94.112C132.374 94.112 131.944 94.0047 131.571 93.79C131.198 93.5753 130.904 93.2767 130.689 92.894C130.484 92.5113 130.381 92.0727 130.381 91.578V87.168H131.417V91.284C131.417 91.8907 131.58 92.3713 131.907 92.726C132.234 93.0807 132.677 93.258 133.237 93.258C133.62 93.258 133.96 93.1693 134.259 92.992C134.567 92.8147 134.824 92.558 135.029 92.222V87.168H136.051V94H135.029V92.894C134.768 93.2953 134.455 93.5987 134.091 93.804C133.736 94.0093 133.326 94.112 132.859 94.112ZM138.148 94V87.168H139.17V88.274C139.431 87.8633 139.744 87.56 140.108 87.364C140.472 87.1587 140.882 87.056 141.34 87.056C141.834 87.056 142.264 87.1633 142.628 87.378C143.001 87.5833 143.29 87.8773 143.496 88.26C143.71 88.6333 143.818 89.072 143.818 89.576V94H142.796V89.87C142.796 89.2633 142.628 88.7873 142.292 88.442C141.965 88.0873 141.522 87.91 140.962 87.91C140.588 87.91 140.248 87.9987 139.94 88.176C139.632 88.3533 139.375 88.6147 139.17 88.96V94H138.148ZM148.271 94.14C147.683 94.14 147.235 94 146.927 93.72C146.629 93.4307 146.479 93.0153 146.479 92.474V88.008H145.065V87.168H146.479V85.292L147.501 85.054V87.168H149.461V88.008H147.501V92.208C147.501 92.572 147.576 92.8333 147.725 92.992C147.884 93.1507 148.141 93.23 148.495 93.23C148.673 93.23 148.831 93.216 148.971 93.188C149.111 93.16 149.275 93.1133 149.461 93.048V93.958C149.275 94.0233 149.079 94.07 148.873 94.098C148.668 94.126 148.467 94.14 148.271 94.14ZM154.226 94V83.892L155.248 83.682V88.274C155.509 87.8633 155.822 87.56 156.186 87.364C156.55 87.1587 156.96 87.056 157.418 87.056C157.912 87.056 158.342 87.1633 158.706 87.378C159.079 87.5833 159.368 87.8773 159.574 88.26C159.788 88.6333 159.896 89.072 159.896 89.576V94H158.874V89.87C158.874 89.2633 158.706 88.7873 158.37 88.442C158.043 88.0873 157.6 87.91 157.04 87.91C156.666 87.91 156.326 87.9987 156.018 88.176C155.71 88.3533 155.453 88.6147 155.248 88.96V94H154.226ZM164.064 94.126C163.579 94.126 163.15 94.0373 162.776 93.86C162.403 93.6827 162.109 93.44 161.894 93.132C161.689 92.8147 161.586 92.4507 161.586 92.04C161.586 91.6293 161.694 91.2747 161.908 90.976C162.123 90.668 162.422 90.43 162.804 90.262C163.187 90.094 163.635 90.01 164.148 90.01C164.54 90.01 164.909 90.052 165.254 90.136C165.609 90.22 165.936 90.3553 166.234 90.542V89.604C166.234 89.044 166.085 88.624 165.786 88.344C165.488 88.0547 165.049 87.91 164.47 87.91C164.153 87.91 163.826 87.9567 163.49 88.05C163.164 88.1433 162.8 88.2927 162.398 88.498L162.02 87.714C162.935 87.2753 163.794 87.056 164.596 87.056C165.446 87.056 166.099 87.266 166.556 87.686C167.014 88.0967 167.242 88.6893 167.242 89.464V94H166.234V93.202C165.936 93.51 165.604 93.7433 165.24 93.902C164.876 94.0513 164.484 94.126 164.064 94.126ZM162.566 92.012C162.566 92.4133 162.72 92.7353 163.028 92.978C163.346 93.2207 163.761 93.342 164.274 93.342C164.657 93.342 165.007 93.2767 165.324 93.146C165.651 93.0153 165.954 92.8193 166.234 92.558V91.242C165.945 91.074 165.646 90.9527 165.338 90.878C165.03 90.794 164.685 90.752 164.302 90.752C163.78 90.752 163.36 90.8687 163.042 91.102C162.725 91.326 162.566 91.6293 162.566 92.012ZM171.434 94.14C170.874 94.14 170.356 94.056 169.88 93.888C169.404 93.7107 168.998 93.4587 168.662 93.132L169.208 92.46C169.618 92.7587 169.996 92.978 170.342 93.118C170.687 93.2487 171.042 93.314 171.406 93.314C171.9 93.314 172.311 93.1973 172.638 92.964C172.964 92.7307 173.128 92.432 173.128 92.068C173.128 91.788 173.03 91.5687 172.834 91.41C172.647 91.2513 172.334 91.13 171.896 91.046L170.776 90.85C170.113 90.7287 169.623 90.5233 169.306 90.234C168.998 89.9447 168.844 89.5527 168.844 89.058C168.844 88.666 168.946 88.3207 169.152 88.022C169.366 87.7233 169.66 87.49 170.034 87.322C170.407 87.1447 170.832 87.056 171.308 87.056C171.774 87.056 172.218 87.126 172.638 87.266C173.058 87.3967 173.482 87.6113 173.912 87.91L173.408 88.624C173.053 88.372 172.698 88.19 172.344 88.078C171.989 87.9567 171.63 87.896 171.266 87.896C170.818 87.896 170.458 87.994 170.188 88.19C169.917 88.386 169.782 88.652 169.782 88.988C169.782 89.268 169.866 89.4827 170.034 89.632C170.211 89.7813 170.519 89.8933 170.958 89.968L172.106 90.178C172.796 90.2993 173.3 90.5093 173.618 90.808C173.935 91.1067 174.094 91.508 174.094 92.012C174.094 92.4133 173.977 92.7773 173.744 93.104C173.51 93.4213 173.193 93.6733 172.792 93.86C172.39 94.0467 171.938 94.14 171.434 94.14ZM178.917 94V83.99L179.939 83.78V88.106C180.201 87.7793 180.518 87.5273 180.891 87.35C181.265 87.1727 181.68 87.084 182.137 87.084C182.735 87.084 183.267 87.2427 183.733 87.56C184.209 87.868 184.587 88.288 184.867 88.82C185.147 89.3427 185.287 89.9307 185.287 90.584C185.287 91.2373 185.143 91.83 184.853 92.362C184.573 92.894 184.191 93.3187 183.705 93.636C183.229 93.944 182.688 94.098 182.081 94.098C181.652 94.098 181.251 94.014 180.877 93.846C180.513 93.6687 180.196 93.4213 179.925 93.104V94H178.917ZM181.885 93.216C182.343 93.216 182.749 93.104 183.103 92.88C183.467 92.6467 183.752 92.334 183.957 91.942C184.172 91.5407 184.279 91.0927 184.279 90.598C184.279 90.094 184.172 89.646 183.957 89.254C183.752 88.862 183.467 88.554 183.103 88.33C182.749 88.0967 182.343 87.98 181.885 87.98C181.484 87.98 181.111 88.064 180.765 88.232C180.429 88.3907 180.154 88.6193 179.939 88.918V92.264C180.163 92.5627 180.443 92.796 180.779 92.964C181.125 93.132 181.493 93.216 181.885 93.216ZM190.159 94.14C189.525 94.14 188.951 93.986 188.437 93.678C187.924 93.3607 187.518 92.936 187.219 92.404C186.921 91.8627 186.771 91.256 186.771 90.584C186.771 89.912 186.911 89.31 187.191 88.778C187.481 88.246 187.868 87.826 188.353 87.518C188.839 87.21 189.38 87.056 189.977 87.056C190.584 87.056 191.121 87.21 191.587 87.518C192.063 87.8167 192.437 88.2273 192.707 88.75C192.987 89.2633 193.127 89.8467 193.127 90.5V90.808H187.765C187.803 91.2747 187.929 91.6947 188.143 92.068C188.367 92.432 188.657 92.7213 189.011 92.936C189.375 93.1413 189.772 93.244 190.201 93.244C190.556 93.244 190.897 93.1833 191.223 93.062C191.559 92.9313 191.844 92.7587 192.077 92.544L192.721 93.23C192.329 93.538 191.923 93.7667 191.503 93.916C191.083 94.0653 190.635 94.14 190.159 94.14ZM187.793 90.08H192.119C192.073 89.6693 191.947 89.3053 191.741 88.988C191.545 88.6613 191.293 88.4047 190.985 88.218C190.687 88.0313 190.351 87.938 189.977 87.938C189.604 87.938 189.263 88.0313 188.955 88.218C188.647 88.3953 188.391 88.6473 188.185 88.974C187.989 89.2913 187.859 89.66 187.793 90.08ZM197.952 94.14C197.318 94.14 196.744 93.986 196.23 93.678C195.717 93.3607 195.311 92.936 195.012 92.404C194.714 91.8627 194.564 91.256 194.564 90.584C194.564 89.912 194.704 89.31 194.984 88.778C195.274 88.246 195.661 87.826 196.146 87.518C196.632 87.21 197.173 87.056 197.77 87.056C198.377 87.056 198.914 87.21 199.38 87.518C199.856 87.8167 200.23 88.2273 200.5 88.75C200.78 89.2633 200.92 89.8467 200.92 90.5V90.808H195.558C195.596 91.2747 195.722 91.6947 195.936 92.068C196.16 92.432 196.45 92.7213 196.804 92.936C197.168 93.1413 197.565 93.244 197.994 93.244C198.349 93.244 198.69 93.1833 199.016 93.062C199.352 92.9313 199.637 92.7587 199.87 92.544L200.514 93.23C200.122 93.538 199.716 93.7667 199.296 93.916C198.876 94.0653 198.428 94.14 197.952 94.14ZM195.586 90.08H199.912C199.866 89.6693 199.74 89.3053 199.534 88.988C199.338 88.6613 199.086 88.4047 198.778 88.218C198.48 88.0313 198.144 87.938 197.77 87.938C197.397 87.938 197.056 88.0313 196.748 88.218C196.44 88.3953 196.184 88.6473 195.978 88.974C195.782 89.2913 195.652 89.66 195.586 90.08ZM202.665 94V87.168H203.687V88.274C203.949 87.8633 204.261 87.56 204.625 87.364C204.989 87.1587 205.4 87.056 205.857 87.056C206.352 87.056 206.781 87.1633 207.145 87.378C207.519 87.5833 207.808 87.8773 208.013 88.26C208.228 88.6333 208.335 89.072 208.335 89.576V94H207.313V89.87C207.313 89.2633 207.145 88.7873 206.809 88.442C206.483 88.0873 206.039 87.91 205.479 87.91C205.106 87.91 204.765 87.9987 204.457 88.176C204.149 88.3533 203.893 88.6147 203.687 88.96V94H202.665ZM216.723 94.112C216.089 94.112 215.515 93.958 215.001 93.65C214.497 93.3327 214.096 92.908 213.797 92.376C213.499 91.8347 213.349 91.2373 213.349 90.584C213.349 89.9213 213.499 89.324 213.797 88.792C214.096 88.26 214.497 87.84 215.001 87.532C215.515 87.2147 216.089 87.056 216.723 87.056C217.227 87.056 217.708 87.1493 218.165 87.336C218.623 87.5227 219.019 87.784 219.355 88.12L218.697 88.834C218.455 88.5633 218.161 88.3533 217.815 88.204C217.47 88.0547 217.12 87.98 216.765 87.98C216.317 87.98 215.911 88.0967 215.547 88.33C215.193 88.5633 214.908 88.876 214.693 89.268C214.479 89.66 214.371 90.0987 214.371 90.584C214.371 91.0693 214.479 91.508 214.693 91.9C214.908 92.292 215.193 92.6047 215.547 92.838C215.911 93.0713 216.317 93.188 216.765 93.188C217.12 93.188 217.47 93.1133 217.815 92.964C218.161 92.8053 218.455 92.5953 218.697 92.334L219.355 93.048C219.019 93.384 218.623 93.6453 218.165 93.832C217.708 94.0187 217.227 94.112 216.723 94.112ZM220.78 94V87.168H221.802V88.568C221.98 88.092 222.232 87.7233 222.558 87.462C222.894 87.1913 223.277 87.056 223.706 87.056C223.828 87.056 223.94 87.0653 224.042 87.084C224.145 87.0933 224.248 87.1167 224.35 87.154V88.078C224.238 88.0407 224.117 88.0127 223.986 87.994C223.865 87.966 223.748 87.952 223.636 87.952C223.216 87.952 222.848 88.0733 222.53 88.316C222.222 88.5587 221.98 88.8993 221.802 89.338V94H220.78ZM228.359 94.14C227.724 94.14 227.15 93.986 226.637 93.678C226.123 93.3607 225.717 92.936 225.419 92.404C225.12 91.8627 224.971 91.256 224.971 90.584C224.971 89.912 225.111 89.31 225.391 88.778C225.68 88.246 226.067 87.826 226.553 87.518C227.038 87.21 227.579 87.056 228.177 87.056C228.783 87.056 229.32 87.21 229.787 87.518C230.263 87.8167 230.636 88.2273 230.907 88.75C231.187 89.2633 231.327 89.8467 231.327 90.5V90.808H225.965C226.002 91.2747 226.128 91.6947 226.343 92.068C226.567 92.432 226.856 92.7213 227.211 92.936C227.575 93.1413 227.971 93.244 228.401 93.244C228.755 93.244 229.096 93.1833 229.423 93.062C229.759 92.9313 230.043 92.7587 230.277 92.544L230.921 93.23C230.529 93.538 230.123 93.7667 229.703 93.916C229.283 94.0653 228.835 94.14 228.359 94.14ZM225.993 90.08H230.319C230.272 89.6693 230.146 89.3053 229.941 88.988C229.745 88.6613 229.493 88.4047 229.185 88.218C228.886 88.0313 228.55 87.938 228.177 87.938C227.803 87.938 227.463 88.0313 227.155 88.218C226.847 88.3953 226.59 88.6473 226.385 88.974C226.189 89.2913 226.058 89.66 225.993 90.08ZM235.049 94.126C234.563 94.126 234.134 94.0373 233.761 93.86C233.387 93.6827 233.093 93.44 232.879 93.132C232.673 92.8147 232.571 92.4507 232.571 92.04C232.571 91.6293 232.678 91.2747 232.893 90.976C233.107 90.668 233.406 90.43 233.789 90.262C234.171 90.094 234.619 90.01 235.133 90.01C235.525 90.01 235.893 90.052 236.239 90.136C236.593 90.22 236.92 90.3553 237.219 90.542V89.604C237.219 89.044 237.069 88.624 236.771 88.344C236.472 88.0547 236.033 87.91 235.455 87.91C235.137 87.91 234.811 87.9567 234.475 88.05C234.148 88.1433 233.784 88.2927 233.383 88.498L233.005 87.714C233.919 87.2753 234.778 87.056 235.581 87.056C236.43 87.056 237.083 87.266 237.541 87.686C237.998 88.0967 238.227 88.6893 238.227 89.464V94H237.219V93.202C236.92 93.51 236.589 93.7433 236.225 93.902C235.861 94.0513 235.469 94.126 235.049 94.126ZM233.551 92.012C233.551 92.4133 233.705 92.7353 234.013 92.978C234.33 93.2207 234.745 93.342 235.259 93.342C235.641 93.342 235.991 93.2767 236.309 93.146C236.635 93.0153 236.939 92.8193 237.219 92.558V91.242C236.929 91.074 236.631 90.9527 236.323 90.878C236.015 90.794 235.669 90.752 235.287 90.752C234.764 90.752 234.344 90.8687 234.027 91.102C233.709 91.326 233.551 91.6293 233.551 92.012ZM242.703 94.14C242.115 94.14 241.667 94 241.359 93.72C241.06 93.4307 240.911 93.0153 240.911 92.474V88.008H239.497V87.168H240.911V85.292L241.933 85.054V87.168H243.893V88.008H241.933V92.208C241.933 92.572 242.007 92.8333 242.157 92.992C242.315 93.1507 242.572 93.23 242.927 93.23C243.104 93.23 243.263 93.216 243.403 93.188C243.543 93.16 243.706 93.1133 243.893 93.048V93.958C243.706 94.0233 243.51 94.07 243.305 94.098C243.099 94.126 242.899 94.14 242.703 94.14ZM248.333 94.14C247.698 94.14 247.124 93.986 246.611 93.678C246.098 93.3607 245.692 92.936 245.393 92.404C245.094 91.8627 244.945 91.256 244.945 90.584C244.945 89.912 245.085 89.31 245.365 88.778C245.654 88.246 246.042 87.826 246.527 87.518C247.012 87.21 247.554 87.056 248.151 87.056C248.758 87.056 249.294 87.21 249.761 87.518C250.237 87.8167 250.61 88.2273 250.881 88.75C251.161 89.2633 251.301 89.8467 251.301 90.5V90.808H245.939C245.976 91.2747 246.102 91.6947 246.317 92.068C246.541 92.432 246.83 92.7213 247.185 92.936C247.549 93.1413 247.946 93.244 248.375 93.244C248.73 93.244 249.07 93.1833 249.397 93.062C249.733 92.9313 250.018 92.7587 250.251 92.544L250.895 93.23C250.503 93.538 250.097 93.7667 249.677 93.916C249.257 94.0653 248.809 94.14 248.333 94.14ZM245.967 90.08H250.293C250.246 89.6693 250.12 89.3053 249.915 88.988C249.719 88.6613 249.467 88.4047 249.159 88.218C248.86 88.0313 248.524 87.938 248.151 87.938C247.778 87.938 247.437 88.0313 247.129 88.218C246.821 88.3953 246.564 88.6473 246.359 88.974C246.163 89.2913 246.032 89.66 245.967 90.08ZM255.888 94.098C255.3 94.098 254.768 93.944 254.292 93.636C253.816 93.3187 253.438 92.8987 253.158 92.376C252.878 91.844 252.738 91.2513 252.738 90.598C252.738 89.9353 252.878 89.3427 253.158 88.82C253.447 88.288 253.835 87.868 254.32 87.56C254.805 87.2427 255.347 87.084 255.944 87.084C256.364 87.084 256.756 87.168 257.12 87.336C257.484 87.4947 257.801 87.728 258.072 88.036V83.892L259.094 83.682V94H258.072V93.09C257.811 93.4167 257.493 93.6687 257.12 93.846C256.747 94.014 256.336 94.098 255.888 94.098ZM256.14 93.202C256.541 93.202 256.91 93.1227 257.246 92.964C257.582 92.8053 257.857 92.5813 258.072 92.292V88.904C257.848 88.6147 257.563 88.3907 257.218 88.232C256.882 88.064 256.523 87.98 256.14 87.98C255.683 87.98 255.272 88.092 254.908 88.316C254.553 88.54 254.269 88.848 254.054 89.24C253.849 89.632 253.746 90.08 253.746 90.584C253.746 91.0787 253.849 91.5267 254.054 91.928C254.269 92.32 254.553 92.6327 254.908 92.866C255.272 93.09 255.683 93.202 256.14 93.202ZM266.576 94.14C266.016 94.14 265.498 94.056 265.022 93.888C264.546 93.7107 264.14 93.4587 263.804 93.132L264.35 92.46C264.761 92.7587 265.139 92.978 265.484 93.118C265.829 93.2487 266.184 93.314 266.548 93.314C267.043 93.314 267.453 93.1973 267.78 92.964C268.107 92.7307 268.27 92.432 268.27 92.068C268.27 91.788 268.172 91.5687 267.976 91.41C267.789 91.2513 267.477 91.13 267.038 91.046L265.918 90.85C265.255 90.7287 264.765 90.5233 264.448 90.234C264.14 89.9447 263.986 89.5527 263.986 89.058C263.986 88.666 264.089 88.3207 264.294 88.022C264.509 87.7233 264.803 87.49 265.176 87.322C265.549 87.1447 265.974 87.056 266.45 87.056C266.917 87.056 267.36 87.126 267.78 87.266C268.2 87.3967 268.625 87.6113 269.054 87.91L268.55 88.624C268.195 88.372 267.841 88.19 267.486 88.078C267.131 87.9567 266.772 87.896 266.408 87.896C265.96 87.896 265.601 87.994 265.33 88.19C265.059 88.386 264.924 88.652 264.924 88.988C264.924 89.268 265.008 89.4827 265.176 89.632C265.353 89.7813 265.661 89.8933 266.1 89.968L267.248 90.178C267.939 90.2993 268.443 90.5093 268.76 90.808C269.077 91.1067 269.236 91.508 269.236 92.012C269.236 92.4133 269.119 92.7773 268.886 93.104C268.653 93.4213 268.335 93.6733 267.934 93.86C267.533 94.0467 267.08 94.14 266.576 94.14ZM273.228 94.112C272.743 94.112 272.314 94.0047 271.94 93.79C271.567 93.5753 271.273 93.2767 271.058 92.894C270.853 92.5113 270.75 92.0727 270.75 91.578V87.168H271.786V91.284C271.786 91.8907 271.95 92.3713 272.276 92.726C272.603 93.0807 273.046 93.258 273.606 93.258C273.989 93.258 274.33 93.1693 274.628 92.992C274.936 92.8147 275.193 92.558 275.398 92.222V87.168H276.42V94H275.398V92.894C275.137 93.2953 274.824 93.5987 274.46 93.804C274.106 94.0093 273.695 94.112 273.228 94.112ZM281.583 94.112C280.948 94.112 280.374 93.958 279.861 93.65C279.357 93.3327 278.955 92.908 278.657 92.376C278.358 91.8347 278.209 91.2373 278.209 90.584C278.209 89.9213 278.358 89.324 278.657 88.792C278.955 88.26 279.357 87.84 279.861 87.532C280.374 87.2147 280.948 87.056 281.583 87.056C282.087 87.056 282.567 87.1493 283.025 87.336C283.482 87.5227 283.879 87.784 284.215 88.12L283.557 88.834C283.314 88.5633 283.02 88.3533 282.675 88.204C282.329 88.0547 281.979 87.98 281.625 87.98C281.177 87.98 280.771 88.0967 280.407 88.33C280.052 88.5633 279.767 88.876 279.553 89.268C279.338 89.66 279.231 90.0987 279.231 90.584C279.231 91.0693 279.338 91.508 279.553 91.9C279.767 92.292 280.052 92.6047 280.407 92.838C280.771 93.0713 281.177 93.188 281.625 93.188C281.979 93.188 282.329 93.1133 282.675 92.964C283.02 92.8053 283.314 92.5953 283.557 92.334L284.215 93.048C283.879 93.384 283.482 93.6453 283.025 93.832C282.567 94.0187 282.087 94.112 281.583 94.112ZM288.501 94.112C287.866 94.112 287.292 93.958 286.779 93.65C286.275 93.3327 285.873 92.908 285.575 92.376C285.276 91.8347 285.127 91.2373 285.127 90.584C285.127 89.9213 285.276 89.324 285.575 88.792C285.873 88.26 286.275 87.84 286.779 87.532C287.292 87.2147 287.866 87.056 288.501 87.056C289.005 87.056 289.485 87.1493 289.943 87.336C290.4 87.5227 290.797 87.784 291.133 88.12L290.475 88.834C290.232 88.5633 289.938 88.3533 289.593 88.204C289.247 88.0547 288.897 87.98 288.543 87.98C288.095 87.98 287.689 88.0967 287.325 88.33C286.97 88.5633 286.685 88.876 286.471 89.268C286.256 89.66 286.149 90.0987 286.149 90.584C286.149 91.0693 286.256 91.508 286.471 91.9C286.685 92.292 286.97 92.6047 287.325 92.838C287.689 93.0713 288.095 93.188 288.543 93.188C288.897 93.188 289.247 93.1133 289.593 92.964C289.938 92.8053 290.232 92.5953 290.475 92.334L291.133 93.048C290.797 93.384 290.4 93.6453 289.943 93.832C289.485 94.0187 289.005 94.112 288.501 94.112ZM295.433 94.14C294.798 94.14 294.224 93.986 293.711 93.678C293.197 93.3607 292.791 92.936 292.493 92.404C292.194 91.8627 292.045 91.256 292.045 90.584C292.045 89.912 292.185 89.31 292.465 88.778C292.754 88.246 293.141 87.826 293.627 87.518C294.112 87.21 294.653 87.056 295.251 87.056C295.857 87.056 296.394 87.21 296.861 87.518C297.337 87.8167 297.71 88.2273 297.981 88.75C298.261 89.2633 298.401 89.8467 298.401 90.5V90.808H293.039C293.076 91.2747 293.202 91.6947 293.417 92.068C293.641 92.432 293.93 92.7213 294.285 92.936C294.649 93.1413 295.045 93.244 295.475 93.244C295.829 93.244 296.17 93.1833 296.497 93.062C296.833 92.9313 297.117 92.7587 297.351 92.544L297.995 93.23C297.603 93.538 297.197 93.7667 296.777 93.916C296.357 94.0653 295.909 94.14 295.433 94.14ZM293.067 90.08H297.393C297.346 89.6693 297.22 89.3053 297.015 88.988C296.819 88.6613 296.567 88.4047 296.259 88.218C295.96 88.0313 295.624 87.938 295.251 87.938C294.877 87.938 294.537 88.0313 294.229 88.218C293.921 88.3953 293.664 88.6473 293.459 88.974C293.263 89.2913 293.132 89.66 293.067 90.08ZM302.328 94.14C301.768 94.14 301.25 94.056 300.774 93.888C300.298 93.7107 299.892 93.4587 299.556 93.132L300.102 92.46C300.513 92.7587 300.891 92.978 301.236 93.118C301.581 93.2487 301.936 93.314 302.3 93.314C302.795 93.314 303.205 93.1973 303.532 92.964C303.859 92.7307 304.022 92.432 304.022 92.068C304.022 91.788 303.924 91.5687 303.728 91.41C303.541 91.2513 303.229 91.13 302.79 91.046L301.67 90.85C301.007 90.7287 300.517 90.5233 300.2 90.234C299.892 89.9447 299.738 89.5527 299.738 89.058C299.738 88.666 299.841 88.3207 300.046 88.022C300.261 87.7233 300.555 87.49 300.928 87.322C301.301 87.1447 301.726 87.056 302.202 87.056C302.669 87.056 303.112 87.126 303.532 87.266C303.952 87.3967 304.377 87.6113 304.806 87.91L304.302 88.624C303.947 88.372 303.593 88.19 303.238 88.078C302.883 87.9567 302.524 87.896 302.16 87.896C301.712 87.896 301.353 87.994 301.082 88.19C300.811 88.386 300.676 88.652 300.676 88.988C300.676 89.268 300.76 89.4827 300.928 89.632C301.105 89.7813 301.413 89.8933 301.852 89.968L303 90.178C303.691 90.2993 304.195 90.5093 304.512 90.808C304.829 91.1067 304.988 91.508 304.988 92.012C304.988 92.4133 304.871 92.7773 304.638 93.104C304.405 93.4213 304.087 93.6733 303.686 93.86C303.285 94.0467 302.832 94.14 302.328 94.14ZM308.658 94.14C308.098 94.14 307.58 94.056 307.104 93.888C306.628 93.7107 306.222 93.4587 305.886 93.132L306.432 92.46C306.843 92.7587 307.221 92.978 307.566 93.118C307.911 93.2487 308.266 93.314 308.63 93.314C309.125 93.314 309.535 93.1973 309.862 92.964C310.189 92.7307 310.352 92.432 310.352 92.068C310.352 91.788 310.254 91.5687 310.058 91.41C309.871 91.2513 309.559 91.13 309.12 91.046L308 90.85C307.337 90.7287 306.847 90.5233 306.53 90.234C306.222 89.9447 306.068 89.5527 306.068 89.058C306.068 88.666 306.171 88.3207 306.376 88.022C306.591 87.7233 306.885 87.49 307.258 87.322C307.631 87.1447 308.056 87.056 308.532 87.056C308.999 87.056 309.442 87.126 309.862 87.266C310.282 87.3967 310.707 87.6113 311.136 87.91L310.632 88.624C310.277 88.372 309.923 88.19 309.568 88.078C309.213 87.9567 308.854 87.896 308.49 87.896C308.042 87.896 307.683 87.994 307.412 88.19C307.141 88.386 307.006 88.652 307.006 88.988C307.006 89.268 307.09 89.4827 307.258 89.632C307.435 89.7813 307.743 89.8933 308.182 89.968L309.33 90.178C310.021 90.2993 310.525 90.5093 310.842 90.808C311.159 91.1067 311.318 91.508 311.318 92.012C311.318 92.4133 311.201 92.7773 310.968 93.104C310.735 93.4213 310.417 93.6733 310.016 93.86C309.615 94.0467 309.162 94.14 308.658 94.14ZM313.606 94V88.008H312.08V87.168H313.606V85.74C313.606 85.068 313.783 84.55 314.138 84.186C314.492 83.822 314.996 83.64 315.65 83.64C315.836 83.64 316.004 83.6493 316.154 83.668C316.312 83.6867 316.452 83.7193 316.574 83.766V84.69C316.424 84.6433 316.289 84.6107 316.168 84.592C316.046 84.5733 315.906 84.564 315.748 84.564C315.356 84.564 315.071 84.662 314.894 84.858C314.716 85.0447 314.628 85.3433 314.628 85.754V87.168H316.574V88.008H314.628V94H313.606ZM320.355 94.112C319.87 94.112 319.44 94.0047 319.067 93.79C318.694 93.5753 318.4 93.2767 318.185 92.894C317.98 92.5113 317.877 92.0727 317.877 91.578V87.168H318.913V91.284C318.913 91.8907 319.076 92.3713 319.403 92.726C319.73 93.0807 320.173 93.258 320.733 93.258C321.116 93.258 321.456 93.1693 321.755 92.992C322.063 92.8147 322.32 92.558 322.525 92.222V87.168H323.547V94H322.525V92.894C322.264 93.2953 321.951 93.5987 321.587 93.804C321.232 94.0093 320.822 94.112 320.355 94.112ZM325.644 94V83.892L326.666 83.682V94H325.644ZM328.761 94V83.892L329.783 83.682V94H328.761ZM332.172 97.066C331.957 97.066 331.738 97.0333 331.514 96.968V96.058C331.607 96.0767 331.705 96.0907 331.808 96.1C331.911 96.1093 331.999 96.114 332.074 96.114C332.335 96.114 332.55 96.044 332.718 95.904C332.895 95.764 333.045 95.5447 333.166 95.246L333.67 94L331.038 87.168H332.172L334.244 92.782L336.442 87.168H337.576L334.132 95.554C333.983 95.918 333.819 96.212 333.642 96.436C333.465 96.66 333.259 96.8187 333.026 96.912C332.793 97.0147 332.508 97.066 332.172 97.066ZM338.635 94.112C338.429 94.112 338.252 94.0373 338.103 93.888C337.963 93.7387 337.893 93.5613 337.893 93.356C337.893 93.1413 337.963 92.964 338.103 92.824C338.252 92.6747 338.429 92.6 338.635 92.6C338.84 92.6 339.013 92.6747 339.153 92.824C339.302 92.964 339.377 93.1413 339.377 93.356C339.377 93.5613 339.302 93.7387 339.153 93.888C339.013 94.0373 338.84 94.112 338.635 94.112Z" fill="#151515"/>
<rect x="40.5" y="116.5" width="97" height="35" rx="2.5" stroke="#0066CC"/>
<path d="M62.592 140.176C61.792 140.176 61.0453 140.032 60.352 139.744C59.6693 139.445 59.0667 139.035 58.544 138.512C58.0213 137.979 57.616 137.365 57.328 136.672C57.04 135.968 56.896 135.211 56.896 134.4C56.896 133.589 57.04 132.837 57.328 132.144C57.616 131.44 58.0213 130.827 58.544 130.304C59.0667 129.771 59.6693 129.36 60.352 129.072C61.0453 128.773 61.792 128.624 62.592 128.624C63.1467 128.624 63.6747 128.699 64.176 128.848C64.688 128.987 65.168 129.195 65.616 129.472C66.064 129.739 66.464 130.069 66.816 130.464L66 131.312C65.584 130.811 65.072 130.427 64.464 130.16C63.8667 129.883 63.2427 129.744 62.592 129.744C61.9627 129.744 61.376 129.861 60.832 130.096C60.288 130.331 59.8133 130.661 59.408 131.088C59.0133 131.515 58.704 132.011 58.48 132.576C58.256 133.131 58.144 133.739 58.144 134.4C58.144 135.051 58.256 135.659 58.48 136.224C58.704 136.789 59.0133 137.285 59.408 137.712C59.8133 138.139 60.288 138.469 60.832 138.704C61.376 138.939 61.9627 139.056 62.592 139.056C63.2427 139.056 63.8667 138.917 64.464 138.64C65.072 138.363 65.584 137.979 66 137.488L66.816 138.336C66.464 138.731 66.064 139.067 65.616 139.344C65.168 139.611 64.688 139.819 64.176 139.968C63.6747 140.107 63.1467 140.176 62.592 140.176ZM72.031 140.128C71.3057 140.128 70.655 139.952 70.079 139.6C69.503 139.248 69.0497 138.768 68.719 138.16C68.3883 137.552 68.223 136.864 68.223 136.096C68.223 135.328 68.3883 134.64 68.719 134.032C69.0497 133.424 69.503 132.944 70.079 132.592C70.655 132.24 71.3057 132.064 72.031 132.064C72.7457 132.064 73.3857 132.24 73.951 132.592C74.527 132.944 74.9803 133.424 75.311 134.032C75.6417 134.64 75.807 135.328 75.807 136.096C75.807 136.864 75.6417 137.552 75.311 138.16C74.9803 138.768 74.527 139.248 73.951 139.6C73.3857 139.952 72.7457 140.128 72.031 140.128ZM72.015 139.104C72.527 139.104 72.9803 138.976 73.375 138.72C73.7697 138.453 74.079 138.091 74.303 137.632C74.5377 137.173 74.655 136.661 74.655 136.096C74.655 135.52 74.5377 135.008 74.303 134.56C74.079 134.101 73.7697 133.744 73.375 133.488C72.9803 133.221 72.527 133.088 72.015 133.088C71.503 133.088 71.0497 133.221 70.655 133.488C70.2603 133.744 69.9457 134.101 69.711 134.56C69.487 135.008 69.375 135.52 69.375 136.096C69.375 136.661 69.487 137.173 69.711 137.632C69.9457 138.091 70.2603 138.453 70.655 138.72C71.0497 138.976 71.503 139.104 72.015 139.104ZM77.8563 140V132.192H79.0243V133.456C79.3229 132.987 79.6803 132.64 80.0963 132.416C80.5123 132.181 80.9816 132.064 81.5043 132.064C82.0696 132.064 82.5603 132.187 82.9763 132.432C83.4029 132.667 83.7336 133.003 83.9683 133.44C84.2136 133.867 84.3363 134.368 84.3363 134.944V140H83.1683V135.28C83.1683 134.587 82.9763 134.043 82.5923 133.648C82.2189 133.243 81.7123 133.04 81.0723 133.04C80.6456 133.04 80.2563 133.141 79.9043 133.344C79.5523 133.547 79.2589 133.845 79.0243 134.24V140H77.8563ZM89.426 140.16C88.754 140.16 88.242 140 87.89 139.68C87.5487 139.349 87.378 138.875 87.378 138.256V133.152H85.762V132.192H87.378V130.048L88.546 129.776V132.192H90.786V133.152H88.546V137.952C88.546 138.368 88.6313 138.667 88.802 138.848C88.9833 139.029 89.2767 139.12 89.682 139.12C89.8847 139.12 90.066 139.104 90.226 139.072C90.386 139.04 90.5727 138.987 90.786 138.912V139.952C90.5727 140.027 90.3487 140.08 90.114 140.112C89.8793 140.144 89.65 140.16 89.426 140.16ZM92.4809 140V132.192H93.6489V140H92.4809ZM93.0729 130.256C92.8382 130.256 92.6355 130.176 92.4649 130.016C92.3049 129.845 92.2249 129.648 92.2249 129.424C92.2249 129.2 92.3049 129.008 92.4649 128.848C92.6355 128.677 92.8382 128.592 93.0729 128.592C93.3075 128.592 93.5049 128.677 93.6649 128.848C93.8355 129.008 93.9209 129.2 93.9209 129.424C93.9209 129.648 93.8355 129.845 93.6649 130.016C93.5049 130.176 93.3075 130.256 93.0729 130.256ZM96.0438 140V132.192H97.2118V133.456C97.5104 132.987 97.8678 132.64 98.2838 132.416C98.6998 132.181 99.1691 132.064 99.6918 132.064C100.257 132.064 100.748 132.187 101.164 132.432C101.59 132.667 101.921 133.003 102.156 133.44C102.401 133.867 102.524 134.368 102.524 134.944V140H101.356V135.28C101.356 134.587 101.164 134.043 100.78 133.648C100.406 133.243 99.8998 133.04 99.2598 133.04C98.8331 133.04 98.4438 133.141 98.0918 133.344C97.7398 133.547 97.4464 133.845 97.2118 134.24V140H96.0438ZM107.578 140.128C107.023 140.128 106.532 140.005 106.106 139.76C105.679 139.515 105.343 139.173 105.098 138.736C104.863 138.299 104.746 137.797 104.746 137.232V132.192H105.93V136.896C105.93 137.589 106.116 138.139 106.49 138.544C106.863 138.949 107.37 139.152 108.01 139.152C108.447 139.152 108.836 139.051 109.178 138.848C109.53 138.645 109.823 138.352 110.058 137.968V132.192H111.226V140H110.058V138.736C109.759 139.195 109.402 139.541 108.986 139.776C108.58 140.011 108.111 140.128 107.578 140.128ZM117.142 140.16C116.417 140.16 115.761 139.984 115.174 139.632C114.587 139.269 114.123 138.784 113.782 138.176C113.441 137.557 113.27 136.864 113.27 136.096C113.27 135.328 113.43 134.64 113.75 134.032C114.081 133.424 114.523 132.944 115.078 132.592C115.633 132.24 116.251 132.064 116.934 132.064C117.627 132.064 118.241 132.24 118.774 132.592C119.318 132.933 119.745 133.403 120.054 134C120.374 134.587 120.534 135.253 120.534 136V136.352H114.406C114.449 136.885 114.593 137.365 114.838 137.792C115.094 138.208 115.425 138.539 115.83 138.784C116.246 139.019 116.699 139.136 117.19 139.136C117.595 139.136 117.985 139.067 118.358 138.928C118.742 138.779 119.067 138.581 119.334 138.336L120.07 139.12C119.622 139.472 119.158 139.733 118.678 139.904C118.198 140.075 117.686 140.16 117.142 140.16ZM114.438 135.52H119.382C119.329 135.051 119.185 134.635 118.95 134.272C118.726 133.899 118.438 133.605 118.086 133.392C117.745 133.179 117.361 133.072 116.934 133.072C116.507 133.072 116.118 133.179 115.766 133.392C115.414 133.595 115.121 133.883 114.886 134.256C114.662 134.619 114.513 135.04 114.438 135.52Z" fill="#0066CC"/>
<path d="M168.56 140.176C167.76 140.176 167.019 140.027 166.336 139.728C165.653 139.429 165.051 139.019 164.528 138.496C164.016 137.963 163.616 137.349 163.328 136.656C163.04 135.952 162.896 135.2 162.896 134.4C162.896 133.6 163.04 132.853 163.328 132.16C163.616 131.456 164.016 130.843 164.528 130.32C165.051 129.787 165.653 129.371 166.336 129.072C167.019 128.773 167.76 128.624 168.56 128.624C169.413 128.624 170.219 128.779 170.976 129.088C171.744 129.397 172.395 129.856 172.928 130.464L172.096 131.296C171.68 130.795 171.157 130.411 170.528 130.144C169.899 129.877 169.243 129.744 168.56 129.744C167.931 129.744 167.349 129.867 166.816 130.112C166.283 130.347 165.813 130.677 165.408 131.104C165.013 131.52 164.704 132.011 164.48 132.576C164.256 133.141 164.144 133.749 164.144 134.4C164.144 135.051 164.256 135.659 164.48 136.224C164.704 136.789 165.013 137.285 165.408 137.712C165.813 138.128 166.283 138.459 166.816 138.704C167.349 138.939 167.931 139.056 168.56 139.056C169.307 139.056 169.973 138.891 170.56 138.56C171.157 138.229 171.637 137.776 172 137.2C172.373 136.613 172.592 135.957 172.656 135.232H168.88V134.144H173.904V134.64C173.904 135.419 173.771 136.144 173.504 136.816C173.237 137.477 172.859 138.064 172.368 138.576C171.888 139.077 171.323 139.472 170.672 139.76C170.021 140.037 169.317 140.176 168.56 140.176ZM179.437 140.128C178.712 140.128 178.061 139.952 177.485 139.6C176.909 139.248 176.456 138.768 176.125 138.16C175.795 137.552 175.629 136.864 175.629 136.096C175.629 135.328 175.795 134.64 176.125 134.032C176.456 133.424 176.909 132.944 177.485 132.592C178.061 132.24 178.712 132.064 179.437 132.064C180.152 132.064 180.792 132.24 181.357 132.592C181.933 132.944 182.387 133.424 182.717 134.032C183.048 134.64 183.213 135.328 183.213 136.096C183.213 136.864 183.048 137.552 182.717 138.16C182.387 138.768 181.933 139.248 181.357 139.6C180.792 139.952 180.152 140.128 179.437 140.128ZM179.421 139.104C179.933 139.104 180.387 138.976 180.781 138.72C181.176 138.453 181.485 138.091 181.709 137.632C181.944 137.173 182.061 136.661 182.061 136.096C182.061 135.52 181.944 135.008 181.709 134.56C181.485 134.101 181.176 133.744 180.781 133.488C180.387 133.221 179.933 133.088 179.421 133.088C178.909 133.088 178.456 133.221 178.061 133.488C177.667 133.744 177.352 134.101 177.117 134.56C176.893 135.008 176.781 135.52 176.781 136.096C176.781 136.661 176.893 137.173 177.117 137.632C177.352 138.091 177.667 138.453 178.061 138.72C178.456 138.976 178.909 139.104 179.421 139.104ZM191.973 140.16C191.301 140.16 190.789 140 190.437 139.68C190.096 139.349 189.925 138.875 189.925 138.256V133.152H188.309V132.192H189.925V130.048L191.093 129.776V132.192H193.333V133.152H191.093V137.952C191.093 138.368 191.178 138.667 191.349 138.848C191.53 139.029 191.824 139.12 192.229 139.12C192.432 139.12 192.613 139.104 192.773 139.072C192.933 139.04 193.12 138.987 193.333 138.912V139.952C193.12 140.027 192.896 140.08 192.661 140.112C192.426 140.144 192.197 140.16 191.973 140.16ZM198.344 140.128C197.618 140.128 196.968 139.952 196.392 139.6C195.816 139.248 195.362 138.768 195.032 138.16C194.701 137.552 194.536 136.864 194.536 136.096C194.536 135.328 194.701 134.64 195.032 134.032C195.362 133.424 195.816 132.944 196.392 132.592C196.968 132.24 197.618 132.064 198.344 132.064C199.058 132.064 199.698 132.24 200.264 132.592C200.84 132.944 201.293 133.424 201.624 134.032C201.954 134.64 202.12 135.328 202.12 136.096C202.12 136.864 201.954 137.552 201.624 138.16C201.293 138.768 200.84 139.248 200.264 139.6C199.698 139.952 199.058 140.128 198.344 140.128ZM198.328 139.104C198.84 139.104 199.293 138.976 199.688 138.72C200.082 138.453 200.392 138.091 200.616 137.632C200.85 137.173 200.968 136.661 200.968 136.096C200.968 135.52 200.85 135.008 200.616 134.56C200.392 134.101 200.082 133.744 199.688 133.488C199.293 133.221 198.84 133.088 198.328 133.088C197.816 133.088 197.362 133.221 196.968 133.488C196.573 133.744 196.258 134.101 196.024 134.56C195.8 135.008 195.688 135.52 195.688 136.096C195.688 136.661 195.8 137.173 196.024 137.632C196.258 138.091 196.573 138.453 196.968 138.72C197.362 138.976 197.816 139.104 198.328 139.104ZM211.151 140.112C210.479 140.112 209.871 139.936 209.327 139.584C208.783 139.221 208.351 138.741 208.031 138.144C207.711 137.536 207.551 136.859 207.551 136.112C207.551 135.355 207.711 134.677 208.031 134.08C208.362 133.472 208.804 132.992 209.359 132.64C209.914 132.277 210.532 132.096 211.215 132.096C211.695 132.096 212.143 132.192 212.559 132.384C212.975 132.565 213.338 132.832 213.647 133.184V128.448L214.815 128.208V140H213.647V138.96C213.348 139.333 212.986 139.621 212.559 139.824C212.132 140.016 211.663 140.112 211.151 140.112ZM211.439 139.088C211.898 139.088 212.319 138.997 212.703 138.816C213.087 138.635 213.402 138.379 213.647 138.048V134.176C213.391 133.845 213.066 133.589 212.671 133.408C212.287 133.216 211.876 133.12 211.439 133.12C210.916 133.12 210.447 133.248 210.031 133.504C209.626 133.76 209.3 134.112 209.055 134.56C208.82 135.008 208.703 135.52 208.703 136.096C208.703 136.661 208.82 137.173 209.055 137.632C209.3 138.08 209.626 138.437 210.031 138.704C210.447 138.96 210.916 139.088 211.439 139.088ZM219.632 140.144C219.077 140.144 218.586 140.043 218.16 139.84C217.733 139.637 217.397 139.36 217.152 139.008C216.917 138.645 216.8 138.229 216.8 137.76C216.8 137.291 216.922 136.885 217.168 136.544C217.413 136.192 217.754 135.92 218.192 135.728C218.629 135.536 219.141 135.44 219.728 135.44C220.176 135.44 220.597 135.488 220.992 135.584C221.397 135.68 221.77 135.835 222.112 136.048V134.976C222.112 134.336 221.941 133.856 221.6 133.536C221.258 133.205 220.757 133.04 220.096 133.04C219.733 133.04 219.36 133.093 218.976 133.2C218.602 133.307 218.186 133.477 217.728 133.712L217.296 132.816C218.341 132.315 219.322 132.064 220.24 132.064C221.21 132.064 221.957 132.304 222.48 132.784C223.002 133.253 223.264 133.931 223.264 134.816V140H222.112V139.088C221.77 139.44 221.392 139.707 220.976 139.888C220.56 140.059 220.112 140.144 219.632 140.144ZM217.92 137.728C217.92 138.187 218.096 138.555 218.448 138.832C218.81 139.109 219.285 139.248 219.872 139.248C220.309 139.248 220.709 139.173 221.072 139.024C221.445 138.875 221.792 138.651 222.112 138.352V136.848C221.781 136.656 221.44 136.517 221.088 136.432C220.736 136.336 220.341 136.288 219.904 136.288C219.306 136.288 218.826 136.421 218.464 136.688C218.101 136.944 217.92 137.291 217.92 137.728ZM228.054 140.16C227.414 140.16 226.822 140.064 226.278 139.872C225.734 139.669 225.27 139.381 224.886 139.008L225.51 138.24C225.979 138.581 226.411 138.832 226.806 138.992C227.2 139.141 227.606 139.216 228.022 139.216C228.587 139.216 229.056 139.083 229.43 138.816C229.803 138.549 229.99 138.208 229.99 137.792C229.99 137.472 229.878 137.221 229.654 137.04C229.44 136.859 229.083 136.72 228.582 136.624L227.302 136.4C226.544 136.261 225.984 136.027 225.622 135.696C225.27 135.365 225.094 134.917 225.094 134.352C225.094 133.904 225.211 133.509 225.446 133.168C225.691 132.827 226.027 132.56 226.454 132.368C226.88 132.165 227.366 132.064 227.91 132.064C228.443 132.064 228.95 132.144 229.43 132.304C229.91 132.453 230.395 132.699 230.886 133.04L230.31 133.856C229.904 133.568 229.499 133.36 229.094 133.232C228.688 133.093 228.278 133.024 227.862 133.024C227.35 133.024 226.939 133.136 226.63 133.36C226.32 133.584 226.166 133.888 226.166 134.272C226.166 134.592 226.262 134.837 226.454 135.008C226.656 135.179 227.008 135.307 227.51 135.392L228.822 135.632C229.611 135.771 230.187 136.011 230.55 136.352C230.912 136.693 231.094 137.152 231.094 137.728C231.094 138.187 230.96 138.603 230.694 138.976C230.427 139.339 230.064 139.627 229.606 139.84C229.147 140.053 228.63 140.16 228.054 140.16ZM232.872 140V128.448L234.04 128.208V133.456C234.339 132.987 234.696 132.64 235.112 132.416C235.528 132.181 235.997 132.064 236.52 132.064C237.085 132.064 237.576 132.187 237.992 132.432C238.419 132.667 238.749 133.003 238.984 133.44C239.229 133.867 239.352 134.368 239.352 134.944V140H238.184V135.28C238.184 134.587 237.992 134.043 237.608 133.648C237.235 133.243 236.728 133.04 236.088 133.04C235.661 133.04 235.272 133.141 234.92 133.344C234.568 133.547 234.275 133.845 234.04 134.24V140H232.872ZM241.7 140V128.56L242.868 128.32V133.264C243.167 132.891 243.529 132.603 243.956 132.4C244.383 132.197 244.857 132.096 245.38 132.096C246.063 132.096 246.671 132.277 247.204 132.64C247.748 132.992 248.18 133.472 248.5 134.08C248.82 134.677 248.98 135.349 248.98 136.096C248.98 136.843 248.815 137.52 248.484 138.128C248.164 138.736 247.727 139.221 247.172 139.584C246.628 139.936 246.009 140.112 245.316 140.112C244.825 140.112 244.367 140.016 243.94 139.824C243.524 139.621 243.161 139.339 242.852 138.976V140H241.7ZM245.092 139.104C245.615 139.104 246.079 138.976 246.484 138.72C246.9 138.453 247.225 138.096 247.46 137.648C247.705 137.189 247.828 136.677 247.828 136.112C247.828 135.536 247.705 135.024 247.46 134.576C247.225 134.128 246.9 133.776 246.484 133.52C246.079 133.253 245.615 133.12 245.092 133.12C244.633 133.12 244.207 133.216 243.812 133.408C243.428 133.589 243.113 133.851 242.868 134.192V138.016C243.124 138.357 243.444 138.624 243.828 138.816C244.223 139.008 244.644 139.104 245.092 139.104ZM254.484 140.128C253.759 140.128 253.108 139.952 252.532 139.6C251.956 139.248 251.503 138.768 251.172 138.16C250.841 137.552 250.676 136.864 250.676 136.096C250.676 135.328 250.841 134.64 251.172 134.032C251.503 133.424 251.956 132.944 252.532 132.592C253.108 132.24 253.759 132.064 254.484 132.064C255.199 132.064 255.839 132.24 256.404 132.592C256.98 132.944 257.433 133.424 257.764 134.032C258.095 134.64 258.26 135.328 258.26 136.096C258.26 136.864 258.095 137.552 257.764 138.16C257.433 138.768 256.98 139.248 256.404 139.6C255.839 139.952 255.199 140.128 254.484 140.128ZM254.468 139.104C254.98 139.104 255.433 138.976 255.828 138.72C256.223 138.453 256.532 138.091 256.756 137.632C256.991 137.173 257.108 136.661 257.108 136.096C257.108 135.52 256.991 135.008 256.756 134.56C256.532 134.101 256.223 133.744 255.828 133.488C255.433 133.221 254.98 133.088 254.468 133.088C253.956 133.088 253.503 133.221 253.108 133.488C252.713 133.744 252.399 134.101 252.164 134.56C251.94 135.008 251.828 135.52 251.828 136.096C251.828 136.661 251.94 137.173 252.164 137.632C252.399 138.091 252.713 138.453 253.108 138.72C253.503 138.976 253.956 139.104 254.468 139.104ZM262.804 140.144C262.249 140.144 261.758 140.043 261.332 139.84C260.905 139.637 260.569 139.36 260.324 139.008C260.089 138.645 259.972 138.229 259.972 137.76C259.972 137.291 260.094 136.885 260.34 136.544C260.585 136.192 260.926 135.92 261.364 135.728C261.801 135.536 262.313 135.44 262.9 135.44C263.348 135.44 263.769 135.488 264.164 135.584C264.569 135.68 264.942 135.835 265.284 136.048V134.976C265.284 134.336 265.113 133.856 264.772 133.536C264.43 133.205 263.929 133.04 263.268 133.04C262.905 133.04 262.532 133.093 262.148 133.2C261.774 133.307 261.358 133.477 260.9 133.712L260.468 132.816C261.513 132.315 262.494 132.064 263.411 132.064C264.382 132.064 265.129 132.304 265.652 132.784C266.174 133.253 266.436 133.931 266.436 134.816V140H265.284V139.088C264.942 139.44 264.564 139.707 264.148 139.888C263.732 140.059 263.284 140.144 262.804 140.144ZM261.092 137.728C261.092 138.187 261.268 138.555 261.62 138.832C261.982 139.109 262.457 139.248 263.044 139.248C263.481 139.248 263.881 139.173 264.244 139.024C264.617 138.875 264.964 138.651 265.284 138.352V136.848C264.953 136.656 264.612 136.517 264.26 136.432C263.908 136.336 263.513 136.288 263.076 136.288C262.478 136.288 261.998 136.421 261.636 136.688C261.273 136.944 261.092 137.291 261.092 137.728ZM268.809 140V132.192H269.977V133.792C270.18 133.248 270.468 132.827 270.841 132.528C271.225 132.219 271.663 132.064 272.153 132.064C272.292 132.064 272.42 132.075 272.537 132.096C272.655 132.107 272.772 132.133 272.889 132.176V133.232C272.761 133.189 272.623 133.157 272.473 133.136C272.335 133.104 272.201 133.088 272.073 133.088C271.593 133.088 271.172 133.227 270.809 133.504C270.457 133.781 270.18 134.171 269.977 134.672V140H268.809ZM277.198 140.112C276.526 140.112 275.918 139.936 275.374 139.584C274.83 139.221 274.398 138.741 274.078 138.144C273.758 137.536 273.598 136.859 273.598 136.112C273.598 135.355 273.758 134.677 274.078 134.08C274.409 133.472 274.851 132.992 275.406 132.64C275.961 132.277 276.579 132.096 277.262 132.096C277.742 132.096 278.19 132.192 278.606 132.384C279.022 132.565 279.385 132.832 279.694 133.184V128.448L280.862 128.208V140H279.694V138.96C279.395 139.333 279.033 139.621 278.606 139.824C278.179 140.016 277.71 140.112 277.198 140.112ZM277.486 139.088C277.945 139.088 278.366 138.997 278.75 138.816C279.134 138.635 279.449 138.379 279.694 138.048V134.176C279.438 133.845 279.113 133.589 278.718 133.408C278.334 133.216 277.923 133.12 277.486 133.12C276.963 133.12 276.494 133.248 276.078 133.504C275.673 133.76 275.347 134.112 275.102 134.56C274.867 135.008 274.75 135.52 274.75 136.096C274.75 136.661 274.867 137.173 275.102 137.632C275.347 138.08 275.673 138.437 276.078 138.704C276.494 138.96 276.963 139.088 277.486 139.088Z" fill="#0066CC"/>
<defs>
<linearGradient id="paint0_linear_16_1982" x1="568" y1="705" x2="568" y2="825" gradientUnits="userSpaceOnUse">
<stop stop-color="white" stop-opacity="0"/>
<stop offset="1" stop-color="white"/>
</linearGradient>
<linearGradient id="paint1_linear_16_1982" x1="568" y1="705" x2="568" y2="825" gradientUnits="userSpaceOnUse">
<stop stop-color="white" stop-opacity="0"/>
<stop offset="1" stop-color="white"/>
</linearGradient>
<clipPath id="clip0_16_1982">
<rect width="16" height="16" fill="white" transform="translate(432 534.5)"/>
</clipPath>
<clipPath id="clip1_16_1982">
<rect width="16" height="16" fill="white" transform="translate(16 52.5)"/>
</clipPath>
<clipPath id="clip2_16_1982">
<rect width="12" height="12" fill="white" transform="translate(1108 50)"/>
</clipPath>
</defs>
</svg>
