<svg width="1140" height="484" viewBox="0 0 1140 484" fill="none" xmlns="http://www.w3.org/2000/svg">
<rect x="0.5" y="0.5" width="1139" height="483" rx="2.5" fill="white" stroke="#C7C7C7"/>
<rect x="64" y="452" width="1012" height="24" fill="#E0E0E0"/>
<rect x="64" y="412" width="1012" height="24" fill="#E0E0E0"/>
<rect x="64" y="372" width="1012" height="24" fill="#E0E0E0"/>
<rect x="64" y="320" width="506" height="36" fill="#E0E0E0"/>
<mask id="path-6-inside-1_11_1688" fill="white">
<path d="M64 136H1076V272H64V136Z"/>
</mask>
<path d="M64 136H1076V272H64V136Z" fill="#E9F7DF"/>
<path d="M64 138H1076V134H64V138Z" fill="#3D7317" mask="url(#path-6-inside-1_11_1688)"/>
<g clip-path="url(#clip0_11_1688)">
<path d="M88 156.5C83.59 156.5 80 160.09 80 164.5C80 168.91 83.59 172.5 88 172.5C92.41 172.5 96 168.91 96 164.5C96 160.09 92.41 156.5 88 156.5ZM91.9 162.9L87.575 167.225C87.415 167.385 87.21 167.46 87 167.46C86.79 167.46 86.585 167.38 86.425 167.225L84.1 164.9C83.88 164.68 83.88 164.325 84.1 164.105C84.32 163.885 84.675 163.885 84.895 164.105L86.995 166.21L91.095 162.105C91.315 161.885 91.67 161.885 91.89 162.105C92.11 162.325 92.11 162.68 91.89 162.9H91.9Z" fill="#3D7317"/>
</g>
<path d="M108.452 169.154C107.687 169.154 106.963 169.023 106.282 168.762C105.61 168.491 104.961 168.095 104.336 167.572L105.246 166.34C105.881 166.853 106.445 167.222 106.94 167.446C107.444 167.661 107.981 167.768 108.55 167.768C108.979 167.768 109.357 167.703 109.684 167.572C110.02 167.432 110.277 167.245 110.454 167.012C110.641 166.779 110.734 166.508 110.734 166.2C110.734 165.799 110.599 165.495 110.328 165.29C110.067 165.075 109.609 164.912 108.956 164.8L107.15 164.492C106.301 164.343 105.666 164.058 105.246 163.638C104.835 163.209 104.63 162.663 104.63 162C104.63 161.412 104.779 160.899 105.078 160.46C105.377 160.012 105.792 159.667 106.324 159.424C106.865 159.172 107.505 159.046 108.242 159.046C108.979 159.046 109.679 159.153 110.342 159.368C111.005 159.583 111.616 159.895 112.176 160.306L111.322 161.566C110.827 161.193 110.319 160.913 109.796 160.726C109.273 160.53 108.737 160.432 108.186 160.432C107.794 160.432 107.449 160.493 107.15 160.614C106.861 160.735 106.632 160.903 106.464 161.118C106.305 161.333 106.226 161.571 106.226 161.832C106.226 162.187 106.343 162.462 106.576 162.658C106.819 162.845 107.206 162.985 107.738 163.078L109.488 163.372C110.477 163.549 111.205 163.857 111.672 164.296C112.148 164.735 112.386 165.327 112.386 166.074C112.386 166.671 112.218 167.203 111.882 167.67C111.555 168.137 111.098 168.501 110.51 168.762C109.922 169.023 109.236 169.154 108.452 169.154ZM116.288 169.112C115.803 169.112 115.378 169.005 115.014 168.79C114.65 168.575 114.361 168.281 114.146 167.908C113.941 167.535 113.838 167.101 113.838 166.606V161.986H115.434V166.144C115.434 166.667 115.569 167.082 115.84 167.39C116.12 167.689 116.498 167.838 116.974 167.838C117.291 167.838 117.576 167.768 117.828 167.628C118.089 167.488 118.313 167.278 118.5 166.998V161.986H120.082V169H118.5V167.866C118.229 168.277 117.907 168.589 117.534 168.804C117.161 169.009 116.745 169.112 116.288 169.112ZM125.263 169.126C124.6 169.126 123.998 168.967 123.457 168.65C122.925 168.323 122.5 167.885 122.183 167.334C121.875 166.783 121.721 166.172 121.721 165.5C121.721 164.819 121.875 164.207 122.183 163.666C122.5 163.115 122.925 162.681 123.457 162.364C123.998 162.037 124.6 161.874 125.263 161.874C125.804 161.874 126.317 161.977 126.803 162.182C127.297 162.387 127.717 162.681 128.062 163.064L127.083 164.086C126.84 163.815 126.569 163.61 126.271 163.47C125.972 163.33 125.655 163.26 125.319 163.26C124.936 163.26 124.591 163.363 124.283 163.568C123.984 163.764 123.746 164.03 123.569 164.366C123.391 164.702 123.303 165.08 123.303 165.5C123.303 165.92 123.391 166.303 123.569 166.648C123.746 166.984 123.984 167.25 124.283 167.446C124.591 167.642 124.936 167.74 125.319 167.74C125.655 167.74 125.972 167.67 126.271 167.53C126.569 167.39 126.84 167.189 127.083 166.928L128.062 167.936C127.717 168.319 127.297 168.613 126.803 168.818C126.317 169.023 125.804 169.126 125.263 169.126ZM132.386 169.126C131.723 169.126 131.121 168.967 130.58 168.65C130.048 168.323 129.623 167.885 129.306 167.334C128.998 166.783 128.844 166.172 128.844 165.5C128.844 164.819 128.998 164.207 129.306 163.666C129.623 163.115 130.048 162.681 130.58 162.364C131.121 162.037 131.723 161.874 132.386 161.874C132.927 161.874 133.44 161.977 133.926 162.182C134.42 162.387 134.84 162.681 135.186 163.064L134.206 164.086C133.963 163.815 133.692 163.61 133.394 163.47C133.095 163.33 132.778 163.26 132.442 163.26C132.059 163.26 131.714 163.363 131.406 163.568C131.107 163.764 130.869 164.03 130.692 164.366C130.514 164.702 130.426 165.08 130.426 165.5C130.426 165.92 130.514 166.303 130.692 166.648C130.869 166.984 131.107 167.25 131.406 167.446C131.714 167.642 132.059 167.74 132.442 167.74C132.778 167.74 133.095 167.67 133.394 167.53C133.692 167.39 133.963 167.189 134.206 166.928L135.186 167.936C134.84 168.319 134.42 168.613 133.926 168.818C133.44 169.023 132.927 169.126 132.386 169.126ZM139.551 169.14C138.879 169.14 138.272 168.981 137.731 168.664C137.189 168.337 136.76 167.903 136.443 167.362C136.125 166.811 135.967 166.191 135.967 165.5C135.967 164.809 136.116 164.193 136.415 163.652C136.713 163.111 137.119 162.681 137.633 162.364C138.155 162.037 138.734 161.874 139.369 161.874C140.022 161.874 140.596 162.033 141.091 162.35C141.595 162.667 141.987 163.097 142.267 163.638C142.556 164.179 142.701 164.8 142.701 165.5V165.878H137.521C137.577 166.261 137.698 166.601 137.885 166.9C138.081 167.189 138.328 167.418 138.627 167.586C138.935 167.754 139.266 167.838 139.621 167.838C139.947 167.838 140.255 167.782 140.545 167.67C140.843 167.549 141.091 167.385 141.287 167.18L142.323 168.118C141.893 168.473 141.455 168.734 141.007 168.902C140.568 169.061 140.083 169.14 139.551 169.14ZM137.535 164.898H141.203C141.147 164.562 141.03 164.263 140.853 164.002C140.685 163.741 140.47 163.535 140.209 163.386C139.957 163.237 139.677 163.162 139.369 163.162C139.061 163.162 138.776 163.237 138.515 163.386C138.263 163.526 138.053 163.727 137.885 163.988C137.717 164.249 137.6 164.553 137.535 164.898ZM146.762 169.14C146.165 169.14 145.605 169.061 145.082 168.902C144.569 168.734 144.126 168.496 143.752 168.188L144.494 167.138C144.961 167.427 145.362 167.633 145.698 167.754C146.044 167.875 146.394 167.936 146.748 167.936C147.168 167.936 147.509 167.847 147.77 167.67C148.032 167.493 148.162 167.264 148.162 166.984C148.162 166.769 148.083 166.601 147.924 166.48C147.775 166.349 147.528 166.251 147.182 166.186L145.95 165.976C145.269 165.845 144.76 165.621 144.424 165.304C144.088 164.987 143.92 164.567 143.92 164.044C143.92 163.605 144.032 163.227 144.256 162.91C144.49 162.583 144.807 162.331 145.208 162.154C145.619 161.967 146.095 161.874 146.636 161.874C147.122 161.874 147.593 161.944 148.05 162.084C148.508 162.224 148.956 162.434 149.394 162.714L148.652 163.764C148.298 163.531 147.943 163.363 147.588 163.26C147.243 163.148 146.893 163.092 146.538 163.092C146.174 163.092 145.88 163.167 145.656 163.316C145.442 163.456 145.334 163.652 145.334 163.904C145.334 164.128 145.404 164.301 145.544 164.422C145.694 164.534 145.95 164.618 146.314 164.674L147.56 164.912C148.26 165.033 148.778 165.257 149.114 165.584C149.46 165.901 149.632 166.326 149.632 166.858C149.632 167.287 149.506 167.675 149.254 168.02C149.002 168.365 148.662 168.641 148.232 168.846C147.803 169.042 147.313 169.14 146.762 169.14ZM153.462 169.14C152.864 169.14 152.304 169.061 151.782 168.902C151.268 168.734 150.825 168.496 150.452 168.188L151.194 167.138C151.66 167.427 152.062 167.633 152.398 167.754C152.743 167.875 153.093 167.936 153.448 167.936C153.868 167.936 154.208 167.847 154.47 167.67C154.731 167.493 154.862 167.264 154.862 166.984C154.862 166.769 154.782 166.601 154.624 166.48C154.474 166.349 154.227 166.251 153.882 166.186L152.65 165.976C151.968 165.845 151.46 165.621 151.124 165.304C150.788 164.987 150.62 164.567 150.62 164.044C150.62 163.605 150.732 163.227 150.956 162.91C151.189 162.583 151.506 162.331 151.908 162.154C152.318 161.967 152.794 161.874 153.336 161.874C153.821 161.874 154.292 161.944 154.75 162.084C155.207 162.224 155.655 162.434 156.094 162.714L155.352 163.764C154.997 163.531 154.642 163.363 154.288 163.26C153.942 163.148 153.592 163.092 153.238 163.092C152.874 163.092 152.58 163.167 152.356 163.316C152.141 163.456 152.034 163.652 152.034 163.904C152.034 164.128 152.104 164.301 152.244 164.422C152.393 164.534 152.65 164.618 153.014 164.674L154.26 164.912C154.96 165.033 155.478 165.257 155.814 165.584C156.159 165.901 156.332 166.326 156.332 166.858C156.332 167.287 156.206 167.675 155.954 168.02C155.702 168.365 155.361 168.641 154.932 168.846C154.502 169.042 154.012 169.14 153.462 169.14Z" fill="#151515"/>
<g clip-path="url(#clip1_11_1688)">
<path d="M1054.95 160L1058.68 156.277C1058.94 156.014 1058.94 155.586 1058.68 155.323C1058.41 155.059 1057.99 155.059 1057.72 155.323L1054 159.045L1050.28 155.323C1050.01 155.059 1049.59 155.059 1049.32 155.323C1049.06 155.586 1049.06 156.014 1049.32 156.277L1053.05 160L1049.32 163.722C1049.06 163.986 1049.06 164.414 1049.32 164.678C1049.45 164.809 1049.63 164.875 1049.8 164.875C1049.97 164.875 1050.15 164.809 1050.28 164.678L1054 160.955L1057.72 164.678C1057.85 164.809 1058.03 164.875 1058.2 164.875C1058.37 164.875 1058.55 164.809 1058.68 164.678C1058.94 164.414 1058.94 163.986 1058.68 163.722L1054.95 160Z" fill="#151515"/>
</g>
<path d="M107.976 198V193.996L104.168 188.2H105.428L108.55 193.058L111.686 188.2H112.876L109.054 194.024V198H107.976ZM115.662 198.112C115.027 198.112 114.458 197.958 113.954 197.65C113.45 197.342 113.053 196.922 112.764 196.39C112.475 195.858 112.33 195.256 112.33 194.584C112.33 193.912 112.475 193.31 112.764 192.778C113.053 192.246 113.45 191.826 113.954 191.518C114.458 191.21 115.027 191.056 115.662 191.056C116.287 191.056 116.847 191.21 117.342 191.518C117.846 191.826 118.243 192.246 118.532 192.778C118.821 193.31 118.966 193.912 118.966 194.584C118.966 195.256 118.821 195.858 118.532 196.39C118.243 196.922 117.846 197.342 117.342 197.65C116.847 197.958 116.287 198.112 115.662 198.112ZM115.648 197.216C116.096 197.216 116.493 197.104 116.838 196.88C117.183 196.647 117.454 196.329 117.65 195.928C117.855 195.527 117.958 195.079 117.958 194.584C117.958 194.08 117.855 193.632 117.65 193.24C117.454 192.839 117.183 192.526 116.838 192.302C116.493 192.069 116.096 191.952 115.648 191.952C115.2 191.952 114.803 192.069 114.458 192.302C114.113 192.526 113.837 192.839 113.632 193.24C113.436 193.632 113.338 194.08 113.338 194.584C113.338 195.079 113.436 195.527 113.632 195.928C113.837 196.329 114.113 196.647 114.458 196.88C114.803 197.104 115.2 197.216 115.648 197.216ZM123.195 198.112C122.71 198.112 122.28 198.005 121.907 197.79C121.534 197.575 121.24 197.277 121.025 196.894C120.82 196.511 120.717 196.073 120.717 195.578V191.168H121.753V195.284C121.753 195.891 121.916 196.371 122.243 196.726C122.57 197.081 123.013 197.258 123.573 197.258C123.956 197.258 124.296 197.169 124.595 196.992C124.903 196.815 125.16 196.558 125.365 196.222V191.168H126.387V198H125.365V196.894C125.104 197.295 124.791 197.599 124.427 197.804C124.072 198.009 123.662 198.112 123.195 198.112ZM128.484 198V191.168H129.506V192.568C129.683 192.092 129.935 191.723 130.262 191.462C130.598 191.191 130.98 191.056 131.41 191.056C131.531 191.056 131.643 191.065 131.746 191.084C131.848 191.093 131.951 191.117 132.054 191.154V192.078C131.942 192.041 131.82 192.013 131.69 191.994C131.568 191.966 131.452 191.952 131.34 191.952C130.92 191.952 130.551 192.073 130.234 192.316C129.926 192.559 129.683 192.899 129.506 193.338V198H128.484ZM136.673 198V191.168H137.695V192.274C137.956 191.863 138.269 191.56 138.633 191.364C138.997 191.159 139.408 191.056 139.865 191.056C140.36 191.056 140.789 191.163 141.153 191.378C141.526 191.583 141.816 191.877 142.021 192.26C142.236 192.633 142.343 193.072 142.343 193.576V198H141.321V193.87C141.321 193.263 141.153 192.787 140.817 192.442C140.49 192.087 140.047 191.91 139.487 191.91C139.114 191.91 138.773 191.999 138.465 192.176C138.157 192.353 137.9 192.615 137.695 192.96V198H136.673ZM147.478 198.14C146.843 198.14 146.269 197.986 145.756 197.678C145.242 197.361 144.836 196.936 144.538 196.404C144.239 195.863 144.09 195.256 144.09 194.584C144.09 193.912 144.23 193.31 144.51 192.778C144.799 192.246 145.186 191.826 145.672 191.518C146.157 191.21 146.698 191.056 147.296 191.056C147.902 191.056 148.439 191.21 148.906 191.518C149.382 191.817 149.755 192.227 150.026 192.75C150.306 193.263 150.446 193.847 150.446 194.5V194.808H145.084C145.121 195.275 145.247 195.695 145.462 196.068C145.686 196.432 145.975 196.721 146.33 196.936C146.694 197.141 147.09 197.244 147.52 197.244C147.874 197.244 148.215 197.183 148.542 197.062C148.878 196.931 149.162 196.759 149.396 196.544L150.04 197.23C149.648 197.538 149.242 197.767 148.822 197.916C148.402 198.065 147.954 198.14 147.478 198.14ZM145.112 194.08H149.438C149.391 193.669 149.265 193.305 149.06 192.988C148.864 192.661 148.612 192.405 148.304 192.218C148.005 192.031 147.669 191.938 147.296 191.938C146.922 191.938 146.582 192.031 146.274 192.218C145.966 192.395 145.709 192.647 145.504 192.974C145.308 193.291 145.177 193.66 145.112 194.08ZM153.272 198L151.396 191.168H152.39L153.818 196.628L155.456 191.168H156.366L158.004 196.628L159.418 191.168H160.384L158.522 198H157.528L155.904 192.484L154.28 198H153.272ZM167.211 198.126C166.726 198.126 166.296 198.037 165.923 197.86C165.55 197.683 165.256 197.44 165.041 197.132C164.836 196.815 164.733 196.451 164.733 196.04C164.733 195.629 164.84 195.275 165.055 194.976C165.27 194.668 165.568 194.43 165.951 194.262C166.334 194.094 166.782 194.01 167.295 194.01C167.687 194.01 168.056 194.052 168.401 194.136C168.756 194.22 169.082 194.355 169.381 194.542V193.604C169.381 193.044 169.232 192.624 168.933 192.344C168.634 192.055 168.196 191.91 167.617 191.91C167.3 191.91 166.973 191.957 166.637 192.05C166.31 192.143 165.946 192.293 165.545 192.498L165.167 191.714C166.082 191.275 166.94 191.056 167.743 191.056C168.592 191.056 169.246 191.266 169.703 191.686C170.16 192.097 170.389 192.689 170.389 193.464V198H169.381V197.202C169.082 197.51 168.751 197.743 168.387 197.902C168.023 198.051 167.631 198.126 167.211 198.126ZM165.713 196.012C165.713 196.413 165.867 196.735 166.175 196.978C166.492 197.221 166.908 197.342 167.421 197.342C167.804 197.342 168.154 197.277 168.471 197.146C168.798 197.015 169.101 196.819 169.381 196.558V195.242C169.092 195.074 168.793 194.953 168.485 194.878C168.177 194.794 167.832 194.752 167.449 194.752C166.926 194.752 166.506 194.869 166.189 195.102C165.872 195.326 165.713 195.629 165.713 196.012ZM175.532 198.112C174.897 198.112 174.323 197.958 173.81 197.65C173.306 197.333 172.905 196.908 172.606 196.376C172.307 195.835 172.158 195.237 172.158 194.584C172.158 193.921 172.307 193.324 172.606 192.792C172.905 192.26 173.306 191.84 173.81 191.532C174.323 191.215 174.897 191.056 175.532 191.056C176.036 191.056 176.517 191.149 176.974 191.336C177.431 191.523 177.828 191.784 178.164 192.12L177.506 192.834C177.263 192.563 176.969 192.353 176.624 192.204C176.279 192.055 175.929 191.98 175.574 191.98C175.126 191.98 174.72 192.097 174.356 192.33C174.001 192.563 173.717 192.876 173.502 193.268C173.287 193.66 173.18 194.099 173.18 194.584C173.18 195.069 173.287 195.508 173.502 195.9C173.717 196.292 174.001 196.605 174.356 196.838C174.72 197.071 175.126 197.188 175.574 197.188C175.929 197.188 176.279 197.113 176.624 196.964C176.969 196.805 177.263 196.595 177.506 196.334L178.164 197.048C177.828 197.384 177.431 197.645 176.974 197.832C176.517 198.019 176.036 198.112 175.532 198.112ZM182.45 198.112C181.815 198.112 181.241 197.958 180.728 197.65C180.224 197.333 179.823 196.908 179.524 196.376C179.225 195.835 179.076 195.237 179.076 194.584C179.076 193.921 179.225 193.324 179.524 192.792C179.823 192.26 180.224 191.84 180.728 191.532C181.241 191.215 181.815 191.056 182.45 191.056C182.954 191.056 183.435 191.149 183.892 191.336C184.349 191.523 184.746 191.784 185.082 192.12L184.424 192.834C184.181 192.563 183.887 192.353 183.542 192.204C183.197 192.055 182.847 191.98 182.492 191.98C182.044 191.98 181.638 192.097 181.274 192.33C180.919 192.563 180.635 192.876 180.42 193.268C180.205 193.66 180.098 194.099 180.098 194.584C180.098 195.069 180.205 195.508 180.42 195.9C180.635 196.292 180.919 196.605 181.274 196.838C181.638 197.071 182.044 197.188 182.492 197.188C182.847 197.188 183.197 197.113 183.542 196.964C183.887 196.805 184.181 196.595 184.424 196.334L185.082 197.048C184.746 197.384 184.349 197.645 183.892 197.832C183.435 198.019 182.954 198.112 182.45 198.112ZM189.326 198.112C188.691 198.112 188.122 197.958 187.618 197.65C187.114 197.342 186.717 196.922 186.428 196.39C186.139 195.858 185.994 195.256 185.994 194.584C185.994 193.912 186.139 193.31 186.428 192.778C186.717 192.246 187.114 191.826 187.618 191.518C188.122 191.21 188.691 191.056 189.326 191.056C189.951 191.056 190.511 191.21 191.006 191.518C191.51 191.826 191.907 192.246 192.196 192.778C192.485 193.31 192.63 193.912 192.63 194.584C192.63 195.256 192.485 195.858 192.196 196.39C191.907 196.922 191.51 197.342 191.006 197.65C190.511 197.958 189.951 198.112 189.326 198.112ZM189.312 197.216C189.76 197.216 190.157 197.104 190.502 196.88C190.847 196.647 191.118 196.329 191.314 195.928C191.519 195.527 191.622 195.079 191.622 194.584C191.622 194.08 191.519 193.632 191.314 193.24C191.118 192.839 190.847 192.526 190.502 192.302C190.157 192.069 189.76 191.952 189.312 191.952C188.864 191.952 188.467 192.069 188.122 192.302C187.777 192.526 187.501 192.839 187.296 193.24C187.1 193.632 187.002 194.08 187.002 194.584C187.002 195.079 187.1 195.527 187.296 195.928C187.501 196.329 187.777 196.647 188.122 196.88C188.467 197.104 188.864 197.216 189.312 197.216ZM196.859 198.112C196.374 198.112 195.944 198.005 195.571 197.79C195.198 197.575 194.904 197.277 194.689 196.894C194.484 196.511 194.381 196.073 194.381 195.578V191.168H195.417V195.284C195.417 195.891 195.58 196.371 195.907 196.726C196.234 197.081 196.677 197.258 197.237 197.258C197.62 197.258 197.96 197.169 198.259 196.992C198.567 196.815 198.824 196.558 199.029 196.222V191.168H200.051V198H199.029V196.894C198.768 197.295 198.455 197.599 198.091 197.804C197.736 198.009 197.326 198.112 196.859 198.112ZM202.148 198V191.168H203.17V192.274C203.431 191.863 203.744 191.56 204.108 191.364C204.472 191.159 204.882 191.056 205.34 191.056C205.834 191.056 206.264 191.163 206.628 191.378C207.001 191.583 207.29 191.877 207.496 192.26C207.71 192.633 207.818 193.072 207.818 193.576V198H206.796V193.87C206.796 193.263 206.628 192.787 206.292 192.442C205.965 192.087 205.522 191.91 204.962 191.91C204.588 191.91 204.248 191.999 203.94 192.176C203.632 192.353 203.375 192.615 203.17 192.96V198H202.148ZM212.271 198.14C211.683 198.14 211.235 198 210.927 197.72C210.629 197.431 210.479 197.015 210.479 196.474V192.008H209.065V191.168H210.479V189.292L211.501 189.054V191.168H213.461V192.008H211.501V196.208C211.501 196.572 211.576 196.833 211.725 196.992C211.884 197.151 212.141 197.23 212.495 197.23C212.673 197.23 212.831 197.216 212.971 197.188C213.111 197.16 213.275 197.113 213.461 197.048V197.958C213.275 198.023 213.079 198.07 212.873 198.098C212.668 198.126 212.467 198.14 212.271 198.14ZM218.226 198V187.892L219.248 187.682V192.274C219.509 191.863 219.822 191.56 220.186 191.364C220.55 191.159 220.96 191.056 221.418 191.056C221.912 191.056 222.342 191.163 222.706 191.378C223.079 191.583 223.368 191.877 223.574 192.26C223.788 192.633 223.896 193.072 223.896 193.576V198H222.874V193.87C222.874 193.263 222.706 192.787 222.37 192.442C222.043 192.087 221.6 191.91 221.04 191.91C220.666 191.91 220.326 191.999 220.018 192.176C219.71 192.353 219.453 192.615 219.248 192.96V198H218.226ZM228.064 198.126C227.579 198.126 227.15 198.037 226.776 197.86C226.403 197.683 226.109 197.44 225.894 197.132C225.689 196.815 225.586 196.451 225.586 196.04C225.586 195.629 225.694 195.275 225.908 194.976C226.123 194.668 226.422 194.43 226.804 194.262C227.187 194.094 227.635 194.01 228.148 194.01C228.54 194.01 228.909 194.052 229.254 194.136C229.609 194.22 229.936 194.355 230.234 194.542V193.604C230.234 193.044 230.085 192.624 229.786 192.344C229.488 192.055 229.049 191.91 228.47 191.91C228.153 191.91 227.826 191.957 227.49 192.05C227.164 192.143 226.8 192.293 226.398 192.498L226.02 191.714C226.935 191.275 227.794 191.056 228.596 191.056C229.446 191.056 230.099 191.266 230.556 191.686C231.014 192.097 231.242 192.689 231.242 193.464V198H230.234V197.202C229.936 197.51 229.604 197.743 229.24 197.902C228.876 198.051 228.484 198.126 228.064 198.126ZM226.566 196.012C226.566 196.413 226.72 196.735 227.028 196.978C227.346 197.221 227.761 197.342 228.274 197.342C228.657 197.342 229.007 197.277 229.324 197.146C229.651 197.015 229.954 196.819 230.234 196.558V195.242C229.945 195.074 229.646 194.953 229.338 194.878C229.03 194.794 228.685 194.752 228.302 194.752C227.78 194.752 227.36 194.869 227.042 195.102C226.725 195.326 226.566 195.629 226.566 196.012ZM235.434 198.14C234.874 198.14 234.356 198.056 233.88 197.888C233.404 197.711 232.998 197.459 232.662 197.132L233.208 196.46C233.618 196.759 233.996 196.978 234.342 197.118C234.687 197.249 235.042 197.314 235.406 197.314C235.9 197.314 236.311 197.197 236.638 196.964C236.964 196.731 237.128 196.432 237.128 196.068C237.128 195.788 237.03 195.569 236.834 195.41C236.647 195.251 236.334 195.13 235.896 195.046L234.776 194.85C234.113 194.729 233.623 194.523 233.306 194.234C232.998 193.945 232.844 193.553 232.844 193.058C232.844 192.666 232.946 192.321 233.152 192.022C233.366 191.723 233.66 191.49 234.034 191.322C234.407 191.145 234.832 191.056 235.308 191.056C235.774 191.056 236.218 191.126 236.638 191.266C237.058 191.397 237.482 191.611 237.912 191.91L237.408 192.624C237.053 192.372 236.698 192.19 236.344 192.078C235.989 191.957 235.63 191.896 235.266 191.896C234.818 191.896 234.458 191.994 234.188 192.19C233.917 192.386 233.782 192.652 233.782 192.988C233.782 193.268 233.866 193.483 234.034 193.632C234.211 193.781 234.519 193.893 234.958 193.968L236.106 194.178C236.796 194.299 237.3 194.509 237.618 194.808C237.935 195.107 238.094 195.508 238.094 196.012C238.094 196.413 237.977 196.777 237.744 197.104C237.51 197.421 237.193 197.673 236.792 197.86C236.39 198.047 235.938 198.14 235.434 198.14ZM242.917 198V187.99L243.939 187.78V192.106C244.201 191.779 244.518 191.527 244.891 191.35C245.265 191.173 245.68 191.084 246.137 191.084C246.735 191.084 247.267 191.243 247.733 191.56C248.209 191.868 248.587 192.288 248.867 192.82C249.147 193.343 249.287 193.931 249.287 194.584C249.287 195.237 249.143 195.83 248.853 196.362C248.573 196.894 248.191 197.319 247.705 197.636C247.229 197.944 246.688 198.098 246.081 198.098C245.652 198.098 245.251 198.014 244.877 197.846C244.513 197.669 244.196 197.421 243.925 197.104V198H242.917ZM245.885 197.216C246.343 197.216 246.749 197.104 247.103 196.88C247.467 196.647 247.752 196.334 247.957 195.942C248.172 195.541 248.279 195.093 248.279 194.598C248.279 194.094 248.172 193.646 247.957 193.254C247.752 192.862 247.467 192.554 247.103 192.33C246.749 192.097 246.343 191.98 245.885 191.98C245.484 191.98 245.111 192.064 244.765 192.232C244.429 192.391 244.154 192.619 243.939 192.918V196.264C244.163 196.563 244.443 196.796 244.779 196.964C245.125 197.132 245.493 197.216 245.885 197.216ZM254.159 198.14C253.525 198.14 252.951 197.986 252.437 197.678C251.924 197.361 251.518 196.936 251.219 196.404C250.921 195.863 250.771 195.256 250.771 194.584C250.771 193.912 250.911 193.31 251.191 192.778C251.481 192.246 251.868 191.826 252.353 191.518C252.839 191.21 253.38 191.056 253.977 191.056C254.584 191.056 255.121 191.21 255.587 191.518C256.063 191.817 256.437 192.227 256.707 192.75C256.987 193.263 257.127 193.847 257.127 194.5V194.808H251.765C251.803 195.275 251.929 195.695 252.143 196.068C252.367 196.432 252.657 196.721 253.011 196.936C253.375 197.141 253.772 197.244 254.201 197.244C254.556 197.244 254.897 197.183 255.223 197.062C255.559 196.931 255.844 196.759 256.077 196.544L256.721 197.23C256.329 197.538 255.923 197.767 255.503 197.916C255.083 198.065 254.635 198.14 254.159 198.14ZM251.793 194.08H256.119C256.073 193.669 255.947 193.305 255.741 192.988C255.545 192.661 255.293 192.405 254.985 192.218C254.687 192.031 254.351 191.938 253.977 191.938C253.604 191.938 253.263 192.031 252.955 192.218C252.647 192.395 252.391 192.647 252.185 192.974C251.989 193.291 251.859 193.66 251.793 194.08ZM261.952 198.14C261.318 198.14 260.744 197.986 260.23 197.678C259.717 197.361 259.311 196.936 259.012 196.404C258.714 195.863 258.564 195.256 258.564 194.584C258.564 193.912 258.704 193.31 258.984 192.778C259.274 192.246 259.661 191.826 260.146 191.518C260.632 191.21 261.173 191.056 261.77 191.056C262.377 191.056 262.914 191.21 263.38 191.518C263.856 191.817 264.23 192.227 264.5 192.75C264.78 193.263 264.92 193.847 264.92 194.5V194.808H259.558C259.596 195.275 259.722 195.695 259.936 196.068C260.16 196.432 260.45 196.721 260.804 196.936C261.168 197.141 261.565 197.244 261.994 197.244C262.349 197.244 262.69 197.183 263.016 197.062C263.352 196.931 263.637 196.759 263.87 196.544L264.514 197.23C264.122 197.538 263.716 197.767 263.296 197.916C262.876 198.065 262.428 198.14 261.952 198.14ZM259.586 194.08H263.912C263.866 193.669 263.74 193.305 263.534 192.988C263.338 192.661 263.086 192.405 262.778 192.218C262.48 192.031 262.144 191.938 261.77 191.938C261.397 191.938 261.056 192.031 260.748 192.218C260.44 192.395 260.184 192.647 259.978 192.974C259.782 193.291 259.652 193.66 259.586 194.08ZM266.665 198V191.168H267.687V192.274C267.949 191.863 268.261 191.56 268.625 191.364C268.989 191.159 269.4 191.056 269.857 191.056C270.352 191.056 270.781 191.163 271.145 191.378C271.519 191.583 271.808 191.877 272.013 192.26C272.228 192.633 272.335 193.072 272.335 193.576V198H271.313V193.87C271.313 193.263 271.145 192.787 270.809 192.442C270.483 192.087 270.039 191.91 269.479 191.91C269.106 191.91 268.765 191.999 268.457 192.176C268.149 192.353 267.893 192.615 267.687 192.96V198H266.665ZM280.723 198.112C280.089 198.112 279.515 197.958 279.001 197.65C278.497 197.333 278.096 196.908 277.797 196.376C277.499 195.835 277.349 195.237 277.349 194.584C277.349 193.921 277.499 193.324 277.797 192.792C278.096 192.26 278.497 191.84 279.001 191.532C279.515 191.215 280.089 191.056 280.723 191.056C281.227 191.056 281.708 191.149 282.165 191.336C282.623 191.523 283.019 191.784 283.355 192.12L282.697 192.834C282.455 192.563 282.161 192.353 281.815 192.204C281.47 192.055 281.12 191.98 280.765 191.98C280.317 191.98 279.911 192.097 279.547 192.33C279.193 192.563 278.908 192.876 278.693 193.268C278.479 193.66 278.371 194.099 278.371 194.584C278.371 195.069 278.479 195.508 278.693 195.9C278.908 196.292 279.193 196.605 279.547 196.838C279.911 197.071 280.317 197.188 280.765 197.188C281.12 197.188 281.47 197.113 281.815 196.964C282.161 196.805 282.455 196.595 282.697 196.334L283.355 197.048C283.019 197.384 282.623 197.645 282.165 197.832C281.708 198.019 281.227 198.112 280.723 198.112ZM284.78 198V191.168H285.802V192.568C285.98 192.092 286.232 191.723 286.558 191.462C286.894 191.191 287.277 191.056 287.706 191.056C287.828 191.056 287.94 191.065 288.042 191.084C288.145 191.093 288.248 191.117 288.35 191.154V192.078C288.238 192.041 288.117 192.013 287.986 191.994C287.865 191.966 287.748 191.952 287.636 191.952C287.216 191.952 286.848 192.073 286.53 192.316C286.222 192.559 285.98 192.899 285.802 193.338V198H284.78ZM292.359 198.14C291.724 198.14 291.15 197.986 290.637 197.678C290.123 197.361 289.717 196.936 289.419 196.404C289.12 195.863 288.971 195.256 288.971 194.584C288.971 193.912 289.111 193.31 289.391 192.778C289.68 192.246 290.067 191.826 290.553 191.518C291.038 191.21 291.579 191.056 292.177 191.056C292.783 191.056 293.32 191.21 293.787 191.518C294.263 191.817 294.636 192.227 294.907 192.75C295.187 193.263 295.327 193.847 295.327 194.5V194.808H289.965C290.002 195.275 290.128 195.695 290.343 196.068C290.567 196.432 290.856 196.721 291.211 196.936C291.575 197.141 291.971 197.244 292.401 197.244C292.755 197.244 293.096 197.183 293.423 197.062C293.759 196.931 294.043 196.759 294.277 196.544L294.921 197.23C294.529 197.538 294.123 197.767 293.703 197.916C293.283 198.065 292.835 198.14 292.359 198.14ZM289.993 194.08H294.319C294.272 193.669 294.146 193.305 293.941 192.988C293.745 192.661 293.493 192.405 293.185 192.218C292.886 192.031 292.55 191.938 292.177 191.938C291.803 191.938 291.463 192.031 291.155 192.218C290.847 192.395 290.59 192.647 290.385 192.974C290.189 193.291 290.058 193.66 289.993 194.08ZM299.049 198.126C298.563 198.126 298.134 198.037 297.761 197.86C297.387 197.683 297.093 197.44 296.879 197.132C296.673 196.815 296.571 196.451 296.571 196.04C296.571 195.629 296.678 195.275 296.893 194.976C297.107 194.668 297.406 194.43 297.789 194.262C298.171 194.094 298.619 194.01 299.133 194.01C299.525 194.01 299.893 194.052 300.239 194.136C300.593 194.22 300.92 194.355 301.219 194.542V193.604C301.219 193.044 301.069 192.624 300.771 192.344C300.472 192.055 300.033 191.91 299.455 191.91C299.137 191.91 298.811 191.957 298.475 192.05C298.148 192.143 297.784 192.293 297.383 192.498L297.005 191.714C297.919 191.275 298.778 191.056 299.581 191.056C300.43 191.056 301.083 191.266 301.541 191.686C301.998 192.097 302.227 192.689 302.227 193.464V198H301.219V197.202C300.92 197.51 300.589 197.743 300.225 197.902C299.861 198.051 299.469 198.126 299.049 198.126ZM297.551 196.012C297.551 196.413 297.705 196.735 298.013 196.978C298.33 197.221 298.745 197.342 299.259 197.342C299.641 197.342 299.991 197.277 300.309 197.146C300.635 197.015 300.939 196.819 301.219 196.558V195.242C300.929 195.074 300.631 194.953 300.323 194.878C300.015 194.794 299.669 194.752 299.287 194.752C298.764 194.752 298.344 194.869 298.027 195.102C297.709 195.326 297.551 195.629 297.551 196.012ZM306.703 198.14C306.115 198.14 305.667 198 305.359 197.72C305.06 197.431 304.911 197.015 304.911 196.474V192.008H303.497V191.168H304.911V189.292L305.933 189.054V191.168H307.893V192.008H305.933V196.208C305.933 196.572 306.007 196.833 306.157 196.992C306.315 197.151 306.572 197.23 306.927 197.23C307.104 197.23 307.263 197.216 307.403 197.188C307.543 197.16 307.706 197.113 307.893 197.048V197.958C307.706 198.023 307.51 198.07 307.305 198.098C307.099 198.126 306.899 198.14 306.703 198.14ZM312.333 198.14C311.698 198.14 311.124 197.986 310.611 197.678C310.098 197.361 309.692 196.936 309.393 196.404C309.094 195.863 308.945 195.256 308.945 194.584C308.945 193.912 309.085 193.31 309.365 192.778C309.654 192.246 310.042 191.826 310.527 191.518C311.012 191.21 311.554 191.056 312.151 191.056C312.758 191.056 313.294 191.21 313.761 191.518C314.237 191.817 314.61 192.227 314.881 192.75C315.161 193.263 315.301 193.847 315.301 194.5V194.808H309.939C309.976 195.275 310.102 195.695 310.317 196.068C310.541 196.432 310.83 196.721 311.185 196.936C311.549 197.141 311.946 197.244 312.375 197.244C312.73 197.244 313.07 197.183 313.397 197.062C313.733 196.931 314.018 196.759 314.251 196.544L314.895 197.23C314.503 197.538 314.097 197.767 313.677 197.916C313.257 198.065 312.809 198.14 312.333 198.14ZM309.967 194.08H314.293C314.246 193.669 314.12 193.305 313.915 192.988C313.719 192.661 313.467 192.405 313.159 192.218C312.86 192.031 312.524 191.938 312.151 191.938C311.778 191.938 311.437 192.031 311.129 192.218C310.821 192.395 310.564 192.647 310.359 192.974C310.163 193.291 310.032 193.66 309.967 194.08ZM319.888 198.098C319.3 198.098 318.768 197.944 318.292 197.636C317.816 197.319 317.438 196.899 317.158 196.376C316.878 195.844 316.738 195.251 316.738 194.598C316.738 193.935 316.878 193.343 317.158 192.82C317.447 192.288 317.835 191.868 318.32 191.56C318.805 191.243 319.347 191.084 319.944 191.084C320.364 191.084 320.756 191.168 321.12 191.336C321.484 191.495 321.801 191.728 322.072 192.036V187.892L323.094 187.682V198H322.072V197.09C321.811 197.417 321.493 197.669 321.12 197.846C320.747 198.014 320.336 198.098 319.888 198.098ZM320.14 197.202C320.541 197.202 320.91 197.123 321.246 196.964C321.582 196.805 321.857 196.581 322.072 196.292V192.904C321.848 192.615 321.563 192.391 321.218 192.232C320.882 192.064 320.523 191.98 320.14 191.98C319.683 191.98 319.272 192.092 318.908 192.316C318.553 192.54 318.269 192.848 318.054 193.24C317.849 193.632 317.746 194.08 317.746 194.584C317.746 195.079 317.849 195.527 318.054 195.928C318.269 196.32 318.553 196.633 318.908 196.866C319.272 197.09 319.683 197.202 320.14 197.202ZM330.576 198.14C330.016 198.14 329.498 198.056 329.022 197.888C328.546 197.711 328.14 197.459 327.804 197.132L328.35 196.46C328.761 196.759 329.139 196.978 329.484 197.118C329.829 197.249 330.184 197.314 330.548 197.314C331.043 197.314 331.453 197.197 331.78 196.964C332.107 196.731 332.27 196.432 332.27 196.068C332.27 195.788 332.172 195.569 331.976 195.41C331.789 195.251 331.477 195.13 331.038 195.046L329.918 194.85C329.255 194.729 328.765 194.523 328.448 194.234C328.14 193.945 327.986 193.553 327.986 193.058C327.986 192.666 328.089 192.321 328.294 192.022C328.509 191.723 328.803 191.49 329.176 191.322C329.549 191.145 329.974 191.056 330.45 191.056C330.917 191.056 331.36 191.126 331.78 191.266C332.2 191.397 332.625 191.611 333.054 191.91L332.55 192.624C332.195 192.372 331.841 192.19 331.486 192.078C331.131 191.957 330.772 191.896 330.408 191.896C329.96 191.896 329.601 191.994 329.33 192.19C329.059 192.386 328.924 192.652 328.924 192.988C328.924 193.268 329.008 193.483 329.176 193.632C329.353 193.781 329.661 193.893 330.1 193.968L331.248 194.178C331.939 194.299 332.443 194.509 332.76 194.808C333.077 195.107 333.236 195.508 333.236 196.012C333.236 196.413 333.119 196.777 332.886 197.104C332.653 197.421 332.335 197.673 331.934 197.86C331.533 198.047 331.08 198.14 330.576 198.14ZM337.228 198.112C336.743 198.112 336.314 198.005 335.94 197.79C335.567 197.575 335.273 197.277 335.058 196.894C334.853 196.511 334.75 196.073 334.75 195.578V191.168H335.786V195.284C335.786 195.891 335.95 196.371 336.276 196.726C336.603 197.081 337.046 197.258 337.606 197.258C337.989 197.258 338.33 197.169 338.628 196.992C338.936 196.815 339.193 196.558 339.398 196.222V191.168H340.42V198H339.398V196.894C339.137 197.295 338.824 197.599 338.46 197.804C338.106 198.009 337.695 198.112 337.228 198.112ZM345.583 198.112C344.948 198.112 344.374 197.958 343.861 197.65C343.357 197.333 342.955 196.908 342.657 196.376C342.358 195.835 342.209 195.237 342.209 194.584C342.209 193.921 342.358 193.324 342.657 192.792C342.955 192.26 343.357 191.84 343.861 191.532C344.374 191.215 344.948 191.056 345.583 191.056C346.087 191.056 346.567 191.149 347.025 191.336C347.482 191.523 347.879 191.784 348.215 192.12L347.557 192.834C347.314 192.563 347.02 192.353 346.675 192.204C346.329 192.055 345.979 191.98 345.625 191.98C345.177 191.98 344.771 192.097 344.407 192.33C344.052 192.563 343.767 192.876 343.553 193.268C343.338 193.66 343.231 194.099 343.231 194.584C343.231 195.069 343.338 195.508 343.553 195.9C343.767 196.292 344.052 196.605 344.407 196.838C344.771 197.071 345.177 197.188 345.625 197.188C345.979 197.188 346.329 197.113 346.675 196.964C347.02 196.805 347.314 196.595 347.557 196.334L348.215 197.048C347.879 197.384 347.482 197.645 347.025 197.832C346.567 198.019 346.087 198.112 345.583 198.112ZM352.501 198.112C351.866 198.112 351.292 197.958 350.779 197.65C350.275 197.333 349.873 196.908 349.575 196.376C349.276 195.835 349.127 195.237 349.127 194.584C349.127 193.921 349.276 193.324 349.575 192.792C349.873 192.26 350.275 191.84 350.779 191.532C351.292 191.215 351.866 191.056 352.501 191.056C353.005 191.056 353.485 191.149 353.943 191.336C354.4 191.523 354.797 191.784 355.133 192.12L354.475 192.834C354.232 192.563 353.938 192.353 353.593 192.204C353.247 192.055 352.897 191.98 352.543 191.98C352.095 191.98 351.689 192.097 351.325 192.33C350.97 192.563 350.685 192.876 350.471 193.268C350.256 193.66 350.149 194.099 350.149 194.584C350.149 195.069 350.256 195.508 350.471 195.9C350.685 196.292 350.97 196.605 351.325 196.838C351.689 197.071 352.095 197.188 352.543 197.188C352.897 197.188 353.247 197.113 353.593 196.964C353.938 196.805 354.232 196.595 354.475 196.334L355.133 197.048C354.797 197.384 354.4 197.645 353.943 197.832C353.485 198.019 353.005 198.112 352.501 198.112ZM359.433 198.14C358.798 198.14 358.224 197.986 357.711 197.678C357.197 197.361 356.791 196.936 356.493 196.404C356.194 195.863 356.045 195.256 356.045 194.584C356.045 193.912 356.185 193.31 356.465 192.778C356.754 192.246 357.141 191.826 357.627 191.518C358.112 191.21 358.653 191.056 359.251 191.056C359.857 191.056 360.394 191.21 360.861 191.518C361.337 191.817 361.71 192.227 361.981 192.75C362.261 193.263 362.401 193.847 362.401 194.5V194.808H357.039C357.076 195.275 357.202 195.695 357.417 196.068C357.641 196.432 357.93 196.721 358.285 196.936C358.649 197.141 359.045 197.244 359.475 197.244C359.829 197.244 360.17 197.183 360.497 197.062C360.833 196.931 361.117 196.759 361.351 196.544L361.995 197.23C361.603 197.538 361.197 197.767 360.777 197.916C360.357 198.065 359.909 198.14 359.433 198.14ZM357.067 194.08H361.393C361.346 193.669 361.22 193.305 361.015 192.988C360.819 192.661 360.567 192.405 360.259 192.218C359.96 192.031 359.624 191.938 359.251 191.938C358.877 191.938 358.537 192.031 358.229 192.218C357.921 192.395 357.664 192.647 357.459 192.974C357.263 193.291 357.132 193.66 357.067 194.08ZM366.328 198.14C365.768 198.14 365.25 198.056 364.774 197.888C364.298 197.711 363.892 197.459 363.556 197.132L364.102 196.46C364.513 196.759 364.891 196.978 365.236 197.118C365.581 197.249 365.936 197.314 366.3 197.314C366.795 197.314 367.205 197.197 367.532 196.964C367.859 196.731 368.022 196.432 368.022 196.068C368.022 195.788 367.924 195.569 367.728 195.41C367.541 195.251 367.229 195.13 366.79 195.046L365.67 194.85C365.007 194.729 364.517 194.523 364.2 194.234C363.892 193.945 363.738 193.553 363.738 193.058C363.738 192.666 363.841 192.321 364.046 192.022C364.261 191.723 364.555 191.49 364.928 191.322C365.301 191.145 365.726 191.056 366.202 191.056C366.669 191.056 367.112 191.126 367.532 191.266C367.952 191.397 368.377 191.611 368.806 191.91L368.302 192.624C367.947 192.372 367.593 192.19 367.238 192.078C366.883 191.957 366.524 191.896 366.16 191.896C365.712 191.896 365.353 191.994 365.082 192.19C364.811 192.386 364.676 192.652 364.676 192.988C364.676 193.268 364.76 193.483 364.928 193.632C365.105 193.781 365.413 193.893 365.852 193.968L367 194.178C367.691 194.299 368.195 194.509 368.512 194.808C368.829 195.107 368.988 195.508 368.988 196.012C368.988 196.413 368.871 196.777 368.638 197.104C368.405 197.421 368.087 197.673 367.686 197.86C367.285 198.047 366.832 198.14 366.328 198.14ZM372.658 198.14C372.098 198.14 371.58 198.056 371.104 197.888C370.628 197.711 370.222 197.459 369.886 197.132L370.432 196.46C370.843 196.759 371.221 196.978 371.566 197.118C371.911 197.249 372.266 197.314 372.63 197.314C373.125 197.314 373.535 197.197 373.862 196.964C374.189 196.731 374.352 196.432 374.352 196.068C374.352 195.788 374.254 195.569 374.058 195.41C373.871 195.251 373.559 195.13 373.12 195.046L372 194.85C371.337 194.729 370.847 194.523 370.53 194.234C370.222 193.945 370.068 193.553 370.068 193.058C370.068 192.666 370.171 192.321 370.376 192.022C370.591 191.723 370.885 191.49 371.258 191.322C371.631 191.145 372.056 191.056 372.532 191.056C372.999 191.056 373.442 191.126 373.862 191.266C374.282 191.397 374.707 191.611 375.136 191.91L374.632 192.624C374.277 192.372 373.923 192.19 373.568 192.078C373.213 191.957 372.854 191.896 372.49 191.896C372.042 191.896 371.683 191.994 371.412 192.19C371.141 192.386 371.006 192.652 371.006 192.988C371.006 193.268 371.09 193.483 371.258 193.632C371.435 193.781 371.743 193.893 372.182 193.968L373.33 194.178C374.021 194.299 374.525 194.509 374.842 194.808C375.159 195.107 375.318 195.508 375.318 196.012C375.318 196.413 375.201 196.777 374.968 197.104C374.735 197.421 374.417 197.673 374.016 197.86C373.615 198.047 373.162 198.14 372.658 198.14ZM377.606 198V192.008H376.08V191.168H377.606V189.74C377.606 189.068 377.783 188.55 378.138 188.186C378.492 187.822 378.996 187.64 379.65 187.64C379.836 187.64 380.004 187.649 380.154 187.668C380.312 187.687 380.452 187.719 380.574 187.766V188.69C380.424 188.643 380.289 188.611 380.168 188.592C380.046 188.573 379.906 188.564 379.748 188.564C379.356 188.564 379.071 188.662 378.894 188.858C378.716 189.045 378.628 189.343 378.628 189.754V191.168H380.574V192.008H378.628V198H377.606ZM384.355 198.112C383.87 198.112 383.44 198.005 383.067 197.79C382.694 197.575 382.4 197.277 382.185 196.894C381.98 196.511 381.877 196.073 381.877 195.578V191.168H382.913V195.284C382.913 195.891 383.076 196.371 383.403 196.726C383.73 197.081 384.173 197.258 384.733 197.258C385.116 197.258 385.456 197.169 385.755 196.992C386.063 196.815 386.32 196.558 386.525 196.222V191.168H387.547V198H386.525V196.894C386.264 197.295 385.951 197.599 385.587 197.804C385.232 198.009 384.822 198.112 384.355 198.112ZM389.644 198V187.892L390.666 187.682V198H389.644ZM392.761 198V187.892L393.783 187.682V198H392.761ZM396.172 201.066C395.957 201.066 395.738 201.033 395.514 200.968V200.058C395.607 200.077 395.705 200.091 395.808 200.1C395.911 200.109 395.999 200.114 396.074 200.114C396.335 200.114 396.55 200.044 396.718 199.904C396.895 199.764 397.045 199.545 397.166 199.246L397.67 198L395.038 191.168H396.172L398.244 196.782L400.442 191.168H401.576L398.132 199.554C397.983 199.918 397.819 200.212 397.642 200.436C397.465 200.66 397.259 200.819 397.026 200.912C396.793 201.015 396.508 201.066 396.172 201.066ZM402.635 198.112C402.429 198.112 402.252 198.037 402.103 197.888C401.963 197.739 401.893 197.561 401.893 197.356C401.893 197.141 401.963 196.964 402.103 196.824C402.252 196.675 402.429 196.6 402.635 196.6C402.84 196.6 403.013 196.675 403.153 196.824C403.302 196.964 403.377 197.141 403.377 197.356C403.377 197.561 403.302 197.739 403.153 197.888C403.013 198.037 402.84 198.112 402.635 198.112Z" fill="#151515"/>
<rect x="104.5" y="220.5" width="97" height="35" rx="2.5" stroke="#0066CC"/>
<path d="M126.592 244.176C125.792 244.176 125.045 244.032 124.352 243.744C123.669 243.445 123.067 243.035 122.544 242.512C122.021 241.979 121.616 241.365 121.328 240.672C121.04 239.968 120.896 239.211 120.896 238.4C120.896 237.589 121.04 236.837 121.328 236.144C121.616 235.44 122.021 234.827 122.544 234.304C123.067 233.771 123.669 233.36 124.352 233.072C125.045 232.773 125.792 232.624 126.592 232.624C127.147 232.624 127.675 232.699 128.176 232.848C128.688 232.987 129.168 233.195 129.616 233.472C130.064 233.739 130.464 234.069 130.816 234.464L130 235.312C129.584 234.811 129.072 234.427 128.464 234.16C127.867 233.883 127.243 233.744 126.592 233.744C125.963 233.744 125.376 233.861 124.832 234.096C124.288 234.331 123.813 234.661 123.408 235.088C123.013 235.515 122.704 236.011 122.48 236.576C122.256 237.131 122.144 237.739 122.144 238.4C122.144 239.051 122.256 239.659 122.48 240.224C122.704 240.789 123.013 241.285 123.408 241.712C123.813 242.139 124.288 242.469 124.832 242.704C125.376 242.939 125.963 243.056 126.592 243.056C127.243 243.056 127.867 242.917 128.464 242.64C129.072 242.363 129.584 241.979 130 241.488L130.816 242.336C130.464 242.731 130.064 243.067 129.616 243.344C129.168 243.611 128.688 243.819 128.176 243.968C127.675 244.107 127.147 244.176 126.592 244.176ZM136.031 244.128C135.306 244.128 134.655 243.952 134.079 243.6C133.503 243.248 133.05 242.768 132.719 242.16C132.388 241.552 132.223 240.864 132.223 240.096C132.223 239.328 132.388 238.64 132.719 238.032C133.05 237.424 133.503 236.944 134.079 236.592C134.655 236.24 135.306 236.064 136.031 236.064C136.746 236.064 137.386 236.24 137.951 236.592C138.527 236.944 138.98 237.424 139.311 238.032C139.642 238.64 139.807 239.328 139.807 240.096C139.807 240.864 139.642 241.552 139.311 242.16C138.98 242.768 138.527 243.248 137.951 243.6C137.386 243.952 136.746 244.128 136.031 244.128ZM136.015 243.104C136.527 243.104 136.98 242.976 137.375 242.72C137.77 242.453 138.079 242.091 138.303 241.632C138.538 241.173 138.655 240.661 138.655 240.096C138.655 239.52 138.538 239.008 138.303 238.56C138.079 238.101 137.77 237.744 137.375 237.488C136.98 237.221 136.527 237.088 136.015 237.088C135.503 237.088 135.05 237.221 134.655 237.488C134.26 237.744 133.946 238.101 133.711 238.56C133.487 239.008 133.375 239.52 133.375 240.096C133.375 240.661 133.487 241.173 133.711 241.632C133.946 242.091 134.26 242.453 134.655 242.72C135.05 242.976 135.503 243.104 136.015 243.104ZM141.856 244V236.192H143.024V237.456C143.323 236.987 143.68 236.64 144.096 236.416C144.512 236.181 144.982 236.064 145.504 236.064C146.07 236.064 146.56 236.187 146.976 236.432C147.403 236.667 147.734 237.003 147.968 237.44C148.214 237.867 148.336 238.368 148.336 238.944V244H147.168V239.28C147.168 238.587 146.976 238.043 146.592 237.648C146.219 237.243 145.712 237.04 145.072 237.04C144.646 237.04 144.256 237.141 143.904 237.344C143.552 237.547 143.259 237.845 143.024 238.24V244H141.856ZM153.426 244.16C152.754 244.16 152.242 244 151.89 243.68C151.549 243.349 151.378 242.875 151.378 242.256V237.152H149.762V236.192H151.378V234.048L152.546 233.776V236.192H154.786V237.152H152.546V241.952C152.546 242.368 152.631 242.667 152.802 242.848C152.983 243.029 153.277 243.12 153.682 243.12C153.885 243.12 154.066 243.104 154.226 243.072C154.386 243.04 154.573 242.987 154.786 242.912V243.952C154.573 244.027 154.349 244.08 154.114 244.112C153.879 244.144 153.65 244.16 153.426 244.16ZM156.481 244V236.192H157.649V244H156.481ZM157.073 234.256C156.838 234.256 156.636 234.176 156.465 234.016C156.305 233.845 156.225 233.648 156.225 233.424C156.225 233.2 156.305 233.008 156.465 232.848C156.636 232.677 156.838 232.592 157.073 232.592C157.308 232.592 157.505 232.677 157.665 232.848C157.836 233.008 157.921 233.2 157.921 233.424C157.921 233.648 157.836 233.845 157.665 234.016C157.505 234.176 157.308 234.256 157.073 234.256ZM160.044 244V236.192H161.212V237.456C161.51 236.987 161.868 236.64 162.284 236.416C162.7 236.181 163.169 236.064 163.692 236.064C164.257 236.064 164.748 236.187 165.164 236.432C165.59 236.667 165.921 237.003 166.156 237.44C166.401 237.867 166.524 238.368 166.524 238.944V244H165.356V239.28C165.356 238.587 165.164 238.043 164.78 237.648C164.406 237.243 163.9 237.04 163.26 237.04C162.833 237.04 162.444 237.141 162.092 237.344C161.74 237.547 161.446 237.845 161.212 238.24V244H160.044ZM171.578 244.128C171.023 244.128 170.532 244.005 170.106 243.76C169.679 243.515 169.343 243.173 169.098 242.736C168.863 242.299 168.746 241.797 168.746 241.232V236.192H169.93V240.896C169.93 241.589 170.116 242.139 170.49 242.544C170.863 242.949 171.37 243.152 172.01 243.152C172.447 243.152 172.836 243.051 173.178 242.848C173.53 242.645 173.823 242.352 174.058 241.968V236.192H175.226V244H174.058V242.736C173.759 243.195 173.402 243.541 172.986 243.776C172.58 244.011 172.111 244.128 171.578 244.128ZM181.142 244.16C180.417 244.16 179.761 243.984 179.174 243.632C178.587 243.269 178.123 242.784 177.782 242.176C177.441 241.557 177.27 240.864 177.27 240.096C177.27 239.328 177.43 238.64 177.75 238.032C178.081 237.424 178.523 236.944 179.078 236.592C179.633 236.24 180.251 236.064 180.934 236.064C181.627 236.064 182.241 236.24 182.774 236.592C183.318 236.933 183.745 237.403 184.054 238C184.374 238.587 184.534 239.253 184.534 240V240.352H178.406C178.449 240.885 178.593 241.365 178.838 241.792C179.094 242.208 179.425 242.539 179.83 242.784C180.246 243.019 180.699 243.136 181.19 243.136C181.595 243.136 181.985 243.067 182.358 242.928C182.742 242.779 183.067 242.581 183.334 242.336L184.07 243.12C183.622 243.472 183.158 243.733 182.678 243.904C182.198 244.075 181.686 244.16 181.142 244.16ZM178.438 239.52H183.382C183.329 239.051 183.185 238.635 182.95 238.272C182.726 237.899 182.438 237.605 182.086 237.392C181.745 237.179 181.361 237.072 180.934 237.072C180.507 237.072 180.118 237.179 179.766 237.392C179.414 237.595 179.121 237.883 178.886 238.256C178.662 238.619 178.513 239.04 178.438 239.52Z" fill="#0066CC"/>
<path d="M232.56 244.176C231.76 244.176 231.019 244.027 230.336 243.728C229.653 243.429 229.051 243.019 228.528 242.496C228.016 241.963 227.616 241.349 227.328 240.656C227.04 239.952 226.896 239.2 226.896 238.4C226.896 237.6 227.04 236.853 227.328 236.16C227.616 235.456 228.016 234.843 228.528 234.32C229.051 233.787 229.653 233.371 230.336 233.072C231.019 232.773 231.76 232.624 232.56 232.624C233.413 232.624 234.219 232.779 234.976 233.088C235.744 233.397 236.395 233.856 236.928 234.464L236.096 235.296C235.68 234.795 235.157 234.411 234.528 234.144C233.899 233.877 233.243 233.744 232.56 233.744C231.931 233.744 231.349 233.867 230.816 234.112C230.283 234.347 229.813 234.677 229.408 235.104C229.013 235.52 228.704 236.011 228.48 236.576C228.256 237.141 228.144 237.749 228.144 238.4C228.144 239.051 228.256 239.659 228.48 240.224C228.704 240.789 229.013 241.285 229.408 241.712C229.813 242.128 230.283 242.459 230.816 242.704C231.349 242.939 231.931 243.056 232.56 243.056C233.307 243.056 233.973 242.891 234.56 242.56C235.157 242.229 235.637 241.776 236 241.2C236.373 240.613 236.592 239.957 236.656 239.232H232.88V238.144H237.904V238.64C237.904 239.419 237.771 240.144 237.504 240.816C237.237 241.477 236.859 242.064 236.368 242.576C235.888 243.077 235.323 243.472 234.672 243.76C234.021 244.037 233.317 244.176 232.56 244.176ZM243.437 244.128C242.712 244.128 242.061 243.952 241.485 243.6C240.909 243.248 240.456 242.768 240.125 242.16C239.795 241.552 239.629 240.864 239.629 240.096C239.629 239.328 239.795 238.64 240.125 238.032C240.456 237.424 240.909 236.944 241.485 236.592C242.061 236.24 242.712 236.064 243.437 236.064C244.152 236.064 244.792 236.24 245.357 236.592C245.933 236.944 246.387 237.424 246.717 238.032C247.048 238.64 247.213 239.328 247.213 240.096C247.213 240.864 247.048 241.552 246.717 242.16C246.387 242.768 245.933 243.248 245.357 243.6C244.792 243.952 244.152 244.128 243.437 244.128ZM243.421 243.104C243.933 243.104 244.387 242.976 244.781 242.72C245.176 242.453 245.485 242.091 245.709 241.632C245.944 241.173 246.061 240.661 246.061 240.096C246.061 239.52 245.944 239.008 245.709 238.56C245.485 238.101 245.176 237.744 244.781 237.488C244.387 237.221 243.933 237.088 243.421 237.088C242.909 237.088 242.456 237.221 242.061 237.488C241.667 237.744 241.352 238.101 241.117 238.56C240.893 239.008 240.781 239.52 240.781 240.096C240.781 240.661 240.893 241.173 241.117 241.632C241.352 242.091 241.667 242.453 242.061 242.72C242.456 242.976 242.909 243.104 243.421 243.104ZM255.973 244.16C255.301 244.16 254.789 244 254.437 243.68C254.096 243.349 253.925 242.875 253.925 242.256V237.152H252.309V236.192H253.925V234.048L255.093 233.776V236.192H257.333V237.152H255.093V241.952C255.093 242.368 255.178 242.667 255.349 242.848C255.53 243.029 255.824 243.12 256.229 243.12C256.432 243.12 256.613 243.104 256.773 243.072C256.933 243.04 257.12 242.987 257.333 242.912V243.952C257.12 244.027 256.896 244.08 256.661 244.112C256.426 244.144 256.197 244.16 255.973 244.16ZM262.344 244.128C261.618 244.128 260.968 243.952 260.392 243.6C259.816 243.248 259.362 242.768 259.032 242.16C258.701 241.552 258.536 240.864 258.536 240.096C258.536 239.328 258.701 238.64 259.032 238.032C259.362 237.424 259.816 236.944 260.392 236.592C260.968 236.24 261.618 236.064 262.344 236.064C263.058 236.064 263.698 236.24 264.264 236.592C264.84 236.944 265.293 237.424 265.624 238.032C265.954 238.64 266.12 239.328 266.12 240.096C266.12 240.864 265.954 241.552 265.624 242.16C265.293 242.768 264.84 243.248 264.264 243.6C263.698 243.952 263.058 244.128 262.344 244.128ZM262.328 243.104C262.84 243.104 263.293 242.976 263.688 242.72C264.082 242.453 264.392 242.091 264.616 241.632C264.85 241.173 264.968 240.661 264.968 240.096C264.968 239.52 264.85 239.008 264.616 238.56C264.392 238.101 264.082 237.744 263.688 237.488C263.293 237.221 262.84 237.088 262.328 237.088C261.816 237.088 261.362 237.221 260.968 237.488C260.573 237.744 260.258 238.101 260.024 238.56C259.8 239.008 259.688 239.52 259.688 240.096C259.688 240.661 259.8 241.173 260.024 241.632C260.258 242.091 260.573 242.453 260.968 242.72C261.362 242.976 261.816 243.104 262.328 243.104ZM275.151 244.112C274.479 244.112 273.871 243.936 273.327 243.584C272.783 243.221 272.351 242.741 272.031 242.144C271.711 241.536 271.551 240.859 271.551 240.112C271.551 239.355 271.711 238.677 272.031 238.08C272.362 237.472 272.804 236.992 273.359 236.64C273.914 236.277 274.532 236.096 275.215 236.096C275.695 236.096 276.143 236.192 276.559 236.384C276.975 236.565 277.338 236.832 277.647 237.184V232.448L278.815 232.208V244H277.647V242.96C277.348 243.333 276.986 243.621 276.559 243.824C276.132 244.016 275.663 244.112 275.151 244.112ZM275.439 243.088C275.898 243.088 276.319 242.997 276.703 242.816C277.087 242.635 277.402 242.379 277.647 242.048V238.176C277.391 237.845 277.066 237.589 276.671 237.408C276.287 237.216 275.876 237.12 275.439 237.12C274.916 237.12 274.447 237.248 274.031 237.504C273.626 237.76 273.3 238.112 273.055 238.56C272.82 239.008 272.703 239.52 272.703 240.096C272.703 240.661 272.82 241.173 273.055 241.632C273.3 242.08 273.626 242.437 274.031 242.704C274.447 242.96 274.916 243.088 275.439 243.088ZM283.632 244.144C283.077 244.144 282.586 244.043 282.16 243.84C281.733 243.637 281.397 243.36 281.152 243.008C280.917 242.645 280.8 242.229 280.8 241.76C280.8 241.291 280.922 240.885 281.168 240.544C281.413 240.192 281.754 239.92 282.192 239.728C282.629 239.536 283.141 239.44 283.728 239.44C284.176 239.44 284.597 239.488 284.992 239.584C285.397 239.68 285.77 239.835 286.112 240.048V238.976C286.112 238.336 285.941 237.856 285.6 237.536C285.258 237.205 284.757 237.04 284.096 237.04C283.733 237.04 283.36 237.093 282.976 237.2C282.602 237.307 282.186 237.477 281.728 237.712L281.296 236.816C282.341 236.315 283.322 236.064 284.24 236.064C285.21 236.064 285.957 236.304 286.48 236.784C287.002 237.253 287.264 237.931 287.264 238.816V244H286.112V243.088C285.77 243.44 285.392 243.707 284.976 243.888C284.56 244.059 284.112 244.144 283.632 244.144ZM281.92 241.728C281.92 242.187 282.096 242.555 282.448 242.832C282.81 243.109 283.285 243.248 283.872 243.248C284.309 243.248 284.709 243.173 285.072 243.024C285.445 242.875 285.792 242.651 286.112 242.352V240.848C285.781 240.656 285.44 240.517 285.088 240.432C284.736 240.336 284.341 240.288 283.904 240.288C283.306 240.288 282.826 240.421 282.464 240.688C282.101 240.944 281.92 241.291 281.92 241.728ZM292.054 244.16C291.414 244.16 290.822 244.064 290.278 243.872C289.734 243.669 289.27 243.381 288.886 243.008L289.51 242.24C289.979 242.581 290.411 242.832 290.806 242.992C291.2 243.141 291.606 243.216 292.022 243.216C292.587 243.216 293.056 243.083 293.43 242.816C293.803 242.549 293.99 242.208 293.99 241.792C293.99 241.472 293.878 241.221 293.654 241.04C293.44 240.859 293.083 240.72 292.582 240.624L291.302 240.4C290.544 240.261 289.984 240.027 289.622 239.696C289.27 239.365 289.094 238.917 289.094 238.352C289.094 237.904 289.211 237.509 289.446 237.168C289.691 236.827 290.027 236.56 290.454 236.368C290.88 236.165 291.366 236.064 291.91 236.064C292.443 236.064 292.95 236.144 293.43 236.304C293.91 236.453 294.395 236.699 294.886 237.04L294.31 237.856C293.904 237.568 293.499 237.36 293.094 237.232C292.688 237.093 292.278 237.024 291.862 237.024C291.35 237.024 290.939 237.136 290.63 237.36C290.32 237.584 290.166 237.888 290.166 238.272C290.166 238.592 290.262 238.837 290.454 239.008C290.656 239.179 291.008 239.307 291.51 239.392L292.822 239.632C293.611 239.771 294.187 240.011 294.55 240.352C294.912 240.693 295.094 241.152 295.094 241.728C295.094 242.187 294.96 242.603 294.694 242.976C294.427 243.339 294.064 243.627 293.606 243.84C293.147 244.053 292.63 244.16 292.054 244.16ZM296.872 244V232.448L298.04 232.208V237.456C298.339 236.987 298.696 236.64 299.112 236.416C299.528 236.181 299.997 236.064 300.52 236.064C301.085 236.064 301.576 236.187 301.992 236.432C302.419 236.667 302.749 237.003 302.984 237.44C303.229 237.867 303.352 238.368 303.352 238.944V244H302.184V239.28C302.184 238.587 301.992 238.043 301.608 237.648C301.235 237.243 300.728 237.04 300.088 237.04C299.661 237.04 299.272 237.141 298.92 237.344C298.568 237.547 298.275 237.845 298.04 238.24V244H296.872ZM305.7 244V232.56L306.868 232.32V237.264C307.167 236.891 307.529 236.603 307.956 236.4C308.383 236.197 308.857 236.096 309.38 236.096C310.063 236.096 310.671 236.277 311.204 236.64C311.748 236.992 312.18 237.472 312.5 238.08C312.82 238.677 312.98 239.349 312.98 240.096C312.98 240.843 312.815 241.52 312.484 242.128C312.164 242.736 311.727 243.221 311.172 243.584C310.628 243.936 310.009 244.112 309.316 244.112C308.825 244.112 308.367 244.016 307.94 243.824C307.524 243.621 307.161 243.339 306.852 242.976V244H305.7ZM309.092 243.104C309.615 243.104 310.079 242.976 310.484 242.72C310.9 242.453 311.225 242.096 311.46 241.648C311.705 241.189 311.828 240.677 311.828 240.112C311.828 239.536 311.705 239.024 311.46 238.576C311.225 238.128 310.9 237.776 310.484 237.52C310.079 237.253 309.615 237.12 309.092 237.12C308.633 237.12 308.207 237.216 307.812 237.408C307.428 237.589 307.113 237.851 306.868 238.192V242.016C307.124 242.357 307.444 242.624 307.828 242.816C308.223 243.008 308.644 243.104 309.092 243.104ZM318.484 244.128C317.759 244.128 317.108 243.952 316.532 243.6C315.956 243.248 315.503 242.768 315.172 242.16C314.841 241.552 314.676 240.864 314.676 240.096C314.676 239.328 314.841 238.64 315.172 238.032C315.503 237.424 315.956 236.944 316.532 236.592C317.108 236.24 317.759 236.064 318.484 236.064C319.199 236.064 319.839 236.24 320.404 236.592C320.98 236.944 321.433 237.424 321.764 238.032C322.095 238.64 322.26 239.328 322.26 240.096C322.26 240.864 322.095 241.552 321.764 242.16C321.433 242.768 320.98 243.248 320.404 243.6C319.839 243.952 319.199 244.128 318.484 244.128ZM318.468 243.104C318.98 243.104 319.433 242.976 319.828 242.72C320.223 242.453 320.532 242.091 320.756 241.632C320.991 241.173 321.108 240.661 321.108 240.096C321.108 239.52 320.991 239.008 320.756 238.56C320.532 238.101 320.223 237.744 319.828 237.488C319.433 237.221 318.98 237.088 318.468 237.088C317.956 237.088 317.503 237.221 317.108 237.488C316.713 237.744 316.399 238.101 316.164 238.56C315.94 239.008 315.828 239.52 315.828 240.096C315.828 240.661 315.94 241.173 316.164 241.632C316.399 242.091 316.713 242.453 317.108 242.72C317.503 242.976 317.956 243.104 318.468 243.104ZM326.804 244.144C326.249 244.144 325.758 244.043 325.332 243.84C324.905 243.637 324.569 243.36 324.324 243.008C324.089 242.645 323.972 242.229 323.972 241.76C323.972 241.291 324.094 240.885 324.34 240.544C324.585 240.192 324.926 239.92 325.364 239.728C325.801 239.536 326.313 239.44 326.9 239.44C327.348 239.44 327.769 239.488 328.164 239.584C328.569 239.68 328.942 239.835 329.284 240.048V238.976C329.284 238.336 329.113 237.856 328.772 237.536C328.43 237.205 327.929 237.04 327.268 237.04C326.905 237.04 326.532 237.093 326.148 237.2C325.774 237.307 325.358 237.477 324.9 237.712L324.468 236.816C325.513 236.315 326.494 236.064 327.411 236.064C328.382 236.064 329.129 236.304 329.652 236.784C330.174 237.253 330.436 237.931 330.436 238.816V244H329.284V243.088C328.942 243.44 328.564 243.707 328.148 243.888C327.732 244.059 327.284 244.144 326.804 244.144ZM325.092 241.728C325.092 242.187 325.268 242.555 325.62 242.832C325.982 243.109 326.457 243.248 327.044 243.248C327.481 243.248 327.881 243.173 328.244 243.024C328.617 242.875 328.964 242.651 329.284 242.352V240.848C328.953 240.656 328.612 240.517 328.26 240.432C327.908 240.336 327.513 240.288 327.076 240.288C326.478 240.288 325.998 240.421 325.636 240.688C325.273 240.944 325.092 241.291 325.092 241.728ZM332.809 244V236.192H333.977V237.792C334.18 237.248 334.468 236.827 334.841 236.528C335.225 236.219 335.663 236.064 336.153 236.064C336.292 236.064 336.42 236.075 336.537 236.096C336.655 236.107 336.772 236.133 336.889 236.176V237.232C336.761 237.189 336.623 237.157 336.473 237.136C336.335 237.104 336.201 237.088 336.073 237.088C335.593 237.088 335.172 237.227 334.809 237.504C334.457 237.781 334.18 238.171 333.977 238.672V244H332.809ZM341.198 244.112C340.526 244.112 339.918 243.936 339.374 243.584C338.83 243.221 338.398 242.741 338.078 242.144C337.758 241.536 337.598 240.859 337.598 240.112C337.598 239.355 337.758 238.677 338.078 238.08C338.409 237.472 338.851 236.992 339.406 236.64C339.961 236.277 340.579 236.096 341.262 236.096C341.742 236.096 342.19 236.192 342.606 236.384C343.022 236.565 343.385 236.832 343.694 237.184V232.448L344.862 232.208V244H343.694V242.96C343.395 243.333 343.033 243.621 342.606 243.824C342.179 244.016 341.71 244.112 341.198 244.112ZM341.486 243.088C341.945 243.088 342.366 242.997 342.75 242.816C343.134 242.635 343.449 242.379 343.694 242.048V238.176C343.438 237.845 343.113 237.589 342.718 237.408C342.334 237.216 341.923 237.12 341.486 237.12C340.963 237.12 340.494 237.248 340.078 237.504C339.673 237.76 339.347 238.112 339.102 238.56C338.867 239.008 338.75 239.52 338.75 240.096C338.75 240.661 338.867 241.173 339.102 241.632C339.347 242.08 339.673 242.437 340.078 242.704C340.494 242.96 340.963 243.088 341.486 243.088Z" fill="#0066CC"/>
<rect width="1140" height="72" fill="#151515"/>
<defs>
<clipPath id="clip0_11_1688">
<rect width="16" height="16" fill="white" transform="translate(80 156.5)"/>
</clipPath>
<clipPath id="clip1_11_1688">
<rect width="12" height="12" fill="white" transform="translate(1048 154)"/>
</clipPath>
</defs>
</svg>
