<svg width="1140" height="312" viewBox="0 0 1140 312" fill="none" xmlns="http://www.w3.org/2000/svg">
<rect x="0.5" y="0.5" width="1139" height="311" rx="2.5" fill="white" stroke="#C7C7C7"/>
<rect width="1140" height="72" fill="#151515"/>
<g filter="url(#filter0_d_10_4431)">
<mask id="path-3-inside-1_10_4431" fill="white">
<path d="M684 148H1092V232H684V148Z"/>
</mask>
<path d="M684 148H1092V232H684V148Z" fill="white" shape-rendering="crispEdges"/>
<path d="M684 150H1092V146H684V150Z" fill="#3D7317" mask="url(#path-3-inside-1_10_4431)"/>
<g clip-path="url(#clip0_10_4431)">
<path d="M708 168.5C703.59 168.5 700 172.09 700 176.5C700 180.91 703.59 184.5 708 184.5C712.41 184.5 716 180.91 716 176.5C716 172.09 712.41 168.5 708 168.5ZM711.9 174.9L707.575 179.225C707.415 179.385 707.21 179.46 707 179.46C706.79 179.46 706.585 179.38 706.425 179.225L704.1 176.9C703.88 176.68 703.88 176.325 704.1 176.105C704.32 175.885 704.675 175.885 704.895 176.105L706.995 178.21L711.095 174.105C711.315 173.885 711.67 173.885 711.89 174.105C712.11 174.325 712.11 174.68 711.89 174.9H711.9Z" fill="#3D7317"/>
</g>
<path d="M728.452 181.154C727.687 181.154 726.963 181.023 726.282 180.762C725.61 180.491 724.961 180.095 724.336 179.572L725.246 178.34C725.881 178.853 726.445 179.222 726.94 179.446C727.444 179.661 727.981 179.768 728.55 179.768C728.979 179.768 729.357 179.703 729.684 179.572C730.02 179.432 730.277 179.245 730.454 179.012C730.641 178.779 730.734 178.508 730.734 178.2C730.734 177.799 730.599 177.495 730.328 177.29C730.067 177.075 729.609 176.912 728.956 176.8L727.15 176.492C726.301 176.343 725.666 176.058 725.246 175.638C724.835 175.209 724.63 174.663 724.63 174C724.63 173.412 724.779 172.899 725.078 172.46C725.377 172.012 725.792 171.667 726.324 171.424C726.865 171.172 727.505 171.046 728.242 171.046C728.979 171.046 729.679 171.153 730.342 171.368C731.005 171.583 731.616 171.895 732.176 172.306L731.322 173.566C730.827 173.193 730.319 172.913 729.796 172.726C729.273 172.53 728.737 172.432 728.186 172.432C727.794 172.432 727.449 172.493 727.15 172.614C726.861 172.735 726.632 172.903 726.464 173.118C726.305 173.333 726.226 173.571 726.226 173.832C726.226 174.187 726.343 174.462 726.576 174.658C726.819 174.845 727.206 174.985 727.738 175.078L729.488 175.372C730.477 175.549 731.205 175.857 731.672 176.296C732.148 176.735 732.386 177.327 732.386 178.074C732.386 178.671 732.218 179.203 731.882 179.67C731.555 180.137 731.098 180.501 730.51 180.762C729.922 181.023 729.236 181.154 728.452 181.154ZM736.288 181.112C735.803 181.112 735.378 181.005 735.014 180.79C734.65 180.575 734.361 180.281 734.146 179.908C733.941 179.535 733.838 179.101 733.838 178.606V173.986H735.434V178.144C735.434 178.667 735.569 179.082 735.84 179.39C736.12 179.689 736.498 179.838 736.974 179.838C737.291 179.838 737.576 179.768 737.828 179.628C738.089 179.488 738.313 179.278 738.5 178.998V173.986H740.082V181H738.5V179.866C738.229 180.277 737.907 180.589 737.534 180.804C737.161 181.009 736.745 181.112 736.288 181.112ZM745.263 181.126C744.6 181.126 743.998 180.967 743.457 180.65C742.925 180.323 742.5 179.885 742.183 179.334C741.875 178.783 741.721 178.172 741.721 177.5C741.721 176.819 741.875 176.207 742.183 175.666C742.5 175.115 742.925 174.681 743.457 174.364C743.998 174.037 744.6 173.874 745.263 173.874C745.804 173.874 746.317 173.977 746.803 174.182C747.297 174.387 747.717 174.681 748.062 175.064L747.083 176.086C746.84 175.815 746.569 175.61 746.271 175.47C745.972 175.33 745.655 175.26 745.319 175.26C744.936 175.26 744.591 175.363 744.283 175.568C743.984 175.764 743.746 176.03 743.569 176.366C743.391 176.702 743.303 177.08 743.303 177.5C743.303 177.92 743.391 178.303 743.569 178.648C743.746 178.984 743.984 179.25 744.283 179.446C744.591 179.642 744.936 179.74 745.319 179.74C745.655 179.74 745.972 179.67 746.271 179.53C746.569 179.39 746.84 179.189 747.083 178.928L748.062 179.936C747.717 180.319 747.297 180.613 746.803 180.818C746.317 181.023 745.804 181.126 745.263 181.126ZM752.386 181.126C751.723 181.126 751.121 180.967 750.58 180.65C750.048 180.323 749.623 179.885 749.306 179.334C748.998 178.783 748.844 178.172 748.844 177.5C748.844 176.819 748.998 176.207 749.306 175.666C749.623 175.115 750.048 174.681 750.58 174.364C751.121 174.037 751.723 173.874 752.386 173.874C752.927 173.874 753.44 173.977 753.926 174.182C754.42 174.387 754.84 174.681 755.186 175.064L754.206 176.086C753.963 175.815 753.692 175.61 753.394 175.47C753.095 175.33 752.778 175.26 752.442 175.26C752.059 175.26 751.714 175.363 751.406 175.568C751.107 175.764 750.869 176.03 750.692 176.366C750.514 176.702 750.426 177.08 750.426 177.5C750.426 177.92 750.514 178.303 750.692 178.648C750.869 178.984 751.107 179.25 751.406 179.446C751.714 179.642 752.059 179.74 752.442 179.74C752.778 179.74 753.095 179.67 753.394 179.53C753.692 179.39 753.963 179.189 754.206 178.928L755.186 179.936C754.84 180.319 754.42 180.613 753.926 180.818C753.44 181.023 752.927 181.126 752.386 181.126ZM759.551 181.14C758.879 181.14 758.272 180.981 757.731 180.664C757.189 180.337 756.76 179.903 756.443 179.362C756.125 178.811 755.967 178.191 755.967 177.5C755.967 176.809 756.116 176.193 756.415 175.652C756.713 175.111 757.119 174.681 757.633 174.364C758.155 174.037 758.734 173.874 759.369 173.874C760.022 173.874 760.596 174.033 761.091 174.35C761.595 174.667 761.987 175.097 762.267 175.638C762.556 176.179 762.701 176.8 762.701 177.5V177.878H757.521C757.577 178.261 757.698 178.601 757.885 178.9C758.081 179.189 758.328 179.418 758.627 179.586C758.935 179.754 759.266 179.838 759.621 179.838C759.947 179.838 760.255 179.782 760.545 179.67C760.843 179.549 761.091 179.385 761.287 179.18L762.323 180.118C761.893 180.473 761.455 180.734 761.007 180.902C760.568 181.061 760.083 181.14 759.551 181.14ZM757.535 176.898H761.203C761.147 176.562 761.03 176.263 760.853 176.002C760.685 175.741 760.47 175.535 760.209 175.386C759.957 175.237 759.677 175.162 759.369 175.162C759.061 175.162 758.776 175.237 758.515 175.386C758.263 175.526 758.053 175.727 757.885 175.988C757.717 176.249 757.6 176.553 757.535 176.898ZM766.762 181.14C766.165 181.14 765.605 181.061 765.082 180.902C764.569 180.734 764.126 180.496 763.752 180.188L764.494 179.138C764.961 179.427 765.362 179.633 765.698 179.754C766.044 179.875 766.394 179.936 766.748 179.936C767.168 179.936 767.509 179.847 767.77 179.67C768.032 179.493 768.162 179.264 768.162 178.984C768.162 178.769 768.083 178.601 767.924 178.48C767.775 178.349 767.528 178.251 767.182 178.186L765.95 177.976C765.269 177.845 764.76 177.621 764.424 177.304C764.088 176.987 763.92 176.567 763.92 176.044C763.92 175.605 764.032 175.227 764.256 174.91C764.49 174.583 764.807 174.331 765.208 174.154C765.619 173.967 766.095 173.874 766.636 173.874C767.122 173.874 767.593 173.944 768.05 174.084C768.508 174.224 768.956 174.434 769.394 174.714L768.652 175.764C768.298 175.531 767.943 175.363 767.588 175.26C767.243 175.148 766.893 175.092 766.538 175.092C766.174 175.092 765.88 175.167 765.656 175.316C765.442 175.456 765.334 175.652 765.334 175.904C765.334 176.128 765.404 176.301 765.544 176.422C765.694 176.534 765.95 176.618 766.314 176.674L767.56 176.912C768.26 177.033 768.778 177.257 769.114 177.584C769.46 177.901 769.632 178.326 769.632 178.858C769.632 179.287 769.506 179.675 769.254 180.02C769.002 180.365 768.662 180.641 768.232 180.846C767.803 181.042 767.313 181.14 766.762 181.14ZM773.462 181.14C772.864 181.14 772.304 181.061 771.782 180.902C771.268 180.734 770.825 180.496 770.452 180.188L771.194 179.138C771.66 179.427 772.062 179.633 772.398 179.754C772.743 179.875 773.093 179.936 773.448 179.936C773.868 179.936 774.208 179.847 774.47 179.67C774.731 179.493 774.862 179.264 774.862 178.984C774.862 178.769 774.782 178.601 774.624 178.48C774.474 178.349 774.227 178.251 773.882 178.186L772.65 177.976C771.968 177.845 771.46 177.621 771.124 177.304C770.788 176.987 770.62 176.567 770.62 176.044C770.62 175.605 770.732 175.227 770.956 174.91C771.189 174.583 771.506 174.331 771.908 174.154C772.318 173.967 772.794 173.874 773.336 173.874C773.821 173.874 774.292 173.944 774.75 174.084C775.207 174.224 775.655 174.434 776.094 174.714L775.352 175.764C774.997 175.531 774.642 175.363 774.288 175.26C773.942 175.148 773.592 175.092 773.238 175.092C772.874 175.092 772.58 175.167 772.356 175.316C772.141 175.456 772.034 175.652 772.034 175.904C772.034 176.128 772.104 176.301 772.244 176.422C772.393 176.534 772.65 176.618 773.014 176.674L774.26 176.912C774.96 177.033 775.478 177.257 775.814 177.584C776.159 177.901 776.332 178.326 776.332 178.858C776.332 179.287 776.206 179.675 775.954 180.02C775.702 180.365 775.361 180.641 774.932 180.846C774.502 181.042 774.012 181.14 773.462 181.14Z" fill="#151515"/>
<g clip-path="url(#clip1_10_4431)">
<path d="M1070.95 172L1074.68 168.277C1074.94 168.014 1074.94 167.586 1074.68 167.323C1074.41 167.059 1073.99 167.059 1073.72 167.323L1070 171.045L1066.28 167.323C1066.01 167.059 1065.59 167.059 1065.32 167.323C1065.06 167.586 1065.06 168.014 1065.32 168.277L1069.05 172L1065.32 175.722C1065.06 175.986 1065.06 176.414 1065.32 176.678C1065.45 176.809 1065.63 176.875 1065.8 176.875C1065.97 176.875 1066.15 176.809 1066.28 176.678L1070 172.955L1073.72 176.678C1073.85 176.809 1074.03 176.875 1074.2 176.875C1074.37 176.875 1074.55 176.809 1074.68 176.678C1074.94 176.414 1074.94 175.986 1074.68 175.722L1070.95 172Z" fill="#151515"/>
</g>
<path d="M727.976 210V205.996L724.168 200.2H725.428L728.55 205.058L731.686 200.2H732.876L729.054 206.024V210H727.976ZM735.662 210.112C735.027 210.112 734.458 209.958 733.954 209.65C733.45 209.342 733.053 208.922 732.764 208.39C732.475 207.858 732.33 207.256 732.33 206.584C732.33 205.912 732.475 205.31 732.764 204.778C733.053 204.246 733.45 203.826 733.954 203.518C734.458 203.21 735.027 203.056 735.662 203.056C736.287 203.056 736.847 203.21 737.342 203.518C737.846 203.826 738.243 204.246 738.532 204.778C738.821 205.31 738.966 205.912 738.966 206.584C738.966 207.256 738.821 207.858 738.532 208.39C738.243 208.922 737.846 209.342 737.342 209.65C736.847 209.958 736.287 210.112 735.662 210.112ZM735.648 209.216C736.096 209.216 736.493 209.104 736.838 208.88C737.183 208.647 737.454 208.329 737.65 207.928C737.855 207.527 737.958 207.079 737.958 206.584C737.958 206.08 737.855 205.632 737.65 205.24C737.454 204.839 737.183 204.526 736.838 204.302C736.493 204.069 736.096 203.952 735.648 203.952C735.2 203.952 734.803 204.069 734.458 204.302C734.113 204.526 733.837 204.839 733.632 205.24C733.436 205.632 733.338 206.08 733.338 206.584C733.338 207.079 733.436 207.527 733.632 207.928C733.837 208.329 734.113 208.647 734.458 208.88C734.803 209.104 735.2 209.216 735.648 209.216ZM743.195 210.112C742.71 210.112 742.28 210.005 741.907 209.79C741.534 209.575 741.24 209.277 741.025 208.894C740.82 208.511 740.717 208.073 740.717 207.578V203.168H741.753V207.284C741.753 207.891 741.916 208.371 742.243 208.726C742.57 209.081 743.013 209.258 743.573 209.258C743.956 209.258 744.296 209.169 744.595 208.992C744.903 208.815 745.16 208.558 745.365 208.222V203.168H746.387V210H745.365V208.894C745.104 209.295 744.791 209.599 744.427 209.804C744.072 210.009 743.662 210.112 743.195 210.112ZM748.484 210V203.168H749.506V204.568C749.683 204.092 749.935 203.723 750.262 203.462C750.598 203.191 750.98 203.056 751.41 203.056C751.531 203.056 751.643 203.065 751.746 203.084C751.848 203.093 751.951 203.117 752.054 203.154V204.078C751.942 204.041 751.82 204.013 751.69 203.994C751.568 203.966 751.452 203.952 751.34 203.952C750.92 203.952 750.551 204.073 750.234 204.316C749.926 204.559 749.683 204.899 749.506 205.338V210H748.484ZM756.673 210V203.168H757.695V204.274C757.956 203.863 758.269 203.56 758.633 203.364C758.997 203.159 759.408 203.056 759.865 203.056C760.36 203.056 760.789 203.163 761.153 203.378C761.526 203.583 761.816 203.877 762.021 204.26C762.236 204.633 762.343 205.072 762.343 205.576V210H761.321V205.87C761.321 205.263 761.153 204.787 760.817 204.442C760.49 204.087 760.047 203.91 759.487 203.91C759.114 203.91 758.773 203.999 758.465 204.176C758.157 204.353 757.9 204.615 757.695 204.96V210H756.673ZM767.478 210.14C766.843 210.14 766.269 209.986 765.756 209.678C765.242 209.361 764.836 208.936 764.538 208.404C764.239 207.863 764.09 207.256 764.09 206.584C764.09 205.912 764.23 205.31 764.51 204.778C764.799 204.246 765.186 203.826 765.672 203.518C766.157 203.21 766.698 203.056 767.296 203.056C767.902 203.056 768.439 203.21 768.906 203.518C769.382 203.817 769.755 204.227 770.026 204.75C770.306 205.263 770.446 205.847 770.446 206.5V206.808H765.084C765.121 207.275 765.247 207.695 765.462 208.068C765.686 208.432 765.975 208.721 766.33 208.936C766.694 209.141 767.09 209.244 767.52 209.244C767.874 209.244 768.215 209.183 768.542 209.062C768.878 208.931 769.162 208.759 769.396 208.544L770.04 209.23C769.648 209.538 769.242 209.767 768.822 209.916C768.402 210.065 767.954 210.14 767.478 210.14ZM765.112 206.08H769.438C769.391 205.669 769.265 205.305 769.06 204.988C768.864 204.661 768.612 204.405 768.304 204.218C768.005 204.031 767.669 203.938 767.296 203.938C766.922 203.938 766.582 204.031 766.274 204.218C765.966 204.395 765.709 204.647 765.504 204.974C765.308 205.291 765.177 205.66 765.112 206.08ZM773.272 210L771.396 203.168H772.39L773.818 208.628L775.456 203.168H776.366L778.004 208.628L779.418 203.168H780.384L778.522 210H777.528L775.904 204.484L774.28 210H773.272ZM787.211 210.126C786.726 210.126 786.296 210.037 785.923 209.86C785.55 209.683 785.256 209.44 785.041 209.132C784.836 208.815 784.733 208.451 784.733 208.04C784.733 207.629 784.84 207.275 785.055 206.976C785.27 206.668 785.568 206.43 785.951 206.262C786.334 206.094 786.782 206.01 787.295 206.01C787.687 206.01 788.056 206.052 788.401 206.136C788.756 206.22 789.082 206.355 789.381 206.542V205.604C789.381 205.044 789.232 204.624 788.933 204.344C788.634 204.055 788.196 203.91 787.617 203.91C787.3 203.91 786.973 203.957 786.637 204.05C786.31 204.143 785.946 204.293 785.545 204.498L785.167 203.714C786.082 203.275 786.94 203.056 787.743 203.056C788.592 203.056 789.246 203.266 789.703 203.686C790.16 204.097 790.389 204.689 790.389 205.464V210H789.381V209.202C789.082 209.51 788.751 209.743 788.387 209.902C788.023 210.051 787.631 210.126 787.211 210.126ZM785.713 208.012C785.713 208.413 785.867 208.735 786.175 208.978C786.492 209.221 786.908 209.342 787.421 209.342C787.804 209.342 788.154 209.277 788.471 209.146C788.798 209.015 789.101 208.819 789.381 208.558V207.242C789.092 207.074 788.793 206.953 788.485 206.878C788.177 206.794 787.832 206.752 787.449 206.752C786.926 206.752 786.506 206.869 786.189 207.102C785.872 207.326 785.713 207.629 785.713 208.012ZM795.532 210.112C794.897 210.112 794.323 209.958 793.81 209.65C793.306 209.333 792.905 208.908 792.606 208.376C792.307 207.835 792.158 207.237 792.158 206.584C792.158 205.921 792.307 205.324 792.606 204.792C792.905 204.26 793.306 203.84 793.81 203.532C794.323 203.215 794.897 203.056 795.532 203.056C796.036 203.056 796.517 203.149 796.974 203.336C797.431 203.523 797.828 203.784 798.164 204.12L797.506 204.834C797.263 204.563 796.969 204.353 796.624 204.204C796.279 204.055 795.929 203.98 795.574 203.98C795.126 203.98 794.72 204.097 794.356 204.33C794.001 204.563 793.717 204.876 793.502 205.268C793.287 205.66 793.18 206.099 793.18 206.584C793.18 207.069 793.287 207.508 793.502 207.9C793.717 208.292 794.001 208.605 794.356 208.838C794.72 209.071 795.126 209.188 795.574 209.188C795.929 209.188 796.279 209.113 796.624 208.964C796.969 208.805 797.263 208.595 797.506 208.334L798.164 209.048C797.828 209.384 797.431 209.645 796.974 209.832C796.517 210.019 796.036 210.112 795.532 210.112ZM802.45 210.112C801.815 210.112 801.241 209.958 800.728 209.65C800.224 209.333 799.823 208.908 799.524 208.376C799.225 207.835 799.076 207.237 799.076 206.584C799.076 205.921 799.225 205.324 799.524 204.792C799.823 204.26 800.224 203.84 800.728 203.532C801.241 203.215 801.815 203.056 802.45 203.056C802.954 203.056 803.435 203.149 803.892 203.336C804.349 203.523 804.746 203.784 805.082 204.12L804.424 204.834C804.181 204.563 803.887 204.353 803.542 204.204C803.197 204.055 802.847 203.98 802.492 203.98C802.044 203.98 801.638 204.097 801.274 204.33C800.919 204.563 800.635 204.876 800.42 205.268C800.205 205.66 800.098 206.099 800.098 206.584C800.098 207.069 800.205 207.508 800.42 207.9C800.635 208.292 800.919 208.605 801.274 208.838C801.638 209.071 802.044 209.188 802.492 209.188C802.847 209.188 803.197 209.113 803.542 208.964C803.887 208.805 804.181 208.595 804.424 208.334L805.082 209.048C804.746 209.384 804.349 209.645 803.892 209.832C803.435 210.019 802.954 210.112 802.45 210.112ZM809.326 210.112C808.691 210.112 808.122 209.958 807.618 209.65C807.114 209.342 806.717 208.922 806.428 208.39C806.139 207.858 805.994 207.256 805.994 206.584C805.994 205.912 806.139 205.31 806.428 204.778C806.717 204.246 807.114 203.826 807.618 203.518C808.122 203.21 808.691 203.056 809.326 203.056C809.951 203.056 810.511 203.21 811.006 203.518C811.51 203.826 811.907 204.246 812.196 204.778C812.485 205.31 812.63 205.912 812.63 206.584C812.63 207.256 812.485 207.858 812.196 208.39C811.907 208.922 811.51 209.342 811.006 209.65C810.511 209.958 809.951 210.112 809.326 210.112ZM809.312 209.216C809.76 209.216 810.157 209.104 810.502 208.88C810.847 208.647 811.118 208.329 811.314 207.928C811.519 207.527 811.622 207.079 811.622 206.584C811.622 206.08 811.519 205.632 811.314 205.24C811.118 204.839 810.847 204.526 810.502 204.302C810.157 204.069 809.76 203.952 809.312 203.952C808.864 203.952 808.467 204.069 808.122 204.302C807.777 204.526 807.501 204.839 807.296 205.24C807.1 205.632 807.002 206.08 807.002 206.584C807.002 207.079 807.1 207.527 807.296 207.928C807.501 208.329 807.777 208.647 808.122 208.88C808.467 209.104 808.864 209.216 809.312 209.216ZM816.859 210.112C816.374 210.112 815.944 210.005 815.571 209.79C815.198 209.575 814.904 209.277 814.689 208.894C814.484 208.511 814.381 208.073 814.381 207.578V203.168H815.417V207.284C815.417 207.891 815.58 208.371 815.907 208.726C816.234 209.081 816.677 209.258 817.237 209.258C817.62 209.258 817.96 209.169 818.259 208.992C818.567 208.815 818.824 208.558 819.029 208.222V203.168H820.051V210H819.029V208.894C818.768 209.295 818.455 209.599 818.091 209.804C817.736 210.009 817.326 210.112 816.859 210.112ZM822.148 210V203.168H823.17V204.274C823.431 203.863 823.744 203.56 824.108 203.364C824.472 203.159 824.882 203.056 825.34 203.056C825.834 203.056 826.264 203.163 826.628 203.378C827.001 203.583 827.29 203.877 827.496 204.26C827.71 204.633 827.818 205.072 827.818 205.576V210H826.796V205.87C826.796 205.263 826.628 204.787 826.292 204.442C825.965 204.087 825.522 203.91 824.962 203.91C824.588 203.91 824.248 203.999 823.94 204.176C823.632 204.353 823.375 204.615 823.17 204.96V210H822.148ZM832.271 210.14C831.683 210.14 831.235 210 830.927 209.72C830.629 209.431 830.479 209.015 830.479 208.474V204.008H829.065V203.168H830.479V201.292L831.501 201.054V203.168H833.461V204.008H831.501V208.208C831.501 208.572 831.576 208.833 831.725 208.992C831.884 209.151 832.141 209.23 832.495 209.23C832.673 209.23 832.831 209.216 832.971 209.188C833.111 209.16 833.275 209.113 833.461 209.048V209.958C833.275 210.023 833.079 210.07 832.873 210.098C832.668 210.126 832.467 210.14 832.271 210.14ZM838.226 210V199.892L839.248 199.682V204.274C839.509 203.863 839.822 203.56 840.186 203.364C840.55 203.159 840.96 203.056 841.418 203.056C841.912 203.056 842.342 203.163 842.706 203.378C843.079 203.583 843.368 203.877 843.574 204.26C843.788 204.633 843.896 205.072 843.896 205.576V210H842.874V205.87C842.874 205.263 842.706 204.787 842.37 204.442C842.043 204.087 841.6 203.91 841.04 203.91C840.666 203.91 840.326 203.999 840.018 204.176C839.71 204.353 839.453 204.615 839.248 204.96V210H838.226ZM848.064 210.126C847.579 210.126 847.15 210.037 846.776 209.86C846.403 209.683 846.109 209.44 845.894 209.132C845.689 208.815 845.586 208.451 845.586 208.04C845.586 207.629 845.694 207.275 845.908 206.976C846.123 206.668 846.422 206.43 846.804 206.262C847.187 206.094 847.635 206.01 848.148 206.01C848.54 206.01 848.909 206.052 849.254 206.136C849.609 206.22 849.936 206.355 850.234 206.542V205.604C850.234 205.044 850.085 204.624 849.786 204.344C849.488 204.055 849.049 203.91 848.47 203.91C848.153 203.91 847.826 203.957 847.49 204.05C847.164 204.143 846.8 204.293 846.398 204.498L846.02 203.714C846.935 203.275 847.794 203.056 848.596 203.056C849.446 203.056 850.099 203.266 850.556 203.686C851.014 204.097 851.242 204.689 851.242 205.464V210H850.234V209.202C849.936 209.51 849.604 209.743 849.24 209.902C848.876 210.051 848.484 210.126 848.064 210.126ZM846.566 208.012C846.566 208.413 846.72 208.735 847.028 208.978C847.346 209.221 847.761 209.342 848.274 209.342C848.657 209.342 849.007 209.277 849.324 209.146C849.651 209.015 849.954 208.819 850.234 208.558V207.242C849.945 207.074 849.646 206.953 849.338 206.878C849.03 206.794 848.685 206.752 848.302 206.752C847.78 206.752 847.36 206.869 847.042 207.102C846.725 207.326 846.566 207.629 846.566 208.012ZM855.434 210.14C854.874 210.14 854.356 210.056 853.88 209.888C853.404 209.711 852.998 209.459 852.662 209.132L853.208 208.46C853.618 208.759 853.996 208.978 854.342 209.118C854.687 209.249 855.042 209.314 855.406 209.314C855.9 209.314 856.311 209.197 856.638 208.964C856.964 208.731 857.128 208.432 857.128 208.068C857.128 207.788 857.03 207.569 856.834 207.41C856.647 207.251 856.334 207.13 855.896 207.046L854.776 206.85C854.113 206.729 853.623 206.523 853.306 206.234C852.998 205.945 852.844 205.553 852.844 205.058C852.844 204.666 852.946 204.321 853.152 204.022C853.366 203.723 853.66 203.49 854.034 203.322C854.407 203.145 854.832 203.056 855.308 203.056C855.774 203.056 856.218 203.126 856.638 203.266C857.058 203.397 857.482 203.611 857.912 203.91L857.408 204.624C857.053 204.372 856.698 204.19 856.344 204.078C855.989 203.957 855.63 203.896 855.266 203.896C854.818 203.896 854.458 203.994 854.188 204.19C853.917 204.386 853.782 204.652 853.782 204.988C853.782 205.268 853.866 205.483 854.034 205.632C854.211 205.781 854.519 205.893 854.958 205.968L856.106 206.178C856.796 206.299 857.3 206.509 857.618 206.808C857.935 207.107 858.094 207.508 858.094 208.012C858.094 208.413 857.977 208.777 857.744 209.104C857.51 209.421 857.193 209.673 856.792 209.86C856.39 210.047 855.938 210.14 855.434 210.14ZM862.917 210V199.99L863.939 199.78V204.106C864.201 203.779 864.518 203.527 864.891 203.35C865.265 203.173 865.68 203.084 866.137 203.084C866.735 203.084 867.267 203.243 867.733 203.56C868.209 203.868 868.587 204.288 868.867 204.82C869.147 205.343 869.287 205.931 869.287 206.584C869.287 207.237 869.143 207.83 868.853 208.362C868.573 208.894 868.191 209.319 867.705 209.636C867.229 209.944 866.688 210.098 866.081 210.098C865.652 210.098 865.251 210.014 864.877 209.846C864.513 209.669 864.196 209.421 863.925 209.104V210H862.917ZM865.885 209.216C866.343 209.216 866.749 209.104 867.103 208.88C867.467 208.647 867.752 208.334 867.957 207.942C868.172 207.541 868.279 207.093 868.279 206.598C868.279 206.094 868.172 205.646 867.957 205.254C867.752 204.862 867.467 204.554 867.103 204.33C866.749 204.097 866.343 203.98 865.885 203.98C865.484 203.98 865.111 204.064 864.765 204.232C864.429 204.391 864.154 204.619 863.939 204.918V208.264C864.163 208.563 864.443 208.796 864.779 208.964C865.125 209.132 865.493 209.216 865.885 209.216ZM874.159 210.14C873.525 210.14 872.951 209.986 872.437 209.678C871.924 209.361 871.518 208.936 871.219 208.404C870.921 207.863 870.771 207.256 870.771 206.584C870.771 205.912 870.911 205.31 871.191 204.778C871.481 204.246 871.868 203.826 872.353 203.518C872.839 203.21 873.38 203.056 873.977 203.056C874.584 203.056 875.121 203.21 875.587 203.518C876.063 203.817 876.437 204.227 876.707 204.75C876.987 205.263 877.127 205.847 877.127 206.5V206.808H871.765C871.803 207.275 871.929 207.695 872.143 208.068C872.367 208.432 872.657 208.721 873.011 208.936C873.375 209.141 873.772 209.244 874.201 209.244C874.556 209.244 874.897 209.183 875.223 209.062C875.559 208.931 875.844 208.759 876.077 208.544L876.721 209.23C876.329 209.538 875.923 209.767 875.503 209.916C875.083 210.065 874.635 210.14 874.159 210.14ZM871.793 206.08H876.119C876.073 205.669 875.947 205.305 875.741 204.988C875.545 204.661 875.293 204.405 874.985 204.218C874.687 204.031 874.351 203.938 873.977 203.938C873.604 203.938 873.263 204.031 872.955 204.218C872.647 204.395 872.391 204.647 872.185 204.974C871.989 205.291 871.859 205.66 871.793 206.08ZM881.952 210.14C881.318 210.14 880.744 209.986 880.23 209.678C879.717 209.361 879.311 208.936 879.012 208.404C878.714 207.863 878.564 207.256 878.564 206.584C878.564 205.912 878.704 205.31 878.984 204.778C879.274 204.246 879.661 203.826 880.146 203.518C880.632 203.21 881.173 203.056 881.77 203.056C882.377 203.056 882.914 203.21 883.38 203.518C883.856 203.817 884.23 204.227 884.5 204.75C884.78 205.263 884.92 205.847 884.92 206.5V206.808H879.558C879.596 207.275 879.722 207.695 879.936 208.068C880.16 208.432 880.45 208.721 880.804 208.936C881.168 209.141 881.565 209.244 881.994 209.244C882.349 209.244 882.69 209.183 883.016 209.062C883.352 208.931 883.637 208.759 883.87 208.544L884.514 209.23C884.122 209.538 883.716 209.767 883.296 209.916C882.876 210.065 882.428 210.14 881.952 210.14ZM879.586 206.08H883.912C883.866 205.669 883.74 205.305 883.534 204.988C883.338 204.661 883.086 204.405 882.778 204.218C882.48 204.031 882.144 203.938 881.77 203.938C881.397 203.938 881.056 204.031 880.748 204.218C880.44 204.395 880.184 204.647 879.978 204.974C879.782 205.291 879.652 205.66 879.586 206.08ZM886.665 210V203.168H887.687V204.274C887.949 203.863 888.261 203.56 888.625 203.364C888.989 203.159 889.4 203.056 889.857 203.056C890.352 203.056 890.781 203.163 891.145 203.378C891.519 203.583 891.808 203.877 892.013 204.26C892.228 204.633 892.335 205.072 892.335 205.576V210H891.313V205.87C891.313 205.263 891.145 204.787 890.809 204.442C890.483 204.087 890.039 203.91 889.479 203.91C889.106 203.91 888.765 203.999 888.457 204.176C888.149 204.353 887.893 204.615 887.687 204.96V210H886.665ZM900.723 210.112C900.089 210.112 899.515 209.958 899.001 209.65C898.497 209.333 898.096 208.908 897.797 208.376C897.499 207.835 897.349 207.237 897.349 206.584C897.349 205.921 897.499 205.324 897.797 204.792C898.096 204.26 898.497 203.84 899.001 203.532C899.515 203.215 900.089 203.056 900.723 203.056C901.227 203.056 901.708 203.149 902.165 203.336C902.623 203.523 903.019 203.784 903.355 204.12L902.697 204.834C902.455 204.563 902.161 204.353 901.815 204.204C901.47 204.055 901.12 203.98 900.765 203.98C900.317 203.98 899.911 204.097 899.547 204.33C899.193 204.563 898.908 204.876 898.693 205.268C898.479 205.66 898.371 206.099 898.371 206.584C898.371 207.069 898.479 207.508 898.693 207.9C898.908 208.292 899.193 208.605 899.547 208.838C899.911 209.071 900.317 209.188 900.765 209.188C901.12 209.188 901.47 209.113 901.815 208.964C902.161 208.805 902.455 208.595 902.697 208.334L903.355 209.048C903.019 209.384 902.623 209.645 902.165 209.832C901.708 210.019 901.227 210.112 900.723 210.112ZM904.78 210V203.168H905.802V204.568C905.98 204.092 906.232 203.723 906.558 203.462C906.894 203.191 907.277 203.056 907.706 203.056C907.828 203.056 907.94 203.065 908.042 203.084C908.145 203.093 908.248 203.117 908.35 203.154V204.078C908.238 204.041 908.117 204.013 907.986 203.994C907.865 203.966 907.748 203.952 907.636 203.952C907.216 203.952 906.848 204.073 906.53 204.316C906.222 204.559 905.98 204.899 905.802 205.338V210H904.78ZM912.359 210.14C911.724 210.14 911.15 209.986 910.637 209.678C910.123 209.361 909.717 208.936 909.419 208.404C909.12 207.863 908.971 207.256 908.971 206.584C908.971 205.912 909.111 205.31 909.391 204.778C909.68 204.246 910.067 203.826 910.553 203.518C911.038 203.21 911.579 203.056 912.177 203.056C912.783 203.056 913.32 203.21 913.787 203.518C914.263 203.817 914.636 204.227 914.907 204.75C915.187 205.263 915.327 205.847 915.327 206.5V206.808H909.965C910.002 207.275 910.128 207.695 910.343 208.068C910.567 208.432 910.856 208.721 911.211 208.936C911.575 209.141 911.971 209.244 912.401 209.244C912.755 209.244 913.096 209.183 913.423 209.062C913.759 208.931 914.043 208.759 914.277 208.544L914.921 209.23C914.529 209.538 914.123 209.767 913.703 209.916C913.283 210.065 912.835 210.14 912.359 210.14ZM909.993 206.08H914.319C914.272 205.669 914.146 205.305 913.941 204.988C913.745 204.661 913.493 204.405 913.185 204.218C912.886 204.031 912.55 203.938 912.177 203.938C911.803 203.938 911.463 204.031 911.155 204.218C910.847 204.395 910.59 204.647 910.385 204.974C910.189 205.291 910.058 205.66 909.993 206.08ZM919.049 210.126C918.563 210.126 918.134 210.037 917.761 209.86C917.387 209.683 917.093 209.44 916.879 209.132C916.673 208.815 916.571 208.451 916.571 208.04C916.571 207.629 916.678 207.275 916.893 206.976C917.107 206.668 917.406 206.43 917.789 206.262C918.171 206.094 918.619 206.01 919.133 206.01C919.525 206.01 919.893 206.052 920.239 206.136C920.593 206.22 920.92 206.355 921.219 206.542V205.604C921.219 205.044 921.069 204.624 920.771 204.344C920.472 204.055 920.033 203.91 919.455 203.91C919.137 203.91 918.811 203.957 918.475 204.05C918.148 204.143 917.784 204.293 917.383 204.498L917.005 203.714C917.919 203.275 918.778 203.056 919.581 203.056C920.43 203.056 921.083 203.266 921.541 203.686C921.998 204.097 922.227 204.689 922.227 205.464V210H921.219V209.202C920.92 209.51 920.589 209.743 920.225 209.902C919.861 210.051 919.469 210.126 919.049 210.126ZM917.551 208.012C917.551 208.413 917.705 208.735 918.013 208.978C918.33 209.221 918.745 209.342 919.259 209.342C919.641 209.342 919.991 209.277 920.309 209.146C920.635 209.015 920.939 208.819 921.219 208.558V207.242C920.929 207.074 920.631 206.953 920.323 206.878C920.015 206.794 919.669 206.752 919.287 206.752C918.764 206.752 918.344 206.869 918.027 207.102C917.709 207.326 917.551 207.629 917.551 208.012ZM926.703 210.14C926.115 210.14 925.667 210 925.359 209.72C925.06 209.431 924.911 209.015 924.911 208.474V204.008H923.497V203.168H924.911V201.292L925.933 201.054V203.168H927.893V204.008H925.933V208.208C925.933 208.572 926.007 208.833 926.157 208.992C926.315 209.151 926.572 209.23 926.927 209.23C927.104 209.23 927.263 209.216 927.403 209.188C927.543 209.16 927.706 209.113 927.893 209.048V209.958C927.706 210.023 927.51 210.07 927.305 210.098C927.099 210.126 926.899 210.14 926.703 210.14ZM932.333 210.14C931.698 210.14 931.124 209.986 930.611 209.678C930.098 209.361 929.692 208.936 929.393 208.404C929.094 207.863 928.945 207.256 928.945 206.584C928.945 205.912 929.085 205.31 929.365 204.778C929.654 204.246 930.042 203.826 930.527 203.518C931.012 203.21 931.554 203.056 932.151 203.056C932.758 203.056 933.294 203.21 933.761 203.518C934.237 203.817 934.61 204.227 934.881 204.75C935.161 205.263 935.301 205.847 935.301 206.5V206.808H929.939C929.976 207.275 930.102 207.695 930.317 208.068C930.541 208.432 930.83 208.721 931.185 208.936C931.549 209.141 931.946 209.244 932.375 209.244C932.73 209.244 933.07 209.183 933.397 209.062C933.733 208.931 934.018 208.759 934.251 208.544L934.895 209.23C934.503 209.538 934.097 209.767 933.677 209.916C933.257 210.065 932.809 210.14 932.333 210.14ZM929.967 206.08H934.293C934.246 205.669 934.12 205.305 933.915 204.988C933.719 204.661 933.467 204.405 933.159 204.218C932.86 204.031 932.524 203.938 932.151 203.938C931.778 203.938 931.437 204.031 931.129 204.218C930.821 204.395 930.564 204.647 930.359 204.974C930.163 205.291 930.032 205.66 929.967 206.08ZM939.888 210.098C939.3 210.098 938.768 209.944 938.292 209.636C937.816 209.319 937.438 208.899 937.158 208.376C936.878 207.844 936.738 207.251 936.738 206.598C936.738 205.935 936.878 205.343 937.158 204.82C937.447 204.288 937.835 203.868 938.32 203.56C938.805 203.243 939.347 203.084 939.944 203.084C940.364 203.084 940.756 203.168 941.12 203.336C941.484 203.495 941.801 203.728 942.072 204.036V199.892L943.094 199.682V210H942.072V209.09C941.811 209.417 941.493 209.669 941.12 209.846C940.747 210.014 940.336 210.098 939.888 210.098ZM940.14 209.202C940.541 209.202 940.91 209.123 941.246 208.964C941.582 208.805 941.857 208.581 942.072 208.292V204.904C941.848 204.615 941.563 204.391 941.218 204.232C940.882 204.064 940.523 203.98 940.14 203.98C939.683 203.98 939.272 204.092 938.908 204.316C938.553 204.54 938.269 204.848 938.054 205.24C937.849 205.632 937.746 206.08 937.746 206.584C937.746 207.079 937.849 207.527 938.054 207.928C938.269 208.32 938.553 208.633 938.908 208.866C939.272 209.09 939.683 209.202 940.14 209.202ZM950.576 210.14C950.016 210.14 949.498 210.056 949.022 209.888C948.546 209.711 948.14 209.459 947.804 209.132L948.35 208.46C948.761 208.759 949.139 208.978 949.484 209.118C949.829 209.249 950.184 209.314 950.548 209.314C951.043 209.314 951.453 209.197 951.78 208.964C952.107 208.731 952.27 208.432 952.27 208.068C952.27 207.788 952.172 207.569 951.976 207.41C951.789 207.251 951.477 207.13 951.038 207.046L949.918 206.85C949.255 206.729 948.765 206.523 948.448 206.234C948.14 205.945 947.986 205.553 947.986 205.058C947.986 204.666 948.089 204.321 948.294 204.022C948.509 203.723 948.803 203.49 949.176 203.322C949.549 203.145 949.974 203.056 950.45 203.056C950.917 203.056 951.36 203.126 951.78 203.266C952.2 203.397 952.625 203.611 953.054 203.91L952.55 204.624C952.195 204.372 951.841 204.19 951.486 204.078C951.131 203.957 950.772 203.896 950.408 203.896C949.96 203.896 949.601 203.994 949.33 204.19C949.059 204.386 948.924 204.652 948.924 204.988C948.924 205.268 949.008 205.483 949.176 205.632C949.353 205.781 949.661 205.893 950.1 205.968L951.248 206.178C951.939 206.299 952.443 206.509 952.76 206.808C953.077 207.107 953.236 207.508 953.236 208.012C953.236 208.413 953.119 208.777 952.886 209.104C952.653 209.421 952.335 209.673 951.934 209.86C951.533 210.047 951.08 210.14 950.576 210.14ZM957.228 210.112C956.743 210.112 956.314 210.005 955.94 209.79C955.567 209.575 955.273 209.277 955.058 208.894C954.853 208.511 954.75 208.073 954.75 207.578V203.168H955.786V207.284C955.786 207.891 955.95 208.371 956.276 208.726C956.603 209.081 957.046 209.258 957.606 209.258C957.989 209.258 958.33 209.169 958.628 208.992C958.936 208.815 959.193 208.558 959.398 208.222V203.168H960.42V210H959.398V208.894C959.137 209.295 958.824 209.599 958.46 209.804C958.106 210.009 957.695 210.112 957.228 210.112ZM965.583 210.112C964.948 210.112 964.374 209.958 963.861 209.65C963.357 209.333 962.955 208.908 962.657 208.376C962.358 207.835 962.209 207.237 962.209 206.584C962.209 205.921 962.358 205.324 962.657 204.792C962.955 204.26 963.357 203.84 963.861 203.532C964.374 203.215 964.948 203.056 965.583 203.056C966.087 203.056 966.567 203.149 967.025 203.336C967.482 203.523 967.879 203.784 968.215 204.12L967.557 204.834C967.314 204.563 967.02 204.353 966.675 204.204C966.329 204.055 965.979 203.98 965.625 203.98C965.177 203.98 964.771 204.097 964.407 204.33C964.052 204.563 963.767 204.876 963.553 205.268C963.338 205.66 963.231 206.099 963.231 206.584C963.231 207.069 963.338 207.508 963.553 207.9C963.767 208.292 964.052 208.605 964.407 208.838C964.771 209.071 965.177 209.188 965.625 209.188C965.979 209.188 966.329 209.113 966.675 208.964C967.02 208.805 967.314 208.595 967.557 208.334L968.215 209.048C967.879 209.384 967.482 209.645 967.025 209.832C966.567 210.019 966.087 210.112 965.583 210.112ZM972.501 210.112C971.866 210.112 971.292 209.958 970.779 209.65C970.275 209.333 969.873 208.908 969.575 208.376C969.276 207.835 969.127 207.237 969.127 206.584C969.127 205.921 969.276 205.324 969.575 204.792C969.873 204.26 970.275 203.84 970.779 203.532C971.292 203.215 971.866 203.056 972.501 203.056C973.005 203.056 973.485 203.149 973.943 203.336C974.4 203.523 974.797 203.784 975.133 204.12L974.475 204.834C974.232 204.563 973.938 204.353 973.593 204.204C973.247 204.055 972.897 203.98 972.543 203.98C972.095 203.98 971.689 204.097 971.325 204.33C970.97 204.563 970.685 204.876 970.471 205.268C970.256 205.66 970.149 206.099 970.149 206.584C970.149 207.069 970.256 207.508 970.471 207.9C970.685 208.292 970.97 208.605 971.325 208.838C971.689 209.071 972.095 209.188 972.543 209.188C972.897 209.188 973.247 209.113 973.593 208.964C973.938 208.805 974.232 208.595 974.475 208.334L975.133 209.048C974.797 209.384 974.4 209.645 973.943 209.832C973.485 210.019 973.005 210.112 972.501 210.112ZM979.433 210.14C978.798 210.14 978.224 209.986 977.711 209.678C977.197 209.361 976.791 208.936 976.493 208.404C976.194 207.863 976.045 207.256 976.045 206.584C976.045 205.912 976.185 205.31 976.465 204.778C976.754 204.246 977.141 203.826 977.627 203.518C978.112 203.21 978.653 203.056 979.251 203.056C979.857 203.056 980.394 203.21 980.861 203.518C981.337 203.817 981.71 204.227 981.981 204.75C982.261 205.263 982.401 205.847 982.401 206.5V206.808H977.039C977.076 207.275 977.202 207.695 977.417 208.068C977.641 208.432 977.93 208.721 978.285 208.936C978.649 209.141 979.045 209.244 979.475 209.244C979.829 209.244 980.17 209.183 980.497 209.062C980.833 208.931 981.117 208.759 981.351 208.544L981.995 209.23C981.603 209.538 981.197 209.767 980.777 209.916C980.357 210.065 979.909 210.14 979.433 210.14ZM977.067 206.08H981.393C981.346 205.669 981.22 205.305 981.015 204.988C980.819 204.661 980.567 204.405 980.259 204.218C979.96 204.031 979.624 203.938 979.251 203.938C978.877 203.938 978.537 204.031 978.229 204.218C977.921 204.395 977.664 204.647 977.459 204.974C977.263 205.291 977.132 205.66 977.067 206.08ZM986.328 210.14C985.768 210.14 985.25 210.056 984.774 209.888C984.298 209.711 983.892 209.459 983.556 209.132L984.102 208.46C984.513 208.759 984.891 208.978 985.236 209.118C985.581 209.249 985.936 209.314 986.3 209.314C986.795 209.314 987.205 209.197 987.532 208.964C987.859 208.731 988.022 208.432 988.022 208.068C988.022 207.788 987.924 207.569 987.728 207.41C987.541 207.251 987.229 207.13 986.79 207.046L985.67 206.85C985.007 206.729 984.517 206.523 984.2 206.234C983.892 205.945 983.738 205.553 983.738 205.058C983.738 204.666 983.841 204.321 984.046 204.022C984.261 203.723 984.555 203.49 984.928 203.322C985.301 203.145 985.726 203.056 986.202 203.056C986.669 203.056 987.112 203.126 987.532 203.266C987.952 203.397 988.377 203.611 988.806 203.91L988.302 204.624C987.947 204.372 987.593 204.19 987.238 204.078C986.883 203.957 986.524 203.896 986.16 203.896C985.712 203.896 985.353 203.994 985.082 204.19C984.811 204.386 984.676 204.652 984.676 204.988C984.676 205.268 984.76 205.483 984.928 205.632C985.105 205.781 985.413 205.893 985.852 205.968L987 206.178C987.691 206.299 988.195 206.509 988.512 206.808C988.829 207.107 988.988 207.508 988.988 208.012C988.988 208.413 988.871 208.777 988.638 209.104C988.405 209.421 988.087 209.673 987.686 209.86C987.285 210.047 986.832 210.14 986.328 210.14ZM992.658 210.14C992.098 210.14 991.58 210.056 991.104 209.888C990.628 209.711 990.222 209.459 989.886 209.132L990.432 208.46C990.843 208.759 991.221 208.978 991.566 209.118C991.911 209.249 992.266 209.314 992.63 209.314C993.125 209.314 993.535 209.197 993.862 208.964C994.189 208.731 994.352 208.432 994.352 208.068C994.352 207.788 994.254 207.569 994.058 207.41C993.871 207.251 993.559 207.13 993.12 207.046L992 206.85C991.337 206.729 990.847 206.523 990.53 206.234C990.222 205.945 990.068 205.553 990.068 205.058C990.068 204.666 990.171 204.321 990.376 204.022C990.591 203.723 990.885 203.49 991.258 203.322C991.631 203.145 992.056 203.056 992.532 203.056C992.999 203.056 993.442 203.126 993.862 203.266C994.282 203.397 994.707 203.611 995.136 203.91L994.632 204.624C994.277 204.372 993.923 204.19 993.568 204.078C993.213 203.957 992.854 203.896 992.49 203.896C992.042 203.896 991.683 203.994 991.412 204.19C991.141 204.386 991.006 204.652 991.006 204.988C991.006 205.268 991.09 205.483 991.258 205.632C991.435 205.781 991.743 205.893 992.182 205.968L993.33 206.178C994.021 206.299 994.525 206.509 994.842 206.808C995.159 207.107 995.318 207.508 995.318 208.012C995.318 208.413 995.201 208.777 994.968 209.104C994.735 209.421 994.417 209.673 994.016 209.86C993.615 210.047 993.162 210.14 992.658 210.14ZM997.606 210V204.008H996.08V203.168H997.606V201.74C997.606 201.068 997.783 200.55 998.138 200.186C998.492 199.822 998.996 199.64 999.65 199.64C999.836 199.64 1000 199.649 1000.15 199.668C1000.31 199.687 1000.45 199.719 1000.57 199.766V200.69C1000.42 200.643 1000.29 200.611 1000.17 200.592C1000.05 200.573 999.906 200.564 999.748 200.564C999.356 200.564 999.071 200.662 998.894 200.858C998.716 201.045 998.628 201.343 998.628 201.754V203.168H1000.57V204.008H998.628V210H997.606ZM1004.36 210.112C1003.87 210.112 1003.44 210.005 1003.07 209.79C1002.69 209.575 1002.4 209.277 1002.19 208.894C1001.98 208.511 1001.88 208.073 1001.88 207.578V203.168H1002.91V207.284C1002.91 207.891 1003.08 208.371 1003.4 208.726C1003.73 209.081 1004.17 209.258 1004.73 209.258C1005.12 209.258 1005.46 209.169 1005.76 208.992C1006.06 208.815 1006.32 208.558 1006.53 208.222V203.168H1007.55V210H1006.53V208.894C1006.26 209.295 1005.95 209.599 1005.59 209.804C1005.23 210.009 1004.82 210.112 1004.36 210.112ZM1009.64 210V199.892L1010.67 199.682V210H1009.64ZM1012.76 210V199.892L1013.78 199.682V210H1012.76ZM1016.17 213.066C1015.96 213.066 1015.74 213.033 1015.51 212.968V212.058C1015.61 212.077 1015.71 212.091 1015.81 212.1C1015.91 212.109 1016 212.114 1016.07 212.114C1016.34 212.114 1016.55 212.044 1016.72 211.904C1016.9 211.764 1017.04 211.545 1017.17 211.246L1017.67 210L1015.04 203.168H1016.17L1018.24 208.782L1020.44 203.168H1021.58L1018.13 211.554C1017.98 211.918 1017.82 212.212 1017.64 212.436C1017.46 212.66 1017.26 212.819 1017.03 212.912C1016.79 213.015 1016.51 213.066 1016.17 213.066ZM1022.63 210.112C1022.43 210.112 1022.25 210.037 1022.1 209.888C1021.96 209.739 1021.89 209.561 1021.89 209.356C1021.89 209.141 1021.96 208.964 1022.1 208.824C1022.25 208.675 1022.43 208.6 1022.63 208.6C1022.84 208.6 1023.01 208.675 1023.15 208.824C1023.3 208.964 1023.38 209.141 1023.38 209.356C1023.38 209.561 1023.3 209.739 1023.15 209.888C1023.01 210.037 1022.84 210.112 1022.63 210.112Z" fill="#151515"/>
</g>
<g filter="url(#filter1_d_10_4431)">
<mask id="path-9-inside-2_10_4431" fill="white">
<path d="M684 48H1092V132H684V48Z"/>
</mask>
<path d="M684 48H1092V132H684V48Z" fill="white" shape-rendering="crispEdges"/>
<path d="M684 50H1092V46H684V50Z" fill="#DCA614" mask="url(#path-9-inside-2_10_4431)"/>
<g clip-path="url(#clip2_10_4431)">
<path d="M715.715 82.375L708.645 70.125C708.51 69.895 708.265 69.75 707.995 69.75C707.73 69.75 707.48 69.895 707.345 70.125L700.27 82.375C700.205 82.49 700.17 82.62 700.17 82.75C700.17 82.88 700.205 83.01 700.27 83.125C700.405 83.355 700.655 83.5 700.92 83.5H715.065C715.33 83.5 715.58 83.355 715.715 83.125C715.78 83.01 715.815 82.88 715.815 82.75C715.815 82.62 715.78 82.49 715.715 82.375ZM707.375 74C707.375 73.655 707.655 73.375 708 73.375C708.345 73.375 708.625 73.655 708.625 74V77.5C708.625 77.845 708.345 78.125 708 78.125C707.655 78.125 707.375 77.845 707.375 77.5V74ZM708 81.75C707.585 81.75 707.25 81.415 707.25 81C707.25 80.585 707.585 80.25 708 80.25C708.415 80.25 708.75 80.585 708.75 81C708.75 81.415 708.415 81.75 708 81.75Z" fill="#DCA614"/>
</g>
<path d="M726.856 79.544H728.802C729.39 79.544 729.922 79.3947 730.398 79.096C730.874 78.788 731.252 78.3727 731.532 77.85C731.812 77.3273 731.952 76.744 731.952 76.1C731.952 75.4467 731.812 74.8633 731.532 74.35C731.252 73.8273 730.874 73.4167 730.398 73.118C729.922 72.81 729.39 72.656 728.802 72.656H726.856V79.544ZM725.176 81V71.2H728.76C729.469 71.2 730.123 71.326 730.72 71.578C731.317 71.83 731.835 72.18 732.274 72.628C732.722 73.0667 733.067 73.5847 733.31 74.182C733.553 74.77 733.674 75.4093 733.674 76.1C733.674 76.7907 733.553 77.4347 733.31 78.032C733.067 78.62 732.722 79.138 732.274 79.586C731.835 80.0247 731.317 80.37 730.72 80.622C730.123 80.874 729.469 81 728.76 81H725.176ZM738.577 81.126C737.914 81.126 737.312 80.9673 736.771 80.65C736.239 80.3327 735.819 79.9033 735.511 79.362C735.203 78.8113 735.049 78.1907 735.049 77.5C735.049 76.8093 735.203 76.1933 735.511 75.652C735.819 75.1013 736.239 74.6673 736.771 74.35C737.303 74.0327 737.905 73.874 738.577 73.874C739.249 73.874 739.846 74.0327 740.369 74.35C740.901 74.6673 741.321 75.1013 741.629 75.652C741.937 76.1933 742.091 76.8093 742.091 77.5C742.091 78.1907 741.937 78.8113 741.629 79.362C741.321 79.9033 740.901 80.3327 740.369 80.65C739.846 80.9673 739.249 81.126 738.577 81.126ZM738.577 79.782C738.959 79.782 739.295 79.684 739.585 79.488C739.883 79.292 740.117 79.0213 740.285 78.676C740.453 78.3213 740.537 77.9293 740.537 77.5C740.537 77.0613 740.453 76.674 740.285 76.338C740.117 75.9927 739.883 75.722 739.585 75.526C739.295 75.3207 738.959 75.218 738.577 75.218C738.194 75.218 737.853 75.3207 737.555 75.526C737.256 75.722 737.023 75.9927 736.855 76.338C736.687 76.674 736.603 77.0613 736.603 77.5C736.603 77.9387 736.687 78.3307 736.855 78.676C737.023 79.0213 737.256 79.292 737.555 79.488C737.853 79.684 738.194 79.782 738.577 79.782ZM744.819 81L742.929 73.986H744.441L745.673 78.928L747.129 73.986H748.459L749.901 78.928L751.133 73.986H752.603L750.713 81H749.201L747.773 76.058L746.359 81H744.819ZM753.896 81V73.986H755.478V75.134C755.749 74.714 756.071 74.4013 756.444 74.196C756.817 73.9813 757.233 73.874 757.69 73.874C758.175 73.874 758.6 73.9813 758.964 74.196C759.328 74.4013 759.613 74.6907 759.818 75.064C760.033 75.4373 760.14 75.876 760.14 76.38V81H758.544V76.828C758.544 76.3147 758.404 75.9087 758.124 75.61C757.844 75.302 757.471 75.148 757.004 75.148C756.687 75.148 756.397 75.2227 756.136 75.372C755.884 75.512 755.665 75.722 755.478 76.002V81H753.896ZM762.044 81V70.962L763.626 70.682V81H762.044ZM768.778 81.126C768.115 81.126 767.513 80.9673 766.972 80.65C766.44 80.3327 766.02 79.9033 765.712 79.362C765.404 78.8113 765.25 78.1907 765.25 77.5C765.25 76.8093 765.404 76.1933 765.712 75.652C766.02 75.1013 766.44 74.6673 766.972 74.35C767.504 74.0327 768.106 73.874 768.778 73.874C769.45 73.874 770.047 74.0327 770.57 74.35C771.102 74.6673 771.522 75.1013 771.83 75.652C772.138 76.1933 772.292 76.8093 772.292 77.5C772.292 78.1907 772.138 78.8113 771.83 79.362C771.522 79.9033 771.102 80.3327 770.57 80.65C770.047 80.9673 769.45 81.126 768.778 81.126ZM768.778 79.782C769.16 79.782 769.496 79.684 769.786 79.488C770.084 79.292 770.318 79.0213 770.486 78.676C770.654 78.3213 770.738 77.9293 770.738 77.5C770.738 77.0613 770.654 76.674 770.486 76.338C770.318 75.9927 770.084 75.722 769.786 75.526C769.496 75.3207 769.16 75.218 768.778 75.218C768.395 75.218 768.054 75.3207 767.756 75.526C767.457 75.722 767.224 75.9927 767.056 76.338C766.888 76.674 766.804 77.0613 766.804 77.5C766.804 77.9387 766.888 78.3307 767.056 78.676C767.224 79.0213 767.457 79.292 767.756 79.488C768.054 79.684 768.395 79.782 768.778 79.782ZM776.122 81.126C775.636 81.126 775.202 81.0373 774.82 80.86C774.446 80.6733 774.152 80.4213 773.938 80.104C773.732 79.7773 773.63 79.404 773.63 78.984C773.63 78.564 773.737 78.2 773.952 77.892C774.176 77.584 774.488 77.346 774.89 77.178C775.291 77.01 775.767 76.926 776.318 76.926C776.644 76.926 776.966 76.9633 777.284 77.038C777.601 77.1033 777.909 77.2153 778.208 77.374V76.59C778.208 76.1233 778.072 75.7733 777.802 75.54C777.54 75.3067 777.139 75.19 776.598 75.19C776.308 75.19 775.996 75.2367 775.66 75.33C775.333 75.414 774.964 75.5493 774.554 75.736L773.994 74.588C775.02 74.112 775.991 73.874 776.906 73.874C777.82 73.874 778.525 74.098 779.02 74.546C779.524 74.9847 779.776 75.61 779.776 76.422V81H778.208V80.272C777.909 80.5613 777.587 80.776 777.242 80.916C776.896 81.056 776.523 81.126 776.122 81.126ZM775.114 78.956C775.114 79.2827 775.244 79.5393 775.506 79.726C775.767 79.9127 776.117 80.006 776.556 80.006C776.873 80.006 777.167 79.9593 777.438 79.866C777.718 79.7633 777.974 79.614 778.208 79.418V78.284C777.965 78.172 777.713 78.088 777.452 78.032C777.19 77.976 776.906 77.948 776.598 77.948C776.14 77.948 775.776 78.0367 775.506 78.214C775.244 78.3913 775.114 78.6387 775.114 78.956ZM784.533 81.07C783.945 81.07 783.413 80.9113 782.937 80.594C782.461 80.2673 782.078 79.838 781.789 79.306C781.509 78.7647 781.369 78.1627 781.369 77.5C781.369 76.828 781.514 76.226 781.803 75.694C782.092 75.1527 782.484 74.7233 782.979 74.406C783.483 74.0887 784.038 73.93 784.645 73.93C785.046 73.93 785.42 74.0093 785.765 74.168C786.12 74.3173 786.428 74.5413 786.689 74.84V70.962L788.271 70.682V81H786.703V80.076C786.451 80.3933 786.138 80.6407 785.765 80.818C785.392 80.986 784.981 81.07 784.533 81.07ZM785.023 79.74C785.359 79.74 785.672 79.6747 785.961 79.544C786.25 79.404 786.493 79.2127 786.689 78.97V76.016C786.484 75.7733 786.236 75.5867 785.947 75.456C785.658 75.3253 785.35 75.26 785.023 75.26C784.622 75.26 784.262 75.358 783.945 75.554C783.637 75.7407 783.39 76.002 783.203 76.338C783.016 76.674 782.923 77.0613 782.923 77.5C782.923 77.92 783.016 78.3027 783.203 78.648C783.39 78.984 783.637 79.25 783.945 79.446C784.262 79.642 784.622 79.74 785.023 79.74ZM796.6 81.126C795.938 81.126 795.336 80.9673 794.794 80.65C794.262 80.3233 793.838 79.8847 793.52 79.334C793.212 78.7833 793.058 78.172 793.058 77.5C793.058 76.8187 793.212 76.2073 793.52 75.666C793.838 75.1153 794.262 74.6813 794.794 74.364C795.336 74.0373 795.938 73.874 796.6 73.874C797.142 73.874 797.655 73.9767 798.14 74.182C798.635 74.3873 799.055 74.6813 799.4 75.064L798.42 76.086C798.178 75.8153 797.907 75.61 797.608 75.47C797.31 75.33 796.992 75.26 796.656 75.26C796.274 75.26 795.928 75.3627 795.62 75.568C795.322 75.764 795.084 76.03 794.906 76.366C794.729 76.702 794.64 77.08 794.64 77.5C794.64 77.92 794.729 78.3027 794.906 78.648C795.084 78.984 795.322 79.25 795.62 79.446C795.928 79.642 796.274 79.74 796.656 79.74C796.992 79.74 797.31 79.67 797.608 79.53C797.907 79.39 798.178 79.1893 798.42 78.928L799.4 79.936C799.055 80.3187 798.635 80.6127 798.14 80.818C797.655 81.0233 797.142 81.126 796.6 81.126ZM803.709 81.126C803.047 81.126 802.445 80.9673 801.903 80.65C801.371 80.3327 800.951 79.9033 800.643 79.362C800.335 78.8113 800.181 78.1907 800.181 77.5C800.181 76.8093 800.335 76.1933 800.643 75.652C800.951 75.1013 801.371 74.6673 801.903 74.35C802.435 74.0327 803.037 73.874 803.709 73.874C804.381 73.874 804.979 74.0327 805.501 74.35C806.033 74.6673 806.453 75.1013 806.761 75.652C807.069 76.1933 807.223 76.8093 807.223 77.5C807.223 78.1907 807.069 78.8113 806.761 79.362C806.453 79.9033 806.033 80.3327 805.501 80.65C804.979 80.9673 804.381 81.126 803.709 81.126ZM803.709 79.782C804.092 79.782 804.428 79.684 804.717 79.488C805.016 79.292 805.249 79.0213 805.417 78.676C805.585 78.3213 805.669 77.9293 805.669 77.5C805.669 77.0613 805.585 76.674 805.417 76.338C805.249 75.9927 805.016 75.722 804.717 75.526C804.428 75.3207 804.092 75.218 803.709 75.218C803.327 75.218 802.986 75.3207 802.687 75.526C802.389 75.722 802.155 75.9927 801.987 76.338C801.819 76.674 801.735 77.0613 801.735 77.5C801.735 77.9387 801.819 78.3307 801.987 78.676C802.155 79.0213 802.389 79.292 802.687 79.488C802.986 79.684 803.327 79.782 803.709 79.782ZM808.857 81V73.986H810.439V75.092C810.7 74.6907 811.004 74.3873 811.349 74.182C811.704 73.9767 812.091 73.874 812.511 73.874C812.996 73.874 813.416 73.9953 813.771 74.238C814.135 74.4807 814.406 74.8073 814.583 75.218C814.863 74.7793 815.194 74.448 815.577 74.224C815.969 73.9907 816.412 73.874 816.907 73.874C817.355 73.874 817.752 73.9813 818.097 74.196C818.452 74.4107 818.722 74.7093 818.909 75.092C819.105 75.4747 819.203 75.9133 819.203 76.408V81H817.621V76.758C817.621 76.2633 817.495 75.8713 817.243 75.582C816.991 75.2927 816.646 75.148 816.207 75.148C815.927 75.148 815.666 75.218 815.423 75.358C815.19 75.498 814.984 75.708 814.807 75.988C814.816 76.0533 814.821 76.1233 814.821 76.198C814.83 76.2633 814.835 76.3333 814.835 76.408V81H813.239V76.758C813.239 76.2633 813.113 75.8713 812.861 75.582C812.609 75.2927 812.264 75.148 811.825 75.148C811.256 75.148 810.794 75.4187 810.439 75.96V81H808.857ZM821.121 83.926V73.986H822.675V74.98C822.927 74.644 823.239 74.3873 823.613 74.21C823.995 74.0233 824.411 73.93 824.859 73.93C825.456 73.93 825.993 74.0887 826.469 74.406C826.945 74.7233 827.323 75.1527 827.603 75.694C827.883 76.2353 828.023 76.8373 828.023 77.5C828.023 78.1627 827.878 78.7647 827.589 79.306C827.299 79.8473 826.907 80.2767 826.413 80.594C825.918 80.9113 825.367 81.07 824.761 81.07C824.341 81.07 823.953 80.9953 823.599 80.846C823.253 80.6873 822.955 80.4633 822.703 80.174V83.926H821.121ZM824.383 79.754C824.784 79.754 825.139 79.656 825.447 79.46C825.764 79.264 826.011 78.998 826.189 78.662C826.375 78.3167 826.469 77.9293 826.469 77.5C826.469 77.0707 826.375 76.688 826.189 76.352C826.011 76.016 825.764 75.75 825.447 75.554C825.139 75.358 824.784 75.26 824.383 75.26C824.037 75.26 823.72 75.33 823.431 75.47C823.141 75.6007 822.899 75.792 822.703 76.044V78.97C822.908 79.2127 823.155 79.404 823.445 79.544C823.734 79.684 824.047 79.754 824.383 79.754ZM829.679 81V70.962L831.261 70.682V81H829.679ZM836.469 81.14C835.797 81.14 835.19 80.9813 834.649 80.664C834.107 80.3373 833.678 79.9033 833.361 79.362C833.043 78.8113 832.885 78.1907 832.885 77.5C832.885 76.8093 833.034 76.1933 833.333 75.652C833.631 75.1107 834.037 74.6813 834.551 74.364C835.073 74.0373 835.652 73.874 836.287 73.874C836.94 73.874 837.514 74.0327 838.009 74.35C838.513 74.6673 838.905 75.0967 839.185 75.638C839.474 76.1793 839.619 76.8 839.619 77.5V77.878H834.439C834.495 78.2607 834.616 78.6013 834.803 78.9C834.999 79.1893 835.246 79.418 835.545 79.586C835.853 79.754 836.184 79.838 836.539 79.838C836.865 79.838 837.173 79.782 837.463 79.67C837.761 79.5487 838.009 79.3853 838.205 79.18L839.241 80.118C838.811 80.4727 838.373 80.734 837.925 80.902C837.486 81.0607 837.001 81.14 836.469 81.14ZM834.453 76.898H838.121C838.065 76.562 837.948 76.2633 837.771 76.002C837.603 75.7407 837.388 75.5353 837.127 75.386C836.875 75.2367 836.595 75.162 836.287 75.162C835.979 75.162 835.694 75.2367 835.433 75.386C835.181 75.526 834.971 75.7267 834.803 75.988C834.635 76.2493 834.518 76.5527 834.453 76.898ZM844.051 81.14C843.342 81.14 842.805 80.9767 842.441 80.65C842.077 80.314 841.895 79.824 841.895 79.18V75.246H840.495V73.986H841.895V72.054L843.477 71.718V73.986H845.423V75.246H843.477V78.83C843.477 79.1753 843.552 79.4227 843.701 79.572C843.85 79.712 844.102 79.782 844.457 79.782C844.616 79.782 844.76 79.7727 844.891 79.754C845.031 79.726 845.204 79.6793 845.409 79.614V80.944C845.213 81.0093 844.989 81.056 844.737 81.084C844.494 81.1213 844.266 81.14 844.051 81.14ZM849.976 81.14C849.304 81.14 848.698 80.9813 848.156 80.664C847.615 80.3373 847.186 79.9033 846.868 79.362C846.551 78.8113 846.392 78.1907 846.392 77.5C846.392 76.8093 846.542 76.1933 846.84 75.652C847.139 75.1107 847.545 74.6813 848.058 74.364C848.581 74.0373 849.16 73.874 849.794 73.874C850.448 73.874 851.022 74.0327 851.516 74.35C852.02 74.6673 852.412 75.0967 852.692 75.638C852.982 76.1793 853.126 76.8 853.126 77.5V77.878H847.946C848.002 78.2607 848.124 78.6013 848.31 78.9C848.506 79.1893 848.754 79.418 849.052 79.586C849.36 79.754 849.692 79.838 850.046 79.838C850.373 79.838 850.681 79.782 850.97 79.67C851.269 79.5487 851.516 79.3853 851.712 79.18L852.748 80.118C852.319 80.4727 851.88 80.734 851.432 80.902C850.994 81.0607 850.508 81.14 849.976 81.14ZM847.96 76.898H851.628C851.572 76.562 851.456 76.2633 851.278 76.002C851.11 75.7407 850.896 75.5353 850.634 75.386C850.382 75.2367 850.102 75.162 849.794 75.162C849.486 75.162 849.202 75.2367 848.94 75.386C848.688 75.526 848.478 75.7267 848.31 75.988C848.142 76.2493 848.026 76.5527 847.96 76.898ZM859.116 81L857.226 73.986H858.738L859.97 78.928L861.426 73.986H862.756L864.198 78.928L865.43 73.986H866.9L865.01 81H863.498L862.07 76.058L860.656 81H859.116ZM868.179 81V73.986H869.761V81H868.179ZM868.977 72.558C868.706 72.558 868.473 72.4647 868.277 72.278C868.09 72.082 867.997 71.8533 867.997 71.592C867.997 71.3213 868.09 71.0927 868.277 70.906C868.473 70.71 868.706 70.612 868.977 70.612C869.248 70.612 869.476 70.71 869.663 70.906C869.859 71.0927 869.957 71.3167 869.957 71.578C869.957 71.8487 869.859 72.082 869.663 72.278C869.476 72.4647 869.248 72.558 868.977 72.558ZM874.744 81.14C874.035 81.14 873.498 80.9767 873.134 80.65C872.77 80.314 872.588 79.824 872.588 79.18V75.246H871.188V73.986H872.588V72.054L874.17 71.718V73.986H876.116V75.246H874.17V78.83C874.17 79.1753 874.245 79.4227 874.394 79.572C874.544 79.712 874.796 79.782 875.15 79.782C875.309 79.782 875.454 79.7727 875.584 79.754C875.724 79.726 875.897 79.6793 876.102 79.614V80.944C875.906 81.0093 875.682 81.056 875.43 81.084C875.188 81.1213 874.959 81.14 874.744 81.14ZM877.517 81V70.962L879.099 70.682V75.134C879.37 74.714 879.692 74.4013 880.065 74.196C880.438 73.9813 880.854 73.874 881.311 73.874C881.796 73.874 882.221 73.9813 882.585 74.196C882.949 74.4013 883.234 74.6907 883.439 75.064C883.654 75.4373 883.761 75.876 883.761 76.38V81H882.165V76.828C882.165 76.3147 882.025 75.9087 881.745 75.61C881.465 75.302 881.092 75.148 880.625 75.148C880.308 75.148 880.018 75.2227 879.757 75.372C879.505 75.512 879.286 75.722 879.099 76.002V81H877.517ZM892.072 81.14C891.4 81.14 890.793 80.9813 890.252 80.664C889.711 80.3373 889.281 79.9033 888.964 79.362C888.647 78.8113 888.488 78.1907 888.488 77.5C888.488 76.8093 888.637 76.1933 888.936 75.652C889.235 75.1107 889.641 74.6813 890.154 74.364C890.677 74.0373 891.255 73.874 891.89 73.874C892.543 73.874 893.117 74.0327 893.612 74.35C894.116 74.6673 894.508 75.0967 894.788 75.638C895.077 76.1793 895.222 76.8 895.222 77.5V77.878H890.042C890.098 78.2607 890.219 78.6013 890.406 78.9C890.602 79.1893 890.849 79.418 891.148 79.586C891.456 79.754 891.787 79.838 892.142 79.838C892.469 79.838 892.777 79.782 893.066 79.67C893.365 79.5487 893.612 79.3853 893.808 79.18L894.844 80.118C894.415 80.4727 893.976 80.734 893.528 80.902C893.089 81.0607 892.604 81.14 892.072 81.14ZM890.056 76.898H893.724C893.668 76.562 893.551 76.2633 893.374 76.002C893.206 75.7407 892.991 75.5353 892.73 75.386C892.478 75.2367 892.198 75.162 891.89 75.162C891.582 75.162 891.297 75.2367 891.036 75.386C890.784 75.526 890.574 75.7267 890.406 75.988C890.238 76.2493 890.121 76.5527 890.056 76.898ZM896.835 81V73.986H898.417V75.498C898.623 74.966 898.889 74.56 899.215 74.28C899.542 74 899.92 73.86 900.349 73.86C900.48 73.8693 900.597 73.8833 900.699 73.902C900.802 73.9113 900.914 73.944 901.035 74V75.386C900.914 75.33 900.774 75.288 900.615 75.26C900.466 75.232 900.317 75.218 900.167 75.218C899.785 75.218 899.439 75.3207 899.131 75.526C898.833 75.7313 898.595 76.016 898.417 76.38V81H896.835ZM902.332 81V73.986H903.914V75.498C904.119 74.966 904.385 74.56 904.712 74.28C905.038 74 905.416 73.86 905.846 73.86C905.976 73.8693 906.093 73.8833 906.196 73.902C906.298 73.9113 906.41 73.944 906.532 74V75.386C906.41 75.33 906.27 75.288 906.112 75.26C905.962 75.232 905.813 75.218 905.664 75.218C905.281 75.218 904.936 75.3207 904.628 75.526C904.329 75.7313 904.091 76.016 903.914 76.38V81H902.332ZM910.706 81.126C910.043 81.126 909.441 80.9673 908.9 80.65C908.368 80.3327 907.948 79.9033 907.64 79.362C907.332 78.8113 907.178 78.1907 907.178 77.5C907.178 76.8093 907.332 76.1933 907.64 75.652C907.948 75.1013 908.368 74.6673 908.9 74.35C909.432 74.0327 910.034 73.874 910.706 73.874C911.378 73.874 911.975 74.0327 912.498 74.35C913.03 74.6673 913.45 75.1013 913.758 75.652C914.066 76.1933 914.22 76.8093 914.22 77.5C914.22 78.1907 914.066 78.8113 913.758 79.362C913.45 79.9033 913.03 80.3327 912.498 80.65C911.975 80.9673 911.378 81.126 910.706 81.126ZM910.706 79.782C911.088 79.782 911.424 79.684 911.714 79.488C912.012 79.292 912.246 79.0213 912.414 78.676C912.582 78.3213 912.666 77.9293 912.666 77.5C912.666 77.0613 912.582 76.674 912.414 76.338C912.246 75.9927 912.012 75.722 911.714 75.526C911.424 75.3207 911.088 75.218 910.706 75.218C910.323 75.218 909.982 75.3207 909.684 75.526C909.385 75.722 909.152 75.9927 908.984 76.338C908.816 76.674 908.732 77.0613 908.732 77.5C908.732 77.9387 908.816 78.3307 908.984 78.676C909.152 79.0213 909.385 79.292 909.684 79.488C909.982 79.684 910.323 79.782 910.706 79.782ZM915.853 81V73.986H917.435V75.498C917.64 74.966 917.906 74.56 918.233 74.28C918.56 74 918.938 73.86 919.367 73.86C919.498 73.8693 919.614 73.8833 919.717 73.902C919.82 73.9113 919.932 73.944 920.053 74V75.386C919.932 75.33 919.792 75.288 919.633 75.26C919.484 75.232 919.334 75.218 919.185 75.218C918.802 75.218 918.457 75.3207 918.149 75.526C917.85 75.7313 917.612 76.016 917.435 76.38V81H915.853ZM923.756 81.14C923.159 81.14 922.599 81.0607 922.076 80.902C921.563 80.734 921.12 80.496 920.746 80.188L921.488 79.138C921.955 79.4273 922.356 79.6327 922.692 79.754C923.038 79.8753 923.388 79.936 923.742 79.936C924.162 79.936 924.503 79.8473 924.764 79.67C925.026 79.4927 925.156 79.264 925.156 78.984C925.156 78.7693 925.077 78.6013 924.918 78.48C924.769 78.3493 924.522 78.2513 924.176 78.186L922.944 77.976C922.263 77.8453 921.754 77.6213 921.418 77.304C921.082 76.9867 920.914 76.5667 920.914 76.044C920.914 75.6053 921.026 75.2273 921.25 74.91C921.484 74.5833 921.801 74.3313 922.202 74.154C922.613 73.9673 923.089 73.874 923.63 73.874C924.116 73.874 924.587 73.944 925.044 74.084C925.502 74.224 925.95 74.434 926.388 74.714L925.646 75.764C925.292 75.5307 924.937 75.3627 924.582 75.26C924.237 75.148 923.887 75.092 923.532 75.092C923.168 75.092 922.874 75.1667 922.65 75.316C922.436 75.456 922.328 75.652 922.328 75.904C922.328 76.128 922.398 76.3007 922.538 76.422C922.688 76.534 922.944 76.618 923.308 76.674L924.554 76.912C925.254 77.0333 925.772 77.2573 926.108 77.584C926.454 77.9013 926.626 78.326 926.626 78.858C926.626 79.2873 926.5 79.6747 926.248 80.02C925.996 80.3653 925.656 80.6407 925.226 80.846C924.797 81.042 924.307 81.14 923.756 81.14Z" fill="#151515"/>
<g clip-path="url(#clip3_10_4431)">
<path d="M1070.95 72L1074.68 68.2773C1074.94 68.0136 1074.94 67.5864 1074.68 67.3228C1074.41 67.0591 1073.99 67.0591 1073.72 67.3228L1070 71.0452L1066.28 67.3228C1066.01 67.0591 1065.59 67.0591 1065.32 67.3228C1065.06 67.5865 1065.06 68.0136 1065.32 68.2773L1069.05 72L1065.32 75.7225C1065.06 75.9862 1065.06 76.4139 1065.32 76.6776C1065.45 76.8094 1065.63 76.875 1065.8 76.875C1065.97 76.875 1066.15 76.8094 1066.28 76.6776L1070 72.9548L1073.72 76.6776C1073.85 76.8094 1074.03 76.875 1074.2 76.875C1074.37 76.875 1074.55 76.8094 1074.68 76.6776C1074.94 76.4139 1074.94 75.9862 1074.68 75.7225L1070.95 72Z" fill="#151515"/>
</g>
<path d="M725.246 110V100.2H731.938V101.152H726.324V104.652H730.16V105.59H726.324V110H725.246ZM732.898 110V103.168H733.92V104.568C734.097 104.092 734.349 103.723 734.676 103.462C735.012 103.191 735.394 103.056 735.824 103.056C735.945 103.056 736.057 103.065 736.16 103.084C736.262 103.093 736.365 103.117 736.468 103.154V104.078C736.356 104.041 736.234 104.013 736.104 103.994C735.982 103.966 735.866 103.952 735.754 103.952C735.334 103.952 734.965 104.073 734.648 104.316C734.34 104.559 734.097 104.899 733.92 105.338V110H732.898ZM740.42 110.112C739.785 110.112 739.216 109.958 738.712 109.65C738.208 109.342 737.811 108.922 737.522 108.39C737.232 107.858 737.088 107.256 737.088 106.584C737.088 105.912 737.232 105.31 737.522 104.778C737.811 104.246 738.208 103.826 738.712 103.518C739.216 103.21 739.785 103.056 740.42 103.056C741.045 103.056 741.605 103.21 742.1 103.518C742.604 103.826 743 104.246 743.29 104.778C743.579 105.31 743.724 105.912 743.724 106.584C743.724 107.256 743.579 107.858 743.29 108.39C743 108.922 742.604 109.342 742.1 109.65C741.605 109.958 741.045 110.112 740.42 110.112ZM740.406 109.216C740.854 109.216 741.25 109.104 741.596 108.88C741.941 108.647 742.212 108.329 742.408 107.928C742.613 107.527 742.716 107.079 742.716 106.584C742.716 106.08 742.613 105.632 742.408 105.24C742.212 104.839 741.941 104.526 741.596 104.302C741.25 104.069 740.854 103.952 740.406 103.952C739.958 103.952 739.561 104.069 739.216 104.302C738.87 104.526 738.595 104.839 738.39 105.24C738.194 105.632 738.096 106.08 738.096 106.584C738.096 107.079 738.194 107.527 738.39 107.928C738.595 108.329 738.87 108.647 739.216 108.88C739.561 109.104 739.958 109.216 740.406 109.216ZM745.517 110V103.168H746.539V104.232C746.8 103.84 747.099 103.546 747.435 103.35C747.771 103.154 748.149 103.056 748.569 103.056C749.054 103.056 749.479 103.177 749.843 103.42C750.207 103.653 750.482 103.975 750.669 104.386C750.939 103.947 751.261 103.616 751.635 103.392C752.017 103.168 752.456 103.056 752.951 103.056C753.408 103.056 753.809 103.163 754.155 103.378C754.509 103.593 754.785 103.891 754.981 104.274C755.177 104.647 755.275 105.086 755.275 105.59V110H754.253V105.842C754.253 105.245 754.103 104.773 753.805 104.428C753.506 104.083 753.095 103.91 752.573 103.91C752.218 103.91 751.896 103.999 751.607 104.176C751.327 104.353 751.079 104.624 750.865 104.988C750.883 105.081 750.897 105.179 750.907 105.282C750.916 105.385 750.921 105.487 750.921 105.59V110H749.899V105.842C749.899 105.245 749.745 104.773 749.437 104.428C749.138 104.083 748.727 103.91 748.205 103.91C747.505 103.91 746.949 104.246 746.539 104.918V110H745.517ZM763.215 110.14C762.627 110.14 762.179 110 761.871 109.72C761.572 109.431 761.423 109.015 761.423 108.474V104.008H760.009V103.168H761.423V101.292L762.445 101.054V103.168H764.405V104.008H762.445V108.208C762.445 108.572 762.519 108.833 762.669 108.992C762.827 109.151 763.084 109.23 763.439 109.23C763.616 109.23 763.775 109.216 763.915 109.188C764.055 109.16 764.218 109.113 764.405 109.048V109.958C764.218 110.023 764.022 110.07 763.817 110.098C763.611 110.126 763.411 110.14 763.215 110.14ZM765.902 110V99.892L766.924 99.682V104.274C767.185 103.863 767.498 103.56 767.862 103.364C768.226 103.159 768.636 103.056 769.094 103.056C769.588 103.056 770.018 103.163 770.382 103.378C770.755 103.583 771.044 103.877 771.25 104.26C771.464 104.633 771.572 105.072 771.572 105.576V110H770.55V105.87C770.55 105.263 770.382 104.787 770.046 104.442C769.719 104.087 769.276 103.91 768.716 103.91C768.342 103.91 768.002 103.999 767.694 104.176C767.386 104.353 767.129 104.615 766.924 104.96V110H765.902ZM776.706 110.14C776.072 110.14 775.498 109.986 774.984 109.678C774.471 109.361 774.065 108.936 773.766 108.404C773.468 107.863 773.318 107.256 773.318 106.584C773.318 105.912 773.458 105.31 773.738 104.778C774.028 104.246 774.415 103.826 774.9 103.518C775.386 103.21 775.927 103.056 776.524 103.056C777.131 103.056 777.668 103.21 778.134 103.518C778.61 103.817 778.984 104.227 779.254 104.75C779.534 105.263 779.674 105.847 779.674 106.5V106.808H774.312C774.35 107.275 774.476 107.695 774.69 108.068C774.914 108.432 775.204 108.721 775.558 108.936C775.922 109.141 776.319 109.244 776.748 109.244C777.103 109.244 777.444 109.183 777.77 109.062C778.106 108.931 778.391 108.759 778.624 108.544L779.268 109.23C778.876 109.538 778.47 109.767 778.05 109.916C777.63 110.065 777.182 110.14 776.706 110.14ZM774.34 106.08H778.666C778.62 105.669 778.494 105.305 778.288 104.988C778.092 104.661 777.84 104.405 777.532 104.218C777.234 104.031 776.898 103.938 776.524 103.938C776.151 103.938 775.81 104.031 775.502 104.218C775.194 104.395 774.938 104.647 774.732 104.974C774.536 105.291 774.406 105.66 774.34 106.08ZM788.089 110.154C787.323 110.154 786.6 110.023 785.919 109.762C785.247 109.491 784.598 109.095 783.973 108.572L784.883 107.34C785.517 107.853 786.082 108.222 786.577 108.446C787.081 108.661 787.617 108.768 788.187 108.768C788.616 108.768 788.994 108.703 789.321 108.572C789.657 108.432 789.913 108.245 790.091 108.012C790.277 107.779 790.371 107.508 790.371 107.2C790.371 106.799 790.235 106.495 789.965 106.29C789.703 106.075 789.246 105.912 788.593 105.8L786.787 105.492C785.937 105.343 785.303 105.058 784.883 104.638C784.472 104.209 784.267 103.663 784.267 103C784.267 102.412 784.416 101.899 784.715 101.46C785.013 101.012 785.429 100.667 785.961 100.424C786.502 100.172 787.141 100.046 787.879 100.046C788.616 100.046 789.316 100.153 789.979 100.368C790.641 100.583 791.253 100.895 791.813 101.306L790.959 102.566C790.464 102.193 789.955 101.913 789.433 101.726C788.91 101.53 788.373 101.432 787.823 101.432C787.431 101.432 787.085 101.493 786.787 101.614C786.497 101.735 786.269 101.903 786.101 102.118C785.942 102.333 785.863 102.571 785.863 102.832C785.863 103.187 785.979 103.462 786.213 103.658C786.455 103.845 786.843 103.985 787.375 104.078L789.125 104.372C790.114 104.549 790.842 104.857 791.309 105.296C791.785 105.735 792.023 106.327 792.023 107.074C792.023 107.671 791.855 108.203 791.519 108.67C791.192 109.137 790.735 109.501 790.147 109.762C789.559 110.023 788.873 110.154 788.089 110.154ZM796.93 110.14C796.258 110.14 795.651 109.981 795.11 109.664C794.568 109.337 794.139 108.903 793.822 108.362C793.504 107.811 793.346 107.191 793.346 106.5C793.346 105.809 793.495 105.193 793.794 104.652C794.092 104.111 794.498 103.681 795.012 103.364C795.534 103.037 796.113 102.874 796.748 102.874C797.401 102.874 797.975 103.033 798.47 103.35C798.974 103.667 799.366 104.097 799.646 104.638C799.935 105.179 800.079 105.8 800.079 106.5V106.878H794.9C794.956 107.261 795.077 107.601 795.264 107.9C795.46 108.189 795.707 108.418 796.006 108.586C796.314 108.754 796.645 108.838 797 108.838C797.326 108.838 797.634 108.782 797.924 108.67C798.222 108.549 798.47 108.385 798.666 108.18L799.702 109.118C799.272 109.473 798.834 109.734 798.386 109.902C797.947 110.061 797.462 110.14 796.93 110.14ZM794.914 105.898H798.582C798.526 105.562 798.409 105.263 798.232 105.002C798.064 104.741 797.849 104.535 797.588 104.386C797.336 104.237 797.056 104.162 796.748 104.162C796.44 104.162 796.155 104.237 795.894 104.386C795.642 104.526 795.432 104.727 795.264 104.988C795.096 105.249 794.979 105.553 794.914 105.898ZM804.512 110.14C803.802 110.14 803.266 109.977 802.902 109.65C802.538 109.314 802.356 108.824 802.356 108.18V104.246H800.956V102.986H802.356V101.054L803.938 100.718V102.986H805.884V104.246H803.938V107.83C803.938 108.175 804.012 108.423 804.162 108.572C804.311 108.712 804.563 108.782 804.918 108.782C805.076 108.782 805.221 108.773 805.352 108.754C805.492 108.726 805.664 108.679 805.87 108.614V109.944C805.674 110.009 805.45 110.056 805.198 110.084C804.955 110.121 804.726 110.14 804.512 110.14ZM810.445 110.14C809.736 110.14 809.199 109.977 808.835 109.65C808.471 109.314 808.289 108.824 808.289 108.18V104.246H806.889V102.986H808.289V101.054L809.871 100.718V102.986H811.817V104.246H809.871V107.83C809.871 108.175 809.946 108.423 810.095 108.572C810.245 108.712 810.497 108.782 810.851 108.782C811.01 108.782 811.155 108.773 811.285 108.754C811.425 108.726 811.598 108.679 811.803 108.614V109.944C811.607 110.009 811.383 110.056 811.131 110.084C810.889 110.121 810.66 110.14 810.445 110.14ZM813.204 110V102.986H814.786V110H813.204ZM814.002 101.558C813.732 101.558 813.498 101.465 813.302 101.278C813.116 101.082 813.022 100.853 813.022 100.592C813.022 100.321 813.116 100.093 813.302 99.906C813.498 99.71 813.732 99.612 814.002 99.612C814.273 99.612 814.502 99.71 814.688 99.906C814.884 100.093 814.982 100.317 814.982 100.578C814.982 100.849 814.884 101.082 814.688 101.278C814.502 101.465 814.273 101.558 814.002 101.558ZM816.746 110V102.986H818.328V104.134C818.598 103.714 818.92 103.401 819.294 103.196C819.667 102.981 820.082 102.874 820.54 102.874C821.025 102.874 821.45 102.981 821.814 103.196C822.178 103.401 822.462 103.691 822.668 104.064C822.882 104.437 822.99 104.876 822.99 105.38V110H821.394V105.828C821.394 105.315 821.254 104.909 820.974 104.61C820.694 104.302 820.32 104.148 819.854 104.148C819.536 104.148 819.247 104.223 818.986 104.372C818.734 104.512 818.514 104.722 818.328 105.002V110H816.746ZM828.17 113.066C827.675 113.066 827.185 113.005 826.7 112.884C826.215 112.763 825.767 112.595 825.356 112.38L825.902 111.218C826.322 111.414 826.705 111.559 827.05 111.652C827.405 111.755 827.755 111.806 828.1 111.806C828.688 111.806 829.131 111.675 829.43 111.414C829.738 111.153 829.892 110.765 829.892 110.252V109.062C829.64 109.37 829.327 109.613 828.954 109.79C828.581 109.958 828.175 110.042 827.736 110.042C827.148 110.042 826.616 109.883 826.14 109.566C825.664 109.239 825.281 108.81 824.992 108.278C824.712 107.737 824.572 107.135 824.572 106.472C824.572 105.809 824.717 105.212 825.006 104.68C825.295 104.148 825.687 103.723 826.182 103.406C826.686 103.089 827.241 102.93 827.848 102.93C828.259 102.93 828.641 103.009 828.996 103.168C829.351 103.327 829.654 103.56 829.906 103.868V102.986H831.474V110.252C831.474 111.157 831.189 111.853 830.62 112.338C830.051 112.823 829.234 113.066 828.17 113.066ZM828.226 108.726C828.562 108.726 828.875 108.661 829.164 108.53C829.453 108.39 829.696 108.199 829.892 107.956V105.016C829.687 104.773 829.439 104.587 829.15 104.456C828.861 104.325 828.553 104.26 828.226 104.26C827.825 104.26 827.465 104.358 827.148 104.554C826.84 104.741 826.593 105.002 826.406 105.338C826.219 105.665 826.126 106.047 826.126 106.486C826.126 106.906 826.219 107.289 826.406 107.634C826.593 107.97 826.84 108.236 827.148 108.432C827.465 108.628 827.825 108.726 828.226 108.726ZM835.805 110.14C835.208 110.14 834.648 110.061 834.125 109.902C833.612 109.734 833.169 109.496 832.795 109.188L833.537 108.138C834.004 108.427 834.405 108.633 834.741 108.754C835.087 108.875 835.437 108.936 835.791 108.936C836.211 108.936 836.552 108.847 836.813 108.67C837.075 108.493 837.205 108.264 837.205 107.984C837.205 107.769 837.126 107.601 836.967 107.48C836.818 107.349 836.571 107.251 836.225 107.186L834.993 106.976C834.312 106.845 833.803 106.621 833.467 106.304C833.131 105.987 832.963 105.567 832.963 105.044C832.963 104.605 833.075 104.227 833.299 103.91C833.533 103.583 833.85 103.331 834.251 103.154C834.662 102.967 835.138 102.874 835.679 102.874C836.165 102.874 836.636 102.944 837.093 103.084C837.551 103.224 837.999 103.434 838.437 103.714L837.695 104.764C837.341 104.531 836.986 104.363 836.631 104.26C836.286 104.148 835.936 104.092 835.581 104.092C835.217 104.092 834.923 104.167 834.699 104.316C834.485 104.456 834.377 104.652 834.377 104.904C834.377 105.128 834.447 105.301 834.587 105.422C834.737 105.534 834.993 105.618 835.357 105.674L836.603 105.912C837.303 106.033 837.821 106.257 838.157 106.584C838.503 106.901 838.675 107.326 838.675 107.858C838.675 108.287 838.549 108.675 838.297 109.02C838.045 109.365 837.705 109.641 837.275 109.846C836.846 110.042 836.356 110.14 835.805 110.14ZM846.066 110.14C845.478 110.14 845.03 110 844.722 109.72C844.423 109.431 844.274 109.015 844.274 108.474V104.008H842.86V103.168H844.274V101.292L845.296 101.054V103.168H847.256V104.008H845.296V108.208C845.296 108.572 845.371 108.833 845.52 108.992C845.679 109.151 845.935 109.23 846.29 109.23C846.467 109.23 846.626 109.216 846.766 109.188C846.906 109.16 847.069 109.113 847.256 109.048V109.958C847.069 110.023 846.873 110.07 846.668 110.098C846.463 110.126 846.262 110.14 846.066 110.14ZM850.867 110.126C850.382 110.126 849.952 110.037 849.579 109.86C849.206 109.683 848.912 109.44 848.697 109.132C848.492 108.815 848.389 108.451 848.389 108.04C848.389 107.629 848.496 107.275 848.711 106.976C848.926 106.668 849.224 106.43 849.607 106.262C849.99 106.094 850.438 106.01 850.951 106.01C851.343 106.01 851.712 106.052 852.057 106.136C852.412 106.22 852.738 106.355 853.037 106.542V105.604C853.037 105.044 852.888 104.624 852.589 104.344C852.29 104.055 851.852 103.91 851.273 103.91C850.956 103.91 850.629 103.957 850.293 104.05C849.966 104.143 849.602 104.293 849.201 104.498L848.823 103.714C849.738 103.275 850.596 103.056 851.399 103.056C852.248 103.056 852.902 103.266 853.359 103.686C853.816 104.097 854.045 104.689 854.045 105.464V110H853.037V109.202C852.738 109.51 852.407 109.743 852.043 109.902C851.679 110.051 851.287 110.126 850.867 110.126ZM849.369 108.012C849.369 108.413 849.523 108.735 849.831 108.978C850.148 109.221 850.564 109.342 851.077 109.342C851.46 109.342 851.81 109.277 852.127 109.146C852.454 109.015 852.757 108.819 853.037 108.558V107.242C852.748 107.074 852.449 106.953 852.141 106.878C851.833 106.794 851.488 106.752 851.105 106.752C850.582 106.752 850.162 106.869 849.845 107.102C849.528 107.326 849.369 107.629 849.369 108.012ZM856.122 110V99.99L857.144 99.78V104.106C857.406 103.779 857.723 103.527 858.096 103.35C858.47 103.173 858.885 103.084 859.342 103.084C859.94 103.084 860.472 103.243 860.938 103.56C861.414 103.868 861.792 104.288 862.072 104.82C862.352 105.343 862.492 105.931 862.492 106.584C862.492 107.237 862.348 107.83 862.058 108.362C861.778 108.894 861.396 109.319 860.91 109.636C860.434 109.944 859.893 110.098 859.286 110.098C858.857 110.098 858.456 110.014 858.082 109.846C857.718 109.669 857.401 109.421 857.13 109.104V110H856.122ZM859.09 109.216C859.548 109.216 859.954 109.104 860.308 108.88C860.672 108.647 860.957 108.334 861.162 107.942C861.377 107.541 861.484 107.093 861.484 106.598C861.484 106.094 861.377 105.646 861.162 105.254C860.957 104.862 860.672 104.554 860.308 104.33C859.954 104.097 859.548 103.98 859.09 103.98C858.689 103.98 858.316 104.064 857.97 104.232C857.634 104.391 857.359 104.619 857.144 104.918V108.264C857.368 108.563 857.648 108.796 857.984 108.964C858.33 109.132 858.698 109.216 859.09 109.216ZM863.579 112.198L864.419 108.964H865.511L864.377 112.198H863.579ZM872.81 110.14C872.25 110.14 871.732 110.056 871.256 109.888C870.78 109.711 870.374 109.459 870.038 109.132L870.584 108.46C870.995 108.759 871.373 108.978 871.718 109.118C872.064 109.249 872.418 109.314 872.782 109.314C873.277 109.314 873.688 109.197 874.014 108.964C874.341 108.731 874.504 108.432 874.504 108.068C874.504 107.788 874.406 107.569 874.21 107.41C874.024 107.251 873.711 107.13 873.272 107.046L872.152 106.85C871.49 106.729 871 106.523 870.682 106.234C870.374 105.945 870.22 105.553 870.22 105.058C870.22 104.666 870.323 104.321 870.528 104.022C870.743 103.723 871.037 103.49 871.41 103.322C871.784 103.145 872.208 103.056 872.684 103.056C873.151 103.056 873.594 103.126 874.014 103.266C874.434 103.397 874.859 103.611 875.288 103.91L874.784 104.624C874.43 104.372 874.075 104.19 873.72 104.078C873.366 103.957 873.006 103.896 872.642 103.896C872.194 103.896 871.835 103.994 871.564 104.19C871.294 104.386 871.158 104.652 871.158 104.988C871.158 105.268 871.242 105.483 871.41 105.632C871.588 105.781 871.896 105.893 872.334 105.968L873.482 106.178C874.173 106.299 874.677 106.509 874.994 106.808C875.312 107.107 875.47 107.508 875.47 108.012C875.47 108.413 875.354 108.777 875.12 109.104C874.887 109.421 874.57 109.673 874.168 109.86C873.767 110.047 873.314 110.14 872.81 110.14ZM880.175 110.14C879.54 110.14 878.966 109.986 878.453 109.678C877.94 109.361 877.534 108.936 877.235 108.404C876.936 107.863 876.787 107.256 876.787 106.584C876.787 105.912 876.927 105.31 877.207 104.778C877.496 104.246 877.884 103.826 878.369 103.518C878.854 103.21 879.396 103.056 879.993 103.056C880.6 103.056 881.136 103.21 881.603 103.518C882.079 103.817 882.452 104.227 882.723 104.75C883.003 105.263 883.143 105.847 883.143 106.5V106.808H877.781C877.818 107.275 877.944 107.695 878.159 108.068C878.383 108.432 878.672 108.721 879.027 108.936C879.391 109.141 879.788 109.244 880.217 109.244C880.572 109.244 880.912 109.183 881.239 109.062C881.575 108.931 881.86 108.759 882.093 108.544L882.737 109.23C882.345 109.538 881.939 109.767 881.519 109.916C881.099 110.065 880.651 110.14 880.175 110.14ZM877.809 106.08H882.135C882.088 105.669 881.962 105.305 881.757 104.988C881.561 104.661 881.309 104.405 881.001 104.218C880.702 104.031 880.366 103.938 879.993 103.938C879.62 103.938 879.279 104.031 878.971 104.218C878.663 104.395 878.406 104.647 878.201 104.974C878.005 105.291 877.874 105.66 877.809 106.08ZM884.888 110V99.892L885.91 99.682V110H884.888ZM891.085 110.14C890.45 110.14 889.876 109.986 889.363 109.678C888.85 109.361 888.444 108.936 888.145 108.404C887.846 107.863 887.697 107.256 887.697 106.584C887.697 105.912 887.837 105.31 888.117 104.778C888.406 104.246 888.794 103.826 889.279 103.518C889.764 103.21 890.306 103.056 890.903 103.056C891.51 103.056 892.046 103.21 892.513 103.518C892.989 103.817 893.362 104.227 893.633 104.75C893.913 105.263 894.053 105.847 894.053 106.5V106.808H888.691C888.728 107.275 888.854 107.695 889.069 108.068C889.293 108.432 889.582 108.721 889.937 108.936C890.301 109.141 890.698 109.244 891.127 109.244C891.482 109.244 891.822 109.183 892.149 109.062C892.485 108.931 892.77 108.759 893.003 108.544L893.647 109.23C893.255 109.538 892.849 109.767 892.429 109.916C892.009 110.065 891.561 110.14 891.085 110.14ZM888.719 106.08H893.045C892.998 105.669 892.872 105.305 892.667 104.988C892.471 104.661 892.219 104.405 891.911 104.218C891.612 104.031 891.276 103.938 890.903 103.938C890.53 103.938 890.189 104.031 889.881 104.218C889.573 104.395 889.316 104.647 889.111 104.974C888.915 105.291 888.784 105.66 888.719 106.08ZM898.864 110.112C898.229 110.112 897.655 109.958 897.142 109.65C896.638 109.333 896.237 108.908 895.938 108.376C895.639 107.835 895.49 107.237 895.49 106.584C895.49 105.921 895.639 105.324 895.938 104.792C896.237 104.26 896.638 103.84 897.142 103.532C897.655 103.215 898.229 103.056 898.864 103.056C899.368 103.056 899.849 103.149 900.306 103.336C900.763 103.523 901.16 103.784 901.496 104.12L900.838 104.834C900.595 104.563 900.301 104.353 899.956 104.204C899.611 104.055 899.261 103.98 898.906 103.98C898.458 103.98 898.052 104.097 897.688 104.33C897.333 104.563 897.049 104.876 896.834 105.268C896.619 105.66 896.512 106.099 896.512 106.584C896.512 107.069 896.619 107.508 896.834 107.9C897.049 108.292 897.333 108.605 897.688 108.838C898.052 109.071 898.458 109.188 898.906 109.188C899.261 109.188 899.611 109.113 899.956 108.964C900.301 108.805 900.595 108.595 900.838 108.334L901.496 109.048C901.16 109.384 900.763 109.645 900.306 109.832C899.849 110.019 899.368 110.112 898.864 110.112ZM905.662 110.14C905.074 110.14 904.626 110 904.318 109.72C904.019 109.431 903.87 109.015 903.87 108.474V104.008H902.456V103.168H903.87V101.292L904.892 101.054V103.168H906.852V104.008H904.892V108.208C904.892 108.572 904.966 108.833 905.116 108.992C905.274 109.151 905.531 109.23 905.886 109.23C906.063 109.23 906.222 109.216 906.362 109.188C906.502 109.16 906.665 109.113 906.852 109.048V109.958C906.665 110.023 906.469 110.07 906.264 110.098C906.058 110.126 905.858 110.14 905.662 110.14ZM971.078 110.112C970.873 110.112 970.695 110.037 970.546 109.888C970.406 109.739 970.336 109.561 970.336 109.356C970.336 109.141 970.406 108.964 970.546 108.824C970.695 108.675 970.873 108.6 971.078 108.6C971.283 108.6 971.456 108.675 971.596 108.824C971.745 108.964 971.82 109.141 971.82 109.356C971.82 109.561 971.745 109.739 971.596 109.888C971.456 110.037 971.283 110.112 971.078 110.112Z" fill="#151515"/>
<path d="M914.528 110L910.692 100.2H911.84L915.2 108.964L918.574 100.2H919.68L915.816 110H914.528ZM920.845 110V103.168H921.867V110H920.845ZM921.363 101.474C921.157 101.474 920.98 101.404 920.831 101.264C920.691 101.115 920.621 100.942 920.621 100.746C920.621 100.55 920.691 100.382 920.831 100.242C920.98 100.093 921.157 100.018 921.363 100.018C921.568 100.018 921.741 100.093 921.881 100.242C922.03 100.382 922.105 100.55 922.105 100.746C922.105 100.942 922.03 101.115 921.881 101.264C921.741 101.404 921.568 101.474 921.363 101.474ZM927.042 110.14C926.407 110.14 925.833 109.986 925.32 109.678C924.807 109.361 924.401 108.936 924.102 108.404C923.803 107.863 923.654 107.256 923.654 106.584C923.654 105.912 923.794 105.31 924.074 104.778C924.363 104.246 924.751 103.826 925.236 103.518C925.721 103.21 926.263 103.056 926.86 103.056C927.467 103.056 928.003 103.21 928.47 103.518C928.946 103.817 929.319 104.227 929.59 104.75C929.87 105.263 930.01 105.847 930.01 106.5V106.808H924.648C924.685 107.275 924.811 107.695 925.026 108.068C925.25 108.432 925.539 108.721 925.894 108.936C926.258 109.141 926.655 109.244 927.084 109.244C927.439 109.244 927.779 109.183 928.106 109.062C928.442 108.931 928.727 108.759 928.96 108.544L929.604 109.23C929.212 109.538 928.806 109.767 928.386 109.916C927.966 110.065 927.518 110.14 927.042 110.14ZM924.676 106.08H929.002C928.955 105.669 928.829 105.305 928.624 104.988C928.428 104.661 928.176 104.405 927.868 104.218C927.569 104.031 927.233 103.938 926.86 103.938C926.487 103.938 926.146 104.031 925.838 104.218C925.53 104.395 925.273 104.647 925.068 104.974C924.872 105.291 924.741 105.66 924.676 106.08ZM932.836 110L930.96 103.168H931.954L933.382 108.628L935.02 103.168H935.93L937.568 108.628L938.982 103.168H939.948L938.086 110H937.092L935.468 104.484L933.844 110H932.836ZM944.661 110V99.892L945.683 99.682V110H944.661ZM950.803 110.112C950.168 110.112 949.599 109.958 949.095 109.65C948.591 109.342 948.194 108.922 947.905 108.39C947.615 107.858 947.471 107.256 947.471 106.584C947.471 105.912 947.615 105.31 947.905 104.778C948.194 104.246 948.591 103.826 949.095 103.518C949.599 103.21 950.168 103.056 950.803 103.056C951.428 103.056 951.988 103.21 952.483 103.518C952.987 103.826 953.383 104.246 953.673 104.778C953.962 105.31 954.107 105.912 954.107 106.584C954.107 107.256 953.962 107.858 953.673 108.39C953.383 108.922 952.987 109.342 952.483 109.65C951.988 109.958 951.428 110.112 950.803 110.112ZM950.789 109.216C951.237 109.216 951.633 109.104 951.979 108.88C952.324 108.647 952.595 108.329 952.791 107.928C952.996 107.527 953.099 107.079 953.099 106.584C953.099 106.08 952.996 105.632 952.791 105.24C952.595 104.839 952.324 104.526 951.979 104.302C951.633 104.069 951.237 103.952 950.789 103.952C950.341 103.952 949.944 104.069 949.599 104.302C949.253 104.526 948.978 104.839 948.773 105.24C948.577 105.632 948.479 106.08 948.479 106.584C948.479 107.079 948.577 107.527 948.773 107.928C948.978 108.329 949.253 108.647 949.599 108.88C949.944 109.104 950.341 109.216 950.789 109.216ZM959.064 113.066C958.606 113.066 958.144 113.001 957.678 112.87C957.22 112.749 956.796 112.576 956.404 112.352L956.838 111.568C957.258 111.783 957.64 111.941 957.986 112.044C958.331 112.147 958.676 112.198 959.022 112.198C959.647 112.198 960.118 112.049 960.436 111.75C960.762 111.451 960.926 111.017 960.926 110.448V109.076C960.664 109.403 960.347 109.655 959.974 109.832C959.6 110 959.19 110.084 958.742 110.084C958.154 110.084 957.622 109.93 957.146 109.622C956.67 109.305 956.292 108.885 956.012 108.362C955.732 107.83 955.592 107.237 955.592 106.584C955.592 105.931 955.732 105.343 956.012 104.82C956.301 104.288 956.688 103.868 957.174 103.56C957.659 103.243 958.2 103.084 958.798 103.084C959.227 103.084 959.624 103.168 959.988 103.336C960.352 103.495 960.669 103.733 960.94 104.05V103.168H961.948V110.434C961.948 111.283 961.7 111.932 961.206 112.38C960.711 112.837 959.997 113.066 959.064 113.066ZM958.994 109.202C959.395 109.202 959.764 109.123 960.1 108.964C960.436 108.796 960.711 108.567 960.926 108.278V104.904C960.702 104.615 960.417 104.391 960.072 104.232C959.736 104.064 959.376 103.98 958.994 103.98C958.536 103.98 958.126 104.092 957.762 104.316C957.407 104.54 957.122 104.848 956.908 105.24C956.702 105.632 956.6 106.08 956.6 106.584C956.6 107.079 956.702 107.527 956.908 107.928C957.122 108.32 957.407 108.633 957.762 108.866C958.126 109.09 958.536 109.202 958.994 109.202ZM966.162 110.14C965.602 110.14 965.084 110.056 964.608 109.888C964.132 109.711 963.726 109.459 963.39 109.132L963.936 108.46C964.347 108.759 964.725 108.978 965.07 109.118C965.415 109.249 965.77 109.314 966.134 109.314C966.629 109.314 967.039 109.197 967.366 108.964C967.693 108.731 967.856 108.432 967.856 108.068C967.856 107.788 967.758 107.569 967.562 107.41C967.375 107.251 967.063 107.13 966.624 107.046L965.504 106.85C964.841 106.729 964.351 106.523 964.034 106.234C963.726 105.945 963.572 105.553 963.572 105.058C963.572 104.666 963.675 104.321 963.88 104.022C964.095 103.723 964.389 103.49 964.762 103.322C965.135 103.145 965.56 103.056 966.036 103.056C966.503 103.056 966.946 103.126 967.366 103.266C967.786 103.397 968.211 103.611 968.64 103.91L968.136 104.624C967.781 104.372 967.427 104.19 967.072 104.078C966.717 103.957 966.358 103.896 965.994 103.896C965.546 103.896 965.187 103.994 964.916 104.19C964.645 104.386 964.51 104.652 964.51 104.988C964.51 105.268 964.594 105.483 964.762 105.632C964.939 105.781 965.247 105.893 965.686 105.968L966.834 106.178C967.525 106.299 968.029 106.509 968.346 106.808C968.663 107.107 968.822 107.508 968.822 108.012C968.822 108.413 968.705 108.777 968.472 109.104C968.239 109.421 967.921 109.673 967.52 109.86C967.119 110.047 966.666 110.14 966.162 110.14Z" fill="#0066CC"/>
<path d="M910.566 113.5H969.328V114.9H910.566V113.5Z" fill="#0066CC"/>
</g>
<rect x="1092" y="166" width="48" height="48" fill="#876FD4"/>
<path d="M1113.69 194V191.756H1109.15V191.072L1113.62 185.6H1114.54V191H1115.7V191.756H1114.54V194H1113.69ZM1110.16 191H1113.69V186.644L1110.16 191ZM1119.6 194.132C1119.02 194.132 1118.51 194.028 1118.06 193.82C1117.62 193.612 1117.26 193.328 1117 192.968C1116.74 192.6 1116.61 192.188 1116.61 191.732C1116.61 191.388 1116.7 191.072 1116.86 190.784C1117.03 190.488 1117.26 190.236 1117.56 190.028C1117.86 189.812 1118.21 189.66 1118.59 189.572C1118.1 189.436 1117.7 189.192 1117.39 188.84C1117.09 188.488 1116.94 188.092 1116.94 187.652C1116.94 187.236 1117.05 186.864 1117.28 186.536C1117.52 186.208 1117.83 185.948 1118.23 185.756C1118.64 185.564 1119.1 185.468 1119.6 185.468C1120.11 185.468 1120.57 185.564 1120.97 185.756C1121.37 185.948 1121.68 186.208 1121.92 186.536C1122.15 186.864 1122.26 187.236 1122.26 187.652C1122.26 188.092 1122.11 188.488 1121.81 188.84C1121.5 189.192 1121.1 189.436 1120.61 189.572C1121.19 189.708 1121.67 189.976 1122.04 190.376C1122.4 190.768 1122.59 191.22 1122.59 191.732C1122.59 192.188 1122.46 192.6 1122.2 192.968C1121.95 193.328 1121.59 193.612 1121.14 193.82C1120.69 194.028 1120.18 194.132 1119.6 194.132ZM1119.6 189.212C1119.94 189.212 1120.25 189.144 1120.52 189.008C1120.8 188.872 1121.02 188.692 1121.18 188.468C1121.34 188.236 1121.42 187.976 1121.42 187.688C1121.42 187.4 1121.34 187.14 1121.18 186.908C1121.02 186.676 1120.8 186.496 1120.52 186.368C1120.25 186.232 1119.94 186.164 1119.6 186.164C1119.26 186.164 1118.94 186.232 1118.66 186.368C1118.39 186.496 1118.18 186.676 1118.02 186.908C1117.86 187.14 1117.78 187.4 1117.78 187.688C1117.78 187.976 1117.86 188.236 1118.02 188.468C1118.18 188.692 1118.39 188.872 1118.66 189.008C1118.94 189.144 1119.26 189.212 1119.6 189.212ZM1119.6 193.436C1120.01 193.436 1120.37 193.36 1120.69 193.208C1121.01 193.056 1121.26 192.848 1121.45 192.584C1121.64 192.32 1121.74 192.024 1121.74 191.696C1121.74 191.368 1121.64 191.072 1121.45 190.808C1121.26 190.544 1121.01 190.336 1120.69 190.184C1120.37 190.032 1120.01 189.956 1119.6 189.956C1119.19 189.956 1118.83 190.032 1118.51 190.184C1118.19 190.336 1117.93 190.544 1117.74 190.808C1117.56 191.072 1117.46 191.368 1117.46 191.696C1117.46 192.024 1117.56 192.32 1117.74 192.584C1117.93 192.848 1118.19 193.056 1118.51 193.208C1118.83 193.36 1119.19 193.436 1119.6 193.436Z" fill="white"/>
<rect x="880" y="132" width="16" height="16" fill="#3D7317"/>
<path d="M881.813 144V143.244H883.937V136.536L881.813 137.472V136.68L884.261 135.6H884.801V143.244H887.225V144H881.813ZM891.852 144.12C891.204 144.12 890.632 143.948 890.136 143.604C889.648 143.26 889.264 142.788 888.984 142.188C888.704 141.58 888.564 140.88 888.564 140.088C888.564 139.16 888.72 138.352 889.032 137.664C889.344 136.968 889.784 136.428 890.352 136.044C890.92 135.66 891.58 135.468 892.332 135.468C892.684 135.468 893.032 135.516 893.376 135.612C893.72 135.708 894.028 135.848 894.3 136.032L893.868 136.704C893.62 136.56 893.36 136.448 893.088 136.368C892.816 136.288 892.54 136.248 892.26 136.248C891.684 136.248 891.184 136.4 890.76 136.704C890.344 137 890.02 137.428 889.788 137.988C889.564 138.548 889.444 139.22 889.428 140.004C889.74 139.604 890.112 139.292 890.544 139.068C890.976 138.844 891.424 138.732 891.888 138.732C892.432 138.732 892.916 138.844 893.34 139.068C893.764 139.292 894.096 139.604 894.336 140.004C894.576 140.396 894.696 140.844 894.696 141.348C894.696 141.876 894.572 142.352 894.324 142.776C894.076 143.192 893.736 143.52 893.304 143.76C892.88 144 892.396 144.12 891.852 144.12ZM891.768 139.44C891.328 139.44 890.904 139.552 890.496 139.776C890.096 139.992 889.748 140.292 889.452 140.676C889.516 141.212 889.652 141.684 889.86 142.092C890.076 142.492 890.352 142.804 890.688 143.028C891.032 143.252 891.416 143.364 891.84 143.364C892.224 143.364 892.564 143.28 892.86 143.112C893.164 142.936 893.4 142.696 893.568 142.392C893.744 142.088 893.832 141.748 893.832 141.372C893.832 140.996 893.744 140.664 893.568 140.376C893.392 140.08 893.148 139.852 892.836 139.692C892.532 139.524 892.176 139.44 891.768 139.44Z" fill="white"/>
<rect x="1092" y="66" width="48" height="48" fill="#876FD4"/>
<path d="M1113.69 94V91.756H1109.15V91.072L1113.62 85.6H1114.54V91H1115.7V91.756H1114.54V94H1113.69ZM1110.16 91H1113.69V86.644L1110.16 91ZM1119.6 94.132C1119.02 94.132 1118.51 94.028 1118.06 93.82C1117.62 93.612 1117.26 93.328 1117 92.968C1116.74 92.6 1116.61 92.188 1116.61 91.732C1116.61 91.388 1116.7 91.072 1116.86 90.784C1117.03 90.488 1117.26 90.236 1117.56 90.028C1117.86 89.812 1118.21 89.66 1118.59 89.572C1118.1 89.436 1117.7 89.192 1117.39 88.84C1117.09 88.488 1116.94 88.092 1116.94 87.652C1116.94 87.236 1117.05 86.864 1117.28 86.536C1117.52 86.208 1117.83 85.948 1118.23 85.756C1118.64 85.564 1119.1 85.468 1119.6 85.468C1120.11 85.468 1120.57 85.564 1120.97 85.756C1121.37 85.948 1121.68 86.208 1121.92 86.536C1122.15 86.864 1122.26 87.236 1122.26 87.652C1122.26 88.092 1122.11 88.488 1121.81 88.84C1121.5 89.192 1121.1 89.436 1120.61 89.572C1121.19 89.708 1121.67 89.976 1122.04 90.376C1122.4 90.768 1122.59 91.22 1122.59 91.732C1122.59 92.188 1122.46 92.6 1122.2 92.968C1121.95 93.328 1121.59 93.612 1121.14 93.82C1120.69 94.028 1120.18 94.132 1119.6 94.132ZM1119.6 89.212C1119.94 89.212 1120.25 89.144 1120.52 89.008C1120.8 88.872 1121.02 88.692 1121.18 88.468C1121.34 88.236 1121.42 87.976 1121.42 87.688C1121.42 87.4 1121.34 87.14 1121.18 86.908C1121.02 86.676 1120.8 86.496 1120.52 86.368C1120.25 86.232 1119.94 86.164 1119.6 86.164C1119.26 86.164 1118.94 86.232 1118.66 86.368C1118.39 86.496 1118.18 86.676 1118.02 86.908C1117.86 87.14 1117.78 87.4 1117.78 87.688C1117.78 87.976 1117.86 88.236 1118.02 88.468C1118.18 88.692 1118.39 88.872 1118.66 89.008C1118.94 89.144 1119.26 89.212 1119.6 89.212ZM1119.6 93.436C1120.01 93.436 1120.37 93.36 1120.69 93.208C1121.01 93.056 1121.26 92.848 1121.45 92.584C1121.64 92.32 1121.74 92.024 1121.74 91.696C1121.74 91.368 1121.64 91.072 1121.45 90.808C1121.26 90.544 1121.01 90.336 1120.69 90.184C1120.37 90.032 1120.01 89.956 1119.6 89.956C1119.19 89.956 1118.83 90.032 1118.51 90.184C1118.19 90.336 1117.93 90.544 1117.74 90.808C1117.56 91.072 1117.46 91.368 1117.46 91.696C1117.46 92.024 1117.56 92.32 1117.74 92.584C1117.93 92.848 1118.19 93.056 1118.51 93.208C1118.83 93.36 1119.19 93.436 1119.6 93.436Z" fill="white"/>
<rect x="864" width="48" height="48" fill="#876FD4"/>
<path d="M885.689 28V25.756H881.153V25.072L885.617 19.6H886.541V25H887.705V25.756H886.541V28H885.689ZM882.161 25H885.689V20.644L882.161 25ZM891.6 28.132C891.024 28.132 890.512 28.028 890.064 27.82C889.616 27.612 889.26 27.328 888.996 26.968C888.74 26.6 888.612 26.188 888.612 25.732C888.612 25.388 888.696 25.072 888.864 24.784C889.032 24.488 889.264 24.236 889.56 24.028C889.864 23.812 890.208 23.66 890.592 23.572C890.104 23.436 889.704 23.192 889.392 22.84C889.088 22.488 888.936 22.092 888.936 21.652C888.936 21.236 889.052 20.864 889.284 20.536C889.516 20.208 889.832 19.948 890.232 19.756C890.64 19.564 891.096 19.468 891.6 19.468C892.112 19.468 892.568 19.564 892.968 19.756C893.368 19.948 893.684 20.208 893.916 20.536C894.148 20.864 894.264 21.236 894.264 21.652C894.264 22.092 894.112 22.488 893.808 22.84C893.504 23.192 893.104 23.436 892.608 23.572C893.192 23.708 893.668 23.976 894.036 24.376C894.404 24.768 894.588 25.22 894.588 25.732C894.588 26.188 894.46 26.6 894.204 26.968C893.948 27.328 893.592 27.612 893.136 27.82C892.688 28.028 892.176 28.132 891.6 28.132ZM891.6 23.212C891.944 23.212 892.252 23.144 892.524 23.008C892.804 22.872 893.024 22.692 893.184 22.468C893.344 22.236 893.424 21.976 893.424 21.688C893.424 21.4 893.344 21.14 893.184 20.908C893.024 20.676 892.804 20.496 892.524 20.368C892.252 20.232 891.944 20.164 891.6 20.164C891.256 20.164 890.944 20.232 890.664 20.368C890.392 20.496 890.176 20.676 890.016 20.908C889.856 21.14 889.776 21.4 889.776 21.688C889.776 21.976 889.856 22.236 890.016 22.468C890.176 22.692 890.392 22.872 890.664 23.008C890.944 23.144 891.256 23.212 891.6 23.212ZM891.6 27.436C892.008 27.436 892.372 27.36 892.692 27.208C893.012 27.056 893.264 26.848 893.448 26.584C893.64 26.32 893.736 26.024 893.736 25.696C893.736 25.368 893.64 25.072 893.448 24.808C893.264 24.544 893.012 24.336 892.692 24.184C892.372 24.032 892.008 23.956 891.6 23.956C891.192 23.956 890.828 24.032 890.508 24.184C890.188 24.336 889.932 24.544 889.74 24.808C889.556 25.072 889.464 25.368 889.464 25.696C889.464 26.024 889.556 26.32 889.74 26.584C889.932 26.848 890.188 27.056 890.508 27.208C890.828 27.36 891.192 27.436 891.6 27.436Z" fill="white"/>
<defs>
<filter id="filter0_d_10_4431" x="668" y="140" width="440" height="116" filterUnits="userSpaceOnUse" color-interpolation-filters="sRGB">
<feFlood flood-opacity="0" result="BackgroundImageFix"/>
<feColorMatrix in="SourceAlpha" type="matrix" values="0 0 0 0 0 0 0 0 0 0 0 0 0 0 0 0 0 0 127 0" result="hardAlpha"/>
<feOffset dy="8"/>
<feGaussianBlur stdDeviation="8"/>
<feComposite in2="hardAlpha" operator="out"/>
<feColorMatrix type="matrix" values="0 0 0 0 0.0823529 0 0 0 0 0.0823529 0 0 0 0 0.0823529 0 0 0 0.3 0"/>
<feBlend mode="normal" in2="BackgroundImageFix" result="effect1_dropShadow_10_4431"/>
<feBlend mode="normal" in="SourceGraphic" in2="effect1_dropShadow_10_4431" result="shape"/>
</filter>
<filter id="filter1_d_10_4431" x="668" y="40" width="440" height="116" filterUnits="userSpaceOnUse" color-interpolation-filters="sRGB">
<feFlood flood-opacity="0" result="BackgroundImageFix"/>
<feColorMatrix in="SourceAlpha" type="matrix" values="0 0 0 0 0 0 0 0 0 0 0 0 0 0 0 0 0 0 127 0" result="hardAlpha"/>
<feOffset dy="8"/>
<feGaussianBlur stdDeviation="8"/>
<feComposite in2="hardAlpha" operator="out"/>
<feColorMatrix type="matrix" values="0 0 0 0 0.0823529 0 0 0 0 0.0823529 0 0 0 0 0.0823529 0 0 0 0.3 0"/>
<feBlend mode="normal" in2="BackgroundImageFix" result="effect1_dropShadow_10_4431"/>
<feBlend mode="normal" in="SourceGraphic" in2="effect1_dropShadow_10_4431" result="shape"/>
</filter>
<clipPath id="clip0_10_4431">
<rect width="16" height="16" fill="white" transform="translate(700 168.5)"/>
</clipPath>
<clipPath id="clip1_10_4431">
<rect width="12" height="12" fill="white" transform="translate(1064 166)"/>
</clipPath>
<clipPath id="clip2_10_4431">
<rect width="16" height="16" fill="white" transform="translate(700 68.5)"/>
</clipPath>
<clipPath id="clip3_10_4431">
<rect width="12" height="12" fill="white" transform="translate(1064 66)"/>
</clipPath>
</defs>
</svg>
