<svg width="1136" height="264" viewBox="0 0 1136 264" fill="none" xmlns="http://www.w3.org/2000/svg">
<rect x="0.5" y="0.5" width="1135" height="263" rx="2.5" fill="white" stroke="#C7C7C7"/>
<rect x="64" y="228" width="1008" height="24" fill="#E0E0E0"/>
<rect x="64" y="188" width="1008" height="24" fill="#E0E0E0"/>
<rect x="64" y="136" width="504" height="36" fill="#E0E0E0"/>
<rect width="1136" height="72" fill="#151515"/>
<g filter="url(#filter0_d_16_2004)">
<mask id="path-6-inside-1_16_2004" fill="white">
<path d="M608 48H1088V184H608V48Z"/>
</mask>
<path d="M608 48H1088V184H608V48Z" fill="white" shape-rendering="crispEdges"/>
<path d="M608 50H1088V46H608V50Z" fill="#9E4A06" mask="url(#path-6-inside-1_16_2004)"/>
<g clip-path="url(#clip0_16_2004)">
<path d="M632 68.5C627.59 68.5 624 72.09 624 76.5C624 80.91 627.59 84.5 632 84.5C636.41 84.5 640 80.91 640 76.5C640 72.09 636.41 68.5 632 68.5ZM631.375 73C631.375 72.655 631.655 72.375 632 72.375C632.345 72.375 632.625 72.655 632.625 73V77C632.625 77.345 632.345 77.625 632 77.625C631.655 77.625 631.375 77.345 631.375 77V73ZM632 81.255C631.585 81.255 631.25 80.92 631.25 80.505C631.25 80.09 631.585 79.755 632 79.755C632.415 79.755 632.75 80.09 632.75 80.505C632.75 80.92 632.415 81.255 632 81.255Z" fill="#B1380B"/>
</g>
<path d="M649.176 81V71.2H656.19V72.628H650.856V75.358H654.58V76.758H650.856V79.572H656.246V81H649.176ZM657.949 81V73.986H659.531V75.498C659.736 74.966 660.002 74.56 660.329 74.28C660.655 74 661.033 73.86 661.463 73.86C661.593 73.8693 661.71 73.8833 661.813 73.902C661.915 73.9113 662.027 73.944 662.149 74V75.386C662.027 75.33 661.887 75.288 661.729 75.26C661.579 75.232 661.43 75.218 661.281 75.218C660.898 75.218 660.553 75.3207 660.245 75.526C659.946 75.7313 659.708 76.016 659.531 76.38V81H657.949ZM663.445 81V73.986H665.027V75.498C665.232 74.966 665.498 74.56 665.825 74.28C666.152 74 666.53 73.86 666.959 73.86C667.09 73.8693 667.206 73.8833 667.309 73.902C667.412 73.9113 667.524 73.944 667.645 74V75.386C667.524 75.33 667.384 75.288 667.225 75.26C667.076 75.232 666.926 75.218 666.777 75.218C666.394 75.218 666.049 75.3207 665.741 75.526C665.442 75.7313 665.204 76.016 665.027 76.38V81H663.445ZM671.819 81.126C671.156 81.126 670.554 80.9673 670.013 80.65C669.481 80.3327 669.061 79.9033 668.753 79.362C668.445 78.8113 668.291 78.1907 668.291 77.5C668.291 76.8093 668.445 76.1933 668.753 75.652C669.061 75.1013 669.481 74.6673 670.013 74.35C670.545 74.0327 671.147 73.874 671.819 73.874C672.491 73.874 673.088 74.0327 673.611 74.35C674.143 74.6673 674.563 75.1013 674.871 75.652C675.179 76.1933 675.333 76.8093 675.333 77.5C675.333 78.1907 675.179 78.8113 674.871 79.362C674.563 79.9033 674.143 80.3327 673.611 80.65C673.088 80.9673 672.491 81.126 671.819 81.126ZM671.819 79.782C672.201 79.782 672.537 79.684 672.827 79.488C673.125 79.292 673.359 79.0213 673.527 78.676C673.695 78.3213 673.779 77.9293 673.779 77.5C673.779 77.0613 673.695 76.674 673.527 76.338C673.359 75.9927 673.125 75.722 672.827 75.526C672.537 75.3207 672.201 75.218 671.819 75.218C671.436 75.218 671.095 75.3207 670.797 75.526C670.498 75.722 670.265 75.9927 670.097 76.338C669.929 76.674 669.845 77.0613 669.845 77.5C669.845 77.9387 669.929 78.3307 670.097 78.676C670.265 79.0213 670.498 79.292 670.797 79.488C671.095 79.684 671.436 79.782 671.819 79.782ZM676.966 81V73.986H678.548V75.498C678.754 74.966 679.02 74.56 679.346 74.28C679.673 74 680.051 73.86 680.48 73.86C680.611 73.8693 680.728 73.8833 680.83 73.902C680.933 73.9113 681.045 73.944 681.166 74V75.386C681.045 75.33 680.905 75.288 680.746 75.26C680.597 75.232 680.448 75.218 680.298 75.218C679.916 75.218 679.57 75.3207 679.262 75.526C678.964 75.7313 678.726 76.016 678.548 76.38V81H676.966Z" fill="#151515"/>
<g clip-path="url(#clip1_16_2004)">
<path d="M1066.95 72L1070.68 68.2773C1070.94 68.0136 1070.94 67.5864 1070.68 67.3228C1070.41 67.0591 1069.99 67.0591 1069.72 67.3228L1066 71.0452L1062.28 67.3228C1062.01 67.0591 1061.59 67.0591 1061.32 67.3228C1061.06 67.5865 1061.06 68.0136 1061.32 68.2773L1065.05 72L1061.32 75.7225C1061.06 75.9862 1061.06 76.4139 1061.32 76.6776C1061.45 76.8094 1061.63 76.875 1061.8 76.875C1061.97 76.875 1062.15 76.8094 1062.28 76.6776L1066 72.9548L1069.72 76.6776C1069.85 76.8094 1070.03 76.875 1070.2 76.875C1070.37 76.875 1070.55 76.8094 1070.68 76.6776C1070.94 76.4139 1070.94 75.9862 1070.68 75.7225L1066.95 72Z" fill="#151515"/>
</g>
<path d="M651.976 110V105.996L648.168 100.2H649.428L652.55 105.058L655.686 100.2H656.876L653.054 106.024V110H651.976ZM659.662 110.112C659.027 110.112 658.458 109.958 657.954 109.65C657.45 109.342 657.053 108.922 656.764 108.39C656.475 107.858 656.33 107.256 656.33 106.584C656.33 105.912 656.475 105.31 656.764 104.778C657.053 104.246 657.45 103.826 657.954 103.518C658.458 103.21 659.027 103.056 659.662 103.056C660.287 103.056 660.847 103.21 661.342 103.518C661.846 103.826 662.243 104.246 662.532 104.778C662.821 105.31 662.966 105.912 662.966 106.584C662.966 107.256 662.821 107.858 662.532 108.39C662.243 108.922 661.846 109.342 661.342 109.65C660.847 109.958 660.287 110.112 659.662 110.112ZM659.648 109.216C660.096 109.216 660.493 109.104 660.838 108.88C661.183 108.647 661.454 108.329 661.65 107.928C661.855 107.527 661.958 107.079 661.958 106.584C661.958 106.08 661.855 105.632 661.65 105.24C661.454 104.839 661.183 104.526 660.838 104.302C660.493 104.069 660.096 103.952 659.648 103.952C659.2 103.952 658.803 104.069 658.458 104.302C658.113 104.526 657.837 104.839 657.632 105.24C657.436 105.632 657.338 106.08 657.338 106.584C657.338 107.079 657.436 107.527 657.632 107.928C657.837 108.329 658.113 108.647 658.458 108.88C658.803 109.104 659.2 109.216 659.648 109.216ZM667.195 110.112C666.71 110.112 666.28 110.005 665.907 109.79C665.534 109.575 665.24 109.277 665.025 108.894C664.82 108.511 664.717 108.073 664.717 107.578V103.168H665.753V107.284C665.753 107.891 665.916 108.371 666.243 108.726C666.57 109.081 667.013 109.258 667.573 109.258C667.956 109.258 668.296 109.169 668.595 108.992C668.903 108.815 669.16 108.558 669.365 108.222V103.168H670.387V110H669.365V108.894C669.104 109.295 668.791 109.599 668.427 109.804C668.072 110.009 667.662 110.112 667.195 110.112ZM672.484 110V103.168H673.506V104.568C673.683 104.092 673.935 103.723 674.262 103.462C674.598 103.191 674.98 103.056 675.41 103.056C675.531 103.056 675.643 103.065 675.746 103.084C675.848 103.093 675.951 103.117 676.054 103.154V104.078C675.942 104.041 675.82 104.013 675.69 103.994C675.568 103.966 675.452 103.952 675.34 103.952C674.92 103.952 674.551 104.073 674.234 104.316C673.926 104.559 673.683 104.899 673.506 105.338V110H672.484ZM682.787 110.126C682.302 110.126 681.872 110.037 681.499 109.86C681.126 109.683 680.832 109.44 680.617 109.132C680.412 108.815 680.309 108.451 680.309 108.04C680.309 107.629 680.416 107.275 680.631 106.976C680.846 106.668 681.144 106.43 681.527 106.262C681.91 106.094 682.358 106.01 682.871 106.01C683.263 106.01 683.632 106.052 683.977 106.136C684.332 106.22 684.658 106.355 684.957 106.542V105.604C684.957 105.044 684.808 104.624 684.509 104.344C684.21 104.055 683.772 103.91 683.193 103.91C682.876 103.91 682.549 103.957 682.213 104.05C681.886 104.143 681.522 104.293 681.121 104.498L680.743 103.714C681.658 103.275 682.516 103.056 683.319 103.056C684.168 103.056 684.822 103.266 685.279 103.686C685.736 104.097 685.965 104.689 685.965 105.464V110H684.957V109.202C684.658 109.51 684.327 109.743 683.963 109.902C683.599 110.051 683.207 110.126 682.787 110.126ZM681.289 108.012C681.289 108.413 681.443 108.735 681.751 108.978C682.068 109.221 682.484 109.342 682.997 109.342C683.38 109.342 683.73 109.277 684.047 109.146C684.374 109.015 684.677 108.819 684.957 108.558V107.242C684.668 107.074 684.369 106.953 684.061 106.878C683.753 106.794 683.408 106.752 683.025 106.752C682.502 106.752 682.082 106.869 681.765 107.102C681.448 107.326 681.289 107.629 681.289 108.012ZM691.108 110.112C690.474 110.112 689.9 109.958 689.386 109.65C688.882 109.333 688.481 108.908 688.182 108.376C687.884 107.835 687.734 107.237 687.734 106.584C687.734 105.921 687.884 105.324 688.182 104.792C688.481 104.26 688.882 103.84 689.386 103.532C689.9 103.215 690.474 103.056 691.108 103.056C691.612 103.056 692.093 103.149 692.55 103.336C693.008 103.523 693.404 103.784 693.74 104.12L693.082 104.834C692.84 104.563 692.546 104.353 692.2 104.204C691.855 104.055 691.505 103.98 691.15 103.98C690.702 103.98 690.296 104.097 689.932 104.33C689.578 104.563 689.293 104.876 689.078 105.268C688.864 105.66 688.756 106.099 688.756 106.584C688.756 107.069 688.864 107.508 689.078 107.9C689.293 108.292 689.578 108.605 689.932 108.838C690.296 109.071 690.702 109.188 691.15 109.188C691.505 109.188 691.855 109.113 692.2 108.964C692.546 108.805 692.84 108.595 693.082 108.334L693.74 109.048C693.404 109.384 693.008 109.645 692.55 109.832C692.093 110.019 691.612 110.112 691.108 110.112ZM698.026 110.112C697.391 110.112 696.817 109.958 696.304 109.65C695.8 109.333 695.399 108.908 695.1 108.376C694.801 107.835 694.652 107.237 694.652 106.584C694.652 105.921 694.801 105.324 695.1 104.792C695.399 104.26 695.8 103.84 696.304 103.532C696.817 103.215 697.391 103.056 698.026 103.056C698.53 103.056 699.011 103.149 699.468 103.336C699.925 103.523 700.322 103.784 700.658 104.12L700 104.834C699.757 104.563 699.463 104.353 699.118 104.204C698.773 104.055 698.423 103.98 698.068 103.98C697.62 103.98 697.214 104.097 696.85 104.33C696.495 104.563 696.211 104.876 695.996 105.268C695.781 105.66 695.674 106.099 695.674 106.584C695.674 107.069 695.781 107.508 695.996 107.9C696.211 108.292 696.495 108.605 696.85 108.838C697.214 109.071 697.62 109.188 698.068 109.188C698.423 109.188 698.773 109.113 699.118 108.964C699.463 108.805 699.757 108.595 700 108.334L700.658 109.048C700.322 109.384 699.925 109.645 699.468 109.832C699.011 110.019 698.53 110.112 698.026 110.112ZM704.902 110.112C704.267 110.112 703.698 109.958 703.194 109.65C702.69 109.342 702.293 108.922 702.004 108.39C701.715 107.858 701.57 107.256 701.57 106.584C701.57 105.912 701.715 105.31 702.004 104.778C702.293 104.246 702.69 103.826 703.194 103.518C703.698 103.21 704.267 103.056 704.902 103.056C705.527 103.056 706.087 103.21 706.582 103.518C707.086 103.826 707.483 104.246 707.772 104.778C708.061 105.31 708.206 105.912 708.206 106.584C708.206 107.256 708.061 107.858 707.772 108.39C707.483 108.922 707.086 109.342 706.582 109.65C706.087 109.958 705.527 110.112 704.902 110.112ZM704.888 109.216C705.336 109.216 705.733 109.104 706.078 108.88C706.423 108.647 706.694 108.329 706.89 107.928C707.095 107.527 707.198 107.079 707.198 106.584C707.198 106.08 707.095 105.632 706.89 105.24C706.694 104.839 706.423 104.526 706.078 104.302C705.733 104.069 705.336 103.952 704.888 103.952C704.44 103.952 704.043 104.069 703.698 104.302C703.353 104.526 703.077 104.839 702.872 105.24C702.676 105.632 702.578 106.08 702.578 106.584C702.578 107.079 702.676 107.527 702.872 107.928C703.077 108.329 703.353 108.647 703.698 108.88C704.043 109.104 704.44 109.216 704.888 109.216ZM712.435 110.112C711.95 110.112 711.521 110.005 711.147 109.79C710.774 109.575 710.48 109.277 710.265 108.894C710.06 108.511 709.957 108.073 709.957 107.578V103.168H710.993V107.284C710.993 107.891 711.157 108.371 711.483 108.726C711.81 109.081 712.253 109.258 712.813 109.258C713.196 109.258 713.537 109.169 713.835 108.992C714.143 108.815 714.4 108.558 714.605 108.222V103.168H715.627V110H714.605V108.894C714.344 109.295 714.031 109.599 713.667 109.804C713.313 110.009 712.902 110.112 712.435 110.112ZM717.724 110V103.168H718.746V104.274C719.007 103.863 719.32 103.56 719.684 103.364C720.048 103.159 720.458 103.056 720.916 103.056C721.41 103.056 721.84 103.163 722.204 103.378C722.577 103.583 722.866 103.877 723.072 104.26C723.286 104.633 723.394 105.072 723.394 105.576V110H722.372V105.87C722.372 105.263 722.204 104.787 721.868 104.442C721.541 104.087 721.098 103.91 720.538 103.91C720.164 103.91 719.824 103.999 719.516 104.176C719.208 104.353 718.951 104.615 718.746 104.96V110H717.724ZM727.847 110.14C727.259 110.14 726.811 110 726.503 109.72C726.205 109.431 726.055 109.015 726.055 108.474V104.008H724.641V103.168H726.055V101.292L727.077 101.054V103.168H729.037V104.008H727.077V108.208C727.077 108.572 727.152 108.833 727.301 108.992C727.46 109.151 727.717 109.23 728.071 109.23C728.249 109.23 728.407 109.216 728.547 109.188C728.687 109.16 728.851 109.113 729.037 109.048V109.958C728.851 110.023 728.655 110.07 728.449 110.098C728.244 110.126 728.043 110.14 727.847 110.14ZM736.868 110.112C736.233 110.112 735.659 109.958 735.146 109.65C734.642 109.333 734.241 108.908 733.942 108.376C733.643 107.835 733.494 107.237 733.494 106.584C733.494 105.921 733.643 105.324 733.942 104.792C734.241 104.26 734.642 103.84 735.146 103.532C735.659 103.215 736.233 103.056 736.868 103.056C737.372 103.056 737.853 103.149 738.31 103.336C738.767 103.523 739.164 103.784 739.5 104.12L738.842 104.834C738.599 104.563 738.305 104.353 737.96 104.204C737.615 104.055 737.265 103.98 736.91 103.98C736.462 103.98 736.056 104.097 735.692 104.33C735.337 104.563 735.053 104.876 734.838 105.268C734.623 105.66 734.516 106.099 734.516 106.584C734.516 107.069 734.623 107.508 734.838 107.9C735.053 108.292 735.337 108.605 735.692 108.838C736.056 109.071 736.462 109.188 736.91 109.188C737.265 109.188 737.615 109.113 737.96 108.964C738.305 108.805 738.599 108.595 738.842 108.334L739.5 109.048C739.164 109.384 738.767 109.645 738.31 109.832C737.853 110.019 737.372 110.112 736.868 110.112ZM743.039 110.126C742.554 110.126 742.124 110.037 741.751 109.86C741.378 109.683 741.084 109.44 740.869 109.132C740.664 108.815 740.561 108.451 740.561 108.04C740.561 107.629 740.668 107.275 740.883 106.976C741.098 106.668 741.396 106.43 741.779 106.262C742.162 106.094 742.61 106.01 743.123 106.01C743.515 106.01 743.884 106.052 744.229 106.136C744.584 106.22 744.91 106.355 745.209 106.542V105.604C745.209 105.044 745.06 104.624 744.761 104.344C744.462 104.055 744.024 103.91 743.445 103.91C743.128 103.91 742.801 103.957 742.465 104.05C742.138 104.143 741.774 104.293 741.373 104.498L740.995 103.714C741.91 103.275 742.768 103.056 743.571 103.056C744.42 103.056 745.074 103.266 745.531 103.686C745.988 104.097 746.217 104.689 746.217 105.464V110H745.209V109.202C744.91 109.51 744.579 109.743 744.215 109.902C743.851 110.051 743.459 110.126 743.039 110.126ZM741.541 108.012C741.541 108.413 741.695 108.735 742.003 108.978C742.32 109.221 742.736 109.342 743.249 109.342C743.632 109.342 743.982 109.277 744.299 109.146C744.626 109.015 744.929 108.819 745.209 108.558V107.242C744.92 107.074 744.621 106.953 744.313 106.878C744.005 106.794 743.66 106.752 743.277 106.752C742.754 106.752 742.334 106.869 742.017 107.102C741.7 107.326 741.541 107.629 741.541 108.012ZM748.294 110V103.168H749.316V104.274C749.577 103.863 749.89 103.56 750.254 103.364C750.618 103.159 751.029 103.056 751.486 103.056C751.981 103.056 752.41 103.163 752.774 103.378C753.147 103.583 753.437 103.877 753.642 104.26C753.857 104.633 753.964 105.072 753.964 105.576V110H752.942V105.87C752.942 105.263 752.774 104.787 752.438 104.442C752.111 104.087 751.668 103.91 751.108 103.91C750.735 103.91 750.394 103.999 750.086 104.176C749.778 104.353 749.521 104.615 749.316 104.96V110H748.294ZM756.019 110V103.168H757.041V104.274C757.302 103.863 757.615 103.56 757.979 103.364C758.343 103.159 758.753 103.056 759.211 103.056C759.705 103.056 760.135 103.163 760.499 103.378C760.872 103.583 761.161 103.877 761.367 104.26C761.581 104.633 761.689 105.072 761.689 105.576V110H760.667V105.87C760.667 105.263 760.499 104.787 760.163 104.442C759.836 104.087 759.393 103.91 758.833 103.91C758.459 103.91 758.119 103.999 757.811 104.176C757.503 104.353 757.246 104.615 757.041 104.96V110H756.019ZM766.767 110.112C766.133 110.112 765.563 109.958 765.059 109.65C764.555 109.342 764.159 108.922 763.869 108.39C763.58 107.858 763.435 107.256 763.435 106.584C763.435 105.912 763.58 105.31 763.869 104.778C764.159 104.246 764.555 103.826 765.059 103.518C765.563 103.21 766.133 103.056 766.767 103.056C767.393 103.056 767.953 103.21 768.447 103.518C768.951 103.826 769.348 104.246 769.637 104.778C769.927 105.31 770.071 105.912 770.071 106.584C770.071 107.256 769.927 107.858 769.637 108.39C769.348 108.922 768.951 109.342 768.447 109.65C767.953 109.958 767.393 110.112 766.767 110.112ZM766.753 109.216C767.201 109.216 767.598 109.104 767.943 108.88C768.289 108.647 768.559 108.329 768.755 107.928C768.961 107.527 769.063 107.079 769.063 106.584C769.063 106.08 768.961 105.632 768.755 105.24C768.559 104.839 768.289 104.526 767.943 104.302C767.598 104.069 767.201 103.952 766.753 103.952C766.305 103.952 765.909 104.069 765.563 104.302C765.218 104.526 764.943 104.839 764.737 105.24C764.541 105.632 764.443 106.08 764.443 106.584C764.443 107.079 764.541 107.527 764.737 107.928C764.943 108.329 765.218 108.647 765.563 108.88C765.909 109.104 766.305 109.216 766.753 109.216ZM774.045 110.14C773.457 110.14 773.009 110 772.701 109.72C772.402 109.431 772.253 109.015 772.253 108.474V104.008H770.839V103.168H772.253V101.292L773.275 101.054V103.168H775.235V104.008H773.275V108.208C773.275 108.572 773.349 108.833 773.499 108.992C773.657 109.151 773.914 109.23 774.269 109.23C774.446 109.23 774.605 109.216 774.745 109.188C774.885 109.16 775.048 109.113 775.235 109.048V109.958C775.048 110.023 774.852 110.07 774.647 110.098C774.441 110.126 774.241 110.14 774.045 110.14ZM779.999 110V99.99L781.021 99.78V104.106C781.283 103.779 781.6 103.527 781.973 103.35C782.347 103.173 782.762 103.084 783.219 103.084C783.817 103.084 784.349 103.243 784.815 103.56C785.291 103.868 785.669 104.288 785.949 104.82C786.229 105.343 786.369 105.931 786.369 106.584C786.369 107.237 786.225 107.83 785.935 108.362C785.655 108.894 785.273 109.319 784.787 109.636C784.311 109.944 783.77 110.098 783.163 110.098C782.734 110.098 782.333 110.014 781.959 109.846C781.595 109.669 781.278 109.421 781.007 109.104V110H779.999ZM782.967 109.216C783.425 109.216 783.831 109.104 784.185 108.88C784.549 108.647 784.834 108.334 785.039 107.942C785.254 107.541 785.361 107.093 785.361 106.598C785.361 106.094 785.254 105.646 785.039 105.254C784.834 104.862 784.549 104.554 784.185 104.33C783.831 104.097 783.425 103.98 782.967 103.98C782.566 103.98 782.193 104.064 781.847 104.232C781.511 104.391 781.236 104.619 781.021 104.918V108.264C781.245 108.563 781.525 108.796 781.861 108.964C782.207 109.132 782.575 109.216 782.967 109.216ZM791.241 110.14C790.607 110.14 790.033 109.986 789.519 109.678C789.006 109.361 788.6 108.936 788.301 108.404C788.003 107.863 787.853 107.256 787.853 106.584C787.853 105.912 787.993 105.31 788.273 104.778C788.563 104.246 788.95 103.826 789.435 103.518C789.921 103.21 790.462 103.056 791.059 103.056C791.666 103.056 792.203 103.21 792.669 103.518C793.145 103.817 793.519 104.227 793.789 104.75C794.069 105.263 794.209 105.847 794.209 106.5V106.808H788.847C788.885 107.275 789.011 107.695 789.225 108.068C789.449 108.432 789.739 108.721 790.093 108.936C790.457 109.141 790.854 109.244 791.283 109.244C791.638 109.244 791.979 109.183 792.305 109.062C792.641 108.931 792.926 108.759 793.159 108.544L793.803 109.23C793.411 109.538 793.005 109.767 792.585 109.916C792.165 110.065 791.717 110.14 791.241 110.14ZM788.875 106.08H793.201C793.155 105.669 793.029 105.305 792.823 104.988C792.627 104.661 792.375 104.405 792.067 104.218C791.769 104.031 791.433 103.938 791.059 103.938C790.686 103.938 790.345 104.031 790.037 104.218C789.729 104.395 789.473 104.647 789.267 104.974C789.071 105.291 788.941 105.66 788.875 106.08ZM801.658 110.112C801.173 110.112 800.743 110.005 800.37 109.79C799.997 109.575 799.703 109.277 799.488 108.894C799.283 108.511 799.18 108.073 799.18 107.578V103.168H800.216V107.284C800.216 107.891 800.379 108.371 800.706 108.726C801.033 109.081 801.476 109.258 802.036 109.258C802.419 109.258 802.759 109.169 803.058 108.992C803.366 108.815 803.623 108.558 803.828 108.222V103.168H804.85V110H803.828V108.894C803.567 109.295 803.254 109.599 802.89 109.804C802.535 110.009 802.125 110.112 801.658 110.112ZM806.946 112.926V103.168H807.954V104.148C808.216 103.803 808.533 103.541 808.906 103.364C809.289 103.177 809.709 103.084 810.166 103.084C810.764 103.084 811.296 103.243 811.762 103.56C812.238 103.868 812.616 104.288 812.896 104.82C813.176 105.343 813.316 105.931 813.316 106.584C813.316 107.237 813.172 107.83 812.882 108.362C812.602 108.894 812.22 109.319 811.734 109.636C811.258 109.944 810.717 110.098 810.11 110.098C809.681 110.098 809.284 110.019 808.92 109.86C808.556 109.692 808.239 109.454 807.968 109.146V112.926H806.946ZM809.914 109.216C810.372 109.216 810.778 109.104 811.132 108.88C811.496 108.647 811.781 108.334 811.986 107.942C812.201 107.541 812.308 107.093 812.308 106.598C812.308 106.094 812.201 105.646 811.986 105.254C811.781 104.862 811.496 104.554 811.132 104.33C810.778 104.097 810.372 103.98 809.914 103.98C809.513 103.98 809.14 104.064 808.794 104.232C808.458 104.391 808.183 104.619 807.968 104.918V108.264C808.192 108.563 808.472 108.796 808.808 108.964C809.154 109.132 809.522 109.216 809.914 109.216ZM817.951 110.098C817.363 110.098 816.831 109.944 816.355 109.636C815.879 109.319 815.501 108.899 815.221 108.376C814.941 107.844 814.801 107.251 814.801 106.598C814.801 105.935 814.941 105.343 815.221 104.82C815.51 104.288 815.897 103.868 816.383 103.56C816.868 103.243 817.409 103.084 818.007 103.084C818.427 103.084 818.819 103.168 819.183 103.336C819.547 103.495 819.864 103.728 820.135 104.036V99.892L821.157 99.682V110H820.135V109.09C819.873 109.417 819.556 109.669 819.183 109.846C818.809 110.014 818.399 110.098 817.951 110.098ZM818.203 109.202C818.604 109.202 818.973 109.123 819.309 108.964C819.645 108.805 819.92 108.581 820.135 108.292V104.904C819.911 104.615 819.626 104.391 819.281 104.232C818.945 104.064 818.585 103.98 818.203 103.98C817.745 103.98 817.335 104.092 816.971 104.316C816.616 104.54 816.331 104.848 816.117 105.24C815.911 105.632 815.809 106.08 815.809 106.584C815.809 107.079 815.911 107.527 816.117 107.928C816.331 108.32 816.616 108.633 816.971 108.866C817.335 109.09 817.745 109.202 818.203 109.202ZM825.371 110.126C824.886 110.126 824.456 110.037 824.083 109.86C823.71 109.683 823.416 109.44 823.201 109.132C822.996 108.815 822.893 108.451 822.893 108.04C822.893 107.629 823 107.275 823.215 106.976C823.43 106.668 823.728 106.43 824.111 106.262C824.494 106.094 824.942 106.01 825.455 106.01C825.847 106.01 826.216 106.052 826.561 106.136C826.916 106.22 827.242 106.355 827.541 106.542V105.604C827.541 105.044 827.392 104.624 827.093 104.344C826.794 104.055 826.356 103.91 825.777 103.91C825.46 103.91 825.133 103.957 824.797 104.05C824.47 104.143 824.106 104.293 823.705 104.498L823.327 103.714C824.242 103.275 825.1 103.056 825.903 103.056C826.752 103.056 827.406 103.266 827.863 103.686C828.32 104.097 828.549 104.689 828.549 105.464V110H827.541V109.202C827.242 109.51 826.911 109.743 826.547 109.902C826.183 110.051 825.791 110.126 825.371 110.126ZM823.873 108.012C823.873 108.413 824.027 108.735 824.335 108.978C824.652 109.221 825.068 109.342 825.581 109.342C825.964 109.342 826.314 109.277 826.631 109.146C826.958 109.015 827.261 108.819 827.541 108.558V107.242C827.252 107.074 826.953 106.953 826.645 106.878C826.337 106.794 825.992 106.752 825.609 106.752C825.086 106.752 824.666 106.869 824.349 107.102C824.032 107.326 823.873 107.629 823.873 108.012ZM833.025 110.14C832.437 110.14 831.989 110 831.681 109.72C831.382 109.431 831.233 109.015 831.233 108.474V104.008H829.819V103.168H831.233V101.292L832.255 101.054V103.168H834.215V104.008H832.255V108.208C832.255 108.572 832.33 108.833 832.479 108.992C832.638 109.151 832.894 109.23 833.249 109.23C833.426 109.23 833.585 109.216 833.725 109.188C833.865 109.16 834.028 109.113 834.215 109.048V109.958C834.028 110.023 833.832 110.07 833.627 110.098C833.422 110.126 833.221 110.14 833.025 110.14ZM838.655 110.14C838.021 110.14 837.447 109.986 836.933 109.678C836.42 109.361 836.014 108.936 835.715 108.404C835.417 107.863 835.267 107.256 835.267 106.584C835.267 105.912 835.407 105.31 835.687 104.778C835.977 104.246 836.364 103.826 836.849 103.518C837.335 103.21 837.876 103.056 838.473 103.056C839.08 103.056 839.617 103.21 840.083 103.518C840.559 103.817 840.933 104.227 841.203 104.75C841.483 105.263 841.623 105.847 841.623 106.5V106.808H836.261C836.299 107.275 836.425 107.695 836.639 108.068C836.863 108.432 837.153 108.721 837.507 108.936C837.871 109.141 838.268 109.244 838.697 109.244C839.052 109.244 839.393 109.183 839.719 109.062C840.055 108.931 840.34 108.759 840.573 108.544L841.217 109.23C840.825 109.538 840.419 109.767 839.999 109.916C839.579 110.065 839.131 110.14 838.655 110.14ZM836.289 106.08H840.615C840.569 105.669 840.443 105.305 840.237 104.988C840.041 104.661 839.789 104.405 839.481 104.218C839.183 104.031 838.847 103.938 838.473 103.938C838.1 103.938 837.759 104.031 837.451 104.218C837.143 104.395 836.887 104.647 836.681 104.974C836.485 105.291 836.355 105.66 836.289 106.08ZM846.21 110.098C845.622 110.098 845.09 109.944 844.614 109.636C844.138 109.319 843.76 108.899 843.48 108.376C843.2 107.844 843.06 107.251 843.06 106.598C843.06 105.935 843.2 105.343 843.48 104.82C843.77 104.288 844.157 103.868 844.642 103.56C845.128 103.243 845.669 103.084 846.266 103.084C846.686 103.084 847.078 103.168 847.442 103.336C847.806 103.495 848.124 103.728 848.394 104.036V99.892L849.416 99.682V110H848.394V109.09C848.133 109.417 847.816 109.669 847.442 109.846C847.069 110.014 846.658 110.098 846.21 110.098ZM846.462 109.202C846.864 109.202 847.232 109.123 847.568 108.964C847.904 108.805 848.18 108.581 848.394 108.292V104.904C848.17 104.615 847.886 104.391 847.54 104.232C847.204 104.064 846.845 103.98 846.462 103.98C846.005 103.98 845.594 104.092 845.23 104.316C844.876 104.54 844.591 104.848 844.376 105.24C844.171 105.632 844.068 106.08 844.068 106.584C844.068 107.079 844.171 107.527 844.376 107.928C844.591 108.32 844.876 108.633 845.23 108.866C845.594 109.09 846.005 109.202 846.462 109.202ZM857.626 110.098C857.038 110.098 856.506 109.944 856.03 109.636C855.554 109.319 855.176 108.899 854.896 108.376C854.616 107.844 854.476 107.251 854.476 106.598C854.476 105.935 854.616 105.343 854.896 104.82C855.186 104.288 855.573 103.868 856.058 103.56C856.544 103.243 857.085 103.084 857.682 103.084C858.102 103.084 858.494 103.168 858.858 103.336C859.222 103.495 859.54 103.728 859.81 104.036V99.892L860.832 99.682V110H859.81V109.09C859.549 109.417 859.232 109.669 858.858 109.846C858.485 110.014 858.074 110.098 857.626 110.098ZM857.878 109.202C858.28 109.202 858.648 109.123 858.984 108.964C859.32 108.805 859.596 108.581 859.81 108.292V104.904C859.586 104.615 859.302 104.391 858.956 104.232C858.62 104.064 858.261 103.98 857.878 103.98C857.421 103.98 857.01 104.092 856.646 104.316C856.292 104.54 856.007 104.848 855.792 105.24C855.587 105.632 855.484 106.08 855.484 106.584C855.484 107.079 855.587 107.527 855.792 107.928C856.007 108.32 856.292 108.633 856.646 108.866C857.01 109.09 857.421 109.202 857.878 109.202ZM865.369 110.112C864.883 110.112 864.454 110.005 864.081 109.79C863.707 109.575 863.413 109.277 863.199 108.894C862.993 108.511 862.891 108.073 862.891 107.578V103.168H863.927V107.284C863.927 107.891 864.09 108.371 864.417 108.726C864.743 109.081 865.187 109.258 865.747 109.258C866.129 109.258 866.47 109.169 866.769 108.992C867.077 108.815 867.333 108.558 867.539 108.222V103.168H868.561V110H867.539V108.894C867.277 109.295 866.965 109.599 866.601 109.804C866.246 110.009 865.835 110.112 865.369 110.112ZM873.737 110.14C873.103 110.14 872.529 109.986 872.015 109.678C871.502 109.361 871.096 108.936 870.797 108.404C870.499 107.863 870.349 107.256 870.349 106.584C870.349 105.912 870.489 105.31 870.769 104.778C871.059 104.246 871.446 103.826 871.931 103.518C872.417 103.21 872.958 103.056 873.555 103.056C874.162 103.056 874.699 103.21 875.165 103.518C875.641 103.817 876.015 104.227 876.285 104.75C876.565 105.263 876.705 105.847 876.705 106.5V106.808H871.343C871.381 107.275 871.507 107.695 871.721 108.068C871.945 108.432 872.235 108.721 872.589 108.936C872.953 109.141 873.35 109.244 873.779 109.244C874.134 109.244 874.475 109.183 874.801 109.062C875.137 108.931 875.422 108.759 875.655 108.544L876.299 109.23C875.907 109.538 875.501 109.767 875.081 109.916C874.661 110.065 874.213 110.14 873.737 110.14ZM871.371 106.08H875.697C875.651 105.669 875.525 105.305 875.319 104.988C875.123 104.661 874.871 104.405 874.563 104.218C874.265 104.031 873.929 103.938 873.555 103.938C873.182 103.938 872.841 104.031 872.533 104.218C872.225 104.395 871.969 104.647 871.763 104.974C871.567 105.291 871.437 105.66 871.371 106.08ZM884.322 110.14C883.734 110.14 883.286 110 882.978 109.72C882.679 109.431 882.53 109.015 882.53 108.474V104.008H881.116V103.168H882.53V101.292L883.552 101.054V103.168H885.512V104.008H883.552V108.208C883.552 108.572 883.627 108.833 883.776 108.992C883.935 109.151 884.191 109.23 884.546 109.23C884.723 109.23 884.882 109.216 885.022 109.188C885.162 109.16 885.325 109.113 885.512 109.048V109.958C885.325 110.023 885.129 110.07 884.924 110.098C884.719 110.126 884.518 110.14 884.322 110.14ZM889.896 110.112C889.262 110.112 888.692 109.958 888.188 109.65C887.684 109.342 887.288 108.922 886.998 108.39C886.709 107.858 886.564 107.256 886.564 106.584C886.564 105.912 886.709 105.31 886.998 104.778C887.288 104.246 887.684 103.826 888.188 103.518C888.692 103.21 889.262 103.056 889.896 103.056C890.522 103.056 891.082 103.21 891.576 103.518C892.08 103.826 892.477 104.246 892.766 104.778C893.056 105.31 893.2 105.912 893.2 106.584C893.2 107.256 893.056 107.858 892.766 108.39C892.477 108.922 892.08 109.342 891.576 109.65C891.082 109.958 890.522 110.112 889.896 110.112ZM889.882 109.216C890.33 109.216 890.727 109.104 891.072 108.88C891.418 108.647 891.688 108.329 891.884 107.928C892.09 107.527 892.192 107.079 892.192 106.584C892.192 106.08 892.09 105.632 891.884 105.24C891.688 104.839 891.418 104.526 891.072 104.302C890.727 104.069 890.33 103.952 889.882 103.952C889.434 103.952 889.038 104.069 888.692 104.302C888.347 104.526 888.072 104.839 887.866 105.24C887.67 105.632 887.572 106.08 887.572 106.584C887.572 107.079 887.67 107.527 887.866 107.928C888.072 108.329 888.347 108.647 888.692 108.88C889.038 109.104 889.434 109.216 889.882 109.216ZM900.375 110.126C899.89 110.126 899.46 110.037 899.087 109.86C898.714 109.683 898.42 109.44 898.205 109.132C898 108.815 897.897 108.451 897.897 108.04C897.897 107.629 898.004 107.275 898.219 106.976C898.434 106.668 898.732 106.43 899.115 106.262C899.498 106.094 899.946 106.01 900.459 106.01C900.851 106.01 901.22 106.052 901.565 106.136C901.92 106.22 902.246 106.355 902.545 106.542V105.604C902.545 105.044 902.396 104.624 902.097 104.344C901.798 104.055 901.36 103.91 900.781 103.91C900.464 103.91 900.137 103.957 899.801 104.05C899.474 104.143 899.11 104.293 898.709 104.498L898.331 103.714C899.246 103.275 900.104 103.056 900.907 103.056C901.756 103.056 902.41 103.266 902.867 103.686C903.324 104.097 903.553 104.689 903.553 105.464V110H902.545V109.202C902.246 109.51 901.915 109.743 901.551 109.902C901.187 110.051 900.795 110.126 900.375 110.126ZM898.877 108.012C898.877 108.413 899.031 108.735 899.339 108.978C899.656 109.221 900.072 109.342 900.585 109.342C900.968 109.342 901.318 109.277 901.635 109.146C901.962 109.015 902.265 108.819 902.545 108.558V107.242C902.256 107.074 901.957 106.953 901.649 106.878C901.341 106.794 900.996 106.752 900.613 106.752C900.09 106.752 899.67 106.869 899.353 107.102C899.036 107.326 898.877 107.629 898.877 108.012ZM911.012 110.14C910.452 110.14 909.934 110.056 909.458 109.888C908.982 109.711 908.576 109.459 908.24 109.132L908.786 108.46C909.196 108.759 909.574 108.978 909.92 109.118C910.265 109.249 910.62 109.314 910.984 109.314C911.478 109.314 911.889 109.197 912.216 108.964C912.542 108.731 912.706 108.432 912.706 108.068C912.706 107.788 912.608 107.569 912.412 107.41C912.225 107.251 911.912 107.13 911.474 107.046L910.354 106.85C909.691 106.729 909.201 106.523 908.884 106.234C908.576 105.945 908.422 105.553 908.422 105.058C908.422 104.666 908.524 104.321 908.73 104.022C908.944 103.723 909.238 103.49 909.612 103.322C909.985 103.145 910.41 103.056 910.886 103.056C911.352 103.056 911.796 103.126 912.216 103.266C912.636 103.397 913.06 103.611 913.49 103.91L912.986 104.624C912.631 104.372 912.276 104.19 911.922 104.078C911.567 103.957 911.208 103.896 910.844 103.896C910.396 103.896 910.036 103.994 909.766 104.19C909.495 104.386 909.36 104.652 909.36 104.988C909.36 105.268 909.444 105.483 909.612 105.632C909.789 105.781 910.097 105.893 910.536 105.968L911.684 106.178C912.374 106.299 912.878 106.509 913.196 106.808C913.513 107.107 913.672 107.508 913.672 108.012C913.672 108.413 913.555 108.777 913.322 109.104C913.088 109.421 912.771 109.673 912.37 109.86C911.968 110.047 911.516 110.14 911.012 110.14ZM918.376 110.14C917.741 110.14 917.167 109.986 916.654 109.678C916.141 109.361 915.735 108.936 915.436 108.404C915.137 107.863 914.988 107.256 914.988 106.584C914.988 105.912 915.128 105.31 915.408 104.778C915.697 104.246 916.085 103.826 916.57 103.518C917.055 103.21 917.597 103.056 918.194 103.056C918.801 103.056 919.337 103.21 919.804 103.518C920.28 103.817 920.653 104.227 920.924 104.75C921.204 105.263 921.344 105.847 921.344 106.5V106.808H915.982C916.019 107.275 916.145 107.695 916.36 108.068C916.584 108.432 916.873 108.721 917.228 108.936C917.592 109.141 917.989 109.244 918.418 109.244C918.773 109.244 919.113 109.183 919.44 109.062C919.776 108.931 920.061 108.759 920.294 108.544L920.938 109.23C920.546 109.538 920.14 109.767 919.72 109.916C919.3 110.065 918.852 110.14 918.376 110.14ZM916.01 106.08H920.336C920.289 105.669 920.163 105.305 919.958 104.988C919.762 104.661 919.51 104.405 919.202 104.218C918.903 104.031 918.567 103.938 918.194 103.938C917.821 103.938 917.48 104.031 917.172 104.218C916.864 104.395 916.607 104.647 916.402 104.974C916.206 105.291 916.075 105.66 916.01 106.08ZM923.089 110V103.168H924.111V104.568C924.288 104.092 924.54 103.723 924.867 103.462C925.203 103.191 925.586 103.056 926.015 103.056C926.136 103.056 926.248 103.065 926.351 103.084C926.454 103.093 926.556 103.117 926.659 103.154V104.078C926.547 104.041 926.426 104.013 926.295 103.994C926.174 103.966 926.057 103.952 925.945 103.952C925.525 103.952 925.156 104.073 924.839 104.316C924.531 104.559 924.288 104.899 924.111 105.338V110H923.089ZM930.176 110L927.376 103.168H928.482L930.694 108.726L932.878 103.168H933.97L931.156 110H930.176ZM938.105 110.14C937.47 110.14 936.896 109.986 936.383 109.678C935.869 109.361 935.463 108.936 935.165 108.404C934.866 107.863 934.717 107.256 934.717 106.584C934.717 105.912 934.857 105.31 935.137 104.778C935.426 104.246 935.813 103.826 936.299 103.518C936.784 103.21 937.325 103.056 937.923 103.056C938.529 103.056 939.066 103.21 939.533 103.518C940.009 103.817 940.382 104.227 940.653 104.75C940.933 105.263 941.073 105.847 941.073 106.5V106.808H935.711C935.748 107.275 935.874 107.695 936.089 108.068C936.313 108.432 936.602 108.721 936.957 108.936C937.321 109.141 937.717 109.244 938.147 109.244C938.501 109.244 938.842 109.183 939.169 109.062C939.505 108.931 939.789 108.759 940.023 108.544L940.667 109.23C940.275 109.538 939.869 109.767 939.449 109.916C939.029 110.065 938.581 110.14 938.105 110.14ZM935.739 106.08H940.065C940.018 105.669 939.892 105.305 939.687 104.988C939.491 104.661 939.239 104.405 938.931 104.218C938.632 104.031 938.296 103.938 937.923 103.938C937.549 103.938 937.209 104.031 936.901 104.218C936.593 104.395 936.336 104.647 936.131 104.974C935.935 105.291 935.804 105.66 935.739 106.08ZM942.818 110V103.168H943.84V104.568C944.017 104.092 944.269 103.723 944.596 103.462C944.932 103.191 945.314 103.056 945.744 103.056C945.865 103.056 945.977 103.065 946.08 103.084C946.182 103.093 946.285 103.117 946.388 103.154V104.078C946.276 104.041 946.154 104.013 946.024 103.994C945.902 103.966 945.786 103.952 945.674 103.952C945.254 103.952 944.885 104.073 944.568 104.316C944.26 104.559 944.017 104.899 943.84 105.338V110H942.818ZM954.087 110.14C953.452 110.14 952.878 109.986 952.365 109.678C951.852 109.361 951.446 108.936 951.147 108.404C950.848 107.863 950.699 107.256 950.699 106.584C950.699 105.912 950.839 105.31 951.119 104.778C951.408 104.246 951.796 103.826 952.281 103.518C952.766 103.21 953.308 103.056 953.905 103.056C954.512 103.056 955.048 103.21 955.515 103.518C955.991 103.817 956.364 104.227 956.635 104.75C956.915 105.263 957.055 105.847 957.055 106.5V106.808H951.693C951.73 107.275 951.856 107.695 952.071 108.068C952.295 108.432 952.584 108.721 952.939 108.936C953.303 109.141 953.7 109.244 954.129 109.244C954.484 109.244 954.824 109.183 955.151 109.062C955.487 108.931 955.772 108.759 956.005 108.544L956.649 109.23C956.257 109.538 955.851 109.767 955.431 109.916C955.011 110.065 954.563 110.14 954.087 110.14ZM951.721 106.08H956.047C956 105.669 955.874 105.305 955.669 104.988C955.473 104.661 955.221 104.405 954.913 104.218C954.614 104.031 954.278 103.938 953.905 103.938C953.532 103.938 953.191 104.031 952.883 104.218C952.575 104.395 952.318 104.647 952.113 104.974C951.917 105.291 951.786 105.66 951.721 106.08ZM958.8 110V103.168H959.822V104.568C959.999 104.092 960.251 103.723 960.578 103.462C960.914 103.191 961.297 103.056 961.726 103.056C961.847 103.056 961.959 103.065 962.062 103.084C962.165 103.093 962.267 103.117 962.37 103.154V104.078C962.258 104.041 962.137 104.013 962.006 103.994C961.885 103.966 961.768 103.952 961.656 103.952C961.236 103.952 960.867 104.073 960.55 104.316C960.242 104.559 959.999 104.899 959.822 105.338V110H958.8ZM963.722 110V103.168H964.744V104.568C964.921 104.092 965.173 103.723 965.5 103.462C965.836 103.191 966.219 103.056 966.648 103.056C966.769 103.056 966.881 103.065 966.984 103.084C967.087 103.093 967.189 103.117 967.292 103.154V104.078C967.18 104.041 967.059 104.013 966.928 103.994C966.807 103.966 966.69 103.952 966.578 103.952C966.158 103.952 965.789 104.073 965.472 104.316C965.164 104.559 964.921 104.899 964.744 105.338V110H963.722ZM971.244 110.112C970.609 110.112 970.04 109.958 969.536 109.65C969.032 109.342 968.635 108.922 968.346 108.39C968.057 107.858 967.912 107.256 967.912 106.584C967.912 105.912 968.057 105.31 968.346 104.778C968.635 104.246 969.032 103.826 969.536 103.518C970.04 103.21 970.609 103.056 971.244 103.056C971.869 103.056 972.429 103.21 972.924 103.518C973.428 103.826 973.825 104.246 974.114 104.778C974.403 105.31 974.548 105.912 974.548 106.584C974.548 107.256 974.403 107.858 974.114 108.39C973.825 108.922 973.428 109.342 972.924 109.65C972.429 109.958 971.869 110.112 971.244 110.112ZM971.23 109.216C971.678 109.216 972.075 109.104 972.42 108.88C972.765 108.647 973.036 108.329 973.232 107.928C973.437 107.527 973.54 107.079 973.54 106.584C973.54 106.08 973.437 105.632 973.232 105.24C973.036 104.839 972.765 104.526 972.42 104.302C972.075 104.069 971.678 103.952 971.23 103.952C970.782 103.952 970.385 104.069 970.04 104.302C969.695 104.526 969.419 104.839 969.214 105.24C969.018 105.632 968.92 106.08 968.92 106.584C968.92 107.079 969.018 107.527 969.214 107.928C969.419 108.329 969.695 108.647 970.04 108.88C970.385 109.104 970.782 109.216 971.23 109.216ZM976.341 110V103.168H977.363V104.568C977.54 104.092 977.792 103.723 978.119 103.462C978.455 103.191 978.838 103.056 979.267 103.056C979.388 103.056 979.5 103.065 979.603 103.084C979.706 103.093 979.808 103.117 979.911 103.154V104.078C979.799 104.041 979.678 104.013 979.547 103.994C979.426 103.966 979.309 103.952 979.197 103.952C978.777 103.952 978.408 104.073 978.091 104.316C977.783 104.559 977.54 104.899 977.363 105.338V110H976.341ZM980.91 110.112C980.705 110.112 980.527 110.037 980.378 109.888C980.238 109.739 980.168 109.561 980.168 109.356C980.168 109.141 980.238 108.964 980.378 108.824C980.527 108.675 980.705 108.6 980.91 108.6C981.115 108.6 981.288 108.675 981.428 108.824C981.577 108.964 981.652 109.141 981.652 109.356C981.652 109.561 981.577 109.739 981.428 109.888C981.288 110.037 981.115 110.112 980.91 110.112Z" fill="#151515"/>
<rect x="648.5" y="132.5" width="97" height="35" rx="2.5" stroke="#0066CC"/>
<path d="M668.32 156V145.888H664.448V144.8H673.424V145.888H669.552V156H668.32ZM674.356 156V148.192H675.524V149.792C675.727 149.248 676.015 148.827 676.388 148.528C676.772 148.219 677.21 148.064 677.7 148.064C677.839 148.064 677.967 148.075 678.084 148.096C678.202 148.107 678.319 148.133 678.436 148.176V149.232C678.308 149.189 678.17 149.157 678.02 149.136C677.882 149.104 677.748 149.088 677.62 149.088C677.14 149.088 676.719 149.227 676.356 149.504C676.004 149.781 675.727 150.171 675.524 150.672V156H674.356ZM680.474 159.504C680.228 159.504 679.978 159.467 679.722 159.392V158.352C679.828 158.373 679.94 158.389 680.058 158.4C680.175 158.411 680.276 158.416 680.362 158.416C680.66 158.416 680.906 158.336 681.098 158.176C681.3 158.016 681.471 157.765 681.61 157.424L682.186 156L679.178 148.192H680.474L682.842 154.608L685.354 148.192H686.65L682.714 157.776C682.543 158.192 682.356 158.528 682.154 158.784C681.951 159.04 681.716 159.221 681.45 159.328C681.183 159.445 680.857 159.504 680.474 159.504ZM694.257 156.144C693.702 156.144 693.211 156.043 692.785 155.84C692.358 155.637 692.022 155.36 691.777 155.008C691.542 154.645 691.425 154.229 691.425 153.76C691.425 153.291 691.547 152.885 691.793 152.544C692.038 152.192 692.379 151.92 692.817 151.728C693.254 151.536 693.766 151.44 694.353 151.44C694.801 151.44 695.222 151.488 695.617 151.584C696.022 151.68 696.395 151.835 696.737 152.048V150.976C696.737 150.336 696.566 149.856 696.225 149.536C695.883 149.205 695.382 149.04 694.721 149.04C694.358 149.04 693.985 149.093 693.601 149.2C693.227 149.307 692.811 149.477 692.353 149.712L691.921 148.816C692.966 148.315 693.947 148.064 694.865 148.064C695.835 148.064 696.582 148.304 697.105 148.784C697.627 149.253 697.889 149.931 697.889 150.816V156H696.737V155.088C696.395 155.44 696.017 155.707 695.601 155.888C695.185 156.059 694.737 156.144 694.257 156.144ZM692.545 153.728C692.545 154.187 692.721 154.555 693.073 154.832C693.435 155.109 693.91 155.248 694.497 155.248C694.934 155.248 695.334 155.173 695.697 155.024C696.07 154.875 696.417 154.651 696.737 154.352V152.848C696.406 152.656 696.065 152.517 695.713 152.432C695.361 152.336 694.966 152.288 694.529 152.288C693.931 152.288 693.451 152.421 693.089 152.688C692.726 152.944 692.545 153.291 692.545 153.728ZM703.879 159.504C703.356 159.504 702.828 159.429 702.295 159.28C701.772 159.141 701.287 158.944 700.839 158.688L701.335 157.792C701.815 158.037 702.252 158.219 702.647 158.336C703.041 158.453 703.436 158.512 703.831 158.512C704.545 158.512 705.084 158.341 705.447 158C705.82 157.659 706.007 157.163 706.007 156.512V154.944C705.708 155.317 705.345 155.605 704.919 155.808C704.492 156 704.023 156.096 703.511 156.096C702.839 156.096 702.231 155.92 701.687 155.568C701.143 155.205 700.711 154.725 700.391 154.128C700.071 153.52 699.911 152.843 699.911 152.096C699.911 151.349 700.071 150.677 700.391 150.08C700.721 149.472 701.164 148.992 701.719 148.64C702.273 148.277 702.892 148.096 703.575 148.096C704.065 148.096 704.519 148.192 704.935 148.384C705.351 148.565 705.713 148.837 706.023 149.2V148.192H707.175V156.496C707.175 157.467 706.892 158.208 706.327 158.72C705.761 159.243 704.945 159.504 703.879 159.504ZM703.799 155.088C704.257 155.088 704.679 154.997 705.063 154.816C705.447 154.624 705.761 154.363 706.007 154.032V150.176C705.751 149.845 705.425 149.589 705.031 149.408C704.647 149.216 704.236 149.12 703.799 149.12C703.276 149.12 702.807 149.248 702.391 149.504C701.985 149.76 701.66 150.112 701.414 150.56C701.18 151.008 701.062 151.52 701.062 152.096C701.062 152.661 701.18 153.173 701.414 153.632C701.66 154.08 701.985 154.437 702.391 154.704C702.807 154.96 703.276 155.088 703.799 155.088ZM711.991 156.144C711.436 156.144 710.946 156.043 710.519 155.84C710.092 155.637 709.756 155.36 709.511 155.008C709.276 154.645 709.159 154.229 709.159 153.76C709.159 153.291 709.282 152.885 709.527 152.544C709.772 152.192 710.114 151.92 710.551 151.728C710.988 151.536 711.5 151.44 712.087 151.44C712.535 151.44 712.956 151.488 713.351 151.584C713.756 151.68 714.13 151.835 714.471 152.048V150.976C714.471 150.336 714.3 149.856 713.959 149.536C713.618 149.205 713.116 149.04 712.455 149.04C712.092 149.04 711.719 149.093 711.335 149.2C710.962 149.307 710.546 149.477 710.087 149.712L709.655 148.816C710.7 148.315 711.682 148.064 712.599 148.064C713.57 148.064 714.316 148.304 714.839 148.784C715.362 149.253 715.623 149.931 715.623 150.816V156H714.471V155.088C714.13 155.44 713.751 155.707 713.335 155.888C712.919 156.059 712.471 156.144 711.991 156.144ZM710.279 153.728C710.279 154.187 710.455 154.555 710.807 154.832C711.17 155.109 711.644 155.248 712.231 155.248C712.668 155.248 713.068 155.173 713.431 155.024C713.804 154.875 714.151 154.651 714.471 154.352V152.848C714.14 152.656 713.799 152.517 713.447 152.432C713.095 152.336 712.7 152.288 712.263 152.288C711.666 152.288 711.186 152.421 710.823 152.688C710.46 152.944 710.279 153.291 710.279 153.728ZM717.981 156V148.192H719.149V156H717.981ZM718.573 146.256C718.338 146.256 718.136 146.176 717.965 146.016C717.805 145.845 717.725 145.648 717.725 145.424C717.725 145.2 717.805 145.008 717.965 144.848C718.136 144.677 718.338 144.592 718.573 144.592C718.808 144.592 719.005 144.677 719.165 144.848C719.336 145.008 719.421 145.2 719.421 145.424C719.421 145.648 719.336 145.845 719.165 146.016C719.005 146.176 718.808 146.256 718.573 146.256ZM721.544 156V148.192H722.712V149.456C723.01 148.987 723.368 148.64 723.784 148.416C724.2 148.181 724.669 148.064 725.192 148.064C725.757 148.064 726.248 148.187 726.664 148.432C727.09 148.667 727.421 149.003 727.656 149.44C727.901 149.867 728.024 150.368 728.024 150.944V156H726.856V151.28C726.856 150.587 726.664 150.043 726.28 149.648C725.906 149.243 725.4 149.04 724.76 149.04C724.333 149.04 723.944 149.141 723.592 149.344C723.24 149.547 722.946 149.845 722.712 150.24V156H721.544Z" fill="#0066CC"/>
<path d="M771.424 156V144.8H772.656V154.912H778.976V156H771.424ZM783.969 156.128C783.243 156.128 782.593 155.952 782.017 155.6C781.441 155.248 780.987 154.768 780.657 154.16C780.326 153.552 780.161 152.864 780.161 152.096C780.161 151.328 780.326 150.64 780.657 150.032C780.987 149.424 781.441 148.944 782.017 148.592C782.593 148.24 783.243 148.064 783.969 148.064C784.683 148.064 785.323 148.24 785.889 148.592C786.465 148.944 786.918 149.424 787.249 150.032C787.579 150.64 787.745 151.328 787.745 152.096C787.745 152.864 787.579 153.552 787.249 154.16C786.918 154.768 786.465 155.248 785.889 155.6C785.323 155.952 784.683 156.128 783.969 156.128ZM783.953 155.104C784.465 155.104 784.918 154.976 785.313 154.72C785.707 154.453 786.017 154.091 786.241 153.632C786.475 153.173 786.593 152.661 786.593 152.096C786.593 151.52 786.475 151.008 786.241 150.56C786.017 150.101 785.707 149.744 785.313 149.488C784.918 149.221 784.465 149.088 783.953 149.088C783.441 149.088 782.987 149.221 782.593 149.488C782.198 149.744 781.883 150.101 781.649 150.56C781.425 151.008 781.312 151.52 781.312 152.096C781.312 152.661 781.425 153.173 781.649 153.632C781.883 154.091 782.198 154.453 782.593 154.72C782.987 154.976 783.441 155.104 783.953 155.104ZM793.41 159.504C792.887 159.504 792.359 159.429 791.826 159.28C791.303 159.141 790.818 158.944 790.37 158.688L790.866 157.792C791.346 158.037 791.783 158.219 792.178 158.336C792.572 158.453 792.967 158.512 793.362 158.512C794.076 158.512 794.615 158.341 794.978 158C795.351 157.659 795.538 157.163 795.538 156.512V154.944C795.239 155.317 794.876 155.605 794.45 155.808C794.023 156 793.554 156.096 793.042 156.096C792.37 156.096 791.762 155.92 791.218 155.568C790.674 155.205 790.242 154.725 789.922 154.128C789.602 153.52 789.442 152.843 789.442 152.096C789.442 151.349 789.602 150.677 789.922 150.08C790.252 149.472 790.695 148.992 791.25 148.64C791.804 148.277 792.423 148.096 793.106 148.096C793.596 148.096 794.05 148.192 794.466 148.384C794.882 148.565 795.244 148.837 795.554 149.2V148.192H796.706V156.496C796.706 157.467 796.423 158.208 795.858 158.72C795.292 159.243 794.476 159.504 793.41 159.504ZM793.33 155.088C793.788 155.088 794.21 154.997 794.594 154.816C794.978 154.624 795.292 154.363 795.538 154.032V150.176C795.282 149.845 794.956 149.589 794.562 149.408C794.178 149.216 793.767 149.12 793.33 149.12C792.807 149.12 792.338 149.248 791.922 149.504C791.516 149.76 791.191 150.112 790.946 150.56C790.711 151.008 790.594 151.52 790.594 152.096C790.594 152.661 790.711 153.173 790.946 153.632C791.191 154.08 791.516 154.437 791.922 154.704C792.338 154.96 792.807 155.088 793.33 155.088ZM806.297 156.128C805.571 156.128 804.921 155.952 804.345 155.6C803.769 155.248 803.315 154.768 802.985 154.16C802.654 153.552 802.489 152.864 802.489 152.096C802.489 151.328 802.654 150.64 802.985 150.032C803.315 149.424 803.769 148.944 804.345 148.592C804.921 148.24 805.571 148.064 806.297 148.064C807.011 148.064 807.651 148.24 808.217 148.592C808.793 148.944 809.246 149.424 809.577 150.032C809.907 150.64 810.073 151.328 810.073 152.096C810.073 152.864 809.907 153.552 809.577 154.16C809.246 154.768 808.793 155.248 808.217 155.6C807.651 155.952 807.011 156.128 806.297 156.128ZM806.281 155.104C806.793 155.104 807.246 154.976 807.641 154.72C808.035 154.453 808.345 154.091 808.569 153.632C808.803 153.173 808.921 152.661 808.921 152.096C808.921 151.52 808.803 151.008 808.569 150.56C808.345 150.101 808.035 149.744 807.641 149.488C807.246 149.221 806.793 149.088 806.281 149.088C805.769 149.088 805.315 149.221 804.921 149.488C804.526 149.744 804.211 150.101 803.977 150.56C803.753 151.008 803.641 151.52 803.641 152.096C803.641 152.661 803.753 153.173 803.977 153.632C804.211 154.091 804.526 154.453 804.921 154.72C805.315 154.976 805.769 155.104 806.281 155.104ZM814.906 156.128C814.351 156.128 813.861 156.005 813.434 155.76C813.007 155.515 812.671 155.173 812.426 154.736C812.191 154.299 812.074 153.797 812.074 153.232V148.192H813.258V152.896C813.258 153.589 813.445 154.139 813.818 154.544C814.191 154.949 814.698 155.152 815.338 155.152C815.775 155.152 816.165 155.051 816.506 154.848C816.858 154.645 817.151 154.352 817.386 153.968V148.192H818.554V156H817.386V154.736C817.087 155.195 816.73 155.541 816.314 155.776C815.909 156.011 815.439 156.128 814.906 156.128ZM823.926 156.16C823.254 156.16 822.742 156 822.39 155.68C822.049 155.349 821.878 154.875 821.878 154.256V149.152H820.262V148.192H821.878V146.048L823.046 145.776V148.192H825.286V149.152H823.046V153.952C823.046 154.368 823.131 154.667 823.302 154.848C823.483 155.029 823.777 155.12 824.182 155.12C824.385 155.12 824.566 155.104 824.726 155.072C824.886 155.04 825.073 154.987 825.286 154.912V155.952C825.073 156.027 824.849 156.08 824.614 156.112C824.379 156.144 824.15 156.16 823.926 156.16Z" fill="#0066CC"/>
</g>
<defs>
<filter id="filter0_d_16_2004" x="592" y="40" width="512" height="168" filterUnits="userSpaceOnUse" color-interpolation-filters="sRGB">
<feFlood flood-opacity="0" result="BackgroundImageFix"/>
<feColorMatrix in="SourceAlpha" type="matrix" values="0 0 0 0 0 0 0 0 0 0 0 0 0 0 0 0 0 0 127 0" result="hardAlpha"/>
<feOffset dy="8"/>
<feGaussianBlur stdDeviation="8"/>
<feComposite in2="hardAlpha" operator="out"/>
<feColorMatrix type="matrix" values="0 0 0 0 0.0823529 0 0 0 0 0.0823529 0 0 0 0 0.0823529 0 0 0 0.3 0"/>
<feBlend mode="normal" in2="BackgroundImageFix" result="effect1_dropShadow_16_2004"/>
<feBlend mode="normal" in="SourceGraphic" in2="effect1_dropShadow_16_2004" result="shape"/>
</filter>
<clipPath id="clip0_16_2004">
<rect width="16" height="16" fill="white" transform="translate(624 68.5)"/>
</clipPath>
<clipPath id="clip1_16_2004">
<rect width="12" height="12" fill="white" transform="translate(1060 66)"/>
</clipPath>
</defs>
</svg>
