<svg width="456" height="237" viewBox="0 0 456 237" fill="none" xmlns="http://www.w3.org/2000/svg">
<g clip-path="url(#clip0_10_6168)">
<path d="M32 5C27.59 5 24 8.59 24 13C24 17.41 27.59 21 32 21C36.41 21 40 17.41 40 13C40 8.59 36.41 5 32 5ZM35.9 11.4L31.575 15.725C31.415 15.885 31.21 15.96 31 15.96C30.79 15.96 30.585 15.88 30.425 15.725L28.1 13.4C27.88 13.18 27.88 12.825 28.1 12.605C28.32 12.385 28.675 12.385 28.895 12.605L30.995 14.71L35.095 10.605C35.315 10.385 35.67 10.385 35.89 10.605C36.11 10.825 36.11 11.18 35.89 11.4H35.9Z" fill="#3D7317"/>
</g>
<path d="M48.02 20L53.8 6H56.28L62 20H59.72L58.1 15.9H51.84L50.2 20H48.02ZM52.52 14.16H57.42L54.98 8L52.52 14.16ZM63.2034 20V6L65.2034 5.62V20H63.2034ZM69.4589 20L66.6189 9.82H68.5589L70.5389 17.3L72.8589 9.82H74.5789L76.8989 17.3L78.8789 9.82H80.7589L77.8989 20H75.9789L73.6989 12.54L71.3989 20H69.4589ZM85.2711 20.18C84.5378 20.18 83.8911 20.0533 83.3311 19.8C82.7711 19.5333 82.3311 19.1667 82.0111 18.7C81.6911 18.2333 81.5311 17.6933 81.5311 17.08C81.5311 16.12 81.8978 15.3667 82.6311 14.82C83.3644 14.26 84.3711 13.98 85.6511 13.98C86.6511 13.98 87.5778 14.1733 88.4311 14.56V13.48C88.4311 12.7467 88.2178 12.2 87.7911 11.84C87.3778 11.48 86.7644 11.3 85.9511 11.3C85.4844 11.3 84.9978 11.3733 84.4911 11.52C83.9844 11.6533 83.4178 11.8667 82.7911 12.16L82.0511 10.66C82.8244 10.3 83.5444 10.04 84.2111 9.88C84.8778 9.70667 85.5511 9.62 86.2311 9.62C87.5511 9.62 88.5711 9.93333 89.2911 10.56C90.0244 11.1867 90.3911 12.08 90.3911 13.24V20H88.4311V19.12C87.9778 19.48 87.4911 19.7467 86.9711 19.92C86.4511 20.0933 85.8844 20.18 85.2711 20.18ZM83.4511 17.04C83.4511 17.5333 83.6578 17.9333 84.0711 18.24C84.4978 18.5467 85.0511 18.7 85.7311 18.7C86.2644 18.7 86.7511 18.62 87.1911 18.46C87.6444 18.3 88.0578 18.0533 88.4311 17.72V16C88.0444 15.7733 87.6378 15.6133 87.2111 15.52C86.7978 15.4133 86.3311 15.36 85.8111 15.36C85.0778 15.36 84.4978 15.5133 84.0711 15.82C83.6578 16.1133 83.4511 16.52 83.4511 17.04ZM93.1803 24.3C92.967 24.3 92.767 24.2867 92.5803 24.26C92.3936 24.2467 92.2403 24.22 92.1203 24.18V22.42C92.3603 22.4733 92.6536 22.5 93.0003 22.5C93.9336 22.5 94.607 22 95.0203 21L95.4603 20.02L91.3803 9.82H93.6003L96.5603 17.58L99.8403 9.82H102L97.0803 21.26C96.7603 21.98 96.4203 22.56 96.0603 23C95.7003 23.4533 95.287 23.78 94.8203 23.98C94.3536 24.1933 93.807 24.3 93.1803 24.3ZM106.743 20.2C105.863 20.2 105.036 20.0733 104.263 19.82C103.503 19.5533 102.843 19.18 102.283 18.7L103.382 17.38C103.903 17.7933 104.436 18.1133 104.983 18.34C105.543 18.5533 106.109 18.66 106.683 18.66C107.403 18.66 107.989 18.52 108.443 18.24C108.896 17.96 109.123 17.5933 109.123 17.14C109.123 16.7667 108.989 16.4733 108.723 16.26C108.456 16.0467 108.043 15.9 107.483 15.82L105.643 15.56C104.629 15.4133 103.869 15.1 103.363 14.62C102.856 14.14 102.603 13.5 102.603 12.7C102.603 12.0867 102.769 11.5533 103.103 11.1C103.436 10.6333 103.903 10.2733 104.503 10.02C105.103 9.75333 105.803 9.62 106.603 9.62C107.336 9.62 108.043 9.72667 108.723 9.94C109.403 10.1533 110.056 10.4867 110.683 10.94L109.663 12.26C109.103 11.8867 108.556 11.6133 108.023 11.44C107.503 11.2667 106.976 11.18 106.443 11.18C105.829 11.18 105.336 11.3133 104.963 11.58C104.589 11.8333 104.403 12.1667 104.403 12.58C104.403 12.9533 104.529 13.2467 104.783 13.46C105.049 13.66 105.483 13.8 106.083 13.88L107.923 14.14C108.936 14.2867 109.703 14.6 110.223 15.08C110.743 15.5467 111.003 16.18 111.003 16.98C111.003 17.5933 110.816 18.1467 110.443 18.64C110.069 19.12 109.563 19.5 108.923 19.78C108.283 20.06 107.556 20.2 106.743 20.2ZM121.399 20.16C120.452 20.16 119.586 19.9267 118.799 19.46C118.012 18.9933 117.392 18.3667 116.939 17.58C116.486 16.78 116.259 15.8867 116.259 14.9C116.259 13.9133 116.486 13.0267 116.939 12.24C117.406 11.4533 118.032 10.8267 118.819 10.36C119.606 9.89333 120.479 9.66 121.439 9.66C121.999 9.66 122.539 9.74667 123.059 9.92C123.579 10.0933 124.059 10.3467 124.499 10.68V6L126.499 5.62V20H124.519V19.02C123.652 19.78 122.612 20.16 121.399 20.16ZM121.659 18.42C122.246 18.42 122.779 18.3133 123.259 18.1C123.752 17.8867 124.166 17.58 124.499 17.18V12.6C124.166 12.2267 123.752 11.9333 123.259 11.72C122.779 11.4933 122.246 11.38 121.659 11.38C121.019 11.38 120.439 11.5333 119.919 11.84C119.399 12.1467 118.986 12.5667 118.679 13.1C118.372 13.62 118.219 14.2133 118.219 14.88C118.219 15.5467 118.372 16.1467 118.679 16.68C118.986 17.2133 119.399 17.64 119.919 17.96C120.439 18.2667 121.019 18.42 121.659 18.42ZM128.868 20V9.82H130.868V20H128.868ZM129.868 8.18C129.534 8.18 129.248 8.06 129.007 7.82C128.768 7.56667 128.648 7.27333 128.648 6.94C128.648 6.59333 128.768 6.30667 129.007 6.08C129.248 5.84 129.534 5.72 129.868 5.72C130.214 5.72 130.508 5.84 130.748 6.08C130.988 6.30667 131.108 6.59333 131.108 6.94C131.108 7.27333 130.988 7.56667 130.748 7.82C130.508 8.06 130.214 8.18 129.868 8.18ZM136.723 20.2C135.843 20.2 135.016 20.0733 134.243 19.82C133.483 19.5533 132.823 19.18 132.263 18.7L133.363 17.38C133.883 17.7933 134.416 18.1133 134.963 18.34C135.523 18.5533 136.09 18.66 136.663 18.66C137.383 18.66 137.97 18.52 138.423 18.24C138.876 17.96 139.103 17.5933 139.103 17.14C139.103 16.7667 138.97 16.4733 138.703 16.26C138.436 16.0467 138.023 15.9 137.463 15.82L135.623 15.56C134.61 15.4133 133.85 15.1 133.343 14.62C132.836 14.14 132.583 13.5 132.583 12.7C132.583 12.0867 132.75 11.5533 133.083 11.1C133.416 10.6333 133.883 10.2733 134.483 10.02C135.083 9.75333 135.783 9.62 136.583 9.62C137.316 9.62 138.023 9.72667 138.703 9.94C139.383 10.1533 140.036 10.4867 140.663 10.94L139.643 12.26C139.083 11.8867 138.536 11.6133 138.003 11.44C137.483 11.2667 136.956 11.18 136.423 11.18C135.81 11.18 135.316 11.3133 134.943 11.58C134.57 11.8333 134.383 12.1667 134.383 12.58C134.383 12.9533 134.51 13.2467 134.763 13.46C135.03 13.66 135.463 13.8 136.063 13.88L137.903 14.14C138.916 14.2867 139.683 14.6 140.203 15.08C140.723 15.5467 140.983 16.18 140.983 16.98C140.983 17.5933 140.796 18.1467 140.423 18.64C140.05 19.12 139.543 19.5 138.903 19.78C138.263 20.06 137.536 20.2 136.723 20.2ZM142.52 20V9.82H144.52V10.8C145.28 10.0133 146.233 9.62 147.38 9.62C148.073 9.62 148.687 9.77333 149.22 10.08C149.767 10.3867 150.2 10.8 150.52 11.32C150.947 10.76 151.447 10.34 152.02 10.06C152.593 9.76667 153.24 9.62 153.96 9.62C154.72 9.62 155.38 9.78667 155.94 10.12C156.513 10.4533 156.96 10.92 157.28 11.52C157.613 12.12 157.78 12.8133 157.78 13.6V20H155.78V13.94C155.78 13.14 155.567 12.5133 155.14 12.06C154.727 11.5933 154.16 11.36 153.44 11.36C152.947 11.36 152.5 11.4733 152.1 11.7C151.7 11.9267 151.353 12.2733 151.06 12.74C151.087 12.8733 151.107 13.0133 151.12 13.16C151.133 13.3067 151.14 13.4533 151.14 13.6V20H149.16V13.94C149.16 13.14 148.947 12.5133 148.52 12.06C148.107 11.5933 147.54 11.36 146.82 11.36C146.34 11.36 145.907 11.4667 145.52 11.68C145.133 11.88 144.8 12.1867 144.52 12.6V20H142.52ZM160.078 20V9.82H162.078V20H160.078ZM161.078 8.18C160.745 8.18 160.458 8.06 160.218 7.82C159.978 7.56667 159.858 7.27333 159.858 6.94C159.858 6.59333 159.978 6.30667 160.218 6.08C160.458 5.84 160.745 5.72 161.078 5.72C161.425 5.72 161.718 5.84 161.958 6.08C162.198 6.30667 162.318 6.59333 162.318 6.94C162.318 7.27333 162.198 7.56667 161.958 7.82C161.718 8.06 161.425 8.18 161.078 8.18ZM167.934 20.2C167.054 20.2 166.227 20.0733 165.454 19.82C164.694 19.5533 164.034 19.18 163.474 18.7L164.574 17.38C165.094 17.7933 165.627 18.1133 166.174 18.34C166.734 18.5533 167.301 18.66 167.874 18.66C168.594 18.66 169.181 18.52 169.634 18.24C170.087 17.96 170.314 17.5933 170.314 17.14C170.314 16.7667 170.181 16.4733 169.914 16.26C169.647 16.0467 169.234 15.9 168.674 15.82L166.834 15.56C165.821 15.4133 165.061 15.1 164.554 14.62C164.047 14.14 163.794 13.5 163.794 12.7C163.794 12.0867 163.961 11.5533 164.294 11.1C164.627 10.6333 165.094 10.2733 165.694 10.02C166.294 9.75333 166.994 9.62 167.794 9.62C168.527 9.62 169.234 9.72667 169.914 9.94C170.594 10.1533 171.247 10.4867 171.874 10.94L170.854 12.26C170.294 11.8867 169.747 11.6133 169.214 11.44C168.694 11.2667 168.167 11.18 167.634 11.18C167.021 11.18 166.527 11.3133 166.154 11.58C165.781 11.8333 165.594 12.1667 165.594 12.58C165.594 12.9533 165.721 13.2467 165.974 13.46C166.241 13.66 166.674 13.8 167.274 13.88L169.114 14.14C170.127 14.2867 170.894 14.6 171.414 15.08C171.934 15.5467 172.194 16.18 172.194 16.98C172.194 17.5933 172.007 18.1467 171.634 18.64C171.261 19.12 170.754 19.5 170.114 19.78C169.474 20.06 168.747 20.2 167.934 20.2ZM177.231 20.2C176.351 20.2 175.524 20.0733 174.751 19.82C173.991 19.5533 173.331 19.18 172.771 18.7L173.871 17.38C174.391 17.7933 174.924 18.1133 175.471 18.34C176.031 18.5533 176.597 18.66 177.171 18.66C177.891 18.66 178.477 18.52 178.931 18.24C179.384 17.96 179.611 17.5933 179.611 17.14C179.611 16.7667 179.477 16.4733 179.211 16.26C178.944 16.0467 178.531 15.9 177.971 15.82L176.131 15.56C175.117 15.4133 174.357 15.1 173.851 14.62C173.344 14.14 173.091 13.5 173.091 12.7C173.091 12.0867 173.257 11.5533 173.591 11.1C173.924 10.6333 174.391 10.2733 174.991 10.02C175.591 9.75333 176.291 9.62 177.091 9.62C177.824 9.62 178.531 9.72667 179.211 9.94C179.891 10.1533 180.544 10.4867 181.171 10.94L180.151 12.26C179.591 11.8867 179.044 11.6133 178.511 11.44C177.991 11.2667 177.464 11.18 176.931 11.18C176.317 11.18 175.824 11.3133 175.451 11.58C175.077 11.8333 174.891 12.1667 174.891 12.58C174.891 12.9533 175.017 13.2467 175.271 13.46C175.537 13.66 175.971 13.8 176.571 13.88L178.411 14.14C179.424 14.2867 180.191 14.6 180.711 15.08C181.231 15.5467 181.491 16.18 181.491 16.98C181.491 17.5933 181.304 18.1467 180.931 18.64C180.557 19.12 180.051 19.5 179.411 19.78C178.771 20.06 178.044 20.2 177.231 20.2ZM183.028 20V9.82H185.028V20H183.028ZM184.028 8.18C183.694 8.18 183.408 8.06 183.168 7.82C182.928 7.56667 182.808 7.27333 182.808 6.94C182.808 6.59333 182.928 6.30667 183.168 6.08C183.408 5.84 183.694 5.72 184.028 5.72C184.374 5.72 184.668 5.84 184.908 6.08C185.148 6.30667 185.268 6.59333 185.268 6.94C185.268 7.27333 185.148 7.56667 184.908 7.82C184.668 8.06 184.374 8.18 184.028 8.18ZM187.383 20V6L189.383 5.62V10.78C190.236 10.0333 191.27 9.66 192.483 9.66C193.443 9.66 194.31 9.89333 195.083 10.36C195.87 10.8267 196.49 11.4533 196.943 12.24C197.396 13.0267 197.623 13.9133 197.623 14.9C197.623 15.8867 197.39 16.78 196.923 17.58C196.47 18.3667 195.85 18.9933 195.063 19.46C194.29 19.9267 193.416 20.16 192.443 20.16C191.883 20.16 191.336 20.0733 190.803 19.9C190.283 19.7133 189.803 19.4533 189.363 19.12V20H187.383ZM192.223 18.42C192.876 18.42 193.456 18.2667 193.963 17.96C194.483 17.6533 194.896 17.24 195.203 16.72C195.51 16.1867 195.663 15.5867 195.663 14.92C195.663 14.2533 195.51 13.6533 195.203 13.12C194.896 12.5867 194.483 12.1667 193.963 11.86C193.456 11.5533 192.876 11.4 192.223 11.4C191.65 11.4 191.116 11.5067 190.623 11.72C190.13 11.9333 189.716 12.2333 189.383 12.62V17.22C189.716 17.5933 190.13 17.8867 190.623 18.1C191.13 18.3133 191.663 18.42 192.223 18.42ZM199.532 20V6L201.532 5.62V20H199.532ZM208.767 20.18C207.767 20.18 206.86 19.9467 206.047 19.48C205.247 19.0133 204.607 18.38 204.127 17.58C203.66 16.78 203.427 15.8867 203.427 14.9C203.427 13.9267 203.654 13.0467 204.107 12.26C204.56 11.46 205.174 10.8267 205.947 10.36C206.72 9.88 207.58 9.64 208.527 9.64C209.474 9.64 210.314 9.88 211.047 10.36C211.78 10.8267 212.36 11.4667 212.787 12.28C213.227 13.08 213.447 13.9867 213.447 15V15.56H205.427C205.534 16.12 205.74 16.62 206.047 17.06C206.367 17.5 206.767 17.8467 207.247 18.1C207.74 18.3533 208.274 18.48 208.847 18.48C209.34 18.48 209.814 18.4067 210.267 18.26C210.734 18.1 211.12 17.8733 211.427 17.58L212.707 18.84C212.107 19.2933 211.487 19.6333 210.847 19.86C210.22 20.0733 209.527 20.18 208.767 20.18ZM205.447 14.06H211.467C211.387 13.5267 211.2 13.06 210.907 12.66C210.627 12.2467 210.274 11.9267 209.847 11.7C209.434 11.46 208.98 11.34 208.487 11.34C207.98 11.34 207.514 11.4533 207.087 11.68C206.66 11.9067 206.3 12.2267 206.007 12.64C205.727 13.04 205.54 13.5133 205.447 14.06Z" fill="#3D7317"/>
<g filter="url(#filter0_d_10_6168)">
<mask id="path-3-inside-1_10_6168" fill="white">
<path d="M24 42H432V126H24V42Z"/>
</mask>
<path d="M24 42H432V126H24V42Z" fill="white" shape-rendering="crispEdges"/>
<path d="M24 44H432V40H24V44Z" fill="#DCA614" mask="url(#path-3-inside-1_10_6168)"/>
<g clip-path="url(#clip1_10_6168)">
<path d="M55.7149 76.375L48.6449 64.125C48.5099 63.895 48.2649 63.75 47.9949 63.75C47.7299 63.75 47.4799 63.895 47.3449 64.125L40.2699 76.375C40.2049 76.49 40.1699 76.62 40.1699 76.75C40.1699 76.88 40.2049 77.01 40.2699 77.125C40.4049 77.355 40.6549 77.5 40.9199 77.5H55.0649C55.3299 77.5 55.5799 77.355 55.7149 77.125C55.7799 77.01 55.8149 76.88 55.8149 76.75C55.8149 76.62 55.7799 76.49 55.7149 76.375ZM47.3749 68C47.3749 67.655 47.6549 67.375 47.9999 67.375C48.3449 67.375 48.6249 67.655 48.6249 68V71.5C48.6249 71.845 48.3449 72.125 47.9999 72.125C47.6549 72.125 47.3749 71.845 47.3749 71.5V68ZM47.9999 75.75C47.5849 75.75 47.2499 75.415 47.2499 75C47.2499 74.585 47.5849 74.25 47.9999 74.25C48.4149 74.25 48.7499 74.585 48.7499 75C48.7499 75.415 48.4149 75.75 47.9999 75.75Z" fill="#DCA614"/>
</g>
<path d="M66.856 73.544H68.802C69.39 73.544 69.922 73.3947 70.398 73.096C70.874 72.788 71.252 72.3727 71.532 71.85C71.812 71.3273 71.952 70.744 71.952 70.1C71.952 69.4467 71.812 68.8633 71.532 68.35C71.252 67.8273 70.874 67.4167 70.398 67.118C69.922 66.81 69.39 66.656 68.802 66.656H66.856V73.544ZM65.176 75V65.2H68.76C69.4693 65.2 70.1227 65.326 70.72 65.578C71.3173 65.83 71.8353 66.18 72.274 66.628C72.722 67.0667 73.0673 67.5847 73.31 68.182C73.5527 68.77 73.674 69.4093 73.674 70.1C73.674 70.7907 73.5527 71.4347 73.31 72.032C73.0673 72.62 72.722 73.138 72.274 73.586C71.8353 74.0247 71.3173 74.37 70.72 74.622C70.1227 74.874 69.4693 75 68.76 75H65.176ZM78.5766 75.126C77.914 75.126 77.312 74.9673 76.7706 74.65C76.2386 74.3327 75.8186 73.9033 75.5106 73.362C75.2026 72.8113 75.0486 72.1907 75.0486 71.5C75.0486 70.8093 75.2026 70.1933 75.5106 69.652C75.8186 69.1013 76.2386 68.6673 76.7706 68.35C77.3026 68.0327 77.9046 67.874 78.5766 67.874C79.2486 67.874 79.846 68.0327 80.3686 68.35C80.9006 68.6673 81.3206 69.1013 81.6286 69.652C81.9366 70.1933 82.0906 70.8093 82.0906 71.5C82.0906 72.1907 81.9366 72.8113 81.6286 73.362C81.3206 73.9033 80.9006 74.3327 80.3686 74.65C79.846 74.9673 79.2486 75.126 78.5766 75.126ZM78.5766 73.782C78.9593 73.782 79.2953 73.684 79.5846 73.488C79.8833 73.292 80.1166 73.0213 80.2846 72.676C80.4526 72.3213 80.5366 71.9293 80.5366 71.5C80.5366 71.0613 80.4526 70.674 80.2846 70.338C80.1166 69.9927 79.8833 69.722 79.5846 69.526C79.2953 69.3207 78.9593 69.218 78.5766 69.218C78.194 69.218 77.8533 69.3207 77.5546 69.526C77.256 69.722 77.0226 69.9927 76.8546 70.338C76.6866 70.674 76.6026 71.0613 76.6026 71.5C76.6026 71.9387 76.6866 72.3307 76.8546 72.676C77.0226 73.0213 77.256 73.292 77.5546 73.488C77.8533 73.684 78.194 73.782 78.5766 73.782ZM84.8194 75L82.9294 67.986H84.4414L85.6734 72.928L87.1294 67.986H88.4594L89.9014 72.928L91.1334 67.986H92.6034L90.7134 75H89.2014L87.7734 70.058L86.3594 75H84.8194ZM93.896 75V67.986H95.478V69.134C95.7487 68.714 96.0707 68.4013 96.444 68.196C96.8173 67.9813 97.2327 67.874 97.69 67.874C98.1753 67.874 98.6 67.9813 98.964 68.196C99.328 68.4013 99.6127 68.6907 99.818 69.064C100.033 69.4373 100.14 69.876 100.14 70.38V75H98.544V70.828C98.544 70.3147 98.404 69.9087 98.124 69.61C97.844 69.302 97.4707 69.148 97.004 69.148C96.6867 69.148 96.3973 69.2227 96.136 69.372C95.884 69.512 95.6647 69.722 95.478 70.002V75H93.896ZM102.044 75V64.962L103.626 64.682V75H102.044ZM108.778 75.126C108.115 75.126 107.513 74.9673 106.972 74.65C106.44 74.3327 106.02 73.9033 105.712 73.362C105.404 72.8113 105.25 72.1907 105.25 71.5C105.25 70.8093 105.404 70.1933 105.712 69.652C106.02 69.1013 106.44 68.6673 106.972 68.35C107.504 68.0327 108.106 67.874 108.778 67.874C109.45 67.874 110.047 68.0327 110.57 68.35C111.102 68.6673 111.522 69.1013 111.83 69.652C112.138 70.1933 112.292 70.8093 112.292 71.5C112.292 72.1907 112.138 72.8113 111.83 73.362C111.522 73.9033 111.102 74.3327 110.57 74.65C110.047 74.9673 109.45 75.126 108.778 75.126ZM108.778 73.782C109.16 73.782 109.496 73.684 109.786 73.488C110.084 73.292 110.318 73.0213 110.486 72.676C110.654 72.3213 110.738 71.9293 110.738 71.5C110.738 71.0613 110.654 70.674 110.486 70.338C110.318 69.9927 110.084 69.722 109.786 69.526C109.496 69.3207 109.16 69.218 108.778 69.218C108.395 69.218 108.054 69.3207 107.756 69.526C107.457 69.722 107.224 69.9927 107.056 70.338C106.888 70.674 106.804 71.0613 106.804 71.5C106.804 71.9387 106.888 72.3307 107.056 72.676C107.224 73.0213 107.457 73.292 107.756 73.488C108.054 73.684 108.395 73.782 108.778 73.782ZM116.122 75.126C115.636 75.126 115.202 75.0373 114.82 74.86C114.446 74.6733 114.152 74.4213 113.938 74.104C113.732 73.7773 113.63 73.404 113.63 72.984C113.63 72.564 113.737 72.2 113.952 71.892C114.176 71.584 114.488 71.346 114.89 71.178C115.291 71.01 115.767 70.926 116.318 70.926C116.644 70.926 116.966 70.9633 117.284 71.038C117.601 71.1033 117.909 71.2153 118.208 71.374V70.59C118.208 70.1233 118.072 69.7733 117.802 69.54C117.54 69.3067 117.139 69.19 116.598 69.19C116.308 69.19 115.996 69.2367 115.66 69.33C115.333 69.414 114.964 69.5493 114.554 69.736L113.994 68.588C115.02 68.112 115.991 67.874 116.906 67.874C117.82 67.874 118.525 68.098 119.02 68.546C119.524 68.9847 119.776 69.61 119.776 70.422V75H118.208V74.272C117.909 74.5613 117.587 74.776 117.242 74.916C116.896 75.056 116.523 75.126 116.122 75.126ZM115.114 72.956C115.114 73.2827 115.244 73.5393 115.506 73.726C115.767 73.9127 116.117 74.006 116.556 74.006C116.873 74.006 117.167 73.9593 117.438 73.866C117.718 73.7633 117.974 73.614 118.208 73.418V72.284C117.965 72.172 117.713 72.088 117.452 72.032C117.19 71.976 116.906 71.948 116.598 71.948C116.14 71.948 115.776 72.0367 115.506 72.214C115.244 72.3913 115.114 72.6387 115.114 72.956ZM124.533 75.07C123.945 75.07 123.413 74.9113 122.937 74.594C122.461 74.2673 122.078 73.838 121.789 73.306C121.509 72.7647 121.369 72.1627 121.369 71.5C121.369 70.828 121.514 70.226 121.803 69.694C122.092 69.1527 122.484 68.7233 122.979 68.406C123.483 68.0887 124.038 67.93 124.645 67.93C125.046 67.93 125.42 68.0093 125.765 68.168C126.12 68.3173 126.428 68.5413 126.689 68.84V64.962L128.271 64.682V75H126.703V74.076C126.451 74.3933 126.138 74.6407 125.765 74.818C125.392 74.986 124.981 75.07 124.533 75.07ZM125.023 73.74C125.359 73.74 125.672 73.6747 125.961 73.544C126.25 73.404 126.493 73.2127 126.689 72.97V70.016C126.484 69.7733 126.236 69.5867 125.947 69.456C125.658 69.3253 125.35 69.26 125.023 69.26C124.622 69.26 124.262 69.358 123.945 69.554C123.637 69.7407 123.39 70.002 123.203 70.338C123.016 70.674 122.923 71.0613 122.923 71.5C122.923 71.92 123.016 72.3027 123.203 72.648C123.39 72.984 123.637 73.25 123.945 73.446C124.262 73.642 124.622 73.74 125.023 73.74ZM136.6 75.126C135.938 75.126 135.336 74.9673 134.794 74.65C134.262 74.3233 133.838 73.8847 133.52 73.334C133.212 72.7833 133.058 72.172 133.058 71.5C133.058 70.8187 133.212 70.2073 133.52 69.666C133.838 69.1153 134.262 68.6813 134.794 68.364C135.336 68.0373 135.938 67.874 136.6 67.874C137.142 67.874 137.655 67.9767 138.14 68.182C138.635 68.3873 139.055 68.6813 139.4 69.064L138.42 70.086C138.178 69.8153 137.907 69.61 137.608 69.47C137.31 69.33 136.992 69.26 136.656 69.26C136.274 69.26 135.928 69.3627 135.62 69.568C135.322 69.764 135.084 70.03 134.906 70.366C134.729 70.702 134.64 71.08 134.64 71.5C134.64 71.92 134.729 72.3027 134.906 72.648C135.084 72.984 135.322 73.25 135.62 73.446C135.928 73.642 136.274 73.74 136.656 73.74C136.992 73.74 137.31 73.67 137.608 73.53C137.907 73.39 138.178 73.1893 138.42 72.928L139.4 73.936C139.055 74.3187 138.635 74.6127 138.14 74.818C137.655 75.0233 137.142 75.126 136.6 75.126ZM143.709 75.126C143.047 75.126 142.445 74.9673 141.903 74.65C141.371 74.3327 140.951 73.9033 140.643 73.362C140.335 72.8113 140.181 72.1907 140.181 71.5C140.181 70.8093 140.335 70.1933 140.643 69.652C140.951 69.1013 141.371 68.6673 141.903 68.35C142.435 68.0327 143.037 67.874 143.709 67.874C144.381 67.874 144.979 68.0327 145.501 68.35C146.033 68.6673 146.453 69.1013 146.761 69.652C147.069 70.1933 147.223 70.8093 147.223 71.5C147.223 72.1907 147.069 72.8113 146.761 73.362C146.453 73.9033 146.033 74.3327 145.501 74.65C144.979 74.9673 144.381 75.126 143.709 75.126ZM143.709 73.782C144.092 73.782 144.428 73.684 144.717 73.488C145.016 73.292 145.249 73.0213 145.417 72.676C145.585 72.3213 145.669 71.9293 145.669 71.5C145.669 71.0613 145.585 70.674 145.417 70.338C145.249 69.9927 145.016 69.722 144.717 69.526C144.428 69.3207 144.092 69.218 143.709 69.218C143.327 69.218 142.986 69.3207 142.687 69.526C142.389 69.722 142.155 69.9927 141.987 70.338C141.819 70.674 141.735 71.0613 141.735 71.5C141.735 71.9387 141.819 72.3307 141.987 72.676C142.155 73.0213 142.389 73.292 142.687 73.488C142.986 73.684 143.327 73.782 143.709 73.782ZM148.857 75V67.986H150.439V69.092C150.7 68.6907 151.004 68.3873 151.349 68.182C151.704 67.9767 152.091 67.874 152.511 67.874C152.996 67.874 153.416 67.9953 153.771 68.238C154.135 68.4807 154.406 68.8073 154.583 69.218C154.863 68.7793 155.194 68.448 155.577 68.224C155.969 67.9907 156.412 67.874 156.907 67.874C157.355 67.874 157.752 67.9813 158.097 68.196C158.452 68.4107 158.722 68.7093 158.909 69.092C159.105 69.4747 159.203 69.9133 159.203 70.408V75H157.621V70.758C157.621 70.2633 157.495 69.8713 157.243 69.582C156.991 69.2927 156.646 69.148 156.207 69.148C155.927 69.148 155.666 69.218 155.423 69.358C155.19 69.498 154.984 69.708 154.807 69.988C154.816 70.0533 154.821 70.1233 154.821 70.198C154.83 70.2633 154.835 70.3333 154.835 70.408V75H153.239V70.758C153.239 70.2633 153.113 69.8713 152.861 69.582C152.609 69.2927 152.264 69.148 151.825 69.148C151.256 69.148 150.794 69.4187 150.439 69.96V75H148.857ZM161.121 77.926V67.986H162.675V68.98C162.927 68.644 163.239 68.3873 163.613 68.21C163.995 68.0233 164.411 67.93 164.859 67.93C165.456 67.93 165.993 68.0887 166.469 68.406C166.945 68.7233 167.323 69.1527 167.603 69.694C167.883 70.2353 168.023 70.8373 168.023 71.5C168.023 72.1627 167.878 72.7647 167.589 73.306C167.299 73.8473 166.907 74.2767 166.413 74.594C165.918 74.9113 165.367 75.07 164.761 75.07C164.341 75.07 163.953 74.9953 163.599 74.846C163.253 74.6873 162.955 74.4633 162.703 74.174V77.926H161.121ZM164.383 73.754C164.784 73.754 165.139 73.656 165.447 73.46C165.764 73.264 166.011 72.998 166.189 72.662C166.375 72.3167 166.469 71.9293 166.469 71.5C166.469 71.0707 166.375 70.688 166.189 70.352C166.011 70.016 165.764 69.75 165.447 69.554C165.139 69.358 164.784 69.26 164.383 69.26C164.037 69.26 163.72 69.33 163.431 69.47C163.141 69.6007 162.899 69.792 162.703 70.044V72.97C162.908 73.2127 163.155 73.404 163.445 73.544C163.734 73.684 164.047 73.754 164.383 73.754ZM169.679 75V64.962L171.261 64.682V75H169.679ZM176.469 75.14C175.797 75.14 175.19 74.9813 174.649 74.664C174.107 74.3373 173.678 73.9033 173.361 73.362C173.043 72.8113 172.885 72.1907 172.885 71.5C172.885 70.8093 173.034 70.1933 173.333 69.652C173.631 69.1107 174.037 68.6813 174.551 68.364C175.073 68.0373 175.652 67.874 176.287 67.874C176.94 67.874 177.514 68.0327 178.009 68.35C178.513 68.6673 178.905 69.0967 179.185 69.638C179.474 70.1793 179.619 70.8 179.619 71.5V71.878H174.439C174.495 72.2607 174.616 72.6013 174.803 72.9C174.999 73.1893 175.246 73.418 175.545 73.586C175.853 73.754 176.184 73.838 176.539 73.838C176.865 73.838 177.173 73.782 177.463 73.67C177.761 73.5487 178.009 73.3853 178.205 73.18L179.241 74.118C178.811 74.4727 178.373 74.734 177.925 74.902C177.486 75.0607 177.001 75.14 176.469 75.14ZM174.453 70.898H178.121C178.065 70.562 177.948 70.2633 177.771 70.002C177.603 69.7407 177.388 69.5353 177.127 69.386C176.875 69.2367 176.595 69.162 176.287 69.162C175.979 69.162 175.694 69.2367 175.433 69.386C175.181 69.526 174.971 69.7267 174.803 69.988C174.635 70.2493 174.518 70.5527 174.453 70.898ZM184.051 75.14C183.342 75.14 182.805 74.9767 182.441 74.65C182.077 74.314 181.895 73.824 181.895 73.18V69.246H180.495V67.986H181.895V66.054L183.477 65.718V67.986H185.423V69.246H183.477V72.83C183.477 73.1753 183.552 73.4227 183.701 73.572C183.85 73.712 184.102 73.782 184.457 73.782C184.616 73.782 184.76 73.7727 184.891 73.754C185.031 73.726 185.204 73.6793 185.409 73.614V74.944C185.213 75.0093 184.989 75.056 184.737 75.084C184.494 75.1213 184.266 75.14 184.051 75.14ZM189.976 75.14C189.304 75.14 188.698 74.9813 188.156 74.664C187.615 74.3373 187.186 73.9033 186.868 73.362C186.551 72.8113 186.392 72.1907 186.392 71.5C186.392 70.8093 186.542 70.1933 186.84 69.652C187.139 69.1107 187.545 68.6813 188.058 68.364C188.581 68.0373 189.16 67.874 189.794 67.874C190.448 67.874 191.022 68.0327 191.516 68.35C192.02 68.6673 192.412 69.0967 192.692 69.638C192.982 70.1793 193.126 70.8 193.126 71.5V71.878H187.946C188.002 72.2607 188.124 72.6013 188.31 72.9C188.506 73.1893 188.754 73.418 189.052 73.586C189.36 73.754 189.692 73.838 190.046 73.838C190.373 73.838 190.681 73.782 190.97 73.67C191.269 73.5487 191.516 73.3853 191.712 73.18L192.748 74.118C192.319 74.4727 191.88 74.734 191.432 74.902C190.994 75.0607 190.508 75.14 189.976 75.14ZM187.96 70.898H191.628C191.572 70.562 191.456 70.2633 191.278 70.002C191.11 69.7407 190.896 69.5353 190.634 69.386C190.382 69.2367 190.102 69.162 189.794 69.162C189.486 69.162 189.202 69.2367 188.94 69.386C188.688 69.526 188.478 69.7267 188.31 69.988C188.142 70.2493 188.026 70.5527 187.96 70.898ZM199.116 75L197.226 67.986H198.738L199.97 72.928L201.426 67.986H202.756L204.198 72.928L205.43 67.986H206.9L205.01 75H203.498L202.07 70.058L200.656 75H199.116ZM208.179 75V67.986H209.761V75H208.179ZM208.977 66.558C208.706 66.558 208.473 66.4647 208.277 66.278C208.09 66.082 207.997 65.8533 207.997 65.592C207.997 65.3213 208.09 65.0927 208.277 64.906C208.473 64.71 208.706 64.612 208.977 64.612C209.248 64.612 209.476 64.71 209.663 64.906C209.859 65.0927 209.957 65.3167 209.957 65.578C209.957 65.8487 209.859 66.082 209.663 66.278C209.476 66.4647 209.248 66.558 208.977 66.558ZM214.744 75.14C214.035 75.14 213.498 74.9767 213.134 74.65C212.77 74.314 212.588 73.824 212.588 73.18V69.246H211.188V67.986H212.588V66.054L214.17 65.718V67.986H216.116V69.246H214.17V72.83C214.17 73.1753 214.245 73.4227 214.394 73.572C214.544 73.712 214.796 73.782 215.15 73.782C215.309 73.782 215.454 73.7727 215.584 73.754C215.724 73.726 215.897 73.6793 216.102 73.614V74.944C215.906 75.0093 215.682 75.056 215.43 75.084C215.188 75.1213 214.959 75.14 214.744 75.14ZM217.517 75V64.962L219.099 64.682V69.134C219.37 68.714 219.692 68.4013 220.065 68.196C220.438 67.9813 220.854 67.874 221.311 67.874C221.796 67.874 222.221 67.9813 222.585 68.196C222.949 68.4013 223.234 68.6907 223.439 69.064C223.654 69.4373 223.761 69.876 223.761 70.38V75H222.165V70.828C222.165 70.3147 222.025 69.9087 221.745 69.61C221.465 69.302 221.092 69.148 220.625 69.148C220.308 69.148 220.018 69.2227 219.757 69.372C219.505 69.512 219.286 69.722 219.099 70.002V75H217.517ZM232.072 75.14C231.4 75.14 230.793 74.9813 230.252 74.664C229.711 74.3373 229.281 73.9033 228.964 73.362C228.647 72.8113 228.488 72.1907 228.488 71.5C228.488 70.8093 228.637 70.1933 228.936 69.652C229.235 69.1107 229.641 68.6813 230.154 68.364C230.677 68.0373 231.255 67.874 231.89 67.874C232.543 67.874 233.117 68.0327 233.612 68.35C234.116 68.6673 234.508 69.0967 234.788 69.638C235.077 70.1793 235.222 70.8 235.222 71.5V71.878H230.042C230.098 72.2607 230.219 72.6013 230.406 72.9C230.602 73.1893 230.849 73.418 231.148 73.586C231.456 73.754 231.787 73.838 232.142 73.838C232.469 73.838 232.777 73.782 233.066 73.67C233.365 73.5487 233.612 73.3853 233.808 73.18L234.844 74.118C234.415 74.4727 233.976 74.734 233.528 74.902C233.089 75.0607 232.604 75.14 232.072 75.14ZM230.056 70.898H233.724C233.668 70.562 233.551 70.2633 233.374 70.002C233.206 69.7407 232.991 69.5353 232.73 69.386C232.478 69.2367 232.198 69.162 231.89 69.162C231.582 69.162 231.297 69.2367 231.036 69.386C230.784 69.526 230.574 69.7267 230.406 69.988C230.238 70.2493 230.121 70.5527 230.056 70.898ZM236.835 75V67.986H238.417V69.498C238.623 68.966 238.889 68.56 239.215 68.28C239.542 68 239.92 67.86 240.349 67.86C240.48 67.8693 240.597 67.8833 240.699 67.902C240.802 67.9113 240.914 67.944 241.035 68V69.386C240.914 69.33 240.774 69.288 240.615 69.26C240.466 69.232 240.317 69.218 240.167 69.218C239.785 69.218 239.439 69.3207 239.131 69.526C238.833 69.7313 238.595 70.016 238.417 70.38V75H236.835ZM242.332 75V67.986H243.914V69.498C244.119 68.966 244.385 68.56 244.712 68.28C245.038 68 245.416 67.86 245.846 67.86C245.976 67.8693 246.093 67.8833 246.196 67.902C246.298 67.9113 246.41 67.944 246.532 68V69.386C246.41 69.33 246.27 69.288 246.112 69.26C245.962 69.232 245.813 69.218 245.664 69.218C245.281 69.218 244.936 69.3207 244.628 69.526C244.329 69.7313 244.091 70.016 243.914 70.38V75H242.332ZM250.706 75.126C250.043 75.126 249.441 74.9673 248.9 74.65C248.368 74.3327 247.948 73.9033 247.64 73.362C247.332 72.8113 247.178 72.1907 247.178 71.5C247.178 70.8093 247.332 70.1933 247.64 69.652C247.948 69.1013 248.368 68.6673 248.9 68.35C249.432 68.0327 250.034 67.874 250.706 67.874C251.378 67.874 251.975 68.0327 252.498 68.35C253.03 68.6673 253.45 69.1013 253.758 69.652C254.066 70.1933 254.22 70.8093 254.22 71.5C254.22 72.1907 254.066 72.8113 253.758 73.362C253.45 73.9033 253.03 74.3327 252.498 74.65C251.975 74.9673 251.378 75.126 250.706 75.126ZM250.706 73.782C251.088 73.782 251.424 73.684 251.714 73.488C252.012 73.292 252.246 73.0213 252.414 72.676C252.582 72.3213 252.666 71.9293 252.666 71.5C252.666 71.0613 252.582 70.674 252.414 70.338C252.246 69.9927 252.012 69.722 251.714 69.526C251.424 69.3207 251.088 69.218 250.706 69.218C250.323 69.218 249.982 69.3207 249.684 69.526C249.385 69.722 249.152 69.9927 248.984 70.338C248.816 70.674 248.732 71.0613 248.732 71.5C248.732 71.9387 248.816 72.3307 248.984 72.676C249.152 73.0213 249.385 73.292 249.684 73.488C249.982 73.684 250.323 73.782 250.706 73.782ZM255.853 75V67.986H257.435V69.498C257.64 68.966 257.906 68.56 258.233 68.28C258.56 68 258.938 67.86 259.367 67.86C259.498 67.8693 259.614 67.8833 259.717 67.902C259.82 67.9113 259.932 67.944 260.053 68V69.386C259.932 69.33 259.792 69.288 259.633 69.26C259.484 69.232 259.334 69.218 259.185 69.218C258.802 69.218 258.457 69.3207 258.149 69.526C257.85 69.7313 257.612 70.016 257.435 70.38V75H255.853ZM263.756 75.14C263.159 75.14 262.599 75.0607 262.076 74.902C261.563 74.734 261.12 74.496 260.746 74.188L261.488 73.138C261.955 73.4273 262.356 73.6327 262.692 73.754C263.038 73.8753 263.388 73.936 263.742 73.936C264.162 73.936 264.503 73.8473 264.764 73.67C265.026 73.4927 265.156 73.264 265.156 72.984C265.156 72.7693 265.077 72.6013 264.918 72.48C264.769 72.3493 264.522 72.2513 264.176 72.186L262.944 71.976C262.263 71.8453 261.754 71.6213 261.418 71.304C261.082 70.9867 260.914 70.5667 260.914 70.044C260.914 69.6053 261.026 69.2273 261.25 68.91C261.484 68.5833 261.801 68.3313 262.202 68.154C262.613 67.9673 263.089 67.874 263.63 67.874C264.116 67.874 264.587 67.944 265.044 68.084C265.502 68.224 265.95 68.434 266.388 68.714L265.646 69.764C265.292 69.5307 264.937 69.3627 264.582 69.26C264.237 69.148 263.887 69.092 263.532 69.092C263.168 69.092 262.874 69.1667 262.65 69.316C262.436 69.456 262.328 69.652 262.328 69.904C262.328 70.128 262.398 70.3007 262.538 70.422C262.688 70.534 262.944 70.618 263.308 70.674L264.554 70.912C265.254 71.0333 265.772 71.2573 266.108 71.584C266.454 71.9013 266.626 72.326 266.626 72.858C266.626 73.2873 266.5 73.6747 266.248 74.02C265.996 74.3653 265.656 74.6407 265.226 74.846C264.797 75.042 264.307 75.14 263.756 75.14Z" fill="#151515"/>
<g clip-path="url(#clip2_10_6168)">
<path d="M410.955 66L414.678 62.2773C414.941 62.0136 414.941 61.5864 414.678 61.3228C414.414 61.0591 413.986 61.0591 413.722 61.3228L410 65.0452L406.277 61.3228C406.014 61.0591 405.586 61.0591 405.323 61.3228C405.059 61.5865 405.059 62.0136 405.323 62.2773L409.045 66L405.323 69.7225C405.059 69.9862 405.059 70.4139 405.323 70.6776C405.455 70.8094 405.627 70.875 405.8 70.875C405.973 70.875 406.145 70.8094 406.277 70.6776L410 66.9548L413.722 70.6776C413.854 70.8094 414.027 70.875 414.2 70.875C414.373 70.875 414.546 70.8094 414.678 70.6776C414.941 70.4139 414.941 69.9862 414.678 69.7225L410.955 66Z" fill="#151515"/>
</g>
<path d="M65.246 104V94.2H71.938V95.152H66.324V98.652H70.16V99.59H66.324V104H65.246ZM72.8977 104V97.168H73.9197V98.568C74.097 98.092 74.349 97.7233 74.6757 97.462C75.0117 97.1913 75.3943 97.056 75.8237 97.056C75.945 97.056 76.057 97.0653 76.1597 97.084C76.2623 97.0933 76.365 97.1167 76.4677 97.154V98.078C76.3557 98.0407 76.2343 98.0127 76.1037 97.994C75.9823 97.966 75.8657 97.952 75.7537 97.952C75.3337 97.952 74.965 98.0733 74.6477 98.316C74.3397 98.5587 74.097 98.8993 73.9197 99.338V104H72.8977ZM80.4197 104.112C79.785 104.112 79.2157 103.958 78.7117 103.65C78.2077 103.342 77.811 102.922 77.5217 102.39C77.2324 101.858 77.0877 101.256 77.0877 100.584C77.0877 99.912 77.2324 99.31 77.5217 98.778C77.811 98.246 78.2077 97.826 78.7117 97.518C79.2157 97.21 79.785 97.056 80.4197 97.056C81.045 97.056 81.605 97.21 82.0997 97.518C82.6037 97.826 83.0004 98.246 83.2897 98.778C83.579 99.31 83.7237 99.912 83.7237 100.584C83.7237 101.256 83.579 101.858 83.2897 102.39C83.0004 102.922 82.6037 103.342 82.0997 103.65C81.605 103.958 81.045 104.112 80.4197 104.112ZM80.4057 103.216C80.8537 103.216 81.2504 103.104 81.5957 102.88C81.941 102.647 82.2117 102.329 82.4077 101.928C82.613 101.527 82.7157 101.079 82.7157 100.584C82.7157 100.08 82.613 99.632 82.4077 99.24C82.2117 98.8387 81.941 98.526 81.5957 98.302C81.2504 98.0687 80.8537 97.952 80.4057 97.952C79.9577 97.952 79.561 98.0687 79.2157 98.302C78.8704 98.526 78.595 98.8387 78.3897 99.24C78.1937 99.632 78.0957 100.08 78.0957 100.584C78.0957 101.079 78.1937 101.527 78.3897 101.928C78.595 102.329 78.8704 102.647 79.2157 102.88C79.561 103.104 79.9577 103.216 80.4057 103.216ZM85.5168 104V97.168H86.5388V98.232C86.8001 97.84 87.0988 97.546 87.4348 97.35C87.7708 97.154 88.1488 97.056 88.5688 97.056C89.0541 97.056 89.4788 97.1773 89.8428 97.42C90.2068 97.6533 90.4821 97.9753 90.6688 98.386C90.9395 97.9473 91.2615 97.616 91.6348 97.392C92.0175 97.168 92.4561 97.056 92.9508 97.056C93.4081 97.056 93.8095 97.1633 94.1548 97.378C94.5095 97.5927 94.7848 97.8913 94.9808 98.274C95.1768 98.6473 95.2748 99.086 95.2748 99.59V104H94.2528V99.842C94.2528 99.2447 94.1035 98.7733 93.8048 98.428C93.5061 98.0827 93.0955 97.91 92.5728 97.91C92.2181 97.91 91.8961 97.9987 91.6068 98.176C91.3268 98.3533 91.0795 98.624 90.8648 98.988C90.8835 99.0813 90.8975 99.1793 90.9068 99.282C90.9161 99.3847 90.9208 99.4873 90.9208 99.59V104H89.8988V99.842C89.8988 99.2447 89.7448 98.7733 89.4368 98.428C89.1381 98.0827 88.7275 97.91 88.2048 97.91C87.5048 97.91 86.9495 98.246 86.5388 98.918V104H85.5168ZM103.215 104.14C102.627 104.14 102.179 104 101.871 103.72C101.572 103.431 101.423 103.015 101.423 102.474V98.008H100.009V97.168H101.423V95.292L102.445 95.054V97.168H104.405V98.008H102.445V102.208C102.445 102.572 102.519 102.833 102.669 102.992C102.827 103.151 103.084 103.23 103.439 103.23C103.616 103.23 103.775 103.216 103.915 103.188C104.055 103.16 104.218 103.113 104.405 103.048V103.958C104.218 104.023 104.022 104.07 103.817 104.098C103.611 104.126 103.411 104.14 103.215 104.14ZM105.902 104V93.892L106.924 93.682V98.274C107.185 97.8633 107.498 97.56 107.862 97.364C108.226 97.1587 108.636 97.056 109.094 97.056C109.588 97.056 110.018 97.1633 110.382 97.378C110.755 97.5833 111.044 97.8773 111.25 98.26C111.464 98.6333 111.572 99.072 111.572 99.576V104H110.55V99.87C110.55 99.2633 110.382 98.7873 110.046 98.442C109.719 98.0873 109.276 97.91 108.716 97.91C108.342 97.91 108.002 97.9987 107.694 98.176C107.386 98.3533 107.129 98.6147 106.924 98.96V104H105.902ZM116.706 104.14C116.072 104.14 115.498 103.986 114.984 103.678C114.471 103.361 114.065 102.936 113.766 102.404C113.468 101.863 113.318 101.256 113.318 100.584C113.318 99.912 113.458 99.31 113.738 98.778C114.028 98.246 114.415 97.826 114.9 97.518C115.386 97.21 115.927 97.056 116.524 97.056C117.131 97.056 117.668 97.21 118.134 97.518C118.61 97.8167 118.984 98.2273 119.254 98.75C119.534 99.2633 119.674 99.8467 119.674 100.5V100.808H114.312C114.35 101.275 114.476 101.695 114.69 102.068C114.914 102.432 115.204 102.721 115.558 102.936C115.922 103.141 116.319 103.244 116.748 103.244C117.103 103.244 117.444 103.183 117.77 103.062C118.106 102.931 118.391 102.759 118.624 102.544L119.268 103.23C118.876 103.538 118.47 103.767 118.05 103.916C117.63 104.065 117.182 104.14 116.706 104.14ZM114.34 100.08H118.666C118.62 99.6693 118.494 99.3053 118.288 98.988C118.092 98.6613 117.84 98.4047 117.532 98.218C117.234 98.0313 116.898 97.938 116.524 97.938C116.151 97.938 115.81 98.0313 115.502 98.218C115.194 98.3953 114.938 98.6473 114.732 98.974C114.536 99.2913 114.406 99.66 114.34 100.08ZM128.089 104.154C127.323 104.154 126.6 104.023 125.919 103.762C125.247 103.491 124.598 103.095 123.973 102.572L124.883 101.34C125.517 101.853 126.082 102.222 126.577 102.446C127.081 102.661 127.617 102.768 128.187 102.768C128.616 102.768 128.994 102.703 129.321 102.572C129.657 102.432 129.913 102.245 130.091 102.012C130.277 101.779 130.371 101.508 130.371 101.2C130.371 100.799 130.235 100.495 129.965 100.29C129.703 100.075 129.246 99.912 128.593 99.8L126.787 99.492C125.937 99.3427 125.303 99.058 124.883 98.638C124.472 98.2087 124.267 97.6627 124.267 97C124.267 96.412 124.416 95.8987 124.715 95.46C125.013 95.012 125.429 94.6667 125.961 94.424C126.502 94.172 127.141 94.046 127.879 94.046C128.616 94.046 129.316 94.1533 129.979 94.368C130.641 94.5827 131.253 94.8953 131.813 95.306L130.959 96.566C130.464 96.1927 129.955 95.9127 129.433 95.726C128.91 95.53 128.373 95.432 127.823 95.432C127.431 95.432 127.085 95.4927 126.787 95.614C126.497 95.7353 126.269 95.9033 126.101 96.118C125.942 96.3327 125.863 96.5707 125.863 96.832C125.863 97.1867 125.979 97.462 126.213 97.658C126.455 97.8447 126.843 97.9847 127.375 98.078L129.125 98.372C130.114 98.5493 130.842 98.8573 131.309 99.296C131.785 99.7347 132.023 100.327 132.023 101.074C132.023 101.671 131.855 102.203 131.519 102.67C131.192 103.137 130.735 103.501 130.147 103.762C129.559 104.023 128.873 104.154 128.089 104.154ZM136.93 104.14C136.258 104.14 135.651 103.981 135.11 103.664C134.568 103.337 134.139 102.903 133.822 102.362C133.504 101.811 133.346 101.191 133.346 100.5C133.346 99.8093 133.495 99.1933 133.794 98.652C134.092 98.1107 134.498 97.6813 135.012 97.364C135.534 97.0373 136.113 96.874 136.748 96.874C137.401 96.874 137.975 97.0327 138.47 97.35C138.974 97.6673 139.366 98.0967 139.646 98.638C139.935 99.1793 140.079 99.8 140.079 100.5V100.878H134.9C134.956 101.261 135.077 101.601 135.264 101.9C135.46 102.189 135.707 102.418 136.006 102.586C136.314 102.754 136.645 102.838 137 102.838C137.326 102.838 137.634 102.782 137.924 102.67C138.222 102.549 138.47 102.385 138.666 102.18L139.702 103.118C139.272 103.473 138.834 103.734 138.386 103.902C137.947 104.061 137.462 104.14 136.93 104.14ZM134.914 99.898H138.582C138.526 99.562 138.409 99.2633 138.232 99.002C138.064 98.7407 137.849 98.5353 137.588 98.386C137.336 98.2367 137.056 98.162 136.748 98.162C136.44 98.162 136.155 98.2367 135.894 98.386C135.642 98.526 135.432 98.7267 135.264 98.988C135.096 99.2493 134.979 99.5527 134.914 99.898ZM144.512 104.14C143.802 104.14 143.266 103.977 142.902 103.65C142.538 103.314 142.356 102.824 142.356 102.18V98.246H140.956V96.986H142.356V95.054L143.938 94.718V96.986H145.884V98.246H143.938V101.83C143.938 102.175 144.012 102.423 144.162 102.572C144.311 102.712 144.563 102.782 144.918 102.782C145.076 102.782 145.221 102.773 145.352 102.754C145.492 102.726 145.664 102.679 145.87 102.614V103.944C145.674 104.009 145.45 104.056 145.198 104.084C144.955 104.121 144.726 104.14 144.512 104.14ZM150.445 104.14C149.736 104.14 149.199 103.977 148.835 103.65C148.471 103.314 148.289 102.824 148.289 102.18V98.246H146.889V96.986H148.289V95.054L149.871 94.718V96.986H151.817V98.246H149.871V101.83C149.871 102.175 149.946 102.423 150.095 102.572C150.245 102.712 150.497 102.782 150.851 102.782C151.01 102.782 151.155 102.773 151.285 102.754C151.425 102.726 151.598 102.679 151.803 102.614V103.944C151.607 104.009 151.383 104.056 151.131 104.084C150.889 104.121 150.66 104.14 150.445 104.14ZM153.204 104V96.986H154.786V104H153.204ZM154.002 95.558C153.732 95.558 153.498 95.4647 153.302 95.278C153.116 95.082 153.022 94.8533 153.022 94.592C153.022 94.3213 153.116 94.0927 153.302 93.906C153.498 93.71 153.732 93.612 154.002 93.612C154.273 93.612 154.502 93.71 154.688 93.906C154.884 94.0927 154.982 94.3167 154.982 94.578C154.982 94.8487 154.884 95.082 154.688 95.278C154.502 95.4647 154.273 95.558 154.002 95.558ZM156.746 104V96.986H158.328V98.134C158.598 97.714 158.92 97.4013 159.294 97.196C159.667 96.9813 160.082 96.874 160.54 96.874C161.025 96.874 161.45 96.9813 161.814 97.196C162.178 97.4013 162.462 97.6907 162.668 98.064C162.882 98.4373 162.99 98.876 162.99 99.38V104H161.394V99.828C161.394 99.3147 161.254 98.9087 160.974 98.61C160.694 98.302 160.32 98.148 159.854 98.148C159.536 98.148 159.247 98.2227 158.986 98.372C158.734 98.512 158.514 98.722 158.328 99.002V104H156.746ZM168.17 107.066C167.675 107.066 167.185 107.005 166.7 106.884C166.215 106.763 165.767 106.595 165.356 106.38L165.902 105.218C166.322 105.414 166.705 105.559 167.05 105.652C167.405 105.755 167.755 105.806 168.1 105.806C168.688 105.806 169.131 105.675 169.43 105.414C169.738 105.153 169.892 104.765 169.892 104.252V103.062C169.64 103.37 169.327 103.613 168.954 103.79C168.581 103.958 168.175 104.042 167.736 104.042C167.148 104.042 166.616 103.883 166.14 103.566C165.664 103.239 165.281 102.81 164.992 102.278C164.712 101.737 164.572 101.135 164.572 100.472C164.572 99.8093 164.717 99.212 165.006 98.68C165.295 98.148 165.687 97.7233 166.182 97.406C166.686 97.0887 167.241 96.93 167.848 96.93C168.259 96.93 168.641 97.0093 168.996 97.168C169.351 97.3267 169.654 97.56 169.906 97.868V96.986H171.474V104.252C171.474 105.157 171.189 105.853 170.62 106.338C170.051 106.823 169.234 107.066 168.17 107.066ZM168.226 102.726C168.562 102.726 168.875 102.661 169.164 102.53C169.453 102.39 169.696 102.199 169.892 101.956V99.016C169.687 98.7733 169.439 98.5867 169.15 98.456C168.861 98.3253 168.553 98.26 168.226 98.26C167.825 98.26 167.465 98.358 167.148 98.554C166.84 98.7407 166.593 99.002 166.406 99.338C166.219 99.6647 166.126 100.047 166.126 100.486C166.126 100.906 166.219 101.289 166.406 101.634C166.593 101.97 166.84 102.236 167.148 102.432C167.465 102.628 167.825 102.726 168.226 102.726ZM175.805 104.14C175.208 104.14 174.648 104.061 174.125 103.902C173.612 103.734 173.169 103.496 172.795 103.188L173.537 102.138C174.004 102.427 174.405 102.633 174.741 102.754C175.087 102.875 175.437 102.936 175.791 102.936C176.211 102.936 176.552 102.847 176.813 102.67C177.075 102.493 177.205 102.264 177.205 101.984C177.205 101.769 177.126 101.601 176.967 101.48C176.818 101.349 176.571 101.251 176.225 101.186L174.993 100.976C174.312 100.845 173.803 100.621 173.467 100.304C173.131 99.9867 172.963 99.5667 172.963 99.044C172.963 98.6053 173.075 98.2273 173.299 97.91C173.533 97.5833 173.85 97.3313 174.251 97.154C174.662 96.9673 175.138 96.874 175.679 96.874C176.165 96.874 176.636 96.944 177.093 97.084C177.551 97.224 177.999 97.434 178.437 97.714L177.695 98.764C177.341 98.5307 176.986 98.3627 176.631 98.26C176.286 98.148 175.936 98.092 175.581 98.092C175.217 98.092 174.923 98.1667 174.699 98.316C174.485 98.456 174.377 98.652 174.377 98.904C174.377 99.128 174.447 99.3007 174.587 99.422C174.737 99.534 174.993 99.618 175.357 99.674L176.603 99.912C177.303 100.033 177.821 100.257 178.157 100.584C178.503 100.901 178.675 101.326 178.675 101.858C178.675 102.287 178.549 102.675 178.297 103.02C178.045 103.365 177.705 103.641 177.275 103.846C176.846 104.042 176.356 104.14 175.805 104.14ZM186.066 104.14C185.478 104.14 185.03 104 184.722 103.72C184.423 103.431 184.274 103.015 184.274 102.474V98.008H182.86V97.168H184.274V95.292L185.296 95.054V97.168H187.256V98.008H185.296V102.208C185.296 102.572 185.371 102.833 185.52 102.992C185.679 103.151 185.935 103.23 186.29 103.23C186.467 103.23 186.626 103.216 186.766 103.188C186.906 103.16 187.069 103.113 187.256 103.048V103.958C187.069 104.023 186.873 104.07 186.668 104.098C186.463 104.126 186.262 104.14 186.066 104.14ZM190.867 104.126C190.382 104.126 189.952 104.037 189.579 103.86C189.206 103.683 188.912 103.44 188.697 103.132C188.492 102.815 188.389 102.451 188.389 102.04C188.389 101.629 188.496 101.275 188.711 100.976C188.926 100.668 189.224 100.43 189.607 100.262C189.99 100.094 190.438 100.01 190.951 100.01C191.343 100.01 191.712 100.052 192.057 100.136C192.412 100.22 192.738 100.355 193.037 100.542V99.604C193.037 99.044 192.888 98.624 192.589 98.344C192.29 98.0547 191.852 97.91 191.273 97.91C190.956 97.91 190.629 97.9567 190.293 98.05C189.966 98.1433 189.602 98.2927 189.201 98.498L188.823 97.714C189.738 97.2753 190.596 97.056 191.399 97.056C192.248 97.056 192.902 97.266 193.359 97.686C193.816 98.0967 194.045 98.6893 194.045 99.464V104H193.037V103.202C192.738 103.51 192.407 103.743 192.043 103.902C191.679 104.051 191.287 104.126 190.867 104.126ZM189.369 102.012C189.369 102.413 189.523 102.735 189.831 102.978C190.148 103.221 190.564 103.342 191.077 103.342C191.46 103.342 191.81 103.277 192.127 103.146C192.454 103.015 192.757 102.819 193.037 102.558V101.242C192.748 101.074 192.449 100.953 192.141 100.878C191.833 100.794 191.488 100.752 191.105 100.752C190.582 100.752 190.162 100.869 189.845 101.102C189.528 101.326 189.369 101.629 189.369 102.012ZM196.122 104V93.99L197.144 93.78V98.106C197.406 97.7793 197.723 97.5273 198.096 97.35C198.47 97.1727 198.885 97.084 199.342 97.084C199.94 97.084 200.472 97.2427 200.938 97.56C201.414 97.868 201.792 98.288 202.072 98.82C202.352 99.3427 202.492 99.9307 202.492 100.584C202.492 101.237 202.348 101.83 202.058 102.362C201.778 102.894 201.396 103.319 200.91 103.636C200.434 103.944 199.893 104.098 199.286 104.098C198.857 104.098 198.456 104.014 198.082 103.846C197.718 103.669 197.401 103.421 197.13 103.104V104H196.122ZM199.09 103.216C199.548 103.216 199.954 103.104 200.308 102.88C200.672 102.647 200.957 102.334 201.162 101.942C201.377 101.541 201.484 101.093 201.484 100.598C201.484 100.094 201.377 99.646 201.162 99.254C200.957 98.862 200.672 98.554 200.308 98.33C199.954 98.0967 199.548 97.98 199.09 97.98C198.689 97.98 198.316 98.064 197.97 98.232C197.634 98.3907 197.359 98.6193 197.144 98.918V102.264C197.368 102.563 197.648 102.796 197.984 102.964C198.33 103.132 198.698 103.216 199.09 103.216ZM203.579 106.198L204.419 102.964H205.511L204.377 106.198H203.579ZM212.81 104.14C212.25 104.14 211.732 104.056 211.256 103.888C210.78 103.711 210.374 103.459 210.038 103.132L210.584 102.46C210.995 102.759 211.373 102.978 211.718 103.118C212.064 103.249 212.418 103.314 212.782 103.314C213.277 103.314 213.688 103.197 214.014 102.964C214.341 102.731 214.504 102.432 214.504 102.068C214.504 101.788 214.406 101.569 214.21 101.41C214.024 101.251 213.711 101.13 213.272 101.046L212.152 100.85C211.49 100.729 211 100.523 210.682 100.234C210.374 99.9447 210.22 99.5527 210.22 99.058C210.22 98.666 210.323 98.3207 210.528 98.022C210.743 97.7233 211.037 97.49 211.41 97.322C211.784 97.1447 212.208 97.056 212.684 97.056C213.151 97.056 213.594 97.126 214.014 97.266C214.434 97.3967 214.859 97.6113 215.288 97.91L214.784 98.624C214.43 98.372 214.075 98.19 213.72 98.078C213.366 97.9567 213.006 97.896 212.642 97.896C212.194 97.896 211.835 97.994 211.564 98.19C211.294 98.386 211.158 98.652 211.158 98.988C211.158 99.268 211.242 99.4827 211.41 99.632C211.588 99.7813 211.896 99.8933 212.334 99.968L213.482 100.178C214.173 100.299 214.677 100.509 214.994 100.808C215.312 101.107 215.47 101.508 215.47 102.012C215.47 102.413 215.354 102.777 215.12 103.104C214.887 103.421 214.57 103.673 214.168 103.86C213.767 104.047 213.314 104.14 212.81 104.14ZM220.175 104.14C219.54 104.14 218.966 103.986 218.453 103.678C217.94 103.361 217.534 102.936 217.235 102.404C216.936 101.863 216.787 101.256 216.787 100.584C216.787 99.912 216.927 99.31 217.207 98.778C217.496 98.246 217.884 97.826 218.369 97.518C218.854 97.21 219.396 97.056 219.993 97.056C220.6 97.056 221.136 97.21 221.603 97.518C222.079 97.8167 222.452 98.2273 222.723 98.75C223.003 99.2633 223.143 99.8467 223.143 100.5V100.808H217.781C217.818 101.275 217.944 101.695 218.159 102.068C218.383 102.432 218.672 102.721 219.027 102.936C219.391 103.141 219.788 103.244 220.217 103.244C220.572 103.244 220.912 103.183 221.239 103.062C221.575 102.931 221.86 102.759 222.093 102.544L222.737 103.23C222.345 103.538 221.939 103.767 221.519 103.916C221.099 104.065 220.651 104.14 220.175 104.14ZM217.809 100.08H222.135C222.088 99.6693 221.962 99.3053 221.757 98.988C221.561 98.6613 221.309 98.4047 221.001 98.218C220.702 98.0313 220.366 97.938 219.993 97.938C219.62 97.938 219.279 98.0313 218.971 98.218C218.663 98.3953 218.406 98.6473 218.201 98.974C218.005 99.2913 217.874 99.66 217.809 100.08ZM224.888 104V93.892L225.91 93.682V104H224.888ZM231.085 104.14C230.45 104.14 229.876 103.986 229.363 103.678C228.85 103.361 228.444 102.936 228.145 102.404C227.846 101.863 227.697 101.256 227.697 100.584C227.697 99.912 227.837 99.31 228.117 98.778C228.406 98.246 228.794 97.826 229.279 97.518C229.764 97.21 230.306 97.056 230.903 97.056C231.51 97.056 232.046 97.21 232.513 97.518C232.989 97.8167 233.362 98.2273 233.633 98.75C233.913 99.2633 234.053 99.8467 234.053 100.5V100.808H228.691C228.728 101.275 228.854 101.695 229.069 102.068C229.293 102.432 229.582 102.721 229.937 102.936C230.301 103.141 230.698 103.244 231.127 103.244C231.482 103.244 231.822 103.183 232.149 103.062C232.485 102.931 232.77 102.759 233.003 102.544L233.647 103.23C233.255 103.538 232.849 103.767 232.429 103.916C232.009 104.065 231.561 104.14 231.085 104.14ZM228.719 100.08H233.045C232.998 99.6693 232.872 99.3053 232.667 98.988C232.471 98.6613 232.219 98.4047 231.911 98.218C231.612 98.0313 231.276 97.938 230.903 97.938C230.53 97.938 230.189 98.0313 229.881 98.218C229.573 98.3953 229.316 98.6473 229.111 98.974C228.915 99.2913 228.784 99.66 228.719 100.08ZM238.864 104.112C238.229 104.112 237.655 103.958 237.142 103.65C236.638 103.333 236.237 102.908 235.938 102.376C235.639 101.835 235.49 101.237 235.49 100.584C235.49 99.9213 235.639 99.324 235.938 98.792C236.237 98.26 236.638 97.84 237.142 97.532C237.655 97.2147 238.229 97.056 238.864 97.056C239.368 97.056 239.849 97.1493 240.306 97.336C240.763 97.5227 241.16 97.784 241.496 98.12L240.838 98.834C240.595 98.5633 240.301 98.3533 239.956 98.204C239.611 98.0547 239.261 97.98 238.906 97.98C238.458 97.98 238.052 98.0967 237.688 98.33C237.333 98.5633 237.049 98.876 236.834 99.268C236.619 99.66 236.512 100.099 236.512 100.584C236.512 101.069 236.619 101.508 236.834 101.9C237.049 102.292 237.333 102.605 237.688 102.838C238.052 103.071 238.458 103.188 238.906 103.188C239.261 103.188 239.611 103.113 239.956 102.964C240.301 102.805 240.595 102.595 240.838 102.334L241.496 103.048C241.16 103.384 240.763 103.645 240.306 103.832C239.849 104.019 239.368 104.112 238.864 104.112ZM245.662 104.14C245.074 104.14 244.626 104 244.318 103.72C244.019 103.431 243.87 103.015 243.87 102.474V98.008H242.456V97.168H243.87V95.292L244.892 95.054V97.168H246.852V98.008H244.892V102.208C244.892 102.572 244.966 102.833 245.116 102.992C245.274 103.151 245.531 103.23 245.886 103.23C246.063 103.23 246.222 103.216 246.362 103.188C246.502 103.16 246.665 103.113 246.852 103.048V103.958C246.665 104.023 246.469 104.07 246.264 104.098C246.058 104.126 245.858 104.14 245.662 104.14ZM311.078 104.112C310.873 104.112 310.695 104.037 310.546 103.888C310.406 103.739 310.336 103.561 310.336 103.356C310.336 103.141 310.406 102.964 310.546 102.824C310.695 102.675 310.873 102.6 311.078 102.6C311.283 102.6 311.456 102.675 311.596 102.824C311.745 102.964 311.82 103.141 311.82 103.356C311.82 103.561 311.745 103.739 311.596 103.888C311.456 104.037 311.283 104.112 311.078 104.112Z" fill="#151515"/>
<path d="M254.528 104L250.692 94.2H251.84L255.2 102.964L258.574 94.2H259.68L255.816 104H254.528ZM260.845 104V97.168H261.867V104H260.845ZM261.363 95.474C261.157 95.474 260.98 95.404 260.831 95.264C260.691 95.1147 260.621 94.942 260.621 94.746C260.621 94.55 260.691 94.382 260.831 94.242C260.98 94.0927 261.157 94.018 261.363 94.018C261.568 94.018 261.741 94.0927 261.881 94.242C262.03 94.382 262.105 94.55 262.105 94.746C262.105 94.942 262.03 95.1147 261.881 95.264C261.741 95.404 261.568 95.474 261.363 95.474ZM267.042 104.14C266.407 104.14 265.833 103.986 265.32 103.678C264.807 103.361 264.401 102.936 264.102 102.404C263.803 101.863 263.654 101.256 263.654 100.584C263.654 99.912 263.794 99.31 264.074 98.778C264.363 98.246 264.751 97.826 265.236 97.518C265.721 97.21 266.263 97.056 266.86 97.056C267.467 97.056 268.003 97.21 268.47 97.518C268.946 97.8167 269.319 98.2273 269.59 98.75C269.87 99.2633 270.01 99.8467 270.01 100.5V100.808H264.648C264.685 101.275 264.811 101.695 265.026 102.068C265.25 102.432 265.539 102.721 265.894 102.936C266.258 103.141 266.655 103.244 267.084 103.244C267.439 103.244 267.779 103.183 268.106 103.062C268.442 102.931 268.727 102.759 268.96 102.544L269.604 103.23C269.212 103.538 268.806 103.767 268.386 103.916C267.966 104.065 267.518 104.14 267.042 104.14ZM264.676 100.08H269.002C268.955 99.6693 268.829 99.3053 268.624 98.988C268.428 98.6613 268.176 98.4047 267.868 98.218C267.569 98.0313 267.233 97.938 266.86 97.938C266.487 97.938 266.146 98.0313 265.838 98.218C265.53 98.3953 265.273 98.6473 265.068 98.974C264.872 99.2913 264.741 99.66 264.676 100.08ZM272.836 104L270.96 97.168H271.954L273.382 102.628L275.02 97.168H275.93L277.568 102.628L278.982 97.168H279.948L278.086 104H277.092L275.468 98.484L273.844 104H272.836ZM284.661 104V93.892L285.683 93.682V104H284.661ZM290.803 104.112C290.168 104.112 289.599 103.958 289.095 103.65C288.591 103.342 288.194 102.922 287.905 102.39C287.615 101.858 287.471 101.256 287.471 100.584C287.471 99.912 287.615 99.31 287.905 98.778C288.194 98.246 288.591 97.826 289.095 97.518C289.599 97.21 290.168 97.056 290.803 97.056C291.428 97.056 291.988 97.21 292.483 97.518C292.987 97.826 293.383 98.246 293.673 98.778C293.962 99.31 294.107 99.912 294.107 100.584C294.107 101.256 293.962 101.858 293.673 102.39C293.383 102.922 292.987 103.342 292.483 103.65C291.988 103.958 291.428 104.112 290.803 104.112ZM290.789 103.216C291.237 103.216 291.633 103.104 291.979 102.88C292.324 102.647 292.595 102.329 292.791 101.928C292.996 101.527 293.099 101.079 293.099 100.584C293.099 100.08 292.996 99.632 292.791 99.24C292.595 98.8387 292.324 98.526 291.979 98.302C291.633 98.0687 291.237 97.952 290.789 97.952C290.341 97.952 289.944 98.0687 289.599 98.302C289.253 98.526 288.978 98.8387 288.773 99.24C288.577 99.632 288.479 100.08 288.479 100.584C288.479 101.079 288.577 101.527 288.773 101.928C288.978 102.329 289.253 102.647 289.599 102.88C289.944 103.104 290.341 103.216 290.789 103.216ZM299.064 107.066C298.606 107.066 298.144 107.001 297.678 106.87C297.22 106.749 296.796 106.576 296.404 106.352L296.838 105.568C297.258 105.783 297.64 105.941 297.986 106.044C298.331 106.147 298.676 106.198 299.022 106.198C299.647 106.198 300.118 106.049 300.436 105.75C300.762 105.451 300.926 105.017 300.926 104.448V103.076C300.664 103.403 300.347 103.655 299.974 103.832C299.6 104 299.19 104.084 298.742 104.084C298.154 104.084 297.622 103.93 297.146 103.622C296.67 103.305 296.292 102.885 296.012 102.362C295.732 101.83 295.592 101.237 295.592 100.584C295.592 99.9307 295.732 99.3427 296.012 98.82C296.301 98.288 296.688 97.868 297.174 97.56C297.659 97.2427 298.2 97.084 298.798 97.084C299.227 97.084 299.624 97.168 299.988 97.336C300.352 97.4947 300.669 97.7327 300.94 98.05V97.168H301.948V104.434C301.948 105.283 301.7 105.932 301.206 106.38C300.711 106.837 299.997 107.066 299.064 107.066ZM298.994 103.202C299.395 103.202 299.764 103.123 300.1 102.964C300.436 102.796 300.711 102.567 300.926 102.278V98.904C300.702 98.6147 300.417 98.3907 300.072 98.232C299.736 98.064 299.376 97.98 298.994 97.98C298.536 97.98 298.126 98.092 297.762 98.316C297.407 98.54 297.122 98.848 296.908 99.24C296.702 99.632 296.6 100.08 296.6 100.584C296.6 101.079 296.702 101.527 296.908 101.928C297.122 102.32 297.407 102.633 297.762 102.866C298.126 103.09 298.536 103.202 298.994 103.202ZM306.162 104.14C305.602 104.14 305.084 104.056 304.608 103.888C304.132 103.711 303.726 103.459 303.39 103.132L303.936 102.46C304.347 102.759 304.725 102.978 305.07 103.118C305.415 103.249 305.77 103.314 306.134 103.314C306.629 103.314 307.039 103.197 307.366 102.964C307.693 102.731 307.856 102.432 307.856 102.068C307.856 101.788 307.758 101.569 307.562 101.41C307.375 101.251 307.063 101.13 306.624 101.046L305.504 100.85C304.841 100.729 304.351 100.523 304.034 100.234C303.726 99.9447 303.572 99.5527 303.572 99.058C303.572 98.666 303.675 98.3207 303.88 98.022C304.095 97.7233 304.389 97.49 304.762 97.322C305.135 97.1447 305.56 97.056 306.036 97.056C306.503 97.056 306.946 97.126 307.366 97.266C307.786 97.3967 308.211 97.6113 308.64 97.91L308.136 98.624C307.781 98.372 307.427 98.19 307.072 98.078C306.717 97.9567 306.358 97.896 305.994 97.896C305.546 97.896 305.187 97.994 304.916 98.19C304.645 98.386 304.51 98.652 304.51 98.988C304.51 99.268 304.594 99.4827 304.762 99.632C304.939 99.7813 305.247 99.8933 305.686 99.968L306.834 100.178C307.525 100.299 308.029 100.509 308.346 100.808C308.663 101.107 308.822 101.508 308.822 102.012C308.822 102.413 308.705 102.777 308.472 103.104C308.239 103.421 307.921 103.673 307.52 103.86C307.119 104.047 306.666 104.14 306.162 104.14Z" fill="#0066CC"/>
<path d="M250.566 107.5H309.328V108.9H250.566V107.5Z" fill="#0066CC"/>
</g>
<g filter="url(#filter1_d_10_6168)">
<mask id="path-9-inside-2_10_6168" fill="white">
<path d="M24 158H432V213H24V158Z"/>
</mask>
<path d="M24 158H432V213H24V158Z" fill="white" shape-rendering="crispEdges"/>
<path d="M24 160H432V156H24V160Z" fill="#DCA614" mask="url(#path-9-inside-2_10_6168)"/>
<g clip-path="url(#clip3_10_6168)">
<path d="M55.7149 192.375L48.6449 180.125C48.5099 179.895 48.2649 179.75 47.9949 179.75C47.7299 179.75 47.4799 179.895 47.3449 180.125L40.2699 192.375C40.2049 192.49 40.1699 192.62 40.1699 192.75C40.1699 192.88 40.2049 193.01 40.2699 193.125C40.4049 193.355 40.6549 193.5 40.9199 193.5H55.0649C55.3299 193.5 55.5799 193.355 55.7149 193.125C55.7799 193.01 55.8149 192.88 55.8149 192.75C55.8149 192.62 55.7799 192.49 55.7149 192.375ZM47.3749 184C47.3749 183.655 47.6549 183.375 47.9999 183.375C48.3449 183.375 48.6249 183.655 48.6249 184V187.5C48.6249 187.845 48.3449 188.125 47.9999 188.125C47.6549 188.125 47.3749 187.845 47.3749 187.5V184ZM47.9999 191.75C47.5849 191.75 47.2499 191.415 47.2499 191C47.2499 190.585 47.5849 190.25 47.9999 190.25C48.4149 190.25 48.7499 190.585 48.7499 191C48.7499 191.415 48.4149 191.75 47.9999 191.75Z" fill="#DCA614"/>
</g>
<path d="M66.856 189.544H68.802C69.39 189.544 69.922 189.395 70.398 189.096C70.874 188.788 71.252 188.373 71.532 187.85C71.812 187.327 71.952 186.744 71.952 186.1C71.952 185.447 71.812 184.863 71.532 184.35C71.252 183.827 70.874 183.417 70.398 183.118C69.922 182.81 69.39 182.656 68.802 182.656H66.856V189.544ZM65.176 191V181.2H68.76C69.4693 181.2 70.1227 181.326 70.72 181.578C71.3173 181.83 71.8353 182.18 72.274 182.628C72.722 183.067 73.0673 183.585 73.31 184.182C73.5527 184.77 73.674 185.409 73.674 186.1C73.674 186.791 73.5527 187.435 73.31 188.032C73.0673 188.62 72.722 189.138 72.274 189.586C71.8353 190.025 71.3173 190.37 70.72 190.622C70.1227 190.874 69.4693 191 68.76 191H65.176ZM78.5766 191.126C77.914 191.126 77.312 190.967 76.7706 190.65C76.2386 190.333 75.8186 189.903 75.5106 189.362C75.2026 188.811 75.0486 188.191 75.0486 187.5C75.0486 186.809 75.2026 186.193 75.5106 185.652C75.8186 185.101 76.2386 184.667 76.7706 184.35C77.3026 184.033 77.9046 183.874 78.5766 183.874C79.2486 183.874 79.846 184.033 80.3686 184.35C80.9006 184.667 81.3206 185.101 81.6286 185.652C81.9366 186.193 82.0906 186.809 82.0906 187.5C82.0906 188.191 81.9366 188.811 81.6286 189.362C81.3206 189.903 80.9006 190.333 80.3686 190.65C79.846 190.967 79.2486 191.126 78.5766 191.126ZM78.5766 189.782C78.9593 189.782 79.2953 189.684 79.5846 189.488C79.8833 189.292 80.1166 189.021 80.2846 188.676C80.4526 188.321 80.5366 187.929 80.5366 187.5C80.5366 187.061 80.4526 186.674 80.2846 186.338C80.1166 185.993 79.8833 185.722 79.5846 185.526C79.2953 185.321 78.9593 185.218 78.5766 185.218C78.194 185.218 77.8533 185.321 77.5546 185.526C77.256 185.722 77.0226 185.993 76.8546 186.338C76.6866 186.674 76.6026 187.061 76.6026 187.5C76.6026 187.939 76.6866 188.331 76.8546 188.676C77.0226 189.021 77.256 189.292 77.5546 189.488C77.8533 189.684 78.194 189.782 78.5766 189.782ZM84.8194 191L82.9294 183.986H84.4414L85.6734 188.928L87.1294 183.986H88.4594L89.9014 188.928L91.1334 183.986H92.6034L90.7134 191H89.2014L87.7734 186.058L86.3594 191H84.8194ZM93.896 191V183.986H95.478V185.134C95.7487 184.714 96.0707 184.401 96.444 184.196C96.8173 183.981 97.2327 183.874 97.69 183.874C98.1753 183.874 98.6 183.981 98.964 184.196C99.328 184.401 99.6127 184.691 99.818 185.064C100.033 185.437 100.14 185.876 100.14 186.38V191H98.544V186.828C98.544 186.315 98.404 185.909 98.124 185.61C97.844 185.302 97.4707 185.148 97.004 185.148C96.6867 185.148 96.3973 185.223 96.136 185.372C95.884 185.512 95.6647 185.722 95.478 186.002V191H93.896ZM102.044 191V180.962L103.626 180.682V191H102.044ZM108.778 191.126C108.115 191.126 107.513 190.967 106.972 190.65C106.44 190.333 106.02 189.903 105.712 189.362C105.404 188.811 105.25 188.191 105.25 187.5C105.25 186.809 105.404 186.193 105.712 185.652C106.02 185.101 106.44 184.667 106.972 184.35C107.504 184.033 108.106 183.874 108.778 183.874C109.45 183.874 110.047 184.033 110.57 184.35C111.102 184.667 111.522 185.101 111.83 185.652C112.138 186.193 112.292 186.809 112.292 187.5C112.292 188.191 112.138 188.811 111.83 189.362C111.522 189.903 111.102 190.333 110.57 190.65C110.047 190.967 109.45 191.126 108.778 191.126ZM108.778 189.782C109.16 189.782 109.496 189.684 109.786 189.488C110.084 189.292 110.318 189.021 110.486 188.676C110.654 188.321 110.738 187.929 110.738 187.5C110.738 187.061 110.654 186.674 110.486 186.338C110.318 185.993 110.084 185.722 109.786 185.526C109.496 185.321 109.16 185.218 108.778 185.218C108.395 185.218 108.054 185.321 107.756 185.526C107.457 185.722 107.224 185.993 107.056 186.338C106.888 186.674 106.804 187.061 106.804 187.5C106.804 187.939 106.888 188.331 107.056 188.676C107.224 189.021 107.457 189.292 107.756 189.488C108.054 189.684 108.395 189.782 108.778 189.782ZM116.122 191.126C115.636 191.126 115.202 191.037 114.82 190.86C114.446 190.673 114.152 190.421 113.938 190.104C113.732 189.777 113.63 189.404 113.63 188.984C113.63 188.564 113.737 188.2 113.952 187.892C114.176 187.584 114.488 187.346 114.89 187.178C115.291 187.01 115.767 186.926 116.318 186.926C116.644 186.926 116.966 186.963 117.284 187.038C117.601 187.103 117.909 187.215 118.208 187.374V186.59C118.208 186.123 118.072 185.773 117.802 185.54C117.54 185.307 117.139 185.19 116.598 185.19C116.308 185.19 115.996 185.237 115.66 185.33C115.333 185.414 114.964 185.549 114.554 185.736L113.994 184.588C115.02 184.112 115.991 183.874 116.906 183.874C117.82 183.874 118.525 184.098 119.02 184.546C119.524 184.985 119.776 185.61 119.776 186.422V191H118.208V190.272C117.909 190.561 117.587 190.776 117.242 190.916C116.896 191.056 116.523 191.126 116.122 191.126ZM115.114 188.956C115.114 189.283 115.244 189.539 115.506 189.726C115.767 189.913 116.117 190.006 116.556 190.006C116.873 190.006 117.167 189.959 117.438 189.866C117.718 189.763 117.974 189.614 118.208 189.418V188.284C117.965 188.172 117.713 188.088 117.452 188.032C117.19 187.976 116.906 187.948 116.598 187.948C116.14 187.948 115.776 188.037 115.506 188.214C115.244 188.391 115.114 188.639 115.114 188.956ZM124.533 191.07C123.945 191.07 123.413 190.911 122.937 190.594C122.461 190.267 122.078 189.838 121.789 189.306C121.509 188.765 121.369 188.163 121.369 187.5C121.369 186.828 121.514 186.226 121.803 185.694C122.092 185.153 122.484 184.723 122.979 184.406C123.483 184.089 124.038 183.93 124.645 183.93C125.046 183.93 125.42 184.009 125.765 184.168C126.12 184.317 126.428 184.541 126.689 184.84V180.962L128.271 180.682V191H126.703V190.076C126.451 190.393 126.138 190.641 125.765 190.818C125.392 190.986 124.981 191.07 124.533 191.07ZM125.023 189.74C125.359 189.74 125.672 189.675 125.961 189.544C126.25 189.404 126.493 189.213 126.689 188.97V186.016C126.484 185.773 126.236 185.587 125.947 185.456C125.658 185.325 125.35 185.26 125.023 185.26C124.622 185.26 124.262 185.358 123.945 185.554C123.637 185.741 123.39 186.002 123.203 186.338C123.016 186.674 122.923 187.061 122.923 187.5C122.923 187.92 123.016 188.303 123.203 188.648C123.39 188.984 123.637 189.25 123.945 189.446C124.262 189.642 124.622 189.74 125.023 189.74ZM136.6 191.126C135.938 191.126 135.336 190.967 134.794 190.65C134.262 190.323 133.838 189.885 133.52 189.334C133.212 188.783 133.058 188.172 133.058 187.5C133.058 186.819 133.212 186.207 133.52 185.666C133.838 185.115 134.262 184.681 134.794 184.364C135.336 184.037 135.938 183.874 136.6 183.874C137.142 183.874 137.655 183.977 138.14 184.182C138.635 184.387 139.055 184.681 139.4 185.064L138.42 186.086C138.178 185.815 137.907 185.61 137.608 185.47C137.31 185.33 136.992 185.26 136.656 185.26C136.274 185.26 135.928 185.363 135.62 185.568C135.322 185.764 135.084 186.03 134.906 186.366C134.729 186.702 134.64 187.08 134.64 187.5C134.64 187.92 134.729 188.303 134.906 188.648C135.084 188.984 135.322 189.25 135.62 189.446C135.928 189.642 136.274 189.74 136.656 189.74C136.992 189.74 137.31 189.67 137.608 189.53C137.907 189.39 138.178 189.189 138.42 188.928L139.4 189.936C139.055 190.319 138.635 190.613 138.14 190.818C137.655 191.023 137.142 191.126 136.6 191.126ZM143.709 191.126C143.047 191.126 142.445 190.967 141.903 190.65C141.371 190.333 140.951 189.903 140.643 189.362C140.335 188.811 140.181 188.191 140.181 187.5C140.181 186.809 140.335 186.193 140.643 185.652C140.951 185.101 141.371 184.667 141.903 184.35C142.435 184.033 143.037 183.874 143.709 183.874C144.381 183.874 144.979 184.033 145.501 184.35C146.033 184.667 146.453 185.101 146.761 185.652C147.069 186.193 147.223 186.809 147.223 187.5C147.223 188.191 147.069 188.811 146.761 189.362C146.453 189.903 146.033 190.333 145.501 190.65C144.979 190.967 144.381 191.126 143.709 191.126ZM143.709 189.782C144.092 189.782 144.428 189.684 144.717 189.488C145.016 189.292 145.249 189.021 145.417 188.676C145.585 188.321 145.669 187.929 145.669 187.5C145.669 187.061 145.585 186.674 145.417 186.338C145.249 185.993 145.016 185.722 144.717 185.526C144.428 185.321 144.092 185.218 143.709 185.218C143.327 185.218 142.986 185.321 142.687 185.526C142.389 185.722 142.155 185.993 141.987 186.338C141.819 186.674 141.735 187.061 141.735 187.5C141.735 187.939 141.819 188.331 141.987 188.676C142.155 189.021 142.389 189.292 142.687 189.488C142.986 189.684 143.327 189.782 143.709 189.782ZM148.857 191V183.986H150.439V185.092C150.7 184.691 151.004 184.387 151.349 184.182C151.704 183.977 152.091 183.874 152.511 183.874C152.996 183.874 153.416 183.995 153.771 184.238C154.135 184.481 154.406 184.807 154.583 185.218C154.863 184.779 155.194 184.448 155.577 184.224C155.969 183.991 156.412 183.874 156.907 183.874C157.355 183.874 157.752 183.981 158.097 184.196C158.452 184.411 158.722 184.709 158.909 185.092C159.105 185.475 159.203 185.913 159.203 186.408V191H157.621V186.758C157.621 186.263 157.495 185.871 157.243 185.582C156.991 185.293 156.646 185.148 156.207 185.148C155.927 185.148 155.666 185.218 155.423 185.358C155.19 185.498 154.984 185.708 154.807 185.988C154.816 186.053 154.821 186.123 154.821 186.198C154.83 186.263 154.835 186.333 154.835 186.408V191H153.239V186.758C153.239 186.263 153.113 185.871 152.861 185.582C152.609 185.293 152.264 185.148 151.825 185.148C151.256 185.148 150.794 185.419 150.439 185.96V191H148.857ZM161.121 193.926V183.986H162.675V184.98C162.927 184.644 163.239 184.387 163.613 184.21C163.995 184.023 164.411 183.93 164.859 183.93C165.456 183.93 165.993 184.089 166.469 184.406C166.945 184.723 167.323 185.153 167.603 185.694C167.883 186.235 168.023 186.837 168.023 187.5C168.023 188.163 167.878 188.765 167.589 189.306C167.299 189.847 166.907 190.277 166.413 190.594C165.918 190.911 165.367 191.07 164.761 191.07C164.341 191.07 163.953 190.995 163.599 190.846C163.253 190.687 162.955 190.463 162.703 190.174V193.926H161.121ZM164.383 189.754C164.784 189.754 165.139 189.656 165.447 189.46C165.764 189.264 166.011 188.998 166.189 188.662C166.375 188.317 166.469 187.929 166.469 187.5C166.469 187.071 166.375 186.688 166.189 186.352C166.011 186.016 165.764 185.75 165.447 185.554C165.139 185.358 164.784 185.26 164.383 185.26C164.037 185.26 163.72 185.33 163.431 185.47C163.141 185.601 162.899 185.792 162.703 186.044V188.97C162.908 189.213 163.155 189.404 163.445 189.544C163.734 189.684 164.047 189.754 164.383 189.754ZM169.679 191V180.962L171.261 180.682V191H169.679ZM176.469 191.14C175.797 191.14 175.19 190.981 174.649 190.664C174.107 190.337 173.678 189.903 173.361 189.362C173.043 188.811 172.885 188.191 172.885 187.5C172.885 186.809 173.034 186.193 173.333 185.652C173.631 185.111 174.037 184.681 174.551 184.364C175.073 184.037 175.652 183.874 176.287 183.874C176.94 183.874 177.514 184.033 178.009 184.35C178.513 184.667 178.905 185.097 179.185 185.638C179.474 186.179 179.619 186.8 179.619 187.5V187.878H174.439C174.495 188.261 174.616 188.601 174.803 188.9C174.999 189.189 175.246 189.418 175.545 189.586C175.853 189.754 176.184 189.838 176.539 189.838C176.865 189.838 177.173 189.782 177.463 189.67C177.761 189.549 178.009 189.385 178.205 189.18L179.241 190.118C178.811 190.473 178.373 190.734 177.925 190.902C177.486 191.061 177.001 191.14 176.469 191.14ZM174.453 186.898H178.121C178.065 186.562 177.948 186.263 177.771 186.002C177.603 185.741 177.388 185.535 177.127 185.386C176.875 185.237 176.595 185.162 176.287 185.162C175.979 185.162 175.694 185.237 175.433 185.386C175.181 185.526 174.971 185.727 174.803 185.988C174.635 186.249 174.518 186.553 174.453 186.898ZM184.051 191.14C183.342 191.14 182.805 190.977 182.441 190.65C182.077 190.314 181.895 189.824 181.895 189.18V185.246H180.495V183.986H181.895V182.054L183.477 181.718V183.986H185.423V185.246H183.477V188.83C183.477 189.175 183.552 189.423 183.701 189.572C183.85 189.712 184.102 189.782 184.457 189.782C184.616 189.782 184.76 189.773 184.891 189.754C185.031 189.726 185.204 189.679 185.409 189.614V190.944C185.213 191.009 184.989 191.056 184.737 191.084C184.494 191.121 184.266 191.14 184.051 191.14ZM189.976 191.14C189.304 191.14 188.698 190.981 188.156 190.664C187.615 190.337 187.186 189.903 186.868 189.362C186.551 188.811 186.392 188.191 186.392 187.5C186.392 186.809 186.542 186.193 186.84 185.652C187.139 185.111 187.545 184.681 188.058 184.364C188.581 184.037 189.16 183.874 189.794 183.874C190.448 183.874 191.022 184.033 191.516 184.35C192.02 184.667 192.412 185.097 192.692 185.638C192.982 186.179 193.126 186.8 193.126 187.5V187.878H187.946C188.002 188.261 188.124 188.601 188.31 188.9C188.506 189.189 188.754 189.418 189.052 189.586C189.36 189.754 189.692 189.838 190.046 189.838C190.373 189.838 190.681 189.782 190.97 189.67C191.269 189.549 191.516 189.385 191.712 189.18L192.748 190.118C192.319 190.473 191.88 190.734 191.432 190.902C190.994 191.061 190.508 191.14 189.976 191.14ZM187.96 186.898H191.628C191.572 186.562 191.456 186.263 191.278 186.002C191.11 185.741 190.896 185.535 190.634 185.386C190.382 185.237 190.102 185.162 189.794 185.162C189.486 185.162 189.202 185.237 188.94 185.386C188.688 185.526 188.478 185.727 188.31 185.988C188.142 186.249 188.026 186.553 187.96 186.898ZM199.116 191L197.226 183.986H198.738L199.97 188.928L201.426 183.986H202.756L204.198 188.928L205.43 183.986H206.9L205.01 191H203.498L202.07 186.058L200.656 191H199.116ZM208.179 191V183.986H209.761V191H208.179ZM208.977 182.558C208.706 182.558 208.473 182.465 208.277 182.278C208.09 182.082 207.997 181.853 207.997 181.592C207.997 181.321 208.09 181.093 208.277 180.906C208.473 180.71 208.706 180.612 208.977 180.612C209.248 180.612 209.476 180.71 209.663 180.906C209.859 181.093 209.957 181.317 209.957 181.578C209.957 181.849 209.859 182.082 209.663 182.278C209.476 182.465 209.248 182.558 208.977 182.558ZM214.744 191.14C214.035 191.14 213.498 190.977 213.134 190.65C212.77 190.314 212.588 189.824 212.588 189.18V185.246H211.188V183.986H212.588V182.054L214.17 181.718V183.986H216.116V185.246H214.17V188.83C214.17 189.175 214.245 189.423 214.394 189.572C214.544 189.712 214.796 189.782 215.15 189.782C215.309 189.782 215.454 189.773 215.584 189.754C215.724 189.726 215.897 189.679 216.102 189.614V190.944C215.906 191.009 215.682 191.056 215.43 191.084C215.188 191.121 214.959 191.14 214.744 191.14ZM217.517 191V180.962L219.099 180.682V185.134C219.37 184.714 219.692 184.401 220.065 184.196C220.438 183.981 220.854 183.874 221.311 183.874C221.796 183.874 222.221 183.981 222.585 184.196C222.949 184.401 223.234 184.691 223.439 185.064C223.654 185.437 223.761 185.876 223.761 186.38V191H222.165V186.828C222.165 186.315 222.025 185.909 221.745 185.61C221.465 185.302 221.092 185.148 220.625 185.148C220.308 185.148 220.018 185.223 219.757 185.372C219.505 185.512 219.286 185.722 219.099 186.002V191H217.517ZM232.072 191.14C231.4 191.14 230.793 190.981 230.252 190.664C229.711 190.337 229.281 189.903 228.964 189.362C228.647 188.811 228.488 188.191 228.488 187.5C228.488 186.809 228.637 186.193 228.936 185.652C229.235 185.111 229.641 184.681 230.154 184.364C230.677 184.037 231.255 183.874 231.89 183.874C232.543 183.874 233.117 184.033 233.612 184.35C234.116 184.667 234.508 185.097 234.788 185.638C235.077 186.179 235.222 186.8 235.222 187.5V187.878H230.042C230.098 188.261 230.219 188.601 230.406 188.9C230.602 189.189 230.849 189.418 231.148 189.586C231.456 189.754 231.787 189.838 232.142 189.838C232.469 189.838 232.777 189.782 233.066 189.67C233.365 189.549 233.612 189.385 233.808 189.18L234.844 190.118C234.415 190.473 233.976 190.734 233.528 190.902C233.089 191.061 232.604 191.14 232.072 191.14ZM230.056 186.898H233.724C233.668 186.562 233.551 186.263 233.374 186.002C233.206 185.741 232.991 185.535 232.73 185.386C232.478 185.237 232.198 185.162 231.89 185.162C231.582 185.162 231.297 185.237 231.036 185.386C230.784 185.526 230.574 185.727 230.406 185.988C230.238 186.249 230.121 186.553 230.056 186.898ZM236.835 191V183.986H238.417V185.498C238.623 184.966 238.889 184.56 239.215 184.28C239.542 184 239.92 183.86 240.349 183.86C240.48 183.869 240.597 183.883 240.699 183.902C240.802 183.911 240.914 183.944 241.035 184V185.386C240.914 185.33 240.774 185.288 240.615 185.26C240.466 185.232 240.317 185.218 240.167 185.218C239.785 185.218 239.439 185.321 239.131 185.526C238.833 185.731 238.595 186.016 238.417 186.38V191H236.835ZM242.332 191V183.986H243.914V185.498C244.119 184.966 244.385 184.56 244.712 184.28C245.038 184 245.416 183.86 245.846 183.86C245.976 183.869 246.093 183.883 246.196 183.902C246.298 183.911 246.41 183.944 246.532 184V185.386C246.41 185.33 246.27 185.288 246.112 185.26C245.962 185.232 245.813 185.218 245.664 185.218C245.281 185.218 244.936 185.321 244.628 185.526C244.329 185.731 244.091 186.016 243.914 186.38V191H242.332ZM250.706 191.126C250.043 191.126 249.441 190.967 248.9 190.65C248.368 190.333 247.948 189.903 247.64 189.362C247.332 188.811 247.178 188.191 247.178 187.5C247.178 186.809 247.332 186.193 247.64 185.652C247.948 185.101 248.368 184.667 248.9 184.35C249.432 184.033 250.034 183.874 250.706 183.874C251.378 183.874 251.975 184.033 252.498 184.35C253.03 184.667 253.45 185.101 253.758 185.652C254.066 186.193 254.22 186.809 254.22 187.5C254.22 188.191 254.066 188.811 253.758 189.362C253.45 189.903 253.03 190.333 252.498 190.65C251.975 190.967 251.378 191.126 250.706 191.126ZM250.706 189.782C251.088 189.782 251.424 189.684 251.714 189.488C252.012 189.292 252.246 189.021 252.414 188.676C252.582 188.321 252.666 187.929 252.666 187.5C252.666 187.061 252.582 186.674 252.414 186.338C252.246 185.993 252.012 185.722 251.714 185.526C251.424 185.321 251.088 185.218 250.706 185.218C250.323 185.218 249.982 185.321 249.684 185.526C249.385 185.722 249.152 185.993 248.984 186.338C248.816 186.674 248.732 187.061 248.732 187.5C248.732 187.939 248.816 188.331 248.984 188.676C249.152 189.021 249.385 189.292 249.684 189.488C249.982 189.684 250.323 189.782 250.706 189.782ZM255.853 191V183.986H257.435V185.498C257.64 184.966 257.906 184.56 258.233 184.28C258.56 184 258.938 183.86 259.367 183.86C259.498 183.869 259.614 183.883 259.717 183.902C259.82 183.911 259.932 183.944 260.053 184V185.386C259.932 185.33 259.792 185.288 259.633 185.26C259.484 185.232 259.334 185.218 259.185 185.218C258.802 185.218 258.457 185.321 258.149 185.526C257.85 185.731 257.612 186.016 257.435 186.38V191H255.853ZM263.756 191.14C263.159 191.14 262.599 191.061 262.076 190.902C261.563 190.734 261.12 190.496 260.746 190.188L261.488 189.138C261.955 189.427 262.356 189.633 262.692 189.754C263.038 189.875 263.388 189.936 263.742 189.936C264.162 189.936 264.503 189.847 264.764 189.67C265.026 189.493 265.156 189.264 265.156 188.984C265.156 188.769 265.077 188.601 264.918 188.48C264.769 188.349 264.522 188.251 264.176 188.186L262.944 187.976C262.263 187.845 261.754 187.621 261.418 187.304C261.082 186.987 260.914 186.567 260.914 186.044C260.914 185.605 261.026 185.227 261.25 184.91C261.484 184.583 261.801 184.331 262.202 184.154C262.613 183.967 263.089 183.874 263.63 183.874C264.116 183.874 264.587 183.944 265.044 184.084C265.502 184.224 265.95 184.434 266.388 184.714L265.646 185.764C265.292 185.531 264.937 185.363 264.582 185.26C264.237 185.148 263.887 185.092 263.532 185.092C263.168 185.092 262.874 185.167 262.65 185.316C262.436 185.456 262.328 185.652 262.328 185.904C262.328 186.128 262.398 186.301 262.538 186.422C262.688 186.534 262.944 186.618 263.308 186.674L264.554 186.912C265.254 187.033 265.772 187.257 266.108 187.584C266.454 187.901 266.626 188.326 266.626 188.858C266.626 189.287 266.5 189.675 266.248 190.02C265.996 190.365 265.656 190.641 265.226 190.846C264.797 191.042 264.307 191.14 263.756 191.14Z" fill="#151515"/>
<g clip-path="url(#clip4_10_6168)">
<path d="M410.955 182L414.678 178.277C414.941 178.014 414.941 177.586 414.678 177.323C414.414 177.059 413.986 177.059 413.722 177.323L410 181.045L406.277 177.323C406.014 177.059 405.586 177.059 405.323 177.323C405.059 177.586 405.059 178.014 405.323 178.277L409.045 182L405.323 185.722C405.059 185.986 405.059 186.414 405.323 186.678C405.455 186.809 405.627 186.875 405.8 186.875C405.973 186.875 406.145 186.809 406.277 186.678L410 182.955L413.722 186.678C413.854 186.809 414.027 186.875 414.2 186.875C414.373 186.875 414.546 186.809 414.678 186.678C414.941 186.414 414.941 185.986 414.678 185.722L410.955 182Z" fill="#151515"/>
</g>
</g>
<defs>
<filter id="filter0_d_10_6168" x="8" y="34" width="440" height="116" filterUnits="userSpaceOnUse" color-interpolation-filters="sRGB">
<feFlood flood-opacity="0" result="BackgroundImageFix"/>
<feColorMatrix in="SourceAlpha" type="matrix" values="0 0 0 0 0 0 0 0 0 0 0 0 0 0 0 0 0 0 127 0" result="hardAlpha"/>
<feOffset dy="8"/>
<feGaussianBlur stdDeviation="8"/>
<feComposite in2="hardAlpha" operator="out"/>
<feColorMatrix type="matrix" values="0 0 0 0 0.0823529 0 0 0 0 0.0823529 0 0 0 0 0.0823529 0 0 0 0.3 0"/>
<feBlend mode="normal" in2="BackgroundImageFix" result="effect1_dropShadow_10_6168"/>
<feBlend mode="normal" in="SourceGraphic" in2="effect1_dropShadow_10_6168" result="shape"/>
</filter>
<filter id="filter1_d_10_6168" x="8" y="150" width="440" height="87" filterUnits="userSpaceOnUse" color-interpolation-filters="sRGB">
<feFlood flood-opacity="0" result="BackgroundImageFix"/>
<feColorMatrix in="SourceAlpha" type="matrix" values="0 0 0 0 0 0 0 0 0 0 0 0 0 0 0 0 0 0 127 0" result="hardAlpha"/>
<feOffset dy="8"/>
<feGaussianBlur stdDeviation="8"/>
<feComposite in2="hardAlpha" operator="out"/>
<feColorMatrix type="matrix" values="0 0 0 0 0.0823529 0 0 0 0 0.0823529 0 0 0 0 0.0823529 0 0 0 0.3 0"/>
<feBlend mode="normal" in2="BackgroundImageFix" result="effect1_dropShadow_10_6168"/>
<feBlend mode="normal" in="SourceGraphic" in2="effect1_dropShadow_10_6168" result="shape"/>
</filter>
<clipPath id="clip0_10_6168">
<rect width="16" height="16" fill="white" transform="translate(24 5)"/>
</clipPath>
<clipPath id="clip1_10_6168">
<rect width="16" height="16" fill="white" transform="translate(40 62.5)"/>
</clipPath>
<clipPath id="clip2_10_6168">
<rect width="12" height="12" fill="white" transform="translate(404 60)"/>
</clipPath>
<clipPath id="clip3_10_6168">
<rect width="16" height="16" fill="white" transform="translate(40 178.5)"/>
</clipPath>
<clipPath id="clip4_10_6168">
<rect width="12" height="12" fill="white" transform="translate(404 176)"/>
</clipPath>
</defs>
</svg>
