<svg width="1140" height="300" viewBox="0 0 1140 300" fill="none" xmlns="http://www.w3.org/2000/svg">
<rect x="0.5" y="0.5" width="1139" height="299" rx="2.5" fill="white" stroke="#C7C7C7"/>
<rect x="64" y="268" width="1012" height="24" fill="#E0E0E0"/>
<rect x="64" y="228" width="1012" height="24" fill="#E0E0E0"/>
<rect x="64" y="188" width="1012" height="24" fill="#E0E0E0"/>
<rect x="64" y="136" width="506" height="36" fill="#E0E0E0"/>
<rect width="1140" height="72" fill="#151515"/>
<g filter="url(#filter0_d_15_3201)">
<mask id="path-7-inside-1_15_3201" fill="white">
<path d="M684 48H1092V132H684V48Z"/>
</mask>
<path d="M684 48H1092V132H684V48Z" fill="white" shape-rendering="crispEdges"/>
<path d="M684 50H1092V46H684V50Z" fill="#DCA614" mask="url(#path-7-inside-1_15_3201)"/>
<g clip-path="url(#clip0_15_3201)">
<path d="M715.715 82.375L708.645 70.125C708.51 69.895 708.265 69.75 707.995 69.75C707.73 69.75 707.48 69.895 707.345 70.125L700.27 82.375C700.205 82.49 700.17 82.62 700.17 82.75C700.17 82.88 700.205 83.01 700.27 83.125C700.405 83.355 700.655 83.5 700.92 83.5H715.065C715.33 83.5 715.58 83.355 715.715 83.125C715.78 83.01 715.815 82.88 715.815 82.75C715.815 82.62 715.78 82.49 715.715 82.375ZM707.375 74C707.375 73.655 707.655 73.375 708 73.375C708.345 73.375 708.625 73.655 708.625 74V77.5C708.625 77.845 708.345 78.125 708 78.125C707.655 78.125 707.375 77.845 707.375 77.5V74ZM708 81.75C707.585 81.75 707.25 81.415 707.25 81C707.25 80.585 707.585 80.25 708 80.25C708.415 80.25 708.75 80.585 708.75 81C708.75 81.415 708.415 81.75 708 81.75Z" fill="#DCA614"/>
</g>
<path d="M726.856 79.544H728.802C729.39 79.544 729.922 79.3947 730.398 79.096C730.874 78.788 731.252 78.3727 731.532 77.85C731.812 77.3273 731.952 76.744 731.952 76.1C731.952 75.4467 731.812 74.8633 731.532 74.35C731.252 73.8273 730.874 73.4167 730.398 73.118C729.922 72.81 729.39 72.656 728.802 72.656H726.856V79.544ZM725.176 81V71.2H728.76C729.469 71.2 730.123 71.326 730.72 71.578C731.317 71.83 731.835 72.18 732.274 72.628C732.722 73.0667 733.067 73.5847 733.31 74.182C733.553 74.77 733.674 75.4093 733.674 76.1C733.674 76.7907 733.553 77.4347 733.31 78.032C733.067 78.62 732.722 79.138 732.274 79.586C731.835 80.0247 731.317 80.37 730.72 80.622C730.123 80.874 729.469 81 728.76 81H725.176ZM738.577 81.126C737.914 81.126 737.312 80.9673 736.771 80.65C736.239 80.3327 735.819 79.9033 735.511 79.362C735.203 78.8113 735.049 78.1907 735.049 77.5C735.049 76.8093 735.203 76.1933 735.511 75.652C735.819 75.1013 736.239 74.6673 736.771 74.35C737.303 74.0327 737.905 73.874 738.577 73.874C739.249 73.874 739.846 74.0327 740.369 74.35C740.901 74.6673 741.321 75.1013 741.629 75.652C741.937 76.1933 742.091 76.8093 742.091 77.5C742.091 78.1907 741.937 78.8113 741.629 79.362C741.321 79.9033 740.901 80.3327 740.369 80.65C739.846 80.9673 739.249 81.126 738.577 81.126ZM738.577 79.782C738.959 79.782 739.295 79.684 739.585 79.488C739.883 79.292 740.117 79.0213 740.285 78.676C740.453 78.3213 740.537 77.9293 740.537 77.5C740.537 77.0613 740.453 76.674 740.285 76.338C740.117 75.9927 739.883 75.722 739.585 75.526C739.295 75.3207 738.959 75.218 738.577 75.218C738.194 75.218 737.853 75.3207 737.555 75.526C737.256 75.722 737.023 75.9927 736.855 76.338C736.687 76.674 736.603 77.0613 736.603 77.5C736.603 77.9387 736.687 78.3307 736.855 78.676C737.023 79.0213 737.256 79.292 737.555 79.488C737.853 79.684 738.194 79.782 738.577 79.782ZM744.819 81L742.929 73.986H744.441L745.673 78.928L747.129 73.986H748.459L749.901 78.928L751.133 73.986H752.603L750.713 81H749.201L747.773 76.058L746.359 81H744.819ZM753.896 81V73.986H755.478V75.134C755.749 74.714 756.071 74.4013 756.444 74.196C756.817 73.9813 757.233 73.874 757.69 73.874C758.175 73.874 758.6 73.9813 758.964 74.196C759.328 74.4013 759.613 74.6907 759.818 75.064C760.033 75.4373 760.14 75.876 760.14 76.38V81H758.544V76.828C758.544 76.3147 758.404 75.9087 758.124 75.61C757.844 75.302 757.471 75.148 757.004 75.148C756.687 75.148 756.397 75.2227 756.136 75.372C755.884 75.512 755.665 75.722 755.478 76.002V81H753.896ZM762.044 81V70.962L763.626 70.682V81H762.044ZM768.778 81.126C768.115 81.126 767.513 80.9673 766.972 80.65C766.44 80.3327 766.02 79.9033 765.712 79.362C765.404 78.8113 765.25 78.1907 765.25 77.5C765.25 76.8093 765.404 76.1933 765.712 75.652C766.02 75.1013 766.44 74.6673 766.972 74.35C767.504 74.0327 768.106 73.874 768.778 73.874C769.45 73.874 770.047 74.0327 770.57 74.35C771.102 74.6673 771.522 75.1013 771.83 75.652C772.138 76.1933 772.292 76.8093 772.292 77.5C772.292 78.1907 772.138 78.8113 771.83 79.362C771.522 79.9033 771.102 80.3327 770.57 80.65C770.047 80.9673 769.45 81.126 768.778 81.126ZM768.778 79.782C769.16 79.782 769.496 79.684 769.786 79.488C770.084 79.292 770.318 79.0213 770.486 78.676C770.654 78.3213 770.738 77.9293 770.738 77.5C770.738 77.0613 770.654 76.674 770.486 76.338C770.318 75.9927 770.084 75.722 769.786 75.526C769.496 75.3207 769.16 75.218 768.778 75.218C768.395 75.218 768.054 75.3207 767.756 75.526C767.457 75.722 767.224 75.9927 767.056 76.338C766.888 76.674 766.804 77.0613 766.804 77.5C766.804 77.9387 766.888 78.3307 767.056 78.676C767.224 79.0213 767.457 79.292 767.756 79.488C768.054 79.684 768.395 79.782 768.778 79.782ZM776.122 81.126C775.636 81.126 775.202 81.0373 774.82 80.86C774.446 80.6733 774.152 80.4213 773.938 80.104C773.732 79.7773 773.63 79.404 773.63 78.984C773.63 78.564 773.737 78.2 773.952 77.892C774.176 77.584 774.488 77.346 774.89 77.178C775.291 77.01 775.767 76.926 776.318 76.926C776.644 76.926 776.966 76.9633 777.284 77.038C777.601 77.1033 777.909 77.2153 778.208 77.374V76.59C778.208 76.1233 778.072 75.7733 777.802 75.54C777.54 75.3067 777.139 75.19 776.598 75.19C776.308 75.19 775.996 75.2367 775.66 75.33C775.333 75.414 774.964 75.5493 774.554 75.736L773.994 74.588C775.02 74.112 775.991 73.874 776.906 73.874C777.82 73.874 778.525 74.098 779.02 74.546C779.524 74.9847 779.776 75.61 779.776 76.422V81H778.208V80.272C777.909 80.5613 777.587 80.776 777.242 80.916C776.896 81.056 776.523 81.126 776.122 81.126ZM775.114 78.956C775.114 79.2827 775.244 79.5393 775.506 79.726C775.767 79.9127 776.117 80.006 776.556 80.006C776.873 80.006 777.167 79.9593 777.438 79.866C777.718 79.7633 777.974 79.614 778.208 79.418V78.284C777.965 78.172 777.713 78.088 777.452 78.032C777.19 77.976 776.906 77.948 776.598 77.948C776.14 77.948 775.776 78.0367 775.506 78.214C775.244 78.3913 775.114 78.6387 775.114 78.956ZM784.533 81.07C783.945 81.07 783.413 80.9113 782.937 80.594C782.461 80.2673 782.078 79.838 781.789 79.306C781.509 78.7647 781.369 78.1627 781.369 77.5C781.369 76.828 781.514 76.226 781.803 75.694C782.092 75.1527 782.484 74.7233 782.979 74.406C783.483 74.0887 784.038 73.93 784.645 73.93C785.046 73.93 785.42 74.0093 785.765 74.168C786.12 74.3173 786.428 74.5413 786.689 74.84V70.962L788.271 70.682V81H786.703V80.076C786.451 80.3933 786.138 80.6407 785.765 80.818C785.392 80.986 784.981 81.07 784.533 81.07ZM785.023 79.74C785.359 79.74 785.672 79.6747 785.961 79.544C786.25 79.404 786.493 79.2127 786.689 78.97V76.016C786.484 75.7733 786.236 75.5867 785.947 75.456C785.658 75.3253 785.35 75.26 785.023 75.26C784.622 75.26 784.262 75.358 783.945 75.554C783.637 75.7407 783.39 76.002 783.203 76.338C783.016 76.674 782.923 77.0613 782.923 77.5C782.923 77.92 783.016 78.3027 783.203 78.648C783.39 78.984 783.637 79.25 783.945 79.446C784.262 79.642 784.622 79.74 785.023 79.74ZM796.6 81.126C795.938 81.126 795.336 80.9673 794.794 80.65C794.262 80.3233 793.838 79.8847 793.52 79.334C793.212 78.7833 793.058 78.172 793.058 77.5C793.058 76.8187 793.212 76.2073 793.52 75.666C793.838 75.1153 794.262 74.6813 794.794 74.364C795.336 74.0373 795.938 73.874 796.6 73.874C797.142 73.874 797.655 73.9767 798.14 74.182C798.635 74.3873 799.055 74.6813 799.4 75.064L798.42 76.086C798.178 75.8153 797.907 75.61 797.608 75.47C797.31 75.33 796.992 75.26 796.656 75.26C796.274 75.26 795.928 75.3627 795.62 75.568C795.322 75.764 795.084 76.03 794.906 76.366C794.729 76.702 794.64 77.08 794.64 77.5C794.64 77.92 794.729 78.3027 794.906 78.648C795.084 78.984 795.322 79.25 795.62 79.446C795.928 79.642 796.274 79.74 796.656 79.74C796.992 79.74 797.31 79.67 797.608 79.53C797.907 79.39 798.178 79.1893 798.42 78.928L799.4 79.936C799.055 80.3187 798.635 80.6127 798.14 80.818C797.655 81.0233 797.142 81.126 796.6 81.126ZM803.709 81.126C803.047 81.126 802.445 80.9673 801.903 80.65C801.371 80.3327 800.951 79.9033 800.643 79.362C800.335 78.8113 800.181 78.1907 800.181 77.5C800.181 76.8093 800.335 76.1933 800.643 75.652C800.951 75.1013 801.371 74.6673 801.903 74.35C802.435 74.0327 803.037 73.874 803.709 73.874C804.381 73.874 804.979 74.0327 805.501 74.35C806.033 74.6673 806.453 75.1013 806.761 75.652C807.069 76.1933 807.223 76.8093 807.223 77.5C807.223 78.1907 807.069 78.8113 806.761 79.362C806.453 79.9033 806.033 80.3327 805.501 80.65C804.979 80.9673 804.381 81.126 803.709 81.126ZM803.709 79.782C804.092 79.782 804.428 79.684 804.717 79.488C805.016 79.292 805.249 79.0213 805.417 78.676C805.585 78.3213 805.669 77.9293 805.669 77.5C805.669 77.0613 805.585 76.674 805.417 76.338C805.249 75.9927 805.016 75.722 804.717 75.526C804.428 75.3207 804.092 75.218 803.709 75.218C803.327 75.218 802.986 75.3207 802.687 75.526C802.389 75.722 802.155 75.9927 801.987 76.338C801.819 76.674 801.735 77.0613 801.735 77.5C801.735 77.9387 801.819 78.3307 801.987 78.676C802.155 79.0213 802.389 79.292 802.687 79.488C802.986 79.684 803.327 79.782 803.709 79.782ZM808.857 81V73.986H810.439V75.092C810.7 74.6907 811.004 74.3873 811.349 74.182C811.704 73.9767 812.091 73.874 812.511 73.874C812.996 73.874 813.416 73.9953 813.771 74.238C814.135 74.4807 814.406 74.8073 814.583 75.218C814.863 74.7793 815.194 74.448 815.577 74.224C815.969 73.9907 816.412 73.874 816.907 73.874C817.355 73.874 817.752 73.9813 818.097 74.196C818.452 74.4107 818.722 74.7093 818.909 75.092C819.105 75.4747 819.203 75.9133 819.203 76.408V81H817.621V76.758C817.621 76.2633 817.495 75.8713 817.243 75.582C816.991 75.2927 816.646 75.148 816.207 75.148C815.927 75.148 815.666 75.218 815.423 75.358C815.19 75.498 814.984 75.708 814.807 75.988C814.816 76.0533 814.821 76.1233 814.821 76.198C814.83 76.2633 814.835 76.3333 814.835 76.408V81H813.239V76.758C813.239 76.2633 813.113 75.8713 812.861 75.582C812.609 75.2927 812.264 75.148 811.825 75.148C811.256 75.148 810.794 75.4187 810.439 75.96V81H808.857ZM821.121 83.926V73.986H822.675V74.98C822.927 74.644 823.239 74.3873 823.613 74.21C823.995 74.0233 824.411 73.93 824.859 73.93C825.456 73.93 825.993 74.0887 826.469 74.406C826.945 74.7233 827.323 75.1527 827.603 75.694C827.883 76.2353 828.023 76.8373 828.023 77.5C828.023 78.1627 827.878 78.7647 827.589 79.306C827.299 79.8473 826.907 80.2767 826.413 80.594C825.918 80.9113 825.367 81.07 824.761 81.07C824.341 81.07 823.953 80.9953 823.599 80.846C823.253 80.6873 822.955 80.4633 822.703 80.174V83.926H821.121ZM824.383 79.754C824.784 79.754 825.139 79.656 825.447 79.46C825.764 79.264 826.011 78.998 826.189 78.662C826.375 78.3167 826.469 77.9293 826.469 77.5C826.469 77.0707 826.375 76.688 826.189 76.352C826.011 76.016 825.764 75.75 825.447 75.554C825.139 75.358 824.784 75.26 824.383 75.26C824.037 75.26 823.72 75.33 823.431 75.47C823.141 75.6007 822.899 75.792 822.703 76.044V78.97C822.908 79.2127 823.155 79.404 823.445 79.544C823.734 79.684 824.047 79.754 824.383 79.754ZM829.679 81V70.962L831.261 70.682V81H829.679ZM836.469 81.14C835.797 81.14 835.19 80.9813 834.649 80.664C834.107 80.3373 833.678 79.9033 833.361 79.362C833.043 78.8113 832.885 78.1907 832.885 77.5C832.885 76.8093 833.034 76.1933 833.333 75.652C833.631 75.1107 834.037 74.6813 834.551 74.364C835.073 74.0373 835.652 73.874 836.287 73.874C836.94 73.874 837.514 74.0327 838.009 74.35C838.513 74.6673 838.905 75.0967 839.185 75.638C839.474 76.1793 839.619 76.8 839.619 77.5V77.878H834.439C834.495 78.2607 834.616 78.6013 834.803 78.9C834.999 79.1893 835.246 79.418 835.545 79.586C835.853 79.754 836.184 79.838 836.539 79.838C836.865 79.838 837.173 79.782 837.463 79.67C837.761 79.5487 838.009 79.3853 838.205 79.18L839.241 80.118C838.811 80.4727 838.373 80.734 837.925 80.902C837.486 81.0607 837.001 81.14 836.469 81.14ZM834.453 76.898H838.121C838.065 76.562 837.948 76.2633 837.771 76.002C837.603 75.7407 837.388 75.5353 837.127 75.386C836.875 75.2367 836.595 75.162 836.287 75.162C835.979 75.162 835.694 75.2367 835.433 75.386C835.181 75.526 834.971 75.7267 834.803 75.988C834.635 76.2493 834.518 76.5527 834.453 76.898ZM844.051 81.14C843.342 81.14 842.805 80.9767 842.441 80.65C842.077 80.314 841.895 79.824 841.895 79.18V75.246H840.495V73.986H841.895V72.054L843.477 71.718V73.986H845.423V75.246H843.477V78.83C843.477 79.1753 843.552 79.4227 843.701 79.572C843.85 79.712 844.102 79.782 844.457 79.782C844.616 79.782 844.76 79.7727 844.891 79.754C845.031 79.726 845.204 79.6793 845.409 79.614V80.944C845.213 81.0093 844.989 81.056 844.737 81.084C844.494 81.1213 844.266 81.14 844.051 81.14ZM849.976 81.14C849.304 81.14 848.698 80.9813 848.156 80.664C847.615 80.3373 847.186 79.9033 846.868 79.362C846.551 78.8113 846.392 78.1907 846.392 77.5C846.392 76.8093 846.542 76.1933 846.84 75.652C847.139 75.1107 847.545 74.6813 848.058 74.364C848.581 74.0373 849.16 73.874 849.794 73.874C850.448 73.874 851.022 74.0327 851.516 74.35C852.02 74.6673 852.412 75.0967 852.692 75.638C852.982 76.1793 853.126 76.8 853.126 77.5V77.878H847.946C848.002 78.2607 848.124 78.6013 848.31 78.9C848.506 79.1893 848.754 79.418 849.052 79.586C849.36 79.754 849.692 79.838 850.046 79.838C850.373 79.838 850.681 79.782 850.97 79.67C851.269 79.5487 851.516 79.3853 851.712 79.18L852.748 80.118C852.319 80.4727 851.88 80.734 851.432 80.902C850.994 81.0607 850.508 81.14 849.976 81.14ZM847.96 76.898H851.628C851.572 76.562 851.456 76.2633 851.278 76.002C851.11 75.7407 850.896 75.5353 850.634 75.386C850.382 75.2367 850.102 75.162 849.794 75.162C849.486 75.162 849.202 75.2367 848.94 75.386C848.688 75.526 848.478 75.7267 848.31 75.988C848.142 76.2493 848.026 76.5527 847.96 76.898ZM859.116 81L857.226 73.986H858.738L859.97 78.928L861.426 73.986H862.756L864.198 78.928L865.43 73.986H866.9L865.01 81H863.498L862.07 76.058L860.656 81H859.116ZM868.179 81V73.986H869.761V81H868.179ZM868.977 72.558C868.706 72.558 868.473 72.4647 868.277 72.278C868.09 72.082 867.997 71.8533 867.997 71.592C867.997 71.3213 868.09 71.0927 868.277 70.906C868.473 70.71 868.706 70.612 868.977 70.612C869.248 70.612 869.476 70.71 869.663 70.906C869.859 71.0927 869.957 71.3167 869.957 71.578C869.957 71.8487 869.859 72.082 869.663 72.278C869.476 72.4647 869.248 72.558 868.977 72.558ZM874.744 81.14C874.035 81.14 873.498 80.9767 873.134 80.65C872.77 80.314 872.588 79.824 872.588 79.18V75.246H871.188V73.986H872.588V72.054L874.17 71.718V73.986H876.116V75.246H874.17V78.83C874.17 79.1753 874.245 79.4227 874.394 79.572C874.544 79.712 874.796 79.782 875.15 79.782C875.309 79.782 875.454 79.7727 875.584 79.754C875.724 79.726 875.897 79.6793 876.102 79.614V80.944C875.906 81.0093 875.682 81.056 875.43 81.084C875.188 81.1213 874.959 81.14 874.744 81.14ZM877.517 81V70.962L879.099 70.682V75.134C879.37 74.714 879.692 74.4013 880.065 74.196C880.438 73.9813 880.854 73.874 881.311 73.874C881.796 73.874 882.221 73.9813 882.585 74.196C882.949 74.4013 883.234 74.6907 883.439 75.064C883.654 75.4373 883.761 75.876 883.761 76.38V81H882.165V76.828C882.165 76.3147 882.025 75.9087 881.745 75.61C881.465 75.302 881.092 75.148 880.625 75.148C880.308 75.148 880.018 75.2227 879.757 75.372C879.505 75.512 879.286 75.722 879.099 76.002V81H877.517ZM892.072 81.14C891.4 81.14 890.793 80.9813 890.252 80.664C889.711 80.3373 889.281 79.9033 888.964 79.362C888.647 78.8113 888.488 78.1907 888.488 77.5C888.488 76.8093 888.637 76.1933 888.936 75.652C889.235 75.1107 889.641 74.6813 890.154 74.364C890.677 74.0373 891.255 73.874 891.89 73.874C892.543 73.874 893.117 74.0327 893.612 74.35C894.116 74.6673 894.508 75.0967 894.788 75.638C895.077 76.1793 895.222 76.8 895.222 77.5V77.878H890.042C890.098 78.2607 890.219 78.6013 890.406 78.9C890.602 79.1893 890.849 79.418 891.148 79.586C891.456 79.754 891.787 79.838 892.142 79.838C892.469 79.838 892.777 79.782 893.066 79.67C893.365 79.5487 893.612 79.3853 893.808 79.18L894.844 80.118C894.415 80.4727 893.976 80.734 893.528 80.902C893.089 81.0607 892.604 81.14 892.072 81.14ZM890.056 76.898H893.724C893.668 76.562 893.551 76.2633 893.374 76.002C893.206 75.7407 892.991 75.5353 892.73 75.386C892.478 75.2367 892.198 75.162 891.89 75.162C891.582 75.162 891.297 75.2367 891.036 75.386C890.784 75.526 890.574 75.7267 890.406 75.988C890.238 76.2493 890.121 76.5527 890.056 76.898ZM896.835 81V73.986H898.417V75.498C898.623 74.966 898.889 74.56 899.215 74.28C899.542 74 899.92 73.86 900.349 73.86C900.48 73.8693 900.597 73.8833 900.699 73.902C900.802 73.9113 900.914 73.944 901.035 74V75.386C900.914 75.33 900.774 75.288 900.615 75.26C900.466 75.232 900.317 75.218 900.167 75.218C899.785 75.218 899.439 75.3207 899.131 75.526C898.833 75.7313 898.595 76.016 898.417 76.38V81H896.835ZM902.332 81V73.986H903.914V75.498C904.119 74.966 904.385 74.56 904.712 74.28C905.038 74 905.416 73.86 905.846 73.86C905.976 73.8693 906.093 73.8833 906.196 73.902C906.298 73.9113 906.41 73.944 906.532 74V75.386C906.41 75.33 906.27 75.288 906.112 75.26C905.962 75.232 905.813 75.218 905.664 75.218C905.281 75.218 904.936 75.3207 904.628 75.526C904.329 75.7313 904.091 76.016 903.914 76.38V81H902.332ZM910.706 81.126C910.043 81.126 909.441 80.9673 908.9 80.65C908.368 80.3327 907.948 79.9033 907.64 79.362C907.332 78.8113 907.178 78.1907 907.178 77.5C907.178 76.8093 907.332 76.1933 907.64 75.652C907.948 75.1013 908.368 74.6673 908.9 74.35C909.432 74.0327 910.034 73.874 910.706 73.874C911.378 73.874 911.975 74.0327 912.498 74.35C913.03 74.6673 913.45 75.1013 913.758 75.652C914.066 76.1933 914.22 76.8093 914.22 77.5C914.22 78.1907 914.066 78.8113 913.758 79.362C913.45 79.9033 913.03 80.3327 912.498 80.65C911.975 80.9673 911.378 81.126 910.706 81.126ZM910.706 79.782C911.088 79.782 911.424 79.684 911.714 79.488C912.012 79.292 912.246 79.0213 912.414 78.676C912.582 78.3213 912.666 77.9293 912.666 77.5C912.666 77.0613 912.582 76.674 912.414 76.338C912.246 75.9927 912.012 75.722 911.714 75.526C911.424 75.3207 911.088 75.218 910.706 75.218C910.323 75.218 909.982 75.3207 909.684 75.526C909.385 75.722 909.152 75.9927 908.984 76.338C908.816 76.674 908.732 77.0613 908.732 77.5C908.732 77.9387 908.816 78.3307 908.984 78.676C909.152 79.0213 909.385 79.292 909.684 79.488C909.982 79.684 910.323 79.782 910.706 79.782ZM915.853 81V73.986H917.435V75.498C917.64 74.966 917.906 74.56 918.233 74.28C918.56 74 918.938 73.86 919.367 73.86C919.498 73.8693 919.614 73.8833 919.717 73.902C919.82 73.9113 919.932 73.944 920.053 74V75.386C919.932 75.33 919.792 75.288 919.633 75.26C919.484 75.232 919.334 75.218 919.185 75.218C918.802 75.218 918.457 75.3207 918.149 75.526C917.85 75.7313 917.612 76.016 917.435 76.38V81H915.853ZM923.756 81.14C923.159 81.14 922.599 81.0607 922.076 80.902C921.563 80.734 921.12 80.496 920.746 80.188L921.488 79.138C921.955 79.4273 922.356 79.6327 922.692 79.754C923.038 79.8753 923.388 79.936 923.742 79.936C924.162 79.936 924.503 79.8473 924.764 79.67C925.026 79.4927 925.156 79.264 925.156 78.984C925.156 78.7693 925.077 78.6013 924.918 78.48C924.769 78.3493 924.522 78.2513 924.176 78.186L922.944 77.976C922.263 77.8453 921.754 77.6213 921.418 77.304C921.082 76.9867 920.914 76.5667 920.914 76.044C920.914 75.6053 921.026 75.2273 921.25 74.91C921.484 74.5833 921.801 74.3313 922.202 74.154C922.613 73.9673 923.089 73.874 923.63 73.874C924.116 73.874 924.587 73.944 925.044 74.084C925.502 74.224 925.95 74.434 926.388 74.714L925.646 75.764C925.292 75.5307 924.937 75.3627 924.582 75.26C924.237 75.148 923.887 75.092 923.532 75.092C923.168 75.092 922.874 75.1667 922.65 75.316C922.436 75.456 922.328 75.652 922.328 75.904C922.328 76.128 922.398 76.3007 922.538 76.422C922.688 76.534 922.944 76.618 923.308 76.674L924.554 76.912C925.254 77.0333 925.772 77.2573 926.108 77.584C926.454 77.9013 926.626 78.326 926.626 78.858C926.626 79.2873 926.5 79.6747 926.248 80.02C925.996 80.3653 925.656 80.6407 925.226 80.846C924.797 81.042 924.307 81.14 923.756 81.14Z" fill="#151515"/>
<g clip-path="url(#clip1_15_3201)">
<path d="M1070.95 72L1074.68 68.2773C1074.94 68.0136 1074.94 67.5864 1074.68 67.3228C1074.41 67.0591 1073.99 67.0591 1073.72 67.3228L1070 71.0452L1066.28 67.3228C1066.01 67.0591 1065.59 67.0591 1065.32 67.3228C1065.06 67.5865 1065.06 68.0136 1065.32 68.2773L1069.05 72L1065.32 75.7225C1065.06 75.9862 1065.06 76.4139 1065.32 76.6776C1065.45 76.8094 1065.63 76.875 1065.8 76.875C1065.97 76.875 1066.15 76.8094 1066.28 76.6776L1070 72.9548L1073.72 76.6776C1073.85 76.8094 1074.03 76.875 1074.2 76.875C1074.37 76.875 1074.55 76.8094 1074.68 76.6776C1074.94 76.4139 1074.94 75.9862 1074.68 75.7225L1070.95 72Z" fill="#151515"/>
</g>
<path d="M725.246 110V100.2H731.938V101.152H726.324V104.652H730.16V105.59H726.324V110H725.246ZM732.898 110V103.168H733.92V104.568C734.097 104.092 734.349 103.723 734.676 103.462C735.012 103.191 735.394 103.056 735.824 103.056C735.945 103.056 736.057 103.065 736.16 103.084C736.262 103.093 736.365 103.117 736.468 103.154V104.078C736.356 104.041 736.234 104.013 736.104 103.994C735.982 103.966 735.866 103.952 735.754 103.952C735.334 103.952 734.965 104.073 734.648 104.316C734.34 104.559 734.097 104.899 733.92 105.338V110H732.898ZM740.42 110.112C739.785 110.112 739.216 109.958 738.712 109.65C738.208 109.342 737.811 108.922 737.522 108.39C737.232 107.858 737.088 107.256 737.088 106.584C737.088 105.912 737.232 105.31 737.522 104.778C737.811 104.246 738.208 103.826 738.712 103.518C739.216 103.21 739.785 103.056 740.42 103.056C741.045 103.056 741.605 103.21 742.1 103.518C742.604 103.826 743 104.246 743.29 104.778C743.579 105.31 743.724 105.912 743.724 106.584C743.724 107.256 743.579 107.858 743.29 108.39C743 108.922 742.604 109.342 742.1 109.65C741.605 109.958 741.045 110.112 740.42 110.112ZM740.406 109.216C740.854 109.216 741.25 109.104 741.596 108.88C741.941 108.647 742.212 108.329 742.408 107.928C742.613 107.527 742.716 107.079 742.716 106.584C742.716 106.08 742.613 105.632 742.408 105.24C742.212 104.839 741.941 104.526 741.596 104.302C741.25 104.069 740.854 103.952 740.406 103.952C739.958 103.952 739.561 104.069 739.216 104.302C738.87 104.526 738.595 104.839 738.39 105.24C738.194 105.632 738.096 106.08 738.096 106.584C738.096 107.079 738.194 107.527 738.39 107.928C738.595 108.329 738.87 108.647 739.216 108.88C739.561 109.104 739.958 109.216 740.406 109.216ZM745.517 110V103.168H746.539V104.232C746.8 103.84 747.099 103.546 747.435 103.35C747.771 103.154 748.149 103.056 748.569 103.056C749.054 103.056 749.479 103.177 749.843 103.42C750.207 103.653 750.482 103.975 750.669 104.386C750.939 103.947 751.261 103.616 751.635 103.392C752.017 103.168 752.456 103.056 752.951 103.056C753.408 103.056 753.809 103.163 754.155 103.378C754.509 103.593 754.785 103.891 754.981 104.274C755.177 104.647 755.275 105.086 755.275 105.59V110H754.253V105.842C754.253 105.245 754.103 104.773 753.805 104.428C753.506 104.083 753.095 103.91 752.573 103.91C752.218 103.91 751.896 103.999 751.607 104.176C751.327 104.353 751.079 104.624 750.865 104.988C750.883 105.081 750.897 105.179 750.907 105.282C750.916 105.385 750.921 105.487 750.921 105.59V110H749.899V105.842C749.899 105.245 749.745 104.773 749.437 104.428C749.138 104.083 748.727 103.91 748.205 103.91C747.505 103.91 746.949 104.246 746.539 104.918V110H745.517ZM763.215 110.14C762.627 110.14 762.179 110 761.871 109.72C761.572 109.431 761.423 109.015 761.423 108.474V104.008H760.009V103.168H761.423V101.292L762.445 101.054V103.168H764.405V104.008H762.445V108.208C762.445 108.572 762.519 108.833 762.669 108.992C762.827 109.151 763.084 109.23 763.439 109.23C763.616 109.23 763.775 109.216 763.915 109.188C764.055 109.16 764.218 109.113 764.405 109.048V109.958C764.218 110.023 764.022 110.07 763.817 110.098C763.611 110.126 763.411 110.14 763.215 110.14ZM765.902 110V99.892L766.924 99.682V104.274C767.185 103.863 767.498 103.56 767.862 103.364C768.226 103.159 768.636 103.056 769.094 103.056C769.588 103.056 770.018 103.163 770.382 103.378C770.755 103.583 771.044 103.877 771.25 104.26C771.464 104.633 771.572 105.072 771.572 105.576V110H770.55V105.87C770.55 105.263 770.382 104.787 770.046 104.442C769.719 104.087 769.276 103.91 768.716 103.91C768.342 103.91 768.002 103.999 767.694 104.176C767.386 104.353 767.129 104.615 766.924 104.96V110H765.902ZM776.706 110.14C776.072 110.14 775.498 109.986 774.984 109.678C774.471 109.361 774.065 108.936 773.766 108.404C773.468 107.863 773.318 107.256 773.318 106.584C773.318 105.912 773.458 105.31 773.738 104.778C774.028 104.246 774.415 103.826 774.9 103.518C775.386 103.21 775.927 103.056 776.524 103.056C777.131 103.056 777.668 103.21 778.134 103.518C778.61 103.817 778.984 104.227 779.254 104.75C779.534 105.263 779.674 105.847 779.674 106.5V106.808H774.312C774.35 107.275 774.476 107.695 774.69 108.068C774.914 108.432 775.204 108.721 775.558 108.936C775.922 109.141 776.319 109.244 776.748 109.244C777.103 109.244 777.444 109.183 777.77 109.062C778.106 108.931 778.391 108.759 778.624 108.544L779.268 109.23C778.876 109.538 778.47 109.767 778.05 109.916C777.63 110.065 777.182 110.14 776.706 110.14ZM774.34 106.08H778.666C778.62 105.669 778.494 105.305 778.288 104.988C778.092 104.661 777.84 104.405 777.532 104.218C777.234 104.031 776.898 103.938 776.524 103.938C776.151 103.938 775.81 104.031 775.502 104.218C775.194 104.395 774.938 104.647 774.732 104.974C774.536 105.291 774.406 105.66 774.34 106.08ZM788.089 110.154C787.323 110.154 786.6 110.023 785.919 109.762C785.247 109.491 784.598 109.095 783.973 108.572L784.883 107.34C785.517 107.853 786.082 108.222 786.577 108.446C787.081 108.661 787.617 108.768 788.187 108.768C788.616 108.768 788.994 108.703 789.321 108.572C789.657 108.432 789.913 108.245 790.091 108.012C790.277 107.779 790.371 107.508 790.371 107.2C790.371 106.799 790.235 106.495 789.965 106.29C789.703 106.075 789.246 105.912 788.593 105.8L786.787 105.492C785.937 105.343 785.303 105.058 784.883 104.638C784.472 104.209 784.267 103.663 784.267 103C784.267 102.412 784.416 101.899 784.715 101.46C785.013 101.012 785.429 100.667 785.961 100.424C786.502 100.172 787.141 100.046 787.879 100.046C788.616 100.046 789.316 100.153 789.979 100.368C790.641 100.583 791.253 100.895 791.813 101.306L790.959 102.566C790.464 102.193 789.955 101.913 789.433 101.726C788.91 101.53 788.373 101.432 787.823 101.432C787.431 101.432 787.085 101.493 786.787 101.614C786.497 101.735 786.269 101.903 786.101 102.118C785.942 102.333 785.863 102.571 785.863 102.832C785.863 103.187 785.979 103.462 786.213 103.658C786.455 103.845 786.843 103.985 787.375 104.078L789.125 104.372C790.114 104.549 790.842 104.857 791.309 105.296C791.785 105.735 792.023 106.327 792.023 107.074C792.023 107.671 791.855 108.203 791.519 108.67C791.192 109.137 790.735 109.501 790.147 109.762C789.559 110.023 788.873 110.154 788.089 110.154ZM796.93 110.14C796.258 110.14 795.651 109.981 795.11 109.664C794.568 109.337 794.139 108.903 793.822 108.362C793.504 107.811 793.346 107.191 793.346 106.5C793.346 105.809 793.495 105.193 793.794 104.652C794.092 104.111 794.498 103.681 795.012 103.364C795.534 103.037 796.113 102.874 796.748 102.874C797.401 102.874 797.975 103.033 798.47 103.35C798.974 103.667 799.366 104.097 799.646 104.638C799.935 105.179 800.079 105.8 800.079 106.5V106.878H794.9C794.956 107.261 795.077 107.601 795.264 107.9C795.46 108.189 795.707 108.418 796.006 108.586C796.314 108.754 796.645 108.838 797 108.838C797.326 108.838 797.634 108.782 797.924 108.67C798.222 108.549 798.47 108.385 798.666 108.18L799.702 109.118C799.272 109.473 798.834 109.734 798.386 109.902C797.947 110.061 797.462 110.14 796.93 110.14ZM794.914 105.898H798.582C798.526 105.562 798.409 105.263 798.232 105.002C798.064 104.741 797.849 104.535 797.588 104.386C797.336 104.237 797.056 104.162 796.748 104.162C796.44 104.162 796.155 104.237 795.894 104.386C795.642 104.526 795.432 104.727 795.264 104.988C795.096 105.249 794.979 105.553 794.914 105.898ZM804.512 110.14C803.802 110.14 803.266 109.977 802.902 109.65C802.538 109.314 802.356 108.824 802.356 108.18V104.246H800.956V102.986H802.356V101.054L803.938 100.718V102.986H805.884V104.246H803.938V107.83C803.938 108.175 804.012 108.423 804.162 108.572C804.311 108.712 804.563 108.782 804.918 108.782C805.076 108.782 805.221 108.773 805.352 108.754C805.492 108.726 805.664 108.679 805.87 108.614V109.944C805.674 110.009 805.45 110.056 805.198 110.084C804.955 110.121 804.726 110.14 804.512 110.14ZM810.445 110.14C809.736 110.14 809.199 109.977 808.835 109.65C808.471 109.314 808.289 108.824 808.289 108.18V104.246H806.889V102.986H808.289V101.054L809.871 100.718V102.986H811.817V104.246H809.871V107.83C809.871 108.175 809.946 108.423 810.095 108.572C810.245 108.712 810.497 108.782 810.851 108.782C811.01 108.782 811.155 108.773 811.285 108.754C811.425 108.726 811.598 108.679 811.803 108.614V109.944C811.607 110.009 811.383 110.056 811.131 110.084C810.889 110.121 810.66 110.14 810.445 110.14ZM813.204 110V102.986H814.786V110H813.204ZM814.002 101.558C813.732 101.558 813.498 101.465 813.302 101.278C813.116 101.082 813.022 100.853 813.022 100.592C813.022 100.321 813.116 100.093 813.302 99.906C813.498 99.71 813.732 99.612 814.002 99.612C814.273 99.612 814.502 99.71 814.688 99.906C814.884 100.093 814.982 100.317 814.982 100.578C814.982 100.849 814.884 101.082 814.688 101.278C814.502 101.465 814.273 101.558 814.002 101.558ZM816.746 110V102.986H818.328V104.134C818.598 103.714 818.92 103.401 819.294 103.196C819.667 102.981 820.082 102.874 820.54 102.874C821.025 102.874 821.45 102.981 821.814 103.196C822.178 103.401 822.462 103.691 822.668 104.064C822.882 104.437 822.99 104.876 822.99 105.38V110H821.394V105.828C821.394 105.315 821.254 104.909 820.974 104.61C820.694 104.302 820.32 104.148 819.854 104.148C819.536 104.148 819.247 104.223 818.986 104.372C818.734 104.512 818.514 104.722 818.328 105.002V110H816.746ZM828.17 113.066C827.675 113.066 827.185 113.005 826.7 112.884C826.215 112.763 825.767 112.595 825.356 112.38L825.902 111.218C826.322 111.414 826.705 111.559 827.05 111.652C827.405 111.755 827.755 111.806 828.1 111.806C828.688 111.806 829.131 111.675 829.43 111.414C829.738 111.153 829.892 110.765 829.892 110.252V109.062C829.64 109.37 829.327 109.613 828.954 109.79C828.581 109.958 828.175 110.042 827.736 110.042C827.148 110.042 826.616 109.883 826.14 109.566C825.664 109.239 825.281 108.81 824.992 108.278C824.712 107.737 824.572 107.135 824.572 106.472C824.572 105.809 824.717 105.212 825.006 104.68C825.295 104.148 825.687 103.723 826.182 103.406C826.686 103.089 827.241 102.93 827.848 102.93C828.259 102.93 828.641 103.009 828.996 103.168C829.351 103.327 829.654 103.56 829.906 103.868V102.986H831.474V110.252C831.474 111.157 831.189 111.853 830.62 112.338C830.051 112.823 829.234 113.066 828.17 113.066ZM828.226 108.726C828.562 108.726 828.875 108.661 829.164 108.53C829.453 108.39 829.696 108.199 829.892 107.956V105.016C829.687 104.773 829.439 104.587 829.15 104.456C828.861 104.325 828.553 104.26 828.226 104.26C827.825 104.26 827.465 104.358 827.148 104.554C826.84 104.741 826.593 105.002 826.406 105.338C826.219 105.665 826.126 106.047 826.126 106.486C826.126 106.906 826.219 107.289 826.406 107.634C826.593 107.97 826.84 108.236 827.148 108.432C827.465 108.628 827.825 108.726 828.226 108.726ZM835.805 110.14C835.208 110.14 834.648 110.061 834.125 109.902C833.612 109.734 833.169 109.496 832.795 109.188L833.537 108.138C834.004 108.427 834.405 108.633 834.741 108.754C835.087 108.875 835.437 108.936 835.791 108.936C836.211 108.936 836.552 108.847 836.813 108.67C837.075 108.493 837.205 108.264 837.205 107.984C837.205 107.769 837.126 107.601 836.967 107.48C836.818 107.349 836.571 107.251 836.225 107.186L834.993 106.976C834.312 106.845 833.803 106.621 833.467 106.304C833.131 105.987 832.963 105.567 832.963 105.044C832.963 104.605 833.075 104.227 833.299 103.91C833.533 103.583 833.85 103.331 834.251 103.154C834.662 102.967 835.138 102.874 835.679 102.874C836.165 102.874 836.636 102.944 837.093 103.084C837.551 103.224 837.999 103.434 838.437 103.714L837.695 104.764C837.341 104.531 836.986 104.363 836.631 104.26C836.286 104.148 835.936 104.092 835.581 104.092C835.217 104.092 834.923 104.167 834.699 104.316C834.485 104.456 834.377 104.652 834.377 104.904C834.377 105.128 834.447 105.301 834.587 105.422C834.737 105.534 834.993 105.618 835.357 105.674L836.603 105.912C837.303 106.033 837.821 106.257 838.157 106.584C838.503 106.901 838.675 107.326 838.675 107.858C838.675 108.287 838.549 108.675 838.297 109.02C838.045 109.365 837.705 109.641 837.275 109.846C836.846 110.042 836.356 110.14 835.805 110.14ZM846.066 110.14C845.478 110.14 845.03 110 844.722 109.72C844.423 109.431 844.274 109.015 844.274 108.474V104.008H842.86V103.168H844.274V101.292L845.296 101.054V103.168H847.256V104.008H845.296V108.208C845.296 108.572 845.371 108.833 845.52 108.992C845.679 109.151 845.935 109.23 846.29 109.23C846.467 109.23 846.626 109.216 846.766 109.188C846.906 109.16 847.069 109.113 847.256 109.048V109.958C847.069 110.023 846.873 110.07 846.668 110.098C846.463 110.126 846.262 110.14 846.066 110.14ZM850.867 110.126C850.382 110.126 849.952 110.037 849.579 109.86C849.206 109.683 848.912 109.44 848.697 109.132C848.492 108.815 848.389 108.451 848.389 108.04C848.389 107.629 848.496 107.275 848.711 106.976C848.926 106.668 849.224 106.43 849.607 106.262C849.99 106.094 850.438 106.01 850.951 106.01C851.343 106.01 851.712 106.052 852.057 106.136C852.412 106.22 852.738 106.355 853.037 106.542V105.604C853.037 105.044 852.888 104.624 852.589 104.344C852.29 104.055 851.852 103.91 851.273 103.91C850.956 103.91 850.629 103.957 850.293 104.05C849.966 104.143 849.602 104.293 849.201 104.498L848.823 103.714C849.738 103.275 850.596 103.056 851.399 103.056C852.248 103.056 852.902 103.266 853.359 103.686C853.816 104.097 854.045 104.689 854.045 105.464V110H853.037V109.202C852.738 109.51 852.407 109.743 852.043 109.902C851.679 110.051 851.287 110.126 850.867 110.126ZM849.369 108.012C849.369 108.413 849.523 108.735 849.831 108.978C850.148 109.221 850.564 109.342 851.077 109.342C851.46 109.342 851.81 109.277 852.127 109.146C852.454 109.015 852.757 108.819 853.037 108.558V107.242C852.748 107.074 852.449 106.953 852.141 106.878C851.833 106.794 851.488 106.752 851.105 106.752C850.582 106.752 850.162 106.869 849.845 107.102C849.528 107.326 849.369 107.629 849.369 108.012ZM856.122 110V99.99L857.144 99.78V104.106C857.406 103.779 857.723 103.527 858.096 103.35C858.47 103.173 858.885 103.084 859.342 103.084C859.94 103.084 860.472 103.243 860.938 103.56C861.414 103.868 861.792 104.288 862.072 104.82C862.352 105.343 862.492 105.931 862.492 106.584C862.492 107.237 862.348 107.83 862.058 108.362C861.778 108.894 861.396 109.319 860.91 109.636C860.434 109.944 859.893 110.098 859.286 110.098C858.857 110.098 858.456 110.014 858.082 109.846C857.718 109.669 857.401 109.421 857.13 109.104V110H856.122ZM859.09 109.216C859.548 109.216 859.954 109.104 860.308 108.88C860.672 108.647 860.957 108.334 861.162 107.942C861.377 107.541 861.484 107.093 861.484 106.598C861.484 106.094 861.377 105.646 861.162 105.254C860.957 104.862 860.672 104.554 860.308 104.33C859.954 104.097 859.548 103.98 859.09 103.98C858.689 103.98 858.316 104.064 857.97 104.232C857.634 104.391 857.359 104.619 857.144 104.918V108.264C857.368 108.563 857.648 108.796 857.984 108.964C858.33 109.132 858.698 109.216 859.09 109.216ZM863.579 112.198L864.419 108.964H865.511L864.377 112.198H863.579ZM872.81 110.14C872.25 110.14 871.732 110.056 871.256 109.888C870.78 109.711 870.374 109.459 870.038 109.132L870.584 108.46C870.995 108.759 871.373 108.978 871.718 109.118C872.064 109.249 872.418 109.314 872.782 109.314C873.277 109.314 873.688 109.197 874.014 108.964C874.341 108.731 874.504 108.432 874.504 108.068C874.504 107.788 874.406 107.569 874.21 107.41C874.024 107.251 873.711 107.13 873.272 107.046L872.152 106.85C871.49 106.729 871 106.523 870.682 106.234C870.374 105.945 870.22 105.553 870.22 105.058C870.22 104.666 870.323 104.321 870.528 104.022C870.743 103.723 871.037 103.49 871.41 103.322C871.784 103.145 872.208 103.056 872.684 103.056C873.151 103.056 873.594 103.126 874.014 103.266C874.434 103.397 874.859 103.611 875.288 103.91L874.784 104.624C874.43 104.372 874.075 104.19 873.72 104.078C873.366 103.957 873.006 103.896 872.642 103.896C872.194 103.896 871.835 103.994 871.564 104.19C871.294 104.386 871.158 104.652 871.158 104.988C871.158 105.268 871.242 105.483 871.41 105.632C871.588 105.781 871.896 105.893 872.334 105.968L873.482 106.178C874.173 106.299 874.677 106.509 874.994 106.808C875.312 107.107 875.47 107.508 875.47 108.012C875.47 108.413 875.354 108.777 875.12 109.104C874.887 109.421 874.57 109.673 874.168 109.86C873.767 110.047 873.314 110.14 872.81 110.14ZM880.175 110.14C879.54 110.14 878.966 109.986 878.453 109.678C877.94 109.361 877.534 108.936 877.235 108.404C876.936 107.863 876.787 107.256 876.787 106.584C876.787 105.912 876.927 105.31 877.207 104.778C877.496 104.246 877.884 103.826 878.369 103.518C878.854 103.21 879.396 103.056 879.993 103.056C880.6 103.056 881.136 103.21 881.603 103.518C882.079 103.817 882.452 104.227 882.723 104.75C883.003 105.263 883.143 105.847 883.143 106.5V106.808H877.781C877.818 107.275 877.944 107.695 878.159 108.068C878.383 108.432 878.672 108.721 879.027 108.936C879.391 109.141 879.788 109.244 880.217 109.244C880.572 109.244 880.912 109.183 881.239 109.062C881.575 108.931 881.86 108.759 882.093 108.544L882.737 109.23C882.345 109.538 881.939 109.767 881.519 109.916C881.099 110.065 880.651 110.14 880.175 110.14ZM877.809 106.08H882.135C882.088 105.669 881.962 105.305 881.757 104.988C881.561 104.661 881.309 104.405 881.001 104.218C880.702 104.031 880.366 103.938 879.993 103.938C879.62 103.938 879.279 104.031 878.971 104.218C878.663 104.395 878.406 104.647 878.201 104.974C878.005 105.291 877.874 105.66 877.809 106.08ZM884.888 110V99.892L885.91 99.682V110H884.888ZM891.085 110.14C890.45 110.14 889.876 109.986 889.363 109.678C888.85 109.361 888.444 108.936 888.145 108.404C887.846 107.863 887.697 107.256 887.697 106.584C887.697 105.912 887.837 105.31 888.117 104.778C888.406 104.246 888.794 103.826 889.279 103.518C889.764 103.21 890.306 103.056 890.903 103.056C891.51 103.056 892.046 103.21 892.513 103.518C892.989 103.817 893.362 104.227 893.633 104.75C893.913 105.263 894.053 105.847 894.053 106.5V106.808H888.691C888.728 107.275 888.854 107.695 889.069 108.068C889.293 108.432 889.582 108.721 889.937 108.936C890.301 109.141 890.698 109.244 891.127 109.244C891.482 109.244 891.822 109.183 892.149 109.062C892.485 108.931 892.77 108.759 893.003 108.544L893.647 109.23C893.255 109.538 892.849 109.767 892.429 109.916C892.009 110.065 891.561 110.14 891.085 110.14ZM888.719 106.08H893.045C892.998 105.669 892.872 105.305 892.667 104.988C892.471 104.661 892.219 104.405 891.911 104.218C891.612 104.031 891.276 103.938 890.903 103.938C890.53 103.938 890.189 104.031 889.881 104.218C889.573 104.395 889.316 104.647 889.111 104.974C888.915 105.291 888.784 105.66 888.719 106.08ZM898.864 110.112C898.229 110.112 897.655 109.958 897.142 109.65C896.638 109.333 896.237 108.908 895.938 108.376C895.639 107.835 895.49 107.237 895.49 106.584C895.49 105.921 895.639 105.324 895.938 104.792C896.237 104.26 896.638 103.84 897.142 103.532C897.655 103.215 898.229 103.056 898.864 103.056C899.368 103.056 899.849 103.149 900.306 103.336C900.763 103.523 901.16 103.784 901.496 104.12L900.838 104.834C900.595 104.563 900.301 104.353 899.956 104.204C899.611 104.055 899.261 103.98 898.906 103.98C898.458 103.98 898.052 104.097 897.688 104.33C897.333 104.563 897.049 104.876 896.834 105.268C896.619 105.66 896.512 106.099 896.512 106.584C896.512 107.069 896.619 107.508 896.834 107.9C897.049 108.292 897.333 108.605 897.688 108.838C898.052 109.071 898.458 109.188 898.906 109.188C899.261 109.188 899.611 109.113 899.956 108.964C900.301 108.805 900.595 108.595 900.838 108.334L901.496 109.048C901.16 109.384 900.763 109.645 900.306 109.832C899.849 110.019 899.368 110.112 898.864 110.112ZM905.662 110.14C905.074 110.14 904.626 110 904.318 109.72C904.019 109.431 903.87 109.015 903.87 108.474V104.008H902.456V103.168H903.87V101.292L904.892 101.054V103.168H906.852V104.008H904.892V108.208C904.892 108.572 904.966 108.833 905.116 108.992C905.274 109.151 905.531 109.23 905.886 109.23C906.063 109.23 906.222 109.216 906.362 109.188C906.502 109.16 906.665 109.113 906.852 109.048V109.958C906.665 110.023 906.469 110.07 906.264 110.098C906.058 110.126 905.858 110.14 905.662 110.14ZM971.078 110.112C970.873 110.112 970.695 110.037 970.546 109.888C970.406 109.739 970.336 109.561 970.336 109.356C970.336 109.141 970.406 108.964 970.546 108.824C970.695 108.675 970.873 108.6 971.078 108.6C971.283 108.6 971.456 108.675 971.596 108.824C971.745 108.964 971.82 109.141 971.82 109.356C971.82 109.561 971.745 109.739 971.596 109.888C971.456 110.037 971.283 110.112 971.078 110.112Z" fill="#151515"/>
<path d="M914.528 110L910.692 100.2H911.84L915.2 108.964L918.574 100.2H919.68L915.816 110H914.528ZM920.845 110V103.168H921.867V110H920.845ZM921.363 101.474C921.157 101.474 920.98 101.404 920.831 101.264C920.691 101.115 920.621 100.942 920.621 100.746C920.621 100.55 920.691 100.382 920.831 100.242C920.98 100.093 921.157 100.018 921.363 100.018C921.568 100.018 921.741 100.093 921.881 100.242C922.03 100.382 922.105 100.55 922.105 100.746C922.105 100.942 922.03 101.115 921.881 101.264C921.741 101.404 921.568 101.474 921.363 101.474ZM927.042 110.14C926.407 110.14 925.833 109.986 925.32 109.678C924.807 109.361 924.401 108.936 924.102 108.404C923.803 107.863 923.654 107.256 923.654 106.584C923.654 105.912 923.794 105.31 924.074 104.778C924.363 104.246 924.751 103.826 925.236 103.518C925.721 103.21 926.263 103.056 926.86 103.056C927.467 103.056 928.003 103.21 928.47 103.518C928.946 103.817 929.319 104.227 929.59 104.75C929.87 105.263 930.01 105.847 930.01 106.5V106.808H924.648C924.685 107.275 924.811 107.695 925.026 108.068C925.25 108.432 925.539 108.721 925.894 108.936C926.258 109.141 926.655 109.244 927.084 109.244C927.439 109.244 927.779 109.183 928.106 109.062C928.442 108.931 928.727 108.759 928.96 108.544L929.604 109.23C929.212 109.538 928.806 109.767 928.386 109.916C927.966 110.065 927.518 110.14 927.042 110.14ZM924.676 106.08H929.002C928.955 105.669 928.829 105.305 928.624 104.988C928.428 104.661 928.176 104.405 927.868 104.218C927.569 104.031 927.233 103.938 926.86 103.938C926.487 103.938 926.146 104.031 925.838 104.218C925.53 104.395 925.273 104.647 925.068 104.974C924.872 105.291 924.741 105.66 924.676 106.08ZM932.836 110L930.96 103.168H931.954L933.382 108.628L935.02 103.168H935.93L937.568 108.628L938.982 103.168H939.948L938.086 110H937.092L935.468 104.484L933.844 110H932.836ZM944.661 110V99.892L945.683 99.682V110H944.661ZM950.803 110.112C950.168 110.112 949.599 109.958 949.095 109.65C948.591 109.342 948.194 108.922 947.905 108.39C947.615 107.858 947.471 107.256 947.471 106.584C947.471 105.912 947.615 105.31 947.905 104.778C948.194 104.246 948.591 103.826 949.095 103.518C949.599 103.21 950.168 103.056 950.803 103.056C951.428 103.056 951.988 103.21 952.483 103.518C952.987 103.826 953.383 104.246 953.673 104.778C953.962 105.31 954.107 105.912 954.107 106.584C954.107 107.256 953.962 107.858 953.673 108.39C953.383 108.922 952.987 109.342 952.483 109.65C951.988 109.958 951.428 110.112 950.803 110.112ZM950.789 109.216C951.237 109.216 951.633 109.104 951.979 108.88C952.324 108.647 952.595 108.329 952.791 107.928C952.996 107.527 953.099 107.079 953.099 106.584C953.099 106.08 952.996 105.632 952.791 105.24C952.595 104.839 952.324 104.526 951.979 104.302C951.633 104.069 951.237 103.952 950.789 103.952C950.341 103.952 949.944 104.069 949.599 104.302C949.253 104.526 948.978 104.839 948.773 105.24C948.577 105.632 948.479 106.08 948.479 106.584C948.479 107.079 948.577 107.527 948.773 107.928C948.978 108.329 949.253 108.647 949.599 108.88C949.944 109.104 950.341 109.216 950.789 109.216ZM959.064 113.066C958.606 113.066 958.144 113.001 957.678 112.87C957.22 112.749 956.796 112.576 956.404 112.352L956.838 111.568C957.258 111.783 957.64 111.941 957.986 112.044C958.331 112.147 958.676 112.198 959.022 112.198C959.647 112.198 960.118 112.049 960.436 111.75C960.762 111.451 960.926 111.017 960.926 110.448V109.076C960.664 109.403 960.347 109.655 959.974 109.832C959.6 110 959.19 110.084 958.742 110.084C958.154 110.084 957.622 109.93 957.146 109.622C956.67 109.305 956.292 108.885 956.012 108.362C955.732 107.83 955.592 107.237 955.592 106.584C955.592 105.931 955.732 105.343 956.012 104.82C956.301 104.288 956.688 103.868 957.174 103.56C957.659 103.243 958.2 103.084 958.798 103.084C959.227 103.084 959.624 103.168 959.988 103.336C960.352 103.495 960.669 103.733 960.94 104.05V103.168H961.948V110.434C961.948 111.283 961.7 111.932 961.206 112.38C960.711 112.837 959.997 113.066 959.064 113.066ZM958.994 109.202C959.395 109.202 959.764 109.123 960.1 108.964C960.436 108.796 960.711 108.567 960.926 108.278V104.904C960.702 104.615 960.417 104.391 960.072 104.232C959.736 104.064 959.376 103.98 958.994 103.98C958.536 103.98 958.126 104.092 957.762 104.316C957.407 104.54 957.122 104.848 956.908 105.24C956.702 105.632 956.6 106.08 956.6 106.584C956.6 107.079 956.702 107.527 956.908 107.928C957.122 108.32 957.407 108.633 957.762 108.866C958.126 109.09 958.536 109.202 958.994 109.202ZM966.162 110.14C965.602 110.14 965.084 110.056 964.608 109.888C964.132 109.711 963.726 109.459 963.39 109.132L963.936 108.46C964.347 108.759 964.725 108.978 965.07 109.118C965.415 109.249 965.77 109.314 966.134 109.314C966.629 109.314 967.039 109.197 967.366 108.964C967.693 108.731 967.856 108.432 967.856 108.068C967.856 107.788 967.758 107.569 967.562 107.41C967.375 107.251 967.063 107.13 966.624 107.046L965.504 106.85C964.841 106.729 964.351 106.523 964.034 106.234C963.726 105.945 963.572 105.553 963.572 105.058C963.572 104.666 963.675 104.321 963.88 104.022C964.095 103.723 964.389 103.49 964.762 103.322C965.135 103.145 965.56 103.056 966.036 103.056C966.503 103.056 966.946 103.126 967.366 103.266C967.786 103.397 968.211 103.611 968.64 103.91L968.136 104.624C967.781 104.372 967.427 104.19 967.072 104.078C966.717 103.957 966.358 103.896 965.994 103.896C965.546 103.896 965.187 103.994 964.916 104.19C964.645 104.386 964.51 104.652 964.51 104.988C964.51 105.268 964.594 105.483 964.762 105.632C964.939 105.781 965.247 105.893 965.686 105.968L966.834 106.178C967.525 106.299 968.029 106.509 968.346 106.808C968.663 107.107 968.822 107.508 968.822 108.012C968.822 108.413 968.705 108.777 968.472 109.104C968.239 109.421 967.921 109.673 967.52 109.86C967.119 110.047 966.666 110.14 966.162 110.14Z" fill="#0066CC"/>
<path d="M910.566 113.5H969.328V114.9H910.566V113.5Z" fill="#0066CC"/>
</g>
<defs>
<filter id="filter0_d_15_3201" x="668" y="40" width="440" height="116" filterUnits="userSpaceOnUse" color-interpolation-filters="sRGB">
<feFlood flood-opacity="0" result="BackgroundImageFix"/>
<feColorMatrix in="SourceAlpha" type="matrix" values="0 0 0 0 0 0 0 0 0 0 0 0 0 0 0 0 0 0 127 0" result="hardAlpha"/>
<feOffset dy="8"/>
<feGaussianBlur stdDeviation="8"/>
<feComposite in2="hardAlpha" operator="out"/>
<feColorMatrix type="matrix" values="0 0 0 0 0.0823529 0 0 0 0 0.0823529 0 0 0 0 0.0823529 0 0 0 0.3 0"/>
<feBlend mode="normal" in2="BackgroundImageFix" result="effect1_dropShadow_15_3201"/>
<feBlend mode="normal" in="SourceGraphic" in2="effect1_dropShadow_15_3201" result="shape"/>
</filter>
<clipPath id="clip0_15_3201">
<rect width="16" height="16" fill="white" transform="translate(700 68.5)"/>
</clipPath>
<clipPath id="clip1_15_3201">
<rect width="12" height="12" fill="white" transform="translate(1064 66)"/>
</clipPath>
</defs>
</svg>
