<svg xmlns="http://www.w3.org/2000/svg" width="340" height="200" viewBox="0 0 340 200">
  <g id="Alert" transform="translate(0 61)">
    <rect id="Rectangle" width="340" height="200" transform="translate(0 -61)" fill="none"/>
    <rect id="Rectangle-2" data-name="Rectangle" width="340" height="79" fill="#f3faf2"/>
    <g id="Close_Gray" data-name="Close / Gray" transform="translate(310 16)">
      <rect id="Frame" width="14" height="14" fill="none"/>
      <path id="Close" d="M10.9,9l2.8,2.8a.864.864,0,0,1,.3.6,1.08,1.08,0,0,1-.3.7l-.6.6a.908.908,0,0,1-.7.3.6.6,0,0,1-.6-.3L9,10.9,6.2,13.7a.967.967,0,0,1-1.4,0l-.6-.6a1.421,1.421,0,0,1-.2-.6.713.713,0,0,1,.3-.6L7.1,9,4.3,6.2a.967.967,0,0,1,0-1.4l.6-.6A1.421,1.421,0,0,1,5.5,4a1.08,1.08,0,0,1,.7.3L9,7.1l2.8-2.8a.967.967,0,0,1,1.4,0l.6.6a1.421,1.421,0,0,1,.2.6,1.08,1.08,0,0,1-.3.7Z" transform="translate(-2 -2)" fill="#6a6e73" fill-rule="evenodd"/>
    </g>
    <path id="Path" d="M3.976,14H5.054V10.024L8.876,4.2H7.686L4.55,9.058,1.428,4.2H.168L3.976,10Zm4.466-3.416a3.333,3.333,0,1,0,6.65,0,3.331,3.331,0,1,0-6.65,0ZM11.76,13.23A2.409,2.409,0,0,1,9.45,10.6a2.43,2.43,0,0,1,2.31-2.646A2.44,2.44,0,0,1,14.084,10.6,2.427,2.427,0,0,1,11.76,13.23Zm6.258-6.062H16.982v4.41a2.389,2.389,0,0,0,2.478,2.534,2.446,2.446,0,0,0,2.17-1.218V14h1.022V7.168H21.63v5.054a2.028,2.028,0,0,1-1.792,1.036,1.765,1.765,0,0,1-1.82-1.974ZM24.892,14h1.022V9.324a1.947,1.947,0,0,1,1.834-1.386,2.554,2.554,0,0,1,.714.126V7.14a1.94,1.94,0,0,0-.644-.1,2.041,2.041,0,0,0-1.9,1.512V7.168H24.892ZM33.88,5.488a.726.726,0,0,0,.728-.742.735.735,0,0,0-1.47,0A.729.729,0,0,0,33.88,5.488Zm.5,1.68H33.362V14h1.022ZM36.624,14h1.022V8.96a2.014,2.014,0,0,1,1.792-1.05,1.771,1.771,0,0,1,1.834,1.96V14h1.022V9.576a2.378,2.378,0,0,0-2.478-2.52,2.462,2.462,0,0,0-2.17,1.218V7.168H36.624Zm7-6.832v.84H45.15V14h1.022V8.008h1.946v-.84H46.172V5.684c0-.812.336-1.19,1.12-1.19a2.818,2.818,0,0,1,.826.126V3.7a2.887,2.887,0,0,0-.924-.126,1.875,1.875,0,0,0-2.044,2.1v1.5Zm5.362,3.416a3.333,3.333,0,1,0,6.65,0,3.331,3.331,0,1,0-6.65,0ZM52.3,13.23a2.409,2.409,0,0,1-2.31-2.632,2.337,2.337,0,1,1,4.634,0A2.427,2.427,0,0,1,52.3,13.23Zm5.264.77H58.59V9.324a1.947,1.947,0,0,1,1.834-1.386,2.554,2.554,0,0,1,.714.126V7.14a1.94,1.94,0,0,0-.644-.1,2.041,2.041,0,0,0-1.9,1.512V7.168H57.568Zm5.068,0h1.022V8.918A1.872,1.872,0,0,1,65.324,7.91a1.7,1.7,0,0,1,1.694,1.932V14H68.04V9.59a2.834,2.834,0,0,0-.056-.6A1.9,1.9,0,0,1,69.692,7.91c1.036,0,1.68.742,1.68,1.932V14h1.022V9.59A2.325,2.325,0,0,0,70.07,7.056a2.524,2.524,0,0,0-2.282,1.33,2.245,2.245,0,0,0-2.1-1.33,2.34,2.34,0,0,0-2.03,1.176V7.168H62.636Zm14.084.126a2.933,2.933,0,0,0,2.17-.924V14H79.9V9.464c0-1.554-.952-2.408-2.646-2.408a5.853,5.853,0,0,0-2.576.658l.378.784a4.511,4.511,0,0,1,2.072-.588A1.538,1.538,0,0,1,78.89,9.6v.938A3.956,3.956,0,0,0,76.8,10.01c-1.54,0-2.562.812-2.562,2.03A2.206,2.206,0,0,0,76.72,14.126Zm-1.5-2.114c0-.756.686-1.26,1.736-1.26a3.606,3.606,0,0,1,1.932.49v1.316a2.7,2.7,0,0,1-1.96.784C75.908,13.342,75.222,12.81,75.222,12.012Zm7.49.448c0,1.092.616,1.666,1.792,1.666a3.837,3.837,0,0,0,1.19-.182v-.91a2.454,2.454,0,0,1-.966.182c-.714,0-.994-.294-.994-1.022V8.008h1.96v-.84h-1.96V5.054l-1.022.238V7.168H81.3v.84h1.414ZM87.85,5.488a.726.726,0,0,0,.728-.742.735.735,0,0,0-1.47,0A.729.729,0,0,0,87.85,5.488Zm.5,1.68H87.332V14h1.022Zm1.932,3.416a3.333,3.333,0,1,0,6.65,0,3.331,3.331,0,1,0-6.65,0ZM93.6,13.23a2.409,2.409,0,0,1-2.31-2.632,2.337,2.337,0,1,1,4.634,0A2.427,2.427,0,0,1,93.6,13.23Zm5.264.77H99.89V8.96a2.014,2.014,0,0,1,1.792-1.05,1.771,1.771,0,0,1,1.834,1.96V14h1.022V9.576a2.378,2.378,0,0,0-2.478-2.52,2.462,2.462,0,0,0-2.17,1.218V7.168H98.868Zm13.5,0,1.624-5.516L115.612,14h.994l1.862-6.832H117.5l-1.414,5.46-1.638-5.46h-.91l-1.638,5.46-1.428-5.46h-.994L111.356,14Zm9.772.126a2.933,2.933,0,0,0,2.17-.924V14h1.008V9.464c0-1.554-.952-2.408-2.646-2.408a5.853,5.853,0,0,0-2.576.658l.378.784a4.511,4.511,0,0,1,2.072-.588A1.538,1.538,0,0,1,124.306,9.6v.938a3.956,3.956,0,0,0-2.086-.532c-1.54,0-2.562.812-2.562,2.03A2.206,2.206,0,0,0,122.136,14.126Zm-1.5-2.114c0-.756.686-1.26,1.736-1.26a3.606,3.606,0,0,1,1.932.49v1.316a2.7,2.7,0,0,1-1.96.784C121.324,13.342,120.638,12.81,120.638,12.012Zm6.23,1.106a3.9,3.9,0,0,0,2.772,1.008c1.512,0,2.66-.924,2.66-2.114,0-1.008-.616-1.582-1.988-1.834l-1.148-.21c-.882-.154-1.176-.42-1.176-.98,0-.672.588-1.092,1.484-1.092a3.624,3.624,0,0,1,2.142.728l.5-.714a4.417,4.417,0,0,0-2.6-.854c-1.442,0-2.464.826-2.464,2,0,.994.6,1.554,1.932,1.792l1.12.2c.868.168,1.232.462,1.232,1.022,0,.714-.728,1.232-1.722,1.232a3.563,3.563,0,0,1-2.2-.854Zm9.87,0a3.9,3.9,0,0,0,2.772,1.008c1.512,0,2.66-.924,2.66-2.114,0-1.008-.616-1.582-1.988-1.834l-1.148-.21c-.882-.154-1.176-.42-1.176-.98,0-.672.588-1.092,1.484-1.092a3.624,3.624,0,0,1,2.142.728l.5-.714a4.417,4.417,0,0,0-2.6-.854c-1.442,0-2.464.826-2.464,2,0,.994.6,1.554,1.932,1.792l1.12.2c.868.168,1.232.462,1.232,1.022,0,.714-.728,1.232-1.722,1.232a3.563,3.563,0,0,1-2.2-.854Zm9.31,1.008a2.933,2.933,0,0,0,2.17-.924V14h1.008V9.464c0-1.554-.952-2.408-2.646-2.408A5.853,5.853,0,0,0,144,7.714l.378.784a4.511,4.511,0,0,1,2.072-.588A1.538,1.538,0,0,1,148.218,9.6v.938a3.956,3.956,0,0,0-2.086-.532c-1.54,0-2.562.812-2.562,2.03A2.206,2.206,0,0,0,146.048,14.126Zm-1.5-2.114c0-.756.686-1.26,1.736-1.26a3.607,3.607,0,0,1,1.932.49v1.316a2.7,2.7,0,0,1-1.96.784C145.236,13.342,144.55,12.81,144.55,12.012ZM153.1,14h.98L156.9,7.168h-1.092l-2.184,5.558L151.41,7.168H150.3Zm10.626-.784-.644-.686a2.792,2.792,0,0,1-1.876.7,2.49,2.49,0,0,1-2.436-2.422h5.362V10.5A3.228,3.228,0,0,0,161,7.056a3.325,3.325,0,0,0-3.22,3.528,3.41,3.41,0,0,0,3.388,3.542A3.989,3.989,0,0,0,163.73,13.216Zm-2.744-5.278a2.256,2.256,0,0,1,2.142,2.142H158.8A2.282,2.282,0,0,1,160.986,7.938ZM171.066,14h1.022V3.78l-1.022.21V8.036a2.783,2.783,0,0,0-2.128-.952,3.327,3.327,0,0,0-3.206,3.514,3.3,3.3,0,0,0,3.15,3.5,2.692,2.692,0,0,0,2.184-1.008Zm-4.326-3.416a2.427,2.427,0,0,1,4.326-1.68v3.388a2.34,2.34,0,0,1-1.932.91A2.451,2.451,0,0,1,166.74,10.584Zm10.332,2.534a3.9,3.9,0,0,0,2.772,1.008c1.512,0,2.66-.924,2.66-2.114,0-1.008-.616-1.582-1.988-1.834l-1.148-.21c-.882-.154-1.176-.42-1.176-.98,0-.672.588-1.092,1.484-1.092a3.624,3.624,0,0,1,2.142.728l.5-.714a4.417,4.417,0,0,0-2.6-.854c-1.442,0-2.464.826-2.464,2,0,.994.6,1.554,1.932,1.792l1.12.2c.868.168,1.232.462,1.232,1.022,0,.714-.728,1.232-1.722,1.232a3.563,3.563,0,0,1-2.2-.854Zm8.12-5.95h-1.036v4.41a2.389,2.389,0,0,0,2.478,2.534,2.446,2.446,0,0,0,2.17-1.218V14h1.022V7.168H188.8v5.054a2.028,2.028,0,0,1-1.792,1.036,1.765,1.765,0,0,1-1.82-1.974Zm10,6.034a2.478,2.478,0,0,1-2.408-2.618,2.48,2.48,0,0,1,2.394-2.6,2.685,2.685,0,0,1,1.932.854l.658-.714a3.727,3.727,0,0,0-2.632-1.064,3.412,3.412,0,0,0-3.374,3.528,3.424,3.424,0,0,0,3.374,3.542,3.553,3.553,0,0,0,2.59-1.106l-.63-.63A2.517,2.517,0,0,1,195.188,13.2Zm7.056,0a2.478,2.478,0,0,1-2.408-2.618,2.48,2.48,0,0,1,2.394-2.6,2.685,2.685,0,0,1,1.932.854l.658-.714a3.727,3.727,0,0,0-2.632-1.064,3.412,3.412,0,0,0-3.374,3.528,3.424,3.424,0,0,0,3.374,3.542,3.553,3.553,0,0,0,2.59-1.106l-.63-.63A2.517,2.517,0,0,1,202.244,13.2Zm9.576.014-.644-.686a2.792,2.792,0,0,1-1.876.7,2.49,2.49,0,0,1-2.436-2.422h5.362V10.5a3.228,3.228,0,0,0-3.136-3.444,3.325,3.325,0,0,0-3.22,3.528,3.41,3.41,0,0,0,3.388,3.542A3.989,3.989,0,0,0,211.82,13.216Zm-2.744-5.278a2.256,2.256,0,0,1,2.142,2.142h-4.326A2.282,2.282,0,0,1,209.076,7.938Zm4.452,5.18a3.9,3.9,0,0,0,2.772,1.008c1.512,0,2.66-.924,2.66-2.114,0-1.008-.616-1.582-1.988-1.834l-1.148-.21c-.882-.154-1.176-.42-1.176-.98,0-.672.588-1.092,1.484-1.092a3.624,3.624,0,0,1,2.142.728l.5-.714a4.417,4.417,0,0,0-2.6-.854c-1.442,0-2.464.826-2.464,2,0,.994.6,1.554,1.932,1.792l1.12.2c.868.168,1.232.462,1.232,1.022,0,.714-.728,1.232-1.722,1.232a3.563,3.563,0,0,1-2.2-.854Zm6.58,0a3.9,3.9,0,0,0,2.772,1.008c1.512,0,2.66-.924,2.66-2.114,0-1.008-.616-1.582-1.988-1.834l-1.148-.21c-.882-.154-1.176-.42-1.176-.98,0-.672.588-1.092,1.484-1.092a3.624,3.624,0,0,1,2.142.728l.5-.714a4.417,4.417,0,0,0-2.6-.854c-1.442,0-2.464.826-2.464,2,0,.994.6,1.554,1.932,1.792l1.12.2c.868.168,1.232.462,1.232,1.022,0,.714-.728,1.232-1.722,1.232a3.563,3.563,0,0,1-2.2-.854Zm6.328-5.95v.84h1.526V14h1.022V8.008h1.946v-.84h-1.946V5.684c0-.812.336-1.19,1.12-1.19a2.818,2.818,0,0,1,.826.126V3.7a2.887,2.887,0,0,0-.924-.126,1.875,1.875,0,0,0-2.044,2.1v1.5Zm6.972,0h-1.036v4.41a2.389,2.389,0,0,0,2.478,2.534,2.446,2.446,0,0,0,2.17-1.218V14h1.022V7.168H237.02v5.054a2.028,2.028,0,0,1-1.792,1.036,1.765,1.765,0,0,1-1.82-1.974Zm7.9-3.388-1.022.21V14H241.3Zm3.262,0-1.022.21V14h1.022Zm3.584,11.312c-.252.616-.574.868-1.092.868a2.379,2.379,0,0,1-.56-.056v.91a2.344,2.344,0,0,0,.658.1c1.008,0,1.526-.406,1.96-1.512L252.5,7.168H251.37l-2.2,5.614L247.1,7.168h-1.134l2.632,6.818Zm5.5-2.506a.764.764,0,1,0,.728.756A.75.75,0,0,0,253.652,12.586Z" transform="translate(48 45)" fill="#151515"/>
    <path id="Path-2" data-name="Path" d="M.336-1.442A6.172,6.172,0,0,0,4.452.14C6.79.14,8.386-1.134,8.386-2.926c0-1.484-.924-2.352-2.9-2.688L3.752-5.922C2.674-6.09,2.24-6.454,2.24-7.154c0-.8.77-1.386,1.946-1.386A5.084,5.084,0,0,1,7.322-7.406l.854-1.26A6.544,6.544,0,0,0,4.242-9.94C2.044-9.94.63-8.764.63-7c0,1.344.826,2.184,2.52,2.492L4.956-4.2c1.3.238,1.778.6,1.778,1.4,0,.9-.9,1.554-2.2,1.554a4.9,4.9,0,0,1-3.29-1.428ZM11.578-7.014H10v4.62A2.353,2.353,0,0,0,12.418.112a2.565,2.565,0,0,0,2.24-1.274V0H16.24V-7.014H14.658V-2.03a1.769,1.769,0,0,1-1.54.868,1.511,1.511,0,0,1-1.54-1.68ZM21.644-1.26A2.107,2.107,0,0,1,19.586-3.5,2.109,2.109,0,0,1,21.6-5.74a2.318,2.318,0,0,1,1.764.826l.98-1.022a3.78,3.78,0,0,0-2.8-1.176A3.527,3.527,0,0,0,18-3.5,3.551,3.551,0,0,0,21.546.14,3.648,3.648,0,0,0,24.29-1.078l-.952-.952A2.155,2.155,0,0,1,21.644-1.26Zm7.252,0A2.107,2.107,0,0,1,26.838-3.5a2.109,2.109,0,0,1,2.016-2.24,2.318,2.318,0,0,1,1.764.826l.98-1.022a3.78,3.78,0,0,0-2.8-1.176A3.527,3.527,0,0,0,25.256-3.5,3.551,3.551,0,0,0,28.8.14a3.648,3.648,0,0,0,2.744-1.218L30.59-2.03A2.155,2.155,0,0,1,28.9-1.26ZM38.864-.9l-1.036-.966a2.279,2.279,0,0,1-1.666.658,2.142,2.142,0,0,1-2.1-1.918h5.18v-.392a3.367,3.367,0,0,0-3.318-3.612A3.454,3.454,0,0,0,32.508-3.5,3.565,3.565,0,0,0,36.078.14,4.056,4.056,0,0,0,38.864-.9ZM35.91-5.838a1.92,1.92,0,0,1,1.834,1.75H34.09A1.884,1.884,0,0,1,35.91-5.838ZM40.432-.812A4.706,4.706,0,0,0,43.456.14c1.624,0,2.856-.994,2.856-2.282,0-1.05-.672-1.694-2.072-1.96l-1.232-.224c-.742-.126-.994-.322-.994-.77,0-.518.476-.826,1.2-.826a3.834,3.834,0,0,1,2.114.672l.742-1.036a4.936,4.936,0,0,0-2.758-.84c-1.638,0-2.716.854-2.716,2.17,0,1.05.672,1.68,2.03,1.932l1.246.21c.672.126.966.364.966.8,0,.56-.574.938-1.414.938a4.042,4.042,0,0,1-2.254-.8Zm6.9,0A4.706,4.706,0,0,0,50.358.14c1.624,0,2.856-.994,2.856-2.282,0-1.05-.672-1.694-2.072-1.96L49.91-4.326c-.742-.126-.994-.322-.994-.77,0-.518.476-.826,1.2-.826a3.834,3.834,0,0,1,2.114.672l.742-1.036a4.936,4.936,0,0,0-2.758-.84c-1.638,0-2.716.854-2.716,2.17,0,1.05.672,1.68,2.03,1.932l1.246.21c.672.126.966.364.966.8,0,.56-.574.938-1.414.938a4.042,4.042,0,0,1-2.254-.8Z" transform="translate(48 33)" fill="#1e4f18"/>
    <g id="Success" transform="translate(16 16)">
      <rect id="Frame-2" data-name="Frame" width="24" height="24" fill="none"/>
      <path id="Success-2" data-name="Success" d="M26,17a9,9,0,1,1-9-9A9,9,0,0,1,26,17ZM15.959,21.765l6.677-6.677a.581.581,0,0,0,0-.821l-.821-.821a.581.581,0,0,0-.821,0l-5.446,5.446-2.542-2.542a.581.581,0,0,0-.821,0l-.821.821a.581.581,0,0,0,0,.821l3.774,3.774a.581.581,0,0,0,.821,0Z" transform="translate(-5 -5)" fill="#3e8635"/>
    </g>
    <rect id="Rectangle-3" data-name="Rectangle" width="340" height="2" fill="#3e8635"/>
  </g>
</svg>
