<?xml version="1.0" encoding="utf-8"?>
<!-- Generator: Adobe Illustrator 24.3.0, SVG Export Plug-In . SVG Version: 6.00 Build 0)  -->
<svg version="1.1" id="Layer_1" xmlns="http://www.w3.org/2000/svg" xmlns:xlink="http://www.w3.org/1999/xlink" x="0px" y="0px"
	 viewBox="0 0 340 200" style="enable-background:new 0 0 340 200;" xml:space="preserve">
<style type="text/css">
	.st0{fill:#FFFFFF;}
	.st1{fill:none;stroke:#D2D2D2;}
	.st2{fill:#0066CC;}
	.st3{fill:#151515;}
	.st4{fill:none;}
</style>
<g transform="translate(-956 -2180)">
	<g id="Card" transform="translate(-424 -608)">
		<g id="Rectangle" transform="translate(424 608)">
			<path class="st0" d="M959,2199h334c1.7,0,3,1.3,3,3v155c0,1.7-1.3,3-3,3H959c-1.7,0-3-1.3-3-3v-155
				C956,2200.3,957.3,2199,959,2199z"/>
			<path class="st1" d="M959,2199.5h334c1.4,0,2.5,1.1,2.5,2.5v155c0,1.4-1.1,2.5-2.5,2.5H959c-1.4,0-2.5-1.1-2.5-2.5v-155
				C956.5,2200.6,957.6,2199.5,959,2199.5z"/>
		</g>
		<g id="Call_to_action" transform="translate(0 -3)">
			<path id="Arrow" class="st2" d="M1566,2921l-1.5,1.5l4.5,4.5h-10v2h10l-4.5,4.5l1.5,1.5l7-7L1566,2921z"/>
			<path id="Path" class="st2" d="M1413.1,2934h2.6v-4.8h2.8l2.5,4.8h2.9l-2.8-5.2c1.5-0.5,2.5-1.9,2.5-3.5c0-2.3-1.8-3.9-4.4-3.9
				h-6.2V2934z M1419.1,2923.6c0.9-0.1,1.8,0.6,1.9,1.5c0,0.1,0,0.1,0,0.2c0,1-0.8,1.7-1.8,1.7c-0.1,0-0.1,0-0.2,0h-3.3v-3.4H1419.1
				z M1433.1,2932.8l-1.6-1.5c-0.6,0.5-1.3,0.8-2.1,0.8c-1.2,0-2.3-0.8-2.7-2h7v-0.6c0.2-2.6-1.8-4.9-4.4-5c-0.1,0-0.2,0-0.2,0
				c-2.6,0-4.8,2.1-4.8,4.7c0,0,0,0.1,0,0.1c0,2.7,2.2,4.9,4.9,4.9c0,0,0.1,0,0.1,0C1430.7,2934.2,1432,2933.7,1433.1,2932.8
				L1433.1,2932.8z M1429,2926.5c1.1,0,2,0.8,2.3,1.9h-4.6C1426.9,2927.3,1427.9,2926.5,1429,2926.5z M1438.1,2934.2
				c1,0,1.9-0.3,2.7-0.8v0.6h2.4v-6.1c0-2.2-1.5-3.5-4-3.5c-1.4,0-2.9,0.4-4.2,1l0.9,1.8c0.9-0.5,1.9-0.7,2.9-0.8c1.3,0,2,0.6,2,1.6
				v0.7c-0.7-0.2-1.5-0.4-2.3-0.4c-2.4,0-3.9,1.1-3.9,2.8C1434.7,2933,1436.1,2934.2,1438.1,2934.2z M1437.1,2931.2
				c0-0.7,0.7-1.2,1.8-1.2c0.7,0,1.3,0.1,2,0.3v1.4c-0.6,0.4-1.3,0.6-2.1,0.6C1437.7,2932.4,1437.1,2931.9,1437.1,2931.2z
				 M1452.2,2934h2.4v-13.1l-2.5,0.5v3.8c-0.8-0.5-1.7-0.7-2.6-0.7c-2.6,0-4.8,2.1-4.8,4.7c0,0,0,0.1,0,0.1c0,2.6,2.1,4.8,4.7,4.8
				c0,0,0.1,0,0.1,0c1,0,1.9-0.3,2.7-0.9V2934z M1447.2,2929.3c0-1.5,1.1-2.7,2.6-2.7c0,0,0.1,0,0.1,0c0.8,0,1.6,0.3,2.2,0.9v3.7
				c-0.6,0.6-1.4,0.9-2.2,0.9C1448.4,2932,1447.2,2930.9,1447.2,2929.3C1447.2,2929.4,1447.2,2929.3,1447.2,2929.3L1447.2,2929.3z
				 M1464.7,2932c-1.4,0-2.6-1.2-2.6-2.6c0,0,0-0.1,0-0.1c-0.1-1.4,1-2.7,2.4-2.7c0,0,0,0,0.1,0c0.9,0,1.8,0.4,2.3,1.1l1.5-1.6
				c-1-1.1-2.4-1.7-3.9-1.7c-2.7,0-4.9,2.1-4.9,4.8c0,0,0,0.1,0,0.1c0,2.7,2.1,4.8,4.8,4.9c0,0,0.1,0,0.1,0c1.4,0,2.8-0.6,3.8-1.7
				l-1.5-1.5C1466.4,2931.6,1465.6,2932,1464.7,2932z M1472.7,2934.2c1,0,1.9-0.3,2.7-0.8v0.6h2.4v-6.1c0-2.2-1.5-3.5-4-3.5
				c-1.4,0-2.9,0.4-4.2,1l0.9,1.8c0.9-0.5,1.9-0.7,2.9-0.8c1.3,0,2,0.6,2,1.6v0.7c-0.7-0.2-1.5-0.4-2.3-0.4c-2.4,0-3.9,1.1-3.9,2.8
				C1469.3,2933,1470.7,2934.2,1472.7,2934.2z M1471.6,2931.2c0-0.7,0.7-1.2,1.8-1.2c0.7,0,1.3,0.1,2,0.3v1.4
				c-0.6,0.4-1.3,0.6-2.1,0.6C1472.3,2932.4,1471.6,2931.9,1471.6,2931.2z M1478.9,2932.9c1.2,0.9,2.8,1.4,4.3,1.3
				c2.4,0,4.1-1.3,4.1-3.1c0-1.5-1-2.4-2.9-2.7l-1.8-0.3c-0.9-0.1-1.3-0.4-1.3-0.9c0-0.6,0.6-0.9,1.5-0.9c1,0,2,0.3,2.9,0.9l1.2-1.6
				c-1.1-0.8-2.5-1.2-3.8-1.2c-2.4,0-3.9,1.2-3.9,3c0,1.5,1,2.4,2.8,2.7l1.8,0.3c0.8,0.1,1.2,0.4,1.2,0.9c0,0.6-0.7,1-1.8,1
				c-1.1,0-2.2-0.4-3-1.1L1478.9,2932.9z M1497.1,2932.8l-1.6-1.5c-0.6,0.5-1.3,0.8-2.1,0.8c-1.2,0-2.3-0.8-2.7-2h7v-0.6
				c0.2-2.6-1.8-4.9-4.4-5c-0.1,0-0.2,0-0.2,0c-2.6,0-4.8,2.1-4.8,4.7c0,0,0,0.1,0,0.1c0,2.7,2.2,4.9,4.9,4.9c0,0,0.1,0,0.1,0
				C1494.6,2934.2,1496,2933.7,1497.1,2932.8z M1493,2926.5c1.1,0,2,0.8,2.3,1.9h-4.6C1490.9,2927.3,1491.9,2926.5,1493,2926.5z
				 M1502,2932.9c1.2,0.9,2.8,1.4,4.3,1.3c2.4,0,4.1-1.3,4.1-3.1c0-1.5-1-2.4-2.9-2.7l-1.8-0.3c-0.9-0.1-1.3-0.4-1.3-0.9
				c0-0.6,0.6-0.9,1.5-0.9c1,0,2,0.3,2.9,0.9l1.2-1.6c-1.1-0.8-2.5-1.2-3.9-1.2c-2.4,0-3.9,1.2-3.9,3c0,1.5,1,2.4,2.8,2.7l1.8,0.3
				c0.8,0.1,1.2,0.4,1.2,0.9c0,0.6-0.7,1-1.8,1c-1.1,0-2.2-0.4-3-1.1L1502,2932.9z M1512.7,2931.4c0,1.8,1.1,2.8,3.2,2.8
				c0.6,0,1.3-0.1,1.9-0.3v-2c-0.4,0.1-0.9,0.2-1.3,0.2c-1,0-1.3-0.3-1.3-1.2v-4.2h2.7v-2.1h-2.7v-3l-2.5,0.6v2.4h-1.9v2.1h1.9
				V2931.4z M1521.5,2924.6h-2.5v5.8c-0.1,2,1.4,3.6,3.4,3.7c0.1,0,0.2,0,0.3,0c1,0,1.9-0.3,2.6-0.9v0.8h2.5v-9.4h-2.5v6.5
				c-0.4,0.6-1.2,1-1.9,0.9c-1,0.1-1.9-0.7-1.9-1.7c0-0.1,0-0.2,0-0.2V2924.6z M1536.8,2934h2.4v-13.1l-2.5,0.5v3.8
				c-0.8-0.5-1.7-0.7-2.6-0.7c-2.6,0-4.8,2.1-4.8,4.7c0,0,0,0.1,0,0.1c0,2.6,2.1,4.8,4.7,4.8c0,0,0.1,0,0.1,0c1,0,1.9-0.3,2.7-0.9
				V2934z M1531.8,2929.3c0-1.5,1.1-2.7,2.6-2.7c0,0,0.1,0,0.1,0c0.8,0,1.6,0.3,2.2,0.9v3.7c-0.6,0.6-1.4,0.9-2.2,0.9
				C1533,2932.1,1531.8,2930.9,1531.8,2929.3C1531.8,2929.4,1531.8,2929.3,1531.8,2929.3L1531.8,2929.3z M1543.7,2934.4
				c-0.3,0.8-1,1.3-1.9,1.3c-0.3,0-0.6,0-0.9-0.1v2.1c0.4,0.1,0.7,0.1,1.1,0.1c2.1,0,3.2-0.9,4.2-3.1l4.3-10.1h-2.7l-2.7,6.4
				l-2.3-6.4h-2.7l3.7,9.5L1543.7,2934.4z"/>
		</g>
		<path id="Path-2" class="st3" d="M1412.2,2857h1.5l1.5-4h5.6l1.5,4h1.5l-4.9-12.6h-1.7L1412.2,2857z M1415.5,2851.9l2.4-6.3
			l2.4,6.3H1415.5z M1428.9,2856c-1.8,0-3.1-1.5-3.1-3.3c0,0,0-0.1,0-0.1c-0.1-1.8,1.3-3.3,3-3.3c0,0,0,0,0.1,0
			c0.9,0,1.8,0.4,2.5,1.1l0.8-0.9c-0.9-0.9-2.1-1.4-3.4-1.4c-2.4,0-4.4,2-4.3,4.4c0,0,0,0.1,0,0.1c-0.1,2.4,1.8,4.5,4.2,4.6
			c0,0,0.1,0,0.1,0c1.3,0,2.5-0.5,3.3-1.4l-0.8-0.8C1430.7,2855.6,1429.8,2856,1428.9,2856z M1434,2857h1.3v-6.5
			c0.4-0.8,1.2-1.3,2.1-1.3c1.2,0,2.2,1,2.2,2.2c0,0.1,0,0.2,0,0.3v5.4h1.3v-5.7c0-0.3,0-0.5-0.1-0.8c0.4-0.8,1.3-1.4,2.2-1.4
			c1.3,0,2.2,1,2.2,2.5v5.3h1.3v-5.7c0.1-1.6-1.1-3.1-2.7-3.2c-0.1,0-0.2,0-0.3,0c-1.2,0-2.4,0.6-2.9,1.7c-0.5-1.1-1.5-1.7-2.7-1.7
			c-1.1,0-2.1,0.6-2.6,1.5v-1.4h-1.3V2857z M1456.5,2856l-0.8-0.9c-0.7,0.6-1.5,0.9-2.4,0.9c-1.7,0-3.1-1.4-3.1-3.1h6.9v-0.4
			c0.2-2.3-1.6-4.3-3.9-4.4c-0.1,0-0.1,0-0.2,0c-2.4,0.1-4.2,2-4.1,4.4c0,0,0,0.1,0,0.1c-0.1,2.4,1.8,4.5,4.2,4.6c0,0,0.1,0,0.1,0
			C1454.4,2857.2,1455.6,2856.8,1456.5,2856z M1452.9,2849.2c1.5,0.1,2.7,1.3,2.8,2.8h-5.6
			C1450.2,2850.5,1451.4,2849.3,1452.9,2849.2z M1464.1,2846.1c0.5,0,0.9-0.4,0.9-0.9c0,0,0,0,0,0c0-0.5-0.4-0.9-0.9-0.9
			c-0.5,0-0.9,0.4-0.9,0.9C1463.1,2845.6,1463.6,2846,1464.1,2846.1C1464.1,2846.1,1464.1,2846.1,1464.1,2846.1z M1464.8,2848.2
			h-1.3v8.8h1.3V2848.2z M1467.5,2857h1.3v-6.5c0.4-0.8,1.2-1.3,2.1-1.3c1.2,0,2.2,1,2.2,2.2c0,0.1,0,0.2,0,0.3v5.4h1.3v-5.7
			c0-0.3,0-0.5-0.1-0.8c0.4-0.8,1.3-1.4,2.2-1.4c1.3,0,2.2,1,2.2,2.5v5.3h1.3v-5.7c0.1-1.6-1.1-3.1-2.7-3.2c-0.1,0-0.2,0-0.3,0
			c-1.2,0-2.4,0.6-2.9,1.7c-0.5-1.1-1.5-1.7-2.7-1.7c-1.1,0-2.1,0.6-2.6,1.5v-1.4h-1.3V2857z M1482.7,2860.8h1.3v-4.9
			c0.7,0.8,1.7,1.2,2.8,1.2c2.4-0.1,4.2-2.1,4.1-4.4c0,0,0-0.1,0-0.1c0.1-2.3-1.6-4.3-4-4.5c0,0-0.1,0-0.1,0c-1.1,0-2.2,0.5-2.8,1.4
			v-1.3h-1.3L1482.7,2860.8z M1486.5,2849.3c1.7,0,3.1,1.5,3.1,3.2c0,0.1,0,0.1,0,0.1c0.1,1.7-1.2,3.2-2.9,3.4c0,0-0.1,0-0.2,0
			c-1,0-1.9-0.4-2.5-1.2v-4.3C1484.6,2849.7,1485.5,2849.2,1486.5,2849.3L1486.5,2849.3z M1493.2,2857h1.3v-6c0.3-1,1.3-1.8,2.4-1.8
			c0.3,0,0.6,0.1,0.9,0.2v-1.2c-0.3-0.1-0.5-0.1-0.8-0.1c-1.2,0-2.1,0.8-2.4,1.9v-1.8h-1.3V2857z M1498.5,2852.6
			c-0.2,2.4,1.6,4.4,4,4.6c2.4,0.2,4.4-1.6,4.6-4c0-0.2,0-0.4,0-0.6c0.1-2.4-1.7-4.4-4-4.5c-2.4-0.1-4.4,1.7-4.5,4
			C1498.5,2852.3,1498.5,2852.4,1498.5,2852.6z M1502.8,2856c-1.7-0.1-3-1.5-3-3.2c0-0.1,0-0.1,0-0.2c-0.2-1.6,0.9-3.2,2.6-3.4
			c1.6-0.2,3.2,0.9,3.4,2.6c0,0.3,0,0.5,0,0.8c0.1,1.7-1.1,3.2-2.8,3.4C1502.9,2856,1502.9,2856,1502.8,2856L1502.8,2856z
			 M1511.6,2857h1.3l3.6-8.8h-1.4l-2.8,7.1l-2.8-7.1h-1.4L1511.6,2857z M1525.1,2856l-0.8-0.9c-0.7,0.6-1.5,0.9-2.4,0.9
			c-1.7,0-3.1-1.4-3.1-3.1h6.9v-0.4c0.2-2.3-1.6-4.3-3.9-4.4c-0.1,0-0.1,0-0.2,0c-2.4,0.1-4.2,2-4.1,4.4c0,0,0,0.1,0,0.1
			c-0.1,2.4,1.8,4.5,4.2,4.6c0,0,0.1,0,0.1,0C1523,2857.2,1524.2,2856.8,1525.1,2856L1525.1,2856z M1521.6,2849.2
			c1.5,0.1,2.7,1.3,2.8,2.8h-5.6C1518.9,2850.5,1520.1,2849.3,1521.6,2849.2z M1527.1,2855.9c1,0.9,2.3,1.4,3.6,1.3
			c1.9,0,3.4-1.2,3.4-2.7c0-1.3-0.8-2-2.6-2.4l-1.5-0.3c-1.1-0.2-1.5-0.5-1.5-1.3c0-0.9,0.8-1.4,1.9-1.4c1,0,2,0.3,2.8,0.9l0.6-0.9
			c-1-0.7-2.1-1.1-3.3-1.1c-1.9,0-3.2,1.1-3.2,2.6c0,1.3,0.8,2,2.5,2.3l1.4,0.3c1.1,0.2,1.6,0.6,1.6,1.3c0,0.9-0.9,1.6-2.2,1.6
			c-1,0-2-0.4-2.8-1.1L1527.1,2855.9z M1544,2857.1c1.1,0,2.1-0.4,2.8-1.3v1.7c0,1.5-0.8,2.2-2.4,2.2c-1,0-2-0.3-2.8-0.8l-0.6,1
			c1,0.6,2.2,0.9,3.4,0.9c2.4,0,3.7-1.2,3.7-3.4v-9.2h-1.3v1.1c-0.7-0.8-1.7-1.3-2.8-1.2c-2.4,0.1-4.2,2.1-4.1,4.4c0,0,0,0.1,0,0.1
			C1539.8,2854.9,1541.5,2857,1544,2857.1C1543.9,2857.1,1543.9,2857.1,1544,2857.1L1544,2857.1z M1541.2,2852.6
			c-0.1-1.7,1.2-3.2,2.9-3.3c1-0.1,2,0.4,2.7,1.2v4.3c-0.6,0.8-1.5,1.2-2.5,1.2c-1.7,0-3.1-1.5-3.1-3.2
			C1541.2,2852.7,1541.2,2852.7,1541.2,2852.6L1541.2,2852.6z M1552.1,2848.2h-1.3v5.7c-0.1,1.7,1.2,3.1,2.9,3.3c0.1,0,0.2,0,0.3,0
			c1.1,0,2.2-0.6,2.8-1.6v1.4h1.3v-8.8h-1.3v6.5c-0.5,0.8-1.3,1.3-2.3,1.3c-1.3,0-2.3-0.9-2.4-2.2c0-0.1,0-0.2,0-0.4L1552.1,2848.2z
			 M1568,2856l-0.8-0.9c-0.7,0.6-1.5,0.9-2.4,0.9c-1.7,0-3.1-1.4-3.1-3.1h6.9v-0.4c0.2-2.3-1.6-4.3-3.9-4.4c-0.1,0-0.1,0-0.2,0
			c-2.4,0.1-4.2,2-4.1,4.4c0,0,0,0.1,0,0.1c-0.1,2.4,1.8,4.5,4.2,4.6c0,0,0.1,0,0.1,0C1565.9,2857.2,1567.1,2856.8,1568,2856
			L1568,2856z M1564.5,2849.2c1.5,0.1,2.7,1.3,2.8,2.8h-5.6C1561.7,2850.5,1563,2849.3,1564.5,2849.2L1564.5,2849.2z M1570,2855.9
			c1,0.9,2.3,1.4,3.6,1.3c1.9,0,3.4-1.2,3.4-2.7c0-1.3-0.8-2-2.6-2.4l-1.5-0.3c-1.1-0.2-1.5-0.5-1.5-1.3c0-0.9,0.8-1.4,1.9-1.4
			c1,0,2,0.3,2.8,0.9l0.6-0.9c-1-0.7-2.1-1.1-3.3-1.1c-1.9,0-3.2,1.1-3.2,2.6c0,1.3,0.8,2,2.5,2.3l1.4,0.3c1.1,0.2,1.6,0.6,1.6,1.3
			c0,0.9-0.9,1.6-2.2,1.6c-1,0-2-0.4-2.8-1.1L1570,2855.9z M1579.8,2855c0,1.4,0.8,2.1,2.3,2.1c0.5,0,1-0.1,1.5-0.2v-1.2
			c-0.4,0.2-0.8,0.2-1.2,0.2c-0.9,0-1.3-0.4-1.3-1.3v-5.4h2.5v-1.1h-2.5v-2.7l-1.3,0.3v2.4h-1.8v1.1h1.8L1579.8,2855z M1597.1,2856
			l-0.8-0.9c-0.7,0.6-1.5,0.9-2.4,0.9c-1.7,0-3.1-1.4-3.1-3.1h6.9v-0.4c0.2-2.3-1.6-4.3-3.9-4.4c-0.1,0-0.1,0-0.2,0
			c-2.4,0.1-4.2,2-4.1,4.4c0,0,0,0.1,0,0.1c-0.1,2.4,1.8,4.5,4.2,4.6c0,0,0.1,0,0.1,0C1595,2857.2,1596.1,2856.8,1597.1,2856
			L1597.1,2856z M1593.5,2849.2c1.5,0.1,2.7,1.3,2.8,2.8h-5.6C1590.8,2850.5,1592,2849.3,1593.5,2849.2L1593.5,2849.2z M1598.2,2857
			h1.5l2.6-3.6l2.6,3.6h1.6l-3.4-4.6l3.2-4.2h-1.5l-2.4,3.3l-2.4-3.3h-1.6l3.2,4.3L1598.2,2857z M1608,2860.8h1.3v-4.9
			c0.7,0.8,1.7,1.2,2.8,1.2c2.4-0.1,4.2-2.1,4.1-4.4c0,0,0-0.1,0-0.1c0.1-2.3-1.6-4.3-4-4.5c0,0-0.1,0-0.1,0c-1.1,0-2.2,0.5-2.8,1.4
			v-1.3h-1.3L1608,2860.8z M1611.9,2849.3c1.7,0,3.1,1.5,3.1,3.2c0,0.1,0,0.1,0,0.1c0.1,1.7-1.2,3.2-2.9,3.4c0,0-0.1,0-0.2,0
			c-1,0-1.9-0.4-2.5-1.2v-4.3C1609.9,2849.7,1610.9,2849.2,1611.9,2849.3L1611.9,2849.3z M1625.8,2856l-0.8-0.9
			c-0.7,0.6-1.5,0.9-2.4,0.9c-1.7,0-3.1-1.4-3.1-3.1h6.9v-0.4c0.2-2.3-1.6-4.3-3.9-4.4c-0.1,0-0.1,0-0.2,0c-2.4,0.1-4.2,2-4.1,4.4
			c0,0,0,0.1,0,0.1c-0.1,2.4,1.8,4.5,4.2,4.6c0,0,0.1,0,0.1,0C1623.7,2857.2,1624.9,2856.8,1625.8,2856L1625.8,2856z M1622.3,2849.2
			c1.5,0.1,2.7,1.3,2.8,2.8h-5.6C1619.6,2850.5,1620.8,2849.3,1622.3,2849.2L1622.3,2849.2z M1628.6,2857h1.3v-6
			c0.3-1,1.3-1.8,2.4-1.8c0.3,0,0.6,0.1,0.9,0.2v-1.2c-0.3-0.1-0.5-0.1-0.8-0.1c-1.2,0-2.1,0.8-2.4,1.9v-1.8h-1.3V2857z
			 M1635.6,2846.1c0.5,0,0.9-0.4,0.9-0.9c0,0,0,0,0,0c0-0.5-0.4-0.9-0.9-0.9c-0.5,0-0.9,0.4-0.9,0.9
			C1634.6,2845.6,1635,2846,1635.6,2846.1C1635.6,2846.1,1635.6,2846.1,1635.6,2846.1L1635.6,2846.1z M1636.2,2848.2h-1.3v8.8h1.3
			V2848.2z M1646.2,2856l-0.8-0.9c-0.7,0.6-1.5,0.9-2.4,0.9c-1.7,0-3.1-1.4-3.1-3.1h6.9v-0.4c0.2-2.3-1.6-4.3-3.9-4.4
			c-0.1,0-0.1,0-0.2,0c-2.4,0.1-4.2,2-4.1,4.4c0,0,0,0.1,0,0.1c-0.1,2.4,1.8,4.5,4.2,4.6c0,0,0.1,0,0.1,0
			C1644.1,2857.2,1645.3,2856.8,1646.2,2856L1646.2,2856z M1642.7,2849.2c1.5,0.1,2.7,1.3,2.8,2.8h-5.6
			C1639.9,2850.5,1641.1,2849.3,1642.7,2849.2L1642.7,2849.2z M1648.9,2857h1.3v-6.5c0.5-0.8,1.3-1.4,2.3-1.4
			c1.3-0.1,2.3,0.9,2.4,2.2c0,0.1,0,0.2,0,0.3v5.3h1.3v-5.7c0.1-1.7-1.2-3.1-2.9-3.2c-0.1,0-0.2,0-0.3,0c-1.1,0-2.2,0.6-2.8,1.6
			v-1.4h-1.3L1648.9,2857z M1662.9,2856c-1.8,0-3.1-1.5-3.1-3.3c0,0,0-0.1,0-0.1c-0.1-1.8,1.3-3.3,3-3.3c0,0,0,0,0.1,0
			c0.9,0,1.8,0.4,2.5,1.1l0.8-0.9c-0.9-0.9-2.1-1.4-3.4-1.4c-2.4,0-4.4,2-4.3,4.4c0,0,0,0.1,0,0.1c-0.1,2.4,1.8,4.5,4.2,4.6
			c0,0,0.1,0,0.1,0c1.3,0,2.5-0.5,3.3-1.4l-0.8-0.8C1664.7,2855.6,1663.8,2856,1662.9,2856L1662.9,2856z M1675,2856l-0.8-0.9
			c-0.7,0.6-1.5,0.9-2.4,0.9c-1.7,0-3.1-1.4-3.1-3.1h6.9v-0.4c0.2-2.3-1.6-4.3-3.9-4.4c-0.1,0-0.1,0-0.2,0c-2.4,0.1-4.2,2-4.1,4.4
			c0,0,0,0.1,0,0.1c-0.1,2.4,1.8,4.5,4.2,4.6c0,0,0.1,0,0.1,0C1672.9,2857.2,1674.1,2856.8,1675,2856L1675,2856z M1671.5,2849.2
			c1.5,0.1,2.7,1.3,2.8,2.8h-5.6C1668.8,2850.5,1670,2849.3,1671.5,2849.2L1671.5,2849.2z M1677,2855.9c1,0.9,2.3,1.4,3.6,1.3
			c1.9,0,3.4-1.2,3.4-2.7c0-1.3-0.8-2-2.6-2.4l-1.5-0.3c-1.1-0.2-1.5-0.5-1.5-1.3c0-0.9,0.8-1.4,1.9-1.4c1,0,2,0.3,2.8,0.9l0.6-0.9
			c-1-0.7-2.1-1.1-3.3-1.1c-1.9,0-3.2,1.1-3.2,2.6c0,1.3,0.8,2,2.5,2.3l1.4,0.3c1.1,0.2,1.6,0.6,1.6,1.3c0,0.9-0.9,1.6-2.2,1.6
			c-1,0-2-0.4-2.8-1.1L1677,2855.9z M1416.2,2884l2.1-7.1l2.1,7.1h1.3l2.4-8.8h-1.2l-1.8,7l-2.1-7h-1.2l-2.1,7l-1.8-7h-1.3l2.4,8.8
			H1416.2z M1426.6,2873.1c0.5,0,0.9-0.4,0.9-0.9c0,0,0,0,0,0c0-0.5-0.4-0.9-0.9-0.9c-0.5,0-0.9,0.4-0.9,0.9
			C1425.6,2872.6,1426,2873,1426.6,2873.1C1426.6,2873.1,1426.6,2873.1,1426.6,2873.1z M1427.2,2875.2h-1.3v8.8h1.3V2875.2z
			 M1431,2882c0,1.4,0.8,2.1,2.3,2.1c0.5,0,1-0.1,1.5-0.2v-1.2c-0.4,0.2-0.8,0.2-1.2,0.2c-0.9,0-1.3-0.4-1.3-1.3v-5.4h2.5v-1.1h-2.5
			v-2.7l-1.3,0.3v2.4h-1.8v1.1h1.8V2882z M1436.7,2884h1.3v-6.5c0.5-0.8,1.3-1.4,2.3-1.4c1.3-0.1,2.3,0.9,2.4,2.2c0,0.1,0,0.2,0,0.3
			v5.3h1.3v-5.7c0.1-1.7-1.2-3.1-2.9-3.2c-0.1,0-0.2,0-0.3,0c-1.1,0-2.2,0.6-2.8,1.6v-5.8l-1.3,0.3L1436.7,2884z M1453.6,2884.2
			c1.1,0,2.1-0.4,2.8-1.2v1h1.3v-5.8c0-2-1.2-3.1-3.4-3.1c-1.2,0-2.3,0.3-3.3,0.8l0.5,1c0.8-0.5,1.7-0.7,2.7-0.8
			c1.1-0.2,2.1,0.6,2.3,1.7c0,0.2,0,0.4,0,0.5v1.2c-0.8-0.5-1.7-0.7-2.7-0.7c-2,0-3.3,1-3.3,2.6
			C1450.4,2883.1,1451.7,2884.2,1453.6,2884.2z M1451.7,2881.4c0-1,0.9-1.6,2.2-1.6c0.9,0,1.7,0.2,2.5,0.6v1.7c-0.7,0.7-1.6,1-2.5,1
			C1452.5,2883.2,1451.7,2882.5,1451.7,2881.4z M1461.5,2875.2h-1.3v5.7c-0.1,1.7,1.2,3.1,2.9,3.3c0.1,0,0.2,0,0.3,0
			c1.1,0,2.2-0.6,2.8-1.6v1.4h1.3v-8.8h-1.3v6.5c-0.5,0.8-1.3,1.3-2.3,1.3c-1.3,0-2.3-0.9-2.4-2.2c0-0.1,0-0.2,0-0.4L1461.5,2875.2z
			 M1471.2,2882c0,1.4,0.8,2.1,2.3,2.1c0.5,0,1-0.1,1.5-0.2v-1.2c-0.4,0.2-0.8,0.2-1.2,0.2c-0.9,0-1.3-0.4-1.3-1.3v-5.4h2.5v-1.1
			h-2.5v-2.7l-1.3,0.3v2.4h-1.8v1.1h1.8L1471.2,2882z M1476.4,2879.6c-0.2,2.4,1.6,4.4,4,4.6c2.4,0.2,4.4-1.6,4.6-4
			c0-0.2,0-0.4,0-0.6c0.1-2.4-1.7-4.4-4-4.5c-2.4-0.1-4.4,1.7-4.5,4C1476.4,2879.3,1476.4,2879.4,1476.4,2879.6z M1480.6,2883
			c-1.7-0.1-3-1.5-3-3.2c0-0.1,0-0.1,0-0.2c-0.2-1.6,0.9-3.2,2.6-3.4s3.2,0.9,3.4,2.6c0,0.3,0,0.5,0,0.8c0.1,1.7-1.1,3.2-2.8,3.4
			C1480.7,2883,1480.7,2883,1480.6,2883L1480.6,2883z M1487.2,2884h1.3v-6.5c0.4-0.8,1.2-1.3,2.1-1.3c1.2,0,2.2,1,2.2,2.2
			c0,0.1,0,0.2,0,0.3v5.4h1.3v-5.7c0-0.3,0-0.5-0.1-0.8c0.4-0.8,1.3-1.4,2.2-1.4c1.3,0,2.2,1,2.2,2.5v5.3h1.3v-5.7
			c0.1-1.6-1.1-3.1-2.7-3.2c-0.1,0-0.2,0-0.3,0c-1.2,0-2.4,0.6-2.9,1.7c-0.5-1.1-1.5-1.7-2.7-1.7c-1.1,0-2.1,0.6-2.6,1.5v-1.4h-1.3
			L1487.2,2884z M1505.1,2884.2c1.1,0,2.1-0.4,2.8-1.2v1h1.3v-5.8c0-2-1.2-3.1-3.4-3.1c-1.2,0-2.3,0.3-3.3,0.8l0.5,1
			c0.8-0.5,1.7-0.7,2.7-0.8c1.1-0.2,2.1,0.6,2.3,1.7c0,0.2,0,0.4,0,0.5v1.2c-0.8-0.5-1.7-0.7-2.7-0.7c-2,0-3.3,1-3.3,2.6
			C1502,2883.1,1503.3,2884.2,1505.1,2884.2L1505.1,2884.2z M1503.2,2881.4c0-1,0.9-1.6,2.2-1.6c0.9,0,1.7,0.2,2.5,0.6v1.7
			c-0.7,0.7-1.6,1-2.5,1C1504.1,2883.2,1503.2,2882.5,1503.2,2881.4L1503.2,2881.4z M1512.7,2882c0,1.4,0.8,2.1,2.3,2.1
			c0.5,0,1-0.1,1.5-0.2v-1.2c-0.4,0.2-0.8,0.2-1.2,0.2c-0.9,0-1.3-0.4-1.3-1.3v-5.4h2.5v-1.1h-2.5v-2.7l-1.3,0.3v2.4h-1.8v1.1h1.8
			L1512.7,2882z M1519.1,2873.1c0.5,0,0.9-0.4,0.9-0.9c0,0,0,0,0,0c0-0.5-0.4-0.9-0.9-0.9c-0.5,0-0.9,0.4-0.9,0.9
			C1518.1,2872.6,1518.5,2873,1519.1,2873.1C1519.1,2873.1,1519.1,2873.1,1519.1,2873.1L1519.1,2873.1z M1519.7,2875.2h-1.3v8.8h1.3
			V2875.2z M1522,2879.6c-0.2,2.4,1.6,4.4,4,4.6c2.4,0.2,4.4-1.6,4.6-4c0-0.2,0-0.4,0-0.6c0.1-2.4-1.7-4.4-4-4.5s-4.4,1.7-4.5,4
			C1522,2879.3,1522,2879.4,1522,2879.6z M1526.3,2883c-1.7-0.1-3-1.5-3-3.2c0-0.1,0-0.1,0-0.2c-0.2-1.6,0.9-3.2,2.6-3.4
			c1.6-0.2,3.2,0.9,3.4,2.6c0,0.3,0,0.5,0,0.8c0.2,1.7-1.1,3.2-2.8,3.4C1526.4,2883,1526.4,2883,1526.3,2883L1526.3,2883z
			 M1532.9,2884h1.3v-6.5c0.5-0.8,1.3-1.4,2.3-1.4c1.3-0.1,2.3,0.9,2.4,2.2c0,0.1,0,0.2,0,0.3v5.3h1.3v-5.7c0.1-1.7-1.2-3.1-2.9-3.2
			c-0.1,0-0.2,0-0.3,0c-1.1,0-2.2,0.6-2.8,1.6v-1.4h-1.3L1532.9,2884z M1549.7,2884.2c1.1,0,2.1-0.4,2.8-1.2v1h1.3v-5.8
			c0-2-1.2-3.1-3.4-3.1c-1.2,0-2.3,0.3-3.3,0.8l0.5,1c0.8-0.5,1.7-0.7,2.7-0.8c1.1-0.2,2.1,0.6,2.3,1.7c0,0.2,0,0.4,0,0.5v1.2
			c-0.8-0.5-1.7-0.7-2.7-0.7c-2,0-3.3,1-3.3,2.6C1546.6,2883.1,1547.9,2884.2,1549.7,2884.2L1549.7,2884.2z M1547.8,2881.4
			c0-1,0.9-1.6,2.2-1.6c0.9,0,1.7,0.2,2.5,0.6v1.7c-0.7,0.7-1.6,1-2.5,1C1548.7,2883.2,1547.8,2882.5,1547.8,2881.4L1547.8,2881.4z
			 M1556.5,2884h1.3v-6.5c0.5-0.8,1.3-1.4,2.3-1.4c1.3-0.1,2.3,0.9,2.4,2.2c0,0.1,0,0.2,0,0.3v5.3h1.3v-5.7c0.1-1.7-1.2-3.1-2.9-3.2
			c-0.1,0-0.2,0-0.3,0c-1.1,0-2.2,0.6-2.8,1.6v-1.4h-1.3V2884z M1572.9,2884h1.3v-13.1l-1.3,0.3v5.2c-0.7-0.8-1.7-1.2-2.7-1.2
			c-2.4,0.1-4.2,2.1-4.1,4.4c0,0,0,0.1,0,0.1c-0.1,2.3,1.6,4.3,4,4.5c0,0,0.1,0,0.1,0c1.1,0,2.1-0.4,2.8-1.3V2884z M1567.3,2879.6
			c-0.1-1.7,1.2-3.2,2.9-3.3c1-0.1,2,0.4,2.7,1.2v4.4c-0.6,0.8-1.5,1.2-2.5,1.2c-1.7,0-3.1-1.5-3.1-3.2
			C1567.3,2879.7,1567.3,2879.7,1567.3,2879.6L1567.3,2879.6z M1585.1,2883c-1.9-0.2-3.2-1.8-3.1-3.6c0.1-1.6,1.4-2.9,3.1-3.1
			c0.9,0,1.8,0.4,2.5,1.1l0.8-0.9c-0.9-0.9-2.1-1.4-3.4-1.4c-2.5,0.1-4.4,2.2-4.3,4.8c0.1,2.3,2,4.2,4.3,4.3c1.3,0,2.5-0.5,3.3-1.4
			l-0.8-0.8C1586.9,2882.6,1586.1,2883,1585.1,2883L1585.1,2883z M1589.6,2879.6c-0.2,2.4,1.6,4.4,4,4.6c2.4,0.2,4.4-1.6,4.6-4
			c0-0.2,0-0.4,0-0.6c0.1-2.4-1.7-4.4-4-4.5s-4.4,1.7-4.5,4C1589.6,2879.3,1589.6,2879.4,1589.6,2879.6z M1593.9,2883
			c-1.7-0.1-3-1.5-3-3.2c0-0.1,0-0.1,0-0.2c-0.2-1.6,0.9-3.2,2.6-3.4c1.6-0.2,3.2,0.9,3.4,2.6c0,0.3,0,0.5,0,0.8
			c0.1,1.7-1.1,3.2-2.8,3.4C1594,2883,1593.9,2883,1593.9,2883L1593.9,2883z M1600.5,2884h1.3v-6.5c0.5-0.8,1.3-1.4,2.3-1.4
			c1.3-0.1,2.3,0.9,2.4,2.2c0,0.1,0,0.2,0,0.3v5.3h1.3v-5.7c0.1-1.7-1.2-3.1-2.9-3.2c-0.1,0-0.2,0-0.3,0c-1.1,0-2.2,0.6-2.8,1.6
			v-1.4h-1.3L1600.5,2884z M1611.2,2882c0,1.4,0.8,2.1,2.3,2.1c0.5,0,1-0.1,1.5-0.2v-1.2c-0.4,0.2-0.8,0.2-1.2,0.2
			c-0.9,0-1.3-0.4-1.3-1.3v-5.4h2.5v-1.1h-2.5v-2.7l-1.3,0.3v2.4h-1.8v1.1h1.8L1611.2,2882z M1619.6,2884.2c1.1,0,2.1-0.4,2.8-1.2v1
			h1.3v-5.8c0-2-1.2-3.1-3.4-3.1c-1.2,0-2.3,0.3-3.3,0.8l0.5,1c0.8-0.5,1.7-0.7,2.7-0.8c1.1-0.2,2.1,0.6,2.3,1.7c0,0.2,0,0.4,0,0.5
			v1.2c-0.8-0.5-1.7-0.7-2.7-0.7c-2,0-3.3,1-3.3,2.6C1616.5,2883.1,1617.8,2884.2,1619.6,2884.2L1619.6,2884.2z M1617.7,2881.4
			c0-1,0.9-1.6,2.2-1.6c0.9,0,1.7,0.2,2.5,0.6v1.7c-0.7,0.7-1.6,1-2.5,1C1618.6,2883.2,1617.7,2882.5,1617.7,2881.4L1617.7,2881.4z
			 M1627.1,2873.1c0.5,0,0.9-0.4,0.9-0.9c0,0,0,0,0,0c0-0.5-0.4-0.9-0.9-0.9c-0.5,0-0.9,0.4-0.9,0.9
			C1626.1,2872.6,1626.5,2873,1627.1,2873.1C1627,2873.1,1627.1,2873.1,1627.1,2873.1L1627.1,2873.1z M1627.7,2875.2h-1.3v8.8h1.3
			L1627.7,2875.2z M1630.4,2884h1.3v-6.5c0.5-0.8,1.3-1.4,2.3-1.4c1.3-0.1,2.3,0.9,2.4,2.2c0,0.1,0,0.2,0,0.3v5.3h1.3v-5.7
			c0.1-1.7-1.2-3.1-2.9-3.2c-0.1,0-0.2,0-0.3,0c-1.1,0-2.2,0.6-2.8,1.6v-1.4h-1.3V2884z M1647.6,2883l-0.8-0.9
			c-0.7,0.6-1.5,0.9-2.4,0.9c-1.7,0-3.1-1.4-3.1-3.1h6.9v-0.4c0.2-2.3-1.6-4.3-3.9-4.4c-0.1,0-0.1,0-0.2,0c-2.4,0.1-4.2,2-4.1,4.4
			c0,0,0,0.1,0,0.1c-0.1,2.4,1.8,4.5,4.2,4.6c0,0,0.1,0,0.1,0C1645.5,2884.2,1646.7,2883.8,1647.6,2883L1647.6,2883z M1644.1,2876.2
			c1.5,0.1,2.7,1.3,2.8,2.8h-5.6C1641.4,2877.5,1642.6,2876.3,1644.1,2876.2L1644.1,2876.2z M1650.4,2884h1.3v-6
			c0.3-1,1.3-1.8,2.4-1.8c0.3,0,0.6,0.1,0.9,0.2v-1.2c-0.3-0.1-0.5-0.1-0.8-0.1c-1.2,0-2.1,0.8-2.4,1.9v-1.8h-1.3L1650.4,2884z
			 M1655.8,2882.9c1,0.9,2.3,1.4,3.6,1.3c1.9,0,3.4-1.2,3.4-2.7c0-1.3-0.8-2-2.6-2.4l-1.5-0.3c-1.1-0.2-1.5-0.5-1.5-1.3
			c0-0.9,0.8-1.4,1.9-1.4c1,0,2,0.3,2.8,0.9l0.6-0.9c-1-0.7-2.1-1.1-3.3-1.1c-1.9,0-3.2,1.1-3.2,2.6c0,1.3,0.8,2,2.5,2.3l1.4,0.3
			c1.1,0.2,1.6,0.6,1.6,1.3c0,0.9-0.9,1.6-2.2,1.6c-1,0-2-0.4-2.8-1.1L1655.8,2882.9z M1665.2,2882.2c-0.5,0-1,0.4-1,0.9
			s0.4,1,0.9,1s1-0.4,1-0.9c0,0,0,0,0-0.1C1666.1,2882.6,1665.7,2882.2,1665.2,2882.2L1665.2,2882.2z"/>
	</g>
	<rect x="956" y="2180" class="st4" width="340" height="200"/>
</g>
</svg>
