<?xml version="1.0" encoding="utf-8"?>
<!-- Generator: Adobe Illustrator 25.0.1, SVG Export Plug-In . SVG Version: 6.00 Build 0)  -->
<svg version="1.1" id="Layer_1" xmlns="http://www.w3.org/2000/svg" xmlns:xlink="http://www.w3.org/1999/xlink" x="0px" y="0px"
	 viewBox="0 0 340 200" style="enable-background:new 0 0 340 200;" xml:space="preserve">
<style type="text/css">
	.st0{fill:#D2D2D2;}
	.st1{fill:none;}
	.st2{fill:#151515;}
	.st3{fill:#FFFFFF;}
	.st4{fill:#EE0000;}
	.st5{fill:#F5F5F5;}
	.st6{enable-background:new    ;}
	.st7{fill:#6A6E73;}
	.st8{clip-path:url(#SVGID_2_);fill:none;stroke:#000000;stroke-width:0.3;}
	.st9{fill:#EEEEEE;stroke:#EEEEEE;stroke-width:0.5;}
</style>
<path class="st0" d="M75.9,160.6c0.7-0.3,1.5-0.7,2.2-1h-9.5c-0.7,0.3-1.4,0.7-2.1,1H75.9z"/>
<path class="st0" d="M77.1,159.6c-0.7,0.3-1.5,0.7-2.2,1h265.8v-1H77.1z"/>
<g id="Caret" transform="translate(-334 -36)">
	<rect x="634.7" y="154.6" class="st1" width="24" height="24"/>
	<path class="st2" d="M644.8,158.9c-0.5-0.4-1.1-0.4-1.6,0l-1.2,1.2c-0.4,0.5-0.4,1.3,0,1.8l4.8,4.8l-4.8,4.8
		c-0.4,0.5-0.4,1.3,0,1.8l1.2,1c0.5,0.4,1.1,0.4,1.6,0l6.8-6.8c0.4-0.5,0.4-1.3,0-1.8L644.8,158.9z"/>
</g>
<path class="st2" d="M145.9,127.3c-1.1,0-2.3,0.4-3.1,1.1v-1h-2v4.8c0.6-0.3,1.2-0.5,1.8-0.8v-1.2c0.8-0.8,1.8-1.2,2.9-1.2
	c0.6,0,1.1,0.2,1.6,0.4c0.7-0.3,1.4-0.6,2.1-0.9C148.3,127.8,147.2,127.3,145.9,127.3L145.9,127.3z"/>
<path class="st2" d="M136.4,134.7c-0.5,0.9-1.5,1.4-2.5,1.3c-0.5,0-0.9-0.1-1.3-0.3c-0.7,0.3-1.5,0.6-2.2,0.9
	c0.6,0.7,1.5,1.1,2.5,1.1c0.1,0,0.2,0,0.4,0c1.1,0,2.3-0.4,3.1-1.2v1h2v-4.4c-0.7,0.3-1.3,0.6-2,0.9V134.7z"/>
<path class="st2" d="M124.8,131.8l-1.8-0.3c-1.2-0.2-1.7-0.5-1.7-1.3s0.8-1.4,2-1.4s2.3,0.4,3.2,1.1l1-1.3c-1.2-0.9-2.6-1.3-4.1-1.3
	c0,0-3.9,2.4-4,3.1c-0.1,1.6,1,2.5,3,2.8l1.8,0.3c1.1,0.2,1.6,0.6,1.6,1.3c0,0.9-1,1.5-2.4,1.5c-1.2,0-2.4-0.5-3.3-1.3l-1,1.3
	c1.3,1,2.8,1.6,4.5,1.5c2.4,0,4.3-1.4,4.3-3.2C127.9,133,126.8,132.1,124.8,131.8z"/>
<path class="st2" d="M110.4,135.3v2.3h2v-3.6C111.7,134.5,111,134.9,110.4,135.3z"/>
<path class="st2" d="M179,128.6v-1.3h-2v10.3h2v-6.8c0.4-1.1,1.5-1.9,2.6-1.9c0.4,0,0.8,0.1,1.2,0.2v-1.8c-0.3-0.1-0.7-0.2-1-0.2
	C180.7,127.1,179.6,127.6,179,128.6z"/>
<path class="st2" d="M187.7,124.3l-2,0.5v2.6h-2v1.7h2.2v6h-0.1c0,1.8,1.1,2.7,3,2.7c0.6,0,1.3-0.1,1.9-0.3v-1.7
	c-0.5,0.2-1,0.3-1.5,0.2c-1.1,0-1.5-0.4-1.5-1.4v-5.5h3v-1.7h-3V124.3z"/>
<path class="st2" d="M136.4,134.1c0.7-0.3,1.3-0.6,2-0.9v-5.8h-2V134.1z"/>
<path class="st2" d="M131.4,133.8c0-0.1,0-0.2,0-0.4v-6h-0.1h-2v6.4c-0.1,1.1,0.4,2.1,1.1,2.9c0.7-0.3,1.5-0.6,2.2-0.9
	C131.9,135.4,131.4,134.6,131.4,133.8z"/>
<path class="st2" d="M169.9,127.2L169.9,127.2c-3,0-5.3,2.3-5.4,5.3c0,2.9,2.3,5.3,5.2,5.3h0.1c2.9,0,5.3-2.3,5.3-5.2v-0.1
	C175.1,129.6,172.8,127.3,169.9,127.2z M169.8,136c-1.9,0-3.4-1.6-3.3-3.5c0,0,0,0,0-0.1c-0.1-1.9,1.4-3.5,3.3-3.5c0,0,0,0,0.1,0
	c1.9,0,3.4,1.6,3.3,3.5C173.2,134.4,171.7,136,169.8,136z"/>
<path class="st2" d="M158.1,127.3L158.1,127.3c-1.2,0-2.4,0.4-3.2,1.1v-1h-2v14.3h1.9v-5c0.9,0.7,2,1,3.1,1c2.8,0,5.2-2.3,5.2-5.1
	v-0.1C163.2,129.7,160.9,127.3,158.1,127.3z M161,132.5c0.1,1.9-1.4,3.4-3.3,3.5c-0.1,0-0.1,0-0.2,0c-1.1,0-2.1-0.4-2.8-1.2v-4.6
	c0.8-0.8,1.9-1.2,2.9-1.2c1.9,0,3.4,1.5,3.4,3.4V132.5z"/>
<path class="st2" d="M149.1,128.5c-0.7,0.3-1.4,0.6-2.1,0.9c1.1,0.6,1.8,1.7,1.8,3v0.1c0.1,1.9-1.4,3.4-3.3,3.5c-0.1,0-0.1,0-0.2,0
	c-1.1,0-2.1-0.4-2.8-1.2v-3.4c-0.6,0.3-1.2,0.5-1.8,0.8v9.5h1.9v-5c0.9,0.7,2,1,3.1,1c2.8,0,5.2-2.3,5.2-5.1v-0.1
	C151,130.9,150.3,129.5,149.1,128.5z"/>
<path class="st0" d="M208.7,100.6c-0.7,0.3-1.5,0.7-2.2,1h134.2v-1H208.7z"/>
<path class="st0" d="M167.4,101.6h41.1c0.7-0.3,1.5-0.7,2.2-1h-41.6C168.6,100.9,168,101.3,167.4,101.6z"/>
<g id="Caret-2" transform="translate(-334 -95)">
	<path class="st1" d="M634.7,156.2c1.2-0.5,2.4-1,3.7-1.6h-3.7V156.2z"/>
	<path class="st1" d="M634.7,156.2v22.4h24v-24h-20.3C637.1,155.1,635.9,155.7,634.7,156.2z"/>
	<path class="st2" d="M644.8,158.9c-0.5-0.4-1.1-0.4-1.6,0l-1.2,1.2c-0.4,0.5-0.4,1.3,0,1.8l4.8,4.8l-4.8,4.8
		c-0.4,0.5-0.4,1.3,0,1.8l1.2,1c0.5,0.4,1.1,0.4,1.6,0l6.8-6.8c0.4-0.5,0.4-1.3,0-1.8L644.8,158.9z"/>
</g>
<circle class="st2" cx="143.3" cy="65.6" r="1.2"/>
<path class="st2" d="M205.8,78.9c0.3,0.1,0.7,0.1,1,0.1h0.1c1.6,0.1,2.9-0.4,4.1-1.3l-1.1-1.1C208.6,77.3,207.2,78.1,205.8,78.9z"/>
<path class="st2" d="M220.2,70.9l0.6-0.7c-0.3,0.2-0.6,0.3-0.9,0.5C219.9,70.8,220,70.8,220.2,70.9z"/>
<path class="st2" d="M215,71.2c0-0.8,0.8-1.4,2-1.4c1.1,0,2,0.3,2.9,0.9c0.3-0.2,0.6-0.3,0.9-0.5l0.4-0.6c-1.2-0.9-2.6-1.3-4.1-1.3
	c-2.4,0-4,1.2-4,3.1c0,1.1,0.5,1.8,1.4,2.3c0.7-0.4,1.4-0.8,2.2-1.2C215.4,72.3,215,72,215,71.2z"/>
<path class="st2" d="M218.5,72.8l-1.8-0.3c0,0,0,0-0.1,0c-0.7,0.4-1.4,0.8-2.2,1.2c0.4,0.2,1,0.4,1.6,0.5l1.8,0.3
	c1.1,0.2,1.6,0.6,1.6,1.3c0,0.9-1,1.5-2.4,1.5c-1.2,0-2.4-0.5-3.3-1.3l-1,1.3c1.3,1,2.8,1.6,4.5,1.5c2.4,0,4.3-1.4,4.3-3.2
	C221.6,74,220.5,73.1,218.5,72.8z"/>
<path class="st2" d="M67.6,66.8c0.7,0,1.2-0.6,1.2-1.2c0-0.7-0.6-1.2-1.2-1.2c-0.7,0-1.2,0.6-1.2,1.2C66.4,66.2,66.9,66.8,67.6,66.8
	z"/>
<path class="st0" d="M267.6,42.6h52.5c0.2-0.3,0.4-0.7,0.7-1l-50.9-0.3C269.2,41.6,268.1,42.3,267.6,42.6z"/>
<path class="st0" d="M319.5,41.6c-0.2,0.3-0.4,0.7-0.7,1H340v-1H319.5z"/>
<path class="st0" d="M302,21.7h-1v1.2c0.3-0.2,0.7-0.4,1-0.6V21.7z"/>
<rect x="139" y="21.7" class="st0" width="1" height="53"/>
<path class="st0" d="M0,74.7v1h210.9c0.6-0.3,1.2-0.7,1.8-1H0z"/>
<polygon class="st3" points="302,21.7 141,21.7 141,75.7 211.4,75.7 302,22.3 "/>
<rect x="173.4" y="42.5" class="st2" width="1.2" height="11.2"/>
<path class="st2" d="M178.4,48c0.5-0.8,1.2-1.2,2-1.2c1.3,0,2.1,0.9,2.1,2.2v4.7h1.2v-5.1c0-1.7-1.2-2.9-2.8-2.9
	c-1,0-1.9,0.5-2.5,1.4v-1.3h-1.2h0v7.8h1.2V48z"/>
<path class="st2" d="M186.8,53.7h1.2v-6.8h2.2v-1H188v-1.7c0-0.9,0.4-1.4,1.3-1.4c0.4,0,0.6,0,1,0.1v-1.1c-0.3-0.1-0.6-0.1-1.1-0.1
	c-1.5,0-2.3,0.9-2.3,2.4v1.7h-1.7v1h1.7V53.7z"/>
<path class="st2" d="M192.9,48.4c0.4-1,1.1-1.6,2.1-1.6c0.3,0,0.6,0.1,0.8,0.1v-1.1c-0.2-0.1-0.5-0.1-0.7-0.1c-1,0-1.8,0.6-2.2,1.7
	v-1.6h-1.2v7.8h1.2V48.4z"/>
<path class="st2" d="M199.4,53.9c1,0,1.8-0.4,2.5-1.1v0.9h1.2v-5.2c0-1.8-1.1-2.8-3-2.8c-0.9,0-1.9,0.2-2.9,0.8l0.4,0.9
	c0.9-0.5,1.7-0.7,2.4-0.7c1.3,0,2,0.7,2,1.9v1.1c-0.7-0.4-1.5-0.6-2.4-0.6c-1.8,0-2.9,0.9-2.9,2.3C196.6,52.9,197.8,53.9,199.4,53.9
	z M199.7,50c0.9,0,1.6,0.2,2.2,0.6v1.5c-0.6,0.6-1.4,0.9-2.2,0.9c-1.2,0-2-0.6-2-1.5C197.7,50.6,198.5,50,199.7,50z"/>
<path class="st2" d="M207.8,52.9c-0.8,0-1.6-0.3-2.5-1l-0.6,0.8c0.8,0.8,1.9,1.2,3.2,1.2c1.7,0,3-1.1,3-2.4c0-1.2-0.7-1.8-2.3-2.1
	l-1.3-0.2c-1-0.2-1.3-0.5-1.3-1.1c0-0.8,0.7-1.2,1.7-1.2c0.8,0,1.6,0.2,2.5,0.8l0.6-0.8c-1-0.7-1.9-1-3-1c-1.7,0-2.8,1-2.8,2.3
	c0,1.1,0.7,1.8,2.2,2l1.3,0.2c1,0.2,1.4,0.5,1.4,1.2C209.8,52.3,209,52.9,207.8,52.9z"/>
<path class="st2" d="M213.4,52c0,1.2,0.7,1.9,2,1.9c0.5,0,0.9-0.1,1.4-0.2v-1c-0.4,0.2-0.7,0.2-1.1,0.2c-0.8,0-1.1-0.3-1.1-1.2v-4.8
	h2.2v-1h-2.2v-2.4l-1.2,0.3v2.1h-1.6v1h1.6V52z"/>
<path class="st2" d="M219.7,48.4c0.4-1,1.1-1.6,2.1-1.6c0.3,0,0.6,0.1,0.8,0.1v-1.1c-0.2-0.1-0.5-0.1-0.7-0.1c-1,0-1.8,0.6-2.2,1.7
	v-1.6h-1.2v7.8h1.2V48.4z"/>
<path class="st2" d="M226.9,53.8c1.1,0,1.9-0.5,2.5-1.4v1.3h1.2v-7.8h-1.2v5.8c-0.5,0.8-1.2,1.2-2,1.2c-1.3,0-2.1-0.9-2.1-2.3v-4.7
	H224v5C224,52.7,225.2,53.8,226.9,53.8z"/>
<path class="st2" d="M236.4,53.9c1.1,0,2.2-0.5,3-1.3l-0.7-0.7c-0.5,0.6-1.3,0.9-2.2,0.9c-1.5,0-2.8-1.3-2.8-3c0-1.7,1.2-3,2.7-3
	c0.8,0,1.7,0.4,2.2,1l0.8-0.8c-0.8-0.8-1.9-1.2-3-1.2c-2.2,0-3.9,1.8-3.9,4C232.5,52.1,234.2,53.9,236.4,53.9z"/>
<path class="st2" d="M242.1,52c0,1.2,0.7,1.9,2,1.9c0.5,0,0.9-0.1,1.4-0.2v-1c-0.4,0.2-0.7,0.2-1.1,0.2c-0.8,0-1.1-0.3-1.1-1.2v-4.8
	h2.2v-1h-2.2v-2.4l-1.2,0.3v2.1h-1.6v1h1.6V52z"/>
<path class="st2" d="M253.7,45.9h-1.2v5.2c0,0-0.1,0.4-1.1,1c-1.2,0.7,1.2-0.8-1.2,0.7c-0.5,0.3-1.9-0.4-1.8-2.2v-4.7h-1.2v5
	c0,1.6,0.4,2.1,1.7,2.7c1.4-0.8,3.4-2.1,4.8-2.8"/>
<path class="st2" d="M257.2,48.4c0.4-1,1.1-1.6,2.1-1.6c0.3,0,0.6,0.1,0.8,0.1v-1.1c-0.2-0.1-0.5-0.1-0.7-0.1c-1,0-1.8,0.6-2.2,1.7
	v-1.6h-1.2v3.5c0.4-0.2,0.8-0.5,1.2-0.7V48.4z"/>
<path class="st4" d="M301,21.7H140v3h158c0.5-0.3,2.5-1.5,3-1.8V21.7z"/>
<path class="st4" d="M301,23.9"/>
<path class="st4" d="M299.6,24.7"/>
<g transform="translate(456 5355)">
	<rect x="-424" y="-5333.3" class="st5" width="107" height="53"/>
	<g class="st6">
		<path class="st7" d="M-385.4-5301.1c1.6,0,3.1-0.7,4.2-1.8l-0.8-0.8c-0.8,1-2.1,1.5-3.4,1.5c-2.6,0-4.5-2-4.5-4.7s1.9-4.7,4.5-4.7
			c1.3,0,2.6,0.6,3.4,1.6l0.8-0.9c-1.1-1.2-2.6-1.8-4.2-1.8c-3.2,0-5.7,2.5-5.7,5.8C-391.1-5303.7-388.6-5301.1-385.4-5301.1z"/>
		<polygon class="st7" points="-378,-5313 -379.2,-5312.7 -379.2,-5301.3 -378,-5301.3 		"/>
		<path class="st7" d="M-372.2-5301.1c2.2,0,3.8-1.8,3.8-4.1c0-2.3-1.6-4-3.8-4c-2.2,0-3.8,1.7-3.8,4
			C-376-5302.9-374.3-5301.1-372.2-5301.1z M-372.2-5308.2c1.5,0,2.7,1.3,2.7,3s-1.1,3-2.7,3c-1.5,0-2.6-1.3-2.6-3
			C-374.8-5306.9-373.7-5308.2-372.2-5308.2z"/>
		<path class="st7" d="M-363.5-5301.2c1.1,0,1.9-0.5,2.5-1.4v1.3h1.2v-7.8h-1.2v5.8c-0.5,0.8-1.2,1.2-2,1.2c-1.3,0-2.1-0.9-2.1-2.3
			v-4.7h-1.2v5C-366.4-5302.3-365.2-5301.2-363.5-5301.2z"/>
		<path class="st7" d="M-354.2-5301.2c1,0,1.9-0.4,2.5-1.1v1h1.2v-11.7l-1.2,0.2v4.6c-0.6-0.7-1.5-1.1-2.4-1.1c-2.1,0-3.7,1.8-3.7,4
			C-357.8-5302.9-356.3-5301.2-354.2-5301.2z M-354-5308.2c0.9,0,1.7,0.4,2.2,1.1v3.9c-0.5,0.7-1.3,1-2.2,1c-1.6,0-2.7-1.3-2.7-3
			C-356.7-5306.9-355.5-5308.2-354-5308.2z"/>
	</g>
</g>
<polyline class="st1" points="340,-103.3 340,96.7 0,96.7 "/>
<polyline class="st1" points="0,96.7 0,-103.3 340,-103.3 "/>
<g>
	<defs>
		<line id="SVGID_1_" x1="-3314.2" y1="-502.1" x2="-2563.2" y2="-403.9"/>
	</defs>
	<clipPath id="SVGID_2_">
		<use xlink:href="#SVGID_1_"  style="overflow:visible;"/>
	</clipPath>
	<line class="st8" x1="1504.1" y1="111.4" x2="753.1" y2="13.2"/>
	<line class="st8" x1="122.4" y1="-71.8" x2="292.5" y2="-47.8"/>
	<line class="st8" x1="-4049.9" y1="-617.1" x2="-3879.8" y2="-593.1"/>
	<line class="st8" x1="-4921.2" y1="-728.4" x2="-4170.2" y2="-630.2"/>
	<line class="st8" x1="3111.2" y1="337.7" x2="2360.2" y2="239.6"/>
	<line class="st8" x1="2239.9" y1="226.4" x2="2069.7" y2="202.5"/>
	<line class="st8" x1="-1932.4" y1="-318.9" x2="-2102.6" y2="-342.8"/>
</g>
<line class="st9" x1="0" y1="200" x2="340" y2="0"/>
</svg>
