<?xml version="1.0" encoding="utf-8"?>
<!-- Generator: Adobe Illustrator 25.0.1, SVG Export Plug-In . SVG Version: 6.00 Build 0)  -->
<svg version="1.1" id="Layer_1" xmlns="http://www.w3.org/2000/svg" xmlns:xlink="http://www.w3.org/1999/xlink" x="0px" y="0px"
	 viewBox="0 0 64.2 64.2" style="enable-background:new 0 0 64.2 64.2;" xml:space="preserve">
<style type="text/css">
	.st0{fill:#0477A4;}
</style>
<path class="st0" d="M25.5,4.9c-2,10.5-10.2,18.6-20.6,20.7c6.2,0.6,12.2,2.4,17.7,5.2c3.1-2.3,5.9-5.1,8.2-8.2
	C27.9,17.1,26.1,11.1,25.5,4.9z"/>
<path class="st0" d="M64.2,26c-14.4,0-26-11.6-26-26H26c0,21.1,17.1,38.1,38.2,38.2V26z"/>
<path class="st0" d="M0,38.2c14.4,0,26,11.6,26,26h12.2C38.1,43.1,21.1,26,0,26V38.2z"/>
<path class="st0" d="M38.6,59.3c2-10.4,10.2-18.6,20.6-20.6c-6.2-0.6-12.2-2.4-17.7-5.2c-3.1,2.3-5.9,5.1-8.2,8.2
	C36.3,47.1,38,53.1,38.6,59.3z"/>
</svg>
