<svg xmlns="http://www.w3.org/2000/svg" viewBox="0 0 141.12 141"><defs><style>.cls-1{isolation:isolate;}.cls-2{fill:#a2c935;}.cls-3{fill:#231f20;opacity:0.45;mix-blend-mode:multiply;}.cls-4{fill:#aee339;}</style></defs><title>PatternFly Elements Icon Green (shaded)</title><g class="cls-1"><g id="Layer_1" data-name="Layer 1"><path class="cls-2" d="M64.48,38.42a26,26,0,0,1-26,26V76.58A38.21,38.21,0,0,0,76.64,38.42Z"/><path class="cls-2" d="M76.64,102.58a26,26,0,0,1,26-26V64.42a38.21,38.21,0,0,0-38.16,38.16Z"/><path class="cls-3" d="M71.89,80a38,38,0,0,0-7.41,22.57H76.64a26.43,26.43,0,0,1,.47-4.9A49,49,0,0,0,71.89,80Z"/><path class="cls-3" d="M102.64,64.42a38,38,0,0,0-22.57,7.41,49,49,0,0,0,17.67,5.22,26.43,26.43,0,0,1,4.9-.47Z"/><path class="cls-3" d="M69.23,61a38,38,0,0,0,7.41-22.57H64.48a26.43,26.43,0,0,1-.47,4.9A49,49,0,0,0,69.23,61Z"/><path class="cls-3" d="M38.48,76.58a38,38,0,0,0,22.57-7.41A49,49,0,0,0,43.38,64a26.43,26.43,0,0,1-4.9.47Z"/><path class="cls-4" d="M38.48,76.58a26,26,0,0,1,26,26H76.64A38.21,38.21,0,0,0,38.48,64.42Z"/><path class="cls-4" d="M102.64,64.42a26,26,0,0,1-26-26H64.48a38.21,38.21,0,0,0,38.16,38.16Z"/></g></g></svg>