<svg id="Layer_1" data-name="Layer 1" xmlns="http://www.w3.org/2000/svg" viewBox="0 0 141.12 141"><defs><style>.cls-1{fill:#fff;}</style></defs><title>PatternFly Elements Icon White</title><path class="cls-1" d="M64,43.32A26.09,26.09,0,0,1,43.38,64a49,49,0,0,1,17.67,5.22A38.68,38.68,0,0,0,69.23,61,49,49,0,0,1,64,43.32Z"/><path class="cls-1" d="M102.64,64.42a26,26,0,0,1-26-26H64.48a38.21,38.21,0,0,0,38.16,38.16Z"/><path class="cls-1" d="M38.48,76.58a26,26,0,0,1,26,26H76.64A38.21,38.21,0,0,0,38.48,64.42Z"/><path class="cls-1" d="M77.11,97.68A26.09,26.09,0,0,1,97.74,77.05a49,49,0,0,1-17.67-5.22A38.68,38.68,0,0,0,71.89,80,49,49,0,0,1,77.11,97.68Z"/></svg>