<?xml version="1.0" encoding="utf-8"?>
<!-- Generator: Adobe Illustrator 25.0.1, SVG Export Plug-In . SVG Version: 6.00 Build 0)  -->
<svg version="1.1" id="Layer_1" xmlns="http://www.w3.org/2000/svg" xmlns:xlink="http://www.w3.org/1999/xlink" x="0px" y="0px"
	 viewBox="0 0 64.2 64.2" style="enable-background:new 0 0 64.2 64.2;" xml:space="preserve">
<style type="text/css">
	.st0{fill:#046A89;}
	.st1{opacity:0.45;fill:#231F20;enable-background:new    ;}
	.st2{fill:#0477A4;}
</style>
<g>
	<g id="Layer_1_1_">
		<path class="st0" d="M26,0c0,14.4-11.6,26-26,26v12.2c21.1,0,38.1-17.1,38.2-38.2H26z"/>
		<path class="st0" d="M38.2,64.2c0-14.4,11.6-26,26-26V26C43.1,26,26,43.1,26,64.2H38.2z"/>
		<path class="st1" d="M33.4,41.6C28.6,48.1,26,56,26,64.2h12.2c0-1.6,0.2-3.3,0.5-4.9C38,53.1,36.3,47.1,33.4,41.6z"/>
		<path class="st1" d="M64.2,26c-8.1,0-16,2.6-22.6,7.4c5.5,2.8,11.5,4.6,17.7,5.2c1.6-0.3,3.3-0.5,4.9-0.5V26z"/>
		<path class="st1" d="M30.8,22.6C35.6,16,38.2,8.1,38.2,0H26c0,1.6-0.2,3.3-0.5,4.9C26.1,11.1,27.9,17.1,30.8,22.6z"/>
		<path class="st1" d="M0,38.2c8.1,0,16-2.6,22.6-7.4c-5.5-2.8-11.5-4.6-17.7-5.2C3.3,25.9,1.6,26,0,26.1V38.2z"/>
		<path class="st2" d="M0,38.2c14.4,0,26,11.6,26,26h12.2C38.1,43.1,21.1,26,0,26V38.2z"/>
		<path class="st2" d="M64.2,26c-14.4,0-26-11.6-26-26H26c0,21.1,17.1,38.1,38.2,38.2V26z"/>
	</g>
</g>
</svg>
