<svg fill="white" xmlns="http://www.w3.org/2000/svg" width="141" height="141" viewBox="0 0 141 141">
  <title>PatternFly Elements Icon White</title>
  <path d="M64 43.32A26.09 26.09 0 0 1 43.38 64a49 49 0 0 1 17.67 5.22A38.68 38.68 0 0 0 69.23 61 49 49 0 0 1 64 43.32Z"/>
  <path d="M102.64 64.42a26 26 0 0 1-26-26H64.48a38.21 38.21 0 0 0 38.16 38.16ZM38.48 76.58a26 26 0 0 1 26 26h12.16a38.21 38.21 0 0 0-38.16-38.16Z"/>
  <path d="M77.11 97.68a26.09 26.09 0 0 1 20.63-20.63 49 49 0 0 1-17.67-5.22A38.68 38.68 0 0 0 71.89 80a49 49 0 0 1 5.22 17.68Z"/>
</svg>

