<svg xmlns="http://www.w3.org/2000/svg" viewBox="0 0 432 141"><defs><style>.cls-1{isolation:isolate;}.cls-2{fill:#fff;}.cls-3{fill:#e5e5e5;}.cls-4{fill:#231f20;opacity:0.45;mix-blend-mode:multiply;}</style></defs><title>rhelements-logo-final-final</title><g class="cls-1"><g id="Layer_1" data-name="Layer 1"><path class="cls-2" d="M115.07,50.9H134q7.17,0,10.41,3.59a14,14,0,0,1,1.16,16.26,11,11,0,0,1-5.85,4.7l7.92,16.26h-8.86L131.16,76.5h-8.22V91.71h-7.87ZM134.13,69a5.08,5.08,0,0,0,4.08-1.52,6.4,6.4,0,0,0,0-7.64,5.06,5.06,0,0,0-4.11-1.51H122.94V69Z"/><path class="cls-2" d="M177.56,74.46H160.48V91.71h-7.87V50.9h7.87V67h17.08V50.9h7.87V91.71h-7.87Z"/><path class="cls-2" d="M193.3,50.9h23.26v3.91H197.38V68.68h12.94v3.85H197.38V87.81h20.46v3.9H193.3Z"/><path class="cls-2" d="M224.54,51.6l4.09-2V91.71h-4.09Z"/><path class="cls-2" d="M240.55,90.28A13.57,13.57,0,0,1,236,84.6a19.06,19.06,0,0,1-1.58-7.81,19.74,19.74,0,0,1,1.64-8.37,12.11,12.11,0,0,1,4.54-5.36,12.4,12.4,0,0,1,6.77-1.84,11.65,11.65,0,0,1,6,1.55,10.77,10.77,0,0,1,4.23,4.78,18.4,18.4,0,0,1,1.57,8.07c0,1,0,2-.11,2.86H238.77a13.67,13.67,0,0,0,2.8,7.4,7.39,7.39,0,0,0,6,2.74,11.05,11.05,0,0,0,6.71-2.33L256.49,89a15.65,15.65,0,0,1-4.26,2.45,13.2,13.2,0,0,1-4.83.93A11.36,11.36,0,0,1,240.55,90.28ZM255,74.81c0-3.62-.82-6.17-2.36-7.67a7.31,7.31,0,0,0-5.27-2.24,8.07,8.07,0,0,0-6.12,2.5c-1.6,1.67-2.47,4.14-2.63,7.41Z"/><path class="cls-2" d="M299.28,73.46q0-8.56-6.47-8.56a6,6,0,0,0-5.05,2.47,10,10,0,0,0-1.83,6.09V91.71h-4.08V73.46q0-8.56-6.47-8.56a6.1,6.1,0,0,0-5.1,2.24A9.14,9.14,0,0,0,268.5,73V91.71h-4.08V61.92h4.08v2.92a10.19,10.19,0,0,1,3.58-2.68,10.76,10.76,0,0,1,4.52-.94,9.4,9.4,0,0,1,4.61,1.23,8.86,8.86,0,0,1,3.44,3.32,10,10,0,0,1,3.52-3.26,9.84,9.84,0,0,1,5-1.29,10.38,10.38,0,0,1,5.19,1.32A9.41,9.41,0,0,1,302,66.27a11.42,11.42,0,0,1,1.34,5.62V91.71h-4.08Z"/><path class="cls-2" d="M314.7,90.28a13.57,13.57,0,0,1-4.52-5.68,19.05,19.05,0,0,1-1.57-7.81,19.75,19.75,0,0,1,1.63-8.37,12.13,12.13,0,0,1,4.55-5.36,12.34,12.34,0,0,1,6.76-1.84,11.65,11.65,0,0,1,6,1.55,10.77,10.77,0,0,1,4.23,4.78,18.4,18.4,0,0,1,1.57,8.07c0,1,0,2-.11,2.86H312.92a13.67,13.67,0,0,0,2.8,7.4,7.39,7.39,0,0,0,6,2.74,11.05,11.05,0,0,0,6.71-2.33L330.64,89a15.74,15.74,0,0,1-4.25,2.45,13.29,13.29,0,0,1-4.84.93A11.36,11.36,0,0,1,314.7,90.28Zm14.48-15.47c0-3.62-.82-6.17-2.36-7.67a7.31,7.31,0,0,0-5.27-2.24,8.07,8.07,0,0,0-6.12,2.5c-1.6,1.67-2.47,4.14-2.63,7.41Z"/><path class="cls-2" d="M356.93,73.52c0-3-.62-5.17-1.86-6.56A6.53,6.53,0,0,0,350,64.9q-7.35,0-7.35,8.51v18.3h-4.08V61.92h4.08v3.27a8.81,8.81,0,0,1,7.69-4q5.49,0,8.08,3.33T361,75.21v16.5h-4.08Z"/><path class="cls-2" d="M371.3,90.58a8,8,0,0,1-1.43-5v-20H364.8V61.92h5.07V51.66l4.09-2v12.3h7.57V65.6H374V83.84a7.67,7.67,0,0,0,.64,3.5,2.6,2.6,0,0,0,2.56,1.22,5.26,5.26,0,0,0,2.27-.46,17.54,17.54,0,0,0,2.22-1.28l-.47,4.25a11.33,11.33,0,0,1-5.42,1.34A5.32,5.32,0,0,1,371.3,90.58Z"/><path class="cls-2" d="M389.69,91A15.79,15.79,0,0,1,385,87.22l2.86-2.5a12.65,12.65,0,0,0,3.52,2.91,8.5,8.5,0,0,0,4.23,1.17,7.18,7.18,0,0,0,4.2-1.14,3.66,3.66,0,0,0,1.63-3.18,4.48,4.48,0,0,0-1.89-3.79,26,26,0,0,0-5.51-2.85,25.77,25.77,0,0,1-6.65-3.73,7.13,7.13,0,0,1,.41-10.79,10.93,10.93,0,0,1,6.94-2.1,12,12,0,0,1,9.67,4.55L401.76,68a9.89,9.89,0,0,0-7.11-3.2,7.19,7.19,0,0,0-4.11,1A3.27,3.27,0,0,0,389,68.74a3.53,3.53,0,0,0,.9,2.42,7.34,7.34,0,0,0,2.21,1.69c.88.45,2.11,1,3.71,1.61a38.91,38.91,0,0,1,4.89,2.24A10.13,10.13,0,0,1,404,79.62a7.65,7.65,0,0,1,1.34,4.63,7.31,7.31,0,0,1-2.71,6,11.27,11.27,0,0,1-7.32,2.21A11.69,11.69,0,0,1,389.69,91Z"/><path class="cls-3" d="M52.68,38.42a26,26,0,0,1-26,26V76.58A38.21,38.21,0,0,0,64.85,38.42Z"/><path class="cls-3" d="M64.85,102.58a26,26,0,0,1,26-26V64.42a38.21,38.21,0,0,0-38.17,38.16Z"/><path class="cls-4" d="M60.1,80a37.94,37.94,0,0,0-7.42,22.57H64.85a25.6,25.6,0,0,1,.47-4.9A49.15,49.15,0,0,0,60.1,80Z"/><path class="cls-4" d="M90.85,64.42a38,38,0,0,0-22.57,7.41,48.9,48.9,0,0,0,17.66,5.22,26.45,26.45,0,0,1,4.91-.47Z"/><path class="cls-4" d="M57.43,61a37.94,37.94,0,0,0,7.42-22.57H52.68a25.6,25.6,0,0,1-.47,4.9A49.15,49.15,0,0,0,57.43,61Z"/><path class="cls-4" d="M26.68,76.58a38,38,0,0,0,22.57-7.41A48.9,48.9,0,0,0,31.59,64a26.45,26.45,0,0,1-4.91.47Z"/><path class="cls-2" d="M26.68,76.58a26,26,0,0,1,26,26H64.85A38.21,38.21,0,0,0,26.68,64.42Z"/><path class="cls-2" d="M90.85,64.42a26,26,0,0,1-26-26H52.68A38.21,38.21,0,0,0,90.85,76.58Z"/></g></g></svg>