<svg id="Layer_1" data-name="Layer 1" xmlns="http://www.w3.org/2000/svg" viewBox="0 0 432 141"><defs><style>.cls-1{fill:#1a1a1a;}</style></defs><title>rhelements-logo-final-final</title><path class="cls-1" d="M115.07,50.67H134q7.17,0,10.41,3.58a14,14,0,0,1,1.16,16.27,11,11,0,0,1-5.85,4.69l7.92,16.27h-8.86l-7.63-15.22h-8.22V91.48h-7.87ZM134.13,68.8a5.08,5.08,0,0,0,4.08-1.52,6.39,6.39,0,0,0,0-7.63,5.06,5.06,0,0,0-4.11-1.52H122.94V68.8Z"/><path class="cls-1" d="M177.56,74.22H160.48V91.48h-7.87V50.67h7.87V66.76h17.08V50.67h7.87V91.48h-7.87Z"/><path class="cls-1" d="M193.3,50.67h23.26v3.9H197.38V68.45h12.94V72.3H197.38V87.57h20.46v3.91H193.3Z"/><path class="cls-1" d="M224.54,51.37l4.09-2V91.48h-4.09Z"/><path class="cls-1" d="M240.55,90.05A13.6,13.6,0,0,1,236,84.36a19.06,19.06,0,0,1-1.58-7.81,19.73,19.73,0,0,1,1.64-8.36,12.19,12.19,0,0,1,4.54-5.37A12.48,12.48,0,0,1,247.4,61a11.65,11.65,0,0,1,6,1.54,10.82,10.82,0,0,1,4.23,4.78,18.41,18.41,0,0,1,1.57,8.08c0,1,0,2-.11,2.85H238.77a13.74,13.74,0,0,0,2.8,7.41,7.42,7.42,0,0,0,6,2.74,11.06,11.06,0,0,0,6.71-2.34l2.21,2.74a15.39,15.39,0,0,1-4.26,2.45,13.21,13.21,0,0,1-4.83.94A11.36,11.36,0,0,1,240.55,90.05ZM255,74.57c0-3.61-.82-6.17-2.36-7.67a7.35,7.35,0,0,0-5.27-2.24,8.08,8.08,0,0,0-6.12,2.51c-1.6,1.67-2.47,4.14-2.63,7.4Z"/><path class="cls-1" d="M299.28,73.23q0-8.57-6.47-8.57a6,6,0,0,0-5.05,2.48,10,10,0,0,0-1.83,6.09V91.48h-4.08V73.23q0-8.57-6.47-8.57a6.12,6.12,0,0,0-5.1,2.24,9.14,9.14,0,0,0-1.78,5.86V91.48h-4.08V61.69h4.08V64.6a10.32,10.32,0,0,1,3.58-2.68A10.91,10.91,0,0,1,276.6,61a9.49,9.49,0,0,1,4.61,1.22,9,9,0,0,1,3.44,3.32,10.07,10.07,0,0,1,3.52-3.26,9.94,9.94,0,0,1,5-1.28,10.37,10.37,0,0,1,5.19,1.31A9.47,9.47,0,0,1,302,66a11.46,11.46,0,0,1,1.34,5.63V91.48h-4.08Z"/><path class="cls-1" d="M314.7,90.05a13.6,13.6,0,0,1-4.52-5.69,19.05,19.05,0,0,1-1.57-7.81,19.73,19.73,0,0,1,1.63-8.36,12.21,12.21,0,0,1,4.55-5.37A12.42,12.42,0,0,1,321.55,61a11.65,11.65,0,0,1,6,1.54,10.82,10.82,0,0,1,4.23,4.78,18.41,18.41,0,0,1,1.57,8.08c0,1,0,2-.11,2.85H312.92a13.74,13.74,0,0,0,2.8,7.41,7.42,7.42,0,0,0,6,2.74,11.06,11.06,0,0,0,6.71-2.34l2.21,2.74a15.48,15.48,0,0,1-4.25,2.45,13.3,13.3,0,0,1-4.84.94A11.36,11.36,0,0,1,314.7,90.05Zm14.48-15.48q0-5.41-2.36-7.67a7.35,7.35,0,0,0-5.27-2.24,8.08,8.08,0,0,0-6.12,2.51c-1.6,1.67-2.47,4.14-2.63,7.4Z"/><path class="cls-1" d="M356.93,73.29q0-4.49-1.86-6.56A6.5,6.5,0,0,0,350,64.66q-7.35,0-7.35,8.51V91.48h-4.08V61.69h4.08V65a8.83,8.83,0,0,1,7.7-4c3.65,0,6.34,1.1,8.07,3.32S361,70.08,361,75v16.5h-4.08Z"/><path class="cls-1" d="M371.3,90.34a7.93,7.93,0,0,1-1.43-5v-20H364.8V61.69h5.07V51.43l4.09-2v12.3h7.57v3.67H374V83.61a7.62,7.62,0,0,0,.64,3.49,2.6,2.6,0,0,0,2.56,1.23,5.26,5.26,0,0,0,2.27-.47,17.54,17.54,0,0,0,2.22-1.28l-.47,4.26a11.33,11.33,0,0,1-5.42,1.34A5.32,5.32,0,0,1,371.3,90.34Z"/><path class="cls-1" d="M389.69,90.75A16,16,0,0,1,385,87l2.86-2.51a12.51,12.51,0,0,0,3.52,2.92,8.59,8.59,0,0,0,4.23,1.16,7.18,7.18,0,0,0,4.2-1.14,3.63,3.63,0,0,0,1.63-3.17,4.46,4.46,0,0,0-1.89-3.79,25.92,25.92,0,0,0-5.51-2.86,25.48,25.48,0,0,1-6.65-3.73,7.12,7.12,0,0,1,.41-10.78,10.93,10.93,0,0,1,6.94-2.1,12,12,0,0,1,9.67,4.54l-2.68,2.28a9.86,9.86,0,0,0-7.11-3.21,7.19,7.19,0,0,0-4.11,1.05A3.28,3.28,0,0,0,389,68.51a3.54,3.54,0,0,0,.9,2.42,7.5,7.5,0,0,0,2.21,1.69c.88.44,2.11,1,3.71,1.6a42,42,0,0,1,4.89,2.24A10.24,10.24,0,0,1,404,79.38,7.67,7.67,0,0,1,405.32,84,7.31,7.31,0,0,1,402.61,90a11.22,11.22,0,0,1-7.32,2.22A11.81,11.81,0,0,1,389.69,90.75Z"/><path class="cls-1" d="M52.21,43.32A26.06,26.06,0,0,1,31.59,64a48.9,48.9,0,0,1,17.66,5.22A38.45,38.45,0,0,0,57.43,61,49.15,49.15,0,0,1,52.21,43.32Z"/><path class="cls-1" d="M90.85,64.42a26,26,0,0,1-26-26H52.68A38.21,38.21,0,0,0,90.85,76.58Z"/><path class="cls-1" d="M26.68,76.58a26,26,0,0,1,26,26H64.85A38.21,38.21,0,0,0,26.68,64.42Z"/><path class="cls-1" d="M65.32,97.68A26.06,26.06,0,0,1,85.94,77.05a48.9,48.9,0,0,1-17.66-5.22A38.68,38.68,0,0,0,60.1,80,49.15,49.15,0,0,1,65.32,97.68Z"/></svg>