<?xml version="1.0" encoding="utf-8"?>
<!-- Generator: Adobe Illustrator 21.1.0, SVG Export Plug-In . SVG Version: 6.00 Build 0)  -->
<!DOCTYPE svg PUBLIC "-//W3C//DTD SVG 1.1//EN" "http://www.w3.org/Graphics/SVG/1.1/DTD/svg11.dtd">
<svg version="1.1" id="Layer_1" xmlns="http://www.w3.org/2000/svg" xmlns:xlink="http://www.w3.org/1999/xlink" x="0px" y="0px"
	 viewBox="0 0 31.68 31.68" style="enable-background:new 0 0 31.68 31.68;" xml:space="preserve">
<g id="icon">
	<path d="M25.17,20.3v-8.67h-2.94V8.74h1.55l-1.81-3.13l-1.8,3.13h1.55v2.89h-5.66v-0.16V8.83h1.23V5.87h-2.97v2.97h1.23v2.64v0.16
		H9.9V8.81c0.7-0.12,1.23-0.73,1.23-1.46c0-0.82-0.66-1.48-1.48-1.48c-0.82,0-1.48,0.67-1.48,1.48c0,0.73,0.53,1.34,1.23,1.46v2.82
		H6.51v8.67h2.88v2.8H8.22v2.97h2.97V23.1H9.9v-2.8h5.66v0.22v2.75h0.01l-1.56,2.7h3.61l-1.56-2.7h0.01v-2.75V20.3h5.66v2.82
		c-0.7,0.12-1.23,0.73-1.23,1.46c0,0.82,0.66,1.48,1.48,1.48c0.82,0,1.48-0.67,1.48-1.48c0-0.73-0.53-1.34-1.23-1.46V20.3
		L25.17,20.3L25.17,20.3z M9.9,17.39v-1.17h11.83v1.17H9.9z M21.73,14.51v1.21H9.9v-1.21H21.73z M21.73,14h-5.66v-1.86h5.66
		L21.73,14L21.73,14z M15.56,14H9.9v-1.86h5.66V14z M9.9,17.89h5.66v1.9H9.9V17.89z M16.06,17.89h5.66v1.9h-5.66V17.89z M22.23,19.8
		v-2.41v-1.17h2.43v3.58H22.23z M24.66,15.71h-2.43v-3.58h2.43V15.71z M21.98,6.63l0.93,1.61h-1.86L21.98,6.63z M14.83,6.37h1.95
		v1.95h-1.95V6.37z M8.67,7.35c0-0.54,0.44-0.98,0.98-0.98s0.98,0.44,0.98,0.98s-0.44,0.98-0.98,0.98S8.67,7.89,8.67,7.35z
		 M9.39,12.14v2.37v1.21H7.02v-3.58H9.39z M7.02,16.22h2.37v3.58H7.02V16.22z M10.68,25.56H8.72V23.6h1.95V25.56z M14.88,25.47
		l0.93-1.61l0.93,1.61H14.88z M22.96,24.58c0,0.54-0.44,0.98-0.98,0.98S21,25.12,21,24.58c0-0.54,0.44-0.98,0.98-0.98
		S22.96,24.04,22.96,24.58z"/>
</g>
</svg>
