<?xml version="1.0" encoding="utf-8"?>
<!-- Generator: Adobe Illustrator 27.7.0, SVG Export Plug-In . SVG Version: 6.00 Build 0)  -->
<svg version="1.1" id="Layer_3" xmlns="http://www.w3.org/2000/svg" xmlns:xlink="http://www.w3.org/1999/xlink" x="0px" y="0px"
	 viewBox="0 0 161 162" style="enable-background:new 0 0 161 162;" xml:space="preserve">
<style type="text/css">
	.st0{fill:#FFFFFF;}
</style>
<path class="st0" d="M80.1,10.8l0-0.1L80.1,10.8L80.1,10.8L80,10.5l-0.1,0.1l-0.1-0.1l0,0.2l0,0l-0.1-0.1l0,0.1L5.5,83.4l29.4,41.7
	l22.7-5.2l22.3,31.4l22.3-31.4l22.7,5.2l18.2-25.8l11.2-15.9L80.1,10.8z M77.7,19.3l-10.2,95.1l-19.8-27L77.7,19.3z M46.7,86
	L34.2,69l43.3-53L46.7,86z M67.1,116.2l-8.9,2l-14.9-21l3.7-8.4L67.1,116.2z M79.7,14.7l0.2-0.5l0.2,0.5l10.5,102.2l0,0l-10.3,15.2
	l-11.1-15.2l0,0L79.7,14.7z M92.3,114.4L82.2,19.3l30,68L92.3,114.4z M112.8,88.8l3.7,8.4l-14.9,21l-8.9-2L112.8,88.8z M82.3,16
	l43.3,53l-12.5,17L82.3,16z M35.5,123.5L7.3,83.6l65.5-64.1L32.4,69l13.6,18.6l-4.4,9.9l15,21.1L35.5,123.5z M79.9,148.8l-20.8-29.2
	l8.9-2l0.2,0.2l-0.1,0.1l12.3,16.8l11.4-16.9l-0.1-0.1l0.1-0.2l8.9,2L79.9,148.8z M142,98.4l-17.7,25l-21.2-4.9l15-21.1l-4.4-9.9
	l13.6-18.6L87,19.5l65.5,64.1L142,98.4z"/>
</svg>
