<svg xmlns="http://www.w3.org/2000/svg" width="720" height="162" viewBox="0 0 720 162">
  <path fill="#fff" d="m80.09 10.8.01-.13-.06.08-.03-.02.02-.21-.12.11-.12-.11.02.21-.02.02-.06-.08.01.13L5.48 83.4l29.41 41.67 22.72-5.22 22.31 31.36 22.31-31.36 22.72 5.22 18.22-25.81 11.19-15.86-74.27-72.6zm-2.43 8.52-10.15 95.07-19.82-27.04 29.97-68.03zm-30.94 66.7L34.24 69.01l43.31-52.97-30.83 69.98zm20.37 30.19-8.87 2.04-14.91-20.96 3.72-8.43 20.06 27.35zM79.68 14.73l.23-.53.23.53 10.49 102.21-.03-.02-10.28 15.19-11.11-15.21-.01.01L79.68 14.73zm12.64 99.66L82.17 19.32l29.97 68.03-19.82 27.04zm20.49-25.54 3.72 8.43-14.91 20.96-8.87-2.04 20.06-27.35zM82.28 16.03 125.59 69l-12.48 17.02-30.83-69.99zM35.5 123.46 7.34 83.57l65.53-64.06-40.43 49.45 13.62 18.57-4.37 9.93 15.03 21.14-21.22 4.86zm44.42 25.3-20.8-29.25 8.89-2.04.15.21-.1.07 12.32 16.84 11.41-16.86-.1-.07.14-.19 8.89 2.04-20.8 29.25zM142 98.43l-17.67 25.03-21.21-4.87 15.03-21.14-4.37-9.93 13.62-18.57-40.44-49.44 65.53 64.06L142 98.43zm64.01-27.83V35.24h15.17c2.23 0 4.12.33 5.65.97 1.53.65 2.77 1.5 3.72 2.57.95 1.06 1.64 2.26 2.06 3.59s.63 2.68.63 4.04c0 .85-.1 1.72-.3 2.6-.2.88-.5 1.73-.91 2.56s-.94 1.6-1.58 2.33c-.64.72-1.41 1.36-2.31 1.91-.89.55-1.92.98-3.08 1.29s-2.45.47-3.88.47h-8.34V70.6h-6.83zm15.47-19.51c.87 0 1.61-.14 2.2-.42.59-.29 1.07-.64 1.44-1.09.37-.44.64-.95.8-1.5.17-.56.25-1.12.25-1.68 0-.51-.07-1.04-.21-1.6-.14-.54-.39-1.05-.74-1.51-.36-.46-.84-.83-1.45-1.13s-1.37-.45-2.29-.45h-8.63v9.37l8.63.01zm58.9 19.51-2.74-7.32H264l-2.71 7.32h-7.33l13.54-35.36h6.65L287.7 70.6h-7.32zm-8.44-22.74c-.18-.42-.38-.94-.58-1.53-.2-.59-.38-1.14-.53-1.65-.13.51-.31 1.06-.52 1.65s-.41 1.1-.59 1.53l-3.5 9.2h9.2l-3.48-9.2zm54.14-6.04V70.6h-6.8V41.82h-10.11v-6.58h27.03v6.58h-10.12zm52.92 0V70.6h-6.8V41.82h-10.11v-6.58h27.03v6.58H379zm38.29 28.78V35.24h24.14v6.49h-17.31v7.42h10.18v6.46h-10.18v8.54h18.37v6.46h-25.2v-.01zm53.89 0V35.24h16.43c2.24 0 4.1.3 5.61.92 1.5.62 2.71 1.43 3.64 2.46a8.92 8.92 0 0 1 1.97 3.53c.39 1.33.6 2.72.6 4.17 0 1-.15 2.01-.43 3.04-.29 1.03-.72 2-1.29 2.92-.58.92-1.29 1.75-2.15 2.5s-1.85 1.33-2.98 1.73l6.86 14.08h-7.67l-6.61-13.19H478v13.2h-6.82zm16.52-19.65c.87 0 1.6-.13 2.2-.38.58-.25 1.07-.59 1.43-1.02s.63-.92.78-1.48c.16-.56.23-1.14.23-1.75 0-.56-.07-1.12-.21-1.67-.14-.55-.38-1.04-.73-1.48-.34-.43-.82-.78-1.42-1.05-.6-.26-1.36-.39-2.28-.39H478v9.23h9.7v-.01zm63.01 19.65-14.03-20.62c-.23-.34-.48-.77-.75-1.27s-.5-.96-.71-1.39c.05.38.09.82.11 1.33.02.51.04.95.04 1.33V70.6h-6.78V35.24H535l13.69 20.36c.21.33.46.75.73 1.24.28.49.53.97.74 1.43-.05-.47-.08-.96-.1-1.44-.03-.49-.04-.9-.04-1.23V35.24h6.76V70.6h-6.07zm36.5 0V35.24h23.7v6.49h-16.87v7.42h10.7v6.46h-10.7v15h-6.83v-.01zm51.38 0V35.24h6.83v28.8h17.07v6.56h-23.9zm56.58 0V56.81l-13.1-21.58h7.74l8.73 14.45 8.73-14.45h7.75l-13.09 21.58V70.6h-6.76zm-490.9 66.21v-35h19.95v3.27h-16.45v11.98h10.93v3.27h-10.93v13.15h17.55v3.33h-21.05zm47.35 0v-35h3.5v31.65h17.25v3.35h-20.75zm45.52 0v-35h19.95v3.27h-16.45v11.98h10.93v3.27h-10.93v13.15h17.55v3.33h-21.05zm62.3.6-10.25-24.12c-.22-.52-.44-1.07-.67-1.65s-.44-1.12-.62-1.62c.03.42.06.93.08 1.55s.02 1.19.02 1.72v23.53h-3.5v-35h3.28l10.72 25.17c.17.38.33.78.49 1.19s.31.81.46 1.21c.15-.4.3-.8.46-1.2.16-.4.32-.8.49-1.2l10.7-25.17h3.3v35h-3.5v-23.53c0-.53.01-1.11.03-1.74.02-.62.03-1.15.05-1.56-.18.48-.4 1.03-.65 1.65s-.48 1.18-.7 1.7l-10.19 24.07zm42.98-.6v-35h19.95v3.27h-16.45v11.98h10.93v3.27h-10.93v13.15h17.55v3.33h-21.05zm47.35 0v-35h3.53l16.3 26.27.75 1.26c.25.42.5.87.75 1.34-.02-.43-.03-.87-.05-1.3s-.03-.85-.03-1.25V101.8h3.5v35h-3.38l-16.5-26.35c-.22-.38-.45-.79-.7-1.21s-.5-.85-.75-1.26c.03.38.05.79.06 1.21s.01.85.01 1.26v26.35h-3.49v.01zm60.27 0v-31.62h-9.7v-3.38h22.92v3.38h-9.73v31.62h-3.49zm48.6.6c-1.95 0-3.72-.34-5.3-1.01s-2.93-1.59-4.04-2.75-1.93-2.45-2.46-3.89l3.38-1.2c.75 1.65 1.87 2.98 3.35 4s3.21 1.52 5.17 1.52c2.22 0 4-.55 5.34-1.65 1.34-1.1 2.01-2.7 2.01-4.8 0-1.42-.38-2.63-1.15-3.64s-1.77-1.86-3-2.55-2.55-1.3-3.95-1.81c-1.2-.45-2.4-.95-3.59-1.51s-2.27-1.22-3.25-1.98a8.878 8.878 0 0 1-2.34-2.76c-.58-1.08-.88-2.37-.88-3.85 0-1.53.4-2.93 1.21-4.19s1.98-2.26 3.51-3.01 3.39-1.12 5.58-1.12c1.72 0 3.25.26 4.6.78s2.48 1.23 3.38 2.15 1.53 1.97 1.9 3.15l-3.28 1.1c-.47-1.15-1.28-2.09-2.44-2.81-1.16-.73-2.63-1.09-4.41-1.09-2 0-3.57.45-4.71 1.36s-1.71 2.15-1.71 3.71c0 1.22.38 2.23 1.12 3.05s1.73 1.52 2.94 2.1 2.49 1.14 3.84 1.68c1.18.45 2.38.97 3.59 1.57s2.31 1.33 3.31 2.19 1.81 1.89 2.42 3.1c.62 1.21.92 2.65.92 4.34 0 2.1-.48 3.88-1.44 5.34s-2.27 2.57-3.94 3.34c-1.64.76-3.54 1.14-5.68 1.14z"/>
</svg>

