<?xml version="1.0" encoding="utf-8"?>
<!DOCTYPE svg PUBLIC "-//W3C//DTD SVG 1.1//EN" "http://www.w3.org/Graphics/SVG/1.1/DTD/svg11.dtd">
<svg version="1.1" xmlns="http://www.w3.org/2000/svg" xmlns:xlink="http://www.w3.org/1999/xlink" x="0" y="0" viewBox="0 0 720 162">
<g id="pfe-logo">
	<g>
		<path fill="#ffffff" d="M80.09,10.8l0.01-0.13l-0.06,0.08l-0.03-0.02l0.02-0.21l-0.12,0.11l-0.12-0.11l0.02,0.21l-0.02,0.02
			l-0.06-0.08l0.01,0.13L5.48,83.4l29.41,41.67l22.72-5.22l22.31,31.36l22.31-31.36l22.72,5.22l18.22-25.81l11.19-15.86L80.09,10.8z
			 M77.66,19.32l-10.15,95.07L47.69,87.35L77.66,19.32z M46.72,86.02L34.24,69.01l43.31-52.97L46.72,86.02z M67.09,116.21l-8.87,2.04
			L43.31,97.29l3.72-8.43L67.09,116.21z M79.68,14.73l0.23-0.53l0.23,0.53l10.49,102.21l-0.03-0.02l-10.28,15.19L69.21,116.9
			l-0.01,0.01L79.68,14.73z M92.32,114.39L82.17,19.32l29.97,68.03L92.32,114.39z M112.81,88.85l3.72,8.43l-14.91,20.96l-8.87-2.04
			L112.81,88.85z M82.28,16.03L125.59,69l-12.48,17.02L82.28,16.03z M35.5,123.46L7.34,83.57l65.53-64.06L32.44,68.96l13.62,18.57
			l-4.37,9.93l15.03,21.14L35.5,123.46z M79.92,148.76l-20.8-29.25l8.89-2.04l0.15,0.21l-0.1,0.07l12.32,16.84l11.41-16.86l-0.1-0.07
			l0.14-0.19l8.89,2.04L79.92,148.76z M142,98.43l-17.67,25.03l-21.21-4.87l15.03-21.14l-4.37-9.93l13.62-18.57L86.96,19.51
			l65.53,64.06L142,98.43z"/>
	</g>
	<g>
		<g>
			<path fill="#ffffff" d="M206.01,70.6V35.24h15.17c2.23,0,4.12,0.33,5.65,0.97c1.53,0.65,2.77,1.5,3.72,2.57
				c0.95,1.06,1.64,2.26,2.06,3.59s0.63,2.68,0.63,4.04c0,0.85-0.1,1.72-0.3,2.6c-0.2,0.88-0.5,1.73-0.91,2.56s-0.94,1.6-1.58,2.33
				c-0.64,0.72-1.41,1.36-2.31,1.91c-0.89,0.55-1.92,0.98-3.08,1.29s-2.45,0.47-3.88,0.47h-8.34V70.6H206.01z M221.48,51.09
				c0.87,0,1.61-0.14,2.2-0.42c0.59-0.29,1.07-0.64,1.44-1.09c0.37-0.44,0.64-0.95,0.8-1.5c0.17-0.56,0.25-1.12,0.25-1.68
				c0-0.51-0.07-1.04-0.21-1.6c-0.14-0.54-0.39-1.05-0.74-1.51c-0.36-0.46-0.84-0.83-1.45-1.13s-1.37-0.45-2.29-0.45h-8.63v9.37
				L221.48,51.09L221.48,51.09z"/>
			<path fill="#ffffff" d="M280.38,70.6l-2.74-7.32H264l-2.71,7.32h-7.33l13.54-35.36h6.65L287.7,70.6H280.38z M271.94,47.86
				c-0.18-0.42-0.38-0.94-0.58-1.53c-0.2-0.59-0.38-1.14-0.53-1.65c-0.13,0.51-0.31,1.06-0.52,1.65s-0.41,1.1-0.59,1.53l-3.5,9.2h9.2
				L271.94,47.86z"/>
			<path fill="#ffffff" d="M326.08,41.82V70.6h-6.8V41.82h-10.11v-6.58h27.03v6.58H326.08z"/>
			<path fill="#ffffff" d="M379,41.82V70.6h-6.8V41.82h-10.11v-6.58h27.03v6.58H379z"/>
			<path fill="#ffffff" d="M417.29,70.6V35.24h24.14v6.49h-17.31v7.42h10.18v6.46h-10.18v8.54h18.37v6.46h-25.2V70.6z"/>
			<path fill="#ffffff" d="M471.18,70.6V35.24h16.43c2.24,0,4.1,0.3,5.61,0.92c1.5,0.62,2.71,1.43,3.64,2.46
				c0.92,1.02,1.58,2.19,1.97,3.53c0.39,1.33,0.6,2.72,0.6,4.17c0,1-0.15,2.01-0.43,3.04c-0.29,1.03-0.72,2-1.29,2.92
				c-0.58,0.92-1.29,1.75-2.15,2.5s-1.85,1.33-2.98,1.73l6.86,14.08h-7.67l-6.61-13.19H478v13.2H471.18z M487.7,50.95
				c0.87,0,1.6-0.13,2.2-0.38c0.58-0.25,1.07-0.59,1.43-1.02s0.63-0.92,0.78-1.48c0.16-0.56,0.23-1.14,0.23-1.75
				c0-0.56-0.07-1.12-0.21-1.67c-0.14-0.55-0.38-1.04-0.73-1.48c-0.34-0.43-0.82-0.78-1.42-1.05c-0.6-0.26-1.36-0.39-2.28-0.39H478
				v9.23h9.7V50.95z"/>
			<path fill="#ffffff" d="M550.71,70.6l-14.03-20.62c-0.23-0.34-0.48-0.77-0.75-1.27s-0.5-0.96-0.71-1.39
				c0.05,0.38,0.09,0.82,0.11,1.33c0.02,0.51,0.04,0.95,0.04,1.33V70.6h-6.78V35.24H535l13.69,20.36c0.21,0.33,0.46,0.75,0.73,1.24
				c0.28,0.49,0.53,0.97,0.74,1.43c-0.05-0.47-0.08-0.96-0.1-1.44c-0.03-0.49-0.04-0.9-0.04-1.23V35.24h6.76V70.6H550.71z"/>
			<path fill="#ffffff" d="M587.21,70.6V35.24h23.7v6.49h-16.87v7.42h10.7v6.46h-10.7v15h-6.83V70.6z"/>
			<path fill="#ffffff" d="M638.59,70.6V35.24h6.83v28.8h17.07v6.56H638.59z"/>
			<path fill="#ffffff" d="M695.17,70.6V56.81l-13.1-21.58h7.74l8.73,14.45l8.73-14.45h7.75l-13.09,21.58V70.6H695.17z"/>
		</g>
		<g>
			<path fill="#ffffff" d="M204.27,136.81v-35h19.95v3.27h-16.45v11.98h10.93v3.27h-10.93v13.15h17.55v3.33H204.27z"/>
			<path fill="#ffffff" d="M251.62,136.81v-35h3.5v31.65h17.25v3.35H251.62z"/>
			<path fill="#ffffff" d="M297.14,136.81v-35h19.95v3.27h-16.45v11.98h10.93v3.27h-10.93v13.15h17.55v3.33H297.14z"/>
			<path fill="#ffffff" d="M359.44,137.41l-10.25-24.12c-0.22-0.52-0.44-1.07-0.67-1.65s-0.44-1.12-0.62-1.62
				c0.03,0.42,0.06,0.93,0.08,1.55s0.02,1.19,0.02,1.72v23.53h-3.5v-35h3.28l10.72,25.17c0.17,0.38,0.33,0.78,0.49,1.19
				s0.31,0.81,0.46,1.21c0.15-0.4,0.3-0.8,0.46-1.2c0.16-0.4,0.32-0.8,0.49-1.2l10.7-25.17h3.3v35h-3.5v-23.53
				c0-0.53,0.01-1.11,0.03-1.74c0.02-0.62,0.03-1.15,0.05-1.56c-0.18,0.48-0.4,1.03-0.65,1.65s-0.48,1.18-0.7,1.7L359.44,137.41z"/>
			<path fill="#ffffff" d="M402.42,136.81v-35h19.95v3.27h-16.45v11.98h10.93v3.27h-10.93v13.15h17.55v3.33H402.42z"/>
			<path fill="#ffffff" d="M449.77,136.81v-35h3.53l16.3,26.27c0.25,0.42,0.5,0.84,0.75,1.26s0.5,0.87,0.75,1.34
				c-0.02-0.43-0.03-0.87-0.05-1.3s-0.03-0.85-0.03-1.25V101.8h3.5v35h-3.38l-16.5-26.35c-0.22-0.38-0.45-0.79-0.7-1.21
				s-0.5-0.85-0.75-1.26c0.03,0.38,0.05,0.79,0.06,1.21s0.01,0.85,0.01,1.26v26.35h-3.49V136.81z"/>
			<path fill="#ffffff" d="M510.04,136.81v-31.62h-9.7v-3.38h22.92v3.38h-9.73v31.62H510.04z"/>
			<path fill="#ffffff" d="M558.64,137.41c-1.95,0-3.72-0.34-5.3-1.01s-2.93-1.59-4.04-2.75s-1.93-2.45-2.46-3.89l3.38-1.2
				c0.75,1.65,1.87,2.98,3.35,4s3.21,1.52,5.17,1.52c2.22,0,4-0.55,5.34-1.65c1.34-1.1,2.01-2.7,2.01-4.8c0-1.42-0.38-2.63-1.15-3.64
				s-1.77-1.86-3-2.55s-2.55-1.3-3.95-1.81c-1.2-0.45-2.4-0.95-3.59-1.51s-2.27-1.22-3.25-1.98c-0.97-0.76-1.75-1.68-2.34-2.76
				c-0.58-1.08-0.88-2.37-0.88-3.85c0-1.53,0.4-2.93,1.21-4.19s1.98-2.26,3.51-3.01s3.39-1.12,5.58-1.12c1.72,0,3.25,0.26,4.6,0.78
				s2.48,1.23,3.38,2.15s1.53,1.97,1.9,3.15l-3.28,1.1c-0.47-1.15-1.28-2.09-2.44-2.81c-1.16-0.73-2.63-1.09-4.41-1.09
				c-2,0-3.57,0.45-4.71,1.36s-1.71,2.15-1.71,3.71c0,1.22,0.38,2.23,1.12,3.05s1.73,1.52,2.94,2.1s2.49,1.14,3.84,1.68
				c1.18,0.45,2.38,0.97,3.59,1.57s2.31,1.33,3.31,2.19s1.81,1.89,2.42,3.1c0.62,1.21,0.92,2.65,0.92,4.34c0,2.1-0.48,3.88-1.44,5.34
				c-0.96,1.46-2.27,2.57-3.94,3.34C562.68,137.03,560.78,137.41,558.64,137.41z"/>
		</g>
	</g>
</g>
</svg>
