<svg xmlns="http://www.w3.org/2000/svg" xmlns:xlink="http://www.w3.org/1999/xlink" width="430" height="267" viewBox="0 0 430 267"><defs><style>.a{fill:#fff;}.b{fill:none;}.c{fill:#6a6e73;}.d{filter:url(#a);}</style><filter id="a" x="0" y="0" width="430" height="267" filterUnits="userSpaceOnUse"><feOffset dy="15" input="SourceAlpha"/><feGaussianBlur stdDeviation="15" result="b"/><feFlood flood-opacity="0.302"/><feComposite operator="in" in2="b"/><feComposite in="SourceGraphic"/></filter></defs><g transform="translate(-379 -570)"><g class="d" transform="matrix(1, 0, 0, 1, 379, 570)"><rect class="a" width="340" height="177" rx="3" transform="translate(45 30)"/></g><g transform="translate(-266 370)"><rect class="b" width="14" height="14" transform="translate(984 262)"/><path class="c" d="M6.9,85l2.843-2.843a.894.894,0,0,0,0-1.264l-.632-.632a.894.894,0,0,0-1.264,0L5,83.1,2.157,80.262a.894.894,0,0,0-1.264,0l-.632.632a.894.894,0,0,0,0,1.264L3.1,85,.262,87.843a.894.894,0,0,0,0,1.264l.632.632a.894.894,0,0,0,1.264,0L5,86.9l2.843,2.843a.894.894,0,0,0,1.264,0l.632-.632a.894.894,0,0,0,0-1.264Z" transform="translate(986 184)"/></g></g></svg>