<?xml version="1.0" encoding="utf-8"?>
<!-- Generator: Adobe Illustrator 22.1.0, SVG Export Plug-In . SVG Version: 6.00 Build 0)  -->
<!DOCTYPE svg PUBLIC "-//W3C//DTD SVG 1.1//EN" "http://www.w3.org/Graphics/SVG/1.1/DTD/svg11.dtd">
<svg version="1.1" id="Layer_1" xmlns="http://www.w3.org/2000/svg" xmlns:xlink="http://www.w3.org/1999/xlink" x="0px" y="0px"
	 viewBox="0 0 32 32" style="enable-background:new 0 0 32 32;" xml:space="preserve">
<path d="M30.06,26c1.08,0,1.94-0.89,1.94-1.98V3.96C32,2.88,31.13,2,30.04,2H1.97C0.89,2,0,2.88,0,3.96v20.1
	C0,25.14,0.89,26,1.97,26H4v4.9C4,31.65,4.4,32,4.94,32c4.42,0,7.47-2.62,9.12-6h16H30.06z M12,22.06c-0.94,4.31-4,4.88-4,4.88
	v-4.88H3.94V6H28v16.06H12z"/>
</svg>
