<?xml version="1.0" encoding="utf-8"?>
<!-- Generator: Adobe Illustrator 22.1.0, SVG Export Plug-In . SVG Version: 6.00 Build 0)  -->
<!DOCTYPE svg PUBLIC "-//W3C//DTD SVG 1.1//EN" "http://www.w3.org/Graphics/SVG/1.1/DTD/svg11.dtd">
<svg version="1.1" id="Layer_1" xmlns="http://www.w3.org/2000/svg" xmlns:xlink="http://www.w3.org/1999/xlink" x="0px" y="0px"
	 viewBox="0 0 32 32" style="enable-background:new 0 0 32 32;" xml:space="preserve">
<path d="M30.04,12H28V3.96C28,2.88,27.13,2,26.04,2H1.97C0.89,2,0,2.88,0,3.96v16.09C0,21.14,0.89,22,1.97,22H4v4.89
	C4,27.65,4.4,28,4.94,28c4.42,0,7.47-2.6,9.12-5.99h2v4.02c0,1.08,0.81,1.98,1.89,1.98h4.07c1.62,2.5,3.79,3.99,5.32,3.99
	c0.36,0,0.65-0.3,0.65-0.66V28h2.04c1.08,0,1.96-0.9,1.96-1.98v-12.1C32,12.84,31.13,12,30.04,12L30.04,12z M11.91,18
	C10.97,22.29,8,22.94,8,22.94v-4.88H3.94V6H24v12H11.91z"/>
</svg>
