<?xml version="1.0" encoding="utf-8"?>
<!-- Generator: Adobe Illustrator 22.1.0, SVG Export Plug-In . SVG Version: 6.00 Build 0)  -->
<!DOCTYPE svg PUBLIC "-//W3C//DTD SVG 1.1//EN" "http://www.w3.org/Graphics/SVG/1.1/DTD/svg11.dtd">
<svg version="1.1" id="Layer_1" xmlns="http://www.w3.org/2000/svg" xmlns:xlink="http://www.w3.org/1999/xlink" x="0px" y="0px"
	 viewBox="0 0 32 32" style="enable-background:new 0 0 32 32;" xml:space="preserve">
<path d="M32,8.8c0,0.55-0.19,1.02-0.58,1.4L13.67,27.96c-0.39,0.39-0.85,0.58-1.4,0.58c-0.55,0-1.02-0.19-1.4-0.58L0.58,17.68
	C0.19,17.29,0,16.83,0,16.28c0-0.55,0.19-1.02,0.58-1.4l2.81-2.81c0.39-0.39,0.85-0.58,1.4-0.58s1.02,0.19,1.4,0.58l6.07,6.09
	L25.81,4.59c0.39-0.39,0.85-0.58,1.4-0.58s1.02,0.19,1.4,0.58l2.81,2.81C31.8,7.78,32,8.25,32,8.8L32,8.8z"/>
</svg>
