<?xml version="1.0" encoding="utf-8"?>
<!-- Generator: Adobe Illustrator 22.1.0, SVG Export Plug-In . SVG Version: 6.00 Build 0)  -->
<!DOCTYPE svg PUBLIC "-//W3C//DTD SVG 1.1//EN" "http://www.w3.org/Graphics/SVG/1.1/DTD/svg11.dtd">
<svg version="1.1" id="Layer_1" xmlns="http://www.w3.org/2000/svg" xmlns:xlink="http://www.w3.org/1999/xlink" x="0px" y="0px"
	 viewBox="0 0 32 32" style="enable-background:new 0 0 32 32;" xml:space="preserve">
<path d="M32,22.67c0,0.28-0.11,0.52-0.32,0.74l-1.6,1.6c-0.21,0.21-0.46,0.32-0.74,0.32s-0.52-0.11-0.74-0.32L16,12.41L3.4,25.01
	c-0.21,0.21-0.46,0.32-0.74,0.32s-0.52-0.11-0.74-0.32l-1.6-1.6C0.11,23.19,0,22.95,0,22.67s0.11-0.52,0.32-0.74L15.26,6.99
	c0.21-0.21,0.46-0.32,0.74-0.32c0.28,0,0.52,0.11,0.74,0.32l14.94,14.94C31.89,22.14,32,22.39,32,22.67L32,22.67"/>
</svg>
