<?xml version="1.0" encoding="utf-8"?>
<!-- Generator: Adobe Illustrator 22.1.0, SVG Export Plug-In . SVG Version: 6.00 Build 0)  -->
<!DOCTYPE svg PUBLIC "-//W3C//DTD SVG 1.1//EN" "http://www.w3.org/Graphics/SVG/1.1/DTD/svg11.dtd">
<svg version="1.1" id="Layer_1" xmlns="http://www.w3.org/2000/svg" xmlns:xlink="http://www.w3.org/1999/xlink" x="0px" y="0px"
	 viewBox="0 0 32 32" style="enable-background:new 0 0 32 32;" xml:space="preserve">
<path d="M9.33,32c-0.28,0-0.52-0.11-0.74-0.32l-1.6-1.6c-0.21-0.21-0.32-0.46-0.32-0.74s0.11-0.52,0.32-0.74L19.59,16L6.99,3.4
	C6.78,3.19,6.67,2.94,6.67,2.66s0.11-0.52,0.32-0.74l1.6-1.6C8.81,0.11,9.05,0,9.33,0s0.52,0.11,0.74,0.32l14.94,14.94
	c0.21,0.21,0.32,0.46,0.32,0.74c0,0.28-0.11,0.52-0.32,0.74L10.07,31.68C9.86,31.89,9.61,32,9.33,32L9.33,32"/>
</svg>
