<?xml version="1.0" encoding="utf-8"?>
<!-- Generator: Adobe Illustrator 22.1.0, SVG Export Plug-In . SVG Version: 6.00 Build 0)  -->
<!DOCTYPE svg PUBLIC "-//W3C//DTD SVG 1.1//EN" "http://www.w3.org/Graphics/SVG/1.1/DTD/svg11.dtd">
<svg version="1.1" id="Layer_1" xmlns="http://www.w3.org/2000/svg" xmlns:xlink="http://www.w3.org/1999/xlink" x="0px" y="0px"
	 viewBox="0 0 32 32" style="enable-background:new 0 0 32 32;" xml:space="preserve">
<path d="M22.67,0c0.28,0,0.52,0.11,0.74,0.32l1.6,1.6c0.21,0.21,0.32,0.46,0.32,0.74s-0.11,0.52-0.32,0.74L12.41,16l12.6,12.6
	c0.21,0.21,0.32,0.46,0.32,0.74c0,0.28-0.11,0.52-0.32,0.74l-1.6,1.6C23.19,31.89,22.95,32,22.67,32s-0.52-0.11-0.74-0.32
	L6.99,16.74C6.78,16.53,6.67,16.28,6.67,16c0-0.28,0.11-0.52,0.32-0.74L21.93,0.32C22.14,0.11,22.39,0,22.67,0L22.67,0"/>
</svg>
