<?xml version="1.0" encoding="utf-8"?>
<!-- Generator: Adobe Illustrator 22.1.0, SVG Export Plug-In . SVG Version: 6.00 Build 0)  -->
<!DOCTYPE svg PUBLIC "-//W3C//DTD SVG 1.1//EN" "http://www.w3.org/Graphics/SVG/1.1/DTD/svg11.dtd">
<svg version="1.1" id="Layer_1" xmlns="http://www.w3.org/2000/svg" xmlns:xlink="http://www.w3.org/1999/xlink" x="0px" y="0px"
	 viewBox="0 0 32 32" style="enable-background:new 0 0 32 32;" xml:space="preserve">
<path d="M0,9.33c0-0.28,0.11-0.52,0.32-0.74l1.6-1.6c0.21-0.21,0.46-0.32,0.74-0.32S3.19,6.78,3.4,6.99L16,19.59l12.6-12.6
	c0.21-0.21,0.46-0.32,0.74-0.32c0.28,0,0.52,0.11,0.74,0.32l1.6,1.6C31.89,8.81,32,9.05,32,9.33s-0.11,0.52-0.32,0.74L16.74,25.01
	c-0.21,0.21-0.46,0.32-0.74,0.32c-0.28,0-0.52-0.11-0.74-0.32L0.32,10.07C0.11,9.86,0,9.61,0,9.33L0,9.33"/>
</svg>
