<?xml version="1.0" encoding="utf-8"?>
<!-- Generator: Adobe Illustrator 22.1.0, SVG Export Plug-In . SVG Version: 6.00 Build 0)  -->
<!DOCTYPE svg PUBLIC "-//W3C//DTD SVG 1.1//EN" "http://www.w3.org/Graphics/SVG/1.1/DTD/svg11.dtd">
<svg version="1.1" id="Layer_1" xmlns="http://www.w3.org/2000/svg" xmlns:xlink="http://www.w3.org/1999/xlink" x="0px" y="0px"
	 viewBox="0 0 32 32" style="enable-background:new 0 0 32 32;" xml:space="preserve">
<path d="M22.8,19.85l-3.04,3.04c-0.14,0.14-0.3,0.21-0.48,0.21s-0.34-0.07-0.48-0.21l-2.86-2.86l-2.86,2.86
	c-0.14,0.14-0.3,0.21-0.48,0.21s-0.34-0.07-0.48-0.21l-3.04-3.04c-0.14-0.14-0.21-0.3-0.21-0.48s0.07-0.34,0.21-0.48l2.86-2.86
	l-2.86-2.86c-0.14-0.14-0.21-0.3-0.21-0.48s0.07-0.34,0.21-0.48l3.04-3.04c0.14-0.14,0.3-0.21,0.48-0.21s0.34,0.07,0.48,0.21
	l2.86,2.86l2.86-2.86c0.14-0.14,0.3-0.21,0.48-0.21s0.34,0.07,0.48,0.21l3.04,3.04c0.14,0.14,0.21,0.3,0.21,0.48
	s-0.07,0.34-0.21,0.48l-2.86,2.86l2.86,2.86c0.14,0.14,0.21,0.3,0.21,0.48S22.94,19.71,22.8,19.85z M27.27,16.04
	c0-2.06-0.51-3.95-1.52-5.69s-2.39-3.11-4.12-4.12S18,4.71,15.94,4.71s-3.95,0.51-5.69,1.52s-3.11,2.39-4.12,4.12
	s-1.52,3.63-1.52,5.69c0,2.06,0.51,3.95,1.52,5.69c1.01,1.74,2.39,3.11,4.12,4.12s3.63,1.52,5.69,1.52s3.95-0.51,5.69-1.52
	c1.74-1.01,3.11-2.39,4.12-4.12C26.77,19.99,27.28,18.09,27.27,16.04z M31.94,16.04c0,2.9-0.71,5.58-2.14,8.03
	c-1.43,2.45-3.37,4.39-5.83,5.83s-5.13,2.14-8.03,2.14s-5.58-0.71-8.03-2.14s-4.39-3.37-5.82-5.83s-2.14-5.13-2.14-8.03
	s0.71-5.58,2.14-8.03s3.37-4.39,5.82-5.82s5.13-2.14,8.03-2.14s5.58,0.71,8.03,2.14s4.39,3.37,5.83,5.82
	C31.23,10.46,31.94,13.13,31.94,16.04z"/>
</svg>
