<?xml version="1.0" encoding="utf-8"?>
<!-- Generator: Adobe Illustrator 22.1.0, SVG Export Plug-In . SVG Version: 6.00 Build 0)  -->
<!DOCTYPE svg PUBLIC "-//W3C//DTD SVG 1.1//EN" "http://www.w3.org/Graphics/SVG/1.1/DTD/svg11.dtd">
<svg version="1.1" id="Layer_1" xmlns="http://www.w3.org/2000/svg" xmlns:xlink="http://www.w3.org/1999/xlink" x="0px" y="0px"
	 viewBox="0 0 32 32" style="enable-background:new 0 0 32 32;" xml:space="preserve">
<path d="M30.29,6.86c0.48,0,0.88,0.17,1.21,0.5C31.83,7.69,32,8.1,32,8.57v21.71c0,0.48-0.17,0.88-0.5,1.21S30.76,32,30.29,32H13.14
	c-0.48,0-0.88-0.17-1.21-0.5c-0.33-0.33-0.5-0.74-0.5-1.21v-5.14H1.72c-0.48,0-0.88-0.17-1.21-0.5C0.17,24.31,0,23.9,0,23.43v-12
	c0-0.48,0.12-1,0.36-1.57C0.6,9.29,0.88,8.83,1.22,8.5L8.5,1.21c0.33-0.33,0.79-0.62,1.36-0.86S10.95,0,11.43,0h7.43
	c0.48,0,0.88,0.17,1.21,0.5c0.33,0.33,0.5,0.74,0.5,1.21v5.86c0.81-0.48,1.57-0.71,2.29-0.71L30.29,6.86L30.29,6.86z M20.57,10.66
	L15.23,16h5.34C20.57,16,20.57,10.66,20.57,10.66z M9.14,3.8L3.8,9.14h5.34C9.14,9.14,9.14,3.8,9.14,3.8z M12.64,15.36l5.64-5.64
	V2.29h-6.86v7.43c0,0.48-0.17,0.88-0.5,1.21c-0.33,0.33-0.74,0.5-1.21,0.5H2.29v11.43h9.14v-4.57c0-0.48,0.12-1,0.36-1.57
	S12.31,15.69,12.64,15.36L12.64,15.36z M29.71,29.71V9.14h-6.86v7.43c0,0.48-0.17,0.88-0.5,1.21c-0.33,0.33-0.74,0.5-1.21,0.5h-7.43
	v11.43L29.71,29.71L29.71,29.71z"/>
</svg>
