<?xml version="1.0" encoding="utf-8"?>
<!-- Generator: Adobe Illustrator 22.1.0, SVG Export Plug-In . SVG Version: 6.00 Build 0)  -->
<!DOCTYPE svg PUBLIC "-//W3C//DTD SVG 1.1//EN" "http://www.w3.org/Graphics/SVG/1.1/DTD/svg11.dtd">
<svg version="1.1" id="Layer_1" xmlns="http://www.w3.org/2000/svg" xmlns:xlink="http://www.w3.org/1999/xlink" x="0px" y="0px"
	 viewBox="0 0 32 32" style="enable-background:new 0 0 32 32;" xml:space="preserve">
<path d="M6.86,19.43c0-0.63-0.22-1.17-0.67-1.62s-0.99-0.67-1.62-0.67s-1.17,0.22-1.62,0.67s-0.67,0.99-0.67,1.62
	c0,0.63,0.22,1.17,0.67,1.62s0.99,0.67,1.62,0.67s1.17-0.22,1.62-0.67S6.86,20.06,6.86,19.43z M10.29,11.43
	c0-0.63-0.22-1.17-0.67-1.62C9.17,9.37,8.63,9.14,8,9.14S6.83,9.37,6.38,9.81c-0.45,0.45-0.67,0.99-0.67,1.62
	c0,0.63,0.22,1.17,0.67,1.62c0.45,0.45,0.99,0.67,1.62,0.67c0.63,0,1.17-0.22,1.62-0.67S10.29,12.06,10.29,11.43z M17.93,20.02
	l1.8-6.82c0.07-0.31,0.03-0.6-0.13-0.87c-0.16-0.27-0.39-0.44-0.69-0.53s-0.58-0.04-0.86,0.12c-0.27,0.16-0.45,0.4-0.54,0.71
	l-1.8,6.82c-0.71,0.06-1.35,0.32-1.91,0.78c-0.56,0.46-0.93,1.04-1.13,1.76c-0.24,0.92-0.12,1.79,0.36,2.61
	c0.48,0.82,1.17,1.35,2.09,1.59s1.79,0.12,2.61-0.36c0.82-0.48,1.35-1.17,1.59-2.09c0.19-0.71,0.15-1.41-0.11-2.09
	S18.52,20.42,17.93,20.02L17.93,20.02z M29.71,19.43c0-0.63-0.22-1.17-0.67-1.62s-0.99-0.67-1.62-0.67s-1.17,0.22-1.62,0.67
	s-0.67,0.99-0.67,1.62c0,0.63,0.22,1.17,0.67,1.62s0.99,0.67,1.62,0.67s1.17-0.22,1.62-0.67S29.71,20.06,29.71,19.43z M18.29,8
	c0-0.63-0.22-1.17-0.67-1.62C17.17,5.94,16.63,5.71,16,5.71c-0.63,0-1.17,0.22-1.62,0.67C13.94,6.83,13.71,7.37,13.71,8
	c0,0.63,0.22,1.17,0.67,1.62s0.99,0.67,1.62,0.67c0.63,0,1.17-0.22,1.62-0.67S18.29,8.63,18.29,8z M26.29,11.43
	c0-0.63-0.22-1.17-0.67-1.62C25.17,9.37,24.63,9.14,24,9.14s-1.17,0.22-1.62,0.67c-0.45,0.45-0.67,0.99-0.67,1.62
	c0,0.63,0.22,1.17,0.67,1.62s0.99,0.67,1.62,0.67c0.63,0,1.17-0.22,1.62-0.67S26.29,12.06,26.29,11.43z M32,19.43
	c0,3.11-0.84,5.98-2.52,8.63c-0.23,0.35-0.55,0.52-0.96,0.52H3.48c-0.42,0-0.74-0.17-0.96-0.52C0.84,25.42,0,22.55,0,19.43
	c0-2.17,0.42-4.24,1.27-6.21s1.98-3.68,3.41-5.11S7.81,5.54,9.79,4.7S13.83,3.43,16,3.43c2.17,0,4.24,0.42,6.21,1.27
	s3.68,1.98,5.11,3.41c1.43,1.43,2.56,3.13,3.41,5.11S32,17.26,32,19.43z"/>
</svg>
