<?xml version="1.0" encoding="utf-8"?>
<!-- Generator: Adobe Illustrator 22.1.0, SVG Export Plug-In . SVG Version: 6.00 Build 0)  -->
<!DOCTYPE svg PUBLIC "-//W3C//DTD SVG 1.1//EN" "http://www.w3.org/Graphics/SVG/1.1/DTD/svg11.dtd">
<svg version="1.1" id="Layer_1" xmlns="http://www.w3.org/2000/svg" xmlns:xlink="http://www.w3.org/1999/xlink" x="0px" y="0px"
	 viewBox="0 0 32 32" style="enable-background:new 0 0 32 32;" xml:space="preserve">
<path d="M29.71,25.71V12c-0.38,0.43-0.79,0.82-1.23,1.18c-3.19,2.45-5.73,4.46-7.61,6.04c-0.61,0.51-1.1,0.91-1.48,1.2
	c-0.38,0.29-0.9,0.57-1.55,0.87s-1.26,0.44-1.83,0.44h-0.04c-0.57,0-1.18-0.15-1.83-0.44s-1.16-0.58-1.55-0.87
	c-0.38-0.29-0.88-0.68-1.48-1.2c-1.88-1.57-4.42-3.58-7.61-6.04C3.08,12.82,2.67,12.43,2.29,12v13.71c0,0.15,0.06,0.29,0.17,0.4
	c0.11,0.11,0.25,0.17,0.4,0.17h26.29c0.15,0,0.29-0.06,0.4-0.17C29.66,26,29.72,25.87,29.71,25.71L29.71,25.71z M29.71,6.95V6.51
	c0,0,0-0.08-0.01-0.23s-0.02-0.23-0.05-0.22c-0.03,0.01-0.06-0.05-0.1-0.16c-0.04-0.11-0.09-0.16-0.16-0.13
	c-0.07,0.02-0.16,0.01-0.25-0.05H2.86c-0.15,0-0.29,0.06-0.4,0.17C2.34,6,2.28,6.13,2.28,6.28c0,2,0.88,3.69,2.62,5.07
	c2.3,1.81,4.68,3.7,7.16,5.66c0.07,0.06,0.28,0.24,0.62,0.53s0.62,0.52,0.82,0.67s0.47,0.34,0.8,0.56c0.33,0.22,0.63,0.38,0.9,0.49
	s0.53,0.16,0.77,0.16h0.04c0.24,0,0.49-0.05,0.77-0.16s0.57-0.27,0.9-0.49c0.33-0.22,0.59-0.41,0.8-0.56
	c0.2-0.16,0.48-0.38,0.82-0.67c0.34-0.29,0.55-0.47,0.62-0.53c2.48-1.96,4.86-3.85,7.16-5.66c0.64-0.51,1.24-1.2,1.8-2.06
	C29.44,8.43,29.71,7.65,29.71,6.95L29.71,6.95z M32,6.29v19.43c0,0.79-0.28,1.46-0.84,2.02c-0.56,0.56-1.23,0.84-2.02,0.84H2.86
	c-0.79,0-1.46-0.28-2.02-0.84S0,26.5,0,25.71V6.29C0,5.5,0.28,4.83,0.84,4.27s1.23-0.84,2.02-0.84h26.29c0.79,0,1.46,0.28,2.02,0.84
	S32,5.5,32,6.29z"/>
</svg>
