<?xml version="1.0" encoding="utf-8"?>
<!-- Generator: Adobe Illustrator 22.1.0, SVG Export Plug-In . SVG Version: 6.00 Build 0)  -->
<!DOCTYPE svg PUBLIC "-//W3C//DTD SVG 1.1//EN" "http://www.w3.org/Graphics/SVG/1.1/DTD/svg11.dtd">
<svg version="1.1" id="Layer_1" xmlns="http://www.w3.org/2000/svg" xmlns:xlink="http://www.w3.org/1999/xlink" x="0px" y="0px"
	 viewBox="0 0 32 32" style="enable-background:new 0 0 32 32;" xml:space="preserve">
<path d="M24,18H14v-2h10V18z M26,28H12v2h14V28z M24,11.9H14v2h10V11.9z M24,8H14v2h10V8z M8,20.2C8,19,8.7,18,9.9,18V1.2
	C9.9,0.6,10.4,0,11,0h12c0.3,0,0.6,0.1,0.8,0.3l0,0l3.9,4l0,0C27.9,4.5,28,4.8,28,5.1V18h1.8c1.2,0,2.2,1,2.2,2.2v9.6
	c0,1.2-1,2.2-2.2,2.2H10.2C9,32,8,31,8,29.8V20.2z M6,28v2.06C5.44,30.94,4.66,32,3.06,32C1.19,32,0,29.06,0,28.06V13.94
	c0-1.88,1.12-3.92,2.88-3.92c1.6,0,2.69,1.36,3.11,2.04v3.98L3.96,16l0.08,10l2,0.04L6,28z M25.9,6h-2.8C22.5,6,22,5.5,22,4.9V2H12
	v18h14V6H25.9z M30,23.7c0-0.7-0.6-1.3-1.3-1.3s-1.3,0.6-1.3,1.3S28,25,28.7,25C29.4,25,30,24.4,30,23.7z"/>
</svg>
