<?xml version="1.0" encoding="utf-8"?>
<!-- Generator: Adobe Illustrator 22.1.0, SVG Export Plug-In . SVG Version: 6.00 Build 0)  -->
<!DOCTYPE svg PUBLIC "-//W3C//DTD SVG 1.1//EN" "http://www.w3.org/Graphics/SVG/1.1/DTD/svg11.dtd">
<svg version="1.1" id="Layer_1" xmlns="http://www.w3.org/2000/svg" xmlns:xlink="http://www.w3.org/1999/xlink" x="0px" y="0px"
	 viewBox="0 0 32 32" style="enable-background:new 0 0 32 32;" xml:space="preserve">
<path d="M16,0C7.16,0,0,7.16,0,16s7.16,16,16,16s16-7.16,16-16S24.84,0,16,0z M9.66,3.88c3.43,0.82,1.89,2.6,3.19,3.19
	s0.48-1.78,2.01-1.54s4.25,1.89,4.25,2.48s-2.14,1.04-3.19,1.66c-1.05,0.62-0.48,1.42-1.42,2.48c-0.52,0.59,0.24,2.6-0.48,2.6
	c-0.71,0-0.59-1.42-2.24-1.06c-1.04,0.23-2.79,1.32-2.79,2.09s1.61,0.99,1.96,0.99c0.36,0,0.71-0.65,1.66-0.71
	c0.92-0.06,0.71,2.48,1.89,2.84c0.45,0.14,1.89-0.12,2.36-0.59c0.48-0.48,2.15-0.78,4.16-0.78s3.54,1.77,4.02,1.77
	s2.72-0.59,2.72,0.48s-1.45,3.26-2.5,4.68c-0.7,0.95-3.44,2.29-4.5,4.07c-0.41,0.34-1.53,0.71-1.89,0.71
	c0.12-0.83,0.12-1.71,0.12-3.12s-3.77-2.84-3.77-3.91s0.71-0.36,0.71-1.66s-1.18-0.48-2.01-0.94c-0.82-0.48-0.59-0.71-1.54-1.3
	s-2.61,0.14-4.62-1.16s-2.48-4.61-2.48-5.32c0-0.71,0.72-1.91,1.43-3.09s0.94-2.6,0.59-3.07C7.75,5.06,8.64,4.38,9.66,3.88
	L9.66,3.88z"/>
</svg>
