<?xml version="1.0" encoding="utf-8"?>
<!-- Generator: Adobe Illustrator 22.1.0, SVG Export Plug-In . SVG Version: 6.00 Build 0)  -->
<!DOCTYPE svg PUBLIC "-//W3C//DTD SVG 1.1//EN" "http://www.w3.org/Graphics/SVG/1.1/DTD/svg11.dtd">
<svg version="1.1" id="Layer_1" xmlns="http://www.w3.org/2000/svg" xmlns:xlink="http://www.w3.org/1999/xlink" x="0px" y="0px"
	 viewBox="0 0 32 32" style="enable-background:new 0 0 32 32;" xml:space="preserve">
<path d="M16.78,25.01c0-0.25-0.02-0.49-0.08-0.73c-0.06-0.23-0.11-0.44-0.17-0.64c-0.06-0.19-0.16-0.4-0.31-0.61
	c-0.15-0.21-0.28-0.39-0.38-0.54c-0.1-0.15-0.26-0.33-0.48-0.52c-0.21-0.2-0.38-0.36-0.49-0.46c-0.11-0.1-0.31-0.25-0.57-0.46
	c-0.27-0.2-0.45-0.34-0.56-0.41s-0.3-0.21-0.59-0.41s-0.48-0.33-0.54-0.38c-0.2-0.02-0.5-0.04-0.89-0.04
	c-0.64,0-1.27,0.04-1.89,0.12s-1.26,0.23-1.92,0.44c-0.67,0.21-1.25,0.49-1.75,0.82s-0.91,0.78-1.23,1.34
	c-0.32,0.56-0.48,1.19-0.48,1.91c0,0.81,0.21,1.53,0.63,2.17s0.97,1.14,1.66,1.5c0.68,0.36,1.4,0.63,2.15,0.81
	c0.75,0.18,1.51,0.27,2.27,0.27c0.7,0,1.37-0.08,2.01-0.23c0.64-0.15,1.23-0.38,1.79-0.69s1-0.75,1.33-1.31
	C16.62,26.41,16.78,25.75,16.78,25.01L16.78,25.01z M14.65,9.62c0-0.71-0.1-1.48-0.29-2.27c-0.19-0.81-0.48-1.58-0.84-2.33
	s-0.86-1.37-1.5-1.86s-1.35-0.73-2.13-0.73c-1.11,0-1.96,0.41-2.57,1.23C6.7,4.49,6.4,5.47,6.4,6.61c0,0.56,0.07,1.15,0.21,1.77
	c0.14,0.62,0.35,1.24,0.63,1.86c0.29,0.62,0.62,1.18,1,1.67c0.38,0.49,0.84,0.89,1.39,1.21c0.55,0.31,1.12,0.46,1.73,0.46
	c1.16,0,1.99-0.36,2.51-1.08S14.64,10.81,14.65,9.62L14.65,9.62z M12.31,1.15h7.8l-2.41,1.41h-2.41c0.84,0.54,1.5,1.29,1.96,2.25
	c0.46,0.96,0.69,1.97,0.69,3.02c0,0.88-0.14,1.66-0.41,2.34c-0.27,0.68-0.61,1.24-1,1.65c-0.39,0.42-0.79,0.8-1.18,1.15
	c-0.39,0.35-0.73,0.71-1,1.09s-0.41,0.77-0.41,1.21c0,0.31,0.1,0.61,0.29,0.91c0.19,0.3,0.45,0.58,0.77,0.86
	c0.31,0.27,0.66,0.56,1.04,0.86s0.76,0.62,1.14,0.99c0.38,0.36,0.73,0.76,1.04,1.18c0.32,0.42,0.57,0.93,0.77,1.52
	c0.19,0.59,0.29,1.23,0.29,1.9c0,1.91-0.83,3.58-2.5,5.03c-1.81,1.56-4.31,2.34-7.49,2.34c-0.7,0-1.41-0.06-2.13-0.18
	s-1.44-0.32-2.18-0.6s-1.37-0.62-1.94-1.04c-0.56-0.41-1.02-0.94-1.38-1.59c-0.34-0.65-0.53-1.37-0.53-2.17
	c0-0.73,0.22-1.53,0.66-2.41c0.38-0.76,0.95-1.42,1.71-1.97s1.62-0.98,2.59-1.27S8,19.12,8.88,18.98c0.88-0.14,1.77-0.22,2.67-0.24
	c-0.76-0.99-1.14-1.88-1.14-2.66c0-0.14,0.01-0.28,0.04-0.42c0.02-0.14,0.06-0.26,0.09-0.35c0.04-0.09,0.08-0.23,0.14-0.38
	c0.06-0.16,0.1-0.29,0.12-0.38c-0.48,0.06-0.89,0.09-1.25,0.09c-1.77,0-3.29-0.58-4.56-1.75S3.1,10.26,3.1,8.5
	c0-1.67,0.56-3.16,1.69-4.47s2.53-2.16,4.17-2.53C10.09,1.26,11.2,1.15,12.31,1.15L12.31,1.15L12.31,1.15z M30.85,5.71V8h-4.57v4.57
	h-2.29V8h-4.57V5.71h4.57V1.15h2.29v4.57C26.28,5.71,30.85,5.71,30.85,5.71z"/>
</svg>
