<?xml version="1.0" encoding="utf-8"?>
<!-- Generator: Adobe Illustrator 22.1.0, SVG Export Plug-In . SVG Version: 6.00 Build 0)  -->
<!DOCTYPE svg PUBLIC "-//W3C//DTD SVG 1.1//EN" "http://www.w3.org/Graphics/SVG/1.1/DTD/svg11.dtd">
<svg version="1.1" id="Layer_1" xmlns="http://www.w3.org/2000/svg" xmlns:xlink="http://www.w3.org/1999/xlink" x="0px" y="0px"
	 viewBox="0 0 32 32" style="enable-background:new 0 0 32 32;" xml:space="preserve">
<path d="M24.39,1.78c-1.94-1.21-3.93-1.8-6-1.78c-2.11,0.02-3.84,0.7-5.21,2.03c-1.37,1.34-2.09,3.04-2.17,5.15
	c-0.08,2.44,0.71,4.81,2.29,7.03L1.92,25.27c-0.38,0.36-0.56,0.81-0.58,1.33c-0.02,0.54,0.22,1.06,0.71,1.56s1,0.75,1.54,0.74
	c0.52-0.01,0.96-0.19,1.34-0.55L7.2,26.1l1.5,1.54l-1.01,0.98c-0.33,0.33-0.35,0.85-0.04,1.17l1.93,1.98
	c0.31,0.32,0.83,0.31,1.17-0.01l5.23-5.11c0.33-0.33,0.35-0.85,0.04-1.17l-1.93-1.98c-0.31-0.32-0.83-0.31-1.17,0.01l-1.01,0.98
	l-1.51-1.54l5.9-5.67c2.23,1.68,4.54,2.49,6.98,2.46c2.11-0.02,3.84-0.7,5.21-2.03c1.37-1.34,2.09-3.06,2.16-5.16
	c0.07-2.06-0.47-4.07-1.63-6.04C27.87,4.57,26.32,2.99,24.39,1.78L24.39,1.78z M23.75,7.07c2.74,2.82,3.65,6.39,2.04,7.96
	s-5.15,0.56-7.89-2.27s-3.65-6.39-2.04-7.96S21.01,4.25,23.75,7.07L23.75,7.07z"/>
</svg>
