<?xml version="1.0" encoding="utf-8"?>
<!-- Generator: Adobe Illustrator 22.1.0, SVG Export Plug-In . SVG Version: 6.00 Build 0)  -->
<!DOCTYPE svg PUBLIC "-//W3C//DTD SVG 1.1//EN" "http://www.w3.org/Graphics/SVG/1.1/DTD/svg11.dtd">
<svg version="1.1" id="Layer_1" xmlns="http://www.w3.org/2000/svg" xmlns:xlink="http://www.w3.org/1999/xlink" x="0px" y="0px"
	 viewBox="0 0 32 32" style="enable-background:new 0 0 32 32;" xml:space="preserve">
<path d="M6.93,22.4c-0.73,0-1.36-0.26-1.88-0.78c-0.52-0.52-0.78-1.15-0.78-1.88V8c0-0.73,0.26-1.36,0.78-1.88S6.2,5.33,6.93,5.33
	h18.13c0.73,0,1.36,0.26,1.88,0.78c0.52,0.52,0.78,1.15,0.78,1.88v11.73c0,0.73-0.26,1.36-0.78,1.88c-0.52,0.52-1.15,0.78-1.88,0.78
	C25.07,22.4,6.93,22.4,6.93,22.4z M6.4,8v11.73c0,0.14,0.05,0.27,0.16,0.38c0.11,0.11,0.23,0.16,0.38,0.16h18.13
	c0.14,0,0.27-0.05,0.38-0.16c0.11-0.11,0.16-0.23,0.16-0.38V8c0-0.14-0.05-0.27-0.16-0.38c-0.11-0.11-0.23-0.16-0.38-0.16H6.94
	c-0.14,0-0.27,0.05-0.38,0.16C6.46,7.73,6.4,7.86,6.4,8z M29.33,23.47H32v1.6c0,0.44-0.26,0.82-0.78,1.13
	c-0.52,0.31-1.15,0.47-1.88,0.47H2.67c-0.73,0-1.36-0.16-1.88-0.47S0,25.51,0,25.07v-1.6H29.33L29.33,23.47z M17.33,25.07
	c0.18,0,0.27-0.09,0.27-0.27c0-0.18-0.09-0.27-0.27-0.27h-2.67c-0.18,0-0.27,0.09-0.27,0.27c0,0.18,0.09,0.27,0.27,0.27H17.33z"/>
</svg>
