<?xml version="1.0" encoding="utf-8"?>
<!-- Generator: Adobe Illustrator 22.1.0, SVG Export Plug-In . SVG Version: 6.00 Build 0)  -->
<!DOCTYPE svg PUBLIC "-//W3C//DTD SVG 1.1//EN" "http://www.w3.org/Graphics/SVG/1.1/DTD/svg11.dtd">
<svg version="1.1" id="Layer_1" xmlns="http://www.w3.org/2000/svg" xmlns:xlink="http://www.w3.org/1999/xlink" x="0px" y="0px"
	 viewBox="0 0 32 32" style="enable-background:new 0 0 32 32;" xml:space="preserve">
<path d="M4.94,26.79h4.82V12.34H4.94C4.94,12.34,4.94,26.79,4.94,26.79z M10.06,7.88C10.05,7.16,9.8,6.56,9.31,6.08
	C8.82,5.61,8.18,5.38,7.37,5.38c-0.8,0-1.46,0.23-1.97,0.71S4.64,7.16,4.64,7.88c0,0.71,0.25,1.31,0.74,1.78s1.14,0.72,1.93,0.72
	h0.02c0.82,0,1.48-0.24,1.98-0.72C9.8,9.18,10.06,8.59,10.06,7.88L10.06,7.88z M22.25,26.79h4.82V18.5c0-2.14-0.51-3.76-1.52-4.85
	C24.53,12.56,23.18,12,21.52,12c-1.89,0-3.34,0.81-4.36,2.44h0.04v-2.1h-4.82c0.04,0.92,0.04,5.74,0,14.46h4.82v-8.09
	c0-0.53,0.05-0.92,0.15-1.17c0.21-0.49,0.52-0.9,0.94-1.24c0.42-0.34,0.93-0.51,1.54-0.51c1.61,0,2.42,1.09,2.42,3.27L22.25,26.79
	L22.25,26.79z M32,6v20c0,1.66-0.58,3.06-1.76,4.24C29.07,31.42,27.65,32,26,32H6c-1.66,0-3.06-0.58-4.24-1.76
	C0.59,29.07,0,27.66,0,26V6c0-1.66,0.58-3.06,1.76-4.24S4.35,0,6,0h20c1.66,0,3.06,0.58,4.24,1.76C31.42,2.94,32,4.35,32,6z"/>
</svg>
