<?xml version="1.0" encoding="utf-8"?>
<!-- Generator: Adobe Illustrator 22.1.0, SVG Export Plug-In . SVG Version: 6.00 Build 0)  -->
<!DOCTYPE svg PUBLIC "-//W3C//DTD SVG 1.1//EN" "http://www.w3.org/Graphics/SVG/1.1/DTD/svg11.dtd">
<svg version="1.1" id="Layer_1" xmlns="http://www.w3.org/2000/svg" xmlns:xlink="http://www.w3.org/1999/xlink" x="0px" y="0px"
	 viewBox="0 0 32 32" style="enable-background:new 0 0 32 32;" xml:space="preserve">
<path d="M28.24,23.53c0-0.52-0.18-0.97-0.55-1.33l-4.08-4.08c-0.37-0.37-0.81-0.55-1.33-0.55c-0.55,0-1.02,0.21-1.41,0.63
	c0.04,0.04,0.16,0.16,0.37,0.36c0.21,0.2,0.35,0.34,0.42,0.42s0.17,0.2,0.29,0.37c0.12,0.17,0.21,0.34,0.25,0.5
	c0.05,0.16,0.07,0.34,0.07,0.54c0,0.52-0.18,0.97-0.55,1.33c-0.37,0.37-0.81,0.55-1.33,0.55c-0.2,0-0.38-0.02-0.54-0.07
	c-0.16-0.05-0.33-0.13-0.5-0.25c-0.17-0.12-0.29-0.22-0.37-0.29c-0.08-0.07-0.22-0.21-0.42-0.42c-0.2-0.21-0.32-0.33-0.36-0.37
	c-0.43,0.41-0.65,0.88-0.65,1.43c0,0.52,0.18,0.97,0.55,1.33l4.04,4.06c0.35,0.35,0.8,0.53,1.33,0.53c0.52,0,0.97-0.17,1.33-0.51
	l2.88-2.86C28.05,24.48,28.24,24.04,28.24,23.53L28.24,23.53z M14.45,9.71c0-0.52-0.18-0.97-0.55-1.33L9.86,4.31
	C9.5,3.95,9.05,3.77,8.53,3.77c-0.51,0-0.95,0.18-1.33,0.53L4.31,7.16c-0.37,0.37-0.55,0.8-0.55,1.31c0,0.52,0.18,0.97,0.55,1.33
	l4.08,4.08c0.35,0.35,0.8,0.53,1.33,0.53c0.55,0,1.02-0.2,1.41-0.61c-0.04-0.04-0.16-0.16-0.37-0.36c-0.21-0.2-0.35-0.34-0.42-0.42
	c-0.07-0.08-0.17-0.2-0.29-0.37c-0.12-0.17-0.21-0.34-0.25-0.5c-0.05-0.16-0.07-0.34-0.07-0.54c0-0.52,0.18-0.97,0.55-1.33
	c0.37-0.37,0.81-0.55,1.33-0.55c0.2,0,0.38,0.02,0.54,0.07c0.16,0.05,0.33,0.13,0.5,0.25c0.17,0.12,0.29,0.22,0.37,0.29
	c0.08,0.07,0.22,0.21,0.42,0.42c0.2,0.21,0.32,0.33,0.36,0.37C14.23,10.73,14.45,10.25,14.45,9.71L14.45,9.71z M32,23.53
	c0,1.57-0.56,2.9-1.67,3.98l-2.88,2.86C26.37,31.46,25.04,32,23.47,32c-1.58,0-2.92-0.56-4-1.67l-4.04-4.06
	c-1.08-1.08-1.63-2.41-1.63-3.98c0-1.61,0.58-2.97,1.73-4.1l-1.73-1.73c-1.12,1.15-2.48,1.73-4.08,1.73c-1.57,0-2.9-0.55-4-1.65
	l-4.08-4.08c-1.1-1.1-1.65-2.43-1.65-4s0.56-2.9,1.67-3.98l2.88-2.86C5.63,0.54,6.96,0,8.53,0c1.58,0,2.92,0.56,4,1.67l4.04,4.06
	c1.08,1.08,1.63,2.41,1.63,3.98c0,1.61-0.58,2.97-1.73,4.1l1.73,1.73c1.12-1.15,2.48-1.73,4.08-1.73c1.57,0,2.9,0.55,4,1.65
	l4.08,4.08C31.45,20.63,32,21.96,32,23.53z"/>
</svg>
