<?xml version="1.0" encoding="utf-8"?>
<!-- Generator: Adobe Illustrator 22.1.0, SVG Export Plug-In . SVG Version: 6.00 Build 0)  -->
<!DOCTYPE svg PUBLIC "-//W3C//DTD SVG 1.1//EN" "http://www.w3.org/Graphics/SVG/1.1/DTD/svg11.dtd">
<svg version="1.1" id="Layer_1" xmlns="http://www.w3.org/2000/svg" xmlns:xlink="http://www.w3.org/1999/xlink" x="0px" y="0px"
	 viewBox="0 0 32 32" style="enable-background:new 0 0 32 32;" xml:space="preserve">
<path d="M6.83,22.22v1.14c0,0.15-0.06,0.29-0.17,0.4c-0.11,0.11-0.25,0.17-0.4,0.17H5.13c-0.15,0-0.29-0.06-0.4-0.17
	c-0.11-0.11-0.17-0.25-0.17-0.4v-1.14c0-0.15,0.06-0.29,0.17-0.4c0.11-0.11,0.25-0.17,0.4-0.17h1.14c0.15,0,0.29,0.06,0.4,0.17
	C6.78,21.93,6.83,22.06,6.83,22.22z M6.83,17.66v1.14c0,0.15-0.06,0.29-0.17,0.4s-0.25,0.17-0.4,0.17H5.13
	c-0.15,0-0.29-0.06-0.4-0.17c-0.11-0.11-0.17-0.25-0.17-0.4v-1.14c0-0.15,0.06-0.29,0.17-0.4c0.11-0.11,0.25-0.17,0.4-0.17h1.14
	c0.15,0,0.29,0.06,0.4,0.17C6.78,17.38,6.83,17.51,6.83,17.66z M6.83,13.11v1.14c0,0.15-0.06,0.29-0.17,0.4s-0.25,0.17-0.4,0.17
	H5.13c-0.15,0-0.29-0.06-0.4-0.17c-0.11-0.11-0.17-0.25-0.17-0.4v-1.14c0-0.15,0.06-0.29,0.17-0.4c0.11-0.11,0.25-0.17,0.4-0.17
	h1.14c0.15,0,0.29,0.06,0.4,0.17C6.78,12.82,6.83,12.95,6.83,13.11z M27.33,22.22v1.14c0,0.15-0.06,0.29-0.17,0.4
	c-0.11,0.11-0.25,0.17-0.4,0.17H9.68c-0.15,0-0.29-0.06-0.4-0.17c-0.11-0.11-0.17-0.25-0.17-0.4v-1.14c0-0.15,0.06-0.29,0.17-0.4
	c0.11-0.11,0.25-0.17,0.4-0.17h17.08c0.15,0,0.29,0.06,0.4,0.17C27.27,21.93,27.33,22.06,27.33,22.22z M27.33,17.66v1.14
	c0,0.15-0.06,0.29-0.17,0.4s-0.25,0.17-0.4,0.17H9.68c-0.15,0-0.29-0.06-0.4-0.17c-0.11-0.11-0.17-0.25-0.17-0.4v-1.14
	c0-0.15,0.06-0.29,0.17-0.4c0.11-0.11,0.25-0.17,0.4-0.17h17.08c0.15,0,0.29,0.06,0.4,0.17C27.27,17.38,27.33,17.51,27.33,17.66z
	 M27.33,13.11v1.14c0,0.15-0.06,0.29-0.17,0.4s-0.25,0.17-0.4,0.17H9.68c-0.15,0-0.29-0.06-0.4-0.17c-0.11-0.11-0.17-0.25-0.17-0.4
	v-1.14c0-0.15,0.06-0.29,0.17-0.4c0.11-0.11,0.25-0.17,0.4-0.17h17.08c0.15,0,0.29,0.06,0.4,0.17
	C27.27,12.82,27.33,12.95,27.33,13.11z M29.6,25.63v-14.8c0-0.15-0.06-0.29-0.17-0.4c-0.11-0.11-0.25-0.17-0.4-0.17H2.85
	c-0.15,0-0.29,0.06-0.4,0.17c-0.11,0.11-0.17,0.25-0.17,0.4v14.8c0,0.15,0.06,0.29,0.17,0.4c0.11,0.11,0.25,0.17,0.4,0.17h26.19
	c0.15,0,0.29-0.06,0.4-0.17C29.55,25.92,29.6,25.79,29.6,25.63z M31.88,6.28v19.35c0,0.78-0.28,1.45-0.84,2.01
	c-0.56,0.56-1.23,0.84-2.01,0.84H2.85c-0.78,0-1.45-0.28-2.01-0.84C0.28,27.08,0,26.41,0,25.63V6.28c0-0.78,0.28-1.45,0.84-2.01
	s1.23-0.84,2.01-0.84h26.19c0.78,0,1.45,0.28,2.01,0.84S31.88,5.49,31.88,6.28z"/>
</svg>
