<?xml version="1.0" encoding="utf-8"?>
<!-- Generator: Adobe Illustrator 22.1.0, SVG Export Plug-In . SVG Version: 6.00 Build 0)  -->
<!DOCTYPE svg PUBLIC "-//W3C//DTD SVG 1.1//EN" "http://www.w3.org/Graphics/SVG/1.1/DTD/svg11.dtd">
<svg version="1.1" id="Layer_1" xmlns="http://www.w3.org/2000/svg" xmlns:xlink="http://www.w3.org/1999/xlink" x="0px" y="0px"
	 viewBox="0 0 32 32" style="enable-background:new 0 0 32 32;" xml:space="preserve">
<path d="M31.87,25.31v2.66c0,0.36-0.13,0.67-0.39,0.93c-0.26,0.26-0.57,0.39-0.93,0.39H1.33c-0.36,0-0.67-0.13-0.93-0.39
	C0.13,28.63,0,28.32,0,27.96v-2.66c0-0.36,0.13-0.67,0.39-0.93s0.57-0.39,0.93-0.39h29.21c0.36,0,0.67,0.13,0.93,0.39
	C31.74,24.63,31.87,24.95,31.87,25.31z M31.87,14.68v2.66c0,0.36-0.13,0.67-0.39,0.93c-0.26,0.26-0.57,0.39-0.93,0.39H1.33
	c-0.36,0-0.67-0.13-0.93-0.39C0.13,18.01,0,17.7,0,17.34v-2.66c0-0.36,0.13-0.67,0.39-0.93s0.57-0.39,0.93-0.39h29.21
	c0.36,0,0.67,0.13,0.93,0.39C31.74,14.01,31.87,14.32,31.87,14.68z M31.87,4.06v2.66c0,0.36-0.13,0.67-0.39,0.93
	c-0.26,0.26-0.57,0.39-0.93,0.39H1.33c-0.36,0-0.67-0.13-0.93-0.39S0,7.08,0,6.72V4.06C0,3.7,0.13,3.39,0.39,3.13
	s0.57-0.39,0.93-0.39h29.21c0.36,0,0.67,0.13,0.93,0.39C31.74,3.39,31.87,3.7,31.87,4.06z"/>
</svg>
