<?xml version="1.0" encoding="utf-8"?>
<!-- Generator: Adobe Illustrator 22.1.0, SVG Export Plug-In . SVG Version: 6.00 Build 0)  -->
<!DOCTYPE svg PUBLIC "-//W3C//DTD SVG 1.1//EN" "http://www.w3.org/Graphics/SVG/1.1/DTD/svg11.dtd">
<svg version="1.1" id="Layer_1" xmlns="http://www.w3.org/2000/svg" xmlns:xlink="http://www.w3.org/1999/xlink" x="0px" y="0px"
	 viewBox="0 0 32 32" style="enable-background:new 0 0 32 32;" xml:space="preserve">
<path d="M25.24,31.02H1c-0.55,0-1-0.45-1-1V8.59c0-0.55,0.45-1,1-1h15.19l-3.97,4H4v15.42h18.26v-5.44l3.98-4v12.44
	C26.24,30.57,25.79,31.02,25.24,31.02z"/>
<path d="M32,4.62V2.76c0-0.28-0.09-0.51-0.27-0.69c-0.18-0.18-0.41-0.27-0.69-0.27h-1.86l0,0l0,0l-12.07,0
	c-0.28,0-0.51,0.09-0.69,0.27s-0.27,0.41-0.27,0.69v2.08c0,0.28,0.09,0.51,0.27,0.69c0.18,0.18,0.41,0.27,0.69,0.27h8.09
	L14.69,16.29c-0.2,0.2-0.29,0.42-0.29,0.68c0,0.25,0.1,0.48,0.29,0.68l1.47,1.47c0.2,0.2,0.42,0.29,0.68,0.29v0
	c0.25,0,0.48-0.1,0.68-0.29L28.02,8.6l0,8.09c0,0.28,0.09,0.51,0.27,0.69c0.18,0.18,0.41,0.27,0.69,0.27h2.08
	c0.28,0,0.51-0.09,0.69-0.27l0,0C31.91,17.2,32,16.97,32,16.69L32,4.62L32,4.62L32,4.62z"/>
</svg>
