<?xml version="1.0" encoding="utf-8"?>
<!-- Generator: Adobe Illustrator 22.1.0, SVG Export Plug-In . SVG Version: 6.00 Build 0)  -->
<!DOCTYPE svg PUBLIC "-//W3C//DTD SVG 1.1//EN" "http://www.w3.org/Graphics/SVG/1.1/DTD/svg11.dtd">
<svg version="1.1" id="Layer_1" xmlns="http://www.w3.org/2000/svg" xmlns:xlink="http://www.w3.org/1999/xlink" x="0px" y="0px"
	 viewBox="0 0 32 32" style="enable-background:new 0 0 32 32;" xml:space="preserve">
<path d="M6.72,0c0.47,0,0.75,0.2,0.94,0.5s3.41,5.93,3.67,6.36c0.34,0.55,0.43,0.88,0.01,1.55c-0.49,0.8-2.75,2.47-3.05,2.75
	S7.51,12,7.51,12.28s0.09,0.53,0.26,0.89s1.72,3.57,4.11,5.99s5.77,4.44,6.81,5c1.04,0.56,1.36,0.23,1.71-0.08
	c0.36-0.31,2.44-2.81,2.81-3.14s0.71-0.56,1.12-0.56s0.77,0.23,1.04,0.42c0.27,0.19,5.19,2.98,5.71,3.29
	c0.52,0.31,0.89,0.48,0.89,1.25s-0.19,1.39-0.33,1.94c-0.14,0.54-0.31,1.61-1.5,2.5c-1.19,0.89-3.31,2.23-6.08,2.23
	c-1.11,0-2.38-0.35-3.17-0.61c-4.04-1.31-8.56-3.23-13.88-9.06C2.16,16.97,0,10.52,0,7.58C0,5.16,1.67,2.5,2.19,1.89
	S3.3,0.75,4.06,0.52S6,0,6.72,0L6.72,0z"/>
</svg>
