<?xml version="1.0" encoding="utf-8"?>
<!-- Generator: Adobe Illustrator 22.1.0, SVG Export Plug-In . SVG Version: 6.00 Build 0)  -->
<!DOCTYPE svg PUBLIC "-//W3C//DTD SVG 1.1//EN" "http://www.w3.org/Graphics/SVG/1.1/DTD/svg11.dtd">
<svg version="1.1" id="Layer_1" xmlns="http://www.w3.org/2000/svg" xmlns:xlink="http://www.w3.org/1999/xlink" x="0px" y="0px"
	 viewBox="0 0 32 32" style="enable-background:new 0 0 32 32;" xml:space="preserve">
<path d="M32,16.77v-1.52c0-0.41-0.15-0.77-0.45-1.07c-0.3-0.3-0.66-0.45-1.07-0.45H18.29V1.55c0-0.41-0.15-0.77-0.45-1.07
	s-0.66-0.45-1.07-0.45h-1.52c-0.41,0-0.77,0.15-1.07,0.45c-0.3,0.3-0.45,0.66-0.45,1.07v12.16H1.52c-0.41,0-0.77,0.15-1.07,0.45
	S0,14.82,0,15.24v1.52c0,0.41,0.15,0.77,0.45,1.07c0.3,0.3,0.66,0.45,1.07,0.45h12.19v12.16c0,0.41,0.15,0.77,0.45,1.07
	c0.3,0.3,0.66,0.45,1.07,0.45h1.52c0.41,0,0.77-0.15,1.07-0.45c0.3-0.3,0.45-0.66,0.45-1.07V18.29h12.19c0.41,0,0.77-0.15,1.07-0.45
	C31.85,17.54,32,17.18,32,16.77L32,16.77z"/>
</svg>
