<?xml version="1.0" encoding="utf-8"?>
<!-- Generator: Adobe Illustrator 22.1.0, SVG Export Plug-In . SVG Version: 6.00 Build 0)  -->
<!DOCTYPE svg PUBLIC "-//W3C//DTD SVG 1.1//EN" "http://www.w3.org/Graphics/SVG/1.1/DTD/svg11.dtd">
<svg version="1.1" id="Layer_1" xmlns="http://www.w3.org/2000/svg" xmlns:xlink="http://www.w3.org/1999/xlink" x="0px" y="0px"
	 viewBox="0 0 32 32" style="enable-background:new 0 0 32 32;" xml:space="preserve">
<g>
	<path d="M2.1,26.06c-1.39-1.4-2.09-3.42-2.09-6.07c0-3.56,0.81-6.74,2.43-9.53C4.06,7.68,6.2,5.47,8.86,3.85l1.85,0.49
		C9.54,5.38,8.43,6.9,7.4,8.91c-1.04,2.01-1.56,4.27-1.56,6.8c2.07,0,3.78,0.57,5.1,1.7c1.32,1.13,1.99,2.58,1.99,4.33
		c0,1.94-0.57,3.5-1.7,4.67c-1.13,1.16-2.54,1.75-4.23,1.75C5.13,28.15,3.49,27.45,2.1,26.06z M21.15,26.06
		c-1.39-1.4-2.09-3.42-2.09-6.07c0-3.56,0.81-6.74,2.43-9.53c1.62-2.78,3.76-4.99,6.41-6.61l1.85,0.49
		c-1.17,1.04-2.27,2.56-3.31,4.57c-1.04,2.01-1.55,4.27-1.55,6.8c2.07,0,3.77,0.57,5.1,1.7c1.33,1.13,1.99,2.58,1.99,4.33
		c0,1.94-0.57,3.5-1.7,4.67c-1.13,1.16-2.54,1.75-4.23,1.75C24.18,28.15,22.54,27.45,21.15,26.06z"/>
</g>
</svg>
