<?xml version="1.0" encoding="utf-8"?>
<!-- Generator: Adobe Illustrator 22.1.0, SVG Export Plug-In . SVG Version: 6.00 Build 0)  -->
<!DOCTYPE svg PUBLIC "-//W3C//DTD SVG 1.1//EN" "http://www.w3.org/Graphics/SVG/1.1/DTD/svg11.dtd">
<svg version="1.1" id="Layer_1" xmlns="http://www.w3.org/2000/svg" xmlns:xlink="http://www.w3.org/1999/xlink" x="0px" y="0px"
	 viewBox="0 0 32 32" style="enable-background:new 0 0 32 32;" xml:space="preserve">
<path d="M8.01,18c0-1.11,0.89-2,2-2c1.11,0,2,0.89,2,2c0,1.11-0.89,2-2,2C8.9,20,8.01,19.11,8.01,18z M20,18c0-1.11,0.89-2,2-2
	s2,0.89,2,2c0,1.11-0.89,2-2,2C20.89,20,20,19.11,20,18z M20.09,22.27c0.51-0.41,1.26-0.32,1.67,0.2c0.41,0.51,0.32,1.26-0.2,1.67
	C20.13,25.27,17.94,26,16,26s-4.13-0.73-5.56-1.86c-0.51-0.41-0.61-1.15-0.2-1.67c0.41-0.51,1.15-0.61,1.67-0.2
	c0.83,0.65,2.46,1.35,4.09,1.35C17.64,23.62,19.27,22.93,20.09,22.27z M31.99,14c0-2.21-1.79-4-4-4c-1.5,0-2.81,0.83-3.49,2.06
	c-2.06-1.12-4.56-1.85-7.29-2.02l2.39-5.36L24.17,6c0.41,1.17,1.52,2,2.83,2c1.66,0,3-1.34,3-3s-1.34-3-3-3
	c-1.14,0-2.14,0.64-2.64,1.58l-5.09-1.46c-0.57-0.16-1.17,0.12-1.41,0.66l-3.24,7.28c-2.66,0.19-5.1,0.91-7.11,2.01
	c-0.68-1.23-1.99-2.06-3.49-2.06c-2.21,0-4,1.79-4,4c0,1.63,0.98,3.04,2.39,3.66C2.14,18.42,2.01,19.2,2.01,20
	C2.01,25.52,8.27,30,16,30S29.99,25.52,29.99,20c0-0.81-0.13-1.59-0.39-2.34C31.01,17.05,31.99,15.64,31.99,14L31.99,14L31.99,14z
	 M26.99,3.89c0.62,0,1.12,0.51,1.12,1.12s-0.51,1.12-1.12,1.12s-1.12-0.51-1.12-1.12S26.38,3.89,26.99,3.89z M2.01,14
	c0-1.1,0.89-2,2-2c0.79,0,1.49,0.47,1.81,1.14c-1.04,0.79-1.91,1.71-2.55,2.71C2.53,15.57,2.01,14.85,2.01,14z M16,27.62
	c-6.42,0-11.62-3.41-11.62-7.62s5.2-7.62,11.62-7.62S27.62,15.8,27.62,20S22.42,27.62,16,27.62z M28.74,15.86
	c-0.64-1-1.51-1.92-2.55-2.71c0.32-0.67,1.01-1.14,1.81-1.14c1.1,0,2,0.89,2,2C29.99,14.85,29.48,15.57,28.74,15.86z"/>
</svg>
