<?xml version="1.0" encoding="utf-8"?>
<!-- Generator: Adobe Illustrator 21.1.0, SVG Export Plug-In . SVG Version: 6.00 Build 0)  -->
<!DOCTYPE svg PUBLIC "-//W3C//DTD SVG 1.1//EN" "http://www.w3.org/Graphics/SVG/1.1/DTD/svg11.dtd">
<svg version="1.1" id="Layer_1" xmlns="http://www.w3.org/2000/svg" xmlns:xlink="http://www.w3.org/1999/xlink" x="0px" y="0px"
	 viewBox="0 0 32 32" style="enable-background:new 0 0 32 32;" xml:space="preserve">
<style type="text/css">
	.st0{fill:#010101;}
</style>
<g>
	<path class="st0" d="M10.25,21.7c-0.35,0-0.63,0.28-0.63,0.63s0.28,0.63,0.63,0.63s0.63-0.28,0.63-0.63S10.6,21.7,10.25,21.7z
		 M10.25,22.43c-0.05,0-0.09-0.04-0.09-0.09s0.04-0.09,0.09-0.09s0.09,0.04,0.09,0.09C10.34,22.39,10.3,22.43,10.25,22.43z"/>
	<path class="st0" d="M21.66,21.52c-0.35,0-0.63,0.28-0.63,0.63s0.28,0.63,0.63,0.63c0.35,0,0.63-0.28,0.63-0.63
		C22.29,21.8,22.01,21.52,21.66,21.52z M21.66,22.25c-0.05,0-0.09-0.04-0.09-0.09s0.04-0.09,0.09-0.09c0.05,0,0.09,0.04,0.09,0.09
		S21.71,22.25,21.66,22.25z"/>
	<path class="st0" d="M17.8,13.83l3.35-4.28c0.09-0.12,0.07-0.29-0.05-0.38c-0.12-0.09-0.29-0.07-0.38,0.05l-3.35,4.28
		c-0.41-0.25-0.9-0.4-1.41-0.4c-1.5,0-2.72,1.22-2.72,2.72c0,0.75,0.31,1.44,0.81,1.93l-0.84,1.07c-0.09,0.12-0.07,0.29,0.05,0.38
		c0.05,0.04,0.11,0.06,0.17,0.06c0.08,0,0.16-0.04,0.21-0.1l0.84-1.07c0.43,0.28,0.94,0.45,1.49,0.45c1.5,0,2.72-1.22,2.72-2.72
		C18.67,15.03,18.33,14.32,17.8,13.83z M13.78,15.81c0-1.2,0.98-2.17,2.17-2.17c0.39,0,0.76,0.11,1.08,0.29l-2.65,3.39
		C14.01,16.92,13.78,16.4,13.78,15.81z M15.95,17.99c-0.42,0-0.82-0.12-1.15-0.33l2.66-3.4c0.41,0.4,0.66,0.95,0.66,1.56
		C18.13,17.01,17.15,17.99,15.95,17.99z"/>
	<path class="st0" d="M15.95,7.12c0.15,0,0.27-0.12,0.27-0.27V4.58c0-0.15-0.12-0.27-0.27-0.27s-0.27,0.12-0.27,0.27v2.26
		C15.68,7,15.81,7.12,15.95,7.12z"/>
	<path class="st0" d="M10.57,5.9C10.5,5.77,10.33,5.73,10.2,5.8c-0.13,0.08-0.17,0.24-0.09,0.37l1.18,1.99
		c0.05,0.09,0.14,0.13,0.23,0.13c0.05,0,0.09-0.01,0.14-0.04c0.13-0.08,0.17-0.24,0.09-0.37L10.57,5.9z"/>
	<path class="st0" d="M8.3,11.05L6.4,9.96c-0.13-0.07-0.3-0.03-0.37,0.1c-0.07,0.13-0.03,0.3,0.1,0.37l1.9,1.09
		c0.04,0.02,0.09,0.04,0.13,0.04c0.09,0,0.19-0.05,0.24-0.14C8.48,11.29,8.43,11.13,8.3,11.05z"/>
	<path class="st0" d="M7.26,15.81c0-0.15-0.12-0.27-0.27-0.27H4.72c-0.15,0-0.27,0.12-0.27,0.27c0,0.15,0.12,0.27,0.27,0.27h2.26
		C7.14,16.09,7.26,15.96,7.26,15.81z"/>
	<path class="st0" d="M8.02,20.02l-1.9,1.18c-0.13,0.08-0.17,0.25-0.09,0.37c0.05,0.08,0.14,0.13,0.23,0.13
		c0.05,0,0.1-0.01,0.14-0.04l1.9-1.18c0.13-0.08,0.17-0.25,0.09-0.37C8.32,19.98,8.15,19.94,8.02,20.02z"/>
	<path class="st0" d="M20.35,8.26c0.04,0.02,0.08,0.03,0.13,0.03c0.1,0,0.19-0.05,0.24-0.14l1.09-1.99c0.07-0.13,0.02-0.3-0.11-0.37
		c-0.13-0.07-0.3-0.02-0.37,0.11L20.24,7.9C20.17,8.03,20.22,8.19,20.35,8.26z"/>
	<path class="st0" d="M27.18,15.54H26.9c-0.04-1.74-0.5-3.43-1.33-4.95l0.3-0.16c0.13-0.07,0.18-0.24,0.11-0.37
		c-0.07-0.13-0.24-0.18-0.37-0.11l-0.44,0.24c-0.04,0-0.07,0.01-0.11,0.03c-0.03,0.02-0.05,0.04-0.07,0.06l-1.37,0.75
		c-0.13,0.07-0.18,0.24-0.11,0.37c0.05,0.09,0.14,0.14,0.24,0.14c0.04,0,0.09-0.01,0.13-0.03l1.22-0.67
		c0.8,1.45,1.23,3.02,1.27,4.69h-1.44c-0.15,0-0.27,0.12-0.27,0.27c0,0.15,0.12,0.27,0.27,0.27h1.44c-0.04,1.58-0.47,3.14-1.26,4.66
		l-1.22-0.72c-0.13-0.08-0.29-0.03-0.37,0.09c-0.08,0.13-0.03,0.3,0.09,0.37l1.35,0.8c0.02,0.04,0.06,0.08,0.1,0.11
		c0.04,0.02,0.09,0.03,0.13,0.03c0,0,0.01,0,0.01,0l0.4,0.24c0.04,0.03,0.09,0.04,0.14,0.04c0.09,0,0.18-0.05,0.23-0.13
		c0.08-0.13,0.03-0.3-0.09-0.37l-0.3-0.18c0.84-1.6,1.29-3.26,1.33-4.93h0.28c0.15,0,0.27-0.12,0.27-0.27
		C27.46,15.66,27.33,15.54,27.18,15.54z"/>
	<path class="st0" d="M15.95,3.23c-6.89,0-12.5,5.65-12.5,12.59c0,3.58,1.52,6.99,4.17,9.35l0.08,0.07h16.6l0.08-0.07
		c2.65-2.45,4.16-5.86,4.16-9.35C28.54,8.87,22.9,3.23,15.95,3.23z M24.09,24.69H7.91C5.42,22.43,4,19.2,4,15.81
		C4,9.17,9.36,3.77,15.96,3.77C22.6,3.77,28,9.17,28,15.81C28,19.12,26.58,22.35,24.09,24.69z"/>
</g>
</svg>
