<?xml version="1.0" encoding="utf-8"?>
<!-- Generator: Adobe Illustrator 21.1.0, SVG Export Plug-In . SVG Version: 6.00 Build 0)  -->
<!DOCTYPE svg PUBLIC "-//W3C//DTD SVG 1.1//EN" "http://www.w3.org/Graphics/SVG/1.1/DTD/svg11.dtd">
<svg version="1.1" id="Layer_1" xmlns="http://www.w3.org/2000/svg" xmlns:xlink="http://www.w3.org/1999/xlink" x="0px" y="0px"
	 viewBox="0 0 32 32" style="enable-background:new 0 0 32 32;" xml:space="preserve">
<path d="M11.53,7.97c-0.07-0.05-0.16-0.04-0.22,0.03c-0.05,0.07-0.04,0.16,0.03,0.22c0.06,0.05,0.1,0.1,0.13,0.16
	c0.05,0.11,0.05,0.22,0.01,0.33s-0.12,0.19-0.23,0.24c-0.1,0.05-0.22,0.05-0.33,0.01c-0.11-0.04-0.19-0.12-0.24-0.23
	c-0.03-0.06-0.04-0.13-0.04-0.2c0.01-0.09-0.06-0.16-0.14-0.16c-0.09,0-0.16,0.06-0.16,0.14c-0.01,0.12,0.01,0.24,0.06,0.35
	c0.08,0.18,0.23,0.32,0.41,0.39c0.09,0.03,0.17,0.05,0.26,0.05c0.1,0,0.21-0.02,0.3-0.07c0.18-0.08,0.32-0.23,0.39-0.41
	c0.07-0.19,0.06-0.39-0.02-0.56C11.7,8.14,11.62,8.05,11.53,7.97L11.53,7.97z M19.13,7.97c-0.07-0.05-0.16-0.04-0.22,0.03
	c-0.05,0.07-0.04,0.16,0.03,0.22c0.06,0.05,0.1,0.1,0.13,0.16c0.05,0.1,0.05,0.22,0.01,0.33c-0.04,0.11-0.12,0.19-0.23,0.24
	c-0.11,0.05-0.22,0.05-0.33,0.01s-0.19-0.12-0.24-0.23c-0.03-0.06-0.04-0.13-0.04-0.2c0-0.09-0.06-0.16-0.14-0.16
	c-0.09,0-0.16,0.06-0.16,0.14c-0.01,0.12,0.01,0.24,0.06,0.35c0.08,0.18,0.23,0.32,0.41,0.39c0.08,0.03,0.17,0.05,0.26,0.05
	c0.1,0,0.21-0.02,0.3-0.07c0.18-0.08,0.32-0.23,0.39-0.41c0.07-0.19,0.06-0.39-0.02-0.56C19.31,8.14,19.23,8.05,19.13,7.97
	L19.13,7.97z M23.66,7.84l-1.62-0.7c-0.04-0.02-0.08-0.02-0.12,0s-0.07,0.05-0.08,0.08L21.6,7.78l-0.45-0.45
	c-0.02-0.02-0.05-0.04-0.08-0.05c-0.03-0.01-0.06-0.02-0.09-0.02h-1.66c-0.04-0.14-0.12-0.36-0.32-0.47
	c-0.13-0.07-0.28-0.09-0.42-0.04c-0.23,0.08-0.39,0.23-0.47,0.44c-0.01,0.02-0.01,0.05-0.02,0.07h-6.38
	c-0.04-0.14-0.12-0.36-0.32-0.47c-0.13-0.07-0.28-0.09-0.43-0.04c-0.23,0.08-0.39,0.23-0.47,0.44c-0.01,0.02-0.01,0.05-0.02,0.07
	H8.77c-0.13,0-0.23,0.1-0.23,0.23v16.87c0,0,0,0,0,0c0,0.03,0.01,0.06,0.02,0.09s0.03,0.05,0.05,0.07l0.68,0.68
	c0.04,0.04,0.1,0.07,0.16,0.07h12.22c0.03,0,0.06-0.01,0.09-0.02c0.02-0.01,0.04-0.02,0.06-0.04c0,0,0.01,0,0.01-0.01
	c0,0,0-0.01,0.01-0.01c0.02-0.02,0.03-0.04,0.04-0.07c0.01-0.03,0.02-0.06,0.02-0.09V12.31l1.84-4.27
	C23.77,7.96,23.74,7.87,23.66,7.84L23.66,7.84z M21.22,8.05l0.18,0.19l-0.18,0.43V8.05L21.22,8.05z M9,7.72h1.47
	c0.06,0.44,0.28,0.87,0.34,0.97c0.06,0.1,0.16,0.15,0.27,0.15c0.05,0,0.1-0.01,0.15-0.04c0.15-0.08,0.2-0.27,0.11-0.42
	c-0.1-0.17-0.21-0.44-0.26-0.67h6.99c0.06,0.44,0.28,0.87,0.34,0.97c0.06,0.1,0.16,0.15,0.27,0.15c0.05,0,0.1-0.01,0.15-0.04
	c0.15-0.08,0.2-0.27,0.11-0.42c-0.1-0.17-0.21-0.44-0.26-0.67h2.07v1.72H9L9,7.72L9,7.72z M9,24.13V9.91h11.69l-1.5,3.49h-9.12
	c-0.13,0-0.23,0.1-0.23,0.23s0.1,0.23,0.23,0.23h8.92l-0.47,1.09c-0.02-0.01-0.04-0.01-0.06-0.01h-8.39c-0.13,0-0.23,0.1-0.23,0.23
	s0.1,0.23,0.23,0.23h8.26l-0.49,1.15h-7.76c-0.13,0-0.23,0.1-0.23,0.23S9.94,17,10.07,17h7.72l0.07,1.27h-7.79
	c-0.13,0-0.23,0.1-0.23,0.23s0.1,0.23,0.23,0.23h7.91c0.01,0,0.02,0,0.02,0c0.01,0,0.02,0,0.02,0c0.03,0,0.07-0.01,0.09-0.03
	l1.51-1.16c0,0,0,0,0-0.01c0.02-0.01,0.03-0.03,0.04-0.06l0,0c0,0,0,0,0,0l1.08-2.51v7.41c-0.03,0.04-0.06,0.08-0.11,0.11
	c-0.29,0.2-0.88,0.2-1.42,0.01c-0.05-0.02-0.1-0.01-0.14,0.02c-0.04,0.03-0.07,0.08-0.07,0.12c0,0.62-0.48,1.32-1.14,1.5L9,24.13
	L9,24.13z M18.14,17.84l-0.05-0.89l1.15,0.5l-0.43,0.33L18.14,17.84L18.14,17.84z M20.76,23.07v1.06h-1.71L20.76,23.07z
	 M18.78,23.94c0.3-0.31,0.5-0.71,0.55-1.11c0.37,0.1,0.8,0.14,1.16,0.05L18.78,23.94z M9.55,24.82l-0.22-0.22H20.9l0.22,0.22
	C21.12,24.82,9.55,24.82,9.55,24.82z M21.44,24.49l-0.22-0.22V13.9l0.22-0.52V24.49L21.44,24.49z M19.46,17.21l-1.33-0.57
	c0,0,0,0,0,0l1.22-2.84c0.04-0.04,0.06-0.09,0.07-0.15l2.42-5.62l0,0l0,0l0.23-0.53l1.34,0.58L19.46,17.21L19.46,17.21z"/>
</svg>
