<?xml version="1.0" encoding="utf-8"?>
<!-- Generator: Adobe Illustrator 21.1.0, SVG Export Plug-In . SVG Version: 6.00 Build 0)  -->
<!DOCTYPE svg PUBLIC "-//W3C//DTD SVG 1.1//EN" "http://www.w3.org/Graphics/SVG/1.1/DTD/svg11.dtd">
<svg version="1.1" id="Layer_1" xmlns="http://www.w3.org/2000/svg" xmlns:xlink="http://www.w3.org/1999/xlink" x="0px" y="0px"
	 viewBox="0 0 32 32" style="enable-background:new 0 0 32 32;" xml:space="preserve">
<path d="M21.23,18.8c-0.13,0-0.23,0.1-0.23,0.23c0,3-2.44,5.44-5.44,5.44c-0.13,0-0.23,0.1-0.23,0.23s0.1,0.23,0.23,0.23
	c3.25,0,5.9-2.65,5.9-5.9C21.46,18.9,21.36,18.79,21.23,18.8L21.23,18.8z M23.2,16.05c1.19-0.82,1.89-2.15,1.89-3.61
	c0-0.32-0.01-0.71-0.18-1.24c-0.09-0.31-0.21-0.6-0.37-0.88l-0.01-0.02c-0.21-0.41-0.64-1.01-1.14-1.7
	c-0.81-1.12-1.81-2.51-2.23-3.62l-0.02-0.05c-0.08-0.18-0.26-0.3-0.45-0.3s-0.37,0.12-0.45,0.3l-0.02,0.05
	c-0.38,1.03-1.31,2.34-2.1,3.44c-1.02-1.57-1.7-2.84-2.07-3.87l-0.01-0.04C15.92,4.26,15.67,4.1,15.4,4.1
	c-0.27,0-0.52,0.16-0.63,0.41l-0.01,0.04c-0.8,2.22-2.85,5.07-4.51,7.35c-0.99,1.37-1.84,2.55-2.27,3.38
	c-0.31,0.55-0.56,1.14-0.73,1.75c-0.31,1.01-0.34,1.76-0.34,2.38c0,4.68,3.81,8.49,8.49,8.49s8.49-3.81,8.49-8.49
	c0-0.62-0.03-1.38-0.34-2.39C23.46,16.7,23.34,16.37,23.2,16.05L23.2,16.05z M18.48,8.96c0.78-1.08,1.74-2.41,2.21-3.51
	c0.47,1.12,1.43,2.43,2.2,3.51c0.48,0.66,0.89,1.23,1.09,1.61L24,10.6c0.14,0.24,0.24,0.5,0.33,0.78c0.14,0.44,0.15,0.77,0.15,1.06
	c0,1.28-0.64,2.45-1.71,3.16l-4.38-6.5C18.38,9.1,18.48,8.96,18.48,8.96z M15.4,27.29c-4.34,0-7.88-3.53-7.88-7.88
	c0-0.58,0.02-1.27,0.32-2.2c0.17-0.57,0.39-1.12,0.68-1.63l0.02-0.04c0.39-0.76,1.24-1.93,2.21-3.28c1.67-2.32,3.76-5.21,4.58-7.5
	c0.01-0.02,0.03-0.05,0.07-0.05c0.03,0,0.05,0.02,0.07,0.04l0,0.01c0.41,1.15,1.15,2.51,2.32,4.27l-0.01,0l4.74,7.05l0.01-0.01
	c0.17,0.37,0.32,0.75,0.43,1.13c0.29,0.93,0.32,1.63,0.32,2.21C23.28,23.75,19.75,27.29,15.4,27.29L15.4,27.29z"/>
</svg>
