<?xml version="1.0" encoding="utf-8"?>
<!-- Generator: Adobe Illustrator 21.1.0, SVG Export Plug-In . SVG Version: 6.00 Build 0)  -->
<!DOCTYPE svg PUBLIC "-//W3C//DTD SVG 1.1//EN" "http://www.w3.org/Graphics/SVG/1.1/DTD/svg11.dtd">
<svg version="1.1" id="Layer_1" xmlns="http://www.w3.org/2000/svg" xmlns:xlink="http://www.w3.org/1999/xlink" x="0px" y="0px"
	 viewBox="0 0 32 32" style="enable-background:new 0 0 32 32;" xml:space="preserve">
<path d="M24.53,26.43l-0.39-2.29l-0.07-10.97c0-0.08-0.05-0.16-0.12-0.2l-2.08-1.31c-0.04-0.03-0.09-0.04-0.13-0.04h-0.72v-3.9
	c0-0.03-0.07-3.19-2.96-3.62c-0.04-0.01-1-0.11-1.62,0c-0.28,0.04-0.53,0.11-0.76,0.2c-0.31,0-0.64,0.01-0.91,0.06
	c-3.32,0.48-3.4,4.11-3.4,4.15v3.1h-0.89c-0.04,0-0.09,0.01-0.12,0.03l-2.33,1.31C7.95,13,7.9,13.08,7.9,13.18L7.86,24.15
	l-0.39,2.29c-0.02,0.08,0,0.16,0.05,0.22c0.05,0.06,0.12,0.1,0.2,0.1h16.57c0.08,0,0.15-0.04,0.2-0.1S24.55,26.5,24.53,26.43
	L24.53,26.43z M21.81,12.21l1.65,1.04l-0.17,0.09l-0.44-0.23c-0.05-0.02-0.11-0.02-0.15,0l-0.44,0.23l-0.44-0.23V12.21L21.81,12.21z
	 M21.3,12.12v1.16l-0.13,0.07l-0.44-0.23c-0.05-0.02-0.11-0.02-0.15,0l-0.44,0.23l-0.1-0.05c0.01-0.03,0.02-0.07,0.02-0.11v-1.07
	L21.3,12.12L21.3,12.12z M17.97,4.68c2.38,0.35,2.45,2.93,2.45,3.04v3.89h-0.37v-3.1c0-0.03-0.06-2.85-2.35-3.85
	C17.86,4.67,17.97,4.68,17.97,4.68L17.97,4.68z M15.77,4.89c0.43,0.01,0.79,0.05,0.79,0.05c2.82,0.41,2.9,3.44,2.9,3.57v3.1h-5.39
	V7.72C14.07,7.62,14.12,5.61,15.77,4.89z M11.95,8.51c0-0.01,0.01-0.8,0.38-1.64c0.45-1.02,1.2-1.64,2.26-1.87
	c-1.07,1.08-1.11,2.69-1.11,2.72v3.89h-1.53V8.51z M11.95,13.21v-1.1h7.51v1.03l-0.37,0.19l-0.44-0.23c-0.05-0.02-0.11-0.02-0.15,0
	l-0.44,0.23l-0.44-0.23c-0.05-0.02-0.11-0.02-0.15,0L17,13.34l-0.44-0.23c-0.05-0.02-0.11-0.02-0.15,0l-0.44,0.23l-0.44-0.23
	c-0.05-0.02-0.1-0.02-0.15,0l-0.44,0.23l-0.44-0.23c-0.05-0.02-0.11-0.02-0.15,0l-0.44,0.23l-0.44-0.23c-0.05-0.02-0.1-0.02-0.15,0
	l-0.44,0.23l-0.44-0.23c-0.05-0.02-0.1-0.02-0.15,0l-0.28,0.14C11.95,13.24,11.95,13.23,11.95,13.21L11.95,13.21z M10.73,12.12h0.63
	v1.01l-0.03-0.02c-0.05-0.02-0.1-0.02-0.15,0l-0.44,0.23l0,0V12.12z M10.22,12.3v0.8c-0.03,0-0.06,0-0.09,0.02l-0.44,0.23
	l-0.44-0.23c-0.05-0.02-0.1-0.02-0.15,0l-0.44,0.23l-0.14-0.07L10.22,12.3L10.22,12.3z M8.04,26.25l0.33-2.01
	c0.01-0.02,0.01-0.04,0.01-0.06L8.4,13.59l0.17,0.09c0.05,0.02,0.1,0.02,0.15,0l0.44-0.23l0.44,0.23c0.05,0.02,0.1,0.02,0.15,0
	l0.44-0.23l0.44,0.23c0.05,0.02,0.1,0.02,0.15,0l0.44-0.23l0.45,0.23c0.05,0.02,0.1,0.02,0.15,0l0.44-0.23l0.44,0.23
	c0.05,0.02,0.1,0.02,0.15,0l0.44-0.23l0.44,0.23c0.05,0.02,0.1,0.02,0.15,0l0.44-0.23l0.44,0.23c0.05,0.02,0.11,0.02,0.15,0
	l0.44-0.23l0.44,0.23c0.05,0.02,0.1,0.02,0.15,0l0.44-0.23l0.44,0.23c0.05,0.02,0.11,0.02,0.15,0l0.44-0.23l0.45,0.23
	c0.05,0.02,0.11,0.02,0.15,0l0.44-0.23L19,13.68c0.05,0.02,0.11,0.02,0.15,0l0.45-0.23l0.44,0.23c0.05,0.02,0.1,0.02,0.15,0
	l0.44-0.23l0.45,0.23c0.03,0.02,0.06,0.02,0.09,0.01c0.03,0,0.06,0,0.09-0.01l0.44-0.23l0.44,0.23c0.05,0.02,0.1,0.02,0.15,0
	l0.45-0.23l0.44,0.23c0.02,0.01,0.05,0.02,0.08,0.02s0.05-0.01,0.08-0.02l0.2-0.1l0.06,10.61c0,0.02,0,0.04,0.01,0.06l0.31,2H8.04
	L8.04,26.25z M22.23,24.01h-9.12c-0.09,0-0.17,0.08-0.17,0.17s0.07,0.17,0.17,0.17h9.12c0.09,0,0.17-0.08,0.17-0.17
	S22.32,24.01,22.23,24.01L22.23,24.01z M12.31,24.01h-1.47c-0.09,0-0.17,0.08-0.17,0.17s0.08,0.17,0.17,0.17h1.47
	c0.09,0,0.17-0.08,0.17-0.17S12.4,24.01,12.31,24.01z"/>
</svg>
