<?xml version="1.0" encoding="utf-8"?>
<!-- Generator: Adobe Illustrator 21.1.0, SVG Export Plug-In . SVG Version: 6.00 Build 0)  -->
<!DOCTYPE svg PUBLIC "-//W3C//DTD SVG 1.1//EN" "http://www.w3.org/Graphics/SVG/1.1/DTD/svg11.dtd">
<svg version="1.1" id="Layer_1" xmlns="http://www.w3.org/2000/svg" xmlns:xlink="http://www.w3.org/1999/xlink" x="0px" y="0px"
	 viewBox="0 0 31.68 31.68" style="enable-background:new 0 0 31.68 31.68;" xml:space="preserve">
<g>
	<g>
		<path d="M24.43,8.37H7.25c-0.56,0-1.01,0.45-1.01,1.01v11.47c0,0.56,0.45,1.01,1.01,1.01h7.19v3.44c0,0.14,0.12,0.26,0.26,0.26
			c0.14,0,0.26-0.12,0.26-0.26v-3.44h1.76v2.2c0,0.14,0.12,0.26,0.26,0.26c0.14,0,0.26-0.12,0.26-0.26v-2.2h7.19
			c0.56,0,1.01-0.45,1.01-1.01V9.38C25.44,8.82,24.99,8.37,24.43,8.37 M24.92,20.85c0,0.27-0.22,0.49-0.49,0.49H7.25
			c-0.27,0-0.49-0.22-0.49-0.49V9.38c0-0.27,0.22-0.49,0.49-0.49h17.18c0.27,0,0.49,0.22,0.49,0.49L24.92,20.85L24.92,20.85z"/>
		<path d="M23.61,9.74H7.81c-0.11,0-0.2,0.09-0.2,0.2V20.3c0,0.11,0.09,0.2,0.2,0.2h15.81c0.11,0,0.2-0.09,0.2-0.2V9.93
			C23.81,9.83,23.72,9.74,23.61,9.74 M23.42,15.66h-0.98c0.08,0.1,0.16,0.23,0.23,0.38c0,0,0,0.01,0,0.01h0.75v4.05H8v-4.05h2.75
			c0.06,0,0.12-0.03,0.16-0.08l0.37-0.54l0.6,1.84c0.03,0.08,0.1,0.13,0.19,0.13c0.09,0,0.16-0.06,0.18-0.14l1.25-4.53l1.38,6.15
			c0.02,0.09,0.1,0.15,0.19,0.15h0.01c0.09,0,0.17-0.07,0.19-0.16l0.48-2.84l0.12,0.25c0.03,0.07,0.11,0.12,0.19,0.11
			c0.08,0,0.15-0.05,0.18-0.13l0.44-1.2L17,15.93c0.03,0.07,0.1,0.12,0.18,0.12h0.61c0-0.01,0-0.01,0.01-0.02
			c0.07-0.15,0.15-0.27,0.23-0.37h-0.7l-0.47-1.22c-0.03-0.08-0.1-0.12-0.18-0.13c-0.08,0-0.15,0.05-0.18,0.13l-0.46,1.24
			l-0.18-0.39c-0.04-0.08-0.12-0.12-0.2-0.11c-0.08,0.01-0.15,0.08-0.17,0.16l-0.42,2.48l-1.34-5.94c-0.02-0.09-0.1-0.15-0.19-0.15
			c-0.09,0-0.17,0.06-0.19,0.14l-1.28,4.65l-0.52-1.6c-0.02-0.07-0.08-0.12-0.16-0.13c-0.07-0.01-0.15,0.02-0.19,0.08l-0.53,0.78H8
			v-5.53h15.42L23.42,15.66L23.42,15.66z"/>
		<path d="M19.7,18.8l0.2,0.17c0.08,0.06,0.11,0.09,0.2,0.17c0.04,0.04,0.1,0.05,0.15,0.05c0.05,0,0.11-0.02,0.15-0.05
			c1.26-1.04,1.55-1.51,1.61-1.62c0.33-0.52,0.25-0.95,0.13-1.23c-0.13-0.28-0.33-0.44-0.37-0.48c-0.23-0.17-0.46-0.25-0.7-0.25
			c-0.37,0-0.65,0.2-0.83,0.36c-0.18-0.17-0.46-0.36-0.83-0.36c-0.24,0-0.48,0.08-0.71,0.25c-0.02,0.02-0.23,0.18-0.36,0.47
			c-0.12,0.27-0.2,0.71,0.12,1.23C18.48,17.57,18.7,17.93,19.7,18.8 M18.69,16.44c0.09-0.2,0.24-0.31,0.24-0.31
			c0.16-0.12,0.32-0.18,0.48-0.18c0.35,0,0.61,0.29,0.68,0.38c0.07,0.09,0.23,0.09,0.31,0c0.07-0.09,0.33-0.38,0.68-0.38
			c0.16,0,0.31,0.06,0.47,0.17c0.01,0,0.16,0.13,0.25,0.33c0.13,0.27,0.09,0.56-0.1,0.86c0,0.01-0.01,0.02-0.01,0.02
			c0,0-0.2,0.4-1.42,1.42c-0.03-0.03-0.06-0.05-0.1-0.08l-0.2-0.17c-0.97-0.84-1.16-1.17-1.16-1.18
			C18.59,17,18.56,16.71,18.69,16.44"/>
	</g>
</g>
</svg>
