<?xml version="1.0" encoding="utf-8"?>
<!-- Generator: Adobe Illustrator 21.1.0, SVG Export Plug-In . SVG Version: 6.00 Build 0)  -->
<!DOCTYPE svg PUBLIC "-//W3C//DTD SVG 1.1//EN" "http://www.w3.org/Graphics/SVG/1.1/DTD/svg11.dtd">
<svg version="1.1" id="Layer_1" xmlns="http://www.w3.org/2000/svg" xmlns:xlink="http://www.w3.org/1999/xlink" x="0px" y="0px"
	 viewBox="0 0 32 32" style="enable-background:new 0 0 32 32;" xml:space="preserve">
<path d="M25.42,15.91h-1.23v-4.39c0-0.17-0.14-0.31-0.31-0.31h-5.34V4.03c0-0.13-0.1-0.23-0.23-0.23h-1.35
	c-0.13,0-0.23,0.1-0.23,0.23v7.18h-0.9V4.03c0-0.13-0.1-0.23-0.23-0.23h-1.35c-0.13,0-0.23,0.1-0.23,0.23v7.18h-1.29
	c-0.17,0-0.31,0.14-0.31,0.31v4.39h-2.37V6.15c0-0.13-0.1-0.23-0.23-0.23H8.1c-0.13,0-0.23,0.1-0.23,0.23v9.76H6.58
	c-0.17,0-0.31,0.14-0.31,0.31v10.43c0,0.17,0.14,0.31,0.31,0.31h18.84c0.17,0,0.31-0.14,0.31-0.31V16.21
	C25.72,16.04,25.59,15.91,25.42,15.91L25.42,15.91z M25.11,24.77h-3.4v-2.32h3.4L25.11,24.77L25.11,24.77z M25.11,22.14H6.89v-1.33
	h18.22L25.11,22.14C25.11,22.14,25.11,22.14,25.11,22.14z M21.4,22.45v2.32h-3.17v-2.32H21.4z M17.93,22.45v2.32h-3.5v-2.32H17.93z
	 M14.12,22.45v2.32h-3.19v-2.32H14.12z M6.89,18.18h3.74v2.32H6.89V18.18z M6.89,24.33v-1.88h3.74v2.32H6.89V24.33L6.89,24.33z
	 M10.93,20.51v-2.32h3.19v2.32H10.93z M14.43,20.51v-2.32h3.5v2.32H14.43z M18.24,20.51v-2.32h3.17v2.32H18.24z M25.11,20.46v0.05
	h-3.4v-2.32h3.4L25.11,20.46L25.11,20.46z M13.05,15.32h10.52v0.58H13.05L13.05,15.32L13.05,15.32z M13.05,14.94v-2.22h3.14v2.3
	h-3.14V14.94z M16.5,15.02v-2.3H20v2.3H16.5z M23.58,12.8v2.22h-3.27v-2.3h3.27V12.8z M17.2,4.26h0.89v6.95H17.2V4.26z M14.49,4.26
	h0.89v6.95h-0.89V4.26z M13.05,11.83h10.52v0.59H13.05C13.05,12.41,13.05,11.83,13.05,11.83z M8.33,6.38h1.28v9.52H8.33
	C8.33,15.91,8.33,6.38,8.33,6.38z M6.89,17.44v-0.93h18.22v1.36H6.89C6.89,17.88,6.89,17.44,6.89,17.44z M6.44,20.82v-0.31l0,0
	V20.82z M25.11,26.34H6.89v-1.25h18.22L25.11,26.34L25.11,26.34z"/>
</svg>
