<?xml version="1.0" encoding="utf-8"?>
<!-- Generator: Adobe Illustrator 21.1.0, SVG Export Plug-In . SVG Version: 6.00 Build 0)  -->
<!DOCTYPE svg PUBLIC "-//W3C//DTD SVG 1.1//EN" "http://www.w3.org/Graphics/SVG/1.1/DTD/svg11.dtd">
<svg version="1.1" id="Layer_1" xmlns="http://www.w3.org/2000/svg" xmlns:xlink="http://www.w3.org/1999/xlink" x="0px" y="0px"
	 viewBox="0 0 32 32" style="enable-background:new 0 0 32 32;" xml:space="preserve">
<path d="M16,3.8c-4.37,0-7.94,3.54-7.94,7.91c0,1.82,0.3,3.16,0.75,4.21c0.68,1.57,1.7,2.46,2.5,3.34c0.4,0.44,0.74,0.88,0.99,1.41
	c0.24,0.53,0.4,1.14,0.4,1.96c0,0.19,0.06,0.37,0.16,0.52c-0.2,0.17-0.34,0.45-0.34,0.75v0.1c0,0.17,0.04,0.33,0.11,0.47
	c-0.07,0.14-0.11,0.31-0.11,0.48v0.1c0,0.17,0.04,0.33,0.11,0.48c-0.07,0.14-0.11,0.3-0.11,0.46v0.1c0,0.25,0.09,0.48,0.24,0.66
	c0.03,0.03,0.06,0.06,0.1,0.08c0.33,0.16,0.56,0.35,0.78,0.54c0.5,0.42,0.97,0.82,2.37,0.82s1.88-0.4,2.37-0.82
	c0.22-0.18,0.44-0.37,0.78-0.54c0.04-0.02,0.07-0.04,0.1-0.08c0.15-0.18,0.24-0.41,0.24-0.66V26c0-0.16-0.04-0.32-0.11-0.46
	c0.07-0.14,0.11-0.3,0.11-0.48v-0.1c0-0.18-0.04-0.34-0.11-0.48c0.07-0.14,0.11-0.3,0.11-0.47v-0.1c0-0.31-0.13-0.58-0.34-0.75
	c0.1-0.15,0.16-0.33,0.16-0.52c0-1.09,0.27-1.82,0.67-2.46c0.3-0.48,0.7-0.9,1.12-1.35c0.64-0.68,1.36-1.42,1.91-2.52
	c0.55-1.1,0.93-2.54,0.93-4.59C23.94,7.34,20.37,3.8,16,3.8z M18.86,24.01L18.86,24.01c0,0.1-0.03,0.2-0.09,0.26
	c-0.11,0.12-0.11,0.32,0.01,0.44c0.05,0.05,0.08,0.15,0.08,0.26v0.1c0,0.1-0.03,0.2-0.09,0.26c-0.11,0.12-0.11,0.3-0.01,0.43
	c0.06,0.07,0.09,0.16,0.09,0.25v0.1c0,0.08-0.02,0.15-0.06,0.21c-0.36,0.19-0.61,0.4-0.84,0.59c-0.44,0.37-0.79,0.67-1.97,0.67
	s-1.52-0.29-1.97-0.67c-0.22-0.19-0.47-0.4-0.84-0.59c-0.04-0.06-0.06-0.13-0.06-0.21V26c0-0.09,0.03-0.19,0.09-0.25
	c0.11-0.12,0.11-0.31-0.01-0.43c-0.06-0.06-0.09-0.15-0.09-0.26v-0.1c0-0.11,0.03-0.21,0.08-0.26c0.12-0.12,0.12-0.31,0.01-0.44
	c-0.06-0.06-0.09-0.15-0.09-0.26v-0.1c0-0.17,0.11-0.33,0.23-0.33h5.26c0.12,0,0.23,0.15,0.23,0.33L18.86,24.01L18.86,24.01z
	 M22.61,15.67c-0.62,1.43-1.55,2.24-2.39,3.17c-0.42,0.46-0.81,0.95-1.09,1.56c-0.28,0.61-0.46,1.33-0.46,2.23
	c0,0.17-0.14,0.32-0.32,0.32h-4.73c-0.17,0-0.32-0.14-0.32-0.32c0-1.2-0.31-2.08-0.77-2.8c-0.35-0.54-0.77-0.99-1.19-1.45
	c-0.64-0.68-1.3-1.37-1.8-2.37c-0.5-1-0.86-2.33-0.86-4.3c0-2.01,0.82-3.83,2.15-5.14c1.33-1.32,3.15-2.13,5.16-2.13
	s3.84,0.81,5.16,2.13s2.15,3.13,2.15,5.14C23.31,13.47,23.03,14.71,22.61,15.67L22.61,15.67z M21.86,15.02
	c-0.08-0.03-0.17,0.01-0.21,0.09c-0.05,0.12-0.1,0.23-0.15,0.34c-0.04,0.08-0.01,0.17,0.07,0.21c0.02,0.01,0.05,0.02,0.07,0.02
	c0.06,0,0.11-0.03,0.14-0.09c0.06-0.11,0.11-0.23,0.16-0.36C21.98,15.15,21.94,15.05,21.86,15.02L21.86,15.02z M22.32,12.76
	c-0.09-0.01-0.16,0.06-0.17,0.14c-0.02,0.18-0.04,0.35-0.06,0.52c-0.02,0.17-0.05,0.33-0.08,0.48c-0.03,0.15-0.07,0.3-0.1,0.44
	c-0.02,0.08,0.03,0.17,0.11,0.19c0.01,0,0.03,0.01,0.04,0.01c0.07,0,0.13-0.05,0.15-0.12c0.04-0.15,0.07-0.3,0.11-0.46
	c0.03-0.16,0.06-0.32,0.09-0.5c0.02-0.17,0.05-0.35,0.06-0.54C22.48,12.84,22.41,12.76,22.32,12.76L22.32,12.76z M22.39,10.41
	c-0.04-0.21-0.1-0.42-0.16-0.62c-0.06-0.2-0.14-0.4-0.22-0.6C21.92,9,21.83,8.81,21.73,8.62c-0.1-0.18-0.21-0.36-0.33-0.53
	c-0.12-0.17-0.25-0.34-0.38-0.5c-0.13-0.16-0.27-0.31-0.42-0.46c-0.15-0.15-0.3-0.29-0.46-0.42c-0.16-0.13-0.33-0.26-0.5-0.37
	c-0.07-0.05-0.17-0.03-0.22,0.04c-0.05,0.07-0.03,0.17,0.04,0.22c0.16,0.11,0.32,0.23,0.48,0.36c0.15,0.13,0.3,0.26,0.44,0.4
	c0.14,0.14,0.27,0.29,0.4,0.44c0.12,0.15,0.25,0.31,0.36,0.48c0.11,0.16,0.22,0.34,0.31,0.51c0.1,0.18,0.18,0.36,0.26,0.54
	c0.08,0.19,0.15,0.38,0.21,0.57c0.06,0.19,0.11,0.39,0.15,0.59c0.04,0.2,0.07,0.41,0.09,0.61c0.02,0.21,0.03,0.42,0.03,0.63
	c0,0.09,0.07,0.16,0.16,0.16s0.16-0.07,0.16-0.16c0-0.22-0.01-0.44-0.03-0.66C22.46,10.84,22.43,10.62,22.39,10.41L22.39,10.41z
	 M19.23,11.9c-0.12-0.04-0.26,0.02-0.3,0.14l-0.16,0.44c-0.19-0.02-0.29-0.13-0.4-0.26l-0.05-0.06c-0.02-0.02-0.04-0.05-0.05-0.07
	c-0.06-0.09-0.16-0.23-0.37-0.23c-0.22,0-0.33,0.15-0.4,0.25c-0.01,0.02-0.03,0.04-0.04,0.05l-0.03,0.04
	c-0.12,0.14-0.23,0.28-0.47,0.28c-0.26,0-0.38-0.15-0.5-0.31c-0.01-0.02-0.03-0.04-0.04-0.06c-0.07-0.1-0.17-0.27-0.39-0.27
	c-0.22,0-0.33,0.16-0.39,0.26c-0.02,0.02-0.03,0.04-0.04,0.06l-0.04,0.05c-0.12,0.14-0.23,0.27-0.46,0.27
	c-0.26,0-0.39-0.15-0.49-0.3l-0.02-0.04c-0.07-0.11-0.18-0.3-0.42-0.3c-0.23,0-0.34,0.18-0.41,0.29l-0.03,0.05
	c-0.11,0.16-0.23,0.29-0.47,0.3l-0.15-0.41c-0.04-0.12-0.18-0.19-0.3-0.14s-0.19,0.18-0.15,0.3l1.44,4.07
	c0.08,0.21,0.15,0.59,0.16,0.82l0.23,4.46c0.01,0.13,0.11,0.22,0.24,0.22h0.01c0.13-0.01,0.23-0.12,0.22-0.25l-0.23-4.46
	c-0.01-0.28-0.1-0.69-0.19-0.95l-1.18-3.35c0.35-0.05,0.53-0.3,0.62-0.43c0.01-0.02,0.03-0.04,0.04-0.06
	c0.06-0.1,0.09-0.14,0.14-0.14c0.05,0,0.09,0.04,0.15,0.15l0.03,0.05c0.12,0.19,0.33,0.45,0.76,0.45c0.39,0,0.58-0.23,0.71-0.39
	l0.04-0.05c0.02-0.03,0.05-0.06,0.07-0.09c0.06-0.09,0.09-0.12,0.13-0.12c0.04,0,0.07,0.03,0.13,0.12c0.02,0.03,0.04,0.06,0.06,0.09
	c0.13,0.17,0.33,0.43,0.75,0.43c0.39,0,0.59-0.24,0.72-0.4l0.03-0.04c0.02-0.02,0.03-0.05,0.05-0.07c0.07-0.09,0.1-0.12,0.15-0.12
	c0.04,0,0.05,0.01,0.11,0.09c0.02,0.03,0.05,0.07,0.08,0.1l0.05,0.05c0.11,0.13,0.26,0.31,0.54,0.36l-1.17,3.32
	c-0.09,0.26-0.17,0.67-0.19,0.95l-0.23,4.46c-0.01,0.13,0.09,0.24,0.22,0.25h0.01c0.12,0,0.23-0.1,0.24-0.22l0.23-4.46
	c0.01-0.23,0.09-0.6,0.16-0.82l1.44-4.07C19.42,12.08,19.35,11.95,19.23,11.9L19.23,11.9z M14.2,24.66h3c0.09,0,0.16-0.07,0.16-0.16
	c0-0.09-0.07-0.16-0.16-0.16h-3c-0.09,0-0.16,0.07-0.16,0.16C14.04,24.59,14.11,24.66,14.2,24.66z M18.16,25.36H13.9
	c-0.09,0-0.16,0.07-0.16,0.16c0,0.09,0.07,0.16,0.16,0.16h4.26c0.09,0,0.16-0.07,0.16-0.16C18.32,25.44,18.25,25.36,18.16,25.36z
	 M17.21,26.38h-2.36c-0.09,0-0.16,0.07-0.16,0.16s0.07,0.16,0.16,0.16h2.36c0.09,0,0.16-0.07,0.16-0.16
	C17.37,26.45,17.3,26.38,17.21,26.38z"/>
</svg>
