<?xml version="1.0" encoding="utf-8"?>
<!-- Generator: Adobe Illustrator 21.1.0, SVG Export Plug-In . SVG Version: 6.00 Build 0)  -->
<!DOCTYPE svg PUBLIC "-//W3C//DTD SVG 1.1//EN" "http://www.w3.org/Graphics/SVG/1.1/DTD/svg11.dtd">
<svg version="1.1" id="Layer_1" xmlns="http://www.w3.org/2000/svg" xmlns:xlink="http://www.w3.org/1999/xlink" x="0px" y="0px"
	 viewBox="0 0 32 32" style="enable-background:new 0 0 32 32;" xml:space="preserve">
<style type="text/css">
	.st0{fill:#010101;}
</style>
<g>
	<path class="st0" d="M15.77,17.45c0.06,0.07,0.14,0.11,0.23,0.11c0.09,0,0.17-0.04,0.23-0.11l5-6.01c0.16-0.19,0.19-0.46,0.06-0.69
		c-0.12-0.22-0.37-0.34-0.62-0.3l-2.05,0.3V3.88c0-0.16-0.13-0.3-0.3-0.3h-4.67c-0.16,0-0.3,0.13-0.3,0.3v6.88l-2.05-0.3
		c-0.25-0.04-0.49,0.08-0.62,0.3c-0.12,0.22-0.1,0.49,0.06,0.69L15.77,17.45z M13.62,11.39c0.09,0.01,0.17-0.01,0.24-0.07
		c0.06-0.06,0.1-0.14,0.1-0.22V4.17h4.07v6.92c0,0.09,0.04,0.17,0.1,0.22c0.07,0.06,0.15,0.08,0.24,0.07l2.4-0.33L16,16.79
		l-4.76-5.76L13.62,11.39z"/>
	<path class="st0" d="M25.69,20.22l-3.04-1.53c-0.03-0.02-0.07-0.02-0.1-0.02H9.96c-0.03,0-0.06,0.01-0.09,0.02l-3.55,1.53
		c-0.08,0.03-0.13,0.11-0.13,0.2v0.17v5.61c0,0.12,0.1,0.22,0.22,0.22h19.18c0.12,0,0.22-0.1,0.22-0.22v-5.61v-0.17
		C25.81,20.34,25.76,20.26,25.69,20.22z M10,19.12H22.5l2.49,1.25H7.1L10,19.12z M25.37,25.98H6.63v-5.16h18.73
		C25.37,20.81,25.37,25.98,25.37,25.98z"/>
	<path class="st0" d="M21.15,24.74h1.02c0.08,0,0.15-0.07,0.15-0.15v-2.64c0-0.08-0.07-0.15-0.15-0.15h-1.02
		c-0.08,0-0.15,0.07-0.15,0.15v2.64C21,24.68,21.07,24.74,21.15,24.74z M21.3,22.1h0.72v2.35H21.3C21.3,24.45,21.3,22.1,21.3,22.1z"
		/>
	<path class="st0" d="M23.15,24.74h1.02c0.08,0,0.15-0.07,0.15-0.15v-2.64c0-0.08-0.07-0.15-0.15-0.15h-1.02
		c-0.08,0-0.15,0.07-0.15,0.15v2.64C23,24.68,23.07,24.74,23.15,24.74z M23.3,22.1h0.72v2.35H23.3V22.1z"/>
	<circle class="st0" cx="8.43" cy="23.37" r="0.48"/>
	<circle class="st0" cx="10.05" cy="23.37" r="0.48"/>
</g>
</svg>
