<?xml version="1.0" encoding="utf-8"?>
<!-- Generator: Adobe Illustrator 21.1.0, SVG Export Plug-In . SVG Version: 6.00 Build 0)  -->
<!DOCTYPE svg PUBLIC "-//W3C//DTD SVG 1.1//EN" "http://www.w3.org/Graphics/SVG/1.1/DTD/svg11.dtd">
<svg version="1.1" id="Layer_1" xmlns="http://www.w3.org/2000/svg" xmlns:xlink="http://www.w3.org/1999/xlink" x="0px" y="0px"
	 viewBox="0 0 32 32" style="enable-background:new 0 0 32 32;" xml:space="preserve">
<style type="text/css">
	.st0{fill:#010101;}
</style>
<path class="st0" d="M16,4.67C9.75,4.67,4.67,9.75,4.67,16S9.75,27.33,16,27.33S27.33,22.25,27.33,16S22.25,4.67,16,4.67z
	 M26.68,17.13c-1.31-0.76-2.56-1.83-3.63-3.04c0.12-0.14,0.19-0.31,0.19-0.5c0-0.2-0.08-0.38-0.2-0.52
	c0.62-0.94,1.33-1.81,2.15-2.62c0.98,1.62,1.55,3.52,1.55,5.55C26.74,16.38,26.72,16.76,26.68,17.13z M25.93,20.08
	c-1.64-0.14-3.22-0.52-4.69-1.12c0.01-0.04,0.01-0.08,0.01-0.13c0-0.29-0.17-0.54-0.41-0.67c0.32-1.34,0.8-2.63,1.45-3.84
	c0.06,0.02,0.12,0.03,0.19,0.03c0.12,0,0.23-0.03,0.33-0.08c1.12,1.28,2.44,2.38,3.83,3.17C26.51,18.37,26.27,19.25,25.93,20.08z
	 M20.83,25.59c-0.12-0.51-0.22-1.02-0.28-1.54c0.09-0.03,0.17-0.08,0.24-0.14c0.38,0.34,0.75,0.7,1.1,1.07
	C21.55,25.2,21.19,25.4,20.83,25.59z M19.97,22.15c-0.16,0.03-0.3,0.11-0.42,0.21c-2.52-1.77-5.46-2.88-8.55-3.19
	c-0.09-0.45-0.49-0.79-0.96-0.8c-0.12-0.81-0.18-1.65-0.16-2.51c0.01-0.62,0.07-1.23,0.15-1.84c0.43-0.07,0.77-0.41,0.83-0.85
	c0.6-0.06,1.19-0.14,1.79-0.24c0.13,0.24,0.38,0.41,0.68,0.41c0.13,0,0.25-0.03,0.36-0.09c1.55,2.25,3.64,4.09,6.08,5.34
	c-0.02,0.07-0.04,0.15-0.04,0.23c0,0.3,0.17,0.55,0.42,0.68c-0.11,0.79-0.17,1.59-0.17,2.4C19.96,21.99,19.97,22.07,19.97,22.15z
	 M19.8,10.42c0.14,0.13,0.32,0.21,0.53,0.21c0.05,0,0.09-0.01,0.13-0.01c0.23,0.54,0.52,1.09,0.86,1.64
	c0.18,0.28,0.36,0.57,0.56,0.84c-0.11,0.13-0.17,0.3-0.17,0.48c0,0.2,0.08,0.37,0.2,0.51c-0.67,1.25-1.17,2.59-1.5,3.98
	c-0.2,0.02-0.38,0.12-0.51,0.27c-2.4-1.24-4.46-3.05-5.99-5.27c0.1-0.12,0.16-0.27,0.17-0.43C16.14,12.16,18.12,11.4,19.8,10.42z
	 M20.15,6.1c0.92,0.39,1.77,0.9,2.54,1.51c-0.54,0.59-1.18,1.14-1.91,1.65c-0.13-0.1-0.28-0.15-0.46-0.15
	c-0.02,0-0.05,0.01-0.07,0.01C19.98,8.07,19.93,7.04,20.15,6.1z M12.56,12.48c-0.59,0.1-1.17,0.19-1.76,0.24
	c-0.08-0.22-0.22-0.4-0.41-0.52c0.29-1.11,0.69-2.16,1.2-3.12c0.33,1.01,0.77,1.98,1.28,2.89C12.71,12.09,12.59,12.27,12.56,12.48z
	 M24.94,10.06c-0.87,0.85-1.64,1.79-2.29,2.78c-0.06-0.01-0.12-0.02-0.18-0.02c-0.13,0-0.25,0.03-0.36,0.09
	c-0.55-0.77-1.02-1.58-1.38-2.4c0.21-0.14,0.35-0.37,0.35-0.64c0-0.09-0.02-0.17-0.04-0.24c0.75-0.53,1.42-1.11,1.98-1.73
	C23.76,8.53,24.41,9.26,24.94,10.06z M19.87,5.99c-0.24,0.97-0.21,2.06,0.09,3.21c-0.24,0.13-0.4,0.38-0.4,0.67
	c0,0.05,0,0.1,0.01,0.15c-1.65,0.94-3.59,1.68-5.61,2.17c-0.14-0.22-0.38-0.36-0.65-0.36c-0.06,0-0.12,0.01-0.18,0.02
	c-0.55-0.98-1.01-2.03-1.35-3.12c0.77-1.37,1.75-2.53,2.88-3.38C15.1,5.29,15.55,5.26,16,5.26C17.36,5.26,18.67,5.52,19.87,5.99z
	 M11.62,8.14c-0.15-0.57-0.28-1.16-0.37-1.76c0.8-0.4,1.65-0.7,2.55-0.88C12.97,6.22,12.23,7.12,11.62,8.14z M10.97,6.52
	c0.11,0.67,0.25,1.34,0.44,1.98c-0.61,1.09-1.1,2.29-1.44,3.57c-0.03,0-0.06-0.01-0.1-0.01c-0.47,0-0.86,0.33-0.97,0.77
	c-1.06,0.01-2.1-0.07-3.08-0.25C6.71,9.96,8.57,7.8,10.97,6.52z M5.69,13c1.02,0.19,2.08,0.28,3.17,0.28c0.01,0,0.02,0,0.03,0
	C8.98,13.62,9.24,13.9,9.58,14c-0.08,0.61-0.14,1.24-0.15,1.86c-0.02,0.9,0.04,1.77,0.17,2.61c-0.25,0.12-0.45,0.34-0.53,0.62
	c-1.09,0.01-2.18,0.12-3.25,0.33C5.46,18.34,5.26,17.2,5.26,16C5.26,14.96,5.41,13.95,5.69,13z M5.98,19.84
	c1.01-0.19,2.03-0.3,3.07-0.31c0.08,0.47,0.49,0.83,0.98,0.83c0,0,0,0,0,0c0.71,2.39,2.04,4.49,3.93,6.17
	C10.29,25.83,7.29,23.25,5.98,19.84z M14.8,26.67c-2.11-1.69-3.58-3.88-4.34-6.41c0.26-0.13,0.45-0.36,0.52-0.64
	c2.99,0.3,5.85,1.38,8.29,3.09c-0.06,0.13-0.09,0.26-0.09,0.41c0,0.53,0.41,0.95,0.93,0.99c0.07,0.56,0.18,1.12,0.31,1.67
	c-1.35,0.61-2.84,0.95-4.42,0.95C15.59,26.74,15.19,26.71,14.8,26.67z M22.26,24.72c-0.38-0.4-0.77-0.79-1.19-1.16
	c0.07-0.13,0.1-0.28,0.1-0.44c0-0.47-0.33-0.86-0.76-0.97c0-0.08-0.01-0.16-0.01-0.25c0-0.78,0.06-1.56,0.17-2.32
	c0.24-0.03,0.44-0.16,0.56-0.35c1.47,0.59,3.04,0.98,4.68,1.13C25.02,22.11,23.79,23.61,22.26,24.72z"/>
</svg>
