<?xml version="1.0" encoding="utf-8"?>
<!-- Generator: Adobe Illustrator 21.1.0, SVG Export Plug-In . SVG Version: 6.00 Build 0)  -->
<!DOCTYPE svg PUBLIC "-//W3C//DTD SVG 1.1//EN" "http://www.w3.org/Graphics/SVG/1.1/DTD/svg11.dtd">
<svg version="1.1" id="Layer_1" xmlns="http://www.w3.org/2000/svg" xmlns:xlink="http://www.w3.org/1999/xlink" x="0px" y="0px"
	 viewBox="0 0 32 32" style="enable-background:new 0 0 32 32;" xml:space="preserve">
<path d="M24.58,6.89H7.42c-0.17,0-0.31,0.14-0.31,0.31v17.61c0,0.17,0.14,0.31,0.31,0.31h17.17c0.17,0,0.31-0.14,0.31-0.31V7.19
	C24.89,7.02,24.75,6.89,24.58,6.89L24.58,6.89z M24.28,24.5H7.72v-17h16.55L24.28,24.5L24.28,24.5z M8.58,23.68H23.3
	c0.13,0,0.23-0.1,0.23-0.23V8.73c0-0.13-0.1-0.23-0.23-0.23h-2.06c-0.03-0.14-0.13-0.42-0.36-0.56c-0.14-0.08-0.3-0.1-0.46-0.04
	c-0.25,0.09-0.44,0.26-0.53,0.5c-0.01,0.03-0.02,0.07-0.03,0.11h-7.78c-0.04-0.14-0.13-0.42-0.36-0.56c-0.14-0.08-0.3-0.1-0.46-0.04
	c-0.25,0.09-0.44,0.26-0.53,0.5c-0.01,0.03-0.02,0.07-0.03,0.11H8.58c-0.13,0-0.23,0.1-0.23,0.23v14.72
	C8.35,23.58,8.46,23.69,8.58,23.68L8.58,23.68z M11.43,8.49c0,0,0,0.01,0.01,0.01h-0.02C11.41,8.5,11.42,8.5,11.43,8.49z M8.81,8.96
	h1.87c0.06,0.55,0.37,1.11,0.41,1.19c0.06,0.1,0.16,0.15,0.27,0.15c0.05,0,0.1-0.01,0.15-0.04c0.15-0.08,0.2-0.27,0.11-0.42
	c-0.11-0.19-0.28-0.57-0.33-0.89h8.55c0.06,0.55,0.37,1.11,0.41,1.19c0.06,0.1,0.16,0.15,0.27,0.15c0.05,0,0.1-0.01,0.15-0.04
	c0.15-0.08,0.2-0.27,0.11-0.42c-0.11-0.19-0.28-0.57-0.33-0.89h2.61v2.17H8.81L8.81,8.96L8.81,8.96z M8.81,11.59h14.26v11.63H8.81
	C8.81,23.22,8.81,11.59,8.81,11.59z M11.88,9.32c-0.07-0.05-0.16-0.04-0.22,0.03c-0.05,0.07-0.04,0.16,0.03,0.22
	c0.07,0.06,0.13,0.13,0.17,0.21c0.06,0.13,0.07,0.28,0.01,0.42s-0.15,0.25-0.29,0.31c-0.13,0.06-0.28,0.06-0.42,0.01
	c-0.14-0.05-0.25-0.15-0.31-0.29c-0.04-0.08-0.05-0.17-0.05-0.26c0.01-0.09-0.06-0.16-0.14-0.16c-0.09,0-0.16,0.06-0.16,0.14
	c-0.01,0.14,0.02,0.28,0.07,0.41c0.09,0.21,0.26,0.37,0.48,0.45c0.1,0.04,0.2,0.06,0.3,0.06c0.12,0,0.24-0.03,0.35-0.08
	c0.21-0.09,0.37-0.26,0.45-0.48c0.08-0.22,0.07-0.45-0.02-0.66C12.09,9.52,12,9.41,11.88,9.32L11.88,9.32z M21.05,9.32
	c-0.07-0.05-0.16-0.04-0.22,0.03s-0.04,0.16,0.03,0.22c0.08,0.06,0.13,0.13,0.17,0.21c0.06,0.13,0.07,0.28,0.01,0.42
	s-0.15,0.25-0.29,0.31c-0.13,0.06-0.28,0.07-0.42,0.01c-0.14-0.05-0.25-0.15-0.31-0.29c-0.04-0.08-0.05-0.17-0.05-0.26
	c0-0.09-0.06-0.16-0.14-0.16c-0.08-0.01-0.16,0.06-0.16,0.14c-0.01,0.14,0.02,0.28,0.07,0.41c0.09,0.21,0.26,0.37,0.48,0.45
	c0.1,0.04,0.2,0.06,0.3,0.06c0.12,0,0.24-0.03,0.35-0.08c0.21-0.09,0.37-0.27,0.45-0.48s0.07-0.45-0.02-0.66
	C21.25,9.52,21.16,9.41,21.05,9.32z M16.51,17.4c-0.12-0.14-0.27-0.25-0.44-0.34c-0.06-0.03-0.11-0.05-0.17-0.08
	c0.02-0.01,0.05-0.03,0.07-0.04c0.13-0.09,0.24-0.19,0.34-0.32c0.09-0.12,0.17-0.27,0.23-0.43c0.06-0.16,0.09-0.35,0.09-0.57
	c0-0.4-0.07-0.74-0.22-1.02c-0.15-0.28-0.36-0.52-0.63-0.69c-0.27-0.17-0.59-0.3-0.95-0.37c-0.36-0.07-0.76-0.11-1.19-0.11
	c-0.32,0-0.62,0.02-0.89,0.07c-0.27,0.05-0.53,0.12-0.76,0.21c-0.23,0.09-0.45,0.19-0.65,0.31c-0.19,0.11-0.38,0.24-0.55,0.37
	c-0.06,0.05-0.08,0.14-0.03,0.21l0.94,1.28c0.05,0.07,0.14,0.08,0.21,0.03c0.27-0.19,0.53-0.33,0.8-0.43
	c0.26-0.1,0.56-0.15,0.88-0.15c0.4,0,0.59,0.07,0.68,0.12c0.11,0.07,0.16,0.16,0.16,0.3c0,0.12-0.02,0.29-0.11,0.35
	c-0.05,0.04-0.19,0.09-0.56,0.09h-0.91c-0.09,0-0.15,0.07-0.15,0.15v1.53c0,0.08,0.07,0.15,0.15,0.15h1.03
	c0.41,0,0.61,0.07,0.69,0.13c0.11,0.07,0.16,0.2,0.16,0.4c0,0.19-0.06,0.33-0.2,0.41c-0.16,0.1-0.43,0.15-0.81,0.15
	c-0.37,0-0.72-0.06-1.03-0.19c-0.32-0.13-0.62-0.3-0.9-0.52c-0.07-0.05-0.16-0.04-0.21,0.03l-1.02,1.28
	c-0.05,0.06-0.04,0.16,0.02,0.21c0.4,0.35,0.86,0.63,1.38,0.83c0.52,0.2,1.1,0.3,1.72,0.3c0.49,0,0.94-0.05,1.34-0.14
	c0.4-0.1,0.75-0.25,1.04-0.45c0.29-0.21,0.51-0.47,0.67-0.79c0.16-0.32,0.23-0.7,0.23-1.14c0-0.24-0.04-0.46-0.11-0.65
	C16.73,17.71,16.63,17.54,16.51,17.4L16.51,17.4z M16.41,19.56c-0.13,0.27-0.33,0.5-0.57,0.68c-0.25,0.18-0.56,0.32-0.93,0.4
	c-0.37,0.09-0.8,0.13-1.27,0.13c-0.59,0-1.13-0.09-1.61-0.28c-0.44-0.17-0.83-0.39-1.17-0.68l0.83-1.05
	c0.27,0.19,0.55,0.35,0.85,0.47c0.35,0.14,0.73,0.21,1.15,0.21c0.45,0,0.77-0.07,0.98-0.2c0.23-0.15,0.35-0.38,0.35-0.67
	c0-0.3-0.1-0.52-0.3-0.66c-0.18-0.12-0.46-0.18-0.86-0.18h-0.87v-1.23h0.76c0.35,0,0.59-0.05,0.73-0.15
	c0.16-0.11,0.24-0.31,0.24-0.6c0-0.24-0.1-0.44-0.3-0.56c-0.18-0.12-0.45-0.17-0.84-0.17c-0.36,0-0.69,0.06-0.99,0.17
	c-0.25,0.09-0.5,0.22-0.74,0.39l-0.76-1.04c0.13-0.09,0.26-0.18,0.4-0.26c0.19-0.11,0.39-0.2,0.6-0.28c0.22-0.08,0.45-0.15,0.7-0.19
	s0.53-0.07,0.84-0.07c0.42,0,0.8,0.03,1.13,0.1c0.33,0.07,0.61,0.18,0.85,0.33c0.23,0.15,0.4,0.34,0.53,0.58
	c0.12,0.24,0.19,0.53,0.19,0.88c0,0.18-0.02,0.33-0.07,0.46c-0.05,0.13-0.11,0.25-0.19,0.35c-0.07,0.1-0.16,0.18-0.27,0.25
	c-0.11,0.07-0.22,0.14-0.34,0.2c-0.06,0.03-0.09,0.09-0.08,0.15c0.01,0.06,0.05,0.12,0.11,0.13c0.15,0.04,0.3,0.09,0.44,0.17
	c0.13,0.07,0.25,0.16,0.35,0.27c0.1,0.11,0.18,0.25,0.24,0.41c0.06,0.16,0.09,0.34,0.09,0.54C16.61,18.94,16.54,19.28,16.41,19.56
	L16.41,19.56z M20.65,13.54h-1.65c-0.07,0-0.12,0.04-0.15,0.1c-0.05,0.15-0.11,0.28-0.18,0.39c-0.06,0.1-0.14,0.18-0.24,0.24
	c-0.1,0.06-0.22,0.12-0.37,0.15c-0.15,0.04-0.34,0.06-0.56,0.08c-0.08,0.01-0.14,0.07-0.14,0.15v1.25c0,0.09,0.07,0.15,0.15,0.15
	h1.05v4.75c0,0.08,0.07,0.15,0.15,0.15h1.93c0.08,0,0.15-0.07,0.15-0.15V13.7C20.81,13.61,20.74,13.55,20.65,13.54L20.65,13.54z
	 M20.5,20.66h-1.62v-4.75c0-0.09-0.07-0.15-0.15-0.15h-1.05v-0.95c0.18-0.02,0.34-0.04,0.47-0.07c0.18-0.05,0.33-0.11,0.46-0.19
	c0.13-0.09,0.25-0.2,0.33-0.34c0.07-0.1,0.12-0.22,0.17-0.35h1.39L20.5,20.66L20.5,20.66z"/>
</svg>
