<?xml version="1.0" encoding="utf-8"?>
<!-- Generator: Adobe Illustrator 21.1.0, SVG Export Plug-In . SVG Version: 6.00 Build 0)  -->
<!DOCTYPE svg PUBLIC "-//W3C//DTD SVG 1.1//EN" "http://www.w3.org/Graphics/SVG/1.1/DTD/svg11.dtd">
<svg version="1.1" id="Layer_1" xmlns="http://www.w3.org/2000/svg" xmlns:xlink="http://www.w3.org/1999/xlink" x="0px" y="0px"
	 viewBox="0 0 32 32" style="enable-background:new 0 0 32 32;" xml:space="preserve">
<path d="M9.1,24.94c-0.31,0-0.61-0.12-0.83-0.34l-0.79-0.79c-0.46-0.46-0.47-1.22-0.01-1.69l5.61-5.75c0.16-0.17,0.3-0.31,0.4-0.42
	c-0.1-0.1-0.23-0.23-0.42-0.43L7.48,9.86C7.02,9.39,7.02,8.64,7.48,8.18l0.78-0.78C8.71,6.95,9.5,6.95,9.94,7.4l5.62,5.69
	c0.16,0.16,0.31,0.31,0.42,0.42c0.1-0.1,0.25-0.24,0.42-0.4l5.76-5.66C22.38,7.22,22.68,7.1,23,7.1c0.32,0,0.62,0.12,0.85,0.35
	l0.61,0.61c0.46,0.46,0.47,1.22,0.01,1.69l-5.57,5.78c-0.18,0.18-0.31,0.32-0.41,0.42c0.11,0.11,0.25,0.26,0.41,0.42l5.63,5.7
	c0.46,0.47,0.46,1.22-0.01,1.68l-0.78,0.78c-0.45,0.45-1.23,0.45-1.68,0L16.4,18.8c-0.17-0.17-0.32-0.32-0.42-0.42
	c-0.1,0.1-0.24,0.24-0.41,0.42l-5.61,5.78C9.73,24.81,9.43,24.94,9.1,24.94L9.1,24.94z M14.12,15.72c0.06,0.05,0.09,0.12,0.1,0.2
	c0.01,0.15,0.01,0.15-0.69,0.88l-5.61,5.75c-0.22,0.23-0.22,0.6,0.01,0.83l0.79,0.79c0.22,0.22,0.59,0.21,0.8-0.01l5.61-5.79
	c0.7-0.72,0.7-0.72,0.85-0.72c0.02,0,0.03,0,0.05,0c0.12,0.02,0.12,0.02,0.8,0.72l5.66,5.73c0.21,0.22,0.59,0.22,0.81,0l0.78-0.78
	c0.23-0.23,0.23-0.59,0-0.82l-5.63-5.7c-0.76-0.77-0.76-0.77-0.68-0.96c0.02-0.04,0.04-0.07,0.07-0.1c0.03-0.04,0.3-0.3,0.61-0.63
	l5.57-5.78c0.22-0.23,0.22-0.6-0.01-0.83l-0.61-0.61c-0.22-0.22-0.6-0.22-0.82,0l-5.76,5.66c-0.71,0.7-0.71,0.7-0.85,0.7
	c-0.06,0-0.13-0.02-0.18-0.06c-0.03-0.02-0.03-0.02-0.67-0.67L9.51,7.83c-0.22-0.22-0.59-0.22-0.81,0L7.92,8.61
	c-0.23,0.23-0.23,0.59,0,0.82l5.59,5.67C13.82,15.42,14.09,15.69,14.12,15.72L14.12,15.72z"/>
</svg>
