<?xml version="1.0" encoding="utf-8"?>
<!-- Generator: Adobe Illustrator 21.1.0, SVG Export Plug-In . SVG Version: 6.00 Build 0)  -->
<!DOCTYPE svg PUBLIC "-//W3C//DTD SVG 1.1//EN" "http://www.w3.org/Graphics/SVG/1.1/DTD/svg11.dtd">
<svg version="1.1" id="Layer_1" xmlns="http://www.w3.org/2000/svg" xmlns:xlink="http://www.w3.org/1999/xlink" x="0px" y="0px"
	 viewBox="0 0 32 32" style="enable-background:new 0 0 32 32;" xml:space="preserve">
<path d="M16,10.9c2.35,0,4.26-1.91,4.26-4.26S18.34,2.39,16,2.39s-4.26,1.91-4.26,4.25C11.74,8.99,13.65,10.9,16,10.9z M16,3
	c2.01,0,3.64,1.63,3.64,3.64c0,2.01-1.63,3.64-3.64,3.64s-3.64-1.63-3.64-3.64S13.99,3,16,3z M18.33,11.72h-4.67
	c-4.34,0-6.73,2.39-6.73,6.73v3.75c0,2.12,1.41,3.16,2.91,4.26l0.2,0.15V28c0,0.08,0.03,0.15,0.08,0.2
	c0.29,0.33,1.58,1.41,5.88,1.41c4.3,0,5.59-1.08,5.88-1.41c0.05-0.06,0.08-0.13,0.08-0.2v-1.4l0.2-0.14c1.5-1.1,2.91-2.14,2.91-4.26
	v-3.75C25.06,14.11,22.67,11.72,18.33,11.72L18.33,11.72z M24.45,22.19c0,1.81-1.23,2.72-2.65,3.77v-8.11
	c0-0.15-0.12-0.27-0.27-0.27s-0.27,0.12-0.27,0.27v10.1C20.81,28.29,19.49,29,16,29c-3.62,0-4.91-0.76-5.3-1.09
	c0.01-0.02,0.02-0.05,0.02-0.08v-9.99c0-0.15-0.12-0.27-0.27-0.27s-0.27,0.12-0.27,0.27v8.09c-1.41-1.04-2.63-1.94-2.63-3.74v-3.75
	c0-2.79,1.06-6.11,6.11-6.11h4.67c5.05,0,6.11,3.32,6.11,6.11V22.19L24.45,22.19z"/>
</svg>
