<?xml version="1.0" encoding="utf-8"?>
<!-- Generator: Adobe Illustrator 21.1.0, SVG Export Plug-In . SVG Version: 6.00 Build 0)  -->
<!DOCTYPE svg PUBLIC "-//W3C//DTD SVG 1.1//EN" "http://www.w3.org/Graphics/SVG/1.1/DTD/svg11.dtd">
<svg version="1.1" id="Layer_1" xmlns="http://www.w3.org/2000/svg" xmlns:xlink="http://www.w3.org/1999/xlink" x="0px" y="0px"
	 viewBox="0 0 32 32" style="enable-background:new 0 0 32 32;" xml:space="preserve">
<path d="M23.19,14c-0.59,0-1.15,0.11-1.67,0.31l-0.79-2.72c-0.01-0.03-0.02-0.07-0.02-0.1l-0.12-1.12l1.15-0.57
	c0.03,0.04,0.07,0.07,0.12,0.1c0.54,0.33,0.73,0.6,0.72,0.74c-0.01,0.2-0.39,0.46-0.64,0.57c-0.25,0.1-0.37,0.39-0.26,0.64
	c0.08,0.19,0.26,0.3,0.45,0.3c0.06,0,0.12-0.01,0.19-0.04c0.12-0.05,1.17-0.51,1.24-1.4c0.05-0.59-0.35-1.15-1.18-1.65
	c-0.23-0.14-0.53-0.07-0.67,0.16c-0.01,0.02-0.02,0.04-0.03,0.06l-1.39,0.69c-0.13,0.06-0.2,0.21-0.19,0.35l0.12,1.09h-7.79
	l-0.48-1.24c0.1-0.03,0.21-0.07,0.34-0.12c0.34-0.13,0.73-0.27,1.06-0.27c0.38,0,0.65-0.27,0.68-0.53c0.03-0.31-0.28-0.42-0.5-0.5
	c-0.11-0.04-0.35-0.05-0.94-0.07c-0.51-0.02-1.14-0.04-1.38-0.1c-0.02-0.01-0.05-0.01-0.09-0.02c-0.14-0.03-0.34-0.09-0.56-0.09
	c-0.27,0-0.48,0.08-0.64,0.23C9.85,8.74,9.57,9.07,9.61,9.31C9.63,9.5,9.82,9.6,10.38,9.88c0.13,0.07,0.28,0.14,0.47,0.23
	c0.16,0.07,0.32,0.11,0.48,0.13l0.01,0l0.1-0.01l0.49,1.27l-1.39,2.9c-0.55-0.23-1.15-0.35-1.79-0.35c-2.6,0-4.71,2.11-4.71,4.71
	c0,2.6,2.11,4.71,4.71,4.71c2.28,0,4.19-1.63,4.62-3.78l0.94,0.14c0.05,0.55,0.5,0.98,1.06,0.98c0.59,0,1.07-0.48,1.07-1.07
	c0-0.25-0.09-0.48-0.23-0.66l4.53-5.69l0.33,1.12c-1.57,0.78-2.64,2.4-2.64,4.26c0,2.63,2.14,4.77,4.77,4.77s4.77-2.14,4.77-4.77
	C27.96,16.14,25.82,14,23.19,14L23.19,14z M21.98,9.4c0.04-0.07,0.14-0.1,0.21-0.05c0.71,0.44,1.06,0.89,1.02,1.34
	c-0.06,0.7-0.99,1.09-1.03,1.11c-0.02,0.01-0.04,0.01-0.06,0.01c-0.06,0-0.12-0.04-0.14-0.1c-0.03-0.08,0-0.17,0.08-0.2
	c0.22-0.09,0.81-0.43,0.85-0.85c0.03-0.32-0.28-0.69-0.88-1.05C21.96,9.56,21.94,9.47,21.98,9.4L21.98,9.4z M11.69,9.86l-0.35,0.02
	c-0.12-0.01-0.23-0.05-0.34-0.1c-0.17-0.09-0.33-0.17-0.46-0.23c-0.25-0.12-0.49-0.24-0.57-0.31C10,9.16,10.1,9.01,10.15,8.96
	c0.09-0.09,0.21-0.13,0.39-0.13c0.17,0,0.35,0.05,0.47,0.07c0.04,0.01,0.08,0.02,0.09,0.02C11.37,9,12,9.03,12.55,9.05
	c0.33,0.01,0.75,0.03,0.83,0.05c0.09,0.03,0.24,0.09,0.27,0.12c-0.01,0.07-0.12,0.2-0.31,0.2c-0.39,0-0.81,0.16-1.18,0.29
	C11.97,9.77,11.81,9.83,11.69,9.86L11.69,9.86z M10.56,15.49c1.15,0.64,1.93,1.87,1.93,3.27c0,0.1-0.01,0.2-0.02,0.3L9.33,18.6
	c-0.03-0.1-0.07-0.19-0.14-0.26C9.19,18.34,10.56,15.49,10.56,15.49z M8.71,19.15c0.12,0,0.23-0.06,0.3-0.15
	C8.93,19.09,8.83,19.15,8.71,19.15c-0.21,0-0.38-0.17-0.38-0.38s0.17-0.38,0.38-0.38c0.12,0,0.23,0.06,0.3,0.15
	c-0.07-0.09-0.17-0.15-0.3-0.15c-0.21,0-0.38,0.17-0.38,0.38C8.32,18.98,8.5,19.15,8.71,19.15z M8.75,18.13c-0.01,0-0.02,0-0.03,0
	c-0.35,0-0.64,0.29-0.64,0.64s0.29,0.64,0.64,0.64c0.23,0,0.44-0.13,0.55-0.31l3.14,0.46c-0.36,1.69-1.86,2.96-3.66,2.96
	c-2.06,0-3.74-1.68-3.74-3.74c0-2.06,1.68-3.74,3.74-3.74c0.48,0,0.94,0.1,1.37,0.26L8.75,18.13L8.75,18.13z M8.75,23.11
	c-2.39,0-4.34-1.95-4.34-4.34s1.95-4.34,4.34-4.34c0.58,0,1.12,0.11,1.63,0.32l-0.15,0.32c-0.46-0.18-0.95-0.29-1.47-0.29
	c-2.2,0-3.99,1.79-3.99,3.99s1.79,3.99,3.99,3.99c1.92,0,3.52-1.36,3.9-3.17L13,19.64C12.6,21.62,10.84,23.11,8.75,23.11L8.75,23.11
	z M13.07,19.15l-0.35-0.05c0.01-0.11,0.02-0.22,0.02-0.33c0-1.5-0.84-2.82-2.07-3.49l0.15-0.32c1.35,0.74,2.27,2.17,2.27,3.81
	C13.09,18.9,13.08,19.02,13.07,19.15L13.07,19.15z M13.43,19.2c0.01-0.15,0.02-0.29,0.02-0.44c0-1.79-1.01-3.35-2.48-4.15l1.16-2.41
	l2.59,6.68c-0.15,0.12-0.27,0.27-0.34,0.45L13.43,19.2L13.43,19.2z M15.38,20.56c-0.46,0-0.83-0.37-0.83-0.83s0.37-0.83,0.83-0.83
	s0.83,0.37,0.83,0.83S15.83,20.56,15.38,20.56z M20.53,12.86l-4.74,5.89c-0.13-0.06-0.27-0.08-0.42-0.08c-0.05,0-0.1,0.01-0.15,0.01
	l-2.62-6.78h7.65L20.53,12.86L20.53,12.86L20.53,12.86z M21.39,15.63c0.01,0.05,0.04,0.12,0.07,0.17l1.51,3.07
	c0.04,0.09,0.13,0.14,0.22,0.14c0.04,0,0.07-0.01,0.11-0.02c0.12-0.06,0.17-0.21,0.11-0.33l-1.51-3.07
	c-0.01-0.02-0.03-0.07-0.04-0.09l-0.06-0.2c0.43-0.17,0.9-0.27,1.39-0.27c2.06,0,3.74,1.68,3.74,3.74s-1.68,3.74-3.74,3.74
	s-3.74-1.68-3.74-3.74c0-1.4,0.77-2.61,1.91-3.26L21.39,15.63L21.39,15.63z M23.19,23.05c-2.36,0-4.28-1.92-4.28-4.28
	c0-1.64,0.93-3.07,2.29-3.79l0.08,0.29c-1.24,0.68-2.08,1.99-2.08,3.5c0,2.2,1.79,3.99,3.99,3.99s3.99-1.79,3.99-3.99
	s-1.79-3.99-3.99-3.99c-0.51,0-1,0.1-1.45,0.28l-0.08-0.28c0.48-0.19,0.99-0.29,1.54-0.29c2.36,0,4.28,1.92,4.28,4.28
	S25.55,23.04,23.19,23.05L23.19,23.05z"/>
</svg>
