<?xml version="1.0" encoding="utf-8"?>
<!-- Generator: Adobe Illustrator 21.1.0, SVG Export Plug-In . SVG Version: 6.00 Build 0)  -->
<!DOCTYPE svg PUBLIC "-//W3C//DTD SVG 1.1//EN" "http://www.w3.org/Graphics/SVG/1.1/DTD/svg11.dtd">
<svg version="1.1" id="Layer_1" xmlns="http://www.w3.org/2000/svg" xmlns:xlink="http://www.w3.org/1999/xlink" x="0px" y="0px"
	 viewBox="0 0 32 32" style="enable-background:new 0 0 32 32;" xml:space="preserve">
<path d="M22.01,3.43c-0.05-0.09-0.15-0.14-0.25-0.15c-0.1-0.01-0.2,0.05-0.26,0.13c-0.01,0.01-0.96,1.4-2.94,3.14
	c-2.5,2.2-3.59,5.05-3.94,7.83c-2.12-3.53-5.93-5.16-6.1-5.24C8.41,9.11,8.3,9.12,8.22,9.18C8.13,9.24,8.08,9.34,8.08,9.45
	c0,0.01,0.04,1.27-0.39,3.18c-1.5,6.67,5.5,11.61,6.38,12.19c0.1,0.3,0.4,1.4,0.11,2.84c-0.29,0.32-0.49,0.51-0.5,0.52
	c-0.13,0.11-0.14,0.31-0.02,0.43c0.06,0.07,0.14,0.1,0.23,0.1c0.07,0,0.15-0.03,0.2-0.08c0.07-0.07,1.78-1.62,2.38-3.81
	c4.03-2.18,6.58-5.11,7.57-8.71C25.79,9.78,22.16,3.68,22.01,3.43L22.01,3.43z M8.29,12.76c0.29-1.3,0.38-2.29,0.4-2.85
	c1.14,0.57,4.29,2.39,5.82,5.58c-0.14,2.34,0.18,4.56,0.55,6.25c-0.19,0.79-0.48,1.6-0.86,2.43C12.81,23.19,6.96,18.67,8.29,12.76
	L8.29,12.76z M14.65,24.64c0.28-0.58,0.51-1.16,0.7-1.72c0.24,0.89,0.46,1.5,0.54,1.72c-0.21,0.8-0.59,1.51-0.98,2.09
	C14.95,25.69,14.74,24.93,14.65,24.64L14.65,24.64z M23.45,15.96c-0.93,3.38-3.31,6.15-7.07,8.23c-0.66-1.91-3.66-11.7,2.58-17.17
	c1.43-1.25,2.33-2.32,2.75-2.87C22.48,5.62,24.88,10.79,23.45,15.96z M21.39,5.76c-0.08,1.72-0.42,3.7-0.89,5.69
	C19.25,9.6,19.52,8.02,19.52,8c0.01-0.08-0.04-0.16-0.12-0.18c-0.08-0.02-0.16,0.04-0.18,0.12c-0.01,0.08-0.32,1.85,1.18,3.91
	c-0.54,2.23-1.22,4.44-1.83,6.28c-1.51-1.53-2.07-3.85-2.07-3.88c-0.02-0.08-0.1-0.13-0.18-0.11s-0.13,0.1-0.11,0.18
	c0.02,0.11,0.61,2.55,2.26,4.13c-0.84,2.48-1.53,4.21-1.55,4.25c-0.05,0.12,0.01,0.25,0.13,0.3c0.03,0.01,0.06,0.02,0.09,0.02
	c0.09,0,0.18-0.05,0.21-0.14c0.02-0.05,1.13-2.83,2.25-6.4c2.71-1.26,3.52-2.68,3.56-2.75c0.04-0.07,0.01-0.17-0.06-0.21
	c-0.08-0.04-0.17-0.01-0.21,0.06c-0.01,0.01-0.75,1.31-3.16,2.5c1.01-3.3,2-7.21,2.14-10.29c0.01-0.13-0.09-0.23-0.22-0.24
	C21.5,5.54,21.4,5.63,21.39,5.76L21.39,5.76z M14.35,22.75c-0.25-1.51-0.69-3.04-1.22-4.49c0.07-0.48,0.36-1.75,0.96-2.34
	c0.06-0.06,0.06-0.16,0-0.22c-0.06-0.06-0.16-0.06-0.22,0c-0.49,0.48-0.8,1.36-0.95,2.01c-0.99-2.59-2.23-4.9-3.07-6.34
	c-0.06-0.11-0.2-0.15-0.31-0.08c-0.11,0.06-0.15,0.2-0.08,0.31c0.5,0.86,1.15,2.03,1.79,3.39c-0.48-0.31-1.17-0.65-1.97-0.65
	c-0.09,0-0.15,0.07-0.15,0.15s0.07,0.15,0.15,0.15c1.03,0,1.9,0.64,2.25,0.93c0.42,0.92,0.84,1.91,1.21,2.94
	c-0.35-0.25-0.85-0.5-1.53-0.58c-0.08-0.01-0.16,0.05-0.17,0.13c-0.01,0.08,0.05,0.16,0.13,0.17c0.95,0.11,1.52,0.59,1.77,0.86
	c0.41,1.22,0.75,2.48,0.96,3.72c0.02,0.11,0.12,0.19,0.23,0.19c0.01,0,0.02,0,0.04,0C14.28,22.99,14.37,22.87,14.35,22.75
	L14.35,22.75z"/>
</svg>
