<?xml version="1.0" encoding="utf-8"?>
<!-- Generator: Adobe Illustrator 21.1.0, SVG Export Plug-In . SVG Version: 6.00 Build 0)  -->
<!DOCTYPE svg PUBLIC "-//W3C//DTD SVG 1.1//EN" "http://www.w3.org/Graphics/SVG/1.1/DTD/svg11.dtd">
<svg version="1.1" id="Layer_1" xmlns="http://www.w3.org/2000/svg" xmlns:xlink="http://www.w3.org/1999/xlink" x="0px" y="0px"
	 viewBox="0 0 31.68 31.68" style="enable-background:new 0 0 31.68 31.68;" xml:space="preserve">
<g>
	<path d="M6.93,18.03h14c0.1,0,0.19-0.08,0.19-0.19V17.6v-6.23c0-0.1-0.08-0.19-0.19-0.19h-14c-0.1,0-0.19,0.08-0.19,0.19v6.23v0.25
		C6.74,17.95,6.83,18.03,6.93,18.03z M7.11,11.56h13.63v5.85H7.11V11.56z"/>
	<path d="M8.55,12.02c-0.05,0-0.09,0.04-0.09,0.09v4.74c0,0.05,0.04,0.09,0.09,0.09s0.09-0.04,0.09-0.09v-4.74
		C8.64,12.06,8.6,12.02,8.55,12.02z"/>
	<path d="M10.34,12.02c-0.05,0-0.09,0.04-0.09,0.09v4.74c0,0.05,0.04,0.09,0.09,0.09s0.09-0.04,0.09-0.09v-4.74
		C10.43,12.06,10.39,12.02,10.34,12.02z"/>
	<path d="M12.14,12.02c-0.05,0-0.09,0.04-0.09,0.09v4.74c0,0.05,0.04,0.09,0.09,0.09s0.09-0.04,0.09-0.09v-4.74
		C12.23,12.06,12.19,12.02,12.14,12.02z"/>
	<path d="M13.93,12.05c-0.05,0-0.09,0.04-0.09,0.09v4.74c0,0.05,0.04,0.09,0.09,0.09s0.09-0.04,0.09-0.09v-4.74
		C14.02,12.1,13.98,12.05,13.93,12.05z"/>
	<path d="M15.73,12.02c-0.05,0-0.09,0.04-0.09,0.09v4.74c0,0.05,0.04,0.09,0.09,0.09s0.09-0.04,0.09-0.09v-4.74
		C15.82,12.06,15.78,12.02,15.73,12.02z"/>
	<path d="M17.52,12.02c-0.05,0-0.09,0.04-0.09,0.09v4.74c0,0.05,0.04,0.09,0.09,0.09s0.09-0.04,0.09-0.09v-4.74
		C17.61,12.06,17.57,12.02,17.52,12.02z"/>
	<path d="M19.32,12.02c-0.05,0-0.09,0.04-0.09,0.09v4.74c0,0.05,0.04,0.09,0.09,0.09s0.09-0.04,0.09-0.09v-4.74
		C19.41,12.06,19.37,12.02,19.32,12.02z"/>
	<path d="M29.48,15.77c-0.03-0.07-0.1-0.11-0.18-0.11h-6.94c-0.1,0-0.18,0.07-0.19,0.16l-0.5,2.86H6.24l-0.38-1.14
		c-0.03-0.08-0.1-0.13-0.19-0.13H2.38c-0.05,0-0.1,0.02-0.14,0.06c-0.04,0.04-0.06,0.09-0.06,0.14c0.05,1.29,2.35,3.15,3.48,3.59
		c0.02,0.01,0.05,0.01,0.07,0.01l20.38-0.03c0.07,0,0.14-0.04,0.18-0.11c0.18-0.35,0.12-0.61,0.04-0.77
		c-0.1-0.2-0.28-0.33-0.46-0.42c1.2-0.86,3.32-3.57,3.59-3.91C29.5,15.92,29.51,15.84,29.48,15.77z M25.33,19.75
		c-0.08,0.03-0.14,0.11-0.13,0.2s0.07,0.16,0.16,0.18c0.13,0.02,0.5,0.13,0.62,0.36c0.04,0.09,0.05,0.19,0,0.3L5.77,20.83
		c-0.99-0.4-2.9-1.94-3.17-3.02h2.92l0.38,1.14c0.03,0.08,0.1,0.13,0.19,0.13h15.74c0.1,0,0.18-0.07,0.19-0.16l0.5-2.86h6.37
		C27.95,17.23,26.04,19.5,25.33,19.75z"/>
	<path d="M2.9,17.02h2.04c0.07,0,0.13-0.06,0.13-0.13v-3.14c0-0.07-0.06-0.13-0.13-0.13h-1.4v-3.03c0-0.07-0.06-0.13-0.13-0.13
		s-0.13,0.06-0.13,0.13v3.03H3.17c-0.07,0-0.13,0.05-0.13,0.12l-0.26,3.14c0,0.04,0.01,0.07,0.03,0.1C2.83,17,2.87,17.02,2.9,17.02z
		 M3.29,13.88h1.52v2.87H3.05L3.29,13.88z"/>
	<path d="M5.64,20.28c0,0.07,0.06,0.13,0.13,0.13h18.7c0.07,0,0.13-0.06,0.13-0.13s-0.06-0.13-0.13-0.13H5.77
		C5.69,20.15,5.64,20.21,5.64,20.28z"/>
</g>
</svg>
