<?xml version="1.0" encoding="utf-8"?>
<!-- Generator: Adobe Illustrator 21.1.0, SVG Export Plug-In . SVG Version: 6.00 Build 0)  -->
<!DOCTYPE svg PUBLIC "-//W3C//DTD SVG 1.1//EN" "http://www.w3.org/Graphics/SVG/1.1/DTD/svg11.dtd">
<svg version="1.1" id="Layer_1" xmlns="http://www.w3.org/2000/svg" xmlns:xlink="http://www.w3.org/1999/xlink" x="0px" y="0px"
	 viewBox="0 0 31.68 31.68" style="enable-background:new 0 0 31.68 31.68;" xml:space="preserve">
<g>
	<g>
		<path d="M25.96,7.28c-0.04-0.13-0.16-0.23-0.3-0.23l-12.8-0.44c-0.03,0-0.05,0-0.07,0.01L7.93,7.52l0,0.01
			C7.87,7.54,7.81,7.57,7.76,7.62c-0.07,0.06-0.1,0.16-0.1,0.25l0.21,4.95l-1.97,0.85l0,0c-0.04,0.02-0.07,0.03-0.1,0.06
			c-0.07,0.07-0.11,0.17-0.1,0.26l0.63,8.08c0.01,0.15,0.12,0.27,0.26,0.3l1.95,0.4c0,0,0,0,0,0l14.53,3.01
			c0.02,0,0.04,0.01,0.07,0.01c0.07,0,0.14-0.02,0.2-0.07c0.05-0.04,0.09-0.1,0.11-0.16l0.01,0l1.6-4.99
			c0.01-0.03,0.01-0.05,0.02-0.08l0.9-13.09l0,0C25.97,7.36,25.97,7.32,25.96,7.28z M12.87,7.27l11.82,0.41l-0.76,0.57l-13.07-0.6
			L12.87,7.27z M8.34,8.2l4.2,0.19l0.09,4.95l-2.16-0.2c-0.14-0.01-0.26,0.09-0.27,0.22c-0.01,0.14,0.09,0.26,0.22,0.27l2.21,0.2
			l0.02,1.08l-2.18-0.23c-0.14-0.01-0.26,0.08-0.27,0.22c-0.01,0.14,0.08,0.26,0.22,0.27l2.24,0.24l0.06,3.24l-3.82,3.12L8.34,8.2z
			 M23.4,14.32l-5.25-0.48l0-1.07h-0.01c0-0.01,0.01-0.02,0-0.04c-0.02-0.07-0.07-0.12-0.15-0.13l-2.2-0.22c-0.04,0-0.07,0-0.1,0.02
			l-1.49,0.94c-0.05,0.03-0.07,0.08-0.07,0.13L13.3,13.4l-0.1-4.98L23.68,8.9L23.4,14.32z M23.11,19.9l-9.71-1.38l-0.06-3.03
			l0.8,0.08l0.01,1.33c0,0.08,0.06,0.15,0.15,0.16l0.83,0.1l0.2,0.76c0,0.02,0.02,0.03,0.03,0.03l0.36,0.06c0,0,0,0,0.01,0
			c0.01,0,0.02,0,0.03-0.01l0.35-0.3c0,0,0.01-0.01,0.01-0.01l0.19-0.38l0.22,0.03c0.01,0,0.01,0,0.02,0c0.04,0,0.07-0.01,0.1-0.03
			l0,0l1.44-1.08c0.04-0.03,0.07-0.08,0.07-0.13l0-0.15l5.15,0.47L23.11,19.9z M16.7,16.84l-0.03-3.1l1.15-0.68l-0.01,2.95
			L16.7,16.84z M16.46,13.48l-1.65-0.12l1.02-0.64l1.65,0.16L16.46,13.48z M16.34,13.8l0.03,3.18l-1.89-0.22l-0.02-3.1L16.34,13.8z
			 M13.31,13.9l0.83,0.08l0.01,1.1l-0.81-0.09L13.31,13.9z M13.17,19.16l9.91,1.41l-0.23,4.49L9.37,22.26L13.17,19.16z M23.32,15.92
			l-5.17-0.47l0.01-1.1l5.23,0.48L23.32,15.92z M7.92,13.84l-0.61-0.07l0.6-0.26L7.92,13.84z M6.4,14.34l1.55,0.17l0.32,7.53
			l-1.3-0.26L6.4,14.34z M24.42,20.41l-0.81,2.52l0.74-14.17l0.91-0.68L24.42,20.41z"/>
	</g>
</g>
</svg>
