<?xml version="1.0" encoding="utf-8"?>
<!-- Generator: Adobe Illustrator 21.1.0, SVG Export Plug-In . SVG Version: 6.00 Build 0)  -->
<!DOCTYPE svg PUBLIC "-//W3C//DTD SVG 1.1//EN" "http://www.w3.org/Graphics/SVG/1.1/DTD/svg11.dtd">
<svg version="1.1" id="Layer_1" xmlns="http://www.w3.org/2000/svg" xmlns:xlink="http://www.w3.org/1999/xlink" x="0px" y="0px"
	 viewBox="0 0 32 32" style="enable-background:new 0 0 32 32;" xml:space="preserve">
<path d="M28.35,16c0-1.22-2.7-2.08-6.24-2.53c0.55-0.71,1.05-1.4,1.47-2.05c1.38-2.14,1.77-3.54,1.16-4.16
	c-0.19-0.19-0.45-0.28-0.78-0.28c-1.1,0-3.09,1.1-5.42,2.91c-0.45-3.54-1.3-6.24-2.53-6.24c-1.22,0-2.08,2.7-2.52,6.24
	c-2.33-1.81-4.32-2.91-5.42-2.91c-0.33,0-0.6,0.09-0.78,0.28c-0.61,0.61-0.22,2.01,1.16,4.16c0.42,0.65,0.92,1.34,1.47,2.05
	c-3.54,0.45-6.24,1.3-6.24,2.53s2.7,2.08,6.24,2.53c-0.55,0.71-1.05,1.4-1.47,2.05c-1.38,2.14-1.77,3.54-1.16,4.16
	c0.19,0.19,0.45,0.28,0.78,0.28c1.1,0,3.09-1.1,5.42-2.91c0.45,3.54,1.3,6.24,2.53,6.24c1.22,0,2.08-2.7,2.53-6.24
	c2.33,1.81,4.32,2.91,5.42,2.91c0.33,0,0.6-0.09,0.78-0.28c0.61-0.61,0.22-2.01-1.16-4.16c-0.42-0.65-0.92-1.34-1.47-2.05
	C25.64,18.08,28.35,17.22,28.35,16L28.35,16z M23.95,7.56c0.18,0,0.3,0.04,0.38,0.11c0.28,0.28,0.12,1.34-1.24,3.44
	c-0.46,0.72-1.02,1.48-1.65,2.28c-0.85-0.09-1.73-0.16-2.63-0.21c-0.05-0.9-0.12-1.79-0.21-2.63C21.1,8.58,23.03,7.56,23.95,7.56
	L23.95,7.56z M18.32,16c0,0.33,0,0.64-0.01,0.95c-0.22,0.23-0.44,0.46-0.67,0.68c-0.23,0.23-0.46,0.45-0.68,0.67
	c-0.31,0-0.63,0.01-0.96,0.01c-0.32,0-0.64,0-0.96-0.01c-0.23-0.22-0.45-0.44-0.68-0.67c-0.23-0.23-0.45-0.45-0.67-0.68
	c-0.01-0.31-0.01-0.63-0.01-0.96c0-0.33,0-0.64,0.01-0.96c0.22-0.23,0.44-0.46,0.67-0.68c0.23-0.23,0.46-0.45,0.68-0.67
	c0.31-0.01,0.63-0.01,0.96-0.01s0.64,0,0.96,0.01c0.23,0.22,0.45,0.44,0.68,0.67c0.23,0.23,0.45,0.46,0.67,0.69
	C18.31,15.36,18.32,15.68,18.32,16z M18.04,13.96c-0.08-0.08-0.17-0.16-0.25-0.25c0.16,0.01,0.32,0.01,0.48,0.02
	c0.01,0.16,0.01,0.32,0.02,0.48C18.21,14.13,18.13,14.04,18.04,13.96z M17.19,13.13c-0.26-0.25-0.51-0.49-0.77-0.72
	c0.57-0.52,1.13-0.99,1.66-1.43c0.07,0.68,0.12,1.41,0.17,2.19C17.89,13.15,17.54,13.14,17.19,13.13z M16.35,13.12
	c-0.12,0-0.23,0-0.35,0c-0.12,0-0.23,0-0.35,0c0.12-0.11,0.24-0.22,0.35-0.33C16.11,12.89,16.23,13.01,16.35,13.12z M14.81,13.13
	c-0.35,0.01-0.7,0.02-1.05,0.03c0.04-0.77,0.1-1.5,0.16-2.19c0.53,0.44,1.09,0.91,1.66,1.43C15.32,12.64,15.06,12.88,14.81,13.13
	L14.81,13.13z M14.21,13.71c-0.08,0.08-0.17,0.16-0.25,0.25c-0.08,0.08-0.16,0.17-0.25,0.25c0.01-0.16,0.01-0.32,0.02-0.48
	C13.89,13.72,14.05,13.72,14.21,13.71L14.21,13.71z M13.13,14.81c-0.25,0.26-0.49,0.51-0.72,0.77c-0.5-0.56-0.98-1.11-1.43-1.66
	c0.68-0.07,1.41-0.12,2.18-0.16C13.14,14.11,13.13,14.46,13.13,14.81L13.13,14.81z M13.11,15.65c0,0.12,0,0.23,0,0.35s0,0.23,0,0.35
	C13,16.24,12.89,16.12,12.79,16C12.89,15.89,13,15.77,13.11,15.65z M13.13,17.19c0.01,0.35,0.02,0.7,0.03,1.05
	c-0.77-0.04-1.5-0.1-2.18-0.16c0.44-0.54,0.92-1.1,1.43-1.66C12.64,16.68,12.88,16.94,13.13,17.19L13.13,17.19z M13.71,17.79
	c0.08,0.08,0.16,0.17,0.25,0.25c0.08,0.08,0.17,0.16,0.25,0.25c-0.16,0-0.32-0.01-0.48-0.02C13.72,18.11,13.71,17.95,13.71,17.79
	L13.71,17.79z M14.81,18.88c0.26,0.25,0.51,0.49,0.77,0.72c-0.57,0.52-1.13,0.99-1.66,1.43c-0.07-0.68-0.12-1.41-0.16-2.19
	C14.1,18.86,14.46,18.87,14.81,18.88L14.81,18.88z M15.65,18.89c0.12,0,0.23,0,0.35,0s0.23,0,0.35,0C16.23,19,16.11,19.11,16,19.22
	C15.88,19.11,15.77,19,15.65,18.89z M17.19,18.88c0.35-0.01,0.7-0.02,1.06-0.03c-0.04,0.77-0.1,1.5-0.17,2.19
	c-0.53-0.44-1.09-0.91-1.66-1.43C16.68,19.36,16.93,19.12,17.19,18.88z M17.79,18.29c0.08-0.08,0.17-0.16,0.25-0.25
	s0.16-0.17,0.25-0.25c0,0.16-0.01,0.32-0.02,0.48C18.11,18.28,17.95,18.29,17.79,18.29z M18.87,17.19c0.25-0.26,0.49-0.51,0.72-0.77
	c0.5,0.56,0.98,1.11,1.43,1.66c-0.68,0.07-1.41,0.12-2.18,0.16C18.86,17.9,18.87,17.54,18.87,17.19L18.87,17.19z M18.89,16.35
	c0-0.12,0-0.23,0-0.35s0-0.23,0-0.35c0.11,0.12,0.22,0.23,0.33,0.35C19.1,16.12,18.99,16.23,18.89,16.35z M18.87,14.81
	c-0.01-0.35-0.02-0.7-0.03-1.05c0.77,0.04,1.5,0.1,2.18,0.16c-0.44,0.54-0.92,1.1-1.43,1.66C19.36,15.32,19.12,15.07,18.87,14.81z
	 M16,4.22c0.68,0,1.55,2.22,2.01,6.09c-0.65,0.52-1.32,1.1-2.01,1.71c-0.68-0.62-1.36-1.19-2.01-1.71C14.45,6.45,15.32,4.22,16,4.22
	z M8.9,11.12c-1.35-2.1-1.51-3.17-1.24-3.44c0.08-0.08,0.2-0.11,0.38-0.11c0.91,0,2.85,1.02,5.35,3c-0.09,0.85-0.16,1.73-0.21,2.63
	c-0.9,0.05-1.79,0.12-2.63,0.21C9.92,12.6,9.37,11.83,8.9,11.12z M4.22,16c0-0.68,2.22-1.55,6.08-2.01c0.53,0.66,1.1,1.33,1.72,2.01
	c-0.61,0.68-1.19,1.35-1.72,2.01C6.44,17.55,4.22,16.68,4.22,16z M8.05,24.45c-0.18,0-0.3-0.04-0.38-0.11
	c-0.28-0.28-0.12-1.34,1.24-3.44c0.46-0.72,1.02-1.49,1.65-2.28c0.85,0.09,1.73,0.16,2.63,0.21c0.05,0.9,0.12,1.79,0.21,2.63
	C10.9,23.42,8.96,24.45,8.05,24.45z M16,27.78c-0.68,0-1.55-2.22-2.01-6.09c0.65-0.52,1.32-1.1,2.01-1.71
	c0.68,0.62,1.36,1.19,2.01,1.71C17.55,25.56,16.68,27.78,16,27.78z M23.09,20.89c1.35,2.1,1.51,3.17,1.24,3.44
	c-0.08,0.08-0.2,0.11-0.38,0.11c-0.91,0-2.85-1.02-5.34-3c0.09-0.85,0.16-1.73,0.21-2.63c0.9-0.05,1.78-0.12,2.63-0.21
	C22.07,19.4,22.63,20.17,23.09,20.89L23.09,20.89z M21.69,18.01c-0.53-0.66-1.1-1.33-1.72-2.01c0.61-0.68,1.19-1.35,1.72-2.01
	c3.86,0.46,6.08,1.33,6.08,2.01C27.78,16.68,25.56,17.55,21.69,18.01L21.69,18.01z M16,14.79c-0.67,0-1.21,0.54-1.21,1.21
	s0.54,1.21,1.21,1.21s1.22-0.55,1.22-1.21S16.67,14.79,16,14.79z M16,16.65c-0.35,0-0.64-0.29-0.64-0.64s0.29-0.64,0.64-0.64
	c0.36,0,0.65,0.29,0.65,0.64S16.35,16.65,16,16.65z"/>
</svg>
