<?xml version="1.0" encoding="utf-8"?>
<!-- Generator: Adobe Illustrator 21.1.0, SVG Export Plug-In . SVG Version: 6.00 Build 0)  -->
<!DOCTYPE svg PUBLIC "-//W3C//DTD SVG 1.1//EN" "http://www.w3.org/Graphics/SVG/1.1/DTD/svg11.dtd">
<svg version="1.1" id="Layer_1" xmlns="http://www.w3.org/2000/svg" xmlns:xlink="http://www.w3.org/1999/xlink" x="0px" y="0px"
	 viewBox="0 0 31.68 31.68" style="enable-background:new 0 0 31.68 31.68;" xml:space="preserve">
<g>
	<g>
		<g>
			<path d="M13.5,12.94l-3.47-3.47c-0.07-0.07-0.16-0.1-0.25-0.1c-0.09,0-0.18,0.03-0.25,0.1c-0.14,0.14-0.14,0.37,0,0.51L13,13.45
				l-0.5,0.5l2.07,0.55l-0.55-2.07L13.5,12.94z"/>
			<path d="M24.13,15.27H21.1V7.6c0-0.77-0.62-1.39-1.39-1.39H7.55c-0.77,0-1.39,0.62-1.39,1.39v12.16c0,0.77,0.62,1.39,1.39,1.39
				h7.78v2.93c0,0.77,0.62,1.39,1.39,1.39h7.42c0.77,0,1.39-0.62,1.39-1.39v-7.42C25.52,15.89,24.9,15.27,24.13,15.27z M7.55,20.43
				c-0.37,0-0.67-0.3-0.67-0.67V7.6c0-0.37,0.3-0.67,0.67-0.67h12.16c0.37,0,0.67,0.3,0.67,0.67v7.67h-3.67
				c-0.77,0-1.39,0.62-1.39,1.39v3.78H7.55z M20.38,15.99v3.78c0,0.37-0.3,0.67-0.67,0.67h-3.67v-3.78c0-0.37,0.3-0.67,0.67-0.67
				H20.38z M24.8,24.08c0,0.37-0.3,0.67-0.67,0.67h-7.42c-0.37,0-0.67-0.3-0.67-0.67v-2.93h3.67c0.77,0,1.39-0.62,1.39-1.39v-3.78
				h3.04c0.37,0,0.67,0.3,0.67,0.67V24.08z"/>
		</g>
	</g>
</g>
</svg>
