<?xml version="1.0" encoding="utf-8"?>
<!-- Generator: Adobe Illustrator 21.1.0, SVG Export Plug-In . SVG Version: 6.00 Build 0)  -->
<!DOCTYPE svg PUBLIC "-//W3C//DTD SVG 1.1//EN" "http://www.w3.org/Graphics/SVG/1.1/DTD/svg11.dtd">
<svg version="1.1" id="Layer_1" xmlns="http://www.w3.org/2000/svg" xmlns:xlink="http://www.w3.org/1999/xlink" x="0px" y="0px"
	 viewBox="0 0 32 32" style="enable-background:new 0 0 32 32;" xml:space="preserve">
<path d="M18.05,13.52c-1.38-1.12-3.41-0.91-4.53,0.47c-0.05,0.06-0.09,0.12-0.13,0.18l-0.17,0.27c-0.76,1.34-0.47,3.08,0.76,4.09
	c1.38,1.12,3.41,0.91,4.53-0.47c0.11-0.14,0.21-0.29,0.3-0.44l0.14-0.28C19.53,16.03,19.2,14.46,18.05,13.52L18.05,13.52z
	 M18.15,17.76c-0.96,1.18-2.7,1.36-3.88,0.4c-1.08-0.88-1.32-2.41-0.61-3.56l0.11-0.17c0.03-0.05,0.07-0.09,0.1-0.14
	c0.96-1.18,2.7-1.36,3.87-0.4C18.93,14.84,19.11,16.58,18.15,17.76L18.15,17.76z M22.92,7.49c-4.69-3.82-11.61-3.1-15.43,1.59
	c-3.82,4.69-3.1,11.62,1.59,15.43c0.04,0.03,0.09,0.07,0.13,0.1c0.23,0.18,0.47,0.36,0.72,0.52c3.72,2.48,8.54,2.4,12.15,0
	c0.25-0.16,0.48-0.34,0.72-0.52c0.62-0.49,1.2-1.05,1.72-1.69C28.33,18.23,27.61,11.31,22.92,7.49L22.92,7.49z M25.72,19.55
	c-0.38,1.05-0.94,2.07-1.69,2.98c-0.62,0.77-1.34,1.42-2.12,1.96c-0.27,0.19-0.55,0.36-0.83,0.53c-1.76,0.99-3.76,1.43-5.75,1.31
	l-0.31-0.02c-1.41-0.13-2.81-0.56-4.1-1.28c-0.29-0.16-0.57-0.33-0.84-0.52c-0.21-0.15-0.41-0.3-0.61-0.46
	c-3.66-2.98-4.75-7.95-2.99-12.09l0.12-0.28c0.35-0.77,0.81-1.5,1.37-2.19c3.6-4.43,10.14-5.1,14.56-1.5
	c3.42,2.79,4.6,7.32,3.29,11.29L25.72,19.55L25.72,19.55z M17.46,14.25c-0.98-0.8-2.42-0.65-3.22,0.33
	c-0.8,0.98-0.65,2.42,0.33,3.22c0.98,0.8,2.42,0.65,3.22-0.33S18.44,15.04,17.46,14.25L17.46,14.25z M17.55,17.27
	c-0.69,0.85-1.94,0.98-2.78,0.29c-0.85-0.69-0.98-1.94-0.29-2.78s1.94-0.98,2.78-0.29C18.11,15.17,18.24,16.42,17.55,17.27
	L17.55,17.27z M13.1,19.14l-3.22,3.88c-0.06,0.07-0.05,0.16,0.02,0.22c0.03,0.02,0.06,0.03,0.1,0.03c0.05,0,0.09-0.02,0.12-0.06
	l3.22-3.88c0.05-0.07,0.05-0.16-0.02-0.22S13.15,19.07,13.1,19.14L13.1,19.14z M21.93,8.5c-0.07-0.05-0.16-0.05-0.22,0.02
	l-3.17,3.83c-0.06,0.07-0.05,0.16,0.02,0.22c0.03,0.02,0.06,0.04,0.1,0.04c0.04,0,0.09-0.02,0.12-0.06l3.17-3.83
	C22.01,8.65,22,8.55,21.93,8.5L21.93,8.5z M22.54,9.26l-1.02,0.98c-0.06,0.06-0.06,0.16,0,0.22c0.03,0.03,0.07,0.05,0.11,0.05
	c0.04,0,0.08-0.01,0.11-0.04l1.02-0.98c0.06-0.06,0.06-0.16,0-0.22C22.7,9.2,22.6,9.2,22.54,9.26z"/>
</svg>
