<?xml version="1.0" encoding="utf-8"?>
<!-- Generator: Adobe Illustrator 21.1.0, SVG Export Plug-In . SVG Version: 6.00 Build 0)  -->
<!DOCTYPE svg PUBLIC "-//W3C//DTD SVG 1.1//EN" "http://www.w3.org/Graphics/SVG/1.1/DTD/svg11.dtd">
<svg version="1.1" id="Layer_1" xmlns="http://www.w3.org/2000/svg" xmlns:xlink="http://www.w3.org/1999/xlink" x="0px" y="0px"
	 viewBox="0 0 32 32" style="enable-background:new 0 0 32 32;" xml:space="preserve">
<path d="M25.11,6.52c0.04-0.14-0.02-0.29-0.16-0.35l-2.82-1.38C22.09,4.76,22.04,4.75,22,4.75H10.43c-0.04,0-0.08,0.01-0.12,0.03
	L7.06,6.16C6.92,6.22,6.85,6.37,6.89,6.52C6.89,6.54,6.88,6.57,6.88,6.6v10.15c0,0.01,0,0.01,0,0.02c0,0.01,0,0.01,0,0.02v10.15
	c0,0.17,0.14,0.31,0.31,0.31h17.63c0.17,0,0.31-0.14,0.31-0.31V16.79c0-0.01,0-0.01,0-0.02c0-0.01,0-0.01,0-0.02V6.6
	C25.12,6.57,25.11,6.54,25.11,6.52L25.11,6.52z M10.49,5.37h11.44l1.89,0.92H8.32L10.49,5.37L10.49,5.37z M24.51,8.48v18.15H7.49
	V6.9h17.02V8.48L24.51,8.48z M16.66,24.85h7c0.08,0,0.15-0.07,0.15-0.15V7.96c0-0.09-0.07-0.15-0.15-0.15h-7
	c-0.08,0-0.15,0.07-0.15,0.15V24.7C16.51,24.78,16.58,24.85,16.66,24.85z M23.51,15.52h-6.69v-3.6h6.69V15.52z M16.82,24.54v-8.72
	h6.69v8.72H16.82z M23.51,8.11v3.5h-6.69v-3.5H23.51z M17.63,9.52h5.11c0.17,0,0.31-0.14,0.31-0.31c0-0.17-0.14-0.31-0.31-0.31
	h-5.11c-0.17,0-0.31,0.14-0.31,0.31C17.32,9.38,17.46,9.52,17.63,9.52z M17.63,10.87h5.11c0.17,0,0.31-0.14,0.31-0.31
	s-0.14-0.31-0.31-0.31h-5.11c-0.17,0-0.31,0.14-0.31,0.31C17.32,10.73,17.46,10.87,17.63,10.87z M8.98,9.41h5.76
	c0.09,0,0.15-0.07,0.15-0.15c0-0.09-0.07-0.15-0.15-0.15H8.98c-0.09,0-0.15,0.07-0.15,0.15C8.83,9.34,8.9,9.41,8.98,9.41L8.98,9.41z
	 M8.98,10.17h5.76c0.09,0,0.15-0.07,0.15-0.15c0-0.09-0.07-0.15-0.15-0.15H8.98c-0.09,0-0.15,0.07-0.15,0.15
	C8.83,10.1,8.9,10.17,8.98,10.17L8.98,10.17z M8.98,10.92h5.76c0.09,0,0.15-0.07,0.15-0.15c0-0.08-0.07-0.15-0.15-0.15H8.98
	c-0.09,0-0.15,0.07-0.15,0.15C8.83,10.85,8.9,10.92,8.98,10.92L8.98,10.92z M8.98,12.37h5.76c0.09,0,0.15-0.07,0.15-0.15
	c0-0.09-0.07-0.15-0.15-0.15H8.98c-0.09,0-0.15,0.07-0.15,0.15C8.83,12.3,8.9,12.37,8.98,12.37L8.98,12.37z M8.98,13.12h5.76
	c0.09,0,0.15-0.07,0.15-0.15c0-0.08-0.07-0.15-0.15-0.15H8.98c-0.09,0-0.15,0.07-0.15,0.15C8.83,13.05,8.9,13.12,8.98,13.12
	L8.98,13.12z M8.98,13.88h5.76c0.09,0,0.15-0.07,0.15-0.15c0-0.08-0.07-0.15-0.15-0.15H8.98c-0.09,0-0.15,0.07-0.15,0.15
	C8.83,13.81,8.9,13.88,8.98,13.88L8.98,13.88z M8.98,15.32h5.76c0.09,0,0.15-0.07,0.15-0.15c0-0.09-0.07-0.15-0.15-0.15H8.98
	c-0.09,0-0.15,0.07-0.15,0.15C8.83,15.25,8.9,15.32,8.98,15.32L8.98,15.32z M8.98,16.08h5.76c0.09,0,0.15-0.07,0.15-0.15
	c0-0.09-0.07-0.15-0.15-0.15H8.98c-0.09,0-0.15,0.07-0.15,0.15C8.83,16.01,8.9,16.08,8.98,16.08z M8.98,16.83h5.76
	c0.09,0,0.15-0.07,0.15-0.15s-0.07-0.15-0.15-0.15H8.98c-0.09,0-0.15,0.07-0.15,0.15C8.83,16.77,8.9,16.83,8.98,16.83z M17.63,13.43
	h5.11c0.17,0,0.31-0.14,0.31-0.31c0-0.17-0.14-0.31-0.31-0.31h-5.11c-0.17,0-0.31,0.14-0.31,0.31
	C17.32,13.29,17.46,13.43,17.63,13.43z M22.74,14.16h-5.11c-0.17,0-0.31,0.14-0.31,0.31c0,0.17,0.14,0.31,0.31,0.31h5.11
	c0.17,0,0.31-0.14,0.31-0.31S22.92,14.16,22.74,14.16z M17.39,16.96C17.39,16.96,17.39,16.96,17.39,16.96
	c0,0.24,0.19,0.43,0.42,0.43c0.23,0,0.42-0.19,0.42-0.42c0,0,0,0,0,0s0,0,0,0c0-0.23-0.19-0.42-0.42-0.42
	C17.58,16.53,17.39,16.72,17.39,16.96C17.39,16.96,17.39,16.96,17.39,16.96z M18.58,16.96c0,0.23,0.19,0.42,0.42,0.42
	c0.23,0,0.42-0.19,0.42-0.42c0-0.23-0.19-0.42-0.42-0.42C18.77,16.54,18.58,16.73,18.58,16.96z M19.78,16.96
	c0,0.23,0.19,0.42,0.42,0.42c0.23,0,0.42-0.19,0.42-0.42c0-0.23-0.19-0.42-0.42-0.42C19.97,16.54,19.78,16.73,19.78,16.96z"/>
</svg>
