<?xml version="1.0" encoding="utf-8"?>
<!-- Generator: Adobe Illustrator 21.1.0, SVG Export Plug-In . SVG Version: 6.00 Build 0)  -->
<!DOCTYPE svg PUBLIC "-//W3C//DTD SVG 1.1//EN" "http://www.w3.org/Graphics/SVG/1.1/DTD/svg11.dtd">
<svg version="1.1" id="Layer_1" xmlns="http://www.w3.org/2000/svg" xmlns:xlink="http://www.w3.org/1999/xlink" x="0px" y="0px"
	 viewBox="0 0 32 32" style="enable-background:new 0 0 32 32;" xml:space="preserve">
<path d="M7.12,12.79v-0.15l-0.09,0.15H7.12z M21.85,6.17c-0.06-0.1-0.16-0.15-0.27-0.15H10.41c-0.11,0-0.21,0.06-0.27,0.15
	l-5.59,9.68c-0.05,0.09-0.05,0.21,0,0.31l5.59,9.68c0.06,0.09,0.16,0.15,0.27,0.15h11.17c0.11,0,0.21-0.06,0.27-0.15l5.59-9.68
	c0.05-0.09,0.05-0.21,0-0.31C27.44,15.85,21.85,6.17,21.85,6.17z M26.31,16.88v-0.64c0-0.16-0.1-0.26-0.26-0.26s-0.26,0.1-0.26,0.26
	v0.67h-0.21V14.4h-0.99c-0.16,0-0.26,0.1-0.26,0.26s0.1,0.26,0.26,0.26h0.47v1.99h-0.47c-0.16,0-0.26,0.1-0.26,0.26
	s0.1,0.26,0.26,0.26h1.4l-1.6,2.77v-1.68H23.4c-0.16,0-0.26,0.1-0.26,0.26s0.1,0.26,0.26,0.26h0.47v1.99H23.4
	c-0.16,0-0.26,0.1-0.26,0.26s0.1,0.26,0.26,0.26h0.21l-1.56,2.7c-0.04-0.02-0.08-0.03-0.14-0.03c-0.16,0-0.26,0.1-0.26,0.26v0.46
	l-0.12,0.21h-0.08v-2.51h-0.99c-0.16,0-0.26,0.1-0.26,0.26s0.11,0.26,0.26,0.26h0.47v1.99h-0.47c-0.14,0-0.23,0.08-0.25,0.21h-0.81
	c0.01-0.04,0.02-0.08,0.02-0.13V23.1c0-0.25-0.2-0.45-0.45-0.45h-1.09c-0.25,0-0.45,0.2-0.45,0.45v2.14c0,0.05,0.01,0.09,0.02,0.13
	h-0.82c0.01-0.04,0.02-0.08,0.02-0.13V23.1c0-0.25-0.2-0.45-0.45-0.45h-1.09c-0.25,0-0.45,0.2-0.45,0.45v2.14
	c0,0.05,0.01,0.09,0.02,0.13h-0.82c0.01-0.04,0.02-0.08,0.02-0.13V23.1c0-0.25-0.2-0.45-0.45-0.45h-1.09c-0.25,0-0.45,0.2-0.45,0.45
	v2.14c0,0.05,0.01,0.09,0.02,0.13h-0.82c0.01-0.04,0.02-0.08,0.02-0.13V23.1c0-0.25-0.2-0.45-0.45-0.45H9.6
	c-0.19,0-0.35,0.12-0.41,0.28l-0.85-1.48c0.1-0.08,0.16-0.2,0.16-0.34v-2.14c0-0.25-0.2-0.45-0.45-0.45H6.95
	c-0.1,0-0.19,0.03-0.26,0.09l-0.68-1.18h0.54c0.25,0,0.45-0.2,0.45-0.45v-2.14c0-0.25-0.2-0.45-0.45-0.45H6.11l0.63-1.09h1.38
	c0.16,0,0.26-0.1,0.26-0.26v-0.93c0-0.16-0.1-0.26-0.26-0.26s-0.26,0.1-0.26,0.26v0.67H7.65v-1.06l1.58-2.74
	C9.31,9.11,9.44,9.19,9.6,9.19h1.09c0.25,0,0.45-0.2,0.45-0.45V6.63h0.89c0,0,0.09,0,0.14,0h0.47v2.03h-0.47
	c-0.16,0-0.26,0.1-0.26,0.26c0,0.16,0.1,0.26,0.26,0.26h1.46c0.16,0,0.26-0.1,0.26-0.26V7.99c0-0.16-0.1-0.26-0.26-0.26
	s-0.26,0.1-0.26,0.26v0.67h-0.21V6.63h1.62c0,0,0.18,0,0.14,0h0.47v2.03h-0.47c-0.16,0-0.26,0.1-0.26,0.26
	c0,0.16,0.1,0.26,0.26,0.26h1.46c0.16,0,0.26-0.1,0.26-0.26V7.99c0-0.16-0.1-0.26-0.26-0.26s-0.26,0.1-0.26,0.26v0.67h-0.21V6.63
	h1.51v2.11c0,0.25,0.2,0.45,0.45,0.45h1.09c0.25,0,0.45-0.2,0.45-0.45V6.63h0.78v2.11c0,0.25,0.2,0.45,0.45,0.45h1.09
	c0.25,0,0.45-0.2,0.45-0.45V7.95l1.34,2.32H23.4c-0.25,0-0.45,0.2-0.45,0.45v2.14c0,0.25,0.2,0.45,0.45,0.45h1.09
	c0.25,0,0.45-0.2,0.45-0.45l0-0.13L26.82,16L26.31,16.88L26.31,16.88z M9.68,23.17h0.94v1.99h-0.14l-0.79-1.38V23.17z M12.44,25.16
	v-1.99h0.94v1.99H12.44z M15.2,25.16v-1.99h0.94v1.99C16.13,25.16,15.2,25.16,15.2,25.16z M17.96,25.16v-1.99h0.94v1.99H17.96z
	 M7.12,12.79H7.04l0.09-0.15V12.79z M5.8,14.92h0.67v1.99H5.71l-0.17-0.3v-1.23L5.8,14.92z M7.03,19.05h0.94v1.77L7.03,19.2V19.05z
	 M21.65,8.66h-0.94V6.67h0.72l0.22,0.37L21.65,8.66L21.65,8.66z M17.96,6.67h0.94v1.99h-0.94C17.96,8.66,17.96,6.67,17.96,6.67z
	 M10.61,6.67v1.99H9.68V8.21l0.89-1.54C10.57,6.67,10.61,6.67,10.61,6.67z M24.41,11.83v0.96h-0.94V10.8h0.34
	C23.82,10.8,24.41,11.83,24.41,11.83z M9.6,13.31h1.09c0.25,0,0.45-0.2,0.45-0.45v-2.14c0-0.25-0.2-0.45-0.45-0.45H9.6
	c-0.25,0-0.45,0.2-0.45,0.45v2.14C9.15,13.11,9.35,13.31,9.6,13.31z M9.68,12.79V10.8h0.94v1.99H9.68z M12.36,13.31h1.09
	c0.25,0,0.45-0.2,0.45-0.45v-2.14c0-0.25-0.2-0.45-0.45-0.45h-1.09c-0.25,0-0.45,0.2-0.45,0.45v2.14
	C11.91,13.11,12.11,13.31,12.36,13.31z M12.44,12.79V10.8h0.94v1.99H12.44z M15.12,13.31h1.09c0.25,0,0.45-0.2,0.45-0.45v-2.14
	c0-0.25-0.2-0.45-0.45-0.45h-1.09c-0.25,0-0.45,0.2-0.45,0.45v2.14C14.67,13.11,14.87,13.31,15.12,13.31z M15.2,12.79V10.8h0.94
	v1.99C16.13,12.79,15.2,12.79,15.2,12.79z M17.69,12.79c-0.16,0-0.26,0.1-0.26,0.26c0,0.16,0.1,0.26,0.26,0.26h1.46
	c0.16,0,0.26-0.1,0.26-0.26v-0.93c0-0.16-0.1-0.26-0.26-0.26s-0.26,0.1-0.26,0.26v0.67h-0.21v-2.51h-0.99
	c-0.16,0-0.26,0.1-0.26,0.26s0.11,0.26,0.26,0.26h0.47v1.99L17.69,12.79L17.69,12.79z M20.45,12.79c-0.16,0-0.26,0.1-0.26,0.26
	c0,0.16,0.1,0.26,0.26,0.26h1.46c0.16,0,0.26-0.1,0.26-0.26v-0.93c0-0.16-0.1-0.26-0.26-0.26s-0.26,0.1-0.26,0.26v0.67h-0.21v-2.51
	h-0.99c-0.16,0-0.26,0.1-0.26,0.26s0.11,0.26,0.26,0.26h0.47v1.99L20.45,12.79L20.45,12.79z M9.76,16.99v-2.14
	c0-0.25-0.2-0.45-0.45-0.45H8.22c-0.25,0-0.45,0.2-0.45,0.45v2.14c0,0.25,0.2,0.45,0.45,0.45h1.09C9.56,17.43,9.76,17.24,9.76,16.99
	z M9.23,14.92v1.99H8.3v-1.99H9.23z M12.52,16.99v-2.14c0-0.25-0.2-0.45-0.45-0.45h-1.09c-0.25,0-0.45,0.2-0.45,0.45v2.14
	c0,0.25,0.2,0.45,0.45,0.45h1.09C12.32,17.43,12.52,17.24,12.52,16.99z M11.99,14.92v1.99h-0.94v-1.99H11.99z M15.28,17.17v-0.93
	c0-0.16-0.1-0.26-0.26-0.26s-0.26,0.1-0.26,0.26v0.67h-0.21V14.4h-0.99c-0.16,0-0.26,0.1-0.26,0.26s0.1,0.26,0.26,0.26h0.47v1.99
	h-0.47c-0.16,0-0.26,0.1-0.26,0.26s0.1,0.26,0.26,0.26h1.46C15.17,17.44,15.28,17.33,15.28,17.17L15.28,17.17z M18.04,16.99v-2.14
	c0-0.25-0.2-0.45-0.45-0.45H16.5c-0.25,0-0.45,0.2-0.45,0.45v2.14c0,0.25,0.2,0.45,0.45,0.45h1.09
	C17.84,17.43,18.04,17.24,18.04,16.99z M17.51,14.92v1.99h-0.94v-1.99H17.51z M20.8,17.17v-0.93c0-0.16-0.1-0.26-0.26-0.26
	s-0.26,0.1-0.26,0.26v0.67h-0.21V14.4h-0.99c-0.16,0-0.26,0.1-0.26,0.26s0.1,0.26,0.26,0.26h0.47v1.99h-0.47
	c-0.16,0-0.26,0.1-0.26,0.26s0.1,0.26,0.26,0.26h1.46C20.69,17.44,20.8,17.33,20.8,17.17L20.8,17.17z M23.29,15.98
	c-0.16,0-0.26,0.1-0.26,0.26v0.67h-0.21V14.4h-0.99c-0.16,0-0.26,0.1-0.26,0.26s0.1,0.26,0.26,0.26h0.47v1.99h-0.47
	c-0.16,0-0.26,0.1-0.26,0.26s0.1,0.26,0.26,0.26h1.46c0.16,0,0.26-0.1,0.26-0.26v-0.93C23.55,16.08,23.46,15.98,23.29,15.98
	L23.29,15.98z M10.99,20.1c-0.16,0-0.26,0.1-0.26,0.26v0.67h-0.21v-2.51H9.53c-0.16,0-0.26,0.1-0.26,0.26s0.1,0.26,0.26,0.26h0.47
	v1.99H9.53c-0.16,0-0.26,0.1-0.26,0.26s0.1,0.26,0.26,0.26h1.46c0.16,0,0.26-0.1,0.26-0.26v-0.93C11.25,20.2,11.15,20.1,10.99,20.1
	L10.99,20.1z M13.56,18.52h-1.09c-0.25,0-0.45,0.2-0.45,0.45v2.14c0,0.25,0.2,0.45,0.45,0.45h1.09c0.25,0,0.45-0.2,0.45-0.45v-2.14
	C14.01,18.73,13.81,18.52,13.56,18.52z M13.48,19.05v1.99h-0.94v-1.99H13.48z M16.32,18.52h-1.09c-0.25,0-0.45,0.2-0.45,0.45v2.14
	c0,0.25,0.2,0.45,0.45,0.45h1.09c0.25,0,0.45-0.2,0.45-0.45v-2.14C16.77,18.73,16.57,18.52,16.32,18.52z M16.24,19.05v1.99h-0.94
	v-1.99H16.24z M19.08,18.52h-1.09c-0.25,0-0.45,0.2-0.45,0.45v2.14c0,0.25,0.2,0.45,0.45,0.45h1.09c0.25,0,0.45-0.2,0.45-0.45v-2.14
	C19.53,18.73,19.33,18.52,19.08,18.52z M19,19.05v1.99h-0.94v-1.99H19z M22.1,20.1c-0.16,0-0.26,0.1-0.26,0.26v0.67h-0.21v-2.51
	h-0.99c-0.16,0-0.26,0.1-0.26,0.26s0.1,0.26,0.26,0.26h0.47v1.99h-0.47c-0.16,0-0.26,0.1-0.26,0.26s0.1,0.26,0.26,0.26h1.46
	c0.16,0,0.26-0.1,0.26-0.26v-0.93C22.36,20.2,22.26,20.1,22.1,20.1L22.1,20.1z"/>
</svg>
