<?xml version="1.0" encoding="utf-8"?>
<!-- Generator: Adobe Illustrator 21.1.0, SVG Export Plug-In . SVG Version: 6.00 Build 0)  -->
<!DOCTYPE svg PUBLIC "-//W3C//DTD SVG 1.1//EN" "http://www.w3.org/Graphics/SVG/1.1/DTD/svg11.dtd">
<svg version="1.1" id="Layer_1" xmlns="http://www.w3.org/2000/svg" xmlns:xlink="http://www.w3.org/1999/xlink" x="0px" y="0px"
	 viewBox="0 0 31.68 31.68" style="enable-background:new 0 0 31.68 31.68;" xml:space="preserve">
<g>
	<g>
		<path d="M25.29,8.6v8.42v0.33c0,0.14-0.11,0.25-0.25,0.25H6.11c-0.14,0-0.25-0.11-0.25-0.25v-0.33V8.6c0-0.14,0.11-0.25,0.25-0.25
			h18.93C25.18,8.34,25.29,8.46,25.29,8.6z M24.79,8.85H6.36v7.92h18.43V8.85z"/>
		<path d="M8.3,16.13c0.07,0,0.12-0.06,0.12-0.12V9.6c0-0.07-0.06-0.13-0.12-0.13c-0.07,0-0.13,0.06-0.13,0.13v6.41
			C8.17,16.07,8.23,16.13,8.3,16.13z"/>
		<path d="M10.72,16.13c0.07,0,0.12-0.06,0.12-0.12V9.6c0-0.07-0.06-0.13-0.12-0.13c-0.07,0-0.13,0.06-0.13,0.13v6.41
			C10.59,16.07,10.65,16.13,10.72,16.13z"/>
		<path d="M13.15,16.13c0.07,0,0.13-0.06,0.13-0.12V9.6c0-0.07-0.06-0.13-0.13-0.13s-0.12,0.06-0.12,0.13v6.41
			C13.02,16.07,13.08,16.13,13.15,16.13z"/>
		<path d="M15.57,16.17c0.07,0,0.12-0.06,0.12-0.13v-6.4c0-0.07-0.06-0.13-0.12-0.13c-0.07,0-0.13,0.06-0.13,0.13v6.41
			C15.45,16.12,15.5,16.17,15.57,16.17z"/>
		<path d="M18,16.13c0.07,0,0.13-0.06,0.13-0.12V9.6c0-0.07-0.06-0.13-0.13-0.13s-0.13,0.06-0.13,0.13v6.41
			C17.88,16.07,17.93,16.13,18,16.13z"/>
		<path d="M20.43,16.13c0.07,0,0.12-0.06,0.12-0.12V9.6c0-0.07-0.06-0.13-0.12-0.13c-0.07,0-0.13,0.06-0.13,0.13v6.41
			C20.3,16.07,20.36,16.13,20.43,16.13z"/>
		<path d="M22.85,16.13c0.07,0,0.12-0.06,0.12-0.12V9.6c0-0.07-0.06-0.13-0.12-0.13c-0.07,0-0.13,0.06-0.13,0.13v6.41
			C22.73,16.07,22.79,16.13,22.85,16.13z"/>
	</g>
	<g>
		<path d="M27.36,19.91H4.32c-0.1,0-0.18-0.08-0.18-0.18v-1.19c0-0.1,0.08-0.18,0.18-0.18h23.03c0.1,0,0.18,0.08,0.18,0.18v1.19
			C27.54,19.83,27.46,19.91,27.36,19.91z M4.5,19.56h22.68v-0.83H4.5V19.56z"/>
		<path d="M5.89,23.34c-0.85,0-1.53-0.69-1.53-1.53c0-0.85,0.69-1.53,1.53-1.53s1.53,0.69,1.53,1.53
			C7.42,22.65,6.74,23.34,5.89,23.34z M5.89,20.63c-0.65,0-1.18,0.53-1.18,1.18s0.53,1.18,1.18,1.18s1.18-0.53,1.18-1.18
			C7.07,21.15,6.54,20.63,5.89,20.63z"/>
		<path d="M22.19,23.34c-0.85,0-1.53-0.69-1.53-1.53c0-0.85,0.69-1.53,1.53-1.53c0.85,0,1.53,0.69,1.53,1.53
			C23.72,22.65,23.03,23.34,22.19,23.34z M22.19,20.63c-0.65,0-1.18,0.53-1.18,1.18s0.53,1.18,1.18,1.18s1.18-0.53,1.18-1.18
			C23.36,21.15,22.83,20.63,22.19,20.63z"/>
		<path d="M9.45,23.34c-0.85,0-1.53-0.69-1.53-1.53c0-0.85,0.69-1.53,1.53-1.53s1.53,0.69,1.53,1.53S10.29,23.34,9.45,23.34z
			 M9.45,20.63c-0.65,0-1.18,0.53-1.18,1.18s0.53,1.18,1.18,1.18c0.65,0,1.18-0.53,1.18-1.18C10.62,21.15,10.1,20.63,9.45,20.63z"/>
		<path d="M25.74,23.34c-0.85,0-1.53-0.69-1.53-1.53c0-0.85,0.69-1.53,1.53-1.53s1.53,0.69,1.53,1.53S26.59,23.34,25.74,23.34z
			 M25.74,20.63c-0.65,0-1.18,0.53-1.18,1.18s0.53,1.18,1.18,1.18s1.18-0.53,1.18-1.18C26.92,21.15,26.39,20.63,25.74,20.63z"/>
		<path d="M28.65,19.32h-1.29c-0.1,0-0.18-0.08-0.18-0.18s0.08-0.18,0.18-0.18h1.29c0.1,0,0.18,0.08,0.18,0.18
			C28.83,19.24,28.75,19.32,28.65,19.32z"/>
		<path d="M4.32,19.32H3.03c-0.1,0-0.18-0.08-0.18-0.18s0.08-0.18,0.18-0.18h1.29c0.1,0,0.18,0.08,0.18,0.18
			C4.5,19.24,4.42,19.32,4.32,19.32z"/>
	</g>
</g>
</svg>
