<?xml version="1.0" encoding="utf-8"?>
<!-- Generator: Adobe Illustrator 21.1.0, SVG Export Plug-In . SVG Version: 6.00 Build 0)  -->
<!DOCTYPE svg PUBLIC "-//W3C//DTD SVG 1.1//EN" "http://www.w3.org/Graphics/SVG/1.1/DTD/svg11.dtd">
<svg version="1.1" id="Layer_1" xmlns="http://www.w3.org/2000/svg" xmlns:xlink="http://www.w3.org/1999/xlink" x="0px" y="0px"
	 viewBox="0 0 31.68 31.68" style="enable-background:new 0 0 31.68 31.68;" xml:space="preserve">
<path d="M17.43,17.97c0.58,0,1.12-0.46,1.45-0.94c0.02,0.05,0.04,0.03,0.06,0.08s0.08,0.15,0.13,0.23c0,0.02,0.02,0.03,0.03,0.05
	c-0.05,0.15-0.08,0.3-0.1,0.46c-0.01,0.07,0.03,0.14,0.11,0.17c0.05,0.01,0.1,0.02,0.14,0.02c0.09,0,0.18-0.03,0.26-0.07
	c0.05-0.03,0.08-0.09,0.07-0.16c-0.03-0.15-0.08-0.3-0.15-0.44c0.01-0.03,0.03-0.06,0.04-0.08c0.09-0.16,0.26-0.26,0.44-0.26
	c0.08,0.01,0.16,0.05,0.21,0.12c0.02,0.03,0.04,0.06,0.04,0.1v0.09c-0.01,0.08,0.05,0.16,0.13,0.17c0.08,0.01,0.15-0.04,0.17-0.12
	c0.01-0.04,0.02-0.08,0.02-0.12c0.05-0.26,0.23-0.47,0.47-0.58c0.05,0.33,0.07,0.67,0.05,1v0.09c-0.01,0.09,0.06,0.16,0.15,0.17
	s0.16-0.06,0.17-0.15v-0.08c0-0.16,0.06-0.32,0.18-0.43c0.07-0.04,0.15-0.04,0.22,0c0.04,0.03,0.06,0.05,0.05,0.08
	c-0.01,0.06,0.02,0.12,0.07,0.15c0.05,0.03,0.12,0.03,0.17,0c0.22-0.11,0.46-0.15,0.7-0.11c0.33,0.05,0.67-0.03,0.94-0.23
	c0.06-0.05,0.07-0.15,0.02-0.21c-0.05-0.06-0.15-0.07-0.21-0.02c0,0-0.01,0-0.01,0.01c-0.22,0.14-0.48,0.19-0.74,0.15
	c-0.24-0.02-0.48,0.01-0.71,0.08c-0.03-0.05-0.08-0.1-0.13-0.13c-0.17-0.1-0.38-0.1-0.55,0l-0.03,0.02c-0.01-0.2-0.04-0.4-0.07-0.6
	c-0.02-0.08-0.1-0.13-0.18-0.12c-0.31,0.06-0.58,0.26-0.73,0.54c-0.1-0.1-0.23-0.16-0.37-0.17c-0.26,0-0.5,0.13-0.65,0.34l-0.05-0.1
	c-0.07-0.14-0.1-0.29-0.11-0.44c0.04-0.11,0.07-0.22,0.09-0.34c0.01-0.07-0.03-0.14-0.1-0.17c-0.07-0.02-0.14,0-0.18,0.07
	c-0.07,0.12-0.11,0.25-0.11,0.39c-0.24,0.57-0.78,0.96-1.4,1c-0.08,0-0.15,0.17-0.14,0.25C17.27,17.79,17.35,17.97,17.43,17.97z
	 M7.95,18.97h15.75c0.13,0,0.23-0.11,0.23-0.23c0-0.13-0.11-0.23-0.23-0.23H7.95c-0.13,0-0.23,0.11-0.23,0.23
	C7.72,18.87,7.82,18.97,7.95,18.97z M7.95,19.91h3.3c0.13,0,0.23-0.11,0.23-0.23s-0.11-0.23-0.23-0.23h-3.3
	c-0.13,0-0.23,0.11-0.23,0.23S7.82,19.91,7.95,19.91z M24.64,9.4H7.04c-0.67,0-1.22,0.54-1.22,1.21c0,0,0,0,0,0v10.44
	c0,0.67,0.54,1.22,1.22,1.22c0,0,0,0,0,0h17.61c0.67,0,1.22-0.54,1.22-1.21c0,0,0,0,0,0V10.62C25.86,9.95,25.32,9.4,24.64,9.4
	C24.64,9.4,24.64,9.4,24.64,9.4z M25.24,21.06c0,0.32-0.26,0.59-0.59,0.59H7.04c-0.33,0-0.59-0.26-0.59-0.59c0,0,0,0,0,0v-6.54
	h18.79L25.24,21.06z M25.24,13.9H6.44v-1.25h18.79V13.9z M25.24,12.02H6.44v-1.4c0-0.32,0.26-0.59,0.59-0.59h17.61
	c0.33,0,0.59,0.26,0.59,0.59c0,0,0,0,0,0V12.02z"/>
</svg>
