<?xml version="1.0" encoding="utf-8"?>
<!-- Generator: Adobe Illustrator 21.1.0, SVG Export Plug-In . SVG Version: 6.00 Build 0)  -->
<!DOCTYPE svg PUBLIC "-//W3C//DTD SVG 1.1//EN" "http://www.w3.org/Graphics/SVG/1.1/DTD/svg11.dtd">
<svg version="1.1" id="Layer_1" xmlns="http://www.w3.org/2000/svg" xmlns:xlink="http://www.w3.org/1999/xlink" x="0px" y="0px"
	 viewBox="0 0 32 32" style="enable-background:new 0 0 32 32;" xml:space="preserve">
<path d="M24.89,26.56c-1,0-1.82-0.82-1.82-1.82s0.82-1.82,1.82-1.82s1.82,0.82,1.82,1.82C26.71,25.74,25.89,26.56,24.89,26.56z
	 M5.29,7.26c0-1,0.82-1.82,1.82-1.82c1,0,1.82,0.82,1.82,1.82S8.11,9.08,7.11,9.08C6.11,9.08,5.29,8.27,5.29,7.26z M13.26,7.26
	c0-1,0.82-1.82,1.82-1.82c1,0,1.82,0.82,1.82,1.82s-0.82,1.82-1.82,1.82C14.08,9.08,13.26,8.27,13.26,7.26z M24.89,15.25
	c1,0,1.82,0.82,1.82,1.82c0,1-0.82,1.82-1.82,1.82s-1.82-0.82-1.82-1.82S23.88,15.25,24.89,15.25z M24.89,22.3
	c-1.28,0-2.34,1-2.43,2.26h-6.95c-0.04-0.01-0.13-0.16-0.13-0.33v-6.72h7.12c0.21,1.13,1.2,2,2.39,2c1.34,0,2.43-1.09,2.43-2.43
	c0-1.34-1.09-2.43-2.43-2.43c-1.28,0-2.33,1-2.43,2.26h-7.09V9.68c1.2-0.15,2.14-1.17,2.14-2.41c0-1.34-1.09-2.43-2.43-2.43
	s-2.43,1.09-2.43,2.43c0,1.23,0.93,2.26,2.12,2.41v7.22H8.08c-0.22,0-0.56-0.08-0.67-0.16V9.68c1.2-0.15,2.14-1.17,2.14-2.41
	c0-1.34-1.09-2.43-2.43-2.43S4.68,5.92,4.68,7.27c0,1.23,0.93,2.26,2.12,2.41v7.13c0,0.59,1.01,0.71,1.29,0.71h6.68v6.72
	c0,0.45,0.28,0.94,0.74,0.94h6.99c0.21,1.13,1.2,2,2.39,2c1.34,0,2.43-1.09,2.43-2.43C27.32,23.39,26.23,22.3,24.89,22.3L24.89,22.3
	z"/>
</svg>
