<?xml version="1.0" encoding="utf-8"?>
<!-- Generator: Adobe Illustrator 21.1.0, SVG Export Plug-In . SVG Version: 6.00 Build 0)  -->
<!DOCTYPE svg PUBLIC "-//W3C//DTD SVG 1.1//EN" "http://www.w3.org/Graphics/SVG/1.1/DTD/svg11.dtd">
<svg version="1.1" id="Layer_1" xmlns="http://www.w3.org/2000/svg" xmlns:xlink="http://www.w3.org/1999/xlink" x="0px" y="0px"
	 viewBox="0 0 32 32" style="enable-background:new 0 0 32 32;" xml:space="preserve">
<path d="M10.31,23.32c0,0.3,0.26,0.58,0.68,0.81v0.38c0,0.9,2.64,1.53,5.01,1.53s5.01-0.63,5.01-1.53v-0.38
	c0.42-0.24,0.68-0.51,0.68-0.81V8.82c0-0.21-0.21-0.6-0.62-1.17c-0.18-0.74-1.97-1.07-3.61-1.18c-0.14-0.31-0.45-0.52-0.81-0.52
	h-1.29c-0.36,0-0.67,0.21-0.81,0.52c-1.74,0.12-3.63,0.48-3.63,1.3c0,0,0,0,0,0c-0.6,0.74-0.6,0.97-0.6,1.04L10.31,23.32
	L10.31,23.32z M16,25.58c-2.74,0-4.55-0.76-4.55-1.07v-0.16c1.11,0.44,2.87,0.71,4.55,0.71c1.69,0,3.44-0.26,4.55-0.71v0.16
	C20.55,24.82,18.74,25.58,16,25.58L16,25.58z M20.78,8.3c0.16,0.25,0.29,0.46,0.3,0.52l0,14.49c-0.04,0.15-0.44,0.39-1.14,0.6
	c-0.89,0.28-2.26,0.53-3.94,0.53c-1.68,0-3.06-0.25-3.95-0.53c-0.69-0.22-1.09-0.45-1.13-0.6V8.85c0-0.01,0.01-0.02,0.01-0.02
	c0.04-0.09,0.17-0.28,0.33-0.49c0.31,0.22,0.8,0.38,1.35,0.49c1.43,0.3,3.26,0.31,3.39,0.31s1.96-0.01,3.39-0.31L20.78,8.3z
	 M15.35,6.42h1.29c0.22,0,0.4,0.16,0.43,0.36l-0.19,0.23c-0.03,0.04-0.05,0.09-0.05,0.15c0,0.11,0,0.19-0.44,0.19H15.6
	c-0.44,0-0.44-0.08-0.44-0.19c0-0.05-0.02-0.11-0.05-0.15l-0.19-0.23C14.95,6.57,15.14,6.42,15.35,6.42L15.35,6.42z M14.71,7.25
	c0.02,0.21,0.12,0.34,0.24,0.42c-0.36,0.07-0.6,0.17-0.6,0.29c0,0.2,0.73,0.37,1.62,0.37c0.9,0,1.62-0.17,1.62-0.37
	c0-0.11-0.22-0.21-0.56-0.28c0.13-0.08,0.23-0.21,0.26-0.43l0.14-0.16c1.81,0.12,2.88,0.47,3.04,0.69c-0.2,0.28-1.8,0.74-4.47,0.74
	c-2.67,0-4.26-0.46-4.47-0.74c0.16-0.22,1.23-0.57,3.04-0.69L14.71,7.25L14.71,7.25z M13.06,10.36c0.11,0,0.21-0.08,0.23-0.2
	c0.02-0.13-0.07-0.24-0.19-0.26c-0.52-0.07-0.98-0.17-1.35-0.28c-0.12-0.04-0.25,0.03-0.29,0.16c-0.03,0.12,0.03,0.25,0.16,0.28
	c0.4,0.12,0.87,0.21,1.42,0.29C13.04,10.36,13.05,10.36,13.06,10.36L13.06,10.36z M20.26,9.63C19.27,9.92,17.67,10.1,16,10.1
	c-0.38,0-0.75-0.01-1.12-0.03c-0.11-0.01-0.24,0.09-0.24,0.22s0.09,0.23,0.22,0.24c0.38,0.02,0.76,0.03,1.15,0.03
	c1.74,0,3.34-0.18,4.39-0.49c0.12-0.04,0.19-0.16,0.16-0.29C20.51,9.66,20.38,9.59,20.26,9.63z"/>
</svg>
