<?xml version="1.0" encoding="utf-8"?>
<!-- Generator: Adobe Illustrator 21.1.0, SVG Export Plug-In . SVG Version: 6.00 Build 0)  -->
<!DOCTYPE svg PUBLIC "-//W3C//DTD SVG 1.1//EN" "http://www.w3.org/Graphics/SVG/1.1/DTD/svg11.dtd">
<svg version="1.1" id="Layer_1" xmlns="http://www.w3.org/2000/svg" xmlns:xlink="http://www.w3.org/1999/xlink" x="0px" y="0px"
	 viewBox="0 0 31.68 31.68" style="enable-background:new 0 0 31.68 31.68;" xml:space="preserve">
<g>
	<path d="M22.69,5.81c0.03-0.1-0.02-0.22-0.12-0.27L20.45,4.5c-0.03-0.02-0.07-0.02-0.1-0.02h-8.7c-0.03,0-0.06,0.01-0.09,0.02
		L9.12,5.53C9.01,5.58,8.96,5.7,8.99,5.81C8.99,5.83,8.98,5.84,8.98,5.87v9.63v3.82c0,0.01,0,0.01,0,0.02c0,0.01,0,0.01,0,0.02v3.82
		v3.82c0,0.13,0.1,0.23,0.23,0.23h13.26c0.13,0,0.23-0.1,0.23-0.23v-3.82v-3.82c0-0.01,0-0.01,0-0.02c0,0,0-0.01,0-0.02v-3.82V5.86
		C22.7,5.84,22.69,5.82,22.69,5.81z M11.7,4.94h8.6l1.42,0.7H10.06L11.7,4.94z M10.86,8.16h10.18v7.55h-0.81
		c-0.06,0-0.12,0.05-0.12,0.12v3.41c0,0.06,0.05,0.12,0.12,0.12h0.81v7.39H10.86V8.16z M21.05,19.12h-0.7v-3.18h0.7V19.12z
		 M21.05,7.93H10.86V6.1h10.18V7.93z M9.44,23.38v-0.46v-3.36v-0.49v-3.36v-0.46V6.1h0.96v20.65H9.44V23.38z M22.24,7.28v18.35v1.1
		h-0.73V6.1h0.73V7.28z"/>
	<path d="M17.5,10.25H14.1c-0.06,0-0.12,0.05-0.12,0.12v1.78c0,0.06,0.05,0.12,0.12,0.12h3.41c0.06,0,0.12-0.05,0.12-0.12v-1.78
		C17.62,10.3,17.57,10.25,17.5,10.25z M17.39,12.03h-3.18v-1.55h3.18V12.03z"/>
	<circle cx="14.91" cy="11.26" r="0.32"/>
	<circle cx="15.81" cy="11.26" r="0.32"/>
	<circle cx="16.71" cy="11.26" r="0.32"/>
</g>
</svg>
