<?xml version="1.0" encoding="utf-8"?>
<!-- Generator: Adobe Illustrator 21.1.0, SVG Export Plug-In . SVG Version: 6.00 Build 0)  -->
<!DOCTYPE svg PUBLIC "-//W3C//DTD SVG 1.1//EN" "http://www.w3.org/Graphics/SVG/1.1/DTD/svg11.dtd">
<svg version="1.1" id="Layer_1" xmlns="http://www.w3.org/2000/svg" xmlns:xlink="http://www.w3.org/1999/xlink" x="0px" y="0px"
	 viewBox="0 0 32 32" style="enable-background:new 0 0 32 32;" xml:space="preserve">
<path d="M22.02,13.68c-0.52,0-0.94,0.42-0.94,0.94c0,0.52,0.42,0.94,0.94,0.94s0.94-0.42,0.94-0.94
	C22.96,14.1,22.54,13.68,22.02,13.68z M22.02,15.09c-0.26,0-0.48-0.21-0.48-0.48c0-0.26,0.21-0.48,0.48-0.48s0.48,0.21,0.48,0.48
	C22.5,14.88,22.28,15.09,22.02,15.09z M27.81,14.73l-1.72-0.41c-0.13-0.03-0.43-0.12-0.51-0.42c-0.3-1.11-1-2.09-1.82-2.97
	c0.14-0.34,0.18-0.85,0.53-1.38c0.37-0.56,0.99-1.27,0.25-1.57c-0.17-0.07-0.37-0.1-0.59-0.1C23,7.87,21.76,8.5,21.25,9
	c-0.98-0.54-2.07-0.95-3.24-1.21c-0.24-1.26-1.34-2.23-2.68-2.23c-1.31,0-2.4,0.93-2.66,2.16c-4.74,0.92-8.26,4.4-8.26,8.54
	c0,0.16,0.01,0.31,0.02,0.47c-0.01,0.01-0.03,0.02-0.04,0.03c-0.28,0.25-0.58,0.58-0.77,1.04c-0.17,0.43-0.23,0.88-0.18,1.33
	c0.08,0.91,0.73,1.67,1.33,1.85c0.2,0.07,0.37,0.1,0.52,0.1c0.28,0,0.45-0.11,0.45-0.18c0.02-0.15-0.31-0.28-0.55-0.59
	c-0.26-0.29-0.4-0.75-0.3-1.19c0.01-0.08,0.04-0.16,0.07-0.23c0.42,0.97,1.08,1.82,1.92,2.54c0.36,1.61,1.04,2.54,1.04,2.54
	s0.38,2.46,1.18,2.46h2.44c0.48,0,0.94-0.39,1.01-0.87c0,0-0.39-0.86-0.43-1.44c-0.01-0.1,0.02-0.22,0.05-0.34
	c0.97,0.18,1.99,0.28,3.05,0.28c0.59,0,1.17-0.03,1.73-0.09c0,0,0.77,2.46,1.57,2.46l2.44,0c0.48,0,0.87-0.39,0.87-0.87
	c0,0-0.53-0.86-0.66-1.44c-0.12-0.52,0.38-1.39,0.38-1.39c1.58-0.77,2.84-1.85,3.61-3.21l1.45,0.34c0.08,0.02,0.16,0.03,0.23,0.03
	c0.45,0,0.86-0.31,0.97-0.77l0.76-3.18C28.68,15.4,28.35,14.86,27.81,14.73L27.81,14.73z M13.07,8.28c0-0.22,0.03-0.43,0.1-0.64
	c0.28-0.93,1.15-1.61,2.17-1.61c1.04,0,1.92,0.71,2.18,1.66c0.05,0.19,0.08,0.39,0.08,0.6c0,0.01,0,0.03,0,0.04
	c0,0.16-0.02,0.32-0.06,0.48c-0.09-0.02-0.19-0.05-0.29-0.07c0.04-0.15,0.06-0.3,0.06-0.46c0-0.23-0.04-0.44-0.1-0.63
	c-0.26-0.78-1-1.35-1.87-1.35c-0.85,0-1.58,0.54-1.86,1.3c-0.07,0.2-0.11,0.41-0.12,0.64c0,0.01,0,0.02,0,0.03
	c0,0.18,0.03,0.36,0.07,0.53c0,0-0.2,0.05-0.29,0.07c-0.05-0.18-0.08-0.37-0.08-0.57C13.07,8.29,13.08,8.28,13.07,8.28L13.07,8.28z
	 M17.01,8.27c0,0.14-0.02,0.28-0.05,0.41c-1.16-0.2-2.33-0.11-3.22,0.06c-0.04-0.15-0.07-0.31-0.07-0.47c0-0.03,0-0.05,0-0.08
	c0.01-0.22,0.07-0.44,0.16-0.63c0.27-0.57,0.84-0.96,1.51-0.96c0.68,0,1.26,0.41,1.52,0.99C16.95,7.79,17,8.01,17,8.23
	C17,8.25,17.01,8.26,17.01,8.27L17.01,8.27z M27.95,15.8l-0.76,3.18c-0.04,0.18-0.2,0.3-0.38,0.3c-0.03,0-0.06,0-0.09-0.01
	l-1.45-0.34c-0.05-0.01-0.09-0.02-0.14-0.02c-0.22,0-0.42,0.12-0.53,0.31c-0.68,1.21-1.84,2.23-3.34,2.96
	c-0.11,0.05-0.2,0.14-0.26,0.25c-0.1,0.18-0.6,1.11-0.44,1.83c0.11,0.49,0.43,1.1,0.61,1.42c-0.04,0.08-0.13,0.14-0.23,0.14h-2.39
	c-0.26-0.16-0.74-1.1-1.03-2.03c-0.01-0.02-0.02-0.04-0.03-0.06c0.41-0.07,0.81-0.14,1.2-0.25c0.12-0.03,0.2-0.16,0.17-0.28
	c-0.03-0.12-0.16-0.2-0.28-0.17c-0.55,0.14-1.11,0.25-1.69,0.32c-0.01,0-0.01,0-0.02,0c-0.56,0.06-1.12,0.08-1.67,0.08
	c-0.99,0-1.98-0.09-2.93-0.27c-0.01,0-0.02,0-0.03,0c-1.1-0.23-2.15-0.58-3.1-1.07c-0.11-0.06-0.25-0.01-0.31,0.1
	c-0.06,0.11-0.01,0.25,0.1,0.31c0.84,0.42,1.74,0.75,2.69,0.99c-0.02,0.03-0.04,0.07-0.05,0.11c-0.04,0.13-0.09,0.33-0.07,0.54
	c0.03,0.49,0.26,1.1,0.39,1.43c-0.07,0.13-0.22,0.23-0.36,0.23l-2.37,0c-0.21-0.2-0.51-1.11-0.64-1.94
	c-0.02-0.1-0.05-0.19-0.11-0.27c-0.01-0.01-0.61-0.84-0.93-2.31c-0.03-0.13-0.1-0.25-0.2-0.33c-0.79-0.67-1.38-1.45-1.75-2.32
	c-0.1-0.23-0.32-0.37-0.56-0.37c-0.26,0-0.48,0.16-0.57,0.39C4.33,18.79,4.29,18.9,4.28,19c-0.05,0.25-0.05,0.51-0.01,0.76
	c-0.11-0.2-0.19-0.43-0.22-0.69c-0.04-0.35,0.01-0.7,0.14-1.03c0.12-0.29,0.32-0.56,0.6-0.8l0.02-0.01l0.02-0.02
	c0.15-0.13,0.24-0.32,0.22-0.52c-0.01-0.13-0.01-0.27-0.01-0.42c0-3.79,3.23-6.99,7.59-7.91c0.01,0.22,0.04,0.43,0.09,0.63
	c-0.21,0.07-0.37,0.14-0.46,0.2c-0.11,0.07-0.14,0.21-0.07,0.32c0.04,0.07,0.12,0.1,0.19,0.1c0.04,0,0.09-0.01,0.12-0.04
	c0.07-0.04,0.2-0.1,0.36-0.16c0.13-0.04,0.27-0.09,0.45-0.13c0.1-0.02,0.19-0.05,0.3-0.07c0.1-0.02,0.21-0.04,0.32-0.06
	c0.8-0.14,1.82-0.2,2.84-0.05c0.11,0.02,0.21,0.04,0.32,0.06c0.1,0.02,0.2,0.04,0.3,0.07c0.15,0.04,0.3,0.08,0.44,0.13
	c0.13,0.04,0.25,0.09,0.37,0.14c0.12,0.05,0.25,0,0.3-0.12c0.05-0.12,0-0.25-0.12-0.3c-0.14-0.06-0.27-0.11-0.41-0.16
	c0.04-0.16,0.06-0.33,0.07-0.51c1.03,0.24,2.01,0.61,2.9,1.11c0.09,0.05,0.2,0.08,0.3,0.08c0.16,0,0.31-0.06,0.43-0.18
	c0.39-0.39,1.47-0.95,2.27-0.95c0.1,0,0.2,0.01,0.27,0.03C24.16,8.66,24.01,8.87,23.92,9c-0.05,0.07-0.1,0.14-0.15,0.21
	c-0.29,0.44-0.41,0.86-0.49,1.17c-0.03,0.12-0.06,0.23-0.1,0.31c-0.09,0.22-0.05,0.48,0.12,0.66c0.89,0.95,1.44,1.84,1.68,2.71
	c0.12,0.43,0.47,0.74,0.96,0.86l1.72,0.41c0.1,0.02,0.19,0.09,0.24,0.18C27.96,15.59,27.98,15.69,27.95,15.8L27.95,15.8z"/>
</svg>
