<?xml version="1.0" encoding="utf-8"?>
<!-- Generator: Adobe Illustrator 21.1.0, SVG Export Plug-In . SVG Version: 6.00 Build 0)  -->
<!DOCTYPE svg PUBLIC "-//W3C//DTD SVG 1.1//EN" "http://www.w3.org/Graphics/SVG/1.1/DTD/svg11.dtd">
<svg version="1.1" id="Layer_1" xmlns="http://www.w3.org/2000/svg" xmlns:xlink="http://www.w3.org/1999/xlink" x="0px" y="0px"
	 viewBox="0 0 32 32" style="enable-background:new 0 0 32 32;" xml:space="preserve">
<path d="M27.09,8.71H4.91c-0.15,0-0.27,0.12-0.27,0.27v14.04c0,0.15,0.12,0.27,0.27,0.27H7.1c0.02,0,0.04,0,0.06-0.01l4.92-1.19
	c0.15-0.04,0.23-0.18,0.2-0.33c-0.03-0.15-0.18-0.23-0.33-0.2l-4.89,1.18H5.18V9.25h21.64v13.5H12.45c-0.15,0-0.27,0.12-0.27,0.27
	c0,0.15,0.12,0.27,0.27,0.27h14.63c0.15,0,0.27-0.12,0.27-0.27V8.98C27.36,8.83,27.24,8.71,27.09,8.71L27.09,8.71z M11.29,14.68
	h0.83c0.17,0,0.32-0.14,0.32-0.31v-2.28c0-0.17-0.14-0.32-0.32-0.32H7.36c-0.17,0-0.32,0.14-0.32,0.32v2.28
	c0,0.17,0.14,0.31,0.32,0.31h2.91c0.06,0.17,0.26,0.56,0.93,0.56h0.17l-0.1-0.14c0,0-0.11-0.17-0.08-0.3
	C11.21,14.75,11.24,14.71,11.29,14.68z M11.03,14.75c-0.02,0.11,0,0.21,0.03,0.3c-0.56-0.06-0.62-0.46-0.62-0.48l-0.01-0.08H7.37
	c-0.07,0-0.14-0.06-0.14-0.14v-2.28c0-0.07,0.06-0.14,0.14-0.14h4.76c0.07,0,0.14,0.06,0.14,0.14v2.28c0,0.07-0.06,0.14-0.14,0.14
	h-0.88l-0.02,0.01C11.12,14.57,11.05,14.65,11.03,14.75z M17.62,14.68h0.83c0.17,0,0.31-0.14,0.31-0.31v-2.28
	c0-0.17-0.14-0.32-0.31-0.32h-4.76c-0.17,0-0.31,0.14-0.31,0.32v2.28c0,0.17,0.14,0.31,0.31,0.31h2.91
	c0.06,0.17,0.26,0.56,0.93,0.56h0.17l-0.1-0.14c0,0-0.11-0.17-0.08-0.3C17.54,14.75,17.57,14.71,17.62,14.68z M17.35,14.75
	c-0.03,0.11,0,0.21,0.03,0.3c-0.56-0.06-0.62-0.46-0.62-0.48l-0.01-0.08h-3.06c-0.07,0-0.14-0.06-0.14-0.14v-2.28
	c0-0.07,0.06-0.14,0.14-0.14h4.76c0.08,0,0.14,0.06,0.14,0.14v2.28c0,0.07-0.06,0.14-0.14,0.14h-0.88l-0.02,0.01
	C17.45,14.57,17.38,14.65,17.35,14.75L17.35,14.75z M23.85,14.68h0.83c0.17,0,0.32-0.14,0.32-0.31v-2.28c0-0.17-0.14-0.32-0.32-0.32
	h-4.76c-0.17,0-0.31,0.14-0.31,0.32v2.28c0,0.17,0.14,0.31,0.31,0.31h2.91c0.06,0.17,0.26,0.56,0.93,0.56h0.17l-0.1-0.14
	c0,0-0.11-0.17-0.08-0.3C23.77,14.75,23.8,14.71,23.85,14.68z M23.58,14.75c-0.03,0.11,0,0.21,0.03,0.3
	c-0.56-0.06-0.62-0.46-0.62-0.48l-0.01-0.08h-3.06c-0.08,0-0.14-0.06-0.14-0.14v-2.28c0-0.07,0.06-0.14,0.14-0.14h4.76
	c0.08,0,0.14,0.06,0.14,0.14v2.28c0,0.07-0.06,0.14-0.14,0.14h-0.88l-0.02,0.01C23.68,14.57,23.61,14.65,23.58,14.75L23.58,14.75z
	 M11.29,19.31h0.83c0.17,0,0.32-0.14,0.32-0.32v-2.28c0-0.17-0.14-0.32-0.32-0.32H7.36c-0.17,0-0.32,0.14-0.32,0.32V19
	c0,0.17,0.14,0.31,0.32,0.31h2.91c0.06,0.17,0.26,0.56,0.93,0.56h0.17l-0.1-0.14c0,0-0.11-0.17-0.08-0.3
	C11.21,19.38,11.24,19.34,11.29,19.31z M11.03,19.39c-0.02,0.11,0,0.21,0.03,0.3c-0.56-0.06-0.62-0.46-0.62-0.48l-0.01-0.08H7.37
	c-0.07,0-0.14-0.06-0.14-0.14v-2.28c0-0.08,0.06-0.14,0.14-0.14h4.76c0.07,0,0.14,0.06,0.14,0.14V19c0,0.08-0.06,0.14-0.14,0.14
	h-0.88l-0.02,0.01C11.12,19.2,11.05,19.29,11.03,19.39L11.03,19.39z M13.38,19c0,0.17,0.14,0.32,0.31,0.32h2.91
	c0.06,0.17,0.26,0.56,0.93,0.56h0.17l-0.1-0.14c0,0-0.11-0.17-0.08-0.3c0.01-0.05,0.04-0.09,0.09-0.12h0.83
	c0.17,0,0.31-0.14,0.31-0.32v-2.28c0-0.17-0.14-0.32-0.31-0.32h-4.76c-0.17,0-0.31,0.14-0.31,0.32C13.38,16.72,13.38,19,13.38,19z
	 M13.56,16.72c0-0.08,0.06-0.14,0.14-0.14h4.76c0.08,0,0.14,0.06,0.14,0.14V19c0,0.08-0.06,0.14-0.14,0.14h-0.88l-0.02,0.01
	c-0.11,0.06-0.17,0.14-0.2,0.25c-0.03,0.11,0,0.21,0.03,0.3c-0.56-0.06-0.62-0.46-0.62-0.48l-0.01-0.08h-3.06
	c-0.07,0-0.14-0.06-0.14-0.14L13.56,16.72L13.56,16.72z M19.61,19c0,0.17,0.14,0.32,0.32,0.32h2.91c0.06,0.17,0.26,0.56,0.93,0.56
	h0.17l-0.1-0.14c0,0-0.11-0.17-0.08-0.3c0.01-0.05,0.04-0.09,0.09-0.12h0.83c0.17,0,0.32-0.14,0.32-0.32v-2.28
	c0-0.17-0.14-0.32-0.32-0.32h-4.76c-0.17,0-0.31,0.14-0.31,0.32C19.61,16.72,19.61,19,19.61,19z M19.79,16.72
	c0-0.08,0.06-0.14,0.14-0.14h4.76c0.08,0,0.14,0.06,0.14,0.14V19c0,0.08-0.06,0.14-0.14,0.14h-0.88l-0.02,0.01
	c-0.11,0.06-0.17,0.14-0.2,0.25c-0.02,0.11,0,0.21,0.03,0.3c-0.56-0.06-0.62-0.46-0.62-0.48l-0.01-0.08h-3.06
	c-0.08,0-0.14-0.06-0.14-0.14L19.79,16.72L19.79,16.72z"/>
</svg>
