<?xml version="1.0" encoding="utf-8"?>
<!-- Generator: Adobe Illustrator 21.1.0, SVG Export Plug-In . SVG Version: 6.00 Build 0)  -->
<!DOCTYPE svg PUBLIC "-//W3C//DTD SVG 1.1//EN" "http://www.w3.org/Graphics/SVG/1.1/DTD/svg11.dtd">
<svg version="1.1" id="Layer_1" xmlns="http://www.w3.org/2000/svg" xmlns:xlink="http://www.w3.org/1999/xlink" x="0px" y="0px"
	 viewBox="0 0 32 32" style="enable-background:new 0 0 32 32;" xml:space="preserve">
<path d="M9.55,19.72l-2.6,4.59l-0.02,0.04c-0.12,0.32-0.18,0.65-0.18,0.99c0,1.54,1.26,2.8,2.8,2.8s2.8-1.26,2.8-2.8
	c0-0.33-0.06-0.67-0.18-0.99L9.55,19.72L9.55,19.72z M9.55,27.55c-1.22,0-2.21-0.99-2.21-2.21c0-0.25,0.05-0.51,0.14-0.76l2.07-3.66
	l2.07,3.66c0.09,0.25,0.14,0.5,0.14,0.76C11.76,26.56,10.77,27.55,9.55,27.55L9.55,27.55z M24.95,10.71h-3.04
	c-0.16,0-0.3,0.13-0.3,0.3v1.21h-1.66c-0.43-1.08-1.26-1.94-2.34-2.4V7.42c0-0.16-0.13-0.3-0.3-0.3H16.6V6.36
	c0.15-0.09,0.28-0.21,0.39-0.35l3.41,0.2c0.03,0,0.06,0.01,0.09,0.01c0.55,0,1-0.45,1-1c0-0.61-0.54-1.11-1.19-0.98l-3.31,0.19
	c-0.25-0.35-0.65-0.56-1.08-0.56c-0.43,0-0.83,0.21-1.08,0.55l-3.43-0.19c0,0-0.14-0.01-0.22-0.01c-0.55,0-1,0.45-1,1
	c0,0.55,0.45,1,1,1c0.07,0,0.21-0.01,0.21-0.01L14.83,6c0.1,0.14,0.22,0.25,0.36,0.34v0.78h-0.65c-0.16,0-0.3,0.13-0.3,0.3v2.35
	c-1.12,0.46-2.01,1.37-2.44,2.49c-2.07,0.16-3.73,1.79-3.91,3.85H7.55c-0.16,0-0.3,0.13-0.3,0.3v2.46c0,0.16,0.13,0.3,0.3,0.3h4.08
	c0.16,0,0.3-0.13,0.3-0.3v-2.46c0-0.16-0.13-0.3-0.3-0.3h-0.18c0.11-0.19,0.29-0.34,0.51-0.39c0.73,1.5,2.25,2.46,3.94,2.46
	c1.71,0,3.24-0.98,3.96-2.52h1.76v1.22c0,0.16,0.13,0.3,0.3,0.3h3.04c0.16,0,0.3-0.13,0.3-0.3l0-5.89
	C25.25,10.84,25.12,10.71,24.95,10.71L24.95,10.71z M11.35,5.6c0,0-0.12,0.01-0.18,0.01c-0.22,0-0.41-0.18-0.41-0.41
	s0.18-0.41,0.41-0.41c0.06,0,0.17,0.01,0.18,0.01l3.81,0.22l0.09-0.17c0.13-0.25,0.39-0.41,0.66-0.41s0.53,0.16,0.66,0.41l0.09,0.17
	l3.74-0.22c0.03-0.01,0.06-0.01,0.09-0.01c0.22,0,0.41,0.18,0.41,0.41c0,0.22-0.18,0.4-0.41,0.4c0,0,0,0,0,0l-3.82-0.22l-0.09,0.17
	c-0.13,0.25-0.39,0.4-0.66,0.4c-0.28,0-0.53-0.15-0.66-0.4l-0.09-0.17L11.35,5.6L11.35,5.6z M15.49,6.48
	c0.13,0.04,0.28,0.07,0.42,0.07c0.14,0,0.27-0.02,0.39-0.06v0.63h-0.82C15.49,7.12,15.49,6.48,15.49,6.48z M24.66,16.6h-2.45v-1.22
	c0-0.16-0.13-0.3-0.3-0.3h-2.25c-0.12,0-0.23,0.07-0.28,0.18c-0.59,1.42-1.96,2.34-3.49,2.34c-1.52,0-2.89-0.9-3.48-2.3
	c-0.05-0.11-0.15-0.18-0.27-0.18c-0.73,0-1.32,0.55-1.39,1.27c-0.01,0.08,0.02,0.17,0.08,0.23c0.06,0.06,0.14,0.1,0.22,0.1h0.28
	v1.87H7.84v-1.87h0.33c0.16,0,0.29-0.13,0.3-0.29c0.05-1.95,1.61-3.52,3.56-3.58c0.12,0,0.23-0.09,0.27-0.2
	c0.37-1.11,1.24-2,2.34-2.39c0.12-0.04,0.2-0.15,0.2-0.28V7.72h2.19v2.29c0,0.12,0.08,0.23,0.19,0.28c1.07,0.4,1.88,1.24,2.25,2.32
	c0.04,0.12,0.15,0.2,0.28,0.2h2.16c0.16,0,0.3-0.13,0.3-0.3V11.3h2.45L24.66,16.6L24.66,16.6z M10.26,16.42h-1.3
	c-0.08,0-0.15,0.07-0.15,0.15c0,0.08,0.07,0.15,0.15,0.15h1.3c0.08,0,0.15-0.07,0.15-0.15S10.34,16.42,10.26,16.42z M16.37,9.93
	h-0.91c-0.08,0-0.15,0.07-0.15,0.15c0,0.08,0.07,0.15,0.15,0.15h0.91c0.08,0,0.15-0.07,0.15-0.15C16.52,10,16.46,9.93,16.37,9.93z
	 M22.06,13.19c-0.08,0-0.15,0.07-0.15,0.15v1.13c0,0.08,0.07,0.15,0.15,0.15c0.08,0,0.15-0.07,0.15-0.15v-1.13
	C22.21,13.26,22.14,13.19,22.06,13.19z M11.09,24.91c-0.08,0.03-0.12,0.11-0.09,0.19c0.06,0.15,0.09,0.31,0.09,0.47
	c0,0.74-0.6,1.34-1.34,1.34c-0.08,0-0.15,0.07-0.15,0.15c0,0.08,0.07,0.15,0.15,0.15c0.9,0,1.64-0.74,1.64-1.64
	c0-0.2-0.04-0.39-0.11-0.58C11.25,24.92,11.17,24.88,11.09,24.91L11.09,24.91z"/>
</svg>
