<?xml version="1.0" encoding="utf-8"?>
<!-- Generator: Adobe Illustrator 21.1.0, SVG Export Plug-In . SVG Version: 6.00 Build 0)  -->
<!DOCTYPE svg PUBLIC "-//W3C//DTD SVG 1.1//EN" "http://www.w3.org/Graphics/SVG/1.1/DTD/svg11.dtd">
<svg version="1.1" id="Layer_1" xmlns="http://www.w3.org/2000/svg" xmlns:xlink="http://www.w3.org/1999/xlink" x="0px" y="0px"
	 viewBox="0 0 32 32" style="enable-background:new 0 0 32 32;" xml:space="preserve">
<path d="M20.06,8.52c-0.36-2.19-1.94-3.43-2.01-3.48c-0.61-0.46-1.1-0.68-1.49-0.68c-0.41,0-0.61,0.26-0.66,0.41
	c-0.02,0.05-0.02,0.11,0,0.16l0.93,2.53l-0.15,1.21l-1.24,0.58L14.5,8.42c-0.1-0.26-0.5-1.35-0.7-1.93
	c-0.17-0.48-0.35-0.71-0.59-0.75c-0.15-0.02-0.27,0.04-0.34,0.12c-1.98,1.72-0.38,4.8-0.28,4.99c0.02,0.04,0.17,0.36,0.43,0.77
	l-0.15,0.07c-0.38,0.18-0.49,0.62-0.28,1.06c0.14,0.3,0.38,0.47,0.65,0.47c0.1,0,0.21-0.03,0.32-0.07l0.48-0.23
	c0.07,0.07,0.15,0.14,0.22,0.2c0.42,0.36,0.58,0.58,0.54,1.54l-0.37,10.78c0,0.04-0.09,1.02,0.49,1.67
	c0.32,0.35,0.77,0.53,1.35,0.53c0.54,0,0.97-0.17,1.27-0.51c0.58-0.64,0.48-1.65,0.48-1.67l-0.35-10.78c0-0.12,0-0.24-0.01-0.35
	c-0.02-0.77-0.04-1.27,1.18-2.23C20.45,10.84,20.08,8.61,20.06,8.52L20.06,8.52z M12.93,10.41c-0.31-0.68-1.15-2.88,0.23-4.14
	c0.04,0.05,0.11,0.17,0.19,0.39c0.23,0.66,0.73,1.99,0.73,1.99c0.01,0.04,0.04,0.07,0.07,0.1l0.82,0.72L12.93,10.41L12.93,10.41z
	 M13.4,12.81c-0.06,0.03-0.11,0.04-0.16,0.04c-0.17,0-0.28-0.16-0.32-0.26c-0.07-0.16-0.14-0.46,0.11-0.57l0.2-0.09
	c0.16,0.23,0.34,0.48,0.55,0.71L13.4,12.81L13.4,12.81z M18.55,11.71c-1.41,1.11-1.39,1.82-1.36,2.63c0,0.11,0.01,0.22,0.01,0.34
	l0.35,10.81c0,0.01,0.07,0.84-0.35,1.31c-0.21,0.24-0.51,0.35-0.91,0.35c-0.43,0-0.76-0.12-0.98-0.37
	c-0.44-0.48-0.37-1.29-0.37-1.31l0.37-10.8c0.04-1.01-0.11-1.42-0.71-1.93c-0.69-0.58-1.22-1.48-1.44-1.9L17,9.05
	c0.08-0.04,0.13-0.11,0.14-0.19l0.18-1.4c0-0.04,0-0.08-0.01-0.11l-0.9-2.46c0.03-0.02,0.08-0.04,0.16-0.04
	c0.16,0,0.52,0.08,1.19,0.58c0.01,0.01,1.5,1.18,1.82,3.17C19.58,8.62,19.91,10.63,18.55,11.71L18.55,11.71z M17.53,9.76
	c-0.06-0.08-0.18-0.1-0.26-0.04s-0.1,0.18-0.04,0.26l0.72,0.96c0.04,0.05,0.09,0.07,0.15,0.07c0.04,0,0.08-0.01,0.11-0.04
	c0.08-0.06,0.1-0.18,0.04-0.26L17.53,9.76L17.53,9.76z M16.87,10.09c-0.06-0.08-0.18-0.1-0.26-0.04c-0.08,0.06-0.1,0.18-0.04,0.26
	l0.72,0.96c0.04,0.05,0.09,0.07,0.15,0.07c0.04,0,0.08-0.01,0.11-0.04c0.08-0.06,0.1-0.18,0.04-0.26L16.87,10.09L16.87,10.09z
	 M16.63,11.58c0.04,0.05,0.09,0.07,0.15,0.07c0.04,0,0.08-0.01,0.11-0.04c0.08-0.06,0.1-0.18,0.04-0.26l-0.72-0.96
	c-0.06-0.08-0.18-0.1-0.26-0.04c-0.08,0.06-0.1,0.18-0.04,0.26L16.63,11.58L16.63,11.58z M16.11,11.98c0.04,0,0.08-0.01,0.11-0.04
	c0.08-0.06,0.1-0.18,0.04-0.26l-0.72-0.96c-0.06-0.08-0.18-0.1-0.26-0.04c-0.08,0.06-0.1,0.18-0.04,0.26l0.72,0.96
	C16,11.95,16.06,11.98,16.11,11.98z M16.27,24.87c-0.17,0-0.34,0.05-0.48,0.14c-0.41,0.26-0.54,0.82-0.27,1.23
	c0.16,0.26,0.45,0.41,0.75,0.41c0.17,0,0.33-0.05,0.48-0.14c0.42-0.26,0.54-0.82,0.27-1.23C16.86,25.02,16.57,24.87,16.27,24.87
	L16.27,24.87z M16.55,26.2c-0.24,0.15-0.57,0.08-0.73-0.16c-0.15-0.25-0.08-0.57,0.16-0.73c0.09-0.05,0.18-0.08,0.28-0.08
	c0.18,0,0.35,0.09,0.44,0.24C16.86,25.72,16.79,26.05,16.55,26.2L16.55,26.2z"/>
</svg>
