<?xml version="1.0" encoding="utf-8"?>
<!-- Generator: Adobe Illustrator 21.1.0, SVG Export Plug-In . SVG Version: 6.00 Build 0)  -->
<!DOCTYPE svg PUBLIC "-//W3C//DTD SVG 1.1//EN" "http://www.w3.org/Graphics/SVG/1.1/DTD/svg11.dtd">
<svg version="1.1" id="Layer_1" xmlns="http://www.w3.org/2000/svg" xmlns:xlink="http://www.w3.org/1999/xlink" x="0px" y="0px"
	 viewBox="0 0 31.68 31.68" style="enable-background:new 0 0 31.68 31.68;" xml:space="preserve">
<g>
	<path d="M25.69,11.77c-0.9-2.93-3.63-4.96-6.71-4.96c-3.09,0-5.8,2.01-6.7,4.93c-0.5-0.18-1.03-0.27-1.57-0.27
		c-2.18,0-4.06,1.5-4.56,3.61c-1.95,0.07-3.6,1.43-4.03,3.35c-0.02,0.09,0,0.18,0.06,0.25c0.06,0.07,0.14,0.11,0.23,0.11h13.09v6.55
		c0,0.43,0.35,0.79,0.79,0.79h5.78c0.43,0,0.79-0.35,0.79-0.79v-6.55h7.12c0.14,0,0.26-0.1,0.29-0.24c0.06-0.36,0.09-0.68,0.09-1
		C30.34,14.75,28.4,12.35,25.69,11.77z M22.24,25.33c0,0.1-0.08,0.18-0.18,0.18h-5.78c-0.1,0-0.18-0.08-0.18-0.18v-1.35h6.13V25.33z
		 M22.24,23.67h-6.13v-7.82h6.13V23.67z M22.24,15.55h-6.13V14.2c0-0.1,0.08-0.18,0.18-0.18h5.78c0.1,0,0.18,0.08,0.18,0.18V15.55z
		 M29.72,18.2h-6.87v-4c0-0.43-0.35-0.79-0.79-0.79h-5.78c-0.43,0-0.79,0.35-0.79,0.79v4H2.79c0.5-1.51,1.9-2.54,3.55-2.54h0l0.04,0
		c0.15,0.01,0.27-0.1,0.29-0.24c0.35-1.95,2.05-3.37,4.03-3.37c0.53,0,1.05,0.11,1.54,0.3c0.3,0.15,0.95,0.52,1.35,1.2
		c0.05,0.08,0.14,0.12,0.23,0.1c0.03,0,0.05-0.01,0.07-0.03c0.1-0.06,0.14-0.2,0.08-0.3c-0.35-0.58-0.84-0.96-1.21-1.19
		c0.76-2.8,3.3-4.76,6.21-4.76c2.8,0,5.27,1.79,6.11,4.44c-0.75,0-1.31,0.27-1.34,0.28c-0.11,0.05-0.16,0.17-0.12,0.29
		c0.05,0.11,0.17,0.16,0.28,0.12c0.01,0,0.78-0.31,1.65-0.17c2.44,0.53,4.19,2.68,4.19,5.19C29.76,17.75,29.75,17.97,29.72,18.2z"/>
	<path d="M19.74,14.59H18.6c-0.08,0-0.15,0.07-0.15,0.15s0.07,0.15,0.15,0.15h1.14c0.08,0,0.15-0.07,0.15-0.15
		S19.82,14.59,19.74,14.59z"/>
	<path d="M17.93,14.64c-0.03,0.03-0.04,0.07-0.04,0.11c0,0.04,0.02,0.08,0.04,0.11c0.03,0.03,0.07,0.05,0.11,0.05
		c0.04,0,0.08-0.02,0.11-0.05c0.03-0.03,0.05-0.07,0.05-0.11c0-0.04-0.02-0.08-0.05-0.11C18.09,14.58,17.98,14.58,17.93,14.64z"/>
	<path d="M18.84,25.27h0.65c0.26,0,0.47-0.21,0.47-0.47v-0.15c0-0.26-0.21-0.47-0.47-0.47h-0.65c-0.26,0-0.47,0.21-0.47,0.47v0.15
		C18.38,25.06,18.59,25.27,18.84,25.27z M18.68,24.65c0-0.09,0.07-0.16,0.16-0.16h0.65c0.09,0,0.16,0.07,0.16,0.16v0.15
		c0,0.09-0.07,0.16-0.16,0.16h-0.65c-0.09,0-0.16-0.07-0.16-0.16V24.65z"/>
</g>
</svg>
