<?xml version="1.0" encoding="utf-8"?>
<!-- Generator: Adobe Illustrator 21.1.0, SVG Export Plug-In . SVG Version: 6.00 Build 0)  -->
<!DOCTYPE svg PUBLIC "-//W3C//DTD SVG 1.1//EN" "http://www.w3.org/Graphics/SVG/1.1/DTD/svg11.dtd">
<svg version="1.1" id="Layer_1" xmlns="http://www.w3.org/2000/svg" xmlns:xlink="http://www.w3.org/1999/xlink" x="0px" y="0px"
	 viewBox="0 0 32 32" style="enable-background:new 0 0 32 32;" xml:space="preserve">
<path d="M17.8,9.54c2.08,0,3.77-1.69,3.77-3.77C21.57,3.69,19.88,2,17.8,2c-2.08,0-3.77,1.69-3.77,3.77
	C14.03,7.85,15.72,9.54,17.8,9.54z M17.8,2.54c1.78,0,3.23,1.45,3.23,3.23C21.03,7.55,19.58,9,17.8,9c-1.78,0-3.23-1.45-3.23-3.23
	C14.57,3.99,16.02,2.54,17.8,2.54z M19.87,10.27h-4.14c-2.35,0-4.04,0.79-5.01,2.28l0.07,0.06l-0.07-0.06l-1-0.77
	c-0.12-0.09-0.28-0.07-0.38,0.05l-3.38,4.28l-1.79,1.26c-0.04,0.03-0.07,0.08-0.08,0.13s0,0.11,0.03,0.15l0.31,0.42l-1.2,1.52
	c-0.04,0.06-0.06,0.13-0.05,0.2c0.01,0.07,0.05,0.14,0.1,0.18l5.66,4.36l4.02,5.58c0.03,0.05,0.09,0.08,0.14,0.08
	c0.05,0,0.09-0.01,0.14-0.03l1.55-1.09l0.63,0.49c0.04,0.03,0.09,0.05,0.14,0.05c0.09,0.01,0.18-0.03,0.24-0.1l2.05-2.59l3.67-2.58
	c0.04-0.03,0.07-0.08,0.08-0.13c0.01-0.05,0-0.11-0.03-0.15l-0.71-0.98l1.05-1.33c0.04-0.06,0.06-0.13,0.06-0.2
	c-0.01-0.07-0.05-0.14-0.1-0.18l-5.06-3.93l-4.06-5.65c-0.03-0.04-0.08-0.07-0.13-0.08c0.77-0.43,1.79-0.7,3.13-0.7h4.14
	c4.48,0,5.42,2.95,5.42,5.42v3.32c0,1.61-1.09,2.41-2.35,3.34V15.7c0-0.13-0.11-0.24-0.24-0.24c-0.13,0-0.24,0.11-0.24,0.24v8.95
	c-0.31,0.24-1.09,0.67-2.9,0.85l-0.86,0.6c3.09-0.14,4.07-0.96,4.31-1.23c0.04-0.05,0.07-0.11,0.07-0.18v-1.24l0.17-0.13
	c1.33-0.97,2.58-1.89,2.58-3.78v-3.32C25.83,12.39,23.71,10.27,19.87,10.27z M12.45,11.55c0.02-0.01,0.03-0.02,0.05-0.02
	C12.49,11.53,12.47,11.53,12.45,11.55L12.45,11.55z M9.6,12.37l0.8,0.62l-2.89,2.03L9.6,12.37z M3.82,19.71l0.94-1.19l3.11,4.32
	L3.82,19.71L3.82,19.71z M15.53,28.78l-0.29-0.23l1.05-0.74L15.53,28.78z M21.31,21.43l-0.78,1l-2.6-3.62L21.31,21.43z M16.8,17.93
	l0,0.01l0.01,0.01l4.3,5.98l-7.96,5.59l-4.18-5.81l0-0.01L8.97,23.7l-4.4-6.12l7.96-5.59L16.8,17.93L16.8,17.93z M10.31,17.93
	l-1.45,1.02c-0.04,0.03-0.07,0.08-0.08,0.13s0,0.11,0.03,0.15l2.83,3.93c0.06,0.09,0.19,0.11,0.28,0.05l0.13-0.09l0.72-0.51
	l0.34,0.48l0.87,1.21c0.03,0.05,0.09,0.08,0.14,0.08c0.05,0.01,0.09-0.01,0.14-0.03l2.64-1.85c0.04-0.03,0.07-0.08,0.08-0.13
	c0.01-0.05,0-0.11-0.03-0.15l-4.16-5.78c-0.04-0.05-0.09-0.08-0.15-0.08c-0.04,0-0.09,0.01-0.13,0.03L10.31,17.93L10.31,17.93z
	 M12.64,16.9l3.87,5.38L14.2,23.9l-1.22-1.69c-0.03-0.05-0.09-0.08-0.14-0.08c-0.05,0-0.09,0.01-0.14,0.03l-0.85,0.6l-2.6-3.61
	l3.32-2.33L12.64,16.9L12.64,16.9z M18.04,24.03c0.02,0.02,0.04,0.04,0.07,0.04c0.02,0,0.05,0,0.07-0.02
	c0.05-0.03,0.06-0.09,0.02-0.14l-0.95-1.32c-0.03-0.05-0.09-0.06-0.14-0.02c-0.04,0.03-0.05,0.09-0.02,0.14L18.04,24.03z
	 M17.38,22.16c0.02,0,0.05,0,0.07-0.02l0.83-0.58c0.04-0.03,0.06-0.09,0.02-0.14s-0.09-0.06-0.14-0.02l-0.83,0.58
	c-0.05,0.03-0.06,0.09-0.02,0.14C17.33,22.14,17.36,22.15,17.38,22.16z M11.52,14.78c-0.05,0.03-0.06,0.09-0.02,0.14l0.95,1.32
	c0.02,0.02,0.04,0.04,0.07,0.04c0.02,0,0.05,0,0.07-0.02c0.05-0.03,0.06-0.09,0.02-0.14l-0.95-1.32
	C11.62,14.76,11.56,14.75,11.52,14.78L11.52,14.78z M8.85,18.76L7.9,17.44c-0.03-0.04-0.09-0.05-0.14-0.02
	c-0.04,0.03-0.05,0.09-0.02,0.14l0.95,1.32c0.02,0.02,0.04,0.04,0.07,0.04c0.02,0,0.05,0,0.07-0.02
	C8.88,18.87,8.89,18.81,8.85,18.76L8.85,18.76z M13.11,16.26c0.01,0,0.02,0.01,0.03,0.01c0.02,0,0.05,0,0.07-0.02l0.83-0.58
	c0.05-0.03,0.06-0.09,0.02-0.14c-0.03-0.05-0.09-0.06-0.14-0.02l-0.83,0.58c-0.05,0.03-0.06,0.09-0.02,0.14
	C13.09,16.24,13.1,16.25,13.11,16.26L13.11,16.26z M14.96,25.35l-0.55-0.76c-0.03-0.04-0.09-0.05-0.14-0.02
	c-0.05,0.03-0.06,0.09-0.02,0.14l0.95,1.32c0.02,0.02,0.04,0.04,0.07,0.04c0.02,0,0.05,0,0.07-0.02c0.02-0.02,0.04-0.05,0.04-0.07
	c0-0.02,0-0.05-0.02-0.07L14.96,25.35L14.96,25.35z M13.78,24.48l-0.83,0.58c-0.03,0.02-0.04,0.06-0.03,0.1c0,0.01,0,0.03,0.01,0.04
	c0.02,0.02,0.04,0.04,0.07,0.04c0.01,0,0.02-0.01,0.03-0.01c0.01,0,0.02,0,0.03-0.01l0.83-0.58c0.05-0.03,0.06-0.09,0.02-0.14
	C13.88,24.46,13.82,24.45,13.78,24.48z M11.36,23.23l-0.83,0.58c-0.05,0.03-0.06,0.09-0.02,0.14c0.02,0.02,0.04,0.04,0.07,0.04
	c0.02,0,0.05,0,0.07-0.02l0.83-0.58c0.05-0.03,0.06-0.09,0.02-0.14C11.47,23.21,11.41,23.2,11.36,23.23L11.36,23.23z M8.53,19.3
	l-0.83,0.58c-0.05,0.03-0.06,0.09-0.02,0.14c0.02,0.02,0.04,0.04,0.07,0.04c0.02,0,0.05,0,0.07-0.02l0.83-0.58
	c0.04-0.03,0.06-0.09,0.02-0.14C8.64,19.28,8.58,19.27,8.53,19.3L8.53,19.3z"/>
</svg>
