<?xml version="1.0" encoding="utf-8"?>
<!-- Generator: Adobe Illustrator 21.1.0, SVG Export Plug-In . SVG Version: 6.00 Build 0)  -->
<!DOCTYPE svg PUBLIC "-//W3C//DTD SVG 1.1//EN" "http://www.w3.org/Graphics/SVG/1.1/DTD/svg11.dtd">
<svg version="1.1" id="Layer_1" xmlns="http://www.w3.org/2000/svg" xmlns:xlink="http://www.w3.org/1999/xlink" x="0px" y="0px"
	 viewBox="0 0 32 32" style="enable-background:new 0 0 32 32;" xml:space="preserve">
<path d="M22.24,22.64h-0.65c-2.57,0-3.34-1.49-3.56-2.15H6.9c-0.67,0-1.21-0.54-1.21-1.21v-8.71c0-0.67,0.54-1.21,1.21-1.21H25.1
	c0.67,0,1.21,0.54,1.21,1.21v8.71c0,0.67-0.54,1.21-1.21,1.21h-3.17c-0.19,0.12-0.31,0.27-0.35,0.46c-0.12,0.51,0.29,1.14,0.3,1.15
	L22.24,22.64L22.24,22.64z M6.9,10.05c-0.29,0-0.52,0.23-0.52,0.52v8.71c0,0.29,0.23,0.52,0.52,0.52H18.6l0.04,0.3
	c0.01,0.07,0.25,1.59,2.38,1.82c-0.12-0.32-0.21-0.73-0.11-1.13c0.1-0.4,0.35-0.72,0.76-0.94l0.08-0.04h3.35
	c0.29,0,0.52-0.23,0.52-0.52v-8.71c0-0.29-0.23-0.52-0.52-0.52L6.9,10.05L6.9,10.05z"/>
</svg>
