<?xml version="1.0" encoding="utf-8"?>
<!-- Generator: Adobe Illustrator 21.1.0, SVG Export Plug-In . SVG Version: 6.00 Build 0)  -->
<!DOCTYPE svg PUBLIC "-//W3C//DTD SVG 1.1//EN" "http://www.w3.org/Graphics/SVG/1.1/DTD/svg11.dtd">
<svg version="1.1" id="Layer_1" xmlns="http://www.w3.org/2000/svg" xmlns:xlink="http://www.w3.org/1999/xlink" x="0px" y="0px"
	 viewBox="0 0 32 32" style="enable-background:new 0 0 32 32;" xml:space="preserve">
<path d="M26.73,16.87c-0.05-0.62-0.66-1.13-1.82-1.5v-3.48c0-0.61-0.5-1.11-1.11-1.11h-0.78V9.99c0-0.61-0.5-1.11-1.11-1.11H21.4
	c0.13-1.87,0-3.26-0.43-3.89c-0.22-0.33-0.49-0.42-0.68-0.44c-0.73-0.08-1.59,0.76-2.57,2.52l-4.26,0
	c-1.55-1.53-2.71-2.14-3.45-1.83C9.48,5.45,9.27,6.07,9.37,7.06H7.92c-0.61,0-1.11,0.5-1.11,1.11v8.66
	c-1.06,0.55-1.58,1.15-1.53,1.77c0.05,0.64,0.7,1.09,1.53,1.4v0.35c0,0.61,0.5,1.11,1.11,1.11h0.7v0.7c0,0.61,0.5,1.11,1.11,1.11
	h0.78v0.78c0,0.61,0.5,1.11,1.11,1.11h1.42c0.09,1.44,0.47,2.21,1.14,2.29c0.03,0,0.06,0.01,0.09,0.01c0.7,0,1.52-0.89,2.34-2.29
	h3.15c1.35,1.35,2.41,2.02,3.17,2.02c0.15,0,0.28-0.03,0.41-0.08c0.19-0.08,0.44-0.26,0.57-0.67c0.1-0.32,0.12-0.76,0.05-1.29
	c0.54-0.07,0.97-0.53,0.97-1.1v-5.29C25.94,18.29,26.79,17.64,26.73,16.87L26.73,16.87z M14.41,8.05c-0.17-0.19-0.33-0.36-0.5-0.53
	h6.18c0.36,0,0.65,0.29,0.65,0.65v0.7h-5.62C14.88,8.59,14.64,8.31,14.41,8.05L14.41,8.05z M20.76,9.33
	c-0.04,0.45-0.1,0.93-0.17,1.43h-3.96c-0.38-0.5-0.75-0.98-1.12-1.43C15.51,9.33,20.76,9.33,20.76,9.33z M19.46,14.94
	c-0.34-0.55-0.68-1.08-1.03-1.61h1.7c-0.13,0.63-0.28,1.28-0.46,1.97C19.6,15.18,19.53,15.06,19.46,14.94L19.46,14.94z M10.97,13.02
	v-1.15c0-0.36,0.29-0.65,0.65-0.65h4.53c0.43,0.57,0.86,1.18,1.28,1.8H10.97L10.97,13.02z M18.23,13.02
	c-0.42-0.62-0.84-1.22-1.26-1.8h3.55c-0.09,0.57-0.2,1.17-0.33,1.8H18.23z M15.81,10.76h-4.19c-0.61,0-1.11,0.5-1.11,1.11v8.22
	c-0.51-0.04-0.98-0.1-1.43-0.17V9.99c0-0.36,0.29-0.65,0.65-0.65h4.93C15.04,9.78,15.42,10.26,15.81,10.76L15.81,10.76z
	 M10.97,13.33h6.68c0.42,0.63,0.84,1.29,1.25,1.95c0.19,0.31,0.37,0.61,0.54,0.9c0,0.01,0,0.01-0.01,0.02
	c-0.36,1.32-0.74,2.53-1.12,3.63c-0.69,0.09-1.4,0.17-2.12,0.23c-1.86,0.15-3.64,0.17-5.22,0.07L10.97,13.33L10.97,13.33z
	 M19.86,16.92c0.48,0.84,0.91,1.65,1.29,2.42c-0.69,0.15-1.41,0.29-2.17,0.4C19.3,18.82,19.6,17.87,19.86,16.92L19.86,16.92z
	 M20.11,16.03c0.25-0.93,0.46-1.83,0.64-2.7h3.71v4.98c-0.3,0.13-0.64,0.26-1.03,0.4c-0.5,0.17-1.04,0.33-1.62,0.47
	C21.31,18.17,20.74,17.11,20.11,16.03L20.11,16.03z M24.45,11.88v1.15h-3.65c0.12-0.62,0.23-1.22,0.32-1.8h2.67
	C24.16,11.22,24.45,11.52,24.45,11.88z M21.91,9.33c0.36,0,0.65,0.29,0.65,0.65v0.78h-1.37c0.07-0.5,0.12-0.98,0.17-1.43L21.91,9.33
	L21.91,9.33z M20.23,5.14c0.03,0,0.13,0.01,0.25,0.18c0.23,0.33,0.36,1.03,0.37,2.03c-0.2-0.18-0.46-0.3-0.75-0.3h-1.68
	C19.28,5.6,19.91,5.11,20.23,5.14L20.23,5.14z M10.26,5.83c0.31-0.13,1.05,0.16,2.24,1.23h-2.48C9.95,6.39,10.03,5.93,10.26,5.83
	L10.26,5.83z M7.92,7.52h5.08c0.29,0.28,0.6,0.6,0.93,0.97c0.11,0.12,0.23,0.26,0.34,0.38H9.73c-0.61,0-1.11,0.5-1.11,1.11v9.86
	c-0.54-0.1-0.99-0.21-1.35-0.33V8.17C7.26,7.81,7.56,7.52,7.92,7.52z M5.88,18.55c-0.02-0.29,0.31-0.66,0.92-1.02v1.81
	C6.17,19.08,5.9,18.79,5.88,18.55L5.88,18.55z M7.92,21.01c-0.36,0-0.65-0.29-0.65-0.65v-0.19c0.44,0.13,0.91,0.23,1.35,0.31v0.53
	H7.92z M9.73,22.82c-0.36,0-0.65-0.29-0.65-0.65v-1.62c0.45,0.07,0.93,0.12,1.43,0.16v2.11H9.73z M10.97,24.06v-3.32
	c0.65,0.04,1.33,0.06,2.04,0.06c1.03,0,2.12-0.05,3.23-0.13c0.62-0.05,1.24-0.12,1.84-0.19c-0.65,1.75-1.31,3.17-1.91,4.23h-4.55
	C11.26,24.71,10.97,24.42,10.97,24.06L10.97,24.06z M14.24,26.86c-0.24-0.03-0.52-0.49-0.6-1.69h2.26
	C15.2,26.31,14.61,26.9,14.24,26.86z M18.75,20.39c0.94-0.14,1.84-0.3,2.68-0.49c0.95,1.99,1.54,3.65,1.78,4.82h-2.99
	c-0.01-0.01-0.02-0.02-0.03-0.03l-0.03,0.03h-3.3C17.52,23.51,18.16,22.01,18.75,20.39L18.75,20.39z M23.28,26.24
	c-0.07,0.21-0.17,0.26-0.2,0.27c-0.31,0.13-1.09-0.17-2.37-1.34h2.59C23.36,25.64,23.35,26,23.28,26.24z M24.45,24.06
	c0,0.33-0.25,0.61-0.58,0.65c-0.24-1.28-0.87-3.01-1.8-4.96c0.55-0.14,1.07-0.29,1.54-0.45c0.27-0.09,0.55-0.2,0.83-0.31
	C24.45,18.98,24.45,24.06,24.45,24.06z M24.91,18.09v-2.08c0.75,0.27,1.18,0.59,1.21,0.91C26.14,17.2,25.81,17.63,24.91,18.09z"/>
</svg>
