<?xml version="1.0" encoding="utf-8"?>
<!-- Generator: Adobe Illustrator 21.1.0, SVG Export Plug-In . SVG Version: 6.00 Build 0)  -->
<!DOCTYPE svg PUBLIC "-//W3C//DTD SVG 1.1//EN" "http://www.w3.org/Graphics/SVG/1.1/DTD/svg11.dtd">
<svg version="1.1" id="Layer_1" xmlns="http://www.w3.org/2000/svg" xmlns:xlink="http://www.w3.org/1999/xlink" x="0px" y="0px"
	 viewBox="0 0 32 32" style="enable-background:new 0 0 32 32;" xml:space="preserve">
<path d="M10.08,9.57H8.11c-1.9,0-2.94,1.05-2.94,2.95v1.58c0,0.95,0.65,1.43,1.27,1.89L6.47,16v0.43c0,0.02,0.01,0.04,0.01,0.05v9.2
	c0,0.37,0.2,1,1.54,1h0.09c0.52,0,0.79-0.29,0.79-0.88v-6.73C8.91,19.03,8.98,19,9.09,19c0.15,0,0.19,0.05,0.2,0.09v6.72
	c0,0.42,0.3,0.78,0.7,0.86c0.03,0.01,0.06,0.02,0.09,0.02h0.09c0.01,0,0.02,0,0.02,0c1-0.02,1.51-0.37,1.51-1.02l0-9.19
	c0-0.02,0.01-0.03,0.01-0.05V16l0.04-0.03c0.62-0.46,1.27-0.93,1.27-1.89v-1.58C13.02,10.62,11.97,9.57,10.08,9.57L10.08,9.57z
	 M11.22,25.67c0,0.35-0.34,0.52-1.07,0.53c-0.21-0.01-0.37-0.18-0.37-0.39l0-6.76c-0.02-0.18-0.18-0.53-0.68-0.53
	c-0.48,0-0.67,0.32-0.68,0.55v6.75c0,0.33-0.08,0.39-0.3,0.39H8.02c-0.7,0-1.05-0.17-1.05-0.51v-9.03c0.36,0.17,1,0.34,2.12,0.34
	c1.12,0,1.76-0.17,2.12-0.34C11.22,16.66,11.22,25.67,11.22,25.67z M12.54,14.09c0,0.66-0.42,1.01-0.96,1.41v-3.11
	c0-0.1-0.08-0.18-0.18-0.18c-0.1,0-0.18,0.08-0.18,0.18v3.86c-0.23,0.15-0.81,0.39-2.11,0.39c-1.31,0-1.89-0.25-2.12-0.39v-3.86
	c0-0.1-0.08-0.18-0.18-0.18c-0.1,0-0.18,0.08-0.18,0.18v3.11c-0.54-0.4-0.96-0.75-0.96-1.41v-1.58c0-1.63,0.83-2.46,2.46-2.46h1.96
	c1.63,0,2.46,0.83,2.46,2.46L12.54,14.09L12.54,14.09z M9.09,9.12c1.05,0,1.9-0.85,1.9-1.9s-0.85-1.9-1.9-1.9s-1.9,0.85-1.9,1.9
	C7.19,8.27,8.04,9.12,9.09,9.12z M9.09,5.8c0.78,0,1.42,0.64,1.42,1.42S9.88,8.63,9.09,8.63C8.31,8.63,7.68,8,7.68,7.22
	C7.68,6.43,8.31,5.8,9.09,5.8z M23.13,9.12c1.05,0,1.9-0.85,1.9-1.9s-0.85-1.9-1.9-1.9c-1.05,0-1.9,0.85-1.9,1.9
	S22.08,9.12,23.13,9.12z M23.13,5.8c0.78,0,1.42,0.64,1.42,1.42s-0.64,1.42-1.42,1.42c-0.78,0-1.42-0.64-1.42-1.42
	S22.35,5.8,23.13,5.8L23.13,5.8z M26.83,13.86v-1.35c0-1.42-0.83-2.95-3.18-2.95h-1.04c-2.34,0-3.18,1.52-3.18,2.95v1.35
	c0,0.98,0.57,1.53,1.18,1.99l-0.67,4.69c-0.01,0.1,0.03,0.2,0.12,0.25c0.02,0.01,0.29,0.15,0.81,0.29l0.19,4.56
	c0,0.63,0.17,1.05,1.02,1.05h0.07c0.81,0,0.81-0.83,0.81-1.11l0-4.24c0.06,0,0.12,0,0.18,0c0.08,0,0.15,0,0.22,0v4.24
	c0,0.78,0.36,1.02,0.67,1.09c0.03,0.01,0.06,0.02,0.1,0.02h0.11c0.01,0,0.02,0,0.03,0c0.36-0.01,0.94-0.12,0.95-0.98l0.19-4.63
	c0.54-0.14,0.81-0.28,0.83-0.29c0.09-0.05,0.14-0.15,0.13-0.25l-0.69-4.68l0.08-0.07C26.32,15.34,26.83,14.8,26.83,13.86
	L26.83,13.86z M22.47,25.58c0,0.62-0.18,0.62-0.32,0.62h-0.07c-0.46,0-0.53-0.07-0.53-0.57l-0.19-4.44c0.31,0.06,0.68,0.11,1.1,0.13
	L22.47,25.58L22.47,25.58z M24.72,25.7c0,0.45-0.18,0.5-0.53,0.51c-0.13,0-0.35-0.05-0.35-0.62v-4.26c0.41-0.03,0.76-0.07,1.07-0.13
	L24.72,25.7L24.72,25.7z M25.85,20.43c-0.34,0.14-1.23,0.43-2.71,0.43c-1.47,0-2.35-0.29-2.69-0.43l0.76-5.31
	c0.32,0.16,0.89,0.31,1.93,0.31c1.03,0,1.61-0.11,1.94-0.24L25.85,20.43L25.85,20.43z M25.58,15.29l-0.05-0.32l0.08-2.8
	c0-0.1-0.08-0.18-0.18-0.19c-0.1,0-0.18,0.08-0.19,0.18l-0.07,2.56c-0.09,0.08-0.27,0.17-0.58,0.23c-0.32,0.07-0.79,0.12-1.46,0.12
	c-0.85,0-1.34-0.1-1.63-0.21c-0.21-0.08-0.32-0.17-0.38-0.23l-0.11-2.47c0-0.1-0.09-0.18-0.19-0.17c-0.1,0-0.18,0.09-0.17,0.19
	l0.11,2.62l0,0.03c0,0.01,0,0.02,0,0.02c0-0.01,0-0.02,0-0.02l0-0.03c0,0.01-0.01,0.01-0.01,0.02l-0.07,0.49
	c-0.51-0.42-0.77-0.8-0.77-1.43v-1.35c0-1.54,1.01-2.46,2.69-2.46h1.04c1.68,0,2.69,0.92,2.69,2.46v1.35
	C26.35,14.48,26.08,14.87,25.58,15.29L25.58,15.29z M16.24,6.66c-0.13,0-0.24,0.11-0.24,0.24v18.09c0,0.13,0.11,0.24,0.24,0.24
	c0.13,0,0.24-0.11,0.24-0.24V6.9C16.48,6.77,16.37,6.66,16.24,6.66z"/>
</svg>
