<?xml version="1.0" encoding="utf-8"?>
<!-- Generator: Adobe Illustrator 21.1.0, SVG Export Plug-In . SVG Version: 6.00 Build 0)  -->
<!DOCTYPE svg PUBLIC "-//W3C//DTD SVG 1.1//EN" "http://www.w3.org/Graphics/SVG/1.1/DTD/svg11.dtd">
<svg version="1.1" id="Layer_1" xmlns="http://www.w3.org/2000/svg" xmlns:xlink="http://www.w3.org/1999/xlink" x="0px" y="0px"
	 viewBox="0 0 32 32" style="enable-background:new 0 0 32 32;" xml:space="preserve">
<path d="M17.43,6.78V6.46c0-0.45-0.78-0.55-1.43-0.55c-0.65,0-1.43,0.09-1.43,0.55v0.32c-1.32,0.24-2.1,0.81-2.1,1.35v16.79
	c0,1.05,2.47,1.17,3.53,1.17s3.53-0.11,3.53-1.17V8.13C19.53,7.59,18.75,7.03,17.43,6.78L17.43,6.78z M15.03,6.51
	c0.08-0.05,0.36-0.14,0.97-0.14s0.88,0.09,0.97,0.14v0.91C16.88,7.47,16.6,7.56,16,7.56s-0.88-0.09-0.97-0.14
	C15.03,7.42,15.03,6.51,15.03,6.51z M14.84,7.84c0.28,0.14,0.75,0.18,1.16,0.18c0.41,0,0.88-0.04,1.16-0.18
	c0.17,0.04,0.29,0.08,0.37,0.12c-0.2,0.1-0.73,0.22-1.53,0.22c-0.8,0-1.33-0.13-1.53-0.22C14.55,7.92,14.67,7.88,14.84,7.84z
	 M16,25.48c-2.1,0-2.87-0.41-2.92-0.55V8.13c0.01-0.15,0.49-0.53,1.49-0.73v0.03c-0.35,0.1-0.63,0.26-0.63,0.52
	c0,0.65,1.71,0.68,2.06,0.68s2.06-0.03,2.06-0.68c0-0.26-0.28-0.42-0.63-0.52V7.4c1,0.2,1.48,0.58,1.49,0.73l0,16.79
	C18.87,25.07,18.1,25.48,16,25.48L16,25.48z M16.66,6.67c-0.01-0.08-0.09-0.15-0.17-0.14c-0.2,0.02-0.44,0.03-0.68,0.02
	c-0.09,0-0.18-0.01-0.27-0.01c-0.08-0.01-0.16,0.06-0.16,0.14c-0.01,0.08,0.06,0.16,0.14,0.16c0.09,0.01,0.18,0.01,0.28,0.01
	c0.06,0,0.12,0,0.17,0c0.19,0,0.38-0.01,0.54-0.03C16.61,6.83,16.67,6.75,16.66,6.67L16.66,6.67z M16.98,11.22H16.3v-0.67
	c0-0.17-0.14-0.31-0.31-0.31s-0.31,0.14-0.31,0.31v0.67h-0.67c-0.17,0-0.31,0.14-0.31,0.31s0.14,0.31,0.31,0.31h0.67v0.67
	c0,0.17,0.14,0.31,0.31,0.31c0.17,0,0.31-0.14,0.31-0.31v-0.67h0.67c0.17,0,0.31-0.14,0.31-0.31S17.14,11.22,16.98,11.22z
	 M16.67,22.79h-1.34c-0.17,0-0.31,0.14-0.31,0.31c0,0.17,0.14,0.31,0.31,0.31h1.34c0.17,0,0.31-0.14,0.31-0.31
	C16.98,22.92,16.84,22.79,16.67,22.79z"/>
</svg>
