<?xml version="1.0" encoding="utf-8"?>
<!-- Generator: Adobe Illustrator 21.1.0, SVG Export Plug-In . SVG Version: 6.00 Build 0)  -->
<!DOCTYPE svg PUBLIC "-//W3C//DTD SVG 1.1//EN" "http://www.w3.org/Graphics/SVG/1.1/DTD/svg11.dtd">
<svg version="1.1" id="Layer_1" xmlns="http://www.w3.org/2000/svg" xmlns:xlink="http://www.w3.org/1999/xlink" x="0px" y="0px"
	 viewBox="0 0 32 32" style="enable-background:new 0 0 32 32;" xml:space="preserve">
<path d="M24.8,5.94c0.04-0.13-0.02-0.28-0.15-0.34l-2.72-1.33c-0.04-0.02-0.09-0.03-0.13-0.03H10.62c-0.04,0-0.08,0.01-0.12,0.02
	L7.36,5.59C7.23,5.65,7.16,5.8,7.2,5.94C7.19,5.96,7.18,5.99,7.18,6.01v11.61c0,0.01,0,0.01,0,0.02c0,0.01,0,0.01,0,0.02v9.81
	c0,0.16,0.13,0.3,0.3,0.3h17.04c0.16,0,0.3-0.13,0.3-0.3v-9.81c0-0.01,0-0.01,0-0.02c0-0.01,0-0.01,0-0.02V6.01
	C24.82,5.98,24.81,5.96,24.8,5.94L24.8,5.94z M10.68,4.82h11.05l1.82,0.89H8.58L10.68,4.82L10.68,4.82z M7.78,12.42V6.31h16.45v9.3
	H7.78V12.42L7.78,12.42z M24.23,27.18H7.78V15.91h16.45L24.23,27.18L24.23,27.18z M15.18,23.61H9.21c-0.08,0-0.15,0.07-0.15,0.15
	s0.07,0.15,0.15,0.15h5.97c0.08,0,0.15-0.07,0.15-0.15S15.26,23.61,15.18,23.61L15.18,23.61z M15.18,22.05H9.21
	c-0.08,0-0.15,0.07-0.15,0.15c0,0.08,0.07,0.15,0.15,0.15h5.97c0.08,0,0.15-0.07,0.15-0.15C15.33,22.12,15.26,22.05,15.18,22.05
	L15.18,22.05z M15.18,20.49H9.21c-0.08,0-0.15,0.07-0.15,0.15c0,0.08,0.07,0.15,0.15,0.15h5.97c0.08,0,0.15-0.07,0.15-0.15
	C15.33,20.56,15.26,20.49,15.18,20.49L15.18,20.49z M15.18,18.93H9.21c-0.08,0-0.15,0.07-0.15,0.15c0,0.08,0.07,0.15,0.15,0.15h5.97
	c0.08,0,0.15-0.07,0.15-0.15C15.33,19,15.26,18.93,15.18,18.93L15.18,18.93z M9.21,12.41h6.04c0.17,0,0.3-0.13,0.3-0.3
	c0-0.16-0.13-0.3-0.3-0.3H9.21c-0.16,0-0.3,0.13-0.3,0.3C8.91,12.28,9.04,12.41,9.21,12.41z M9.21,8.9h6.04c0.17,0,0.3-0.13,0.3-0.3
	c0-0.16-0.13-0.3-0.3-0.3H9.21c-0.16,0-0.3,0.13-0.3,0.3C8.91,8.76,9.04,8.9,9.21,8.9z M15.18,18.15H9.21
	c-0.08,0-0.15,0.07-0.15,0.15c0,0.08,0.07,0.15,0.15,0.15h5.97c0.08,0,0.15-0.07,0.15-0.15C15.33,18.22,15.26,18.15,15.18,18.15
	L15.18,18.15z M22.58,23.61h-5.97c-0.08,0-0.15,0.07-0.15,0.15s0.07,0.15,0.15,0.15h5.97c0.08,0,0.15-0.07,0.15-0.15
	S22.66,23.61,22.58,23.61z M22.58,22.05h-5.97c-0.08,0-0.15,0.07-0.15,0.15c0,0.08,0.07,0.15,0.15,0.15h5.97
	c0.08,0,0.15-0.07,0.15-0.15C22.73,22.12,22.66,22.05,22.58,22.05z M22.58,20.49h-5.97c-0.08,0-0.15,0.07-0.15,0.15
	c0,0.08,0.07,0.15,0.15,0.15h5.97c0.08,0,0.15-0.07,0.15-0.15C22.73,20.56,22.66,20.49,22.58,20.49z M22.58,18.93h-5.97
	c-0.08,0-0.15,0.07-0.15,0.15c0,0.08,0.07,0.15,0.15,0.15h5.97c0.08,0,0.15-0.07,0.15-0.15C22.73,19,22.66,18.93,22.58,18.93z
	 M22.58,18.15h-5.97c-0.08,0-0.15,0.07-0.15,0.15c0,0.08,0.07,0.15,0.15,0.15h5.97c0.08,0,0.15-0.07,0.15-0.15
	C22.73,18.22,22.66,18.15,22.58,18.15z M15.18,24.4H9.21c-0.08,0-0.15,0.07-0.15,0.15s0.07,0.15,0.15,0.15h5.97
	c0.08,0,0.15-0.07,0.15-0.15S15.26,24.4,15.18,24.4L15.18,24.4z M15.18,22.83H9.21c-0.08,0-0.15,0.07-0.15,0.15
	c0,0.08,0.07,0.15,0.15,0.15h5.97c0.08,0,0.15-0.07,0.15-0.15C15.33,22.9,15.26,22.83,15.18,22.83L15.18,22.83z M15.18,21.27H9.21
	c-0.08,0-0.15,0.07-0.15,0.15s0.07,0.15,0.15,0.15h5.97c0.08,0,0.15-0.07,0.15-0.15S15.26,21.27,15.18,21.27L15.18,21.27z
	 M15.18,19.71H9.21c-0.08,0-0.15,0.07-0.15,0.15s0.07,0.15,0.15,0.15h5.97c0.08,0,0.15-0.07,0.15-0.15S15.26,19.71,15.18,19.71
	L15.18,19.71z M15.18,17.37H9.21c-0.08,0-0.15,0.07-0.15,0.15s0.07,0.15,0.15,0.15h5.97c0.08,0,0.15-0.07,0.15-0.15
	S15.26,17.37,15.18,17.37L15.18,17.37z M22.58,24.4h-5.97c-0.08,0-0.15,0.07-0.15,0.15s0.07,0.15,0.15,0.15h5.97
	c0.08,0,0.15-0.07,0.15-0.15S22.66,24.4,22.58,24.4z M22.58,22.83h-5.97c-0.08,0-0.15,0.07-0.15,0.15c0,0.08,0.07,0.15,0.15,0.15
	h5.97c0.08,0,0.15-0.07,0.15-0.15C22.73,22.9,22.66,22.83,22.58,22.83z M22.58,21.27h-5.97c-0.08,0-0.15,0.07-0.15,0.15
	s0.07,0.15,0.15,0.15h5.97c0.08,0,0.15-0.07,0.15-0.15S22.66,21.27,22.58,21.27z M22.58,19.71h-5.97c-0.08,0-0.15,0.07-0.15,0.15
	s0.07,0.15,0.15,0.15h5.97c0.08,0,0.15-0.07,0.15-0.15S22.66,19.71,22.58,19.71z M22.58,17.37h-5.97c-0.08,0-0.15,0.07-0.15,0.15
	s0.07,0.15,0.15,0.15h5.97c0.08,0,0.15-0.07,0.15-0.15S22.66,17.37,22.58,17.37z M9.21,14.17h6.04c0.17,0,0.3-0.13,0.3-0.3
	c0-0.16-0.13-0.3-0.3-0.3H9.21c-0.16,0-0.3,0.13-0.3,0.3C8.91,14.03,9.04,14.17,9.21,14.17z M9.21,10.65h6.04
	c0.17,0,0.3-0.13,0.3-0.3c0-0.16-0.13-0.3-0.3-0.3H9.21c-0.16,0-0.3,0.13-0.3,0.3S9.04,10.65,9.21,10.65z M16.55,8.62
	C16.55,8.62,16.55,8.62,16.55,8.62c0,0.23,0.18,0.41,0.41,0.41s0.41-0.18,0.41-0.41c0,0,0,0,0,0s0,0,0,0c0-0.23-0.18-0.41-0.41-0.41
	C16.73,8.2,16.55,8.39,16.55,8.62C16.55,8.61,16.55,8.61,16.55,8.62z M17.71,8.62C17.71,8.62,17.71,8.62,17.71,8.62
	c0,0.23,0.18,0.41,0.41,0.41s0.41-0.18,0.41-0.41c0,0,0,0,0,0s0,0,0,0c0-0.23-0.18-0.41-0.41-0.41C17.89,8.2,17.71,8.39,17.71,8.62
	C17.71,8.61,17.71,8.61,17.71,8.62z M18.86,8.62c0,0.23,0.18,0.41,0.41,0.41c0.23,0,0.41-0.18,0.41-0.41s-0.18-0.41-0.41-0.41
	C19.04,8.21,18.86,8.39,18.86,8.62z M16.55,9.77v4.43c0,0.08,0.07,0.15,0.15,0.15h5.82c0.08,0,0.15-0.07,0.15-0.15V9.77
	c0-0.08-0.07-0.15-0.15-0.15H16.7C16.62,9.63,16.55,9.69,16.55,9.77z M22.37,12.19h-5.52v-0.48h5.52V12.19z M16.85,12.49h5.52v0.48
	h-5.52V12.49z M22.37,11.41h-5.52v-0.48h5.52V11.41z M16.85,14.05v-0.78h5.52v0.78H16.85z M22.37,9.92v0.7h-5.52v-0.7H22.37z"/>
</svg>
