<?xml version="1.0" encoding="utf-8"?>
<!-- Generator: Adobe Illustrator 21.1.0, SVG Export Plug-In . SVG Version: 6.00 Build 0)  -->
<!DOCTYPE svg PUBLIC "-//W3C//DTD SVG 1.1//EN" "http://www.w3.org/Graphics/SVG/1.1/DTD/svg11.dtd">
<svg version="1.1" id="Layer_1" xmlns="http://www.w3.org/2000/svg" xmlns:xlink="http://www.w3.org/1999/xlink" x="0px" y="0px"
	 viewBox="0 0 32 32" style="enable-background:new 0 0 32 32;" xml:space="preserve">
<path d="M15.93,20.07c-2.37,0-4.72-0.84-6.29-1.4c-0.56-0.2-0.99-0.37-1.3-0.44v1.48c1.23,0.27,3.91,1.7,4.14,2.66
	c1.1,0.09,2.25,0.17,3.45,0.17c1.19,0,2.41-0.07,3.5-0.16c0.22-0.95,3.01-2.36,4.24-2.66v-1.48c-0.31,0.08-0.81,0.24-1.33,0.42
	C20.76,19.22,18.32,20.07,15.93,20.07L15.93,20.07z M15.93,22.84c-2.36,0-4.69-0.27-6.26-0.45c-0.58-0.07-1.02-0.12-1.33-0.15v1.88
	h15.33v-1.88c-0.31,0.03-0.83,0.08-1.36,0.14C20.73,22.57,18.3,22.84,15.93,22.84L15.93,22.84z M19.79,22.35
	c0.94-0.08,1.76-0.18,2.45-0.26c0.56-0.07,1.11-0.12,1.41-0.14v-1.92C22.44,20.31,20.12,21.64,19.79,22.35z M22.1,7.26H9.58
	L8.6,8.18h14.43C23.03,8.18,22.1,7.26,22.1,7.26z M4.97,14.31h1.23v-3.37H4.97V14.31z M12.13,22.34c-0.34-0.72-2.57-2.06-3.79-2.33
	v1.92c0.31,0.02,0.79,0.08,1.4,0.15C10.42,22.16,11.21,22.26,12.13,22.34L12.13,22.34z M25.81,14.31h1.23v-3.37h-1.23V14.31z
	 M8.34,17.91c0,0.03,0.31,0.07,0.31,0.11v-7.64c0-0.09,0.03-0.06,0.12-0.06h14.18c0.08,0,0.42-0.02,0.42,0.06v7.66
	c0-0.05,0.31-0.09,0.31-0.12V8.8H8.34L8.34,17.91L8.34,17.91z M15.92,19.76c2.34,0,4.73-0.84,6.29-1.39
	c0.24-0.08,0.52-0.16,0.71-0.23c0-0.01,0.13-0.01,0.13-0.02v-7.49H8.95v7.49c0.31,0.07,0.47,0.16,0.74,0.26
	C11.25,18.93,13.6,19.76,15.92,19.76z M27.65,10.52v4.05c0,0.17-0.39,0.36-0.56,0.36h-1.74c-0.17,0-0.16-0.19-0.16-0.36v-3.32h-0.92
	v12.93c0,0.17-0.29,0.55-0.46,0.55h0.15v0.25c0,0.17-0.36,0.37-0.53,0.37H20.6c-0.17,0-0.31-0.2-0.31-0.37v-0.25H11.4v0.25
	c0,0.17-0.11,0.37-0.28,0.37H8.29c-0.17,0-0.26-0.2-0.26-0.37l0-0.25H7.88c-0.17,0-0.16-0.38-0.16-0.55V11.25H6.8v3.32
	c0,0.17-0.24,0.36-0.4,0.36H4.66c-0.17,0-0.31-0.19-0.31-0.36v-4.05c0-0.17,0.14-0.19,0.31-0.19H6.4c0.17,0,0.4,0.02,0.4,0.19v0.43
	h0.92V7.91l1.52-1.19C9.3,6.68,9.4,6.65,9.47,6.65h12.79c0.12,0,0.19,0,0.25,0.05l1.54,1.29c0.04,0.03,0.1,0.07,0.12,0.12
	c0.02,0.04,0.11,0.09,0.11,0.13v2.7h0.92v-0.43c0-0.17-0.01-0.19,0.16-0.19h1.74C27.26,10.33,27.65,10.35,27.65,10.52L27.65,10.52z
	 M9.14,20.52c0.39,0,0.72,0.32,0.72,0.72s-0.32,0.72-0.72,0.72s-0.72-0.32-0.72-0.72S8.75,20.52,9.14,20.52z M9.14,21.64
	c0.23,0,0.41-0.18,0.41-0.41s-0.18-0.41-0.41-0.41s-0.41,0.18-0.41,0.41S8.92,21.64,9.14,21.64z M10.47,22.09
	c-0.27,0-0.5-0.22-0.5-0.49s0.22-0.49,0.5-0.49s0.5,0.22,0.5,0.49S10.74,22.09,10.47,22.09z M10.47,21.42
	c-0.1,0-0.19,0.08-0.19,0.18c0,0.1,0.09,0.18,0.19,0.18s0.19-0.08,0.19-0.18S10.57,21.42,10.47,21.42z M22.86,20.52
	c0.39,0,0.72,0.32,0.72,0.72s-0.32,0.72-0.72,0.72c-0.39,0-0.72-0.32-0.72-0.72S22.47,20.52,22.86,20.52z M22.86,21.64
	c0.23,0,0.41-0.18,0.41-0.41s-0.18-0.41-0.41-0.41s-0.41,0.18-0.41,0.41S22.64,21.64,22.86,21.64z M21.53,21.12
	c0.27,0,0.5,0.22,0.5,0.49s-0.22,0.49-0.5,0.49s-0.5-0.22-0.5-0.49S21.26,21.12,21.53,21.12z M21.53,21.78
	c0.1,0,0.19-0.08,0.19-0.18s-0.08-0.18-0.19-0.18s-0.19,0.08-0.19,0.18C21.34,21.7,21.43,21.78,21.53,21.78z"/>
</svg>
