<?xml version="1.0" encoding="utf-8"?>
<!-- Generator: Adobe Illustrator 21.1.0, SVG Export Plug-In . SVG Version: 6.00 Build 0)  -->
<!DOCTYPE svg PUBLIC "-//W3C//DTD SVG 1.1//EN" "http://www.w3.org/Graphics/SVG/1.1/DTD/svg11.dtd">
<svg version="1.1" id="Layer_1" xmlns="http://www.w3.org/2000/svg" xmlns:xlink="http://www.w3.org/1999/xlink" x="0px" y="0px"
	 viewBox="0 0 32 32" style="enable-background:new 0 0 32 32;" xml:space="preserve">
<path d="M27.38,11.51c0-0.02-0.01-0.04-0.01-0.06c-0.01-0.02-0.01-0.03-0.02-0.05c-0.01-0.02-0.02-0.03-0.03-0.05
	c-0.01-0.02-0.03-0.03-0.04-0.04c-0.01-0.01-0.01-0.02-0.02-0.02l-3.37-2.17c-0.05-0.03-0.11-0.05-0.17-0.05h-2.95V8.29
	c0-1.09-0.89-1.98-1.98-1.98l-5.39,0c-1.09,0-1.98,0.89-1.98,1.98v0.78H8.29c-0.06,0-0.12,0.02-0.17,0.05l-3.37,2.17
	c-0.01,0.01-0.01,0.02-0.02,0.02c-0.02,0.01-0.03,0.03-0.04,0.04c-0.01,0.02-0.02,0.03-0.03,0.05c-0.01,0.02-0.02,0.03-0.02,0.05
	c-0.01,0.02-0.01,0.04-0.01,0.06c0,0.01-0.01,0.02-0.01,0.03v12.01c0,0.17,0.14,0.31,0.31,0.31h22.16c0.17,0,0.31-0.14,0.31-0.31
	l0-12.01C27.39,11.53,27.38,11.52,27.38,11.51L27.38,11.51z M12.02,8.29c0-0.75,0.61-1.37,1.37-1.37h5.39
	c0.75,0,1.37,0.61,1.37,1.37V9.8c0,0.1,0,0.15-0.46,0.15S19.22,9.9,19.22,9.8V8.29c0-0.25-0.2-0.45-0.45-0.45h-5.39
	c-0.25,0-0.45,0.2-0.45,0.45V9.8c0,0.1,0,0.15-0.46,0.15S12.02,9.9,12.02,9.8L12.02,8.29L12.02,8.29z M18.61,8.46v0.61h-5.05V8.46
	H18.61z M8.38,9.68h3.03V9.8c0,0.77,0.75,0.77,1.07,0.77c0.32,0,1.07,0,1.07-0.77V9.68h5.05V9.8c0,0.77,0.75,0.77,1.07,0.77
	c0.32,0,1.07,0,1.07-0.77V9.68h2.86l2.42,1.56H5.96L8.38,9.68L8.38,9.68z M26.77,23.25H5.23v-8.12H8.1v0.95
	c0,0.34,0.16,0.63,0.41,0.82c-0.01,0.04-0.02,0.08-0.02,0.12v0.46c0,0.35,0.4,0.61,0.94,0.61c0.54,0,0.94-0.26,0.94-0.61v-0.46
	c0-0.04-0.01-0.08-0.02-0.12c0.25-0.19,0.41-0.49,0.41-0.82v-0.95h10.52v0.95c0,0.34,0.16,0.63,0.41,0.82
	c-0.01,0.04-0.02,0.08-0.02,0.12v0.46c0,0.35,0.4,0.61,0.94,0.61c0.54,0,0.94-0.26,0.94-0.61v-0.46c0-0.04-0.01-0.08-0.02-0.12
	c0.25-0.19,0.41-0.49,0.41-0.82v-0.95h2.83L26.77,23.25L26.77,23.25z M9.72,16.65H9.15c-0.32,0-0.59-0.26-0.59-0.59v-1.43
	c0-0.32,0.26-0.59,0.59-0.59h0.57c0.32,0,0.59,0.26,0.59,0.59v1.43C10.31,16.39,10.04,16.65,9.72,16.65z M9.91,17.47
	c-0.01,0.04-0.18,0.16-0.48,0.16c-0.3,0-0.47-0.11-0.48-0.15l0-0.38c0.06,0.01,0.13,0.02,0.19,0.02h0.57c0.07,0,0.13-0.01,0.19-0.02
	L9.91,17.47L9.91,17.47z M22.9,16.65h-0.57c-0.32,0-0.59-0.26-0.59-0.59v-1.43c0-0.32,0.26-0.59,0.59-0.59h0.57
	c0.32,0,0.59,0.26,0.59,0.59v1.43C23.49,16.39,23.22,16.65,22.9,16.65z M23.09,17.47c-0.01,0.04-0.18,0.16-0.48,0.16
	c-0.3,0-0.47-0.11-0.48-0.15l0-0.38c0.06,0.01,0.13,0.02,0.19,0.02h0.57c0.07,0,0.13-0.01,0.19-0.02V17.47L23.09,17.47z
	 M26.77,14.66h-2.83v-0.03c0-0.58-0.47-1.05-1.05-1.05h-0.57c-0.58,0-1.05,0.47-1.05,1.05v0.03H10.77v-0.03
	c0-0.58-0.47-1.05-1.05-1.05H9.15c-0.58,0-1.05,0.47-1.05,1.05v0.03H5.23v-2.81h21.55L26.77,14.66L26.77,14.66z"/>
</svg>
