<?xml version="1.0" encoding="utf-8"?>
<!-- Generator: Adobe Illustrator 21.1.0, SVG Export Plug-In . SVG Version: 6.00 Build 0)  -->
<!DOCTYPE svg PUBLIC "-//W3C//DTD SVG 1.1//EN" "http://www.w3.org/Graphics/SVG/1.1/DTD/svg11.dtd">
<svg version="1.1" id="Layer_1" xmlns="http://www.w3.org/2000/svg" xmlns:xlink="http://www.w3.org/1999/xlink" x="0px" y="0px"
	 viewBox="0 0 32 32" style="enable-background:new 0 0 32 32;" xml:space="preserve">
<style type="text/css">
	.st0{fill:#231F20;}
</style>
<path class="st0" d="M25.49,20.03v-6.65c0-0.16-0.13-0.3-0.3-0.3h-8.9v-3.1c1.44-0.15,2.57-1.37,2.57-2.85
	c0-1.58-1.28-2.86-2.86-2.86s-2.86,1.28-2.86,2.86c0,1.48,1.13,2.7,2.57,2.85v3.1H6.8c-0.16,0-0.3,0.13-0.3,0.3v6.65
	c-1.44,0.15-2.57,1.37-2.57,2.85c0,1.58,1.28,2.86,2.86,2.86s2.86-1.28,2.86-2.86c0-1.48-1.13-2.7-2.57-2.85v-6.36h8.6v6.36
	c-1.44,0.15-2.57,1.37-2.57,2.85c0,1.58,1.28,2.86,2.86,2.86s2.86-1.28,2.86-2.86c0-1.48-1.13-2.7-2.57-2.85v-6.36h8.6v6.36
	c-1.44,0.15-2.57,1.37-2.57,2.85c0,1.58,1.28,2.86,2.86,2.86s2.86-1.28,2.86-2.86C28.06,21.39,26.93,20.17,25.49,20.03z M13.73,7.13
	c0-1.25,1.02-2.27,2.27-2.27s2.27,1.02,2.27,2.27S17.25,9.4,16,9.4S13.73,8.38,13.73,7.13z M9.08,22.87c0,1.25-1.02,2.27-2.27,2.27
	s-2.27-1.02-2.27-2.27S5.55,20.6,6.8,20.6S9.08,21.62,9.08,22.87z M18.27,22.87c0,1.25-1.02,2.27-2.27,2.27s-2.27-1.02-2.27-2.27
	S14.75,20.6,16,20.6S18.27,21.62,18.27,22.87z M25.2,25.14c-1.25,0-2.27-1.02-2.27-2.27s1.02-2.27,2.27-2.27s2.27,1.02,2.27,2.27
	S26.45,25.14,25.2,25.14z"/>
</svg>
