<?xml version="1.0" encoding="utf-8"?>
<!-- Generator: Adobe Illustrator 21.1.0, SVG Export Plug-In . SVG Version: 6.00 Build 0)  -->
<!DOCTYPE svg PUBLIC "-//W3C//DTD SVG 1.1//EN" "http://www.w3.org/Graphics/SVG/1.1/DTD/svg11.dtd">
<svg version="1.1" id="Layer_1" xmlns="http://www.w3.org/2000/svg" xmlns:xlink="http://www.w3.org/1999/xlink" x="0px" y="0px"
	 viewBox="0 0 31.68 31.68" style="enable-background:new 0 0 31.68 31.68;" xml:space="preserve">
<g>
	<path d="M13.12,14.68h-1.14c-1.64,0-1.75,1.21-1.8,1.86l-0.1,1.05c0,0.59,0.35,0.9,0.73,1.18l0.1,0.07l-0.01,0.42l0.06,0.05
		c0.15,0.13,0.55,0.35,1.59,0.35s1.41-0.21,1.57-0.33l0.07-0.05l-0.03-0.42l0.1-0.07c0.4-0.3,0.74-0.59,0.74-1.19l-0.08-1.06
		C14.85,15.89,14.74,14.68,13.12,14.68z M12.74,14.85c-0.04,0.1-0.09,0.22-0.13,0.3H12.5c-0.06-0.09-0.11-0.19-0.15-0.3L12.74,14.85
		z M12.84,18.82l-0.29,0.25l-0.29-0.25l0.24-3.5h0.11L12.84,18.82z M14.16,18.64L14,16.39c0-0.04-0.03-0.08-0.08-0.08
		c-0.04,0-0.08,0.03-0.08,0.08c0,0,0,0,0,0l0.16,2.81c-0.12,0.1-0.49,0.29-1.46,0.29s-1.37-0.21-1.48-0.3c0-0.01,0-0.01,0-0.02
		l0.17-2.78c0-0.04-0.03-0.08-0.08-0.08c-0.04,0-0.08,0.03-0.08,0.08c0,0,0,0,0,0l-0.16,2.25c-0.39-0.29-0.66-0.55-0.66-1.04
		l0.09-1.04c0.06-0.78,0.22-1.7,1.64-1.7h0.2c0.04,0.13,0.09,0.25,0.16,0.36v0.02l-0.28,3.63c0,0.03,0.01,0.05,0.03,0.07l0.38,0.33
		c0.03,0.03,0.08,0.03,0.11,0l0.38-0.33c0.02-0.02,0.03-0.04,0.03-0.07l-0.25-3.64c0.06-0.12,0.11-0.24,0.15-0.36h0.2
		c1.41,0,1.56,0.97,1.64,1.7l0.08,1.04C14.83,18.1,14.56,18.35,14.16,18.64z M12.55,14.45c0.65,0,1.18-0.53,1.18-1.19
		s-0.53-1.18-1.19-1.18c-0.65,0-1.18,0.53-1.18,1.18C11.36,13.92,11.9,14.45,12.55,14.45z M12.55,12.26c0.56,0,1.01,0.45,1.01,1.01
		s-0.45,1.01-1.01,1.01s-1.01-0.45-1.01-1.01C11.53,12.71,11.99,12.25,12.55,12.26C12.55,12.25,12.55,12.25,12.55,12.26L12.55,12.26
		z M7.84,21.52h15.99c0.08,0,0.14-0.06,0.14-0.14V10.29c0-0.08-0.06-0.14-0.14-0.14H7.84c-0.08,0-0.14,0.06-0.14,0.14v11.09
		C7.71,21.46,7.77,21.52,7.84,21.52z M7.98,10.43H23.7v10.82H7.98V10.43z M24.81,8.99H6.87c-0.15,0-0.27,0.12-0.27,0.27l0,0v13.16
		c0,0.15,0.12,0.27,0.27,0.27h17.94c0.15,0,0.27-0.12,0.27-0.27V9.26C25.08,9.11,24.96,8.99,24.81,8.99
		C24.81,8.99,24.81,8.99,24.81,8.99z M24.53,22.14H7.14V9.54h17.39L24.53,22.14z M21.38,15.66h-4.26c-0.11,0-0.21,0.09-0.21,0.21
		s0.09,0.21,0.21,0.21h4.26c0.11,0,0.21-0.09,0.21-0.21S21.49,15.66,21.38,15.66z M21.38,14.32h-4.26c-0.11,0-0.21,0.09-0.21,0.21
		s0.09,0.21,0.21,0.21h4.26c0.11,0,0.21-0.09,0.21-0.21S21.49,14.32,21.38,14.32z M21.38,17h-4.26c-0.11,0-0.21,0.09-0.21,0.21
		s0.09,0.21,0.21,0.21h4.26c0.11,0,0.21-0.09,0.21-0.21S21.49,17,21.38,17z"/>
</g>
</svg>
