<?xml version="1.0" encoding="utf-8"?>
<!-- Generator: Adobe Illustrator 21.1.0, SVG Export Plug-In . SVG Version: 6.00 Build 0)  -->
<!DOCTYPE svg PUBLIC "-//W3C//DTD SVG 1.1//EN" "http://www.w3.org/Graphics/SVG/1.1/DTD/svg11.dtd">
<svg version="1.1" id="Layer_1" xmlns="http://www.w3.org/2000/svg" xmlns:xlink="http://www.w3.org/1999/xlink" x="0px" y="0px"
	 viewBox="0 0 32 32" style="enable-background:new 0 0 32 32;" xml:space="preserve">
<path d="M19.7,14.36c-0.05-0.05-0.13-0.05-0.18,0.01c-0.05,0.05-0.05,0.13,0,0.18c0.52,0.5,0.81,1.16,0.81,1.88
	c0,0.74-0.32,1.44-0.87,1.94c-0.05,0.05-0.06,0.13-0.01,0.18c0.02,0.03,0.06,0.04,0.1,0.04c0.03,0,0.06-0.01,0.09-0.03
	c0.61-0.54,0.96-1.32,0.96-2.13C20.59,15.64,20.28,14.91,19.7,14.36z M21.67,11.7c-0.07-0.07-0.18-0.07-0.25,0.01
	c-0.07,0.07-0.07,0.19,0,0.26c1.23,1.18,1.91,2.77,1.91,4.47c0,1.73-0.73,3.39-2.01,4.57c-0.07,0.07-0.08,0.18-0.01,0.25
	c0.04,0.04,0.08,0.06,0.13,0.06c0.04,0,0.09-0.02,0.12-0.05c1.35-1.24,2.13-3,2.13-4.83C23.69,14.63,22.97,12.95,21.67,11.7
	L21.67,11.7z M20.52,12.85c-0.06-0.06-0.16-0.06-0.22,0.01c-0.06,0.06-0.06,0.16,0.01,0.22c0.93,0.89,1.44,2.08,1.44,3.36
	c0,1.32-0.57,2.58-1.55,3.45c-0.06,0.06-0.07,0.15-0.01,0.22c0.03,0.03,0.07,0.05,0.11,0.05c0.04,0,0.07-0.01,0.1-0.04
	c1.05-0.94,1.65-2.28,1.65-3.69C22.06,15.06,21.52,13.79,20.52,12.85L20.52,12.85z M22.02,9.07c-0.15-0.15-0.39-0.15-0.54,0
	c0,0-4.29,4.29-4.29,4.29v-2.49c0-0.11-0.06-0.2-0.16-0.25s-0.21-0.02-0.29,0.05l-3.83,3.69H9.31c-0.15,0-0.27,0.12-0.27,0.27v4.35
	c0,0.15,0.12,0.27,0.27,0.27h1.99l-2.87,2.87c-0.15,0.15-0.15,0.39,0,0.54c0.07,0.08,0.17,0.11,0.27,0.11s0.2-0.04,0.27-0.11
	l3.41-3.41h0.47l3.89,3.72c0.05,0.05,0.12,0.07,0.18,0.07c0.03,0,0.07-0.01,0.11-0.02c0.1-0.04,0.16-0.14,0.16-0.25v-8.33l4.83-4.83
	C22.17,9.46,22.17,9.22,22.02,9.07z M16.66,22.15l-3.51-3.35c-0.05-0.05-0.12-0.07-0.19-0.07h-0.04l3.74-3.74L16.66,22.15
	L16.66,22.15z M16.66,13.89l-4.82,4.82H9.58V14.9h3.43c0.07,0,0.14-0.03,0.19-0.07l3.46-3.32L16.66,13.89L16.66,13.89z"/>
</svg>
