<?xml version="1.0" encoding="utf-8"?>
<!-- Generator: Adobe Illustrator 21.1.0, SVG Export Plug-In . SVG Version: 6.00 Build 0)  -->
<!DOCTYPE svg PUBLIC "-//W3C//DTD SVG 1.1//EN" "http://www.w3.org/Graphics/SVG/1.1/DTD/svg11.dtd">
<svg version="1.1" id="Layer_1" xmlns="http://www.w3.org/2000/svg" xmlns:xlink="http://www.w3.org/1999/xlink" x="0px" y="0px"
	 viewBox="0 0 31.68 31.68" style="enable-background:new 0 0 31.68 31.68;" xml:space="preserve">
<g>
	<path d="M22.04,6.67H7.73v2.6h14.31V6.67z M21.63,8.87H8.14v-1.8h13.49V8.87z"/>
	<path d="M24.36,19.28c-0.16-0.18-0.39-0.28-0.63-0.28c-0.16,0-0.31,0.04-0.45,0.12c-0.19-0.61-0.54-0.94-1-0.94
		c-0.2,0-0.4,0.06-0.57,0.18c-0.06-0.21-0.17-0.41-0.33-0.57c-0.18-0.19-0.43-0.29-0.69-0.28c-0.24,0-0.47,0.08-0.65,0.24
		l-0.02-0.61h2.01v-2.6h-2.09l-0.04-1.3h2.13v-2.6H7.73v2.6H18.1l-0.12,1.3H7.73v2.6h10.01l-0.12,1.3h-1.63l-0.09-0.15
		c-0.89-1.47-2.14-0.74-2.15-0.74c-0.13,0.08-0.18,0.23-0.12,0.37l0.22,0.53H7.73v2.6h7.21c0.33,0.82,0.65,1.6,0.82,2.01
		c0.33,0.83,1.3,3.36,4.38,3.36c0.92-0.02,1.79-0.42,2.41-1.1c0.45-0.46,0.83-0.98,1.13-1.55c0.44-0.81,0.79-1.67,1.04-2.57v-0.04
		C24.75,20.95,24.85,19.83,24.36,19.28z M21.63,14.93v1.8H20l-0.03-1.8H21.63z M8.14,12.8V11h13.49v1.8h-1.79
		c-0.09-0.46-0.53-0.76-0.99-0.67c-0.34,0.06-0.61,0.33-0.67,0.67H8.14z M8.14,16.73L8.14,16.73v-1.8h9.8l-0.16,1.8H8.14z
		 M17.58,18.86l-0.05,0.55c-0.04,0.35-0.12,0.7-0.25,1.04c-0.25-0.39-0.67-1.02-1.03-1.59H17.58z M8.14,20.65v-1.8h5.88
		c0.21,0.5,0.48,1.15,0.75,1.8H8.14z M24.25,21.11L24.25,21.11c-0.07,0.27-1.33,4.84-4.11,4.84c-0.68,0-2.77,0-3.94-3.05
		c-0.39-1.02-1.74-4.24-2.06-5c0.27-0.09,0.86-0.17,1.36,0.65c0.5,0.82,1.3,2.06,1.54,2.41c-0.03,0.01-0.06,0.02-0.09,0.02
		c-0.1,0-0.18,0.08-0.18,0.18c0,0.1,0.08,0.18,0.18,0.18c0.85,0,1.05-1.87,1.05-1.89c0.08-0.87,0.57-6.27,0.57-6.27
		c0,0,0.06-0.59,0.43-0.59s0.43,0.54,0.43,0.55L19.61,19c0,0.1,0.08,0.18,0.18,0.18c0.1,0,0.18-0.08,0.18-0.18
		c0,0,0.11-1.03,0.74-1.03c0.13,0,0.26,0.05,0.35,0.14c0.21,0.29,0.31,0.65,0.3,1.01c0,0.1,0.08,0.18,0.18,0.18
		c0.08,0,0.15-0.05,0.18-0.13c0-0.02,0.15-0.52,0.57-0.52c0.54,0,0.63,1.09,0.65,1.1c0.01,0.1,0.09,0.18,0.19,0.17
		c0.07,0,0.13-0.05,0.15-0.11c0.08-0.19,0.26-0.32,0.46-0.35c0.11,0,0.21,0.04,0.27,0.12C24.3,19.92,24.29,20.79,24.25,21.11z"/>
</g>
</svg>
