<?xml version="1.0" encoding="utf-8"?>
<!-- Generator: Adobe Illustrator 21.1.0, SVG Export Plug-In . SVG Version: 6.00 Build 0)  -->
<!DOCTYPE svg PUBLIC "-//W3C//DTD SVG 1.1//EN" "http://www.w3.org/Graphics/SVG/1.1/DTD/svg11.dtd">
<svg version="1.1" id="Layer_1" xmlns="http://www.w3.org/2000/svg" xmlns:xlink="http://www.w3.org/1999/xlink" x="0px" y="0px"
	 viewBox="0 0 32 32" style="enable-background:new 0 0 32 32;" xml:space="preserve">
<path d="M24.37,8.73H7.62c-0.68,0-1.24,0.56-1.24,1.24v10.41c0,0.68,0.56,1.24,1.24,1.24h5.44v1.03h-1.67
	c-0.17,0-0.31,0.14-0.31,0.31c0,0.17,0.14,0.31,0.31,0.31h9.21c0.17,0,0.31-0.14,0.31-0.31c0-0.17-0.14-0.31-0.31-0.31h-1.67v-1.03
	h5.44c0.68,0,1.24-0.56,1.24-1.24V9.97C25.6,9.29,25.05,8.73,24.37,8.73L24.37,8.73z M13.67,22.66v-0.92h4.64v0.92H13.67z
	 M24.99,20.41c0,0.35-0.28,0.63-0.63,0.63H7.62c-0.35,0-0.63-0.28-0.63-0.63V9.97c0-0.35,0.28-0.63,0.63-0.63h16.75
	c0.35,0,0.63,0.28,0.63,0.63v10.44H24.99z M17.32,15.94c0.03,0,0.06-0.01,0.09-0.03l4.41-2.96c0.07-0.05,0.09-0.14,0.04-0.21
	s-0.14-0.09-0.21-0.04l-4.41,2.96c-0.07,0.05-0.09,0.14-0.04,0.21C17.22,15.92,17.27,15.94,17.32,15.94L17.32,15.94z M16.01,17.98
	c0.03,0,0.06-0.01,0.09-0.03l3.49-2.36c0.07-0.05,0.09-0.14,0.04-0.21s-0.14-0.09-0.21-0.04l-3.49,2.36
	c-0.07,0.05-0.09,0.14-0.04,0.21C15.91,17.96,15.97,17.98,16.01,17.98L16.01,17.98z M8.44,20.45h15.1c0.42,0,0.76-0.37,0.76-0.82
	v-8.76c0-0.45-0.34-0.82-0.76-0.82H8.44c-0.42,0-0.77,0.37-0.77,0.82v8.76C7.67,20.08,8.02,20.45,8.44,20.45L8.44,20.45z
	 M8.14,10.87c0-0.2,0.14-0.36,0.31-0.36h15.1c0.17,0,0.31,0.16,0.31,0.36v8.76c0,0.2-0.14,0.36-0.31,0.36H8.44
	c-0.17,0-0.31-0.16-0.31-0.36C8.14,19.63,8.14,10.87,8.14,10.87z"/>
</svg>
