<?xml version="1.0" encoding="utf-8"?>
<!-- Generator: Adobe Illustrator 21.1.0, SVG Export Plug-In . SVG Version: 6.00 Build 0)  -->
<!DOCTYPE svg PUBLIC "-//W3C//DTD SVG 1.1//EN" "http://www.w3.org/Graphics/SVG/1.1/DTD/svg11.dtd">
<svg version="1.1" id="Layer_1" xmlns="http://www.w3.org/2000/svg" xmlns:xlink="http://www.w3.org/1999/xlink" x="0px" y="0px"
	 viewBox="0 0 31.68 31.68" style="enable-background:new 0 0 31.68 31.68;" xml:space="preserve">
<path d="M10.58,24.46c-0.02-0.03-0.05-0.05-0.09-0.05s-0.07,0.02-0.09,0.05l-0.29,0.47c-4.77-3.02-6.2-9.34-3.17-14.13
	c0.47-0.74,1.03-1.42,1.68-2.02c0.11-0.12,0.1-0.32-0.02-0.44C8.5,8.24,8.32,8.23,8.2,8.32C3.81,12.4,3.55,19.27,7.63,23.67
	c0.64,0.7,1.37,1.3,2.17,1.8l-0.25,0.4c-0.02,0.03-0.02,0.07,0,0.1s0.05,0.05,0.08,0.06l1.95,0.25c0.04,0,0.08-0.01,0.1-0.05
	c0.02-0.03,0.02-0.08,0-0.1L10.58,24.46z M9.71,7.68c0.02,0.03,0.06,0.05,0.1,0.05l1.95-0.3c0.03,0,0.06-0.03,0.08-0.06
	c0.02-0.03,0.02-0.07,0-0.1l-0.26-0.39c5.19-2.23,11.21,0.17,13.44,5.36c0.18,0.43,0.33,0.87,0.46,1.31
	c0.04,0.17,0.21,0.28,0.39,0.24c0.17-0.04,0.28-0.21,0.24-0.39c0-0.01,0-0.01-0.01-0.02C24.5,7.61,18.53,4.21,12.75,5.8
	c-0.52,0.14-1.04,0.32-1.54,0.55l-0.3-0.46c-0.03-0.05-0.1-0.06-0.13-0.03c-0.01,0.01-0.02,0.02-0.03,0.03L9.71,7.56
	C9.69,7.59,9.69,7.64,9.71,7.68L9.71,7.68z M26.94,17.31l-0.84-1.78c-0.02-0.04-0.05-0.06-0.09-0.06s-0.08,0.02-0.09,0.06l-0.81,1.8
	c-0.02,0.03-0.02,0.07,0,0.1s0.05,0.05,0.09,0.05h0.54c-0.11,3.66-2.99,7.95-8.2,8.18v-0.9c0.3,0,0.54-0.24,0.54-0.54
	c0-0.23-0.14-0.43-0.36-0.5v-1.29c0.79,0.08,1.57,0.52,2.34,1.33c-0.03,0.07-0.05,0.13-0.05,0.21c0,0.28,0.22,0.5,0.5,0.5
	c0.28,0,0.5-0.22,0.5-0.5s-0.22-0.5-0.5-0.5c-0.07,0-0.12,0.01-0.18,0.03c-0.85-0.9-1.72-1.39-2.62-1.46v-0.41
	c0.26,0.02,0.49-0.17,0.5-0.44l0,0v-0.37c0.2-0.04,0.35-0.21,0.36-0.42v-0.97c0-0.02,0-0.04,0-0.06h1.38
	c0.35-0.01,0.69-0.18,0.9-0.47l0.02-0.02c0.14-0.21,0.23-0.45,0.26-0.7l0.74-2c0.07-0.03,0.19-0.06,0.29-0.08
	c0.37-0.1,0.54-0.14,0.53-0.33v-0.03c0.03-0.22-0.03-0.45-0.17-0.62c-0.1-0.1-0.23-0.15-0.37-0.15h-0.5
	c-0.4-0.02-0.67,0.1-0.76,0.38l-0.52,1.27c-0.07-0.03-0.14-0.04-0.22-0.04h-1.65v-0.74h1.18c0.29-0.03,0.55-0.17,0.75-0.39
	c0.21-0.23,0.33-0.53,0.35-0.85c0-0.02,0-0.03,0-0.05c0-0.01,0-0.03,0-0.04v-0.1l-0.37-3.59c-0.06-0.7-0.33-1.38-0.78-1.92
	c-0.4-0.5-1.01-0.79-1.65-0.79h-0.7c-5.01,0-9.08,4.07-9.08,9.08s4.07,9.08,9.08,9.08h0.25c4.81-0.13,8.68-3.99,8.82-8.79h0.5
	c0.06,0,0.1-0.05,0.1-0.1c0-0.01,0-0.03-0.01-0.04L26.94,17.31L26.94,17.31z M20.51,23.83c0.07,0,0.12,0.06,0.12,0.12
	s-0.06,0.12-0.12,0.12s-0.12-0.06-0.12-0.12l0,0C20.38,23.89,20.44,23.83,20.51,23.83z M21.24,15.5c0.03-0.08,0.08-0.14,0.31-0.14
	h0.61c0.04,0,0.08,0.01,0.1,0.04c0.05,0.09,0.08,0.18,0.07,0.28l-0.26,0.07c-0.33,0.09-0.47,0.12-0.51,0.25l-0.5,1.36
	c-0.1-0.19-0.22-0.36-0.36-0.52L21.24,15.5z M17.53,9.09h0.45c0.35,0.01,0.68,0.17,0.9,0.45c0.31,0.39,0.5,0.88,0.54,1.38
	c0,0,0.37,3.57,0.37,3.59v0.03c0,0.09-0.03,0.17-0.09,0.23c-0.03,0.04-0.07,0.06-0.1,0.07h-2.06L17.53,9.09L17.53,9.09z
	 M17.53,15.04h2.08c0.1-0.01,0.17-0.06,0.23-0.13c0.09-0.1,0.13-0.23,0.13-0.36v-0.04l-0.37-3.61c-0.04-0.54-0.25-1.06-0.59-1.49
	c-0.25-0.32-0.63-0.5-1.04-0.51h-0.45V8.48h0.45c0.53,0.01,1.03,0.25,1.36,0.67c0.4,0.5,0.65,1.1,0.7,1.72l0.37,3.59v0.08
	c0,0.01,0,0.02,0,0.02c0,0.24-0.09,0.47-0.25,0.65c-0.13,0.15-0.31,0.25-0.5,0.27H18.3c-0.1,0-0.19,0.09-0.19,0.19l0,0v0.93h-0.59
	L17.53,15.04z M17.53,16.87h2.61c0.24,0,0.43,0.18,0.69,0.68c-0.02,0.36-0.32,0.64-0.69,0.62h-2.61V16.87z M17.53,18.44h2.61
	c0.22,0,0.43-0.07,0.6-0.19c-0.03,0.15-0.1,0.29-0.18,0.41v0.02c-0.14,0.19-0.36,0.3-0.6,0.31h-2.43V18.44z M17.53,19.37h0.67v1.03
	c0,0-0.05,0.06-0.13,0.06h-0.52L17.53,19.37L17.53,19.37z M17.53,20.83h0.31v0.35c0,0-0.05,0.06-0.14,0.06h-0.17V20.83z
	 M17.53,24.03c0.1,0,0.16,0.08,0.16,0.16c0,0.1-0.08,0.16-0.16,0.16V24.03z M9.94,12.93c1.08-1.86,2.82-3.24,4.87-3.86l1.07-0.31
	l-0.77,0.81c-0.94,1.03-1.64,2.27-2.02,3.61v0.03H9.8L9.94,12.93z M8.8,17c0.02-1.12,0.27-2.23,0.72-3.26h3.42
	c-0.25,1.07-0.37,2.16-0.37,3.27v0.09H8.8V17z M8.8,17.66h3.77c0.03,1.1,0.18,2.17,0.48,3.23l0.08,0.25H9.79
	c-0.57-1.08-0.9-2.26-0.97-3.48H8.8z M14.97,25.34c-2-0.56-3.72-1.85-4.84-3.6l-0.02-0.03h3.19c0.42,1.17,1.09,2.25,1.95,3.13
	l0.81,0.81L14.97,25.34z M17,25.46l-0.47-0.31c-1.18-0.87-2.09-2.07-2.58-3.46H17V25.46z M17,21.15h-3.26l-0.03-0.08
	c-0.33-1.1-0.52-2.25-0.55-3.4h3.83L17,21.15z M17,17.11h-3.84v-0.1c0-1.1,0.13-2.19,0.4-3.26H17V17.11z M17,13.19h-3.29l0.08-0.21
	c0.71-2.12,1.9-3.28,2.75-3.88l0.47-0.31L17,13.19L17,13.19z"/>
</svg>
