<?xml version="1.0" encoding="utf-8"?>
<!-- Generator: Adobe Illustrator 21.1.0, SVG Export Plug-In . SVG Version: 6.00 Build 0)  -->
<!DOCTYPE svg PUBLIC "-//W3C//DTD SVG 1.1//EN" "http://www.w3.org/Graphics/SVG/1.1/DTD/svg11.dtd">
<svg version="1.1" id="Layer_1" xmlns="http://www.w3.org/2000/svg" xmlns:xlink="http://www.w3.org/1999/xlink" x="0px" y="0px"
	 viewBox="0 0 31.68 31.68" style="enable-background:new 0 0 31.68 31.68;" xml:space="preserve">
<g>
	<g>
		<path d="M24.88,6.13h-8.8h-0.54H6.8c-0.38,0-0.69,0.31-0.69,0.69v8.76v0.58v8.71c0,0.38,0.31,0.69,0.69,0.69h8.8h0.54h8.75
			c0.38,0,0.69-0.31,0.69-0.69v-8.76v-0.58V6.82C25.57,6.44,25.26,6.13,24.88,6.13z M24.88,6.69c0.07,0,0.12,0.06,0.12,0.12v8.71
			c-2.8,0-3.97,0.03-3.97,0.93c0,0,0,0.01,0,0.01c0,0,0,0,0,0.01c0,0.73,0.29,1,0.5,1.2c0.16,0.15,0.25,0.23,0.25,0.53
			c0,0.01,0,0.02,0,0.03c0,0.22-0.08,0.56-1.2,0.56c-1.2,0-1.2-0.39-1.2-0.6c0-0.03,0-0.06,0-0.09c0.02-0.21,0.1-0.29,0.24-0.42
			c0.18-0.17,0.43-0.41,0.48-0.96c0.01-0.08,0.01-0.16,0.01-0.26c0-0.9-1.19-0.93-4.02-0.93c0-0.73,0-1.41,0.03-1.96
			c0.04-0.65,0.11-1.21,0.23-1.37c0.01-0.01,0.02-0.03,0.03-0.03c0.01,0,0.01-0.01,0.02-0.01c0.01-0.01,0.03-0.01,0.04-0.01
			c0.47,0,0.6,0.14,0.77,0.32c0.18,0.19,0.4,0.42,0.94,0.42c0.01,0,0.01,0,0.02,0c0,0,0,0,0,0c1.17,0,1.17-1.32,1.17-1.76
			c0-0.44,0-1.76-1.17-1.76c0,0-0.01,0-0.01,0c0,0-0.01,0-0.01,0c-0.53,0-0.76,0.24-0.94,0.42c-0.17,0.18-0.3,0.32-0.77,0.32
			c-0.34-0.01-0.36-1.56-0.36-3.41H24.88z M6.67,6.82c0-0.07,0.06-0.12,0.12-0.12h8.72v0.06c0,2.61,0,3.91,0.93,3.91
			c0,0,0.01,0,0.01,0c0,0,0,0,0.01,0c0.73,0,1-0.29,1.2-0.5c0.15-0.16,0.23-0.25,0.52-0.25c0.21,0,0.59,0.03,0.59,1.2h0.02v0
			l-0.02,0c0,1.04-0.3,1.18-0.51,1.19c-0.02,0-0.05,0-0.07,0c-0.29,0-0.37-0.09-0.53-0.25c-0.2-0.21-0.47-0.5-1.2-0.5
			c-0.01,0-0.01,0-0.02,0c0,0,0,0,0,0c-0.1,0-0.2,0.02-0.28,0.06c-0.01,0.01-0.03,0.02-0.04,0.02c-0.02,0.01-0.04,0.02-0.06,0.04
			c-0.33,0.23-0.45,0.82-0.5,1.83c-0.03,0.54-0.05,1.22-0.05,2.06c-1.18,0-3.41-0.03-3.41-0.36c0-0.06,0-0.11,0.01-0.16
			c0.03-0.35,0.16-0.47,0.31-0.61c0.17-0.16,0.37-0.35,0.42-0.76c0.01-0.06,0.01-0.12,0.01-0.19c0-1.15-1.29-1.17-1.76-1.17l0,0
			c0,0-0.01,0-0.01,0c0,0-0.01,0-0.01,0l0,0c-0.45,0-1.74,0.02-1.74,1.17c0,0,0,0.01,0,0.01c0,0,0,0.01,0,0.01
			c0,0.53,0.24,0.76,0.43,0.94c0.18,0.17,0.32,0.3,0.32,0.77c-0.01,0.36-1.71,0.36-3.35,0.36l-0.06,0V6.82z M6.8,24.99
			c-0.07,0-0.12-0.06-0.12-0.12v-8.71c2.8,0,3.97-0.03,3.97-0.93c0,0,0-0.01,0-0.01l0-0.01c0-0.73-0.29-1-0.5-1.2
			c-0.16-0.15-0.25-0.23-0.25-0.53c0-0.01,0-0.02,0-0.03c0-0.22,0.08-0.56,1.2-0.56c1.2,0,1.2,0.39,1.2,0.6c0,0.03,0,0.06,0,0.09
			c-0.02,0.21-0.1,0.29-0.24,0.42c-0.18,0.17-0.43,0.41-0.48,0.96c-0.01,0.08-0.01,0.16-0.01,0.26c0,0.9,1.19,0.93,4.02,0.93
			c0,0.73,0,1.41-0.03,1.96c-0.04,0.65-0.11,1.21-0.23,1.37c-0.01,0.01-0.02,0.03-0.03,0.03c-0.01,0-0.01,0.01-0.02,0.01
			c-0.01,0.01-0.03,0.01-0.04,0.01c-0.47,0-0.6-0.14-0.77-0.32c-0.18-0.19-0.4-0.42-0.94-0.42c-0.01,0-0.01,0-0.02,0c0,0,0,0,0,0
			c-1.17,0-1.17,1.32-1.17,1.76s0,1.76,1.17,1.76c0,0,0.01,0,0.01,0c0,0,0.01,0,0.01,0c0.53,0,0.76-0.24,0.94-0.42
			c0.17-0.18,0.3-0.32,0.77-0.32c0.34,0.01,0.36,1.56,0.36,3.41H6.8z M25.01,24.86c0,0.07-0.06,0.12-0.12,0.12h-8.72v-0.06
			c0-2.61,0-3.91-0.93-3.91c0,0-0.01,0-0.01,0c0,0,0,0-0.01,0c-0.73,0-1,0.29-1.2,0.5c-0.15,0.16-0.23,0.25-0.52,0.25
			c-0.21,0-0.59-0.03-0.59-1.2h-0.02v0l0.02,0c0-1.04,0.3-1.18,0.51-1.19c0.02,0,0.05,0,0.07,0c0.29,0,0.37,0.09,0.53,0.25
			c0.2,0.21,0.47,0.5,1.2,0.5c0.01,0,0.01,0,0.02,0c0,0,0,0,0,0c0.1,0,0.2-0.02,0.28-0.06c0.01-0.01,0.03-0.02,0.04-0.02
			c0.02-0.01,0.04-0.02,0.06-0.04c0.33-0.23,0.45-0.82,0.5-1.83c0.03-0.55,0.05-1.22,0.05-2.06c1.18,0,3.41,0.03,3.41,0.36
			c0,0.06,0,0.11-0.01,0.16c-0.03,0.35-0.16,0.47-0.31,0.61c-0.17,0.16-0.37,0.35-0.42,0.76c-0.01,0.06-0.01,0.12-0.01,0.19
			c0,1.15,1.29,1.17,1.76,1.17v0c0,0,0.01,0,0.01,0c0,0,0.01,0,0.01,0v0c0.45,0,1.74-0.02,1.74-1.17c0,0,0-0.01,0-0.01
			c0,0,0-0.01,0-0.01c0-0.53-0.24-0.76-0.43-0.94c-0.18-0.17-0.32-0.3-0.32-0.77c0.01-0.36,1.71-0.36,3.35-0.36h0.06V24.86z"/>
	</g>
</g>
</svg>
