<?xml version="1.0" encoding="utf-8"?>
<!-- Generator: Adobe Illustrator 21.1.0, SVG Export Plug-In . SVG Version: 6.00 Build 0)  -->
<!DOCTYPE svg PUBLIC "-//W3C//DTD SVG 1.1//EN" "http://www.w3.org/Graphics/SVG/1.1/DTD/svg11.dtd">
<svg version="1.1" id="Layer_1" xmlns="http://www.w3.org/2000/svg" xmlns:xlink="http://www.w3.org/1999/xlink" x="0px" y="0px"
	 viewBox="0 0 31.68 31.68" style="enable-background:new 0 0 31.68 31.68;" xml:space="preserve">
<path d="M14.93,21.56h-4.72c-0.13,0-0.23,0.1-0.23,0.23s0.1,0.23,0.23,0.23h4.72c0.13,0,0.23-0.1,0.23-0.23S15.05,21.56,14.93,21.56
	z M14.93,23.09h-4.72c-0.13,0-0.23,0.1-0.23,0.23s0.1,0.23,0.23,0.23h4.72c0.13,0,0.23-0.1,0.23-0.23S15.05,23.09,14.93,23.09z
	 M14.93,20.04h-4.72c-0.13,0-0.23,0.1-0.23,0.23s0.1,0.23,0.23,0.23h4.72c0.13,0,0.23-0.1,0.23-0.23S15.05,20.04,14.93,20.04z
	 M21.49,21.56h-4.72c-0.13,0-0.23,0.1-0.23,0.23s0.1,0.23,0.23,0.23h4.73c0.13,0,0.23-0.1,0.23-0.23s-0.1-0.23-0.23-0.23H21.49z
	 M23.46,9.19l-3.61-3.72c-0.06-0.06-0.14-0.09-0.22-0.09H8.43c-0.17,0-0.3,0.14-0.3,0.3V26c0,0.17,0.14,0.3,0.3,0.3h14.81
	c0.17,0,0.3-0.14,0.3-0.3V9.4C23.55,9.32,23.52,9.25,23.46,9.19z M19.94,6.43l2.74,2.84h-2.74V6.43z M22.94,25.69H8.74V5.98h10.59
	v3.45c0,0.02,0,0.04,0,0.07c0,0.02,0,0.04,0,0.06c0,0.17,0.14,0.3,0.3,0.3h3.31L22.94,25.69z M16.54,20.27
	c0,0.13,0.1,0.23,0.23,0.23h4.74c0.13,0,0.23-0.1,0.23-0.23s-0.1-0.23-0.23-0.23h-4.73C16.65,20.04,16.54,20.15,16.54,20.27
	L16.54,20.27z M21.5,23.08h-4.73c-0.13,0-0.23,0.1-0.23,0.23s0.1,0.23,0.23,0.23h4.73c0.13,0,0.23-0.1,0.23-0.23
	S21.63,23.08,21.5,23.08L21.5,23.08z M15.84,9.53c-2.27,0-4.11,1.84-4.11,4.11s1.84,4.11,4.11,4.11c2.27,0,4.11-1.84,4.11-4.11
	C19.95,11.38,18.11,9.54,15.84,9.53z M16.14,17.13v-3.18h3.18C19.17,15.64,17.83,16.98,16.14,17.13z M15.84,13.34
	c-0.17,0-0.3,0.14-0.3,0.3v3.48c-1.93-0.17-3.35-1.86-3.18-3.79c0.17-1.93,1.86-3.35,3.79-3.18c1.69,0.15,3.04,1.49,3.18,3.18H15.84
	z"/>
</svg>
