<?xml version="1.0" encoding="utf-8"?>
<!-- Generator: Adobe Illustrator 21.1.0, SVG Export Plug-In . SVG Version: 6.00 Build 0)  -->
<!DOCTYPE svg PUBLIC "-//W3C//DTD SVG 1.1//EN" "http://www.w3.org/Graphics/SVG/1.1/DTD/svg11.dtd">
<svg version="1.1" id="Layer_1" xmlns="http://www.w3.org/2000/svg" xmlns:xlink="http://www.w3.org/1999/xlink" x="0px" y="0px"
	 viewBox="0 0 31.68 31.68" style="enable-background:new 0 0 31.68 31.68;" xml:space="preserve">
<path d="M29.07,13.82c-0.1-0.19-0.31-0.28-0.52-0.23l-1.21,0.18c-0.87-2.41-3.16-4.02-5.72-4.01c-2.43,0-3.57,1.34-5,3.04
	c-0.24,0.28-0.48,0.57-0.75,0.88c-0.27-0.31-0.52-0.59-0.76-0.88c-1.44-1.7-2.57-3.04-5-3.04c-2.57-0.01-4.86,1.6-5.72,4.02
	l-1.25-0.18c-0.2-0.05-0.41,0.05-0.51,0.23c-0.08,0.2-0.02,0.43,0.14,0.58l1.27,1.52c0.04,3.33,2.75,6.01,6.08,6.02
	c2.43,0,3.57-1.34,5-3.04c0.24-0.28,0.48-0.57,0.75-0.88c0.26,0.31,0.52,0.59,0.76,0.88c1.44,1.7,2.57,3.04,5,3.04
	c3.36,0,6.09-2.71,6.1-6.07l1.21-1.45C29.09,14.26,29.15,14.03,29.07,13.82z M4.48,14.28c0.12,0.02,0.23-0.06,0.27-0.17h0.03
	c0.74-2.31,2.89-3.88,5.32-3.88c2.19,0,3.22,1.2,4.62,2.87c0.26,0.31,0.52,0.63,0.81,0.94l-1.06,1.4L13.36,14
	c-0.06-0.07-1.37-1.65-3.26-1.65c-1.15,0-2.22,0.57-2.87,1.51c-0.06,0.05-0.09,0.13-0.08,0.21c0.02,0.14,0.14,0.23,0.28,0.21
	c0,0,0,0,0.01,0l1.34-0.2l-2.81,3.4l-2.83-3.39L4.48,14.28z M9.31,13.79c-0.1-0.19-0.31-0.28-0.52-0.23l-0.77,0.13
	c0.56-0.54,1.3-0.84,2.07-0.84c1.65,0,2.86,1.46,2.87,1.47l1.18,1.53l-1.17,1.52c0,0-1.23,1.47-2.87,1.47
	c-1.31,0-2.47-0.86-2.86-2.11l1.92-2.32C9.33,14.25,9.39,14.01,9.31,13.79L9.31,13.79z M21.61,21.43c-2.19,0-3.22-1.2-4.62-2.87
	c-0.26-0.31-0.52-0.63-0.81-0.94l1.07-1.39l1.1,1.43c0.06,0.07,1.37,1.65,3.26,1.65c1.4,0,2.66-0.84,3.21-2.13l0.69,0.83
	c0.05,0.06,0.12,0.09,0.19,0.09c0.07,0,0.14-0.03,0.19-0.09l1.27-1.52C26.82,19.32,24.44,21.43,21.61,21.43z M22.49,14.38l1.97,2.38
	c-0.4,1.24-1.55,2.07-2.85,2.08c-1.65,0-2.86-1.46-2.87-1.47l-1.18-1.53l1.17-1.52c0,0,1.22-1.47,2.87-1.47
	c0.78,0,1.52,0.31,2.08,0.85l-0.82-0.13c-0.2-0.05-0.41,0.05-0.51,0.23C22.28,14,22.33,14.23,22.49,14.38z M25.7,17.48l-2.81-3.4
	l1.34,0.2c0.13,0.02,0.26-0.07,0.28-0.21c0.01-0.06-0.01-0.13-0.04-0.18l0.03-0.02c-0.65-0.96-1.73-1.53-2.89-1.53
	c-1.88,0-3.2,1.59-3.26,1.66l-2.6,3.37c-0.38,0.41-0.71,0.81-1.03,1.18c-1.41,1.66-2.42,2.87-4.62,2.87c-2.81,0-5.18-2.08-5.54-4.86
	l1.22,1.46c0.05,0.06,0.12,0.09,0.19,0.09c0.07,0,0.14-0.03,0.19-0.09l0.71-0.86c0.54,1.31,1.81,2.17,3.23,2.17
	c1.88,0,3.2-1.59,3.26-1.66l2.6-3.37c0.37-0.41,0.71-0.81,1.03-1.18c1.41-1.66,2.42-2.87,4.62-2.87c2.4,0,4.53,1.53,5.3,3.8
	c0,0.01,0,0.02,0,0.03c0.02,0.14,0.14,0.23,0.28,0.21c0,0,0,0,0,0l1.34-0.2L25.7,17.48z"/>
</svg>
