<?xml version="1.0" encoding="utf-8"?>
<!-- Generator: Adobe Illustrator 21.1.0, SVG Export Plug-In . SVG Version: 6.00 Build 0)  -->
<!DOCTYPE svg PUBLIC "-//W3C//DTD SVG 1.1//EN" "http://www.w3.org/Graphics/SVG/1.1/DTD/svg11.dtd">
<svg version="1.1" id="Layer_1" xmlns="http://www.w3.org/2000/svg" xmlns:xlink="http://www.w3.org/1999/xlink" x="0px" y="0px"
	 viewBox="0 0 32 32" style="enable-background:new 0 0 32 32;" xml:space="preserve">
<path d="M27.3,15.58c-0.02-0.08-0.07-0.16-0.14-0.2l-6.52-4.06l-5.55-6.23c-0.09-0.1-0.24-0.11-0.34-0.02L12.98,6.6l-1.47-0.91
	c-0.15-0.09-0.35-0.05-0.44,0.1l-3.5,5.53l-1.98,1.73c-0.05,0.04-0.08,0.1-0.08,0.16c0,0.06,0.02,0.13,0.06,0.17l0.42,0.47
	l-1.24,1.97c-0.05,0.07-0.06,0.16-0.04,0.24c0.02,0.08,0.07,0.16,0.14,0.2l7.29,4.5l5.49,6.16C17.67,26.97,17.74,27,17.8,27
	c0.06,0,0.11-0.02,0.16-0.06l1.71-1.49l0.82,0.51C20.54,25.98,20.6,26,20.66,26c0.11,0,0.21-0.05,0.27-0.15l2.12-3.35l4.06-3.54
	c0.05-0.04,0.08-0.1,0.08-0.17c0-0.06-0.02-0.13-0.06-0.17l-0.97-1.08l1.08-1.72C27.3,15.75,27.32,15.66,27.3,15.58L27.3,15.58z
	 M11.44,6.4l1.03,0.64L9.28,9.82L11.44,6.4z M5.46,15.88l0.97-1.54l4.25,4.77C10.68,19.11,5.46,15.88,5.46,15.88z M20.56,25.24
	L20.18,25l1.16-1.01L20.56,25.24z M17.82,26.43L6.08,13.24l8.8-7.66l5.85,6.57l0.01,0.01l0.01,0.01l5.88,6.6L17.82,26.43
	L17.82,26.43z M25.73,17.04l-3.56-4l4.37,2.71L25.73,17.04z M15.75,10.84c-0.09-0.1-0.24-0.11-0.33-0.02l-4.03,3.51
	c-0.05,0.04-0.08,0.1-0.08,0.16c0,0.06,0.02,0.13,0.06,0.17l3.86,4.34c0.09,0.1,0.24,0.11,0.33,0.02l0.94-0.82l1.66,1.86
	c0.05,0.05,0.11,0.08,0.18,0.08c0.06,0,0.11-0.02,0.16-0.06l2.92-2.54c0.05-0.04,0.08-0.1,0.08-0.17c0-0.06-0.02-0.13-0.06-0.17
	L15.75,10.84L15.75,10.84z M18.36,19.59l-1.66-1.86c-0.05-0.05-0.11-0.08-0.18-0.08c-0.06,0-0.11,0.02-0.16,0.06l-0.94,0.82
	l-3.55-3.98l3.67-3.2l5.36,6.02L18.36,19.59L18.36,19.59z M22.97,19.26c0.02,0.03,0.06,0.04,0.09,0.04c0.03,0,0.06-0.01,0.08-0.03
	c0.05-0.04,0.05-0.12,0.01-0.17l-1.3-1.46c-0.04-0.05-0.12-0.05-0.17-0.01c-0.05,0.04-0.05,0.12-0.01,0.17
	C21.67,17.8,22.97,19.26,22.97,19.26z M21.95,17.11c0.03,0,0.06-0.01,0.08-0.03l0.91-0.8c0.05-0.04,0.06-0.12,0.01-0.17
	c-0.04-0.05-0.12-0.06-0.17-0.01l-0.91,0.8c-0.05,0.04-0.06,0.12-0.01,0.17C21.88,17.1,21.92,17.11,21.95,17.11z M15.32,10.66
	c0.02,0.03,0.06,0.04,0.09,0.04c0.03,0,0.06-0.01,0.08-0.03c0.05-0.04,0.05-0.12,0.01-0.17l-1.3-1.46C14.16,9,14.08,9,14.03,9.04
	s-0.05,0.12-0.01,0.17L15.32,10.66z M11.35,14.12l-1.3-1.46c-0.04-0.05-0.12-0.05-0.17-0.01s-0.05,0.12-0.01,0.17l1.3,1.46
	c0.02,0.03,0.06,0.04,0.09,0.04c0.03,0,0.06-0.01,0.08-0.03C11.39,14.24,11.39,14.17,11.35,14.12z M16.16,10.61
	c0.03,0,0.06-0.01,0.08-0.03l0.91-0.8c0.05-0.04,0.06-0.12,0.01-0.17C17.12,9.57,17.05,9.56,17,9.6l-0.91,0.8
	c-0.05,0.04-0.06,0.12-0.01,0.17C16.1,10.6,16.13,10.61,16.16,10.61z M18.7,20.38c-0.04-0.05-0.12-0.05-0.17-0.01
	s-0.05,0.12-0.01,0.17l1.3,1.46c0.02,0.03,0.06,0.04,0.09,0.04c0.03,0,0.06-0.01,0.08-0.03c0.05-0.04,0.05-0.12,0.01-0.17
	C20,21.84,18.7,20.38,18.7,20.38z M17.93,20.33l-0.92,0.8c-0.05,0.04-0.06,0.12-0.01,0.17c0.02,0.03,0.06,0.04,0.09,0.04
	c0.03,0,0.06-0.01,0.08-0.03l0.92-0.8c0.05-0.04,0.06-0.12,0.01-0.17C18.06,20.29,17.98,20.29,17.93,20.33z M14.9,19.14l-0.91,0.8
	c-0.05,0.04-0.06,0.12-0.01,0.17c0.02,0.03,0.06,0.04,0.09,0.04c0.03,0,0.06-0.01,0.08-0.03l0.91-0.8c0.05-0.04,0.06-0.12,0.01-0.17
	S14.95,19.1,14.9,19.14z M11.03,14.8l-0.91,0.8c-0.05,0.04-0.06,0.12-0.01,0.17c0.02,0.03,0.06,0.04,0.09,0.04
	c0.03,0,0.06-0.01,0.08-0.03l0.91-0.8c0.05-0.04,0.06-0.12,0.01-0.17C11.16,14.76,11.08,14.76,11.03,14.8z"/>
</svg>
