<?xml version="1.0" encoding="utf-8"?>
<!-- Generator: Adobe Illustrator 21.1.0, SVG Export Plug-In . SVG Version: 6.00 Build 0)  -->
<!DOCTYPE svg PUBLIC "-//W3C//DTD SVG 1.1//EN" "http://www.w3.org/Graphics/SVG/1.1/DTD/svg11.dtd">
<svg version="1.1" id="Layer_1" xmlns="http://www.w3.org/2000/svg" xmlns:xlink="http://www.w3.org/1999/xlink" x="0px" y="0px"
	 viewBox="0 0 32 32" style="enable-background:new 0 0 32 32;" xml:space="preserve">
<path d="M22.78,19.34c0-0.41-0.33-0.74-0.74-0.74c-0.35,0-0.65,0.25-0.72,0.58h-1.57c-0.06-0.28-0.28-0.51-0.57-0.57V16.8
	c0.33-0.07,0.58-0.37,0.58-0.72c0-0.41-0.33-0.74-0.74-0.74s-0.74,0.33-0.74,0.74c0,0.35,0.25,0.65,0.58,0.72v1.82
	c-0.28,0.06-0.51,0.28-0.57,0.57h-1.65c-0.07-0.33-0.37-0.58-0.72-0.58c-0.41,0-0.74,0.33-0.74,0.74c0,0.35,0.25,0.65,0.58,0.72
	v1.86c-0.33,0.07-0.58,0.37-0.58,0.72c0,0.41,0.33,0.74,0.74,0.74c0.41,0,0.74-0.33,0.74-0.74c0-0.35-0.25-0.65-0.58-0.72v-1.86
	c0.28-0.06,0.51-0.28,0.57-0.57h1.65c0.06,0.28,0.28,0.51,0.57,0.57v1.86c-0.33,0.07-0.58,0.37-0.58,0.72
	c0,0.41,0.33,0.74,0.74,0.74s0.74-0.33,0.74-0.74c0-0.35-0.25-0.65-0.58-0.72v-1.86c0.28-0.06,0.51-0.28,0.57-0.57h1.57
	c0.06,0.28,0.28,0.51,0.57,0.57v1.86c-0.33,0.07-0.58,0.37-0.58,0.72c0,0.41,0.33,0.74,0.74,0.74s0.74-0.33,0.74-0.74
	c0-0.35-0.25-0.65-0.58-0.72v-1.86C22.53,19.99,22.78,19.69,22.78,19.34z M16.37,22.63c0,0.24-0.19,0.43-0.43,0.43
	s-0.43-0.19-0.43-0.43s0.19-0.43,0.43-0.43C16.17,22.2,16.37,22.4,16.37,22.63z M15.94,19.77c-0.24,0-0.43-0.19-0.43-0.43
	s0.19-0.43,0.43-0.43s0.43,0.19,0.43,0.43S16.18,19.77,15.94,19.77z M18.6,16.08c0-0.24,0.19-0.43,0.43-0.43s0.43,0.19,0.43,0.43
	c0,0.24-0.19,0.43-0.43,0.43S18.6,16.32,18.6,16.08z M19.46,22.63c0,0.24-0.19,0.43-0.43,0.43s-0.43-0.19-0.43-0.43
	s0.19-0.43,0.43-0.43S19.46,22.4,19.46,22.63z M19.03,19.77c-0.24,0-0.43-0.19-0.43-0.43s0.19-0.43,0.43-0.43s0.43,0.19,0.43,0.43
	S19.27,19.77,19.03,19.77z M22.48,22.63c0,0.24-0.19,0.43-0.43,0.43s-0.43-0.19-0.43-0.43s0.19-0.43,0.43-0.43
	S22.48,22.4,22.48,22.63z M22.05,19.77c-0.24,0-0.43-0.19-0.43-0.43s0.19-0.43,0.43-0.43s0.43,0.19,0.43,0.43
	S22.28,19.77,22.05,19.77z M25.72,11.67C24.82,8.73,22.08,6.7,19,6.7c-3.09,0-5.81,2.02-6.71,4.94c-0.5-0.18-1.03-0.27-1.57-0.27
	c-2.19,0-4.07,1.5-4.56,3.61c-1.95,0.07-3.6,1.43-4.04,3.35c-0.02,0.09,0,0.18,0.06,0.25c0.06,0.07,0.14,0.11,0.23,0.11h10.05
	c-0.05,0.31-0.07,0.63-0.07,0.95c0,3.66,2.98,6.65,6.65,6.65c3.67,0,6.65-2.98,6.65-6.65c0-0.33-0.02-0.64-0.07-0.95H30
	c0.14,0,0.26-0.1,0.29-0.24c0.06-0.36,0.09-0.68,0.09-1C30.38,14.65,28.43,12.25,25.72,11.67L25.72,11.67z M19.03,25.68
	c-3.33,0-6.03-2.71-6.03-6.03s2.71-6.03,6.03-6.03c3.33,0,6.03,2.71,6.03,6.03S22.36,25.68,19.03,25.68z M29.75,18.11H25.5
	C24.8,15.18,22.17,13,19.03,13c-3.14,0-5.77,2.18-6.47,5.11H2.79c0.5-1.51,1.9-2.54,3.55-2.54h0l0.05,0
	c0.15,0.01,0.27-0.1,0.29-0.24c0.35-1.95,2.05-3.37,4.04-3.37c0.53,0,1.05,0.11,1.54,0.31c0.3,0.15,0.95,0.52,1.36,1.2
	c0.05,0.08,0.14,0.12,0.23,0.1c0.02-0.01,0.05-0.01,0.07-0.03c0.1-0.06,0.14-0.2,0.08-0.3c-0.35-0.58-0.84-0.96-1.21-1.19
	c0.76-2.81,3.31-4.76,6.22-4.76c2.8,0,5.27,1.79,6.12,4.44c-0.75-0.01-1.31,0.27-1.34,0.28c-0.11,0.05-0.17,0.17-0.12,0.29
	c0.05,0.11,0.17,0.16,0.28,0.12c0.01,0,0.78-0.31,1.66-0.16c2.44,0.53,4.2,2.69,4.2,5.2C29.8,17.66,29.78,17.88,29.75,18.11
	L29.75,18.11z"/>
</svg>
