<?xml version="1.0" encoding="utf-8"?>
<!-- Generator: Adobe Illustrator 21.1.0, SVG Export Plug-In . SVG Version: 6.00 Build 0)  -->
<!DOCTYPE svg PUBLIC "-//W3C//DTD SVG 1.1//EN" "http://www.w3.org/Graphics/SVG/1.1/DTD/svg11.dtd">
<svg version="1.1" id="Layer_1" xmlns="http://www.w3.org/2000/svg" xmlns:xlink="http://www.w3.org/1999/xlink" x="0px" y="0px"
	 viewBox="0 0 32 32" style="enable-background:new 0 0 32 32;" xml:space="preserve">
<path d="M27.68,7.79c-0.03-0.03-0.07-0.04-0.11-0.03c0,0-0.01,0-0.01,0l-2.21,0.81c-0.04,0.01-0.07,0.05-0.08,0.09
	c-0.01,0.04,0,0.08,0.03,0.11l0.36,0.36l-1.05,1.05V7.54c0-0.31-0.25-0.56-0.56-0.56H7.13c-0.31,0-0.56,0.25-0.56,0.56v12.42
	l-2.15,2.15c-0.18,0.18-0.18,0.47,0,0.65c0.09,0.09,0.21,0.13,0.32,0.13s0.24-0.04,0.32-0.13l1.5-1.5v3.2
	c0,0.31,0.25,0.56,0.56,0.56h16.92c0.31,0,0.56-0.25,0.56-0.56V11.48l1.7-1.7l0.37,0.37c0.03,0.03,0.07,0.04,0.11,0.03
	c0.04,0,0.07-0.04,0.09-0.07l0.83-2.19C27.72,7.88,27.71,7.83,27.68,7.79L27.68,7.79z M20.17,11.76h2.86l-2.86,2.86V11.76z
	 M7.19,16.11h3.24l-3.24,3.24V16.11z M11.08,24.4H7.19v-3.76l0.2-0.19h3.7C11.08,20.45,11.08,24.4,11.08,24.4z M11.08,20.07H7.77
	l3.31-3.31V20.07z M11.08,15.46l-0.27,0.27H7.19v-3.96h3.89L11.08,15.46L11.08,15.46z M11.08,11.38H7.19V7.6h3.89L11.08,11.38
	L11.08,11.38z M15.44,24.4h-3.97v-3.95h3.97V24.4z M15.44,20.07h-3.97v-3.7l0.27-0.27h3.29l0.42,0.42V20.07L15.44,20.07z
	 M12.11,15.72l1.26-1.26l1.26,1.26H12.11L12.11,15.72z M15.44,15.22l-1.73-1.73c-0.18-0.18-0.47-0.18-0.65,0l-1.59,1.59v-3.31h3.97
	L15.44,15.22L15.44,15.22z M15.44,11.38h-3.97V7.6h3.97V11.38z M19.79,24.4h-3.97v-3.95h3.97V24.4z M19.79,20.07h-3.97v-3.16
	l1.36,1.36c0.18,0.18,0.47,0.18,0.65,0l1.96-1.96L19.79,20.07L19.79,20.07z M16.32,16.11h2.36l-1.18,1.18L16.32,16.11L16.32,16.11z
	 M19.79,15l-0.72,0.72h-3.13l-0.12-0.12v-3.85h3.97L19.79,15L19.79,15z M19.79,11.38h-3.97V7.6h3.97V11.38z M24,24.4h-3.82v-3.95H24
	V24.4z M24,20.07h-3.82v-3.96H24V20.07z M24,15.72h-3.63L24,12.09V15.72z M24,10.79l-0.58,0.58h-3.24V7.6H24V10.79z"/>
</svg>
