<?xml version="1.0" encoding="utf-8"?>
<!-- Generator: Adobe Illustrator 21.1.0, SVG Export Plug-In . SVG Version: 6.00 Build 0)  -->
<!DOCTYPE svg PUBLIC "-//W3C//DTD SVG 1.1//EN" "http://www.w3.org/Graphics/SVG/1.1/DTD/svg11.dtd">
<svg version="1.1" id="Layer_1" xmlns="http://www.w3.org/2000/svg" xmlns:xlink="http://www.w3.org/1999/xlink" x="0px" y="0px"
	 viewBox="0 0 31.68 31.68" style="enable-background:new 0 0 31.68 31.68;" xml:space="preserve">
<g>
	<path d="M15.84,3.72c0.09,0,0.17,0.04,0.23,0.11l7.21,8.68c0.31,0.31,0.43,0.71,0.3,1.03c-0.06,0.14-0.27,0.49-0.93,0.42
		l-3.08-0.46v10.25c0,0.16-0.13,0.3-0.3,0.3H12.4c-0.16,0-0.3-0.13-0.3-0.3V13.49l-3.07,0.46c-0.07,0.01-0.13,0.01-0.18,0.01
		c-0.52,0-0.71-0.3-0.76-0.43c-0.13-0.32-0.01-0.72,0.32-1.05l7.19-8.66C15.67,3.76,15.75,3.72,15.84,3.72z M22.83,13.36
		c0.13,0,0.2-0.03,0.21-0.06c0.02-0.06-0.02-0.23-0.19-0.4l-7-8.42l-6.98,8.4c-0.19,0.19-0.24,0.36-0.21,0.42
		c0.02,0.04,0.13,0.07,0.31,0.05l3.4-0.51c0.09-0.01,0.17,0.01,0.24,0.07c0.07,0.06,0.1,0.14,0.1,0.23v10.3h6.28v-10.3
		c0-0.09,0.04-0.17,0.1-0.23c0.07-0.06,0.15-0.08,0.24-0.07l3.41,0.51C22.76,13.36,22.79,13.36,22.83,13.36z"/>
	<path d="M22.81,27.96H8.87c-0.15,0-0.27-0.13-0.27-0.3v-2.23c0-0.16,0.12-0.3,0.27-0.3h13.93c0.15,0,0.27,0.13,0.27,0.3v2.23
		C23.08,27.83,22.96,27.96,22.81,27.96z M9.15,27.36h13.39v-1.64H9.15V27.36z"/>
</g>
</svg>
