<?xml version="1.0" encoding="utf-8"?>
<!-- Generator: Adobe Illustrator 21.1.0, SVG Export Plug-In . SVG Version: 6.00 Build 0)  -->
<!DOCTYPE svg PUBLIC "-//W3C//DTD SVG 1.1//EN" "http://www.w3.org/Graphics/SVG/1.1/DTD/svg11.dtd">
<svg version="1.1" id="Layer_1" xmlns="http://www.w3.org/2000/svg" xmlns:xlink="http://www.w3.org/1999/xlink" x="0px" y="0px"
	 viewBox="0 0 32 32" style="enable-background:new 0 0 32 32;" xml:space="preserve">
<path d="M25.68,7.01c-7.31-1.71-9.11-1.89-9.55-1.89c-0.05,0-0.09,0-0.13,0.01c-0.04-0.01-0.08-0.01-0.13-0.01
	c-0.44,0-2.25,0.18-9.55,1.89c-0.14,0.03-0.24,0.16-0.24,0.3v10.11c0,0.09,0.35,8.77,9.86,10.46c0.02,0,0.03,0,0.05,0
	c0.01,0,0.03,0,0.04,0c9.77-1.2,9.88-10.38,9.88-10.47V7.31C25.92,7.17,25.82,7.04,25.68,7.01L25.68,7.01z M25.3,17.41
	c0,0.09-0.11,8.7-9.29,9.86c-8.97-1.61-9.3-9.53-9.31-9.86V7.55c7.69-1.79,9.04-1.84,9.22-1.82c0.05,0.02,0.11,0.01,0.17,0
	c0.18-0.01,1.54,0.03,9.22,1.82L25.3,17.41L25.3,17.41z M15.52,8.44c-0.71,0.08-2.65,0.39-7.7,1.56c-0.11,0.02-0.18,0.12-0.18,0.22
	v7.17c0.03,0.74,0.51,7.29,8.32,8.78c0.01,0,0.03,0,0.04,0c0.01,0,0.02,0,0.03,0c5.43-0.75,7.32-4.25,7.98-6.6l0,0h0
	c0.33-1.18,0.35-2.07,0.35-2.17v-5.04c0,0,0-0.01,0.01-0.01l-0.01,0v-2.13c0-0.11-0.07-0.2-0.18-0.22
	c-5.06-1.17-6.99-1.48-7.72-1.56l-0.45,0L15.52,8.44L15.52,8.44z M23.9,13.63v3.78c0,0-0.09,2.29-1.1,3.96l-0.32,0.53
	c0,0-0.61,0.93-1.23,1.48l-0.43,0.37c-1.14,0.92-2.69,1.67-4.82,1.97c-1.5-0.29-2.7-0.78-3.69-1.37
	c6.49-4.56,10.14-9.21,11.58-11.29L23.9,13.63L23.9,13.63z M21.84,9.94c0.62,0.14,1.31,0.29,2.06,0.47v1.53l-0.06,0.11
	c-0.96,1.5-4.67,6.8-12.07,11.94c-0.09-0.07-0.19-0.13-0.28-0.2l-0.49-0.4c-0.46-0.41-0.85-0.85-1.18-1.29l-0.31-0.45
	c7.14-5,10.94-10.19,12-11.78L21.84,9.94L21.84,9.94z M20.87,9.73c-1.21,1.77-4.92,6.66-11.67,11.4c-0.97-1.76-1.09-3.41-1.1-3.74
	l0.01-2.92v-0.72L8.1,10.41l1.99-0.45c0,0,4.93-1,5.45-1.06l0.89,0C16.95,8.96,18.17,9.15,20.87,9.73L20.87,9.73z"/>
</svg>
