<?xml version="1.0" encoding="utf-8"?>
<!-- Generator: Adobe Illustrator 21.1.0, SVG Export Plug-In . SVG Version: 6.00 Build 0)  -->
<!DOCTYPE svg PUBLIC "-//W3C//DTD SVG 1.1//EN" "http://www.w3.org/Graphics/SVG/1.1/DTD/svg11.dtd">
<svg version="1.1" id="Layer_1" xmlns="http://www.w3.org/2000/svg" xmlns:xlink="http://www.w3.org/1999/xlink" x="0px" y="0px"
	 viewBox="0 0 32 32" style="enable-background:new 0 0 32 32;" xml:space="preserve">
<path d="M24.14,13.9c-0.15-0.16-0.35-0.24-0.6-0.25c-0.14,0-0.84,0-0.84,0c-0.65-0.04-1.08,0.17-1.24,0.62l-0.85,2.06
	c-0.11-0.04-0.23-0.06-0.36-0.06h-2.68v-1.21h1.76c0.06,0,0.12,0,0.17-0.01c0.46-0.05,0.89-0.27,1.22-0.64
	c0.34-0.38,0.53-0.86,0.55-1.38c0.01-0.02,0.01-0.05,0.01-0.08c0-0.02,0-0.04-0.01-0.07c0-0.05,0-0.11-0.01-0.16l-0.6-5.83
	c-0.12-1.22-0.58-2.33-1.27-3.13c-0.73-0.84-1.65-1.29-2.68-1.29h-1.46c-1.03,0-1.95,0.45-2.68,1.29c-0.69,0.8-1.15,1.92-1.27,3.13
	l-0.6,5.83c-0.01,0.08-0.01,0.15-0.01,0.23c0,0.01,0,0.03,0,0.04c0.01,0.53,0.21,1.03,0.56,1.42c0.33,0.36,0.76,0.59,1.22,0.64
	c0.06,0.01,0.12,0.01,0.17,0.01h1.76v1.21h-2.68c-0.13,0-0.25,0.02-0.36,0.05l-0.84-2.03c-0.16-0.43-0.52-0.64-1.09-0.64
	c-0.05,0-0.11,0-0.14,0c0,0-0.71,0-0.85,0c-0.24,0.01-0.45,0.09-0.6,0.25c-0.29,0.31-0.28,0.79-0.27,0.99l0,0.05
	c-0.01,0.31,0.29,0.38,0.87,0.54c0.15,0.04,0.35,0.09,0.46,0.13l1.21,3.25c0.05,0.42,0.2,0.82,0.45,1.16l0.02,0.02
	c0.37,0.48,0.9,0.76,1.46,0.76l0.92,0c0,0,0,0,0,0l1.22,0c0.05,0,0.08,0,0.11,0c0,0.03,0.01,0.06,0.01,0.08l-0.01,1.59
	c0,0.32,0.24,0.58,0.58,0.67l-0.01,0.6c0,0.39,0.36,0.7,0.82,0.71v0.65c-0.01,0-0.02,0-0.02,0c-2.18,0.11-3.73,1.68-4.28,2.33
	c-0.07-0.02-0.15-0.04-0.23-0.04c-0.45,0-0.81,0.36-0.81,0.81c0,0.45,0.36,0.81,0.81,0.81c0.45,0,0.81-0.36,0.81-0.81
	c0-0.14-0.04-0.27-0.1-0.38c0.5-0.58,1.92-2,3.83-2.1v2.11c-0.34,0.12-0.58,0.45-0.58,0.83c0,0.49,0.4,0.88,0.88,0.88
	c0.49,0,0.88-0.4,0.88-0.88c0-0.38-0.24-0.7-0.58-0.83v-2.09c1.28,0.12,2.56,0.85,3.81,2.17c-0.05,0.1-0.08,0.22-0.08,0.34
	c0,0.45,0.36,0.81,0.81,0.81c0.45,0,0.81-0.36,0.81-0.81c0-0.45-0.36-0.81-0.81-0.81c-0.1,0-0.19,0.02-0.28,0.05
	c-1.38-1.45-2.81-2.25-4.26-2.37v-0.66c0.46-0.01,0.82-0.32,0.82-0.71l-0.01-0.6c0.34-0.09,0.58-0.35,0.58-0.67l-0.01-1.58
	c0-0.03,0-0.06,0.01-0.08c0.03,0,0.07,0,0.11,0l0.07,0l2.07,0c0.56,0,1.09-0.28,1.46-0.76l0.03-0.03c0.24-0.33,0.39-0.72,0.44-1.15
	l1.21-3.25c0.11-0.04,0.31-0.09,0.46-0.13c0.6-0.16,0.88-0.23,0.87-0.54l0-0.05C24.42,14.69,24.43,14.2,24.14,13.9L24.14,13.9z
	 M11.01,28.08c-0.03,0.03-0.05,0.08-0.05,0.12l0,0C10.96,28.16,10.98,28.12,11.01,28.08z M11.16,28.4c0.06,0,0.12-0.03,0.15-0.08
	C11.27,28.37,11.22,28.4,11.16,28.4z M11.34,28.28C11.34,28.28,11.34,28.28,11.34,28.28C11.34,28.28,11.34,28.28,11.34,28.28z
	 M11.35,28.2c0-0.05-0.02-0.1-0.06-0.14C11.33,28.1,11.35,28.15,11.35,28.2L11.35,28.2z M21.02,28.34c0.01-0.03,0.03-0.06,0.03-0.09
	l0,0C21.04,28.28,21.03,28.31,21.02,28.34z M20.85,28.05c0.09,0,0.17,0.07,0.19,0.15C21.01,28.12,20.94,28.05,20.85,28.05
	c-0.07,0-0.13,0.04-0.17,0.1C20.71,28.09,20.77,28.05,20.85,28.05z M20.65,28.25c0,0.01,0,0.02,0.01,0.04
	C20.65,28.27,20.65,28.26,20.65,28.25L20.65,28.25z M12.66,14.44c-0.04,0-0.08,0-0.11-0.01c-0.3-0.03-0.6-0.19-0.82-0.44
	c-0.26-0.28-0.4-0.65-0.4-1.05c0-0.01,0-0.02,0-0.03c0-0.04,0-0.09,0.01-0.13l0.6-5.83c0.11-1.1,0.51-2.09,1.12-2.8
	c0.61-0.7,1.37-1.08,2.22-1.08h1.46c0.84,0,1.61,0.37,2.22,1.08c0.61,0.71,1.01,1.7,1.12,2.8l0.6,5.83c0,0.05,0.01,0.09,0.01,0.13
	c0,0.01,0,0.02,0,0.03c0,0.39-0.14,0.77-0.4,1.05c-0.22,0.25-0.52,0.41-0.82,0.44c-0.04,0-0.08,0.01-0.11,0.01h-2.07
	c-0.17,0-0.31,0.14-0.31,0.31v1.51h-1.93v-1.51c0-0.17-0.14-0.31-0.31-0.31L12.66,14.44L12.66,14.44z M10.27,17.5l-0.82-2.2
	c-0.08-0.21-0.3-0.27-0.84-0.41c-0.13-0.03-0.3-0.08-0.41-0.11c0-0.15,0.02-0.36,0.11-0.45c0.02-0.02,0.06-0.06,0.17-0.06
	c0.14,0,0.84,0,0.86-0.01c0.04,0,0.09,0,0.12,0c0.39,0,0.47,0.12,0.52,0.25l0.88,2.12C10.64,16.82,10.45,17.11,10.27,17.5
	L10.27,17.5z M15.73,28.65c0-0.07,0.03-0.14,0.08-0.19C15.76,28.51,15.73,28.57,15.73,28.65L15.73,28.65z M16.27,28.65
	c0-0.07-0.03-0.14-0.08-0.19C16.24,28.51,16.27,28.57,16.27,28.65L16.27,28.65z M16.29,23.84h-0.58c-0.15,0-0.23-0.08-0.23-0.09
	l0.01-0.57h1.02l0,0.56C16.52,23.77,16.44,23.84,16.29,23.84L16.29,23.84z M16.87,22.57h-1.74c-0.15,0-0.22-0.08-0.22-0.09
	l0.01-1.59c0-0.03,0-0.05-0.01-0.08h2.18c0,0.03-0.01,0.06-0.01,0.09l0.01,1.58C17.09,22.49,17.02,22.57,16.87,22.57z M20.95,19.64
	l-0.02,0.03c-0.25,0.33-0.6,0.52-0.98,0.52l-1.38,0c0,0,0,0,0,0l-6.52,0c-0.37,0-0.72-0.18-0.98-0.52l-0.01-0.01
	c-0.14-0.2-0.24-0.43-0.3-0.68c0.28,0.21,0.64,0.31,0.98,0.31h8.51c0.34,0,0.7-0.11,0.98-0.31C21.18,19.22,21.08,19.45,20.95,19.64
	L20.95,19.64z M20.26,18.82h-8.51c-0.42,0-1.09-0.27-1.12-1c0.4-0.91,0.73-1.09,1.12-1.09h8.51c0.4,0,0.69,0.29,1.12,1.1
	C21.34,18.55,20.68,18.82,20.26,18.82z M23.39,14.89c-0.54,0.14-0.76,0.2-0.84,0.41l-0.82,2.21c-0.17-0.32-0.36-0.62-0.58-0.85
	l0.9-2.17c0.04-0.12,0.12-0.24,0.51-0.24c0.04,0,0.08,0,0.14,0c0,0,0.7,0,0.84,0c0.1,0,0.14,0.03,0.17,0.06
	c0.09,0.1,0.11,0.31,0.11,0.45C23.69,14.81,23.52,14.85,23.39,14.89z M19.35,13.75c0,0,0.03,0,0.03,0c0.13-0.01,0.27-0.09,0.38-0.21
	c0.08-0.09,0.22-0.28,0.22-0.58v-0.06c0,0,0-0.01-0.6-5.87c-0.1-0.95-0.44-1.81-0.96-2.41c-0.48-0.55-1.05-0.83-1.69-0.83h-1.46
	c-0.64,0-1.21,0.28-1.69,0.84c-0.52,0.6-0.86,1.46-0.96,2.41c-0.6,5.85-0.6,5.86-0.6,5.87v0.05c0,0.3,0.14,0.49,0.22,0.59
	c0.11,0.12,0.25,0.2,0.38,0.21L19.35,13.75C19.34,13.75,19.35,13.75,19.35,13.75L19.35,13.75z M12.64,13.44
	c-0.04,0-0.11-0.04-0.18-0.11c-0.05-0.06-0.14-0.18-0.14-0.38l0-0.03c0.01-0.06,0.6-5.86,0.6-5.86c0.09-0.89,0.41-1.69,0.89-2.24
	c0.42-0.49,0.91-0.73,1.46-0.73h1.46c0.55,0,1.04,0.24,1.46,0.73c0.48,0.55,0.8,1.35,0.89,2.25c0,0,0.6,5.8,0.6,5.84l0,0.05
	c0,0.2-0.09,0.32-0.14,0.38c-0.07,0.08-0.14,0.11-0.18,0.11L12.64,13.44L12.64,13.44z"/>
</svg>
