<?xml version="1.0" encoding="utf-8"?>
<!-- Generator: Adobe Illustrator 21.1.0, SVG Export Plug-In . SVG Version: 6.00 Build 0)  -->
<!DOCTYPE svg PUBLIC "-//W3C//DTD SVG 1.1//EN" "http://www.w3.org/Graphics/SVG/1.1/DTD/svg11.dtd">
<svg version="1.1" id="Layer_1" xmlns="http://www.w3.org/2000/svg" xmlns:xlink="http://www.w3.org/1999/xlink" x="0px" y="0px"
	 viewBox="0 0 32 32" style="enable-background:new 0 0 32 32;" xml:space="preserve">
<path d="M9.62,14.35c-1.25-0.18-2.3-0.4-3.14-0.66c-0.08-0.03-0.17,0.02-0.19,0.1c-0.03,0.08,0.02,0.17,0.1,0.19
	c0.85,0.27,1.92,0.49,3.18,0.67c0.01,0,0.01,0,0.02,0c0.07,0,0.14-0.06,0.15-0.13C9.76,14.44,9.71,14.36,9.62,14.35L9.62,14.35z
	 M25.76,14.01c0.12-0.04,0.19-0.17,0.15-0.29c-0.04-0.12-0.17-0.19-0.29-0.15c-2.1,0.69-5.7,1.11-9.61,1.11
	c-1.27,0-2.52-0.04-3.71-0.13c-0.13-0.01-0.24,0.09-0.25,0.21c-0.01,0.13,0.09,0.24,0.21,0.25c1.2,0.09,2.46,0.13,3.75,0.13
	C19.96,15.14,23.61,14.72,25.76,14.01L25.76,14.01z M27.8,19.51v-7.03c0-1.79-5.94-2.73-11.8-2.73S4.2,10.7,4.2,12.49v7.03
	c0,1.79,5.94,2.73,11.8,2.73C21.86,22.24,27.8,21.3,27.8,19.51L27.8,19.51z M4.81,19.51v-7.03c0-0.88,4.26-2.11,11.19-2.11
	c6.93,0,11.19,1.23,11.19,2.11v7.03c0,0.88-4.26,2.11-11.19,2.11S4.81,20.4,4.81,19.51L4.81,19.51z M21.29,9.13
	c0.2,0.02,0.4,0.04,0.6,0.07c0.01,0,0.02,0,0.03,0c0.11,0,0.21-0.09,0.23-0.2c0.01-0.13-0.08-0.24-0.2-0.26
	c-0.2-0.02-0.41-0.05-0.61-0.07c-0.12-0.01-0.24,0.08-0.25,0.2C21.07,9.01,21.17,9.12,21.29,9.13L21.29,9.13z M14.48,23.1
	c-0.2,0-0.4-0.01-0.61-0.02c-0.13-0.01-0.23,0.09-0.24,0.22c-0.01,0.13,0.1,0.23,0.22,0.24c0.21,0.01,0.41,0.01,0.61,0.02
	c0,0,0,0,0.01,0c0.12,0,0.23-0.1,0.23-0.22C14.71,23.2,14.61,23.1,14.48,23.1L14.48,23.1z M17.52,23.1
	C17.51,23.1,17.51,23.1,17.52,23.1c-0.22,0-0.42,0.01-0.61,0.01c-0.13,0-0.23,0.11-0.23,0.23c0,0.13,0.1,0.23,0.23,0.23c0,0,0,0,0,0
	c0.2,0,0.4-0.01,0.61-0.01c0.13,0,0.23-0.11,0.22-0.24C17.74,23.19,17.64,23.1,17.52,23.1z M16,23.11c-0.19,0-0.39,0-0.61,0
	c-0.13,0.01-0.23,0.1-0.23,0.23c0,0.13,0.1,0.23,0.23,0.23c0.22,0,0.42,0,0.61,0c0.13,0,0.23-0.1,0.23-0.23S16.13,23.11,16,23.11
	L16,23.11z M19.02,23.04c-0.2,0.01-0.41,0.02-0.6,0.03c-0.13,0-0.23,0.11-0.22,0.24c0,0.12,0.11,0.22,0.23,0.22c0,0,0.01,0,0.01,0
	c0.2-0.01,0.4-0.02,0.61-0.03c0.13-0.01,0.22-0.11,0.22-0.24S19.15,23.03,19.02,23.04L19.02,23.04z M20.53,22.94
	c-0.2,0.02-0.4,0.03-0.6,0.05c-0.13,0.01-0.22,0.12-0.21,0.25c0.01,0.12,0.11,0.21,0.23,0.21c0.01,0,0.01,0,0.02,0
	c0.2-0.01,0.41-0.03,0.61-0.05c0.13-0.01,0.22-0.12,0.21-0.25C20.77,23.02,20.66,22.93,20.53,22.94L20.53,22.94z M11.46,22.94
	c-0.2-0.02-0.4-0.03-0.6-0.05c-0.13-0.02-0.24,0.08-0.25,0.21s0.08,0.24,0.21,0.25c0.2,0.02,0.41,0.04,0.61,0.06
	c0.01,0,0.01,0,0.02,0c0.12,0,0.22-0.09,0.23-0.21C11.68,23.06,11.59,22.95,11.46,22.94z M7,22.25c-0.2-0.05-0.39-0.1-0.58-0.16
	c-0.12-0.04-0.25,0.03-0.29,0.15s0.03,0.25,0.15,0.29c0.19,0.06,0.39,0.11,0.59,0.17c0.02,0,0.04,0.01,0.06,0.01
	c0.1,0,0.2-0.07,0.22-0.17C7.19,22.4,7.12,22.28,7,22.25z M8.47,22.56c-0.2-0.03-0.4-0.07-0.59-0.11c-0.12-0.03-0.25,0.06-0.27,0.18
	c-0.03,0.12,0.05,0.25,0.18,0.27c0.2,0.04,0.4,0.08,0.6,0.11c0.01,0,0.03,0,0.04,0c0.11,0,0.21-0.08,0.23-0.19
	C8.67,22.7,8.59,22.58,8.47,22.56z M22.04,22.78c-0.2,0.02-0.4,0.05-0.6,0.07c-0.13,0.01-0.22,0.13-0.2,0.25
	c0.01,0.12,0.11,0.21,0.23,0.21c0.01,0,0.02,0,0.02,0c0.2-0.02,0.41-0.05,0.61-0.07c0.13-0.02,0.22-0.13,0.2-0.26
	C22.28,22.86,22.17,22.77,22.04,22.78L22.04,22.78z M12.97,23.04c-0.2-0.01-0.4-0.02-0.61-0.03c-0.12-0.01-0.24,0.09-0.24,0.22
	s0.09,0.24,0.22,0.24c0.2,0.01,0.41,0.02,0.61,0.03c0,0,0.01,0,0.01,0c0.12,0,0.22-0.09,0.23-0.22
	C13.19,23.15,13.1,23.04,12.97,23.04z M9.96,22.78c-0.2-0.02-0.4-0.05-0.6-0.08c-0.13-0.02-0.24,0.07-0.26,0.19s0.07,0.24,0.19,0.26
	c0.2,0.03,0.4,0.06,0.61,0.08c0.01,0,0.02,0,0.03,0c0.11,0,0.21-0.08,0.23-0.2C10.17,22.91,10.08,22.8,9.96,22.78z M26.42,21.8
	c-0.18,0.07-0.37,0.14-0.56,0.2c-0.12,0.04-0.19,0.17-0.15,0.29c0.03,0.1,0.12,0.16,0.22,0.16c0.02,0,0.05,0,0.07-0.01
	c0.2-0.07,0.4-0.14,0.58-0.21c0.12-0.05,0.18-0.18,0.13-0.3C26.67,21.81,26.54,21.75,26.42,21.8z M28.91,16.91
	c-0.13,0-0.23,0.1-0.23,0.23v0.61c0,0.13,0.1,0.23,0.23,0.23s0.23-0.1,0.23-0.23v-0.61C29.14,17.01,29.03,16.91,28.91,16.91z
	 M28.91,15.39c-0.13,0-0.23,0.1-0.23,0.23v0.61c0,0.13,0.1,0.23,0.23,0.23s0.23-0.1,0.23-0.23v-0.61
	C29.14,15.5,29.03,15.39,28.91,15.39z M28.91,18.43c-0.13,0-0.23,0.1-0.23,0.23v0.61c0,0.13,0.1,0.23,0.23,0.23s0.23-0.1,0.23-0.23
	v-0.61C29.14,18.53,29.03,18.43,28.91,18.43z M27.09,10.51c0.18,0.09,0.35,0.19,0.5,0.29c0.04,0.03,0.08,0.04,0.13,0.04
	c0.07,0,0.15-0.04,0.19-0.1c0.07-0.11,0.04-0.25-0.06-0.32c-0.17-0.11-0.35-0.22-0.55-0.32c-0.11-0.06-0.25-0.01-0.31,0.1
	C26.94,10.31,26.98,10.45,27.09,10.51z M28.91,12.36c-0.13,0-0.23,0.1-0.23,0.23v0.61c0,0.13,0.1,0.23,0.23,0.23s0.23-0.1,0.23-0.23
	v-0.61C29.14,12.46,29.03,12.36,28.91,12.36z M27.71,21.12c-0.15,0.11-0.31,0.21-0.49,0.31c-0.11,0.06-0.15,0.2-0.09,0.31
	c0.04,0.08,0.12,0.12,0.2,0.12c0.04,0,0.08-0.01,0.11-0.03c0.2-0.11,0.38-0.22,0.54-0.34c0.1-0.07,0.13-0.22,0.05-0.32
	C27.96,21.07,27.82,21.05,27.71,21.12z M28.87,19.94c-0.12-0.04-0.25,0.02-0.3,0.14c-0.06,0.16-0.15,0.32-0.26,0.47
	c-0.08,0.1-0.06,0.25,0.05,0.32c0.04,0.03,0.09,0.05,0.14,0.05c0.07,0,0.14-0.03,0.18-0.09c0.14-0.19,0.25-0.38,0.32-0.58
	C29.05,20.12,28.99,19.99,28.87,19.94z M5.58,21.8c-0.19-0.08-0.37-0.16-0.54-0.24c-0.11-0.06-0.25-0.01-0.31,0.11
	c-0.05,0.11-0.01,0.25,0.11,0.31c0.18,0.09,0.37,0.17,0.57,0.25c0.03,0.01,0.06,0.02,0.09,0.02c0.09,0,0.18-0.06,0.21-0.15
	C5.75,21.97,5.7,21.84,5.58,21.8L5.58,21.8z M25,22.25c-0.19,0.05-0.39,0.09-0.58,0.14c-0.12,0.03-0.2,0.15-0.17,0.27
	c0.02,0.11,0.12,0.18,0.22,0.18c0.02,0,0.03,0,0.05-0.01c0.2-0.05,0.4-0.09,0.6-0.14c0.12-0.03,0.2-0.16,0.17-0.28
	S25.12,22.22,25,22.25L25,22.25z M23.53,22.56c-0.2,0.03-0.4,0.07-0.59,0.1c-0.12,0.02-0.21,0.14-0.19,0.26
	c0.02,0.11,0.11,0.19,0.23,0.19c0.01,0,0.02,0,0.03,0c0.2-0.03,0.41-0.06,0.61-0.1c0.12-0.02,0.21-0.14,0.19-0.27
	S23.66,22.54,23.53,22.56z M28.74,11.94c0.03,0,0.07-0.01,0.1-0.02c0.11-0.05,0.17-0.19,0.11-0.31c-0.09-0.19-0.21-0.38-0.36-0.56
	c-0.08-0.1-0.23-0.11-0.32-0.03c-0.1,0.08-0.11,0.23-0.03,0.32c0.12,0.14,0.22,0.3,0.29,0.45C28.56,11.89,28.65,11.94,28.74,11.94
	L28.74,11.94z M28.91,13.88c-0.13,0-0.23,0.1-0.23,0.23v0.61c0,0.13,0.1,0.23,0.23,0.23s0.23-0.1,0.23-0.23v-0.61
	C29.14,13.98,29.03,13.88,28.91,13.88z M9.18,9.32c0.01,0,0.02,0,0.03,0c0.2-0.03,0.4-0.06,0.6-0.08c0.13-0.02,0.22-0.13,0.2-0.26
	c-0.02-0.13-0.13-0.22-0.26-0.2c-0.2,0.03-0.4,0.05-0.61,0.08C9.02,8.88,8.93,9,8.95,9.13C8.97,9.24,9.07,9.32,9.18,9.32z
	 M16.76,8.89c0.19,0,0.4,0.01,0.61,0.01c0,0,0,0,0.01,0c0.12,0,0.23-0.1,0.23-0.22c0-0.13-0.1-0.23-0.22-0.23
	c-0.21-0.01-0.42-0.01-0.61-0.01c-0.14,0-0.23,0.1-0.23,0.23C16.53,8.79,16.63,8.89,16.76,8.89L16.76,8.89z M15.24,8.89
	C15.24,8.89,15.24,8.89,15.24,8.89c0.22,0,0.42,0,0.61-0.01c0.13,0,0.23-0.1,0.23-0.23c0-0.13-0.1-0.23-0.23-0.23c0,0,0,0,0,0
	c-0.19,0-0.4,0-0.61,0.01c-0.13,0-0.23,0.11-0.23,0.23C15.01,8.79,15.11,8.89,15.24,8.89L15.24,8.89z M10.69,9.14
	c0.01,0,0.02,0,0.02,0c0.2-0.02,0.4-0.04,0.6-0.06c0.13-0.01,0.22-0.12,0.21-0.25c-0.01-0.13-0.13-0.22-0.25-0.21
	c-0.2,0.02-0.41,0.04-0.61,0.06c-0.13,0.01-0.22,0.13-0.2,0.25C10.47,9.05,10.57,9.14,10.69,9.14L10.69,9.14z M12.2,9.01
	c0.01,0,0.01,0,0.02,0c0.2-0.01,0.4-0.03,0.6-0.04c0.13-0.01,0.22-0.11,0.22-0.24c-0.01-0.13-0.11-0.22-0.24-0.22
	c-0.2,0.01-0.4,0.02-0.61,0.04c-0.13,0.01-0.22,0.12-0.21,0.24C11.98,8.92,12.08,9.01,12.2,9.01z M13.72,8.93
	C13.72,8.93,13.72,8.93,13.72,8.93c0.22-0.01,0.42-0.01,0.61-0.02c0.13,0,0.23-0.11,0.22-0.24c0-0.13-0.11-0.24-0.24-0.22
	c-0.2,0.01-0.4,0.01-0.61,0.02c-0.13,0-0.23,0.11-0.22,0.24C13.49,8.83,13.6,8.93,13.72,8.93z M24.27,9.58
	c0.2,0.04,0.39,0.09,0.59,0.13c0.02,0,0.04,0.01,0.06,0.01c0.1,0,0.2-0.07,0.22-0.18c0.03-0.12-0.05-0.25-0.17-0.28
	c-0.2-0.05-0.4-0.09-0.6-0.14c-0.12-0.03-0.25,0.05-0.27,0.18C24.07,9.44,24.15,9.56,24.27,9.58L24.27,9.58z M25.72,9.96
	c0.19,0.06,0.38,0.13,0.56,0.19c0.03,0.01,0.05,0.02,0.08,0.02c0.09,0,0.18-0.06,0.22-0.15c0.05-0.12-0.02-0.25-0.13-0.3
	c-0.19-0.07-0.38-0.14-0.59-0.2c-0.12-0.04-0.25,0.03-0.29,0.15C25.53,9.79,25.6,9.92,25.72,9.96z M18.27,8.93
	c0.2,0.01,0.4,0.02,0.6,0.03c0,0,0.01,0,0.01,0c0.12,0,0.22-0.1,0.23-0.22c0.01-0.13-0.09-0.23-0.22-0.24
	c-0.21-0.01-0.41-0.02-0.61-0.03c-0.13-0.01-0.23,0.09-0.24,0.22C18.05,8.82,18.14,8.92,18.27,8.93z M22.79,9.32
	c0.2,0.03,0.4,0.06,0.59,0.1c0.01,0,0.03,0,0.04,0c0.11,0,0.21-0.08,0.23-0.19c0.02-0.12-0.06-0.24-0.19-0.27
	c-0.2-0.03-0.4-0.07-0.61-0.1c-0.13-0.02-0.24,0.07-0.26,0.19C22.58,9.18,22.66,9.3,22.79,9.32L22.79,9.32z M19.78,9.01
	c0.2,0.01,0.4,0.03,0.6,0.04c0.01,0,0.01,0,0.02,0c0.12,0,0.22-0.09,0.23-0.21c0.01-0.13-0.08-0.24-0.21-0.25
	c-0.2-0.02-0.41-0.03-0.61-0.05c-0.12-0.01-0.24,0.09-0.25,0.21C19.56,8.89,19.66,9,19.78,9.01z M3.09,15.85
	c0.13,0,0.23-0.1,0.23-0.23v-0.61c0-0.13-0.1-0.23-0.23-0.23c-0.13,0-0.23,0.1-0.23,0.23v0.61C2.86,15.75,2.97,15.85,3.09,15.85z
	 M3.09,17.37c0.13,0,0.23-0.1,0.23-0.23v-0.61c0-0.13-0.1-0.23-0.23-0.23c-0.13,0-0.23,0.1-0.23,0.23v0.61
	C2.86,17.27,2.97,17.37,3.09,17.37z M3.86,20.75c-0.09-0.09-0.23-0.09-0.32-0.01s-0.1,0.23-0.01,0.33c0.14,0.15,0.3,0.29,0.49,0.42
	c0.04,0.03,0.09,0.04,0.13,0.04c0.07,0,0.14-0.03,0.19-0.09c0.07-0.1,0.05-0.25-0.05-0.32C4.12,21,3.98,20.88,3.86,20.75L3.86,20.75
	z M3.09,18.89c0.13,0,0.23-0.1,0.23-0.23v-0.61c0-0.13-0.1-0.23-0.23-0.23c-0.13,0-0.23,0.1-0.23,0.23v0.61
	C2.86,18.78,2.97,18.89,3.09,18.89z M3.33,19.56c0-0.13-0.11-0.23-0.24-0.22c-0.13,0-0.23,0.11-0.22,0.24
	c0.01,0.23,0.05,0.45,0.13,0.66c0.03,0.09,0.12,0.15,0.22,0.15c0.03,0,0.05,0,0.08-0.01c0.12-0.04,0.18-0.18,0.14-0.3
	C3.36,19.91,3.33,19.74,3.33,19.56L3.33,19.56z M3.77,11.35c0.11-0.13,0.25-0.26,0.41-0.38c0.1-0.08,0.12-0.22,0.04-0.32
	c-0.08-0.1-0.22-0.12-0.32-0.04c-0.18,0.14-0.34,0.29-0.47,0.45c-0.08,0.1-0.07,0.24,0.03,0.32c0.04,0.04,0.1,0.06,0.15,0.06
	C3.66,11.43,3.72,11.4,3.77,11.35L3.77,11.35z M4.8,10.53c0.04,0,0.07-0.01,0.11-0.03c0.16-0.09,0.34-0.17,0.53-0.25
	c0.12-0.05,0.17-0.18,0.12-0.3c-0.05-0.12-0.18-0.17-0.3-0.12c-0.2,0.08-0.39,0.17-0.57,0.26c-0.11,0.06-0.16,0.2-0.1,0.31
	C4.64,10.49,4.72,10.53,4.8,10.53z M7.68,9.59c0.02,0,0.03,0,0.05-0.01C7.92,9.54,8.12,9.5,8.32,9.47C8.44,9.44,8.53,9.32,8.5,9.2
	C8.48,9.07,8.36,8.99,8.24,9.01c-0.2,0.04-0.41,0.08-0.6,0.12c-0.12,0.03-0.2,0.15-0.18,0.27C7.48,9.51,7.57,9.59,7.68,9.59
	L7.68,9.59z M6.21,9.97c0.02,0,0.05,0,0.07-0.01C6.47,9.9,6.66,9.84,6.85,9.79c0.12-0.03,0.2-0.16,0.16-0.28s-0.16-0.2-0.28-0.16
	c-0.2,0.05-0.4,0.11-0.59,0.17C6.02,9.56,5.95,9.69,5.99,9.81C6.02,9.91,6.11,9.97,6.21,9.97L6.21,9.97z M3.09,14.33
	c0.13,0,0.23-0.1,0.23-0.23V13.5c0-0.13-0.1-0.23-0.23-0.23c-0.13,0-0.23,0.1-0.23,0.23v0.61C2.86,14.23,2.97,14.33,3.09,14.33z
	 M3.09,12.81c0.13,0,0.23-0.1,0.23-0.23v-0.1c0-0.15,0.02-0.3,0.06-0.44c0.03-0.12-0.04-0.25-0.16-0.28
	c-0.12-0.03-0.25,0.04-0.28,0.16c-0.05,0.18-0.08,0.37-0.08,0.56v0.1C2.86,12.71,2.97,12.81,3.09,12.81z"/>
</svg>
