<?xml version="1.0" encoding="utf-8"?>
<!-- Generator: Adobe Illustrator 21.1.0, SVG Export Plug-In . SVG Version: 6.00 Build 0)  -->
<!DOCTYPE svg PUBLIC "-//W3C//DTD SVG 1.1//EN" "http://www.w3.org/Graphics/SVG/1.1/DTD/svg11.dtd">
<svg version="1.1" id="Layer_1" xmlns="http://www.w3.org/2000/svg" xmlns:xlink="http://www.w3.org/1999/xlink" x="0px" y="0px"
	 viewBox="0 0 31.68 31.68" style="enable-background:new 0 0 31.68 31.68;" xml:space="preserve">
<g>
	<path d="M23.11,22.75l-2.92-2.92c0.05-0.06,0.1-0.11,0.13-0.15l0.03-0.04c0.08-0.09,0.08-0.26,0.04-0.36
		c-0.01-0.03-0.03-0.08-0.81-0.99c0.28-0.43,0.48-0.89,0.6-1.39c0.35-0.03,1.17-0.09,1.3-0.12c0.18-0.04,0.25-0.22,0.27-0.33v-0.01
		c0-0.02,0.02-0.43,0.02-0.64c0-0.18-0.02-0.44-0.03-0.56c0-0.02,0-0.04,0-0.05c-0.01-0.11-0.12-0.24-0.23-0.28
		c-0.02-0.01-0.09-0.04-1.35-0.13c-0.12-0.47-0.31-0.92-0.57-1.33c0.76-0.88,0.78-0.94,0.79-0.97c0.04-0.1,0.04-0.27-0.04-0.36
		l-0.03-0.04c-0.05-0.06-0.13-0.15-0.21-0.24l2.95-2.95c0.66,0.52,1.61,0.48,2.22-0.13c0.65-0.65,0.65-1.71,0-2.37
		c-0.65-0.65-1.71-0.65-2.37,0c-0.59,0.59-0.65,1.52-0.16,2.17l-2.95,2.95c-0.15-0.14-0.32-0.29-0.33-0.3l-0.01-0.01
		c-0.01-0.01-0.12-0.09-0.26-0.09c-0.06,0-0.12,0.02-0.16,0.05c-0.1,0.07-0.63,0.51-0.97,0.81c-0.36-0.21-0.75-0.36-1.16-0.46
		c-0.03-0.36-0.09-1.19-0.12-1.33c-0.04-0.18-0.22-0.25-0.33-0.27h-0.01c-0.02,0-0.43-0.02-0.64-0.02c-0.18,0-0.44,0.02-0.57,0.03
		c-0.02,0-0.04,0-0.05,0c-0.11,0.01-0.24,0.12-0.28,0.23c-0.01,0.02-0.04,0.09-0.13,1.36c-0.41,0.1-0.8,0.26-1.16,0.46
		c-0.34-0.29-0.87-0.74-0.97-0.81c-0.05-0.03-0.1-0.05-0.16-0.05c-0.13,0-0.24,0.08-0.26,0.09l-0.01,0.01
		c-0.01,0.01-0.2,0.18-0.36,0.32L8.91,8.59C9.41,7.94,9.36,7,8.76,6.4c-0.65-0.65-1.71-0.65-2.37,0c-0.65,0.65-0.65,1.71,0,2.37
		c0.6,0.6,1.54,0.65,2.2,0.15l2.96,2.96c-0.07,0.08-0.14,0.16-0.19,0.21c-0.02,0.02-0.03,0.03-0.04,0.04
		c-0.08,0.09-0.08,0.26-0.04,0.36c0.01,0.02,0.03,0.08,0.79,0.97c-0.26,0.41-0.46,0.86-0.57,1.33c-1.26,0.1-1.32,0.12-1.35,0.13
		c-0.1,0.04-0.22,0.17-0.23,0.28c0,0.01,0,0.03,0,0.05c-0.01,0.12-0.03,0.38-0.03,0.56c0,0.21,0.02,0.63,0.02,0.64v0.01
		c0.02,0.1,0.09,0.29,0.27,0.33c0.13,0.03,0.95,0.09,1.3,0.12c0.12,0.5,0.32,0.96,0.6,1.39c-0.77,0.9-0.8,0.96-0.81,0.99
		c-0.04,0.11-0.04,0.27,0.04,0.36c0.01,0.01,0.02,0.02,0.04,0.04c0.04,0.04,0.09,0.1,0.15,0.17l-2.92,2.92
		c-0.66-0.5-1.6-0.45-2.2,0.15c-0.65,0.65-0.65,1.71,0,2.37c0.65,0.65,1.71,0.65,2.37,0c0.6-0.6,0.65-1.54,0.15-2.2l2.91-2.91
		c0.16,0.15,0.38,0.35,0.4,0.36l0.01,0.01c0.01,0.01,0.12,0.09,0.26,0.09c0.06,0,0.12-0.02,0.16-0.05c0.11-0.07,0.7-0.57,1.01-0.84
		c0.35,0.2,0.73,0.35,1.13,0.45c0.1,1.24,0.12,1.3,0.13,1.33c0.04,0.1,0.17,0.22,0.28,0.23c0.01,0,0.03,0,0.05,0
		c0.12,0.01,0.38,0.03,0.57,0.03c0.21,0,0.63-0.02,0.64-0.02h0.01c0.1-0.01,0.29-0.09,0.33-0.27c0.03-0.13,0.09-0.89,0.12-1.29
		c0.39-0.1,0.77-0.25,1.13-0.45c0.31,0.26,0.9,0.76,1.01,0.84c0.05,0.03,0.1,0.05,0.16,0.05c0.13,0,0.24-0.08,0.26-0.09l0.01-0.01
		c0.01-0.01,0.26-0.23,0.42-0.38l2.91,2.91c-0.52,0.66-0.48,1.61,0.13,2.22c0.65,0.65,1.71,0.65,2.37,0c0.65-0.65,0.65-1.71,0-2.37
		C24.69,22.33,23.76,22.27,23.11,22.75z M19.33,20.38c-0.02,0.01-0.07,0.04-0.12,0.04c-0.02,0-0.03,0-0.05-0.01
		c-0.09-0.06-0.62-0.5-1.04-0.87l-0.06-0.05l-0.07,0.04c-0.38,0.22-0.78,0.38-1.21,0.48l-0.08,0.02l0,0.07
		c-0.04,0.56-0.1,1.24-0.12,1.34c-0.01,0.07-0.12,0.1-0.14,0.1c-0.05,0-0.43,0.02-0.62,0.02c-0.17,0-0.43-0.02-0.55-0.03
		c-0.03,0-0.04,0-0.05,0c-0.02,0-0.08-0.05-0.1-0.09c-0.02-0.08-0.07-0.61-0.12-1.34l-0.01-0.08L14.91,20
		c-0.43-0.1-0.83-0.26-1.21-0.48l-0.07-0.04l-0.06,0.05c-0.43,0.37-0.95,0.81-1.04,0.87c-0.01,0.01-0.03,0.01-0.05,0.01
		c-0.05,0-0.1-0.03-0.12-0.04c-0.04-0.03-0.32-0.29-0.46-0.42c-0.12-0.12-0.29-0.32-0.37-0.41c-0.02-0.02-0.03-0.03-0.04-0.04
		c-0.01-0.02-0.02-0.09,0-0.14c0.04-0.07,0.36-0.45,0.82-0.99l0.05-0.06l-0.05-0.07c-0.3-0.44-0.51-0.94-0.63-1.46l-0.02-0.08
		l-0.08-0.01c-0.56-0.04-1.25-0.1-1.36-0.12c-0.07-0.02-0.1-0.12-0.1-0.14c0-0.05-0.02-0.43-0.02-0.62c0-0.17,0.02-0.43,0.03-0.55
		c0-0.03,0-0.05,0-0.05c0-0.02,0.05-0.08,0.09-0.1c0.08-0.02,0.63-0.07,1.36-0.13l0.08-0.01l0.02-0.08c0.12-0.5,0.32-0.98,0.61-1.4
		l0.05-0.07l-0.05-0.06c-0.55-0.64-0.77-0.92-0.81-0.97c-0.02-0.05-0.01-0.12,0-0.13s0.02-0.02,0.04-0.04
		c0.08-0.09,0.25-0.29,0.37-0.41c0.14-0.14,0.42-0.39,0.46-0.42c0.02-0.01,0.08-0.04,0.12-0.04c0.02,0,0.03,0,0.05,0.01
		c0.07,0.05,0.46,0.37,1.01,0.84l0.06,0.05l0.07-0.04c0.38-0.23,0.8-0.4,1.24-0.5l0.08-0.02l0.01-0.08c0.06-0.75,0.11-1.3,0.13-1.38
		c0.02-0.05,0.08-0.09,0.1-0.09c0.01,0,0.03,0,0.06,0c0.12-0.01,0.38-0.03,0.55-0.03c0.19,0,0.57,0.02,0.62,0.02
		c0.02,0,0.13,0.03,0.14,0.1c0.02,0.1,0.08,0.76,0.12,1.38l0.01,0.08l0.08,0.02c0.44,0.1,0.86,0.27,1.24,0.5l0.07,0.04l0.06-0.05
		c0.55-0.47,0.94-0.79,1.01-0.84c0.01-0.01,0.03-0.01,0.05-0.01c0.05,0,0.1,0.03,0.12,0.04c0.04,0.03,0.32,0.29,0.46,0.42
		c0.12,0.12,0.3,0.32,0.37,0.41l0.03,0.04c0.01,0.02,0.02,0.09,0,0.14c-0.03,0.05-0.26,0.33-0.81,0.97l-0.05,0.06l0.05,0.07
		c0.29,0.43,0.49,0.9,0.61,1.4L20,14.98l0.08,0.01c0.73,0.06,1.28,0.11,1.36,0.13c0.05,0.02,0.09,0.08,0.09,0.1
		c0,0.01,0,0.03,0,0.06c0.01,0.12,0.03,0.38,0.03,0.55c0,0.19-0.02,0.57-0.02,0.62c0,0.02-0.03,0.13-0.1,0.14
		c-0.1,0.02-0.79,0.08-1.36,0.12L20,16.72l-0.02,0.08c-0.12,0.53-0.33,1.02-0.63,1.46l-0.05,0.07l0.05,0.06
		c0.46,0.54,0.78,0.93,0.82,0.99c0.02,0.05,0.01,0.12,0,0.13l-0.04,0.04c-0.07,0.09-0.25,0.29-0.37,0.41
		C19.65,20.09,19.37,20.34,19.33,20.38z"/>
	<path d="M15.84,14.48c-0.75,0-1.36,0.61-1.36,1.36c0,0.75,0.61,1.36,1.36,1.36s1.36-0.61,1.36-1.36S16.59,14.48,15.84,14.48z
		 M15.84,17.04c-0.66,0-1.2-0.54-1.2-1.2s0.54-1.2,1.2-1.2s1.2,0.54,1.2,1.2C17.04,16.5,16.5,17.04,15.84,17.04z"/>
</g>
</svg>
