<?xml version="1.0" encoding="utf-8"?>
<!-- Generator: Adobe Illustrator 21.1.0, SVG Export Plug-In . SVG Version: 6.00 Build 0)  -->
<!DOCTYPE svg PUBLIC "-//W3C//DTD SVG 1.1//EN" "http://www.w3.org/Graphics/SVG/1.1/DTD/svg11.dtd">
<svg version="1.1" id="Layer_1" xmlns="http://www.w3.org/2000/svg" xmlns:xlink="http://www.w3.org/1999/xlink" x="0px" y="0px"
	 viewBox="0 0 32 32" style="enable-background:new 0 0 32 32;" xml:space="preserve">
<path d="M23.19,4.09H8.81C8,4.09,7.34,4.75,7.34,5.56v20.88c0,0.81,0.66,1.47,1.47,1.47h14.38c0.81,0,1.47-0.66,1.47-1.47V5.56
	C24.66,4.75,24,4.09,23.19,4.09L23.19,4.09z M24.05,26.44c0,0.47-0.39,0.86-0.86,0.86H8.81c-0.47,0-0.86-0.39-0.86-0.86V5.56
	c0-0.47,0.39-0.86,0.86-0.86h14.38c0.47,0,0.86,0.39,0.86,0.86V26.44z M22.27,6.83H20V5.78c0-0.31-0.25-0.57-0.57-0.57h-6.86
	C12.25,5.21,12,5.46,12,5.78v1.05H9.73c-0.49,0-0.89,0.37-0.89,0.83v17.83c0,0.46,0.4,0.83,0.89,0.83h12.53
	c0.49,0,0.89-0.37,0.89-0.83V7.66C23.15,7.2,22.75,6.83,22.27,6.83z M12.46,6.83V5.78c0-0.06,0.05-0.11,0.11-0.11h6.86
	c0.06,0,0.11,0.05,0.11,0.11V7.5c0,0.06-0.05,0.11-0.11,0.11h-6.86c-0.06,0-0.11-0.05-0.11-0.11V7.29V6.83L12.46,6.83z M22.69,25.49
	c0,0.2-0.19,0.37-0.43,0.37H9.73c-0.24,0-0.43-0.17-0.43-0.37V7.66c0-0.2,0.19-0.37,0.43-0.37H12V7.5c0,0.31,0.26,0.57,0.57,0.57
	h6.86C19.74,8.07,20,7.81,20,7.5V7.29h2.27c0.24,0,0.43,0.16,0.43,0.37V25.49z M21.94,11.17c0,0.13-0.1,0.23-0.23,0.23h-6.29
	c-0.13,0-0.23-0.1-0.23-0.23c0-0.13,0.1-0.23,0.23-0.23h6.29C21.84,10.94,21.94,11.04,21.94,11.17z M21.94,12.71
	c0,0.13-0.1,0.23-0.23,0.23h-6.29c-0.13,0-0.23-0.1-0.23-0.23c0-0.13,0.1-0.23,0.23-0.23h6.29C21.84,12.48,21.94,12.58,21.94,12.71z
	 M21.94,16.32c0,0.13-0.1,0.23-0.23,0.23h-6.29c-0.13,0-0.23-0.1-0.23-0.23s0.1-0.23,0.23-0.23h6.29
	C21.84,16.09,21.94,16.19,21.94,16.32z M21.94,17.86c0,0.13-0.1,0.23-0.23,0.23h-6.29c-0.13,0-0.23-0.1-0.23-0.23
	s0.1-0.23,0.23-0.23h6.29C21.84,17.63,21.94,17.74,21.94,17.86z M21.94,21.58c0,0.13-0.1,0.23-0.23,0.23h-6.29
	c-0.13,0-0.23-0.1-0.23-0.23s0.1-0.23,0.23-0.23h6.29C21.84,21.35,21.94,21.45,21.94,21.58z M21.94,23.12c0,0.13-0.1,0.23-0.23,0.23
	h-6.29c-0.13,0-0.23-0.1-0.23-0.23s0.1-0.23,0.23-0.23h6.29C21.84,22.89,21.94,22.99,21.94,23.12z M10.53,13.55h3.09
	c0.13,0,0.23-0.1,0.23-0.23v-3.08c0-0.02-0.01-0.03-0.01-0.04l0.42-0.71c0.09-0.15,0.04-0.33-0.11-0.42
	c-0.15-0.09-0.33-0.04-0.42,0.11l-0.5,0.84h-2.7c-0.13,0-0.23,0.1-0.23,0.23v3.09C10.3,13.45,10.4,13.55,10.53,13.55L10.53,13.55z
	 M10.76,10.47h2.2l-0.87,1.47L11.8,11.4c-0.08-0.15-0.27-0.21-0.42-0.13s-0.21,0.26-0.13,0.41l0.54,1.01c0,0.01,0.01,0.01,0.02,0.02
	c0.01,0.01,0.01,0.02,0.02,0.03c0.02,0.03,0.05,0.05,0.07,0.07c0,0,0,0,0,0h0c0.01,0.01,0.02,0.01,0.03,0.01
	c0.04,0.02,0.08,0.03,0.12,0.03h0c0.02,0,0.05,0,0.07-0.01c0.01,0,0.02-0.01,0.03-0.01c0.01,0,0.03-0.01,0.04-0.02c0,0,0,0,0,0
	c0.03-0.02,0.06-0.04,0.08-0.07c0.01-0.01,0.01-0.01,0.02-0.02c0.01-0.01,0.01-0.01,0.02-0.02l1.05-1.76v2.14h-2.63L10.76,10.47
	L10.76,10.47z M13.62,20.59h-3.09c-0.13,0-0.23,0.1-0.23,0.23v3.08c0,0.13,0.1,0.23,0.23,0.23h3.09c0.13,0,0.23-0.1,0.23-0.23v-3.08
	C13.85,20.69,13.74,20.59,13.62,20.59z M12.51,22.36l0.88-0.88v1.76L12.51,22.36z M12.95,21.05l-0.88,0.88l-0.88-0.88
	C11.19,21.05,12.95,21.05,12.95,21.05z M10.76,21.48l0.88,0.88l-0.88,0.88V21.48L10.76,21.48z M11.19,23.68l0.88-0.88l0.88,0.88
	C12.95,23.68,11.19,23.68,11.19,23.68z M14.15,14.21c-0.15-0.08-0.33-0.03-0.42,0.11l-0.56,0.99h-2.63c-0.13,0-0.23,0.1-0.23,0.23
	v3.08c0,0.13,0.1,0.23,0.23,0.23h3.09c0.13,0,0.23-0.1,0.23-0.23v-3.09c0-0.05-0.02-0.08-0.04-0.12l0.45-0.8
	C14.35,14.49,14.29,14.3,14.15,14.21L14.15,14.21z M13.39,18.4h-2.62v-2.62h2.14l-0.81,1.42l-0.29-0.58
	c-0.07-0.15-0.26-0.21-0.41-0.14c-0.15,0.07-0.21,0.26-0.14,0.41l0.54,1.1c0.01,0.01,0.01,0.02,0.02,0.03
	c0.01,0.01,0.01,0.02,0.02,0.02c0.02,0.03,0.05,0.05,0.08,0.07c0,0,0,0,0,0c0.01,0.01,0.03,0.01,0.05,0.02
	c0.01,0,0.01,0.01,0.02,0.01c0.03,0.01,0.05,0.01,0.08,0.01h0l0,0c0.04,0,0.08-0.01,0.12-0.03c0,0,0.01,0,0.01,0c0,0,0,0,0.01,0
	c0.03-0.02,0.06-0.04,0.08-0.06c0.01-0.01,0.01-0.01,0.02-0.02c0.01-0.01,0.02-0.02,0.03-0.03l1.05-1.84L13.39,18.4L13.39,18.4z"/>
</svg>
