<?xml version="1.0" encoding="utf-8"?>
<!-- Generator: Adobe Illustrator 21.1.0, SVG Export Plug-In . SVG Version: 6.00 Build 0)  -->
<!DOCTYPE svg PUBLIC "-//W3C//DTD SVG 1.1//EN" "http://www.w3.org/Graphics/SVG/1.1/DTD/svg11.dtd">
<svg version="1.1" id="Layer_1" xmlns="http://www.w3.org/2000/svg" xmlns:xlink="http://www.w3.org/1999/xlink" x="0px" y="0px"
	 viewBox="0 0 32 32" style="enable-background:new 0 0 32 32;" xml:space="preserve">
<path d="M21.29,4.62H10.71c-0.66,0-1.19,0.53-1.19,1.19v20.38c0,0.66,0.53,1.19,1.19,1.19h10.57c0.66,0,1.19-0.53,1.19-1.19V5.81
	C22.48,5.15,21.94,4.62,21.29,4.62z M21.86,26.19c0,0.32-0.26,0.58-0.58,0.58H10.71c-0.32,0-0.58-0.26-0.58-0.58v-2.6h11.72
	L21.86,26.19L21.86,26.19z M21.86,23.28H10.14V8.72h3.32V9c0,0.57,0.47,1.04,1.03,1.04h3.96l1.11,1.11
	c0.03,0.03,0.07,0.05,0.11,0.05c0.02,0,0.04,0,0.06-0.01c0.06-0.02,0.1-0.08,0.1-0.14v-1h0.41c0.57,0,1.04-0.47,1.04-1.04V8.72h0.58
	L21.86,23.28L21.86,23.28z M13.77,9V8.72h7.2V9c0,0.4-0.33,0.73-0.73,0.73h-0.56c-0.08,0-0.15,0.07-0.15,0.15v0.79l-0.89-0.89
	c-0.03-0.03-0.07-0.05-0.11-0.05H14.5C14.1,9.73,13.77,9.4,13.77,9z M21.86,8.41H10.14v-2.6c0-0.32,0.26-0.58,0.58-0.58h10.57
	c0.32,0,0.58,0.26,0.58,0.58L21.86,8.41L21.86,8.41z M17.04,6.59h-2.08c-0.13,0-0.23,0.1-0.23,0.23s0.1,0.23,0.23,0.23h2.08
	c0.13,0,0.23-0.1,0.23-0.23S17.17,6.59,17.04,6.59z M13.71,6.6c-0.06,0.06-0.09,0.13-0.09,0.21c0,0.08,0.03,0.16,0.09,0.22
	c0.06,0.06,0.14,0.09,0.21,0.09c0.08,0,0.16-0.03,0.22-0.09c0.06-0.05,0.09-0.13,0.09-0.22c0-0.08-0.03-0.16-0.09-0.21
	C14.03,6.49,13.83,6.49,13.71,6.6z M11.76,16.51h0.41v1c0,0.06,0.04,0.12,0.1,0.14c0.02,0.01,0.04,0.01,0.06,0.01
	c0.04,0,0.08-0.02,0.11-0.05l1.11-1.11h3.96c0.57,0,1.04-0.47,1.04-1.04v-3.27c0-0.57-0.47-1.04-1.04-1.04h-5.74
	c-0.57,0-1.04,0.47-1.04,1.04v3.27C10.72,16.05,11.19,16.51,11.76,16.51z M11.03,12.21c0-0.4,0.33-0.73,0.73-0.73h5.74
	c0.4,0,0.73,0.33,0.73,0.73v3.27c0,0.4-0.33,0.73-0.73,0.73h-4.02c-0.04,0-0.08,0.02-0.11,0.05l-0.89,0.9v-0.79
	c0-0.08-0.07-0.15-0.15-0.15h-0.56c-0.4,0-0.73-0.33-0.73-0.73V12.21L11.03,12.21z M14.63,15.64c0.99,0,1.8-0.81,1.8-1.8
	c0-0.99-0.81-1.8-1.8-1.8s-1.8,0.81-1.8,1.8C12.83,14.83,13.64,15.64,14.63,15.64z M14.63,12.51c0.74,0,1.34,0.6,1.34,1.34
	c0,0.74-0.6,1.34-1.34,1.34c-0.74,0-1.34-0.6-1.34-1.34C13.29,13.11,13.89,12.51,14.63,12.51z M14.18,14.7
	c0.03,0.02,0.07,0.03,0.1,0.03c0.05,0,0.09-0.01,0.13-0.04l0.92-0.66c0.06-0.04,0.1-0.11,0.1-0.19c0-0.07-0.04-0.14-0.1-0.19
	L14.42,13c-0.07-0.05-0.16-0.06-0.24-0.02c-0.08,0.04-0.12,0.12-0.12,0.2v1.31C14.06,14.59,14.1,14.66,14.18,14.7L14.18,14.7z
	 M11.62,18.53h-0.38c-0.13,0-0.23,0.1-0.23,0.23s0.1,0.23,0.23,0.23h0.38c0.13,0,0.23-0.1,0.23-0.23S11.74,18.53,11.62,18.53z
	 M15.4,18.99c0.13,0,0.23-0.1,0.23-0.23s-0.1-0.23-0.23-0.23h-0.7c-0.13,0-0.23,0.1-0.23,0.23s0.1,0.23,0.23,0.23H15.4z M17.3,18.99
	c0.13,0,0.23-0.1,0.23-0.23s-0.1-0.23-0.23-0.23h-0.7c-0.13,0-0.23,0.1-0.23,0.23s0.1,0.23,0.23,0.23H17.3z M18.26,18.76
	c0,0.13,0.1,0.23,0.23,0.23h0.7c0.13,0,0.23-0.1,0.23-0.23s-0.1-0.23-0.23-0.23h-0.7C18.36,18.53,18.26,18.63,18.26,18.76z
	 M13.51,18.99c0.13,0,0.23-0.1,0.23-0.23s-0.1-0.23-0.23-0.23h-0.7c-0.13,0-0.23,0.1-0.23,0.23s0.1,0.23,0.23,0.23H13.51z
	 M20.77,18.53h-0.38c-0.13,0-0.23,0.1-0.23,0.23s0.1,0.23,0.23,0.23h0.38c0.13,0,0.23-0.1,0.23-0.23S20.9,18.53,20.77,18.53z
	 M12.16,19.69c-0.13,0-0.23,0.1-0.23,0.23s0.1,0.23,0.23,0.23h0.38c0.13,0,0.23-0.1,0.23-0.23s-0.1-0.23-0.23-0.23H12.16z
	 M18.26,20.15c0.13,0,0.23-0.1,0.23-0.23s-0.1-0.23-0.23-0.23h-0.71c-0.13,0-0.23,0.1-0.23,0.23s0.1,0.23,0.23,0.23H18.26z
	 M16.35,20.15c0.13,0,0.23-0.1,0.23-0.23s-0.1-0.23-0.23-0.23h-0.71c-0.13,0-0.23,0.1-0.23,0.23s0.1,0.23,0.23,0.23H16.35z
	 M13.74,20.15h0.71c0.13,0,0.23-0.1,0.23-0.23s-0.1-0.23-0.23-0.23h-0.71c-0.13,0-0.23,0.1-0.23,0.23S13.61,20.15,13.74,20.15z
	 M19.85,19.69h-0.38c-0.13,0-0.23,0.1-0.23,0.23s0.1,0.23,0.23,0.23h0.38c0.13,0,0.23-0.1,0.23-0.23S19.97,19.69,19.85,19.69z
	 M12.54,22h-0.38c-0.13,0-0.23,0.1-0.23,0.23s0.1,0.23,0.23,0.23h0.38c0.13,0,0.23-0.1,0.23-0.23S12.67,22,12.54,22z M18.26,22
	h-4.52c-0.13,0-0.23,0.1-0.23,0.23s0.1,0.23,0.23,0.23h4.52c0.13,0,0.23-0.1,0.23-0.23S18.39,22,18.26,22z M19.85,22h-0.38
	c-0.13,0-0.23,0.1-0.23,0.23s0.1,0.23,0.23,0.23h0.38c0.13,0,0.23-0.1,0.23-0.23S19.97,22,19.85,22z M11.62,20.84h-0.38
	c-0.13,0-0.23,0.1-0.23,0.23s0.1,0.23,0.23,0.23h0.38c0.13,0,0.23-0.1,0.23-0.23S11.74,20.84,11.62,20.84z M13.74,21.07
	c0-0.13-0.1-0.23-0.23-0.23h-0.7c-0.13,0-0.23,0.1-0.23,0.23s0.1,0.23,0.23,0.23h0.7C13.64,21.3,13.74,21.2,13.74,21.07z
	 M19.42,21.07c0-0.13-0.1-0.23-0.23-0.23h-0.7c-0.13,0-0.23,0.1-0.23,0.23s0.1,0.23,0.23,0.23h0.7
	C19.32,21.3,19.42,21.2,19.42,21.07z M14.7,21.3h0.7c0.13,0,0.23-0.1,0.23-0.23s-0.1-0.23-0.23-0.23h-0.7
	c-0.13,0-0.23,0.1-0.23,0.23S14.58,21.3,14.7,21.3z M16.6,21.3h0.7c0.13,0,0.23-0.1,0.23-0.23s-0.1-0.23-0.23-0.23h-0.7
	c-0.13,0-0.23,0.1-0.23,0.23S16.47,21.3,16.6,21.3z M20.77,20.84h-0.38c-0.13,0-0.23,0.1-0.23,0.23s0.1,0.23,0.23,0.23h0.38
	c0.13,0,0.23-0.1,0.23-0.23S20.9,20.84,20.77,20.84z M15.4,26.24h1.19c0.44,0,0.81-0.36,0.81-0.81v-0.58c0-0.44-0.36-0.81-0.81-0.81
	H15.4c-0.44,0-0.81,0.36-0.81,0.81v0.58C14.6,25.88,14.96,26.24,15.4,26.24z M15.06,24.85c0-0.19,0.15-0.35,0.35-0.35h1.19
	c0.19,0,0.35,0.16,0.35,0.35v0.58c0,0.19-0.15,0.35-0.35,0.35h-1.19c-0.19,0-0.35-0.16-0.35-0.35
	C15.06,25.43,15.06,24.85,15.06,24.85z"/>
</svg>
