<?xml version="1.0" encoding="utf-8"?>
<!-- Generator: Adobe Illustrator 21.1.0, SVG Export Plug-In . SVG Version: 6.00 Build 0)  -->
<!DOCTYPE svg PUBLIC "-//W3C//DTD SVG 1.1//EN" "http://www.w3.org/Graphics/SVG/1.1/DTD/svg11.dtd">
<svg version="1.1" id="Layer_1" xmlns="http://www.w3.org/2000/svg" xmlns:xlink="http://www.w3.org/1999/xlink" x="0px" y="0px"
	 viewBox="0 0 31.68 31.68" style="enable-background:new 0 0 31.68 31.68;" xml:space="preserve">
<g>
	<path d="M19.74,12.77h-9.66c-0.13,0-0.23-0.1-0.23-0.23c0-0.13,0.1-0.23,0.23-0.23h9.66c0.13,0,0.23,0.1,0.23,0.23
		C19.97,12.67,19.86,12.77,19.74,12.77"/>
	<path d="M17.77,15.15h-7.69c-0.13,0-0.23-0.1-0.23-0.23c0-0.13,0.1-0.23,0.23-0.23h7.69c0.13,0,0.23,0.1,0.23,0.23
		S17.9,15.15,17.77,15.15"/>
	<path d="M23.66,10.72l-5.98,10.07c-0.12,0.2-0.3,0.21-0.45,0.04l-2.82-3.43c-0.18-0.22-0.45-0.34-0.73-0.34
		c-0.25,0-0.49,0.1-0.68,0.28l-0.54,0.54c-0.38,0.38-0.42,1.04-0.09,1.47l3.95,5.1c0.3,0.39,0.91,0.7,1.37,0.7
		c0.48,0,1.05-0.35,1.3-0.79l6.66-11.76l0.3-0.53c0.28-0.48,0.11-1.11-0.37-1.39l-0.53-0.31c-0.16-0.09-0.33-0.14-0.52-0.14
		C24.18,10.23,23.85,10.42,23.66,10.72 M24.79,10.82l0.53,0.31c0.23,0.14,0.32,0.45,0.18,0.68L18.55,24.1
		c-0.16,0.28-0.55,0.52-0.85,0.52c-0.3,0-0.75-0.23-0.96-0.5l-3.95-5.1c-0.17-0.22-0.15-0.58,0.05-0.78l0.54-0.54
		c0.08-0.08,0.19-0.13,0.31-0.13c0.13,0,0.24,0.06,0.33,0.16l2.82,3.43c0.17,0.2,0.39,0.31,0.62,0.31c0.27,0,0.52-0.15,0.68-0.42
		l5.98-10.07C24.25,10.77,24.57,10.68,24.79,10.82"/>
	<path d="M15.33,17.11l0.34,0.42h2.6c0.13,0,0.23-0.1,0.23-0.23s-0.1-0.23-0.23-0.23h-2.98C15.3,17.08,15.32,17.1,15.33,17.11z"/>
	<path d="M12.07,17.07h-1.99c-0.13,0-0.23,0.1-0.23,0.23s0.1,0.23,0.23,0.23h1.53L12.07,17.07z"/>
	<path d="M11.45,19.62c-0.04-0.06-0.08-0.11-0.11-0.18h-1.25c-0.13,0-0.23,0.1-0.23,0.23c0,0.13,0.1,0.23,0.23,0.23h1.59
		L11.45,19.62z"/>
	<path d="M13.15,21.82h-3.07c-0.13,0-0.23,0.1-0.23,0.23s0.1,0.23,0.23,0.23h3.43L13.15,21.82z"/>
	<path d="M22.14,18.82v7.09H7.85V6.09H18.5v3.48c0,0.02,0.01,0.04,0.01,0.07C18.51,9.66,18.5,9.68,18.5,9.7
		c0,0.17,0.14,0.31,0.31,0.31h3.33v3.28l0.61-0.97V9.54c0-0.08-0.03-0.16-0.09-0.21l-3.63-3.75c-0.06-0.06-0.14-0.09-0.22-0.09H7.55
		c-0.17,0-0.31,0.14-0.31,0.31v20.43c0,0.17,0.14,0.31,0.31,0.31h14.9c0.17,0,0.31-0.14,0.31-0.31v-8.49L22.14,18.82z M19.12,6.54
		l2.77,2.85h-2.77V6.54z"/>
</g>
</svg>
