<?xml version="1.0" encoding="utf-8"?>
<!-- Generator: Adobe Illustrator 21.1.0, SVG Export Plug-In . SVG Version: 6.00 Build 0)  -->
<!DOCTYPE svg PUBLIC "-//W3C//DTD SVG 1.1//EN" "http://www.w3.org/Graphics/SVG/1.1/DTD/svg11.dtd">
<svg version="1.1" id="Layer_1" xmlns="http://www.w3.org/2000/svg" xmlns:xlink="http://www.w3.org/1999/xlink" x="0px" y="0px"
	 viewBox="0 0 32 32" style="enable-background:new 0 0 32 32;" xml:space="preserve">
<path d="M22.12,14.77c-0.13,0-0.23,0.1-0.23,0.23v3.74c0,0.13,0.1,0.23,0.23,0.23s0.23-0.1,0.23-0.23V15
	C22.35,14.87,22.25,14.77,22.12,14.77L22.12,14.77z M23.14,14.77c-0.13,0-0.23,0.1-0.23,0.23v3.74c0,0.13,0.1,0.23,0.23,0.23
	s0.23-0.1,0.23-0.23V15C23.37,14.87,23.27,14.77,23.14,14.77L23.14,14.77z M16,5.99C10.48,5.99,5.99,10.48,5.99,16
	S10.48,26.01,16,26.01S26.01,21.52,26.01,16S21.52,5.99,16,5.99z M16,25.25c-5.1,0-9.25-4.15-9.25-9.25c0-2.44,0.95-4.66,2.5-6.31
	l5.09,5.08H8.31c-0.13,0-0.23,0.1-0.23,0.23s0.1,0.23,0.23,0.23h6.49l3.29,3.28H8.65c-0.13,0-0.23,0.1-0.23,0.23s0.1,0.23,0.23,0.23
	h9.9l3.77,3.77C20.67,24.29,18.44,25.25,16,25.25L16,25.25z M15.88,15.23h4.95v3.28h-1.66C19.17,18.51,15.88,15.23,15.88,15.23z
	 M22.86,22.19l-3.23-3.22h1.43c0.13,0,0.23-0.1,0.23-0.23V15c0-0.13-0.1-0.23-0.23-0.23h-5.64L9.8,9.15c1.64-1.49,3.82-2.4,6.2-2.4
	c5.1,0,9.25,4.15,9.25,9.25C25.25,18.38,24.34,20.55,22.86,22.19L22.86,22.19z M23.08,14.16c0.13,0,0.23-0.1,0.23-0.23
	c0-0.27-0.08-0.49-0.25-0.65c-0.25-0.25-0.6-0.26-0.64-0.26h-4.68c0,0-0.2-0.01-0.32-0.13c-0.08-0.07-0.11-0.18-0.11-0.33
	c0-0.41,0.33-0.45,0.43-0.45h2.33c0.36,0,0.89-0.24,0.89-0.91s-0.53-0.91-0.89-0.91h-4.4c0,0-0.2-0.01-0.32-0.13
	c-0.08-0.07-0.11-0.18-0.11-0.33c0-0.13-0.1-0.23-0.23-0.23c-0.13,0-0.23,0.1-0.23,0.23c0,0.27,0.08,0.49,0.25,0.65
	c0.25,0.25,0.6,0.26,0.64,0.26h4.4c0.1,0,0.43,0.04,0.43,0.45s-0.33,0.45-0.43,0.45h-2.33c-0.36,0-0.89,0.24-0.89,0.91
	c0,0.27,0.08,0.49,0.25,0.65c0.25,0.25,0.6,0.26,0.64,0.26h4.68c0.1,0,0.43,0.04,0.43,0.45C22.85,14.06,22.95,14.16,23.08,14.16
	L23.08,14.16z"/>
</svg>
