<?xml version="1.0" encoding="utf-8"?>
<!-- Generator: Adobe Illustrator 21.1.0, SVG Export Plug-In . SVG Version: 6.00 Build 0)  -->
<!DOCTYPE svg PUBLIC "-//W3C//DTD SVG 1.1//EN" "http://www.w3.org/Graphics/SVG/1.1/DTD/svg11.dtd">
<svg version="1.1" id="Layer_1" xmlns="http://www.w3.org/2000/svg" xmlns:xlink="http://www.w3.org/1999/xlink" x="0px" y="0px"
	 viewBox="0 0 31.68 31.68" style="enable-background:new 0 0 31.68 31.68;" xml:space="preserve">
<path d="M23.62,6.89c0-0.3-0.18-0.58-0.45-0.7l-2.26-1.02h-9.77L8.54,6.2C8.25,6.31,8.06,6.59,8.06,6.9v14.82V22v3.72
	c0,0.44,0.34,0.79,0.77,0.79h14.02c0.42,0,0.77-0.35,0.77-0.79V22v-0.28V6.89L23.62,6.89z M11.23,5.69h9.56l2.08,0.94H8.85
	L11.23,5.69z M23.09,25.72c0,0.15-0.11,0.27-0.24,0.27H8.83c-0.13,0-0.24-0.12-0.24-0.27V22c0-0.15,0.11-0.27,0.24-0.27h14.02
	c0.13,0,0.24,0.12,0.24,0.27V25.72z M23.09,21.25c-0.08-0.03-0.16-0.04-0.24-0.04H8.83c-0.09,0-0.17,0.02-0.24,0.04V7.16H23.1
	L23.09,21.25L23.09,21.25z"/>
</svg>
