<?xml version="1.0" encoding="utf-8"?>
<!-- Generator: Adobe Illustrator 21.1.0, SVG Export Plug-In . SVG Version: 6.00 Build 0)  -->
<!DOCTYPE svg PUBLIC "-//W3C//DTD SVG 1.1//EN" "http://www.w3.org/Graphics/SVG/1.1/DTD/svg11.dtd">
<svg version="1.1" id="Layer_1" xmlns="http://www.w3.org/2000/svg" xmlns:xlink="http://www.w3.org/1999/xlink" x="0px" y="0px"
	 viewBox="0 0 32 32" style="enable-background:new 0 0 32 32;" xml:space="preserve">
<path d="M16,10.74c2.35,0,4.26-1.91,4.26-4.26S18.35,2.23,16,2.23s-4.25,1.91-4.25,4.25C11.75,8.83,13.65,10.74,16,10.74z M16,2.85
	c2.01,0,3.64,1.63,3.64,3.64c0,2.01-1.63,3.64-3.64,3.64s-3.64-1.63-3.64-3.64S13.99,2.85,16,2.85z M18.33,11.57h-4.67
	c-4.34,0-6.73,2.39-6.73,6.73v3.75c0,2.12,1.41,3.16,2.91,4.26l0.2,0.15v1.71c0,0.07,0.03,0.15,0.08,0.2
	c0.29,0.33,1.58,1.41,5.88,1.41c4.3,0,5.59-1.08,5.88-1.41c0.05-0.06,0.08-0.13,0.08-0.2v-1.71l0.2-0.15
	c1.5-1.1,2.91-2.14,2.91-4.26v-3.75C25.06,13.95,22.67,11.57,18.33,11.57L18.33,11.57z M15.86,13.91l0.24,0.01c0,0,0,0,0.01,0
	c0.01,0,0.02,0,0.03,0l0.12-0.01l0.86,12.75l-1.06,0.92l-1.06-0.92L15.86,13.91L15.86,13.91z M16.27,13.29L16.1,13.3l-0.21-0.01
	c-0.22-0.29-0.41-0.77-0.54-1.12h1.42C16.63,12.54,16.41,13,16.27,13.29L16.27,13.29z M24.45,22.04c0,1.81-1.23,2.72-2.66,3.77V18
	c0-0.15-0.12-0.27-0.27-0.27c-0.15,0-0.27,0.12-0.27,0.27v10.1c-0.44,0.35-1.77,1.06-5.26,1.06c-3.62,0-4.91-0.76-5.3-1.09
	c0.01-0.02,0.01-0.05,0.01-0.08V18c0-0.15-0.12-0.27-0.27-0.27c-0.15,0-0.27,0.12-0.27,0.27v7.79c-1.41-1.04-2.63-1.94-2.63-3.75
	v-3.75c0-2.79,1.06-6.11,6.11-6.11h1.03c0.09,0.29,0.31,0.89,0.59,1.34c-0.01,0.02-0.02,0.05-0.02,0.07l-0.91,13.18
	c-0.01,0.1,0.03,0.19,0.1,0.25l1.38,1.2c0.06,0.05,0.13,0.08,0.2,0.08s0.14-0.02,0.2-0.08l1.38-1.2c0.07-0.06,0.11-0.16,0.1-0.25
	l-0.89-13.25c0.15-0.31,0.43-0.91,0.57-1.34h0.92c5.05,0,6.11,3.32,6.11,6.11L24.45,22.04L24.45,22.04z"/>
</svg>
