<?xml version="1.0" encoding="utf-8"?>
<!-- Generator: Adobe Illustrator 21.1.0, SVG Export Plug-In . SVG Version: 6.00 Build 0)  -->
<!DOCTYPE svg PUBLIC "-//W3C//DTD SVG 1.1//EN" "http://www.w3.org/Graphics/SVG/1.1/DTD/svg11.dtd">
<svg version="1.1" id="Layer_1" xmlns="http://www.w3.org/2000/svg" xmlns:xlink="http://www.w3.org/1999/xlink" x="0px" y="0px"
	 viewBox="0 0 32 32" style="enable-background:new 0 0 32 32;" xml:space="preserve">
<path d="M23.53,8.94h-0.04l-6.36-3.51c0,0-0.01,0-0.01,0L17.06,5.4c-0.03-0.02-0.07-0.02-0.11-0.02h0c-0.01,0-0.01,0-0.02,0.01
	c-0.03,0.01-0.06,0.03-0.08,0.07v0l0,0c0,0,0,0.01,0,0.01c0,0,0,0,0,0c-0.01,0.02-0.02,0.05-0.02,0.07l-0.03,0.9
	c-0.01,0.1,0.01,0.27,0.13,0.38c-0.02-0.02-0.03-0.05-0.03-0.08c0,0.03,0.01,0.06,0.03,0.08c0.01,0.02,0.03,0.03,0.05,0.04
	l3.67,2.09h-9.29l3.67-2.09c0.02-0.01,0.03-0.03,0.05-0.04c0.13-0.11,0.15-0.28,0.14-0.36l-0.03-0.92c0-0.03-0.01-0.05-0.02-0.07v0
	c-0.02-0.03-0.05-0.06-0.08-0.07c-0.01,0-0.01,0-0.02-0.01h0c-0.03-0.01-0.07,0-0.11,0.02l-0.06,0.03c0,0-0.01,0-0.01,0l-6.36,3.5
	H8.47c-0.17,0-0.31,0.14-0.31,0.31v15.07c0,0.17,0.14,0.31,0.31,0.31h15.07c0.17,0,0.31-0.14,0.31-0.31V9.25
	C23.84,9.08,23.7,8.94,23.53,8.94L23.53,8.94z M22.85,8.94H22.5l0.01-0.17c0-0.01,0-0.01,0-0.02L22.85,8.94z M22.15,8.63
	c0.06,0.03,0.07,0.07,0.06,0.1l-0.02,0.21h-0.54l0.43-0.32C22.09,8.62,22.11,8.61,22.15,8.63L22.15,8.63z M21.87,8.4l-0.59,0.43
	c-0.02,0.01-0.07,0.05-0.14,0.01c-0.03-0.02-0.03-0.08-0.03-0.12l0.06-0.7c0,0,0,0,0-0.01L21.87,8.4L21.87,8.4z M20.52,7.66
	l-0.58,0.43c0,0-0.06,0.05-0.14,0.01c-0.03-0.01-0.03-0.08-0.02-0.12l0.06-0.69C19.84,7.28,20.52,7.66,20.52,7.66z M19.18,6.91
	l-0.57,0.42c-0.01,0.01-0.07,0.05-0.14,0.01c-0.03-0.02-0.03-0.08-0.03-0.12l0.06-0.68L19.18,6.91L19.18,6.91z M17.83,6.17
	l-0.56,0.41c0,0-0.06,0.05-0.14,0.01c-0.02-0.01-0.03-0.08-0.02-0.12l0.03-0.67L17.83,6.17L17.83,6.17z M17.5,6.79l0.58-0.43
	c0,0,0.02-0.01,0.06,0.01c0,0,0,0,0,0c0.06,0.03,0.07,0.07,0.06,0.09l-0.06,0.69L17.5,6.79L17.5,6.79z M18.83,7.55l0.59-0.43
	c0,0,0.02-0.01,0.06,0.01c0.06,0.03,0.06,0.07,0.06,0.09l-0.06,0.69L18.83,7.55L18.83,7.55z M20.16,8.31l0.59-0.44
	c0,0,0.02-0.01,0.06,0.02l0,0c0.06,0.03,0.06,0.07,0.06,0.1l-0.06,0.7L20.16,8.31L20.16,8.31z M11.2,8.68l-0.07-0.72
	c0,0,0-0.04,0.06-0.08l0,0c0.04-0.02,0.06-0.02,0.05-0.02l0.61,0.44L11.2,8.68z M9.79,8.71c0,0,0-0.04,0.06-0.08
	C9.9,8.61,9.92,8.62,9.91,8.61l0.44,0.33H9.81L9.79,8.71z M12.53,7.92l-0.07-0.71c0,0,0-0.04,0.06-0.08
	c0.04-0.02,0.06-0.02,0.05-0.02l0.6,0.44C13.18,7.55,12.53,7.92,12.53,7.92z M13.87,7.16l-0.06-0.7c0-0.01,0-0.05,0.06-0.08
	c0,0,0,0,0,0c0.04-0.02,0.06-0.02,0.05-0.02l0.59,0.44L13.87,7.16L13.87,7.16z M14.88,5.78l0.03,0.69c0,0.02,0,0.09-0.03,0.11
	c0,0,0,0,0,0l0,0c-0.07,0.04-0.12,0-0.14-0.01l-0.55-0.41L14.88,5.78L14.88,5.78z M13.5,6.54l0.06,0.69c0,0.02,0,0.09-0.03,0.11
	c-0.07,0.04-0.13,0-0.15-0.01l-0.56-0.41C12.83,6.91,13.5,6.54,13.5,6.54z M12.17,7.28l0.06,0.7c0,0.03,0,0.09-0.03,0.11
	c-0.07,0.04-0.12,0.01-0.15-0.01l-0.57-0.42L12.17,7.28L12.17,7.28z M10.83,8.02l0.07,0.71c0,0.03,0,0.1-0.03,0.11
	c-0.07,0.04-0.13,0-0.15-0.01L10.14,8.4L10.83,8.02L10.83,8.02z M9.49,8.75C9.49,8.76,9.49,8.76,9.49,8.75l0.02,0.18H9.15L9.49,8.75
	L9.49,8.75z M23.23,24.01H8.77V9.55h14.45V24.01z M17.6,16.87l0.83,1.48h-0.89l0-0.36c0-0.06,0-0.11-0.07-0.16
	c-0.06-0.04-0.14-0.03-0.21,0.02c-0.01,0.01-0.02,0.02-0.03,0.03l-0.91,1.31c-0.03,0.04-0.03,0.09,0,0.13l0.91,1.31
	c0.01,0.01,0.02,0.02,0.03,0.03c0.04,0.03,0.08,0.04,0.12,0.04c0.03,0,0.06-0.01,0.09-0.03c0.07-0.05,0.07-0.1,0.07-0.16l0-0.35
	h0.65c0.69,0,0.92-0.39,0.93-0.41l0.82-1.58c0,0,0,0,0,0s0,0,0,0c0.33-0.72,0.05-1.22,0.04-1.24l-0.6-1.1
	c-0.01-0.03-0.04-0.05-0.07-0.06s-0.06,0-0.09,0.01l-1.58,0.93C17.59,16.74,17.57,16.81,17.6,16.87L17.6,16.87z M18.91,19.64
	c0,0-0.18,0.29-0.72,0.29h-0.77c-0.03,0-0.06,0.01-0.08,0.03c-0.02,0.02-0.03,0.05-0.03,0.08l0,0.29l-0.75-1.08l0.75-1.08l0,0.29
	c0,0.03,0.01,0.06,0.03,0.08c0.02,0.02,0.05,0.03,0.08,0.03h1.59c0.07,0,0.28-0.01,0.49-0.08L18.91,19.64L18.91,19.64z M19.24,16.04
	l0.54,1c0.01,0.02,0.23,0.43-0.05,1.03c-0.12,0.22-0.52,0.28-0.72,0.28h-0.32l-0.83-1.49L19.24,16.04L19.24,16.04z M13.41,19.48
	c0.45,0.65,1.03,0.66,1.05,0.66l1.25,0.04c0.03,0,0.06-0.01,0.08-0.03c0.02-0.02,0.03-0.05,0.03-0.08v-1.83
	c0-0.06-0.05-0.12-0.11-0.12l-1.71,0l0.47-0.81l0.31,0.19c0.03,0.02,0.06,0.04,0.1,0.04c0.03,0,0.06-0.01,0.07-0.02
	c0.07-0.03,0.1-0.1,0.09-0.19c0-0.01-0.01-0.03-0.01-0.04l-0.67-1.45c-0.02-0.04-0.07-0.07-0.11-0.07l-1.59,0.12
	c-0.01,0-0.02,0-0.04,0.01c-0.08,0.03-0.12,0.1-0.12,0.17c0.01,0.09,0.05,0.11,0.1,0.14l0.3,0.17l-0.33,0.57
	c-0.09,0.15-0.15,0.31-0.18,0.46v0v0c0,0,0,0.01,0,0.01s0,0.01,0,0.01c0,0,0,0,0,0v0c-0.05,0.32,0.16,0.68,0.17,0.7L13.41,19.48
	L13.41,19.48z M15.6,18.36v1.6l-1.13-0.04c-0.02,0-0.49-0.02-0.86-0.56l-0.73-1.17c0.01,0,0.01,0,0.02,0.01
	c0.06,0.03,0.13,0.06,0.2,0.08c0.01,0,0.02,0.01,0.02,0.01c0.07,0.02,0.14,0.03,0.21,0.05c0.01,0,0.03,0,0.04,0.01
	c0.06,0.01,0.13,0.02,0.19,0.02c0.01,0,0.02,0,0.03,0c0.06,0,0.11,0.01,0.16,0.01c0.03,0,0.06,0,0.07,0l0.02,0L15.6,18.36
	L15.6,18.36z M12.78,17.08l0.39-0.67c0.02-0.03,0.02-0.06,0.01-0.09c-0.01-0.03-0.03-0.05-0.05-0.07l-0.24-0.14l1.31-0.1l0.55,1.19
	l-0.25-0.15c-0.03-0.02-0.06-0.02-0.09-0.01c-0.03,0.01-0.06,0.03-0.07,0.05l-0.6,1.03h0c-0.17,0-0.6-0.02-0.87-0.22
	c-0.16-0.11-0.23-0.26-0.23-0.46C12.65,17.33,12.7,17.21,12.78,17.08z M13.73,14.96l1.56,0.97c0.02,0.01,0.04,0.02,0.06,0.02
	c0.04,0,0.07-0.02,0.1-0.05l0.93-1.41l0.4,0.78l-0.3,0.16c-0.05,0.02-0.1,0.05-0.11,0.14c-0.01,0.07,0.03,0.14,0.11,0.18
	c0.01,0.01,0.02,0.01,0.04,0.01l1.59,0.2c0,0,0.01,0,0.01,0c0.04,0,0.08-0.02,0.1-0.06l0.74-1.41c0.01-0.01,0.01-0.02,0.01-0.03
	c0.01-0.09-0.02-0.16-0.08-0.19c-0.01-0.01-0.04-0.02-0.08-0.02c-0.04,0-0.06,0.01-0.1,0.03l-0.33,0.17l-0.29-0.58
	c-0.32-0.61-0.77-0.63-0.79-0.63l-1.79,0c-0.79,0.04-1.11,0.52-1.12,0.54l-0.7,1.04c-0.02,0.03-0.02,0.06-0.02,0.09
	S13.7,14.94,13.73,14.96z M17.3,13.45c0.01,0,0.34,0.02,0.59,0.51l0.34,0.68c0.01,0.03,0.04,0.05,0.07,0.06
	c0.03,0.01,0.06,0.01,0.09-0.01l0.28-0.14l-0.62,1.17l-1.31-0.17l0.25-0.13c0.06-0.03,0.08-0.1,0.05-0.15l-0.53-1.04
	c0-0.01-0.01-0.03-0.02-0.04l-0.16-0.32c-0.01-0.02-0.12-0.23-0.3-0.41L17.3,13.45L17.3,13.45z M14.59,13.89
	c0.01-0.02,0.27-0.4,0.94-0.44c0.27,0,0.51,0.37,0.58,0.51l0.15,0.28l-0.94,1.43l-1.36-0.84L14.59,13.89L14.59,13.89z"/>
</svg>
