<?xml version="1.0" encoding="utf-8"?>
<!-- Generator: Adobe Illustrator 21.1.0, SVG Export Plug-In . SVG Version: 6.00 Build 0)  -->
<!DOCTYPE svg PUBLIC "-//W3C//DTD SVG 1.1//EN" "http://www.w3.org/Graphics/SVG/1.1/DTD/svg11.dtd">
<svg version="1.1" id="Layer_1" xmlns="http://www.w3.org/2000/svg" xmlns:xlink="http://www.w3.org/1999/xlink" x="0px" y="0px"
	 viewBox="0 0 31.68 31.68" style="enable-background:new 0 0 31.68 31.68;" xml:space="preserve">
<path d="M17.02,7.42L17.02,7.42c0-0.71,0-0.47,0-0.71c1.12,0,0.75,0,1.12,0c0.1,0,0.18-0.04,0.24-0.11s0.09-0.17,0.09-0.27
	c0-1.46,0-0.97,0-1.46c0-0.1-0.03-0.18-0.09-0.26c-0.06-0.07-0.14-0.11-0.24-0.11c-4.52,0-3.01,0-4.52,0c-0.1,0-0.17,0.04-0.24,0.11
	s-0.09,0.15-0.09,0.26c0,1.46,0,0.97,0,1.46c0,0.1,0.02,0.2,0.09,0.27s0.14,0.11,0.24,0.11c1.11,0,0.74,0,1.11,0
	c0,0.71,0,0.48,0,0.71c-1.56,0.18-2.96,0.74-4.18,1.54c-0.46-0.54-0.31-0.36-0.46-0.54c0.28-0.24,0.19-0.16,0.28-0.24
	c0.07-0.06,0.12-0.15,0.12-0.24c0.02-0.1-0.01-0.2-0.08-0.27C9.18,6.19,9.59,6.69,9.18,6.19c-0.12-0.15-0.35-0.17-0.5-0.04
	C6.16,8.3,7,7.58,6.16,8.3C6.08,8.36,6.04,8.44,6.03,8.54c-0.01,0.1,0.03,0.18,0.09,0.27C7.34,10.3,6.93,9.8,7.34,10.3
	c0.13,0.14,0.35,0.17,0.5,0.04c0.47-0.41,0.32-0.27,0.47-0.41c0.46,0.55,0.3,0.37,0.46,0.55c-1.64,1.76-2.65,4.16-2.65,6.79
	c0,5.45,4.37,9.9,9.77,9.9s9.76-4.44,9.76-9.9C25.66,12.19,21.88,8,17.02,7.42L17.02,7.42z M13.95,5.25L13.95,5.25
	c3.85,0,2.57,0,3.85,0c0,0.74,0,0.49,0,0.74c-1.06,0-0.71,0-1.06,0c-0.01,0-0.04,0-0.06,0c-1.61,0-1.07,0-1.61,0
	c-0.02,0-0.04,0-0.06,0c-1.06,0-0.71,0-1.06,0C13.95,5.73,13.95,5.49,13.95,5.25L13.95,5.25z M15.46,7.34L15.46,7.34
	c0-0.62,0-0.42,0-0.62c0.89,0,0.59,0,0.89,0c0,0.62,0,0.42,0,0.62c-0.25,0-0.16,0-0.25,0c-0.06,0-0.14,0-0.2,0
	c-0.07,0-0.14,0-0.21,0C15.61,7.34,15.54,7.34,15.46,7.34L15.46,7.34z M7.66,9.55L7.66,9.55C6.88,8.61,7.14,8.92,6.88,8.61
	C8.86,6.93,8.2,7.49,8.86,6.93c0.78,0.93,0.52,0.62,0.78,0.93c-0.23,0.2-0.16,0.13-0.23,0.2C9.39,8.07,9.38,8.09,9.37,8.1
	C8.14,9.13,8.55,8.79,8.14,9.13C8.12,9.15,8.11,9.16,8.09,9.18C7.95,9.3,7.81,9.42,7.66,9.55L7.66,9.55z M9.54,8.88L9.54,8.88
	c0.42,0.51,0.28,0.34,0.42,0.51C9.72,9.57,9.5,9.77,9.28,9.97C8.86,9.46,9,9.63,8.86,9.46C9.09,9.27,9.32,9.07,9.54,8.88L9.54,8.88z
	 M22.3,23.76L22.3,23.76c-1.65,1.66-3.91,2.69-6.4,2.69c-2.5,0-4.78-1.03-6.41-2.69c-1.65-1.67-2.65-3.96-2.65-6.49
	c0-2.55,1.01-4.84,2.65-6.49c0.05-0.06,0.09-0.11,0.15-0.15c0.88-0.75,0.59-0.5,0.88-0.75c1.45-1.09,3.22-1.74,5.15-1.79
	c0.45,0,0.29,0,0.45,0c2.41,0.05,4.59,1.08,6.18,2.69c1.63,1.67,2.65,3.96,2.65,6.49S23.93,22.09,22.3,23.76L22.3,23.76z"/>
<path d="M15.88,9.74L15.88,9.74c0.1,0,0.2-0.09,0.2-0.18c0-0.75,0-0.5,0-0.75c0-0.1-0.1-0.17-0.2-0.17c-0.1,0-0.19,0.07-0.19,0.17
	c0,0.75,0,0.5,0,0.75C15.68,9.66,15.78,9.74,15.88,9.74L15.88,9.74z"/>
<path d="M11.86,9.86L11.86,9.86c-0.05-0.08-0.15-0.11-0.24-0.07c-0.08,0.06-0.11,0.17-0.07,0.26c0.38,0.64,0.25,0.43,0.38,0.64
	c0.05,0.09,0.16,0.11,0.24,0.07c0.08-0.05,0.11-0.15,0.07-0.26C12.11,10.28,11.99,10.07,11.86,9.86L11.86,9.86z"/>
<path d="M9.38,13.25L9.38,13.25c-0.63-0.37-0.42-0.24-0.63-0.37c-0.08-0.04-0.19-0.01-0.25,0.07c-0.04,0.09-0.01,0.2,0.07,0.24
	c0.63,0.38,0.42,0.26,0.63,0.38c0.1,0.04,0.2,0.01,0.25-0.07C9.49,13.42,9.47,13.31,9.38,13.25L9.38,13.25z"/>
<path d="M8.28,17.1L8.28,17.1c-0.74,0-0.49,0-0.74,0c-0.1,0-0.17,0.07-0.17,0.17s0.07,0.18,0.17,0.18c0.74,0,0.49,0,0.74,0
	c0.09,0,0.16-0.08,0.16-0.18S8.37,17.1,8.28,17.1L8.28,17.1z"/>
<path d="M9.2,20.97L9.2,20.97c-0.63,0.37-0.42,0.25-0.63,0.37C8.49,21.4,8.46,21.51,8.5,21.6c0.06,0.08,0.17,0.11,0.25,0.06
	c0.63-0.37,0.42-0.25,0.63-0.37c0.09-0.04,0.11-0.16,0.07-0.24C9.4,20.96,9.28,20.93,9.2,20.97L9.2,20.97z"/>
<path d="M12.17,23.8L12.17,23.8c-0.08-0.06-0.19-0.03-0.25,0.07c-0.36,0.64-0.24,0.42-0.36,0.64c-0.04,0.08-0.01,0.2,0.07,0.24
	c0.09,0.06,0.19,0.03,0.24-0.05c0.36-0.65,0.24-0.43,0.36-0.65C12.28,23.96,12.25,23.84,12.17,23.8L12.17,23.8z"/>
<path d="M15.89,24.81L15.89,24.81c-0.1,0-0.18,0.08-0.18,0.18c0,0.74,0,0.49,0,0.74c0,0.09,0.08,0.18,0.18,0.18s0.18-0.09,0.18-0.18
	c0-0.74,0-0.49,0-0.74C16.08,24.89,15.99,24.81,15.89,24.81L15.89,24.81z"/>
<path d="M19.84,23.87L19.84,23.87c-0.05-0.08-0.15-0.11-0.23-0.07c-0.1,0.06-0.13,0.16-0.07,0.24c0.36,0.65,0.24,0.43,0.36,0.65
	c0.05,0.09,0.15,0.11,0.25,0.06c0.08-0.04,0.11-0.16,0.05-0.24C20.08,24.3,19.96,24.09,19.84,23.87L19.84,23.87z"/>
<path d="M23.19,21.36L23.19,21.36c-0.63-0.39-0.42-0.26-0.63-0.39c-0.08-0.04-0.19-0.01-0.23,0.07c-0.06,0.08-0.03,0.2,0.05,0.24
	c0.64,0.38,0.43,0.26,0.64,0.38c0.08,0.04,0.19,0.01,0.24-0.07S23.28,21.4,23.19,21.36L23.19,21.36z"/>
<path d="M24.22,17.07L24.22,17.07c-0.73,0-0.49,0-0.73,0c-0.1,0-0.18,0.1-0.18,0.2s0.08,0.18,0.18,0.18c0.73,0,0.49,0,0.73,0
	c0.09,0,0.18-0.08,0.18-0.18S24.31,17.07,24.22,17.07L24.22,17.07z"/>
<path d="M23.02,12.9L23.02,12.9c-0.63,0.37-0.42,0.24-0.63,0.37c-0.1,0.04-0.13,0.15-0.07,0.24c0.04,0.09,0.15,0.11,0.23,0.07
	c0.64-0.37,0.43-0.24,0.64-0.37c0.08-0.05,0.11-0.17,0.05-0.26C23.21,12.87,23.1,12.84,23.02,12.9L23.02,12.9z"/>
<path d="M20.15,9.8L20.15,9.8c-0.08-0.06-0.19-0.03-0.25,0.05c-0.36,0.65-0.24,0.43-0.36,0.65c-0.04,0.08-0.01,0.18,0.07,0.24
	c0.09,0.06,0.19,0.02,0.24-0.07c0.36-0.64,0.24-0.42,0.36-0.64C20.26,9.95,20.23,9.84,20.15,9.8L20.15,9.8z"/>
<path d="M21.65,16.87c-3.6-0.08-2.4-0.06-3.6-0.08c-0.01-0.05-0.03-0.09-0.04-0.14c-0.02-0.07-0.04-0.14-0.06-0.21
	c-0.01-0.03-0.03-0.06-0.04-0.09c-0.04-0.09-0.08-0.18-0.13-0.26c-0.01-0.01-0.02-0.02-0.02-0.04c-0.06-0.1-0.12-0.19-0.2-0.27
	c0,0-0.01-0.01-0.01-0.01c-0.31-0.35-0.72-0.61-1.2-0.71c-0.1-4.53-0.06-3.02-0.1-4.53c0-0.2-0.16-0.35-0.35-0.35
	c-0.07,0-0.05,0-0.07,0c-0.18,0-0.35,0.15-0.35,0.35c-0.1,4.54-0.06,3.03-0.1,4.54c-0.98,0.23-1.72,1.12-1.72,2.19
	c0,0.62,0.25,1.19,0.65,1.59c0.4,0.41,0.96,0.67,1.58,0.67c1.06,0,1.95-0.76,2.16-1.77c3.6-0.1,2.4-0.07,3.6-0.1
	c0.19,0,0.33-0.17,0.33-0.36c0-0.07,0-0.05,0-0.07C21.99,17.05,21.85,16.89,21.65,16.87z M16.95,18.35
	c-0.27,0.28-0.64,0.45-1.06,0.45s-0.8-0.17-1.08-0.45c-0.26-0.27-0.43-0.65-0.43-1.08c0-0.43,0.16-0.81,0.43-1.09
	c0.28-0.27,0.66-0.43,1.08-0.45c0.42,0.02,0.79,0.18,1.06,0.45c0.28,0.29,0.45,0.67,0.45,1.09C17.4,17.69,17.23,18.07,16.95,18.35z"
	/>
</svg>
