<?xml version="1.0" encoding="utf-8"?>
<!-- Generator: Adobe Illustrator 21.1.0, SVG Export Plug-In . SVG Version: 6.00 Build 0)  -->
<!DOCTYPE svg PUBLIC "-//W3C//DTD SVG 1.1//EN" "http://www.w3.org/Graphics/SVG/1.1/DTD/svg11.dtd">
<svg version="1.1" id="Layer_1" xmlns="http://www.w3.org/2000/svg" xmlns:xlink="http://www.w3.org/1999/xlink" x="0px" y="0px"
	 viewBox="0 0 32 32" style="enable-background:new 0 0 32 32;" xml:space="preserve">
<path d="M15.58,15.67c0,0.23,0.19,0.42,0.42,0.42c0.23,0,0.42-0.19,0.42-0.42c0-0.23-0.19-0.42-0.42-0.42
	C15.77,15.24,15.58,15.43,15.58,15.67z M14.18,15.24c0,0,0,0.01,0,0.01c0,0.23,0.19,0.42,0.42,0.42s0.42-0.19,0.42-0.42
	c0,0,0-0.01,0-0.01c0,0,0-0.01,0-0.01c0-0.23-0.19-0.42-0.42-0.42s-0.42,0.19-0.42,0.42C14.18,15.24,14.18,15.24,14.18,15.24z
	 M16.94,15.24C16.94,15.25,16.94,15.25,16.94,15.24c0,0.24,0.19,0.43,0.42,0.43c0.23,0,0.42-0.19,0.42-0.42c0,0,0,0,0,0
	c0,0,0,0,0-0.01c0-0.23-0.19-0.42-0.42-0.42S16.94,15.01,16.94,15.24C16.94,15.24,16.94,15.24,16.94,15.24z M17.78,14.18
	c0,0,0,0.01,0,0.01c0,0.23,0.19,0.42,0.42,0.42s0.42-0.19,0.42-0.42c0,0,0-0.01,0-0.01c0,0,0-0.01,0-0.01
	c0-0.23-0.19-0.42-0.42-0.42c-0.23,0-0.42,0.19-0.42,0.42C17.78,14.18,17.78,14.18,17.78,14.18L17.78,14.18z M18.32,12.96
	C18.32,12.96,18.32,12.96,18.32,12.96c0,0.24,0.19,0.43,0.42,0.43s0.42-0.19,0.42-0.42c0,0,0,0,0-0.01c0,0,0,0,0,0
	c0-0.23-0.19-0.42-0.42-0.42C18.5,12.53,18.32,12.72,18.32,12.96C18.32,12.95,18.32,12.96,18.32,12.96z M13.33,14.18
	C13.33,14.19,13.33,14.19,13.33,14.18c0,0.24,0.19,0.43,0.42,0.43s0.42-0.19,0.42-0.42c0,0,0,0,0,0c0,0,0,0,0-0.01
	c0-0.23-0.19-0.42-0.42-0.42S13.33,13.95,13.33,14.18C13.33,14.18,13.33,14.18,13.33,14.18z M12.91,12.96c0,0,0,0.01,0,0.01
	c0,0.23,0.19,0.42,0.42,0.42s0.42-0.19,0.42-0.42c0,0,0-0.01,0-0.01c0,0,0-0.01,0-0.01c0-0.23-0.19-0.42-0.42-0.42
	s-0.42,0.19-0.42,0.42C12.91,12.95,12.91,12.95,12.91,12.96L12.91,12.96z M16,10.74c2.35,0,4.26-1.91,4.26-4.25S18.34,2.23,16,2.23
	s-4.25,1.91-4.25,4.26S13.65,10.74,16,10.74z M16,2.85c2.01,0,3.64,1.63,3.64,3.64s-1.63,3.64-3.64,3.64s-3.64-1.63-3.64-3.64
	S13.99,2.85,16,2.85z M18.33,11.57h-4.67c-4.34,0-6.73,2.39-6.73,6.73v3.75c0,2.12,1.41,3.16,2.9,4.26l0.2,0.15v1.71
	c0,0.08,0.03,0.15,0.08,0.2c0.29,0.33,1.58,1.41,5.88,1.41c4.3,0,5.59-1.08,5.88-1.41c0.05-0.06,0.08-0.13,0.08-0.2v-1.71l0.2-0.15
	c1.5-1.1,2.91-2.14,2.91-4.26v-3.75C25.06,13.95,22.67,11.57,18.33,11.57L18.33,11.57z M24.45,22.04c0,1.81-1.23,2.72-2.65,3.77V18
	c0-0.15-0.12-0.27-0.27-0.27s-0.27,0.12-0.27,0.27v10.1c-0.44,0.35-1.77,1.06-5.26,1.06c-3.62,0-4.91-0.76-5.3-1.09
	c0.01-0.02,0.02-0.05,0.02-0.08V18c0-0.15-0.12-0.27-0.27-0.27s-0.27,0.12-0.27,0.27v7.79c-1.41-1.04-2.63-1.94-2.63-3.74v-3.75
	c0-2.79,1.06-6.11,6.11-6.11h4.67c5.05,0,6.11,3.32,6.11,6.11L24.45,22.04z"/>
</svg>
