<?xml version="1.0" encoding="utf-8"?>
<!-- Generator: Adobe Illustrator 21.1.0, SVG Export Plug-In . SVG Version: 6.00 Build 0)  -->
<!DOCTYPE svg PUBLIC "-//W3C//DTD SVG 1.1//EN" "http://www.w3.org/Graphics/SVG/1.1/DTD/svg11.dtd">
<svg version="1.1" id="Layer_1" xmlns="http://www.w3.org/2000/svg" xmlns:xlink="http://www.w3.org/1999/xlink" x="0px" y="0px"
	 viewBox="0 0 32 32" style="enable-background:new 0 0 32 32;" xml:space="preserve">
<path d="M28.85,11.45c0.02-0.07-0.01-0.14-0.08-0.17l-3.85-0.66c-0.02-0.01-0.19-0.02-0.21-0.02H7.37c-0.02,0-0.19,0-0.2,0.01
	l-3.93,0.66c-0.07,0.03-0.1,0.1-0.08,0.17c0,0.01-0.01,0.02-0.01,0.04v4.87c0,0,0,0.01,0,0.01s0,0.01,0,0.01v4.87
	c0,0.08,0.07,0.15,0.15,0.15h8.46c0,0,0,0,0,0c0,0,0,0,0,0h8.46c0,0,0.01,0,0.01,0s0.01,0,0.01,0h8.46c0.08,0,0.15-0.07,0.15-0.15
	v-4.87c0,0,0-0.01,0-0.01c0,0,0-0.01,0-0.01v-4.87C28.86,11.47,28.85,11.46,28.85,11.45L28.85,11.45z M18.92,10.9l0.83,0.44h-7.44
	l0.96-0.44H18.92z M11.61,19.67v1.44H3.44v-2.14h8.17V19.67z M11.61,17.28v1.38H3.44v-2.14h8.17V17.28z M11.61,14.77v1.44H3.44
	v-2.14h8.17V14.77L11.61,14.77z M11.61,12.39v1.38H3.44v-2.14h8.17V12.39z M11.66,11.34H4.61l2.64-0.44h5.41L11.66,11.34z
	 M20.08,19.67v1.44h-8.17v-2.14h8.17V19.67z M20.08,17.28v1.38h-8.17v-2.14h8.17V17.28z M20.08,14.77v1.44h-8.17v-2.14h8.17V14.77
	L20.08,14.77z M20.08,12.39v1.38h-8.17v-2.14h8.17V12.39z M19.5,10.9h5.33l2.64,0.44h-7.09L19.5,10.9L19.5,10.9z M28.56,19.67v1.44
	H20.4v-2.14h8.17V19.67z M28.56,17.28v1.38H20.4v-2.14h8.17V17.28z M28.56,14.77v1.44H20.4v-2.14h8.17V14.77L28.56,14.77z
	 M28.56,12.39v1.38H20.4v-2.14h8.17V12.39z M3.98,12.76c0,0.11,0.09,0.2,0.2,0.2s0.2-0.09,0.2-0.2l0,0c0-0.11-0.09-0.2-0.2-0.2
	C4.07,12.56,3.98,12.65,3.98,12.76C3.98,12.76,3.98,12.76,3.98,12.76z M4.7,12.76c0,0.11,0.09,0.2,0.2,0.2s0.2-0.09,0.2-0.2l0,0
	c0-0.11-0.09-0.2-0.2-0.2C4.79,12.56,4.7,12.65,4.7,12.76L4.7,12.76z M10.66,13.35h0.44c0.04,0,0.07-0.03,0.07-0.07V12.1
	c0-0.04-0.03-0.07-0.07-0.07h-0.44c-0.04,0-0.07,0.03-0.07,0.07v1.18C10.59,13.32,10.62,13.35,10.66,13.35z M10.74,12.17h0.29v1.03
	h-0.29V12.17z M9.78,13.35h0.44c0.04,0,0.07-0.03,0.07-0.07V12.1c0-0.04-0.03-0.07-0.07-0.07H9.78c-0.04,0-0.07,0.03-0.07,0.07v1.18
	C9.71,13.32,9.74,13.35,9.78,13.35z M9.85,12.17h0.29v1.03H9.85V12.17z M3.98,15.26c0,0.11,0.09,0.2,0.2,0.2s0.2-0.09,0.2-0.2l0,0
	c0-0.11-0.09-0.2-0.2-0.2C4.07,15.06,3.98,15.15,3.98,15.26C3.98,15.26,3.98,15.26,3.98,15.26z M4.7,15.26c0,0.11,0.09,0.2,0.2,0.2
	s0.2-0.09,0.2-0.2l0,0c0-0.11-0.09-0.2-0.2-0.2C4.79,15.06,4.7,15.15,4.7,15.26L4.7,15.26z M10.66,15.85h0.44
	c0.04,0,0.07-0.03,0.07-0.07V14.6c0-0.04-0.03-0.07-0.07-0.07h-0.44c-0.04,0-0.07,0.03-0.07,0.07v1.18
	C10.59,15.82,10.62,15.85,10.66,15.85z M10.74,14.67h0.29v1.03h-0.29V14.67z M9.78,15.85h0.44c0.04,0,0.07-0.03,0.07-0.07V14.6
	c0-0.04-0.03-0.07-0.07-0.07H9.78c-0.04,0-0.07,0.03-0.07,0.07v1.18C9.71,15.82,9.74,15.85,9.78,15.85z M9.85,14.67h0.29v1.03H9.85
	V14.67z M3.98,17.61c0,0.11,0.09,0.2,0.2,0.2s0.2-0.09,0.2-0.2l0,0c0-0.11-0.09-0.2-0.2-0.2C4.07,17.41,3.98,17.5,3.98,17.61
	C3.98,17.61,3.98,17.61,3.98,17.61z M4.7,17.61c0,0.11,0.09,0.2,0.2,0.2s0.2-0.09,0.2-0.2l0,0c0-0.11-0.09-0.2-0.2-0.2
	C4.79,17.41,4.7,17.5,4.7,17.61L4.7,17.61z M10.66,18.2h0.44c0.04,0,0.07-0.03,0.07-0.07v-1.18c0-0.04-0.03-0.07-0.07-0.07h-0.44
	c-0.04,0-0.07,0.03-0.07,0.07v1.18C10.59,18.17,10.62,18.2,10.66,18.2z M10.74,17.03h0.29v1.03h-0.29V17.03z M9.78,18.2h0.44
	c0.04,0,0.07-0.03,0.07-0.07v-1.18c0-0.04-0.03-0.07-0.07-0.07H9.78c-0.04,0-0.07,0.03-0.07,0.07v1.18
	C9.71,18.17,9.74,18.2,9.78,18.2z M9.85,17.03h0.29v1.03H9.85V17.03z M3.98,20.12c0,0.11,0.09,0.2,0.2,0.2s0.2-0.09,0.2-0.2l0,0
	c0-0.11-0.09-0.2-0.2-0.2C4.07,19.91,3.98,20.01,3.98,20.12C3.98,20.12,3.98,20.12,3.98,20.12z M4.7,20.12c0,0.11,0.09,0.2,0.2,0.2
	s0.2-0.09,0.2-0.2l0,0c0-0.11-0.09-0.2-0.2-0.2C4.79,19.91,4.7,20.01,4.7,20.12L4.7,20.12z M10.66,20.7h0.44
	c0.04,0,0.07-0.03,0.07-0.07v-1.18c0-0.04-0.03-0.07-0.07-0.07h-0.44c-0.04,0-0.07,0.03-0.07,0.07v1.18
	C10.59,20.67,10.62,20.7,10.66,20.7z M10.74,19.53h0.29v1.03h-0.29V19.53z M9.78,20.7h0.44c0.04,0,0.07-0.03,0.07-0.07v-1.18
	c0-0.04-0.03-0.07-0.07-0.07H9.78c-0.04,0-0.07,0.03-0.07,0.07v1.18C9.71,20.67,9.74,20.7,9.78,20.7z M9.85,19.53h0.29v1.03H9.85
	V19.53z M12.51,12.76c0,0.11,0.09,0.2,0.2,0.2s0.2-0.09,0.2-0.2c0-0.11-0.09-0.2-0.2-0.2C12.6,12.56,12.51,12.65,12.51,12.76z
	 M13.23,12.76L13.23,12.76c0,0.11,0.09,0.2,0.2,0.2c0.11,0,0.2-0.09,0.2-0.2l0,0l0,0c0-0.11-0.09-0.2-0.2-0.2
	C13.32,12.56,13.23,12.65,13.23,12.76S13.23,12.76,13.23,12.76z M19.2,13.35h0.44c0.04,0,0.07-0.03,0.07-0.07V12.1
	c0-0.04-0.03-0.07-0.07-0.07H19.2c-0.04,0-0.07,0.03-0.07,0.07v1.18C19.12,13.32,19.16,13.35,19.2,13.35z M19.27,12.17h0.29v1.03
	h-0.29V12.17z M18.31,13.35h0.44c0.04,0,0.07-0.03,0.07-0.07V12.1c0-0.04-0.03-0.07-0.07-0.07h-0.44c-0.04,0-0.07,0.03-0.07,0.07
	v1.18C18.24,13.32,18.27,13.35,18.31,13.35z M18.39,12.17h0.29v1.03h-0.29V12.17z M12.51,15.26c0,0.11,0.09,0.2,0.2,0.2
	s0.2-0.09,0.2-0.2c0-0.11-0.09-0.2-0.2-0.2C12.6,15.06,12.51,15.15,12.51,15.26z M13.23,15.26L13.23,15.26c0,0.11,0.09,0.2,0.2,0.2
	c0.11,0,0.2-0.09,0.2-0.2l0,0l0,0c0-0.11-0.09-0.2-0.2-0.2C13.32,15.06,13.23,15.15,13.23,15.26L13.23,15.26z M19.2,15.85h0.44
	c0.04,0,0.07-0.03,0.07-0.07V14.6c0-0.04-0.03-0.07-0.07-0.07H19.2c-0.04,0-0.07,0.03-0.07,0.07v1.18
	C19.12,15.82,19.16,15.85,19.2,15.85L19.2,15.85z M19.27,14.67h0.29v1.03h-0.29V14.67z M18.31,15.85h0.44
	c0.04,0,0.07-0.03,0.07-0.07V14.6c0-0.04-0.03-0.07-0.07-0.07h-0.44c-0.04,0-0.07,0.03-0.07,0.07v1.18
	C18.24,15.82,18.27,15.85,18.31,15.85z M18.39,14.67h0.29v1.03h-0.29V14.67z M12.51,17.61c0,0.11,0.09,0.2,0.2,0.2s0.2-0.09,0.2-0.2
	c0-0.11-0.09-0.2-0.2-0.2C12.6,17.41,12.51,17.5,12.51,17.61z M13.23,17.61L13.23,17.61c0,0.11,0.09,0.2,0.2,0.2
	c0.11,0,0.2-0.09,0.2-0.2l0,0l0,0c0-0.11-0.09-0.2-0.2-0.2C13.32,17.41,13.23,17.5,13.23,17.61S13.23,17.61,13.23,17.61z M19.2,18.2
	h0.44c0.04,0,0.07-0.03,0.07-0.07v-1.18c0-0.04-0.03-0.07-0.07-0.07H19.2c-0.04,0-0.07,0.03-0.07,0.07v1.18
	C19.12,18.17,19.16,18.2,19.2,18.2z M19.27,17.03h0.29v1.03h-0.29V17.03L19.27,17.03z M18.31,18.2h0.44c0.04,0,0.07-0.03,0.07-0.07
	v-1.18c0-0.04-0.03-0.07-0.07-0.07h-0.44c-0.04,0-0.07,0.03-0.07,0.07v1.18C18.24,18.17,18.27,18.2,18.31,18.2z M18.39,17.03h0.29
	v1.03h-0.29V17.03z M12.51,20.12c0,0.11,0.09,0.2,0.2,0.2s0.2-0.09,0.2-0.2c0-0.11-0.09-0.2-0.2-0.2
	C12.6,19.91,12.51,20.01,12.51,20.12z M13.23,20.12L13.23,20.12c0,0.11,0.09,0.2,0.2,0.2c0.11,0,0.2-0.09,0.2-0.2l0,0l0,0
	c0-0.11-0.09-0.2-0.2-0.2C13.32,19.91,13.23,20.01,13.23,20.12S13.23,20.12,13.23,20.12z M19.2,20.7h0.44
	c0.04,0,0.07-0.03,0.07-0.07v-1.18c0-0.04-0.03-0.07-0.07-0.07H19.2c-0.04,0-0.07,0.03-0.07,0.07v1.18
	C19.12,20.67,19.16,20.7,19.2,20.7z M19.27,19.53h0.29v1.03h-0.29V19.53z M18.31,20.7h0.44c0.04,0,0.07-0.03,0.07-0.07v-1.18
	c0-0.04-0.03-0.07-0.07-0.07h-0.44c-0.04,0-0.07,0.03-0.07,0.07v1.18C18.24,20.67,18.27,20.7,18.31,20.7z M18.39,19.53h0.29v1.03
	h-0.29V19.53z M20.9,12.76c0,0.11,0.09,0.2,0.2,0.2s0.2-0.09,0.2-0.2c0-0.11-0.09-0.2-0.2-0.2C20.99,12.56,20.9,12.65,20.9,12.76z
	 M21.61,12.76L21.61,12.76c0,0.11,0.09,0.2,0.2,0.2c0.11,0,0.2-0.09,0.2-0.2l0,0l0,0c0-0.11-0.09-0.2-0.2-0.2
	C21.7,12.56,21.61,12.65,21.61,12.76S21.61,12.76,21.61,12.76z M27.58,13.35h0.44c0.04,0,0.07-0.03,0.07-0.07V12.1
	c0-0.04-0.03-0.07-0.07-0.07h-0.44c-0.04,0-0.07,0.03-0.07,0.07v1.18C27.51,13.32,27.54,13.35,27.58,13.35z M27.66,12.17h0.29v1.03
	h-0.29V12.17z M26.7,13.35h0.44c0.04,0,0.07-0.03,0.07-0.07V12.1c0-0.04-0.03-0.07-0.07-0.07H26.7c-0.04,0-0.07,0.03-0.07,0.07v1.18
	C26.63,13.32,26.66,13.35,26.7,13.35z M26.77,12.17h0.29v1.03h-0.29V12.17z M20.9,15.26c0,0.11,0.09,0.2,0.2,0.2s0.2-0.09,0.2-0.2
	c0-0.11-0.09-0.2-0.2-0.2C20.99,15.06,20.9,15.15,20.9,15.26z M21.61,15.26L21.61,15.26c0,0.11,0.09,0.2,0.2,0.2
	c0.11,0,0.2-0.09,0.2-0.2l0,0l0,0c0-0.11-0.09-0.2-0.2-0.2C21.7,15.06,21.61,15.15,21.61,15.26L21.61,15.26z M27.58,15.85h0.44
	c0.04,0,0.07-0.03,0.07-0.07V14.6c0-0.04-0.03-0.07-0.07-0.07h-0.44c-0.04,0-0.07,0.03-0.07,0.07v1.18
	C27.51,15.82,27.54,15.85,27.58,15.85z M27.66,14.67h0.29v1.03h-0.29V14.67z M26.7,15.85h0.44c0.04,0,0.07-0.03,0.07-0.07V14.6
	c0-0.04-0.03-0.07-0.07-0.07H26.7c-0.04,0-0.07,0.03-0.07,0.07v1.18C26.63,15.82,26.66,15.85,26.7,15.85z M26.77,14.67h0.29v1.03
	h-0.29V14.67z M20.9,17.61c0,0.11,0.09,0.2,0.2,0.2s0.2-0.09,0.2-0.2c0-0.11-0.09-0.2-0.2-0.2C20.99,17.41,20.9,17.5,20.9,17.61z
	 M21.61,17.61L21.61,17.61c0,0.11,0.09,0.2,0.2,0.2c0.11,0,0.2-0.09,0.2-0.2l0,0l0,0c0-0.11-0.09-0.2-0.2-0.2
	C21.7,17.41,21.61,17.5,21.61,17.61S21.61,17.61,21.61,17.61z M27.58,18.2h0.44c0.04,0,0.07-0.03,0.07-0.07v-1.18
	c0-0.04-0.03-0.07-0.07-0.07h-0.44c-0.04,0-0.07,0.03-0.07,0.07v1.18C27.51,18.17,27.54,18.2,27.58,18.2z M27.66,17.03h0.29v1.03
	h-0.29V17.03z M26.7,18.2h0.44c0.04,0,0.07-0.03,0.07-0.07v-1.18c0-0.04-0.03-0.07-0.07-0.07H26.7c-0.04,0-0.07,0.03-0.07,0.07v1.18
	C26.63,18.17,26.66,18.2,26.7,18.2z M26.77,17.03h0.29v1.03h-0.29V17.03z M20.9,20.12c0,0.11,0.09,0.2,0.2,0.2s0.2-0.09,0.2-0.2
	c0-0.11-0.09-0.2-0.2-0.2C20.99,19.91,20.9,20.01,20.9,20.12z M21.61,20.12L21.61,20.12c0,0.11,0.09,0.2,0.2,0.2
	c0.11,0,0.2-0.09,0.2-0.2l0,0l0,0c0-0.11-0.09-0.2-0.2-0.2C21.7,19.91,21.61,20.01,21.61,20.12S21.61,20.12,21.61,20.12z
	 M27.58,20.7h0.44c0.04,0,0.07-0.03,0.07-0.07v-1.18c0-0.04-0.03-0.07-0.07-0.07h-0.44c-0.04,0-0.07,0.03-0.07,0.07v1.18
	C27.51,20.67,27.54,20.7,27.58,20.7z M27.66,19.53h0.29v1.03h-0.29V19.53z M26.7,20.7h0.44c0.04,0,0.07-0.03,0.07-0.07v-1.18
	c0-0.04-0.03-0.07-0.07-0.07H26.7c-0.04,0-0.07,0.03-0.07,0.07v1.18C26.63,20.67,26.66,20.7,26.7,20.7z M26.77,19.53h0.29v1.03
	h-0.29V19.53z"/>
</svg>
