<?xml version="1.0" encoding="utf-8"?>
<!-- Generator: Adobe Illustrator 21.1.0, SVG Export Plug-In . SVG Version: 6.00 Build 0)  -->
<!DOCTYPE svg PUBLIC "-//W3C//DTD SVG 1.1//EN" "http://www.w3.org/Graphics/SVG/1.1/DTD/svg11.dtd">
<svg version="1.1" id="Layer_1" xmlns="http://www.w3.org/2000/svg" xmlns:xlink="http://www.w3.org/1999/xlink" x="0px" y="0px"
	 viewBox="0 0 32 32" style="enable-background:new 0 0 32 32;" xml:space="preserve">
<path d="M20.49,14.72h2.19c0.13,0,0.23-0.1,0.23-0.23v-2.61c0-0.13-0.1-0.23-0.23-0.23h-2.19c-0.13,0-0.23,0.1-0.23,0.23v2.61
	C20.26,14.62,20.37,14.72,20.49,14.72z M20.72,12.11h1.73v2.15h-1.73V12.11z M17.12,18.84h-4.89c-0.13,0-0.23,0.1-0.23,0.23
	s0.1,0.23,0.23,0.23h4.89c0.13,0,0.23-0.1,0.23-0.23S17.25,18.84,17.12,18.84z M19.6,17.46h-7.37c-0.13,0-0.23,0.1-0.23,0.23
	s0.1,0.23,0.23,0.23h7.37c0.13,0,0.23-0.1,0.23-0.23S19.73,17.46,19.6,17.46z M8.97,12.11h4.89c0.13,0,0.23-0.1,0.23-0.23
	c0-0.13-0.1-0.23-0.23-0.23H8.97c-0.13,0-0.23,0.1-0.23,0.23C8.74,12.01,8.85,12.11,8.97,12.11z M12,16.3c0,0.13,0.1,0.23,0.23,0.23
	h7.37c0.13,0,0.23-0.1,0.23-0.23s-0.1-0.23-0.23-0.23h-7.37C12.1,16.07,12,16.18,12,16.3z M8.97,13.42h4.89
	c0.13,0,0.23-0.1,0.23-0.23c0-0.13-0.1-0.23-0.23-0.23H8.97c-0.13,0-0.23,0.1-0.23,0.23C8.74,13.31,8.85,13.42,8.97,13.42z
	 M24.44,9.7H7.56c-0.17,0-0.31,0.14-0.31,0.31v11.99c0,0.17,0.14,0.31,0.31,0.31h16.87c0.17,0,0.31-0.14,0.31-0.31V10.01
	C24.74,9.84,24.6,9.7,24.44,9.7z M24.13,21.69H7.87V10.31h16.26V21.69z"/>
</svg>
