<?xml version="1.0" encoding="utf-8"?>
<!-- Generator: Adobe Illustrator 21.1.0, SVG Export Plug-In . SVG Version: 6.00 Build 0)  -->
<!DOCTYPE svg PUBLIC "-//W3C//DTD SVG 1.1//EN" "http://www.w3.org/Graphics/SVG/1.1/DTD/svg11.dtd">
<svg version="1.1" id="Layer_1" xmlns="http://www.w3.org/2000/svg" xmlns:xlink="http://www.w3.org/1999/xlink" x="0px" y="0px"
	 viewBox="0 0 32 32" style="enable-background:new 0 0 32 32;" xml:space="preserve">
<path d="M25.61,11.67c-0.9-2.93-3.64-4.97-6.72-4.97c-3.09,0-5.81,2.02-6.71,4.94c-0.51-0.18-1.03-0.27-1.57-0.27
	c-2.19,0-4.07,1.5-4.56,3.61c-1.95,0.07-3.6,1.43-4.04,3.35c-0.02,0.09,0,0.18,0.06,0.25c0.06,0.07,0.14,0.11,0.23,0.11h10.05
	c-0.05,0.31-0.07,0.63-0.07,0.95c0,3.66,2.98,6.65,6.65,6.65s6.65-2.98,6.65-6.65c0-0.33-0.02-0.64-0.07-0.95h4.39
	c0.14,0,0.26-0.1,0.29-0.24c0.06-0.36,0.09-0.68,0.09-1C30.26,14.65,28.31,12.25,25.61,11.67L25.61,11.67z M18.92,25.68
	c-3.33,0-6.03-2.71-6.03-6.03s2.71-6.03,6.03-6.03s6.03,2.71,6.03,6.03S22.24,25.68,18.92,25.68z M29.64,18.11h-4.25
	c-0.7-2.93-3.33-5.11-6.47-5.11c-3.14,0-5.77,2.18-6.47,5.11H2.67c0.5-1.51,1.9-2.54,3.55-2.54h0l0.05,0
	c0.15,0.01,0.27-0.1,0.29-0.24c0.35-1.95,2.05-3.37,4.04-3.37c0.53,0,1.05,0.1,1.54,0.31c0.3,0.15,0.95,0.52,1.36,1.2
	c0.05,0.08,0.14,0.12,0.23,0.1c0.02-0.01,0.05-0.01,0.07-0.03c0.1-0.06,0.14-0.2,0.08-0.3c-0.35-0.58-0.84-0.96-1.21-1.19
	c0.76-2.81,3.31-4.76,6.22-4.76c2.8,0,5.27,1.79,6.12,4.44c-0.75-0.01-1.31,0.27-1.35,0.28c-0.11,0.05-0.17,0.17-0.12,0.29
	c0.05,0.11,0.17,0.16,0.28,0.12c0.01,0,0.78-0.31,1.66-0.16c2.44,0.53,4.2,2.69,4.2,5.2C29.68,17.66,29.67,17.87,29.64,18.11
	L29.64,18.11z M17.16,16.58c-0.19-0.14-0.34-0.21-0.46-0.21c-0.14,0-0.21,0.09-0.23,0.14c-0.01,0.02-0.01,0.05,0,0.07l0.27,0.74
	l-0.04,0.33l-0.33,0.15l-0.25-0.22c-0.01-0.03-0.03-0.07-0.05-0.12c-0.05-0.13-0.12-0.32-0.16-0.44c-0.06-0.15-0.12-0.23-0.2-0.24
	c-0.05-0.01-0.09,0.01-0.12,0.04c-0.61,0.53-0.11,1.47-0.09,1.51c0.01,0.02,0.05,0.1,0.11,0.2l-0.01,0.01
	c-0.06,0.03-0.1,0.07-0.12,0.13c-0.02,0.07-0.02,0.15,0.02,0.23c0.07,0.14,0.2,0.19,0.33,0.13l0.12-0.06
	c0.02,0.02,0.03,0.03,0.05,0.05c0.12,0.1,0.16,0.16,0.15,0.43l-0.11,3.18c0,0.05-0.02,0.33,0.15,0.51c0.1,0.11,0.24,0.17,0.42,0.17
	c0.17,0,0.3-0.05,0.4-0.16c0.18-0.2,0.15-0.52,0.15-0.52l-0.1-3.18c0-0.04,0-0.07,0-0.1c-0.01-0.22-0.01-0.36,0.34-0.63
	c0.47-0.37,0.38-1.01,0.37-1.08C17.66,16.97,17.18,16.6,17.16,16.58L17.16,16.58z M15.69,17.02c0.01,0.02,0.02,0.05,0.03,0.08
	c0.07,0.2,0.22,0.59,0.22,0.59c0.01,0.02,0.02,0.03,0.03,0.04l0.21,0.18l-0.53,0.25C15.55,17.94,15.35,17.36,15.69,17.02
	L15.69,17.02z M15.76,18.87c-0.06,0.03-0.08-0.02-0.1-0.05c0,0-0.05-0.1,0.02-0.13l0.03-0.02c0.04,0.06,0.08,0.11,0.12,0.16
	L15.76,18.87L15.76,18.87z M17.27,18.55c-0.43,0.34-0.42,0.56-0.41,0.8c0,0.03,0,0.06,0,0.1l0.1,3.19c0,0,0.02,0.23-0.1,0.36
	c-0.06,0.06-0.14,0.09-0.25,0.09c-0.12,0-0.21-0.03-0.27-0.1c-0.11-0.12-0.1-0.31-0.1-0.36l0.11-3.19c0.01-0.31-0.04-0.44-0.22-0.59
	c-0.18-0.16-0.33-0.4-0.4-0.52l1.11-0.52c0.03-0.02,0.05-0.05,0.06-0.08l0.05-0.41c0-0.01,0-0.03,0-0.05l-0.25-0.69c0,0,0,0,0.01,0
	c0.03,0,0.14,0.02,0.33,0.17c0,0,0.43,0.34,0.53,0.92C17.57,17.72,17.64,18.26,17.27,18.55z M17.01,17.98
	c-0.03-0.04-0.08-0.05-0.12-0.02c-0.02,0.01-0.03,0.03-0.03,0.06s0,0.05,0.02,0.06l0.21,0.28c0.02,0.02,0.04,0.03,0.07,0.03
	c0.02,0,0.04-0.01,0.05-0.02c0.04-0.03,0.05-0.08,0.02-0.12L17.01,17.98L17.01,17.98z M16.82,18.08c-0.03-0.04-0.08-0.04-0.12-0.02
	c-0.02,0.01-0.03,0.03-0.03,0.06c0,0.02,0,0.05,0.02,0.06l0.21,0.28c0.02,0.02,0.04,0.03,0.07,0.03c0.02,0,0.04-0.01,0.05-0.02
	c0.04-0.03,0.05-0.08,0.02-0.12C17.03,18.36,16.82,18.08,16.82,18.08z M16.7,18.56c0.02,0.02,0.04,0.03,0.07,0.03
	c0.02,0,0.04-0.01,0.05-0.02c0.04-0.03,0.05-0.08,0.02-0.12l-0.21-0.28c-0.03-0.04-0.08-0.05-0.12-0.02
	c-0.04,0.03-0.05,0.08-0.02,0.12C16.49,18.27,16.7,18.56,16.7,18.56z M16.57,18.69c0.02,0,0.04-0.01,0.05-0.02
	c0.04-0.03,0.05-0.08,0.02-0.12l-0.21-0.28c-0.03-0.04-0.08-0.05-0.12-0.02c-0.02,0.01-0.03,0.03-0.03,0.06s0,0.05,0.02,0.06
	l0.21,0.28C16.52,18.67,16.54,18.68,16.57,18.69L16.57,18.69z M16.61,22.43c-0.06,0-0.11,0.02-0.16,0.05
	c-0.07,0.04-0.11,0.11-0.13,0.18c-0.02,0.08,0,0.16,0.04,0.22c0.05,0.08,0.15,0.14,0.25,0.14c0.06,0,0.11-0.02,0.16-0.05
	c0.14-0.09,0.18-0.27,0.09-0.41C16.81,22.48,16.72,22.43,16.61,22.43z M16.74,22.75c-0.01,0.03-0.03,0.06-0.06,0.08
	c-0.05,0.03-0.14,0.02-0.17-0.04c-0.04-0.06-0.02-0.14,0.04-0.17c0.02-0.01,0.04-0.02,0.07-0.02c0.04,0,0.08,0.02,0.11,0.06
	C16.74,22.69,16.74,22.72,16.74,22.75L16.74,22.75z M19.45,20.74c0-0.09,0.06-0.16,0.08-0.18l0,0c0.02-0.02,0.04-0.05,0.04-0.08
	v-0.47c0-0.06-0.05-0.1-0.1-0.1h-0.35v-1.95l0.13-0.36c0.01-0.02,0.01-0.03,0-0.05l-0.17-0.96c-0.01-0.05-0.05-0.08-0.1-0.08h-0.34
	c-0.05,0-0.09,0.04-0.1,0.09l-0.17,0.96c0,0.02,0,0.04,0,0.05l0.13,0.36v1.95h-0.35c-0.06,0-0.1,0.05-0.1,0.1v0.47
	c0,0.03,0.01,0.06,0.04,0.08c0.01,0.01,0.08,0.08,0.08,0.18c0,0.09-0.05,0.2-0.15,0.3c-0.02,0.02-0.03,0.05-0.03,0.07v1.87
	c0,0.03,0.01,0.12,0.09,0.21c0.13,0.14,0.38,0.21,0.74,0.21s0.61-0.07,0.74-0.21c0.1-0.1,0.09-0.2,0.09-0.2v-1.88
	c0-0.03-0.01-0.05-0.03-0.07C19.5,20.93,19.45,20.83,19.45,20.74L19.45,20.74z M18.72,16.71h0.17l0.15,0.85l-0.13,0.35
	c0,0.01-0.01,0.02-0.01,0.04v1.97H18.7v-1.97c0-0.01,0-0.02-0.01-0.03l-0.13-0.35L18.72,16.71z M18.49,23.17
	c-0.02,0-0.03-0.01-0.05-0.01v-1.58c0-0.06,0-0.12,0.01-0.15c0,0,0,0,0.02,0l0.01,0c0.01,0.01,0.01,0.06,0.01,0.16V23.17z
	 M19.19,23.16c-0.02,0-0.03,0.01-0.05,0.01v-1.58c0-0.09,0-0.15,0.01-0.16c0,0,0,0,0.01,0c0.01,0,0.02,0,0.02,0s0,0,0,0.01
	c0.01,0.03,0.01,0.09,0.01,0.15L19.19,23.16L19.19,23.16z M19.36,23.08v-1.5c0-0.07,0-0.14-0.02-0.2c-0.03-0.08-0.09-0.13-0.18-0.13
	c-0.19,0-0.19,0.2-0.19,0.33v1.6c-0.1,0.01-0.21,0.01-0.31,0v-1.6c0-0.13,0-0.33-0.19-0.33c-0.09,0-0.15,0.04-0.18,0.12
	c-0.02,0.06-0.02,0.12-0.02,0.21v1.5c-0.07-0.05-0.08-0.1-0.08-0.1v-1.84c0.13-0.14,0.19-0.28,0.18-0.43
	c-0.01-0.14-0.08-0.25-0.12-0.29v-0.32h1.11v0.32c-0.04,0.04-0.11,0.15-0.12,0.29c-0.01,0.14,0.06,0.29,0.18,0.43v1.84h0
	C19.43,23,19.42,23.04,19.36,23.08L19.36,23.08z M22.32,16.5l-0.29,0c-0.01,0-0.03,0-0.04,0.01l0,0c-0.02,0.01-0.13,0.05-0.25,0.05
	c-0.11,0-0.2-0.03-0.26-0.1c-0.02-0.02-0.05-0.03-0.07-0.03h-0.57c-0.01,0-0.91,0.07-1.14,1.02c-0.02,0.07-0.01,0.19,0.07,0.25
	c0.02,0.01,0.05,0.02,0.08,0.02c0.1,0,0.19-0.11,0.2-0.12c0,0,0.2-0.3,0.36-0.42c0.03-0.02,0.1-0.06,0.14-0.06
	c0.01,0,0.02,0,0.03,0.03c0.04,0.11,0.09,0.34,0.12,0.52l0.01,0.05c0.01,0.04,0.03,0.07,0.07,0.08v1.95
	c-0.08,0.05-0.12,0.13-0.12,0.22l-0.01,3.08c0,0.18,0.26,0.27,0.41,0.27h0.16c0.15,0,0.41-0.09,0.41-0.27l-0.01-3.08
	c0-0.09-0.05-0.17-0.12-0.22v-1.96c0.03-0.01,0.05-0.05,0.06-0.08l0.05-0.42c0.04-0.03,0.09-0.05,0.14-0.05
	c0.12,0,0.23,0.08,0.23,0.09c0.02,0.01,0.04,0.02,0.06,0.02l0.29,0c0.04,0,0.07-0.02,0.09-0.05c0.01-0.01,0.07-0.13,0.07-0.38
	c0-0.21-0.05-0.33-0.07-0.37C22.39,16.52,22.36,16.5,22.32,16.5L22.32,16.5z M21.2,23.11h-0.16c-0.08,0-0.18-0.05-0.2-0.07
	l0.01-3.07c0-0.03,0.05-0.07,0.1-0.07h0.36c0.05,0,0.1,0.03,0.1,0.07l0.01,3.07C21.39,23.06,21.29,23.11,21.2,23.11L21.2,23.11z
	 M20.97,19.7V17.8h0.31v1.89H20.97z M21.91,17.07c-0.19-0.07-0.36-0.03-0.49,0.1c-0.01,0.02-0.02,0.03-0.03,0.06l-0.05,0.36h-0.46
	c-0.04-0.2-0.08-0.41-0.12-0.52c-0.04-0.1-0.12-0.15-0.22-0.15c-0.12,0-0.24,0.08-0.27,0.11c-0.14,0.1-0.29,0.31-0.36,0.41
	c0.21-0.7,0.85-0.78,0.92-0.79h0.53c0.1,0.08,0.23,0.13,0.38,0.13c0.06,0,0.12-0.01,0.16-0.02c0.01,0.05,0.01,0.12,0.01,0.21
	C21.92,17,21.92,17.04,21.91,17.07L21.91,17.07z M22.25,17.15l-0.17,0c0.01-0.06,0.01-0.12,0.01-0.19c0-0.08-0.01-0.16-0.02-0.25
	l0.18,0c0.01,0.04,0.03,0.12,0.03,0.22C22.28,17.03,22.26,17.1,22.25,17.15L22.25,17.15z"/>
</svg>
