<?xml version="1.0" encoding="utf-8"?>
<!-- Generator: Adobe Illustrator 21.1.0, SVG Export Plug-In . SVG Version: 6.00 Build 0)  -->
<!DOCTYPE svg PUBLIC "-//W3C//DTD SVG 1.1//EN" "http://www.w3.org/Graphics/SVG/1.1/DTD/svg11.dtd">
<svg version="1.1" id="Layer_1" xmlns="http://www.w3.org/2000/svg" xmlns:xlink="http://www.w3.org/1999/xlink" x="0px" y="0px"
	 viewBox="0 0 32 32" style="enable-background:new 0 0 32 32;" xml:space="preserve">
<path d="M24.83,5.58H7.17C7,5.58,6.86,5.72,6.86,5.89v20.23c0,0.17,0.14,0.31,0.31,0.31h17.66c0.17,0,0.31-0.14,0.31-0.31V5.89
	C25.14,5.72,25,5.58,24.83,5.58z M24.53,25.81H7.48V6.19h17.05V25.81z M21.25,11.65c1.19,0,2.16-0.97,2.16-2.16
	c0-1.19-0.97-2.16-2.16-2.16c-1.19,0-2.16,0.97-2.16,2.16S20.06,11.65,21.25,11.65z M21.25,7.79c0.94,0,1.7,0.76,1.7,1.7
	s-0.76,1.7-1.7,1.7s-1.7-0.76-1.7-1.7S20.31,7.79,21.25,7.79z M21.25,9.89c0.22,0,0.43-0.21,0.43-0.43c0-0.72-0.28-1.41-0.29-1.45
	c-0.05-0.12-0.24-0.12-0.28,0c-0.01,0.03-0.29,0.73-0.29,1.45C20.82,9.68,21.03,9.89,21.25,9.89z M21.25,8.59
	c0.06,0.25,0.12,0.56,0.12,0.88c0,0.05-0.07,0.12-0.12,0.12s-0.12-0.07-0.12-0.12C21.12,9.15,21.19,8.83,21.25,8.59z M22.25,9.49
	c0,0.08,0.07,0.15,0.15,0.15h0.18c0.08,0,0.15-0.07,0.15-0.15c0-0.09-0.07-0.15-0.15-0.15h-0.18C22.32,9.33,22.25,9.4,22.25,9.49z
	 M20.24,9.49c0-0.09-0.07-0.15-0.15-0.15h-0.18c-0.08,0-0.15,0.07-0.15,0.15c0,0.08,0.07,0.15,0.15,0.15h0.18
	C20.18,9.64,20.24,9.57,20.24,9.49z M22.18,10.2c-0.06-0.06-0.16-0.06-0.22,0c-0.06,0.06-0.06,0.16,0,0.22l0.13,0.13
	c0.03,0.03,0.07,0.05,0.11,0.05c0.04,0,0.08-0.02,0.11-0.05c0.06-0.06,0.06-0.16,0-0.22L22.18,10.2z M20.32,8.78
	c0.03,0.03,0.07,0.05,0.11,0.05c0.04,0,0.08-0.02,0.11-0.05c0.06-0.06,0.06-0.16,0-0.22l-0.13-0.13c-0.06-0.06-0.16-0.06-0.22,0
	c-0.06,0.06-0.06,0.16,0,0.22L20.32,8.78L20.32,8.78z M21.25,10.49c-0.08,0-0.15,0.07-0.15,0.15v0.18c0,0.09,0.07,0.15,0.15,0.15
	s0.15-0.07,0.15-0.15v-0.18C21.4,10.56,21.33,10.49,21.25,10.49z M20.32,10.2l-0.13,0.13c-0.06,0.06-0.06,0.16,0,0.22
	c0.03,0.03,0.07,0.05,0.11,0.05c0.04,0,0.08-0.02,0.11-0.05l0.13-0.13c0.06-0.06,0.06-0.16,0-0.22
	C20.48,10.14,20.38,10.14,20.32,10.2L20.32,10.2z M22.07,8.82c0.04,0,0.08-0.02,0.11-0.05l0.13-0.13c0.06-0.06,0.06-0.16,0-0.22
	c-0.06-0.06-0.16-0.06-0.22,0l-0.13,0.13c-0.06,0.06-0.06,0.16,0,0.22C21.99,8.81,22.03,8.82,22.07,8.82L22.07,8.82z M15.93,11.65
	c0.58,0,1.12-0.23,1.53-0.63c0.84-0.84,0.84-2.21,0-3.06c-0.41-0.41-0.95-0.63-1.53-0.63c-0.58,0-1.12,0.22-1.53,0.63
	c-0.84,0.84-0.84,2.21,0,3.06C14.82,11.42,15.36,11.65,15.93,11.65L15.93,11.65z M14.73,8.28c0.32-0.32,0.75-0.5,1.2-0.5
	c0.45,0,0.88,0.18,1.2,0.5c0.66,0.66,0.66,1.74,0,2.4c-0.32,0.32-0.75,0.5-1.2,0.5c-0.45,0-0.88-0.18-1.2-0.5
	C14.07,10.02,14.07,8.95,14.73,8.28L14.73,8.28z M15.95,9.89c0.12,0,0.23-0.04,0.3-0.12c0.51-0.51,0.81-1.2,0.82-1.23
	c0.02-0.06,0.01-0.12-0.03-0.17C17,8.34,16.93,8.32,16.87,8.35c-0.03,0.01-0.72,0.31-1.23,0.82c-0.08,0.07-0.12,0.19-0.12,0.3
	c0,0.12,0.04,0.23,0.12,0.31C15.72,9.85,15.83,9.89,15.95,9.89L15.95,9.89z M15.86,9.38c0.22-0.22,0.49-0.4,0.71-0.53
	c-0.13,0.22-0.31,0.49-0.53,0.71c-0.03,0.03-0.14,0.03-0.18,0c-0.02-0.02-0.03-0.05-0.03-0.09S15.85,9.4,15.86,9.38L15.86,9.38z
	 M16.86,10.2c-0.06-0.06-0.16-0.06-0.22,0c-0.06,0.06-0.06,0.16,0,0.22l0.13,0.13c0.03,0.03,0.07,0.05,0.11,0.05
	c0.04,0,0.08-0.02,0.11-0.05c0.06-0.06,0.06-0.16,0-0.22L16.86,10.2L16.86,10.2z M15.01,8.78c0.03,0.03,0.07,0.05,0.11,0.05
	s0.08-0.02,0.11-0.05c0.06-0.06,0.06-0.16,0-0.22L15.1,8.43c-0.06-0.06-0.16-0.06-0.22,0s-0.06,0.16,0,0.22L15.01,8.78L15.01,8.78z
	 M15.93,10.49c-0.08,0-0.15,0.07-0.15,0.15v0.18c0,0.08,0.07,0.15,0.15,0.15c0.08,0,0.15-0.07,0.15-0.15v-0.18
	C16.09,10.56,16.02,10.49,15.93,10.49z M15.93,8.48c0.08,0,0.15-0.07,0.15-0.15V8.15c0-0.09-0.07-0.15-0.15-0.15l0,0
	c-0.08,0-0.15,0.07-0.15,0.15v0.18C15.78,8.41,15.85,8.48,15.93,8.48z M15.01,10.2l-0.13,0.13c-0.06,0.06-0.06,0.16,0,0.22
	c0.03,0.03,0.07,0.05,0.11,0.05c0.04,0,0.08-0.02,0.11-0.05l0.13-0.13c0.06-0.06,0.06-0.16,0-0.22S15.07,10.14,15.01,10.2
	L15.01,10.2z M14.93,9.49c0-0.09-0.07-0.15-0.15-0.15h-0.18c-0.08,0-0.15,0.07-0.15,0.15c0,0.08,0.07,0.15,0.15,0.15h0.18
	C14.86,9.64,14.93,9.57,14.93,9.49z M16.94,9.49c0,0.08,0.07,0.15,0.15,0.15h0.18c0.08,0,0.15-0.07,0.15-0.15
	c0-0.09-0.07-0.15-0.15-0.15h-0.18C17.01,9.33,16.94,9.4,16.94,9.49z M10.62,11.65c0.58,0,1.12-0.23,1.53-0.63
	c0.84-0.84,0.84-2.21,0-3.06c-0.41-0.41-0.95-0.63-1.53-0.63c-0.58,0-1.12,0.22-1.53,0.63C8.68,8.37,8.46,8.91,8.46,9.49
	s0.23,1.12,0.63,1.53C9.5,11.42,10.04,11.65,10.62,11.65z M9.42,8.28c0.32-0.32,0.75-0.5,1.2-0.5c0.45,0,0.88,0.18,1.2,0.5
	c0.66,0.66,0.66,1.74,0,2.4c-0.32,0.32-0.75,0.5-1.2,0.5c-0.45,0-0.88-0.18-1.2-0.5C8.75,10.02,8.75,8.95,9.42,8.28z M11.56,10.62
	c0.02,0.01,0.04,0.01,0.06,0.01c0.04,0,0.08-0.02,0.11-0.05c0.04-0.04,0.06-0.11,0.03-0.17c-0.01-0.03-0.31-0.72-0.82-1.23
	c-0.15-0.15-0.46-0.15-0.61,0c-0.07,0.07-0.12,0.19-0.12,0.31c0,0.12,0.04,0.23,0.12,0.31C10.84,10.31,11.53,10.61,11.56,10.62z
	 M10.55,9.41c0.02-0.02,0.05-0.03,0.09-0.03s0.07,0.01,0.09,0.03c0.22,0.22,0.4,0.49,0.53,0.71c-0.22-0.13-0.49-0.31-0.71-0.53
	c-0.02-0.02-0.03-0.05-0.03-0.09S10.53,9.43,10.55,9.41L10.55,9.41z M9.69,10.2l-0.13,0.13c-0.06,0.06-0.06,0.16,0,0.22
	c0.03,0.03,0.07,0.05,0.11,0.05s0.08-0.02,0.11-0.05l0.13-0.13c0.06-0.06,0.06-0.16,0-0.22S9.75,10.14,9.69,10.2L9.69,10.2z
	 M11.44,8.82c0.04,0,0.08-0.02,0.11-0.05l0.13-0.13c0.06-0.06,0.06-0.16,0-0.22s-0.16-0.06-0.22,0l-0.13,0.13
	c-0.06,0.06-0.06,0.16,0,0.22C11.36,8.81,11.4,8.82,11.44,8.82z M9.61,9.49c0-0.08-0.07-0.15-0.15-0.15H9.28
	c-0.09,0-0.15,0.07-0.15,0.15c0,0.09,0.07,0.15,0.15,0.15h0.18C9.55,9.64,9.61,9.57,9.61,9.49z M11.62,9.49
	c0,0.08,0.07,0.15,0.15,0.15h0.18c0.09,0,0.15-0.07,0.15-0.15c0-0.08-0.07-0.15-0.15-0.15h-0.18C11.69,9.33,11.62,9.4,11.62,9.49z
	 M9.69,8.78C9.72,8.81,9.76,8.82,9.8,8.82s0.08-0.02,0.11-0.05c0.06-0.06,0.06-0.16,0-0.22L9.78,8.43c-0.06-0.06-0.16-0.06-0.22,0
	s-0.06,0.16,0,0.22L9.69,8.78L9.69,8.78z M10.62,8.48c0.09,0,0.15-0.07,0.15-0.15V8.15c0-0.09-0.07-0.15-0.15-0.15
	s-0.15,0.07-0.15,0.15v0.18C10.47,8.41,10.54,8.48,10.62,8.48z M10.62,10.49c-0.09,0-0.15,0.07-0.15,0.15v0.18
	c0,0.08,0.07,0.15,0.15,0.15s0.15-0.07,0.15-0.15v-0.18C10.77,10.56,10.7,10.49,10.62,10.49z M20.27,20.68
	c0.13,0,0.23-0.1,0.23-0.23v-3.5h0.29c0.08,0,0.15-0.07,0.15-0.15v-0.47c0-0.08-0.07-0.15-0.15-0.15H20.5v-1.89
	c0-0.13-0.1-0.23-0.23-0.23s-0.23,0.1-0.23,0.23v1.89h-0.29c-0.08,0-0.15,0.07-0.15,0.15v0.47c0,0.08,0.07,0.15,0.15,0.15h0.29v3.49
	C20.04,20.58,20.14,20.68,20.27,20.68z M19.9,16.49h0.73v0.16H19.9V16.49z M17.86,20.68c0.13,0,0.23-0.1,0.23-0.23v-1.98h0.29
	c0.08,0,0.15-0.07,0.15-0.15v-0.47c0-0.08-0.07-0.15-0.15-0.15h-0.29v-3.41c0-0.13-0.1-0.23-0.23-0.23s-0.23,0.1-0.23,0.23v3.41
	h-0.29c-0.08,0-0.15,0.07-0.15,0.15v0.47c0,0.08,0.07,0.15,0.15,0.15h0.29v1.98C17.63,20.58,17.74,20.68,17.86,20.68z M17.5,18.01
	h0.73v0.16H17.5V18.01z M15.46,20.68c0.13,0,0.23-0.1,0.23-0.23V18.1h0.29c0.09,0,0.15-0.07,0.15-0.15v-0.47
	c0-0.08-0.07-0.15-0.15-0.15h-0.29v-3.03c0-0.13-0.1-0.23-0.23-0.23s-0.23,0.1-0.23,0.23v3.03h-0.29c-0.09,0-0.15,0.07-0.15,0.15
	v0.47c0,0.08,0.07,0.15,0.15,0.15h0.29v2.35C15.23,20.58,15.33,20.68,15.46,20.68z M15.09,17.63h0.73v0.16h-0.73
	C15.09,17.8,15.09,17.63,15.09,17.63z M13.54,14.77H13.5c-0.02-0.12-0.07-0.23-0.13-0.32l0.02-0.02c0.06-0.06,0.06-0.16,0-0.22
	s-0.16-0.06-0.22,0l-0.02,0.02c-0.1-0.07-0.2-0.11-0.32-0.13v-0.03c0-0.09-0.07-0.15-0.15-0.15c-0.08,0-0.15,0.07-0.15,0.15v0.03
	c-0.12,0.02-0.23,0.07-0.32,0.13l-0.02-0.02c-0.06-0.06-0.16-0.06-0.22,0s-0.06,0.16,0,0.22l0.02,0.02c-0.07,0.1-0.11,0.2-0.13,0.32
	h-0.03c-0.09,0-0.15,0.07-0.15,0.15c0,0.09,0.07,0.15,0.15,0.15h0.03c0.02,0.12,0.07,0.23,0.13,0.32l-0.02,0.02
	c-0.06,0.06-0.06,0.16,0,0.22c0.03,0.03,0.07,0.05,0.11,0.05c0.04,0,0.08-0.02,0.11-0.04l0.02-0.02c0.1,0.07,0.2,0.11,0.32,0.13
	v0.03c0,0.09,0.07,0.15,0.15,0.15c0.09,0,0.15-0.07,0.15-0.15v-0.03c0.12-0.02,0.23-0.07,0.32-0.13l0.02,0.02
	c0.03,0.03,0.07,0.05,0.11,0.05c0.04,0,0.08-0.02,0.11-0.05c0.06-0.06,0.06-0.16,0-0.22l-0.02-0.02c0.07-0.1,0.11-0.2,0.13-0.32
	h0.03c0.09,0,0.15-0.07,0.15-0.15C13.69,14.84,13.62,14.77,13.54,14.77L13.54,14.77z M12.68,15.46c-0.15,0-0.28-0.06-0.38-0.16
	c0,0,0,0,0,0s0,0,0,0c-0.1-0.1-0.16-0.23-0.16-0.38s0.06-0.28,0.16-0.38c0,0,0,0,0,0s0,0,0,0c0.1-0.1,0.23-0.16,0.38-0.16
	s0.28,0.06,0.38,0.16c0,0,0,0,0,0s0,0,0,0c0.1,0.1,0.16,0.23,0.16,0.38C13.21,15.22,12.97,15.46,12.68,15.46z M10.54,14.77h-0.03
	c-0.02-0.12-0.07-0.23-0.13-0.32l0.02-0.02c0.06-0.06,0.06-0.16,0-0.22s-0.16-0.06-0.22,0l-0.02,0.02c-0.1-0.07-0.2-0.11-0.32-0.13
	v-0.03c0-0.09-0.07-0.15-0.15-0.15s-0.15,0.07-0.15,0.15v0.03c-0.12,0.02-0.23,0.07-0.32,0.13l-0.02-0.02
	c-0.06-0.06-0.16-0.06-0.22,0s-0.06,0.16,0,0.22l0.02,0.02c-0.07,0.1-0.11,0.2-0.13,0.32H8.82c-0.09,0-0.15,0.07-0.15,0.15
	c0,0.09,0.07,0.15,0.15,0.15h0.03c0.02,0.12,0.07,0.23,0.13,0.32l-0.02,0.02c-0.06,0.06-0.06,0.16,0,0.22
	c0.03,0.03,0.07,0.05,0.11,0.05s0.08-0.02,0.11-0.04l0.02-0.02c0.1,0.07,0.2,0.11,0.32,0.13v0.03c0,0.09,0.07,0.15,0.15,0.15
	s0.15-0.07,0.15-0.15v-0.03c0.12-0.02,0.23-0.07,0.32-0.13l0.02,0.02c0.03,0.03,0.07,0.05,0.11,0.05s0.08-0.02,0.11-0.05
	c0.06-0.06,0.06-0.16,0-0.22l-0.02-0.02c0.07-0.1,0.11-0.2,0.13-0.32h0.03c0.09,0,0.15-0.07,0.15-0.15S10.63,14.77,10.54,14.77
	L10.54,14.77z M9.68,15.46c-0.15,0-0.28-0.06-0.38-0.16l0,0c0,0,0,0,0,0c-0.1-0.1-0.16-0.23-0.16-0.38s0.06-0.28,0.16-0.38
	c0,0,0,0,0,0s0,0,0,0c0.1-0.1,0.23-0.16,0.38-0.16s0.28,0.06,0.38,0.16c0,0,0,0,0,0s0,0,0,0c0.1,0.1,0.16,0.23,0.16,0.38l0,0l0,0
	C10.22,15.22,9.98,15.46,9.68,15.46z M13.54,18.09c0.09,0,0.15-0.07,0.15-0.15c0-0.08-0.07-0.15-0.15-0.15H13.5
	c-0.02-0.12-0.07-0.23-0.13-0.32l0.02-0.02c0.06-0.06,0.06-0.16,0-0.22s-0.16-0.06-0.22,0l-0.02,0.02c-0.1-0.07-0.2-0.11-0.32-0.13
	v-0.03c0-0.08-0.07-0.15-0.15-0.15c-0.08,0-0.15,0.07-0.15,0.15v0.03c-0.12,0.02-0.23,0.07-0.32,0.13l-0.02-0.02
	c-0.06-0.06-0.16-0.06-0.22,0c-0.06,0.06-0.06,0.16,0,0.22l0.02,0.02c-0.07,0.1-0.11,0.2-0.13,0.32h-0.03
	c-0.09,0-0.15,0.07-0.15,0.15c0,0.08,0.07,0.15,0.15,0.15h0.03c0.02,0.12,0.07,0.23,0.13,0.32l-0.02,0.02
	c-0.06,0.06-0.06,0.16,0,0.22c0.03,0.03,0.07,0.05,0.11,0.05c0.04,0,0.08-0.01,0.11-0.05l0.02-0.02c0.1,0.07,0.2,0.11,0.32,0.13
	v0.03c0,0.08,0.07,0.15,0.15,0.15c0.09,0,0.15-0.07,0.15-0.15v-0.03c0.12-0.02,0.23-0.07,0.32-0.13l0.02,0.02
	c0.03,0.03,0.07,0.05,0.11,0.05c0.04,0,0.08-0.01,0.11-0.05c0.06-0.06,0.06-0.16,0-0.22l-0.02-0.02c0.07-0.1,0.11-0.21,0.13-0.32
	H13.54L13.54,18.09z M12.68,18.47c-0.15,0-0.28-0.06-0.38-0.16c0,0,0,0,0,0s0,0,0,0c-0.1-0.1-0.16-0.23-0.16-0.38
	s0.06-0.28,0.16-0.38c0,0,0,0,0,0s0,0,0,0c0.1-0.1,0.23-0.16,0.38-0.16s0.28,0.06,0.38,0.16c0,0,0,0,0,0s0,0,0,0
	c0.1,0.1,0.16,0.23,0.16,0.38C13.22,18.23,12.97,18.47,12.68,18.47L12.68,18.47z M10.54,17.78h-0.03c-0.02-0.12-0.07-0.23-0.13-0.32
	l0.02-0.02c0.06-0.06,0.06-0.16,0-0.22s-0.16-0.06-0.22,0l-0.02,0.02c-0.1-0.07-0.2-0.11-0.32-0.13v-0.03
	c0-0.08-0.07-0.15-0.15-0.15s-0.15,0.07-0.15,0.15v0.03c-0.12,0.02-0.23,0.07-0.32,0.13l-0.02-0.02c-0.06-0.06-0.16-0.06-0.22,0
	s-0.06,0.16,0,0.22l0.02,0.02c-0.07,0.1-0.11,0.2-0.13,0.32H8.82c-0.09,0-0.15,0.07-0.15,0.15c0,0.08,0.07,0.15,0.15,0.15h0.03
	c0.02,0.12,0.07,0.23,0.13,0.32l-0.02,0.02c-0.06,0.06-0.06,0.16,0,0.22c0.03,0.03,0.07,0.05,0.11,0.05s0.08-0.01,0.11-0.05
	l0.02-0.02c0.1,0.07,0.2,0.11,0.32,0.13v0.03c0,0.08,0.07,0.15,0.15,0.15s0.15-0.07,0.15-0.15v-0.03c0.12-0.02,0.23-0.07,0.32-0.13
	l0.02,0.02c0.03,0.03,0.07,0.05,0.11,0.05s0.08-0.01,0.11-0.05c0.06-0.06,0.06-0.16,0-0.22l-0.02-0.02c0.07-0.1,0.11-0.2,0.13-0.32
	h0.03c0.09,0,0.15-0.07,0.15-0.15C10.7,17.85,10.63,17.78,10.54,17.78L10.54,17.78z M9.68,18.47c-0.15,0-0.28-0.06-0.38-0.16
	c0,0,0,0,0,0s0,0,0,0c-0.1-0.1-0.16-0.23-0.16-0.38s0.06-0.28,0.16-0.38c0,0,0,0,0,0s0,0,0,0c0.1-0.1,0.23-0.16,0.38-0.16
	s0.28,0.06,0.38,0.16c0,0,0,0,0,0s0,0,0,0c0.1,0.1,0.16,0.23,0.16,0.38c0,0,0,0,0,0s0,0,0,0C10.22,18.24,9.98,18.48,9.68,18.47
	L9.68,18.47z M13.37,21.43c0.07-0.1,0.11-0.2,0.13-0.32h0.03c0.09,0,0.15-0.07,0.15-0.15c0-0.08-0.07-0.15-0.15-0.15H13.5
	c-0.02-0.12-0.07-0.23-0.13-0.32l0.02-0.02c0.06-0.06,0.06-0.16,0-0.22s-0.16-0.06-0.22,0l-0.02,0.02c-0.1-0.07-0.2-0.11-0.32-0.13
	v-0.03c0-0.08-0.07-0.15-0.15-0.15c-0.08,0-0.15,0.07-0.15,0.15v0.03c-0.12,0.02-0.23,0.07-0.32,0.13l-0.02-0.02
	c-0.06-0.06-0.16-0.06-0.22,0s-0.06,0.16,0,0.22l0.02,0.02c-0.07,0.1-0.11,0.21-0.13,0.32h-0.03c-0.09,0-0.15,0.07-0.15,0.15
	c0,0.08,0.07,0.15,0.15,0.15h0.03c0.02,0.12,0.07,0.23,0.13,0.32l-0.02,0.02c-0.06,0.06-0.06,0.16,0,0.22
	c0.03,0.03,0.07,0.05,0.11,0.05c0.04,0,0.08-0.01,0.11-0.05l0.02-0.02c0.1,0.07,0.2,0.11,0.32,0.13v0.03c0,0.08,0.07,0.15,0.15,0.15
	c0.09,0,0.15-0.07,0.15-0.15v-0.03c0.12-0.02,0.23-0.07,0.32-0.13l0.02,0.02c0.03,0.03,0.07,0.05,0.11,0.05
	c0.04,0,0.08-0.01,0.11-0.05c0.06-0.06,0.06-0.16,0-0.22L13.37,21.43L13.37,21.43z M12.68,21.49L12.68,21.49L12.68,21.49
	c-0.15,0-0.28-0.06-0.38-0.16c0,0,0,0,0,0s0,0,0,0c-0.1-0.1-0.16-0.23-0.16-0.38s0.06-0.28,0.16-0.38c0,0,0,0,0,0s0,0,0,0
	c0.1-0.1,0.23-0.16,0.38-0.16c0.15,0,0.28,0.06,0.38,0.16l0,0l0,0c0.1,0.1,0.16,0.23,0.16,0.38C13.21,21.25,12.97,21.49,12.68,21.49
	L12.68,21.49z M10.54,20.8h-0.03c-0.02-0.12-0.07-0.23-0.13-0.32l0.02-0.02c0.06-0.06,0.06-0.16,0-0.22s-0.16-0.06-0.22,0
	l-0.02,0.02c-0.1-0.07-0.2-0.11-0.32-0.13v-0.03c0-0.08-0.07-0.15-0.15-0.15s-0.15,0.07-0.15,0.15v0.03
	c-0.12,0.02-0.23,0.07-0.32,0.13l-0.02-0.02c-0.06-0.06-0.16-0.06-0.22,0s-0.06,0.16,0,0.22l0.02,0.02c-0.07,0.1-0.11,0.2-0.13,0.32
	H8.82c-0.09,0-0.15,0.07-0.15,0.15c0,0.08,0.07,0.15,0.15,0.15h0.03c0.02,0.12,0.07,0.23,0.13,0.32l-0.02,0.02
	c-0.06,0.06-0.06,0.16,0,0.22c0.03,0.03,0.07,0.05,0.11,0.05s0.08-0.01,0.11-0.05l0.02-0.02c0.1,0.07,0.2,0.11,0.32,0.13v0.03
	c0,0.08,0.07,0.15,0.15,0.15s0.15-0.07,0.15-0.15v-0.03c0.12-0.02,0.23-0.07,0.32-0.13l0.02,0.02c0.03,0.03,0.07,0.05,0.11,0.05
	s0.08-0.01,0.11-0.05c0.06-0.06,0.06-0.16,0-0.22l-0.02-0.02c0.07-0.1,0.11-0.2,0.13-0.32h0.03c0.09,0,0.15-0.07,0.15-0.15
	C10.7,20.87,10.63,20.8,10.54,20.8L10.54,20.8z M9.68,21.49L9.68,21.49L9.68,21.49c-0.15,0-0.28-0.06-0.38-0.16c0,0,0,0,0,0s0,0,0,0
	c-0.1-0.1-0.16-0.23-0.16-0.38s0.06-0.28,0.16-0.38c0,0,0,0,0,0s0,0,0,0c0.1-0.1,0.23-0.16,0.38-0.16c0.15,0,0.28,0.06,0.38,0.16
	l0,0l0,0c0.1,0.1,0.16,0.23,0.16,0.38c0,0,0,0,0,0s0,0,0,0C10.22,21.25,9.98,21.49,9.68,21.49z M22.5,14.14
	c-0.32,0-0.58,0.26-0.58,0.58c0,0.32,0.26,0.59,0.58,0.59c0.32,0,0.58-0.26,0.58-0.59C23.08,14.4,22.82,14.14,22.5,14.14z M22.5,15
	c-0.15,0-0.28-0.12-0.28-0.28c0-0.15,0.12-0.28,0.28-0.28s0.28,0.12,0.28,0.28C22.78,14.88,22.65,15,22.5,15z M22.5,15.91
	c-0.32,0-0.58,0.26-0.58,0.58c0,0.32,0.26,0.58,0.58,0.58c0.32,0,0.58-0.26,0.58-0.58C23.08,16.17,22.82,15.91,22.5,15.91z
	 M22.5,16.77c-0.15,0-0.28-0.12-0.28-0.28c0-0.15,0.12-0.28,0.28-0.28s0.28,0.12,0.28,0.28C22.78,16.64,22.65,16.77,22.5,16.77z
	 M22.5,17.67c-0.32,0-0.58,0.26-0.58,0.58s0.26,0.58,0.58,0.58c0.32,0,0.58-0.26,0.58-0.58S22.82,17.67,22.5,17.67z M22.5,18.53
	c-0.15,0-0.28-0.12-0.28-0.28s0.12-0.28,0.28-0.28s0.28,0.12,0.28,0.28S22.65,18.53,22.5,18.53z M22.5,19.44
	c-0.32,0-0.58,0.26-0.58,0.58s0.26,0.58,0.58,0.58c0.32,0,0.58-0.26,0.58-0.58S22.82,19.44,22.5,19.44z M22.5,20.3
	c-0.15,0-0.28-0.12-0.28-0.28s0.12-0.28,0.28-0.28s0.28,0.12,0.28,0.28S22.65,20.3,22.5,20.3z M22.88,12.93
	c0-0.08-0.07-0.15-0.15-0.15H9.14c-0.08,0-0.15,0.07-0.15,0.15c0,0.09,0.07,0.15,0.15,0.15h13.59
	C22.81,13.08,22.88,13.01,22.88,12.93z M9.03,23.26C9,23.29,8.99,23.33,8.99,23.37S9,23.45,9.03,23.48
	c0.03,0.03,0.07,0.05,0.11,0.05c0.04,0,0.08-0.02,0.11-0.05c0.03-0.03,0.05-0.07,0.05-0.11c0-0.04-0.02-0.08-0.05-0.11
	C9.19,23.2,9.09,23.2,9.03,23.26L9.03,23.26z M10.04,23.22c-0.08,0-0.15,0.07-0.15,0.15c0,0.08,0.07,0.15,0.15,0.15
	c0.09,0,0.15-0.07,0.15-0.15C10.2,23.28,10.13,23.22,10.04,23.22z M12.76,23.22c-0.09,0-0.15,0.07-0.15,0.15
	c0,0.08,0.07,0.15,0.15,0.15c0.09,0,0.15-0.07,0.15-0.15C12.91,23.28,12.85,23.22,12.76,23.22z M11.85,23.22
	c-0.08,0-0.15,0.07-0.15,0.15c0,0.08,0.07,0.15,0.15,0.15c0.09,0,0.15-0.07,0.15-0.15C12.01,23.28,11.94,23.22,11.85,23.22z
	 M10.95,23.22c-0.09,0-0.15,0.07-0.15,0.15c0,0.08,0.07,0.15,0.15,0.15c0.08,0,0.15-0.07,0.15-0.15
	C11.1,23.28,11.03,23.22,10.95,23.22z M16.38,23.22c-0.08,0-0.15,0.07-0.15,0.15c0,0.08,0.07,0.15,0.15,0.15
	c0.09,0,0.15-0.07,0.15-0.15C16.54,23.28,16.47,23.22,16.38,23.22z M14.57,23.22c-0.08,0-0.15,0.07-0.15,0.15
	c0,0.08,0.07,0.15,0.15,0.15c0.09,0,0.15-0.07,0.15-0.15C14.72,23.28,14.66,23.22,14.57,23.22z M19.1,23.22
	c-0.08,0-0.15,0.07-0.15,0.15c0,0.08,0.07,0.15,0.15,0.15c0.09,0,0.15-0.07,0.15-0.15C19.26,23.28,19.19,23.22,19.1,23.22z
	 M20.91,23.22c-0.08,0-0.15,0.07-0.15,0.15c0,0.08,0.07,0.15,0.15,0.15c0.09,0,0.15-0.07,0.15-0.15
	C21.07,23.28,21,23.22,20.91,23.22z M17.29,23.22c-0.09,0-0.15,0.07-0.15,0.15c0,0.08,0.07,0.15,0.15,0.15
	c0.09,0,0.15-0.07,0.15-0.15C17.44,23.28,17.38,23.22,17.29,23.22z M15.48,23.22c-0.09,0-0.15,0.07-0.15,0.15
	c0,0.08,0.07,0.15,0.15,0.15c0.08,0,0.15-0.07,0.15-0.15C15.63,23.28,15.56,23.22,15.48,23.22z M20.01,23.22
	c-0.09,0-0.15,0.07-0.15,0.15c0,0.08,0.07,0.15,0.15,0.15c0.08,0,0.15-0.07,0.15-0.15C20.16,23.28,20.09,23.22,20.01,23.22z
	 M13.67,23.22c-0.09,0-0.15,0.07-0.15,0.15c0,0.08,0.07,0.15,0.15,0.15c0.08,0,0.15-0.07,0.15-0.15
	C13.82,23.28,13.75,23.22,13.67,23.22z M21.82,23.22c-0.09,0-0.15,0.07-0.15,0.15c0,0.08,0.07,0.15,0.15,0.15
	c0.09,0,0.15-0.07,0.15-0.15C21.97,23.28,21.91,23.22,21.82,23.22z M18.2,23.22c-0.09,0-0.15,0.07-0.15,0.15
	c0,0.08,0.07,0.15,0.15,0.15c0.08,0,0.15-0.07,0.15-0.15C18.35,23.28,18.28,23.22,18.2,23.22z M22.62,23.26
	c-0.03,0.03-0.04,0.07-0.04,0.11s0.01,0.08,0.04,0.11c0.03,0.03,0.07,0.05,0.11,0.05c0.04,0,0.08-0.02,0.11-0.05
	s0.05-0.07,0.05-0.11c0-0.04-0.02-0.08-0.05-0.11C22.78,23.2,22.68,23.2,22.62,23.26L22.62,23.26z M9.03,24.18
	C9,24.2,8.99,24.25,8.99,24.28c0,0.04,0.02,0.08,0.04,0.11c0.03,0.03,0.07,0.04,0.11,0.04c0.04,0,0.08-0.02,0.11-0.04
	c0.03-0.03,0.05-0.07,0.05-0.11s-0.02-0.08-0.05-0.11C9.19,24.12,9.09,24.12,9.03,24.18z M13.67,24.13c-0.09,0-0.15,0.07-0.15,0.15
	c0,0.09,0.07,0.15,0.15,0.15c0.08,0,0.15-0.07,0.15-0.15C13.82,24.2,13.75,24.13,13.67,24.13z M20.01,24.13
	c-0.09,0-0.15,0.07-0.15,0.15c0,0.09,0.07,0.15,0.15,0.15c0.08,0,0.15-0.07,0.15-0.15C20.16,24.2,20.09,24.13,20.01,24.13z
	 M10.04,24.13c-0.08,0-0.15,0.07-0.15,0.15c0,0.09,0.07,0.15,0.15,0.15c0.09,0,0.15-0.07,0.15-0.15
	C10.2,24.2,10.13,24.13,10.04,24.13z M21.82,24.13c-0.09,0-0.15,0.07-0.15,0.15c0,0.09,0.07,0.15,0.15,0.15
	c0.09,0,0.15-0.07,0.15-0.15C21.97,24.2,21.91,24.13,21.82,24.13z M20.91,24.13c-0.08,0-0.15,0.07-0.15,0.15
	c0,0.09,0.07,0.15,0.15,0.15c0.09,0,0.15-0.07,0.15-0.15C21.07,24.2,21,24.13,20.91,24.13z M19.1,24.13c-0.08,0-0.15,0.07-0.15,0.15
	c0,0.09,0.07,0.15,0.15,0.15c0.09,0,0.15-0.07,0.15-0.15C19.26,24.2,19.19,24.13,19.1,24.13z M11.85,24.13
	c-0.08,0-0.15,0.07-0.15,0.15c0,0.09,0.07,0.15,0.15,0.15c0.09,0,0.15-0.07,0.15-0.15C12.01,24.2,11.94,24.13,11.85,24.13z
	 M10.95,24.13c-0.09,0-0.15,0.07-0.15,0.15c0,0.09,0.07,0.15,0.15,0.15c0.08,0,0.15-0.07,0.15-0.15
	C11.1,24.2,11.03,24.13,10.95,24.13z M18.2,24.13c-0.09,0-0.15,0.07-0.15,0.15c0,0.09,0.07,0.15,0.15,0.15
	c0.08,0,0.15-0.07,0.15-0.15C18.35,24.2,18.28,24.13,18.2,24.13z M12.76,24.13c-0.09,0-0.15,0.07-0.15,0.15
	c0,0.09,0.07,0.15,0.15,0.15c0.09,0,0.15-0.07,0.15-0.15C12.91,24.2,12.85,24.13,12.76,24.13z M14.57,24.13
	c-0.08,0-0.15,0.07-0.15,0.15c0,0.09,0.07,0.15,0.15,0.15c0.09,0,0.15-0.07,0.15-0.15C14.72,24.2,14.66,24.13,14.57,24.13z
	 M16.38,24.13c-0.08,0-0.15,0.07-0.15,0.15c0,0.09,0.07,0.15,0.15,0.15c0.09,0,0.15-0.07,0.15-0.15
	C16.54,24.2,16.47,24.13,16.38,24.13z M15.48,24.13c-0.09,0-0.15,0.07-0.15,0.15c0,0.09,0.07,0.15,0.15,0.15
	c0.08,0,0.15-0.07,0.15-0.15C15.63,24.2,15.56,24.13,15.48,24.13z M17.29,24.13c-0.09,0-0.15,0.07-0.15,0.15
	c0,0.09,0.07,0.15,0.15,0.15c0.09,0,0.15-0.07,0.15-0.15C17.44,24.2,17.38,24.13,17.29,24.13z M22.62,24.18
	c-0.03,0.03-0.04,0.07-0.04,0.11c0,0.04,0.01,0.08,0.04,0.11c0.03,0.03,0.07,0.04,0.11,0.04c0.04,0,0.08-0.02,0.11-0.04
	c0.03-0.03,0.05-0.07,0.05-0.11s-0.02-0.08-0.05-0.11C22.78,24.12,22.68,24.12,22.62,24.18z M22.88,21.91
	c0-0.08-0.07-0.15-0.15-0.15h-7.89c-0.09,0-0.15,0.07-0.15,0.15c0,0.08,0.07,0.15,0.15,0.15h7.89
	C22.81,22.06,22.88,21.99,22.88,21.91z"/>
</svg>
