<?xml version="1.0" encoding="utf-8"?>
<!-- Generator: Adobe Illustrator 21.1.0, SVG Export Plug-In . SVG Version: 6.00 Build 0)  -->
<!DOCTYPE svg PUBLIC "-//W3C//DTD SVG 1.1//EN" "http://www.w3.org/Graphics/SVG/1.1/DTD/svg11.dtd">
<svg version="1.1" id="Layer_1" xmlns="http://www.w3.org/2000/svg" xmlns:xlink="http://www.w3.org/1999/xlink" x="0px" y="0px"
	 viewBox="0 0 32 32" style="enable-background:new 0 0 32 32;" xml:space="preserve">
<path d="M20.72,17.58h-1.6c-0.04,0-0.08,0.01-0.1,0.04c-0.03,0.03-0.04,0.07-0.04,0.1l0,1.31c0,0.06,0.03,0.11,0.08,0.13l0.8,0.37
	c0.02,0.01,0.04,0.01,0.06,0.01s0.04,0,0.06-0.01l0.8-0.36c0.05-0.02,0.09-0.08,0.09-0.13v-1.32
	C20.87,17.65,20.81,17.58,20.72,17.58L20.72,17.58z M20.58,18.95l-0.65,0.29l-0.66-0.31v-1.07h1.31V18.95z M18.42,8.58
	c-1.43,0-2.59,1.16-2.59,2.59c0,1.43,1.16,2.59,2.59,2.59s2.59-1.16,2.59-2.59S19.85,8.58,18.42,8.58z M18.42,13.32
	c-1.19,0-2.15-0.97-2.15-2.15s0.97-2.15,2.15-2.15s2.15,0.97,2.15,2.15S19.61,13.32,18.42,13.32z M24.69,11.57
	c-0.86-2.81-3.48-4.75-6.42-4.75c-2.96,0-5.55,1.93-6.42,4.72c-0.48-0.17-0.98-0.26-1.5-0.26c-2.09,0-3.89,1.44-4.36,3.45
	c-1.87,0.07-3.44,1.37-3.86,3.2c-0.02,0.08,0,0.17,0.05,0.24s0.13,0.1,0.22,0.1c0,0,8.94,0,10.55,0c-0.01,0.47,0.01,0.92,0.02,1.32
	c0.01,0.19,0.02,0.37,0.02,0.52c0.03,1.69,0.62,2.3,1.84,3.18v0.76c0,0.04,0.01,0.08,0.03,0.12c0.06,0.09,0.68,0.92,3.66,0.99
	c0.1,0,0.21,0,0.31,0c2.67,0,3.16-0.92,3.21-1.02c0.01-0.03,0.02-0.06,0.02-0.09v-0.61c1.31-0.94,1.82-1.49,1.85-3.34
	c0-0.17,0.01-0.35,0.02-0.55c0.02-0.38,0.04-0.82,0.03-1.29h4.83c0.14,0,0.25-0.1,0.27-0.23c0.06-0.34,0.09-0.66,0.09-0.96
	C29.14,14.42,27.28,12.13,24.69,11.57L24.69,11.57z M23.48,19.55c-0.01,0.21-0.02,0.4-0.02,0.57c-0.03,1.54-0.38,2.03-1.41,2.8v-5
	c0-0.12-0.1-0.22-0.22-0.22c-0.12,0-0.22,0.1-0.22,0.22V24c-0.12,0.15-0.74,0.79-3.08,0.73c-2.37-0.06-3.11-0.6-3.27-0.75v-5.96
	c0-0.12-0.1-0.22-0.22-0.22s-0.22,0.1-0.22,0.22v4.74c-0.97-0.73-1.38-1.26-1.4-2.64c0-0.16-0.01-0.34-0.02-0.53
	c-0.05-1.22-0.13-3.06,0.9-4.13c0.58-0.6,1.47-0.91,2.63-0.91h3.05c1.17,0,2.05,0.3,2.62,0.9C23.62,16.51,23.54,18.34,23.48,19.55
	L23.48,19.55z M28.54,17.73h-4.62c-0.08-0.93-0.33-1.88-0.99-2.58c-0.66-0.69-1.65-1.04-2.94-1.04h-3.05c-1.3,0-2.29,0.35-2.95,1.04
	c-0.67,0.7-0.92,1.65-1.01,2.58H2.76c0.48-1.45,1.82-2.43,3.39-2.43h0l0.04,0c0.14,0.01,0.26-0.09,0.28-0.23
	c0.34-1.87,1.96-3.23,3.86-3.23c0.51,0,1,0.1,1.47,0.29c0.29,0.14,0.91,0.5,1.3,1.15c0.05,0.08,0.13,0.11,0.22,0.1
	c0.02-0.01,0.05-0.01,0.07-0.03c0.1-0.06,0.13-0.19,0.07-0.29c-0.33-0.55-0.8-0.92-1.16-1.14c0.72-2.68,3.16-4.55,5.95-4.55
	c2.68,0,5.04,1.71,5.85,4.25c-0.72-0.01-1.25,0.26-1.29,0.27c-0.11,0.04-0.16,0.17-0.11,0.27c0.04,0.11,0.17,0.16,0.27,0.11
	c0.01,0,0.75-0.3,1.58-0.16c2.33,0.51,4.01,2.57,4.01,4.97C28.58,17.3,28.57,17.5,28.54,17.73L28.54,17.73z"/>
</svg>
