<?xml version="1.0" encoding="utf-8"?>
<!-- Generator: Adobe Illustrator 21.1.0, SVG Export Plug-In . SVG Version: 6.00 Build 0)  -->
<!DOCTYPE svg PUBLIC "-//W3C//DTD SVG 1.1//EN" "http://www.w3.org/Graphics/SVG/1.1/DTD/svg11.dtd">
<svg version="1.1" id="Layer_1" xmlns="http://www.w3.org/2000/svg" xmlns:xlink="http://www.w3.org/1999/xlink" x="0px" y="0px"
	 viewBox="0 0 32 32" style="enable-background:new 0 0 32 32;" xml:space="preserve">
<style type="text/css">
	.st0{fill:#010101;}
</style>
<g>
	<path class="st0" d="M7.32,12.68c0.03,0,0.05-0.01,0.08-0.02c0.18-0.07,0.37-0.15,0.56-0.23c0.11-0.05,0.17-0.18,0.12-0.29
		c-0.05-0.11-0.18-0.17-0.29-0.12c-0.18,0.08-0.37,0.15-0.55,0.22c-0.11,0.05-0.17,0.17-0.12,0.29C7.14,12.63,7.23,12.68,7.32,12.68
		z"/>
	<path class="st0" d="M8.7,12.11c0.03,0,0.06-0.01,0.09-0.02c0.2-0.09,0.39-0.17,0.55-0.24c0.11-0.05,0.16-0.18,0.11-0.29
		c-0.05-0.11-0.18-0.16-0.29-0.11c-0.16,0.07-0.35,0.15-0.55,0.24c-0.11,0.05-0.16,0.18-0.12,0.29C8.53,12.06,8.61,12.11,8.7,12.11z
		"/>
	<path class="st0" d="M11.57,11.45h0.6c0.12,0,0.22-0.1,0.22-0.22c0-0.12-0.1-0.22-0.22-0.22h-0.6c-0.12,0-0.22,0.1-0.22,0.22
		C11.35,11.35,11.45,11.45,11.57,11.45z"/>
	<path class="st0" d="M10.08,11.54c0.02,0,0.03,0,0.05-0.01c0.15-0.03,0.34-0.05,0.56-0.07c0.12-0.01,0.22-0.11,0.21-0.23
		c-0.01-0.12-0.11-0.22-0.23-0.21c-0.25,0.01-0.46,0.04-0.63,0.08c-0.12,0.03-0.2,0.14-0.17,0.26C9.88,11.47,9.97,11.54,10.08,11.54
		z"/>
	<path class="st0" d="M5.79,19.27c0.12,0,0.22-0.11,0.21-0.23c0-0.07-0.01-0.15-0.01-0.22v-0.37c0-0.12-0.1-0.22-0.22-0.22
		c-0.12,0-0.22,0.1-0.22,0.22v0.37c0,0.08,0,0.16,0.01,0.24c0.01,0.12,0.1,0.21,0.22,0.21C5.78,19.27,5.78,19.27,5.79,19.27z"/>
	<path class="st0" d="M5.77,14.88c0.12,0,0.22-0.1,0.22-0.22l0-0.19c0-0.13,0-0.26,0.01-0.39c0.01-0.12-0.08-0.23-0.2-0.24
		c-0.12-0.01-0.23,0.08-0.24,0.2c-0.01,0.14-0.01,0.28-0.01,0.42l0,0.19C5.55,14.78,5.65,14.88,5.77,14.88z"/>
	<path class="st0" d="M6.38,12.63c-0.21,0.13-0.38,0.28-0.5,0.46c-0.07,0.1-0.05,0.24,0.05,0.31c0.04,0.03,0.08,0.04,0.13,0.04
		c0.07,0,0.14-0.03,0.18-0.09c0.09-0.13,0.22-0.24,0.37-0.34c0.1-0.06,0.14-0.2,0.07-0.31C6.62,12.6,6.48,12.56,6.38,12.63z"/>
	<path class="st0" d="M6.15,19.84c-0.05-0.11-0.17-0.17-0.29-0.13c-0.11,0.05-0.17,0.17-0.13,0.29c0.09,0.23,0.22,0.43,0.38,0.58
		c0.04,0.04,0.1,0.06,0.15,0.06c0.06,0,0.12-0.02,0.16-0.07c0.08-0.09,0.08-0.23-0.01-0.31C6.3,20.15,6.21,20.01,6.15,19.84z"/>
	<path class="st0" d="M5.99,15.46c0-0.12-0.1-0.22-0.22-0.22c-0.12,0-0.22,0.1-0.22,0.22v0.6c0,0.12,0.1,0.22,0.22,0.22
		c0.12,0,0.22-0.1,0.22-0.22V15.46z"/>
	<path class="st0" d="M5.77,16.73c-0.12,0-0.22,0.1-0.22,0.22v0.6c0,0.12,0.1,0.22,0.22,0.22c0.12,0,0.22-0.1,0.22-0.22v-0.6
		C5.99,16.83,5.89,16.73,5.77,16.73z"/>
	<path class="st0" d="M7.68,20.55H7.32c-0.08,0-0.15,0-0.22-0.01c-0.12-0.01-0.23,0.08-0.24,0.2s0.08,0.23,0.2,0.24
		c0.09,0.01,0.17,0.01,0.27,0.01h0.36c0.12,0,0.22-0.1,0.22-0.22C7.9,20.65,7.8,20.55,7.68,20.55z"/>
	<path class="st0" d="M23.35,11.98l0.54,0.26c0.03,0.02,0.07,0.02,0.1,0.02c0.08,0,0.16-0.05,0.2-0.12c0.05-0.11,0.01-0.24-0.1-0.3
		l-0.54-0.26c-0.11-0.05-0.24-0.01-0.3,0.1C23.2,11.79,23.24,11.93,23.35,11.98z"/>
	<path class="st0" d="M20.57,11.45h0.6c0.12,0,0.22-0.1,0.22-0.22c0-0.12-0.1-0.22-0.22-0.22h-0.6c-0.12,0-0.22,0.1-0.22,0.22
		C20.35,11.35,20.44,11.45,20.57,11.45z"/>
	<path class="st0" d="M22.05,11.46c0.17,0.01,0.29,0.04,0.5,0.14c0.03,0.01,0.06,0.02,0.09,0.02c0.08,0,0.17-0.05,0.2-0.13
		c0.05-0.11,0-0.24-0.11-0.29c-0.22-0.1-0.39-0.16-0.65-0.17c-0.12-0.01-0.23,0.09-0.24,0.21C21.84,11.34,21.93,11.45,22.05,11.46z"
		/>
	<path class="st0" d="M24.69,12.64c0.2,0.1,0.39,0.2,0.53,0.27c0.03,0.02,0.07,0.03,0.1,0.03c0.08,0,0.16-0.04,0.2-0.12
		c0.06-0.11,0.02-0.24-0.09-0.3c-0.14-0.07-0.33-0.17-0.54-0.28c-0.11-0.06-0.24-0.01-0.3,0.1C24.54,12.45,24.58,12.59,24.69,12.64z
		"/>
	<path class="st0" d="M25.98,13.89c0.02,0.11,0.11,0.19,0.22,0.19c0.01,0,0.02,0,0.04,0c0.12-0.02,0.2-0.14,0.18-0.26
		c-0.04-0.24-0.12-0.45-0.23-0.64c-0.06-0.1-0.2-0.14-0.31-0.07c-0.1,0.06-0.14,0.2-0.07,0.31C25.89,13.54,25.95,13.7,25.98,13.89z"
		/>
	<path class="st0" d="M17.57,11.45h0.6c0.12,0,0.22-0.1,0.22-0.22c0-0.12-0.1-0.22-0.22-0.22h-0.6c-0.12,0-0.22,0.1-0.22,0.22
		C17.35,11.35,17.45,11.45,17.57,11.45z"/>
	<path class="st0" d="M14.57,11.45h0.6c0.12,0,0.22-0.1,0.22-0.22c0-0.12-0.1-0.22-0.22-0.22h-0.6c-0.12,0-0.22,0.1-0.22,0.22
		C14.35,11.35,14.45,11.45,14.57,11.45z"/>
	<path class="st0" d="M16.07,11.45h0.6c0.12,0,0.22-0.1,0.22-0.22c0-0.12-0.1-0.22-0.22-0.22h-0.6c-0.12,0-0.22,0.1-0.22,0.22
		C15.85,11.35,15.95,11.45,16.07,11.45z"/>
	<path class="st0" d="M19.07,11.45h0.6c0.12,0,0.22-0.1,0.22-0.22c0-0.12-0.1-0.22-0.22-0.22h-0.6c-0.12,0-0.22,0.1-0.22,0.22
		C18.85,11.35,18.94,11.45,19.07,11.45z"/>
	<path class="st0" d="M13.07,11.45h0.6c0.12,0,0.22-0.1,0.22-0.22c0-0.12-0.1-0.22-0.22-0.22h-0.6c-0.12,0-0.22,0.1-0.22,0.22
		C12.85,11.35,12.95,11.45,13.07,11.45z"/>
	<path class="st0" d="M26.23,17.52c-0.12,0-0.22,0.1-0.22,0.22v0.6c0,0.12,0.1,0.22,0.22,0.22c0.12,0,0.22-0.1,0.22-0.22v-0.6
		C26.45,17.61,26.35,17.52,26.23,17.52z"/>
	<path class="st0" d="M24.18,20.55h-0.6c-0.12,0-0.22,0.1-0.22,0.22c0,0.12,0.1,0.22,0.22,0.22h0.6c0.12,0,0.22-0.1,0.22-0.22
		C24.4,20.65,24.3,20.55,24.18,20.55z"/>
	<path class="st0" d="M25.49,20.36c-0.14,0.11-0.29,0.17-0.43,0.18c-0.12,0.01-0.21,0.12-0.2,0.24c0.01,0.11,0.11,0.2,0.22,0.2
		c0.01,0,0.01,0,0.02,0c0.22-0.02,0.45-0.11,0.66-0.27c0.1-0.08,0.11-0.21,0.04-0.31C25.73,20.31,25.58,20.29,25.49,20.36z"/>
	<path class="st0" d="M22.67,20.55h-0.6c-0.12,0-0.22,0.1-0.22,0.22c0,0.12,0.1,0.22,0.22,0.22h0.6c0.12,0,0.22-0.1,0.22-0.22
		C22.9,20.65,22.8,20.55,22.67,20.55z"/>
	<path class="st0" d="M26.23,16.02c-0.12,0-0.22,0.1-0.22,0.22v0.6c0,0.12,0.1,0.22,0.22,0.22c0.12,0,0.22-0.1,0.22-0.22v-0.6
		C26.45,16.12,26.35,16.02,26.23,16.02z"/>
	<path class="st0" d="M26.23,14.52c-0.12,0-0.22,0.1-0.22,0.22v0.6c0,0.12,0.1,0.22,0.22,0.22c0.12,0,0.22-0.1,0.22-0.22v-0.6
		C26.45,14.62,26.35,14.52,26.23,14.52z"/>
	<path class="st0" d="M9.18,20.55h-0.6c-0.12,0-0.22,0.1-0.22,0.22c0,0.12,0.1,0.22,0.22,0.22h0.6c0.12,0,0.22-0.1,0.22-0.22
		C9.4,20.65,9.3,20.55,9.18,20.55z"/>
	<path class="st0" d="M21.17,20.55h-0.6c-0.12,0-0.22,0.1-0.22,0.22c0,0.12,0.1,0.22,0.22,0.22h0.6c0.12,0,0.22-0.1,0.22-0.22
		C21.4,20.65,21.3,20.55,21.17,20.55z"/>
	<path class="st0" d="M26.23,19.01c-0.12,0-0.22,0.1-0.22,0.22v0.19c0,0.09-0.02,0.2-0.07,0.32c-0.04,0.11,0.01,0.24,0.13,0.29
		c0.03,0.01,0.05,0.01,0.08,0.01c0.09,0,0.17-0.05,0.21-0.14c0.06-0.17,0.09-0.33,0.09-0.48v-0.19
		C26.45,19.11,26.35,19.01,26.23,19.01z"/>
	<path class="st0" d="M19.67,20.55h-0.6c-0.12,0-0.22,0.1-0.22,0.22c0,0.12,0.1,0.22,0.22,0.22h0.6c0.12,0,0.22-0.1,0.22-0.22
		C19.9,20.65,19.8,20.55,19.67,20.55z"/>
	<path class="st0" d="M12.18,20.55h-0.6c-0.12,0-0.22,0.1-0.22,0.22c0,0.12,0.1,0.22,0.22,0.22h0.6c0.12,0,0.22-0.1,0.22-0.22
		C12.4,20.65,12.3,20.55,12.18,20.55z"/>
	<path class="st0" d="M15.18,20.55h-0.6c-0.12,0-0.22,0.1-0.22,0.22c0,0.12,0.1,0.22,0.22,0.22h0.6c0.12,0,0.22-0.1,0.22-0.22
		C15.4,20.65,15.3,20.55,15.18,20.55z"/>
	<path class="st0" d="M10.68,20.55h-0.6c-0.12,0-0.22,0.1-0.22,0.22c0,0.12,0.1,0.22,0.22,0.22h0.6c0.12,0,0.22-0.1,0.22-0.22
		C10.9,20.65,10.8,20.55,10.68,20.55z"/>
	<path class="st0" d="M13.68,20.55h-0.6c-0.12,0-0.22,0.1-0.22,0.22c0,0.12,0.1,0.22,0.22,0.22h0.6c0.12,0,0.22-0.1,0.22-0.22
		C13.9,20.65,13.8,20.55,13.68,20.55z"/>
	<path class="st0" d="M16.68,20.55h-0.6c-0.12,0-0.22,0.1-0.22,0.22c0,0.12,0.1,0.22,0.22,0.22h0.6c0.12,0,0.22-0.1,0.22-0.22
		C16.9,20.65,16.8,20.55,16.68,20.55z"/>
	<path class="st0" d="M18.18,20.55h-0.6c-0.12,0-0.22,0.1-0.22,0.22c0,0.12,0.1,0.22,0.22,0.22h0.6c0.12,0,0.22-0.1,0.22-0.22
		C18.4,20.65,18.3,20.55,18.18,20.55z"/>
	<path class="st0" d="M25.15,19.33v-5.12v-0.15c0-0.11-0.06-0.22-0.16-0.27l-2.78-1.39c-0.04-0.02-0.09-0.03-0.13-0.03H10.43
		c-0.04,0-0.08,0.01-0.12,0.02l-3.24,1.4c-0.11,0.05-0.18,0.15-0.18,0.27v0.15v5.12c0,0.16,0.13,0.3,0.3,0.3h17.66
		C25.02,19.63,25.15,19.5,25.15,19.33z M10.49,12.96H22l1.9,0.95H8.27L10.49,12.96z M24.56,19.04H7.49v-4.53h17.07L24.56,19.04
		L24.56,19.04z"/>
	<circle class="st0" cx="9.07" cy="16.78" r="0.44"/>
	<circle class="st0" cx="10.55" cy="16.78" r="0.44"/>
	<path class="st0" d="M20.78,18.11h0.93c0.08,0,0.15-0.07,0.15-0.15v-2.42c0-0.08-0.07-0.15-0.15-0.15h-0.93
		c-0.08,0-0.15,0.07-0.15,0.15v2.42C20.63,18.05,20.69,18.11,20.78,18.11z M20.92,15.69h0.64v2.12h-0.64V15.69z"/>
	<path class="st0" d="M22.6,18.11h0.93c0.08,0,0.15-0.07,0.15-0.15v-2.42c0-0.08-0.07-0.15-0.15-0.15H22.6
		c-0.08,0-0.15,0.07-0.15,0.15v2.42C22.45,18.05,22.52,18.11,22.6,18.11z M22.75,15.69h0.64v2.12h-0.64V15.69z"/>
</g>
</svg>
