<?xml version="1.0" encoding="utf-8"?>
<!-- Generator: Adobe Illustrator 21.1.0, SVG Export Plug-In . SVG Version: 6.00 Build 0)  -->
<!DOCTYPE svg PUBLIC "-//W3C//DTD SVG 1.1//EN" "http://www.w3.org/Graphics/SVG/1.1/DTD/svg11.dtd">
<svg version="1.1" id="Layer_1" xmlns="http://www.w3.org/2000/svg" xmlns:xlink="http://www.w3.org/1999/xlink" x="0px" y="0px"
	 viewBox="0 0 32 32" style="enable-background:new 0 0 32 32;" xml:space="preserve">
<style type="text/css">
	.st0{fill:#010101;}
</style>
<g>
	<path class="st0" d="M15.12,15.19H10.3c-0.57,0-1.03-0.46-1.03-1.03v-2.99c0-0.57,0.46-1.03,1.03-1.03h4.82
		c0.57,0,1.03,0.46,1.03,1.03v2.99C16.15,14.73,15.69,15.19,15.12,15.19z M10.3,10.43c-0.4,0-0.73,0.33-0.73,0.73v2.99
		c0,0.4,0.33,0.73,0.73,0.73h4.82c0.4,0,0.73-0.33,0.73-0.73v-2.99c0-0.4-0.33-0.73-0.73-0.73H10.3z"/>
	<path class="st0" d="M22.92,11.38h-5.78c-0.08,0-0.15-0.07-0.15-0.15s0.07-0.15,0.15-0.15h5.78c0.08,0,0.15,0.07,0.15,0.15
		C23.07,11.31,23.01,11.38,22.92,11.38z"/>
	<path class="st0" d="M22.92,12.81h-5.78c-0.08,0-0.15-0.07-0.15-0.15s0.07-0.15,0.15-0.15h5.78c0.08,0,0.15,0.07,0.15,0.15
		S23.01,12.81,22.92,12.81z"/>
	<path class="st0" d="M22.92,14.25h-5.78c-0.08,0-0.15-0.07-0.15-0.15s0.07-0.15,0.15-0.15h5.78c0.08,0,0.15,0.07,0.15,0.15
		C23.07,14.18,23.01,14.25,22.92,14.25z"/>
	<path class="st0" d="M12.71,14.23c-0.89,0-1.61-0.72-1.61-1.61S11.82,11,12.71,11c0.89,0,1.61,0.72,1.61,1.61
		S13.6,14.23,12.71,14.23z M12.71,11.3c-0.73,0-1.32,0.59-1.32,1.32s0.59,1.32,1.32,1.32c0.73,0,1.32-0.59,1.32-1.32
		S13.44,11.3,12.71,11.3z"/>
	<path class="st0" d="M12.26,13.39c-0.03,0-0.05-0.01-0.08-0.02c-0.04-0.03-0.07-0.07-0.07-0.13v-1.25c0-0.05,0.03-0.1,0.07-0.13
		s0.1-0.03,0.14-0.01l1.23,0.62c0.05,0.02,0.08,0.08,0.08,0.13c0,0.06-0.03,0.11-0.08,0.13l-1.23,0.63
		C12.3,13.39,12.28,13.39,12.26,13.39z M12.41,12.23V13l0.76-0.39L12.41,12.23z"/>
	<path d="M24.54,18.86H7.7c-0.65,0-1.18-0.53-1.18-1.18V7.16c0-0.65,0.53-1.18,1.18-1.18h16.84c0.65,0,1.19,0.53,1.19,1.18v10.52
		C25.73,18.33,25.2,18.86,24.54,18.86z M7.7,6.57c-0.33,0-0.59,0.27-0.59,0.59v10.52c0,0.33,0.27,0.59,0.59,0.59h16.84
		c0.33,0,0.59-0.27,0.59-0.59V7.16c0-0.33-0.27-0.59-0.59-0.59L7.7,6.57L7.7,6.57z"/>
	<path d="M23.63,17.55H8.61c-0.41,0-0.74-0.33-0.74-0.74V8.03c0-0.41,0.33-0.74,0.74-0.74h15.02c0.41,0,0.74,0.33,0.74,0.74v8.78
		C24.37,17.21,24.04,17.55,23.63,17.55z M8.61,7.59c-0.24,0-0.44,0.2-0.44,0.44v8.78c0,0.25,0.2,0.44,0.44,0.44h15.02
		c0.25,0,0.44-0.2,0.44-0.44V8.03c0-0.24-0.2-0.44-0.44-0.44H8.61z"/>
	<path d="M20.68,20.17h-9.23c-0.16,0-0.3-0.13-0.3-0.3c0-0.16,0.13-0.3,0.3-0.3h9.23c0.16,0,0.3,0.13,0.3,0.3
		C20.98,20.03,20.85,20.17,20.68,20.17z"/>
	<path d="M13.48,20.13c-0.16,0-0.3-0.13-0.3-0.3v-1.26c0-0.16,0.13-0.3,0.3-0.3c0.16,0,0.3,0.13,0.3,0.3v1.26
		C13.78,20,13.64,20.13,13.48,20.13z"/>
	<path d="M18.73,20.13c-0.16,0-0.3-0.13-0.3-0.3v-1.26c0-0.16,0.13-0.3,0.3-0.3c0.16,0,0.3,0.13,0.3,0.3v1.26
		C19.02,20,18.89,20.13,18.73,20.13z"/>
	<path d="M11.45,21.43c-0.16,0-0.3-0.13-0.3-0.3v-1.26c0-0.16,0.13-0.3,0.3-0.3c0.16,0,0.3,0.13,0.3,0.3v1.26
		C11.74,21.3,11.61,21.43,11.45,21.43z"/>
	<path d="M20.68,21.43c-0.16,0-0.3-0.13-0.3-0.3v-1.26c0-0.16,0.13-0.3,0.3-0.3c0.16,0,0.3,0.13,0.3,0.3v1.26
		C20.98,21.3,20.85,21.43,20.68,21.43z"/>
	<path d="M26.72,26.03H5.28c-0.25,0-0.49-0.1-0.67-0.28c-0.18-0.18-0.28-0.42-0.28-0.67s0.1-0.49,0.28-0.67l2.41-2.48
		c0.06-0.61,0.58-1.09,1.21-1.09h15.54c0.63,0,1.15,0.48,1.21,1.09l2.41,2.49c0.18,0.18,0.27,0.41,0.27,0.67s-0.1,0.49-0.28,0.67
		C27.21,25.93,26.98,26.03,26.72,26.03z M8.23,21.43c-0.34,0-0.62,0.28-0.62,0.62c0,0.08-0.03,0.15-0.08,0.21l-2.49,2.57
		c-0.07,0.07-0.11,0.16-0.11,0.25s0.04,0.18,0.1,0.25s0.16,0.1,0.25,0.1h21.44c0.1,0,0.18-0.04,0.25-0.1
		c0.07-0.07,0.1-0.16,0.1-0.25s-0.04-0.18-0.1-0.25l-2.49-2.57c-0.05-0.06-0.08-0.13-0.08-0.21c0-0.34-0.28-0.62-0.62-0.62H8.23z"/>
	<path class="st0" d="M23.71,22.32H8.31c-0.08,0-0.15-0.07-0.15-0.15s0.07-0.15,0.15-0.15h15.4c0.08,0,0.15,0.07,0.15,0.15
		S23.79,22.32,23.71,22.32z"/>
	<path class="st0" d="M24.32,23.35H7.69c-0.08,0-0.15-0.07-0.15-0.15s0.07-0.15,0.15-0.15h16.63c0.08,0,0.15,0.07,0.15,0.15
		S24.4,23.35,24.32,23.35z"/>
	<path class="st0" d="M25.24,24.39H6.77c-0.08,0-0.15-0.07-0.15-0.15s0.07-0.15,0.15-0.15h18.47c0.08,0,0.15,0.07,0.15,0.15
		S25.32,24.39,25.24,24.39z"/>
</g>
</svg>
