<?xml version="1.0" encoding="utf-8"?>
<!-- Generator: Adobe Illustrator 21.1.0, SVG Export Plug-In . SVG Version: 6.00 Build 0)  -->
<!DOCTYPE svg PUBLIC "-//W3C//DTD SVG 1.1//EN" "http://www.w3.org/Graphics/SVG/1.1/DTD/svg11.dtd">
<svg version="1.1" id="Layer_1" xmlns="http://www.w3.org/2000/svg" xmlns:xlink="http://www.w3.org/1999/xlink" x="0px" y="0px"
	 viewBox="0 0 31.68 31.68" style="enable-background:new 0 0 31.68 31.68;" xml:space="preserve">
<g>
	<g>
		<g>
			<path d="M5.58,20.47c-0.17-0.02-0.32,0.1-0.34,0.27C5.2,21.03,5.2,21.21,5.2,21.22c0,0.17,0.13,0.31,0.3,0.31c0,0,0,0,0,0
				c0.17,0,0.3-0.13,0.3-0.3c0,0,0-0.16,0.03-0.42C5.86,20.64,5.74,20.49,5.58,20.47z"/>
			<path d="M21.92,21.92c-0.25,0.13-0.51,0.23-0.79,0.31c-0.16,0.05-0.26,0.21-0.21,0.38c0.04,0.13,0.16,0.22,0.29,0.22
				c0.03,0,0.06,0,0.08-0.01c0.32-0.09,0.62-0.21,0.9-0.35c0.15-0.08,0.21-0.26,0.13-0.41C22.26,21.91,22.07,21.85,21.92,21.92z"/>
			<path d="M16.92,14.06c0.06,0.07,0.14,0.1,0.23,0.1c0.07,0,0.14-0.03,0.2-0.08c0.13-0.11,0.14-0.3,0.03-0.43
				c-0.19-0.21-0.35-0.44-0.48-0.69c-0.08-0.15-0.26-0.2-0.41-0.13c-0.15,0.08-0.2,0.26-0.13,0.41
				C16.51,13.54,16.7,13.81,16.92,14.06z"/>
			<path d="M17.1,22.13c-0.16-0.04-0.33,0.05-0.38,0.21c-0.04,0.16,0.05,0.33,0.21,0.38c0.29,0.08,0.6,0.15,0.92,0.19
				c0.02,0,0.03,0,0.05,0c0.15,0,0.28-0.11,0.3-0.26c0.03-0.17-0.09-0.32-0.26-0.35C17.65,22.27,17.37,22.21,17.1,22.13z"/>
			<path d="M20,22.42c-0.29,0.02-0.6,0.01-0.88,0c0,0-0.01,0-0.01,0c-0.16,0-0.3,0.13-0.3,0.29c-0.01,0.17,0.12,0.31,0.29,0.32
				c0.17,0.01,0.35,0.01,0.54,0.01c0.14,0,0.27,0,0.4-0.01c0.17-0.01,0.3-0.15,0.29-0.32C20.32,22.54,20.17,22.41,20,22.42z"/>
			<path d="M15.32,21.26c-0.13-0.1-0.32-0.08-0.43,0.05c-0.1,0.13-0.08,0.32,0.05,0.43c0.25,0.2,0.52,0.37,0.81,0.52
				c0.04,0.02,0.09,0.03,0.14,0.03c0.11,0,0.22-0.06,0.27-0.16c0.08-0.15,0.02-0.33-0.13-0.41C15.78,21.59,15.54,21.44,15.32,21.26z
				"/>
			<path d="M22.81,16.19c0.05,0.04,0.12,0.06,0.18,0.06c0.09,0,0.19-0.04,0.25-0.13c0.1-0.14,0.07-0.33-0.07-0.43
				c-0.26-0.19-0.55-0.35-0.86-0.47c-0.15-0.06-0.33,0.01-0.4,0.17c-0.06,0.16,0.01,0.33,0.17,0.4
				C22.34,15.9,22.59,16.03,22.81,16.19z"/>
			<path d="M16.19,10.75c-0.17-0.01-0.31,0.12-0.32,0.29c0,0.08-0.01,0.16-0.01,0.24c0,0.24,0.02,0.49,0.07,0.74
				c0.03,0.15,0.16,0.25,0.3,0.25c0.02,0,0.04,0,0.06-0.01c0.17-0.03,0.28-0.19,0.24-0.35c-0.04-0.21-0.06-0.42-0.06-0.63
				c0-0.07,0-0.14,0.01-0.21C16.48,10.91,16.36,10.76,16.19,10.75z"/>
			<path d="M17.11,8.87c-0.13-0.11-0.32-0.09-0.43,0.05c-0.21,0.26-0.38,0.54-0.51,0.85c-0.07,0.15,0,0.33,0.16,0.4
				c0.04,0.02,0.08,0.03,0.12,0.03c0.12,0,0.23-0.07,0.28-0.18c0.11-0.25,0.25-0.49,0.43-0.71C17.26,9.17,17.24,8.98,17.11,8.87z"/>
			<path d="M20.98,15.5c0.01,0,0.03,0,0.04,0c0.15,0,0.28-0.11,0.3-0.26c0.02-0.17-0.09-0.32-0.26-0.35
				c-0.3-0.04-0.62-0.07-0.95-0.07c0,0,0,0,0,0c-0.17,0-0.3,0.14-0.3,0.3c0,0.17,0.13,0.31,0.3,0.31
				C20.42,15.44,20.71,15.46,20.98,15.5z"/>
			<path d="M17.83,8.62c0.06,0,0.11-0.01,0.16-0.05c0.23-0.14,0.49-0.27,0.76-0.37c0.16-0.06,0.24-0.23,0.18-0.39
				c-0.06-0.16-0.23-0.24-0.39-0.18c-0.31,0.12-0.61,0.26-0.87,0.43c-0.14,0.09-0.19,0.28-0.1,0.42
				C17.63,8.56,17.72,8.62,17.83,8.62z"/>
			<path d="M18.83,15.26c0.03,0.01,0.06,0.01,0.08,0.01c0.13,0,0.25-0.09,0.29-0.22c0.05-0.16-0.05-0.33-0.21-0.38
				c-0.27-0.08-0.53-0.19-0.77-0.32c-0.15-0.08-0.33-0.03-0.42,0.11c-0.08,0.15-0.03,0.33,0.11,0.42
				C18.21,15.04,18.52,15.17,18.83,15.26z"/>
			<path d="M12.38,17.9c-0.13,0.11-0.15,0.3-0.04,0.43c0.16,0.19,0.32,0.41,0.51,0.71c0.06,0.09,0.16,0.14,0.26,0.14
				c0.06,0,0.11-0.02,0.16-0.05c0.14-0.09,0.18-0.28,0.09-0.42c-0.21-0.32-0.38-0.56-0.55-0.77C12.7,17.81,12.51,17.8,12.38,17.9z"
				/>
			<path d="M6.29,18.48c-0.15-0.08-0.33-0.02-0.41,0.13c-0.14,0.27-0.27,0.57-0.37,0.89c-0.05,0.16,0.04,0.33,0.2,0.38
				c0.03,0.01,0.06,0.01,0.09,0.01c0.13,0,0.25-0.08,0.29-0.21c0.09-0.28,0.2-0.55,0.33-0.79C6.5,18.74,6.44,18.56,6.29,18.48z"/>
			<path d="M13.58,19.65c-0.14,0.09-0.18,0.28-0.09,0.42c0.19,0.3,0.37,0.54,0.55,0.77c0.06,0.07,0.15,0.11,0.24,0.11
				c0.07,0,0.13-0.02,0.19-0.07c0.13-0.11,0.15-0.3,0.05-0.43c-0.17-0.21-0.33-0.43-0.51-0.71C13.91,19.6,13.72,19.56,13.58,19.65z"
				/>
			<path d="M23.4,20.65c-0.16,0.23-0.34,0.44-0.55,0.64c-0.12,0.11-0.13,0.31-0.02,0.43c0.06,0.06,0.14,0.1,0.22,0.1
				c0.07,0,0.15-0.03,0.21-0.08c0.24-0.22,0.46-0.47,0.64-0.74c0.1-0.14,0.06-0.33-0.08-0.42C23.69,20.47,23.5,20.51,23.4,20.65z"/>
			<path d="M24.36,18.54c-0.17-0.01-0.31,0.12-0.32,0.29c-0.02,0.28-0.07,0.55-0.15,0.82c-0.05,0.16,0.04,0.33,0.2,0.38
				c0.03,0.01,0.06,0.01,0.09,0.01c0.13,0,0.25-0.08,0.29-0.22c0.1-0.32,0.16-0.64,0.17-0.97C24.66,18.69,24.53,18.55,24.36,18.54z"
				/>
			<path d="M24.2,17.95c0.03,0,0.06,0,0.09-0.01c0.16-0.05,0.25-0.22,0.2-0.38c-0.1-0.32-0.24-0.62-0.42-0.9
				c-0.09-0.14-0.28-0.18-0.42-0.09c-0.14,0.09-0.18,0.28-0.09,0.42c0.15,0.23,0.27,0.48,0.35,0.75
				C23.95,17.86,24.07,17.95,24.2,17.95z"/>
			<path d="M10.93,16.69c-0.16-0.05-0.33,0.05-0.38,0.21c-0.05,0.16,0.05,0.33,0.21,0.38c0.28,0.08,0.52,0.19,0.75,0.33
				c0.05,0.03,0.1,0.04,0.16,0.04c0.1,0,0.2-0.05,0.26-0.15c0.09-0.14,0.04-0.33-0.1-0.42C11.56,16.91,11.26,16.78,10.93,16.69z"/>
			<path d="M7.45,16.97c-0.29,0.16-0.56,0.35-0.8,0.59c-0.12,0.12-0.12,0.31-0.01,0.43c0.06,0.06,0.14,0.09,0.22,0.09
				c0.08,0,0.15-0.03,0.21-0.09c0.2-0.19,0.42-0.36,0.66-0.49c0.15-0.08,0.2-0.26,0.12-0.41S7.6,16.89,7.45,16.97z"/>
			<path d="M8.7,16.56c-0.17,0.03-0.28,0.18-0.25,0.35c0.02,0.15,0.15,0.26,0.3,0.26c0.02,0,0.03,0,0.05,0
				c0.27-0.04,0.57-0.06,0.85-0.05c0.15,0,0.31-0.13,0.31-0.3c0-0.17-0.13-0.31-0.3-0.31C9.34,16.49,9,16.51,8.7,16.56z"/>
			<path d="M19.88,7.91c0.01,0,0.03,0,0.04,0c0.14-0.02,0.29-0.03,0.44-0.05c0.17-0.01,0.29-0.16,0.28-0.33
				c-0.01-0.17-0.15-0.29-0.33-0.28c-0.16,0.01-0.32,0.03-0.47,0.05c-0.17,0.02-0.28,0.18-0.26,0.34C19.6,7.8,19.73,7.91,19.88,7.91
				z"/>
			<path d="M21.48,7.48l-1.77,1.77c-0.12,0.12-0.12,0.31,0,0.43c0.06,0.06,0.14,0.09,0.22,0.09s0.16-0.03,0.22-0.09l1.77-1.77
				l1.77,1.77c0.06,0.06,0.14,0.09,0.22,0.09s0.16-0.03,0.22-0.09c0.12-0.12,0.12-0.31,0-0.43l-1.77-1.77l1.77-1.77
				c0.12-0.12,0.12-0.31,0-0.43s-0.31-0.12-0.43,0l-1.77,1.77l-1.77-1.77c-0.12-0.12-0.31-0.12-0.43,0s-0.12,0.31,0,0.43L21.48,7.48
				z"/>
			<path d="M26.79,15.64H24.4v-3.81h1.57c0.08,0,0.15-0.07,0.15-0.15c0-0.08-0.07-0.15-0.15-0.15H24.4v-1.02
				c0-0.08-0.07-0.15-0.15-0.15s-0.15,0.07-0.15,0.15v1.02h-3.86v-0.9c0-0.08-0.07-0.15-0.15-0.15s-0.15,0.07-0.15,0.15v0.9h-2.65
				c-0.08,0-0.15,0.07-0.15,0.15c0,0.08,0.07,0.15,0.15,0.15h2.65v2.22c0,0.08,0.07,0.15,0.15,0.15s0.15-0.07,0.15-0.15v-2.22h3.86
				v3.98c0,0.08,0.07,0.15,0.15,0.15c0.02,0,0.04,0,0.06-0.01h2.48c0.08,0,0.15-0.07,0.15-0.15C26.94,15.7,26.87,15.64,26.79,15.64z
				"/>
			<path d="M26.02,19.85H25.2c-0.08,0-0.15,0.07-0.15,0.15s0.07,0.15,0.15,0.15h0.83c0.08,0,0.15-0.07,0.15-0.15
				S26.11,19.85,26.02,19.85z"/>
			<path d="M22.95,24.02h-2.83V23.8c0-0.08-0.07-0.15-0.15-0.15c-0.08,0-0.15,0.07-0.15,0.15v0.22h-3.8v-0.94
				c0-0.08-0.07-0.15-0.15-0.15c-0.08,0-0.15,0.07-0.15,0.15v0.94H11.9v-3.86h0.72c0.08,0,0.15-0.07,0.15-0.15s-0.07-0.15-0.15-0.15
				H11.9v-1.38c0-0.08-0.07-0.15-0.15-0.15c-0.08,0-0.15,0.07-0.15,0.15v1.38H7.74v-1.31c0-0.08-0.07-0.15-0.15-0.15
				c-0.08,0-0.15,0.07-0.15,0.15v1.31H6.57c-0.08,0-0.15,0.07-0.15,0.15s0.07,0.15,0.15,0.15h0.86v2.95c0,0.08,0.07,0.15,0.15,0.15
				c0.08,0,0.15-0.07,0.15-0.15v-2.95h3.86v3.86H8.75c-0.08,0-0.15,0.07-0.15,0.15s0.07,0.15,0.15,0.15h2.84V26
				c0,0.08,0.07,0.15,0.15,0.15c0.08,0,0.15-0.07,0.15-0.15v-1.68h3.81v2.49c0,0.08,0.07,0.15,0.15,0.15c0.08,0,0.15-0.07,0.15-0.15
				v-2.49h3.8v1.73c0,0.08,0.07,0.15,0.15,0.15c0.08,0,0.15-0.07,0.15-0.15v-1.73h2.83c0.08,0,0.15-0.07,0.15-0.15
				S23.04,24.02,22.95,24.02z"/>
			<path d="M7.43,16.14c0,0.08,0.07,0.15,0.15,0.15c0.08,0,0.15-0.07,0.15-0.15v-0.2h3.86v0.36c0,0.08,0.07,0.15,0.15,0.15
				c0.08,0,0.15-0.07,0.15-0.15v-0.36h3.81v3.91h-0.72c-0.08,0-0.15,0.07-0.15,0.15s0.07,0.15,0.15,0.15h0.72v0.56
				c0,0.08,0.07,0.15,0.15,0.15c0.08,0,0.15-0.07,0.15-0.15v-0.56h3.91v1.55c0,0.08,0.07,0.15,0.15,0.15s0.15-0.07,0.15-0.15v-1.55
				h2.98c0.08,0,0.15-0.07,0.15-0.15s-0.07-0.15-0.15-0.15h-2.98v-3.63c0-0.08-0.07-0.15-0.15-0.15s-0.15,0.07-0.15,0.15v3.63h-3.91
				v-3.91h2.17c0.08,0,0.15-0.07,0.15-0.15c0-0.08-0.07-0.15-0.15-0.15h-2.17v-1.7c0-0.08-0.07-0.15-0.15-0.15
				c-0.08,0-0.15,0.07-0.15,0.15v1.7H11.9v-3.81h3.05c0.08,0,0.15-0.07,0.15-0.15c0-0.08-0.07-0.15-0.15-0.15H11.9V7.66h3.81V8.6
				c0,0.08,0.07,0.15,0.15,0.15c0.08,0,0.15-0.07,0.15-0.15V7.66h1.03c0.08,0,0.15-0.07,0.15-0.15c0-0.08-0.07-0.15-0.15-0.15h-1.03
				V4.87c0-0.08-0.07-0.15-0.15-0.15c-0.08,0-0.15,0.07-0.15,0.15v2.49H11.9V5.67c0-0.08-0.07-0.15-0.15-0.15
				c-0.08,0-0.15,0.07-0.15,0.15v1.69H8.7c-0.08,0-0.15,0.07-0.15,0.15c0,0.08,0.07,0.15,0.15,0.15h2.9v3.86H7.74V8.7
				c0-0.08-0.07-0.15-0.15-0.15c-0.08,0-0.15,0.07-0.15,0.15v2.82H5.76c-0.08,0-0.15,0.07-0.15,0.15c0,0.08,0.07,0.15,0.15,0.15
				h1.68v3.81H4.89c-0.08,0-0.15,0.07-0.15,0.15c0,0.08,0.07,0.15,0.15,0.15h2.54V16.14z M7.74,11.83h3.86v3.81H7.74V11.83z"/>
			<path d="M24.25,21.97c-0.08,0-0.15,0.07-0.15,0.15v0.98c0,0.08,0.07,0.15,0.15,0.15s0.15-0.07,0.15-0.15v-0.98
				C24.4,22.04,24.33,21.97,24.25,21.97z"/>
		</g>
	</g>
</g>
</svg>
