<?xml version="1.0" encoding="utf-8"?>
<!-- Generator: Adobe Illustrator 21.1.0, SVG Export Plug-In . SVG Version: 6.00 Build 0)  -->
<!DOCTYPE svg PUBLIC "-//W3C//DTD SVG 1.1//EN" "http://www.w3.org/Graphics/SVG/1.1/DTD/svg11.dtd">
<svg version="1.1" id="Layer_1" xmlns="http://www.w3.org/2000/svg" xmlns:xlink="http://www.w3.org/1999/xlink" x="0px" y="0px"
	 viewBox="0 0 32 32" style="enable-background:new 0 0 32 32;" xml:space="preserve">
<path d="M25.6,11.67c-0.9-2.93-3.64-4.97-6.72-4.97c-3.09,0-5.81,2.02-6.71,4.94c-0.5-0.18-1.03-0.27-1.57-0.27
	c-2.19,0-4.07,1.5-4.56,3.61c-1.95,0.07-3.6,1.43-4.04,3.35c-0.02,0.09,0,0.18,0.06,0.25c0.06,0.07,0.14,0.11,0.23,0.11h10.05
	c-0.05,0.31-0.07,0.63-0.07,0.96c0,3.66,2.98,6.65,6.65,6.65c3.67,0,6.65-2.98,6.65-6.65c0-0.33-0.02-0.64-0.07-0.95h4.39
	c0.14,0,0.26-0.1,0.29-0.24c0.06-0.36,0.09-0.68,0.09-1C30.26,14.65,28.31,12.25,25.6,11.67L25.6,11.67z M18.92,25.68
	c-3.33,0-6.03-2.71-6.03-6.03c0-3.33,2.71-6.03,6.03-6.03c3.33,0,6.03,2.71,6.03,6.03C24.95,22.97,22.24,25.68,18.92,25.68
	L18.92,25.68z M29.63,18.1h-4.25c-0.7-2.93-3.33-5.11-6.47-5.11c-3.13,0-5.77,2.18-6.46,5.11H2.67c0.5-1.51,1.9-2.54,3.55-2.54h0
	l0.05,0c0.15,0.01,0.27-0.1,0.29-0.24c0.35-1.95,2.05-3.37,4.04-3.37c0.53,0,1.05,0.11,1.54,0.31c0.3,0.15,0.95,0.52,1.36,1.2
	c0.05,0.08,0.14,0.12,0.23,0.1c0.03-0.01,0.05-0.01,0.07-0.03c0.1-0.06,0.14-0.2,0.08-0.3c-0.35-0.58-0.84-0.96-1.21-1.19
	c0.76-2.81,3.31-4.76,6.22-4.76c2.8,0,5.27,1.79,6.12,4.44c-0.75-0.01-1.31,0.27-1.34,0.28c-0.11,0.05-0.17,0.17-0.12,0.29
	c0.05,0.11,0.17,0.16,0.28,0.12c0.01,0,0.78-0.31,1.66-0.16c2.44,0.53,4.2,2.68,4.2,5.2C29.68,17.66,29.67,17.87,29.63,18.1
	L29.63,18.1z M21.89,16.65c0.01-0.06-0.02-0.12-0.08-0.15l-0.91-0.44c-0.02-0.01-0.04-0.01-0.06-0.01h-3.72
	c-0.02,0-0.04,0-0.06,0.01l-1.04,0.44c-0.06,0.03-0.1,0.09-0.08,0.16c0,0.01,0,0.02,0,0.03v3.26c0,0,0,0,0,0.01v3.27
	c0,0.08,0.06,0.15,0.14,0.15h5.66c0.08,0,0.14-0.07,0.14-0.15v-3.26c0,0,0,0,0,0v-3.27C21.89,16.67,21.89,16.66,21.89,16.65
	L21.89,16.65z M17.16,16.33h3.65l0.42,0.2h-4.55C16.67,16.53,17.16,16.33,17.16,16.33z M21.6,22.5h-0.45c-0.06,0-0.1-0.05-0.1-0.1
	s0.05-0.1,0.1-0.1h0.45V22.5z M21.6,22.1h-0.45c-0.16,0-0.29,0.13-0.29,0.29s0.13,0.29,0.29,0.29h0.45v0.38h-5.37v-1.34h5.37V22.1z
	 M21.6,20.9h-0.45c-0.06,0-0.1-0.05-0.1-0.1s0.05-0.1,0.1-0.1h0.45V20.9z M21.6,20.51h-0.45c-0.16,0-0.29,0.13-0.29,0.29
	c0,0.16,0.13,0.29,0.29,0.29h0.45v0.34h-5.37V20.1h5.37C21.6,20.1,21.6,20.51,21.6,20.51z M21.6,19.22h-0.45
	c-0.06,0-0.1-0.05-0.1-0.1s0.05-0.1,0.1-0.1h0.45V19.22z M21.6,18.83h-0.45c-0.16,0-0.29,0.13-0.29,0.29s0.13,0.29,0.29,0.29h0.45
	v0.38h-5.37v-1.34h5.37V18.83L21.6,18.83z M21.6,17.63h-0.45c-0.06,0-0.1-0.05-0.1-0.1s0.05-0.1,0.1-0.1h0.45V17.63L21.6,17.63z
	 M21.6,17.24h-0.45c-0.16,0-0.29,0.13-0.29,0.29s0.13,0.29,0.29,0.29h0.45v0.34h-5.37v-1.34h5.37V17.24L21.6,17.24z"/>
</svg>
