<?xml version="1.0" encoding="utf-8"?>
<!-- Generator: Adobe Illustrator 21.1.0, SVG Export Plug-In . SVG Version: 6.00 Build 0)  -->
<!DOCTYPE svg PUBLIC "-//W3C//DTD SVG 1.1//EN" "http://www.w3.org/Graphics/SVG/1.1/DTD/svg11.dtd">
<svg version="1.1" id="Layer_1" xmlns="http://www.w3.org/2000/svg" xmlns:xlink="http://www.w3.org/1999/xlink" x="0px" y="0px"
	 viewBox="0 0 32 32" style="enable-background:new 0 0 32 32;" xml:space="preserve">
<path d="M23.59,14.65c-0.01,0-0.54-0.06-1.48-0.12v-3.19c0-3.37-2.74-6.11-6.11-6.11s-6.11,2.74-6.11,6.11v3.19
	c-0.94,0.06-1.47,0.12-1.48,0.12c-0.16,0.02-0.28,0.15-0.28,0.31v10.08c0,0.16,0.12,0.29,0.28,0.31c0.03,0,3.45,0.4,7.59,0.4
	s7.56-0.39,7.59-0.4c0.16-0.02,0.28-0.15,0.28-0.31V14.97C23.87,14.8,23.75,14.67,23.59,14.65z M23.24,24.76
	c-0.89,0.09-3.81,0.36-7.24,0.36s-6.35-0.27-7.24-0.36v-9.51C9,15.23,9.38,15.2,9.89,15.16c0.19-0.01,0.4-0.03,0.63-0.04
	c0.54-0.03,1.17-0.06,1.89-0.09c0.2-0.01,0.41-0.01,0.63-0.02c0.88-0.03,1.87-0.05,2.96-0.05s2.08,0.02,2.96,0.05
	c0.22,0.01,0.43,0.01,0.63,0.02c0.72,0.03,1.35,0.06,1.89,0.09c0.23,0.01,0.44,0.03,0.63,0.04c0.51,0.03,0.89,0.07,1.13,0.09
	L23.24,24.76L23.24,24.76z M18.96,14.38c-0.88-0.03-1.88-0.04-2.96-0.04s-2.08,0.02-2.96,0.04v-3.04c0-1.63,1.33-2.96,2.96-2.96
	s2.96,1.33,2.96,2.96V14.38z M10.52,11.34c0-3.02,2.46-5.48,5.48-5.48c3.02,0,5.48,2.46,5.48,5.48v3.15
	c-0.54-0.03-1.17-0.06-1.89-0.09v-3.06c0-1.98-1.61-3.59-3.59-3.59c-1.98,0-3.59,1.61-3.59,3.59v3.06
	c-0.72,0.03-1.35,0.06-1.89,0.09C10.52,14.49,10.52,11.34,10.52,11.34z M22.11,16.45h0.02c0.13,0,0.24,0.11,0.24,0.24
	s-0.11,0.24-0.24,0.24H13.2c-0.07,0-0.13-0.03-0.17-0.08c-0.04-0.04-0.06-0.1-0.06-0.16c0-0.07,0.03-0.13,0.07-0.17
	c0.04-0.04,0.1-0.07,0.16-0.07L22.11,16.45L22.11,16.45z M11.84,16.68c0,0.09-0.07,0.16-0.16,0.16H9.8c-0.09,0-0.16-0.07-0.16-0.16
	c0-0.09,0.07-0.16,0.16-0.16h1.88C11.77,16.52,11.84,16.6,11.84,16.68z M22.37,21.72c0,0.13-0.11,0.24-0.24,0.24H13.2
	c-0.13,0-0.24-0.11-0.24-0.24s0.11-0.24,0.24-0.24h8.93C22.26,21.49,22.37,21.59,22.37,21.72z M11.84,21.72
	c0,0.09-0.07,0.16-0.16,0.16H9.8c-0.09,0-0.16-0.07-0.16-0.16c0-0.09,0.07-0.16,0.16-0.16h1.88C11.77,21.56,11.84,21.63,11.84,21.72
	z M22.37,23.4c0,0.13-0.11,0.24-0.24,0.24H13.2c-0.13,0-0.24-0.11-0.24-0.24s0.11-0.24,0.24-0.24h8.93
	C22.26,23.16,22.37,23.27,22.37,23.4z M11.84,23.4c0,0.09-0.07,0.16-0.16,0.16H9.8c-0.09,0-0.16-0.07-0.16-0.16
	c0-0.09,0.07-0.16,0.16-0.16h1.88C11.77,23.24,11.84,23.31,11.84,23.4z M22.37,20.04c0,0.13-0.11,0.24-0.24,0.24H13.2
	c-0.13,0-0.24-0.11-0.24-0.24s0.11-0.24,0.24-0.24h8.93C22.26,19.81,22.37,19.91,22.37,20.04z M11.84,20.04
	c0,0.09-0.07,0.16-0.16,0.16H9.8c-0.09,0-0.16-0.07-0.16-0.16c0-0.09,0.07-0.16,0.16-0.16h1.88C11.77,19.88,11.84,19.95,11.84,20.04
	z M22.37,18.36c0,0.13-0.11,0.24-0.24,0.24H13.2c-0.13,0-0.24-0.11-0.24-0.24s0.11-0.24,0.24-0.24h8.93
	C22.26,18.13,22.37,18.23,22.37,18.36z M11.82,18.28c0.01,0.02,0.03,0.05,0.03,0.08c0,0.09-0.07,0.16-0.16,0.16H9.8
	c-0.09,0-0.16-0.07-0.16-0.16c0-0.09,0.07-0.16,0.16-0.16h1.88C11.74,18.2,11.79,18.24,11.82,18.28L11.82,18.28z"/>
</svg>
