<?xml version="1.0" encoding="utf-8"?>
<!-- Generator: Adobe Illustrator 21.1.0, SVG Export Plug-In . SVG Version: 6.00 Build 0)  -->
<!DOCTYPE svg PUBLIC "-//W3C//DTD SVG 1.1//EN" "http://www.w3.org/Graphics/SVG/1.1/DTD/svg11.dtd">
<svg version="1.1" id="Layer_1" xmlns="http://www.w3.org/2000/svg" xmlns:xlink="http://www.w3.org/1999/xlink" x="0px" y="0px"
	 viewBox="0 0 32 32" style="enable-background:new 0 0 32 32;" xml:space="preserve">
<path d="M5.09,16.33c-0.05-0.05-0.13-0.05-0.18,0c-0.05,0.05-0.05,0.13,0,0.18l1.21,1.21c0.03,0.02,0.06,0.04,0.09,0.04
	s0.07-0.01,0.09-0.04c0.05-0.05,0.05-0.13,0-0.18C6.3,17.54,5.09,16.33,5.09,16.33z M4.94,17.04c-0.05-0.05-0.13-0.05-0.18,0
	c-0.05,0.05-0.05,0.13,0,0.18l0.29,0.29c0.03,0.02,0.06,0.04,0.09,0.04s0.07-0.01,0.09-0.04c0.05-0.05,0.05-0.13,0-0.18L4.94,17.04z
	 M27.91,13.89l-0.3-1.21c-0.19-0.8-1.01-1.42-1.85-1.42H5.32c-0.87,0-1.55,0.65-1.55,1.49l0.01,5.64c0,0.03,0.01,0.21,0.1,0.36
	c0.11,0.18,0.28,0.27,0.55,0.27c0.28,0,0.67,0,1.09,0h0c0.93,0,2.03-0.01,2.52-0.01l0.68,0c0,0.04-0.01,0.08-0.01,0.12
	c0,0.88,0.72,1.6,1.6,1.6c0.88,0,1.6-0.72,1.6-1.6c0-0.04-0.01-0.08-0.01-0.12l9.64,0c0,0.03-0.01,0.06-0.01,0.1
	c0,0.88,0.72,1.6,1.6,1.6s1.6-0.72,1.6-1.6c0-0.03-0.01-0.07-0.01-0.1h0.51l0.32,0c0,0,0.88,0.02,1.65,0.02
	c0.72,0,0.73-0.01,0.81-0.08c0.18-0.16,0.2-0.76,0.2-0.77V16.5C28.23,15.77,28.09,14.6,27.91,13.89L27.91,13.89z M10.32,20.23
	c-0.6,0-1.09-0.49-1.09-1.09c0-0.38,0.2-0.62,0.2-0.62c0.2-0.28,0.53-0.47,0.9-0.47s0.7,0.19,0.9,0.47c0,0,0.21,0.29,0.2,0.62
	C11.42,19.74,10.93,20.23,10.32,20.23L10.32,20.23z M23.15,20.21c-0.6,0-1.09-0.49-1.09-1.09c0-0.03,0.01-0.06,0.01-0.1
	c0.03-0.33,0.17-0.51,0.17-0.51c0.2-0.29,0.53-0.49,0.91-0.49c0.38,0,0.71,0.19,0.91,0.49c0,0,0.17,0.21,0.18,0.61
	C24.24,19.72,23.75,20.21,23.15,20.21L23.15,20.21z M27.72,17.97h-2.78c-0.07,0-0.13,0.06-0.13,0.13c0,0.07,0.06,0.13,0.13,0.13
	h2.78c0,0.09-0.02,0.21-0.04,0.3c-0.09,0-0.23,0-0.45,0c-0.65,0-1.61-0.01-1.9-0.02l-0.69,0c-0.24-0.58-0.81-1-1.48-1
	c-0.67,0-1.24,0.41-1.48,1l-9.87,0c-0.24-0.57-0.81-0.98-1.48-0.98s-1.23,0.4-1.48,0.98h-0.8c-0.5,0-1.59,0.01-2.52,0.01l0,0
	c-0.42,0-0.81,0-1.09,0c-0.09,0-0.11-0.01-0.12-0.03c-0.01-0.02-0.02-0.08-0.03-0.1v-0.14h4.18c0.07,0,0.13-0.06,0.13-0.13
	S8.54,18,8.47,18H4.29l-0.01-5.25c0-0.56,0.45-0.98,1.04-0.98h20.44c0.61,0,1.22,0.46,1.36,1.03l0.3,1.21
	c0.17,0.68,0.3,1.8,0.3,2.49V17.97L27.72,17.97z M21.3,17.98h-9.12c-0.07,0-0.13,0.06-0.13,0.13s0.06,0.13,0.13,0.13h9.12
	c0.07,0,0.13-0.06,0.13-0.13C21.42,18.03,21.37,17.98,21.3,17.98z M8.45,12.28H5.56c-0.21,0-0.37,0.17-0.37,0.37v2.89
	c0,0.21,0.17,0.37,0.37,0.37h2.89c0.21,0,0.37-0.17,0.37-0.37v-2.89C8.83,12.45,8.66,12.28,8.45,12.28z M8.52,15.55
	c0,0.04-0.03,0.07-0.07,0.07H5.56c-0.04,0-0.07-0.03-0.07-0.07v-2.89c0-0.04,0.03-0.07,0.07-0.07h2.89c0.04,0,0.07,0.03,0.07,0.07
	V15.55z M13.15,15.55v-2.89c0-0.21-0.17-0.37-0.37-0.37H9.88c-0.21,0-0.37,0.17-0.37,0.37v2.89c0,0.21,0.17,0.37,0.37,0.37h2.89
	C12.98,15.92,13.15,15.76,13.15,15.55z M9.81,15.55v-2.89c0-0.04,0.03-0.07,0.07-0.07h2.89c0.04,0,0.07,0.03,0.07,0.07v2.89
	c0,0.04-0.03,0.07-0.07,0.07H9.88C9.84,15.62,9.81,15.59,9.81,15.55L9.81,15.55z M14.17,15.92h2.89c0.21,0,0.37-0.17,0.37-0.37
	v-2.89c0-0.21-0.17-0.37-0.37-0.37h-2.89c-0.21,0-0.37,0.17-0.37,0.37v2.89C13.8,15.76,13.97,15.92,14.17,15.92z M14.1,12.66
	c0-0.04,0.03-0.07,0.07-0.07h2.89c0.04,0,0.07,0.03,0.07,0.07v2.89c0,0.04-0.03,0.07-0.07,0.07h-2.89c-0.04,0-0.07-0.03-0.07-0.07
	V12.66z M21.36,12.27h-2.89c-0.21,0-0.37,0.17-0.37,0.37v2.89c0,0.21,0.17,0.37,0.37,0.37h2.89c0.21,0,0.37-0.17,0.37-0.37v-2.89
	C21.73,12.44,21.56,12.27,21.36,12.27z M21.42,15.54c0,0.04-0.03,0.07-0.07,0.07h-2.89c-0.04,0-0.07-0.03-0.07-0.07v-2.89
	c0-0.04,0.03-0.07,0.07-0.07h2.89c0.04,0,0.07,0.03,0.07,0.07V15.54z M25.67,12.27h-2.89c-0.21,0-0.37,0.17-0.37,0.37v2.89
	c0,0.21,0.17,0.37,0.37,0.37c0,0,3.34,0,3.44,0c0.51,0,0.73-0.26,0.73-0.52c0-0.92-0.52-2.5-0.78-2.89
	C26.07,12.36,25.88,12.27,25.67,12.27L25.67,12.27z M26.21,15.61c-0.1,0-3.44,0-3.44,0c-0.03,0-0.06-0.03-0.06-0.07v-2.89
	c0-0.04,0.03-0.07,0.07-0.07h2.89c0.08,0,0.19,0.02,0.24,0.1c0.23,0.35,0.73,1.87,0.73,2.72C26.63,15.52,26.46,15.61,26.21,15.61
	L26.21,15.61z"/>
</svg>
