<?xml version="1.0" encoding="utf-8"?>
<!-- Generator: Adobe Illustrator 21.1.0, SVG Export Plug-In . SVG Version: 6.00 Build 0)  -->
<!DOCTYPE svg PUBLIC "-//W3C//DTD SVG 1.1//EN" "http://www.w3.org/Graphics/SVG/1.1/DTD/svg11.dtd">
<svg version="1.1" id="Layer_1" xmlns="http://www.w3.org/2000/svg" xmlns:xlink="http://www.w3.org/1999/xlink" x="0px" y="0px"
	 viewBox="0 0 32 32" style="enable-background:new 0 0 32 32;" xml:space="preserve">
<g>
	<path d="M16.72,9.32c-0.11-0.05-0.23-0.02-0.31,0.06l-4.13,3.98H8.39c-0.16,0-0.29,0.13-0.29,0.29v4.69c0,0.16,0.13,0.29,0.29,0.29
		h3.31h0.02h0.48l4.19,4.01c0.06,0.05,0.13,0.08,0.2,0.08c0.04,0,0.08-0.01,0.11-0.02c0.1-0.05,0.18-0.15,0.18-0.27v-8.67v-0.31
		V9.58C16.89,9.47,16.82,9.36,16.72,9.32z M16.31,14.1v7.64l-3.79-3.62c-0.05-0.05-0.12-0.08-0.2-0.08h-0.02h-0.02h-3.6v-4.12h3.7
		c0.07,0,0.15-0.03,0.2-0.08l3.73-3.59v3.75V14.1z"/>
	<path d="M19.6,13.35c-0.06-0.05-0.14-0.05-0.2,0.01c-0.05,0.06-0.05,0.14,0,0.2c0.56,0.54,0.88,1.26,0.88,2.03
		c0,0.79-0.34,1.55-0.94,2.09c-0.06,0.05-0.06,0.14-0.01,0.2c0.03,0.03,0.06,0.05,0.1,0.05c0.03,0,0.06-0.01,0.09-0.03
		c0.65-0.59,1.03-1.42,1.03-2.3C20.56,14.73,20.22,13.94,19.6,13.35z"/>
	<path d="M21.44,10.48c-0.07,0.08-0.07,0.2,0.01,0.27c1.32,1.27,2.06,2.98,2.06,4.81c0,1.86-0.79,3.66-2.17,4.93
		c-0.08,0.07-0.08,0.19-0.01,0.27c0.04,0.04,0.09,0.06,0.14,0.06c0.05,0,0.09-0.02,0.13-0.05c1.46-1.34,2.29-3.24,2.29-5.21
		c0-1.94-0.77-3.75-2.17-5.1C21.64,10.4,21.52,10.41,21.44,10.48z"/>
	<path d="M20.48,11.71c-0.07-0.06-0.17-0.06-0.24,0.01c-0.06,0.07-0.06,0.17,0.01,0.24c1,0.95,1.56,2.24,1.56,3.62
		c0,1.42-0.61,2.78-1.67,3.73c-0.07,0.06-0.07,0.17-0.01,0.23c0.03,0.04,0.08,0.06,0.12,0.06c0.04,0,0.08-0.01,0.11-0.04
		c1.13-1.01,1.78-2.46,1.78-3.97C22.15,14.1,21.55,12.73,20.48,11.71z"/>
</g>
</svg>
