<?xml version="1.0" encoding="utf-8"?>
<!-- Generator: Adobe Illustrator 21.1.0, SVG Export Plug-In . SVG Version: 6.00 Build 0)  -->
<!DOCTYPE svg PUBLIC "-//W3C//DTD SVG 1.1//EN" "http://www.w3.org/Graphics/SVG/1.1/DTD/svg11.dtd">
<svg version="1.1" id="Layer_1" xmlns="http://www.w3.org/2000/svg" xmlns:xlink="http://www.w3.org/1999/xlink" x="0px" y="0px"
	 viewBox="0 0 32 32" style="enable-background:new 0 0 32 32;" xml:space="preserve">
<path d="M25.19,16c0-0.55-0.25-1.35-0.57-1.82c-0.01-0.01-0.66-0.99-0.66-2.09c0-1.1,0.69-2.24,0.7-2.25
	c0.3-0.48,0.53-1.28,0.53-1.83c0-0.66-0.52-1.21-1.16-1.21c-0.51,0-1.31,0.16-1.81,0.37c-0.01,0.01-1.09,0.44-2.13,0.44
	s-2.12-0.44-2.13-0.44c-0.51-0.21-1.33-0.37-1.88-0.37h-0.05c-0.55,0-1.37,0.16-1.88,0.36c-0.01,0.01-1.18,0.46-2.23,0.46
	c-1.05,0-2.12-0.44-2.13-0.44C9.27,6.97,8.48,6.8,7.97,6.8C7.32,6.8,6.8,7.34,6.8,8.01c0,0.55,0.25,1.35,0.56,1.82
	c0.01,0.01,0.74,1.12,0.74,2.26c0,1.13-0.69,2.09-0.7,2.09C7.07,14.65,6.8,15.44,6.8,16c0,0.56,0.26,1.35,0.6,1.81
	c0.01,0.01,0.7,0.98,0.7,2.12c0,1.14-0.72,2.22-0.73,2.24c-0.32,0.47-0.57,1.27-0.57,1.82c0,0.67,0.54,1.2,1.2,1.2
	c0.54,0,1.35-0.19,1.85-0.44c0.01,0,0.95-0.47,2.06-0.47c1.11,0,2.23,0.5,2.24,0.51c0.5,0.23,1.32,0.41,1.88,0.41h0.05
	c0.55,0,1.38-0.19,1.87-0.43c0.01,0,1.02-0.49,2.14-0.49c1.1,0,2.05,0.47,2.06,0.47c0.5,0.25,1.31,0.44,1.85,0.44
	c0.67,0,1.2-0.54,1.2-1.2c0-0.55-0.23-1.35-0.53-1.83c-0.01-0.01-0.69-1.12-0.69-2.23c0-1.09,0.66-2.1,0.67-2.11
	C24.95,17.35,25.2,16.55,25.19,16L25.19,16z M24.1,17.47c-0.03,0.05-0.77,1.17-0.77,2.46c0,1.28,0.76,2.51,0.79,2.56
	c0.24,0.38,0.44,1.06,0.44,1.49c0,0.31-0.26,0.57-0.57,0.57c-0.44,0-1.16-0.17-1.56-0.38c-0.04-0.02-1.08-0.54-2.34-0.54
	c-1.25,0-2.36,0.53-2.41,0.55c-0.41,0.2-1.14,0.36-1.6,0.36h-0.05c-0.46,0-1.2-0.16-1.61-0.35c-0.05-0.02-1.25-0.56-2.5-0.56
	c-1.26,0-2.3,0.51-2.34,0.54c-0.41,0.2-1.12,0.38-1.56,0.38c-0.31,0-0.57-0.26-0.57-0.57c0-0.43,0.21-1.1,0.46-1.47
	c0.03-0.05,0.84-1.25,0.84-2.59c0-1.34-0.79-2.45-0.82-2.49C7.66,17.09,7.44,16.42,7.44,16c0-0.42,0.22-1.09,0.48-1.43
	c0.03-0.05,0.82-1.13,0.82-2.47c0-1.34-0.81-2.56-0.85-2.61C7.64,9.11,7.44,8.44,7.44,8.01c0-0.31,0.24-0.57,0.53-0.57
	c0.43,0,1.14,0.15,1.57,0.32c0.05,0.02,1.2,0.49,2.37,0.49c1.17,0,2.41-0.48,2.47-0.5c0.43-0.17,1.19-0.31,1.65-0.31h0.05
	c0.46,0,1.21,0.15,1.64,0.32c0.05,0.02,1.2,0.49,2.37,0.49c1.17,0,2.33-0.47,2.38-0.49c0.43-0.18,1.14-0.32,1.57-0.32
	c0.29,0,0.53,0.26,0.53,0.57c0,0.43-0.2,1.12-0.43,1.5c-0.03,0.05-0.8,1.3-0.8,2.59c0,1.29,0.74,2.39,0.77,2.44
	c0.25,0.37,0.46,1.04,0.46,1.47C24.56,16.43,24.35,17.1,24.1,17.47L24.1,17.47z M20.64,9.6h-9.17c-0.76,0-1.38,0.62-1.38,1.38v9.94
	c0,0.76,0.62,1.38,1.38,1.38h9.17c0.76,0,1.38-0.62,1.38-1.38v-9.94C22.02,10.22,21.4,9.6,20.64,9.6L20.64,9.6z M21.54,20.92
	c0,0.5-0.41,0.91-0.91,0.91h-9.17c-0.5,0-0.9-0.41-0.9-0.91v-9.94c0-0.5,0.41-0.91,0.9-0.91h9.17c0.5,0,0.91,0.41,0.91,0.91V20.92z
	 M20.21,13.37l-4.56,3.07c-0.07,0.05-0.09,0.15-0.04,0.22c0.03,0.05,0.08,0.07,0.13,0.07c0.03,0,0.06-0.01,0.09-0.03l4.56-3.07
	c0.07-0.05,0.09-0.15,0.04-0.22C20.38,13.34,20.28,13.32,20.21,13.37L20.21,13.37z M17.91,16.11l-3.62,2.44
	c-0.07,0.05-0.09,0.15-0.04,0.22c0.03,0.05,0.08,0.07,0.13,0.07c0.03,0,0.06-0.01,0.09-0.03l3.61-2.44
	c0.07-0.05,0.09-0.15,0.04-0.22C18.08,16.08,17.98,16.06,17.91,16.11L17.91,16.11z"/>
</svg>
