<?xml version="1.0" encoding="utf-8"?>
<!-- Generator: Adobe Illustrator 21.1.0, SVG Export Plug-In . SVG Version: 6.00 Build 0)  -->
<!DOCTYPE svg PUBLIC "-//W3C//DTD SVG 1.1//EN" "http://www.w3.org/Graphics/SVG/1.1/DTD/svg11.dtd">
<svg version="1.1" id="Layer_1" xmlns="http://www.w3.org/2000/svg" xmlns:xlink="http://www.w3.org/1999/xlink" x="0px" y="0px"
	 viewBox="0 0 32 32" style="enable-background:new 0 0 32 32;" xml:space="preserve">
<style type="text/css">
	.st0{fill:#010101;}
</style>
<path class="st0" d="M12.9,28.06c-1.51,0-4.38-1.24-4.38-3.18c0-1.29,0.9-1.77,1.56-2.11c0.47-0.25,0.74-0.4,0.74-0.67
	c0-1.15-2.67-2.09-4.11-2.6l-0.09-0.03c-0.11-0.04-0.18-0.13-0.2-0.25c-0.06-0.55-0.15-3.8,1.01-5.11c0.33-0.37,0.74-0.56,1.2-0.56
	c1.15,0,1.71,0.8,2.16,1.44c0.42,0.61,0.71,0.98,1.24,0.98c1.32,0,2.39-1.69,2.39-2.79c0-1.11-1.16-1.34-1.39-1.34
	c-0.24,0-0.52,0.12-0.81,0.26c-0.34,0.15-0.68,0.31-1.05,0.31c-0.63,0-1.52-0.52-1.52-1.68c0-1.56,1.68-3.67,1.88-3.86
	c0.09-0.09,0.23-0.11,0.35-0.05c1.72,0.89,3.35,1.68,4.49,1.68c0.93,0,1.06-0.46,1.06-0.9c0-0.2-0.08-0.54-0.15-0.87
	c-0.08-0.36-0.16-0.7-0.16-0.95c0-0.71,0.57-1.83,2.11-1.83c0.95,0,4.08,0.84,4.08,2.7c0,1.26-0.74,1.83-1.33,2.28
	c-0.44,0.34-0.69,0.55-0.69,0.89c0,1.23,2.87,2.2,3.82,2.52c0.14,0.05,0.25,0.08,0.33,0.11c0.14,0.05,0.22,0.2,0.19,0.35l-0.02,0.09
	c-0.27,1.15-1.08,4.63-2.87,4.63c-0.86,0-1.34-0.61-1.76-1.14c-0.37-0.47-0.69-0.88-1.2-0.88c-1.12,0-1.82,1.89-1.82,2.69
	c0,0.79,0.66,1.57,1.34,1.57c0.42,0,0.67-0.09,0.91-0.19c0.22-0.08,0.45-0.17,0.77-0.17c0.74,0,1.14,0.67,1.14,1.29
	c0,1.3-1.15,3.07-2.02,4.28c-0.08,0.11-0.24,0.16-0.36,0.1c-0.14-0.06-0.31-0.15-0.51-0.24c-0.91-0.44-2.44-1.19-3.51-1.19
	c-0.96,0-1.21,0.5-1.21,0.8c0,0.17,0.07,0.44,0.15,0.71c0.09,0.34,0.19,0.69,0.19,1C14.8,26.89,14.29,28.06,12.9,28.06z M6.99,18.96
	c1.79,0.64,4.41,1.59,4.41,3.13c0,0.64-0.54,0.92-1.06,1.19c-0.64,0.34-1.24,0.66-1.24,1.59c0,1.5,2.49,2.59,3.79,2.59
	c1.08,0,1.31-0.95,1.31-1.31c0-0.23-0.08-0.54-0.17-0.84c-0.09-0.32-0.17-0.62-0.17-0.87c0-0.67,0.56-1.4,1.8-1.4
	c1.2,0,2.74,0.75,3.76,1.25c0.1,0.05,0.19,0.09,0.27,0.13c0.57-0.8,1.77-2.58,1.77-3.74c0-0.19-0.1-0.7-0.55-0.7
	c-0.21,0-0.37,0.06-0.56,0.13c-0.26,0.1-0.59,0.22-1.12,0.22c-1.01,0-1.93-1.03-1.93-2.16c0-0.98,0.82-3.28,2.42-3.28
	c0.8,0,1.26,0.59,1.67,1.1c0.39,0.49,0.73,0.92,1.3,0.92c0.59,0,1.46-0.7,2.26-4.01c-0.02-0.01-0.05-0.02-0.07-0.02
	c-1.26-0.43-4.22-1.43-4.22-3.08c0-0.64,0.47-1.01,0.92-1.36c0.54-0.41,1.09-0.84,1.09-1.81c0-1.4-2.82-2.11-3.48-2.11
	c-1.48,0-1.52,1.22-1.52,1.24c0,0.18,0.07,0.51,0.14,0.82c0.08,0.38,0.16,0.73,0.16,1c0,0.97-0.59,1.5-1.65,1.5
	c-1.22,0-2.84-0.76-4.55-1.64c-0.44,0.55-1.56,2.19-1.56,3.28c0,0.88,0.69,1.08,0.93,1.08c0.24,0,0.52-0.12,0.81-0.26
	c0.34-0.15,0.68-0.31,1.05-0.31c0.69,0,1.98,0.57,1.98,1.93c0,1.33-1.28,3.39-2.98,3.39c-0.87,0-1.32-0.66-1.73-1.24
	c-0.43-0.61-0.83-1.19-1.67-1.19c-0.29,0-0.54,0.12-0.76,0.36C7.01,15.48,6.94,18.05,6.99,18.96z"/>
</svg>
