<?xml version="1.0" encoding="utf-8"?>
<!-- Generator: Adobe Illustrator 21.1.0, SVG Export Plug-In . SVG Version: 6.00 Build 0)  -->
<!DOCTYPE svg PUBLIC "-//W3C//DTD SVG 1.1//EN" "http://www.w3.org/Graphics/SVG/1.1/DTD/svg11.dtd">
<svg version="1.1" id="Layer_1" xmlns="http://www.w3.org/2000/svg" xmlns:xlink="http://www.w3.org/1999/xlink" x="0px" y="0px"
	 viewBox="0 0 32 32" style="enable-background:new 0 0 32 32;" xml:space="preserve">
<path d="M27.37,21.69l-4.27-4.68c0.01-0.02,0.04-0.04,0.06-0.04c0.25-0.08,0.72-0.21,1.03-0.3l2.87-0.79
	c0.1-0.03,0.4-0.11,0.39-0.35c-0.01-0.24-0.31-0.3-0.41-0.32L24,14.62c-0.3-0.06-0.7-0.14-0.94-0.19l4.05-4.54
	c0.26-0.29,0.2-0.5,0.14-0.6s-0.21-0.26-0.59-0.18l-6.15,1.27c0-0.02-0.01-0.05,0.01-0.11c0.1-0.29,0.26-0.79,0.36-1.11l0.78-2.66
	c0.06-0.2,0.05-0.35-0.02-0.45c-0.05-0.07-0.13-0.11-0.21-0.11c-0.11,0-0.23,0.06-0.36,0.2l-2.07,2.09
	c-0.23,0.23-0.58,0.6-0.78,0.82c-0.03,0.03-0.05,0.04-0.06,0.05l-1.93-5.83c-0.12-0.37-0.33-0.42-0.45-0.42
	c-0.11,0-0.33,0.05-0.45,0.42l-2.01,6.06c-0.16-0.16-0.47-0.49-0.68-0.73l-2.04-2.25c-0.13-0.15-0.25-0.22-0.36-0.22
	c-0.08,0-0.16,0.04-0.21,0.1c-0.07,0.1-0.08,0.24-0.03,0.44l1.03,3.91L5.07,9.35C4.69,9.27,4.54,9.43,4.48,9.53
	c-0.06,0.1-0.12,0.31,0.14,0.6l4.15,4.66c-0.21,0.05-0.56,0.13-0.84,0.2l-2.97,0.73c-0.26,0.06-0.4,0.18-0.4,0.34
	c0,0.16,0.13,0.28,0.4,0.34l2.96,0.73c0.31,0.08,0.75,0.19,0.99,0.25l-4.15,4.66c-0.26,0.29-0.2,0.5-0.14,0.6
	c0.05,0.08,0.16,0.2,0.4,0.2c0.06,0,0.12-0.01,0.19-0.02l6.12-1.27c-0.06,0.2-0.17,0.54-0.25,0.82l-0.91,3.03
	c-0.06,0.21-0.06,0.35,0.02,0.45c0.05,0.07,0.13,0.1,0.21,0.1c0.11,0,0.23-0.07,0.36-0.2l2.13-2.19c0.23-0.24,0.57-0.59,0.76-0.78
	c0.03-0.03,0.05-0.04,0.06-0.04l1.98,5.97c0.12,0.37,0.33,0.42,0.45,0.42s0.33-0.06,0.45-0.42l2-6.05c0,0,0.01,0,0.01,0l2.91,2.89
	c0.14,0.14,0.25,0.2,0.36,0.2c0.08,0,0.16-0.04,0.21-0.11c0.1-0.13,0.05-0.32,0.01-0.45l-0.94-2.89c-0.1-0.31-0.24-0.76-0.31-0.99
	c0-0.02,0-0.02,0-0.03l6.1,1.18c0.07,0.01,0.13,0.02,0.18,0.02c0.25,0,0.36-0.12,0.41-0.2C27.58,22.19,27.64,21.98,27.37,21.69
	L27.37,21.69z M23.93,15.03l2.75,0.53l-2.59,0.72c-0.32,0.09-0.79,0.22-1.04,0.3c-0.08,0.02-0.14,0.06-0.2,0.11
	c0.02-0.23,0.03-0.46,0.03-0.69c0-0.43-0.04-0.85-0.12-1.26c0.05,0.04,0.12,0.07,0.19,0.09C23.16,14.88,23.6,14.96,23.93,15.03z
	 M26.54,9.7l-3.93,4.41c-0.35-1.24-1.05-2.34-1.98-3.19L26.54,9.7L26.54,9.7z M18.3,9.51c0.08-0.02,0.16-0.07,0.24-0.16
	c0.19-0.21,0.53-0.58,0.76-0.81l1.91-1.93l-0.72,2.45c-0.09,0.31-0.25,0.81-0.35,1.09c-0.04,0.12-0.05,0.23-0.03,0.33l-0.02,0
	l0,0.01c-0.55-0.41-1.16-0.74-1.82-0.97L18.3,9.51L18.3,9.51L18.3,9.51z M15.79,3.68l1.87,5.65c-0.53-0.13-1.09-0.2-1.66-0.2
	c-0.74,0-1.46,0.12-2.13,0.34L15.79,3.68L15.79,3.68z M10.48,6.83l1.87,2.06c0.22,0.24,0.53,0.58,0.7,0.75
	c0.04,0.05,0.09,0.08,0.15,0.1c-0.61,0.28-1.18,0.64-1.68,1.08c0.01-0.04,0.01-0.09-0.01-0.14L10.48,6.83L10.48,6.83z M5.19,9.94
	l5.93,1.23c-0.9,0.91-1.55,2.07-1.83,3.37C9.29,14.54,5.19,9.94,5.19,9.94z M9.21,14.92C9.21,14.92,9.21,14.93,9.21,14.92
	C9.21,14.93,9.21,14.92,9.21,14.92C9.21,14.92,9.21,14.92,9.21,14.92z M8.01,16.74l-2.72-0.67l2.74-0.67
	c0.32-0.08,0.73-0.18,0.91-0.22c0.13-0.03,0.23-0.11,0.27-0.23c-0.05,0.35-0.08,0.7-0.08,1.06c0,0.38,0.03,0.75,0.09,1.12
	c-0.06-0.06-0.13-0.1-0.22-0.13C8.78,16.93,8.33,16.82,8.01,16.74L8.01,16.74z M5.33,22.24l4.02-4.51c0.33,1.27,1.02,2.4,1.95,3.28
	C11.29,21,5.33,22.24,5.33,22.24z M13.36,22.49c-0.19,0.19-0.53,0.55-0.76,0.78l-1.96,2.01l0.84-2.8c0.09-0.31,0.22-0.72,0.27-0.9
	c0.02-0.07,0.02-0.13,0.01-0.19c0.52,0.41,1.1,0.75,1.73,0.99C13.45,22.42,13.4,22.45,13.36,22.49z M16.14,28.32l-1.87-5.67
	c0.55,0.14,1.13,0.22,1.73,0.22c0.71,0,1.4-0.11,2.05-0.31L16.14,28.32L16.14,28.32z M21.62,25.08l-2.72-2.7
	c-0.04-0.04-0.08-0.07-0.12-0.09c0.6-0.26,1.15-0.61,1.65-1.03c-0.01,0.06,0,0.12,0.02,0.19c0.07,0.24,0.21,0.69,0.31,1
	C20.76,22.44,21.62,25.08,21.62,25.08z M16,22.46c-3.56,0-6.46-2.9-6.46-6.46c0-3.56,2.9-6.46,6.46-6.46c3.56,0,6.46,2.9,6.46,6.46
	C22.46,19.56,19.56,22.46,16,22.46z M20.95,20.76c0.87-0.91,1.5-2.06,1.77-3.33l4.08,4.47L20.95,20.76z"/>
</svg>
