<?xml version="1.0" encoding="utf-8"?>
<!-- Generator: Adobe Illustrator 21.1.0, SVG Export Plug-In . SVG Version: 6.00 Build 0)  -->
<!DOCTYPE svg PUBLIC "-//W3C//DTD SVG 1.1//EN" "http://www.w3.org/Graphics/SVG/1.1/DTD/svg11.dtd">
<svg version="1.1" id="Layer_1" xmlns="http://www.w3.org/2000/svg" xmlns:xlink="http://www.w3.org/1999/xlink" x="0px" y="0px"
	 viewBox="0 0 32 32" style="enable-background:new 0 0 32 32;" xml:space="preserve">
<path d="M8.44,20.92c-1.66,0-3,1.35-3,3c0,1.66,1.35,3,3,3c1.65,0,3-1.35,3-3C11.44,22.27,10.1,20.92,8.44,20.92z M8.44,26.47
	c-1.4,0-2.54-1.14-2.54-2.54s1.14-2.54,2.54-2.54s2.54,1.14,2.54,2.54S9.84,26.47,8.44,26.47z M8.44,21.99
	c-1.07,0-1.94,0.87-1.94,1.93s0.87,1.93,1.94,1.93s1.93-0.87,1.93-1.93C10.38,22.86,9.51,21.99,8.44,21.99z M8.44,25.55
	c-0.9,0-1.63-0.73-1.63-1.63c0-0.9,0.73-1.63,1.63-1.63c0.9,0,1.63,0.73,1.63,1.63C10.07,24.82,9.34,25.55,8.44,25.55z M16.01,5.08
	C16.01,5.08,16,5.08,16.01,5.08c-0.01,0-0.02,0-0.02,0c-1.66,0-3,1.35-3,3s1.35,3,3,3c0,0,0.01,0,0.01,0c0,0,0.01,0,0.01,0
	c1.66,0,3-1.35,3-3S17.67,5.08,16.01,5.08z M16.01,10.62C16.01,10.62,16,10.62,16.01,10.62c-0.01,0-0.02,0-0.02,0
	c-1.4,0-2.54-1.14-2.54-2.54s1.14-2.54,2.54-2.54c0,0,0.01,0,0.01,0c0,0,0.01,0,0.01,0c1.4,0,2.54,1.14,2.54,2.54
	S17.41,10.62,16.01,10.62z M16.01,6.14C16.01,6.14,16,6.14,16.01,6.14c-0.01,0-0.02,0-0.02,0c-1.07,0-1.94,0.87-1.94,1.94
	s0.87,1.94,1.94,1.94c0,0,0.01,0,0.01,0c0,0,0.01,0,0.01,0c1.07,0,1.94-0.87,1.94-1.94S17.08,6.14,16.01,6.14z M16.01,9.71
	C16.01,9.71,16,9.71,16.01,9.71c-0.01,0-0.02,0-0.02,0c-0.9,0-1.63-0.73-1.63-1.63s0.73-1.63,1.63-1.63c0,0,0.01,0,0.01,0
	c0,0,0.01,0,0.01,0c0.9,0,1.63,0.73,1.63,1.63S16.91,9.71,16.01,9.71z M16.01,14.74c0,0-0.01,0-0.01,0c0,0-0.01,0-0.01,0
	c-1.16,0-2.11,0.95-2.11,2.11s0.94,2.11,2.11,2.11c0,0,0.01,0,0.01,0c0,0,0.01,0,0.01,0c1.16,0,2.11-0.95,2.11-2.11
	C18.12,15.69,17.17,14.74,16.01,14.74z M16.01,18.5c0,0-0.01,0-0.01,0c0,0-0.01,0-0.01,0c-0.91,0-1.65-0.74-1.65-1.65
	c0-0.91,0.74-1.65,1.65-1.65c0,0,0.01,0,0.01,0c0,0,0.01,0,0.01,0c0.91,0,1.65,0.74,1.65,1.65S16.92,18.5,16.01,18.5z M16.01,15.81
	c0,0-0.01,0-0.01,0c0,0-0.01,0-0.01,0c-0.57,0-1.04,0.47-1.04,1.04c0,0.58,0.47,1.04,1.04,1.04c0,0,0.01,0,0.01,0c0,0,0.01,0,0.01,0
	c0.57,0,1.04-0.47,1.04-1.04C17.05,16.27,16.58,15.81,16.01,15.81z M16.01,17.58c0,0-0.01,0-0.01,0c0,0-0.01,0-0.01,0
	c-0.41,0-0.73-0.33-0.73-0.74s0.33-0.73,0.73-0.73c0,0,0.01,0,0.01,0c0,0,0.01,0,0.01,0c0.41,0,0.73,0.33,0.73,0.73
	C16.74,17.25,16.42,17.58,16.01,17.58z M23.56,20.92c-1.66,0-3,1.35-3,3c0,1.66,1.35,3,3,3s3-1.35,3-3
	C26.56,22.27,25.21,20.92,23.56,20.92z M23.56,26.47c-1.4,0-2.54-1.14-2.54-2.54s1.14-2.54,2.54-2.54c1.4,0,2.54,1.14,2.54,2.54
	S24.96,26.47,23.56,26.47z M23.56,21.99c-1.07,0-1.93,0.87-1.93,1.93s0.87,1.93,1.93,1.93c1.07,0,1.94-0.87,1.94-1.93
	C25.5,22.86,24.63,21.99,23.56,21.99z M23.56,25.55c-0.9,0-1.63-0.73-1.63-1.63c0-0.9,0.73-1.63,1.63-1.63
	c0.9,0,1.63,0.73,1.63,1.63C25.19,24.82,24.46,25.55,23.56,25.55z M27.17,22.04c-0.01-0.02-0.02-0.03-0.03-0.04
	c0-0.01,0-0.02-0.01-0.03L19.77,6.53c-0.01-0.01-0.02-0.02-0.02-0.03c0-0.02-0.01-0.04-0.01-0.07c-0.65-1.48-2.11-2.43-3.73-2.43
	c0,0-0.01,0-0.01,0c0,0-0.01,0-0.01,0c-1.61,0-3.07,0.95-3.73,2.43c-0.01,0.02-0.01,0.04-0.01,0.07c-0.01,0.01-0.02,0.02-0.02,0.03
	L4.87,21.97C4.87,21.98,4.87,21.99,4.87,22c-0.01,0.01-0.02,0.02-0.03,0.04c-0.3,0.58-0.46,1.23-0.46,1.88
	c0,2.24,1.83,4.07,4.07,4.07c2.13,0,3.91-1.66,4.06-3.78c0-0.01,0-0.02-0.01-0.04c0-0.01,0.01-0.01,0.01-0.02l0.98-7.81
	c0.24-1.17,1.29-2.05,2.51-2.05c0,0,0.01,0,0.01,0c0,0,0.01,0,0.01,0c1.22,0,2.27,0.88,2.51,2.05l0.98,7.81
	c0,0.01,0.01,0.01,0.01,0.02c0,0.01-0.01,0.02,0,0.04c0.15,2.12,1.93,3.78,4.06,3.78c2.24,0,4.07-1.83,4.07-4.07
	C27.63,23.27,27.47,22.62,27.17,22.04L27.17,22.04z M23.56,27.38c-1.81,0-3.32-1.41-3.45-3.21c0-0.01-0.01-0.02-0.01-0.03
	c0-0.02,0.01-0.04,0-0.06l-0.94-7.48c0-0.01,0-0.02,0-0.03c-0.01-0.11-0.03-0.22-0.05-0.33v0c0,0,0,0,0,0
	c-0.29-1.46-1.6-2.56-3.11-2.56c0,0-0.01,0-0.01,0c0,0-0.01,0-0.01,0c-1.52,0-2.82,1.1-3.11,2.56c0,0,0,0,0,0l0,0
	c-0.02,0.11-0.04,0.22-0.05,0.33c0,0.01,0,0.02,0,0.03l-0.94,7.48c0,0.02,0,0.04,0,0.06c0,0.01-0.01,0.02-0.01,0.03
	c-0.13,1.8-1.64,3.21-3.45,3.21c-1.91,0-3.46-1.55-3.46-3.46c0-0.56,0.14-1.11,0.39-1.6c0.01-0.01,0.01-0.02,0.01-0.03
	c0.02-0.02,0.03-0.04,0.04-0.06L12.78,6.8c0.01-0.02,0.01-0.05,0.02-0.07c0.01-0.01,0.02-0.02,0.03-0.04
	c0.55-1.26,1.8-2.07,3.16-2.07c0,0,0.01,0,0.01,0s0.01,0,0.01,0c1.37,0,2.61,0.81,3.17,2.07c0.01,0.01,0.02,0.02,0.03,0.04
	c0.01,0.03,0.01,0.05,0.02,0.07l7.35,15.43c0.01,0.02,0.03,0.04,0.04,0.06c0,0.01,0,0.02,0.01,0.03c0.26,0.49,0.39,1.04,0.39,1.6
	C27.01,25.83,25.46,27.38,23.56,27.38L23.56,27.38z"/>
</svg>
