<?xml version="1.0" encoding="utf-8"?>
<!-- Generator: Adobe Illustrator 21.1.0, SVG Export Plug-In . SVG Version: 6.00 Build 0)  -->
<!DOCTYPE svg PUBLIC "-//W3C//DTD SVG 1.1//EN" "http://www.w3.org/Graphics/SVG/1.1/DTD/svg11.dtd">
<svg version="1.1" id="Layer_1" xmlns="http://www.w3.org/2000/svg" xmlns:xlink="http://www.w3.org/1999/xlink" x="0px" y="0px"
	 viewBox="0 0 32 32" style="enable-background:new 0 0 32 32;" xml:space="preserve">
<path d="M21.18,13.69c0.01-0.03,0.02-0.07,0.02-0.11v-1.14c0-2.27-1.45-4.47-3.4-5.21V6.11c0-0.06,0-0.12-0.01-0.18
	c0.19-0.11,0.3-0.27,0.3-0.47V3.72c0-0.65-1.14-0.78-2.1-0.78s-2.1,0.14-2.1,0.78v1.74c0,0.21,0.12,0.36,0.3,0.47
	C14.2,5.99,14.2,6.05,14.2,6.11v1.12c-1.95,0.74-3.4,2.94-3.4,5.21v1.15c0,0.04,0.01,0.07,0.02,0.11l0.25,0.66v8.86l-0.24,0.5
	c-0.02,0.04-0.03,0.09-0.03,0.13c0,4.33,1.26,5.15,3.75,5.2c0.26,0,0.55-0.15,0.85-0.3c0.21-0.11,0.48-0.24,0.61-0.24
	c0.12,0,0.38,0.14,0.57,0.24c0.29,0.16,0.56,0.3,0.82,0.3c2.53-0.05,3.81-0.86,3.81-5.2c0-0.05-0.01-0.1-0.03-0.14l-0.25-0.5
	l0.01-8.86L21.18,13.69L21.18,13.69z M14.52,3.78C14.62,3.7,15.04,3.55,16,3.55s1.38,0.15,1.48,0.23V5.4
	C17.38,5.48,16.96,5.63,16,5.63c-0.96,0-1.38-0.15-1.49-0.23C14.52,5.4,14.52,3.78,14.52,3.78z M20.59,13.53l-0.25,0.67
	c-0.01,0.03-0.02,0.07-0.02,0.11L20.3,23.3c0,0.05,0.01,0.1,0.03,0.14l0.25,0.5c-0.01,4.16-1.22,4.48-3.2,4.51
	c-0.1,0-0.35-0.13-0.53-0.23c-0.29-0.15-0.59-0.31-0.86-0.31c-0.28,0-0.59,0.16-0.89,0.31c-0.2,0.1-0.45,0.23-0.57,0.23
	c-1.94-0.04-3.12-0.37-3.14-4.52l0.24-0.5c0.02-0.04,0.03-0.09,0.03-0.13v-8.99c0-0.04-0.01-0.07-0.02-0.11l-0.25-0.66v-1.1
	c0-2.1,1.37-4.12,3.19-4.7c0.13-0.04,0.22-0.19,0.21-0.33V6.14c0.36,0.07,0.79,0.1,1.19,0.1c0.4,0,0.82-0.02,1.19-0.1v1.3
	c0,0.13,0.09,0.25,0.21,0.29c1.82,0.58,3.19,2.6,3.19,4.7L20.59,13.53L20.59,13.53z M17.15,4c-0.01-0.08-0.09-0.14-0.17-0.13
	c-0.36,0.05-0.79,0.08-1.25,0.06c-0.24-0.01-0.48-0.02-0.7-0.05c-0.08-0.01-0.16,0.05-0.17,0.13s0.05,0.16,0.14,0.17
	c0.23,0.03,0.48,0.04,0.73,0.05c0.09,0,0.18,0,0.26,0c0.38,0,0.73-0.02,1.04-0.07C17.1,4.17,17.16,4.09,17.15,4L17.15,4z
	 M14.82,14.33c-0.13,0.01-0.23,0.1-0.24,0.22c0,0.13,0.1,0.23,0.22,0.24c0.37,0.01,0.77,0.02,1.2,0.02c1.58,0,2.85-0.1,3.46-0.16
	c0.13-0.01,0.22-0.12,0.21-0.25s-0.12-0.22-0.25-0.21c-0.6,0.06-1.85,0.16-3.41,0.16C15.59,14.35,15.19,14.34,14.82,14.33
	L14.82,14.33z M12.51,14.65c0.2,0.02,0.5,0.05,0.88,0.07c0.01,0,0.01,0,0.02,0c0.12,0,0.22-0.09,0.23-0.21
	c0.01-0.13-0.09-0.24-0.21-0.24c-0.37-0.03-0.67-0.05-0.86-0.07c-0.13-0.01-0.24,0.08-0.25,0.21S12.39,14.64,12.51,14.65z
	 M19.41,22.99c-0.48,0.05-1.78,0.16-3.41,0.16c-0.42,0-0.81-0.01-1.18-0.02c-0.13,0-0.23,0.1-0.24,0.22c0,0.13,0.1,0.23,0.22,0.24
	c0.37,0.01,0.77,0.02,1.2,0.02c1.66,0,2.97-0.11,3.46-0.16c0.13-0.01,0.22-0.12,0.21-0.25C19.65,23.07,19.55,22.98,19.41,22.99
	L19.41,22.99z M13.42,23.06c-0.37-0.02-0.67-0.05-0.86-0.07c-0.12-0.01-0.24,0.08-0.25,0.21s0.08,0.24,0.21,0.25
	c0.2,0.02,0.5,0.05,0.88,0.07c0.01,0,0.01,0,0.02,0c0.12,0,0.22-0.09,0.23-0.21C13.65,23.18,13.55,23.07,13.42,23.06z M18.22,21.11
	l0.61-1.18c0,0,0,0,0,0s0,0,0,0c0.24-0.53,0.04-0.91,0.03-0.93l-0.45-0.82c-0.01-0.02-0.03-0.04-0.05-0.04s-0.05,0-0.07,0.01
	l-1.18,0.7c-0.04,0.02-0.05,0.08-0.03,0.12l0.62,1.1h-0.67l0-0.26c0-0.04,0-0.08-0.05-0.12c-0.05-0.03-0.1-0.03-0.16,0.01
	c-0.01,0.01-0.01,0.01-0.02,0.02l-0.68,0.98c-0.02,0.03-0.02,0.07,0,0.1l0.68,0.98c0,0.01,0.01,0.01,0.02,0.02
	c0.03,0.02,0.06,0.03,0.09,0.03c0.02,0,0.05-0.01,0.07-0.02c0.05-0.04,0.05-0.08,0.05-0.12l0-0.26h0.49
	C18.04,21.42,18.21,21.13,18.22,21.11L18.22,21.11z M17.28,18.95l1.03-0.61l0.4,0.74c0.01,0.01,0.17,0.32-0.03,0.77
	c-0.09,0.17-0.39,0.21-0.54,0.21H17.9C17.9,20.06,17.28,18.95,17.28,18.95z M16.95,21.25c-0.02,0-0.05,0.01-0.06,0.03
	c-0.02,0.02-0.02,0.04-0.02,0.06l0,0.21l-0.56-0.81l0.56-0.81l0,0.21c0,0.02,0.01,0.05,0.02,0.06c0.02,0.02,0.04,0.03,0.06,0.03
	h1.19c0.05,0,0.21,0,0.37-0.06l-0.44,0.85c0,0-0.13,0.22-0.54,0.22L16.95,21.25L16.95,21.25z M15.68,21.44L15.68,21.44
	c0.03,0,0.05-0.01,0.06-0.02c0.02-0.02,0.03-0.04,0.03-0.06v-1.37c0-0.05-0.04-0.09-0.09-0.09l-1.28,0l0.35-0.6l0.23,0.14
	c0.03,0.01,0.05,0.03,0.08,0.03c0.02,0,0.04-0.01,0.05-0.01c0.05-0.02,0.07-0.08,0.07-0.14c0-0.01,0-0.02-0.01-0.03l-0.5-1.08
	c-0.02-0.03-0.05-0.05-0.09-0.05l-1.19,0.09c-0.01,0-0.02,0-0.03,0.01c-0.06,0.03-0.09,0.07-0.09,0.13c0,0.07,0.04,0.08,0.08,0.11
	l0.22,0.13l-0.24,0.42c-0.07,0.11-0.11,0.23-0.13,0.34c0,0,0,0,0,0l0,0c0,0,0,0.01,0,0.01v0c-0.03,0.24,0.12,0.51,0.13,0.52l0.62,1
	h0l0,0c0.34,0.48,0.77,0.5,0.78,0.5L15.68,21.44L15.68,21.44z M13.38,19.4c0.02-0.09,0.06-0.19,0.11-0.28l0.29-0.5
	c0.01-0.02,0.01-0.04,0.01-0.07s-0.02-0.04-0.04-0.05l-0.18-0.1l0.98-0.07l0.41,0.89l-0.19-0.11c-0.02-0.01-0.04-0.02-0.07-0.01
	s-0.04,0.02-0.05,0.04L14.2,19.9h0c-0.13,0-0.45-0.02-0.65-0.16C13.44,19.66,13.38,19.54,13.38,19.4L13.38,19.4z M14.11,20.82
	l-0.55-0.88c0.02,0.01,0.04,0.01,0.05,0.02c0.02,0.01,0.05,0.02,0.07,0.03c0.04,0.01,0.08,0.03,0.12,0.03
	c0.02,0.01,0.05,0.01,0.07,0.01c0.05,0.01,0.09,0.01,0.13,0.02c0.02,0,0.03,0,0.05,0.01c0.06,0,0.11,0.01,0.15,0.01
	c0.02,0,0.04,0,0.05,0l0.01,0l1.32,0v1.19l-0.84-0.03C14.73,21.23,14.39,21.22,14.11,20.82L14.11,20.82z M15.36,18.26
	c0.01,0.01,0.03,0.01,0.05,0.01c0.03,0,0.06-0.01,0.07-0.04l0.69-1.05l0.3,0.58l-0.22,0.12c-0.04,0.02-0.07,0.04-0.08,0.1
	c-0.01,0.06,0.03,0.1,0.08,0.13c0.01,0,0.02,0.01,0.03,0.01l1.18,0.15c0,0,0.01,0,0.01,0c0.03,0,0.06-0.02,0.08-0.05l0.55-1.05
	c0-0.01,0.01-0.02,0.01-0.03c0.01-0.06-0.01-0.12-0.06-0.15c-0.01-0.01-0.03-0.02-0.06-0.02c-0.03,0-0.05,0.01-0.07,0.02l-0.25,0.12
	l-0.21-0.43c-0.24-0.46-0.57-0.47-0.59-0.47l-1.33,0c-0.59,0.03-0.83,0.39-0.84,0.4l-0.52,0.77c-0.01,0.02-0.02,0.04-0.01,0.07
	s0.02,0.04,0.04,0.06L15.36,18.26L15.36,18.26z M16.86,16.41c0.01,0,0.25,0.02,0.44,0.38l0.25,0.51c0.01,0.02,0.03,0.04,0.05,0.04
	s0.05,0.01,0.07,0l0.21-0.1l-0.46,0.87l-0.98-0.12l0.18-0.1c0.04-0.02,0.06-0.07,0.04-0.11l-0.53-1.05
	c-0.01-0.01-0.09-0.17-0.22-0.3L16.86,16.41L16.86,16.41z M14.84,16.74c0.01-0.01,0.2-0.3,0.7-0.33c0.2,0,0.38,0.27,0.43,0.38
	l0.11,0.21l-0.7,1.06l-1.01-0.63C14.37,17.44,14.84,16.74,14.84,16.74z"/>
</svg>
