<?xml version="1.0" encoding="utf-8"?>
<!-- Generator: Adobe Illustrator 21.1.0, SVG Export Plug-In . SVG Version: 6.00 Build 0)  -->
<!DOCTYPE svg PUBLIC "-//W3C//DTD SVG 1.1//EN" "http://www.w3.org/Graphics/SVG/1.1/DTD/svg11.dtd">
<svg version="1.1" id="Layer_1" xmlns="http://www.w3.org/2000/svg" xmlns:xlink="http://www.w3.org/1999/xlink" x="0px" y="0px"
	 viewBox="0 0 32 32" style="enable-background:new 0 0 32 32;" xml:space="preserve">
<path d="M28.09,23.49l-2.39-2.98c-0.03-0.33-0.19-0.62-0.43-0.82c0.26-0.23,0.43-0.56,0.43-0.93V8.32c0-0.68-0.56-1.24-1.24-1.24
	H7.72c-0.68,0-1.24,0.56-1.24,1.24v10.44c0,0.37,0.17,0.7,0.43,0.93c-0.23,0.2-0.39,0.49-0.43,0.82l-2.58,2.98
	c-0.05,0.06-0.07,0.13-0.07,0.2c0,0.82,0.31,1.24,0.93,1.24h22.46c0.62,0,0.93-0.42,0.93-1.24C28.16,23.61,28.14,23.54,28.09,23.49
	L28.09,23.49z M7.09,18.76V8.32c0-0.35,0.28-0.63,0.63-0.63h16.75c0.35,0,0.63,0.28,0.63,0.63v10.44c0,0.35-0.28,0.63-0.63,0.63
	H7.72C7.37,19.38,7.09,19.1,7.09,18.76z M27.23,24.31H4.77c-0.13,0-0.3,0-0.32-0.52l2.57-2.97c0.05-0.06,0.07-0.13,0.07-0.2
	c0-0.35,0.28-0.63,0.63-0.63h16.75c0.35,0,0.63,0.28,0.63,0.63c0,0.07,0.02,0.14,0.07,0.19l2.38,2.97
	C27.53,24.31,27.36,24.31,27.23,24.31L27.23,24.31z M23.65,8.4h-7.08c0-0.02,0.01-0.04,0.01-0.06c0-0.27-0.22-0.48-0.48-0.48
	s-0.48,0.22-0.48,0.48c0,0.02,0,0.04,0.01,0.06H8.55c-0.42,0-0.77,0.37-0.77,0.82v8.76c0,0.45,0.34,0.82,0.77,0.82h15.1
	c0.42,0,0.76-0.37,0.76-0.82V9.22C24.41,8.77,24.07,8.4,23.65,8.4z M23.96,17.98c0,0.2-0.14,0.36-0.31,0.36H8.55
	c-0.17,0-0.31-0.16-0.31-0.36V9.22c0-0.2,0.14-0.36,0.31-0.36h15.1c0.17,0,0.31,0.16,0.31,0.36V17.98z M7.58,20.76
	c0-0.08,0.07-0.15,0.15-0.15h16.76c0.08,0,0.15,0.07,0.15,0.15c0,0.08-0.07,0.15-0.15,0.15H7.73C7.65,20.92,7.58,20.85,7.58,20.76z
	 M7.03,21.8c0-0.08,0.07-0.15,0.15-0.15h17.78c0.08,0,0.15,0.07,0.15,0.15c0,0.08-0.07,0.15-0.15,0.15H7.18
	C7.1,21.95,7.03,21.88,7.03,21.8L7.03,21.8z M6.29,22.68h19.27c0.08,0,0.15,0.07,0.15,0.15c0,0.08-0.07,0.15-0.15,0.15H6.29
	c-0.09,0-0.15-0.07-0.15-0.15C6.13,22.75,6.2,22.68,6.29,22.68L6.29,22.68z M21.96,11.08c0.05,0.07,0.03,0.16-0.04,0.21l-4.41,2.96
	c-0.03,0.02-0.06,0.03-0.09,0.03c-0.05,0-0.1-0.02-0.13-0.07c-0.05-0.07-0.03-0.16,0.04-0.21l4.41-2.96
	C21.82,11,21.92,11.01,21.96,11.08L21.96,11.08z M19.73,13.73c0.05,0.07,0.03,0.17-0.04,0.21L16.2,16.3
	c-0.03,0.02-0.06,0.03-0.09,0.03c-0.05,0-0.1-0.02-0.13-0.07c-0.05-0.07-0.03-0.17,0.04-0.21l3.49-2.36
	C19.59,13.64,19.69,13.66,19.73,13.73z"/>
</svg>
