<?xml version="1.0" encoding="utf-8"?>
<!-- Generator: Adobe Illustrator 21.1.0, SVG Export Plug-In . SVG Version: 6.00 Build 0)  -->
<!DOCTYPE svg PUBLIC "-//W3C//DTD SVG 1.1//EN" "http://www.w3.org/Graphics/SVG/1.1/DTD/svg11.dtd">
<svg version="1.1" id="Layer_1" xmlns="http://www.w3.org/2000/svg" xmlns:xlink="http://www.w3.org/1999/xlink" x="0px" y="0px"
	 viewBox="0 0 32 32" style="enable-background:new 0 0 32 32;" xml:space="preserve">
<path d="M16,10.29c2.1,0,3.82-1.71,3.82-3.82S18.1,2.66,16,2.66s-3.82,1.71-3.82,3.82S13.9,10.29,16,10.29z M16,3.2
	c1.8,0,3.27,1.47,3.27,3.27S17.8,9.75,16,9.75s-3.27-1.47-3.27-3.27S14.2,3.2,16,3.2z M10.88,25.94h10.39
	c0.05,0,0.09-0.04,0.09-0.09s-0.04-0.09-0.09-0.09H10.88c-0.05,0-0.1,0.04-0.1,0.09C10.78,25.9,10.82,25.94,10.88,25.94z
	 M22.13,23.47C22.14,23.47,22.14,23.47,22.13,23.47c1.04-0.81,2-1.77,2-3.35v-3.05c0-3.89-2.14-6.04-6.03-6.04H13.9
	c-3.89,0-6.03,2.14-6.03,6.04v3.05c0,1.67,1.09,2.66,2.12,3.45v1.07c0,0.24,0.11,0.44,0.27,0.59c-0.15,0.13-0.25,0.31-0.27,0.51
	l-1.63,1.88c-0.03,0.03-0.05,0.08-0.05,0.13c0,0.52,0.2,0.78,0.59,0.78h14.18c0.39,0,0.59-0.26,0.59-0.78
	c0-0.04-0.01-0.09-0.04-0.12l-1.51-1.88c-0.02-0.21-0.12-0.39-0.27-0.52c0.17-0.14,0.27-0.35,0.27-0.59L22.13,23.47L22.13,23.47z
	 M8.41,20.12v-3.05c0-2.51,0.95-5.49,5.49-5.49h4.19c4.54,0,5.49,2.99,5.49,5.49v3.05c0,1.14-0.57,1.91-1.45,2.65v-4.73
	c0-0.43-0.35-0.78-0.78-0.78h-0.44v-1.72c0-0.15-0.12-0.27-0.27-0.27s-0.27,0.12-0.27,0.27v1.72H11.6v-1.72
	c0-0.15-0.12-0.27-0.27-0.27s-0.27,0.12-0.27,0.27v1.72h-0.29c-0.43,0-0.78,0.35-0.78,0.78v4.83C9.01,22.06,8.41,21.28,8.41,20.12
	L8.41,20.12z M21.25,17.74c0.22,0,0.39,0.17,0.39,0.39v6.47c0,0.21-0.17,0.39-0.39,0.39H10.87c-0.21,0-0.39-0.17-0.39-0.39v-6.47
	c0-0.21,0.18-0.39,0.39-0.39H21.25z M23.16,27.72c-0.01,0.32-0.12,0.32-0.2,0.32H9.04c-0.08,0-0.19,0-0.2-0.32l1.59-1.84
	c0.03-0.03,0.05-0.08,0.05-0.12c0-0.22,0.18-0.39,0.39-0.39h10.38c0.22,0,0.39,0.17,0.39,0.39c0,0.04,0.01,0.08,0.04,0.12
	L23.16,27.72L23.16,27.72z M16.88,21.83c0.02,0,0.04-0.01,0.05-0.02l2.73-1.84c0.04-0.03,0.06-0.09,0.03-0.13
	c-0.03-0.04-0.09-0.05-0.13-0.02l-2.73,1.83c-0.04,0.03-0.06,0.09-0.03,0.13C16.82,21.81,16.85,21.83,16.88,21.83L16.88,21.83z
	 M10.54,26.58h11.02c0.05,0,0.09-0.04,0.09-0.09c0-0.05-0.04-0.09-0.09-0.09H10.54c-0.05,0-0.1,0.04-0.1,0.09
	S10.48,26.58,10.54,26.58z M11.38,24.62h9.36c0.26,0,0.47-0.23,0.47-0.51v-5.43c0-0.28-0.21-0.51-0.47-0.51h-4.39
	c0-0.01,0-0.03,0-0.04c0-0.17-0.13-0.3-0.3-0.3c-0.16,0-0.3,0.13-0.3,0.3c0,0.01,0,0.03,0,0.04h-4.39c-0.26,0-0.48,0.23-0.48,0.51
	v5.43C10.91,24.4,11.12,24.62,11.38,24.62L11.38,24.62z M11.19,18.69c0-0.12,0.09-0.22,0.19-0.22h9.36c0.1,0,0.19,0.1,0.19,0.22
	v5.43c0,0.12-0.09,0.22-0.19,0.22h-9.36c-0.1,0-0.19-0.1-0.19-0.22V18.69L11.19,18.69z M16.07,23.09c0.02,0,0.04,0,0.05-0.02
	l2.17-1.46c0.04-0.03,0.05-0.09,0.02-0.13c-0.03-0.04-0.09-0.05-0.13-0.02l-2.17,1.46c-0.04,0.03-0.05,0.09-0.03,0.13
	C16.01,23.08,16.04,23.09,16.07,23.09L16.07,23.09z M9.89,27.13c0,0.05,0.04,0.09,0.1,0.09h11.94c0.05,0,0.09-0.04,0.09-0.09
	s-0.04-0.1-0.09-0.1H9.98C9.93,27.03,9.88,27.07,9.89,27.13L9.89,27.13z"/>
</svg>
