<?xml version="1.0" encoding="utf-8"?>
<!-- Generator: Adobe Illustrator 21.1.0, SVG Export Plug-In . SVG Version: 6.00 Build 0)  -->
<!DOCTYPE svg PUBLIC "-//W3C//DTD SVG 1.1//EN" "http://www.w3.org/Graphics/SVG/1.1/DTD/svg11.dtd">
<svg version="1.1" id="Layer_1" xmlns="http://www.w3.org/2000/svg" xmlns:xlink="http://www.w3.org/1999/xlink" x="0px" y="0px"
	 viewBox="0 0 32 32" style="enable-background:new 0 0 32 32;" xml:space="preserve">
<path d="M11.66,9.86C11.66,9.86,11.66,9.86,11.66,9.86c0,0.24,0.19,0.43,0.42,0.43s0.42-0.19,0.42-0.42c0,0,0,0,0-0.01s0,0,0-0.01
	c0-0.23-0.19-0.42-0.42-0.42S11.66,9.62,11.66,9.86C11.66,9.86,11.66,9.86,11.66,9.86z M13.15,14.98c0,0.23,0.19,0.42,0.42,0.42
	S14,15.21,14,14.98s-0.19-0.42-0.42-0.42S13.15,14.74,13.15,14.98z M11.66,14.98C11.66,14.98,11.66,14.98,11.66,14.98
	c0,0.24,0.19,0.43,0.42,0.43s0.42-0.19,0.42-0.42c0,0,0,0,0-0.01s0,0,0-0.01c0-0.23-0.19-0.42-0.42-0.42S11.66,14.74,11.66,14.98
	C11.66,14.97,11.66,14.97,11.66,14.98z M11.66,13.45C11.66,13.45,11.66,13.45,11.66,13.45c0,0.24,0.19,0.43,0.42,0.43
	s0.42-0.19,0.42-0.42c0,0,0,0,0-0.01s0,0,0-0.01c0-0.23-0.19-0.42-0.42-0.42S11.66,13.21,11.66,13.45
	C11.66,13.45,11.66,13.45,11.66,13.45z M13.15,13.45c0,0.23,0.19,0.42,0.42,0.42S14,13.68,14,13.45s-0.19-0.42-0.42-0.42
	S13.15,13.22,13.15,13.45z M20.71,8.33c0,0,0,0.01,0,0.01c0,0.23,0.19,0.42,0.42,0.42c0.23,0,0.42-0.19,0.42-0.42c0,0,0-0.01,0-0.01
	c0,0,0-0.01,0-0.01c0-0.23-0.19-0.42-0.42-0.42c-0.23,0-0.42,0.19-0.42,0.42C20.71,8.32,20.71,8.33,20.71,8.33z M8.62,13.45
	C8.62,13.45,8.62,13.45,8.62,13.45c0,0.24,0.19,0.43,0.42,0.43s0.42-0.19,0.42-0.42c0,0,0,0,0-0.01s0,0,0-0.01
	c0-0.23-0.19-0.42-0.42-0.42S8.62,13.21,8.62,13.45C8.62,13.45,8.62,13.45,8.62,13.45z M10.11,13.45
	C10.11,13.45,10.11,13.45,10.11,13.45c0,0.24,0.19,0.43,0.42,0.43s0.42-0.19,0.42-0.42c0,0,0,0,0-0.01s0,0,0-0.01
	c0-0.23-0.19-0.42-0.42-0.42S10.11,13.21,10.11,13.45C10.11,13.45,10.11,13.45,10.11,13.45z M8.62,14.98
	C8.62,14.98,8.62,14.98,8.62,14.98c0,0.24,0.19,0.43,0.42,0.43s0.42-0.19,0.42-0.42c0,0,0,0,0-0.01s0,0,0-0.01
	c0-0.23-0.19-0.42-0.42-0.42S8.62,14.74,8.62,14.98C8.62,14.97,8.62,14.97,8.62,14.98z M10.11,14.98
	C10.11,14.98,10.11,14.98,10.11,14.98c0,0.24,0.19,0.43,0.42,0.43s0.42-0.19,0.42-0.42c0,0,0,0,0-0.01s0,0,0-0.01
	c0-0.23-0.19-0.42-0.42-0.42S10.11,14.74,10.11,14.98C10.11,14.97,10.11,14.97,10.11,14.98z M14.69,14.98L14.69,14.98
	c0,0.23,0.19,0.42,0.42,0.42s0.42-0.19,0.42-0.42l0,0l0,0c0-0.23-0.19-0.42-0.42-0.42S14.69,14.74,14.69,14.98
	S14.69,14.98,14.69,14.98z M17.73,13.45c0,0.23,0.19,0.42,0.42,0.42s0.42-0.19,0.42-0.42s-0.19-0.42-0.42-0.42
	C17.91,13.03,17.73,13.22,17.73,13.45z M19.22,14.98c0,0,0,0.01,0,0.01c0,0.23,0.19,0.42,0.42,0.42c0.23,0,0.42-0.19,0.42-0.42
	c0,0,0-0.01,0-0.01c0,0,0-0.01,0-0.01c0-0.23-0.19-0.42-0.42-0.42c-0.23,0-0.42,0.19-0.42,0.42C19.22,14.97,19.22,14.97,19.22,14.98
	L19.22,14.98z M19.22,13.45c0,0,0,0.01,0,0.01c0,0.23,0.19,0.42,0.42,0.42c0.23,0,0.42-0.19,0.42-0.42c0,0,0-0.01,0-0.01
	c0,0,0-0.01,0-0.01c0-0.23-0.19-0.42-0.42-0.42c-0.23,0-0.42,0.19-0.42,0.42C19.22,13.44,19.22,13.45,19.22,13.45L19.22,13.45z
	 M14.69,13.45L14.69,13.45c0,0.23,0.19,0.42,0.42,0.42s0.42-0.19,0.42-0.42l0,0l0,0c0-0.23-0.19-0.42-0.42-0.42
	S14.69,13.22,14.69,13.45S14.69,13.45,14.69,13.45z M20.71,14.98c0,0,0,0.01,0,0.01c0,0.23,0.19,0.42,0.42,0.42
	c0.23,0,0.42-0.19,0.42-0.42c0,0,0-0.01,0-0.01c0,0,0-0.01,0-0.01c0-0.23-0.19-0.42-0.42-0.42c-0.23,0-0.42,0.19-0.42,0.42
	C20.71,14.97,20.71,14.97,20.71,14.98z M17.73,14.98c0,0.23,0.19,0.42,0.42,0.42s0.42-0.19,0.42-0.42s-0.19-0.42-0.42-0.42
	C17.91,14.55,17.73,14.74,17.73,14.98z M16.18,14.98c0,0,0,0.01,0,0.01c0,0.23,0.19,0.42,0.42,0.42s0.42-0.19,0.42-0.42
	c0,0,0-0.01,0-0.01c0,0,0-0.01,0-0.01c0-0.23-0.19-0.42-0.42-0.42c-0.23,0-0.42,0.19-0.42,0.42C16.18,14.97,16.18,14.97,16.18,14.98
	L16.18,14.98z M16.18,13.45c0,0,0,0.01,0,0.01c0,0.23,0.19,0.42,0.42,0.42s0.42-0.19,0.42-0.42c0,0,0-0.01,0-0.01c0,0,0-0.01,0-0.01
	c0-0.23-0.19-0.42-0.42-0.42c-0.23,0-0.42,0.19-0.42,0.42C16.18,13.44,16.18,13.45,16.18,13.45L16.18,13.45z M14.69,8.33L14.69,8.33
	c0,0.23,0.19,0.42,0.42,0.42s0.42-0.19,0.42-0.42l0,0l0,0c0-0.23-0.19-0.42-0.42-0.42S14.69,8.1,14.69,8.33S14.69,8.33,14.69,8.33z
	 M20.71,23.66c0,0,0,0.01,0,0.01c0,0.23,0.19,0.42,0.42,0.42c0.23,0,0.42-0.19,0.42-0.42c0,0,0-0.01,0-0.01c0,0,0-0.01,0-0.01
	c0-0.23-0.19-0.42-0.42-0.42c-0.23,0-0.42,0.19-0.42,0.42C20.71,23.66,20.71,23.66,20.71,23.66z M11.66,8.33
	C11.66,8.33,11.66,8.34,11.66,8.33c0,0.24,0.19,0.43,0.42,0.43s0.42-0.19,0.42-0.42c0,0,0,0,0-0.01s0,0,0-0.01
	c0-0.23-0.19-0.42-0.42-0.42S11.66,8.09,11.66,8.33C11.66,8.33,11.66,8.33,11.66,8.33z M10.11,9.86
	C10.11,9.86,10.11,9.86,10.11,9.86c0,0.24,0.19,0.43,0.42,0.43s0.42-0.19,0.42-0.42c0,0,0,0,0-0.01s0,0,0-0.01
	c0-0.23-0.19-0.42-0.42-0.42S10.11,9.62,10.11,9.86C10.11,9.86,10.11,9.86,10.11,9.86z M13.15,9.86c0,0.23,0.19,0.42,0.42,0.42
	S14,10.09,14,9.86s-0.19-0.42-0.42-0.42S13.15,9.63,13.15,9.86z M25.11,6.52c0.04-0.14-0.02-0.29-0.16-0.35l-2.82-1.38
	C22.09,4.77,22.05,4.75,22,4.75H10.43c-0.04,0-0.08,0.01-0.12,0.02L7.06,6.16C6.92,6.22,6.85,6.37,6.89,6.52
	C6.89,6.54,6.88,6.57,6.88,6.6v5.08v5.08c0,0.01,0,0.01,0,0.02c0,0.01,0,0.01,0,0.02v10.15c0,0.17,0.14,0.31,0.31,0.31h17.63
	c0.17,0,0.31-0.14,0.31-0.31v-5.08v-5.08c0-0.01,0-0.01,0-0.02c0-0.01,0-0.01,0-0.02V6.6C25.12,6.57,25.11,6.54,25.11,6.52
	L25.11,6.52z M10.49,5.37h11.44l1.89,0.92H8.32L10.49,5.37z M24.51,24.86h-1.54c-0.25,0-0.46-0.2-0.46-0.46s0.2-0.46,0.46-0.46h1.54
	V24.86L24.51,24.86z M24.51,23.64h-1.54c-0.42,0-0.76,0.34-0.76,0.76s0.34,0.76,0.76,0.76h1.54v1.47H7.49v-4.46h17.02
	C24.51,22.17,24.51,23.64,24.51,23.64z M24.51,19.9h-1.54c-0.25,0-0.46-0.2-0.46-0.46s0.2-0.46,0.46-0.46h1.54V19.9L24.51,19.9z
	 M24.51,18.68h-1.54c-0.42,0-0.76,0.34-0.76,0.76s0.34,0.76,0.76,0.76h1.54v1.36H7.49V17.1h17.02V18.68z M24.51,14.67h-1.54
	c-0.25,0-0.46-0.2-0.46-0.46s0.2-0.46,0.46-0.46h1.54V14.67L24.51,14.67z M24.51,13.45h-1.54c-0.42,0-0.76,0.34-0.76,0.76
	s0.34,0.76,0.76,0.76h1.54v1.47H7.49v-4.46h17.02V13.45L24.51,13.45z M24.51,9.71h-1.54c-0.25,0-0.46-0.2-0.46-0.46
	s0.2-0.46,0.46-0.46h1.54V9.71L24.51,9.71z M24.51,8.49h-1.54c-0.42,0-0.76,0.34-0.76,0.76s0.34,0.76,0.76,0.76h1.54v1.36H7.49V6.9
	h17.02C24.51,6.9,24.51,8.49,24.51,8.49z M8.62,8.33C8.62,8.33,8.62,8.34,8.62,8.33c0,0.24,0.19,0.43,0.42,0.43s0.42-0.19,0.42-0.42
	c0,0,0,0,0-0.01s0,0,0-0.01c0-0.23-0.19-0.42-0.42-0.42S8.62,8.09,8.62,8.33C8.62,8.33,8.62,8.33,8.62,8.33z M13.15,8.33
	c0,0.23,0.19,0.42,0.42,0.42S14,8.57,14,8.33s-0.19-0.42-0.42-0.42S13.15,8.1,13.15,8.33z M8.62,9.86C8.62,9.86,8.62,9.86,8.62,9.86
	c0,0.24,0.19,0.43,0.42,0.43s0.42-0.19,0.42-0.42c0,0,0,0,0-0.01s0,0,0-0.01c0-0.23-0.19-0.42-0.42-0.42S8.62,9.62,8.62,9.86
	C8.62,9.86,8.62,9.86,8.62,9.86z M16.18,8.33c0,0,0,0.01,0,0.01c0,0.23,0.19,0.42,0.42,0.42s0.42-0.19,0.42-0.42c0,0,0-0.01,0-0.01
	c0,0,0-0.01,0-0.01c0-0.23-0.19-0.42-0.42-0.42c-0.23,0-0.42,0.19-0.42,0.42C16.18,8.32,16.18,8.33,16.18,8.33L16.18,8.33z
	 M17.73,8.33c0,0.23,0.19,0.42,0.42,0.42s0.42-0.19,0.42-0.42s-0.19-0.42-0.42-0.42C17.91,7.91,17.73,8.1,17.73,8.33z M17.73,9.86
	c0,0.23,0.19,0.42,0.42,0.42s0.42-0.19,0.42-0.42s-0.19-0.42-0.42-0.42C17.91,9.44,17.73,9.63,17.73,9.86z M19.22,9.86
	c0,0,0,0.01,0,0.01c0,0.23,0.19,0.42,0.42,0.42c0.23,0,0.42-0.19,0.42-0.42c0,0,0-0.01,0-0.01c0,0,0-0.01,0-0.01
	c0-0.23-0.19-0.42-0.42-0.42c-0.23,0-0.42,0.19-0.42,0.42C19.22,9.85,19.22,9.86,19.22,9.86L19.22,9.86z M19.22,8.33
	c0,0,0,0.01,0,0.01c0,0.23,0.19,0.42,0.42,0.42c0.23,0,0.42-0.19,0.42-0.42c0,0,0-0.01,0-0.01c0,0,0-0.01,0-0.01
	c0-0.23-0.19-0.42-0.42-0.42c-0.23,0-0.42,0.19-0.42,0.42C19.22,8.32,19.22,8.33,19.22,8.33L19.22,8.33z M14.69,9.86L14.69,9.86
	c0,0.23,0.19,0.42,0.42,0.42s0.42-0.19,0.42-0.42l0,0l0,0c0-0.23-0.19-0.42-0.42-0.42S14.69,9.63,14.69,9.86S14.69,9.86,14.69,9.86z
	 M20.71,13.45c0,0,0,0.01,0,0.01c0,0.23,0.19,0.42,0.42,0.42c0.23,0,0.42-0.19,0.42-0.42c0,0,0-0.01,0-0.01c0,0,0-0.01,0-0.01
	c0-0.23-0.19-0.42-0.42-0.42c-0.23,0-0.42,0.19-0.42,0.42C20.71,13.44,20.71,13.44,20.71,13.45z M16.18,9.86c0,0,0,0.01,0,0.01
	c0,0.23,0.19,0.42,0.42,0.42s0.42-0.19,0.42-0.42c0,0,0-0.01,0-0.01c0,0,0-0.01,0-0.01c0-0.23-0.19-0.42-0.42-0.42
	c-0.23,0-0.42,0.19-0.42,0.42C16.18,9.85,16.18,9.86,16.18,9.86L16.18,9.86z M20.71,9.86c0,0,0,0.01,0,0.01
	c0,0.23,0.19,0.42,0.42,0.42c0.23,0,0.42-0.19,0.42-0.42c0,0,0-0.01,0-0.01c0,0,0-0.01,0-0.01c0-0.23-0.19-0.42-0.42-0.42
	c-0.23,0-0.42,0.19-0.42,0.42C20.71,9.85,20.71,9.86,20.71,9.86z M10.11,8.33C10.11,8.33,10.11,8.34,10.11,8.33
	c0,0.24,0.19,0.43,0.42,0.43s0.42-0.19,0.42-0.42c0,0,0,0,0-0.01s0,0,0-0.01c0-0.23-0.19-0.42-0.42-0.42S10.11,8.09,10.11,8.33
	C10.11,8.33,10.11,8.33,10.11,8.33z M14.69,25.19L14.69,25.19c0,0.23,0.19,0.42,0.42,0.42s0.42-0.19,0.42-0.42l0,0l0,0
	c0-0.23-0.19-0.42-0.42-0.42S14.69,24.96,14.69,25.19S14.69,25.19,14.69,25.19z M11.66,25.19C11.66,25.19,11.66,25.19,11.66,25.19
	c0,0.24,0.19,0.43,0.42,0.43s0.42-0.19,0.42-0.42c0,0,0,0,0,0s0,0,0,0c0-0.23-0.19-0.42-0.42-0.42S11.66,24.95,11.66,25.19
	C11.66,25.19,11.66,25.19,11.66,25.19z M8.62,25.19C8.62,25.19,8.62,25.19,8.62,25.19c0,0.24,0.19,0.43,0.42,0.43
	s0.42-0.19,0.42-0.42c0,0,0,0,0,0s0,0,0,0c0-0.23-0.19-0.42-0.42-0.42S8.62,24.95,8.62,25.19C8.62,25.19,8.62,25.19,8.62,25.19z
	 M13.15,23.66c0,0.23,0.19,0.42,0.42,0.42S14,23.9,14,23.66c0-0.23-0.19-0.42-0.42-0.42S13.15,23.43,13.15,23.66z M11.66,23.66
	C11.66,23.67,11.66,23.67,11.66,23.66c0,0.24,0.19,0.43,0.42,0.43s0.42-0.19,0.42-0.42c0,0,0,0,0,0s0,0,0,0
	c0-0.23-0.19-0.42-0.42-0.42S11.66,23.43,11.66,23.66C11.66,23.66,11.66,23.66,11.66,23.66z M8.62,23.66
	C8.62,23.67,8.62,23.67,8.62,23.66c0,0.24,0.19,0.43,0.42,0.43s0.42-0.19,0.42-0.42c0,0,0,0,0,0s0,0,0,0c0-0.23-0.19-0.42-0.42-0.42
	S8.62,23.43,8.62,23.66C8.62,23.66,8.62,23.66,8.62,23.66z M10.11,23.66C10.11,23.67,10.11,23.67,10.11,23.66
	c0,0.24,0.19,0.43,0.42,0.43s0.42-0.19,0.42-0.42c0,0,0,0,0,0s0,0,0,0c0-0.23-0.19-0.42-0.42-0.42S10.11,23.43,10.11,23.66
	C10.11,23.66,10.11,23.66,10.11,23.66z M10.11,25.19C10.11,25.19,10.11,25.19,10.11,25.19c0,0.24,0.19,0.43,0.42,0.43
	s0.42-0.19,0.42-0.42c0,0,0,0,0,0s0,0,0,0c0-0.23-0.19-0.42-0.42-0.42S10.11,24.95,10.11,25.19C10.11,25.19,10.11,25.19,10.11,25.19
	z M13.15,25.19c0,0.23,0.19,0.42,0.42,0.42S14,25.42,14,25.19c0-0.23-0.19-0.42-0.42-0.42S13.15,24.96,13.15,25.19z M19.22,25.19
	c0,0,0,0.01,0,0.01c0,0.23,0.19,0.42,0.42,0.42c0.23,0,0.42-0.19,0.42-0.42c0,0,0-0.01,0-0.01c0,0,0-0.01,0-0.01
	c0-0.23-0.19-0.42-0.42-0.42c-0.23,0-0.42,0.19-0.42,0.42C19.22,25.18,19.22,25.19,19.22,25.19L19.22,25.19z M19.22,23.66
	c0,0,0,0.01,0,0.01c0,0.23,0.19,0.42,0.42,0.42c0.23,0,0.42-0.19,0.42-0.42c0,0,0-0.01,0-0.01c0,0,0-0.01,0-0.01
	c0-0.23-0.19-0.42-0.42-0.42c-0.23,0-0.42,0.19-0.42,0.42C19.22,23.66,19.22,23.66,19.22,23.66L19.22,23.66z M20.71,25.19
	c0,0,0,0.01,0,0.01c0,0.23,0.19,0.42,0.42,0.42c0.23,0,0.42-0.19,0.42-0.42c0,0,0-0.01,0-0.01c0,0,0-0.01,0-0.01
	c0-0.23-0.19-0.42-0.42-0.42c-0.23,0-0.42,0.19-0.42,0.42C20.71,25.18,20.71,25.19,20.71,25.19z M17.73,23.66
	c0,0.23,0.19,0.42,0.42,0.42s0.42-0.19,0.42-0.42c0-0.23-0.19-0.42-0.42-0.42C17.91,23.24,17.73,23.43,17.73,23.66z M17.73,25.19
	c0,0.23,0.19,0.42,0.42,0.42s0.42-0.19,0.42-0.42c0-0.23-0.19-0.42-0.42-0.42C17.91,24.77,17.73,24.96,17.73,25.19z M16.18,25.19
	c0,0,0,0.01,0,0.01c0,0.23,0.19,0.42,0.42,0.42s0.42-0.19,0.42-0.42c0,0,0-0.01,0-0.01c0,0,0-0.01,0-0.01
	c0-0.23-0.19-0.42-0.42-0.42c-0.23,0-0.42,0.19-0.42,0.42C16.18,25.18,16.18,25.19,16.18,25.19L16.18,25.19z M14.69,23.66
	L14.69,23.66c0,0.23,0.19,0.42,0.42,0.42s0.42-0.19,0.42-0.42l0,0l0,0c0-0.23-0.19-0.42-0.42-0.42S14.69,23.43,14.69,23.66
	S14.69,23.66,14.69,23.66z M16.18,23.66c0,0,0,0.01,0,0.01c0,0.23,0.19,0.42,0.42,0.42s0.42-0.19,0.42-0.42c0,0,0-0.01,0-0.01
	c0,0,0-0.01,0-0.01c0-0.23-0.19-0.42-0.42-0.42c-0.23,0-0.42,0.19-0.42,0.42C16.18,23.66,16.18,23.66,16.18,23.66L16.18,23.66z
	 M13.15,18.56c0,0.23,0.19,0.42,0.42,0.42S14,18.8,14,18.56c0-0.23-0.19-0.42-0.42-0.42S13.15,18.33,13.15,18.56z M14.69,20.09
	L14.69,20.09c0,0.23,0.19,0.42,0.42,0.42s0.42-0.19,0.42-0.42l0,0l0,0c0-0.23-0.19-0.42-0.42-0.42S14.69,19.86,14.69,20.09
	S14.69,20.09,14.69,20.09z M13.15,20.09c0,0.23,0.19,0.42,0.42,0.42S14,20.32,14,20.09c0-0.23-0.19-0.42-0.42-0.42
	S13.15,19.86,13.15,20.09z M8.62,20.09C8.62,20.09,8.62,20.09,8.62,20.09c0,0.24,0.19,0.43,0.42,0.43s0.42-0.19,0.42-0.42
	c0,0,0,0,0,0s0,0,0,0c0-0.23-0.19-0.42-0.42-0.42S8.62,19.85,8.62,20.09C8.62,20.09,8.62,20.09,8.62,20.09z M11.66,20.09
	C11.66,20.09,11.66,20.09,11.66,20.09c0,0.24,0.19,0.43,0.42,0.43s0.42-0.19,0.42-0.42c0,0,0,0,0,0s0,0,0,0
	c0-0.23-0.19-0.42-0.42-0.42S11.66,19.85,11.66,20.09C11.66,20.09,11.66,20.09,11.66,20.09z M11.66,18.56
	C11.66,18.57,11.66,18.57,11.66,18.56c0,0.24,0.19,0.43,0.42,0.43s0.42-0.19,0.42-0.42c0,0,0,0,0,0s0,0,0,0
	c0-0.23-0.19-0.42-0.42-0.42S11.66,18.33,11.66,18.56C11.66,18.56,11.66,18.56,11.66,18.56z M8.62,18.56
	C8.62,18.57,8.62,18.57,8.62,18.56c0,0.24,0.19,0.43,0.42,0.43s0.42-0.19,0.42-0.42c0,0,0,0,0,0s0,0,0,0c0-0.23-0.19-0.42-0.42-0.42
	S8.62,18.33,8.62,18.56C8.62,18.56,8.62,18.56,8.62,18.56z M10.11,20.09C10.11,20.09,10.11,20.09,10.11,20.09
	c0,0.24,0.19,0.43,0.42,0.43s0.42-0.19,0.42-0.42c0,0,0,0,0,0s0,0,0,0c0-0.23-0.19-0.42-0.42-0.42S10.11,19.85,10.11,20.09
	C10.11,20.09,10.11,20.09,10.11,20.09z M10.11,18.56C10.11,18.57,10.11,18.57,10.11,18.56c0,0.24,0.19,0.43,0.42,0.43
	s0.42-0.19,0.42-0.42c0,0,0,0,0,0s0,0,0,0c0-0.23-0.19-0.42-0.42-0.42S10.11,18.33,10.11,18.56C10.11,18.56,10.11,18.56,10.11,18.56
	z M17.73,20.09c0,0.23,0.19,0.42,0.42,0.42s0.42-0.19,0.42-0.42c0-0.23-0.19-0.42-0.42-0.42C17.91,19.67,17.73,19.86,17.73,20.09z
	 M19.22,20.09c0,0,0,0.01,0,0.01c0,0.23,0.19,0.42,0.42,0.42c0.23,0,0.42-0.19,0.42-0.42c0,0,0-0.01,0-0.01c0,0,0-0.01,0-0.01
	c0-0.23-0.19-0.42-0.42-0.42c-0.23,0-0.42,0.19-0.42,0.42C19.22,20.08,19.22,20.09,19.22,20.09L19.22,20.09z M19.22,18.56
	c0,0,0,0.01,0,0.01c0,0.23,0.19,0.42,0.42,0.42c0.23,0,0.42-0.19,0.42-0.42c0,0,0-0.01,0-0.01c0,0,0-0.01,0-0.01
	c0-0.23-0.19-0.42-0.42-0.42c-0.23,0-0.42,0.19-0.42,0.42C19.22,18.56,19.22,18.56,19.22,18.56L19.22,18.56z M17.73,18.56
	c0,0.23,0.19,0.42,0.42,0.42s0.42-0.19,0.42-0.42c0-0.23-0.19-0.42-0.42-0.42C17.91,18.14,17.73,18.33,17.73,18.56z M14.69,18.56
	L14.69,18.56c0,0.23,0.19,0.42,0.42,0.42s0.42-0.19,0.42-0.42l0,0l0,0c0-0.23-0.19-0.42-0.42-0.42S14.69,18.33,14.69,18.56
	S14.69,18.56,14.69,18.56z M20.71,20.09c0,0,0,0.01,0,0.01c0,0.23,0.19,0.42,0.42,0.42c0.23,0,0.42-0.19,0.42-0.42
	c0,0,0-0.01,0-0.01c0,0,0-0.01,0-0.01c0-0.23-0.19-0.42-0.42-0.42c-0.23,0-0.42,0.19-0.42,0.42C20.71,20.08,20.71,20.09,20.71,20.09
	z M20.71,18.56c0,0,0,0.01,0,0.01c0,0.23,0.19,0.42,0.42,0.42c0.23,0,0.42-0.19,0.42-0.42c0,0,0-0.01,0-0.01c0,0,0-0.01,0-0.01
	c0-0.23-0.19-0.42-0.42-0.42c-0.23,0-0.42,0.19-0.42,0.42C20.71,18.56,20.71,18.56,20.71,18.56z M16.18,20.09c0,0,0,0.01,0,0.01
	c0,0.23,0.19,0.42,0.42,0.42s0.42-0.19,0.42-0.42c0,0,0-0.01,0-0.01c0,0,0-0.01,0-0.01c0-0.23-0.19-0.42-0.42-0.42
	c-0.23,0-0.42,0.19-0.42,0.42C16.18,20.08,16.18,20.09,16.18,20.09L16.18,20.09z M16.18,18.56c0,0,0,0.01,0,0.01
	c0,0.23,0.19,0.42,0.42,0.42s0.42-0.19,0.42-0.42c0,0,0-0.01,0-0.01c0,0,0-0.01,0-0.01c0-0.23-0.19-0.42-0.42-0.42
	c-0.23,0-0.42,0.19-0.42,0.42C16.18,18.56,16.18,18.56,16.18,18.56L16.18,18.56z"/>
</svg>
