<?xml version="1.0" encoding="utf-8"?>
<!-- Generator: Adobe Illustrator 21.1.0, SVG Export Plug-In . SVG Version: 6.00 Build 0)  -->
<!DOCTYPE svg PUBLIC "-//W3C//DTD SVG 1.1//EN" "http://www.w3.org/Graphics/SVG/1.1/DTD/svg11.dtd">
<svg version="1.1" id="Layer_1" xmlns="http://www.w3.org/2000/svg" xmlns:xlink="http://www.w3.org/1999/xlink" x="0px" y="0px"
	 viewBox="0 0 31.68 31.68" style="enable-background:new 0 0 31.68 31.68;" xml:space="preserve">
<path d="M17.17,16.5c0.06,0,0.11-0.03,0.15-0.08L20.27,12c0.05-0.08,0.03-0.19-0.05-0.24c-0.08-0.05-0.19-0.03-0.24,0.05l0,0
	l-2.95,4.42c-0.05,0.08-0.03,0.19,0.05,0.24C17.1,16.49,17.14,16.5,17.17,16.5L17.17,16.5z M24.99,8.91c-0.12-0.48-0.51-0.85-1-0.95
	c-0.03-0.01-0.07-0.01-0.11,0c-0.89-0.29-3-0.58-8.04-0.58S8.68,7.68,7.79,7.96c-0.03,0-0.07,0-0.1,0c-0.49,0.1-0.88,0.47-1,0.95
	c-0.05,0.32,0.04,0.78,0.77,1.22c0.05,0.03,0.12,0.05,0.18,0.05c0.15,0.05,0.29,0.1,0.45,0.14l6.21,9.1l0.24,6.55
	c0,0.14,0.1,0.27,0.24,0.32c0.35,0.11,0.72,0.17,1.09,0.17c0.33,0,0.66-0.06,0.97-0.18c0.13-0.05,0.21-0.17,0.21-0.31l0.3-6.59
	l6.03-9.01c0.22-0.05,0.44-0.11,0.65-0.19h0.02c0.06,0,0.12-0.02,0.18-0.05C24.95,9.7,25.04,9.23,24.99,8.91z M15.84,8.09
	c3.81,0,6.34,0.21,7.45,0.42c-1.13,0.22-3.65,0.42-7.45,0.42S9.5,8.73,8.39,8.51C9.5,8.3,12.03,8.09,15.84,8.09z M16.71,19.08
	c-0.04,0.05-0.06,0.11-0.06,0.18l-0.29,6.44c-0.37,0.08-0.76,0.08-1.13,0L15,19.29c0-0.07-0.02-0.13-0.06-0.19l-5.86-8.6
	c2.25,0.25,4.51,0.35,6.77,0.31c2.2,0.04,4.4-0.06,6.58-0.28L16.71,19.08z M23.89,9.51c-0.35,0.24-3.14,0.6-8.07,0.6
	c-4.82,0-7.58-0.35-8.03-0.59c-0.29-0.18-0.45-0.35-0.42-0.5C7.38,8.98,7.4,8.94,7.42,8.91c0.61,0.35,2.51,0.73,8.39,0.73
	s7.82-0.39,8.42-0.73c0.03,0.04,0.05,0.08,0.06,0.12C24.32,9.16,24.17,9.34,23.89,9.51z"/>
</svg>
