<?xml version="1.0" encoding="utf-8"?>
<!-- Generator: Adobe Illustrator 21.1.0, SVG Export Plug-In . SVG Version: 6.00 Build 0)  -->
<!DOCTYPE svg PUBLIC "-//W3C//DTD SVG 1.1//EN" "http://www.w3.org/Graphics/SVG/1.1/DTD/svg11.dtd">
<svg version="1.1" id="Layer_1" xmlns="http://www.w3.org/2000/svg" xmlns:xlink="http://www.w3.org/1999/xlink" x="0px" y="0px"
	 viewBox="0 0 31.68 31.68" style="enable-background:new 0 0 31.68 31.68;" xml:space="preserve">
<g>
	<g>
		<path d="M23.64,15.9h-0.1c0.28-0.32,0.45-0.74,0.45-1.19v-0.17c0-1-0.82-1.82-1.82-1.82h-3.36c0.98-0.93,2.76-2.9,2.66-4.87
			c-0.09-1.76-0.98-2.16-1.36-2.25c-0.74-0.18-1.56,0.26-2.01,1.05c-0.08,0.15-0.16,0.29-0.23,0.43c-0.6,1.11-1.08,1.99-3.15,3.42
			c-0.9,0.62-1.52,1.24-2.07,1.78c-0.91,0.9-1.52,1.5-2.76,1.52H8.17c-1.08,0-1.96,0.88-1.96,1.96v5.01c0,1.08,0.88,1.95,1.95,1.96
			l1.88,0.01c0.1,0.09,0.29,0.36,0.45,0.58c0.75,1.05,2.01,2.8,3.95,2.8h2.85h0.7h2.45c1,0,1.82-0.82,1.82-1.82v-0.17
			c0-0.46-0.18-0.89-0.46-1.21h0.36c1,0,1.82-0.82,1.82-1.82v-0.17c0-0.47-0.18-0.91-0.48-1.23h0.14c1,0,1.82-0.82,1.82-1.82v-0.17
			C25.47,16.71,24.65,15.9,23.64,15.9z M23.36,14.54v0.17c0,0.66-0.53,1.19-1.19,1.19h-4.87c-0.66,0-1.19-0.53-1.19-1.19v-0.17
			c0-0.66,0.53-1.19,1.19-1.19h4.87C22.82,13.35,23.36,13.88,23.36,14.54z M11.01,22.95c-0.41-0.56-0.61-0.85-0.9-0.85L8.17,22.1
			c-0.73,0-1.32-0.6-1.32-1.33v-5.01c0-0.73,0.6-1.33,1.33-1.33h1.72c1.5-0.02,2.25-0.76,3.2-1.7c0.53-0.52,1.13-1.12,1.99-1.71
			c2.19-1.52,2.73-2.5,3.35-3.64c0.07-0.14,0.15-0.28,0.23-0.42c0.3-0.54,0.86-0.86,1.31-0.75c0.51,0.12,0.83,0.72,0.87,1.66
			c0.11,2.13-2.5,4.44-2.97,4.84h-0.57c-1,0-1.82,0.82-1.82,1.82v0.17c0,0.63,0.32,1.18,0.8,1.51c-0.48,0.33-0.8,0.88-0.8,1.51v0.17
			c0,0.64,0.33,1.2,0.83,1.53c-0.5,0.33-0.83,0.89-0.83,1.53v0.17c0,0.63,0.32,1.19,0.81,1.51c-0.49,0.33-0.81,0.88-0.81,1.51v0.17
			c0,0.46,0.17,0.87,0.45,1.19h-1.47C12.83,25.49,11.69,23.9,11.01,22.95z M21.63,24.3c0,0.66-0.53,1.19-1.19,1.19h-2.45h-0.7
			c-0.66,0-1.19-0.53-1.19-1.19v-0.17c0-0.66,0.53-1.19,1.19-1.19h3.15c0.66,0,1.19,0.53,1.19,1.19V24.3z M23.36,21.1
			c0,0.66-0.53,1.19-1.19,1.19h-4.87c-0.66,0-1.19-0.53-1.19-1.19v-0.17c0-0.66,0.53-1.19,1.19-1.19h4.87
			c0.66,0,1.19,0.53,1.19,1.19V21.1z M24.84,17.88c0,0.66-0.53,1.19-1.19,1.19h-6.35c-0.66,0-1.19-0.53-1.19-1.19v-0.17
			c0-0.66,0.53-1.19,1.19-1.19h4.87h1.48c0.66,0,1.19,0.53,1.19,1.19V17.88z"/>
	</g>
</g>
</svg>
