<?xml version="1.0" encoding="utf-8"?>
<!-- Generator: Adobe Illustrator 21.1.0, SVG Export Plug-In . SVG Version: 6.00 Build 0)  -->
<!DOCTYPE svg PUBLIC "-//W3C//DTD SVG 1.1//EN" "http://www.w3.org/Graphics/SVG/1.1/DTD/svg11.dtd">
<svg version="1.1" id="Layer_1" xmlns="http://www.w3.org/2000/svg" xmlns:xlink="http://www.w3.org/1999/xlink" x="0px" y="0px"
	 viewBox="0 0 31.68 31.68" style="enable-background:new 0 0 31.68 31.68;" xml:space="preserve">
<style type="text/css">
	.st0{fill:#010101;}
</style>
<g>
	<g>
		<g>
			<path class="st0" d="M22.35,5.31h-9.79c-0.61,0-1.1,0.49-1.1,1.1v1.8c-1.19,0.14-2.11,1.15-2.11,2.38c0,1.22,0.92,2.24,2.11,2.38
				v0.48H10.6c-3.33,0-3.53,2.45-3.64,3.76l-0.17,2.12v0.01c0,1.2,0.7,1.82,1.48,2.39l0.2,0.14l-0.05,0.84l0.13,0.11
				c0.29,0.25,1.06,0.66,2.92,0.69v1.75c0,0.61,0.49,1.1,1.1,1.1h9.79c0.61,0,1.1-0.49,1.1-1.1V6.41
				C23.45,5.8,22.96,5.31,22.35,5.31z M9.7,10.59c0-1.13,0.92-2.05,2.05-2.05c1.13,0,2.05,0.92,2.05,2.05
				c0,1.13-0.92,2.05-2.05,2.05C10.62,12.64,9.7,11.72,9.7,10.59z M8.95,16.74c-0.08,0-0.15,0.07-0.15,0.15l-0.33,4.56
				c-0.8-0.58-1.34-1.09-1.34-2.11l0.17-2.11c0.13-1.58,0.45-3.44,3.3-3.44h2.3c2.85,0,3.15,1.95,3.3,3.44l0.16,2.11h0
				c0,1.02-0.55,1.53-1.35,2.12l-0.33-4.57c0-0.08-0.07-0.15-0.15-0.15c-0.08,0-0.15,0.07-0.15,0.15l0.33,5.69
				c-0.25,0.19-1,0.59-2.96,0.59c-2.04,0-2.76-0.43-2.98-0.62c0-0.01,0.01-0.03,0.01-0.04L9.1,16.9C9.1,16.81,9.03,16.74,8.95,16.74
				z M22.88,25.27c0,0.29-0.24,0.53-0.53,0.53h-9.79c-0.29,0-0.53-0.24-0.53-0.53v-1.75c1.8-0.04,2.57-0.42,2.88-0.66h7.97V25.27z
				 M22.88,22.58h-7.83l-0.04-0.69l0.2-0.15c0.82-0.6,1.49-1.19,1.49-2.4l0-0.35h-0.03l-0.14-1.8c-0.13-1.31-0.37-3.76-3.64-3.76
				h-0.87v-0.48c1.19-0.14,2.11-1.15,2.11-2.38c0-0.56-0.19-1.08-0.52-1.48h9.26V22.58z M22.88,8.82h-9.52
				C13,8.49,12.54,8.27,12.03,8.21v-1.8c0-0.29,0.24-0.53,0.53-0.53h9.79c0.29,0,0.53,0.24,0.53,0.53V8.82z"/>
			<path class="st0" d="M18.42,7.13H16.5c-0.12,0-0.21,0.1-0.21,0.21s0.1,0.21,0.21,0.21h1.92c0.12,0,0.21-0.1,0.21-0.21
				S18.54,7.13,18.42,7.13z"/>
			<path class="st0" d="M15.34,7.14c-0.05,0.05-0.08,0.12-0.08,0.2c0,0.07,0.03,0.15,0.08,0.2c0.05,0.05,0.13,0.08,0.2,0.08
				c0.07,0,0.15-0.03,0.2-0.08c0.05-0.05,0.08-0.13,0.08-0.2c0-0.07-0.03-0.15-0.08-0.2C15.63,7.03,15.44,7.03,15.34,7.14z"/>
			<path class="st0" d="M16.91,25.32h1.1c0.41,0,0.75-0.33,0.75-0.75v-0.54c0-0.41-0.33-0.75-0.75-0.75h-1.1
				c-0.41,0-0.75,0.33-0.75,0.75v0.54C16.16,24.98,16.49,25.32,16.91,25.32z M16.59,24.03c0-0.18,0.14-0.32,0.32-0.32h1.1
				c0.18,0,0.32,0.14,0.32,0.32v0.54c0,0.18-0.14,0.32-0.32,0.32h-1.1c-0.18,0-0.32-0.14-0.32-0.32V24.03z"/>
			<path class="st0" d="M12.15,17.91l0.75,0.3c0.02,0.01,0.03,0.01,0.05,0.01s0.03,0,0.05-0.01l0.75-0.3
				c0.05-0.02,0.08-0.07,0.08-0.12v-1.32c0-0.07-0.06-0.13-0.13-0.13h-1.5c-0.07,0-0.13,0.06-0.13,0.13v1.32
				C12.07,17.84,12.1,17.89,12.15,17.91z M12.33,16.6h1.23v1.09l-0.61,0.25l-0.61-0.25V16.6z"/>
		</g>
	</g>
</g>
</svg>
