<?xml version="1.0" encoding="utf-8"?>
<!-- Generator: Adobe Illustrator 21.1.0, SVG Export Plug-In . SVG Version: 6.00 Build 0)  -->
<!DOCTYPE svg PUBLIC "-//W3C//DTD SVG 1.1//EN" "http://www.w3.org/Graphics/SVG/1.1/DTD/svg11.dtd">
<svg version="1.1" id="Layer_1" xmlns="http://www.w3.org/2000/svg" xmlns:xlink="http://www.w3.org/1999/xlink" x="0px" y="0px"
	 viewBox="0 0 32 32" style="enable-background:new 0 0 32 32;" xml:space="preserve">
<path d="M15.53,12.92c1.78,0,3.23-1.45,3.23-3.22s-1.45-3.23-3.23-3.23S12.3,7.92,12.3,9.7C12.3,11.48,13.75,12.93,15.53,12.92z
	 M15.53,7.09c1.44,0,2.61,1.17,2.61,2.61c0,1.44-1.17,2.61-2.61,2.61c-1.44,0-2.61-1.17-2.61-2.61S14.09,7.09,15.53,7.09z
	 M22.81,17.75c-1.48-3.5-2.77-3.8-6.37-3.8h-1.83c-3.47,0-5.32,1.5-6,4.87c-0.75,4.39,0.43,5.66,2.56,6.3
	c0.03,0.01,0.73,0.27,2.99,0.38c0.06,0.01,0.23,0.03,0.46,0.03c0.43,0,1.04-0.07,1.47-0.44c0.31-0.27,0.47-0.64,0.47-1.11
	c0-0.05-0.01-0.49-0.4-0.88c-0.38-0.37-0.97-0.56-1.76-0.53c-0.01,0-0.86,0.01-1.76-0.23l1.57-0.87c0.05-0.03,0.09-0.08,0.11-0.14
	c0.02-0.06,0.01-0.12-0.02-0.18c-0.27-0.46-0.92-1.79-0.7-2.43c0.05-0.14,0.14-0.23,0.27-0.28c0,0,0.17-0.06,0.34,0.03
	c0.16,0.08,0.27,0.28,0.34,0.54c0,0.03,0.37,2.79,4.14,2.99c-0.14,0.09-0.27,0.18-0.4,0.26c-1.23,0.77-0.87,1.68-0.74,1.92
	c0.17,0.38,0.82,0.96,2.12,0.49c0.75-0.27,2.03-0.92,3.17-1.88C24.57,21.35,22.88,17.88,22.81,17.75L22.81,17.75z M22.45,22.33
	c-1.15,0.97-2.42,1.57-2.99,1.77c-1.07,0.38-1.35-0.15-1.37-0.18c-0.21-0.4-0.04-0.78,0.52-1.13c0.7-0.44,1.58-1.06,1.59-1.06
	l0.72-0.48c0.14-0.09,0.18-0.28,0.09-0.42c-0.09-0.14-0.28-0.18-0.42-0.09l-0.73,0.49c0,0-0.2,0.14-0.49,0.34
	c-0.31,0.01-0.61,0-0.88-0.02c0.76-0.25,1.31-0.96,1.31-1.79c0-1.04-0.84-1.89-1.89-1.89c-1.04,0-1.89,0.85-1.89,1.89
	c0,0.46,0.17,0.89,0.45,1.22c-1.29-0.75-1.46-1.93-1.47-2.02c-0.1-0.43-0.29-0.72-0.57-0.87c-0.35-0.18-0.68-0.07-0.72-0.06
	c-0.26,0.1-0.45,0.29-0.55,0.56c-0.28,0.79,0.34,2.09,0.62,2.61l-1.73,0.96c-0.24-0.1-0.47-0.22-0.67-0.36
	c-0.14-0.1-0.33-0.07-0.43,0.07c-0.1,0.14-0.06,0.33,0.07,0.43c1.31,0.93,3.31,0.9,3.39,0.9c1.46-0.04,1.53,0.72,1.54,0.8
	c0,0.28-0.08,0.49-0.26,0.64c-0.4,0.34-1.19,0.31-1.46,0.26c-0.01,0-0.02,0-0.03,0c-2.14-0.1-2.82-0.34-2.84-0.35
	c-1.62-0.48-2.9-1.24-2.15-5.6c0.62-3.06,2.23-4.36,5.4-4.36h1.83c3.54,0,4.5,0.32,5.82,3.44C22.27,18.04,23.81,21.19,22.45,22.33
	L22.45,22.33z M16.49,19.74c0-0.79,0.64-1.42,1.42-1.42s1.42,0.64,1.42,1.42s-0.64,1.42-1.42,1.42
	C17.13,21.16,16.49,20.52,16.49,19.74z"/>
</svg>
