<?xml version="1.0" encoding="utf-8"?>
<!-- Generator: Adobe Illustrator 21.1.0, SVG Export Plug-In . SVG Version: 6.00 Build 0)  -->
<!DOCTYPE svg PUBLIC "-//W3C//DTD SVG 1.1//EN" "http://www.w3.org/Graphics/SVG/1.1/DTD/svg11.dtd">
<svg version="1.1" id="Layer_1" xmlns="http://www.w3.org/2000/svg" xmlns:xlink="http://www.w3.org/1999/xlink" x="0px" y="0px"
	 viewBox="0 0 32 32" style="enable-background:new 0 0 32 32;" xml:space="preserve">
<path d="M25.92,15.75l-1.59-2.92c-0.04-0.07-0.11-0.13-0.19-0.15s-0.17-0.01-0.24,0.03l-4.19,2.48c-0.14,0.09-0.19,0.27-0.11,0.41
	l2.19,3.92h-2.37l0.01-1.25c0-0.15,0-0.29-0.19-0.42c-0.16-0.11-0.37-0.09-0.56,0.05c-0.03,0.02-0.06,0.05-0.08,0.08l-2.42,3.79
	c-0.06,0.1-0.06,0.23,0,0.33l2.42,3.79c0.02,0.03,0.05,0.06,0.08,0.08c0.1,0.08,0.21,0.12,0.32,0.12c0.08,0,0.17-0.02,0.24-0.07
	c0.19-0.13,0.19-0.27,0.19-0.42l-0.01-1.25h1.74c1.83,0,2.43-1.04,2.46-1.09l2.18-4.2c0,0,0,0,0-0.01c0,0,0,0,0-0.01
	C26.69,17.14,25.95,15.8,25.92,15.75L25.92,15.75z M23.09,22.97c0,0.01-0.47,0.77-1.92,0.77h-2.05c-0.08,0-0.16,0.03-0.22,0.09
	c-0.06,0.06-0.09,0.14-0.09,0.22l0.01,1.03l-2-3.14l2-3.14l-0.01,1.03c0,0.08,0.03,0.16,0.09,0.22s0.14,0.09,0.22,0.09h4.24
	c0.17,0,0.75-0.02,1.31-0.2L23.09,22.97L23.09,22.97z M25.27,18.78c-0.31,0.59-1.38,0.74-1.92,0.74h-0.84l-2.22-3.96l3.66-2.16
	l1.44,2.65C25.41,16.09,25.99,17.18,25.27,18.78L25.27,18.78z M14.59,18.95l-4.55-0.01l1.24-2.14l1.14,0.79
	c0.09,0.05,0.17,0.1,0.27,0.1c0.09,0,0.15-0.03,0.19-0.05c0.18-0.08,0.27-0.27,0.24-0.5c0-0.04-0.01-0.07-0.03-0.11l-2.08-4.16
	c-0.06-0.11-0.17-0.17-0.3-0.17l-4.54,0.31c-0.03,0-0.07,0.01-0.1,0.02c-0.21,0.09-0.33,0.26-0.32,0.46
	c0.01,0.23,0.14,0.3,0.26,0.38c0.01,0.01,0.02,0.01,0.03,0.02l1.06,0.47l-0.85,1.48c-0.24,0.41-0.4,0.82-0.47,1.22c0,0,0,0,0,0
	c0,0,0,0,0,0c-0.16,0.88,0.43,1.86,0.45,1.91l2.22,3.55c0,0,0,0,0,0c0,0,0,0,0,0l0.01,0.01c1.2,1.71,2.73,1.76,2.79,1.76l3.32,0.11
	c0,0,0.01,0,0.01,0c0.08,0,0.16-0.03,0.21-0.09c0.06-0.06,0.09-0.14,0.09-0.22l0-4.87C14.9,19.09,14.76,18.95,14.59,18.95
	L14.59,18.95z M6.4,17.16c0.06-0.33,0.2-0.66,0.4-1l1.03-1.78c0.04-0.08,0.05-0.17,0.03-0.25c-0.03-0.08-0.09-0.15-0.17-0.19
	l-0.8-0.35l3.67-0.25l1.7,3.4l-0.89-0.62c-0.07-0.05-0.16-0.07-0.24-0.05c-0.08,0.02-0.16,0.07-0.2,0.15l-1.59,2.74h0
	c-0.45,0-1.59-0.06-2.31-0.57C6.61,18.08,6.4,17.68,6.4,17.16L6.4,17.16z M14.29,23.81l-3.01-0.1c-0.05,0-1.29-0.06-2.3-1.49
	L7.04,19.1c0.1,0.05,0.2,0.09,0.3,0.13c0,0,0,0,0,0c0.11,0.04,0.22,0.08,0.34,0.11c0.04,0.01,0.07,0.02,0.11,0.03
	c0.08,0.02,0.15,0.04,0.23,0.06c0.04,0.01,0.09,0.02,0.13,0.02c0.07,0.01,0.14,0.02,0.21,0.03c0.04,0.01,0.08,0.01,0.13,0.02
	c0.07,0.01,0.13,0.02,0.2,0.02c0.04,0,0.07,0.01,0.11,0.01c0.07,0,0.13,0.01,0.2,0.01c0.03,0,0.06,0,0.09,0c0.09,0,0.17,0,0.24,0
	c0.08,0,0.15,0,0.19,0l0.05,0l4.72,0.01L14.29,23.81L14.29,23.81z M16,12.15c-0.02,0.19,0.09,0.37,0.3,0.47
	c0.03,0.02,0.06,0.02,0.1,0.03l4.51,0.53c0.01,0,0.02,0,0.04,0c0.11,0,0.21-0.06,0.26-0.15l2.28-3.75c0.02-0.03,0.03-0.07,0.04-0.11
	c0.04-0.23-0.04-0.42-0.22-0.52c-0.04-0.02-0.11-0.06-0.2-0.06c-0.1,0-0.17,0.04-0.23,0.07l-1.19,0.48l-0.77-1.56
	c-0.85-1.62-2.04-1.68-2.1-1.68l-4.74,0l0,0c0,0,0,0,0,0c-2.09,0.11-2.94,1.38-2.97,1.43l-1.86,2.76c-0.05,0.07-0.06,0.15-0.05,0.23
	c0.02,0.08,0.07,0.15,0.14,0.2l4.13,2.57c0.05,0.03,0.11,0.05,0.16,0.05c0.1,0,0.2-0.05,0.26-0.14l2.46-3.74l1.05,2.06l-1.09,0.46
	C16.16,11.85,16.03,11.92,16,12.15L16,12.15z M13.53,12.43l-3.61-2.24l1.68-2.5c0.03-0.04,0.73-1.06,2.48-1.16
	c0.7,0.01,1.35,0.98,1.54,1.36l0.39,0.76L13.53,12.43L13.53,12.43z M17.92,11.76c0.08-0.03,0.14-0.1,0.17-0.18
	c0.03-0.08,0.02-0.17-0.01-0.24l-1.41-2.77c-0.01-0.04-0.03-0.07-0.05-0.11l-0.44-0.86c-0.02-0.04-0.31-0.61-0.8-1.08l3.42,0
	c0.04,0,0.9,0.06,1.57,1.34l0.9,1.81c0.07,0.14,0.24,0.21,0.39,0.15L22.7,9.4l-1.91,3.15l-3.7-0.44L17.92,11.76L17.92,11.76z"/>
</svg>
