<?xml version="1.0" encoding="utf-8"?>
<!-- Generator: Adobe Illustrator 21.1.0, SVG Export Plug-In . SVG Version: 6.00 Build 0)  -->
<!DOCTYPE svg PUBLIC "-//W3C//DTD SVG 1.1//EN" "http://www.w3.org/Graphics/SVG/1.1/DTD/svg11.dtd">
<svg version="1.1" id="Layer_1" xmlns="http://www.w3.org/2000/svg" xmlns:xlink="http://www.w3.org/1999/xlink" x="0px" y="0px"
	 viewBox="0 0 32 32" style="enable-background:new 0 0 32 32;" xml:space="preserve">
<path d="M27.31,16.33c-0.93,0-1.71,0.69-1.84,1.59l-1.83,0.01l-1.37-4.92c-0.04-0.15-0.17-0.25-0.33-0.25
	c-0.15,0-0.29,0.09-0.34,0.24c-1.2,3.62-2.02,6.16-2.47,7.6c-0.18-0.87-0.44-2.08-0.7-3.32c-0.44-2.12-0.96-4.58-1.36-6.51
	c-0.2-0.97-0.38-1.8-0.51-2.39c-0.06-0.3-0.12-0.53-0.15-0.7c-0.07-0.29-0.12-0.55-0.44-0.51c-0.18,0.02-0.31,0.14-0.31,0.32
	c-0.07,0.6-2.26,10.9-3.11,14.45l-2.44-9.18c-0.04-0.15-0.18-0.26-0.33-0.26h0c-0.16,0-0.29,0.11-0.33,0.26l-1.31,5.11l-1.62,0.01
	c-0.18-0.83-0.93-1.46-1.82-1.46c-1.03,0-1.86,0.84-1.86,1.86s0.84,1.87,1.86,1.87c0.93,0,1.7-0.68,1.84-1.58l1.87-0.01
	c0.16,0,0.29-0.11,0.33-0.26l1.05-4.09l2.43,9.14c0.03,0.12,0.13,0.22,0.25,0.25c0.03,0.01,0.05,0.01,0.08,0.01
	c0.1,0,0.19-0.04,0.26-0.11c0.3-0.33,2.4-10.31,3.22-14.34c0.43,2.02,1.18,5.61,1.73,8.25c0.27,1.29,0.51,2.45,0.69,3.29
	c0.13,0.64,0.22,1.03,0.28,1.27c0,0.01,0,0.01,0,0.02h0.01c0.11,0.37,0.18,0.36,0.38,0.34c0.17-0.02,0.29-0.15,0.31-0.31
	c0.08-0.38,1.42-4.49,2.48-7.74l1.14,4.08c0.04,0.15,0.18,0.25,0.33,0.25h0l2.12-0.02c0.19,0.83,0.93,1.45,1.82,1.45
	c1.03,0,1.87-0.84,1.87-1.87S28.34,16.33,27.31,16.33L27.31,16.33z M4.69,19.49c-0.66,0-1.19-0.53-1.19-1.19s0.53-1.19,1.19-1.19
	c0.66,0,1.19,0.53,1.19,1.19S5.35,19.49,4.69,19.49z M27.31,19.39c-0.66,0-1.19-0.53-1.19-1.19S26.65,17,27.31,17
	s1.19,0.53,1.19,1.19S27.97,19.39,27.31,19.39z"/>
</svg>
