<?xml version="1.0" encoding="utf-8"?>
<!-- Generator: Adobe Illustrator 21.1.0, SVG Export Plug-In . SVG Version: 6.00 Build 0)  -->
<!DOCTYPE svg PUBLIC "-//W3C//DTD SVG 1.1//EN" "http://www.w3.org/Graphics/SVG/1.1/DTD/svg11.dtd">
<svg version="1.1" id="Layer_1" xmlns="http://www.w3.org/2000/svg" xmlns:xlink="http://www.w3.org/1999/xlink" x="0px" y="0px"
	 viewBox="0 0 31.68 31.68" style="enable-background:new 0 0 31.68 31.68;" xml:space="preserve">
<path d="M14.42,9.5h7.21c0.98-0.04,1.81,0.71,1.85,1.69s-0.71,1.81-1.69,1.85c-0.05,0-0.11,0-0.16,0h-0.24v-0.72l-1.87,1.09
	l1.87,1.09v-0.72h0.25c1.38,0.05,2.54-1.02,2.59-2.4c0.05-1.38-1.02-2.54-2.4-2.59c-0.06,0-0.13,0-0.19,0h-7.23
	c-0.2,0-0.36,0.16-0.36,0.36C14.06,9.34,14.22,9.5,14.42,9.5z M18.86,23.72c0.07,0.07,0.16,0.11,0.26,0.1h0.06
	c0.11-0.02,0.21-0.09,0.26-0.2l1.86-3.83c0.09-0.18,0.02-0.4-0.15-0.49c-0.18-0.09-0.4-0.02-0.49,0.15c0,0.01-0.01,0.01-0.01,0.02
	l-1.64,3.37l-0.92-0.92c-0.15-0.13-0.38-0.11-0.51,0.04c-0.12,0.14-0.12,0.34,0,0.47L18.86,23.72z M23.69,17.02h-8.86
	c-0.2,0-0.36,0.16-0.36,0.36v8.86c0,0.2,0.16,0.36,0.36,0.36h8.86c0.2,0,0.36-0.16,0.36-0.36v-8.86
	C24.06,17.18,23.89,17.02,23.69,17.02z M23.33,25.88h-8.14v-8.14h8.14V25.88z M11.26,17.31h-0.25c-0.98,0-1.77-0.79-1.77-1.77
	s0.79-1.77,1.77-1.77h7.19c0.2,0,0.36-0.16,0.36-0.36s-0.16-0.36-0.36-0.36h-7.21c-1.38,0-2.5,1.12-2.5,2.5c0,1.38,1.12,2.5,2.5,2.5
	h0.27v0.72l1.87-1.09l-1.87-1.09V17.31z M12.55,11.32V6.96c0-0.2-0.16-0.36-0.36-0.36H7.8c-0.2,0-0.36,0.16-0.36,0.36v4.36
	c0,0.2,0.16,0.36,0.36,0.36h4.36c0.2,0,0.36-0.16,0.36-0.36H12.55z M11.82,10.96H8.17V7.32h3.64L11.82,10.96z"/>
</svg>
