<?xml version="1.0" encoding="utf-8"?>
<!-- Generator: Adobe Illustrator 21.1.0, SVG Export Plug-In . SVG Version: 6.00 Build 0)  -->
<!DOCTYPE svg PUBLIC "-//W3C//DTD SVG 1.1//EN" "http://www.w3.org/Graphics/SVG/1.1/DTD/svg11.dtd">
<svg version="1.1" id="Layer_1" xmlns="http://www.w3.org/2000/svg" xmlns:xlink="http://www.w3.org/1999/xlink" x="0px" y="0px"
	 viewBox="0 0 32 32" style="enable-background:new 0 0 32 32;" xml:space="preserve">
<path d="M25.73,13.6V7.46c0-0.66-0.53-1.19-1.19-1.19H7.46c-0.66,0-1.19,0.53-1.19,1.19v17.08c0,0.66,0.53,1.19,1.19,1.19h17.08
	c0.66,0,1.19-0.53,1.19-1.19V13.6C25.73,13.6,25.73,13.6,25.73,13.6C25.73,13.6,25.73,13.6,25.73,13.6L25.73,13.6z M16.15,6.88h6.51
	v2.14h-6.51C16.15,9.03,16.15,6.88,16.15,6.88z M16.15,9.33h6.51v3.1h-6.51V9.33z M9.33,6.88h6.51v2.14H9.33
	C9.33,9.03,9.33,6.88,9.33,6.88z M9.33,9.33h6.51v3.1H9.33V9.33z M9.33,12.74h6.51v3.1H9.33V12.74z M6.88,7.46
	c0-0.32,0.26-0.58,0.58-0.58h1.57v2.14H6.88C6.88,9.03,6.88,7.46,6.88,7.46z M6.88,9.33h2.14v3.1H6.88V9.33z M6.88,12.74h2.14v3.1
	H6.88V12.74z M25.12,24.54c0,0.32-0.26,0.58-0.58,0.58H7.46c-0.32,0-0.58-0.26-0.58-0.58v-3.23H7.5c0.04,0,0.07-0.01,0.11-0.02
	l0.85-0.31c0.06-0.02,0.11-0.06,0.14-0.11l0.81-1.15l0.62-0.33l0.7,0.49c0.03,0.03,0.08,0.04,0.12,0.05l0.85,0.16
	c0.1,0.02,0.2-0.01,0.27-0.08l0.72-0.71l0.67,0.22c0.13,0.04,0.28-0.01,0.36-0.13l0.72-1.16l0.61,0.23
	c0.11,0.04,0.23,0.02,0.31-0.06l0.7-0.62l0.67,0.32c0.15,0.07,0.33,0.01,0.41-0.15l0.69-1.44l0.55,0.43
	c0.07,0.05,0.15,0.08,0.23,0.06c0.08-0.01,0.16-0.06,0.2-0.12l0.73-1.02l0.63,0.15l0.85,0.25c0.12,0.04,0.26-0.01,0.33-0.11
	l0.74-1.02l0.67,0.09c0.1,0.02,0.21-0.02,0.27-0.1l0.8-0.94l0.73-0.29h0.56L25.12,24.54L25.12,24.54z M25.12,13.29H24.5
	c-0.04,0-0.08,0.01-0.11,0.02l-0.85,0.34c-0.05,0.02-0.09,0.05-0.12,0.09l-0.74,0.87l-0.68-0.09c-0.11-0.02-0.22,0.03-0.29,0.12
	l-0.72,0.99l-0.66-0.19l-0.85-0.2c-0.12-0.03-0.25,0.02-0.32,0.12l-0.67,0.92l-0.6-0.46c-0.07-0.06-0.17-0.08-0.26-0.06
	c-0.09,0.02-0.17,0.08-0.21,0.17l-0.72,1.51l-0.57-0.27c-0.11-0.05-0.24-0.03-0.33,0.05l-0.71,0.63l-0.68-0.26
	c-0.14-0.05-0.29,0-0.37,0.13l-0.72,1.17l-0.62-0.2c-0.11-0.04-0.23-0.01-0.31,0.07l-0.74,0.73l-0.63-0.12l-0.8-0.56
	c-0.09-0.07-0.22-0.08-0.32-0.02l-0.85,0.45c-0.04,0.02-0.08,0.06-0.11,0.09l-0.8,1.13L7.45,20.7H6.88v-1.14H8.4l0.22-0.31H6.88
	v-3.1h2.14v2.74l0.31-0.16v-2.57h6.51v0.7c0.1-0.03,0.2-0.03,0.31,0v-0.7h0.82l0.15-0.31h-0.97v-3.1h6.51v1.4l0.31-0.36v-1.04h2.14
	L25.12,13.29L25.12,13.29L25.12,13.29z M25.12,12.44h-2.14v-3.1h2.14C25.12,9.33,25.12,12.44,25.12,12.44z M25.12,9.03h-2.14V6.88
	h1.57c0.32,0,0.58,0.26,0.58,0.58C25.12,7.46,25.12,9.03,25.12,9.03z M7.98,22.67H7.67c-0.09,0-0.15,0.07-0.15,0.15
	c0,0.08,0.07,0.15,0.15,0.15h0.31c0.09,0,0.15-0.07,0.15-0.15S8.07,22.67,7.98,22.67z M16.78,22.67h-0.31
	c-0.08,0-0.15,0.07-0.15,0.15c0,0.08,0.07,0.15,0.15,0.15h0.31c0.08,0,0.15-0.07,0.15-0.15S16.87,22.67,16.78,22.67z M18.04,22.67
	h-0.31c-0.08,0-0.15,0.07-0.15,0.15c0,0.08,0.07,0.15,0.15,0.15h0.31c0.08,0,0.15-0.07,0.15-0.15S18.13,22.67,18.04,22.67z
	 M20.56,22.67h-0.31c-0.08,0-0.15,0.07-0.15,0.15c0,0.08,0.07,0.15,0.15,0.15h0.31c0.08,0,0.15-0.07,0.15-0.15
	S20.64,22.67,20.56,22.67z M19.3,22.67h-0.31c-0.08,0-0.15,0.07-0.15,0.15c0,0.08,0.07,0.15,0.15,0.15h0.31
	c0.08,0,0.15-0.07,0.15-0.15S19.38,22.67,19.3,22.67z M21.81,22.67H21.5c-0.08,0-0.15,0.07-0.15,0.15c0,0.08,0.07,0.15,0.15,0.15
	h0.31c0.08,0,0.15-0.07,0.15-0.15S21.9,22.67,21.81,22.67z M23.07,22.67h-0.31c-0.08,0-0.15,0.07-0.15,0.15
	c0,0.08,0.07,0.15,0.15,0.15h0.31c0.08,0,0.15-0.07,0.15-0.15S23.16,22.67,23.07,22.67z M24.33,22.67h-0.31
	c-0.08,0-0.15,0.07-0.15,0.15c0,0.08,0.07,0.15,0.15,0.15h0.31c0.08,0,0.15-0.07,0.15-0.15S24.41,22.67,24.33,22.67z M11.76,22.67
	h-0.31c-0.09,0-0.15,0.07-0.15,0.15c0,0.08,0.07,0.15,0.15,0.15h0.31c0.09,0,0.15-0.07,0.15-0.15S11.84,22.67,11.76,22.67z
	 M9.24,22.67H8.93c-0.09,0-0.15,0.07-0.15,0.15c0,0.08,0.07,0.15,0.15,0.15h0.31c0.08,0,0.15-0.07,0.15-0.15S9.33,22.67,9.24,22.67z
	 M10.5,22.67h-0.31c-0.08,0-0.15,0.07-0.15,0.15c0,0.08,0.07,0.15,0.15,0.15h0.31c0.09,0,0.15-0.07,0.15-0.15
	S10.58,22.67,10.5,22.67z M15.53,22.67h-0.32c-0.08,0-0.15,0.07-0.15,0.15c0,0.08,0.07,0.15,0.15,0.15h0.31
	c0.08,0,0.15-0.07,0.15-0.15S15.61,22.67,15.53,22.67L15.53,22.67z M14.27,22.67h-0.31c-0.08,0-0.15,0.07-0.15,0.15
	c0,0.08,0.07,0.15,0.15,0.15h0.31c0.08,0,0.15-0.07,0.15-0.15S14.35,22.67,14.27,22.67z M13.01,22.67H12.7
	c-0.08,0-0.15,0.07-0.15,0.15c0,0.08,0.07,0.15,0.15,0.15h0.31c0.09,0,0.15-0.07,0.15-0.15S13.1,22.67,13.01,22.67z"/>
</svg>
