<?xml version="1.0" encoding="utf-8"?>
<!-- Generator: Adobe Illustrator 21.1.0, SVG Export Plug-In . SVG Version: 6.00 Build 0)  -->
<!DOCTYPE svg PUBLIC "-//W3C//DTD SVG 1.1//EN" "http://www.w3.org/Graphics/SVG/1.1/DTD/svg11.dtd">
<svg version="1.1" id="Layer_1" xmlns="http://www.w3.org/2000/svg" xmlns:xlink="http://www.w3.org/1999/xlink" x="0px" y="0px"
	 viewBox="0 0 32 32" style="enable-background:new 0 0 32 32;" xml:space="preserve">
<path d="M16,4.52C9.66,4.52,4.52,9.66,4.52,16c0,0.17,0.14,0.31,0.31,0.31S5.15,16.17,5.15,16c0-0.86,0.1-1.7,0.29-2.51l2.09,0.56
	C7.39,14.68,7.31,15.33,7.31,16c0,1.58,0.42,3.06,1.16,4.34c0,0,0,0,0,0c0.09,0.15,0.28,0.2,0.43,0.12l0.03-0.02
	c0.15-0.09,0.2-0.28,0.12-0.43c-0.03-0.05-0.06-0.08-0.1-0.11C8.3,18.74,7.94,17.41,7.94,16c0-1.36,0.33-2.64,0.93-3.76l2.14,1.24
	c0.15,0.09,0.34,0.03,0.43-0.11c0.09-0.15,0.03-0.34-0.11-0.43l-2.42-1.4c-0.15-0.09-0.34-0.03-0.43,0.11c0,0,0,0.01,0,0.01
	c-0.32,0.56-0.59,1.16-0.78,1.79l-2.1-0.56c0.49-1.64,1.36-3.12,2.51-4.34l3.72,3.72c0,0,0,0.01,0.01,0.01
	c0.12,0.12,0.32,0.12,0.44,0c0.33-0.32,0.69-0.61,1.09-0.84c0.1-0.06,0.15-0.16,0.16-0.26c0-0.06-0.01-0.11-0.04-0.17l-1.24-2.14
	c0.52-0.28,1.09-0.5,1.67-0.65c0.17-0.05,0.27-0.22,0.22-0.38c-0.05-0.17-0.22-0.27-0.38-0.22c-0.74,0.2-1.45,0.49-2.09,0.87
	c-0.15,0.09-0.2,0.28-0.11,0.43c0,0,0,0.01,0,0.01l1.24,2.15c-0.26,0.17-0.5,0.35-0.73,0.56L8.55,8.11C10.5,6.27,13.12,5.15,16,5.15
	c1.86,0,3.62,0.47,5.15,1.3l-1.23,2.14c0,0,0,0.01,0,0.01c-0.03,0.05-0.04,0.11-0.04,0.17c0,0.1,0.06,0.2,0.16,0.26c0,0,0,0,0.01,0
	c0.61,0.35,1.17,0.78,1.66,1.28c0.12,0.12,0.32,0.12,0.44,0c0.12-0.12,0.12-0.32,0-0.44c-0.46-0.46-0.98-0.87-1.53-1.22l1.08-1.88
	c0.72,0.45,1.38,0.97,1.98,1.57c1.25,1.26,2.2,2.82,2.73,4.56l-2.39,0.64c-0.17,0.05-0.26,0.22-0.22,0.38
	c0.05,0.17,0.22,0.27,0.38,0.22l2.39-0.64c0.19,0.8,0.29,1.64,0.29,2.51c0,0.86-0.1,1.7-0.29,2.51l-2.09-0.56
	c0.14-0.63,0.22-1.28,0.22-1.95c0-0.17-0.14-0.31-0.31-0.31s-0.31,0.14-0.31,0.31c0,0.61-0.07,1.21-0.2,1.78l-2.39-0.64
	c-0.17-0.04-0.34,0.05-0.38,0.22c-0.24,0.91-0.72,1.72-1.36,2.36c-0.12,0.12-0.12,0.32,0,0.44c0.12,0.12,0.32,0.12,0.44,0
	c0.65-0.65,1.15-1.45,1.44-2.34L24,18.46c0,0,0.01,0,0.01,0c0,0,0.01,0,0.01,0l2.38,0.64c-0.49,1.64-1.36,3.12-2.51,4.34l-1.53-1.53
	c0.44-0.48,0.83-1,1.16-1.57c0.09-0.15,0.04-0.34-0.11-0.43c-0.15-0.09-0.34-0.03-0.43,0.11c-0.35,0.61-0.79,1.17-1.28,1.67
	c-0.12,0.12-0.12,0.32,0,0.44l1.75,1.75c-1.22,1.15-2.69,2.02-4.34,2.51l-0.56-2.09c0.63-0.19,1.23-0.45,1.79-0.78c0,0,0,0,0.01,0
	c0.03-0.02,0.05-0.04,0.07-0.06c0,0,0,0,0,0c0,0,0,0,0,0c0.09-0.1,0.1-0.24,0.04-0.36c0,0,0-0.01,0-0.01l-1.39-2.4
	c0,0,0-0.01,0-0.01c-0.06-0.09-0.15-0.15-0.25-0.16c-0.06,0-0.12,0.01-0.17,0.04c0,0-0.01,0-0.01,0.01
	c-0.4,0.23-0.83,0.41-1.28,0.53c-0.44,0.11-0.89,0.17-1.35,0.17c-0.17,0-0.31,0.14-0.31,0.31s0.14,0.31,0.31,0.31
	c0.51,0,1.01-0.07,1.5-0.19c0.41-0.11,0.8-0.26,1.17-0.44l1.09,1.88c-0.52,0.28-1.08,0.5-1.66,0.65c0,0,0,0-0.01,0c0,0,0,0-0.01,0
	c-0.66,0.18-1.36,0.27-2.08,0.27c-0.17,0-0.31,0.14-0.31,0.31s0.14,0.31,0.31,0.31c0.67,0,1.32-0.08,1.94-0.22l0.56,2.09
	c-0.81,0.19-1.64,0.29-2.51,0.29c-1.86,0-3.62-0.47-5.15-1.3l1.08-1.88c0.57,0.3,1.18,0.55,1.82,0.72c0.17,0.05,0.34-0.05,0.38-0.22
	c0.04-0.17-0.05-0.34-0.22-0.38c-1.28-0.34-2.44-1-3.39-1.87l1.75-1.75c0.12-0.12,0.12-0.32,0-0.44c-0.57-0.57-1.01-1.28-1.28-2.06
	l2.39-0.64c0.17-0.04,0.26-0.22,0.22-0.38l0,0c0,0,0,0,0,0c0,0,0,0,0,0c-0.05-0.2-0.08-0.42-0.08-0.64c0-1.37,1.11-2.48,2.48-2.48
	c1.37,0,2.48,1.11,2.48,2.48c0,1.37-1.11,2.48-2.48,2.48c-0.22,0-0.44-0.03-0.64-0.08c-0.08-0.02-0.16-0.01-0.22,0.02
	c-0.08,0.04-0.14,0.11-0.16,0.2L14.34,21c-0.34-0.11-0.67-0.26-0.97-0.44c-0.15-0.09-0.34-0.03-0.43,0.11
	c-0.09,0.15-0.03,0.34,0.11,0.43c0.44,0.25,0.92,0.45,1.42,0.59c0.07,0.02,0.14,0.01,0.2-0.01c0.09-0.04,0.16-0.11,0.19-0.21
	l0.65-2.41c0.16,0.03,0.33,0.04,0.5,0.04c1.71,0,3.1-1.39,3.1-3.1c0-0.74-0.26-1.43-0.7-1.96l1.54-1.54
	c0.83,0.93,1.33,2.15,1.33,3.5v0c0,0.17,0.14,0.31,0.31,0.31c0.17,0,0.31-0.14,0.31-0.31v0c0-0.96-0.23-1.87-0.64-2.67l2.15-1.24
	c0.15-0.09,0.2-0.28,0.11-0.43c-0.09-0.15-0.28-0.2-0.43-0.11l-2.15,1.24c-0.23-0.34-0.48-0.66-0.77-0.95
	c-0.12-0.12-0.32-0.12-0.44,0l-1.76,1.76c-0.26-0.21-0.55-0.38-0.86-0.5l1.37-5.11c0.02-0.06,0.01-0.12-0.01-0.18
	c-0.03-0.09-0.11-0.17-0.21-0.2C17.53,7.42,16.78,7.32,16,7.32c-0.17,0-0.31,0.14-0.31,0.31S15.83,7.94,16,7.94
	c0.61,0,1.21,0.07,1.78,0.2l-1.28,4.8c-0.16-0.03-0.33-0.04-0.5-0.04c-0.17,0-0.34,0.01-0.5,0.04l-0.65-2.41
	c-0.05-0.17-0.22-0.27-0.38-0.22c-0.17,0.04-0.27,0.22-0.22,0.38l0.64,2.41c-0.83,0.31-1.49,0.97-1.8,1.8l-2.41-0.64
	c-0.17-0.05-0.34,0.05-0.38,0.22c-0.04,0.17,0.05,0.34,0.22,0.38l2.41,0.65c-0.03,0.16-0.04,0.33-0.04,0.5
	c0,0.17,0.01,0.33,0.04,0.5l-2.41,0.65c-0.1,0.03-0.17,0.1-0.21,0.19v0c-0.02,0.06-0.03,0.13-0.01,0.2c0.24,0.91,0.7,1.74,1.31,2.42
	L9.86,21.7c-0.06,0.06-0.09,0.14-0.09,0.22c0,0.08,0.03,0.16,0.09,0.22c0.46,0.46,0.98,0.87,1.53,1.22l-1.08,1.88
	c-2.32-1.44-4.07-3.72-4.79-6.43c-0.05-0.17-0.22-0.26-0.38-0.22c-0.17,0.04-0.26,0.22-0.22,0.38c1.31,4.9,5.78,8.5,11.09,8.5
	c6.34,0,11.47-5.14,11.47-11.47C27.48,9.67,22.34,4.53,16,4.52L16,4.52z M14.07,16.02c0,0.17,0.14,0.31,0.31,0.31h0.91l-0.64,0.64
	c-0.12,0.12-0.12,0.31,0,0.43c0.06,0.06,0.14,0.09,0.22,0.09s0.16-0.03,0.22-0.09l0.64-0.64v0.91c0,0.17,0.14,0.31,0.31,0.31
	s0.31-0.14,0.31-0.31v-0.91l0.64,0.64c0.06,0.06,0.14,0.09,0.22,0.09s0.16-0.03,0.22-0.09c0.12-0.12,0.12-0.31,0-0.43l-0.64-0.64
	h0.91c0.17,0,0.31-0.14,0.31-0.31c0-0.17-0.14-0.31-0.31-0.31h-0.91l0.64-0.64c0.12-0.12,0.12-0.31,0-0.43s-0.31-0.12-0.43,0
	l-0.64,0.64v-0.9c0-0.17-0.14-0.31-0.31-0.31s-0.31,0.14-0.31,0.31v0.9l-0.64-0.64c-0.12-0.12-0.31-0.12-0.43,0
	c-0.12,0.12-0.12,0.31,0,0.43l0.64,0.64h-0.9C14.2,15.71,14.07,15.85,14.07,16.02L14.07,16.02z"/>
</svg>
