<?xml version="1.0" encoding="utf-8"?>
<!-- Generator: Adobe Illustrator 21.1.0, SVG Export Plug-In . SVG Version: 6.00 Build 0)  -->
<!DOCTYPE svg PUBLIC "-//W3C//DTD SVG 1.1//EN" "http://www.w3.org/Graphics/SVG/1.1/DTD/svg11.dtd">
<svg version="1.1" id="Layer_1" xmlns="http://www.w3.org/2000/svg" xmlns:xlink="http://www.w3.org/1999/xlink" x="0px" y="0px"
	 viewBox="0 0 31.68 31.68" style="enable-background:new 0 0 31.68 31.68;" xml:space="preserve">
<path d="M12.02,18.47c0.06,0.1,0.16,0.16,0.27,0.16c0.06,0,0.11-0.01,0.16-0.04l3.3-1.91l-3.3-1.91c-0.13-0.12-0.34-0.11-0.46,0.02
	s-0.11,0.34,0.02,0.46c0.03,0.03,0.07,0.05,0.12,0.07l2.36,1.36l-2.36,1.36C11.98,18.13,11.93,18.32,12.02,18.47z M16.03,18.63h3.81
	c0.17-0.04,0.28-0.22,0.23-0.39c-0.03-0.12-0.12-0.21-0.23-0.23h-3.81c-0.17-0.04-0.35,0.06-0.39,0.23s0.06,0.35,0.23,0.39
	C15.93,18.64,15.98,18.64,16.03,18.63L16.03,18.63z M20.24,7.93c-0.26,0-0.47,0.21-0.47,0.47c0,0.26,0.21,0.47,0.47,0.47
	c0.26,0,0.47-0.21,0.47-0.47c0,0,0,0,0,0C20.7,8.13,20.49,7.93,20.24,7.93z M21.76,7.93c-0.26,0-0.47,0.21-0.47,0.47
	c0,0.26,0.21,0.47,0.47,0.47c0.26,0,0.47-0.21,0.47-0.47c0,0,0,0,0,0C22.23,8.13,22.02,7.93,21.76,7.93z M24.01,6.53H7.68
	c-0.64,0-1.16,0.52-1.16,1.16V24c0,0.64,0.52,1.16,1.16,1.16H24c0.64,0,1.16-0.52,1.16-1.16l0,0V7.68
	C25.16,7.04,24.64,6.52,24.01,6.53C24,6.52,24,6.52,24.01,6.53L24.01,6.53z M24.58,24.01c0,0.32-0.26,0.58-0.58,0.58l0,0H7.68
	c-0.32,0-0.58-0.26-0.58-0.58l0,0V10.07h17.48L24.58,24.01z M24.58,9.6H7.1V7.68c0-0.32,0.26-0.58,0.58-0.58H24
	c0.32,0,0.58,0.26,0.58,0.58c0,0,0,0,0,0L24.58,9.6z M23.29,7.93c-0.26,0-0.47,0.21-0.47,0.46c0,0.26,0.21,0.47,0.46,0.47
	c0.26,0,0.47-0.21,0.47-0.46c0,0,0-0.01,0-0.01C23.75,8.13,23.54,7.93,23.29,7.93L23.29,7.93z"/>
</svg>
