<?xml version="1.0" encoding="utf-8"?>
<!-- Generator: Adobe Illustrator 21.1.0, SVG Export Plug-In . SVG Version: 6.00 Build 0)  -->
<!DOCTYPE svg PUBLIC "-//W3C//DTD SVG 1.1//EN" "http://www.w3.org/Graphics/SVG/1.1/DTD/svg11.dtd">
<svg version="1.1" id="Layer_1" xmlns="http://www.w3.org/2000/svg" xmlns:xlink="http://www.w3.org/1999/xlink" x="0px" y="0px"
	 viewBox="0 0 32 32" style="enable-background:new 0 0 32 32;" xml:space="preserve">
<style type="text/css">
	.st0{fill:#010101;}
</style>
<g>
	<path class="st0" d="M9.78,5.18h1.58c0.08,0,0.14-0.06,0.14-0.14c0-0.08-0.06-0.14-0.14-0.14H9.78c-0.08,0-0.14,0.06-0.14,0.14
		C9.64,5.12,9.7,5.18,9.78,5.18z"/>
	<path class="st0" d="M7.09,6.3h4.28c0.08,0,0.14-0.06,0.14-0.14c0-0.08-0.06-0.14-0.14-0.14H7.09c-0.08,0-0.14,0.06-0.14,0.14
		C6.94,6.24,7.01,6.3,7.09,6.3z"/>
	<path class="st0" d="M11.36,25.74H7.09c-0.08,0-0.14,0.06-0.14,0.14s0.06,0.14,0.14,0.14h4.28c0.08,0,0.14-0.06,0.14-0.14
		C11.51,25.8,11.44,25.74,11.36,25.74z"/>
	<path class="st0" d="M11.36,26.67H8.95c-0.08,0-0.14,0.06-0.14,0.14s0.06,0.14,0.14,0.14h2.42c0.08,0,0.14-0.06,0.14-0.14
		C11.51,26.73,11.44,26.67,11.36,26.67z"/>
	<path class="st0" d="M4.29,10.85H2.17c-0.08,0-0.14,0.06-0.14,0.14c0,0.08,0.06,0.14,0.14,0.14h2.12c0.08,0,0.14-0.06,0.14-0.14
		C4.44,10.92,4.37,10.85,4.29,10.85z"/>
	<path class="st0" d="M4.29,20.71h-1.3c-0.08,0-0.14,0.06-0.14,0.14S2.91,21,2.99,21h1.3c0.08,0,0.14-0.06,0.14-0.14
		S4.37,20.71,4.29,20.71z"/>
	<path class="st0" d="M23.53,17.95C23.56,17.98,23.6,18,23.65,18c0.01,0,0.02,0,0.03,0l1.02-0.19c0.04-0.01,0.07-0.03,0.09-0.05
		c0.2-0.27,0.68-0.99,0.68-1.76c0-0.77-0.48-1.49-0.68-1.76c-0.02-0.03-0.05-0.05-0.09-0.05L23.67,14
		c-0.05-0.01-0.11,0.01-0.14,0.05c-0.03,0.04-0.04,0.1-0.01,0.15c0.21,0.41,0.45,1.06,0.45,1.8s-0.24,1.39-0.45,1.8
		C23.49,17.85,23.5,17.9,23.53,17.95z M24.25,16c0-0.66-0.18-1.24-0.36-1.67l0.7,0.13c0.17,0.24,0.59,0.89,0.59,1.54
		s-0.42,1.3-0.59,1.54l-0.7,0.13C24.08,17.24,24.25,16.66,24.25,16z"/>
	<path class="st0" d="M30.72,16c0-1.2-4-2.68-8.86-3.13l-4.75-6.39c1.57-0.2,1.79-0.61,1.79-0.81c0-1.02-4.02-1.03-4.19-1.03
		c-1.09,0-2.04,0.1-2.65,0.19c-0.14,0.02-0.24,0.14-0.24,0.28v1.02c0,0.14,0.11,0.26,0.24,0.28c0.35,0.05,0.82,0.11,1.36,0.14
		l1.61,6.44c-1.81,0.27-3.43,0.73-4.91,1.4l-2.92-3.52c-0.05-0.07-0.14-0.1-0.22-0.1H5.04c-0.09,0-0.18,0.04-0.23,0.12
		s-0.07,0.17-0.04,0.26L6.41,16l-1.64,4.84c-0.03,0.09-0.02,0.18,0.04,0.26c0.05,0.08,0.14,0.12,0.23,0.12h1.95
		c0.08,0,0.17-0.04,0.22-0.1l2.86-3.45c1.44,0.65,3.08,1.1,4.96,1.36l-1.6,6.42c-0.54,0.04-1.01,0.09-1.36,0.14
		c-0.14,0.02-0.24,0.14-0.24,0.28v1.02c0,0.14,0.11,0.26,0.24,0.28c0.6,0.09,1.55,0.19,2.65,0.19c1.57,0,4.19-0.13,4.19-1.03
		c0-0.2-0.22-0.61-1.79-0.81l4.75-6.39C26.72,18.68,30.72,17.2,30.72,16z M12.39,5.36c0.58-0.07,1.4-0.15,2.32-0.15
		c1.81,0,3.07,0.26,3.5,0.45c-0.41,0.16-1.58,0.37-3.5,0.37c-0.92,0-1.74-0.08-2.32-0.15V5.36z M14.03,6.6
		c0.22,0.01,0.45,0.01,0.68,0.01c0.69,0,1.26-0.02,1.74-0.06l4.65,6.26c-0.69-0.05-1.4-0.07-2.12-0.07c-1.19,0-2.31,0.07-3.38,0.2
		L14.03,6.6z M6.86,20.65H5.44l1.55-4.55c0.02-0.06,0.02-0.12,0-0.18l-1.55-4.55h1.42L10.71,16L6.86,20.65z M11.31,16.18
		c0.09-0.11,0.09-0.26,0-0.36l-0.79-0.95c2.37-1.04,5.15-1.56,8.48-1.56c6.53,0,11.16,2.04,11.16,2.69c0,0.65-4.63,2.69-11.16,2.69
		c-3.48,0-6.27-0.49-8.54-1.48L11.31,16.18z M14.71,26.79c-0.92,0-1.74-0.08-2.32-0.15v-0.52c0.58-0.08,1.4-0.15,2.32-0.15
		c1.99,0,3.18,0.23,3.54,0.39C17.92,26.55,16.7,26.79,14.71,26.79z M16.46,25.45c-0.48-0.04-1.06-0.06-1.74-0.06
		c-0.24,0-0.46,0.01-0.68,0.01l1.58-6.32c1.05,0.12,2.18,0.17,3.39,0.17c0.71,0,1.42-0.03,2.12-0.07L16.46,25.45z"/>
</g>
</svg>
