<?xml version="1.0" encoding="utf-8"?>
<!-- Generator: Adobe Illustrator 21.1.0, SVG Export Plug-In . SVG Version: 6.00 Build 0)  -->
<!DOCTYPE svg PUBLIC "-//W3C//DTD SVG 1.1//EN" "http://www.w3.org/Graphics/SVG/1.1/DTD/svg11.dtd">
<svg version="1.1" id="Layer_1" xmlns="http://www.w3.org/2000/svg" xmlns:xlink="http://www.w3.org/1999/xlink" x="0px" y="0px"
	 viewBox="0 0 31.68 31.68" style="enable-background:new 0 0 31.68 31.68;" xml:space="preserve">
<g>
	<g>
		<g>
			<path d="M21.8,21.96H11.06c-0.33,0-0.64-0.16-0.83-0.42c-0.19-0.27-0.24-0.61-0.14-0.92l0.88-2.64L8.2,9.05H6.22
				c-0.56,0-1.02-0.46-1.02-1.02c0-0.56,0.46-1.02,1.02-1.02h2.74c0.45,0,0.84,0.29,0.98,0.72l0.52,1.69l14.32,0.47
				c0.35,0.01,0.66,0.2,0.84,0.49c0.18,0.3,0.2,0.66,0.05,0.97l-3.3,6.81c-0.17,0.34-0.51,0.56-0.89,0.58l-8.69,0.26l-0.31,0.93
				h9.32c0.56,0,1.02,0.46,1.02,1.02C22.82,21.5,22.36,21.96,21.8,21.96z M6.22,7.69c-0.19,0-0.34,0.15-0.34,0.34
				c0,0.19,0.15,0.34,0.34,0.34H8.7l2.98,9.62l-0.95,2.84c-0.03,0.1-0.02,0.22,0.05,0.31c0.06,0.09,0.17,0.14,0.28,0.14H21.8
				c0.19,0,0.34-0.15,0.34-0.34c0-0.19-0.15-0.34-0.34-0.34H11.53l0.76-2.27l9.17-0.27c0.13,0,0.24-0.08,0.3-0.19l3.3-6.81
				c0.05-0.1,0.05-0.23-0.01-0.32c-0.06-0.1-0.16-0.16-0.28-0.16L9.95,10.08L9.28,7.93C9.23,7.78,9.1,7.69,8.95,7.69H6.22z"/>
			<path d="M11.97,26.11c-1.08,0-1.95-0.88-1.95-1.95c0-1.08,0.88-1.95,1.95-1.95s1.95,0.88,1.95,1.95
				C13.93,25.24,13.05,26.11,11.97,26.11z M11.97,22.88c-0.7,0-1.27,0.57-1.27,1.27c0,0.7,0.57,1.27,1.27,1.27
				c0.7,0,1.27-0.57,1.27-1.27C13.25,23.46,12.67,22.88,11.97,22.88z"/>
			<path d="M21.59,26.11c-1.08,0-1.95-0.88-1.95-1.95c0-1.08,0.88-1.95,1.95-1.95c1.08,0,1.95,0.88,1.95,1.95
				C23.54,25.24,22.66,26.11,21.59,26.11z M21.59,22.88c-0.7,0-1.27,0.57-1.27,1.27c0,0.7,0.57,1.27,1.27,1.27
				c0.7,0,1.27-0.57,1.27-1.27C22.86,23.46,22.29,22.88,21.59,22.88z"/>
		</g>
	</g>
</g>
</svg>
