<?xml version="1.0" encoding="utf-8"?>
<!-- Generator: Adobe Illustrator 21.1.0, SVG Export Plug-In . SVG Version: 6.00 Build 0)  -->
<!DOCTYPE svg PUBLIC "-//W3C//DTD SVG 1.1//EN" "http://www.w3.org/Graphics/SVG/1.1/DTD/svg11.dtd">
<svg version="1.1" id="Layer_1" xmlns="http://www.w3.org/2000/svg" xmlns:xlink="http://www.w3.org/1999/xlink" x="0px" y="0px"
	 viewBox="0 0 32 32" style="enable-background:new 0 0 32 32;" xml:space="preserve">
<path d="M16.82,9.39l-0.94-1.4c-0.03-0.05-0.07-0.1-0.1-0.16c-0.04-0.05-0.06-0.1-0.08-0.13c0,0.03,0,0.06,0,0.11
	c0,0.05,0,0.1,0,0.16c0,0.05,0,0.11,0,0.16c0,0.05,0,0.1,0,0.14V9.4H15.2V6.82h0.5l0.91,1.36c0.03,0.05,0.07,0.1,0.1,0.16
	c0.03,0.06,0.06,0.1,0.08,0.13c0-0.02,0-0.06,0-0.11s0-0.1,0-0.15c0-0.06,0-0.11,0-0.17s0-0.1,0-0.14V6.82h0.51v2.57L16.82,9.39
	L16.82,9.39z M17.07,25.52c-0.04,0.1-0.1,0.19-0.18,0.26s-0.19,0.13-0.31,0.17C16.44,25.98,16.29,26,16.12,26
	c-0.22,0-0.41-0.04-0.59-0.12c-0.18-0.08-0.31-0.2-0.41-0.34l0.37-0.33c0.09,0.11,0.19,0.18,0.3,0.23c0.11,0.05,0.23,0.07,0.35,0.07
	c0.15,0,0.27-0.02,0.34-0.07s0.11-0.11,0.11-0.21c0-0.04-0.01-0.08-0.02-0.11s-0.04-0.06-0.08-0.09s-0.1-0.05-0.17-0.08
	s-0.17-0.05-0.29-0.08c-0.12-0.03-0.23-0.06-0.33-0.1c-0.1-0.04-0.19-0.08-0.26-0.14s-0.13-0.13-0.17-0.21
	c-0.04-0.09-0.06-0.19-0.06-0.32c0-0.12,0.02-0.22,0.07-0.32c0.05-0.09,0.11-0.17,0.2-0.24c0.08-0.07,0.18-0.11,0.29-0.15
	c0.11-0.03,0.23-0.05,0.36-0.05c0.2,0,0.38,0.04,0.53,0.11c0.15,0.07,0.29,0.17,0.41,0.3l-0.37,0.36c-0.08-0.09-0.17-0.15-0.27-0.2
	s-0.2-0.07-0.32-0.07c-0.07,0-0.13,0.01-0.17,0.02s-0.08,0.03-0.11,0.05s-0.05,0.05-0.06,0.07c-0.01,0.03-0.02,0.06-0.02,0.08
	c0,0.04,0.01,0.08,0.02,0.1s0.04,0.05,0.08,0.08c0.04,0.02,0.09,0.04,0.16,0.06c0.07,0.02,0.15,0.04,0.25,0.07s0.2,0.05,0.31,0.09
	s0.19,0.08,0.28,0.14c0.08,0.06,0.15,0.13,0.2,0.22s0.08,0.21,0.08,0.35C17.13,25.31,17.11,25.42,17.07,25.52L17.07,25.52z
	 M16,28.59C9.06,28.59,3.41,22.94,3.41,16C3.41,9.06,9.06,3.41,16,3.41S28.59,9.06,28.59,16S22.94,28.59,16,28.59z M16,4.02
	C9.4,4.02,4.02,9.4,4.02,16S9.4,27.98,16,27.98c6.61,0,11.98-5.37,11.98-11.98S22.61,4.02,16,4.02z M15.98,26.91
	c-6.05,0-10.97-4.92-10.97-10.97c0-6.05,4.92-10.97,10.97-10.97c6.05,0,10.97,4.92,10.97,10.97S22.03,26.91,15.98,26.91z
	 M15.98,5.42c-5.8,0-10.51,4.72-10.51,10.51s4.72,10.51,10.51,10.51c5.8,0,10.51-4.72,10.51-10.51C26.5,10.14,21.78,5.42,15.98,5.42
	z M16.26,14.52L16.26,14.52L16.26,14.52L16.26,14.52z M23.24,8.83c-0.08-0.08-0.21-0.09-0.3-0.02l-6.68,5.12v-3.82
	c0-0.13-0.1-0.23-0.23-0.23S15.8,10,15.8,10.12v4.17l-0.49,0.38c-0.4,0.19-0.71,0.54-0.85,0.97l-0.21,0.29H9.99
	c-0.13,0-0.23,0.1-0.23,0.23s0.1,0.23,0.23,0.23h3.91l-4.88,6.59c-0.07,0.09-0.06,0.22,0.02,0.3c0.04,0.04,0.1,0.07,0.16,0.07
	c0.05,0,0.1-0.02,0.14-0.05l6.46-4.95v3.85c0,0.13,0.1,0.23,0.23,0.23s0.23-0.1,0.23-0.23v-4.21l0.37-0.28
	c0.39-0.15,0.7-0.44,0.89-0.82l0.37-0.5h4.18c0.13,0,0.23-0.1,0.23-0.23c0-0.13-0.1-0.23-0.23-0.23h-3.84l5.04-6.8
	C23.33,9.04,23.32,8.91,23.24,8.83L23.24,8.83z M10.36,21.93l4.04-5.45c0.13,0.65,0.64,1.18,1.33,1.31c0.01,0,0.02,0,0.03,0
	L10.36,21.93L10.36,21.93z M16.26,17.33c-0.14,0.03-0.29,0.03-0.45,0.01c0,0-0.01,0-0.01,0c-0.49-0.1-0.85-0.48-0.95-0.95
	c-0.03-0.14-0.03-0.29-0.01-0.45c0-0.01,0-0.01,0-0.01c0.1-0.49,0.48-0.86,0.95-0.95c0.07-0.01,0.15-0.02,0.23-0.02
	c0.07,0,0.15,0.01,0.22,0.02c0,0,0.01,0,0.01,0c0.31,0.06,0.58,0.23,0.76,0.49c0.1,0.14,0.16,0.29,0.19,0.45
	c0.03,0.15,0.03,0.3,0,0.44c0,0.01,0,0.01,0,0.01C17.11,16.87,16.72,17.24,16.26,17.33L16.26,17.33z M17.66,15.91
	c-0.04-0.25-0.12-0.49-0.27-0.7c-0.25-0.36-0.63-0.61-1.07-0.69c-0.02,0-0.05,0-0.07-0.01h0l0,0l5.66-4.34L17.66,15.91L17.66,15.91z
	 M6.58,16.37c-0.13,0-0.23-0.1-0.23-0.23c0-3.44,1.75-6.57,4.69-8.37c0.11-0.07,0.25-0.03,0.32,0.07c0.07,0.11,0.03,0.25-0.08,0.32
	c-2.8,1.72-4.47,4.7-4.47,7.98C6.81,16.27,6.71,16.37,6.58,16.37L6.58,16.37z M21.98,24c-0.07,0-0.14-0.03-0.18-0.09
	c-0.08-0.1-0.06-0.25,0.04-0.32c2.35-1.79,3.69-4.5,3.69-7.45c0-0.13,0.1-0.23,0.23-0.23s0.23,0.1,0.23,0.23
	c0,3.09-1.41,5.94-3.87,7.82C22.08,23.99,22.03,24,21.98,24z"/>
</svg>
