<?xml version="1.0" encoding="utf-8"?>
<!-- Generator: Adobe Illustrator 21.1.0, SVG Export Plug-In . SVG Version: 6.00 Build 0)  -->
<!DOCTYPE svg PUBLIC "-//W3C//DTD SVG 1.1//EN" "http://www.w3.org/Graphics/SVG/1.1/DTD/svg11.dtd">
<svg version="1.1" id="Layer_1" xmlns="http://www.w3.org/2000/svg" xmlns:xlink="http://www.w3.org/1999/xlink" x="0px" y="0px"
	 viewBox="0 0 32 32" style="enable-background:new 0 0 32 32;" xml:space="preserve">
<path d="M25.58,9.33c-0.03-0.06-0.08-0.1-0.14-0.12l-0.82-0.26c-0.11-0.04-0.24,0.02-0.28,0.13l-2.34,5.73H10L7.66,9.08
	C7.62,8.97,7.5,8.91,7.38,8.95L6.56,9.2C6.5,9.22,6.45,9.27,6.42,9.33S6.39,9.45,6.42,9.51l2.16,5.29H8.05
	c-0.13,0-0.23,0.1-0.23,0.23v1.16c0,0.13,0.1,0.23,0.23,0.23h0.31l0.5,7.03c0,0.06,0.03,0.1,0.06,0.15l0,0
	c-0.47,0.24-0.79,0.73-0.79,1.29c0,0.8,0.65,1.45,1.45,1.45c0.8,0,1.45-0.65,1.45-1.45c0-0.47-0.23-0.88-0.57-1.15
	c-0.25-0.19-0.55-0.31-0.88-0.31l0,0c0.33,0,0.64,0.12,0.88,0.31h11.24c0.25-0.19,0.55-0.31,0.88-0.31l0,0
	c-0.33,0-0.64,0.12-0.88,0.31c-0.35,0.27-0.57,0.68-0.57,1.15c0,0.8,0.65,1.45,1.45,1.45s1.45-0.65,1.45-1.45
	c0-0.56-0.33-1.05-0.79-1.29l0,0c0.03-0.04,0.05-0.09,0.06-0.15l0.5-7.03H24c0.13,0,0.23-0.1,0.23-0.23v-1.16
	c0-0.13-0.1-0.23-0.23-0.23h-0.58l2.16-5.29C25.61,9.45,25.6,9.38,25.58,9.33L25.58,9.33z M6.94,9.57l0.38-0.12l2.19,5.36H9.08
	C9.08,14.81,6.94,9.57,6.94,9.57z M10.57,24.88c0,0.56-0.45,1.01-1.01,1.01s-1.01-0.45-1.01-1.01s0.45-1.01,1.01-1.01
	S10.57,24.33,10.57,24.88z M9.17,23.49c0.07-0.02,0.15-0.04,0.22-0.05C9.31,23.45,9.24,23.47,9.17,23.49z M9.44,23.12L8.97,16.5
	h1.67l0.24,1.49c0.02,0.11,0.11,0.19,0.23,0.19h1.19c0.13,0,0.23-0.1,0.23-0.23V16.5h7.21v1.45c0,0.13,0.1,0.23,0.23,0.23h1.19
	c0.11,0,0.21-0.08,0.23-0.19l0.24-1.49h1.53l-0.47,6.62H9.44L9.44,23.12z M23.58,24.88c0,0.56-0.45,1.01-1.01,1.01
	c-0.56,0-1.01-0.45-1.01-1.01s0.45-1.01,1.01-1.01S23.58,24.33,23.58,24.88z M23.77,15.27v0.7h-2.32c-0.11,0-0.21,0.08-0.23,0.19
	l-0.25,1.56H20.2v-1.53c0-0.13-0.1-0.23-0.23-0.23H12.3c-0.13,0-0.23,0.1-0.23,0.23v1.53h-0.77l-0.25-1.56
	c-0.02-0.11-0.11-0.19-0.23-0.19H8.28v-0.7C8.28,15.27,23.77,15.27,23.77,15.27z M22.92,14.81h-0.43l2.19-5.36l0.38,0.12
	C25.06,9.57,22.92,14.81,22.92,14.81z M15.84,13.78c0.06,0.06,0.14,0.1,0.23,0.1c0.09,0,0.17-0.04,0.23-0.1l3.11-3.45
	c0.16-0.22,0.19-0.46,0.06-0.65c-0.14-0.21-0.35-0.28-0.57-0.21l-1.14,0.11V5.97c0-0.17-0.14-0.31-0.31-0.31s-0.31,0.14-0.31,0.31
	v3.95c0,0.09,0.04,0.17,0.1,0.23s0.15,0.09,0.24,0.08l1.3-0.12l-2.72,3.02l-2.72-3.02l1.3,0.13c0.09,0.01,0.17-0.02,0.24-0.08
	s0.1-0.14,0.1-0.23V5.97c0-0.17-0.14-0.31-0.31-0.31c-0.17,0-0.31,0.14-0.31,0.31v3.61l-1.14-0.11c-0.21-0.07-0.43,0-0.57,0.21
	c-0.12,0.19-0.1,0.43,0.08,0.67L15.84,13.78L15.84,13.78z"/>
</svg>
