<?xml version="1.0" encoding="utf-8"?>
<!-- Generator: Adobe Illustrator 21.1.0, SVG Export Plug-In . SVG Version: 6.00 Build 0)  -->
<!DOCTYPE svg PUBLIC "-//W3C//DTD SVG 1.1//EN" "http://www.w3.org/Graphics/SVG/1.1/DTD/svg11.dtd">
<svg version="1.1" id="Layer_1" xmlns="http://www.w3.org/2000/svg" xmlns:xlink="http://www.w3.org/1999/xlink" x="0px" y="0px"
	 viewBox="0 0 32 32" style="enable-background:new 0 0 32 32;" xml:space="preserve">
<path d="M19.85,6.58c-0.09-0.84-0.8-1.49-1.66-1.49h-4.55c-0.87,0-1.58,0.66-1.66,1.51C9.55,6.85,7.12,7.35,7.12,8.2v1.11
	c0,0.25,0.21,0.48,0.58,0.69l1.23,14.81c0,1.25,3.66,2.09,7.07,2.09c3.42,0,7.07-0.84,7.07-2.07L24.31,10
	c0.36-0.21,0.58-0.44,0.58-0.69V8.2C24.88,7.33,22.34,6.83,19.85,6.58L19.85,6.58z M12.49,7.64V6.76c0-0.07,0.01-0.15,0.02-0.22
	c0.1-0.53,0.57-0.94,1.13-0.94h4.55c0.56,0,1.02,0.4,1.13,0.92c0.02,0.07,0.02,0.15,0.02,0.23v1.27c0,0.04,0,0.08-0.06,0.1
	c-0.05,0.02-0.15,0.03-0.33,0.03c-0.33,0-0.38-0.03-0.39-0.09c0-0.01,0-0.02,0-0.04V6.76c0-0.12-0.06-0.23-0.15-0.3
	c-0.06-0.05-0.14-0.07-0.22-0.07h-1.3C16.56,6.37,16.25,6.37,16,6.37c-0.25,0-0.56,0.01-0.89,0.02h-1.47
	c-0.09,0-0.18,0.03-0.24,0.09c-0.08,0.07-0.14,0.17-0.14,0.29v0.23v1.05c0,0.02,0,0.03-0.01,0.05c-0.02,0.05-0.08,0.08-0.38,0.08
	c-0.14,0-0.22-0.01-0.28-0.02c-0.11-0.02-0.11-0.06-0.11-0.11C12.49,8.03,12.49,7.64,12.49,7.64z M22.56,24.82
	c0,0.54-2.55,1.58-6.56,1.58s-6.56-1.04-6.56-1.6L8.23,10.26c1.84,0.74,5.54,1.18,7.77,1.18c2.22,0,5.92-0.44,7.77-1.18L22.56,24.82
	L22.56,24.82z M24.36,9.32c-0.03,0.11-0.22,0.24-0.55,0.38c-1.25,0.54-4.47,1.23-7.81,1.23c-3.35,0-6.56-0.68-7.81-1.23
	C7.86,9.56,7.66,9.43,7.63,9.32c0,0,0,0,0,0l0-1.11c0.09-0.34,1.87-0.82,4.34-1.1v0.92c0,0.07,0.01,0.13,0.02,0.18
	c0.11,0.46,0.64,0.47,0.88,0.47c0.27,0,0.9,0,0.9-0.63c0,0,0-0.01,0-0.01V6.95c0.38-0.02,0.77-0.04,1.17-0.05h2.09
	c0.34,0.01,0.67,0.02,1,0.04v1.09c0,0.65,0.64,0.65,0.91,0.65c0.25,0,0.79,0,0.89-0.49c0.01-0.05,0.02-0.1,0.02-0.16V7.09
	c2.56,0.27,4.42,0.77,4.51,1.11L24.36,9.32C24.37,9.32,24.36,9.32,24.36,9.32z M23.78,8.59c-0.04-0.07-0.11-0.1-0.19-0.09
	c-0.02,0-0.03,0-0.05,0.01c-0.2,0.08-0.46,0.16-0.76,0.24c-2.25,0.6-6.98,1.18-10.07,0.67c-0.11-0.02-0.21,0.05-0.22,0.16
	c-0.02,0.11,0.05,0.21,0.16,0.22c0.84,0.14,1.81,0.2,2.81,0.2c3.05,0,6.46-0.54,7.96-1.03c0.09-0.03,0.18-0.06,0.26-0.09
	c0.1-0.04,0.15-0.15,0.11-0.25C23.79,8.6,23.78,8.6,23.78,8.59L23.78,8.59z M11.45,9.23C10.57,9.1,9.78,8.92,9.2,8.75
	c-0.33-0.1-0.59-0.19-0.76-0.26c-0.05-0.02-0.1-0.04-0.13-0.06C8.22,8.37,8.1,8.41,8.05,8.5C8.01,8.57,8.02,8.64,8.06,8.7
	c0.02,0.02,0.04,0.05,0.06,0.06c0.1,0.06,0.26,0.13,0.47,0.2c0.63,0.22,1.68,0.48,2.81,0.65c0.01,0,0.02,0,0.03,0
	c0.1,0,0.18-0.07,0.19-0.16C11.63,9.35,11.56,9.25,11.45,9.23L11.45,9.23z M15.11,13.68v11.35c0,0.11,0.09,0.19,0.19,0.19
	c0.11,0,0.19-0.09,0.19-0.19V13.68c0-0.3,0.25-0.55,0.55-0.55c0.3,0,0.55,0.25,0.55,0.55v11.35c0,0.11,0.09,0.19,0.19,0.19
	s0.19-0.09,0.19-0.19V13.68c0-0.52-0.42-0.94-0.94-0.94C15.53,12.74,15.11,13.16,15.11,13.68L15.11,13.68z M19.31,24.96L19.31,24.96
	c0.11,0,0.2-0.08,0.2-0.18l0.52-11.36c0-0.3,0.25-0.55,0.55-0.55s0.55,0.25,0.55,0.54L20.62,24.5c0,0.11,0.08,0.2,0.18,0.2
	c0.11,0.01,0.2-0.08,0.2-0.18l0.52-11.1c0-0.52-0.42-0.94-0.94-0.94s-0.94,0.42-0.94,0.93l-0.52,11.35
	C19.12,24.87,19.2,24.96,19.31,24.96L19.31,24.96z M11.51,12.48c-0.52,0-0.94,0.42-0.94,0.95l0.52,11.09
	c0.01,0.11,0.09,0.19,0.2,0.18c0.11,0,0.19-0.1,0.19-0.2l-0.52-11.08c0-0.3,0.25-0.55,0.55-0.55s0.55,0.25,0.55,0.56l0.52,11.35
	c0.01,0.1,0.09,0.18,0.19,0.18h0.01c0.11-0.01,0.19-0.1,0.19-0.2l-0.52-11.34C12.45,12.9,12.03,12.48,11.51,12.48z"/>
</svg>
