<?xml version="1.0" encoding="utf-8"?>
<!-- Generator: Adobe Illustrator 21.1.0, SVG Export Plug-In . SVG Version: 6.00 Build 0)  -->
<!DOCTYPE svg PUBLIC "-//W3C//DTD SVG 1.1//EN" "http://www.w3.org/Graphics/SVG/1.1/DTD/svg11.dtd">
<svg version="1.1" id="Layer_1" xmlns="http://www.w3.org/2000/svg" xmlns:xlink="http://www.w3.org/1999/xlink" x="0px" y="0px"
	 viewBox="0 0 32 32" style="enable-background:new 0 0 32 32;" xml:space="preserve">
<path d="M20.36,12.64c0.23,0,0.45-0.06,0.65-0.17c0.31-0.17,0.53-0.45,0.62-0.79c0.09-0.34,0.05-0.69-0.12-1
	c-0.23-0.41-0.67-0.67-1.15-0.67c-0.23,0-0.45,0.06-0.65,0.17c-0.63,0.36-0.85,1.16-0.49,1.79C19.45,12.39,19.89,12.64,20.36,12.64z
	 M19.94,10.58c0.13-0.07,0.27-0.11,0.42-0.11c0.31,0,0.59,0.17,0.75,0.43c0.11,0.2,0.14,0.43,0.08,0.65c-0.06,0.22-0.2,0.4-0.4,0.52
	c-0.13,0.07-0.27,0.11-0.42,0.11c-0.31,0-0.59-0.17-0.75-0.43C19.38,11.34,19.53,10.82,19.94,10.58L19.94,10.58z M14.93,14.72
	c-0.85,0.88-1.06,2.25-0.43,3.36c0.1,0.18,0.22,0.34,0.35,0.48l-1.64,2.79c-0.06,0.09-0.06,0.21,0,0.31
	c0.02,0.03,0.16,0.27,0.5,0.47c0.34,0.2,0.62,0.21,0.65,0.21c0.11,0,0.21-0.06,0.26-0.15l1.63-2.77c0.23,0.06,0.47,0.09,0.71,0.09
	c0.49,0,0.97-0.13,1.39-0.37c0.64-0.36,1.09-0.94,1.31-1.64l3.28,0.03c0.1,0,0.19-0.05,0.25-0.13c0.04-0.06,0.17-0.28,0.14-0.72
	c-0.02-0.4-0.09-0.57-0.12-0.62c-0.05-0.1-0.16-0.17-0.27-0.17l-3.28-0.03c-0.06-0.2-0.14-0.39-0.25-0.58
	c-0.5-0.88-1.44-1.43-2.46-1.43c-0.2,0-0.4,0.03-0.59,0.07l-1.86-3.23c-0.04-0.07-0.11-0.12-0.19-0.14
	c-0.06-0.02-0.32-0.06-0.74,0.17c-0.41,0.23-0.51,0.48-0.52,0.55c-0.02,0.08-0.01,0.17,0.03,0.24L14.93,14.72L14.93,14.72z
	 M15.17,15.14l0.56,0.98c-0.13,0.31-0.14,0.65-0.02,0.98l-0.62,1.05c-0.07-0.09-0.14-0.19-0.2-0.29
	C14.39,16.96,14.53,15.88,15.17,15.14z M14.2,21.69c-0.05-0.02-0.12-0.05-0.19-0.09c-0.07-0.04-0.13-0.08-0.17-0.12l2.26-3.84
	c0.11,0.09,0.23,0.16,0.36,0.21L14.2,21.69L14.2,21.69z M18.13,18.75c-0.36,0.2-0.76,0.31-1.17,0.31c-0.16,0-0.31-0.02-0.46-0.05
	l0.63-1.08c0.16-0.02,0.32-0.08,0.46-0.16c0.13-0.07,0.24-0.17,0.33-0.28l1.25,0.01C18.99,18.03,18.62,18.47,18.13,18.75
	L18.13,18.75z M22.7,16.51c0.01,0.05,0.01,0.12,0.02,0.21c0,0.08,0,0.15-0.01,0.2l-4.49-0.04c0.03-0.14,0.04-0.28,0.02-0.41
	C18.24,16.47,22.7,16.51,22.7,16.51z M16.95,14.32c0.85,0,1.64,0.46,2.06,1.2c0.06,0.11,0.11,0.23,0.16,0.35L18,15.86
	c-0.2-0.27-0.5-0.46-0.83-0.52l-0.57-0.99C16.72,14.33,16.84,14.32,16.95,14.32z M16.94,15.77c0.31,0,0.59,0.17,0.75,0.43
	c0.11,0.2,0.14,0.43,0.08,0.65c-0.06,0.22-0.2,0.4-0.4,0.52c-0.13,0.07-0.27,0.11-0.42,0.11c-0.31,0-0.59-0.17-0.75-0.43
	c-0.23-0.41-0.09-0.93,0.32-1.17C16.65,15.81,16.79,15.77,16.94,15.77L16.94,15.77z M13.88,11.25c0.08-0.05,0.14-0.07,0.19-0.09
	l2.43,4.22c-0.07,0.03-0.14,0.05-0.21,0.09c-0.06,0.03-0.1,0.07-0.15,0.11l-2.43-4.22C13.74,11.34,13.8,11.3,13.88,11.25
	L13.88,11.25z M25.23,6.16l-2.82-1.38c-0.04-0.02-0.09-0.03-0.14-0.03H10.7c-0.04,0-0.08,0.01-0.12,0.03L7.34,6.16
	C7.15,6.22,7.15,6.57,7.15,6.6v3.51H7.13c-0.29,0-0.53,0.24-0.53,0.53v0.85c0,0.29,0.24,0.53,0.53,0.53h0.02v9.3H7.13
	c-0.29,0-0.53,0.24-0.53,0.53v0.85c0,0.29,0.24,0.53,0.53,0.53h0.02v3.7c0,0.17,0.14,0.31,0.31,0.31h17.63
	c0.17,0,0.31-0.14,0.31-0.31V6.6C25.4,6.57,25.4,6.26,25.23,6.16L25.23,6.16z M10.76,5.37H22.2l1.89,0.92H8.59L10.76,5.37
	L10.76,5.37z M7.13,11.57c-0.04,0-0.07-0.03-0.07-0.07v-0.85c0-0.04,0.03-0.07,0.07-0.07h1.62c0.04,0,0.07,0.03,0.07,0.07v0.85
	c0,0.04-0.03,0.07-0.07,0.07H7.13z M7.15,22.78H7.13c-0.04,0-0.07-0.03-0.07-0.07v-0.85c0-0.04,0.03-0.07,0.07-0.07h1.62
	c0.04,0,0.07,0.03,0.07,0.07v0.85c0,0.04-0.03,0.07-0.07,0.07C8.75,22.78,7.15,22.78,7.15,22.78z M24.78,26.63H7.76v-3.39h0.99
	c0.29,0,0.53-0.24,0.53-0.53v-0.85c0-0.29-0.24-0.53-0.53-0.53H7.76v-9.3h0.99c0.29,0,0.53-0.24,0.53-0.53v-0.85
	c0-0.29-0.24-0.53-0.53-0.53H7.76V6.9h17.02C24.78,6.9,24.78,26.63,24.78,26.63z"/>
</svg>
