<?xml version="1.0" encoding="utf-8"?>
<!-- Generator: Adobe Illustrator 21.1.0, SVG Export Plug-In . SVG Version: 6.00 Build 0)  -->
<!DOCTYPE svg PUBLIC "-//W3C//DTD SVG 1.1//EN" "http://www.w3.org/Graphics/SVG/1.1/DTD/svg11.dtd">
<svg version="1.1" id="Layer_1" xmlns="http://www.w3.org/2000/svg" xmlns:xlink="http://www.w3.org/1999/xlink" x="0px" y="0px"
	 viewBox="0 0 31.68 31.68" style="enable-background:new 0 0 31.68 31.68;" xml:space="preserve">
<path d="M21.32,8.24c0.16,0.12,0.35,0.17,0.55,0.16c0.05,0.07,0.14,0.12,0.23,0.12h0.03c0.07-0.01,0.14-0.04,0.19-0.08
	c0.07-0.04,0.15-0.07,0.23-0.09c0.22-0.04,0.42-0.17,0.54-0.36c0.1-0.21,0.02-0.47-0.19-0.57c0,0,0,0-0.01,0
	c-0.15-0.1-0.22-0.15-0.26-0.28c0-0.05-0.02-0.1-0.03-0.15c-0.02-0.1-0.04-0.19-0.08-0.28c-0.14-0.34-0.34-0.34-0.45-0.34
	c-0.24,0.06-0.42,0.25-0.47,0.49C21.42,6.9,21.27,7,21.16,7.14C20.91,7.49,20.98,7.97,21.32,8.24z M21.52,7.24
	c0.07-0.05,0.15-0.08,0.24-0.1C21.84,7.14,21.9,7.08,21.91,7c0.01-0.14,0.08-0.27,0.2-0.34c0,0,0.05,0.02,0.1,0.14
	c0.03,0.07,0.05,0.14,0.06,0.22c0,0.06,0.02,0.12,0.04,0.17c0.05,0.21,0.19,0.4,0.39,0.5c0.11,0.08,0.11,0.09,0.08,0.14
	s-0.18,0.14-0.34,0.18c-0.11,0.03-0.22,0.08-0.32,0.13c-0.03-0.06-0.09-0.1-0.16-0.1h-0.03c-0.14,0.03-0.29-0.01-0.41-0.09
	c-0.09-0.07-0.16-0.17-0.17-0.29C21.3,7.51,21.37,7.33,21.52,7.24z M28.18,13.35C26.8,6.53,20.14,2.12,13.32,3.5
	C9.03,4.37,5.51,7.4,4,11.5c-1.79,5.01-0.28,10.61,3.77,14.05c2.28,1.87,5.14,2.89,8.09,2.88c2.29,0.01,4.53-0.61,6.49-1.79
	C26.89,23.87,29.22,18.57,28.18,13.35z M24.11,7.48c0-0.03,0-0.06,0-0.09v0.03c0,0.03,0,0.07,0,0.1c0.07,0.26,0.31,0.45,0.58,0.46
	c0.93,1.03,1.67,2.22,2.19,3.51c-0.03-0.02-0.05-0.05-0.07-0.08c-0.09-0.19-0.3-0.1-0.36-0.07c-0.1,0.05-0.2,0.07-0.31,0.07
	c-0.03-0.01-0.06-0.02-0.08-0.04c-0.15-0.13-0.24-0.32-0.23-0.52v-0.09c0.02-0.11,0.01-0.23-0.02-0.34
	c-0.15-0.26-0.37-0.48-0.63-0.64c-0.09-0.06-0.2-0.06-0.29,0c-0.14,0.1-0.13,0.3-0.1,0.49c0.02,0.1,0.04,0.19,0.07,0.28
	c0.05,0.12,0.07,0.25,0.07,0.38c0,0.01,0,0.03,0,0.04c-0.23-0.13-0.44-0.29-0.61-0.49l-0.03-0.03c-0.05-0.05-0.09-0.1-0.13-0.16
	c-0.09-0.16-0.24-0.29-0.41-0.36c-0.32-0.11-0.53,0.14-0.69,0.3l-0.02,0.04l-0.09,0.09c-0.17,0.19-0.35,0.37-0.55,0.53
	c-0.1,0.06-0.2,0.08-0.32,0.08h-0.08c-0.18,0.04-0.36,0.01-0.52-0.08c-0.05-0.04-0.08-0.1-0.08-0.17c-0.05-0.26,0.01-0.53,0.16-0.74
	c0.03-0.01,0.06-0.01,0.09,0c0.05-0.01,0.09-0.01,0.14,0c0.06,0.03,0.11,0.07,0.16,0.11c0.15,0.18,0.39,0.24,0.6,0.15
	c0.2-0.09,0.3-0.33,0.2-0.53c-0.01-0.02-0.02-0.03-0.03-0.05c-0.06-0.09-0.13-0.18-0.21-0.25l-0.24-0.22h0.07
	c0.11-0.03,0.21-0.1,0.27-0.2c0.01-0.02,0.03-0.04,0.05-0.06c0.06-0.04,0.12-0.07,0.19-0.09c0.06-0.02,0.11-0.04,0.16-0.07
	c0.2-0.11,0.38-0.26,0.52-0.44l0.11-0.12c0.03-0.03,0.07-0.07,0.11-0.1c0.16-0.1,0.27-0.26,0.31-0.44
	C24.11,7.62,24.11,7.55,24.11,7.48z M20.6,5.03c0.02-0.01,0.04-0.03,0.06-0.04C20.68,5,20.7,5.01,20.71,5.03
	c0.04,0.05,0.08,0.09-0.08,0.29c-0.18,0.22-0.49,0.28-0.73,0.14c-0.19-0.09-0.32-0.28-0.32-0.5C19.62,4.98,19.66,5,19.7,5.03
	l0.13,0.08c0.17,0.09,0.38,0.11,0.57,0.04C20.47,5.11,20.54,5.07,20.6,5.03z M15.71,4.34c0.07-0.04,0.12-0.11,0.14-0.2
	c0.02-0.08-0.01-0.17-0.07-0.22h0.05c0.63,0,1.25,0.05,1.87,0.15c0.34,0.05,0.71,0.13,1.05,0.22c-0.19,0.05-0.37,0.1-0.56,0.16
	c-0.44,0.14-0.84,0.41-1.13,0.77c-0.09,0.13-0.17,0.26-0.24,0.39c-0.08,0.18-0.19,0.34-0.31,0.48c-0.06,0.07-0.14,0.11-0.23,0.11
	c-0.06-0.02-0.11-0.06-0.15-0.11c-0.22-0.22-0.4-0.49-0.52-0.78c-0.14-0.33-0.17-0.78,0.1-0.99V4.34z M13.09,4.25
	c0.06,0.06,0.13,0.11,0.2,0.15c0.1,0.06,0.2,0.1,0.31,0.14l0.17,0.07c0.12,0.05,0.11,0.17-0.04,0.5c-0.11,0.25-0.2,0.3-0.22,0.31
	c-0.01,0.01-0.03,0.01-0.04,0c-0.07-0.04-0.14-0.1-0.2-0.16c-0.08-0.08-0.16-0.15-0.26-0.21l-0.1-0.05c-0.05-0.02-0.1-0.05-0.14-0.1
	c-0.06-0.08-0.1-0.16-0.15-0.25l-0.08-0.14c-0.02-0.03-0.04-0.06-0.06-0.09C12.69,4.36,12.89,4.3,13.09,4.25z M8.22,25.02
	c-3.76-3.19-5.21-8.33-3.66-13.01c0.01,0.24,0.05,0.49,0.11,0.72c0.03,0.1,0.06,0.2,0.08,0.31c0.05,0.43,0.27,0.83,0.6,1.11
	c0.07,0.05,0.16,0.05,0.22,0c0.17-0.34,0.19-0.73,0.07-1.09c-0.04-0.11-0.04-0.23,0-0.34l0.02-0.05c0.31,1.27,1.15,2.34,2.31,2.94
	c0.18,0.09,0.36,0.17,0.55,0.25c0.27,0.1,0.52,0.23,0.77,0.37c0.39,0.21,0.66,0.59,0.73,1.03c0,0.25-0.05,0.5-0.15,0.73
	c-0.08,0.21-0.14,0.43-0.16,0.66c-0.07,0.77,0.41,1.37,0.87,1.96c0.27,0.31,0.5,0.65,0.69,1.01c0.36,0.78,0.26,1.65,0.14,2.58
	c-0.11,0.93-0.22,1.83,0.13,2.68c0,0.04,0.03,0.08,0.05,0.11C10.36,26.52,9.22,25.86,8.22,25.02z M12.36,27.17
	c-0.2,0.03-0.4-0.21-0.5-0.44c-0.32-0.77-0.21-1.61-0.1-2.5c0.11-0.9,0.23-1.9-0.17-2.77c-0.2-0.38-0.44-0.75-0.72-1.07
	c-0.44-0.56-0.86-1.08-0.8-1.72c0.03-0.2,0.08-0.4,0.15-0.58c0.11-0.27,0.17-0.56,0.16-0.86c-0.07-0.55-0.4-1.04-0.9-1.3
	c-0.26-0.15-0.53-0.29-0.82-0.4c-0.18-0.08-0.34-0.15-0.53-0.24c-1.16-0.6-1.97-1.72-2.19-3.01c-0.01-0.05-0.04-0.1-0.09-0.12
	c-0.05-0.02-0.1-0.02-0.15,0c-0.18,0.09-0.32,0.25-0.38,0.44c-0.08,0.2-0.08,0.42,0,0.61c0.05,0.16,0.06,0.33,0.03,0.49
	c-0.14-0.23-0.23-0.48-0.28-0.74c-0.03-0.11-0.05-0.22-0.09-0.34c-0.09-0.35-0.13-0.72-0.11-1.08v-0.37
	c1.29-2.99,3.74-5.33,6.79-6.47c-0.22,0.25-0.44,0.51-0.63,0.78c-0.03,0.04-0.07,0.1-0.1,0.11c-0.06,0-0.11-0.02-0.16-0.05
	L10.7,5.51c-0.47-0.19-1,0.04-1.19,0.51C9.43,6.21,9.42,6.43,9.49,6.63c0.16,0.36,0.44,0.65,0.79,0.83
	c0.28,0.14,0.49,0.38,0.59,0.67c0.01,0.07,0.07,0.13,0.15,0.14c0.07,0.01,0.15-0.03,0.18-0.1c0.12-0.27,0.29-0.52,0.5-0.74
	c0.05-0.04,0.08-0.1,0.1-0.15c0.02-0.08,0.02-0.16,0-0.23c-0.05-0.19-0.05-0.39,0-0.58c0.05-0.17,0.18-0.31,0.34-0.37
	c0.15-0.05,0.32-0.01,0.43,0.11c0.03,0.04,0.06,0.09,0.08,0.13c0.06,0.25,0.31,0.4,0.56,0.34c0.04-0.01,0.07-0.02,0.1-0.04h0.04
	c0.04,0,0.15-0.05,0.34,0.28l0.77,1.26c0.14,0.18,0.22,0.4,0.23,0.63c-0.01,0.1-0.07,0.2-0.15,0.26c-0.04,0.03-0.1,0.05-0.15,0.03
	c-0.15-0.07-0.28-0.18-0.39-0.31c-0.13-0.16-0.3-0.28-0.5-0.34h-0.06c-0.15-0.06-0.33-0.04-0.47,0.04c-0.21,0.16-0.08,0.4,0,0.59
	c0.15,0.19,0.2,0.45,0.12,0.69c-0.07,0.15-0.22,0.17-0.47,0.2c-0.17,0.01-0.33,0.04-0.49,0.11c-0.34,0.2-0.62,0.49-0.82,0.83
	c-0.13,0.21-0.29,0.41-0.47,0.58c-0.42,0.34-0.88,0.83-0.81,1.5c0,0.13-0.01,0.26-0.03,0.38c-0.09-0.05-0.16-0.12-0.2-0.21
	c-0.14-0.5-0.37-0.8-0.69-0.89c-0.48-0.13-0.99,0.28-1.37,0.67c-0.31,0.28-0.44,0.71-0.34,1.11c0.07,0.23,0.23,0.42,0.45,0.53
	c0.18,0.09,0.4,0.11,0.59,0.03c0.06-0.02,0.12-0.05,0.17-0.08c0.08-0.05,0.17-0.08,0.26-0.1c0.19-0.03,0.27,0.08,0.41,0.34
	l0.05,0.09c0.18,0.29,0.4,0.55,0.66,0.77c0.4,0.36,0.96,0.49,1.48,0.34c0.71-0.15,1.42,0.46,2.06,0.99l0.2,0.17
	c0.17,0.14,0.34,0.29,0.49,0.44c0.49,0.5,1.06,0.91,1.68,1.22l0.25,0.1c0.16,0.06,0.32,0.13,0.47,0.22l0.07,0.05
	c0.2,0.13,0.31,0.36,0.27,0.6c-0.05,0.13-0.13,0.25-0.24,0.34c-0.09,0.09-0.18,0.19-0.25,0.31c-0.12,0.24-0.18,0.52-0.16,0.79
	c0.01,0.19-0.02,0.39-0.09,0.57c-0.15,0.24-0.35,0.44-0.6,0.58c-0.22,0.14-0.41,0.31-0.57,0.51c-0.13,0.19-0.24,0.39-0.31,0.61
	c-0.05,0.13-0.1,0.25-0.16,0.37c-0.14,0.25-0.41,0.48-0.66,0.41c-0.09-0.03-0.19,0.02-0.21,0.11c-0.01,0.04-0.01,0.08,0,0.11
	c0.06,0.16-0.09,0.34-0.26,0.48l-0.17,0.11c-0.2,0.11-0.37,0.26-0.5,0.45c-0.13,0.27-0.17,0.56-0.12,0.85v0.2
	C12.67,26.8,12.59,27.14,12.36,27.17z M22.01,26.05c-2.79,1.66-6.13,2.12-9.26,1.28c0.19-0.22,0.28-0.5,0.26-0.78v-0.22
	c-0.04-0.22-0.01-0.45,0.08-0.66c0.1-0.14,0.24-0.26,0.39-0.34l0.19-0.12c0.22-0.14,0.37-0.37,0.42-0.63
	c0.35-0.06,0.65-0.28,0.81-0.6c0.07-0.13,0.13-0.27,0.18-0.41c0.06-0.19,0.15-0.37,0.26-0.53c0.14-0.16,0.31-0.3,0.49-0.42
	c0.29-0.18,0.53-0.43,0.69-0.74c0.08-0.22,0.12-0.45,0.11-0.69c-0.01-0.22,0.03-0.43,0.12-0.63c0.06-0.09,0.12-0.17,0.2-0.24
	c0.14-0.13,0.25-0.29,0.32-0.46c0.08-0.38-0.08-0.76-0.4-0.97l-0.09-0.06c-0.16-0.11-0.34-0.19-0.52-0.27l-0.23-0.1
	c-0.59-0.3-1.12-0.7-1.59-1.17c-0.17-0.15-0.34-0.3-0.5-0.45l-0.2-0.17c-0.65-0.56-1.46-1.26-2.34-1.07
	c-0.41,0.12-0.86,0.02-1.17-0.27c-0.23-0.2-0.42-0.43-0.57-0.69l-0.04-0.09c-0.13-0.25-0.32-0.62-0.78-0.53
	c-0.12,0.03-0.24,0.07-0.34,0.13l-0.15,0.07c-0.1,0.04-0.21,0.03-0.31-0.02C7.9,14.16,7.8,14.04,7.76,13.9
	c-0.06-0.29,0.04-0.58,0.26-0.78c0.17-0.17,0.69-0.69,1.05-0.58c0.19,0.05,0.34,0.27,0.44,0.65c0.08,0.21,0.25,0.38,0.47,0.45
	c0.11,0.03,0.22,0,0.3-0.08c0.15-0.15,0.13-0.69,0.13-0.69c-0.05-0.51,0.32-0.89,0.69-1.2c0.21-0.19,0.39-0.41,0.54-0.64
	c0.16-0.29,0.4-0.54,0.69-0.72c0.12-0.05,0.25-0.07,0.37-0.08c0.3,0.02,0.58-0.12,0.74-0.37c0.13-0.33,0.08-0.71-0.13-1.01
	c-0.03-0.05-0.06-0.11-0.08-0.16c0.05,0,0.1,0.01,0.15,0.02h0.07c0.13,0.06,0.23,0.15,0.32,0.26c0.14,0.18,0.33,0.32,0.54,0.4
	c0.15,0.05,0.32,0.02,0.45-0.07c0.17-0.12,0.28-0.31,0.3-0.52c-0.01-0.3-0.11-0.59-0.28-0.83L14,6.69
	c-0.23-0.38-0.48-0.52-0.75-0.43l-0.05,0.02c-0.03,0.02-0.07,0.03-0.1,0.03c-0.04,0-0.09-0.09-0.14-0.17
	c-0.03-0.06-0.07-0.12-0.11-0.17c-0.2-0.24-0.52-0.32-0.81-0.22c-0.27,0.1-0.47,0.32-0.56,0.59c-0.08,0.25-0.09,0.52-0.03,0.78v0.04
	l-0.03,0.03c-0.15,0.16-0.27,0.33-0.38,0.51c-0.16-0.21-0.36-0.39-0.59-0.53C10.16,7.03,9.94,6.8,9.8,6.52
	c-0.09-0.3,0.09-0.62,0.39-0.7c0.12-0.03,0.25-0.03,0.36,0.02l0.06,0.03c0.12,0.07,0.26,0.09,0.4,0.07
	c0.12-0.04,0.22-0.13,0.28-0.23c0.24-0.33,0.5-0.64,0.78-0.95c0.04-0.04,0.08-0.08,0.13-0.11c0.01,0.02,0.03,0.04,0.04,0.06
	l0.07,0.13c0.05,0.1,0.11,0.2,0.17,0.29c0.07,0.09,0.16,0.16,0.26,0.21l0.08,0.04c0.07,0.04,0.13,0.09,0.18,0.15
	c0.08,0.09,0.18,0.17,0.29,0.23c0.1,0.04,0.21,0.04,0.31,0c0.2-0.1,0.35-0.28,0.42-0.49c0.11-0.24,0.32-0.73-0.13-0.95l-0.2-0.08
	c-0.05-0.02-0.1-0.05-0.15-0.07c0.57-0.11,1.14-0.18,1.72-0.21c0.04,0.06,0.09,0.12,0.16,0.15h0.02C15.09,4.42,15.11,5,15.3,5.45
	c0.14,0.33,0.34,0.63,0.6,0.89c0.09,0.1,0.2,0.17,0.32,0.2h0.1c0.17-0.01,0.34-0.09,0.45-0.22c0.15-0.16,0.27-0.35,0.37-0.55
	c0.06-0.12,0.13-0.23,0.21-0.34c0.25-0.31,0.59-0.54,0.97-0.66c0.25-0.09,0.51-0.16,0.77-0.22l0.34-0.09c0.3,0.1,0.6,0.21,0.89,0.34
	c-0.09,0.03-0.2,0.03-0.28-0.02l-0.11-0.06c-0.13-0.09-0.29-0.13-0.45-0.12h-0.02c-0.05,0.01-0.1,0.03-0.12,0.08
	c-0.01,0.01-0.02,0.03-0.02,0.04c-0.11,0.41,0.09,0.85,0.48,1.03c0.14,0.07,0.3,0.11,0.46,0.11c0.27,0,0.52-0.13,0.69-0.34
	c0.09-0.1,0.15-0.22,0.18-0.34c1.01,0.51,1.95,1.17,2.79,1.94c-0.06,0.07-0.1,0.15-0.11,0.25c0,0.05,0,0.09,0,0.14
	c0,0.04,0,0.07,0,0.11c0,0.08-0.1,0.15-0.19,0.23c-0.05,0.04-0.09,0.08-0.14,0.12l-0.12,0.13c-0.12,0.15-0.27,0.27-0.43,0.37
	c-0.04,0.02-0.08,0.04-0.13,0.05c-0.1,0.03-0.19,0.08-0.28,0.14c-0.04,0.04-0.08,0.08-0.11,0.13c-0.01,0.02-0.03,0.04-0.05,0.06
	h-0.06c-0.13-0.02-0.26,0.03-0.34,0.13c-0.05,0.09-0.05,0.19,0,0.28c0.03,0.06,0.07,0.11,0.13,0.16l0.26,0.25
	c0.06,0.05,0.1,0.1,0.14,0.16c0.03,0.05,0.03,0.08-0.04,0.12c-0.08,0.04-0.08,0-0.22-0.11c-0.08-0.07-0.17-0.13-0.27-0.17
	c-0.1-0.03-0.2-0.03-0.3-0.01c-0.09,0.01-0.18,0.04-0.26,0.1c-0.34,0.26-0.32,0.85-0.3,1.03c0.01,0.16,0.08,0.3,0.2,0.4
	c0.23,0.15,0.5,0.21,0.77,0.15h0.07c0.18,0,0.35-0.05,0.49-0.15c0.21-0.17,0.41-0.37,0.59-0.57l0.09-0.09l0.07-0.08
	c0.14-0.16,0.22-0.23,0.3-0.2c0.1,0.05,0.19,0.14,0.24,0.24c0.05,0.07,0.1,0.14,0.16,0.21l0.03,0.03c0.47,0.46,0.83,0.73,1.06,0.54
	c0.09-0.08,0.13-0.19,0.14-0.31c0.01-0.18-0.02-0.35-0.09-0.51c-0.03-0.08-0.05-0.16-0.06-0.24v-0.04c0.14,0.1,0.26,0.23,0.34,0.38
	c0.01,0.06,0.01,0.12,0,0.19v0.1c-0.02,0.31,0.11,0.61,0.34,0.81c0.08,0.07,0.17,0.11,0.28,0.12c0.15,0.01,0.31-0.02,0.45-0.09
	c0.12,0.14,0.29,0.22,0.47,0.23c0.06,0.16,0.11,0.34,0.16,0.49c-0.04,0-0.08,0-0.12,0c-0.09,0.01-0.17,0.02-0.25,0.04
	c-0.07,0.02-0.15,0.03-0.23,0.03c-0.1-0.03-0.2-0.07-0.28-0.13c-0.19-0.12-0.44-0.28-0.69-0.08c-0.08,0.07-0.14,0.16-0.16,0.27
	c-0.02-0.02-0.03-0.04-0.05-0.06c-0.06-0.11-0.16-0.19-0.28-0.22c-0.05-0.01-0.09-0.02-0.14-0.02h-0.1
	c-0.13-0.05-0.24-0.16-0.28-0.3c-0.02-0.05-0.03-0.1-0.04-0.16c-0.01-0.18-0.1-0.34-0.24-0.46c-0.08-0.07-0.18-0.11-0.28-0.13
	c-0.51-0.04-1.02,0.04-1.48,0.25c-0.13,0.05-0.26,0.07-0.39,0.07c-0.15,0-0.3,0.03-0.45,0.08c-0.3,0.16-0.53,0.43-0.65,0.76
	c-0.03,0.08-0.06,0.16-0.08,0.24c-0.02,0.14-0.11,0.27-0.25,0.32C20.5,13,20.3,13.23,20.18,13.5c-0.15,0.37-0.22,0.76-0.21,1.16V15
	c0,0-0.02,0.21-0.03,0.31c-0.02,0.15-0.04,0.31-0.04,0.46c0,0.79,0.63,1.49,1.27,1.77c0.42,0.15,0.88,0.15,1.29,0
	c0.27-0.09,0.57-0.12,0.85-0.09c0.28,0.05,0.69,0.26,0.64,0.55c-0.01,0.05-0.02,0.1-0.03,0.15c-0.11,0.36-0.03,0.75,0.23,1.03
	c0.04,0.06,0.08,0.13,0.11,0.19c0.16,0.29,0.22,0.62,0.2,0.94c-0.02,0.15-0.06,0.3-0.13,0.43c-0.12,0.24-0.17,0.52-0.13,0.79
	c0.04,0.16,0.1,0.31,0.19,0.44c0.05,0.08,0.09,0.16,0.12,0.24c0.06,0.21,0.09,0.43,0.08,0.65v0.31c0.02,0.21,0.06,0.41,0.13,0.61
	C23.94,24.67,23.02,25.44,22.01,26.05L22.01,26.05z M24.99,23.46c-0.03-0.1-0.05-0.21-0.06-0.32v-0.29
	c0.01-0.26-0.03-0.52-0.11-0.77c-0.04-0.1-0.09-0.2-0.14-0.29c-0.07-0.11-0.12-0.22-0.15-0.34c-0.02-0.21,0.02-0.41,0.12-0.59
	c0.08-0.17,0.13-0.35,0.15-0.53c0.03-0.39-0.05-0.79-0.24-1.14c-0.04-0.07-0.08-0.14-0.12-0.21c-0.13-0.16-0.21-0.35-0.23-0.55
	c0.01-0.07,0.02-0.14,0.04-0.21c0.02-0.06,0.03-0.13,0.04-0.19c0.08-0.54-0.52-0.86-0.92-0.93c-0.34-0.05-0.7-0.01-1.03,0.1
	c-0.34,0.13-0.72,0.14-1.07,0.02c-0.52-0.23-1.07-0.82-1.06-1.45c0-0.14,0.02-0.28,0.04-0.42c0-0.11,0.03-0.22,0.04-0.34
	c0.01-0.12,0-0.23,0-0.34c-0.02-0.35,0.05-0.7,0.18-1.03c0.09-0.2,0.23-0.37,0.42-0.48c0.22-0.09,0.38-0.29,0.42-0.53
	c0.02-0.07,0.04-0.14,0.07-0.21c0.08-0.24,0.24-0.44,0.46-0.57c0.11-0.03,0.23-0.05,0.34-0.05c0.19,0,0.37-0.03,0.54-0.1
	c0.41-0.18,0.86-0.26,1.31-0.22c0.05,0,0.1,0.01,0.14,0.03c0.05,0.03,0.07,0.11,0.09,0.24c0.01,0.08,0.03,0.15,0.06,0.22
	c0.08,0.24,0.27,0.43,0.51,0.5c0.05,0.01,0.1,0.02,0.14,0.03h0.1c0.03,0,0.04,0.02,0.08,0.08c0.05,0.08,0.12,0.15,0.2,0.2
	c0.13,0.09,0.31,0.06,0.4-0.07c0.03-0.04,0.05-0.09,0.05-0.14c0.01-0.04,0.03-0.08,0.05-0.12c0.04-0.03,0.1,0,0.28,0.1
	c0.13,0.09,0.27,0.16,0.43,0.19c0.12,0.01,0.23-0.01,0.34-0.04c0.06-0.02,0.12-0.03,0.19-0.03c0.05,0,0.11,0.01,0.16,0.02h0.06
	c0.07,0.25,0.13,0.5,0.19,0.76c0.72,3.55-0.22,7.23-2.53,10.01L24.99,23.46z"/>
</svg>
