<?xml version="1.0" encoding="utf-8"?>
<!-- Generator: Adobe Illustrator 21.1.0, SVG Export Plug-In . SVG Version: 6.00 Build 0)  -->
<!DOCTYPE svg PUBLIC "-//W3C//DTD SVG 1.1//EN" "http://www.w3.org/Graphics/SVG/1.1/DTD/svg11.dtd">
<svg version="1.1" id="Layer_1" xmlns="http://www.w3.org/2000/svg" xmlns:xlink="http://www.w3.org/1999/xlink" x="0px" y="0px"
	 viewBox="0 0 32 32" style="enable-background:new 0 0 32 32;" xml:space="preserve">
<path d="M14.42,19.04h5.42c0.1,0.32,0.48,1.04,1.73,1.04h0.32l-0.18-0.26c0,0-0.2-0.31-0.14-0.56c0.02-0.09,0.08-0.16,0.17-0.22
	h1.54c0.32,0,0.59-0.26,0.59-0.59v-4.24c0-0.32-0.26-0.59-0.59-0.59h-4.69v-2.64c0-0.32-0.26-0.59-0.59-0.59H9.13
	c-0.32,0-0.59,0.26-0.59,0.59v4.24c0,0.32,0.26,0.59,0.59,0.59h1.54c0.09,0.06,0.15,0.13,0.17,0.22c0.06,0.25-0.14,0.56-0.14,0.56
	l-0.18,0.26h0.32c1.25,0,1.63-0.73,1.73-1.04h1.26v2.64C13.83,18.78,14.09,19.04,14.42,19.04z M18.58,15.23v-1.26h4.69
	c0.14,0,0.25,0.11,0.25,0.25v4.24c0,0.14-0.11,0.25-0.25,0.25h-1.63l-0.04,0.02c-0.2,0.11-0.32,0.26-0.37,0.46s0,0.4,0.05,0.55
	c-1.03-0.11-1.15-0.85-1.16-0.88l-0.02-0.15h-5.69c-0.14,0-0.25-0.11-0.25-0.25v-2.64h3.82C18.31,15.81,18.58,15.55,18.58,15.23
	L18.58,15.23z M14.16,15.48v-1.26c0-0.14,0.11-0.25,0.25-0.25h3.83v1.26c0,0.14-0.11,0.25-0.25,0.25
	C17.99,15.48,14.16,15.48,14.16,15.48z M12.29,15.48l-0.02,0.15c-0.01,0.03-0.12,0.77-1.16,0.88c0.06-0.15,0.1-0.35,0.05-0.55
	c-0.05-0.2-0.17-0.35-0.37-0.46l-0.04-0.02H9.13c-0.14,0-0.25-0.11-0.25-0.25l0-4.24c0-0.14,0.11-0.25,0.25-0.25h8.85
	c0.14,0,0.25,0.11,0.25,0.25v2.64h-3.82c-0.32,0-0.59,0.26-0.59,0.59v1.26L12.29,15.48L12.29,15.48z M25.36,6.28H6.64
	c-0.2,0-0.36,0.16-0.36,0.36v18.72c0,0.2,0.16,0.36,0.36,0.36h2.31c0.03,0,0.06,0,0.09-0.01l6.56-1.59
	c0.19-0.05,0.31-0.24,0.26-0.43c-0.05-0.19-0.24-0.31-0.44-0.26L8.9,25H7V7h18v18h-8.92c-0.2,0-0.36,0.16-0.36,0.36
	s0.16,0.36,0.36,0.36h9.28c0.2,0,0.36-0.16,0.36-0.36V6.64C25.72,6.44,25.56,6.28,25.36,6.28L25.36,6.28z"/>
</svg>
