<?xml version="1.0" encoding="utf-8"?>
<!-- Generator: Adobe Illustrator 21.1.0, SVG Export Plug-In . SVG Version: 6.00 Build 0)  -->
<!DOCTYPE svg PUBLIC "-//W3C//DTD SVG 1.1//EN" "http://www.w3.org/Graphics/SVG/1.1/DTD/svg11.dtd">
<svg version="1.1" id="Layer_1" xmlns="http://www.w3.org/2000/svg" xmlns:xlink="http://www.w3.org/1999/xlink" x="0px" y="0px"
	 viewBox="0 0 32 32" style="enable-background:new 0 0 32 32;" xml:space="preserve">
<path d="M25.1,9.36H6.9c-0.67,0-1.21,0.54-1.21,1.21v8.71c0,0.67,0.54,1.21,1.21,1.21h11.14c0.21,0.65,0.98,2.15,3.56,2.15h0.65
	l-0.36-0.54c0-0.01-0.42-0.64-0.3-1.15c0.05-0.19,0.16-0.34,0.35-0.46h3.17c0.67,0,1.21-0.54,1.21-1.21l0-8.71
	C26.31,9.9,25.77,9.36,25.1,9.36z M25.63,19.28c0,0.29-0.23,0.52-0.52,0.52h-3.35l-0.08,0.04c-0.41,0.22-0.67,0.54-0.76,0.94
	c-0.1,0.4-0.01,0.81,0.11,1.13c-2.13-0.23-2.37-1.75-2.38-1.82l-0.04-0.3H6.9c-0.29,0-0.52-0.23-0.52-0.52v-8.71
	c0-0.29,0.23-0.52,0.52-0.52H25.1c0.29,0,0.52,0.23,0.52,0.52L25.63,19.28L25.63,19.28z M23.34,12.25H8.66
	c-0.14,0-0.26,0.11-0.26,0.26c0,0.14,0.12,0.26,0.26,0.26h14.68c0.14,0,0.26-0.12,0.26-0.26S23.48,12.25,23.34,12.25z M23.34,13.93
	H8.66c-0.14,0-0.26,0.12-0.26,0.26s0.12,0.26,0.26,0.26h14.68c0.14,0,0.26-0.11,0.26-0.26C23.6,14.05,23.48,13.93,23.34,13.93z
	 M23.34,15.52H8.66c-0.14,0-0.26,0.11-0.26,0.26s0.12,0.26,0.26,0.26h14.68c0.14,0,0.26-0.12,0.26-0.26S23.48,15.52,23.34,15.52z
	 M23.34,17.2H8.66c-0.14,0-0.26,0.12-0.26,0.26s0.12,0.26,0.26,0.26h14.68c0.14,0,0.26-0.11,0.26-0.26
	C23.6,17.32,23.48,17.2,23.34,17.2z"/>
</svg>
