<?xml version="1.0" encoding="utf-8"?>
<!-- Generator: Adobe Illustrator 21.1.0, SVG Export Plug-In . SVG Version: 6.00 Build 0)  -->
<!DOCTYPE svg PUBLIC "-//W3C//DTD SVG 1.1//EN" "http://www.w3.org/Graphics/SVG/1.1/DTD/svg11.dtd">
<svg version="1.1" id="Layer_1" xmlns="http://www.w3.org/2000/svg" xmlns:xlink="http://www.w3.org/1999/xlink" x="0px" y="0px"
	 viewBox="0 0 31.68 31.68" style="enable-background:new 0 0 31.68 31.68;" xml:space="preserve">
<g>
	<g>
		<g>
			<path d="M20.7,10.42l-3.47,3.47c-0.14,0.14-0.14,0.37,0,0.51c0.07,0.07,0.16,0.1,0.25,0.1c0.09,0,0.18-0.03,0.25-0.1l3.47-3.47
				l0.5,0.5l0.55-2.07l-2.07,0.55L20.7,10.42z"/>
			<path d="M24.13,6.22H11.97c-0.77,0-1.39,0.62-1.39,1.39v7.67H7.55c-0.77,0-1.39,0.62-1.39,1.39v7.42c0,0.77,0.62,1.39,1.39,1.39
				h7.42c0.77,0,1.39-0.62,1.39-1.39v-2.93h7.78c0.77,0,1.39-0.62,1.39-1.39V7.6C25.52,6.84,24.9,6.22,24.13,6.22z M15.64,20.61
				h-3.67c-0.47,0-0.85-0.38-0.85-0.85v-3.78h3.85c0.37,0,0.67,0.3,0.67,0.67V20.61z M15.64,24.08c0,0.37-0.3,0.67-0.67,0.67H7.55
				c-0.37,0-0.67-0.3-0.67-0.67v-7.42c0-0.37,0.3-0.67,0.67-0.67h3.22v3.78c0,0.67,0.54,1.21,1.21,1.21h3.67V24.08z M24.8,19.76
				c0,0.37-0.3,0.67-0.67,0.67h-7.78v-3.78c0-0.77-0.62-1.39-1.39-1.39H11.3V7.6c0-0.37,0.3-0.67,0.67-0.67h12.16
				c0.37,0,0.67,0.3,0.67,0.67V19.76z"/>
		</g>
	</g>
</g>
</svg>
