<?xml version="1.0" encoding="utf-8"?>
<!-- Generator: Adobe Illustrator 21.1.0, SVG Export Plug-In . SVG Version: 6.00 Build 0)  -->
<!DOCTYPE svg PUBLIC "-//W3C//DTD SVG 1.1//EN" "http://www.w3.org/Graphics/SVG/1.1/DTD/svg11.dtd">
<svg version="1.1" id="Layer_1" xmlns="http://www.w3.org/2000/svg" xmlns:xlink="http://www.w3.org/1999/xlink" x="0px" y="0px"
	 viewBox="0 0 32 32" style="enable-background:new 0 0 32 32;" xml:space="preserve">
<path d="M16,5.3C10.1,5.3,5.31,10.1,5.31,16s4.8,10.7,10.69,10.7c5.9,0,10.69-4.8,10.69-10.7S21.9,5.3,16,5.3z M16,26.03
	c-5.53,0-10.03-4.5-10.03-10.03S10.47,5.97,16,5.97S26.03,10.47,26.03,16S21.53,26.03,16,26.03z M17.37,9.22H11.9
	c-0.14,0-0.25,0.11-0.25,0.25v13.41c0,0.14,0.11,0.25,0.25,0.25h2.68c0.14,0,0.25-0.11,0.25-0.25v-4.5h2.31c3.24,0,5.1-1.7,5.1-4.66
	C22.24,10.98,20.33,9.22,17.37,9.22z M17.14,17.88h-2.56c-0.14,0-0.25,0.11-0.25,0.25v4.5h-2.18V9.71h5.22c2.11,0,4.37,1.05,4.37,4
	C21.74,17.34,18.86,17.88,17.14,17.88L17.14,17.88z M17.28,11.82h-2.7c-0.14,0-0.25,0.11-0.25,0.25v3.45c0,0.14,0.11,0.25,0.25,0.25
	h2.73c1.4,0,2.17-0.71,2.17-1.99C19.48,12.54,18.68,11.82,17.28,11.82L17.28,11.82z M17.32,15.27h-2.48v-2.95h2.45
	c1.13,0,1.7,0.49,1.7,1.46C18.98,14.78,18.44,15.27,17.32,15.27L17.32,15.27z"/>
</svg>
