<?xml version="1.0" encoding="utf-8"?>
<!-- Generator: Adobe Illustrator 21.1.0, SVG Export Plug-In . SVG Version: 6.00 Build 0)  -->
<!DOCTYPE svg PUBLIC "-//W3C//DTD SVG 1.1//EN" "http://www.w3.org/Graphics/SVG/1.1/DTD/svg11.dtd">
<svg version="1.1" id="Layer_1" xmlns="http://www.w3.org/2000/svg" xmlns:xlink="http://www.w3.org/1999/xlink" x="0px" y="0px"
	 viewBox="0 0 32 32" style="enable-background:new 0 0 32 32;" xml:space="preserve">
<path d="M13.39,21.36c0.89,0.08,1.82,0.11,2.77,0.11c2.62,0,5.07-0.3,6.56-0.79c0.12-0.04,0.25,0.02,0.29,0.15s-0.02,0.25-0.15,0.29
	c-1.53,0.51-4.04,0.81-6.7,0.81c-0.96,0-1.91-0.04-2.81-0.11c-0.13-0.01-0.22-0.12-0.21-0.25C13.15,21.44,13.26,21.34,13.39,21.36
	L13.39,21.36z M11.52,21.21c-0.91-0.15-1.69-0.34-2.25-0.56c-0.08-0.03-0.17,0.01-0.2,0.09s0.01,0.17,0.09,0.2
	c0.59,0.23,1.37,0.42,2.31,0.58c0.01,0,0.02,0,0.02,0c0.07,0,0.14-0.05,0.15-0.13C11.66,21.3,11.61,21.22,11.52,21.21L11.52,21.21z
	 M23.68,19.28c0.44,0.26,0.7,0.57,0.7,0.93v4.67c0,1.6-5.01,2.17-8.38,2.17c-3.37,0-8.38-0.58-8.38-2.17v-4.67
	c0-0.36,0.26-0.67,0.7-0.93c-0.44-0.26-0.7-0.57-0.7-0.93v-4.67c0-0.37,0.27-0.68,0.71-0.94c-0.45-0.27-0.72-0.58-0.72-0.95V7.11
	c0-1.6,5.01-2.18,8.38-2.18c3.37,0,8.38,0.58,8.38,2.18v4.67c0,0.37-0.27,0.68-0.71,0.94c0.45,0.27,0.72,0.58,0.72,0.95v4.67
	C24.38,18.71,24.12,19.02,23.68,19.28L23.68,19.28z M9.05,12.4c0.27,0.11,0.61,0.22,1.01,0.33c1.3,0.34,3.29,0.62,5.94,0.62
	c2.65,0,4.64-0.28,5.95-0.62c0.4-0.11,0.74-0.22,1.01-0.33c0.53-0.22,0.81-0.44,0.81-0.62V7.11c0-0.55-2.67-1.56-7.76-1.56
	S8.23,6.57,8.23,7.11v4.67C8.23,11.96,8.51,12.18,9.05,12.4L9.05,12.4z M22.99,19.61c-1.73,0.65-4.73,0.91-6.99,0.91
	s-5.26-0.26-6.99-0.91c-0.52,0.22-0.78,0.43-0.78,0.61v4.67c0,0.55,2.67,1.56,7.76,1.56s7.76-1.02,7.76-1.56v-4.67
	C23.77,20.04,23.5,19.83,22.99,19.61L22.99,19.61z M23.77,13.68c0-0.17-0.28-0.4-0.82-0.62c-1.73,0.65-4.71,0.9-6.96,0.9
	c-2.24,0-5.21-0.26-6.95-0.9c-0.53,0.22-0.81,0.44-0.81,0.62v4.67c0,0.17,0.26,0.39,0.78,0.61c0.26,0.11,0.6,0.22,1,0.33
	c1.3,0.35,3.31,0.63,5.99,0.63s4.68-0.28,5.99-0.63c0.4-0.11,0.73-0.22,1-0.33c0.52-0.22,0.78-0.43,0.78-0.61V13.68z M22.71,14.14
	c-1.49,0.49-3.94,0.79-6.56,0.79c-0.95,0-1.88-0.04-2.77-0.11c-0.13-0.01-0.24,0.08-0.25,0.21c-0.01,0.13,0.08,0.24,0.21,0.25
	c0.9,0.08,1.84,0.11,2.81,0.11c2.67,0,5.17-0.3,6.7-0.81c0.12-0.04,0.19-0.17,0.15-0.29S22.84,14.1,22.71,14.14L22.71,14.14z
	 M11.52,14.67c-0.91-0.15-1.69-0.34-2.25-0.56c-0.08-0.03-0.17,0.01-0.2,0.09c-0.03,0.08,0.01,0.17,0.09,0.2
	c0.59,0.23,1.37,0.43,2.31,0.58c0.01,0,0.02,0,0.02,0c0.07,0,0.14-0.05,0.15-0.13C11.66,14.76,11.61,14.68,11.52,14.67z M13.34,8.71
	c0.9,0.08,1.85,0.11,2.81,0.11c2.66,0,5.17-0.3,6.7-0.81c0.12-0.04,0.19-0.17,0.15-0.29s-0.17-0.19-0.29-0.15
	c-1.49,0.49-3.94,0.79-6.56,0.79c-0.95,0-1.88-0.04-2.77-0.11c-0.12-0.01-0.24,0.08-0.25,0.21C13.12,8.59,13.21,8.7,13.34,8.71
	L13.34,8.71z M11.49,8.41c0.07,0,0.14-0.05,0.15-0.13c0.01-0.08-0.04-0.16-0.13-0.18c-0.91-0.15-1.69-0.34-2.25-0.56
	C9.19,7.51,9.1,7.55,9.07,7.63C9.04,7.71,9.08,7.8,9.16,7.83c0.59,0.23,1.37,0.43,2.31,0.58C11.48,8.41,11.49,8.41,11.49,8.41
	L11.49,8.41z"/>
</svg>
