<?xml version="1.0" encoding="utf-8"?>
<!-- Generator: Adobe Illustrator 21.1.0, SVG Export Plug-In . SVG Version: 6.00 Build 0)  -->
<!DOCTYPE svg PUBLIC "-//W3C//DTD SVG 1.1//EN" "http://www.w3.org/Graphics/SVG/1.1/DTD/svg11.dtd">
<svg version="1.1" id="Layer_1" xmlns="http://www.w3.org/2000/svg" xmlns:xlink="http://www.w3.org/1999/xlink" x="0px" y="0px"
	 viewBox="0 0 32 32" style="enable-background:new 0 0 32 32;" xml:space="preserve">
<path d="M11.8,19.64H9.97c-0.09,0-0.15,0.07-0.15,0.15s0.07,0.15,0.15,0.15h1.83c0.09,0,0.15-0.07,0.15-0.15S11.89,19.64,11.8,19.64
	z M15.97,27.74c-0.33,0-0.6,0.27-0.6,0.6c0,0.33,0.27,0.6,0.6,0.6c0.33,0,0.6-0.27,0.6-0.6C16.56,28.01,16.29,27.74,15.97,27.74z
	 M15.97,28.63c-0.16,0-0.29-0.13-0.29-0.29c0-0.16,0.13-0.29,0.29-0.29c0.16,0,0.29,0.13,0.29,0.29
	C16.26,28.5,16.13,28.63,15.97,28.63z M11.8,21.28H9.97c-0.09,0-0.15,0.07-0.15,0.15c0,0.08,0.07,0.15,0.15,0.15h1.83
	c0.09,0,0.15-0.07,0.15-0.15C11.96,21.35,11.89,21.28,11.8,21.28z M11.8,18.01H9.97c-0.09,0-0.15,0.07-0.15,0.15
	s0.07,0.15,0.15,0.15h1.83c0.09,0,0.15-0.07,0.15-0.15S11.89,18.01,11.8,18.01z M21.97,21.2h-8.69c-0.13,0-0.23,0.1-0.23,0.23
	s0.1,0.23,0.23,0.23h8.69c0.13,0,0.23-0.1,0.23-0.23S22.1,21.2,21.97,21.2z M13.05,14.89c0,0.13,0.1,0.23,0.23,0.23h8.69
	c0.13,0,0.23-0.1,0.23-0.23s-0.1-0.23-0.23-0.23h-8.69C13.15,14.66,13.05,14.77,13.05,14.89z M23.39,12.91
	c-0.03,0-2.88-0.31-7.39-0.31c-1.06,0-2.02,0.02-2.89,0.04V8.46c0-1.59,1.29-2.88,2.89-2.88s2.89,1.29,2.89,2.88v2.14
	c0,0.17,0.14,0.31,0.31,0.31h2.45c0.17,0,0.31-0.14,0.31-0.31V8.46c0-3.28-2.67-5.95-5.95-5.95s-5.95,2.67-5.95,5.95v4.33
	c-0.91,0.06-1.43,0.12-1.44,0.12c-0.15,0.02-0.27,0.15-0.27,0.31v9.81c0,0.16,0.12,0.29,0.27,0.3c0.03,0,2.52,0.29,5.8,0.37v0.9
	c-0.89,0.54-1.43,1.5-1.43,2.55c0,1.65,1.34,2.99,2.99,2.99s2.99-1.34,2.99-2.99c0-1.08-0.6-2.09-1.54-2.61V23.7
	c3.37-0.07,5.95-0.37,5.98-0.37c0.16-0.02,0.27-0.15,0.27-0.3v-9.81C23.66,13.06,23.55,12.93,23.39,12.91L23.39,12.91z M10.66,8.46
	c0-2.94,2.39-5.34,5.34-5.34c2.94,0,5.34,2.39,5.34,5.34v1.83H19.5V9.6h0.88c0.13,0,0.23-0.1,0.23-0.23s-0.1-0.23-0.23-0.23H19.5
	V8.46c0-1.93-1.57-3.5-3.5-3.5s-3.5,1.57-3.5,3.5v4.21c-0.7,0.03-1.32,0.06-1.84,0.09L10.66,8.46L10.66,8.46z M18.34,27.15
	c0,1.31-1.07,2.38-2.38,2.38s-2.38-1.07-2.38-2.38c0-0.88,0.49-1.69,1.27-2.1c0.1-0.05,0.16-0.16,0.16-0.27v-1.06
	c0.09,0,0.18,0,0.27,0v0.81c0,0.13,0.1,0.23,0.23,0.23s0.23-0.1,0.23-0.23v-0.8c0.08,0,0.17,0,0.25,0c0.27,0,0.54,0,0.8,0v1.01
	c0,0.12,0.07,0.23,0.17,0.28C17.81,25.39,18.34,26.23,18.34,27.15L18.34,27.15z M23.05,22.75c-0.77,0.08-3.09,0.29-5.92,0.34
	c-0.01,0-0.01,0-0.02,0h-2.4c0,0,0,0,0,0c-2.76-0.05-5-0.26-5.75-0.34V13.5c0.23-0.02,0.6-0.05,1.1-0.09
	c0.1-0.01,0.2-0.01,0.31-0.02c0.1-0.01,0.2-0.01,0.31-0.02c0.52-0.03,1.14-0.06,1.84-0.09c0.1,0,0.2-0.01,0.31-0.01
	c0.1,0,0.2-0.01,0.31-0.01c0.86-0.03,1.82-0.04,2.88-0.04c3.68,0,6.24,0.2,7.05,0.28L23.05,22.75L23.05,22.75z M21.97,16.3h-8.69
	c-0.13,0-0.23,0.1-0.23,0.23s0.1,0.23,0.23,0.23h8.69c0.13,0,0.23-0.1,0.23-0.23S22.1,16.3,21.97,16.3z M11.8,14.74H9.97
	c-0.09,0-0.15,0.07-0.15,0.15c0,0.09,0.07,0.15,0.15,0.15h1.83c0.08,0,0.15-0.07,0.15-0.15c0,0,0,0,0,0
	C11.96,14.81,11.89,14.74,11.8,14.74z M11.8,16.37H9.97c-0.09,0-0.15,0.07-0.15,0.15s0.07,0.15,0.15,0.15h1.83
	c0.09,0,0.15-0.07,0.15-0.15S11.89,16.37,11.8,16.37z M21.97,19.57h-8.69c-0.13,0-0.23,0.1-0.23,0.23s0.1,0.23,0.23,0.23h8.69
	c0.13,0,0.23-0.1,0.23-0.23S22.1,19.57,21.97,19.57z M21.97,17.93h-8.69c-0.13,0-0.23,0.1-0.23,0.23s0.1,0.23,0.23,0.23h8.69
	c0.13,0,0.23-0.1,0.23-0.23S22.1,17.93,21.97,17.93z"/>
</svg>
