<?xml version="1.0" encoding="utf-8"?>
<!-- Generator: Adobe Illustrator 21.1.0, SVG Export Plug-In . SVG Version: 6.00 Build 0)  -->
<!DOCTYPE svg PUBLIC "-//W3C//DTD SVG 1.1//EN" "http://www.w3.org/Graphics/SVG/1.1/DTD/svg11.dtd">
<svg version="1.1" id="Layer_1" xmlns="http://www.w3.org/2000/svg" xmlns:xlink="http://www.w3.org/1999/xlink" x="0px" y="0px"
	 viewBox="0 0 32 32" style="enable-background:new 0 0 32 32;" xml:space="preserve">
<path d="M26,9.93c0-0.01,0-0.02,0-0.02c0-0.03-0.01-0.06-0.02-0.08c0-0.01,0-0.01-0.01-0.02c0,0,0-0.01-0.01-0.01
	c-0.02-0.03-0.04-0.06-0.06-0.08c-0.01-0.01-0.01-0.01-0.02-0.01c-0.01-0.01-0.03-0.02-0.04-0.03l-9.7-4.85
	c-0.09-0.04-0.19-0.04-0.27,0L6.17,9.67C6.15,9.68,6.13,9.69,6.12,9.7C6.11,9.7,6.11,9.71,6.1,9.71C6.07,9.74,6.05,9.76,6.04,9.8
	c0,0-0.01,0.01-0.01,0.01c0,0.01,0,0.01-0.01,0.02C6.01,9.85,6.01,9.87,6,9.9c0,0.01,0,0.02,0,0.03c0,0,0,0.01,0,0.01v12.12
	c0,0.12,0.07,0.22,0.17,0.27l9.7,4.85c0,0,0.01,0,0.01,0c0.04,0.02,0.08,0.03,0.13,0.03c0.05,0,0.09-0.01,0.13-0.03
	c0,0,0.01,0,0.01,0l9.7-4.85c0.1-0.05,0.17-0.16,0.17-0.27V9.94C26,9.94,26,9.93,26,9.93L26,9.93z M16,5.44l9.01,4.51L16,14.45
	L6.99,9.94L16,5.44z M6.61,10.44l9.08,4.54v11.43l-9.08-4.54C6.61,21.87,6.61,10.44,6.61,10.44z M16.31,26.41V14.98l9.08-4.54v11.43
	L16.31,26.41z"/>
</svg>
