<?xml version="1.0" encoding="utf-8"?>
<!-- Generator: Adobe Illustrator 21.1.0, SVG Export Plug-In . SVG Version: 6.00 Build 0)  -->
<!DOCTYPE svg PUBLIC "-//W3C//DTD SVG 1.1//EN" "http://www.w3.org/Graphics/SVG/1.1/DTD/svg11.dtd">
<svg version="1.1" id="Layer_1" xmlns="http://www.w3.org/2000/svg" xmlns:xlink="http://www.w3.org/1999/xlink" x="0px" y="0px"
	 viewBox="0 0 32 32" style="enable-background:new 0 0 32 32;" xml:space="preserve">
<path d="M7.7,6.86c-0.13,0.06-0.2,0.2-0.16,0.33C7.53,7.21,7.52,7.24,7.52,7.26v9.43c0,0.01,0,0.01,0,0.02c0,0.01,0,0.01,0,0.02
	v9.43c0,0.16,0.13,0.28,0.28,0.28h16.38c0.16,0,0.29-0.13,0.29-0.28v-9.43c0-0.01,0-0.01,0-0.02c0-0.01,0-0.01,0-0.02V7.26
	c0-0.03-0.01-0.05-0.02-0.07c0.03-0.13-0.02-0.27-0.14-0.33L21.7,5.58c-0.04-0.02-0.08-0.03-0.12-0.03l-10.75,0
	c-0.04,0-0.08,0.01-0.11,0.02L7.7,6.86L7.7,6.86z M23.91,25.88H8.09v-4.15h15.81V25.88z M23.91,21.16H8.09v-4.15h15.81V21.16z
	 M23.91,16.41H8.09v-4.15h15.81V16.41z M23.91,9.3v2.39H8.09V7.55h15.81V9.3z M10.88,6.12h10.63l1.75,0.86H8.86
	C8.86,6.98,10.88,6.12,10.88,6.12z M9.14,9.55C9.14,9.55,9.14,9.56,9.14,9.55c0,0.22,0.18,0.4,0.39,0.4s0.39-0.18,0.39-0.39
	c0,0,0,0,0,0c0,0,0,0,0,0c0-0.22-0.18-0.39-0.39-0.39S9.14,9.33,9.14,9.55C9.14,9.55,9.14,9.55,9.14,9.55z M10.53,9.55
	c0,0,0,0.01,0,0.01c0,0.22,0.18,0.39,0.39,0.39s0.39-0.18,0.39-0.39c0,0,0-0.01,0-0.01c0,0,0-0.01,0-0.01
	c0-0.22-0.18-0.39-0.39-0.39s-0.39,0.18-0.39,0.39C10.53,9.55,10.53,9.55,10.53,9.55L10.53,9.55z M9.14,14.39
	C9.14,14.4,9.14,14.4,9.14,14.39c0,0.22,0.18,0.4,0.39,0.4s0.39-0.18,0.39-0.39c0,0,0,0,0,0s0,0,0,0c0-0.22-0.18-0.39-0.39-0.39
	S9.14,14.17,9.14,14.39C9.14,14.39,9.14,14.39,9.14,14.39z M10.53,14.39c0,0,0,0.01,0,0.01c0,0.22,0.18,0.39,0.39,0.39
	s0.39-0.18,0.39-0.39c0,0,0-0.01,0-0.01c0,0,0-0.01,0-0.01c0-0.22-0.18-0.39-0.39-0.39s-0.39,0.18-0.39,0.39
	C10.53,14.39,10.53,14.39,10.53,14.39L10.53,14.39z M9.14,18.95C9.14,18.95,9.14,18.95,9.14,18.95c0,0.22,0.18,0.4,0.39,0.4
	c0.22,0,0.39-0.18,0.39-0.39c0,0,0,0,0,0c0,0,0,0,0,0c0-0.22-0.18-0.39-0.39-0.39C9.32,18.55,9.14,18.73,9.14,18.95
	C9.14,18.95,9.14,18.95,9.14,18.95z M10.53,18.95c0,0,0,0.01,0,0.01c0,0.22,0.18,0.39,0.39,0.39c0.22,0,0.39-0.18,0.39-0.39
	c0,0,0-0.01,0-0.01c0,0,0-0.01,0-0.01c0-0.22-0.18-0.39-0.39-0.39c-0.22,0-0.39,0.18-0.39,0.39C10.53,18.94,10.53,18.95,10.53,18.95
	L10.53,18.95z M9.14,23.79C9.14,23.79,9.14,23.79,9.14,23.79c0,0.22,0.18,0.4,0.39,0.4s0.39-0.18,0.39-0.39c0,0,0,0,0,0s0,0,0,0
	c0-0.22-0.18-0.39-0.39-0.39S9.14,23.57,9.14,23.79C9.14,23.79,9.14,23.79,9.14,23.79z M10.53,23.79c0,0,0,0.01,0,0.01
	c0,0.22,0.18,0.39,0.39,0.39s0.39-0.18,0.39-0.39c0,0,0-0.01,0-0.01c0,0,0-0.01,0-0.01c0-0.22-0.18-0.39-0.39-0.39
	s-0.39,0.18-0.39,0.39C10.53,23.78,10.53,23.79,10.53,23.79L10.53,23.79z M22.12,10.87h0.85c0.08,0,0.14-0.06,0.14-0.14V8.45
	c0-0.08-0.06-0.14-0.14-0.14h-0.85c-0.08,0-0.14,0.06-0.14,0.14v2.28C21.98,10.81,22.04,10.87,22.12,10.87z M22.27,8.6h0.57v1.99
	h-0.57V8.6z M20.41,10.87h0.85c0.08,0,0.14-0.06,0.14-0.14V8.45c0-0.08-0.06-0.14-0.14-0.14h-0.85c-0.08,0-0.14,0.06-0.14,0.14v2.28
	C20.27,10.81,20.34,10.87,20.41,10.87z M20.56,8.6h0.57v1.99h-0.57V8.6z M22.12,15.72h0.85c0.08,0,0.14-0.06,0.14-0.14v-2.28
	c0-0.08-0.06-0.14-0.14-0.14h-0.85c-0.08,0-0.14,0.06-0.14,0.14v2.28C21.98,15.65,22.04,15.72,22.12,15.72z M22.27,13.44h0.57v1.99
	h-0.57V13.44z M20.41,15.72h0.85c0.08,0,0.14-0.06,0.14-0.14v-2.28c0-0.08-0.06-0.14-0.14-0.14h-0.85c-0.08,0-0.14,0.06-0.14,0.14
	v2.28C20.27,15.65,20.34,15.72,20.41,15.72z M20.56,13.44h0.57v1.99h-0.57V13.44z M22.12,20.27h0.85c0.08,0,0.14-0.12,0.14-0.2V17.8
	c0-0.08-0.06-0.09-0.14-0.09h-0.85c-0.08,0-0.14,0.01-0.14,0.09v2.28C21.98,20.15,22.04,20.27,22.12,20.27z M22.27,17.99h0.57v1.99
	h-0.57V17.99z M20.41,20.27h0.85c0.08,0,0.14-0.12,0.14-0.2V17.8c0-0.08-0.06-0.09-0.14-0.09h-0.85c-0.08,0-0.14,0.01-0.14,0.09
	v2.28C20.27,20.15,20.34,20.27,20.41,20.27z M20.56,17.99h0.57v1.99h-0.57V17.99z M22.12,25.11h0.85c0.08,0,0.14-0.12,0.14-0.2
	v-2.28c0-0.08-0.06-0.09-0.14-0.09h-0.85c-0.08,0-0.14,0.01-0.14,0.09v2.28C21.98,25,22.04,25.11,22.12,25.11z M22.27,22.83h0.57
	v1.99h-0.57V22.83z M20.41,25.11h0.85c0.08,0,0.14-0.12,0.14-0.2v-2.28c0-0.08-0.06-0.09-0.14-0.09h-0.85
	c-0.08,0-0.14,0.01-0.14,0.09v2.28C20.27,25,20.34,25.11,20.41,25.11z M20.56,22.83h0.57v1.99h-0.57V22.83z M6.56,6.25
	C6.44,6.43,6.35,6.64,6.31,6.86C6.29,6.97,6.37,7.08,6.49,7.1c0.01,0,0.02,0,0.04,0c0.1,0,0.19-0.07,0.21-0.18
	c0.03-0.16,0.09-0.31,0.18-0.44c0.07-0.1,0.04-0.23-0.05-0.3C6.76,6.13,6.63,6.15,6.56,6.25L6.56,6.25z M22.04,27.26h-0.57
	c-0.12,0-0.21,0.1-0.21,0.21s0.1,0.21,0.21,0.21h0.57c0.12,0,0.21-0.1,0.21-0.21S22.16,27.26,22.04,27.26z M20.62,27.26h-0.57
	c-0.12,0-0.21,0.1-0.21,0.21s0.1,0.21,0.21,0.21h0.57c0.12,0,0.21-0.1,0.21-0.21S20.74,27.26,20.62,27.26z M17.78,27.26h-0.57
	c-0.12,0-0.21,0.1-0.21,0.21s0.1,0.21,0.21,0.21h0.57c0.12,0,0.21-0.1,0.21-0.21S17.89,27.26,17.78,27.26z M19.2,27.26h-0.57
	c-0.12,0-0.21,0.1-0.21,0.21s0.1,0.21,0.21,0.21h0.57c0.12,0,0.21-0.1,0.21-0.21S19.32,27.26,19.2,27.26z M24.75,27.11
	c-0.14,0.08-0.29,0.13-0.45,0.14c-0.12,0.01-0.2,0.12-0.19,0.23c0.01,0.11,0.1,0.19,0.21,0.19c0.01,0,0.01,0,0.02,0
	c0.22-0.02,0.43-0.09,0.62-0.2c0.1-0.06,0.14-0.19,0.08-0.29C24.98,27.09,24.85,27.05,24.75,27.11L24.75,27.11z M23.46,27.26h-0.57
	c-0.12,0-0.21,0.1-0.21,0.21s0.1,0.21,0.21,0.21h0.57c0.12,0,0.21-0.1,0.21-0.21S23.58,27.26,23.46,27.26z M16.35,27.26h-0.57
	c-0.12,0-0.21,0.1-0.21,0.21s0.1,0.21,0.21,0.21h0.57c0.12,0,0.21-0.1,0.21-0.21S16.47,27.26,16.35,27.26z M12.09,27.26h-0.57
	c-0.12,0-0.21,0.1-0.21,0.21s0.1,0.21,0.21,0.21h0.57c0.12,0,0.21-0.1,0.21-0.21S12.21,27.26,12.09,27.26z M10.67,27.26H10.1
	c-0.12,0-0.21,0.1-0.21,0.21s0.1,0.21,0.21,0.21h0.57c0.12,0,0.21-0.1,0.21-0.21S10.78,27.26,10.67,27.26z M9.24,27.26H8.67
	c-0.12,0-0.21,0.1-0.21,0.21s0.1,0.21,0.21,0.21h0.57c0.12,0,0.21-0.1,0.21-0.21S9.36,27.26,9.24,27.26z M13.51,27.26h-0.57
	c-0.12,0-0.21,0.1-0.21,0.21s0.1,0.21,0.21,0.21h0.57c0.12,0,0.21-0.1,0.21-0.21S13.63,27.26,13.51,27.26z M14.93,27.26h-0.57
	c-0.12,0-0.21,0.1-0.21,0.21s0.1,0.21,0.21,0.21h0.57c0.12,0,0.21-0.1,0.21-0.21S15.05,27.26,14.93,27.26z M25.5,25.89
	c-0.12,0-0.21,0.1-0.21,0.21v0.06c0,0.14-0.03,0.28-0.08,0.42c-0.04,0.11,0.01,0.23,0.12,0.28c0.03,0.01,0.05,0.02,0.08,0.02
	c0.08,0,0.16-0.05,0.2-0.13c0.08-0.18,0.11-0.38,0.11-0.58v-0.06C25.72,25.99,25.62,25.89,25.5,25.89L25.5,25.89z M25.5,24.47
	c-0.12,0-0.21,0.1-0.21,0.21v0.57c0,0.12,0.1,0.21,0.21,0.21s0.21-0.1,0.21-0.21v-0.57C25.72,24.57,25.62,24.47,25.5,24.47z
	 M25.5,10.25c-0.12,0-0.21,0.1-0.21,0.21v0.57c0,0.12,0.1,0.21,0.21,0.21s0.21-0.1,0.21-0.21v-0.57
	C25.72,10.35,25.62,10.25,25.5,10.25z M25.5,11.67c-0.12,0-0.21,0.1-0.21,0.21v0.57c0,0.12,0.1,0.21,0.21,0.21s0.21-0.1,0.21-0.21
	v-0.57C25.72,11.77,25.62,11.67,25.5,11.67z M25.5,13.1c-0.12,0-0.21,0.1-0.21,0.21v0.57c0,0.12,0.1,0.21,0.21,0.21
	s0.21-0.1,0.21-0.21v-0.57C25.72,13.19,25.62,13.1,25.5,13.1z M7.81,27.26c-0.16,0-0.32-0.03-0.46-0.1c-0.11-0.05-0.23,0-0.28,0.1
	c-0.05,0.11,0,0.23,0.1,0.28c0.2,0.09,0.42,0.14,0.64,0.14h0.01c0.12,0,0.21-0.1,0.21-0.21S7.93,27.26,7.81,27.26L7.81,27.26z
	 M25.5,14.52c-0.12,0-0.21,0.1-0.21,0.21v0.57c0,0.12,0.1,0.21,0.21,0.21s0.21-0.1,0.21-0.21v-0.57
	C25.72,14.61,25.62,14.52,25.5,14.52z M25.5,8.83c-0.12,0-0.21,0.1-0.21,0.21v0.57c0,0.12,0.1,0.21,0.21,0.21s0.21-0.1,0.21-0.21
	V9.04C25.72,8.93,25.62,8.83,25.5,8.83z M25.5,7.41c-0.12,0-0.21,0.1-0.21,0.21v0.57c0,0.12,0.1,0.21,0.21,0.21s0.21-0.1,0.21-0.21
	V7.62C25.72,7.5,25.62,7.41,25.5,7.41z M25.5,20.21c-0.12,0-0.21,0.1-0.21,0.21v0.57c0,0.12,0.1,0.21,0.21,0.21s0.21-0.1,0.21-0.21
	v-0.57C25.72,20.3,25.62,20.21,25.5,20.21z M25.5,21.63c-0.12,0-0.21,0.1-0.21,0.21v0.57c0,0.12,0.1,0.21,0.21,0.21
	s0.21-0.1,0.21-0.21v-0.57C25.72,21.72,25.62,21.63,25.5,21.63z M25.5,15.94c-0.12,0-0.21,0.1-0.21,0.21v0.57
	c0,0.12,0.1,0.21,0.21,0.21s0.21-0.1,0.21-0.21v-0.57C25.72,16.04,25.62,15.94,25.5,15.94z M25.5,23.05c-0.12,0-0.21,0.1-0.21,0.21
	v0.57c0,0.12,0.1,0.21,0.21,0.21s0.21-0.1,0.21-0.21v-0.57C25.72,23.15,25.62,23.05,25.5,23.05z M25.5,18.78
	c-0.12,0-0.21,0.1-0.21,0.21v0.57c0,0.12,0.1,0.21,0.21,0.21s0.21-0.1,0.21-0.21V19C25.72,18.88,25.62,18.78,25.5,18.78z
	 M25.5,17.36c-0.12,0-0.21,0.1-0.21,0.21v0.57c0,0.12,0.1,0.21,0.21,0.21s0.21-0.1,0.21-0.21v-0.57
	C25.72,17.46,25.62,17.36,25.5,17.36z M14.25,4.74h0.57c0.12,0,0.21-0.1,0.21-0.21c0-0.12-0.1-0.21-0.21-0.21h-0.57
	c-0.12,0-0.21,0.1-0.21,0.21S14.13,4.74,14.25,4.74z M11.41,4.74h0.57c0.12,0,0.21-0.1,0.21-0.21c0-0.12-0.1-0.21-0.21-0.21h-0.57
	c-0.12,0-0.21,0.1-0.21,0.21S11.29,4.74,11.41,4.74z M15.67,4.74h0.57c0.12,0,0.21-0.1,0.21-0.21c0-0.12-0.1-0.21-0.21-0.21h-0.57
	c-0.12,0-0.21,0.1-0.21,0.21S15.55,4.74,15.67,4.74z M25.24,6.83c0.03,0.09,0.11,0.16,0.21,0.16c0.02,0,0.04,0,0.06-0.01
	c0.11-0.03,0.18-0.15,0.15-0.26c-0.06-0.21-0.16-0.41-0.3-0.58c-0.08-0.09-0.21-0.1-0.3-0.03c-0.09,0.08-0.1,0.21-0.03,0.3
	C25.13,6.53,25.2,6.68,25.24,6.83L25.24,6.83z M12.83,4.74h0.57c0.12,0,0.21-0.1,0.21-0.21c0-0.12-0.1-0.21-0.21-0.21h-0.57
	c-0.12,0-0.21,0.1-0.21,0.21S12.71,4.74,12.83,4.74z M10.02,4.97c0.03,0,0.06-0.01,0.08-0.02l0.29-0.12
	c0.07-0.03,0.14-0.05,0.21-0.07c0.12-0.02,0.19-0.14,0.17-0.25c-0.02-0.12-0.14-0.19-0.25-0.17c-0.09,0.02-0.19,0.05-0.28,0.09
	L9.94,4.55C9.83,4.6,9.78,4.73,9.83,4.83C9.86,4.92,9.94,4.97,10.02,4.97L10.02,4.97z M8.71,5.52c0.03,0,0.06-0.01,0.08-0.02
	l0.52-0.22C9.43,5.24,9.48,5.11,9.43,5C9.39,4.89,9.26,4.84,9.15,4.89L8.63,5.11C8.52,5.16,8.47,5.28,8.52,5.39
	C8.55,5.47,8.63,5.52,8.71,5.52z M7.41,6.08c0.03,0,0.06-0.01,0.08-0.02l0.52-0.22c0.11-0.05,0.16-0.17,0.11-0.28
	C8.08,5.45,7.95,5.4,7.84,5.45L7.32,5.67C7.21,5.72,7.16,5.84,7.21,5.95C7.24,6.03,7.32,6.08,7.41,6.08L7.41,6.08z M17.09,4.74h0.57
	c0.12,0,0.21-0.1,0.21-0.21c0-0.12-0.1-0.21-0.21-0.21h-0.57c-0.12,0-0.21,0.1-0.21,0.21S16.98,4.74,17.09,4.74z M22.6,5.12
	l0.51,0.25c0.03,0.01,0.06,0.02,0.09,0.02c0.08,0,0.16-0.04,0.19-0.12c0.05-0.11,0.01-0.23-0.1-0.29l-0.51-0.25
	c-0.11-0.05-0.23-0.01-0.29,0.1C22.45,4.94,22.5,5.07,22.6,5.12z M23.88,5.75L24.39,6c0.03,0.01,0.06,0.02,0.09,0.02
	c0.08,0,0.16-0.04,0.19-0.12c0.05-0.11,0.01-0.23-0.1-0.29l-0.51-0.25c-0.11-0.05-0.23-0.01-0.29,0.1
	C23.73,5.57,23.78,5.69,23.88,5.75z M6.71,26.22c-0.01-0.12-0.1-0.21-0.22-0.2c-0.12,0.01-0.21,0.11-0.2,0.22
	c0.01,0.22,0.07,0.44,0.17,0.63c0.04,0.07,0.11,0.11,0.19,0.11c0.03,0,0.07-0.01,0.1-0.03c0.1-0.05,0.14-0.18,0.09-0.29
	C6.76,26.53,6.72,26.38,6.71,26.22L6.71,26.22z M18.51,4.74h0.57c0.12,0,0.21-0.1,0.21-0.21c0-0.12-0.1-0.21-0.21-0.21h-0.57
	c-0.12,0-0.21,0.1-0.21,0.21S18.4,4.74,18.51,4.74z M19.94,4.74h0.57c0.12,0,0.21-0.1,0.21-0.21c0-0.12-0.1-0.21-0.21-0.21h-0.57
	c-0.12,0-0.21,0.1-0.21,0.21S19.82,4.74,19.94,4.74z M21.36,4.74h0.21c0.1,0,0.2,0.01,0.29,0.04c0.02,0.01,0.04,0.01,0.06,0.01
	c0.09,0,0.18-0.06,0.21-0.16c0.03-0.11-0.04-0.23-0.15-0.26c-0.13-0.04-0.27-0.06-0.41-0.06h-0.21c-0.12,0-0.21,0.1-0.21,0.21
	C21.15,4.64,21.24,4.74,21.36,4.74L21.36,4.74z M6.5,22.75c0.12,0,0.21-0.1,0.21-0.21v-0.57c0-0.12-0.1-0.21-0.21-0.21
	c-0.12,0-0.21,0.1-0.21,0.21v0.57C6.28,22.65,6.38,22.75,6.5,22.75z M6.5,21.33c0.12,0,0.21-0.1,0.21-0.21v-0.57
	c0-0.12-0.1-0.21-0.21-0.21c-0.12,0-0.21,0.1-0.21,0.21v0.57C6.28,21.23,6.38,21.33,6.5,21.33z M6.5,19.9c0.12,0,0.21-0.1,0.21-0.21
	v-0.57c0-0.12-0.1-0.21-0.21-0.21c-0.12,0-0.21,0.1-0.21,0.21v0.57C6.28,19.81,6.38,19.9,6.5,19.9z M6.5,24.17
	c0.12,0,0.21-0.1,0.21-0.21v-0.57c0-0.12-0.1-0.21-0.21-0.21c-0.12,0-0.21,0.1-0.21,0.21v0.57C6.28,24.07,6.38,24.17,6.5,24.17z
	 M6.5,25.59c0.12,0,0.21-0.1,0.21-0.21v-0.57c0-0.12-0.1-0.21-0.21-0.21c-0.12,0-0.21,0.1-0.21,0.21v0.57
	C6.28,25.5,6.38,25.59,6.5,25.59z M6.5,18.48c0.12,0,0.21-0.1,0.21-0.21V17.7c0-0.12-0.1-0.21-0.21-0.21c-0.12,0-0.21,0.1-0.21,0.21
	v0.57C6.28,18.39,6.38,18.48,6.5,18.48z M6.5,15.64c0.12,0,0.21-0.1,0.21-0.21v-0.57c0-0.12-0.1-0.21-0.21-0.21
	c-0.12,0-0.21,0.1-0.21,0.21v0.57C6.28,15.54,6.38,15.64,6.5,15.64z M6.5,12.79c0.12,0,0.21-0.1,0.21-0.21v-0.57
	c0-0.12-0.1-0.21-0.21-0.21c-0.12,0-0.21,0.1-0.21,0.21v0.57C6.28,12.7,6.38,12.79,6.5,12.79z M6.5,11.37c0.12,0,0.21-0.1,0.21-0.21
	v-0.57c0-0.12-0.1-0.21-0.21-0.21c-0.12,0-0.21,0.1-0.21,0.21v0.57C6.28,11.28,6.38,11.37,6.5,11.37z M6.5,9.95
	c0.12,0,0.21-0.1,0.21-0.21V9.17c0-0.12-0.1-0.21-0.21-0.21c-0.12,0-0.21,0.1-0.21,0.21v0.57C6.28,9.85,6.38,9.95,6.5,9.95z
	 M6.5,14.22c0.12,0,0.21-0.1,0.21-0.21v-0.57c0-0.12-0.1-0.21-0.21-0.21c-0.12,0-0.21,0.1-0.21,0.21V14
	C6.28,14.12,6.38,14.22,6.5,14.22z M6.5,8.53c0.12,0,0.21-0.1,0.21-0.21V7.75c0-0.12-0.1-0.21-0.21-0.21c-0.12,0-0.21,0.1-0.21,0.21
	v0.57C6.28,8.43,6.38,8.53,6.5,8.53z M6.5,17.06c0.12,0,0.21-0.1,0.21-0.21v-0.57c0-0.12-0.1-0.21-0.21-0.21
	c-0.12,0-0.21,0.1-0.21,0.21v0.57C6.28,16.96,6.38,17.06,6.5,17.06z"/>
</svg>
