<?xml version="1.0" encoding="utf-8"?>
<!-- Generator: Adobe Illustrator 21.1.0, SVG Export Plug-In . SVG Version: 6.00 Build 0)  -->
<!DOCTYPE svg PUBLIC "-//W3C//DTD SVG 1.1//EN" "http://www.w3.org/Graphics/SVG/1.1/DTD/svg11.dtd">
<svg version="1.1" id="Layer_1" xmlns="http://www.w3.org/2000/svg" xmlns:xlink="http://www.w3.org/1999/xlink" x="0px" y="0px"
	 viewBox="0 0 32 32" style="enable-background:new 0 0 32 32;" xml:space="preserve">
<path d="M27.38,8.3h-0.36V7.73c0-0.16-0.13-0.29-0.29-0.29h-9.36c-0.74,0-1.16,0.28-1.39,0.55c-0.23-0.27-0.65-0.55-1.39-0.55H5.22
	c-0.16,0-0.29,0.13-0.29,0.29V8.3H4.58c-0.49,0-0.88,0.5-0.88,1.12v13.49c0,0.62,0.5,1.12,1.12,1.12h9.51
	c0.21,0.16,0.78,0.52,1.66,0.52c0.87,0,1.44-0.36,1.65-0.52h9.55c0.62,0,1.12-0.5,1.12-1.12V9.42C28.31,8.8,27.89,8.3,27.38,8.3
	L27.38,8.3z M16.19,8.73c0-0.01,0.01-0.01,0.01-0.02c0.01-0.02,0.02-0.04,0.03-0.06c0-0.01,0.01-0.02,0.02-0.03
	c0.01-0.02,0.18-0.6,1.12-0.6h9.08v8.21c-0.09,0.2-0.23,0.39-0.42,0.57c-0.01,0.01-0.02,0.01-0.03,0.01l-0.16,0.13
	c-1.08,0.81-3.08,1-3.99,0.78c-0.06-0.02-0.13,0-0.18,0.04c-0.01,0.01-0.02,0.02-0.03,0.03h-3.07c-0.93,0-1.26,0.22-1.3,0.25
	c-0.06,0.04-0.07,0.12-0.03,0.18c0.02,0.04,0.07,0.06,0.11,0.06c0.03,0,0.05-0.01,0.07-0.02c0,0,0.31-0.2,1.15-0.2h3
	c0,0.08-0.01,0.18-0.02,0.31l-0.04,0.35c-0.02,0.14-0.05,0.3-0.08,0.47h-2.86c-0.93,0-1.26,0.22-1.3,0.25
	c-0.06,0.04-0.07,0.12-0.03,0.18c0.03,0.04,0.07,0.06,0.11,0.06c0.03,0,0.05-0.01,0.07-0.02c0,0,0.31-0.2,1.15-0.2h2.8
	c-0.06,0.27-0.14,0.56-0.25,0.84l-0.12,0.29h-2.44c-0.93,0-1.26,0.22-1.3,0.25c-0.06,0.04-0.07,0.12-0.03,0.18
	c0.02,0.04,0.07,0.06,0.11,0.06c0.03,0,0.05-0.01,0.07-0.02c0,0,0.31-0.2,1.15-0.2h2.32c-0.16,0.32-0.36,0.62-0.6,0.88l-0.14,0.12
	c-0.01,0.01-0.02,0.03-0.03,0.05c-0.25,0.21-0.54,0.38-0.87,0.47h-1.87c-0.56,0-0.93,0.16-1.17,0.35L16.19,8.73L16.19,8.73z
	 M26.11,17.28c0.01-0.01,0.02-0.01,0.03-0.02c0.12-0.09,0.21-0.18,0.31-0.28v5.38h-6.26c0.14-0.1,0.28-0.21,0.4-0.33L26.11,17.28
	L26.11,17.28z M21.42,20.75c0.37-0.84,0.54-1.79,0.58-2.56c0.69,0.1,1.72,0.05,2.66-0.22L21.42,20.75L21.42,20.75z M5.51,20.78V8.02
	h9.08c0.93,0,1.11,0.57,1.12,0.6c0,0.01,0.01,0.02,0.02,0.04c0.01,0.02,0.01,0.03,0.02,0.04c0.01,0.01,0.01,0.02,0.02,0.03V22.7
	c-0.24-0.18-0.62-0.35-1.17-0.35H5.51L5.51,20.78L5.51,20.78z M27.74,22.91c0,0.31-0.25,0.55-0.55,0.55h-9.64c0,0,0,0-0.01,0
	c-0.07,0-0.15,0.02-0.2,0.07c-0.02,0.02-0.5,0.45-1.36,0.45c-0.72,0-1.18-0.31-1.32-0.41c-0.05-0.07-0.13-0.11-0.22-0.11H4.82
	c-0.3,0-0.55-0.25-0.55-0.55V9.42c0-0.32,0.17-0.55,0.31-0.55h0.36v13.78c0,0.16,0.13,0.29,0.29,0.29h9.36
	c0.42,0,0.74,0.11,0.94,0.33c0.06,0.07,0.19,0.17,0.45,0.17c0.26,0,0.39-0.11,0.45-0.17c0.21-0.22,0.53-0.33,0.94-0.33h9.36
	c0.16,0,0.29-0.13,0.29-0.29V8.87h0.36c0.17,0,0.36,0.23,0.36,0.55L27.74,22.91L27.74,22.91z M17.35,15.49
	c0.03,0,0.05-0.01,0.07-0.02c0,0,0.31-0.2,1.15-0.2h6.55c0.07,0,0.13-0.06,0.13-0.13c0-0.07-0.06-0.13-0.13-0.13h-6.55
	c-0.93,0-1.26,0.22-1.3,0.25c-0.06,0.04-0.07,0.12-0.03,0.18C17.27,15.47,17.31,15.49,17.35,15.49L17.35,15.49z M17.35,16.88
	c0.03,0,0.05-0.01,0.07-0.02c0,0,0.31-0.2,1.15-0.2h6.55c0.07,0,0.13-0.06,0.13-0.13s-0.06-0.13-0.13-0.13h-6.55
	c-0.93,0-1.26,0.22-1.3,0.25c-0.06,0.04-0.07,0.12-0.03,0.18C17.27,16.86,17.31,16.88,17.35,16.88L17.35,16.88z M17.35,9.91
	c0.03,0,0.05-0.01,0.07-0.02c0,0,0.31-0.2,1.15-0.2h6.55c0.07,0,0.13-0.06,0.13-0.13s-0.06-0.13-0.13-0.13h-6.55
	c-0.93,0-1.26,0.22-1.3,0.25c-0.06,0.04-0.07,0.12-0.03,0.18C17.27,9.89,17.31,9.91,17.35,9.91L17.35,9.91z M14.57,20.83
	c-0.03-0.03-0.37-0.25-1.3-0.25H6.72c-0.07,0-0.13,0.06-0.13,0.13s0.06,0.13,0.13,0.13h6.55c0.83,0,1.14,0.19,1.15,0.2
	c0.02,0.02,0.05,0.02,0.07,0.02c0.04,0,0.08-0.02,0.11-0.06C14.64,20.95,14.63,20.87,14.57,20.83z M17.35,11.31
	c0.03,0,0.05-0.01,0.07-0.02c0,0,0.31-0.2,1.15-0.2h6.55c0.07,0,0.13-0.06,0.13-0.13s-0.06-0.13-0.13-0.13h-6.55
	c-0.93,0-1.26,0.22-1.3,0.25c-0.06,0.04-0.07,0.12-0.03,0.18C17.27,11.29,17.31,11.3,17.35,11.31L17.35,11.31z M17.35,12.7
	c0.03,0,0.05-0.01,0.07-0.02c0,0,0.31-0.2,1.15-0.2h6.55c0.07,0,0.13-0.06,0.13-0.13s-0.06-0.13-0.13-0.13h-6.55
	c-0.93,0-1.26,0.22-1.3,0.25c-0.06,0.04-0.07,0.12-0.03,0.18C17.27,12.68,17.31,12.7,17.35,12.7L17.35,12.7z M17.35,14.09
	c0.03,0,0.05-0.01,0.07-0.02c0,0,0.31-0.2,1.15-0.2h6.55c0.07,0,0.13-0.06,0.13-0.13c0-0.07-0.06-0.13-0.13-0.13h-6.55
	c-0.93,0-1.26,0.22-1.3,0.25c-0.06,0.04-0.07,0.12-0.03,0.18C17.27,14.07,17.31,14.09,17.35,14.09z M13.27,16.4H6.72
	c-0.07,0-0.13,0.06-0.13,0.13s0.06,0.13,0.13,0.13h6.55c0.83,0,1.14,0.19,1.14,0.2c0.02,0.02,0.05,0.02,0.08,0.02
	c0.04,0,0.08-0.02,0.11-0.06c0.04-0.06,0.03-0.14-0.03-0.18C14.53,16.62,14.2,16.4,13.27,16.4L13.27,16.4z M6.72,18.05h6.55
	c0.83,0,1.14,0.19,1.15,0.2c0.02,0.02,0.05,0.02,0.08,0.02c0.04,0,0.08-0.02,0.11-0.05c0.04-0.06,0.03-0.14-0.03-0.18
	c-0.03-0.03-0.37-0.25-1.3-0.25H6.72c-0.07,0-0.13,0.06-0.13,0.13S6.65,18.05,6.72,18.05L6.72,18.05z M6.72,9.69h6.55
	c0.83,0,1.13,0.2,1.14,0.21c0.02,0.02,0.05,0.03,0.08,0.03c0.04,0,0.08-0.02,0.11-0.05c0.04-0.06,0.03-0.14-0.03-0.19
	c-0.03-0.03-0.37-0.26-1.3-0.26H6.72c-0.07,0-0.13,0.06-0.13,0.13S6.65,9.69,6.72,9.69L6.72,9.69z M6.72,15.27h6.55
	c0.83,0,1.14,0.2,1.14,0.2c0.02,0.02,0.05,0.02,0.08,0.02c0.04,0,0.08-0.02,0.11-0.05c0.04-0.06,0.03-0.14-0.03-0.19
	C14.53,15.23,14.2,15,13.27,15H6.72c-0.07,0-0.13,0.06-0.13,0.13S6.65,15.27,6.72,15.27L6.72,15.27z M13.27,19.18H6.72
	c-0.07,0-0.13,0.06-0.13,0.13s0.06,0.13,0.13,0.13h6.55c0.83,0,1.14,0.19,1.15,0.2c0.02,0.02,0.05,0.02,0.07,0.02
	c0.04,0,0.08-0.02,0.11-0.06c0.04-0.06,0.03-0.14-0.03-0.18C14.53,19.41,14.2,19.18,13.27,19.18L13.27,19.18z M13.27,13.61H6.72
	c-0.07,0-0.13,0.06-0.13,0.13s0.06,0.13,0.13,0.13h6.55c0.83,0,1.14,0.2,1.14,0.2c0.02,0.02,0.05,0.02,0.08,0.02
	c0.04,0,0.08-0.02,0.11-0.05c0.04-0.06,0.03-0.14-0.03-0.19C14.54,13.83,14.2,13.61,13.27,13.61z M13.27,10.82H6.72
	c-0.07,0-0.13,0.06-0.13,0.13c0,0.07,0.06,0.13,0.13,0.13h6.55c0.83,0,1.13,0.2,1.14,0.2c0.02,0.02,0.05,0.02,0.08,0.02
	c0.04,0,0.08-0.02,0.11-0.05c0.04-0.06,0.03-0.14-0.03-0.19C14.54,11.05,14.2,10.82,13.27,10.82L13.27,10.82z M6.72,12.48h6.55
	c0.83,0,1.14,0.2,1.14,0.2c0.02,0.02,0.05,0.02,0.08,0.02c0.04,0,0.08-0.02,0.11-0.05c0.04-0.06,0.03-0.14-0.03-0.19
	c-0.03-0.03-0.37-0.26-1.3-0.26H6.72c-0.07,0-0.13,0.06-0.13,0.13S6.65,12.48,6.72,12.48L6.72,12.48z"/>
</svg>
