<?xml version="1.0" encoding="utf-8"?>
<!-- Generator: Adobe Illustrator 21.1.0, SVG Export Plug-In . SVG Version: 6.00 Build 0)  -->
<!DOCTYPE svg PUBLIC "-//W3C//DTD SVG 1.1//EN" "http://www.w3.org/Graphics/SVG/1.1/DTD/svg11.dtd">
<svg version="1.1" id="Layer_1" xmlns="http://www.w3.org/2000/svg" xmlns:xlink="http://www.w3.org/1999/xlink" x="0px" y="0px"
	 viewBox="0 0 32 32" style="enable-background:new 0 0 32 32;" xml:space="preserve">
<path d="M23.67,9.32l-3.64-3.75c-0.06-0.06-0.14-0.09-0.22-0.09H8.55c-0.17,0-0.31,0.14-0.31,0.31v20.43c0,0.17,0.14,0.31,0.31,0.31
	h14.9c0.17,0,0.31-0.14,0.31-0.31V9.53C23.75,9.45,23.72,9.38,23.67,9.32L23.67,9.32z M20.12,6.54l2.77,2.85h-2.77V6.54z
	 M23.14,25.91H8.86V6.09h10.65v3.48c0,0.02,0.01,0.04,0.01,0.07c0,0.02-0.01,0.04-0.01,0.07c0,0.17,0.14,0.31,0.31,0.31h3.33
	L23.14,25.91L23.14,25.91z M19.06,15.17c-0.01-0.03-0.04-0.05-0.07-0.06s-0.06,0-0.09,0.01l-1.58,0.93
	c-0.05,0.03-0.07,0.1-0.04,0.16l0.83,1.48h-0.89l0-0.35c0-0.06,0-0.11-0.07-0.16c-0.06-0.04-0.14-0.03-0.21,0.02
	c-0.01,0.01-0.02,0.02-0.03,0.03L16,18.53c-0.03,0.04-0.03,0.09,0,0.13l0.91,1.31c0.01,0.01,0.02,0.02,0.03,0.03
	c0.04,0.03,0.08,0.04,0.12,0.04c0.03,0,0.06-0.01,0.09-0.03c0.07-0.05,0.07-0.1,0.07-0.16l0-0.35h0.65c0.69,0,0.92-0.39,0.93-0.41
	l0.82-1.58c0,0,0,0,0,0s0,0,0,0c0.33-0.72,0.05-1.22,0.04-1.24L19.06,15.17L19.06,15.17z M18.59,18.99c0,0-0.18,0.29-0.72,0.29H17.1
	c-0.03,0-0.06,0.01-0.08,0.03c-0.02,0.02-0.03,0.05-0.03,0.08l0,0.29l-0.75-1.08l0.75-1.08l0,0.29c0,0.03,0.01,0.06,0.03,0.08
	c0.02,0.02,0.05,0.03,0.08,0.03h1.6c0.07,0,0.28-0.01,0.49-0.08L18.59,18.99L18.59,18.99z M19.41,17.41
	c-0.12,0.22-0.52,0.28-0.72,0.28h-0.32l-0.83-1.49l1.38-0.81l0.54,1C19.47,16.4,19.68,16.81,19.41,17.41z M15.39,17.48l-1.71,0
	l0.47-0.81l0.31,0.19c0.03,0.02,0.06,0.04,0.1,0.04c0.03,0,0.06-0.01,0.07-0.02c0.07-0.03,0.1-0.1,0.09-0.19
	c0-0.01-0.01-0.03-0.01-0.04l-0.67-1.45c-0.02-0.04-0.07-0.07-0.11-0.07l-1.59,0.12c-0.01,0-0.02,0-0.04,0.01
	c-0.08,0.03-0.12,0.1-0.12,0.17c0.01,0.09,0.05,0.11,0.1,0.14l0.3,0.17l-0.33,0.57c-0.09,0.15-0.15,0.31-0.18,0.46c0,0,0,0,0,0l0,0
	c0,0,0,0.01,0,0.01c0,0,0,0.01,0,0.01l0,0v0c-0.05,0.32,0.16,0.68,0.17,0.7l0.84,1.34c0.45,0.65,1.03,0.66,1.05,0.66l1.25,0.04
	c0,0,0,0,0,0c0.03,0,0.06-0.01,0.08-0.03c0.02-0.02,0.03-0.05,0.03-0.08v-1.83C15.51,17.53,15.45,17.48,15.39,17.48L15.39,17.48z
	 M12.31,16.8c0.02-0.12,0.07-0.25,0.15-0.38l0.39-0.67c0.02-0.03,0.02-0.06,0.01-0.09c-0.01-0.03-0.03-0.06-0.06-0.07l-0.24-0.14
	l1.31-0.1l0.55,1.19l-0.25-0.15c-0.03-0.02-0.06-0.02-0.09-0.01c-0.03,0.01-0.06,0.03-0.07,0.05l-0.6,1.03h0
	c-0.17,0-0.6-0.02-0.87-0.22C12.38,17.15,12.31,17,12.31,16.8L12.31,16.8z M15.28,19.3l-1.13-0.04c-0.02,0-0.49-0.02-0.86-0.56
	l-0.73-1.17c0.01,0,0.01,0,0.02,0.01c0.06,0.03,0.13,0.06,0.2,0.08c0.01,0,0.02,0.01,0.02,0.01c0.07,0.02,0.14,0.03,0.21,0.05
	c0.01,0,0.03,0,0.04,0.01c0.06,0.01,0.13,0.02,0.19,0.02c0.01,0,0.02,0,0.03,0c0.06,0,0.11,0.01,0.16,0.01c0.03,0,0.06,0,0.07,0
	l0.02,0l1.78,0L15.28,19.3L15.28,19.3z M13.41,14.31l1.56,0.97c0.02,0.01,0.04,0.02,0.06,0.02c0.04,0,0.07-0.02,0.1-0.05l0.92-1.41
	l0.4,0.78l-0.3,0.16c-0.05,0.02-0.1,0.05-0.11,0.14c-0.01,0.07,0.03,0.14,0.11,0.18c0.01,0.01,0.02,0.01,0.04,0.01l1.59,0.2
	c0,0,0.01,0,0.01,0c0.04,0,0.08-0.02,0.1-0.06l0.74-1.41c0.01-0.01,0.01-0.02,0.01-0.03c0.01-0.09-0.02-0.16-0.08-0.19
	c-0.01-0.01-0.04-0.02-0.08-0.02c-0.04,0-0.06,0.01-0.1,0.03l-0.33,0.17l-0.29-0.58c-0.32-0.61-0.77-0.63-0.79-0.63l-1.79,0
	c0,0,0,0,0,0c-0.79,0.04-1.11,0.52-1.12,0.54l-0.7,1.04c-0.02,0.03-0.02,0.06-0.02,0.09S13.38,14.29,13.41,14.31L13.41,14.31z
	 M16.97,12.8c0.01,0,0.34,0.02,0.59,0.51l0.34,0.68c0.01,0.03,0.04,0.05,0.07,0.06c0.03,0.01,0.06,0.01,0.09-0.01l0.28-0.14
	l-0.62,1.17l-1.31-0.17l0.25-0.13c0.06-0.03,0.08-0.1,0.05-0.15l-0.53-1.04c0-0.02-0.01-0.03-0.02-0.04l-0.16-0.32
	c-0.01-0.02-0.12-0.23-0.3-0.41L16.97,12.8L16.97,12.8z M14.26,13.23c0.01-0.02,0.27-0.4,0.94-0.44c0.27,0,0.51,0.37,0.58,0.51
	l0.15,0.28l-0.94,1.43l-1.36-0.84L14.26,13.23L14.26,13.23z"/>
</svg>
