<?xml version="1.0" encoding="utf-8"?>
<!-- Generator: Adobe Illustrator 21.1.0, SVG Export Plug-In . SVG Version: 6.00 Build 0)  -->
<!DOCTYPE svg PUBLIC "-//W3C//DTD SVG 1.1//EN" "http://www.w3.org/Graphics/SVG/1.1/DTD/svg11.dtd">
<svg version="1.1" id="Layer_1" xmlns="http://www.w3.org/2000/svg" xmlns:xlink="http://www.w3.org/1999/xlink" x="0px" y="0px"
	 viewBox="0 0 32 32" style="enable-background:new 0 0 32 32;" xml:space="preserve">
<path d="M29.05,10.96l-1.52-0.89c-0.03-0.02-0.08-0.03-0.12-0.02c-0.04,0.01-0.07,0.04-0.09,0.07l-0.3,0.52l-1.11,1.91
	c-0.36-0.44-0.35-0.44-0.8-0.99c-1.31-1.53-3.24-2.48-5.34-2.48c-3.09,0-5.81,2.02-6.71,4.94c-0.5-0.18-1.03-0.27-1.57-0.27
	c-2.19,0-4.07,1.51-4.56,3.61c-1.95,0.07-3.6,1.43-4.04,3.35c-0.02,0.09,0,0.18,0.06,0.25c0.06,0.07,0.14,0.11,0.23,0.11h18.82l0,0
	c0.03,0.01,0.08,0.01,0.12,0.01c0.01,0,0.01-0.01,0.02-0.01c0.01,0,0.01,0.01,0.02,0.01c0.03,0,0.07,0,0.1-0.02l1.64-0.97
	c0,0,0,0,0-0.01c0.02-0.01,0.04-0.03,0.05-0.05l0,0c0,0,0,0,0,0l5.17-8.87C29.14,11.09,29.12,11,29.05,10.96L29.05,10.96z M22.15,19
	c-0.01,0.02-0.02,0.04-0.02,0.06c0,0,0,0,0,0l-0.09,1.43H3.55c0.5-1.51,1.91-2.54,3.55-2.54h0l0.04,0c0.15,0.01,0.27-0.1,0.29-0.24
	c0.36-1.95,2.05-3.37,4.04-3.37c0.53,0,1.05,0.11,1.54,0.31c0.3,0.15,0.95,0.52,1.35,1.2c0.05,0.08,0.14,0.12,0.23,0.1
	c0.03-0.01,0.05-0.01,0.07-0.03c0.1-0.06,0.14-0.2,0.08-0.3c-0.35-0.58-0.84-0.96-1.21-1.19c0.76-2.81,3.31-4.76,6.22-4.76
	c2.04,0,3.9,0.95,5.09,2.48c0.43,0.5,0.7,0.99,0.7,0.99L22.15,19L22.15,19z M23.03,20.24l-0.67-0.02l0.06-0.89l1.08,0.63
	L23.03,20.24L23.03,20.24z M23.75,19.75l-1.26-0.73l5.01-8.61l1.26,0.73C28.76,11.15,23.75,19.75,23.75,19.75z"/>
</svg>
