<?xml version="1.0" encoding="utf-8"?>
<!-- Generator: Adobe Illustrator 21.1.0, SVG Export Plug-In . SVG Version: 6.00 Build 0)  -->
<!DOCTYPE svg PUBLIC "-//W3C//DTD SVG 1.1//EN" "http://www.w3.org/Graphics/SVG/1.1/DTD/svg11.dtd">
<svg version="1.1" id="Layer_1" xmlns="http://www.w3.org/2000/svg" xmlns:xlink="http://www.w3.org/1999/xlink" x="0px" y="0px"
	 viewBox="0 0 31.68 31.68" style="enable-background:new 0 0 31.68 31.68;" xml:space="preserve">
<g>
	<g>
		<g>
			<path d="M23.81,25.09h-0.55c-0.15,0-0.28-0.12-0.28-0.28c0-0.15,0.12-0.28,0.28-0.28h0.55c0.15,0,0.28,0.12,0.28,0.28
				C24.08,24.97,23.96,25.09,23.81,25.09z M22.15,25.09H21.6c-0.15,0-0.28-0.12-0.28-0.28c0-0.15,0.12-0.28,0.28-0.28h0.55
				c0.15,0,0.28,0.12,0.28,0.28C22.43,24.97,22.3,25.09,22.15,25.09z M20.49,25.09h-0.55c-0.15,0-0.28-0.12-0.28-0.28
				c0-0.15,0.12-0.28,0.28-0.28h0.55c0.15,0,0.28,0.12,0.28,0.28C20.77,24.97,20.65,25.09,20.49,25.09z M18.84,25.09h-0.55
				c-0.15,0-0.28-0.12-0.28-0.28c0-0.15,0.12-0.28,0.28-0.28h0.55c0.15,0,0.28,0.12,0.28,0.28C19.11,24.97,18.99,25.09,18.84,25.09z
				 M17.18,25.09h-0.55c-0.15,0-0.28-0.12-0.28-0.28c0-0.15,0.12-0.28,0.28-0.28h0.55c0.15,0,0.28,0.12,0.28,0.28
				C17.46,24.97,17.33,25.09,17.18,25.09z M15.52,25.09h-0.55c-0.15,0-0.28-0.12-0.28-0.28c0-0.15,0.12-0.28,0.28-0.28h0.55
				c0.15,0,0.28,0.12,0.28,0.28C15.8,24.97,15.68,25.09,15.52,25.09z M13.87,25.09h-0.55c-0.15,0-0.28-0.12-0.28-0.28
				c0-0.15,0.12-0.28,0.28-0.28h0.55c0.15,0,0.28,0.12,0.28,0.28C14.14,24.97,14.02,25.09,13.87,25.09z M12.21,25.09h-0.55
				c-0.15,0-0.28-0.12-0.28-0.28c0-0.15,0.12-0.28,0.28-0.28h0.55c0.15,0,0.28,0.12,0.28,0.28C12.48,24.97,12.36,25.09,12.21,25.09z
				 M10.55,25.09H10c-0.15,0-0.28-0.12-0.28-0.28c0-0.15,0.12-0.28,0.28-0.28h0.55c0.15,0,0.28,0.12,0.28,0.28
				C10.83,24.97,10.7,25.09,10.55,25.09z M8.89,25.09H8.34c-0.15,0-0.28-0.12-0.28-0.28c0-0.15,0.12-0.28,0.28-0.28h0.55
				c0.15,0,0.28,0.12,0.28,0.28C9.17,24.97,9.05,25.09,8.89,25.09z M7.24,25.07c-0.02,0-0.05,0-0.07-0.01
				c-0.26-0.07-0.48-0.27-0.58-0.52c-0.06-0.14,0.01-0.3,0.15-0.36c0.14-0.06,0.3,0.01,0.36,0.15c0.04,0.09,0.12,0.17,0.22,0.19
				c0.15,0.04,0.23,0.19,0.19,0.34C7.47,24.99,7.36,25.07,7.24,25.07z M24.8,24.79c-0.05,0-0.09-0.01-0.14-0.04
				c-0.13-0.08-0.18-0.25-0.1-0.38c0.03-0.05,0.04-0.11,0.04-0.17v-0.23c0-0.15,0.12-0.28,0.28-0.28s0.28,0.12,0.28,0.28v0.23
				c0,0.15-0.04,0.31-0.12,0.44C24.99,24.74,24.9,24.79,24.8,24.79z M6.8,23.62c-0.15,0-0.28-0.12-0.28-0.28v-0.55
				c0-0.15,0.12-0.28,0.28-0.28c0.15,0,0.28,0.12,0.28,0.28v0.55C7.07,23.49,6.95,23.62,6.8,23.62z M24.88,23.15
				c-0.15,0-0.28-0.12-0.28-0.28v-0.55c0-0.15,0.12-0.28,0.28-0.28s0.28,0.12,0.28,0.28v0.55C25.16,23.02,25.04,23.15,24.88,23.15z
				 M6.8,21.96c-0.15,0-0.28-0.12-0.28-0.28v-0.55c0-0.15,0.12-0.28,0.28-0.28c0.15,0,0.28,0.12,0.28,0.28v0.55
				C7.07,21.83,6.95,21.96,6.8,21.96z M24.88,21.49c-0.15,0-0.28-0.12-0.28-0.28v-0.55c0-0.15,0.12-0.28,0.28-0.28
				s0.28,0.12,0.28,0.28v0.55C25.16,21.36,25.04,21.49,24.88,21.49z M6.8,20.3c-0.15,0-0.28-0.12-0.28-0.28v-0.55
				c0-0.15,0.12-0.28,0.28-0.28c0.15,0,0.28,0.12,0.28,0.28v0.55C7.07,20.18,6.95,20.3,6.8,20.3z M24.88,19.83
				c-0.15,0-0.28-0.12-0.28-0.28V19c0-0.15,0.12-0.28,0.28-0.28s0.28,0.12,0.28,0.28v0.55C25.16,19.71,25.04,19.83,24.88,19.83z
				 M6.8,18.64c-0.15,0-0.28-0.12-0.28-0.28v-0.55c0-0.15,0.12-0.28,0.28-0.28c0.15,0,0.28,0.12,0.28,0.28v0.55
				C7.07,18.52,6.95,18.64,6.8,18.64z M24.88,18.17c-0.15,0-0.28-0.12-0.28-0.28v-0.55c0-0.15,0.12-0.28,0.28-0.28
				s0.28,0.12,0.28,0.28v0.55C25.16,18.05,25.04,18.17,24.88,18.17z M6.8,16.99c-0.15,0-0.28-0.12-0.28-0.28v-0.55
				c0-0.15,0.12-0.28,0.28-0.28c0.15,0,0.28,0.12,0.28,0.28v0.55C7.07,16.86,6.95,16.99,6.8,16.99z M24.88,16.52
				c-0.15,0-0.28-0.12-0.28-0.28v-0.55c0-0.15,0.12-0.28,0.28-0.28s0.28,0.12,0.28,0.28v0.55C25.16,16.39,25.04,16.52,24.88,16.52z
				 M6.8,15.33c-0.15,0-0.28-0.12-0.28-0.28V14.5c0-0.15,0.12-0.28,0.28-0.28c0.15,0,0.28,0.12,0.28,0.28v0.55
				C7.07,15.21,6.95,15.33,6.8,15.33z M24.88,14.86c-0.15,0-0.28-0.12-0.28-0.28v-0.55c0-0.15,0.12-0.28,0.28-0.28
				s0.28,0.12,0.28,0.28v0.55C25.16,14.74,25.04,14.86,24.88,14.86z M6.8,13.67c-0.15,0-0.28-0.12-0.28-0.28v-0.55
				c0-0.15,0.12-0.28,0.28-0.28c0.15,0,0.28,0.12,0.28,0.28v0.55C7.07,13.55,6.95,13.67,6.8,13.67z M24.88,13.2
				c-0.15,0-0.28-0.12-0.28-0.28v-0.55c0-0.15,0.12-0.28,0.28-0.28s0.28,0.12,0.28,0.28v0.55C25.16,13.08,25.04,13.2,24.88,13.2z
				 M6.8,12.02c-0.15,0-0.28-0.12-0.28-0.28v-0.55c0-0.15,0.12-0.28,0.28-0.28c0.15,0,0.28,0.12,0.28,0.28v0.55
				C7.07,11.89,6.95,12.02,6.8,12.02z M24.88,11.55c-0.15,0-0.28-0.12-0.28-0.28v-0.55c0-0.15,0.12-0.28,0.28-0.28
				s0.28,0.12,0.28,0.28v0.55C25.16,11.42,25.04,11.55,24.88,11.55z M6.8,10.36c-0.15,0-0.28-0.12-0.28-0.28V9.53
				c0-0.15,0.12-0.28,0.28-0.28c0.15,0,0.28,0.12,0.28,0.28v0.55C7.07,10.23,6.95,10.36,6.8,10.36z M24.88,9.89
				c-0.15,0-0.28-0.12-0.28-0.28V9.06c0-0.15,0.12-0.28,0.28-0.28s0.28,0.12,0.28,0.28v0.55C25.16,9.76,25.04,9.89,24.88,9.89z
				 M6.8,8.7c-0.15,0-0.28-0.12-0.28-0.28V7.87c0-0.15,0.12-0.28,0.28-0.28c0.15,0,0.28,0.12,0.28,0.28v0.55
				C7.07,8.58,6.95,8.7,6.8,8.7z M24.88,8.23c-0.15,0-0.28-0.12-0.28-0.28V7.47c0-0.01,0-0.03,0-0.04c-0.02-0.15,0.09-0.29,0.24-0.3
				c0.15-0.02,0.29,0.09,0.3,0.24c0,0.03,0.01,0.07,0.01,0.1v0.48C25.16,8.11,25.04,8.23,24.88,8.23z M7.16,7.19
				c-0.11,0-0.21-0.06-0.25-0.16c-0.06-0.14,0-0.3,0.14-0.36C7.16,6.61,7.28,6.59,7.4,6.59h0.3c0.15,0,0.28,0.12,0.28,0.28
				c0,0.15-0.12,0.28-0.28,0.28H7.4c-0.05,0-0.09,0.01-0.13,0.03C7.24,7.18,7.2,7.19,7.16,7.19z M24.28,7.14h-0.55
				c-0.15,0-0.28-0.12-0.28-0.28c0-0.15,0.12-0.28,0.28-0.28h0.55c0.15,0,0.28,0.12,0.28,0.28C24.55,7.02,24.43,7.14,24.28,7.14z
				 M22.62,7.14h-0.55c-0.15,0-0.28-0.12-0.28-0.28c0-0.15,0.12-0.28,0.28-0.28h0.55c0.15,0,0.28,0.12,0.28,0.28
				C22.9,7.02,22.77,7.14,22.62,7.14z M20.96,7.14h-0.55c-0.15,0-0.28-0.12-0.28-0.28c0-0.15,0.12-0.28,0.28-0.28h0.55
				c0.15,0,0.28,0.12,0.28,0.28C21.24,7.02,21.11,7.14,20.96,7.14z M19.3,7.14h-0.55c-0.15,0-0.28-0.12-0.28-0.28
				c0-0.15,0.12-0.28,0.28-0.28h0.55c0.15,0,0.28,0.12,0.28,0.28C19.58,7.02,19.46,7.14,19.3,7.14z M17.65,7.14H17.1
				c-0.15,0-0.28-0.12-0.28-0.28c0-0.15,0.12-0.28,0.28-0.28h0.55c0.15,0,0.28,0.12,0.28,0.28C17.92,7.02,17.8,7.14,17.65,7.14z
				 M15.99,7.14h-0.55c-0.15,0-0.28-0.12-0.28-0.28c0-0.15,0.12-0.28,0.28-0.28h0.55c0.15,0,0.28,0.12,0.28,0.28
				C16.27,7.02,16.14,7.14,15.99,7.14z M14.33,7.14h-0.55c-0.15,0-0.28-0.12-0.28-0.28c0-0.15,0.12-0.28,0.28-0.28h0.55
				c0.15,0,0.28,0.12,0.28,0.28C14.61,7.02,14.49,7.14,14.33,7.14z M12.68,7.14h-0.55c-0.15,0-0.28-0.12-0.28-0.28
				c0-0.15,0.12-0.28,0.28-0.28h0.55c0.15,0,0.28,0.12,0.28,0.28C12.95,7.02,12.83,7.14,12.68,7.14z M11.02,7.14h-0.55
				c-0.15,0-0.28-0.12-0.28-0.28c0-0.15,0.12-0.28,0.28-0.28h0.55c0.15,0,0.28,0.12,0.28,0.28C11.3,7.02,11.17,7.14,11.02,7.14z
				 M9.36,7.14H8.81c-0.15,0-0.28-0.12-0.28-0.28c0-0.15,0.12-0.28,0.28-0.28h0.55c0.15,0,0.28,0.12,0.28,0.28
				C9.64,7.02,9.51,7.14,9.36,7.14z"/>
			<g>
				<g>
					<path d="M22.98,23.71H8.7c-0.44,0-0.79-0.35-0.79-0.79V8.76c0-0.44,0.35-0.79,0.79-0.79h14.28c0.44,0,0.79,0.35,0.79,0.79
						v14.16C23.77,23.36,23.41,23.71,22.98,23.71z M8.7,8.52c-0.13,0-0.24,0.11-0.24,0.24v14.16c0,0.13,0.11,0.24,0.24,0.24h14.28
						c0.13,0,0.24-0.11,0.24-0.24V8.76c0-0.13-0.11-0.24-0.24-0.24H8.7z"/>
				</g>
				<path d="M15.43,16.26l0-0.19l0.83,0l0,0.19L15.43,16.26z M15.43,15.52l0-0.55l0.83,0l0,0.55L15.43,15.52z M15.43,14.41l0-0.55
					l0.83,0l0,0.55L15.43,14.41z M15.43,13.31l0-0.55l0.83,0l0,0.55L15.43,13.31z M15.43,12.21l0-0.55l0.83,0l0,0.55L15.43,12.21z
					 M15.42,11.1l0-0.55l0.83,0l0,0.55L15.42,11.1z M15.42,10l0-0.55l0.83,0l0,0.55L15.42,10z M15.42,8.89l0-0.55l0.83,0l0,0.55
					L15.42,8.89z"/>
				<path d="M15.07,16.03v3.09h1.54v-3.09H15.07z M15.84,18.76c-0.21,0-0.39-0.17-0.39-0.39c0-0.21,0.17-0.39,0.39-0.39
					c0.21,0,0.39,0.17,0.39,0.39C16.23,18.59,16.05,18.76,15.84,18.76z"/>
			</g>
		</g>
	</g>
</g>
</svg>
