<?xml version="1.0" encoding="utf-8"?>
<!-- Generator: Adobe Illustrator 21.1.0, SVG Export Plug-In . SVG Version: 6.00 Build 0)  -->
<!DOCTYPE svg PUBLIC "-//W3C//DTD SVG 1.1//EN" "http://www.w3.org/Graphics/SVG/1.1/DTD/svg11.dtd">
<svg version="1.1" id="Layer_1" xmlns="http://www.w3.org/2000/svg" xmlns:xlink="http://www.w3.org/1999/xlink" x="0px" y="0px"
	 viewBox="0 0 32 32" style="enable-background:new 0 0 32 32;" xml:space="preserve">
<path d="M27.3,7.12c-0.47-0.62-1.69-0.61-3.51,0.03c-2.39,0.84-2.61,1.62-2.81,2.32c-0.03,0.11-0.06,0.21-0.1,0.31l-0.64-0.7
	c-0.22-0.24-0.65-0.42-0.98-0.4l-3.91,0.23c-0.31,0.02-0.72,0.19-0.96,0.4L4.02,18.82c-0.3,0.28-0.32,0.75-0.05,1.06l7.06,7.7
	c0.12,0.14,0.3,0.22,0.48,0.24c0.21,0.02,0.42-0.05,0.58-0.19l10.37-9.51c0.23-0.21,0.44-0.61,0.48-0.93l0.48-3.99
	c0.04-0.33-0.1-0.76-0.33-1.01l-0.14-0.15c1.36-0.4,2.84-1.1,3.69-2.31C27.48,8.54,27.7,7.66,27.3,7.12L27.3,7.12z M22.32,17.12
	c-0.02,0.17-0.16,0.43-0.28,0.55l-10.37,9.51c-0.04,0.03-0.08,0.04-0.1,0.03c-0.02,0-0.06-0.01-0.09-0.04l-7.06-7.7
	c-0.05-0.05-0.05-0.14,0.01-0.19L14.8,9.77c0.13-0.12,0.41-0.23,0.58-0.24l3.91-0.23c0.02,0,0.04,0,0.06,0
	c0.15,0.01,0.35,0.1,0.44,0.2l2.13,2.32c-0.39,0.09-0.75,0.15-1.05,0.19c-0.15-0.42-0.57-0.72-1.05-0.67
	c-0.55,0.06-0.96,0.55-0.9,1.11c0.05,0.48,0.43,0.86,0.91,0.9c0.07,0.01,0.13,0.01,0.2,0c0.27-0.03,0.51-0.16,0.68-0.37
	c0.12-0.15,0.19-0.32,0.22-0.51c0.39-0.05,0.86-0.14,1.37-0.26l0.36,0.39c0.1,0.11,0.18,0.37,0.17,0.52L22.32,17.12L22.32,17.12z
	 M19.89,12.57c0.01,0,0.02,0,0.03,0c0.04,0,0.22-0.01,0.5-0.04c-0.02,0.06-0.05,0.11-0.09,0.16c-0.09,0.11-0.22,0.19-0.37,0.2
	c-0.31,0.03-0.57-0.2-0.6-0.49c-0.03-0.3,0.19-0.57,0.49-0.6c0.04,0,0.07,0,0.11,0c0.18,0.02,0.33,0.12,0.42,0.27
	c-0.3,0.03-0.48,0.04-0.49,0.04c-0.13,0.01-0.22,0.11-0.22,0.24C19.69,12.47,19.78,12.56,19.89,12.57L19.89,12.57z M26.26,9.47
	c-0.82,1.16-2.33,1.82-3.67,2.19l-1.38-1.5c0.09-0.19,0.15-0.38,0.2-0.56c0.17-0.61,0.36-1.25,2.52-2.01
	c1.55-0.55,2.67-0.61,2.99-0.18C27.19,7.74,26.95,8.5,26.26,9.47L26.26,9.47z"/>
</svg>
