<?xml version="1.0" encoding="utf-8"?>
<!-- Generator: Adobe Illustrator 21.1.0, SVG Export Plug-In . SVG Version: 6.00 Build 0)  -->
<!DOCTYPE svg PUBLIC "-//W3C//DTD SVG 1.1//EN" "http://www.w3.org/Graphics/SVG/1.1/DTD/svg11.dtd">
<svg version="1.1" id="Layer_1" xmlns="http://www.w3.org/2000/svg" xmlns:xlink="http://www.w3.org/1999/xlink" x="0px" y="0px"
	 viewBox="0 0 31.68 31.68" style="enable-background:new 0 0 31.68 31.68;" xml:space="preserve">
<g>
	<g>
		<g>
			<path d="M16.17,7.13h-1.92c-0.12,0-0.21,0.1-0.21,0.21c0,0.12,0.1,0.21,0.21,0.21h1.92c0.12,0,0.21-0.1,0.21-0.21
				C16.38,7.23,16.29,7.13,16.17,7.13z"/>
			<path d="M13.09,7.14c-0.05,0.05-0.09,0.12-0.09,0.2c0,0.08,0.03,0.15,0.09,0.2c0.05,0.05,0.12,0.08,0.2,0.08
				c0.08,0,0.15-0.03,0.2-0.08c0.05-0.05,0.08-0.12,0.08-0.2c0-0.07-0.03-0.15-0.08-0.2C13.39,7.04,13.2,7.04,13.09,7.14z"/>
			<path d="M14.66,25.31h1.1c0.41,0,0.75-0.33,0.75-0.75v-0.54c0-0.41-0.33-0.75-0.75-0.75h-1.1c-0.41,0-0.75,0.33-0.75,0.75v0.54
				C13.91,24.98,14.25,25.31,14.66,25.31z M14.34,24.03c0-0.18,0.14-0.32,0.32-0.32h1.1c0.18,0,0.32,0.14,0.32,0.32v0.54
				c0,0.18-0.14,0.32-0.32,0.32h-1.1c-0.18,0-0.32-0.14-0.32-0.32V24.03z"/>
			<path d="M22.87,9.73H21.2V6.41c0-0.61-0.49-1.1-1.1-1.1h-9.78c-0.61,0-1.1,0.49-1.1,1.1v3.96H8.53c-0.47,0-0.85,0.38-0.85,0.85
				v4.4c0,0.47,0.38,0.85,0.85,0.85h0.69v8.8c0,0.61,0.49,1.1,1.1,1.1h9.78c0.61,0,1.1-0.49,1.1-1.1V18h1.67
				c0.63,0,1.13-0.51,1.13-1.13v-6C24.01,10.24,23.5,9.73,22.87,9.73z M9.79,6.41c0-0.29,0.24-0.53,0.53-0.53h9.78
				c0.29,0,0.53,0.24,0.53,0.53v2.41H9.79V6.41z M8.53,15.9c-0.16,0-0.28-0.13-0.28-0.28v-4.4c0-0.16,0.13-0.28,0.28-0.28h4.4
				c0.16,0,0.28,0.13,0.28,0.28v4.4c0,0.16-0.13,0.28-0.28,0.28H8.53z M20.64,25.27c0,0.29-0.24,0.53-0.53,0.53h-9.78
				c-0.29,0-0.53-0.24-0.53-0.53v-2.41h10.85V25.27z M20.64,22.58H9.79v-6.11h3.14c0.47,0,0.85-0.38,0.85-0.85v-4.4
				c0-0.47-0.38-0.85-0.85-0.85H9.79V9.1h10.85v0.63h-3.77c-0.63,0-1.13,0.51-1.13,1.13v6c0,0.63,0.51,1.13,1.13,1.13h3.77V22.58z
				 M16.87,17.44c-0.31,0-0.57-0.25-0.57-0.57v-6c0-0.31,0.25-0.57,0.57-0.57h6c0.31,0,0.57,0.25,0.57,0.57v6
				c0,0.31-0.25,0.57-0.57,0.57H16.87z"/>
			<path d="M14.34,17.32h-2.88c-0.47,0-0.85,0.38-0.85,0.85v2.88c0,0.47,0.38,0.85,0.85,0.85h2.88c0.47,0,0.85-0.38,0.85-0.85v-2.88
				C15.19,17.7,14.81,17.32,14.34,17.32z M14.62,21.05c0,0.16-0.13,0.28-0.28,0.28h-2.88c-0.16,0-0.28-0.13-0.28-0.28v-2.88
				c0-0.16,0.13-0.28,0.28-0.28h2.88c0.16,0,0.28,0.13,0.28,0.28V21.05z"/>
		</g>
	</g>
</g>
</svg>
