<?xml version="1.0" encoding="utf-8"?>
<!-- Generator: Adobe Illustrator 21.1.0, SVG Export Plug-In . SVG Version: 6.00 Build 0)  -->
<!DOCTYPE svg PUBLIC "-//W3C//DTD SVG 1.1//EN" "http://www.w3.org/Graphics/SVG/1.1/DTD/svg11.dtd">
<svg version="1.1" id="Layer_1" xmlns="http://www.w3.org/2000/svg" xmlns:xlink="http://www.w3.org/1999/xlink" x="0px" y="0px"
	 viewBox="0 0 32 32" style="enable-background:new 0 0 32 32;" xml:space="preserve">
<style type="text/css">
	.st0{fill:#010101;}
</style>
<g>
	<path class="st0" d="M9.58,14.67c-0.01,0-0.01,0-0.02,0c-1.26-0.18-2.33-0.41-3.18-0.68c-0.08-0.02-0.12-0.11-0.1-0.19
		c0.03-0.08,0.11-0.12,0.19-0.1c0.83,0.26,1.88,0.49,3.13,0.67c0.08,0.01,0.14,0.09,0.13,0.17C9.72,14.62,9.65,14.67,9.58,14.67z"/>
	<path class="st0" d="M16,15.24c-1.28,0-2.54-0.04-3.74-0.13c-0.16-0.01-0.29-0.15-0.27-0.32s0.16-0.28,0.32-0.27
		c1.19,0.09,2.43,0.13,3.7,0.13c3.91,0,7.49-0.42,9.6-1.11c0.16-0.05,0.32,0.03,0.37,0.19c0.05,0.15-0.03,0.32-0.19,0.37
		C23.62,14.81,19.97,15.24,16,15.24z"/>
	<path class="st0" d="M16,22.26c-5.87,0-11.82-0.94-11.82-2.75v-7.02c0-1.8,5.94-2.75,11.82-2.75s11.82,0.94,11.82,2.75v7.02
		C27.82,21.32,21.87,22.26,16,22.26z M16,10.33c-6.95,0-11.22,1.26-11.22,2.16v7.02c0,0.9,4.27,2.16,11.22,2.16
		s11.22-1.25,11.22-2.16v-7.02C27.22,11.59,22.95,10.33,16,10.33z"/>
</g>
</svg>
