<?xml version="1.0" encoding="utf-8"?>
<!-- Generator: Adobe Illustrator 21.1.0, SVG Export Plug-In . SVG Version: 6.00 Build 0)  -->
<!DOCTYPE svg PUBLIC "-//W3C//DTD SVG 1.1//EN" "http://www.w3.org/Graphics/SVG/1.1/DTD/svg11.dtd">
<svg version="1.1" id="Layer_1" xmlns="http://www.w3.org/2000/svg" xmlns:xlink="http://www.w3.org/1999/xlink" x="0px" y="0px"
	 viewBox="0 0 31.68 31.68" style="enable-background:new 0 0 31.68 31.68;" xml:space="preserve">
<g>
	<g>
		<path d="M15.78,27.01c-0.34,0-0.83-0.04-1.06-0.05c-0.05,0-0.08-0.01-0.1-0.01c-0.21-0.01-0.45-0.23-0.53-0.43
			c-0.02-0.04-0.07-0.16-0.25-2.49c-0.74-0.18-1.45-0.46-2.12-0.84c-0.57,0.49-1.68,1.44-1.89,1.57c-0.09,0.06-0.2,0.09-0.31,0.09
			c-0.25,0-0.46-0.15-0.48-0.17l-0.01-0.01c-0.02-0.02-0.6-0.54-0.89-0.82c-0.24-0.24-0.56-0.61-0.71-0.79
			C7.39,23.03,7.37,23,7.36,22.99c-0.14-0.16-0.15-0.48-0.07-0.68c0.02-0.05,0.06-0.16,1.51-1.85c-0.52-0.8-0.9-1.68-1.13-2.61
			c-0.66-0.05-2.21-0.18-2.45-0.23C4.88,17.54,4.75,17.2,4.72,17l0-0.02c0-0.03-0.05-0.81-0.05-1.21c0-0.34,0.04-0.83,0.05-1.06
			c0-0.05,0.01-0.08,0.01-0.1c0.01-0.21,0.23-0.45,0.43-0.53c0.05-0.02,0.16-0.07,2.53-0.25c0.22-0.89,0.58-1.73,1.08-2.5
			C7.35,9.68,7.31,9.57,7.29,9.52c-0.08-0.2-0.07-0.52,0.07-0.68C7.37,8.83,7.39,8.8,7.42,8.77C7.58,8.59,7.9,8.22,8.14,7.98
			C8.42,7.7,9,7.18,9.03,7.16l0.01-0.01c0.02-0.02,0.23-0.17,0.48-0.17c0.11,0,0.22,0.03,0.31,0.09c0.19,0.13,1.18,0.96,1.83,1.52
			c0.68-0.39,1.41-0.68,2.17-0.87c0.18-2.39,0.23-2.51,0.25-2.56c0.08-0.2,0.32-0.41,0.53-0.43c0.02,0,0.05,0,0.1-0.01
			c0.23-0.02,0.72-0.05,1.06-0.05c0.4,0,1.18,0.05,1.21,0.05l0.02,0c0.19,0.03,0.54,0.17,0.61,0.5c0.05,0.25,0.18,1.82,0.23,2.49
			c0.76,0.19,1.5,0.48,2.18,0.87c0.64-0.55,1.63-1.39,1.83-1.52c0.09-0.06,0.2-0.09,0.31-0.09c0.25,0,0.46,0.15,0.48,0.17l0.01,0.01
			c0.02,0.02,0.6,0.54,0.89,0.82c0.24,0.24,0.56,0.61,0.72,0.79l0.06,0.07c0.14,0.16,0.15,0.48,0.07,0.68
			c-0.02,0.05-0.06,0.15-1.48,1.81c0.49,0.77,0.86,1.61,1.08,2.5c2.37,0.18,2.49,0.23,2.53,0.25c0.2,0.08,0.41,0.32,0.43,0.53
			c0,0.02,0,0.06,0.01,0.1c0.02,0.23,0.05,0.72,0.05,1.06c0,0.4-0.05,1.18-0.05,1.21l0,0.02c-0.03,0.19-0.17,0.54-0.5,0.61
			c-0.25,0.05-1.79,0.18-2.45,0.23c-0.22,0.93-0.6,1.81-1.13,2.61c1.45,1.7,1.49,1.81,1.51,1.85c0.08,0.2,0.07,0.52-0.07,0.68
			l-0.06,0.07c-0.15,0.18-0.47,0.55-0.72,0.79c-0.28,0.28-0.86,0.8-0.89,0.82l-0.01,0.01c-0.02,0.02-0.23,0.17-0.48,0.17h0
			c-0.11,0-0.22-0.03-0.31-0.09c-0.21-0.13-1.32-1.08-1.89-1.57c-0.66,0.37-1.38,0.66-2.12,0.84c-0.06,0.75-0.17,2.19-0.23,2.43
			c-0.07,0.34-0.42,0.48-0.61,0.5l-0.02,0C16.95,26.96,16.18,27.01,15.78,27.01z M14.46,26.37c0.04,0.08,0.14,0.17,0.18,0.18
			c0.02,0,0.05,0,0.1,0.01c0.23,0.02,0.71,0.05,1.03,0.05c0.36,0,1.07-0.04,1.17-0.05c0.04-0.01,0.24-0.05,0.27-0.19
			c0.04-0.19,0.15-1.48,0.23-2.52l0.01-0.15l0.15-0.03c0.8-0.18,1.56-0.48,2.27-0.9L20,22.7l0.11,0.09c0.8,0.69,1.79,1.52,1.96,1.63
			c0.03,0.02,0.05,0.02,0.09,0.02c0.1,0,0.2-0.06,0.23-0.08c0.07-0.06,0.6-0.54,0.86-0.8c0.23-0.23,0.56-0.61,0.69-0.77l0.07-0.08
			c0.02-0.03,0.03-0.16,0-0.25c-0.08-0.12-0.68-0.85-1.55-1.87l-0.1-0.12l0.09-0.13c0.57-0.83,0.97-1.76,1.19-2.75l0.03-0.15
			l0.15-0.01c1.05-0.08,2.35-0.19,2.55-0.23c0.13-0.03,0.18-0.23,0.19-0.27c0.01-0.1,0.05-0.81,0.05-1.17c0-0.32-0.04-0.8-0.05-1.03
			c0-0.05-0.01-0.08-0.01-0.11c-0.01-0.04-0.09-0.14-0.18-0.18c-0.15-0.03-1.19-0.13-2.56-0.24l-0.15-0.01l-0.03-0.14
			c-0.22-0.95-0.6-1.83-1.14-2.64l-0.09-0.13l0.1-0.12c1.03-1.2,1.46-1.73,1.52-1.83c0.03-0.09,0.02-0.22,0-0.25l-0.06-0.07
			c-0.14-0.16-0.46-0.54-0.69-0.77c-0.26-0.26-0.79-0.73-0.86-0.8c-0.04-0.03-0.14-0.08-0.23-0.08c-0.04,0-0.06,0.01-0.09,0.02
			c-0.13,0.09-0.86,0.69-1.89,1.58l-0.11,0.09l-0.12-0.07c-0.72-0.43-1.5-0.75-2.33-0.93l-0.15-0.03l-0.01-0.15
			c-0.09-1.15-0.2-2.4-0.23-2.59c-0.03-0.13-0.23-0.18-0.27-0.19c-0.1-0.01-0.81-0.05-1.17-0.05c-0.33,0-0.8,0.04-1.03,0.05
			c-0.05,0-0.08,0.01-0.1,0.01c-0.04,0.01-0.14,0.09-0.18,0.18c-0.04,0.15-0.13,1.18-0.24,2.58l-0.01,0.15l-0.15,0.03
			c-0.82,0.19-1.61,0.5-2.33,0.93l-0.12,0.07L11.5,8.99C10.47,8.1,9.74,7.5,9.61,7.41C9.58,7.39,9.56,7.38,9.52,7.38
			c-0.09,0-0.2,0.06-0.23,0.08c-0.07,0.06-0.6,0.54-0.86,0.8C8.19,8.5,7.88,8.86,7.73,9.03C7.7,9.07,7.68,9.1,7.66,9.11
			c-0.02,0.03-0.03,0.16,0,0.25c0.06,0.1,0.49,0.63,1.52,1.83l0.1,0.12l-0.09,0.13c-0.54,0.8-0.92,1.69-1.14,2.64l-0.03,0.14
			l-0.15,0.01c-1.37,0.1-2.41,0.2-2.56,0.24c-0.08,0.04-0.17,0.14-0.18,0.18c0,0.02,0,0.05-0.01,0.1c-0.02,0.23-0.05,0.71-0.05,1.03
			c0,0.37,0.04,1.07,0.05,1.17c0.01,0.04,0.05,0.24,0.19,0.27c0.19,0.04,1.49,0.15,2.55,0.23L8,17.46l0.03,0.15
			c0.22,0.99,0.62,1.91,1.19,2.75l0.09,0.13l-0.1,0.12c-0.87,1.01-1.47,1.74-1.55,1.87c-0.03,0.09-0.02,0.22,0,0.25
			c0.01,0.01,0.04,0.04,0.07,0.08c0.15,0.17,0.46,0.54,0.69,0.77c0.26,0.26,0.79,0.73,0.86,0.8c0.04,0.03,0.14,0.08,0.23,0.08
			c0.04,0,0.06-0.01,0.09-0.02c0.16-0.11,1.16-0.94,1.96-1.63l0.11-0.09l0.12,0.07c0.71,0.42,1.47,0.72,2.27,0.9l0.15,0.03
			l0.01,0.15C14.33,25.22,14.43,26.23,14.46,26.37z"/>
		<path d="M15.84,18.39c-1.41,0-2.55-1.14-2.55-2.55s1.14-2.55,2.55-2.55s2.55,1.14,2.55,2.55S17.25,18.39,15.84,18.39z
			 M15.84,13.59c-1.24,0-2.25,1.01-2.25,2.25s1.01,2.25,2.25,2.25s2.25-1.01,2.25-2.25S17.08,13.59,15.84,13.59z"/>
	</g>
</g>
</svg>
