<?xml version="1.0" encoding="utf-8"?>
<!-- Generator: Adobe Illustrator 21.1.0, SVG Export Plug-In . SVG Version: 6.00 Build 0)  -->
<!DOCTYPE svg PUBLIC "-//W3C//DTD SVG 1.1//EN" "http://www.w3.org/Graphics/SVG/1.1/DTD/svg11.dtd">
<svg version="1.1" id="Layer_1" xmlns="http://www.w3.org/2000/svg" xmlns:xlink="http://www.w3.org/1999/xlink" x="0px" y="0px"
	 viewBox="0 0 31.68 31.68" style="enable-background:new 0 0 31.68 31.68;" xml:space="preserve">
<g>
	<g>
		<g>
			<path d="M14.36,20.89c-0.09-0.1-0.25-0.11-0.35-0.01c-0.1,0.09-0.11,0.25-0.01,0.35l0.06,0.06c0.05,0.05,0.11,0.08,0.18,0.08
				c0.06,0,0.12-0.02,0.17-0.07c0.1-0.09,0.1-0.25,0.01-0.35L14.36,20.89z"/>
			<path d="M13.37,11.22l-0.05,0.07c-0.08,0.11-0.05,0.27,0.06,0.34c0.04,0.03,0.09,0.04,0.14,0.04c0.08,0,0.15-0.04,0.2-0.11
				l0.04-0.06c0.08-0.11,0.05-0.26-0.06-0.34S13.45,11.11,13.37,11.22z"/>
			<path d="M13.72,20.1c-0.08-0.11-0.23-0.14-0.34-0.06c-0.11,0.08-0.14,0.23-0.06,0.34l0.05,0.07c0.05,0.07,0.12,0.1,0.2,0.1
				c0.05,0,0.1-0.02,0.15-0.05c0.11-0.08,0.13-0.23,0.05-0.34L13.72,20.1z"/>
			<path d="M19.14,14.29l0.02,0.08c0.02,0.12,0.13,0.2,0.24,0.2c0.02,0,0.03,0,0.05,0c0.13-0.03,0.22-0.16,0.19-0.29l-0.02-0.08
				c-0.03-0.13-0.16-0.22-0.29-0.19C19.19,14.03,19.11,14.16,19.14,14.29z"/>
			<path d="M14.06,10.39L14,10.45c-0.09,0.1-0.09,0.26,0.01,0.35c0.05,0.04,0.11,0.07,0.17,0.07c0.07,0,0.13-0.03,0.18-0.08
				l0.05-0.06c0.09-0.1,0.09-0.26-0.01-0.35C14.31,10.29,14.15,10.29,14.06,10.39z"/>
			<path d="M15.1,21.58c-0.11-0.09-0.26-0.07-0.35,0.04c-0.09,0.11-0.07,0.26,0.04,0.35l0.06,0.05c0.05,0.04,0.1,0.05,0.15,0.05
				c0.07,0,0.14-0.03,0.19-0.09c0.09-0.11,0.07-0.26-0.04-0.35L15.1,21.58z"/>
			<path d="M13.13,12.04c-0.12-0.06-0.27-0.02-0.33,0.1l-0.04,0.07c-0.06,0.12-0.02,0.27,0.11,0.33c0.04,0.02,0.08,0.03,0.11,0.03
				c0.09,0,0.18-0.05,0.22-0.13l0.04-0.07C13.3,12.26,13.25,12.11,13.13,12.04z"/>
			<path d="M12.24,14.55c0.02,0,0.03,0,0.05,0c0.11,0,0.22-0.08,0.24-0.2l0.02-0.08c0.03-0.13-0.06-0.26-0.19-0.29
				c-0.13-0.03-0.26,0.06-0.29,0.19l-0.02,0.08C12.02,14.39,12.1,14.52,12.24,14.55z"/>
			<path d="M12.48,13.53c0.03,0.01,0.06,0.01,0.08,0.01c0.1,0,0.2-0.06,0.23-0.16l0.03-0.07c0.05-0.13-0.02-0.27-0.15-0.32
				c-0.13-0.05-0.27,0.02-0.32,0.15l-0.03,0.08C12.29,13.34,12.35,13.48,12.48,13.53z"/>
			<path d="M12.54,17.39l-0.02-0.08c-0.03-0.13-0.16-0.22-0.29-0.19c-0.13,0.03-0.22,0.16-0.19,0.29l0.02,0.08
				c0.03,0.12,0.13,0.19,0.24,0.19c0.02,0,0.03,0,0.05-0.01C12.49,17.65,12.57,17.52,12.54,17.39z"/>
			<path d="M19.51,15.04c-0.14,0.01-0.24,0.13-0.23,0.27l0.01,0.08c0.01,0.14,0.12,0.24,0.26,0.23c0.14-0.01,0.24-0.12,0.23-0.26
				l-0.01-0.09c-0.01-0.13-0.12-0.23-0.25-0.23C19.52,15.04,19.51,15.04,19.51,15.04z"/>
			<path d="M12.82,18.36l-0.03-0.07c-0.05-0.13-0.19-0.19-0.31-0.15c-0.13,0.05-0.2,0.19-0.15,0.32l0.03,0.08
				c0.04,0.1,0.13,0.16,0.23,0.16c0.03,0,0.06,0,0.08-0.01C12.8,18.63,12.87,18.49,12.82,18.36z"/>
			<path d="M13.19,19.22c-0.06-0.12-0.21-0.17-0.33-0.11c-0.12,0.06-0.17,0.21-0.11,0.33l0.04,0.08c0.04,0.08,0.13,0.13,0.22,0.13
				c0.04,0,0.08-0.01,0.12-0.03c0.12-0.06,0.17-0.21,0.1-0.33L13.19,19.22z"/>
			<path d="M14.86,9.65l-0.07,0.05c-0.11,0.09-0.12,0.24-0.04,0.35c0.05,0.06,0.12,0.09,0.19,0.09c0.05,0,0.11-0.02,0.16-0.06
				l0.06-0.05c0.11-0.08,0.12-0.24,0.04-0.35C15.12,9.59,14.96,9.57,14.86,9.65z"/>
			<path d="M19.2,18.15c-0.13-0.05-0.27,0.02-0.31,0.15l-0.03,0.07c-0.05,0.13,0.02,0.27,0.15,0.32c0.03,0.01,0.06,0.01,0.08,0.01
				c0.1,0,0.2-0.06,0.23-0.16l0.03-0.08C19.39,18.34,19.33,18.2,19.2,18.15z"/>
			<path d="M18.81,19.13c-0.12-0.06-0.27-0.02-0.33,0.11l-0.04,0.07c-0.06,0.12-0.02,0.27,0.1,0.33c0.04,0.02,0.08,0.03,0.11,0.03
				c0.09,0,0.17-0.05,0.22-0.13l0.04-0.07C18.98,19.34,18.93,19.19,18.81,19.13z"/>
			<path d="M19.44,17.13c-0.13-0.03-0.26,0.06-0.29,0.19l-0.02,0.08c-0.03,0.13,0.06,0.26,0.19,0.29c0.02,0,0.03,0.01,0.05,0.01
				c0.11,0,0.22-0.08,0.24-0.2l0.02-0.08C19.66,17.29,19.58,17.16,19.44,17.13z"/>
			<g>
				<path d="M19.81,7.83L19.81,7.83c-1.4,0-2.77,0.36-3.97,1.05c-1.2-0.69-2.57-1.05-3.97-1.05h0c-2.14,0-4.15,0.83-5.66,2.35
					c-1.51,1.51-2.34,3.52-2.34,5.66c0,2.14,0.83,4.15,2.35,5.66c1.51,1.51,3.52,2.34,5.66,2.34h0c1.4,0,2.76-0.36,3.97-1.05
					c1.2,0.69,2.57,1.05,3.97,1.05h0c2.14,0,4.15-0.83,5.66-2.35c1.51-1.51,2.34-3.52,2.34-5.66C27.82,11.42,24.22,7.83,19.81,7.83z
					 M25.01,21.03c-1.39,1.39-3.23,2.15-5.2,2.15h0c-1.34,0-2.66-0.37-3.8-1.06l-0.17-0.1l-0.17,0.1c-1.14,0.69-2.46,1.06-3.8,1.06
					h0c-1.96,0-3.81-0.76-5.19-2.15c-1.39-1.39-2.15-3.23-2.15-5.2c0-1.96,0.76-3.81,2.15-5.2s3.23-2.15,5.2-2.15h0
					c1.34,0,2.66,0.37,3.8,1.06l0.17,0.1l0.17-0.1c1.14-0.69,2.46-1.06,3.8-1.06h0c4.05,0,7.35,3.3,7.35,7.35
					C27.16,17.8,26.39,19.65,25.01,21.03z"/>
			</g>
			<path d="M18.32,11.23c-0.08-0.11-0.23-0.13-0.34-0.05c-0.11,0.08-0.13,0.23-0.05,0.34l0.04,0.06c0.05,0.07,0.12,0.11,0.2,0.11
				c0.05,0,0.1-0.01,0.14-0.04c0.11-0.08,0.14-0.23,0.06-0.34L18.32,11.23z"/>
			<path d="M12.17,16.64c0.14-0.01,0.24-0.13,0.23-0.27l-0.01-0.08c-0.01-0.13-0.12-0.23-0.25-0.23c0,0-0.01,0-0.01,0
				c-0.14,0.01-0.24,0.12-0.23,0.26l0.01,0.09C11.92,16.55,12.04,16.65,12.17,16.64z"/>
			<path d="M12.15,15.04c-0.13,0-0.24,0.1-0.25,0.23l-0.01,0.09c-0.01,0.14,0.1,0.25,0.23,0.26c0.14,0.01,0.25-0.1,0.26-0.23
				l0.01-0.08c0.01-0.14-0.09-0.25-0.23-0.27C12.17,15.04,12.16,15.04,12.15,15.04z"/>
			<path d="M19.77,16.42l0.01-0.09c0.01-0.14-0.1-0.25-0.23-0.26c0,0-0.01,0-0.01,0c-0.13,0-0.24,0.1-0.25,0.23l-0.01,0.08
				c-0.01,0.14,0.09,0.25,0.23,0.27C19.64,16.65,19.76,16.55,19.77,16.42z"/>
			<path d="M16.83,9.66c-0.11-0.09-0.26-0.07-0.35,0.04c-0.09,0.11-0.07,0.26,0.04,0.35l0.06,0.05c0.05,0.04,0.1,0.06,0.16,0.06
				c0.07,0,0.14-0.03,0.19-0.09C17.02,9.96,17,9.8,16.9,9.72L16.83,9.66z"/>
			<path d="M18.86,13.32l0.03,0.07c0.04,0.1,0.13,0.17,0.23,0.17c0.03,0,0.05,0,0.08-0.01c0.13-0.04,0.2-0.19,0.15-0.31l-0.03-0.08
				c-0.05-0.13-0.19-0.19-0.32-0.15S18.81,13.19,18.86,13.32z"/>
			<path d="M16.58,21.59l-0.06,0.05c-0.11,0.09-0.12,0.24-0.04,0.35c0.05,0.06,0.12,0.09,0.19,0.09c0.05,0,0.11-0.02,0.15-0.05
				l0.06-0.05c0.11-0.09,0.12-0.24,0.04-0.35C16.84,21.52,16.68,21.5,16.58,21.59z"/>
			<path d="M17.95,20.11l-0.04,0.06c-0.08,0.11-0.05,0.26,0.06,0.34c0.04,0.03,0.09,0.05,0.14,0.05c0.08,0,0.15-0.04,0.2-0.1
				l0.05-0.07c0.08-0.11,0.05-0.27-0.06-0.34C18.19,19.97,18.03,19.99,17.95,20.11z"/>
			<path d="M18.49,12.46c0.04,0.09,0.13,0.13,0.22,0.13c0.04,0,0.08-0.01,0.11-0.03c0.12-0.06,0.17-0.21,0.11-0.33l-0.04-0.08
				c-0.06-0.12-0.21-0.17-0.33-0.1c-0.12,0.06-0.17,0.21-0.1,0.33L18.49,12.46z"/>
			<path d="M17.63,10.4c-0.09-0.1-0.25-0.1-0.35-0.01c-0.1,0.09-0.1,0.25-0.01,0.35l0.05,0.06c0.05,0.05,0.12,0.08,0.18,0.08
				c0.06,0,0.12-0.02,0.17-0.07c0.1-0.09,0.11-0.25,0.01-0.35L17.63,10.4z"/>
			<path d="M17.32,20.9l-0.05,0.06c-0.09,0.1-0.09,0.26,0.01,0.35c0.05,0.04,0.11,0.07,0.17,0.07c0.07,0,0.13-0.03,0.18-0.08
				l0.06-0.06c0.09-0.1,0.09-0.26-0.01-0.35C17.56,20.79,17.41,20.8,17.32,20.9z"/>
		</g>
	</g>
</g>
</svg>
