<?xml version="1.0" encoding="utf-8"?>
<!-- Generator: Adobe Illustrator 21.1.0, SVG Export Plug-In . SVG Version: 6.00 Build 0)  -->
<!DOCTYPE svg PUBLIC "-//W3C//DTD SVG 1.1//EN" "http://www.w3.org/Graphics/SVG/1.1/DTD/svg11.dtd">
<svg version="1.1" id="Layer_1" xmlns="http://www.w3.org/2000/svg" xmlns:xlink="http://www.w3.org/1999/xlink" x="0px" y="0px"
	 viewBox="0 0 31.68 31.68" style="enable-background:new 0 0 31.68 31.68;" xml:space="preserve">
<g>
	<g>
		<path d="M7.49,22.05c0,0.09,0.05,0.18,0.14,0.22l7.76,3.88c0,0,0,0,0.01,0c0.03,0.01,0.06,0.02,0.1,0.02c0,0,0,0,0,0c0,0,0,0,0,0
			c0.04,0,0.07-0.01,0.1-0.02c0,0,0,0,0.01,0l7.76-3.88c0.08-0.04,0.14-0.13,0.14-0.22v-7.48l3.01-1.51
			c0.1-0.05,0.15-0.15,0.13-0.26c-0.02-0.11-0.1-0.19-0.2-0.2l-2.72-0.42L26.1,9.8c0.06-0.06,0.08-0.13,0.07-0.21
			c-0.01-0.08-0.06-0.15-0.13-0.18l-7.76-3.88C18.18,5.48,18.07,5.5,18,5.57l-2.64,2.64L12.23,7.9c-0.05,0-0.09,0-0.13,0.03
			l-7.64,3.83c-0.1,0.05-0.15,0.16-0.13,0.26c0.02,0.11,0.11,0.19,0.22,0.2l2.95,0.3v0.09l-1.32,3.1c-0.05,0.12,0,0.26,0.12,0.32
			l1.2,0.6V22.05z M15.25,25.54L7.98,21.9v-5.04l6.07,3.04c0.06,0.03,0.13,0.03,0.19,0.01c0.06-0.02,0.11-0.07,0.14-0.13l0.86-2.03
			V25.54z M23.01,21.9l-7.27,3.63v-8.95l0.05-0.11l2.93,0.45c0.05,0.01,0.1,0,0.15-0.02l4.14-2.08V21.9z M25.6,12.97l-6.88,3.45
			l-2.18-0.34l6.88-3.45L25.6,12.97z M18.22,6.04l7.3,3.65l-2.31,2.31l-7.3-3.65L18.22,6.04z M15.49,8.75l7.21,3.61l-1.24,0.62
			c0-0.23,0-0.41,0-0.49c0-0.07-0.05-0.12-0.12-0.12c-0.07,0-0.12,0.05-0.12,0.12c0,0.09,0,0.33,0,0.61l-0.59,0.3
			c0-0.54,0-1.07,0-1.3c0-0.07-0.06-0.12-0.12-0.12c-0.07,0-0.12,0.05-0.12,0.12c0,0.25,0,0.85,0,1.43l-0.59,0.3c0-0.8,0-1.7,0-2.12
			c0-0.07-0.05-0.12-0.12-0.12c-0.07,0-0.12,0.05-0.12,0.12c0,0.44,0,1.41,0,2.24l-0.59,0.3c0-1.05,0-2.32,0-2.94
			c0-0.07-0.06-0.12-0.12-0.12c-0.07,0-0.12,0.05-0.12,0.12c0,0.64,0,1.99,0,3.06l-0.59,0.3c0-1.29,0-2.93,0-3.75
			c0-0.07-0.05-0.12-0.12-0.12c-0.07,0-0.12,0.05-0.12,0.12c0,0.85,0,2.57,0,3.88l-0.59,0.3c0-1.52,0-3.53,0-4.57
			c0-0.07-0.05-0.12-0.12-0.12c-0.07,0-0.12,0.06-0.12,0.12c0,1.07,0,3.16,0,4.69l-0.59,0.3c0-1.63,0-3.94,0-5.39
			c0-0.07-0.06-0.12-0.12-0.12c-0.07,0-0.12,0.05-0.12,0.12c0,1.48,0,3.88,0,5.51l-0.53,0.26c0-2.08,0-4.82,0-6.17
			c0-0.1-0.08-0.18-0.18-0.18c-0.1,0-0.18,0.08-0.18,0.18c0,1.35,0,4.07,0,6.14l-7-3.5L15.49,8.75z M5.43,11.82l6.82-3.42l2.35,0.24
			l-6.82,3.42L5.43,11.82z M6.71,15.68l1.26-2.96l7.32,3.66l-1.26,2.96L6.71,15.68z"/>
	</g>
</g>
</svg>
