<?xml version="1.0" encoding="utf-8"?>
<!-- Generator: Adobe Illustrator 21.1.0, SVG Export Plug-In . SVG Version: 6.00 Build 0)  -->
<!DOCTYPE svg PUBLIC "-//W3C//DTD SVG 1.1//EN" "http://www.w3.org/Graphics/SVG/1.1/DTD/svg11.dtd">
<svg version="1.1" id="Layer_1" xmlns="http://www.w3.org/2000/svg" xmlns:xlink="http://www.w3.org/1999/xlink" x="0px" y="0px"
	 viewBox="0 0 32 32" style="enable-background:new 0 0 32 32;" xml:space="preserve">
<path d="M10.29,9.7c-0.11-0.1-0.27-0.1-0.38,0.01s-0.1,0.27,0.01,0.38c1.57,1.51,2.44,3.55,2.44,5.72c0,2.21-0.94,4.35-2.57,5.85
	c-0.11,0.1-0.11,0.27-0.02,0.37c0.05,0.06,0.12,0.09,0.2,0.09c0.06,0,0.13-0.02,0.18-0.07c1.75-1.6,2.75-3.88,2.75-6.24
	C12.89,13.48,11.97,11.31,10.29,9.7L10.29,9.7z M8.84,11.15c-0.11-0.1-0.27-0.1-0.38,0.01c-0.1,0.11-0.1,0.27,0.01,0.37
	c1.18,1.13,1.84,2.64,1.84,4.27c0,1.67-0.72,3.28-1.97,4.39c-0.11,0.1-0.12,0.26-0.02,0.37c0.05,0.06,0.12,0.09,0.2,0.09
	c0.06,0,0.13-0.02,0.18-0.07c1.37-1.22,2.15-2.97,2.15-4.79C10.84,14.03,10.13,12.37,8.84,11.15L8.84,11.15z M7.74,13.14
	c-0.07-0.06-0.17-0.06-0.24,0.01c-0.06,0.07-0.06,0.17,0.01,0.23c0.67,0.64,1.04,1.5,1.04,2.42c0,0.95-0.41,1.85-1.12,2.49
	c-0.07,0.06-0.07,0.17-0.01,0.23c0.03,0.04,0.08,0.06,0.12,0.06c0.04,0,0.08-0.01,0.11-0.04c0.78-0.7,1.23-1.7,1.23-2.74
	C8.88,14.79,8.48,13.84,7.74,13.14L7.74,13.14z M19.37,15.8c0-2.17,0.87-4.2,2.44-5.72c0.11-0.1,0.11-0.27,0.01-0.37
	c-0.05-0.05-0.12-0.08-0.19-0.08c-0.07,0-0.13,0.02-0.18,0.07c-1.68,1.62-2.6,3.78-2.6,6.1c0,2.36,1,4.64,2.75,6.24
	c0.11,0.1,0.27,0.09,0.37-0.02s0.09-0.27-0.02-0.37C20.31,20.14,19.37,18.01,19.37,15.8L19.37,15.8z M21.42,15.8
	c0-1.63,0.65-3.14,1.84-4.27c0.11-0.1,0.11-0.27,0.01-0.37c-0.05-0.06-0.12-0.08-0.19-0.08c-0.07,0-0.13,0.02-0.18,0.07
	c-1.29,1.23-2,2.88-2,4.65c0,1.82,0.78,3.57,2.15,4.79c0.11,0.1,0.28,0.09,0.37-0.02c0.1-0.11,0.09-0.28-0.02-0.37
	C22.14,19.08,21.42,17.47,21.42,15.8L21.42,15.8z M24.57,18.29c-0.71-0.64-1.12-1.54-1.12-2.49c0-0.92,0.37-1.78,1.04-2.42
	c0.07-0.06,0.07-0.17,0.01-0.23c-0.03-0.03-0.08-0.05-0.12-0.05c-0.04,0-0.08,0.02-0.11,0.05c-0.74,0.7-1.15,1.65-1.15,2.66
	c0,1.04,0.45,2.04,1.23,2.74c0.07,0.06,0.17,0.06,0.23-0.01C24.64,18.46,24.63,18.35,24.57,18.29L24.57,18.29z M14.95,6.8
	c-0.22,0-0.4,0.18-0.4,0.4v5.73c-0.5-1.76-1.45-3.37-2.8-4.68c-0.1-0.1-0.27-0.1-0.38,0.01s-0.1,0.27,0.01,0.38
	c1.96,1.9,3.04,4.45,3.04,7.17c0,2.76-1.16,5.42-3.18,7.31c-0.11,0.1-0.11,0.27-0.01,0.38c0.05,0.06,0.12,0.08,0.19,0.08
	c0.06,0,0.13-0.02,0.18-0.07c1.42-1.32,2.43-3.01,2.95-4.85v6.18c0,0.22,0.18,0.4,0.4,0.4c0.22,0,0.4-0.18,0.4-0.4V7.2
	C15.34,6.98,15.17,6.8,14.95,6.8L14.95,6.8z M17.32,15.8c0-2.73,1.08-5.27,3.04-7.17c0.1-0.1,0.11-0.27,0.01-0.38
	c-0.05-0.05-0.12-0.08-0.19-0.08c-0.07,0-0.13,0.02-0.18,0.08c-1.35,1.31-2.31,2.92-2.8,4.68V7.18c0-0.22-0.18-0.4-0.4-0.4
	c-0.22,0-0.4,0.18-0.4,0.4V24.8c0,0.22,0.18,0.4,0.4,0.4c0.22,0,0.4-0.18,0.4-0.4v-6.16c0.52,1.84,1.53,3.53,2.95,4.85
	c0.11,0.1,0.27,0.09,0.38-0.01s0.09-0.27-0.01-0.38C18.48,21.22,17.32,18.55,17.32,15.8L17.32,15.8z"/>
</svg>
