<?xml version="1.0" encoding="utf-8"?>
<!-- Generator: Adobe Illustrator 21.1.0, SVG Export Plug-In . SVG Version: 6.00 Build 0)  -->
<!DOCTYPE svg PUBLIC "-//W3C//DTD SVG 1.1//EN" "http://www.w3.org/Graphics/SVG/1.1/DTD/svg11.dtd">
<svg version="1.1" id="Layer_1" xmlns="http://www.w3.org/2000/svg" xmlns:xlink="http://www.w3.org/1999/xlink" x="0px" y="0px"
	 viewBox="0 0 31.68 31.68" style="enable-background:new 0 0 31.68 31.68;" xml:space="preserve">
<g>
	<path d="M23.3,17.77c-0.19-1.89-0.53-5.4-5.23-5.4h-3.3c-4.77,0-5.08,3.48-5.23,5.38c-1.19,0.13-2.12,1.14-2.12,2.36
		c0,1.27,1,2.3,2.25,2.37c0.39,0.76,1.05,1.3,1.75,1.81l0.28,0.21l-0.07,1.21l0.18,0.16c0.44,0.37,1.63,1,4.61,1
		c2.9,0,4.1-0.6,4.56-0.96l0.21-0.16l-0.07-1.23l0.29-0.21c1.17-0.86,2.15-1.72,2.15-3.45L23.3,17.77z M7.91,20.11
		c0-1.04,0.84-1.88,1.88-1.88c0.71,0,1.35,0.39,1.67,1.02c0.04,0.08,0.13,0.13,0.22,0.13h0.87v0.01c0,0.14,0.11,0.25,0.25,0.25h1.13
		l0.33,0.33c0.1,0.09,0.25,0.09,0.35,0l0.33-0.33h0.41l0.33,0.33c0.1,0.1,0.25,0.1,0.35,0l0.33-0.33h1.01l0.55,0.55l-0.39,0.39
		h-4.72c-0.14,0-0.25,0.11-0.25,0.25l-0.87,0.01c-0.09,0-0.18,0.05-0.22,0.13c-0.32,0.63-0.97,1.02-1.67,1.02
		C8.75,21.99,7.91,21.14,7.91,20.11z M11.7,23.88c-0.64-0.47-1.16-0.9-1.5-1.45c0.67-0.12,1.26-0.52,1.62-1.11h0.07L11.7,23.88z
		 M21.1,23.9l-0.47-6.57c0-0.12-0.1-0.22-0.22-0.22c-0.12,0-0.22,0.1-0.22,0.22l0.47,8.18c-0.36,0.28-1.43,0.85-4.26,0.85
		c-2.93,0-3.97-0.62-4.29-0.88c0.01-0.02,0.01-0.04,0.01-0.06l0.24-4.1h0.41c0.14,0,0.25-0.11,0.25-0.25l4.58-0.01
		c0.07,0,0.13-0.03,0.17-0.07l0.63-0.63c0.1-0.1,0.1-0.25,0-0.35l-0.8-0.8c-0.05-0.05-0.11-0.07-0.17-0.07h-1.21
		c-0.06,0-0.13,0.03-0.17,0.07l-0.23,0.23l-0.23-0.23c-0.05-0.05-0.11-0.07-0.17-0.07h-0.61c-0.07,0-0.13,0.03-0.17,0.07l-0.23,0.23
		l-0.23-0.23c-0.05-0.05-0.11-0.07-0.17-0.07h-0.99v-0.01c0-0.14-0.11-0.25-0.25-0.25h-0.27l0.09-1.56c0-0.12-0.1-0.22-0.22-0.22
		c-0.12,0-0.22,0.1-0.22,0.22l-0.11,1.56h-0.24c-0.39-0.65-1.05-1.06-1.79-1.14c0.19-2.26,0.69-4.88,4.74-4.88h3.3
		c4.09,0,4.53,2.81,4.74,4.95l0.24,3.03h0C23.05,22.32,22.26,23.05,21.1,23.9z"/>
	<path d="M16.41,11.71c1.9,0,3.44-1.54,3.44-3.44c0-1.9-1.55-3.44-3.44-3.44c-1.9,0-3.44,1.55-3.44,3.44
		C12.97,10.16,14.52,11.71,16.41,11.71z M16.41,5.31c1.63,0,2.95,1.32,2.95,2.95c0,1.62-1.32,2.95-2.95,2.95
		c-1.63,0-2.95-1.32-2.95-2.95C13.47,6.64,14.79,5.31,16.41,5.31z"/>
	<path d="M8.81,19.64c-0.26,0-0.47,0.21-0.47,0.47c0,0.26,0.21,0.47,0.47,0.47c0.26,0,0.47-0.21,0.47-0.47
		C9.28,19.85,9.07,19.64,8.81,19.64z M8.81,20.33c-0.12,0-0.23-0.1-0.23-0.23c0-0.12,0.1-0.22,0.23-0.22c0.12,0,0.22,0.1,0.22,0.22
		C9.04,20.23,8.94,20.33,8.81,20.33z"/>
</g>
</svg>
