<?xml version="1.0" encoding="utf-8"?>
<!-- Generator: Adobe Illustrator 21.1.0, SVG Export Plug-In . SVG Version: 6.00 Build 0)  -->
<!DOCTYPE svg PUBLIC "-//W3C//DTD SVG 1.1//EN" "http://www.w3.org/Graphics/SVG/1.1/DTD/svg11.dtd">
<svg version="1.1" id="Layer_1" xmlns="http://www.w3.org/2000/svg" xmlns:xlink="http://www.w3.org/1999/xlink" x="0px" y="0px"
	 viewBox="0 0 32 32" style="enable-background:new 0 0 32 32;" xml:space="preserve">
<path d="M14.38,24.02h3.25c0.13,0,0.23-0.1,0.23-0.23s-0.1-0.23-0.23-0.23h-3.25c-0.13,0-0.23,0.1-0.23,0.23
	S14.25,24.02,14.38,24.02z M18.31,24.66h-4.62c-0.13,0-0.23,0.1-0.23,0.23s0.1,0.23,0.23,0.23h4.62c0.13,0,0.23-0.1,0.23-0.23
	S18.44,24.66,18.31,24.66z M17.28,25.77h-2.56c-0.13,0-0.23,0.1-0.23,0.23s0.1,0.23,0.23,0.23h2.56c0.13,0,0.23-0.1,0.23-0.23
	S17.41,25.77,17.28,25.77z M23.32,8.04c-0.16-0.55-0.67-0.93-1.24-0.93c-0.12,0-0.24,0.02-0.36,0.05L9.56,10.64
	c-0.68,0.2-1.08,0.91-0.88,1.6c0.16,0.55,0.67,0.93,1.24,0.93c0.12,0,0.24-0.02,0.35-0.05l12.16-3.49c0.33-0.1,0.61-0.31,0.77-0.61
	S23.42,8.37,23.32,8.04L23.32,8.04z M22.81,8.79c-0.11,0.19-0.28,0.34-0.5,0.4l-12.16,3.49c-0.43,0.12-0.9-0.14-1.03-0.57
	c-0.12-0.44,0.13-0.9,0.57-1.03l12.16-3.49c0.08-0.02,0.15-0.03,0.23-0.03c0.37,0,0.69,0.25,0.8,0.6
	C22.94,8.38,22.91,8.6,22.81,8.79L22.81,8.79z M21.71,10.46c-0.1,0-0.2,0.01-0.29,0.04l-10.63,3.05c-0.27,0.08-0.51,0.27-0.65,0.53
	c-0.17,0.3-0.21,0.68-0.1,1.03c0.16,0.56,0.63,0.95,1.15,0.96v0h0.85c1.1,0,1.32,1.92,1.36,2.65c-0.95,0.17-1.67,1-1.67,2
	c0,0.68,0.34,1.28,0.85,1.65c-0.2,0.18-0.33,0.46-0.33,0.77v0.11c0,0.18,0.04,0.36,0.12,0.51c-0.08,0.15-0.12,0.33-0.12,0.52v0.11
	c0,0.19,0.04,0.36,0.12,0.51c-0.08,0.15-0.12,0.32-0.12,0.5v0.11c0,0.26,0.09,0.51,0.25,0.69c0.03,0.03,0.06,0.06,0.1,0.07
	c0.36,0.18,0.61,0.39,0.85,0.59c0.53,0.45,1.04,0.88,2.55,0.88c1.51,0,2.02-0.43,2.55-0.88c0.24-0.2,0.49-0.41,0.85-0.59
	c0.04-0.02,0.07-0.04,0.09-0.07c0.17-0.19,0.25-0.43,0.25-0.7v-0.11c0-0.18-0.04-0.35-0.12-0.5c0.08-0.15,0.12-0.33,0.12-0.52v-0.11
	c0-0.19-0.04-0.37-0.12-0.52c0.08-0.15,0.12-0.33,0.12-0.51v-0.11c0-0.33-0.14-0.62-0.36-0.8c0.49-0.37,0.81-0.96,0.81-1.62
	c0-0.99-0.72-1.82-1.67-2c0.04-0.72,0.25-2.65,1.36-2.65h1.32c0.56,0,1.03-0.63,1.02-1.36c-0.01-0.71-0.47-1.28-1.03-1.28h-0.63
	l1.55-0.44c0.3-0.09,0.55-0.3,0.69-0.6c0.14-0.29,0.16-0.63,0.07-0.96C22.72,10.86,22.24,10.47,21.71,10.46L21.71,10.46z
	 M13.06,16.07h0.82c0.22,0,0.39,0.07,0.53,0.22c0.49,0.5,0.49,1.73,0.48,2.39h-1.04C13.83,18.07,13.69,16.77,13.06,16.07
	L13.06,16.07z M16.57,18.68h-1.21c0.01-0.73,0-1.94-0.53-2.61h2.28C16.57,16.74,16.56,17.95,16.57,18.68z M19.14,23.25
	c0,0.12-0.04,0.23-0.11,0.3c-0.11,0.12-0.11,0.31,0.01,0.42c0.06,0.06,0.1,0.17,0.1,0.31v0.11c0,0.12-0.04,0.23-0.1,0.3
	c-0.11,0.12-0.11,0.29-0.01,0.41c0.07,0.08,0.11,0.19,0.11,0.3v0.11c0,0.09-0.02,0.18-0.07,0.25c-0.4,0.2-0.67,0.43-0.91,0.64
	c-0.49,0.41-0.87,0.73-2.16,0.73c-1.29,0-1.67-0.32-2.16-0.73c-0.24-0.2-0.51-0.43-0.91-0.64c-0.05-0.07-0.07-0.16-0.07-0.25v-0.11
	c0-0.11,0.04-0.22,0.11-0.3c0.11-0.12,0.1-0.3-0.01-0.41c-0.07-0.07-0.1-0.18-0.1-0.3v-0.11c0-0.13,0.03-0.24,0.1-0.31
	c0.12-0.12,0.12-0.3,0.01-0.42c-0.07-0.07-0.11-0.18-0.11-0.31v-0.11c0-0.21,0.13-0.39,0.29-0.39h5.7c0.15,0,0.29,0.18,0.29,0.39
	L19.14,23.25L19.14,23.25z M19.59,20.72c0,0.78-0.64,1.42-1.42,1.42h-4.4c-0.78,0-1.42-0.64-1.42-1.42c0-0.78,0.64-1.42,1.42-1.42
	h4.4C18.95,19.3,19.59,19.93,19.59,20.72z M18.07,18.68h-1.04c-0.01-0.66-0.01-1.89,0.48-2.39c0.14-0.15,0.32-0.22,0.53-0.22h0.83
	C18.24,16.77,18.1,18.07,18.07,18.68L18.07,18.68z M21.2,13.89L21.2,13.89c0.31,0,0.58,0.38,0.58,0.82c0,0.47-0.27,0.9-0.57,0.9
	h-8.26l6.09-1.74v0.02L21.2,13.89L21.2,13.89z M22.4,12.19c-0.08,0.18-0.23,0.31-0.4,0.36l-10.63,3.05
	c-0.37,0.11-0.77-0.17-0.9-0.61c-0.07-0.23-0.04-0.48,0.06-0.68c0.09-0.15,0.22-0.27,0.38-0.31l10.63-3.05
	c0.05-0.02,0.11-0.02,0.16-0.02c0.33,0,0.63,0.26,0.73,0.63C22.51,11.77,22.49,12,22.4,12.19L22.4,12.19z M10.23,9.85
	c0.1,0,0.2-0.01,0.29-0.04l10.63-3.05c0.27-0.08,0.51-0.27,0.65-0.53c0.17-0.3,0.2-0.68,0.1-1.03c-0.16-0.57-0.65-0.96-1.18-0.96
	c-0.01,0-0.02,0-0.04,0v0l-9.82,0.01C10.3,4.26,9.8,4.89,9.8,5.6c0,0.4,0.15,0.76,0.39,1.01c0.18,0.18,0.41,0.28,0.64,0.28h0.53
	L9.81,7.33C9.54,7.4,9.3,7.59,9.16,7.85c-0.17,0.3-0.21,0.68-0.11,1.03C9.22,9.45,9.7,9.85,10.23,9.85L10.23,9.85z M10.84,6.42
	L10.84,6.42c-0.15,0-0.26-0.08-0.32-0.14c-0.16-0.16-0.25-0.41-0.26-0.68c0-0.49,0.34-0.88,0.62-0.89l8.1-0.01l-6.01,1.72H10.84z
	 M9.56,8.08c0.09-0.15,0.22-0.26,0.38-0.31l10.63-3.05c0.05-0.01,0.11-0.02,0.16-0.02c0.33,0,0.63,0.26,0.74,0.63
	C21.53,5.56,21.51,5.81,21.4,6c-0.09,0.16-0.22,0.26-0.38,0.31L10.39,9.36c-0.37,0.11-0.77-0.17-0.9-0.61
	C9.43,8.52,9.45,8.27,9.56,8.08L9.56,8.08z"/>
</svg>
