<?xml version="1.0" encoding="utf-8"?>
<!-- Generator: Adobe Illustrator 21.1.0, SVG Export Plug-In . SVG Version: 6.00 Build 0)  -->
<!DOCTYPE svg PUBLIC "-//W3C//DTD SVG 1.1//EN" "http://www.w3.org/Graphics/SVG/1.1/DTD/svg11.dtd">
<svg version="1.1" id="Layer_1" xmlns="http://www.w3.org/2000/svg" xmlns:xlink="http://www.w3.org/1999/xlink" x="0px" y="0px"
	 viewBox="0 0 32 32" style="enable-background:new 0 0 32 32;" xml:space="preserve">
<path d="M12.52,19.17H6.16c-0.16,0-0.29-0.13-0.29-0.29v-1.73c0-0.16,0.13-0.29,0.29-0.29h6.36c0.16,0,0.29,0.13,0.29,0.29v1.73
	C12.8,19.04,12.67,19.17,12.52,19.17L12.52,19.17z M6.29,18.76h6.1v-1.47h-6.1V18.76z M12.52,22.05H6.16
	c-0.16,0-0.29-0.13-0.29-0.29v-1.72c0-0.16,0.13-0.29,0.29-0.29h6.36c0.16,0,0.29,0.13,0.29,0.29v1.72
	C12.8,21.92,12.67,22.05,12.52,22.05L12.52,22.05z M6.29,21.63h6.1v-1.47h-6.1V21.63L6.29,21.63z M12.52,13.35H6.16
	c-0.16,0-0.29-0.13-0.29-0.29v-1.66c0-0.16,0.13-0.29,0.29-0.29h6.36c0.16,0,0.29,0.13,0.29,0.29v1.66
	C12.8,13.22,12.67,13.35,12.52,13.35L12.52,13.35z M6.29,12.94h6.1v-1.4h-6.1V12.94z M12.52,16.3H6.16c-0.16,0-0.29-0.13-0.29-0.29
	v-1.79c0-0.16,0.13-0.29,0.29-0.29h6.36c0.16,0,0.29,0.13,0.29,0.29v1.79C12.8,16.17,12.67,16.3,12.52,16.3L12.52,16.3z M6.29,15.88
	h6.1v-1.54h-6.1V15.88z M10.36,12.38c0.08,0,0.14-0.06,0.14-0.14s-0.06-0.14-0.14-0.14H8.22c-0.08,0-0.14,0.06-0.14,0.14
	s0.06,0.14,0.14,0.14H10.36z M10.36,15.27c0.08,0,0.14-0.06,0.14-0.14s-0.06-0.14-0.14-0.14H8.22c-0.08,0-0.14,0.06-0.14,0.14
	s0.06,0.14,0.14,0.14H10.36z M10.4,18.21c0.08,0,0.14-0.06,0.14-0.14s-0.06-0.14-0.14-0.14H8.25c-0.08,0-0.14,0.06-0.14,0.14
	s0.06,0.14,0.14,0.14H10.4z M10.4,21.08c0.08,0,0.14-0.06,0.14-0.14s-0.06-0.14-0.14-0.14H8.25c-0.08,0-0.14,0.06-0.14,0.14
	s0.06,0.14,0.14,0.14H10.4z M13.11,23.41H5.36c-0.37,0-0.68-0.3-0.68-0.68V11.87c0-0.07-0.06-0.12-0.12-0.12H4.4
	c-0.37,0-0.68-0.3-0.68-0.68v-1.8c0-0.37,0.3-0.68,0.68-0.68H27.6c0.37,0,0.68,0.3,0.68,0.68v1.8c0,0.37-0.3,0.68-0.68,0.68h-0.13
	c-0.07,0-0.12,0.06-0.12,0.12V22.7c0,0.37-0.3,0.68-0.68,0.68h-1.22c-0.37,0-0.68-0.3-0.68-0.68V11.87c0-0.07-0.06-0.12-0.12-0.12
	H13.9c-0.07,0-0.12,0.06-0.12,0.12v10.86C13.78,23.1,13.48,23.41,13.11,23.41L13.11,23.41L13.11,23.41z M4.4,9.15
	c-0.07,0-0.12,0.06-0.12,0.12v1.8c0,0.07,0.06,0.12,0.12,0.12h0.16c0.37,0,0.68,0.3,0.68,0.68v10.86c0,0.07,0.06,0.12,0.12,0.12
	h7.75c0.07,0,0.12-0.06,0.12-0.12V11.87c0-0.37,0.3-0.68,0.68-0.68h10.76c0.37,0,0.68,0.3,0.68,0.68V22.7
	c0,0.07,0.06,0.12,0.12,0.12h1.22c0.07,0,0.12-0.06,0.12-0.12V11.87c0-0.37,0.3-0.68,0.68-0.68h0.13c0.07,0,0.12-0.06,0.12-0.12
	v-1.8c0-0.07-0.06-0.12-0.12-0.12C27.6,9.15,4.4,9.15,4.4,9.15z"/>
</svg>
