<?xml version="1.0" encoding="utf-8"?>
<!-- Generator: Adobe Illustrator 21.1.0, SVG Export Plug-In . SVG Version: 6.00 Build 0)  -->
<!DOCTYPE svg PUBLIC "-//W3C//DTD SVG 1.1//EN" "http://www.w3.org/Graphics/SVG/1.1/DTD/svg11.dtd">
<svg version="1.1" id="Layer_1" xmlns="http://www.w3.org/2000/svg" xmlns:xlink="http://www.w3.org/1999/xlink" x="0px" y="0px"
	 viewBox="0 0 32 32" style="enable-background:new 0 0 32 32;" xml:space="preserve">
<path d="M28.67,19.52c-0.06-0.46-0.22-1.19-0.36-1.63l-1.22-3.85c-0.09-0.28-0.28-0.5-0.54-0.63c-0.26-0.13-0.56-0.15-0.83-0.05
	L25,13.62c-0.3,0.11-0.71-0.03-0.89-0.29l-4.04-5.95c-0.17-0.25-0.42-0.4-0.69-0.4c0,0,0,0,0,0c-0.26,0-0.52,0.15-0.69,0.4
	l-1.42,2.08c-0.23,0.33-0.72,0.75-1.08,0.91l-0.87,0.4c-0.47,0.22-0.99,0.77-1.17,1.26l-0.97,2.59c-0.02,0.06-0.05,0.1-0.07,0.13
	c-0.1-0.06-0.19-0.14-0.25-0.22l-0.32-0.45l-2.46-3.59c-0.06-0.09-0.16-0.14-0.27-0.14c-0.21,0-0.47,0.22-0.76,0.66l-0.86,1.27
	c-0.22,0.33-0.72,0.75-1.08,0.92l-0.31,0.14c-0.47,0.22-0.98,0.77-1.16,1.26l-2.42,6.49c-0.11,0.29-0.08,0.58,0.07,0.8
	c0.15,0.22,0.41,0.34,0.72,0.34h12.79c0.1,0,0.18-0.05,0.23-0.13c0.09-0.04,0.18-0.09,0.25-0.16c0.01,0,0.02,0.01,0.03,0.01h10.52
	c0.3,0,0.57-0.12,0.75-0.33c0.19-0.21,0.27-0.49,0.24-0.79L28.67,19.52L28.67,19.52z M3.76,21.55c-0.05-0.07-0.05-0.16-0.01-0.28
	l2.42-6.49C6.3,14.44,6.71,14,7.05,13.84l0.31-0.14c0.45-0.21,1.03-0.7,1.31-1.11l0.86-1.27c0.09-0.14,0.17-0.24,0.24-0.31
	l2.71,3.96c0.18,0.27,0.43,0.4,0.67,0.37c0.06-0.01,0.12-0.03,0.18-0.05c0.12,0.03,0.23,0.04,0.34,0.03l1.18-0.09
	c0.24-0.02,0.51,0.16,0.59,0.39l1.22,3.53c0.1,0.3,0.23,0.82,0.27,1.14l0.15,1.08c0.01,0.1-0.01,0.19-0.07,0.26
	c-0.02,0.02-0.05,0.04-0.08,0.06c-0.03-0.01-0.07-0.02-0.11-0.02h-0.24l-0.16-1.22c-0.02-0.12-0.12-0.2-0.24-0.18
	c-0.12,0.01-0.2,0.12-0.18,0.24l0.15,1.17H4.02C3.9,21.66,3.81,21.62,3.76,21.55L3.76,21.55z M28.17,21.23
	c-0.08,0.09-0.2,0.14-0.33,0.14H17.5c0-0.02,0-0.05,0-0.07l-0.15-1.08c-0.05-0.34-0.18-0.89-0.29-1.22l-1.22-3.53
	c-0.14-0.41-0.59-0.7-1.02-0.67l-1.14,0.09c0.01-0.02,0.03-0.05,0.04-0.07l0.97-2.59c0.13-0.35,0.54-0.79,0.88-0.94l0.87-0.4
	c0.45-0.21,1.03-0.7,1.31-1.11l1.42-2.08c0.07-0.1,0.15-0.15,0.22-0.15l0,0c0.08,0,0.16,0.05,0.22,0.15l4.04,5.95
	c0.32,0.48,1,0.7,1.55,0.5l0.72-0.26c0.13-0.05,0.27-0.04,0.39,0.02c0.12,0.06,0.21,0.17,0.25,0.3l1.22,3.85
	c0.13,0.41,0.28,1.11,0.33,1.53l0.16,1.29C28.29,21.02,28.25,21.14,28.17,21.23L28.17,21.23z M20.65,10.3
	c-0.06-0.1-0.19-0.13-0.29-0.06c-0.1,0.06-0.13,0.19-0.06,0.29l2.43,3.79c0.04,0.06,0.11,0.1,0.18,0.1c0.04,0,0.08-0.01,0.11-0.03
	c0.1-0.06,0.13-0.19,0.06-0.29C23.08,14.09,20.65,10.3,20.65,10.3z M20.67,12.45c-0.06-0.1-0.19-0.13-0.29-0.07
	c-0.1,0.06-0.13,0.19-0.07,0.29l0.8,1.26c0.04,0.07,0.06,0.12,0.07,0.15c-0.03,0-0.09-0.01-0.16-0.04l-1.37-0.46
	c-0.39-0.13-0.58,0-0.66,0.09c-0.08,0.09-0.18,0.3,0,0.67l1.65,3.29c0.04,0.07,0.11,0.12,0.19,0.12c0.03,0,0.06-0.01,0.09-0.02
	c0.1-0.05,0.15-0.18,0.09-0.28l-1.65-3.29c-0.06-0.13-0.06-0.19-0.07-0.2c0.01-0.01,0.08-0.02,0.21,0.03l1.37,0.46
	c0.38,0.13,0.56,0.02,0.65-0.09c0.09-0.11,0.15-0.31-0.07-0.65L20.67,12.45L20.67,12.45z M10.77,13.38
	c-0.06-0.1-0.19-0.13-0.29-0.07c-0.1,0.06-0.13,0.19-0.07,0.29l1.23,1.95c0.04,0.06,0.11,0.1,0.18,0.1c0.04,0,0.08-0.01,0.11-0.03
	c0.1-0.06,0.13-0.19,0.07-0.29L10.77,13.38L10.77,13.38z"/>
</svg>
