<?xml version="1.0" encoding="utf-8"?>
<!-- Generator: Adobe Illustrator 21.1.0, SVG Export Plug-In . SVG Version: 6.00 Build 0)  -->
<!DOCTYPE svg PUBLIC "-//W3C//DTD SVG 1.1//EN" "http://www.w3.org/Graphics/SVG/1.1/DTD/svg11.dtd">
<svg version="1.1" id="Layer_1" xmlns="http://www.w3.org/2000/svg" xmlns:xlink="http://www.w3.org/1999/xlink" x="0px" y="0px"
	 viewBox="0 0 32 32" style="enable-background:new 0 0 32 32;" xml:space="preserve">
<path d="M27.95,13.29c-0.04-0.11-0.13-0.19-0.25-0.21l-7.9-1.15l-3.53-7.16C16.23,4.67,16.12,4.6,16,4.6
	c-0.12,0-0.22,0.07-0.28,0.17l-3.53,7.16l-7.9,1.15c-0.12,0.02-0.21,0.1-0.25,0.21c-0.04,0.11-0.01,0.23,0.08,0.31l5.71,5.57
	l-1.35,7.87c-0.02,0.11,0.03,0.23,0.12,0.3c0.1,0.07,0.22,0.08,0.32,0.02L16,23.65l7.06,3.71c0.04,0.02,0.09,0.04,0.14,0.04
	c0.06,0,0.13-0.02,0.18-0.06c0.09-0.07,0.14-0.18,0.12-0.3l-1.35-7.87l5.72-5.57C27.96,13.52,27.99,13.4,27.95,13.29L27.95,13.29z
	 M21.62,18.85c-0.07,0.07-0.1,0.17-0.09,0.27l1.27,7.41l-6.66-3.5c-0.09-0.05-0.2-0.05-0.29,0l-6.66,3.5l1.27-7.41
	c0.02-0.1-0.02-0.2-0.09-0.27L5,13.6l7.44-1.08c0.1-0.02,0.19-0.08,0.23-0.17L16,5.6l3.33,6.74c0.04,0.09,0.13,0.15,0.23,0.17
	L27,13.6L21.62,18.85L21.62,18.85z M16.64,22.66c-0.04,0.08-0.01,0.17,0.07,0.21l5.13,2.69c0.02,0.01,0.05,0.02,0.07,0.02
	c0.06,0,0.11-0.03,0.14-0.08c0.04-0.07,0.01-0.17-0.06-0.21l-5.13-2.69C16.77,22.56,16.68,22.59,16.64,22.66z M16.1,6.89
	c-0.08-0.04-0.17-0.01-0.21,0.07l-2.45,4.96c-0.04,0.08-0.01,0.17,0.07,0.2c0.02,0.01,0.05,0.02,0.07,0.02
	c0.06,0,0.11-0.03,0.14-0.09l2.45-4.96C16.21,7.02,16.18,6.93,16.1,6.89z M6.73,14.25c-0.06-0.06-0.16-0.06-0.22,0
	s-0.06,0.16,0,0.22L11,18.84l-0.67,3.92c-0.01,0.08,0.04,0.16,0.12,0.18c0.01,0,0.02,0,0.03,0c0.07,0,0.14-0.05,0.15-0.13l0.69-4
	c0.01-0.05-0.01-0.1-0.04-0.14L6.73,14.25L6.73,14.25z"/>
</svg>
