<?xml version="1.0" encoding="utf-8"?>
<!-- Generator: Adobe Illustrator 21.1.0, SVG Export Plug-In . SVG Version: 6.00 Build 0)  -->
<!DOCTYPE svg PUBLIC "-//W3C//DTD SVG 1.1//EN" "http://www.w3.org/Graphics/SVG/1.1/DTD/svg11.dtd">
<svg version="1.1" id="Layer_1" xmlns="http://www.w3.org/2000/svg" xmlns:xlink="http://www.w3.org/1999/xlink" x="0px" y="0px"
	 viewBox="0 0 31.68 31.68" style="enable-background:new 0 0 31.68 31.68;" xml:space="preserve">
<g>
	<g>
		<path d="M24.66,13.12l1.49-4.38c0.07-0.2,0.02-0.42-0.13-0.57C25.91,8.05,25.77,8,25.62,8C25.56,8,25.5,8,25.44,8.02l-4.38,1.49
			c-0.08,0.03-0.15,0.07-0.22,0.13l-4.21,4.21l-3.1-3.1l4.54-4.54l0.39-0.39l-0.39-0.39l-0.49-0.49c-0.38-0.38-0.88-0.59-1.42-0.59
			c-0.35,0-0.69,0.09-0.99,0.26l-0.03,0.02l-0.03,0.02l-3.82,2.74c-0.14-0.03-0.29-0.05-0.44-0.05c-0.54,0-1.05,0.21-1.43,0.59
			l-0.9,0.9l-0.9,0.9c-0.49,0.49-0.69,1.2-0.54,1.87l-2.74,3.82l-0.02,0.03l-0.02,0.03c-0.44,0.79-0.31,1.78,0.33,2.41l0.49,0.49
			l0.39,0.39l0.39-0.39l4.47-4.47l3.1,3.1l-5.76,5.76c-0.22,0.22-0.22,0.57,0,0.79l2.89,2.89c0.1,0.1,0.25,0.16,0.39,0.16
			c0.15,0,0.29-0.06,0.39-0.16l5.76-5.76l5.26,5.26c0.1,0.1,0.25,0.16,0.39,0.16c0.15,0,0.29-0.06,0.39-0.16l2.36-2.36
			c0.22-0.22,0.22-0.57,0-0.79l-5.26-5.26l4.21-4.21C24.59,13.27,24.64,13.2,24.66,13.12z M5.53,17.97l-0.49-0.49
			c-0.47-0.47-0.55-1.19-0.24-1.74l2.9-4.04c-0.21-0.53-0.1-1.15,0.32-1.58l0.9-0.9l0.9-0.9c0.28-0.28,0.66-0.43,1.03-0.43
			c0.18,0,0.37,0.03,0.54,0.1l4.04-2.9c0.22-0.13,0.47-0.19,0.72-0.19c0.37,0,0.74,0.14,1.02,0.42l0.49,0.49l-4.54,4.54l-1.4-1.4
			c-0.1-0.1-0.25-0.16-0.39-0.16c-0.15,0-0.29,0.06-0.39,0.16l-2.36,2.36c-0.22,0.22-0.22,0.57,0,0.79l1.4,1.4L5.53,17.97z
			 M13.08,15.81L13.08,15.81l0.51-0.51c0.07-0.07,0.07-0.19,0-0.26c-0.07-0.07-0.19-0.07-0.26,0l-0.51,0.51c0,0,0,0,0,0l-1.04-1.04
			l0,0l1.16-1.16c0.07-0.07,0.07-0.19,0-0.26c-0.07-0.07-0.19-0.07-0.26,0l-1.16,1.16v0l-2.53-2.53l2.36-2.36l4.9,4.9l-2.34,2.34
			L13.08,15.81z M8.12,23.16l8.73-8.73l4.27-4.27c0.32,0.34,0.15,1.06-0.37,1.58L8.73,23.77L8.12,23.16z M8.94,23.98l12.03-12.03
			c0.53-0.53,1.26-0.7,1.6-0.36c0.16,0.16,0.21,0.4,0.15,0.69c-0.06,0.31-0.24,0.63-0.51,0.9l0,0L10.18,25.22L8.94,23.98z
			 M25.19,23.19l-2.36,2.36l-1.17-1.17l0.51-0.51c0.07-0.07,0.07-0.19,0-0.26c-0.07-0.07-0.19-0.07-0.26,0l-0.51,0.51l-1.04-1.04
			l1.16-1.16c0.07-0.07,0.07-0.19,0-0.26c-0.07-0.07-0.19-0.07-0.26,0l-1.16,1.16l-1.04-1.04l0.51-0.51c0.07-0.07,0.07-0.19,0-0.26
			c-0.07-0.07-0.19-0.07-0.26,0l-0.51,0.51l-1.22-1.22l2.36-2.36L25.19,23.19z M11.02,26.05l-0.62-0.62L22.42,13.4l0,0
			c0.27-0.27,0.59-0.45,0.9-0.51c0.29-0.06,0.54,0,0.69,0.15L11.02,26.05z M23.27,12.59c-0.12,0.02-0.24,0.06-0.36,0.11
			c0.05-0.12,0.09-0.24,0.11-0.36c0.08-0.39-0.01-0.74-0.24-0.97c-0.31-0.31-0.83-0.34-1.33-0.12c0.2-0.47,0.19-0.95-0.06-1.26
			l2.46-0.84c0.09,0.26,0.24,0.51,0.45,0.72c0.21,0.21,0.46,0.36,0.72,0.45l-0.84,2.47C23.96,12.59,23.64,12.52,23.27,12.59z"/>
	</g>
</g>
</svg>
