<?xml version="1.0" encoding="utf-8"?>
<!-- Generator: Adobe Illustrator 21.1.0, SVG Export Plug-In . SVG Version: 6.00 Build 0)  -->
<!DOCTYPE svg PUBLIC "-//W3C//DTD SVG 1.1//EN" "http://www.w3.org/Graphics/SVG/1.1/DTD/svg11.dtd">
<svg version="1.1" id="Layer_1" xmlns="http://www.w3.org/2000/svg" xmlns:xlink="http://www.w3.org/1999/xlink" x="0px" y="0px"
	 viewBox="0 0 31.68 31.68" style="enable-background:new 0 0 31.68 31.68;" xml:space="preserve">
<g>
	<g>
		<g>
			<path d="M13.19,11.62c1.87,0,3.4-1.52,3.4-3.4c0-1.87-1.53-3.4-3.4-3.4c-1.87,0-3.4,1.53-3.4,3.4
				C9.79,10.09,11.32,11.62,13.19,11.62z M13.19,5.31c1.61,0,2.91,1.31,2.91,2.91c0,1.6-1.31,2.91-2.91,2.91
				c-1.6,0-2.91-1.31-2.91-2.91C10.28,6.61,11.59,5.31,13.19,5.31z"/>
			<path d="M25.3,13.84h-6.51c-0.73-0.9-1.94-1.57-3.97-1.57h-3.26c-4.73,0-5.02,3.47-5.17,5.34l-0.24,3.01v0.02
				c0,1.71,0.99,2.58,2.1,3.39l0.28,0.21l-0.07,1.19l0.18,0.16c0.42,0.35,1.51,0.93,4.17,0.98v0.07c0,0.12,0.1,0.22,0.22,0.22H25.3
				c0.12,0,0.22-0.1,0.22-0.22V14.06C25.52,13.94,25.42,13.84,25.3,13.84z M12.82,14.06v12.02c-2.6-0.05-3.56-0.62-3.86-0.87
				c0.01-0.02,0.01-0.04,0.01-0.06l0.47-7.98c0-0.12-0.1-0.22-0.22-0.22c-0.12,0-0.21,0.1-0.21,0.22l-0.47,6.46
				c-1.13-0.83-1.9-1.55-1.9-2.99l0.24-2.99c0.18-2.25,0.64-4.89,4.68-4.89h3.26c1.58,0,2.61,0.43,3.29,1.08h-5.07
				C12.92,13.84,12.82,13.94,12.82,14.06z M25.08,26.42H13.26v-0.3v-0.48V14.28h11.83V26.42z"/>
			<path d="M16.37,14.99c-0.03-0.1-0.09-0.3-0.26-0.4c-0.1-0.06-0.21-0.07-0.33-0.03c-0.18,0.06-0.31,0.18-0.38,0.35
				c-0.01,0.02-0.02,0.05-0.02,0.08h-1.52c-0.09,0-0.16,0.07-0.16,0.16v10.49v0.02c0,0.09,0.07,0.16,0.16,0.16h2.71h7.81
				c0.09,0,0.16-0.07,0.16-0.16V15.16c0-0.09-0.07-0.16-0.16-0.16h-1.47c-0.03-0.1-0.09-0.3-0.26-0.4c-0.1-0.06-0.21-0.07-0.33-0.03
				c-0.18,0.06-0.31,0.18-0.38,0.35c-0.01,0.02-0.02,0.05-0.02,0.08H16.37z M24.22,25.51h-6.68h-1.77h-1.75V17.2h3.74h0.42h2.08
				h0.48h3.47V25.51z M21.92,15.32c0.04,0.39,0.26,0.79,0.3,0.85c0.04,0.07,0.11,0.11,0.19,0.11c0.04,0,0.07-0.01,0.11-0.03
				c0.1-0.06,0.14-0.19,0.08-0.3c-0.08-0.14-0.2-0.41-0.23-0.63h1.87v1.55H14.03v-1.55h1.34c0.04,0.39,0.26,0.79,0.29,0.85
				c0.04,0.07,0.11,0.11,0.19,0.11c0.04,0,0.07-0.01,0.11-0.03c0.1-0.06,0.14-0.19,0.08-0.3c-0.08-0.14-0.2-0.41-0.23-0.63H21.92z"
				/>
			<path d="M16.21,15.9c0.04,0.1,0.05,0.2,0.01,0.3c-0.04,0.1-0.11,0.18-0.2,0.22c-0.1,0.04-0.2,0.05-0.3,0.01
				c-0.1-0.04-0.18-0.11-0.22-0.21c-0.03-0.06-0.04-0.12-0.03-0.19c0-0.06-0.04-0.11-0.1-0.12c-0.06,0-0.11,0.04-0.12,0.1
				c-0.01,0.1,0.01,0.2,0.05,0.29c0.07,0.15,0.19,0.26,0.34,0.32c0.07,0.03,0.14,0.04,0.22,0.04c0.09,0,0.17-0.02,0.25-0.05
				c0.15-0.07,0.26-0.19,0.32-0.34c0.06-0.15,0.05-0.32-0.02-0.47c-0.04-0.09-0.1-0.17-0.18-0.23c-0.05-0.04-0.12-0.03-0.15,0.02
				c-0.04,0.05-0.03,0.12,0.02,0.15C16.15,15.8,16.19,15.85,16.21,15.9z"/>
			<path d="M22.19,16.64c0.07,0.03,0.14,0.04,0.22,0.04c0.09,0,0.17-0.02,0.25-0.05c0.15-0.07,0.26-0.19,0.32-0.34
				c0.06-0.15,0.05-0.32-0.02-0.47c-0.04-0.09-0.1-0.17-0.18-0.23c-0.05-0.04-0.12-0.03-0.15,0.02c-0.04,0.05-0.03,0.12,0.02,0.15
				c0.05,0.04,0.09,0.09,0.12,0.15c0.04,0.1,0.05,0.2,0.01,0.3c-0.04,0.1-0.11,0.18-0.21,0.22c-0.1,0.04-0.2,0.05-0.3,0.01
				c-0.1-0.04-0.18-0.11-0.22-0.21c-0.03-0.06-0.04-0.12-0.03-0.19c0-0.06-0.04-0.11-0.1-0.12c-0.06-0.01-0.11,0.04-0.12,0.1
				c-0.01,0.1,0.01,0.2,0.05,0.29C21.91,16.47,22.03,16.58,22.19,16.64z"/>
			<path d="M19.74,21.71c-0.05-0.14-0.12-0.26-0.21-0.36c-0.09-0.1-0.2-0.18-0.31-0.24c-0.04-0.02-0.08-0.04-0.12-0.06
				c0.02-0.01,0.03-0.02,0.05-0.03c0.09-0.06,0.17-0.14,0.24-0.23c0.07-0.09,0.12-0.19,0.16-0.3c0.04-0.12,0.06-0.25,0.06-0.4
				c0-0.28-0.05-0.53-0.16-0.73c-0.11-0.2-0.26-0.37-0.45-0.49c-0.19-0.12-0.42-0.21-0.68-0.27c-0.04-0.01-0.08-0.01-0.13-0.02
				c-0.13-0.02-0.27-0.04-0.42-0.05c-0.1-0.01-0.2-0.01-0.31-0.01c-0.23,0-0.44,0.02-0.64,0.05c-0.19,0.03-0.38,0.08-0.54,0.15
				c-0.16,0.06-0.32,0.13-0.46,0.22c-0.14,0.08-0.27,0.17-0.39,0.27c-0.05,0.04-0.06,0.1-0.02,0.15l0.67,0.92
				c0.04,0.05,0.1,0.06,0.15,0.02c0.19-0.13,0.38-0.24,0.57-0.31c0.19-0.07,0.4-0.11,0.63-0.11c0.16,0,0.27,0.01,0.34,0.03
				c0.06,0.02,0.11,0.04,0.14,0.05c0.08,0.05,0.11,0.12,0.11,0.22c0,0.09-0.01,0.21-0.08,0.25c-0.02,0.02-0.08,0.04-0.17,0.05
				c-0.06,0.01-0.13,0.02-0.23,0.02H16.9c-0.06,0-0.11,0.05-0.11,0.11v1.1c0,0.06,0.05,0.11,0.11,0.11h0.73c0.06,0,0.1,0,0.15,0.01
				c0.19,0.01,0.3,0.05,0.35,0.08c0.03,0.02,0.06,0.06,0.07,0.09c0.02,0.05,0.04,0.11,0.04,0.19c0,0.07-0.01,0.13-0.04,0.18
				c-0.02,0.04-0.06,0.08-0.1,0.11c-0.07,0.05-0.18,0.08-0.32,0.09c-0.08,0.01-0.16,0.02-0.26,0.02c-0.27,0-0.51-0.05-0.74-0.14
				c-0.23-0.09-0.44-0.22-0.64-0.37c-0.05-0.04-0.12-0.03-0.15,0.02l-0.73,0.91c-0.04,0.05-0.03,0.11,0.01,0.15
				c0.28,0.25,0.62,0.45,0.98,0.59c0.37,0.14,0.78,0.21,1.23,0.21c0.1,0,0.2-0.01,0.29-0.01c0.19-0.01,0.38-0.03,0.55-0.07
				c0.04-0.01,0.08-0.01,0.11-0.02c0.29-0.07,0.54-0.18,0.74-0.32c0.21-0.15,0.37-0.34,0.48-0.57c0.06-0.12,0.1-0.25,0.13-0.4
				c0.03-0.13,0.04-0.27,0.04-0.41c0-0.12-0.02-0.22-0.04-0.32C19.77,21.81,19.76,21.76,19.74,21.71z M19.46,22.89
				C19.46,22.9,19.45,22.9,19.46,22.89c-0.1,0.2-0.24,0.36-0.41,0.49c-0.14,0.1-0.32,0.18-0.52,0.24c-0.05,0.02-0.09,0.04-0.15,0.05
				c-0.18,0.04-0.39,0.07-0.61,0.08c-0.1,0.01-0.19,0.01-0.29,0.01c-0.42,0-0.81-0.07-1.15-0.2c-0.31-0.12-0.59-0.28-0.84-0.48
				l0.59-0.75c0.19,0.14,0.4,0.25,0.61,0.34c0.25,0.1,0.52,0.15,0.82,0.15c0.1,0,0.18-0.01,0.26-0.01c0.18-0.02,0.32-0.06,0.42-0.12
				c0,0,0.01,0,0.01-0.01c0.16-0.1,0.25-0.27,0.25-0.48c0-0.22-0.07-0.37-0.21-0.47c-0.01-0.01-0.03-0.02-0.05-0.02
				c-0.1-0.05-0.24-0.09-0.42-0.1c-0.05,0-0.09-0.01-0.15-0.01h-0.62v-0.88h0.54c0.09,0,0.16-0.01,0.23-0.01
				c0.13-0.02,0.23-0.05,0.3-0.09c0.06-0.04,0.1-0.09,0.12-0.16c0.03-0.07,0.05-0.16,0.05-0.27c0-0.08-0.02-0.15-0.05-0.22
				c-0.04-0.07-0.09-0.13-0.16-0.18c-0.07-0.04-0.15-0.07-0.26-0.09c-0.1-0.02-0.21-0.03-0.34-0.03c-0.26,0-0.5,0.04-0.71,0.12
				c-0.18,0.07-0.36,0.16-0.53,0.27l-0.54-0.74c0.09-0.07,0.19-0.13,0.28-0.19c0.13-0.08,0.28-0.14,0.43-0.2
				c0.15-0.06,0.32-0.1,0.5-0.14c0.18-0.03,0.38-0.05,0.6-0.05c0.11,0,0.21,0.01,0.31,0.01c0.15,0.01,0.29,0.03,0.42,0.05
				c0.03,0,0.06,0.01,0.08,0.01c0.23,0.05,0.44,0.13,0.61,0.24c0.16,0.11,0.29,0.24,0.38,0.41c0.09,0.17,0.13,0.38,0.13,0.63
				c0,0.13-0.02,0.24-0.05,0.33c-0.04,0.1-0.08,0.18-0.13,0.25c-0.05,0.07-0.12,0.13-0.19,0.18c-0.08,0.05-0.16,0.1-0.24,0.14
				c-0.04,0.02-0.07,0.06-0.06,0.11c0.01,0.05,0.04,0.08,0.08,0.09c0.11,0.03,0.21,0.07,0.32,0.12c0.1,0.05,0.18,0.11,0.25,0.19
				c0.07,0.08,0.13,0.18,0.17,0.29c0.03,0.09,0.05,0.19,0.06,0.3c0,0.03,0.01,0.06,0.01,0.09C19.6,22.45,19.56,22.69,19.46,22.89z"
				/>
			<path d="M20.28,19.28c-0.01,0-0.02,0-0.03,0c-0.06,0-0.1,0.05-0.1,0.11v0.89c0,0.06,0.05,0.11,0.11,0.11h0.02h0.48h0.25v3.39
				c0,0.06,0.05,0.11,0.11,0.11h1.38c0.06,0,0.11-0.05,0.11-0.11v-5.08c0-0.06-0.05-0.11-0.11-0.11h-1.18
				c-0.05,0-0.09,0.03-0.1,0.08c-0.04,0.11-0.08,0.2-0.13,0.28c-0.04,0.07-0.1,0.13-0.17,0.17c-0.04,0.03-0.1,0.05-0.16,0.07
				c-0.03,0.01-0.07,0.02-0.11,0.03C20.55,19.26,20.43,19.27,20.28,19.28z M20.76,19.43c0.1-0.03,0.2-0.07,0.28-0.12
				c0.1-0.06,0.18-0.14,0.24-0.24c0.05-0.07,0.09-0.16,0.12-0.25h0.99v4.86h-1.16v-3.39c0-0.06-0.05-0.11-0.11-0.11h-0.36h-0.39
				V19.5c0.13-0.01,0.24-0.03,0.34-0.05C20.72,19.44,20.74,19.43,20.76,19.43z"/>
		</g>
	</g>
</g>
</svg>
