<?xml version="1.0" encoding="utf-8"?>
<!-- Generator: Adobe Illustrator 21.1.0, SVG Export Plug-In . SVG Version: 6.00 Build 0)  -->
<!DOCTYPE svg PUBLIC "-//W3C//DTD SVG 1.1//EN" "http://www.w3.org/Graphics/SVG/1.1/DTD/svg11.dtd">
<svg version="1.1" id="Layer_1" xmlns="http://www.w3.org/2000/svg" xmlns:xlink="http://www.w3.org/1999/xlink" x="0px" y="0px"
	 viewBox="0 0 32 32" style="enable-background:new 0 0 32 32;" xml:space="preserve">
<path d="M5.62,12.8c0.05-0.19,0.11-0.38,0.18-0.56c0.04-0.12-0.02-0.25-0.14-0.3c-0.12-0.04-0.25,0.02-0.3,0.14
	c-0.07,0.2-0.14,0.4-0.19,0.61c-0.06,0.25-0.11,0.5-0.15,0.76c-0.04,0.29-0.06,0.59-0.06,0.89c0,0.34,0.02,0.68,0.07,1.02
	c0.05,0.37,0.13,0.75,0.24,1.13c0.03,0.1,0.12,0.17,0.22,0.17c0.02,0,0.04,0,0.06-0.01c0.12-0.03,0.19-0.16,0.16-0.28
	c-0.1-0.36-0.18-0.71-0.23-1.06c-0.04-0.32-0.07-0.64-0.07-0.95c0-0.28,0.02-0.56,0.06-0.83C5.52,13.26,5.57,13.03,5.62,12.8
	L5.62,12.8z M5.83,11.59c0.02,0.01,0.05,0.02,0.08,0.02c0.05,0,0.11-0.03,0.13-0.08c0.03-0.05,0.05-0.08,0.05-0.08
	c0.05-0.07,0.03-0.16-0.04-0.21c-0.07-0.05-0.16-0.03-0.21,0.04c0,0-0.02,0.03-0.06,0.1C5.73,11.45,5.75,11.55,5.83,11.59
	L5.83,11.59z M6.02,13.13C6.01,13.17,5.74,14,6.06,15.39c0.02,0.07,0.08,0.12,0.15,0.12c0.01,0,0.02,0,0.03,0
	c0.08-0.02,0.13-0.1,0.11-0.18c-0.3-1.29-0.05-2.08-0.05-2.09c0.03-0.08-0.02-0.17-0.1-0.19C6.13,13.01,6.04,13.05,6.02,13.13
	L6.02,13.13z M22.1,24.64c-0.26,0.27-0.53,0.51-0.81,0.73c-0.25,0.2-0.52,0.38-0.79,0.53c-0.24,0.14-0.49,0.26-0.75,0.37
	c-0.22,0.09-0.44,0.17-0.68,0.23c-0.19,0.05-0.38,0.1-0.58,0.13c-0.12,0.02-0.21,0.14-0.19,0.27c0.02,0.11,0.12,0.19,0.23,0.19
	c0.01,0,0.03,0,0.04,0c0.21-0.04,0.42-0.08,0.62-0.14c0.25-0.07,0.49-0.15,0.73-0.25c0.27-0.11,0.55-0.25,0.8-0.39
	c0.29-0.17,0.58-0.36,0.85-0.57c0.3-0.23,0.58-0.49,0.86-0.77c0.09-0.09,0.08-0.24-0.01-0.33C22.33,24.55,22.19,24.55,22.1,24.64
	L22.1,24.64z M17.77,26.78c-0.06,0-0.09,0-0.1,0c-0.08-0.01-0.16,0.06-0.16,0.14s0.06,0.16,0.14,0.16c0,0,0.04,0,0.12,0
	c0.08,0,0.15-0.07,0.15-0.15S17.85,26.78,17.77,26.78L17.77,26.78z M19.13,26c0.01,0,0.02,0,0.03,0c0.04-0.01,0.9-0.2,1.93-1.17
	c0.06-0.06,0.07-0.16,0.01-0.22c-0.06-0.06-0.16-0.07-0.22-0.01c-0.97,0.91-1.78,1.09-1.79,1.09c-0.08,0.02-0.14,0.1-0.12,0.18
	C19,25.95,19.06,26,19.13,26z M21.09,6.31c0.36,0.09,0.71,0.2,1.03,0.34c0.3,0.12,0.58,0.26,0.86,0.42c0.24,0.14,0.48,0.3,0.69,0.47
	c0.19,0.15,0.37,0.3,0.54,0.47c0.14,0.14,0.28,0.28,0.4,0.43c0.05,0.05,0.11,0.08,0.18,0.08c0.05,0,0.1-0.02,0.15-0.05
	c0.1-0.08,0.11-0.23,0.03-0.32c-0.14-0.16-0.28-0.32-0.43-0.47c-0.18-0.18-0.38-0.35-0.58-0.5c-0.23-0.18-0.48-0.35-0.74-0.5
	c-0.29-0.17-0.6-0.32-0.92-0.45c-0.35-0.14-0.72-0.26-1.1-0.36c-0.12-0.03-0.25,0.05-0.28,0.17C20.89,6.16,20.97,6.28,21.09,6.31
	L21.09,6.31z M25.15,9.08c0.03,0.05,0.08,0.09,0.14,0.09c0.02,0,0.05-0.01,0.07-0.02c0.08-0.04,0.11-0.13,0.07-0.2
	c0,0-0.02-0.04-0.06-0.1c-0.04-0.07-0.14-0.1-0.21-0.06c-0.07,0.04-0.1,0.14-0.06,0.21C25.14,9.05,25.15,9.08,25.15,9.08L25.15,9.08
	z M21.76,7.09c-0.08-0.02-0.17,0.02-0.19,0.1c-0.02,0.08,0.02,0.17,0.1,0.19c1.27,0.39,1.83,0.99,1.84,1
	c0.03,0.03,0.07,0.05,0.11,0.05c0.04,0,0.07-0.01,0.1-0.04c0.06-0.06,0.07-0.15,0.01-0.22C23.71,8.15,23.11,7.5,21.76,7.09
	L21.76,7.09z M23.72,12.41c-1.32-0.14-2.58,0.95-2.64,0.99c-0.06,0.06-0.07,0.15-0.01,0.22c0.03,0.03,0.07,0.05,0.12,0.05
	c0.04,0,0.07-0.01,0.1-0.04c0.01-0.01,1.21-1.05,2.4-0.92c0.52,0.06,0.96,0.33,1.32,0.82c0.05,0.07,0.15,0.08,0.21,0.03
	c0.07-0.05,0.08-0.15,0.03-0.21C24.84,12.79,24.33,12.47,23.72,12.41z M15.88,21.2c-0.08,0.01-0.15,0.08-0.14,0.16
	c0,0.02,0.11,1.6-0.71,2.47c-0.35,0.37-0.83,0.56-1.42,0.56c-0.01,0-0.02,0-0.03,0c-0.08,0-0.15,0.07-0.15,0.15s0.07,0.15,0.15,0.15
	h0.03c0.68,0,1.24-0.22,1.65-0.66c0.91-0.97,0.8-2.63,0.79-2.7C16.04,21.26,15.96,21.2,15.88,21.2L15.88,21.2z M26.97,15.1
	c-0.09-0.88-0.33-1.64-0.7-2.26c-0.83-1.41-2.25-1.99-4.03-1.63c-1.48,0.3-2.63,1.17-3.75,2.01l-0.26,0.2
	c-0.26-0.24-0.57-0.43-0.9-0.57c0.12-0.29,0.29-0.55,0.51-0.82c0.42-0.5,1.04-1.03,2-1.7c0.08-0.06,0.17-0.12,0.25-0.2
	c0.45-0.4,0.74-0.92,0.81-1.48c0.08-0.6-0.08-1.2-0.45-1.74C20.4,6.8,20.33,6.7,20.24,6.6c-0.97-1.09-2.53-1.69-4.41-1.69
	c-1.16,0-2.39,0.23-3.54,0.65c-0.84,0.31-1.63,0.73-2.27,1.2C9.31,7.28,8.76,7.87,8.41,8.5c-0.57,1.01-0.93,2.57,0.6,4.3
	c1,1.13,2.33,1.69,3.61,2.24l0.06,0.03c0.08,0.03,0.16,0.07,0.24,0.1c-0.04,0.22-0.07,0.44-0.07,0.66c0,0.13,0.01,0.27,0.03,0.4
	c-0.31,0.04-0.62,0.03-0.97-0.03c-0.64-0.11-1.41-0.38-2.48-0.88c-0.1-0.05-0.2-0.09-0.3-0.12C8.57,15,7.97,15.02,7.45,15.23
	c-0.56,0.23-1,0.67-1.28,1.27c-0.05,0.11-0.1,0.23-0.14,0.35c-0.88,2.62,0.91,5.61,3.08,7.4c0.69,0.58,1.45,1.05,2.17,1.37
	c0.79,0.35,1.56,0.53,2.27,0.53h0.04c1.16-0.01,2.69-0.48,3.43-2.67c0.48-1.43,0.31-2.86,0.14-4.24c-0.01-0.11-0.03-0.22-0.04-0.33
	c0.34-0.11,0.65-0.28,0.94-0.49c0.19,0.25,0.34,0.53,0.46,0.85c0.23,0.61,0.37,1.41,0.47,2.59c0.01,0.1,0.02,0.21,0.05,0.32
	c0.12,0.58,0.43,1.09,0.88,1.44c0.48,0.37,1.1,0.53,1.73,0.48c0.11-0.01,0.24-0.03,0.38-0.06c2.71-0.55,4.4-3.6,4.88-6.37
	C27.03,16.78,27.07,15.89,26.97,15.1L26.97,15.1z M26.43,17.58c-0.45,2.62-2.02,5.49-4.52,5.99c-0.12,0.02-0.22,0.04-0.32,0.05
	c-0.55,0.05-1.03-0.09-1.42-0.38c-0.36-0.28-0.61-0.68-0.71-1.17c-0.02-0.09-0.03-0.18-0.04-0.27c-0.1-1.23-0.26-2.06-0.5-2.71
	c-0.16-0.43-0.37-0.79-0.64-1.11c0.29-0.31,0.62-0.81,0.83-1.58c0.02-0.08-0.03-0.17-0.11-0.19s-0.17,0.03-0.19,0.11
	c-0.2,0.74-0.53,1.21-0.79,1.48l-0.12,0.1c-0.32,0.28-0.71,0.49-1.13,0.6l-0.19,0.05l0.02,0.2c0.02,0.17,0.04,0.35,0.06,0.52
	c0.16,1.33,0.33,2.71-0.12,4.04c-0.51,1.53-1.55,2.34-2.99,2.36h-0.03c-0.65,0-1.35-0.16-2.09-0.49c-0.69-0.3-1.4-0.75-2.06-1.3
	c-2.04-1.7-3.74-4.49-2.93-6.91c0.03-0.1,0.07-0.2,0.12-0.3c0.23-0.49,0.59-0.85,1.04-1.04c0.22-0.09,0.46-0.14,0.71-0.14
	c0.22,0,0.44,0.04,0.66,0.11c0.08,0.03,0.16,0.06,0.25,0.1c1.11,0.52,1.91,0.81,2.6,0.92c0.45,0.08,0.86,0.08,1.28,0.01
	c0.11,0.36,0.32,0.78,0.68,1.23c0.03,0.04,0.07,0.06,0.12,0.06c0.03,0,0.07-0.01,0.1-0.03c0.07-0.05,0.08-0.15,0.02-0.22
	c-0.34-0.42-0.53-0.82-0.63-1.15l-0.03-0.17c-0.04-0.18-0.06-0.36-0.06-0.55c0-0.25,0.03-0.49,0.1-0.73l0.05-0.19l-0.18-0.08
	c-0.14-0.06-0.28-0.12-0.42-0.18l-0.06-0.03c-1.24-0.53-2.51-1.07-3.44-2.12C8.28,11.28,8.09,9.98,8.8,8.72
	c0.32-0.57,0.82-1.11,1.48-1.59c0.61-0.45,1.36-0.84,2.16-1.14c1.1-0.41,2.27-0.62,3.38-0.62c1.74,0,3.19,0.55,4.06,1.54
	c0.08,0.09,0.14,0.17,0.2,0.25c0.31,0.45,0.44,0.94,0.38,1.42c-0.06,0.45-0.29,0.87-0.66,1.19c-0.07,0.06-0.14,0.12-0.21,0.17
	c-1,0.7-1.65,1.25-2.1,1.79c-0.29,0.35-0.5,0.71-0.64,1.1c-0.38-0.08-0.93-0.1-1.64,0.1c-0.08,0.02-0.13,0.11-0.11,0.19
	c0.02,0.08,0.11,0.13,0.19,0.11c0.65-0.18,1.14-0.17,1.48-0.1l0.19,0.06c0.4,0.14,0.77,0.37,1.09,0.68L18.2,14l0.58-0.43
	c1.07-0.81,2.18-1.64,3.56-1.92c1.59-0.32,2.8,0.16,3.54,1.41c0.33,0.57,0.55,1.27,0.64,2.08C26.6,15.9,26.57,16.74,26.43,17.58
	L26.43,17.58z M16.09,13.6c-1.19,0-2.17,0.97-2.17,2.17s0.97,2.17,2.17,2.17s2.17-0.97,2.17-2.17S17.29,13.6,16.09,13.6z
	 M16.09,17.63c-1.03,0-1.86-0.83-1.86-1.86c0-1.02,0.83-1.86,1.86-1.86c1.02,0,1.86,0.83,1.86,1.86
	C17.95,16.79,17.12,17.63,16.09,17.63z M16.12,14.61c-0.62,0-1.13,0.51-1.13,1.13c0,0.62,0.51,1.13,1.13,1.13
	c0.62,0,1.13-0.51,1.13-1.13C17.25,15.12,16.74,14.61,16.12,14.61z M16.12,16.56c-0.45,0-0.82-0.37-0.82-0.82s0.37-0.82,0.82-0.82
	c0.45,0,0.82,0.37,0.82,0.82C16.94,16.19,16.57,16.56,16.12,16.56z M9.69,10.09c0-0.52,0.23-0.99,0.67-1.4
	c0.06-0.06,0.07-0.15,0.01-0.22c-0.06-0.06-0.15-0.07-0.22-0.01c-0.51,0.47-0.77,1.02-0.77,1.63c0,1.33,1.22,2.47,1.27,2.51
	c0.03,0.03,0.07,0.04,0.1,0.04c0.04,0,0.08-0.02,0.11-0.05c0.06-0.06,0.05-0.16-0.01-0.22C10.85,12.37,9.69,11.28,9.69,10.09
	L9.69,10.09z"/>
</svg>
