<?xml version="1.0" encoding="utf-8"?>
<!-- Generator: Adobe Illustrator 21.1.0, SVG Export Plug-In . SVG Version: 6.00 Build 0)  -->
<!DOCTYPE svg PUBLIC "-//W3C//DTD SVG 1.1//EN" "http://www.w3.org/Graphics/SVG/1.1/DTD/svg11.dtd">
<svg version="1.1" id="Layer_1" xmlns="http://www.w3.org/2000/svg" xmlns:xlink="http://www.w3.org/1999/xlink" x="0px" y="0px"
	 viewBox="0 0 32 32" style="enable-background:new 0 0 32 32;" xml:space="preserve">
<path d="M21.82,6.23c0-1.32-1.08-2.4-2.4-2.4s-2.4,1.08-2.4,2.4s1.08,2.4,2.4,2.4S21.82,7.56,21.82,6.23z M17.63,6.23
	c0-0.99,0.8-1.79,1.79-1.79c0.99,0,1.79,0.8,1.79,1.79s-0.8,1.79-1.79,1.79C18.43,8.02,17.63,7.22,17.63,6.23z M15.37,14.61v-1.7
	c0-1.94,1.27-3.1,3.39-3.1h1.32c2.12,0,3.39,1.16,3.39,3.1v1.7c0,0.18-0.02,0.35-0.06,0.51h0.63c0.03-0.16,0.04-0.33,0.04-0.51v-1.7
	c0-1.8-1.05-3.71-4-3.71h-1.32c-2.95,0-4,1.92-4,3.71v1.7c0,0.18,0.02,0.35,0.05,0.51h0.63C15.4,14.96,15.37,14.8,15.37,14.61z
	 M26.44,15.12h-3.97l0.07-2.64c0-0.13-0.1-0.23-0.22-0.24c-0.12,0-0.23,0.1-0.24,0.22l-0.07,2.66h-5.14l-0.12-2.66
	c-0.01-0.13-0.11-0.23-0.24-0.22c-0.13,0.01-0.23,0.11-0.22,0.24l0.12,2.64H5c-0.17,0-0.31,0.14-0.31,0.31v1.29
	c0,0.17,0.14,0.31,0.31,0.31h1.53v8.78c0,0.17,0.14,0.31,0.31,0.31h19.61c0.17,0,0.31-0.14,0.31-0.31v-9.09v-1.29
	C26.75,15.25,26.61,15.11,26.44,15.12L26.44,15.12z M7.14,25.5v-8.48h19v8.48L7.14,25.5L7.14,25.5z M5.31,15.73h20.83v0.68H5.31
	C5.31,16.41,5.31,15.73,5.31,15.73z"/>
</svg>
