<?xml version="1.0" encoding="utf-8"?>
<!-- Generator: Adobe Illustrator 21.1.0, SVG Export Plug-In . SVG Version: 6.00 Build 0)  -->
<!DOCTYPE svg PUBLIC "-//W3C//DTD SVG 1.1//EN" "http://www.w3.org/Graphics/SVG/1.1/DTD/svg11.dtd">
<svg version="1.1" id="Layer_1" xmlns="http://www.w3.org/2000/svg" xmlns:xlink="http://www.w3.org/1999/xlink" x="0px" y="0px"
	 viewBox="0 0 31.68 31.68" style="enable-background:new 0 0 31.68 31.68;" xml:space="preserve">
<path d="M10.08,22.34c0.02-0.28-0.08-0.55-0.28-0.75c-0.27-0.16-0.61-0.07-0.76,0.2c-0.03,0.04-0.05,0.09-0.06,0.14
	c-0.07,0.3,0,0.62,0.19,0.86c0.04,0.04,0.08,0.09,0.11,0.13c0.13,0.18,0.31,0.32,0.51,0.4c0.02,0,0.05,0,0.07,0
	c0.08,0,0.15-0.06,0.17-0.14c0-0.05,0.02-0.1,0.03-0.15c0.06-0.16,0.07-0.33,0.04-0.5C10.1,22.47,10.09,22.41,10.08,22.34z
	 M9.74,22.91c-0.08-0.06-0.14-0.14-0.2-0.21c-0.04-0.05-0.08-0.1-0.13-0.15C9.3,22.4,9.26,22.2,9.3,22.02
	c0.01-0.07,0.06-0.13,0.13-0.15c0.06-0.02,0.12-0.02,0.17,0c0.1,0.07,0.12,0.34,0.13,0.5c0.01,0.09,0.02,0.18,0.03,0.26
	c0.02,0.09,0.01,0.19-0.01,0.28H9.74z M15.84,3.25c-6.95,0-12.59,5.64-12.59,12.59s5.64,12.59,12.59,12.59s12.59-5.64,12.59-12.59
	l0,0C28.42,8.89,22.79,3.26,15.84,3.25z M6.21,22.86C2.99,18.44,3.19,12.39,6.7,8.2l0.4,0.38C7.14,8.62,7.2,8.64,7.25,8.63
	c0.05-0.01,0.1-0.04,0.12-0.09C7.6,8.08,8.13,7.85,8.69,7.65C8.8,7.61,8.92,7.58,9.03,7.57C9.11,7.57,9.18,7.58,9.25,7.6l0.11,0.02
	c0.5,0.08,1.01-0.09,1.36-0.45c0.11-0.11,0.17-0.25,0.17-0.4c-0.01-0.09-0.05-0.18-0.12-0.23c-0.2-0.16-0.42,0-0.55,0.09l-0.11,0.07
	c0.01-0.07,0.02-0.13,0.05-0.19c0.03-0.09,0.09-0.16,0.17-0.21c0.19-0.06,0.39-0.09,0.6-0.09c0.23,0,0.46-0.04,0.68-0.11
	c0.21-0.07,0.34-0.08,0.4,0c0.06,0.08,0.03,0.13,0,0.26c-0.02,0.12-0.02,0.25,0,0.37c0.01,0.05,0.05,0.09,0.1,0.11
	c0.34,0.1,0.7,0.03,0.97-0.18c0.14-0.08,0.29-0.15,0.44-0.2c0.22-0.03,0.44-0.02,0.66,0.03c0.22,0.05,0.45,0.07,0.68,0.05
	c0.34-0.06,0.66-0.2,0.94-0.41c0.23-0.17,0.5-0.3,0.78-0.36c0.28-0.01,0.55,0.03,0.81,0.13c0.15,0.04,0.29,0.09,0.44,0.11
	c0.53,0.1,1.09,0.02,1.57-0.22l0.22-0.12c0.22-0.17,0.49-0.26,0.77-0.23c0.22,0.1,0.41,0.27,0.52,0.49
	c0.07,0.08,0.11,0.17,0.11,0.27c-0.03,0.07-0.07,0.13-0.13,0.18c-0.05,0.05-0.09,0.1-0.13,0.15c-0.28,0.4-0.07,0.94,0.26,1.25
	c0.16,0.14,0.33,0.26,0.51,0.36c0.15,0.09,0.3,0.19,0.43,0.3c0.23,0.2,0.41,0.55,0.27,0.8c-0.03,0.05-0.07,0.1-0.12,0.15
	c-0.06,0.06-0.11,0.13-0.16,0.2c-0.06,0.11-0.1,0.22-0.14,0.34c-0.07,0.22-0.12,0.32-0.2,0.34c-0.04,0.01-0.08,0.01-0.12,0
	c-0.12-0.04-0.25-0.03-0.36,0.03c-0.09,0.05-0.15,0.15-0.16,0.26c-0.01,0.17,0.06,0.34,0.18,0.46l0.09,0.08
	c0.09,0.08,0.17,0.15,0.17,0.22c0,0.03,0,0.05,0,0.08c-0.02,0.07-0.02,0.15,0,0.22c0.04,0.12,0.12,0.22,0.22,0.29
	c0.31,0.26,0.63,0.7,0.48,1.09c-0.11,0.29-0.43,0.45-0.77,0.63c-0.42,0.21-0.84,0.43-0.93,0.92c-0.03,0.3,0.04,0.6,0.2,0.86
	c0.04,0.1,0.09,0.19,0.13,0.29c0.06,0.19,0.04,0.4-0.06,0.57c-0.04,0.06-0.1,0.09-0.16,0.09c-0.12,0-0.22-0.11-0.34-0.24
	c-0.1-0.12-0.21-0.22-0.34-0.3c-0.18-0.11-0.39-0.14-0.59-0.08c-0.02-0.19-0.15-0.34-0.32-0.41c-0.05-0.02-0.11-0.03-0.16-0.03H18.7
	c-0.17-0.03-0.26-0.22-0.38-0.52s-0.27-0.68-0.65-0.73c-0.36-0.01-0.69,0.21-0.8,0.55c-0.04,0.09-0.07,0.17-0.1,0.27
	c-0.05,0.16-0.12,0.31-0.22,0.45c-0.09,0.09-0.19,0.17-0.3,0.24c-0.2,0.11-0.36,0.28-0.47,0.47c-0.06,0.15-0.09,0.3-0.1,0.46
	c0.01,0.14-0.03,0.28-0.12,0.39c-0.05,0.04-0.11,0.05-0.17,0.04c-0.11-0.01-0.21-0.06-0.28-0.15c-0.13-0.19-0.2-0.41-0.22-0.64
	l-0.16-0.89c-0.04-0.22-0.13-0.73-0.54-0.87c-0.09-0.03-0.19-0.04-0.29-0.04c-0.07,0-0.14-0.01-0.21-0.03
	c-0.1-0.07-0.18-0.16-0.23-0.28c-0.07-0.15-0.18-0.28-0.32-0.38c-0.21-0.11-0.45-0.14-0.68-0.09c-0.12,0.02-0.25,0.02-0.37,0
	c-0.2-0.07-0.37-0.18-0.51-0.34c-0.18-0.2-0.42-0.34-0.68-0.41c-0.19-0.03-0.38,0.02-0.53,0.14c-0.11,0.09-0.18,0.23-0.19,0.37
	c0.02,0.27,0.2,0.51,0.46,0.59l0.15,0.06c0.12,0.03,0.24,0.09,0.34,0.17c0.15,0.2,0.15,0.48,0,0.68c-0.17,0.23-0.4,0.43-0.65,0.57
	c-0.29,0.18-0.81,0.46-1.08,0.2c-0.1-0.12-0.17-0.26-0.21-0.42l-0.59-2.04c-0.1-0.34-0.31-0.52-0.54-0.47
	c-0.06,0.01-0.1,0.06-0.12,0.12c-0.16,0.55-0.26,1.12-0.27,1.7c-0.02,0.19,0.01,0.38,0.09,0.55c0.08,0.13,0.19,0.25,0.32,0.34
	c0.07,0.05,0.14,0.11,0.19,0.18c0.07,0.11,0.13,0.22,0.17,0.34c0.07,0.26,0.24,0.47,0.48,0.59c0.13,0.04,0.26,0.05,0.39,0.03
	c0.07-0.01,0.14-0.01,0.21,0c0.1,0.02,0.2,0.08,0.25,0.17c0.1,0.15,0.13,0.33,0.1,0.51c-0.11,0.33-0.31,0.63-0.58,0.85l-1.47,1.53
	c-0.05,0.05-0.06,0.12-0.04,0.18c0.11,0.28,0.25,0.55,0.43,0.79c0.17,0.19,0.25,0.43,0.25,0.68c-0.06,0.22-0.18,0.42-0.34,0.58
	c-0.09,0.1-0.17,0.2-0.24,0.31c-0.06,0.08-0.09,0.18-0.09,0.28c0.01,0.11,0.07,0.21,0.15,0.29l0.05-0.02c0.22,0.28,0.1,0.72,0,0.97
	c-0.06,0.15-0.12,0.23-0.18,0.24c-0.05-0.01-0.11-0.02-0.16-0.05C7.16,23.53,6.67,23.21,6.21,22.86z M23.53,24.94l-0.04-0.38
	c0-0.14-0.04-0.28-0.12-0.4c-0.17-0.21-0.45-0.3-0.71-0.21c-0.18,0.06-0.34,0.15-0.49,0.27l-0.07,0.05
	c-0.03,0.02-0.06,0.04-0.1,0.05c-0.04,0-0.14-0.11-0.21-0.31l-0.42-1.23c-0.12-0.25-0.15-0.53-0.07-0.8
	c0.13-0.2,0.31-0.36,0.52-0.46c0.82-0.49,1.61-1.03,2.36-1.61c0.13-0.1,0.36-0.26,0.48-0.17c0.06,0.06,0.1,0.12,0.13,0.2
	c0.07,0.15,0.18,0.36,0.43,0.36c0.16-0.01,0.31-0.1,0.4-0.23l0.04-0.04c0.04-0.04,0.09-0.06,0.09-0.07c0,0.02,0,0.05,0,0.07v0.09
	c0.02,0.31,0.27,0.47,0.48,0.61c0.15,0.1,0.29,0.19,0.34,0.31C25.86,22.53,24.81,23.86,23.53,24.94z M26.44,20.41
	c-0.2-0.13-0.32-0.22-0.34-0.34v-0.06c0.01-0.1-0.01-0.2-0.06-0.28c-0.05-0.07-0.14-0.12-0.23-0.12c-0.14,0-0.28,0.06-0.38,0.16
	l-0.05,0.05c-0.05,0.05-0.11,0.12-0.15,0.12s-0.07-0.07-0.13-0.18c-0.05-0.12-0.13-0.23-0.23-0.32c-0.16-0.12-0.44-0.18-0.89,0.17
	c-0.74,0.58-1.52,1.11-2.32,1.59c-0.28,0.13-0.51,0.34-0.66,0.61c-0.11,0.35-0.09,0.73,0.07,1.06l0.42,1.24
	c0.1,0.3,0.32,0.6,0.61,0.53c0.08-0.02,0.15-0.06,0.21-0.11l0.07-0.05c0.12-0.09,0.25-0.17,0.38-0.22c0.12-0.04,0.25-0.01,0.34,0.08
	c0.04,0.08,0.06,0.16,0.06,0.24l0.06,0.61c-4.94,3.91-12.06,3.29-16.25-1.41c0.18,0.11,0.36,0.21,0.54,0.31
	c0.1,0.06,0.21,0.1,0.32,0.11h0.03c0.2,0,0.36-0.17,0.47-0.45c0.21-0.54,0.19-1-0.06-1.3l-0.04-0.04c-0.02-0.03-0.05-0.06-0.06-0.09
	c0,0,0-0.02,0.03-0.07c0.07-0.1,0.14-0.19,0.21-0.29c0.21-0.21,0.35-0.47,0.41-0.76c0.02-0.33-0.09-0.66-0.31-0.92
	c-0.14-0.19-0.25-0.4-0.34-0.61l1.38-1.45c0.31-0.27,0.54-0.63,0.66-1.02c0.06-0.27,0.01-0.55-0.14-0.78
	c-0.11-0.17-0.28-0.28-0.48-0.32c-0.1-0.01-0.2-0.01-0.29,0c-0.08,0.02-0.17,0.02-0.26,0c-0.14-0.05-0.2-0.21-0.28-0.39
	c-0.05-0.14-0.13-0.28-0.22-0.4c-0.07-0.09-0.16-0.16-0.25-0.23c-0.09-0.07-0.17-0.16-0.23-0.26c-0.05-0.12-0.07-0.25-0.05-0.38
	c0.01-0.48,0.08-0.96,0.2-1.42c0.03,0.05,0.05,0.1,0.06,0.16l0.59,2.04c0.04,0.22,0.14,0.42,0.29,0.58c0.23,0.22,0.68,0.37,1.5-0.16
	c0.3-0.17,0.56-0.4,0.76-0.68c0.23-0.34,0.2-0.78-0.06-1.09c-0.13-0.11-0.28-0.2-0.44-0.25l-0.14-0.06
	c-0.12-0.05-0.26-0.16-0.26-0.28c0-0.05,0.03-0.09,0.06-0.12c0.07-0.06,0.16-0.08,0.26-0.07c0.2,0.06,0.37,0.17,0.51,0.32
	c0.18,0.2,0.42,0.35,0.68,0.42c0.16,0.02,0.32,0.02,0.47,0c0.15-0.04,0.31-0.03,0.46,0.04c0.09,0.07,0.16,0.16,0.21,0.27
	c0.08,0.18,0.22,0.33,0.39,0.42c0.11,0.04,0.22,0.06,0.34,0.06c0.06,0,0.13,0.01,0.19,0.02c0.2,0.07,0.27,0.36,0.32,0.61l0.13,0.92
	c0.03,0.29,0.13,0.56,0.3,0.8c0.13,0.15,0.31,0.25,0.51,0.27c0.15,0.02,0.3-0.03,0.42-0.12c0.16-0.17,0.25-0.4,0.24-0.63
	c0-0.12,0.03-0.23,0.07-0.34c0.08-0.14,0.2-0.26,0.34-0.34c0.14-0.08,0.26-0.19,0.37-0.31c0.13-0.17,0.22-0.35,0.28-0.55
	c0.03-0.08,0.06-0.16,0.09-0.24c0.09-0.19,0.26-0.39,0.44-0.36s0.26,0.21,0.38,0.52c0.12,0.31,0.27,0.68,0.64,0.73h0.09
	c0.03,0,0.05,0,0.08,0c0.07,0.02,0.12,0.15,0.12,0.36c0,0.09,0.08,0.17,0.17,0.17c0.04,0,0.08-0.02,0.11-0.04
	c0.12-0.1,0.28-0.12,0.42-0.05c0.1,0.06,0.18,0.14,0.26,0.23c0.14,0.19,0.35,0.31,0.58,0.34c0.18,0.02,0.36-0.05,0.48-0.19
	c0.17-0.26,0.21-0.59,0.11-0.88c-0.04-0.11-0.09-0.21-0.14-0.32c-0.12-0.2-0.18-0.43-0.17-0.66c0.06-0.32,0.38-0.48,0.75-0.68
	c0.4-0.14,0.73-0.43,0.93-0.81c0.21-0.55-0.16-1.12-0.59-1.47c-0.04-0.03-0.09-0.08-0.1-0.11c0-0.03,0-0.06,0-0.09
	c0.05-0.24-0.06-0.49-0.27-0.61l-0.07-0.07c-0.05-0.05-0.08-0.11-0.08-0.18c0.04-0.01,0.08-0.01,0.12,0
	c0.07,0.02,0.15,0.03,0.22,0.02c0.32-0.03,0.42-0.34,0.49-0.56c0.03-0.09,0.06-0.18,0.11-0.27c0.03-0.05,0.07-0.1,0.12-0.15
	c0.06-0.06,0.11-0.13,0.16-0.2c0.24-0.41,0-0.93-0.34-1.23c-0.15-0.13-0.31-0.24-0.48-0.34c-0.16-0.1-0.32-0.21-0.46-0.34
	c-0.23-0.21-0.38-0.57-0.21-0.8c0.03-0.04,0.06-0.08,0.1-0.11c0.11-0.09,0.18-0.21,0.22-0.34c0.02-0.19-0.04-0.38-0.17-0.53
	c-0.15-0.29-0.41-0.51-0.71-0.63C20.11,5,19.74,5.1,19.45,5.32l-0.2,0.11c-0.42,0.22-0.9,0.28-1.36,0.19
	c-0.14-0.03-0.27-0.06-0.41-0.11c-0.31-0.1-0.63-0.13-0.95-0.1c-0.33,0.07-0.65,0.21-0.92,0.41c-0.23,0.18-0.5,0.3-0.78,0.36
	c-0.19,0.01-0.38,0-0.57-0.05c-0.26-0.07-0.53-0.07-0.8-0.03c-0.18,0.05-0.36,0.13-0.52,0.23c-0.17,0.12-0.38,0.19-0.59,0.19
	c0-0.05,0-0.1,0-0.15c0.05-0.17,0.02-0.36-0.07-0.51c-0.11-0.14-0.34-0.27-0.79-0.1c-0.19,0.06-0.39,0.09-0.6,0.09
	c-0.23,0-0.46,0.04-0.68,0.11C10.03,6.06,9.9,6.2,9.83,6.37c-0.09,0.17-0.1,0.37-0.05,0.55C9.8,6.94,9.81,6.97,9.83,6.98
	c0.2,0.17,0.43,0,0.56-0.08c0.05-0.03,0.1-0.07,0.15-0.11c-0.01,0.06-0.03,0.11-0.07,0.15c-0.28,0.27-0.67,0.4-1.05,0.34l-0.1-0.02
	C9.22,7.24,9.13,7.23,9.03,7.22C8.88,7.23,8.73,7.27,8.58,7.33c-0.54,0.14-1.02,0.44-1.4,0.86L6.93,7.94
	c4.37-4.91,11.9-5.35,16.81-0.98c3.85,3.43,5.06,8.96,2.99,13.68C26.64,20.56,26.54,20.48,26.44,20.41L26.44,20.41z M26.49,17.8
	c-0.07-0.03-0.14-0.05-0.2-0.07c-0.11-0.02-0.21-0.06-0.3-0.12c-0.16-0.11-0.37-0.12-0.55-0.04c-0.16,0.07-0.27,0.21-0.29,0.38
	c-0.03,0.19,0.14,0.45,0.41,0.77l0.15-0.09l-0.13,0.11c0.09,0.12,0.23,0.19,0.38,0.2c0.07,0,0.14-0.02,0.2-0.07
	c0.08-0.07,0.13-0.16,0.15-0.27c0.01-0.03,0.02-0.06,0.03-0.09c0,0,0.05-0.02,0.13,0h0.05c0.1,0.02,0.21,0.02,0.31,0
	c0.07-0.02,0.13-0.09,0.13-0.16C26.93,18.1,26.75,17.87,26.49,17.8z M26.08,18.31c-0.05,0.07-0.09,0.14-0.1,0.23
	c0,0.02,0,0.05,0,0.07c-0.05-0.01-0.09-0.04-0.12-0.08v-0.02c-0.3-0.37-0.34-0.48-0.34-0.51c0-0.05,0.04-0.1,0.09-0.12
	c0.03-0.01,0.06-0.02,0.1-0.02c0.04,0,0.09,0.01,0.12,0.03c0.12,0.07,0.26,0.13,0.39,0.16c0.06,0.02,0.12,0.03,0.18,0.06
	c0.04,0.02,0.08,0.04,0.12,0.06C26.35,18.13,26.19,18.18,26.08,18.31z M22.99,17.63c0.11-0.11,0.14-0.28,0.07-0.42
	c-0.02-0.04-0.06-0.07-0.11-0.08c-0.19-0.04-0.38-0.01-0.55,0.09c-0.1,0.06-0.18,0.14-0.26,0.22c-0.05,0.06-0.11,0.11-0.18,0.16
	c-0.07,0.05-0.15,0.09-0.23,0.12c-0.23,0.11-0.55,0.25-0.54,0.68c-0.01,0.25,0.11,0.5,0.32,0.64c0.1,0.06,0.21,0.09,0.32,0.09
	c0.14,0,0.28-0.04,0.4-0.11l0.26-0.14c0.16-0.09,0.46-0.24,0.51-0.55c0.01-0.13,0-0.26-0.05-0.38c-0.03-0.08-0.04-0.16-0.03-0.24
	c0.02-0.02,0.03-0.05,0.05-0.07L22.99,17.63z M22.65,18.04c0.03,0.07,0.04,0.15,0.04,0.23c-0.02,0.12-0.17,0.21-0.34,0.3l-0.26,0.14
	c-0.12,0.08-0.27,0.09-0.39,0.03c-0.11-0.08-0.16-0.21-0.15-0.34c0-0.18,0.09-0.24,0.34-0.34c0.1-0.04,0.19-0.09,0.28-0.15
	c0.08-0.06,0.16-0.13,0.23-0.21c0.06-0.06,0.12-0.12,0.19-0.17c0.03-0.02,0.07-0.03,0.11-0.04c-0.02,0.03-0.04,0.06-0.06,0.1
	c-0.05,0.16-0.05,0.32,0.01,0.48L22.65,18.04z M20.37,18.77l-0.12-0.12c-0.31-0.32-0.79-0.79-1.19-0.73
	c-0.09,0.01-0.15,0.09-0.14,0.18c0.04,0.19,0.1,0.36,0.2,0.53c0.04,0.09,0.09,0.18,0.12,0.26c0.05,0.1,0.13,0.17,0.23,0.23l0.1,0.07
	c0.08,0.16,0.25,0.25,0.43,0.24c0.09,0,0.18-0.02,0.27-0.04c0.12-0.02,0.23-0.11,0.27-0.22c0.02-0.15-0.04-0.31-0.17-0.4
	L20.37,18.77z M20.17,19.08c-0.23,0.06-0.27,0.02-0.31-0.04c-0.05-0.07-0.12-0.13-0.19-0.18c-0.04-0.03-0.08-0.06-0.12-0.09
	c-0.03-0.09-0.08-0.18-0.13-0.28l-0.08-0.16c0.25,0.16,0.48,0.35,0.68,0.57l0.12,0.12l0.06,0.06L20.17,19.08z M23.57,11.45
	c-0.14-0.05-0.3-0.04-0.43,0.02c-0.11,0.06-0.19,0.16-0.22,0.29c-0.04,0.23-0.02,0.47,0.05,0.69c0.08,0.2,0.1,0.42,0.06,0.64
	c-0.14,0.34-0.32,0.68-0.52,0.99c-0.07,0.1-0.3,0.42-0.19,0.68c0.07,0.13,0.21,0.22,0.36,0.21h0.02c0.54,0,1.15-1.15,1.24-1.38
	c0.11-0.29,0.22-1.43-0.06-1.87c-0.06-0.12-0.17-0.21-0.31-0.23L23.57,11.45z M23.62,13.42c-0.14,0.39-0.68,1.16-0.92,1.16
	c-0.02,0-0.05,0-0.07,0c0.01-0.13,0.06-0.25,0.15-0.34c0.21-0.33,0.4-0.68,0.54-1.04c0.08-0.28,0.06-0.58-0.04-0.85
	c-0.05-0.16-0.08-0.32-0.07-0.48c0-0.06,0.04-0.07,0.05-0.07c0.06-0.02,0.12-0.02,0.18,0h0.04c0,0,0.04,0,0.08,0.06
	c0.22,0.34,0.13,1.35,0.04,1.59L23.62,13.42z"/>
</svg>
