<?xml version="1.0" encoding="utf-8"?>
<!-- Generator: Adobe Illustrator 21.1.0, SVG Export Plug-In . SVG Version: 6.00 Build 0)  -->
<!DOCTYPE svg PUBLIC "-//W3C//DTD SVG 1.1//EN" "http://www.w3.org/Graphics/SVG/1.1/DTD/svg11.dtd">
<svg version="1.1" id="Layer_1" xmlns="http://www.w3.org/2000/svg" xmlns:xlink="http://www.w3.org/1999/xlink" x="0px" y="0px"
	 viewBox="0 0 32 32" style="enable-background:new 0 0 32 32;" xml:space="preserve">
<path d="M14.22,22.14c0.07-0.01,0.12-0.06,0.15-0.12l2.39-5.43c0.03-0.06,0.02-0.14-0.02-0.2c-0.04-0.06-0.1-0.1-0.18-0.1
	l-2.47-0.01l3.93-5.11l-1.44,4.1c-0.02,0.06-0.01,0.14,0.03,0.19c0.04,0.06,0.1,0.09,0.17,0.09l2.63,0.01l-4.54,6.99
	c-0.06,0.09-0.05,0.21,0.04,0.28l0.09,0.08c0.36,0.31,0.51,0.43,0.95,0.8c0.04,0.03,0.09,0.05,0.13,0.05c0.05,0,0.1-0.02,0.13-0.05
	c6.27-5.2,7.37-7.27,7.48-7.49c1.4-2.14,1.08-3.91,0.57-5.03c-0.55-1.2-1.43-1.89-1.47-1.92c-0.92-0.68-1.87-1.02-2.82-1.02
	c-2.05,0-3.49,1.57-3.98,2.19C15.5,9.82,14.05,8.25,12,8.25c-0.95,0-1.89,0.34-2.82,1.02C9.15,9.3,8.29,9.95,7.75,11.14
	c-0.5,1.1-0.82,2.87,0.54,5.08c0.07,0.14,1.02,1.78,5.75,5.88C14.08,22.14,14.15,22.15,14.22,22.14z M8.65,16.01
	c0-0.01-0.01-0.01-0.01-0.01c-1.01-1.64-1.18-3.21-0.52-4.67c0.5-1.1,1.31-1.72,1.31-1.72c0.85-0.62,1.72-0.94,2.57-0.94
	c2.26,0,3.79,2.21,3.8,2.23c0.04,0.06,0.1,0.09,0.18,0.09c0.07,0,0.14-0.03,0.17-0.09c0.02-0.02,1.54-2.23,3.8-2.23
	c0.85,0,1.72,0.31,2.57,0.93c0.01,0.01,0.84,0.66,1.35,1.77c0.67,1.48,0.49,3.03-0.55,4.62c-0.01,0.01-0.01,0.02-0.02,0.03
	c-0.01,0.02-0.96,2.02-7.24,7.24c-0.32-0.27-0.47-0.4-0.75-0.63l4.66-7.16c0.05-0.06,0.05-0.15,0.01-0.22
	c-0.04-0.07-0.11-0.11-0.19-0.11l-2.73-0.01l1.73-4.93c0.03-0.1-0.01-0.2-0.09-0.25c-0.09-0.05-0.2-0.03-0.27,0.05l-4.97,6.36
	c-0.05,0.06-0.06,0.15-0.03,0.22c0.03,0.07,0.11,0.12,0.19,0.12l2.6,0.01l-2.14,4.88C9.53,17.6,8.66,16.02,8.65,16.01L8.65,16.01z"
	/>
</svg>
