<?xml version="1.0" encoding="utf-8"?>
<!-- Generator: Adobe Illustrator 17.1.0, SVG Export Plug-In . SVG Version: 6.00 Build 0)  -->
<!DOCTYPE svg PUBLIC "-//W3C//DTD SVG 1.1//EN" "http://www.w3.org/Graphics/SVG/1.1/DTD/svg11.dtd">
<svg version="1.1" id="Layer_1" xmlns="http://www.w3.org/2000/svg" xmlns:xlink="http://www.w3.org/1999/xlink" x="0px" y="0px"
	 viewBox="0 0 144 144" enable-background="new 0 0 144 144" xml:space="preserve">
<g>
	<path d="M106.322,68.384c0-2.457-1.999-4.457-4.457-4.457H54.869l47.358-9.818c2.374-0.493,3.933-2.832,3.474-5.215l-0.559-2.9
		c-0.454-2.352-2.842-3.945-5.19-3.46L41.232,54.707c-2.375,0.493-3.935,2.833-3.474,5.216l0.561,2.898
		c0.249,1.289,1.051,2.357,2.131,2.974c-0.525,0.732-0.843,1.622-0.843,2.588v28.713c0,2.458,1.999,4.457,4.457,4.457h57.801
		c1.921,0,4.457-1.106,4.457-4.457V68.384z M100.588,66.946l-4.515,5.263h-5.192l4.517-5.263H100.588z M93.454,66.946L88.94,72.21
		H83.42l4.512-5.263H93.454z M85.99,66.946l-4.513,5.263h-5.196l4.517-5.263H85.99z M78.855,66.946l-4.514,5.263h-5.523l4.516-5.263
		H78.855z M71.392,66.946l-4.513,5.263h-5.196l4.516-5.263H71.392z M64.256,66.946l-4.513,5.263H54.22l4.516-5.263H64.256z
		 M56.793,66.946L52.28,72.21h-5.193l4.513-5.263H56.793z M45.144,72.21h-2.517v-3.826c0-0.793,0.645-1.438,1.438-1.438h5.596
		L45.144,72.21z M100.55,45.419c0.098-0.02,0.196-0.03,0.295-0.03c0.682,0,1.272,0.489,1.403,1.162l0.558,2.9
		c0.154,0.796-0.386,1.607-1.179,1.772l-0.114,0.024l-6.153-4.752L100.55,45.419z M93.459,46.89l6.152,4.752l-5.084,1.053
		l-6.153-4.75L93.459,46.89z M86.472,48.338l6.153,4.751l-5.408,1.121l-6.151-4.751L86.472,48.338z M79.164,49.853l6.153,4.751
		l-5.087,1.054l-6.153-4.751L79.164,49.853z M72.176,51.302l6.152,4.75l-5.405,1.121l-6.155-4.75L72.176,51.302z M64.867,52.817
		l6.154,4.751l-5.084,1.054l-6.154-4.751L64.867,52.817z M57.881,54.266l6.155,4.751l-5.41,1.122l-6.151-4.751L57.881,54.266z
		 M50.573,55.781l6.154,4.751l-5.082,1.053l-6.156-4.75L50.573,55.781z M41.214,62.262l-0.562-2.898
		c-0.154-0.795,0.387-1.606,1.179-1.771l1.756-0.363l6.155,4.75l-6.829,1.416C42.13,63.554,41.362,63.033,41.214,62.262z
		 M103.303,97.097c0,0.793-0.645,1.438-1.438,1.438H44.064c-0.793,0-1.438-0.645-1.438-1.438V73.683h60.676V97.097z M103.303,72.21
		h-5.286l4.414-5.146c0.512,0.22,0.872,0.728,0.872,1.32V72.21z"/>
	<path d="M78.604,84.471l-7.837-4.531c-0.458-0.265-0.914-0.398-1.353-0.398c-0.979,0-1.967,0.716-1.967,2.315v9.047
		c0,1.601,0.989,2.317,1.97,2.317c0.438,0,0.892-0.134,1.351-0.398l7.833-4.518c0.816-0.47,1.284-1.167,1.284-1.916
		C79.887,85.641,79.419,84.941,78.604,84.471z M77.866,87.028l-7.833,4.518c-0.29,0.165-0.495,0.201-0.616,0.201
		c-0.432,0-0.497-0.528-0.497-0.844v-9.047c0-0.314,0.065-0.842,0.494-0.842c0.121,0,0.328,0.035,0.616,0.202l7.837,4.53
		c0.341,0.197,0.544,0.438,0.544,0.642C78.412,86.592,78.207,86.831,77.866,87.028z"/>
</g>
</svg>
