<?xml version="1.0" encoding="utf-8"?>
<!-- Generator: Adobe Illustrator 21.1.0, SVG Export Plug-In . SVG Version: 6.00 Build 0)  -->
<!DOCTYPE svg PUBLIC "-//W3C//DTD SVG 1.1//EN" "http://www.w3.org/Graphics/SVG/1.1/DTD/svg11.dtd">
<svg version="1.1" id="Layer_1" xmlns="http://www.w3.org/2000/svg" xmlns:xlink="http://www.w3.org/1999/xlink" x="0px" y="0px"
	 viewBox="0 0 32 32" style="enable-background:new 0 0 32 32;" xml:space="preserve">
<path d="M10.54,6.26C9.97,5.83,9.52,5.63,9.16,5.63C8.78,5.63,8.59,5.86,8.54,6c-0.02,0.05-0.02,0.1,0,0.15L9.4,8.49L9.26,9.61
	l-1.14,0.53L7.25,9.39C7.16,9.14,6.79,8.14,6.6,7.6C6.44,7.16,6.28,6.94,6.06,6.91C5.92,6.89,5.81,6.95,5.74,7.02
	c-1.83,1.59-0.35,4.44-0.26,4.61c0.02,0.04,0.16,0.33,0.4,0.71L5.74,12.4c-0.35,0.16-0.46,0.57-0.26,0.98
	c0.13,0.28,0.35,0.44,0.61,0.44c0.1,0,0.2-0.02,0.29-0.07l0.45-0.21c0.07,0.06,0.14,0.13,0.21,0.19c0.39,0.33,0.53,0.54,0.5,1.42
	l-0.34,9.97c0,0.04-0.08,0.95,0.46,1.54c0.3,0.33,0.72,0.49,1.24,0.49c0.5,0,0.89-0.16,1.18-0.47c0.54-0.59,0.45-1.52,0.44-1.55
	l-0.32-9.97c0-0.11,0-0.22-0.01-0.32c-0.02-0.71-0.04-1.18,1.09-2.07c1.48-1.17,1.14-3.23,1.12-3.31
	C12.07,7.45,10.6,6.31,10.54,6.26L10.54,6.26z M5.79,11.23C5.51,10.59,4.73,8.56,6,7.39c0.04,0.05,0.1,0.16,0.17,0.36
	C6.39,8.36,6.85,9.6,6.85,9.6c0.01,0.04,0.03,0.07,0.06,0.09l0.76,0.66L5.79,11.23L5.79,11.23z M6.23,13.45
	c-0.05,0.02-0.1,0.04-0.15,0.04c-0.16,0-0.26-0.15-0.3-0.24c-0.07-0.15-0.13-0.42,0.1-0.53l0.18-0.09c0.15,0.22,0.32,0.44,0.51,0.66
	L6.23,13.45L6.23,13.45z M10.99,12.43c-1.31,1.03-1.28,1.68-1.26,2.44c0,0.1,0.01,0.2,0.01,0.32l0.32,9.99
	c0,0.01,0.07,0.77-0.33,1.21c-0.2,0.22-0.47,0.32-0.84,0.32c-0.39,0-0.7-0.12-0.91-0.34c-0.41-0.45-0.34-1.19-0.34-1.21l0.34-9.99
	c0.04-0.93-0.11-1.32-0.66-1.79C6.69,12.85,6.2,12.01,6,11.63l3.57-1.67c0.07-0.03,0.12-0.1,0.13-0.18l0.16-1.29
	c0.01-0.04,0-0.07-0.01-0.11L9.01,6.11C9.04,6.1,9.09,6.08,9.16,6.08c0.15,0,0.48,0.07,1.1,0.54c0.01,0.01,1.39,1.09,1.69,2.93
	C11.95,9.57,12.25,11.43,10.99,12.43L10.99,12.43z M10.05,10.63c-0.06-0.07-0.16-0.09-0.24-0.03s-0.09,0.16-0.03,0.24l0.66,0.89
	c0.03,0.05,0.09,0.07,0.14,0.07c0.04,0,0.07-0.01,0.1-0.03c0.07-0.06,0.09-0.16,0.03-0.24C10.71,11.51,10.05,10.63,10.05,10.63z
	 M9.44,10.93c-0.06-0.07-0.16-0.09-0.24-0.03s-0.09,0.16-0.03,0.24l0.66,0.89c0.03,0.04,0.09,0.07,0.14,0.07
	c0.04,0,0.07-0.01,0.1-0.03c0.07-0.06,0.09-0.16,0.03-0.24C10.1,11.81,9.44,10.93,9.44,10.93z M9.22,12.31
	c0.03,0.05,0.08,0.07,0.14,0.07c0.04,0,0.07-0.01,0.1-0.03c0.07-0.06,0.09-0.16,0.03-0.24l-0.66-0.89
	c-0.06-0.07-0.16-0.09-0.24-0.03s-0.09,0.16-0.03,0.24L9.22,12.31L9.22,12.31z M8.74,12.68c0.03,0,0.07-0.01,0.1-0.03
	c0.07-0.06,0.09-0.16,0.03-0.24l-0.66-0.89c-0.06-0.07-0.16-0.09-0.24-0.03s-0.09,0.16-0.03,0.24l0.66,0.89
	C8.64,12.65,8.69,12.68,8.74,12.68z M8.88,24.6c-0.16,0-0.31,0.05-0.44,0.13c-0.38,0.25-0.5,0.76-0.25,1.14
	c0.15,0.24,0.41,0.38,0.7,0.38c0.16,0,0.31-0.05,0.44-0.13c0.39-0.24,0.5-0.76,0.25-1.14C9.43,24.74,9.17,24.6,8.88,24.6L8.88,24.6z
	 M9.14,25.84c-0.22,0.14-0.53,0.07-0.67-0.15c-0.14-0.23-0.08-0.53,0.15-0.67c0.08-0.05,0.17-0.08,0.26-0.08
	c0.17,0,0.32,0.08,0.41,0.23C9.44,25.39,9.37,25.69,9.14,25.84L9.14,25.84z M18.24,20.38c0-0.06-0.02-0.12-0.07-0.16
	c-0.35-0.35-0.52-0.69-0.51-1.01c0.01-0.39,0.29-0.63,0.3-0.63c0.05-0.04,0.08-0.11,0.08-0.17v-1.45c0-0.12-0.1-0.23-0.23-0.23
	h-1.19V10.5l0.41-1.14c0.01-0.04,0.02-0.08,0.01-0.12l-0.53-3.02c-0.02-0.11-0.11-0.19-0.22-0.19h-1.08c-0.11,0-0.2,0.08-0.22,0.19
	l-0.53,3.02c-0.01,0.04,0,0.08,0.01,0.12l0.41,1.14v6.23h-1.19c-0.13,0-0.23,0.1-0.23,0.23v1.45c0,0.07,0.03,0.13,0.08,0.17
	c0,0,0.28,0.24,0.29,0.63c0.01,0.32-0.16,0.67-0.51,1.02c-0.04,0.04-0.07,0.1-0.07,0.16v5.86c0,0.03-0.01,0.31,0.25,0.59
	c0.39,0.41,1.14,0.62,2.24,0.62s1.86-0.21,2.24-0.62c0.26-0.28,0.25-0.56,0.25-0.57L18.24,20.38L18.24,20.38z M15.4,6.49h0.7
	l0.49,2.77l-0.41,1.12c-0.01,0.02-0.01,0.05-0.01,0.08v6.27h-0.84v-6.27c0-0.03-0.01-0.05-0.01-0.08l-0.4-1.12L15.4,6.49L15.4,6.49z
	 M14.84,26.93c-0.13-0.02-0.25-0.05-0.35-0.08v-5.01c0-0.21,0-0.39,0.04-0.49c0.02-0.04,0.03-0.08,0.16-0.08
	c0.12,0,0.16,0.08,0.16,0.59L14.84,26.93L14.84,26.93z M17.04,26.85c-0.1,0.03-0.22,0.06-0.36,0.08v-5.07
	c0-0.51,0.04-0.59,0.16-0.59c0.11,0,0.14,0.03,0.16,0.1c0.04,0.11,0.04,0.29,0.04,0.48L17.04,26.85L17.04,26.85z M17.79,26.27
	c0,0-0.01,0.25-0.41,0.45v-4.87c0-0.22,0-0.42-0.05-0.58c-0.07-0.22-0.24-0.33-0.48-0.33c-0.5,0-0.5,0.51-0.5,0.93v5.11
	c-0.18,0.02-0.37,0.03-0.6,0.03c-0.21,0-0.4-0.01-0.57-0.02v-5.11c0-0.41,0-0.93-0.5-0.93c-0.24,0-0.41,0.1-0.48,0.31
	c-0.06,0.16-0.06,0.35-0.06,0.61v4.87c-0.42-0.21-0.43-0.46-0.43-0.47v-5.79c0.4-0.42,0.59-0.86,0.57-1.29
	c-0.02-0.43-0.25-0.74-0.38-0.88v-1.13h3.68v1.13c-0.13,0.14-0.36,0.44-0.38,0.88s0.17,0.87,0.57,1.29L17.79,26.27L17.79,26.27z
	 M26.95,6.15c-0.04-0.07-0.12-0.12-0.2-0.12l-0.91,0.02c-0.03,0-0.06,0.01-0.08,0.02c0,0-0.38,0.16-0.82,0.16
	c-0.37,0-0.67-0.11-0.89-0.33c-0.04-0.04-0.1-0.07-0.16-0.07l-1.79,0c-0.03,0-2.78,0.24-3.48,3.13c-0.05,0.2-0.02,0.54,0.18,0.69
	c0.05,0.04,0.11,0.06,0.18,0.06c0.24,0,0.47-0.24,0.55-0.35c0.01-0.01,0.64-0.96,1.15-1.35c0.07-0.06,0.32-0.22,0.5-0.22
	c0.06,0,0.12,0.01,0.18,0.14c0.15,0.36,0.28,1.11,0.39,1.71l0.02,0.09c0.02,0.1,0.11,0.18,0.22,0.19v6.24
	c-0.23,0.13-0.38,0.36-0.38,0.63l-0.02,9.64c0,0.49,0.78,0.75,1.18,0.75h0.49c0.41,0,1.2-0.27,1.2-0.75l-0.02-9.64
	c0-0.27-0.15-0.5-0.38-0.63V9.91c0.09-0.02,0.17-0.09,0.18-0.19l0.17-1.35c0.16-0.14,0.33-0.2,0.53-0.2c0.41,0,0.77,0.28,0.78,0.29
	c0.04,0.03,0.09,0.05,0.14,0.05l0.91,0.02c0.08-0.01,0.16-0.04,0.2-0.12c0.02-0.04,0.22-0.41,0.22-1.14
	C27.17,6.55,26.96,6.16,26.95,6.15L26.95,6.15z M23.25,26.73h-0.49c-0.31,0-0.7-0.2-0.73-0.3l0.02-9.64c0-0.17,0.18-0.3,0.4-0.3
	h1.12c0.22,0,0.4,0.13,0.4,0.3L24,26.42C23.97,26.52,23.56,26.72,23.25,26.73L23.25,26.73z M22.44,16.04V9.92h1.15v6.12
	c-0.01,0-0.01,0-0.02,0h-1.12C22.45,16.03,22.44,16.03,22.44,16.04z M25.56,7.85c-0.18-0.08-0.4-0.14-0.63-0.14
	c-0.34,0-0.65,0.13-0.9,0.39c-0.03,0.03-0.06,0.08-0.06,0.13L23.8,9.46h-1.62c-0.11-0.63-0.24-1.32-0.4-1.7
	c-0.11-0.27-0.32-0.43-0.6-0.43c-0.37,0-0.74,0.28-0.78,0.31c-0.57,0.43-1.22,1.41-1.24,1.44c-0.03,0.04-0.07,0.08-0.11,0.11
	c-0.01-0.04-0.01-0.09,0-0.13c0.62-2.57,2.97-2.78,3.06-2.79h1.68c0.3,0.26,0.68,0.39,1.14,0.39c0.22,0,0.43-0.03,0.59-0.07
	c0.03,0.18,0.06,0.45,0.06,0.76C25.58,7.59,25.57,7.74,25.56,7.85L25.56,7.85z M26.6,8.06l-0.68-0.01
	c-0.01-0.01-0.03-0.02-0.04-0.03c0.03-0.14,0.05-0.35,0.05-0.66c0-0.37-0.04-0.68-0.07-0.86c0.01,0,0.02-0.01,0.02-0.01l0.71-0.01
	c0.05,0.14,0.11,0.4,0.11,0.77C26.71,7.66,26.65,7.92,26.6,8.06L26.6,8.06z"/>
</svg>
