<?xml version="1.0" encoding="utf-8"?>
<!-- Generator: Adobe Illustrator 21.1.0, SVG Export Plug-In . SVG Version: 6.00 Build 0)  -->
<!DOCTYPE svg PUBLIC "-//W3C//DTD SVG 1.1//EN" "http://www.w3.org/Graphics/SVG/1.1/DTD/svg11.dtd">
<svg version="1.1" id="Layer_1" xmlns="http://www.w3.org/2000/svg" xmlns:xlink="http://www.w3.org/1999/xlink" x="0px" y="0px"
	 viewBox="0 0 31.68 31.68" style="enable-background:new 0 0 31.68 31.68;" xml:space="preserve">
<path d="M18.31,12.64l0.22-0.39c0.03-0.05,0.02-0.11-0.03-0.14c0,0,0,0-0.01,0c-0.05-0.03-0.12-0.02-0.15,0.03c0,0,0,0,0,0
	l-0.22,0.4c-0.03,0.05-0.01,0.12,0.04,0.15c0.05,0.03,0.11,0.02,0.14-0.03C18.3,12.65,18.3,12.64,18.31,12.64z M19.86,19.17
	l0.4,0.24c0.05,0.03,0.12,0.01,0.15-0.04c0.03-0.05,0.02-0.11-0.03-0.14c0,0-0.01-0.01-0.02-0.01l-0.4-0.24
	c-0.05-0.03-0.12-0.01-0.14,0.04C19.79,19.07,19.81,19.14,19.86,19.17C19.86,19.17,19.86,19.17,19.86,19.17z M15.87,12.07
	c0.06,0,0.12-0.05,0.12-0.11v-0.46c-0.01-0.06-0.06-0.11-0.12-0.11c-0.06,0-0.11,0.04-0.12,0.11v0.46
	C15.75,12.01,15.8,12.06,15.87,12.07z M13.43,12.65c0.03,0.05,0.09,0.07,0.15,0.04c0.05-0.03,0.07-0.1,0.04-0.16
	c-0.08-0.13-0.16-0.26-0.23-0.39c-0.03-0.05-0.09-0.07-0.15-0.04c-0.05,0.04-0.07,0.1-0.04,0.16L13.43,12.65z M15.88,18.1
	c0.09,0,0.17-0.01,0.26-0.03l0.09-0.02c0.05-0.01,0.1-0.03,0.15-0.05l0.1-0.05c0.04-0.02,0.08-0.04,0.12-0.07l0.09-0.06
	c0.04-0.03,0.07-0.06,0.11-0.09l0.08-0.08c0.03-0.04,0.06-0.07,0.09-0.11c0.02-0.03,0.04-0.05,0.06-0.08
	c0.03-0.05,0.06-0.1,0.08-0.15c0-0.02,0.03-0.05,0.04-0.07c0.03-0.08,0.05-0.15,0.07-0.23l2.21-0.06c0.12,0,0.21-0.1,0.21-0.22
	v-0.04c0-0.11-0.09-0.21-0.21-0.21l-2.22-0.05c0-0.02,0-0.03-0.01-0.05c-0.01-0.05-0.03-0.11-0.05-0.16c0-0.03-0.02-0.05-0.03-0.07
	c-0.02-0.05-0.04-0.09-0.07-0.14L17,15.93c-0.03-0.04-0.06-0.08-0.09-0.12l-0.04-0.05c-0.04-0.04-0.08-0.08-0.12-0.12l-0.04-0.03
	c-0.05-0.04-0.1-0.08-0.16-0.11h-0.02c-0.12-0.07-0.25-0.12-0.38-0.15c-0.06-2.79-0.04-1.86-0.06-2.79c0-0.12-0.09-0.21-0.21-0.21
	h-0.04c-0.12,0-0.21,0.1-0.21,0.21c-0.06,2.8-0.04,1.86-0.06,2.8c-0.07,0.02-0.15,0.04-0.22,0.07l-0.05,0.02
	c-0.06,0.03-0.12,0.06-0.17,0.09l-0.08,0.06c-0.04,0.03-0.08,0.06-0.11,0.1l-0.07,0.08c-0.03,0.03-0.06,0.07-0.09,0.11l-0.06,0.09
	c-0.03,0.04-0.05,0.09-0.07,0.13c-0.01,0.03-0.03,0.06-0.04,0.09c-0.02,0.05-0.04,0.1-0.05,0.16c0,0.03-0.02,0.06-0.02,0.09
	c-0.02,0.09-0.03,0.17-0.03,0.26c0,0.75,0.61,1.36,1.36,1.36L15.88,18.1z M15.21,16.04c0.18-0.17,0.42-0.27,0.66-0.28
	c0.24,0.01,0.48,0.11,0.65,0.28c0.18,0.18,0.27,0.42,0.27,0.67c0,0.25-0.1,0.49-0.27,0.66c-0.17,0.18-0.41,0.28-0.65,0.28
	c-0.25,0-0.49-0.1-0.66-0.28c-0.17-0.18-0.27-0.42-0.26-0.66c0-0.25,0.09-0.5,0.26-0.69V16.04z M7.71,22.21
	c-0.1-0.09-0.25-0.08-0.34,0.01c-0.08,0.08-0.09,0.2-0.03,0.3c0.21,0.25,0.44,0.5,0.67,0.73c0.11,0.08,0.26,0.06,0.34-0.04
	c0.07-0.09,0.07-0.21,0-0.3C8.13,22.69,7.91,22.45,7.71,22.21z M19.96,14.42l0.4-0.23c0.05-0.03,0.07-0.11,0.03-0.16
	c-0.03-0.05-0.09-0.06-0.13-0.03c0,0,0,0,0,0l-0.39,0.23c-0.05,0.02-0.07,0.08-0.06,0.13c0,0.01,0.01,0.01,0.01,0.02
	C19.86,14.43,19.92,14.45,19.96,14.42z M13.39,21.27l0.22-0.4c0.03-0.05,0.02-0.11-0.03-0.14c0,0,0,0-0.01,0
	c-0.05-0.03-0.11-0.02-0.15,0.03c0,0.01-0.01,0.01-0.01,0.02l-0.22,0.39c-0.03,0.05-0.01,0.12,0.04,0.15
	c0.04,0.03,0.11,0.02,0.14-0.02C13.39,21.28,13.39,21.27,13.39,21.27z M15.88,21.34c-0.06,0-0.11,0.05-0.11,0.11v0.45
	c0,0.06,0.05,0.11,0.11,0.11s0.11-0.05,0.11-0.11c0,0,0,0,0,0v-0.46C15.99,21.39,15.94,21.34,15.88,21.34
	C15.88,21.34,15.88,21.34,15.88,21.34z M20.62,6.84l-0.59,0.8c-0.03,0.04-0.04,0.1-0.02,0.15c0.02,0.05,0.06,0.08,0.11,0.09l3,0.61
	c0.06,0.01,0.12-0.01,0.16-0.06c0.03-0.05,0.03-0.11,0-0.16l-1.49-2.68c-0.04-0.07-0.14-0.1-0.21-0.06
	c-0.02,0.01-0.04,0.03-0.05,0.04l-0.63,0.88C15.55,3.79,9.07,5.97,6.42,11.31c-1.62,3.26-1.49,7.11,0.35,10.25
	c0.06,0.12,0.2,0.18,0.32,0.12s0.18-0.2,0.12-0.32c-0.01-0.02-0.02-0.03-0.03-0.05C4.3,16.4,5.95,10.08,10.86,7.2
	C13.85,5.45,17.51,5.31,20.62,6.84z M18.3,20.76c-0.03-0.05-0.09-0.07-0.14-0.04c-0.05,0.02-0.07,0.08-0.05,0.14
	c0,0,0,0.01,0.01,0.01c0.22,0.4,0.15,0.27,0.22,0.4c0.03,0.05,0.1,0.07,0.15,0.04c0,0,0,0,0.01,0c0.05-0.03,0.07-0.09,0.04-0.14
	c0,0,0-0.01-0.01-0.01C18.45,21.03,18.38,20.9,18.3,20.76z M20.55,16.81H21c0.06,0,0.11-0.05,0.11-0.11c0-0.06-0.05-0.11-0.11-0.12
	h-0.45c-0.06,0.01-0.11,0.06-0.11,0.12C20.44,16.76,20.49,16.81,20.55,16.81C20.55,16.81,20.55,16.81,20.55,16.81z M15.15,25.88
	c-0.31,0-0.63-0.04-0.94-0.09c-0.13-0.03-0.26,0.06-0.29,0.19c-0.03,0.13,0.06,0.26,0.19,0.29c0.01,0,0.02,0,0.03,0
	c0.33,0.04,0.66,0.08,0.99,0.09c0.13-0.01,0.23-0.14,0.22-0.27c-0.01-0.11-0.1-0.2-0.22-0.22L15.15,25.88z M23.53,22.18
	c-0.2,0.24-0.42,0.48-0.64,0.7c-0.1,0.09-0.12,0.24-0.03,0.34c0.09,0.1,0.24,0.12,0.34,0.03c0.01-0.01,0.02-0.02,0.03-0.03
	c0.24-0.23,0.46-0.48,0.67-0.73c0.08-0.11,0.05-0.26-0.06-0.34C23.74,22.08,23.61,22.09,23.53,22.18z M24.93,20.53
	c-0.12-0.06-0.26-0.02-0.33,0.09c-0.15,0.27-0.32,0.54-0.5,0.81c-0.07,0.12-0.02,0.27,0.09,0.33c0.1,0.06,0.23,0.03,0.31-0.06
	c0.19-0.27,0.36-0.56,0.52-0.84C25.09,20.75,25.05,20.6,24.93,20.53C24.93,20.54,24.93,20.54,24.93,20.53z M22.19,23.52
	c-0.24,0.2-0.5,0.39-0.76,0.57c-0.1,0.09-0.11,0.24-0.02,0.34c0.07,0.08,0.2,0.11,0.3,0.06c0.27-0.19,0.54-0.39,0.79-0.59
	c0.11-0.07,0.15-0.22,0.07-0.34c-0.07-0.11-0.22-0.15-0.34-0.07C22.22,23.5,22.2,23.51,22.19,23.52L22.19,23.52z M20.62,24.58
	c-0.13,0.07-0.25,0.14-0.38,0.2c-0.13,0.06-0.28,0.14-0.47,0.22c-0.13,0.05-0.19,0.19-0.14,0.31c0.05,0.13,0.19,0.19,0.31,0.14
	c0.01,0,0.01-0.01,0.02-0.01c0.16-0.07,0.33-0.15,0.49-0.23c0.16-0.08,0.29-0.15,0.39-0.21c0.11-0.08,0.13-0.23,0.05-0.34
	c-0.07-0.09-0.18-0.12-0.29-0.08L20.62,24.58z M25.68,18.73c-0.12-0.03-0.25,0.03-0.29,0.15c-0.1,0.29-0.22,0.59-0.34,0.88
	c-0.04,0.13,0.03,0.27,0.16,0.31c0.11,0.04,0.23-0.01,0.29-0.11c0.13-0.29,0.26-0.61,0.36-0.93C25.89,18.91,25.81,18.77,25.68,18.73
	C25.68,18.73,25.68,18.73,25.68,18.73z M26.17,15.47c-0.13,0-0.24,0.1-0.25,0.24v0.39c-0.01,0.13,0.1,0.25,0.23,0.26
	c0.13,0,0.23-0.1,0.24-0.23v-0.41C26.39,15.59,26.29,15.48,26.17,15.47z M26.09,16.84c-0.13-0.02-0.25,0.07-0.28,0.2c0,0,0,0,0,0.01
	c-0.04,0.31-0.11,0.63-0.18,0.93c-0.03,0.13,0.05,0.26,0.18,0.29h0.06c0.11,0,0.21-0.08,0.24-0.19c0.08-0.32,0.14-0.65,0.19-0.98
	C26.31,16.98,26.22,16.86,26.09,16.84z M18.89,25.36c-0.29,0.1-0.61,0.19-0.91,0.26c-0.13,0.04-0.21,0.17-0.17,0.3
	c0.03,0.1,0.12,0.18,0.23,0.18h0.06c0.32-0.08,0.64-0.17,0.96-0.27c0.13-0.03,0.22-0.16,0.19-0.29c-0.03-0.13-0.16-0.22-0.29-0.19
	C18.93,25.36,18.91,25.37,18.89,25.36L18.89,25.36z M11.48,25.04c-0.29-0.13-0.59-0.27-0.85-0.42c-0.11-0.07-0.26-0.04-0.34,0.07
	c-0.07,0.11-0.04,0.26,0.07,0.34c0.01,0.01,0.02,0.01,0.03,0.02c0.29,0.16,0.59,0.29,0.88,0.44c0.03,0.01,0.06,0.02,0.1,0.02
	c0.13,0,0.24-0.12,0.24-0.25c0-0.09-0.06-0.17-0.14-0.21L11.48,25.04z M10.73,16.81h0.46c0.06,0,0.1-0.05,0.1-0.11
	c0-0.06-0.04-0.1-0.09-0.11c0,0,0,0-0.01,0h-0.46c-0.06,0-0.1,0.04-0.11,0.09c0,0,0,0.01,0,0.01
	C10.63,16.76,10.67,16.81,10.73,16.81C10.73,16.81,10.73,16.81,10.73,16.81z M11.48,19.4c0.39-0.23,0.26-0.15,0.39-0.23
	c0.05-0.03,0.07-0.1,0.04-0.15c-0.03-0.05-0.1-0.07-0.16-0.04c-0.39,0.23-0.26,0.15-0.39,0.23c-0.05,0.04-0.07,0.1-0.04,0.16
	C11.36,19.42,11.43,19.43,11.48,19.4z M15.89,22.8c3.37-0.07,6.05-2.85,5.98-6.23c-0.06-3.01-2.31-5.53-5.29-5.93V10.2h0.69
	c0.06,0,0.11-0.03,0.15-0.07c0.04-0.05,0.06-0.1,0.06-0.16v-0.9c0-0.06-0.02-0.12-0.06-0.16c-0.04-0.04-0.09-0.07-0.15-0.07h-2.8
	c-0.06,0-0.11,0.03-0.15,0.07c-0.04,0.04-0.06,0.1-0.06,0.16v0.88c0,0.06,0.02,0.12,0.06,0.16c0.04,0.04,0.09,0.07,0.15,0.07h0.69
	v0.44c-0.92,0.11-1.8,0.43-2.58,0.95c-0.29-0.33-0.19-0.22-0.29-0.33l0.17-0.15c0.05-0.04,0.07-0.09,0.08-0.15
	c0.01-0.06-0.01-0.12-0.05-0.16l-0.76-0.9c-0.08-0.09-0.2-0.1-0.29-0.03l-1.56,1.32c-0.04,0.04-0.07,0.09-0.08,0.15
	c0,0.06,0.02,0.12,0.05,0.17l0.76,0.91c0.08,0.09,0.22,0.1,0.31,0.03l0.29-0.25l0.29,0.34c-1.06,1.14-1.65,2.64-1.65,4.19
	c-0.01,3.34,2.67,6.06,6.01,6.08L15.89,22.8z M14.67,9.75V9.3h2.37v0.45H14.67z M16.14,10.2v0.39h-0.53V10.2H16.14z M11.09,11.69
	l-0.03,0.03c-0.09,0.07-0.18,0.15-0.27,0.23l-0.48-0.59l1.22-1.03l0.48,0.59l-0.14,0.12l-0.03,0.03L11.09,11.69z M12.21,11.84
	c-0.15,0.11-0.29,0.24-0.42,0.36l-0.26-0.31l0.42-0.36L12.21,11.84z M11.92,12.7c0.03-0.04,0.07-0.07,0.11-0.1l0.54-0.46
	c0.92-0.68,2.03-1.07,3.17-1.09h0.27c1.43,0.03,2.8,0.63,3.8,1.65c2.17,2.22,2.17,5.78,0,8c-2.13,2.18-5.63,2.21-7.81,0.08
	c-0.03-0.03-0.05-0.05-0.08-0.08c-2.18-2.22-2.18-5.77,0-7.99L11.92,12.7z M13.28,25.62c-0.29-0.07-0.61-0.16-0.91-0.26
	c-0.13-0.04-0.26,0.04-0.3,0.17c-0.03,0.12,0.03,0.24,0.14,0.29c0.31,0.1,0.64,0.19,0.96,0.27h0.06c0.13,0,0.24-0.12,0.24-0.25
	C13.45,25.73,13.38,25.64,13.28,25.62L13.28,25.62z M17.05,25.79c-0.31,0.04-0.63,0.07-0.94,0.09c-0.13,0.01-0.23,0.14-0.22,0.27
	c0.01,0.11,0.1,0.2,0.22,0.22c0.33-0.01,0.66-0.05,0.99-0.09c0.13-0.02,0.22-0.14,0.21-0.27C17.28,25.87,17.17,25.78,17.05,25.79
	L17.05,25.79z M11.76,14.42c0.06,0.03,0.12,0.01,0.16-0.04c0.02-0.06,0.01-0.12-0.04-0.16L11.48,14c-0.06-0.02-0.12-0.01-0.16,0.04
	c-0.03,0.05-0.01,0.12,0.04,0.15L11.76,14.42z M9.06,23.54c-0.12-0.06-0.27-0.01-0.33,0.11c-0.04,0.09-0.03,0.19,0.03,0.26
	c0.26,0.21,0.52,0.41,0.8,0.59c0.12,0.07,0.27,0.03,0.33-0.09c0.06-0.11,0.04-0.24-0.06-0.31C9.56,23.94,9.3,23.74,9.06,23.54
	L9.06,23.54z"/>
</svg>
