<?xml version="1.0" encoding="utf-8"?>
<!-- Generator: Adobe Illustrator 21.1.0, SVG Export Plug-In . SVG Version: 6.00 Build 0)  -->
<!DOCTYPE svg PUBLIC "-//W3C//DTD SVG 1.1//EN" "http://www.w3.org/Graphics/SVG/1.1/DTD/svg11.dtd">
<svg version="1.1" id="Layer_1" xmlns="http://www.w3.org/2000/svg" xmlns:xlink="http://www.w3.org/1999/xlink" x="0px" y="0px"
	 viewBox="0 0 32 32" style="enable-background:new 0 0 32 32;" xml:space="preserve">
<path d="M7.48,7.4c0.15,0,0.27-0.12,0.27-0.27S7.63,6.86,7.48,6.86H6.04c-0.15,0-0.27,0.12-0.27,0.27S5.89,7.4,6.04,7.4h0.47v15.22
	H6.04c-0.15,0-0.27,0.12-0.27,0.27s0.12,0.27,0.27,0.27h1.44c0.15,0,0.27-0.12,0.27-0.27s-0.12-0.27-0.27-0.27H7.05V7.4L7.48,7.4
	L7.48,7.4z M25.96,23.16c-0.15,0-0.27,0.12-0.27,0.27v0.43L8.92,23.88v-0.45c0-0.15-0.12-0.27-0.27-0.27s-0.27,0.12-0.27,0.27v1.44
	c0,0.15,0.12,0.27,0.27,0.27s0.27-0.12,0.27-0.27v-0.45l16.77-0.02v0.47c0,0.15,0.12,0.27,0.27,0.27s0.27-0.12,0.27-0.27v-1.44
	C26.23,23.28,26.11,23.16,25.96,23.16z M17.76,20.06c0.31,0,0.57-0.3,0.57-0.68v-1.47c0-0.37-0.25-0.68-0.57-0.68
	c-0.07,0-0.14,0.02-0.2,0.05c-0.28-0.56-0.87-0.94-1.54-0.94h-1.59c-0.67,0-1.25,0.39-1.54,0.95c-0.07-0.03-0.14-0.05-0.21-0.05
	c-0.31,0-0.57,0.31-0.57,0.68v1.47c0,0.37,0.26,0.68,0.57,0.68c0.03,0,0.07,0,0.1-0.01c0.04,0.13,0.09,0.25,0.16,0.37
	c-0.07,0.1-0.12,0.26-0.12,0.49c0,0.5,0.85,0.85,1.34,1.02c0.02,0.01,0.4,0.15,1.07,0.15s1.05-0.15,1.06-0.15
	c0.5-0.17,1.35-0.52,1.35-1.02c0-0.23-0.05-0.38-0.12-0.49c0.07-0.11,0.12-0.24,0.16-0.37C17.71,20.06,17.73,20.06,17.76,20.06
	L17.76,20.06z M12.95,19.38c0,0.18-0.1,0.33-0.22,0.36c-0.01,0-0.02,0.01-0.04,0.01c-0.14,0-0.26-0.17-0.26-0.37v-1.47
	c0-0.2,0.12-0.37,0.26-0.37c0.03,0,0.07,0.01,0.1,0.03c0.09,0.06,0.16,0.19,0.16,0.34C12.95,17.92,12.95,19.38,12.95,19.38z
	 M16.16,21.57c0,0-0.34,0.13-0.93,0.13c-0.59,0-0.93-0.12-0.94-0.13c-0.75-0.25-1.09-0.53-1.09-0.66c0-0.06,0-0.1,0.01-0.14
	c0.02-0.16,0.08-0.17,0.15-0.17c0.07,0,0.15,0.02,0.23,0.03c0.01,0,0.04,0.01,0.09,0.02c0.23,0.05,0.9,0.18,1.56,0.18
	c0.66,0,1.33-0.13,1.56-0.18c0.05-0.01,0.08-0.02,0.08-0.02c0.08-0.02,0.17-0.03,0.23-0.03c0.06,0,0.12,0,0.14,0.17
	c0,0.04,0.01,0.08,0.01,0.14C17.26,21.03,16.92,21.31,16.16,21.57L16.16,21.57z M17.18,20.23c-0.03,0-0.05,0-0.08,0
	c-0.1,0-0.19,0.02-0.31,0.04c-0.01,0-0.81,0.19-1.56,0.19c-0.75,0-1.55-0.18-1.56-0.19c-0.12-0.02-0.21-0.04-0.31-0.04
	c-0.03,0-0.05,0-0.08,0c-0.07-0.13-0.13-0.27-0.16-0.42c0.08-0.12,0.13-0.27,0.13-0.43v-1.47c0-0.12-0.03-0.22-0.07-0.32
	c0.19-0.51,0.68-0.88,1.25-0.88h1.59c0.57,0,1.05,0.36,1.25,0.86c-0.05,0.1-0.08,0.21-0.08,0.34v1.47c0,0.17,0.06,0.33,0.14,0.45
	C17.31,19.97,17.25,20.1,17.18,20.23L17.18,20.23z M17.5,19.38v-1.47c0-0.16,0.08-0.3,0.17-0.35c0.03-0.01,0.06-0.03,0.09-0.03
	c0.14,0,0.26,0.17,0.26,0.37v1.47c0,0.2-0.12,0.37-0.26,0.37c-0.01,0-0.02-0.01-0.02-0.01C17.61,19.73,17.5,19.57,17.5,19.38z
	 M25.96,6.86H8.74c-0.12,0-0.22,0.08-0.25,0.18C8.47,7.07,8.46,7.1,8.46,7.13v7.56c0,0.11,0.09,0.19,0.19,0.19h12.47v7
	c0,0.11,0.09,0.19,0.19,0.19h4.55c0.03,0.01,0.06,0.02,0.09,0.02c0.15,0,0.27-0.12,0.27-0.27V7.13C26.23,6.98,26.11,6.86,25.96,6.86
	L25.96,6.86z M25.69,21.69H21.5v-6.81h4.19V21.69z M25.69,14.5H8.85V7.4h16.85L25.69,14.5L25.69,14.5z"/>
</svg>
