<?xml version="1.0" encoding="utf-8"?>
<!-- Generator: Adobe Illustrator 21.1.0, SVG Export Plug-In . SVG Version: 6.00 Build 0)  -->
<!DOCTYPE svg PUBLIC "-//W3C//DTD SVG 1.1//EN" "http://www.w3.org/Graphics/SVG/1.1/DTD/svg11.dtd">
<svg version="1.1" id="Layer_1" xmlns="http://www.w3.org/2000/svg" xmlns:xlink="http://www.w3.org/1999/xlink" x="0px" y="0px"
	 viewBox="0 0 32 32" style="enable-background:new 0 0 32 32;" xml:space="preserve">
<path d="M27.46,7.38h-9.81c-0.18,0-0.33,0.15-0.33,0.33v6.2h-6.24c-0.18,0-0.33,0.15-0.33,0.33v6.33h-6.2l-0.33,0.02l0,3.5
	c0,0.18,0.15,0.33,0.33,0.33l9.83,0c0.18,0,0.33-0.15,0.33-0.33v-6.16h6.12c0.18,0,0.33-0.15,0.33-0.33v-6.24h6.3
	c0.18,0,0.33-0.15,0.33-0.33V7.7C27.78,7.52,27.64,7.37,27.46,7.38L27.46,7.38z M27.17,10.74h-6.3l-0.33,0.02v6.55h-6.12
	c-0.18,0-0.33,0.15-0.33,0.33v6.17l-9.26,0l0-2.62h6.2c0.18,0,0.33-0.15,0.33-0.33v-6.33h6.24c0.18,0,0.33-0.15,0.33-0.33v-6.2h9.24
	V10.74L27.17,10.74z"/>
</svg>
