<?xml version="1.0" encoding="utf-8"?>
<!-- Generator: Adobe Illustrator 21.1.0, SVG Export Plug-In . SVG Version: 6.00 Build 0)  -->
<!DOCTYPE svg PUBLIC "-//W3C//DTD SVG 1.1//EN" "http://www.w3.org/Graphics/SVG/1.1/DTD/svg11.dtd">
<svg version="1.1" id="Layer_1" xmlns="http://www.w3.org/2000/svg" xmlns:xlink="http://www.w3.org/1999/xlink" x="0px" y="0px"
	 viewBox="0 0 32 32" style="enable-background:new 0 0 32 32;" xml:space="preserve">
<style type="text/css">
	.st0{fill:#010101;}
</style>
<g>
	<path class="st0" d="M22.55,13.96c-0.17,0-0.33,0-0.5,0.01c-2.73-1.82-6.24-2.4-10.17-1.67c0,0,0,0,0,0c0,0,0,0,0,0
		c-3.29,0.66-7.26,1.25-7.92,1.08c-0.14-0.03-0.28,0.04-0.34,0.17c-0.31,0.7,0.18,2.61,1,3.87c0.62,0.95,1.35,1.46,2.12,1.46H7.5
		c0.36,0.92,1.25,1.57,2.29,1.57c1.08,0,2-0.7,2.33-1.68c0.01,0,0.03,0.01,0.04,0.01h9.21c0.01,0,0.03-0.01,0.04-0.01
		c0.33,0.97,1.25,1.68,2.33,1.68c1.08,0,2-0.7,2.33-1.68c0.01,0,0.03,0.01,0.04,0.01h3.03c0.91,0,1.38-0.36,1.38-1.08
		C30.51,16.81,26.84,13.96,22.55,13.96z M20.95,13.99c-0.78,0.02-1.53,0.05-2.23,0.09c-1,0.04-1.94,0.09-2.75,0.09
		c-1.52,0-2.55-0.62-3.39-1.38C15.76,12.29,18.62,12.71,20.95,13.99z M9.79,19.85c-1.03,0-1.87-0.84-1.87-1.86s0.84-1.86,1.87-1.86
		s1.86,0.84,1.86,1.86S10.81,19.85,9.79,19.85z M23.73,19.85c-1.03,0-1.86-0.84-1.86-1.86s0.84-1.86,1.86-1.86s1.86,0.84,1.86,1.86
		S24.76,19.85,23.73,19.85z M29.14,18.18h-2.95c0-0.06,0.01-0.13,0.01-0.19c0-1.35-1.1-2.46-2.46-2.46c-1.35,0-2.46,1.1-2.46,2.46
		c0,0.07,0,0.13,0.01,0.19h-9.05c0.01-0.06,0.01-0.13,0.01-0.19c0-1.35-1.1-2.46-2.46-2.46s-2.46,1.1-2.46,2.46
		c0,0.1,0.01,0.2,0.02,0.29H6.74c-0.7,0-1.27-0.65-1.62-1.19c-0.69-1.06-1.05-2.48-1-3.1c1.33,0.06,5.26-0.59,7.73-1.08
		c0.95,0.93,2.19,1.84,4.12,1.84c0.82,0,1.77-0.04,2.77-0.09c1.16-0.05,2.49-0.11,3.81-0.11c4.1,0,7.24,2.69,7.36,3.14
		C29.92,17.96,29.86,18.18,29.14,18.18z"/>
	<path class="st0" d="M21.67,20h-3.63c-0.08,0-0.15,0.07-0.15,0.15s0.07,0.15,0.15,0.15h3.63c0.08,0,0.15-0.07,0.15-0.15
		S21.75,20,21.67,20z"/>
	<path class="st0" d="M7.92,20H3.6c-0.08,0-0.15,0.07-0.15,0.15S3.52,20.3,3.6,20.3h4.32c0.08,0,0.15-0.07,0.15-0.15S8,20,7.92,20z"
		/>
	<path class="st0" d="M3.3,13.32H1.63c-0.08,0-0.15,0.07-0.15,0.15s0.07,0.15,0.15,0.15H3.3c0.08,0,0.15-0.07,0.15-0.15
		C3.45,13.39,3.39,13.32,3.3,13.32z"/>
	<path class="st0" d="M8.31,11.85h4.81c0.08,0,0.15-0.07,0.15-0.15s-0.07-0.15-0.15-0.15H8.31c-0.08,0-0.15,0.07-0.15,0.15
		S8.23,11.85,8.31,11.85z"/>
	<path class="st0" d="M9.79,16.45c-0.85,0-1.54,0.69-1.54,1.54s0.69,1.54,1.54,1.54s1.54-0.69,1.54-1.54S10.64,16.45,9.79,16.45z
		 M9.79,19.23c-0.69,0-1.24-0.56-1.24-1.25s0.56-1.25,1.24-1.25c0.69,0,1.24,0.56,1.24,1.25S10.47,19.23,9.79,19.23z"/>
	<path class="st0" d="M23.73,16.45c-0.85,0-1.54,0.69-1.54,1.54s0.69,1.54,1.54,1.54s1.54-0.69,1.54-1.54S24.58,16.45,23.73,16.45z
		 M23.73,19.23c-0.69,0-1.25-0.56-1.25-1.25s0.56-1.25,1.25-1.25s1.25,0.56,1.25,1.25S24.42,19.23,23.73,19.23z"/>
</g>
</svg>
