<?xml version="1.0" encoding="utf-8"?>
<!-- Generator: Adobe Illustrator 21.1.0, SVG Export Plug-In . SVG Version: 6.00 Build 0)  -->
<!DOCTYPE svg PUBLIC "-//W3C//DTD SVG 1.1//EN" "http://www.w3.org/Graphics/SVG/1.1/DTD/svg11.dtd">
<svg version="1.1" id="Layer_1" xmlns="http://www.w3.org/2000/svg" xmlns:xlink="http://www.w3.org/1999/xlink" x="0px" y="0px"
	 viewBox="0 0 32 32" style="enable-background:new 0 0 32 32;" xml:space="preserve">
<path d="M3.29,11.5c0,0.01-0.01,0.02-0.01,0.04v4.82c0,0,0,0.01,0,0.01s0,0.01,0,0.01v4.82c0,0.08,0.07,0.15,0.15,0.15h8.37
	c0,0,0,0,0,0s0,0,0,0h8.37c0,0,0.01,0,0.01,0s0.01,0,0.01,0h8.37c0.08,0,0.15-0.07,0.15-0.15v-4.82c0,0,0-0.01,0-0.01
	c0,0,0-0.01,0-0.01v-4.82c0-0.01,0-0.03-0.01-0.04c0.02-0.07-0.01-0.14-0.07-0.17l-3.81-0.65c-0.02-0.01-0.19-0.02-0.21-0.02H7.46
	c-0.02,0-0.18,0-0.2,0.01l-3.89,0.65C3.3,11.36,3.27,11.43,3.29,11.5L3.29,11.5z M20.04,19.63v1.42h-8.08v-2.12h8.08
	C20.04,18.93,20.04,19.63,20.04,19.63z M20.04,17.27v1.37h-8.08v-2.12h8.08V17.27z M20.04,14.79v1.42h-8.08v-2.12h8.08
	C20.04,14.09,20.04,14.79,20.04,14.79z M20.04,12.43v1.37h-8.08v-2.12h8.08V12.43L20.04,12.43z M28.43,19.63v1.42h-8.08v-2.12h8.08
	C28.43,18.93,28.43,19.63,28.43,19.63z M28.43,17.27v1.37h-8.08v-2.12h8.08V17.27L28.43,17.27z M28.43,14.79v1.42h-8.08v-2.12h8.08
	C28.43,14.09,28.43,14.79,28.43,14.79z M28.43,12.43v1.37h-8.08v-2.12h8.08V12.43L28.43,12.43z M24.73,10.95l2.61,0.44h-7.01
	l-0.88-0.44H24.73z M18.88,10.95l0.82,0.44h-7.36l0.95-0.44H18.88L18.88,10.95z M7.34,10.95h5.35l-0.99,0.44H4.73L7.34,10.95z
	 M3.57,11.68h8.08v2.12H3.57C3.57,13.8,3.57,11.68,3.57,11.68z M3.57,14.09h8.08v2.12H3.57C3.57,16.21,3.57,14.09,3.57,14.09z
	 M3.57,16.52h8.08v2.12H3.57L3.57,16.52L3.57,16.52z M3.57,18.93h8.08v2.12H3.57C3.57,21.05,3.57,18.93,3.57,18.93z M4.1,12.79
	c0,0.11,0.09,0.2,0.2,0.2s0.2-0.09,0.2-0.2c0-0.11-0.09-0.2-0.2-0.2C4.19,12.59,4.1,12.68,4.1,12.79z M4.81,12.79
	c0,0.11,0.09,0.2,0.2,0.2s0.2-0.09,0.2-0.2c0-0.11-0.09-0.2-0.2-0.2C4.9,12.59,4.81,12.68,4.81,12.79z M11.15,12.07h-0.44
	c-0.04,0-0.07,0.03-0.07,0.07v1.16c0,0.04,0.03,0.07,0.07,0.07h0.44c0.04,0,0.07-0.03,0.07-0.07v-1.16
	C11.23,12.1,11.19,12.07,11.15,12.07z M11.08,13.23h-0.29v-1.02h0.29V13.23z M10.28,12.07H9.84c-0.04,0-0.07,0.03-0.07,0.07v1.16
	c0,0.04,0.03,0.07,0.07,0.07h0.44c0.04,0,0.07-0.03,0.07-0.07v-1.16C10.35,12.1,10.32,12.07,10.28,12.07z M10.21,13.23H9.92v-1.02
	h0.29V13.23z M4.1,15.27c0,0.11,0.09,0.2,0.2,0.2s0.2-0.09,0.2-0.2c0-0.11-0.09-0.2-0.2-0.2C4.19,15.07,4.1,15.16,4.1,15.27z
	 M4.81,15.27c0,0.11,0.09,0.2,0.2,0.2s0.2-0.09,0.2-0.2c0-0.11-0.09-0.2-0.2-0.2C4.9,15.07,4.81,15.16,4.81,15.27z M11.15,14.54
	h-0.44c-0.04,0-0.07,0.03-0.07,0.07v1.16c0,0.04,0.03,0.07,0.07,0.07h0.44c0.04,0,0.07-0.03,0.07-0.07v-1.16
	C11.23,14.57,11.19,14.54,11.15,14.54z M11.08,15.71h-0.29v-1.02h0.29V15.71z M10.28,14.54H9.84c-0.04,0-0.07,0.03-0.07,0.07v1.16
	c0,0.04,0.03,0.07,0.07,0.07h0.44c0.04,0,0.07-0.03,0.07-0.07v-1.16C10.35,14.57,10.32,14.54,10.28,14.54z M10.21,15.71H9.92v-1.02
	h0.29V15.71z M4.1,17.6c0,0.11,0.09,0.2,0.2,0.2s0.2-0.09,0.2-0.2c0-0.11-0.09-0.2-0.2-0.2C4.19,17.4,4.1,17.49,4.1,17.6z
	 M4.81,17.6c0,0.11,0.09,0.2,0.2,0.2s0.2-0.09,0.2-0.2c0-0.11-0.09-0.2-0.2-0.2C4.9,17.4,4.81,17.49,4.81,17.6z M11.15,16.87h-0.44
	c-0.04,0-0.07,0.03-0.07,0.07v1.17c0,0.04,0.03,0.07,0.07,0.07h0.44c0.04,0,0.07-0.03,0.07-0.07v-1.17
	C11.23,16.9,11.19,16.87,11.15,16.87z M11.08,18.04h-0.29v-1.02h0.29V18.04z M10.28,16.87H9.84c-0.04,0-0.07,0.03-0.07,0.07v1.17
	c0,0.04,0.03,0.07,0.07,0.07h0.44c0.04,0,0.07-0.03,0.07-0.07v-1.17C10.35,16.9,10.32,16.87,10.28,16.87z M10.21,18.04H9.92v-1.02
	h0.29V18.04z M4.1,20.07C4.1,20.07,4.1,20.08,4.1,20.07c0,0.12,0.09,0.21,0.2,0.21c0.11,0,0.2-0.09,0.2-0.2c0,0,0-0.01,0-0.01
	c0,0,0,0,0-0.01c0-0.11-0.09-0.2-0.2-0.2C4.19,19.86,4.1,19.95,4.1,20.07C4.1,20.07,4.1,20.07,4.1,20.07z M4.81,20.07
	C4.81,20.07,4.81,20.08,4.81,20.07c0,0.12,0.09,0.21,0.2,0.21c0.11,0,0.2-0.09,0.2-0.2c0,0,0-0.01,0-0.01c0,0,0,0,0-0.01
	c0-0.11-0.09-0.2-0.2-0.2C4.9,19.86,4.81,19.95,4.81,20.07C4.81,20.07,4.81,20.07,4.81,20.07z M11.15,19.35h-0.44
	c-0.04,0-0.07,0.03-0.07,0.07v1.16c0,0.04,0.03,0.07,0.07,0.07h0.44c0.04,0,0.07-0.03,0.07-0.07v-1.16
	C11.23,19.38,11.19,19.35,11.15,19.35z M11.08,20.51h-0.29v-1.02h0.29C11.08,19.49,11.08,20.51,11.08,20.51z M10.28,19.35H9.84
	c-0.04,0-0.07,0.03-0.07,0.07v1.16c0,0.04,0.03,0.07,0.07,0.07h0.44c0.04,0,0.07-0.03,0.07-0.07v-1.16
	C10.35,19.38,10.32,19.35,10.28,19.35z M10.21,20.51H9.92v-1.02h0.29C10.21,19.49,10.21,20.51,10.21,20.51z M12.54,12.79
	c0,0.11,0.09,0.2,0.2,0.2s0.2-0.09,0.2-0.2c0-0.11-0.09-0.2-0.2-0.2C12.63,12.59,12.54,12.68,12.54,12.79z M13.25,12.79
	c0,0.11,0.09,0.2,0.2,0.2s0.2-0.09,0.2-0.2c0-0.11-0.09-0.2-0.2-0.2C13.34,12.59,13.25,12.68,13.25,12.79z M19.16,13.38h0.44
	c0.04,0,0.07-0.03,0.07-0.07v-1.16c0-0.04-0.03-0.07-0.07-0.07h-0.44c-0.04,0-0.07,0.03-0.07,0.07v1.16
	C19.09,13.34,19.12,13.38,19.16,13.38z M19.23,12.21h0.29v1.02h-0.29V12.21z M18.29,13.38h0.44c0.04,0,0.07-0.03,0.07-0.07v-1.16
	c0-0.04-0.03-0.07-0.07-0.07h-0.44c-0.04,0-0.07,0.03-0.07,0.07v1.16C18.21,13.34,18.25,13.38,18.29,13.38z M18.36,12.21h0.29v1.02
	h-0.29V12.21z M12.54,15.27c0,0.11,0.09,0.2,0.2,0.2s0.2-0.09,0.2-0.2c0-0.11-0.09-0.2-0.2-0.2C12.63,15.07,12.54,15.16,12.54,15.27
	z M13.25,15.27c0,0.11,0.09,0.2,0.2,0.2s0.2-0.09,0.2-0.2c0-0.11-0.09-0.2-0.2-0.2C13.34,15.07,13.25,15.16,13.25,15.27z
	 M19.16,15.85h0.44c0.04,0,0.07-0.03,0.07-0.07v-1.16c0-0.04-0.03-0.07-0.07-0.07h-0.44c-0.04,0-0.07,0.03-0.07,0.07v1.16
	C19.09,15.82,19.12,15.85,19.16,15.85z M19.23,14.69h0.29v1.02h-0.29C19.23,15.71,19.23,14.69,19.23,14.69z M18.29,15.85h0.44
	c0.04,0,0.07-0.03,0.07-0.07v-1.16c0-0.04-0.03-0.07-0.07-0.07h-0.44c-0.04,0-0.07,0.03-0.07,0.07v1.16
	C18.21,15.82,18.25,15.85,18.29,15.85z M18.36,14.69h0.29v1.02h-0.29C18.36,15.71,18.36,14.69,18.36,14.69z M12.54,17.6
	c0,0.11,0.09,0.2,0.2,0.2s0.2-0.09,0.2-0.2c0-0.11-0.09-0.2-0.2-0.2C12.63,17.4,12.54,17.49,12.54,17.6z M13.25,17.6
	c0,0.11,0.09,0.2,0.2,0.2s0.2-0.09,0.2-0.2c0-0.11-0.09-0.2-0.2-0.2C13.34,17.4,13.25,17.49,13.25,17.6z M19.16,18.18h0.44
	c0.04,0,0.07-0.03,0.07-0.07v-1.16c0-0.04-0.03-0.07-0.07-0.07h-0.44c-0.04,0-0.07,0.03-0.07,0.07v1.17
	C19.09,18.15,19.12,18.18,19.16,18.18z M19.23,17.02h0.29v1.02h-0.29C19.23,18.04,19.23,17.02,19.23,17.02z M18.29,18.18h0.44
	c0.04,0,0.07-0.03,0.07-0.07v-1.16c0-0.04-0.03-0.07-0.07-0.07h-0.44c-0.04,0-0.07,0.03-0.07,0.07v1.17
	C18.21,18.15,18.25,18.18,18.29,18.18z M18.36,17.02h0.29v1.02h-0.29C18.36,18.04,18.36,17.02,18.36,17.02z M12.54,20.07
	C12.54,20.07,12.54,20.08,12.54,20.07c0,0.12,0.09,0.21,0.2,0.21s0.2-0.09,0.2-0.2c0,0,0-0.01,0-0.01c0,0,0,0,0-0.01
	c0-0.11-0.09-0.2-0.2-0.2S12.54,19.95,12.54,20.07C12.54,20.07,12.54,20.07,12.54,20.07z M13.25,20.07
	C13.25,20.07,13.25,20.08,13.25,20.07c0,0.12,0.09,0.21,0.2,0.21s0.2-0.09,0.2-0.2c0,0,0-0.01,0-0.01c0,0,0,0,0-0.01
	c0-0.11-0.09-0.2-0.2-0.2S13.25,19.95,13.25,20.07C13.25,20.07,13.25,20.07,13.25,20.07z M19.16,20.66h0.44
	c0.04,0,0.07-0.03,0.07-0.07v-1.16c0-0.04-0.03-0.07-0.07-0.07h-0.44c-0.04,0-0.07,0.03-0.07,0.07v1.16
	C19.09,20.62,19.12,20.66,19.16,20.66z M19.23,19.49h0.29v1.02h-0.29V19.49z M18.29,20.66h0.44c0.04,0,0.07-0.03,0.07-0.07v-1.16
	c0-0.04-0.03-0.07-0.07-0.07h-0.44c-0.04,0-0.07,0.03-0.07,0.07v1.16C18.21,20.62,18.25,20.66,18.29,20.66z M18.36,19.49h0.29v1.02
	h-0.29V19.49z M20.84,12.79c0,0.11,0.09,0.2,0.2,0.2s0.2-0.09,0.2-0.2c0-0.11-0.09-0.2-0.2-0.2C20.93,12.59,20.84,12.68,20.84,12.79
	z M21.55,12.79c0,0.11,0.09,0.2,0.2,0.2s0.2-0.09,0.2-0.2c0-0.11-0.09-0.2-0.2-0.2C21.64,12.59,21.55,12.68,21.55,12.79z
	 M27.46,13.38h0.44c0.04,0,0.07-0.03,0.07-0.07v-1.16c0-0.04-0.03-0.07-0.07-0.07h-0.44c-0.04,0-0.07,0.03-0.07,0.07v1.16
	C27.38,13.34,27.42,13.38,27.46,13.38z M27.53,12.21h0.29v1.02h-0.29V12.21z M26.58,13.38h0.44c0.04,0,0.07-0.03,0.07-0.07v-1.16
	c0-0.04-0.03-0.07-0.07-0.07h-0.44c-0.04,0-0.07,0.03-0.07,0.07v1.16C26.51,13.34,26.54,13.38,26.58,13.38z M26.66,12.21h0.29v1.02
	h-0.29V12.21z M20.84,15.27c0,0.11,0.09,0.2,0.2,0.2s0.2-0.09,0.2-0.2c0-0.11-0.09-0.2-0.2-0.2C20.93,15.07,20.84,15.16,20.84,15.27
	z M21.55,15.27c0,0.11,0.09,0.2,0.2,0.2s0.2-0.09,0.2-0.2c0-0.11-0.09-0.2-0.2-0.2C21.64,15.07,21.55,15.16,21.55,15.27z
	 M27.46,15.85h0.44c0.04,0,0.07-0.03,0.07-0.07v-1.16c0-0.04-0.03-0.07-0.07-0.07h-0.44c-0.04,0-0.07,0.03-0.07,0.07v1.16
	C27.38,15.82,27.42,15.85,27.46,15.85z M27.53,14.69h0.29v1.02h-0.29C27.53,15.71,27.53,14.69,27.53,14.69z M26.58,15.85h0.44
	c0.04,0,0.07-0.03,0.07-0.07v-1.16c0-0.04-0.03-0.07-0.07-0.07h-0.44c-0.04,0-0.07,0.03-0.07,0.07v1.16
	C26.51,15.82,26.54,15.85,26.58,15.85z M26.66,14.69h0.29v1.02h-0.29C26.66,15.71,26.66,14.69,26.66,14.69z M20.84,17.6
	c0,0.11,0.09,0.2,0.2,0.2s0.2-0.09,0.2-0.2c0-0.11-0.09-0.2-0.2-0.2C20.93,17.4,20.84,17.49,20.84,17.6z M21.55,17.6
	c0,0.11,0.09,0.2,0.2,0.2s0.2-0.09,0.2-0.2c0-0.11-0.09-0.2-0.2-0.2C21.64,17.4,21.55,17.49,21.55,17.6z M27.46,18.18h0.44
	c0.04,0,0.07-0.03,0.07-0.07v-1.16c0-0.04-0.03-0.07-0.07-0.07h-0.44c-0.04,0-0.07,0.03-0.07,0.07v1.17
	C27.38,18.15,27.42,18.18,27.46,18.18z M27.53,17.02h0.29v1.02h-0.29C27.53,18.04,27.53,17.02,27.53,17.02z M26.58,18.18h0.44
	c0.04,0,0.07-0.03,0.07-0.07v-1.16c0-0.04-0.03-0.07-0.07-0.07h-0.44c-0.04,0-0.07,0.03-0.07,0.07v1.17
	C26.51,18.15,26.54,18.18,26.58,18.18z M26.66,17.02h0.29v1.02h-0.29C26.66,18.04,26.66,17.02,26.66,17.02z M20.84,20.07
	C20.84,20.07,20.84,20.08,20.84,20.07c0,0.12,0.09,0.21,0.2,0.21s0.2-0.09,0.2-0.2c0,0,0,0,0-0.01s0,0,0-0.01
	c0-0.11-0.09-0.2-0.2-0.2S20.84,19.96,20.84,20.07C20.84,20.07,20.84,20.07,20.84,20.07z M21.55,20.07
	C21.55,20.07,21.55,20.08,21.55,20.07c0,0.12,0.09,0.21,0.2,0.21s0.2-0.09,0.2-0.2c0,0,0-0.01,0-0.01c0,0,0,0,0-0.01
	c0-0.11-0.09-0.2-0.2-0.2S21.55,19.95,21.55,20.07C21.55,20.07,21.55,20.07,21.55,20.07z M27.46,20.66h0.44
	c0.04,0,0.07-0.03,0.07-0.07v-1.16c0-0.04-0.03-0.07-0.07-0.07h-0.44c-0.04,0-0.07,0.03-0.07,0.07v1.16
	C27.38,20.62,27.42,20.66,27.46,20.66z M27.53,19.49h0.29v1.02h-0.29V19.49z M26.58,20.66h0.44c0.04,0,0.07-0.03,0.07-0.07v-1.16
	c0-0.04-0.03-0.07-0.07-0.07h-0.44c-0.04,0-0.07,0.03-0.07,0.07v1.16C26.51,20.62,26.54,20.66,26.58,20.66z M26.66,19.49h0.29v1.02
	h-0.29V19.49z M12.87,21.76h-0.29c-0.06,0-0.11,0.05-0.11,0.11s0.05,0.11,0.11,0.11h0.29c0.06,0,0.11-0.05,0.11-0.11
	C12.98,21.8,12.93,21.76,12.87,21.76z M16.5,21.76h-0.29c-0.06,0-0.11,0.05-0.11,0.11s0.05,0.11,0.11,0.11h0.29
	c0.06,0,0.11-0.05,0.11-0.11C16.61,21.8,16.56,21.76,16.5,21.76z M15.05,21.76h-0.29c-0.06,0-0.11,0.05-0.11,0.11
	s0.05,0.11,0.11,0.11h0.29c0.06,0,0.11-0.05,0.11-0.11C15.16,21.8,15.11,21.76,15.05,21.76z M14.32,21.76h-0.29
	c-0.06,0-0.11,0.05-0.11,0.11s0.05,0.11,0.11,0.11h0.29c0.06,0,0.11-0.05,0.11-0.11C14.43,21.8,14.38,21.76,14.32,21.76z
	 M17.23,21.76h-0.29c-0.06,0-0.11,0.05-0.11,0.11s0.05,0.11,0.11,0.11h0.29c0.06,0,0.11-0.05,0.11-0.11
	C17.34,21.8,17.29,21.76,17.23,21.76z M13.6,21.76h-0.29c-0.06,0-0.11,0.05-0.11,0.11s0.05,0.11,0.11,0.11h0.29
	c0.06,0,0.11-0.05,0.11-0.11C13.71,21.8,13.66,21.76,13.6,21.76z M15.78,21.76h-0.29c-0.06,0-0.11,0.05-0.11,0.11
	s0.05,0.11,0.11,0.11h0.29c0.06,0,0.11-0.05,0.11-0.11C15.89,21.8,15.84,21.76,15.78,21.76z M20.86,21.76h-0.29
	c-0.06,0-0.11,0.05-0.11,0.11s0.05,0.11,0.11,0.11h0.29c0.06,0,0.11-0.05,0.11-0.11C20.97,21.8,20.92,21.76,20.86,21.76L20.86,21.76
	z M20.14,21.76h-0.29c-0.06,0-0.11,0.05-0.11,0.11s0.05,0.11,0.11,0.11h0.29c0.06,0,0.11-0.05,0.11-0.11
	C20.24,21.8,20.19,21.76,20.14,21.76L20.14,21.76z M18.68,21.76h-0.29c-0.06,0-0.11,0.05-0.11,0.11s0.05,0.11,0.11,0.11h0.29
	c0.06,0,0.11-0.05,0.11-0.11C18.79,21.8,18.74,21.76,18.68,21.76z M17.96,21.76h-0.29c-0.06,0-0.11,0.05-0.11,0.11
	s0.05,0.11,0.11,0.11h0.29c0.06,0,0.11-0.05,0.11-0.11C18.07,21.8,18.02,21.76,17.96,21.76z M19.41,21.76h-0.29
	c-0.06,0-0.11,0.05-0.11,0.11s0.05,0.11,0.11,0.11h0.29c0.06,0,0.11-0.05,0.11-0.11C19.52,21.8,19.47,21.76,19.41,21.76z
	 M21.59,21.76H21.3c-0.06,0-0.11,0.05-0.11,0.11s0.05,0.11,0.11,0.11h0.29c0.06,0,0.11-0.05,0.11-0.11
	C21.7,21.8,21.65,21.76,21.59,21.76z M7.79,21.76H7.5c-0.06,0-0.11,0.05-0.11,0.11s0.05,0.11,0.11,0.11h0.29
	c0.06,0,0.11-0.05,0.11-0.11C7.9,21.8,7.85,21.76,7.79,21.76z M6.34,21.76H6.05c-0.06,0-0.11,0.05-0.11,0.11s0.05,0.11,0.11,0.11
	h0.29c0.06,0,0.11-0.05,0.11-0.11C6.44,21.8,6.4,21.76,6.34,21.76z M7.06,21.76H6.77c-0.06,0-0.11,0.05-0.11,0.11
	s0.05,0.11,0.11,0.11h0.29c0.06,0,0.11-0.05,0.11-0.11C7.17,21.8,7.12,21.76,7.06,21.76z M5.61,21.76H5.32
	c-0.06,0-0.11,0.05-0.11,0.11s0.05,0.11,0.11,0.11h0.29c0.06,0,0.11-0.05,0.11-0.11C5.72,21.8,5.67,21.76,5.61,21.76z M4.88,21.76
	H4.59c-0.06,0-0.11,0.05-0.11,0.11s0.05,0.11,0.11,0.11h0.29c0.06,0,0.11-0.05,0.11-0.11C4.99,21.8,4.94,21.76,4.88,21.76z
	 M8.51,21.76H8.22c-0.06,0-0.11,0.05-0.11,0.11s0.05,0.11,0.11,0.11h0.29c0.06,0,0.11-0.05,0.11-0.11
	C8.62,21.8,8.57,21.76,8.51,21.76z M11.42,21.76h-0.29c-0.06,0-0.11,0.05-0.11,0.11s0.05,0.11,0.11,0.11h0.29
	c0.06,0,0.11-0.05,0.11-0.11C11.53,21.8,11.48,21.76,11.42,21.76z M10.69,21.76H10.4c-0.06,0-0.11,0.05-0.11,0.11
	s0.05,0.11,0.11,0.11h0.29c0.06,0,0.11-0.05,0.11-0.11C10.8,21.8,10.75,21.76,10.69,21.76z M9.24,21.76H8.95
	c-0.06,0-0.11,0.05-0.11,0.11s0.05,0.11,0.11,0.11h0.29c0.06,0,0.11-0.05,0.11-0.11C9.35,21.8,9.3,21.76,9.24,21.76z M9.97,21.76
	H9.68c-0.06,0-0.11,0.05-0.11,0.11s0.05,0.11,0.11,0.11h0.29c0.06,0,0.11-0.05,0.11-0.11C10.08,21.8,10.03,21.76,9.97,21.76z
	 M12.15,21.76h-0.29c-0.06,0-0.11,0.05-0.11,0.11s0.05,0.11,0.11,0.11h0.29c0.06,0,0.11-0.05,0.11-0.11
	C12.25,21.8,12.21,21.76,12.15,21.76z M29.25,15.33c-0.06,0-0.11,0.05-0.11,0.11v0.29c0,0.06,0.05,0.11,0.11,0.11
	s0.11-0.05,0.11-0.11v-0.29C29.35,15.38,29.31,15.33,29.25,15.33z M29.25,16.78c-0.06,0-0.11,0.05-0.11,0.11v0.29
	c0,0.06,0.05,0.11,0.11,0.11s0.11-0.05,0.11-0.11v-0.29C29.35,16.83,29.31,16.78,29.25,16.78z M29.25,17.5
	c-0.06,0-0.11,0.05-0.11,0.11v0.29c0,0.06,0.05,0.11,0.11,0.11s0.11-0.05,0.11-0.11v-0.29C29.35,17.55,29.31,17.5,29.25,17.5z
	 M29.25,16.05c-0.06,0-0.11,0.05-0.11,0.11v0.29c0,0.06,0.05,0.11,0.11,0.11s0.11-0.05,0.11-0.11v-0.29
	C29.35,16.1,29.31,16.05,29.25,16.05z M29.25,18.23c-0.06,0-0.11,0.05-0.11,0.11v0.29c0,0.06,0.05,0.11,0.11,0.11
	s0.11-0.05,0.11-0.11v-0.29C29.35,18.28,29.31,18.23,29.25,18.23z M29.25,18.96c-0.06,0-0.11,0.05-0.11,0.11v0.29
	c0,0.06,0.05,0.11,0.11,0.11s0.11-0.05,0.11-0.11v-0.29C29.35,19.01,29.31,18.96,29.25,18.96z M3.42,21.76
	c-0.08,0-0.16-0.02-0.24-0.05c-0.05-0.03-0.12,0-0.14,0.05c-0.03,0.05,0,0.12,0.05,0.15c0.1,0.05,0.21,0.07,0.33,0.07h0.01
	c0.06,0,0.11-0.05,0.11-0.11C3.54,21.8,3.48,21.75,3.42,21.76L3.42,21.76z M29.25,12.42c-0.06,0-0.11,0.05-0.11,0.11v0.29
	c0,0.06,0.05,0.11,0.11,0.11s0.11-0.05,0.11-0.11v-0.29C29.35,12.47,29.31,12.42,29.25,12.42L29.25,12.42z M29.25,11.69
	c-0.06,0-0.11,0.05-0.11,0.11v0.29c0,0.06,0.05,0.11,0.11,0.11s0.11-0.05,0.11-0.11V11.8C29.35,11.74,29.31,11.69,29.25,11.69z
	 M29.25,19.68c-0.06,0-0.11,0.05-0.11,0.11v0.29c0,0.06,0.05,0.11,0.11,0.11s0.11-0.05,0.11-0.11v-0.29
	C29.35,19.73,29.31,19.68,29.25,19.68z M29.25,13.15c-0.06,0-0.11,0.05-0.11,0.11v0.29c0,0.06,0.05,0.11,0.11,0.11
	s0.11-0.05,0.11-0.11v-0.29C29.35,13.2,29.31,13.15,29.25,13.15z M29.25,13.87c-0.06,0-0.11,0.05-0.11,0.11v0.29
	c0,0.06,0.05,0.11,0.11,0.11s0.11-0.05,0.11-0.11v-0.29C29.35,13.92,29.31,13.87,29.25,13.87z M29.25,14.6
	c-0.06,0-0.11,0.05-0.11,0.11V15c0,0.06,0.05,0.11,0.11,0.11s0.11-0.05,0.11-0.11v-0.29C29.35,14.65,29.31,14.6,29.25,14.6z
	 M24.49,21.76H24.2c-0.06,0-0.11,0.05-0.11,0.11s0.05,0.11,0.11,0.11h0.29c0.06,0,0.11-0.05,0.11-0.11
	C24.6,21.8,24.55,21.76,24.49,21.76z M25.22,21.76h-0.29c-0.06,0-0.11,0.05-0.11,0.11s0.05,0.11,0.11,0.11h0.29
	c0.06,0,0.11-0.05,0.11-0.11C25.33,21.8,25.28,21.76,25.22,21.76z M25.95,21.76h-0.29c-0.06,0-0.11,0.05-0.11,0.11
	s0.05,0.11,0.11,0.11h0.29c0.06,0,0.11-0.05,0.11-0.11C26.05,21.8,26.01,21.76,25.95,21.76z M26.67,21.76h-0.29
	c-0.06,0-0.11,0.05-0.11,0.11s0.05,0.11,0.11,0.11h0.29c0.06,0,0.11-0.05,0.11-0.11C26.78,21.8,26.73,21.76,26.67,21.76z
	 M22.31,21.76h-0.29c-0.06,0-0.11,0.05-0.11,0.11s0.05,0.11,0.11,0.11h0.29c0.06,0,0.11-0.05,0.11-0.11
	C22.42,21.8,22.37,21.76,22.31,21.76z M23.04,21.76h-0.29c-0.06,0-0.11,0.05-0.11,0.11s0.05,0.11,0.11,0.11h0.29
	c0.06,0,0.11-0.05,0.11-0.11C23.15,21.8,23.1,21.76,23.04,21.76z M23.77,21.76h-0.29c-0.06,0-0.11,0.05-0.11,0.11
	s0.05,0.11,0.11,0.11h0.29c0.06,0,0.11-0.05,0.11-0.11C23.88,21.8,23.83,21.76,23.77,21.76z M29.25,20.41
	c-0.06,0-0.11,0.05-0.11,0.11v0.29c0,0.06,0.05,0.11,0.11,0.11s0.11-0.05,0.11-0.11v-0.29C29.35,20.46,29.31,20.41,29.25,20.41z
	 M27.4,21.76h-0.29c-0.06,0-0.11,0.05-0.11,0.11s0.05,0.11,0.11,0.11h0.29c0.06,0,0.11-0.05,0.11-0.11
	C27.51,21.8,27.46,21.76,27.4,21.76z M29.24,11.48c0,0,0.01,0,0.01,0c0.06-0.01,0.1-0.06,0.09-0.12c-0.01-0.11-0.06-0.22-0.11-0.31
	c-0.03-0.05-0.1-0.07-0.15-0.03c-0.05,0.03-0.07,0.1-0.03,0.15c0.04,0.07,0.07,0.15,0.08,0.23C29.13,11.44,29.18,11.48,29.24,11.48z
	 M29.25,21.14c-0.06,0-0.11,0.04-0.12,0.1c-0.01,0.08-0.03,0.16-0.07,0.23c-0.03,0.05-0.01,0.12,0.04,0.15
	c0.02,0.01,0.03,0.01,0.05,0.01c0.04,0,0.08-0.02,0.1-0.06c0.06-0.1,0.09-0.21,0.1-0.32C29.36,21.19,29.31,21.14,29.25,21.14
	L29.25,21.14z M28.12,21.76h-0.29c-0.06,0-0.11,0.05-0.11,0.11s0.05,0.11,0.11,0.11h0.29c0.06,0,0.11-0.05,0.11-0.11
	C28.23,21.8,28.18,21.76,28.12,21.76z M28.8,21.71c-0.07,0.03-0.15,0.05-0.22,0.05h-0.01c-0.06,0-0.11,0.05-0.11,0.11
	s0.05,0.11,0.11,0.11h0.01c0.11,0,0.21-0.02,0.31-0.07c0.06-0.02,0.08-0.09,0.06-0.14C28.92,21.71,28.85,21.69,28.8,21.71
	L28.8,21.71z M4.16,21.76H3.87c-0.06,0-0.11,0.05-0.11,0.11s0.05,0.11,0.11,0.11h0.29c0.06,0,0.11-0.05,0.11-0.11
	C4.27,21.8,4.22,21.76,4.16,21.76z M16.95,10.24h0.29c0.06,0,0.11-0.05,0.11-0.11c0-0.06-0.05-0.11-0.11-0.11h-0.29
	c-0.06,0-0.11,0.05-0.11,0.11C16.84,10.2,16.89,10.24,16.95,10.24z M17.68,10.24h0.29c0.06,0,0.11-0.05,0.11-0.11
	c0-0.06-0.05-0.11-0.11-0.11h-0.29c-0.06,0-0.11,0.05-0.11,0.11C17.57,10.2,17.62,10.24,17.68,10.24z M16.23,10.24h0.29
	c0.06,0,0.11-0.05,0.11-0.11c0-0.06-0.05-0.11-0.11-0.11h-0.29c-0.06,0-0.11,0.05-0.11,0.11C16.12,10.2,16.16,10.24,16.23,10.24z
	 M2.78,11.02c-0.06,0.09-0.11,0.2-0.12,0.31c-0.01,0.06,0.03,0.12,0.09,0.12c0.01,0,0.01,0,0.02,0c0.05,0,0.1-0.04,0.11-0.09
	c0.01-0.08,0.04-0.16,0.09-0.23C3,11.1,2.98,11.03,2.93,11C2.88,10.96,2.82,10.98,2.78,11.02L2.78,11.02z M15.5,10.24h0.29
	c0.06,0,0.11-0.05,0.11-0.11c0-0.06-0.05-0.11-0.11-0.11H15.5c-0.06,0-0.11,0.05-0.11,0.11C15.39,10.2,15.44,10.24,15.5,10.24z
	 M19.13,10.24h0.29c0.06,0,0.11-0.05,0.11-0.11c0-0.06-0.05-0.11-0.11-0.11h-0.29c-0.06,0-0.11,0.05-0.11,0.11
	C19.02,10.2,19.07,10.24,19.13,10.24z M18.41,10.24h0.29c0.06,0,0.11-0.05,0.11-0.11c0-0.06-0.05-0.11-0.11-0.11h-0.29
	c-0.06,0-0.11,0.05-0.11,0.11C18.3,10.2,18.35,10.24,18.41,10.24z M14.77,10.24h0.29c0.06,0,0.11-0.05,0.11-0.11
	c0-0.06-0.05-0.11-0.11-0.11h-0.29c-0.06,0-0.11,0.05-0.11,0.11C14.66,10.2,14.71,10.24,14.77,10.24z M11.87,10.24h0.29
	c0.06,0,0.11-0.05,0.11-0.11c0-0.06-0.05-0.11-0.11-0.11h-0.29c-0.06,0-0.11,0.05-0.11,0.11C11.76,10.2,11.81,10.24,11.87,10.24z
	 M12.59,10.24h0.29c0.06,0,0.11-0.05,0.11-0.11c0-0.06-0.05-0.11-0.11-0.11h-0.29c-0.06,0-0.11,0.05-0.11,0.11
	C12.49,10.2,12.53,10.24,12.59,10.24z M14.05,10.24h0.29c0.06,0,0.11-0.05,0.11-0.11c0-0.06-0.05-0.11-0.11-0.11h-0.29
	c-0.06,0-0.11,0.05-0.11,0.11C13.94,10.2,13.99,10.24,14.05,10.24z M13.32,10.24h0.29c0.06,0,0.11-0.05,0.11-0.11
	c0-0.06-0.05-0.11-0.11-0.11h-0.29c-0.06,0-0.11,0.05-0.11,0.11C13.21,10.2,13.26,10.24,13.32,10.24z M25.23,10.32
	c0.05,0,0.1-0.04,0.11-0.09c0.01-0.06-0.03-0.12-0.09-0.13l-0.28-0.05l-0.02,0.11l-0.01,0.11l0.28,0.05
	C25.21,10.32,25.22,10.32,25.23,10.32L25.23,10.32z M26.35,10.52l0.29,0.05c0.01,0,0.01,0,0.02,0c0.05,0,0.1-0.04,0.11-0.09
	c0.01-0.06-0.03-0.12-0.09-0.13l-0.29-0.05c-0.06-0.01-0.12,0.03-0.13,0.09S26.29,10.5,26.35,10.52L26.35,10.52z M27.07,10.64
	l0.29,0.05c0.01,0,0.01,0,0.02,0c0.05,0,0.1-0.04,0.11-0.09c0.01-0.06-0.03-0.12-0.09-0.13l-0.29-0.05
	c-0.06-0.01-0.12,0.03-0.13,0.09C26.97,10.57,27.01,10.63,27.07,10.64z M11.14,10.24h0.29c0.06,0,0.11-0.05,0.11-0.11
	c0-0.06-0.05-0.11-0.11-0.11h-0.29c-0.06,0-0.11,0.05-0.11,0.11C11.03,10.2,11.08,10.24,11.14,10.24z M25.64,10.39l0.29,0.05
	c0.01,0,0.01,0,0.02,0c0.05,0,0.1-0.04,0.11-0.09c0.01-0.06-0.03-0.12-0.09-0.13l-0.29-0.05c-0.06-0.01-0.12,0.03-0.13,0.09
	S25.58,10.38,25.64,10.39L25.64,10.39z M27.78,10.76l0.29,0.05c0.01,0,0.01,0,0.02,0c0.05,0,0.1-0.04,0.11-0.09
	c0.01-0.06-0.03-0.12-0.09-0.13l-0.29-0.05c-0.06-0.01-0.12,0.03-0.13,0.09C27.69,10.69,27.73,10.75,27.78,10.76L27.78,10.76z
	 M28.5,10.88l0.27,0.05c0.01,0,0.02,0,0.03,0c0.04,0,0.08-0.02,0.1-0.06c0.03-0.05,0-0.12-0.05-0.15l-0.31-0.06
	c-0.06-0.01-0.12,0.03-0.13,0.09S28.44,10.87,28.5,10.88L28.5,10.88z M23.49,10.24h0.29c0.06,0,0.11-0.05,0.11-0.11
	c0-0.06-0.05-0.11-0.11-0.11h-0.29c-0.06,0-0.11,0.05-0.11,0.11C23.38,10.2,23.43,10.24,23.49,10.24z M21.31,10.24h0.29
	c0.06,0,0.11-0.05,0.11-0.11c0-0.06-0.05-0.11-0.11-0.11h-0.29c-0.06,0-0.11,0.05-0.11,0.11C21.2,10.2,21.25,10.24,21.31,10.24z
	 M22.04,10.24h0.29c0.06,0,0.11-0.05,0.11-0.11c0-0.06-0.05-0.11-0.11-0.11h-0.29c-0.06,0-0.11,0.05-0.11,0.11
	C21.93,10.2,21.98,10.24,22.04,10.24z M20.58,10.24h0.29c0.06,0,0.11-0.05,0.11-0.11c0-0.06-0.05-0.11-0.11-0.11h-0.29
	c-0.06,0-0.11,0.05-0.11,0.11C20.47,10.2,20.52,10.24,20.58,10.24z M24.22,10.24h0.29c0.06,0,0.11-0.05,0.11-0.11
	c0-0.06-0.05-0.11-0.11-0.11h-0.29c-0.06,0-0.11,0.05-0.11,0.11C24.11,10.19,24.15,10.24,24.22,10.24z M22.76,10.24h0.29
	c0.06,0,0.11-0.05,0.11-0.11c0-0.06-0.05-0.11-0.11-0.11h-0.29c-0.06,0-0.11,0.05-0.11,0.11C22.65,10.19,22.7,10.24,22.76,10.24z
	 M19.86,10.24h0.29c0.06,0,0.11-0.05,0.11-0.11c0-0.06-0.05-0.11-0.11-0.11h-0.29c-0.06,0-0.11,0.05-0.11,0.11
	C19.75,10.2,19.8,10.24,19.86,10.24z M2.75,16.55c0.06,0,0.11-0.05,0.11-0.11v-0.29c0-0.06-0.05-0.11-0.11-0.11
	s-0.11,0.05-0.11,0.11v0.29C2.65,16.5,2.69,16.55,2.75,16.55z M2.75,17.27c0.06,0,0.11-0.05,0.11-0.11v-0.29
	c0-0.06-0.05-0.11-0.11-0.11s-0.11,0.05-0.11,0.11v0.29C2.65,17.22,2.69,17.27,2.75,17.27z M2.75,13.64c0.06,0,0.11-0.05,0.11-0.11
	v-0.29c0-0.06-0.05-0.11-0.11-0.11s-0.11,0.05-0.11,0.11v0.29C2.65,13.59,2.7,13.64,2.75,13.64L2.75,13.64z M2.75,14.37
	c0.06,0,0.11-0.05,0.11-0.11v-0.29c0-0.06-0.05-0.11-0.11-0.11s-0.11,0.05-0.11,0.11v0.29C2.65,14.32,2.69,14.37,2.75,14.37z
	 M2.75,18c0.06,0,0.11-0.05,0.11-0.11V17.6c0-0.06-0.05-0.11-0.11-0.11s-0.11,0.05-0.11,0.11v0.29C2.65,17.95,2.69,18,2.75,18z
	 M2.75,15.09c0.06,0,0.11-0.05,0.11-0.11v-0.29c0-0.06-0.05-0.11-0.11-0.11s-0.11,0.05-0.11,0.11v0.29
	C2.65,15.04,2.69,15.09,2.75,15.09z M2.75,15.82c0.06,0,0.11-0.05,0.11-0.11v-0.29c0-0.06-0.05-0.11-0.11-0.11s-0.11,0.05-0.11,0.11
	v0.29C2.65,15.77,2.69,15.82,2.75,15.82z M2.75,20.9c0.06,0,0.11-0.05,0.11-0.11V20.5c0-0.06-0.05-0.11-0.11-0.11
	s-0.11,0.05-0.11,0.11v0.29C2.65,20.85,2.69,20.9,2.75,20.9z M2.86,21.22c0-0.06-0.06-0.11-0.12-0.1c-0.06,0-0.11,0.05-0.1,0.11
	c0.01,0.11,0.04,0.22,0.09,0.32c0.02,0.04,0.06,0.06,0.1,0.06c0.02,0,0.04,0,0.05-0.01c0.05-0.03,0.07-0.09,0.05-0.15
	C2.89,21.38,2.87,21.31,2.86,21.22L2.86,21.22z M2.75,18.72c0.06,0,0.11-0.05,0.11-0.11v-0.29c0-0.06-0.05-0.11-0.11-0.11
	s-0.11,0.05-0.11,0.11v0.29C2.65,18.68,2.69,18.72,2.75,18.72z M2.75,19.45c0.06,0,0.11-0.05,0.11-0.11v-0.29
	c0-0.06-0.05-0.11-0.11-0.11s-0.11,0.05-0.11,0.11v0.29C2.65,19.4,2.69,19.45,2.75,19.45z M2.75,20.18c0.06,0,0.11-0.05,0.11-0.11
	v-0.29c0-0.06-0.05-0.11-0.11-0.11s-0.11,0.05-0.11,0.11v0.29C2.65,20.13,2.69,20.18,2.75,20.18z M5.36,10.57c0.01,0,0.01,0,0.02,0
	l0.29-0.05c0.06-0.01,0.1-0.07,0.09-0.13c-0.01-0.06-0.07-0.1-0.13-0.09l-0.29,0.05c-0.06,0.01-0.1,0.07-0.09,0.13
	C5.26,10.53,5.3,10.57,5.36,10.57L5.36,10.57z M8.24,10.24h0.29c0.06,0,0.11-0.05,0.11-0.11c0-0.06-0.05-0.11-0.11-0.11H8.24
	c-0.06,0-0.11,0.05-0.11,0.11C8.13,10.19,8.18,10.24,8.24,10.24z M6.07,10.45c0.01,0,0.01,0,0.02,0l0.29-0.05
	c0.06-0.01,0.1-0.07,0.09-0.13c-0.01-0.06-0.07-0.1-0.13-0.09l-0.29,0.05C6,10.24,5.96,10.3,5.97,10.36
	C5.98,10.41,6.02,10.45,6.07,10.45L6.07,10.45z M2.75,12.91c0.06,0,0.11-0.05,0.11-0.11v-0.29c0-0.06-0.05-0.11-0.11-0.11
	s-0.11,0.05-0.11,0.11v0.29C2.65,12.87,2.7,12.91,2.75,12.91L2.75,12.91z M7.51,10.24H7.8c0.06,0,0.11-0.05,0.11-0.11
	c0-0.06-0.05-0.11-0.11-0.11H7.51c-0.06,0-0.11,0.05-0.11,0.11C7.4,10.19,7.45,10.24,7.51,10.24z M9.69,10.24h0.29
	c0.06,0,0.11-0.05,0.11-0.11c0-0.06-0.05-0.11-0.11-0.11H9.69c-0.06,0-0.11,0.05-0.11,0.11C9.58,10.2,9.63,10.24,9.69,10.24z
	 M8.96,10.24h0.29c0.06,0,0.11-0.05,0.11-0.11c0-0.06-0.05-0.11-0.11-0.11H8.96c-0.06,0-0.11,0.05-0.11,0.11
	C8.85,10.2,8.9,10.24,8.96,10.24z M6.79,10.33c0.01,0,0.01,0,0.02,0l0.29-0.05c0.06-0.01,0.1-0.07,0.09-0.13
	c-0.01-0.06-0.07-0.1-0.13-0.09l-0.29,0.05c-0.06,0.01-0.1,0.07-0.09,0.13C6.69,10.29,6.74,10.32,6.79,10.33L6.79,10.33z
	 M2.75,12.19c0.06,0,0.11-0.05,0.11-0.11v-0.29c0-0.06-0.05-0.11-0.11-0.11s-0.11,0.05-0.11,0.11v0.29
	C2.65,12.14,2.69,12.19,2.75,12.19z M10.42,10.24h0.29c0.06,0,0.11-0.05,0.11-0.11c0-0.06-0.05-0.11-0.11-0.11h-0.29
	c-0.06,0-0.11,0.05-0.11,0.11C10.31,10.2,10.36,10.24,10.42,10.24z M3.22,10.93c0.01,0,0.02,0,0.02,0l0.27-0.05
	c0.06-0.01,0.1-0.07,0.09-0.13c-0.01-0.06-0.07-0.1-0.13-0.09L3.2,10.71l-0.03,0.01c-0.05,0.02-0.08,0.09-0.05,0.14
	C3.13,10.9,3.17,10.93,3.22,10.93L3.22,10.93z M4.64,10.69c0.01,0,0.01,0,0.02,0l0.29-0.05c0.06-0.01,0.1-0.07,0.09-0.13
	c-0.01-0.06-0.07-0.1-0.13-0.09l-0.29,0.05c-0.06,0.01-0.1,0.07-0.09,0.13C4.54,10.65,4.59,10.69,4.64,10.69L4.64,10.69z
	 M3.93,10.81c0.01,0,0.01,0,0.02,0l0.29-0.05c0.06-0.01,0.1-0.07,0.09-0.13c-0.01-0.06-0.07-0.1-0.13-0.09l-0.29,0.05
	c-0.06,0.01-0.1,0.07-0.09,0.13C3.83,10.77,3.87,10.81,3.93,10.81L3.93,10.81z"/>
</svg>
