<?xml version="1.0" encoding="utf-8"?>
<!-- Generator: Adobe Illustrator 21.1.0, SVG Export Plug-In . SVG Version: 6.00 Build 0)  -->
<!DOCTYPE svg PUBLIC "-//W3C//DTD SVG 1.1//EN" "http://www.w3.org/Graphics/SVG/1.1/DTD/svg11.dtd">
<svg version="1.1" id="Layer_1" xmlns="http://www.w3.org/2000/svg" xmlns:xlink="http://www.w3.org/1999/xlink" x="0px" y="0px"
	 viewBox="0 0 32 32" style="enable-background:new 0 0 32 32;" xml:space="preserve">
<path d="M16,18.77c-0.42,0-0.77,0.36-0.77,0.79c0,0.42,0.35,0.77,0.77,0.77s0.77-0.35,0.77-0.77C16.77,19.13,16.42,18.77,16,18.77z
	 M16.36,17.01l0.29-1.64v-3.62h-1.31v3.62l0.29,1.64L16.36,17.01L16.36,17.01z M24.65,22.23H7.35L16,7.25L24.65,22.23L24.65,22.23z
	 M14.92,11.54c0-0.12,0.09-0.21,0.21-0.21h1.73c0.12,0,0.21,0.09,0.21,0.21v3.85c0,0.01,0,0.03,0,0.04l-0.33,1.83
	c-0.02,0.1-0.1,0.17-0.21,0.17h-1.08c-0.1,0-0.19-0.07-0.21-0.17l-0.33-1.83c0-0.01,0-0.02,0-0.04
	C14.92,15.39,14.92,11.54,14.92,11.54z M16,20.74c-0.66,0-1.19-0.53-1.19-1.19c0-0.65,0.55-1.2,1.19-1.2s1.19,0.55,1.19,1.2
	C17.19,20.21,16.66,20.74,16,20.74z M6.77,22.9h18.46c0,0,0,0,0.01,0c0.19,0,0.33-0.15,0.33-0.33c0-0.08-0.03-0.16-0.08-0.22
	l-9.2-15.93c-0.12-0.21-0.46-0.21-0.58,0L6.48,22.4c-0.06,0.1-0.06,0.23,0,0.33C6.54,22.84,6.65,22.9,6.77,22.9L6.77,22.9z"/>
</svg>
