<?xml version="1.0" encoding="utf-8"?>
<!-- Generator: Adobe Illustrator 21.1.0, SVG Export Plug-In . SVG Version: 6.00 Build 0)  -->
<!DOCTYPE svg PUBLIC "-//W3C//DTD SVG 1.1//EN" "http://www.w3.org/Graphics/SVG/1.1/DTD/svg11.dtd">
<svg version="1.1" id="Layer_1" xmlns="http://www.w3.org/2000/svg" xmlns:xlink="http://www.w3.org/1999/xlink" x="0px" y="0px"
	 viewBox="0 0 32 32" style="enable-background:new 0 0 32 32;" xml:space="preserve">
<path d="M27.55,20.85L16.25,4.52c0-0.01-0.01-0.01-0.01-0.01C16.18,4.44,16.1,4.39,16,4.39c-0.1,0-0.18,0.05-0.24,0.12
	c0,0.01-0.01,0.01-0.02,0.01L4.45,20.85c-0.05,0.07-0.07,0.16-0.05,0.24s0.07,0.16,0.15,0.2l11.3,6.28c0.01,0,0.01,0,0.02,0.01
	c0.01,0,0.01,0.01,0.02,0.01c0.03,0.01,0.07,0.02,0.11,0.02c0.04,0,0.07-0.01,0.11-0.02c0.01,0,0.01-0.01,0.02-0.01
	c0.01,0,0.01,0,0.02-0.01l11.3-6.28c0.08-0.04,0.13-0.11,0.15-0.2C27.62,21.01,27.6,20.92,27.55,20.85L27.55,20.85z M15.69,5.68
	v21.1L5.14,20.92L15.69,5.68z M16.31,26.78V5.68l10.55,15.24L16.31,26.78L16.31,26.78z"/>
</svg>
