<?xml version="1.0" encoding="utf-8"?>
<!-- Generator: Adobe Illustrator 21.1.0, SVG Export Plug-In . SVG Version: 6.00 Build 0)  -->
<!DOCTYPE svg PUBLIC "-//W3C//DTD SVG 1.1//EN" "http://www.w3.org/Graphics/SVG/1.1/DTD/svg11.dtd">
<svg version="1.1" id="Layer_1" xmlns="http://www.w3.org/2000/svg" xmlns:xlink="http://www.w3.org/1999/xlink" x="0px" y="0px"
	 viewBox="0 0 32 32" style="enable-background:new 0 0 32 32;" xml:space="preserve">
<path d="M9.86,7.97c0,0,0.01,0,0.01,0l1.94-0.2c0.03,0,0.06-0.02,0.08-0.05s0.01-0.07,0-0.09l-0.26-0.44
	c1.3-0.58,2.71-0.89,4.15-0.89c4.53,0,8.54,3.05,9.74,7.41c0.04,0.14,0.16,0.23,0.3,0.23c0.03,0,0.05,0,0.08-0.01
	c0.16-0.05,0.26-0.21,0.21-0.38c-1.28-4.63-5.52-7.86-10.33-7.86c-1.55,0-3.07,0.34-4.46,0.98l-0.25-0.42
	C11.03,6.2,11,6.18,10.97,6.18c-0.04-0.01-0.06,0.01-0.08,0.04L9.78,7.81c-0.02,0.03-0.02,0.07,0,0.11
	C9.79,7.95,9.82,7.97,9.86,7.97L9.86,7.97z M26.95,17.35l-0.8-1.77c-0.02-0.03-0.05-0.06-0.09-0.06l0,0c-0.04,0-0.07,0.02-0.09,0.06
	l-0.82,1.77c-0.01,0.03-0.01,0.07,0.01,0.09c0.02,0.03,0.05,0.05,0.08,0.05h0.53c-0.1,3.64-2.57,6.84-6.09,7.83l-1.08,0.3l0.79-0.79
	c1.22-1.22,2.66-3.53,2.66-7.62c0-6.99-4.22-8.78-4.4-8.86c-0.02-0.01-0.04-0.01-0.07-0.02l-0.14-0.02c-0.01,0-0.03,0-0.04,0
	c-4.94,0-8.95,4.02-8.95,8.95c0,4.94,4.02,8.95,8.95,8.95c4.86,0,8.83-3.9,8.95-8.73h0.5c0.03,0,0.06-0.02,0.08-0.05
	C26.96,17.42,26.96,17.38,26.95,17.35L26.95,17.35z M10.18,13.08c1.07-1.84,2.77-3.19,4.8-3.81l1.05-0.32l-0.76,0.8
	c-0.9,0.95-1.57,2.15-1.99,3.56l-0.01,0.03h-3.25L10.18,13.08L10.18,13.08z M9.05,17.1c0.02-1.12,0.27-2.2,0.71-3.21h3.36
	c-0.24,0.98-0.36,2.07-0.37,3.22l0,0.09H9.05L9.05,17.1L9.05,17.1z M9.06,17.75h3.7c0.04,1.15,0.19,2.22,0.46,3.19l0.07,0.24h-3.28
	C9.45,20.11,9.13,18.96,9.06,17.75z M15.13,25.32c-1.97-0.56-3.67-1.82-4.78-3.56l-0.02-0.03h3.15c0.45,1.22,1.1,2.26,1.93,3.1
	l0.79,0.79L15.13,25.32L15.13,25.32z M17.13,25.44l-0.46-0.32c-0.77-0.53-1.83-1.56-2.55-3.39h3.01V25.44z M17.13,21.18h-3.21
	L13.9,21.1c-0.32-1-0.5-2.13-0.54-3.35h3.77V21.18z M17.13,17.2h-3.78l0-0.09c0.01-1.16,0.14-2.24,0.39-3.22h3.39V17.2L17.13,17.2z
	 M17.13,13.34h-3.24l0.07-0.21c0.71-2.09,1.87-3.23,2.71-3.82l0.46-0.32L17.13,13.34L17.13,13.34z M17.72,9.01l0.46,0.33
	c0.83,0.59,1.97,1.73,2.67,3.79l0.07,0.21h-3.2C17.72,13.34,17.72,9.01,17.72,9.01z M17.72,13.89h3.35
	c0.25,0.98,0.39,2.06,0.39,3.22l0,0.09h-3.74C17.72,17.2,17.72,13.89,17.72,13.89z M17.72,17.75h3.73
	c-0.04,1.22-0.22,2.35-0.54,3.35l-0.02,0.08h-3.17C17.72,21.18,17.72,17.75,17.72,17.75z M17.72,25.42v-3.69h2.97
	c-0.71,1.8-1.75,2.82-2.51,3.36C18.18,25.09,17.72,25.42,17.72,25.42z M10.96,24.55c-0.02-0.03-0.05-0.04-0.08-0.04
	c-0.03,0-0.06,0.02-0.08,0.05l-0.29,0.46c-3-1.83-4.85-5.11-4.85-8.63c0-2.79,1.17-5.49,3.22-7.4C9,8.87,9.01,8.68,8.89,8.56
	C8.78,8.43,8.58,8.43,8.46,8.54c-2.17,2.02-3.41,4.88-3.41,7.84c0,3.73,1.97,7.21,5.14,9.15l-0.24,0.39
	c-0.02,0.03-0.02,0.06-0.01,0.09s0.04,0.05,0.08,0.06l1.92,0.25c0.01,0,0.01,0,0.01,0c0.03,0,0.06-0.02,0.08-0.05
	c0.02-0.03,0.02-0.07,0-0.11L10.96,24.55L10.96,24.55z"/>
</svg>
