<?xml version="1.0" encoding="utf-8"?>
<!-- Generator: Adobe Illustrator 21.1.0, SVG Export Plug-In . SVG Version: 6.00 Build 0)  -->
<!DOCTYPE svg PUBLIC "-//W3C//DTD SVG 1.1//EN" "http://www.w3.org/Graphics/SVG/1.1/DTD/svg11.dtd">
<svg version="1.1" id="Layer_1" xmlns="http://www.w3.org/2000/svg" xmlns:xlink="http://www.w3.org/1999/xlink" x="0px" y="0px"
	 viewBox="0 0 32 32" style="enable-background:new 0 0 32 32;" xml:space="preserve">
<path d="M13.96,14.81L13.96,14.81c0,0.12,0.09,0.2,0.2,0.2s0.2-0.09,0.2-0.2c0,0,0,0,0-0.01v-0.01c0-0.11-0.09-0.2-0.2-0.2
	C14.05,14.6,13.96,14.69,13.96,14.81C13.96,14.8,13.96,14.81,13.96,14.81L13.96,14.81z M12.54,15.52
	C12.54,15.52,12.54,15.53,12.54,15.52c0,0.12,0.09,0.21,0.2,0.21s0.2-0.09,0.2-0.2v-0.01v-0.01c0-0.11-0.09-0.2-0.2-0.2
	C12.63,15.32,12.54,15.4,12.54,15.52L12.54,15.52L12.54,15.52z M14.66,14.81L14.66,14.81c0,0.12,0.09,0.21,0.2,0.21
	s0.2-0.09,0.2-0.2v-0.01V14.8c0-0.11-0.09-0.2-0.2-0.2S14.66,14.69,14.66,14.81C14.66,14.8,14.66,14.81,14.66,14.81L14.66,14.81z
	 M15.38,15.52C15.38,15.52,15.38,15.53,15.38,15.52c0,0.12,0.09,0.21,0.2,0.21s0.2-0.09,0.2-0.2v-0.01v-0.01
	c0-0.11-0.09-0.2-0.2-0.2S15.38,15.4,15.38,15.52L15.38,15.52L15.38,15.52z M12.54,14.81L12.54,14.81c0,0.12,0.09,0.21,0.2,0.21
	s0.2-0.09,0.2-0.2v-0.01V14.8c0-0.11-0.09-0.2-0.2-0.2S12.54,14.69,12.54,14.81C12.54,14.8,12.54,14.81,12.54,14.81L12.54,14.81z
	 M13.24,15.52C13.24,15.52,13.24,15.53,13.24,15.52c0,0.12,0.09,0.21,0.2,0.21s0.2-0.09,0.2-0.2v-0.01v-0.01
	c0-0.11-0.09-0.2-0.2-0.2C13.33,15.32,13.24,15.4,13.24,15.52L13.24,15.52L13.24,15.52z M13.96,15.52
	C13.96,15.52,13.96,15.53,13.96,15.52c0,0.12,0.09,0.21,0.2,0.21s0.2-0.09,0.2-0.2c0,0,0,0,0-0.01v-0.01c0-0.11-0.09-0.2-0.2-0.2
	C14.05,15.32,13.96,15.41,13.96,15.52L13.96,15.52L13.96,15.52z M15.38,14.81L15.38,14.81c0,0.12,0.09,0.21,0.2,0.21
	s0.2-0.09,0.2-0.2v-0.01V14.8c0-0.11-0.09-0.2-0.2-0.2S15.38,14.69,15.38,14.81C15.38,14.8,15.38,14.81,15.38,14.81L15.38,14.81z
	 M13.24,14.81L13.24,14.81c0,0.12,0.09,0.21,0.2,0.21s0.2-0.09,0.2-0.2v-0.01V14.8c0-0.11-0.09-0.2-0.2-0.2S13.24,14.69,13.24,14.81
	C13.24,14.8,13.24,14.81,13.24,14.81L13.24,14.81z M16.08,19.58C16.08,19.59,16.08,19.59,16.08,19.58c0,0.12,0.09,0.21,0.2,0.21
	s0.2-0.09,0.2-0.2v-0.01c0,0,0,0,0-0.01c0-0.11-0.09-0.2-0.2-0.2C16.17,19.38,16.08,19.47,16.08,19.58L16.08,19.58L16.08,19.58z
	 M17.5,19.58C17.5,19.59,17.5,19.59,17.5,19.58c0,0.12,0.09,0.21,0.2,0.21s0.2-0.09,0.2-0.2v-0.01c0,0,0,0,0-0.01
	c0-0.11-0.09-0.2-0.2-0.2C17.59,19.38,17.5,19.47,17.5,19.58L17.5,19.58L17.5,19.58z M17.5,20.3L17.5,20.3
	c0,0.12,0.09,0.21,0.2,0.21s0.2-0.09,0.2-0.2V20.3c0,0,0,0,0-0.01c0-0.11-0.09-0.2-0.2-0.2C17.59,20.09,17.5,20.18,17.5,20.3
	C17.5,20.29,17.5,20.29,17.5,20.3L17.5,20.3z M16.8,19.58C16.8,19.59,16.8,19.59,16.8,19.58c0,0.12,0.09,0.2,0.2,0.2
	s0.2-0.09,0.2-0.2v-0.01c0,0,0,0,0-0.01c0-0.11-0.09-0.2-0.2-0.2C16.89,19.38,16.8,19.47,16.8,19.58L16.8,19.58L16.8,19.58z
	 M16.8,20.3L16.8,20.3c0,0.12,0.09,0.2,0.2,0.2s0.2-0.09,0.2-0.2v-0.01c0,0,0,0,0-0.01c0-0.11-0.09-0.2-0.2-0.2
	C16.89,20.09,16.8,20.18,16.8,20.3C16.8,20.29,16.8,20.3,16.8,20.3L16.8,20.3z M16.08,14.81L16.08,14.81c0,0.12,0.09,0.21,0.2,0.21
	s0.2-0.09,0.2-0.2v-0.01V14.8c0-0.11-0.09-0.2-0.2-0.2S16.08,14.69,16.08,14.81C16.08,14.8,16.08,14.81,16.08,14.81L16.08,14.81z
	 M16.08,15.52C16.08,15.52,16.08,15.53,16.08,15.52c0,0.12,0.09,0.21,0.2,0.21s0.2-0.09,0.2-0.2v-0.01v-0.01
	c0-0.11-0.09-0.2-0.2-0.2C16.17,15.32,16.08,15.4,16.08,15.52L16.08,15.52L16.08,15.52z M18.2,20.3L18.2,20.3
	c0,0.11,0.09,0.2,0.2,0.2s0.2-0.09,0.2-0.2l0,0l0,0c0-0.11-0.09-0.2-0.2-0.2C18.28,20.1,18.2,20.18,18.2,20.3
	C18.2,20.29,18.2,20.29,18.2,20.3z M18.2,19.58C18.2,19.58,18.2,19.59,18.2,19.58c0,0.11,0.09,0.2,0.2,0.2s0.2-0.09,0.2-0.2l0,0l0,0
	c0-0.11-0.09-0.2-0.2-0.2C18.28,19.38,18.2,19.47,18.2,19.58L18.2,19.58z M14.66,15.52C14.66,15.52,14.66,15.53,14.66,15.52
	c0,0.12,0.09,0.21,0.2,0.21s0.2-0.09,0.2-0.2v-0.01v-0.01c0-0.11-0.09-0.2-0.2-0.2C14.75,15.32,14.66,15.4,14.66,15.52L14.66,15.52
	L14.66,15.52z M13.96,12.42L13.96,12.42c0,0.12,0.09,0.2,0.2,0.2s0.2-0.09,0.2-0.2c0,0,0,0,0-0.01V12.4c0-0.11-0.09-0.2-0.2-0.2
	C14.05,12.21,13.96,12.3,13.96,12.42C13.96,12.41,13.96,12.41,13.96,12.42L13.96,12.42z M14.66,13.13
	C14.66,13.13,14.66,13.14,14.66,13.13c0,0.12,0.09,0.21,0.2,0.21s0.2-0.09,0.2-0.2v-0.01c0,0,0,0,0-0.01c0-0.11-0.09-0.2-0.2-0.2
	S14.66,13.01,14.66,13.13C14.66,13.12,14.66,13.13,14.66,13.13L14.66,13.13z M14.66,12.42L14.66,12.42c0,0.12,0.09,0.21,0.2,0.21
	s0.2-0.09,0.2-0.2v-0.01v-0.01c0-0.11-0.09-0.2-0.2-0.2S14.66,12.3,14.66,12.42C14.66,12.41,14.66,12.41,14.66,12.42L14.66,12.42z
	 M15.38,13.13C15.38,13.13,15.38,13.14,15.38,13.13c0,0.12,0.09,0.21,0.2,0.21s0.2-0.09,0.2-0.2v-0.01c0,0,0,0,0-0.01
	c0-0.11-0.09-0.2-0.2-0.2S15.38,13.01,15.38,13.13C15.38,13.12,15.38,13.13,15.38,13.13L15.38,13.13z M13.96,13.13L13.96,13.13
	c0,0.12,0.09,0.2,0.2,0.2s0.2-0.09,0.2-0.2v-0.01c0,0,0,0,0-0.01c0-0.11-0.09-0.2-0.2-0.2C14.05,12.93,13.96,13.01,13.96,13.13
	L13.96,13.13L13.96,13.13z M12.54,12.42L12.54,12.42c0,0.12,0.09,0.21,0.2,0.21s0.2-0.09,0.2-0.2v-0.01v-0.01
	c0-0.11-0.09-0.2-0.2-0.2S12.54,12.3,12.54,12.42C12.54,12.41,12.54,12.41,12.54,12.42L12.54,12.42z M12.54,13.13
	C12.54,13.13,12.54,13.14,12.54,13.13c0,0.12,0.09,0.21,0.2,0.21s0.2-0.09,0.2-0.2v-0.01c0,0,0,0,0-0.01c0-0.11-0.09-0.2-0.2-0.2
	S12.54,13.01,12.54,13.13C12.54,13.12,12.54,13.13,12.54,13.13L12.54,13.13z M13.24,13.13C13.24,13.13,13.24,13.14,13.24,13.13
	c0,0.12,0.09,0.21,0.2,0.21s0.2-0.09,0.2-0.2v-0.01c0,0,0,0,0-0.01c0-0.11-0.09-0.2-0.2-0.2S13.24,13.01,13.24,13.13
	C13.24,13.12,13.24,13.13,13.24,13.13L13.24,13.13z M13.24,12.42L13.24,12.42c0,0.12,0.09,0.21,0.2,0.21s0.2-0.09,0.2-0.2v-0.01
	v-0.01c0-0.11-0.09-0.2-0.2-0.2S13.24,12.3,13.24,12.42C13.24,12.41,13.24,12.41,13.24,12.42L13.24,12.42z M17.5,12.42L17.5,12.42
	c0,0.12,0.09,0.21,0.2,0.21s0.2-0.09,0.2-0.2v-0.01v-0.01c0-0.11-0.09-0.2-0.2-0.2S17.5,12.3,17.5,12.42
	C17.5,12.41,17.5,12.41,17.5,12.42L17.5,12.42z M16.8,12.42L16.8,12.42c0,0.12,0.09,0.2,0.2,0.2s0.2-0.09,0.2-0.2c0,0,0,0,0-0.01
	V12.4c0-0.11-0.09-0.2-0.2-0.2C16.89,12.21,16.8,12.3,16.8,12.42C16.8,12.41,16.8,12.41,16.8,12.42L16.8,12.42z M18.2,12.42
	L18.2,12.42c0,0.11,0.09,0.2,0.2,0.2s0.2-0.09,0.2-0.2l0,0l0,0c0-0.11-0.09-0.2-0.2-0.2C18.28,12.22,18.2,12.3,18.2,12.42
	C18.2,12.41,18.2,12.42,18.2,12.42L18.2,12.42z M17.5,13.13C17.5,13.13,17.5,13.14,17.5,13.13c0,0.12,0.09,0.21,0.2,0.21
	s0.2-0.09,0.2-0.2v-0.01c0,0,0,0,0-0.01c0-0.11-0.09-0.2-0.2-0.2S17.5,13.01,17.5,13.13C17.5,13.12,17.5,13.13,17.5,13.13
	L17.5,13.13z M18.2,13.13L18.2,13.13c0,0.11,0.09,0.2,0.2,0.2s0.2-0.09,0.2-0.2l0,0l0,0c0-0.11-0.09-0.2-0.2-0.2
	C18.28,12.93,18.2,13.02,18.2,13.13L18.2,13.13L18.2,13.13z M15.38,12.42L15.38,12.42c0,0.12,0.09,0.21,0.2,0.21s0.2-0.09,0.2-0.2
	v-0.01v-0.01c0-0.11-0.09-0.2-0.2-0.2S15.38,12.3,15.38,12.42C15.38,12.41,15.38,12.41,15.38,12.42L15.38,12.42z M16.8,13.13
	L16.8,13.13c0,0.12,0.09,0.2,0.2,0.2s0.2-0.09,0.2-0.2v-0.01c0,0,0,0,0-0.01c0-0.11-0.09-0.2-0.2-0.2
	C16.89,12.93,16.8,13.01,16.8,13.13L16.8,13.13L16.8,13.13z M16.08,13.13C16.08,13.13,16.08,13.14,16.08,13.13
	c0,0.12,0.09,0.21,0.2,0.21s0.2-0.09,0.2-0.2v-0.01c0,0,0,0,0-0.01c0-0.11-0.09-0.2-0.2-0.2S16.08,13.01,16.08,13.13
	C16.08,13.12,16.08,13.13,16.08,13.13L16.08,13.13z M16.08,12.42L16.08,12.42c0,0.12,0.09,0.21,0.2,0.21s0.2-0.09,0.2-0.2v-0.01
	v-0.01c0-0.11-0.09-0.2-0.2-0.2S16.08,12.3,16.08,12.42C16.08,12.41,16.08,12.41,16.08,12.42L16.08,12.42z M13.96,17.2L13.96,17.2
	c0,0.12,0.09,0.2,0.2,0.2s0.2-0.09,0.2-0.2v-0.01c0,0,0,0,0-0.01c0-0.11-0.09-0.2-0.2-0.2C14.05,17,13.96,17.08,13.96,17.2
	L13.96,17.2L13.96,17.2z M16.8,17.2L16.8,17.2c0,0.12,0.09,0.2,0.2,0.2s0.2-0.09,0.2-0.2v-0.01c0,0,0,0,0-0.01
	c0-0.11-0.09-0.2-0.2-0.2C16.89,17,16.8,17.08,16.8,17.2L16.8,17.2L16.8,17.2z M16.8,17.91C16.8,17.91,16.8,17.92,16.8,17.91
	c0,0.12,0.09,0.2,0.2,0.2s0.2-0.09,0.2-0.2V17.9c0,0,0,0,0-0.01c0-0.11-0.09-0.2-0.2-0.2C16.89,17.71,16.8,17.8,16.8,17.91
	L16.8,17.91L16.8,17.91z M17.5,17.91C17.5,17.92,17.5,17.92,17.5,17.91c0,0.12,0.09,0.21,0.2,0.21s0.2-0.09,0.2-0.2v-0.01
	c0,0,0,0,0-0.01c0-0.11-0.09-0.2-0.2-0.2C17.59,17.71,17.5,17.8,17.5,17.91L17.5,17.91L17.5,17.91z M16.08,17.2
	C16.08,17.2,16.08,17.21,16.08,17.2c0,0.12,0.09,0.21,0.2,0.21s0.2-0.09,0.2-0.2V17.2c0,0,0,0,0-0.01c0-0.11-0.09-0.2-0.2-0.2
	C16.17,16.99,16.08,17.08,16.08,17.2C16.08,17.19,16.08,17.2,16.08,17.2L16.08,17.2z M17.5,17.2C17.5,17.2,17.5,17.21,17.5,17.2
	c0,0.12,0.09,0.21,0.2,0.21s0.2-0.09,0.2-0.2V17.2c0,0,0,0,0-0.01c0-0.11-0.09-0.2-0.2-0.2C17.59,16.99,17.5,17.08,17.5,17.2
	C17.5,17.19,17.5,17.2,17.5,17.2L17.5,17.2z M15.38,17.91C15.38,17.92,15.38,17.92,15.38,17.91c0,0.12,0.09,0.21,0.2,0.21
	s0.2-0.09,0.2-0.2v-0.01c0,0,0,0,0-0.01c0-0.11-0.09-0.2-0.2-0.2S15.38,17.8,15.38,17.91L15.38,17.91L15.38,17.91z M16.08,17.91
	C16.08,17.92,16.08,17.92,16.08,17.91c0,0.12,0.09,0.21,0.2,0.21s0.2-0.09,0.2-0.2v-0.01c0,0,0,0,0-0.01c0-0.11-0.09-0.2-0.2-0.2
	C16.17,17.71,16.08,17.8,16.08,17.91L16.08,17.91L16.08,17.91z M12.54,17.91C12.54,17.92,12.54,17.92,12.54,17.91
	c0,0.12,0.09,0.21,0.2,0.21s0.2-0.09,0.2-0.2v-0.01c0,0,0,0,0-0.01c0-0.11-0.09-0.2-0.2-0.2C12.63,17.71,12.54,17.8,12.54,17.91
	L12.54,17.91L12.54,17.91z M15.38,17.2C15.38,17.2,15.38,17.21,15.38,17.2c0,0.12,0.09,0.21,0.2,0.21s0.2-0.09,0.2-0.2V17.2
	c0,0,0,0,0-0.01c0-0.11-0.09-0.2-0.2-0.2S15.38,17.08,15.38,17.2C15.38,17.19,15.38,17.2,15.38,17.2L15.38,17.2z M12.54,17.2
	C12.54,17.2,12.54,17.21,12.54,17.2c0,0.12,0.09,0.21,0.2,0.21s0.2-0.09,0.2-0.2V17.2c0,0,0,0,0-0.01c0-0.11-0.09-0.2-0.2-0.2
	C12.63,16.99,12.54,17.08,12.54,17.2C12.54,17.19,12.54,17.2,12.54,17.2L12.54,17.2z M13.24,19.58
	C13.24,19.59,13.24,19.59,13.24,19.58c0,0.12,0.09,0.21,0.2,0.21s0.2-0.09,0.2-0.2v-0.01c0,0,0,0,0-0.01c0-0.11-0.09-0.2-0.2-0.2
	C13.33,19.38,13.24,19.47,13.24,19.58L13.24,19.58L13.24,19.58z M13.24,20.3L13.24,20.3c0,0.12,0.09,0.21,0.2,0.21s0.2-0.09,0.2-0.2
	V20.3c0,0,0,0,0-0.01c0-0.11-0.09-0.2-0.2-0.2C13.33,20.09,13.24,20.18,13.24,20.3C13.24,20.29,13.24,20.29,13.24,20.3L13.24,20.3z
	 M18.2,17.91L18.2,17.91c0,0.11,0.09,0.2,0.2,0.2s0.2-0.09,0.2-0.2l0,0l0,0c0-0.11-0.09-0.2-0.2-0.2
	C18.28,17.71,18.2,17.8,18.2,17.91L18.2,17.91z M16.08,20.3L16.08,20.3c0,0.12,0.09,0.21,0.2,0.21s0.2-0.09,0.2-0.2V20.3
	c0,0,0,0,0-0.01c0-0.11-0.09-0.2-0.2-0.2C16.17,20.09,16.08,20.18,16.08,20.3C16.08,20.29,16.08,20.29,16.08,20.3L16.08,20.3z
	 M18.2,17.2L18.2,17.2c0,0.11,0.09,0.2,0.2,0.2s0.2-0.09,0.2-0.2l0,0l0,0c0-0.11-0.09-0.2-0.2-0.2C18.28,17,18.2,17.09,18.2,17.2
	L18.2,17.2z M12.54,19.58C12.54,19.59,12.54,19.59,12.54,19.58c0,0.12,0.09,0.21,0.2,0.21s0.2-0.09,0.2-0.2v-0.01c0,0,0,0,0-0.01
	c0-0.11-0.09-0.2-0.2-0.2C12.63,19.38,12.54,19.47,12.54,19.58L12.54,19.58L12.54,19.58z M12.54,20.3L12.54,20.3
	c0,0.12,0.09,0.21,0.2,0.21s0.2-0.09,0.2-0.2V20.3c0,0,0,0,0-0.01c0-0.11-0.09-0.2-0.2-0.2C12.63,20.09,12.54,20.18,12.54,20.3
	C12.54,20.29,12.54,20.29,12.54,20.3L12.54,20.3z M14.66,17.91C14.66,17.92,14.66,17.92,14.66,17.91c0,0.12,0.09,0.21,0.2,0.21
	s0.2-0.09,0.2-0.2v-0.01c0,0,0,0,0-0.01c0-0.11-0.09-0.2-0.2-0.2C14.75,17.71,14.66,17.8,14.66,17.91L14.66,17.91L14.66,17.91z
	 M18.2,14.81L18.2,14.81c0,0.11,0.09,0.2,0.2,0.2s0.2-0.09,0.2-0.2l0,0l0,0c0-0.11-0.09-0.2-0.2-0.2
	C18.28,14.61,18.2,14.7,18.2,14.81L18.2,14.81L18.2,14.81z M13.96,19.58C13.96,19.59,13.96,19.59,13.96,19.58
	c0,0.12,0.09,0.2,0.2,0.2s0.2-0.09,0.2-0.2v-0.01c0,0,0,0,0-0.01c0-0.11-0.09-0.2-0.2-0.2C14.05,19.38,13.96,19.47,13.96,19.58
	L13.96,19.58L13.96,19.58z M13.96,20.3L13.96,20.3c0,0.12,0.09,0.2,0.2,0.2s0.2-0.09,0.2-0.2v-0.01c0,0,0,0,0-0.01
	c0-0.11-0.09-0.2-0.2-0.2C14.05,20.09,13.96,20.18,13.96,20.3C13.96,20.29,13.96,20.3,13.96,20.3L13.96,20.3z M13.24,17.2
	C13.24,17.2,13.24,17.21,13.24,17.2c0,0.12,0.09,0.21,0.2,0.21s0.2-0.09,0.2-0.2V17.2c0,0,0,0,0-0.01c0-0.11-0.09-0.2-0.2-0.2
	C13.33,16.99,13.24,17.08,13.24,17.2C13.24,17.19,13.24,17.2,13.24,17.2L13.24,17.2z M13.24,17.91
	C13.24,17.92,13.24,17.92,13.24,17.91c0,0.12,0.09,0.21,0.2,0.21s0.2-0.09,0.2-0.2v-0.01c0,0,0,0,0-0.01c0-0.11-0.09-0.2-0.2-0.2
	C13.33,17.71,13.24,17.8,13.24,17.91L13.24,17.91L13.24,17.91z M15.38,19.58C15.38,19.59,15.38,19.59,15.38,19.58
	c0,0.12,0.09,0.21,0.2,0.21s0.2-0.09,0.2-0.2v-0.01c0,0,0,0,0-0.01c0-0.11-0.09-0.2-0.2-0.2S15.38,19.47,15.38,19.58L15.38,19.58
	L15.38,19.58z M15.38,20.3L15.38,20.3c0,0.12,0.09,0.21,0.2,0.21s0.2-0.09,0.2-0.2V20.3c0,0,0,0,0-0.01c0-0.11-0.09-0.2-0.2-0.2
	S15.38,20.18,15.38,20.3C15.38,20.29,15.38,20.29,15.38,20.3L15.38,20.3z M14.66,20.3L14.66,20.3c0,0.12,0.09,0.21,0.2,0.21
	s0.2-0.09,0.2-0.2V20.3c0,0,0,0,0-0.01c0-0.11-0.09-0.2-0.2-0.2C14.75,20.09,14.66,20.18,14.66,20.3
	C14.66,20.29,14.66,20.29,14.66,20.3L14.66,20.3z M14.66,19.58C14.66,19.59,14.66,19.59,14.66,19.58c0,0.12,0.09,0.21,0.2,0.21
	s0.2-0.09,0.2-0.2v-0.01c0,0,0,0,0-0.01c0-0.11-0.09-0.2-0.2-0.2C14.75,19.38,14.66,19.47,14.66,19.58L14.66,19.58L14.66,19.58z
	 M16.8,14.81L16.8,14.81c0,0.12,0.09,0.2,0.2,0.2s0.2-0.09,0.2-0.2c0,0,0,0,0-0.01v-0.01c0-0.11-0.09-0.2-0.2-0.2
	C16.89,14.6,16.8,14.69,16.8,14.81C16.8,14.8,16.8,14.81,16.8,14.81L16.8,14.81z M14.66,17.2C14.66,17.2,14.66,17.21,14.66,17.2
	c0,0.12,0.09,0.21,0.2,0.21s0.2-0.09,0.2-0.2V17.2c0,0,0,0,0-0.01c0-0.11-0.09-0.2-0.2-0.2C14.75,16.99,14.66,17.08,14.66,17.2
	C14.66,17.19,14.66,17.2,14.66,17.2L14.66,17.2z M18.2,15.52L18.2,15.52c0,0.11,0.09,0.2,0.2,0.2s0.2-0.09,0.2-0.2l0,0l0,0
	c0-0.11-0.09-0.2-0.2-0.2C18.28,15.32,18.2,15.41,18.2,15.52L18.2,15.52L18.2,15.52z M17.5,15.52C17.5,15.52,17.5,15.53,17.5,15.52
	c0,0.12,0.09,0.21,0.2,0.21s0.2-0.09,0.2-0.2v-0.01v-0.01c0-0.11-0.09-0.2-0.2-0.2C17.59,15.32,17.5,15.4,17.5,15.52L17.5,15.52
	L17.5,15.52z M16.8,15.52C16.8,15.52,16.8,15.53,16.8,15.52c0,0.12,0.09,0.21,0.2,0.21s0.2-0.09,0.2-0.2c0,0,0,0,0-0.01v-0.01
	c0-0.11-0.09-0.2-0.2-0.2C16.89,15.32,16.8,15.41,16.8,15.52L16.8,15.52L16.8,15.52z M13.96,17.91
	C13.96,17.91,13.96,17.92,13.96,17.91c0,0.12,0.09,0.2,0.2,0.2s0.2-0.09,0.2-0.2V17.9c0,0,0,0,0-0.01c0-0.11-0.09-0.2-0.2-0.2
	C14.05,17.71,13.96,17.8,13.96,17.91L13.96,17.91L13.96,17.91z M17.5,14.81L17.5,14.81c0,0.12,0.09,0.21,0.2,0.21s0.2-0.09,0.2-0.2
	v-0.01V14.8c0-0.11-0.09-0.2-0.2-0.2S17.5,14.69,17.5,14.81C17.5,14.8,17.5,14.81,17.5,14.81L17.5,14.81z M6.41,12.42L6.41,12.42
	c0,0.12,0.09,0.21,0.2,0.21s0.2-0.09,0.2-0.2v-0.01v-0.01c0-0.11-0.09-0.2-0.2-0.2S6.41,12.3,6.41,12.42
	C6.41,12.41,6.41,12.41,6.41,12.42L6.41,12.42z M6.41,14.81L6.41,14.81c0,0.12,0.09,0.21,0.2,0.21s0.2-0.09,0.2-0.2v-0.01V14.8
	c0-0.11-0.09-0.2-0.2-0.2S6.41,14.69,6.41,14.81C6.41,14.8,6.41,14.81,6.41,14.81L6.41,14.81z M6.41,15.52
	C6.41,15.52,6.41,15.53,6.41,15.52c0,0.12,0.09,0.21,0.2,0.21s0.2-0.09,0.2-0.2v-0.01v-0.01c0-0.11-0.09-0.2-0.2-0.2
	S6.41,15.4,6.41,15.52L6.41,15.52L6.41,15.52z M5.71,14.81L5.71,14.81c0,0.12,0.09,0.2,0.2,0.2s0.2-0.09,0.2-0.2c0,0,0,0,0-0.01
	v-0.01c0-0.11-0.09-0.2-0.2-0.2S5.71,14.69,5.71,14.81C5.71,14.8,5.71,14.81,5.71,14.81L5.71,14.81z M7.13,15.52
	C7.13,15.52,7.13,15.53,7.13,15.52c0,0.12,0.09,0.21,0.2,0.21s0.2-0.09,0.2-0.2v-0.01v-0.01c0-0.11-0.09-0.2-0.2-0.2
	S7.13,15.4,7.13,15.52L7.13,15.52L7.13,15.52z M5.71,15.52C5.71,15.52,5.71,15.53,5.71,15.52c0,0.12,0.09,0.21,0.2,0.21
	s0.2-0.09,0.2-0.2c0,0,0,0,0-0.01v-0.01c0-0.11-0.09-0.2-0.2-0.2S5.71,15.41,5.71,15.52L5.71,15.52L5.71,15.52z M4.29,14.81
	L4.29,14.81c0,0.12,0.09,0.21,0.2,0.21s0.2-0.09,0.2-0.2v-0.01V14.8c0-0.11-0.09-0.2-0.2-0.2S4.29,14.69,4.29,14.81
	C4.29,14.8,4.29,14.81,4.29,14.81L4.29,14.81z M4.99,15.52C4.99,15.52,4.99,15.53,4.99,15.52c0,0.12,0.09,0.21,0.2,0.21
	s0.2-0.09,0.2-0.2v-0.01v-0.01c0-0.11-0.09-0.2-0.2-0.2S4.99,15.4,4.99,15.52L4.99,15.52L4.99,15.52z M4.99,14.81L4.99,14.81
	c0,0.12,0.09,0.21,0.2,0.21s0.2-0.09,0.2-0.2v-0.01V14.8c0-0.11-0.09-0.2-0.2-0.2S4.99,14.69,4.99,14.81
	C4.99,14.8,4.99,14.81,4.99,14.81L4.99,14.81z M7.13,14.81L7.13,14.81c0,0.12,0.09,0.21,0.2,0.21s0.2-0.09,0.2-0.2v-0.01V14.8
	c0-0.11-0.09-0.2-0.2-0.2S7.13,14.69,7.13,14.81C7.13,14.8,7.13,14.81,7.13,14.81L7.13,14.81z M8.55,14.81L8.55,14.81
	c0,0.12,0.09,0.2,0.2,0.2s0.2-0.09,0.2-0.2c0,0,0,0,0-0.01v-0.01c0-0.11-0.09-0.2-0.2-0.2C8.64,14.6,8.55,14.69,8.55,14.81
	C8.55,14.8,8.55,14.81,8.55,14.81L8.55,14.81z M9.94,15.52C9.94,15.52,9.94,15.53,9.94,15.52c0,0.12,0.09,0.21,0.2,0.21
	s0.2-0.09,0.2-0.2v-0.01v-0.01c0-0.11-0.09-0.2-0.2-0.2C10.03,15.32,9.94,15.4,9.94,15.52L9.94,15.52L9.94,15.52z M9.25,15.52
	C9.25,15.52,9.25,15.53,9.25,15.52c0,0.12,0.09,0.21,0.2,0.21s0.2-0.09,0.2-0.2v-0.01v-0.01c0-0.11-0.09-0.2-0.2-0.2
	C9.34,15.32,9.25,15.4,9.25,15.52L9.25,15.52L9.25,15.52z M9.25,14.81L9.25,14.81c0,0.12,0.09,0.21,0.2,0.21s0.2-0.09,0.2-0.2v-0.01
	V14.8c0-0.11-0.09-0.2-0.2-0.2S9.25,14.69,9.25,14.81C9.25,14.8,9.25,14.81,9.25,14.81L9.25,14.81z M9.94,14.81L9.94,14.81
	c0,0.12,0.09,0.21,0.2,0.21s0.2-0.09,0.2-0.2v-0.01V14.8c0-0.11-0.09-0.2-0.2-0.2S9.94,14.69,9.94,14.81
	C9.94,14.8,9.94,14.81,9.94,14.81L9.94,14.81z M7.83,14.81L7.83,14.81c0,0.12,0.09,0.21,0.2,0.21c0.11,0,0.2-0.09,0.2-0.2v-0.01
	V14.8c0-0.11-0.09-0.2-0.2-0.2C7.92,14.6,7.83,14.69,7.83,14.81C7.83,14.8,7.83,14.81,7.83,14.81L7.83,14.81z M7.83,15.52
	C7.83,15.52,7.83,15.53,7.83,15.52c0,0.12,0.09,0.21,0.2,0.21c0.11,0,0.2-0.09,0.2-0.2v-0.01v-0.01c0-0.11-0.09-0.2-0.2-0.2
	C7.92,15.32,7.83,15.4,7.83,15.52L7.83,15.52L7.83,15.52z M8.55,15.52C8.55,15.52,8.55,15.53,8.55,15.52c0,0.12,0.09,0.21,0.2,0.21
	s0.2-0.09,0.2-0.2c0,0,0,0,0-0.01v-0.01c0-0.11-0.09-0.2-0.2-0.2C8.64,15.32,8.55,15.41,8.55,15.52L8.55,15.52L8.55,15.52z
	 M4.29,15.52C4.29,15.52,4.29,15.53,4.29,15.52c0,0.12,0.09,0.21,0.2,0.21s0.2-0.09,0.2-0.2v-0.01v-0.01c0-0.11-0.09-0.2-0.2-0.2
	S4.29,15.4,4.29,15.52L4.29,15.52L4.29,15.52z M7.83,12.42L7.83,12.42c0,0.12,0.09,0.21,0.2,0.21c0.11,0,0.2-0.09,0.2-0.2v-0.01
	v-0.01c0-0.11-0.09-0.2-0.2-0.2C7.92,12.21,7.83,12.3,7.83,12.42C7.83,12.41,7.83,12.41,7.83,12.42L7.83,12.42z M5.71,13.13
	L5.71,13.13c0,0.12,0.09,0.2,0.2,0.2s0.2-0.09,0.2-0.2v-0.01c0,0,0,0,0-0.01c0-0.11-0.09-0.2-0.2-0.2S5.71,13.01,5.71,13.13
	L5.71,13.13L5.71,13.13z M5.71,12.42L5.71,12.42c0,0.12,0.09,0.2,0.2,0.2s0.2-0.09,0.2-0.2c0,0,0,0,0-0.01V12.4
	c0-0.11-0.09-0.2-0.2-0.2S5.71,12.3,5.71,12.42C5.71,12.41,5.71,12.41,5.71,12.42L5.71,12.42z M4.99,12.42L4.99,12.42
	c0,0.12,0.09,0.21,0.2,0.21s0.2-0.09,0.2-0.2v-0.01v-0.01c0-0.11-0.09-0.2-0.2-0.2S4.99,12.3,4.99,12.42
	C4.99,12.41,4.99,12.41,4.99,12.42L4.99,12.42z M7.13,13.13C7.13,13.13,7.13,13.14,7.13,13.13c0,0.12,0.09,0.21,0.2,0.21
	s0.2-0.09,0.2-0.2v-0.01c0,0,0,0,0-0.01c0-0.11-0.09-0.2-0.2-0.2S7.13,13.01,7.13,13.13C7.13,13.12,7.13,13.13,7.13,13.13
	L7.13,13.13z M6.41,13.13C6.41,13.13,6.41,13.14,6.41,13.13c0,0.12,0.09,0.21,0.2,0.21s0.2-0.09,0.2-0.2v-0.01c0,0,0,0,0-0.01
	c0-0.11-0.09-0.2-0.2-0.2S6.41,13.01,6.41,13.13C6.41,13.12,6.41,13.13,6.41,13.13L6.41,13.13z M4.29,13.13
	C4.29,13.13,4.29,13.14,4.29,13.13c0,0.12,0.09,0.21,0.2,0.21s0.2-0.09,0.2-0.2v-0.01c0,0,0,0,0-0.01c0-0.11-0.09-0.2-0.2-0.2
	S4.29,13.01,4.29,13.13C4.29,13.12,4.29,13.13,4.29,13.13L4.29,13.13z M4.29,12.42L4.29,12.42c0,0.12,0.09,0.21,0.2,0.21
	s0.2-0.09,0.2-0.2v-0.01v-0.01c0-0.11-0.09-0.2-0.2-0.2S4.29,12.3,4.29,12.42C4.29,12.41,4.29,12.41,4.29,12.42L4.29,12.42z
	 M4.99,13.13C4.99,13.13,4.99,13.14,4.99,13.13c0,0.12,0.09,0.21,0.2,0.21s0.2-0.09,0.2-0.2v-0.01c0,0,0,0,0-0.01
	c0-0.11-0.09-0.2-0.2-0.2S4.99,13.01,4.99,13.13C4.99,13.12,4.99,13.13,4.99,13.13L4.99,13.13z M9.25,12.42L9.25,12.42
	c0,0.12,0.09,0.21,0.2,0.21s0.2-0.09,0.2-0.2v-0.01v-0.01c0-0.11-0.09-0.2-0.2-0.2S9.25,12.3,9.25,12.42
	C9.25,12.41,9.25,12.41,9.25,12.42L9.25,12.42z M8.55,12.42L8.55,12.42c0,0.12,0.09,0.2,0.2,0.2s0.2-0.09,0.2-0.2c0,0,0,0,0-0.01
	V12.4c0-0.11-0.09-0.2-0.2-0.2C8.64,12.21,8.55,12.3,8.55,12.42C8.55,12.41,8.55,12.41,8.55,12.42L8.55,12.42z M9.25,13.13
	C9.25,13.13,9.25,13.14,9.25,13.13c0,0.12,0.09,0.21,0.2,0.21s0.2-0.09,0.2-0.2v-0.01c0,0,0,0,0-0.01c0-0.11-0.09-0.2-0.2-0.2
	S9.25,13.01,9.25,13.13C9.25,13.12,9.25,13.13,9.25,13.13L9.25,13.13z M7.13,12.42L7.13,12.42c0,0.12,0.09,0.21,0.2,0.21
	s0.2-0.09,0.2-0.2v-0.01v-0.01c0-0.11-0.09-0.2-0.2-0.2S7.13,12.3,7.13,12.42C7.13,12.41,7.13,12.41,7.13,12.42L7.13,12.42z
	 M9.94,13.13C9.94,13.13,9.94,13.14,9.94,13.13c0,0.12,0.09,0.21,0.2,0.21s0.2-0.09,0.2-0.2v-0.01c0,0,0,0,0-0.01
	c0-0.11-0.09-0.2-0.2-0.2S9.94,13.01,9.94,13.13C9.94,13.12,9.94,13.13,9.94,13.13L9.94,13.13z M9.94,12.42L9.94,12.42
	c0,0.12,0.09,0.21,0.2,0.21s0.2-0.09,0.2-0.2v-0.01v-0.01c0-0.11-0.09-0.2-0.2-0.2S9.94,12.3,9.94,12.42
	C9.94,12.41,9.94,12.41,9.94,12.42L9.94,12.42z M9.94,19.58C9.94,19.59,9.94,19.59,9.94,19.58c0,0.12,0.09,0.21,0.2,0.21
	s0.2-0.09,0.2-0.2v-0.01c0,0,0,0,0-0.01c0-0.11-0.09-0.2-0.2-0.2C10.03,19.38,9.94,19.47,9.94,19.58L9.94,19.58L9.94,19.58z
	 M4.29,17.91C4.29,17.92,4.29,17.92,4.29,17.91c0,0.12,0.09,0.21,0.2,0.21s0.2-0.09,0.2-0.2v-0.01c0,0,0,0,0-0.01
	c0-0.11-0.09-0.2-0.2-0.2S4.29,17.8,4.29,17.91L4.29,17.91L4.29,17.91z M8.55,13.13L8.55,13.13c0,0.12,0.09,0.2,0.2,0.2
	s0.2-0.09,0.2-0.2v-0.01c0,0,0,0,0-0.01c0-0.11-0.09-0.2-0.2-0.2C8.64,12.93,8.55,13.01,8.55,13.13L8.55,13.13L8.55,13.13z
	 M7.83,13.13C7.83,13.13,7.83,13.14,7.83,13.13c0,0.12,0.09,0.21,0.2,0.21c0.11,0,0.2-0.09,0.2-0.2v-0.01c0,0,0,0,0-0.01
	c0-0.11-0.09-0.2-0.2-0.2C7.92,12.92,7.83,13.01,7.83,13.13C7.83,13.12,7.83,13.13,7.83,13.13L7.83,13.13z M5.71,20.3L5.71,20.3
	c0,0.12,0.09,0.2,0.2,0.2s0.2-0.09,0.2-0.2v-0.01c0,0,0,0,0-0.01c0-0.11-0.09-0.2-0.2-0.2S5.71,20.18,5.71,20.3
	C5.71,20.29,5.71,20.3,5.71,20.3L5.71,20.3z M6.41,20.3L6.41,20.3c0,0.12,0.09,0.21,0.2,0.21s0.2-0.09,0.2-0.2V20.3c0,0,0,0,0-0.01
	c0-0.11-0.09-0.2-0.2-0.2S6.41,20.18,6.41,20.3C6.41,20.29,6.41,20.29,6.41,20.3L6.41,20.3z M5.71,19.58
	C5.71,19.59,5.71,19.59,5.71,19.58c0,0.12,0.09,0.2,0.2,0.2s0.2-0.09,0.2-0.2v-0.01c0,0,0,0,0-0.01c0-0.11-0.09-0.2-0.2-0.2
	S5.71,19.47,5.71,19.58L5.71,19.58L5.71,19.58z M6.41,19.58C6.41,19.59,6.41,19.59,6.41,19.58c0,0.12,0.09,0.21,0.2,0.21
	s0.2-0.09,0.2-0.2v-0.01c0,0,0,0,0-0.01c0-0.11-0.09-0.2-0.2-0.2S6.41,19.47,6.41,19.58L6.41,19.58L6.41,19.58z M7.13,20.3
	L7.13,20.3c0,0.12,0.09,0.21,0.2,0.21s0.2-0.09,0.2-0.2V20.3c0,0,0,0,0-0.01c0-0.11-0.09-0.2-0.2-0.2S7.13,20.18,7.13,20.3
	C7.13,20.29,7.13,20.29,7.13,20.3L7.13,20.3z M4.29,19.58C4.29,19.59,4.29,19.59,4.29,19.58c0,0.12,0.09,0.21,0.2,0.21
	s0.2-0.09,0.2-0.2v-0.01c0,0,0,0,0-0.01c0-0.11-0.09-0.2-0.2-0.2S4.29,19.47,4.29,19.58L4.29,19.58L4.29,19.58z M4.99,20.3
	L4.99,20.3c0,0.12,0.09,0.21,0.2,0.21s0.2-0.09,0.2-0.2V20.3c0,0,0,0,0-0.01c0-0.11-0.09-0.2-0.2-0.2S4.99,20.18,4.99,20.3
	C4.99,20.29,4.99,20.29,4.99,20.3L4.99,20.3z M4.99,19.58C4.99,19.59,4.99,19.59,4.99,19.58c0,0.12,0.09,0.21,0.2,0.21
	s0.2-0.09,0.2-0.2v-0.01c0,0,0,0,0-0.01c0-0.11-0.09-0.2-0.2-0.2S4.99,19.47,4.99,19.58L4.99,19.58L4.99,19.58z M8.55,19.58
	C8.55,19.59,8.55,19.59,8.55,19.58c0,0.12,0.09,0.2,0.2,0.2s0.2-0.09,0.2-0.2v-0.01c0,0,0,0,0-0.01c0-0.11-0.09-0.2-0.2-0.2
	C8.64,19.38,8.55,19.47,8.55,19.58L8.55,19.58L8.55,19.58z M9.25,19.58C9.25,19.59,9.25,19.59,9.25,19.58c0,0.12,0.09,0.21,0.2,0.21
	s0.2-0.09,0.2-0.2v-0.01c0,0,0,0,0-0.01c0-0.11-0.09-0.2-0.2-0.2C9.34,19.38,9.25,19.47,9.25,19.58L9.25,19.58L9.25,19.58z
	 M9.25,20.3L9.25,20.3c0,0.12,0.09,0.21,0.2,0.21s0.2-0.09,0.2-0.2V20.3c0,0,0,0,0-0.01c0-0.11-0.09-0.2-0.2-0.2
	C9.34,20.09,9.25,20.18,9.25,20.3C9.25,20.29,9.25,20.29,9.25,20.3L9.25,20.3z M9.94,20.3L9.94,20.3c0,0.12,0.09,0.21,0.2,0.21
	s0.2-0.09,0.2-0.2V20.3c0,0,0,0,0-0.01c0-0.11-0.09-0.2-0.2-0.2C10.03,20.09,9.94,20.18,9.94,20.3C9.94,20.29,9.94,20.29,9.94,20.3
	L9.94,20.3z M4.29,20.3L4.29,20.3c0,0.12,0.09,0.21,0.2,0.21s0.2-0.09,0.2-0.2V20.3c0,0,0,0,0-0.01c0-0.11-0.09-0.2-0.2-0.2
	S4.29,20.18,4.29,20.3C4.29,20.29,4.29,20.29,4.29,20.3L4.29,20.3z M8.55,20.3L8.55,20.3c0,0.12,0.09,0.2,0.2,0.2s0.2-0.09,0.2-0.2
	v-0.01c0,0,0,0,0-0.01c0-0.11-0.09-0.2-0.2-0.2C8.64,20.09,8.55,20.18,8.55,20.3C8.55,20.29,8.55,20.3,8.55,20.3L8.55,20.3z
	 M7.83,20.3L7.83,20.3c0,0.12,0.09,0.21,0.2,0.21c0.11,0,0.2-0.09,0.2-0.2V20.3c0,0,0,0,0-0.01c0-0.11-0.09-0.2-0.2-0.2
	C7.92,20.09,7.83,20.18,7.83,20.3C7.83,20.29,7.83,20.29,7.83,20.3L7.83,20.3z M7.83,19.58C7.83,19.59,7.83,19.59,7.83,19.58
	c0,0.12,0.09,0.21,0.2,0.21c0.11,0,0.2-0.09,0.2-0.2v-0.01c0,0,0,0,0-0.01c0-0.11-0.09-0.2-0.2-0.2
	C7.92,19.38,7.83,19.47,7.83,19.58L7.83,19.58L7.83,19.58z M7.13,19.58C7.13,19.59,7.13,19.59,7.13,19.58c0,0.12,0.09,0.21,0.2,0.21
	s0.2-0.09,0.2-0.2v-0.01c0,0,0,0,0-0.01c0-0.11-0.09-0.2-0.2-0.2S7.13,19.47,7.13,19.58L7.13,19.58L7.13,19.58z M9.25,17.91
	C9.25,17.92,9.25,17.92,9.25,17.91c0,0.12,0.09,0.21,0.2,0.21s0.2-0.09,0.2-0.2v-0.01c0,0,0,0,0-0.01c0-0.11-0.09-0.2-0.2-0.2
	C9.34,17.71,9.25,17.8,9.25,17.91L9.25,17.91L9.25,17.91z M6.41,17.91C6.41,17.92,6.41,17.92,6.41,17.91c0,0.12,0.09,0.21,0.2,0.21
	s0.2-0.09,0.2-0.2v-0.01c0,0,0,0,0-0.01c0-0.11-0.09-0.2-0.2-0.2S6.41,17.8,6.41,17.91L6.41,17.91L6.41,17.91z M6.41,17.2
	C6.41,17.2,6.41,17.21,6.41,17.2c0,0.12,0.09,0.21,0.2,0.21s0.2-0.09,0.2-0.2V17.2c0,0,0,0,0-0.01c0-0.11-0.09-0.2-0.2-0.2
	S6.41,17.08,6.41,17.2C6.41,17.19,6.41,17.2,6.41,17.2L6.41,17.2z M9.94,17.2C9.94,17.2,9.94,17.21,9.94,17.2
	c0,0.12,0.09,0.21,0.2,0.21s0.2-0.09,0.2-0.2V17.2c0,0,0,0,0-0.01c0-0.11-0.09-0.2-0.2-0.2C10.03,16.99,9.94,17.08,9.94,17.2
	C9.94,17.19,9.94,17.2,9.94,17.2L9.94,17.2z M5.71,17.2L5.71,17.2c0,0.12,0.09,0.2,0.2,0.2s0.2-0.09,0.2-0.2v-0.01c0,0,0,0,0-0.01
	c0-0.11-0.09-0.2-0.2-0.2S5.71,17.08,5.71,17.2L5.71,17.2L5.71,17.2z M7.13,17.2C7.13,17.2,7.13,17.21,7.13,17.2
	c0,0.12,0.09,0.21,0.2,0.21s0.2-0.09,0.2-0.2V17.2c0,0,0,0,0-0.01c0-0.11-0.09-0.2-0.2-0.2S7.13,17.08,7.13,17.2
	C7.13,17.19,7.13,17.2,7.13,17.2L7.13,17.2z M4.99,17.91C4.99,17.92,4.99,17.92,4.99,17.91c0,0.12,0.09,0.21,0.2,0.21
	s0.2-0.09,0.2-0.2v-0.01c0,0,0,0,0-0.01c0-0.11-0.09-0.2-0.2-0.2S4.99,17.8,4.99,17.91L4.99,17.91L4.99,17.91z M4.99,17.2
	C4.99,17.2,4.99,17.21,4.99,17.2c0,0.12,0.09,0.21,0.2,0.21s0.2-0.09,0.2-0.2V17.2c0,0,0,0,0-0.01c0-0.11-0.09-0.2-0.2-0.2
	S4.99,17.08,4.99,17.2C4.99,17.19,4.99,17.2,4.99,17.2L4.99,17.2z M5.71,17.91C5.71,17.91,5.71,17.92,5.71,17.91
	c0,0.12,0.09,0.2,0.2,0.2s0.2-0.09,0.2-0.2V17.9c0,0,0,0,0-0.01c0-0.11-0.09-0.2-0.2-0.2S5.71,17.8,5.71,17.91L5.71,17.91
	L5.71,17.91z M7.13,17.91C7.13,17.92,7.13,17.92,7.13,17.91c0,0.12,0.09,0.21,0.2,0.21s0.2-0.09,0.2-0.2v-0.01c0,0,0,0,0-0.01
	c0-0.11-0.09-0.2-0.2-0.2S7.13,17.8,7.13,17.91L7.13,17.91L7.13,17.91z M8.55,17.2L8.55,17.2c0,0.12,0.09,0.2,0.2,0.2
	s0.2-0.09,0.2-0.2v-0.01c0,0,0,0,0-0.01c0-0.11-0.09-0.2-0.2-0.2C8.64,17,8.55,17.08,8.55,17.2L8.55,17.2L8.55,17.2z M4.29,17.2
	C4.29,17.2,4.29,17.21,4.29,17.2c0,0.12,0.09,0.21,0.2,0.21s0.2-0.09,0.2-0.2V17.2c0,0,0,0,0-0.01c0-0.11-0.09-0.2-0.2-0.2
	S4.29,17.08,4.29,17.2C4.29,17.19,4.29,17.2,4.29,17.2L4.29,17.2z M9.25,17.2C9.25,17.2,9.25,17.21,9.25,17.2
	c0,0.12,0.09,0.21,0.2,0.21s0.2-0.09,0.2-0.2V17.2c0,0,0,0,0-0.01c0-0.11-0.09-0.2-0.2-0.2C9.34,16.99,9.25,17.08,9.25,17.2
	C9.25,17.19,9.25,17.2,9.25,17.2L9.25,17.2z M9.94,17.91C9.94,17.92,9.94,17.92,9.94,17.91c0,0.12,0.09,0.21,0.2,0.21
	s0.2-0.09,0.2-0.2v-0.01c0,0,0,0,0-0.01c0-0.11-0.09-0.2-0.2-0.2C10.03,17.71,9.94,17.8,9.94,17.91L9.94,17.91L9.94,17.91z
	 M7.83,17.91C7.83,17.92,7.83,17.92,7.83,17.91c0,0.12,0.09,0.21,0.2,0.21c0.11,0,0.2-0.09,0.2-0.2v-0.01c0,0,0,0,0-0.01
	c0-0.11-0.09-0.2-0.2-0.2C7.92,17.71,7.83,17.8,7.83,17.91L7.83,17.91L7.83,17.91z M8.55,17.91C8.55,17.91,8.55,17.92,8.55,17.91
	c0,0.12,0.09,0.2,0.2,0.2s0.2-0.09,0.2-0.2V17.9c0,0,0,0,0-0.01c0-0.11-0.09-0.2-0.2-0.2C8.64,17.71,8.55,17.8,8.55,17.91
	L8.55,17.91L8.55,17.91z M7.83,17.2C7.83,17.2,7.83,17.21,7.83,17.2c0,0.12,0.09,0.21,0.2,0.21c0.11,0,0.2-0.09,0.2-0.2V17.2
	c0,0,0,0,0-0.01c0-0.11-0.09-0.2-0.2-0.2C7.92,16.99,7.83,17.08,7.83,17.2C7.83,17.19,7.83,17.2,7.83,17.2L7.83,17.2z M25.06,13.13
	L25.06,13.13c0,0.12,0.09,0.2,0.2,0.2s0.2-0.09,0.2-0.2v-0.01c0,0,0,0,0-0.01c0-0.11-0.09-0.2-0.2-0.2
	C25.15,12.93,25.06,13.01,25.06,13.13L25.06,13.13L25.06,13.13z M23.64,12.42L23.64,12.42c0,0.12,0.09,0.21,0.2,0.21
	s0.2-0.09,0.2-0.2v-0.01v-0.01c0-0.11-0.09-0.2-0.2-0.2S23.64,12.3,23.64,12.42C23.64,12.41,23.64,12.41,23.64,12.42L23.64,12.42z
	 M23.64,13.13C23.64,13.13,23.64,13.14,23.64,13.13c0,0.12,0.09,0.21,0.2,0.21s0.2-0.09,0.2-0.2v-0.01c0,0,0,0,0-0.01
	c0-0.11-0.09-0.2-0.2-0.2S23.64,13.01,23.64,13.13C23.64,13.12,23.64,13.13,23.64,13.13L23.64,13.13z M22.93,12.42L22.93,12.42
	c0,0.12,0.09,0.21,0.2,0.21s0.2-0.09,0.2-0.2v-0.01v-0.01c0-0.11-0.09-0.2-0.2-0.2S22.93,12.3,22.93,12.42
	C22.93,12.41,22.93,12.41,22.93,12.42L22.93,12.42z M24.34,12.42L24.34,12.42c0,0.12,0.09,0.2,0.2,0.2s0.2-0.09,0.2-0.2
	c0,0,0,0,0-0.01V12.4c0-0.11-0.09-0.2-0.2-0.2C24.43,12.21,24.34,12.3,24.34,12.42C24.34,12.41,24.34,12.41,24.34,12.42L24.34,12.42
	z M24.34,13.13L24.34,13.13c0,0.12,0.09,0.2,0.2,0.2s0.2-0.09,0.2-0.2v-0.01c0,0,0,0,0-0.01c0-0.11-0.09-0.2-0.2-0.2
	C24.43,12.93,24.34,13.01,24.34,13.13L24.34,13.13L24.34,13.13z M28.52,11.57c0.02-0.06-0.01-0.13-0.07-0.16l-3.75-0.65
	c-0.02-0.01-0.18-0.02-0.21-0.02H7.59c-0.02,0-0.18,0-0.2,0.01L3.56,11.4c-0.07,0.03-0.1,0.1-0.08,0.17c0,0.01-0.01,0.02-0.01,0.04
	v4.75v0.01v0.01v4.74c0,0.08,0.06,0.14,0.14,0.14h8.24l0,0l0,0h8.24h0.01h0.01h8.24c0.08,0,0.14-0.06,0.14-0.14v-4.74v-0.01v-0.01
	V11.6C28.52,11.59,28.52,11.58,28.52,11.57L28.52,11.57z M24.59,11.03l2.57,0.43h-6.9l-0.86-0.43H24.59z M13.34,11.03h5.5l0.81,0.43
	H12.4L13.34,11.03L13.34,11.03z M7.48,11.03h5.27l-0.98,0.43H4.91L7.48,11.03L7.48,11.03z M11.72,20.14H11
	c-0.12,0-0.21-0.1-0.21-0.21s0.1-0.21,0.21-0.21h0.72V20.14z M11.72,19.57H11c-0.2,0-0.36,0.16-0.36,0.36s0.16,0.36,0.36,0.36h0.72
	v0.69H3.76v-2.09h7.96C11.72,18.89,11.72,19.57,11.72,19.57z M11.72,17.82H11c-0.12,0-0.21-0.1-0.21-0.21s0.1-0.21,0.21-0.21h0.72
	V17.82z M11.72,17.25H11c-0.2,0-0.36,0.16-0.36,0.36s0.16,0.36,0.36,0.36h0.72v0.63H3.76v-2.09h7.96V17.25L11.72,17.25z
	 M11.72,15.38H11c-0.12,0-0.21-0.1-0.21-0.21c0-0.12,0.1-0.21,0.21-0.21h0.72V15.38z M11.72,14.81H11c-0.2,0-0.36,0.16-0.36,0.36
	s0.16,0.36,0.36,0.36h0.72v0.69H3.76v-2.09h7.96C11.72,14.12,11.72,14.81,11.72,14.81z M11.72,13.06H11c-0.12,0-0.21-0.1-0.21-0.21
	s0.1-0.21,0.21-0.21h0.72V13.06L11.72,13.06z M11.72,12.49H11c-0.2,0-0.36,0.16-0.36,0.36S10.81,13.2,11,13.2h0.72v0.63H3.76v-2.09
	h7.96V12.49L11.72,12.49z M19.97,20.14h-0.72c-0.12,0-0.21-0.1-0.21-0.21s0.1-0.21,0.21-0.21h0.72V20.14z M19.97,19.57h-0.72
	c-0.2,0-0.36,0.16-0.36,0.36s0.16,0.36,0.36,0.36h0.72v0.69h-7.96v-2.09h7.96C19.97,18.89,19.97,19.57,19.97,19.57z M19.97,17.82
	h-0.72c-0.12,0-0.21-0.1-0.21-0.21s0.1-0.21,0.21-0.21h0.72V17.82z M19.97,17.25h-0.72c-0.2,0-0.36,0.16-0.36,0.36
	s0.16,0.36,0.36,0.36h0.72v0.63h-7.96v-2.09h7.96V17.25L19.97,17.25z M19.97,15.38h-0.72c-0.12,0-0.21-0.1-0.21-0.21
	c0-0.12,0.1-0.21,0.21-0.21h0.72V15.38z M19.97,14.81h-0.72c-0.2,0-0.36,0.16-0.36,0.36s0.16,0.36,0.36,0.36h0.72v0.69h-7.96v-2.09
	h7.96C19.97,14.12,19.97,14.81,19.97,14.81z M19.97,13.06h-0.72c-0.12,0-0.21-0.1-0.21-0.21s0.1-0.21,0.21-0.21h0.72V13.06
	L19.97,13.06z M19.97,12.49h-0.72c-0.2,0-0.36,0.16-0.36,0.36s0.16,0.36,0.36,0.36h0.72v0.63h-7.96v-2.09h7.96V12.49L19.97,12.49z
	 M28.24,20.14h-0.72c-0.12,0-0.21-0.1-0.21-0.21s0.1-0.21,0.21-0.21h0.72V20.14z M28.24,19.57h-0.72c-0.2,0-0.36,0.16-0.36,0.36
	s0.16,0.36,0.36,0.36h0.72v0.69h-7.96v-2.09h7.96C28.24,18.89,28.24,19.57,28.24,19.57z M28.24,17.82h-0.72
	c-0.12,0-0.21-0.1-0.21-0.21s0.1-0.21,0.21-0.21h0.72V17.82z M28.24,17.25h-0.72c-0.2,0-0.36,0.16-0.36,0.36s0.16,0.36,0.36,0.36
	h0.72v0.63h-7.96v-2.09h7.96L28.24,17.25L28.24,17.25z M28.24,15.38h-0.72c-0.12,0-0.21-0.1-0.21-0.21c0-0.12,0.1-0.21,0.21-0.21
	h0.72V15.38z M28.24,14.81h-0.72c-0.2,0-0.36,0.16-0.36,0.36s0.16,0.36,0.36,0.36h0.72v0.69h-7.96v-2.09h7.96
	C28.24,14.12,28.24,14.81,28.24,14.81z M28.24,13.06h-0.72c-0.12,0-0.21-0.1-0.21-0.21s0.1-0.21,0.21-0.21h0.72V13.06L28.24,13.06z
	 M28.24,12.49h-0.72c-0.2,0-0.36,0.16-0.36,0.36s0.16,0.36,0.36,0.36h0.72v0.63h-7.96v-2.09h7.96L28.24,12.49L28.24,12.49z
	 M22.93,13.13C22.93,13.13,22.93,13.14,22.93,13.13c0,0.12,0.09,0.21,0.2,0.21s0.2-0.09,0.2-0.2v-0.01c0,0,0,0,0-0.01
	c0-0.11-0.09-0.2-0.2-0.2S22.93,13.01,22.93,13.13C22.93,13.12,22.93,13.13,22.93,13.13L22.93,13.13z M25.76,13.13
	C25.76,13.13,25.76,13.14,25.76,13.13c0,0.12,0.09,0.21,0.2,0.21s0.2-0.09,0.2-0.2v-0.01c0,0,0,0,0-0.01c0-0.11-0.09-0.2-0.2-0.2
	S25.76,13.01,25.76,13.13C25.76,13.12,25.76,13.13,25.76,13.13L25.76,13.13z M25.76,12.42L25.76,12.42c0,0.12,0.09,0.21,0.2,0.21
	s0.2-0.09,0.2-0.2v-0.01v-0.01c0-0.11-0.09-0.2-0.2-0.2S25.76,12.3,25.76,12.42C25.76,12.41,25.76,12.41,25.76,12.42L25.76,12.42z
	 M20.81,13.13C20.81,13.13,20.81,13.14,20.81,13.13c0,0.12,0.09,0.21,0.2,0.21s0.2-0.09,0.2-0.2v-0.01c0,0,0,0,0-0.01
	c0-0.11-0.09-0.2-0.2-0.2S20.81,13.01,20.81,13.13C20.81,13.12,20.81,13.13,20.81,13.13L20.81,13.13z M22.23,13.13
	C22.23,13.13,22.23,13.14,22.23,13.13c0,0.12,0.09,0.21,0.2,0.21s0.2-0.09,0.2-0.2v-0.01c0,0,0,0,0-0.01c0-0.11-0.09-0.2-0.2-0.2
	S22.23,13.01,22.23,13.13C22.23,13.12,22.23,13.13,22.23,13.13L22.23,13.13z M21.51,12.42L21.51,12.42c0,0.12,0.09,0.2,0.2,0.2
	s0.2-0.09,0.2-0.2c0,0,0,0,0-0.01V12.4c0-0.11-0.09-0.2-0.2-0.2C21.59,12.21,21.51,12.3,21.51,12.42
	C21.51,12.41,21.51,12.41,21.51,12.42L21.51,12.42z M20.81,12.42L20.81,12.42c0,0.12,0.09,0.21,0.2,0.21s0.2-0.09,0.2-0.2v-0.01
	v-0.01c0-0.11-0.09-0.2-0.2-0.2S20.81,12.3,20.81,12.42C20.81,12.41,20.81,12.41,20.81,12.42L20.81,12.42z M21.51,13.13L21.51,13.13
	c0,0.12,0.09,0.2,0.2,0.2s0.2-0.09,0.2-0.2v-0.01c0,0,0,0,0-0.01c0-0.11-0.09-0.2-0.2-0.2C21.59,12.93,21.51,13.01,21.51,13.13
	L21.51,13.13L21.51,13.13z M22.23,12.42L22.23,12.42c0,0.12,0.09,0.21,0.2,0.21s0.2-0.09,0.2-0.2v-0.01v-0.01
	c0-0.11-0.09-0.2-0.2-0.2S22.23,12.3,22.23,12.42C22.23,12.41,22.23,12.41,22.23,12.42L22.23,12.42z M21.51,19.58
	C21.51,19.59,21.51,19.59,21.51,19.58c0,0.12,0.09,0.2,0.2,0.2s0.2-0.09,0.2-0.2v-0.01c0,0,0,0,0-0.01c0-0.11-0.09-0.2-0.2-0.2
	C21.59,19.38,21.51,19.47,21.51,19.58L21.51,19.58L21.51,19.58z M21.51,20.3L21.51,20.3c0,0.12,0.09,0.2,0.2,0.2s0.2-0.09,0.2-0.2
	v-0.01c0,0,0,0,0-0.01c0-0.11-0.09-0.2-0.2-0.2C21.59,20.09,21.51,20.18,21.51,20.3C21.51,20.29,21.51,20.3,21.51,20.3L21.51,20.3z
	 M20.81,19.58C20.81,19.59,20.81,19.59,20.81,19.58c0,0.12,0.09,0.21,0.2,0.21s0.2-0.09,0.2-0.2v-0.01c0,0,0,0,0-0.01
	c0-0.11-0.09-0.2-0.2-0.2C20.9,19.38,20.81,19.47,20.81,19.58L20.81,19.58L20.81,19.58z M22.93,20.3L22.93,20.3
	c0,0.12,0.09,0.21,0.2,0.21s0.2-0.09,0.2-0.2V20.3c0,0,0,0,0-0.01c0-0.11-0.09-0.2-0.2-0.2C23.02,20.09,22.93,20.18,22.93,20.3
	C22.93,20.29,22.93,20.29,22.93,20.3L22.93,20.3z M20.81,20.3L20.81,20.3c0,0.12,0.09,0.21,0.2,0.21s0.2-0.09,0.2-0.2V20.3
	c0,0,0,0,0-0.01c0-0.11-0.09-0.2-0.2-0.2C20.9,20.09,20.81,20.18,20.81,20.3C20.81,20.29,20.81,20.29,20.81,20.3L20.81,20.3z
	 M22.23,19.58C22.23,19.59,22.23,19.59,22.23,19.58c0,0.12,0.09,0.21,0.2,0.21s0.2-0.09,0.2-0.2v-0.01c0,0,0,0,0-0.01
	c0-0.11-0.09-0.2-0.2-0.2C22.32,19.38,22.23,19.47,22.23,19.58L22.23,19.58L22.23,19.58z M22.23,20.3L22.23,20.3
	c0,0.12,0.09,0.21,0.2,0.21s0.2-0.09,0.2-0.2V20.3c0,0,0,0,0-0.01c0-0.11-0.09-0.2-0.2-0.2C22.32,20.09,22.23,20.18,22.23,20.3
	C22.23,20.29,22.23,20.29,22.23,20.3L22.23,20.3z M21.51,14.81L21.51,14.81c0,0.12,0.09,0.2,0.2,0.2s0.2-0.09,0.2-0.2
	c0,0,0,0,0-0.01v-0.01c0-0.11-0.09-0.2-0.2-0.2C21.59,14.6,21.51,14.69,21.51,14.81C21.51,14.8,21.51,14.81,21.51,14.81L21.51,14.81
	z M25.76,17.91C25.76,17.92,25.76,17.92,25.76,17.91c0,0.12,0.09,0.21,0.2,0.21s0.2-0.09,0.2-0.2v-0.01c0,0,0,0,0-0.01
	c0-0.11-0.09-0.2-0.2-0.2C25.85,17.71,25.76,17.8,25.76,17.91L25.76,17.91L25.76,17.91z M25.76,17.2
	C25.76,17.2,25.76,17.21,25.76,17.2c0,0.12,0.09,0.21,0.2,0.21s0.2-0.09,0.2-0.2V17.2c0,0,0,0,0-0.01c0-0.11-0.09-0.2-0.2-0.2
	C25.85,16.99,25.76,17.08,25.76,17.2C25.76,17.19,25.76,17.2,25.76,17.2L25.76,17.2z M25.06,17.2L25.06,17.2
	c0,0.12,0.09,0.2,0.2,0.2s0.2-0.09,0.2-0.2v-0.01c0,0,0,0,0-0.01c0-0.11-0.09-0.2-0.2-0.2C25.15,17,25.06,17.08,25.06,17.2
	L25.06,17.2L25.06,17.2z M26.46,17.2C26.46,17.2,26.46,17.21,26.46,17.2c0,0.12,0.09,0.21,0.2,0.21s0.2-0.09,0.2-0.2V17.2
	c0,0,0,0,0-0.01c0-0.11-0.09-0.2-0.2-0.2C26.55,16.99,26.46,17.08,26.46,17.2C26.46,17.19,26.46,17.2,26.46,17.2L26.46,17.2z
	 M20.81,15.52C20.81,15.52,20.81,15.53,20.81,15.52c0,0.12,0.09,0.21,0.2,0.21s0.2-0.09,0.2-0.2v-0.01v-0.01
	c0-0.11-0.09-0.2-0.2-0.2C20.9,15.32,20.81,15.4,20.81,15.52L20.81,15.52L20.81,15.52z M26.46,17.91
	C26.46,17.92,26.46,17.92,26.46,17.91c0,0.12,0.09,0.21,0.2,0.21s0.2-0.09,0.2-0.2v-0.01c0,0,0,0,0-0.01c0-0.11-0.09-0.2-0.2-0.2
	C26.55,17.71,26.46,17.8,26.46,17.91L26.46,17.91L26.46,17.91z M25.76,19.58C25.76,19.59,25.76,19.59,25.76,19.58
	c0,0.12,0.09,0.21,0.2,0.21s0.2-0.09,0.2-0.2v-0.01c0,0,0,0,0-0.01c0-0.11-0.09-0.2-0.2-0.2C25.85,19.38,25.76,19.47,25.76,19.58
	L25.76,19.58L25.76,19.58z M26.46,19.58C26.46,19.59,26.46,19.59,26.46,19.58c0,0.12,0.09,0.21,0.2,0.21s0.2-0.09,0.2-0.2v-0.01
	c0,0,0,0,0-0.01c0-0.11-0.09-0.2-0.2-0.2C26.55,19.38,26.46,19.47,26.46,19.58L26.46,19.58L26.46,19.58z M26.46,20.3L26.46,20.3
	c0,0.12,0.09,0.21,0.2,0.21s0.2-0.09,0.2-0.2V20.3c0,0,0,0,0-0.01c0-0.11-0.09-0.2-0.2-0.2C26.55,20.09,26.46,20.18,26.46,20.3
	C26.46,20.29,26.46,20.29,26.46,20.3L26.46,20.3z M25.76,20.3L25.76,20.3c0,0.12,0.09,0.21,0.2,0.21s0.2-0.09,0.2-0.2V20.3
	c0,0,0,0,0-0.01c0-0.11-0.09-0.2-0.2-0.2C25.85,20.09,25.76,20.18,25.76,20.3C25.76,20.29,25.76,20.29,25.76,20.3L25.76,20.3z
	 M25.06,17.91C25.06,17.91,25.06,17.92,25.06,17.91c0,0.12,0.09,0.2,0.2,0.2s0.2-0.09,0.2-0.2V17.9c0,0,0,0,0-0.01
	c0-0.11-0.09-0.2-0.2-0.2C25.15,17.71,25.06,17.8,25.06,17.91L25.06,17.91L25.06,17.91z M25.06,12.42L25.06,12.42
	c0,0.12,0.09,0.2,0.2,0.2s0.2-0.09,0.2-0.2c0,0,0,0,0-0.01V12.4c0-0.11-0.09-0.2-0.2-0.2C25.15,12.21,25.06,12.3,25.06,12.42
	C25.06,12.41,25.06,12.41,25.06,12.42L25.06,12.42z M26.46,12.42L26.46,12.42c0,0.12,0.09,0.21,0.2,0.21s0.2-0.09,0.2-0.2v-0.01
	v-0.01c0-0.11-0.09-0.2-0.2-0.2S26.46,12.3,26.46,12.42C26.46,12.41,26.46,12.41,26.46,12.42L26.46,12.42z M26.46,13.13
	C26.46,13.13,26.46,13.14,26.46,13.13c0,0.12,0.09,0.21,0.2,0.21s0.2-0.09,0.2-0.2v-0.01c0,0,0,0,0-0.01c0-0.11-0.09-0.2-0.2-0.2
	S26.46,13.01,26.46,13.13C26.46,13.12,26.46,13.13,26.46,13.13L26.46,13.13z M24.34,20.3L24.34,20.3c0,0.12,0.09,0.2,0.2,0.2
	s0.2-0.09,0.2-0.2v-0.01c0,0,0,0,0-0.01c0-0.11-0.09-0.2-0.2-0.2C24.43,20.09,24.34,20.18,24.34,20.3
	C24.34,20.29,24.34,20.3,24.34,20.3L24.34,20.3z M22.93,19.58C22.93,19.59,22.93,19.59,22.93,19.58c0,0.12,0.09,0.21,0.2,0.21
	s0.2-0.09,0.2-0.2v-0.01c0,0,0,0,0-0.01c0-0.11-0.09-0.2-0.2-0.2C23.02,19.38,22.93,19.47,22.93,19.58L22.93,19.58L22.93,19.58z
	 M23.64,19.58C23.64,19.59,23.64,19.59,23.64,19.58c0,0.12,0.09,0.21,0.2,0.21s0.2-0.09,0.2-0.2v-0.01c0,0,0,0,0-0.01
	c0-0.11-0.09-0.2-0.2-0.2C23.73,19.38,23.64,19.47,23.64,19.58L23.64,19.58L23.64,19.58z M23.64,20.3L23.64,20.3
	c0,0.12,0.09,0.21,0.2,0.21s0.2-0.09,0.2-0.2V20.3c0,0,0,0,0-0.01c0-0.11-0.09-0.2-0.2-0.2C23.73,20.09,23.64,20.18,23.64,20.3
	C23.64,20.29,23.64,20.29,23.64,20.3L23.64,20.3z M24.34,19.58C24.34,19.59,24.34,19.59,24.34,19.58c0,0.12,0.09,0.2,0.2,0.2
	s0.2-0.09,0.2-0.2v-0.01c0,0,0,0,0-0.01c0-0.11-0.09-0.2-0.2-0.2C24.43,19.38,24.34,19.47,24.34,19.58L24.34,19.58L24.34,19.58z
	 M25.06,20.3L25.06,20.3c0,0.12,0.09,0.2,0.2,0.2s0.2-0.09,0.2-0.2v-0.01c0,0,0,0,0-0.01c0-0.11-0.09-0.2-0.2-0.2
	C25.15,20.09,25.06,20.18,25.06,20.3C25.06,20.29,25.06,20.3,25.06,20.3L25.06,20.3z M25.06,19.58
	C25.06,19.59,25.06,19.59,25.06,19.58c0,0.12,0.09,0.2,0.2,0.2s0.2-0.09,0.2-0.2v-0.01c0,0,0,0,0-0.01c0-0.11-0.09-0.2-0.2-0.2
	C25.15,19.38,25.06,19.47,25.06,19.58L25.06,19.58L25.06,19.58z M22.23,15.52C22.23,15.52,22.23,15.53,22.23,15.52
	c0,0.12,0.09,0.21,0.2,0.21s0.2-0.09,0.2-0.2v-0.01v-0.01c0-0.11-0.09-0.2-0.2-0.2C22.32,15.32,22.23,15.4,22.23,15.52L22.23,15.52
	L22.23,15.52z M25.06,14.81L25.06,14.81c0,0.12,0.09,0.2,0.2,0.2s0.2-0.09,0.2-0.2c0,0,0,0,0-0.01v-0.01c0-0.11-0.09-0.2-0.2-0.2
	C25.15,14.6,25.06,14.69,25.06,14.81C25.06,14.8,25.06,14.81,25.06,14.81L25.06,14.81z M25.06,15.52
	C25.06,15.52,25.06,15.53,25.06,15.52c0,0.12,0.09,0.21,0.2,0.21s0.2-0.09,0.2-0.2c0,0,0,0,0-0.01v-0.01c0-0.11-0.09-0.2-0.2-0.2
	C25.15,15.32,25.06,15.41,25.06,15.52L25.06,15.52L25.06,15.52z M25.76,15.52C25.76,15.52,25.76,15.53,25.76,15.52
	c0,0.12,0.09,0.21,0.2,0.21s0.2-0.09,0.2-0.2v-0.01v-0.01c0-0.11-0.09-0.2-0.2-0.2C25.85,15.32,25.76,15.4,25.76,15.52L25.76,15.52
	L25.76,15.52z M26.46,15.52C26.46,15.52,26.46,15.53,26.46,15.52c0,0.12,0.09,0.21,0.2,0.21s0.2-0.09,0.2-0.2v-0.01v-0.01
	c0-0.11-0.09-0.2-0.2-0.2C26.55,15.32,26.46,15.4,26.46,15.52L26.46,15.52L26.46,15.52z M26.46,14.81L26.46,14.81
	c0,0.12,0.09,0.21,0.2,0.21s0.2-0.09,0.2-0.2v-0.01V14.8c0-0.11-0.09-0.2-0.2-0.2S26.46,14.69,26.46,14.81
	C26.46,14.8,26.46,14.81,26.46,14.81L26.46,14.81z M25.76,14.81L25.76,14.81c0,0.12,0.09,0.21,0.2,0.21s0.2-0.09,0.2-0.2v-0.01V14.8
	c0-0.11-0.09-0.2-0.2-0.2S25.76,14.69,25.76,14.81C25.76,14.8,25.76,14.81,25.76,14.81L25.76,14.81z M24.34,14.81L24.34,14.81
	c0,0.12,0.09,0.2,0.2,0.2s0.2-0.09,0.2-0.2c0,0,0,0,0-0.01v-0.01c0-0.11-0.09-0.2-0.2-0.2C24.43,14.6,24.34,14.69,24.34,14.81
	C24.34,14.8,24.34,14.81,24.34,14.81L24.34,14.81z M22.93,15.52C22.93,15.52,22.93,15.53,22.93,15.52c0,0.12,0.09,0.21,0.2,0.21
	s0.2-0.09,0.2-0.2v-0.01v-0.01c0-0.11-0.09-0.2-0.2-0.2C23.02,15.32,22.93,15.4,22.93,15.52L22.93,15.52L22.93,15.52z M22.93,14.81
	L22.93,14.81c0,0.12,0.09,0.21,0.2,0.21s0.2-0.09,0.2-0.2v-0.01V14.8c0-0.11-0.09-0.2-0.2-0.2S22.93,14.69,22.93,14.81
	C22.93,14.8,22.93,14.81,22.93,14.81L22.93,14.81z M24.34,17.2L24.34,17.2c0,0.12,0.09,0.2,0.2,0.2s0.2-0.09,0.2-0.2v-0.01
	c0,0,0,0,0-0.01c0-0.11-0.09-0.2-0.2-0.2C24.43,17,24.34,17.08,24.34,17.2L24.34,17.2L24.34,17.2z M24.34,15.52
	C24.34,15.52,24.34,15.53,24.34,15.52c0,0.12,0.09,0.21,0.2,0.21s0.2-0.09,0.2-0.2c0,0,0,0,0-0.01v-0.01c0-0.11-0.09-0.2-0.2-0.2
	C24.43,15.32,24.34,15.41,24.34,15.52L24.34,15.52L24.34,15.52z M22.23,14.81L22.23,14.81c0,0.12,0.09,0.21,0.2,0.21
	s0.2-0.09,0.2-0.2v-0.01V14.8c0-0.11-0.09-0.2-0.2-0.2S22.23,14.69,22.23,14.81C22.23,14.8,22.23,14.81,22.23,14.81L22.23,14.81z
	 M23.64,15.52C23.64,15.52,23.64,15.53,23.64,15.52c0,0.12,0.09,0.21,0.2,0.21s0.2-0.09,0.2-0.2v-0.01v-0.01
	c0-0.11-0.09-0.2-0.2-0.2C23.73,15.32,23.64,15.4,23.64,15.52L23.64,15.52L23.64,15.52z M23.64,14.81L23.64,14.81
	c0,0.12,0.09,0.21,0.2,0.21s0.2-0.09,0.2-0.2v-0.01V14.8c0-0.11-0.09-0.2-0.2-0.2S23.64,14.69,23.64,14.81
	C23.64,14.8,23.64,14.81,23.64,14.81L23.64,14.81z M21.51,15.52C21.51,15.52,21.51,15.53,21.51,15.52c0,0.12,0.09,0.21,0.2,0.21
	s0.2-0.09,0.2-0.2c0,0,0,0,0-0.01v-0.01c0-0.11-0.09-0.2-0.2-0.2C21.59,15.32,21.51,15.41,21.51,15.52L21.51,15.52L21.51,15.52z
	 M22.23,17.2C22.23,17.2,22.23,17.21,22.23,17.2c0,0.12,0.09,0.21,0.2,0.21s0.2-0.09,0.2-0.2V17.2c0,0,0,0,0-0.01
	c0-0.11-0.09-0.2-0.2-0.2C22.32,16.99,22.23,17.08,22.23,17.2C22.23,17.19,22.23,17.2,22.23,17.2L22.23,17.2z M23.64,17.91
	C23.64,17.92,23.64,17.92,23.64,17.91c0,0.12,0.09,0.21,0.2,0.21s0.2-0.09,0.2-0.2v-0.01c0,0,0,0,0-0.01c0-0.11-0.09-0.2-0.2-0.2
	C23.73,17.71,23.64,17.8,23.64,17.91L23.64,17.91L23.64,17.91z M22.93,17.91C22.93,17.92,22.93,17.92,22.93,17.91
	c0,0.12,0.09,0.21,0.2,0.21s0.2-0.09,0.2-0.2v-0.01c0,0,0,0,0-0.01c0-0.11-0.09-0.2-0.2-0.2C23.02,17.71,22.93,17.8,22.93,17.91
	L22.93,17.91L22.93,17.91z M22.93,17.2C22.93,17.2,22.93,17.21,22.93,17.2c0,0.12,0.09,0.21,0.2,0.21s0.2-0.09,0.2-0.2V17.2
	c0,0,0,0,0-0.01c0-0.11-0.09-0.2-0.2-0.2C23.02,16.99,22.93,17.08,22.93,17.2C22.93,17.19,22.93,17.2,22.93,17.2L22.93,17.2z
	 M23.64,17.2C23.64,17.2,23.64,17.21,23.64,17.2c0,0.12,0.09,0.21,0.2,0.21s0.2-0.09,0.2-0.2V17.2c0,0,0,0,0-0.01
	c0-0.11-0.09-0.2-0.2-0.2C23.73,16.99,23.64,17.08,23.64,17.2C23.64,17.19,23.64,17.2,23.64,17.2L23.64,17.2z M24.34,17.91
	C24.34,17.91,24.34,17.92,24.34,17.91c0,0.12,0.09,0.2,0.2,0.2s0.2-0.09,0.2-0.2V17.9c0,0,0,0,0-0.01c0-0.11-0.09-0.2-0.2-0.2
	C24.43,17.71,24.34,17.8,24.34,17.91L24.34,17.91L24.34,17.91z M20.81,14.81L20.81,14.81c0,0.12,0.09,0.21,0.2,0.21
	s0.2-0.09,0.2-0.2v-0.01V14.8c0-0.11-0.09-0.2-0.2-0.2S20.81,14.69,20.81,14.81C20.81,14.8,20.81,14.81,20.81,14.81L20.81,14.81z
	 M20.81,17.2C20.81,17.2,20.81,17.21,20.81,17.2c0,0.12,0.09,0.21,0.2,0.21s0.2-0.09,0.2-0.2V17.2c0,0,0,0,0-0.01
	c0-0.11-0.09-0.2-0.2-0.2C20.9,16.99,20.81,17.08,20.81,17.2C20.81,17.19,20.81,17.2,20.81,17.2L20.81,17.2z M21.51,17.91
	C21.51,17.91,21.51,17.92,21.51,17.91c0,0.12,0.09,0.2,0.2,0.2s0.2-0.09,0.2-0.2V17.9c0,0,0,0,0-0.01c0-0.11-0.09-0.2-0.2-0.2
	C21.59,17.71,21.51,17.8,21.51,17.91L21.51,17.91L21.51,17.91z M20.81,17.91C20.81,17.92,20.81,17.92,20.81,17.91
	c0,0.12,0.09,0.21,0.2,0.21s0.2-0.09,0.2-0.2v-0.01c0,0,0,0,0-0.01c0-0.11-0.09-0.2-0.2-0.2C20.9,17.71,20.81,17.8,20.81,17.91
	L20.81,17.91L20.81,17.91z M21.51,17.2L21.51,17.2c0,0.12,0.09,0.2,0.2,0.2s0.2-0.09,0.2-0.2v-0.01c0,0,0,0,0-0.01
	c0-0.11-0.09-0.2-0.2-0.2C21.59,17,21.51,17.08,21.51,17.2L21.51,17.2L21.51,17.2z M22.23,17.91
	C22.23,17.92,22.23,17.92,22.23,17.91c0,0.12,0.09,0.21,0.2,0.21s0.2-0.09,0.2-0.2v-0.01c0,0,0,0,0-0.01c0-0.11-0.09-0.2-0.2-0.2
	C22.32,17.71,22.23,17.8,22.23,17.91L22.23,17.91L22.23,17.91z"/>
</svg>
