<?xml version="1.0" encoding="utf-8"?>
<!-- Generator: Adobe Illustrator 21.1.0, SVG Export Plug-In . SVG Version: 6.00 Build 0)  -->
<!DOCTYPE svg PUBLIC "-//W3C//DTD SVG 1.1//EN" "http://www.w3.org/Graphics/SVG/1.1/DTD/svg11.dtd">
<svg version="1.1" id="Layer_1" xmlns="http://www.w3.org/2000/svg" xmlns:xlink="http://www.w3.org/1999/xlink" x="0px" y="0px"
	 viewBox="0 0 31.68 31.68" style="enable-background:new 0 0 31.68 31.68;" xml:space="preserve">
<g>
	<path d="M24.79,6.13c-0.07,0-1.74,0.03-4.04,0.93c-2.1,0.82-5.12,2.55-7.64,6.16c-0.47,0.12-0.99,0.24-1.53,0.36
		c-2.03,0.46-4.32,0.97-5.55,2.2l-0.34,0.34l5.26,0.38l-5,6.68l4.36-3.43l-0.64,1.66l1.22-0.36l-4.44,5.48l8.19-6.33l0.38,5.25
		l0.34-0.34c1.23-1.23,1.75-3.53,2.2-5.55c0.12-0.54,0.24-1.05,0.36-1.53c3.6-2.52,5.33-5.54,6.15-7.64
		c0.9-2.29,0.93-3.97,0.93-4.04l0-0.23L24.79,6.13z M23.66,10.25c-0.8,2.04-2.49,4.97-5.99,7.42c-0.87-0.05-2.2,0.65-2.93,1.7
		l-2.97-2.97c1.05-0.73,1.75-2.06,1.7-2.93c4.2-6.01,9.87-6.79,11.09-6.89C24.51,7.12,24.34,8.51,23.66,10.25z M11.68,14.01
		c0.47-0.11,0.92-0.21,1.35-0.32c-0.07,0.76-0.71,1.84-1.6,2.41l-4.7-0.34C7.95,14.85,9.92,14.4,11.68,14.01z M17.45,18.11
		c-0.11,0.43-0.21,0.87-0.32,1.35c-0.4,1.76-0.84,3.74-1.75,4.95l-0.34-4.71C15.62,18.82,16.69,18.17,17.45,18.11z M12.13,20.22
		l-1.72,0.51l0.9-2.32L8.3,20.78l3.09-4.13l3.1,3.1l-5.32,4.11L12.13,20.22z"/>
	<path d="M18.86,13.85c0.42,0,0.81-0.16,1.11-0.46c0.61-0.61,0.61-1.61,0-2.22c-0.3-0.3-0.69-0.46-1.11-0.46
		c-0.42,0-0.81,0.16-1.11,0.46c-0.3,0.3-0.46,0.69-0.46,1.11c0,0.42,0.16,0.81,0.46,1.11C18.05,13.69,18.44,13.85,18.86,13.85z
		 M18.86,11.15c0.3,0,0.58,0.12,0.8,0.33c0.44,0.44,0.44,1.16,0,1.6c-0.43,0.43-1.17,0.43-1.6,0c-0.21-0.21-0.33-0.5-0.33-0.8
		c0-0.3,0.12-0.58,0.33-0.8C18.27,11.27,18.56,11.15,18.86,11.15z"/>
</g>
</svg>
