<?xml version="1.0" encoding="utf-8"?>
<!-- Generator: Adobe Illustrator 21.1.0, SVG Export Plug-In . SVG Version: 6.00 Build 0)  -->
<!DOCTYPE svg PUBLIC "-//W3C//DTD SVG 1.1//EN" "http://www.w3.org/Graphics/SVG/1.1/DTD/svg11.dtd">
<svg version="1.1" id="Layer_1" xmlns="http://www.w3.org/2000/svg" xmlns:xlink="http://www.w3.org/1999/xlink" x="0px" y="0px"
	 viewBox="0 0 32 32" style="enable-background:new 0 0 32 32;" xml:space="preserve">
<path d="M12.28,5.05C12.28,5.05,12.28,5.05,12.28,5.05L12.28,5.05l-5.98,0c-0.15,0-0.3,0.12-0.31,0.28L5.65,12
	c0,1.49,0.91,2.82,2.27,3.38v11.81c0,0.08,0.03,0.15,0.08,0.2l0,0c0.25,0.27,0.74,0.58,1.33,0.58c0.42,0,0.89-0.16,1.37-0.6
	l-0.01-0.01c0.07-0.06,0.11-0.14,0.11-0.23V15.32c1.29-0.59,2.14-1.89,2.14-3.34L12.6,5.33C12.59,5.17,12.43,5.04,12.28,5.05
	L12.28,5.05z M10.39,14.84c-0.28,0.11-0.58,0.17-0.88,0.2c-0.17,0.01-0.29,0.16-0.28,0.32c0.01,0.16,0.14,0.28,0.3,0.28
	c0.01,0,0.01,0,0.02,0c0.22-0.02,0.43-0.06,0.64-0.11v11.46c-0.79,0.67-1.45,0.25-1.67,0.06V15.16c0-0.13-0.09-0.24-0.21-0.28
	c0,0,0,0,0,0c-1.23-0.42-2.06-1.58-2.06-2.87L6.59,5.5h1.43v6.27c0,0.17,0.14,0.3,0.3,0.3s0.3-0.14,0.3-0.3V5.5h1.36v6.31
	c0,0.17,0.14,0.3,0.3,0.3c0.17,0,0.3-0.14,0.3-0.3V5.5H12L12.34,12C12.34,13.25,11.56,14.39,10.39,14.84L10.39,14.84z M22.6,5.05
	c-2.07,0-3.75,2.38-3.75,5.3c0,2.15,0.92,4.08,2.31,4.89v11.95c0,0.08,0.03,0.16,0.09,0.21l-0.01,0.01
	c0.02,0.02,0.52,0.55,1.27,0.58c0.02,0,0.04,0,0.06,0c0.47,0,0.93-0.2,1.35-0.6l-0.01-0.01c0.08-0.05,0.13-0.14,0.13-0.24v-11.9
	c1.37-0.8,2.31-2.7,2.31-4.9C26.35,7.42,24.67,5.05,22.6,5.05z M22.91,15.02c-0.17,0.02-0.28,0.18-0.25,0.34
	c0.02,0.15,0.15,0.26,0.3,0.26c0.01,0,0.03,0,0.04,0c0.15-0.02,0.3-0.06,0.44-0.11v11.48c-0.79,0.69-1.45,0.26-1.67,0.07V15.16
	c0-0.02-0.01-0.03-0.01-0.05c0.02-0.13-0.04-0.26-0.16-0.32c-1.28-0.65-2.14-2.44-2.14-4.45c0-2.59,1.41-4.69,3.15-4.69
	s3.15,2.11,3.15,4.69C25.75,12.73,24.5,14.78,22.91,15.02z M16.54,5.29c-0.02-0.12-0.12-0.22-0.24-0.24c-0.52-0.09-0.93,0-1.23,0.28
	c-0.49,0.45-0.44,1.21-0.44,1.22v20.64c0,0.08,0.03,0.15,0.08,0.2l-0.01,0.01c0.26,0.27,0.75,0.58,1.35,0.58
	c0.43,0,0.91-0.16,1.39-0.6l0,0c0.07-0.06,0.12-0.14,0.12-0.23v-11.8c0.21-0.09,0.38-0.22,0.51-0.38c0.35-0.47,0.21-1.05,0.2-1.05
	L16.54,5.29L16.54,5.29z M17.57,14.59c-0.18,0.24-0.56,0.29-0.85,0.3c-0.17,0-0.3,0.14-0.3,0.31c0,0.17,0.13,0.3,0.31,0.3
	c0.07,0,0.14-0.01,0.2-0.02v11.5c-0.81,0.67-1.48,0.26-1.72,0.07l0-20.52c-0.01-0.13,0.02-0.54,0.25-0.75
	c0.12-0.11,0.29-0.16,0.52-0.15l1.69,8.42C17.67,14.04,17.75,14.36,17.57,14.59L17.57,14.59z M20.22,8.23
	c-0.03,0.06-0.77,1.55-0.17,3.81l0.3-0.08c-0.57-2.13,0.13-3.57,0.14-3.59C20.5,8.36,20.22,8.23,20.22,8.23z"/>
</svg>
