<?xml version="1.0" encoding="utf-8"?>
<!-- Generator: Adobe Illustrator 21.1.0, SVG Export Plug-In . SVG Version: 6.00 Build 0)  -->
<!DOCTYPE svg PUBLIC "-//W3C//DTD SVG 1.1//EN" "http://www.w3.org/Graphics/SVG/1.1/DTD/svg11.dtd">
<svg version="1.1" id="Layer_1" xmlns="http://www.w3.org/2000/svg" xmlns:xlink="http://www.w3.org/1999/xlink" x="0px" y="0px"
	 viewBox="0 0 32 32" style="enable-background:new 0 0 32 32;" xml:space="preserve">
<path d="M4.91,8.74v14.51h22.17V8.74C27.09,8.74,4.91,8.74,4.91,8.74z M26.08,9.2c-2.37,1.79-5.55,4.1-7.77,5.53
	c-0.14,0.09-0.27,0.17-0.4,0.25c-0.52,0.33-0.91,0.55-1.19,0.7c-0.42,0.19-0.63,0.24-0.75,0.24c-0.09,0-0.29-0.04-0.74-0.25
	c-0.27-0.14-0.63-0.35-1.11-0.65l-0.05-0.03c-0.12-0.07-0.24-0.15-0.36-0.23c-2.22-1.42-5.45-3.76-7.87-5.57L26.08,9.2L26.08,9.2z
	 M5.37,9.24c2.43,1.82,5.8,4.26,8.11,5.75c-2.37,1.98-5.8,5.22-8.11,7.48C5.37,22.47,5.37,9.24,5.37,9.24z M26.09,22.71H5.84
	c-0.08,0-0.16-0.01-0.23-0.03c2.3-2.26,5.72-5.49,8.08-7.46c0.64,0.36,1.1,0.6,1.43,0.75c0.53,0.28,0.74,0.32,0.85,0.32
	c0.12,0,0.34-0.05,0.9-0.34c0.39-0.17,0.87-0.43,1.47-0.77c2.36,1.97,5.81,5.19,8.12,7.44C26.35,22.68,26.22,22.71,26.09,22.71
	L26.09,22.71z M26.63,22.36c-2.31-2.24-5.73-5.44-8.09-7.41c2.32-1.5,5.67-3.94,8.05-5.75h0.04L26.63,22.36L26.63,22.36z"/>
</svg>
