<?xml version="1.0" encoding="utf-8"?>
<!-- Generator: Adobe Illustrator 21.1.0, SVG Export Plug-In . SVG Version: 6.00 Build 0)  -->
<!DOCTYPE svg PUBLIC "-//W3C//DTD SVG 1.1//EN" "http://www.w3.org/Graphics/SVG/1.1/DTD/svg11.dtd">
<svg version="1.1" id="Layer_1" xmlns="http://www.w3.org/2000/svg" xmlns:xlink="http://www.w3.org/1999/xlink" x="0px" y="0px"
	 viewBox="0 0 32 32" style="enable-background:new 0 0 32 32;" xml:space="preserve">
<path d="M28.13,10.22C28,9.97,27.87,9.73,27.77,9.5c-0.05-0.1-0.14-0.17-0.26-0.18c-0.1-0.01-0.22,0.04-0.28,0.14
	c-0.31,0.47-0.74,0.89-1.24,1.38c-1.14,1.11-2.56,2.5-3.14,5.26c-0.76,3.62,0.32,7.45,0.52,8.08c-0.25,1.01-1.41,2.25-1.42,2.26
	c-0.12,0.12-0.11,0.32,0.01,0.43c0.06,0.06,0.13,0.08,0.21,0.08c0.08,0,0.16-0.03,0.22-0.1c0.05-0.06,1.24-1.33,1.56-2.48
	c0.8-0.42,4.98-2.77,5.42-7.12C29.78,13.33,28.83,11.54,28.13,10.22L28.13,10.22z M28.76,17.2c-0.38,3.69-3.81,5.91-4.89,6.52
	c-0.29-1.08-1.07-4.42-0.42-7.5c0.54-2.58,1.83-3.84,2.97-4.95c0.37-0.36,0.72-0.7,1.01-1.06c0.05,0.1,0.1,0.2,0.16,0.3
	C28.29,11.82,29.15,13.45,28.76,17.2L28.76,17.2z M27.45,10.93c-0.09,0-0.16,0.06-0.16,0.15c-0.07,1.2-0.3,2.55-0.61,3.9
	c-0.28-0.48-0.75-1.47-0.62-2.4c0.01-0.08-0.05-0.16-0.13-0.17c-0.08-0.01-0.16,0.05-0.17,0.13c-0.17,1.27,0.64,2.57,0.83,2.87
	c-0.36,1.49-0.81,2.94-1.22,4.16c-0.35-0.44-1.31-1.72-1.37-2.68c-0.01-0.08-0.08-0.15-0.16-0.14c-0.08,0.01-0.15,0.08-0.14,0.16
	c0.08,1.24,1.45,2.88,1.56,3c-0.56,1.65-1.02,2.8-1.03,2.82c-0.03,0.08,0.01,0.17,0.08,0.2c0.02,0.01,0.04,0.01,0.06,0.01
	c0.06,0,0.12-0.04,0.14-0.1c0.01-0.04,0.75-1.86,1.5-4.26c0.33-0.17,2.1-1.11,2.56-2.06c0.04-0.08,0-0.17-0.07-0.21
	c-0.08-0.04-0.17,0-0.2,0.07c-0.34,0.7-1.56,1.45-2.15,1.77c0.27-0.87,0.53-1.81,0.76-2.76c0-0.01,0.01-0.02,0.01-0.03
	c0.36-1.48,0.63-2.98,0.7-4.3C27.6,11.01,27.53,10.93,27.45,10.93L27.45,10.93z M18.58,7.78c0.82-0.06,1.95,0.04,2.95,0.13
	c1.28,0.11,1.96,0.16,2.27,0.03c0.5-0.22,0.94-0.79,1.04-1.35c0.06-0.37-0.03-0.69-0.25-0.91c-1.43-1.35-4.04-2.39-6.39-1.51
	c-0.08,0.01-0.27,0.03-0.53,0.07V3.59c0-0.67-1.13-0.91-1.89-0.91c-0.76,0-1.89,0.24-1.89,0.91c0,0.55,0,1.11,0,1.68
	c-2.12,0.9-4.22,2.52-4.22,5.36c0,0.61,0.14,1.15,0.38,1.63l-4.64,1.19c-0.01,0-0.01,0.01-0.02,0.01c-1.66,0.52-2.87,2.07-2.87,3.9
	c0,2.25,1.83,4.09,4.09,4.09c1.86,0,3.43-1.25,3.92-2.95c0,0,0,0,0.01-0.01l1.18-4.51c0.68,0.42,1.46,0.71,2.23,0.89
	c0.01,1.18,0.03,2.35,0.04,3.51c-1.26,0.49-2.32,1.27-2.32,2.83c0,1.66,1.31,2.26,2.41,2.55c0.02,0.9,0.03,1.7,0.05,2.37
	c-0.25-0.05-0.47-0.12-0.64-0.21c-1.2-0.61-1.47-0.6-1.64-0.34c-0.19,0.31,0.1,0.6,0.88,1.18c0.45,0.34,0.94,0.58,1.44,0.74
	c0.04,1.13,0.05,1.17,0.07,1.23c0.14,0.38,0.98,0.59,1.53,0.59c0.55,0,1.39-0.2,1.53-0.58c0.02-0.07,0.04-0.11,0.08-1.26
	c0.19-0.06,0.36-0.13,0.53-0.22c0.99-0.49,1.56-1.3,1.56-2.22c0-1.08-0.77-2.01-1.98-2.42c0.02-0.92,0.03-1.93,0.05-3.01
	c1.73-0.49,3.45-1.33,3.45-3.46c0-1.73-1.66-2.98-3.37-3.49c0.01-1.62,0.02-3.22,0.03-4.76C18.03,7.84,18.35,7.8,18.58,7.78
	L18.58,7.78z M14.5,3.61c0.06-0.11,0.56-0.32,1.28-0.32c0.72,0,1.22,0.21,1.27,0.3v0.75c-0.5,0.09-1.12,0.23-1.79,0.44L15.25,3.9
	c0-0.08-0.07-0.15-0.15-0.15c0,0,0,0,0,0c-0.09,0-0.15,0.07-0.15,0.16l0.01,0.97c-0.15,0.05-0.3,0.1-0.45,0.16
	C14.5,4.54,14.5,4.07,14.5,3.61L14.5,3.61z M10.09,17.36c0,0.69-0.2,1.33-0.56,1.88c-0.42-0.54-0.77-1.68-0.79-2.16
	c0.36-0.36,0.64-1.07,0.8-1.58C9.88,16.03,10.09,16.67,10.09,17.36L10.09,17.36z M8.26,17.01c-0.49,0-1.13-1.73-1.16-2.43
	c0,0,0,0,0,0c0.01-0.01,0.01-0.01,0.02-0.02c0.03-0.03,0.07-0.07,0.1-0.11c0.01-0.01,0.02-0.03,0.03-0.05
	c0.03-0.04,0.05-0.07,0.08-0.11c0.01-0.02,0.03-0.04,0.04-0.06c0.03-0.04,0.05-0.08,0.07-0.12c0.01-0.02,0.03-0.05,0.04-0.07
	c0-0.01,0.01-0.01,0.01-0.02c0.73,0.19,1.36,0.61,1.82,1.17C9.08,16.07,8.61,17.01,8.26,17.01L8.26,17.01z M6.27,14.28
	c-0.02-0.02-0.03-0.04-0.05-0.07c-0.01-0.02-0.02-0.03-0.03-0.05c-0.02-0.03-0.04-0.05-0.05-0.08c-0.01-0.02-0.02-0.03-0.03-0.05
	c-0.02-0.03-0.04-0.06-0.06-0.1c0.19-0.03,0.38-0.05,0.57-0.05c0.19,0,0.38,0.02,0.56,0.05c-0.02,0.03-0.04,0.07-0.06,0.1
	c-0.01,0.02-0.02,0.03-0.03,0.05c-0.02,0.03-0.04,0.06-0.05,0.08c-0.01,0.02-0.02,0.03-0.03,0.05c-0.02,0.02-0.03,0.05-0.05,0.07
	c-0.01,0.01-0.02,0.02-0.03,0.04c-0.02,0.02-0.03,0.04-0.05,0.05c-0.01,0.01-0.02,0.02-0.03,0.03c-0.02,0.02-0.03,0.03-0.05,0.04
	c-0.01,0.01-0.02,0.02-0.03,0.02c-0.02,0.01-0.03,0.02-0.05,0.03c-0.01,0-0.02,0.01-0.02,0.01c-0.02,0.01-0.05,0.01-0.07,0.01
	c-0.02,0-0.05-0.01-0.07-0.01c-0.01,0-0.02-0.01-0.02-0.01c-0.02-0.01-0.03-0.02-0.05-0.03c-0.01-0.01-0.02-0.01-0.03-0.02
	c-0.02-0.01-0.03-0.02-0.05-0.04c-0.01-0.01-0.02-0.02-0.03-0.03c-0.02-0.02-0.03-0.03-0.05-0.05C6.3,14.31,6.29,14.29,6.27,14.28
	L6.27,14.28z M6.47,14.79c0.01,0,0.02,0.01,0.03,0.01c0.07,0.02,0.15,0.02,0.22,0c0.01,0,0.02-0.01,0.03-0.01
	c0.02-0.01,0.03-0.01,0.05-0.02c0.09,0.64,0.47,1.79,0.97,2.29c-0.03,0.69-0.67,2.44-1.16,2.44s-1.14-1.74-1.16-2.44
	c0.5-0.5,0.88-1.65,0.97-2.29C6.43,14.78,6.45,14.79,6.47,14.79L6.47,14.79z M5.73,14c0,0.01,0.01,0.01,0.01,0.01
	c0.01,0.03,0.03,0.06,0.05,0.09c0.02,0.04,0.05,0.08,0.07,0.11c0.01,0.02,0.03,0.05,0.04,0.07c0.03,0.04,0.05,0.07,0.07,0.1
	c0.01,0.02,0.03,0.04,0.04,0.05c0.03,0.04,0.06,0.07,0.09,0.1c0.01,0.01,0.02,0.02,0.03,0.03c0,0,0,0,0,0
	c-0.03,0.7-0.67,2.43-1.16,2.43c-0.35,0-0.82-0.94-1.05-1.83C4.37,14.61,5.01,14.19,5.73,14L5.73,14z M4.48,17.08
	c-0.02,0.48-0.37,1.62-0.79,2.15c-0.35-0.54-0.55-1.18-0.55-1.87c0-0.68,0.2-1.32,0.54-1.86C3.84,16.01,4.12,16.71,4.48,17.08
	L4.48,17.08z M3.88,19.49c0.44-0.52,0.81-1.59,0.89-2.21c0.13,0.05,0.26,0.05,0.39,0c0.09,0.64,0.47,1.8,0.97,2.3
	c-0.01,0.24-0.11,0.69-0.28,1.17C5.05,20.56,4.36,20.11,3.88,19.49L3.88,19.49z M6.61,20.83c-0.16,0-0.31-0.01-0.46-0.03
	c0.13-0.36,0.23-0.74,0.27-1.02c0.13,0.05,0.26,0.05,0.39,0c0.04,0.28,0.14,0.66,0.27,1.02C6.92,20.82,6.77,20.83,6.61,20.83z
	 M7.1,19.57c0.5-0.5,0.88-1.65,0.97-2.3c0.13,0.05,0.27,0.05,0.39,0c0.09,0.62,0.45,1.69,0.9,2.22c-0.49,0.62-1.18,1.07-1.97,1.25
	C7.2,20.26,7.11,19.82,7.1,19.57z M10.66,16.82c-0.24-1.81-1.68-3.25-3.49-3.5l3.05-0.78c0.31,0.5,0.73,0.92,1.23,1.26L10.66,16.82
	L10.66,16.82z M11.88,13.35l0.22-0.84c0.02-0.08-0.03-0.17-0.11-0.19c-0.08-0.02-0.17,0.03-0.19,0.11l-0.19,0.73
	c-0.3-0.23-0.56-0.49-0.77-0.78l0.75-0.19c0.08-0.02,0.13-0.1,0.11-0.19c-0.02-0.08-0.1-0.13-0.19-0.11l-0.84,0.22
	c-0.24-0.43-0.39-0.92-0.39-1.47c0-5.16,7.93-5.85,8-5.86c0.03,0,0.06-0.01,0.09-0.02c2.02-0.78,4.44,0.1,5.79,1.36
	c0.1,0.09,0.08,0.26,0.07,0.36c-0.02,0.13-0.08,0.26-0.15,0.39c-0.67-0.03-4.18-0.23-5.73-0.72c-0.08-0.03-0.17,0.02-0.19,0.1
	s0.02,0.17,0.1,0.19c1.48,0.46,4.58,0.67,5.59,0.72c-0.09,0.09-0.2,0.17-0.3,0.21c-0.19,0.08-1.18-0.01-1.97-0.07
	c-1.02-0.09-2.18-0.19-3.05-0.13c-0.02,0-0.5,0.05-1.18,0.18c0,0-0.01,0-0.01,0c0,0,0,0,0,0c-0.04,0-0.09,0.01-0.12,0.03
	c-0.9,0.18-2.11,0.48-3.11,0.98c-0.03,0.01-0.05,0.02-0.08,0.04c-0.97,0.5-1.71,1.2-1.71,2.14c0,1.08,0.86,1.57,1.6,1.84
	c0.01,0.62,0.01,1.24,0.02,1.86C13.22,14.05,12.49,13.76,11.88,13.35L11.88,13.35z M13.92,11.71c-0.68-0.29-0.98-0.66-0.98-1.18
	c0-0.53,0.39-0.98,0.96-1.36C13.91,10,13.92,10.85,13.92,11.71z M14.52,8.83c0.15-0.07,0.31-0.14,0.48-0.21l0.1,9.39
	c-0.16,0.05-0.33,0.09-0.49,0.15C14.56,15.06,14.53,11.85,14.52,8.83L14.52,8.83z M14.02,20.63c0.01,0.35,0.01,0.7,0.02,1.03
	c-0.28-0.19-0.33-0.39-0.33-0.56C13.71,20.92,13.83,20.76,14.02,20.63z M14.63,20.35c0.15-0.05,0.31-0.1,0.49-0.15l0.06,6.02
	c-0.15,0-0.3,0-0.44-0.01c0,0,0-0.01,0-0.01C14.71,24.75,14.67,22.73,14.63,20.35z M16.73,28.49c-0.14,0.08-0.52,0.22-0.96,0.22
	c-0.43,0-0.82-0.14-0.95-0.22c-0.01-0.13-0.02-0.41-0.03-0.84c0.14,0.03,0.28,0.05,0.41,0.06l0.01,0.42c0,0.08,0.07,0.15,0.15,0.15
	c0,0,0,0,0,0c0.09,0,0.15-0.07,0.15-0.16l0-0.39c0.08,0,0.16,0.01,0.24,0.01c0.36,0,0.7-0.04,1.03-0.1
	C16.75,28.14,16.74,28.38,16.73,28.49L16.73,28.49z M18.86,25.04c0,0.93-0.76,1.45-1.22,1.67c-1.02,0.51-2.6,0.61-3.93-0.06
	c1.11,0.31,2.85,0.24,3.83-0.36c0.5-0.31,0.77-0.73,0.77-1.23c0-0.49-0.33-0.95-0.84-1.19c0-0.19,0.01-0.39,0.01-0.6
	C18.2,23.58,18.86,24.16,18.86,25.04L18.86,25.04z M17.46,24.59c0.15,0.13,0.24,0.3,0.24,0.47c0,0.21-0.09,0.39-0.26,0.55
	C17.44,25.3,17.45,24.96,17.46,24.59z M16.81,25.97c-0.39,0.14-0.85,0.22-1.33,0.25l-0.06-6.09c0.23-0.06,0.48-0.11,0.73-0.17
	c0.25-0.06,0.51-0.11,0.77-0.18C16.89,22.26,16.85,24.45,16.81,25.97L16.81,25.97z M20.38,16.15c0,2.23-2.32,2.75-4.36,3.21
	c-1.57,0.35-2.92,0.66-2.92,1.75c0,0.75,0.59,1.1,0.95,1.27c0,0.25,0.01,0.5,0.01,0.74c-1.24-0.37-1.78-0.96-1.78-1.91
	c0-1.83,1.88-2.32,3.71-2.79c1.51-0.39,2.94-0.76,2.94-1.98c0-0.66-0.49-1.2-1.33-1.49c0.01-0.55,0.01-1.1,0.02-1.65
	C19.04,13.78,20.38,14.8,20.38,16.15L20.38,16.15z M17.59,15.6c0.46,0.2,0.72,0.5,0.72,0.83c0,0.37-0.29,0.63-0.74,0.84
	C17.58,16.72,17.59,16.16,17.59,15.6z M16.96,17.51c-0.34,0.11-0.72,0.21-1.12,0.31c-0.14,0.04-0.29,0.08-0.44,0.11l-0.1-9.43
	c0.58-0.21,1.19-0.37,1.74-0.49C17.02,11.04,17,14.31,16.96,17.51z M21.48,5.88c0.3,0,0.54-0.24,0.54-0.54S21.77,4.8,21.48,4.8
	s-0.54,0.24-0.54,0.54S21.18,5.88,21.48,5.88z M21.48,5.11c0.13,0,0.23,0.1,0.23,0.23s-0.1,0.23-0.23,0.23s-0.23-0.1-0.23-0.23
	S21.35,5.11,21.48,5.11z"/>
</svg>
