<?xml version="1.0" encoding="utf-8"?>
<!-- Generator: Adobe Illustrator 21.1.0, SVG Export Plug-In . SVG Version: 6.00 Build 0)  -->
<!DOCTYPE svg PUBLIC "-//W3C//DTD SVG 1.1//EN" "http://www.w3.org/Graphics/SVG/1.1/DTD/svg11.dtd">
<svg version="1.1" id="Layer_1" xmlns="http://www.w3.org/2000/svg" xmlns:xlink="http://www.w3.org/1999/xlink" x="0px" y="0px"
	 viewBox="0 0 32 32" style="enable-background:new 0 0 32 32;" xml:space="preserve">
<path d="M15.07,3.52C15.07,3.52,15.07,3.53,15.07,3.52c0,0.09,0.44,0.16,0.98,0.16c0.54,0,0.98-0.07,0.98-0.16c0,0,0,0,0,0s0,0,0,0
	c0-0.09-0.44-0.16-0.98-0.16C15.51,3.36,15.07,3.43,15.07,3.52C15.07,3.52,15.07,3.52,15.07,3.52z M11.88,15.9l0,0.11
	C11.89,16.04,11.89,15.61,11.88,15.9z M17.96,9.64l-0.34-4.01c0-0.05,0-0.11-0.01-0.16c0.17-0.1,0.27-0.24,0.27-0.43V3.31
	c0-0.58-1.02-0.7-1.88-0.7s-1.88,0.12-1.88,0.7v1.73c0,0.18,0.1,0.32,0.27,0.43c-0.01,0.05-0.01,0.11-0.01,0.16l-0.34,4.01
	c-2.22,1.35-2.68,3.67-2.71,6.27c-0.01,0.04,0.16,12.07,0.16,12.07c0,0.25,0.21,0.47,0.56,0.67l0.38,0.18
	c0.61,0.25,1.47,0.42,2.39,0.51c0.44,0.04,0.72,0.07,1.17,0.07c0.45,0,0.74-0.02,1.18-0.07c0.22-0.02,0.43-0.05,0.64-0.08
	c0.41-0.06,0.8-0.14,1.15-0.24c0.21-0.06,0.41-0.12,0.59-0.2l0.38-0.18c0.35-0.19,0.56-0.42,0.56-0.67l0.02-2.8
	c0.01-0.33,0.17-8.1,0.17-8.13v-1.03C20.67,13.07,19.95,10.77,17.96,9.64L17.96,9.64z M14.67,3.36c0.1-0.07,0.47-0.2,1.33-0.2
	c0.86,0,1.24,0.14,1.33,0.2v1.63c-0.1,0.07-0.47,0.2-1.33,0.2s-1.24-0.14-1.33-0.2C14.67,4.99,14.67,3.36,14.67,3.36z M19.9,27.87
	c-0.03,0.12-0.29,0.31-0.86,0.49c-0.73,0.23-1.68,0.43-3.06,0.43c-1.38,0-2.33-0.2-3.06-0.43c-0.21-0.07-0.39-0.14-0.54-0.2
	c-0.24-0.11-0.29-0.21-0.31-0.29l-0.19-11.86c0-0.01,0-0.04,0-0.11c-0.02-2.31,0.5-4.65,2.52-5.81c0.11-0.06,0.19-0.17,0.19-0.29
	l0.34-4.15c0.33,0.07,0.71,0.09,1.07,0.09c0.36,0,0.74-0.02,1.07-0.09l0.34,4.18c0,0.12,0.08,0.21,0.19,0.26
	c1.75,0.87,2.53,2.91,2.53,5.91L19.9,27.87L19.9,27.87z M18.29,18.26c-0.02-0.01-0.05,0-0.07,0.01l-1.17,0.7
	c-0.04,0.02-0.05,0.08-0.03,0.12l0.62,1.1h-0.67l0-0.26c0-0.04,0-0.08-0.05-0.12c-0.05-0.03-0.1-0.03-0.16,0.01
	c-0.01,0-0.01,0.01-0.02,0.02l-0.68,0.98c-0.02,0.03-0.02,0.07,0,0.1l0.68,0.98c0,0.01,0.01,0.01,0.02,0.02
	c0.03,0.02,0.06,0.03,0.09,0.03c0.02,0,0.05-0.01,0.07-0.02c0.05-0.04,0.05-0.08,0.05-0.12l0-0.26h0.49c0.51,0,0.68-0.29,0.69-0.31
	l0.61-1.18c0,0,0,0,0,0s0,0,0,0c0.24-0.53,0.04-0.91,0.03-0.93l-0.45-0.82C18.33,18.28,18.31,18.27,18.29,18.26L18.29,18.26z
	 M17.99,21.15c0,0-0.13,0.22-0.54,0.22h-0.58c-0.02,0-0.05,0.01-0.06,0.03c-0.02,0.02-0.03,0.04-0.02,0.06l0,0.21l-0.56-0.81
	l0.56-0.81l0,0.21c0,0.02,0.01,0.05,0.02,0.06c0.02,0.02,0.04,0.03,0.06,0.03h1.19c0.05,0,0.21,0,0.37-0.06L17.99,21.15L17.99,21.15
	z M18.6,19.98c-0.09,0.17-0.39,0.21-0.54,0.21h-0.24l-0.62-1.11l1.03-0.61l0.4,0.74C18.64,19.22,18.8,19.53,18.6,19.98z M15.6,20.02
	l-1.28,0l0.35-0.6l0.23,0.14c0.03,0.01,0.05,0.03,0.08,0.03c0.02,0,0.04-0.01,0.05-0.01c0.05-0.02,0.07-0.08,0.07-0.14
	c0-0.01,0-0.02-0.01-0.03l-0.5-1.08c-0.02-0.03-0.05-0.05-0.09-0.05l-1.19,0.09c-0.01,0-0.02,0-0.03,0.01
	c-0.06,0.03-0.09,0.07-0.09,0.13c0,0.07,0.04,0.08,0.08,0.11l0.22,0.13l-0.24,0.42c-0.07,0.11-0.11,0.23-0.13,0.34v0v0
	c0,0,0,0.01,0,0.01v0c-0.03,0.24,0.12,0.51,0.13,0.52l0.63,1c0.34,0.48,0.77,0.5,0.78,0.5l0.94,0.03c0.02,0,0.04-0.01,0.06-0.02
	c0.02-0.02,0.03-0.04,0.03-0.06v-1.37C15.69,20.06,15.65,20.02,15.6,20.02L15.6,20.02z M13.3,19.52c0.02-0.09,0.06-0.19,0.11-0.28
	l0.29-0.5c0.01-0.02,0.01-0.04,0.01-0.07s-0.02-0.04-0.04-0.05l-0.18-0.1l0.98-0.07l0.41,0.89l-0.19-0.11
	c-0.02-0.01-0.04-0.02-0.07-0.01s-0.04,0.02-0.05,0.04l-0.45,0.77h0c-0.13,0-0.44-0.02-0.65-0.16C13.36,19.78,13.3,19.67,13.3,19.52
	L13.3,19.52z M15.52,21.39l-0.84-0.03c-0.02,0-0.36-0.02-0.65-0.42l-0.55-0.88c0.02,0.01,0.04,0.01,0.05,0.02
	c0.02,0.01,0.05,0.02,0.07,0.03c0.04,0.01,0.08,0.03,0.12,0.03c0.02,0.01,0.05,0.01,0.07,0.01c0.05,0.01,0.09,0.01,0.13,0.02
	c0.02,0,0.03,0,0.05,0.01c0.06,0,0.11,0.01,0.15,0.01c0.02,0,0.04,0,0.05,0l0.01,0l1.32,0L15.52,21.39L15.52,21.39z M16.39,17.89
	l-0.22,0.12c-0.04,0.02-0.07,0.04-0.08,0.1c-0.01,0.06,0.03,0.1,0.08,0.13c0.01,0,0.02,0.01,0.03,0.01l1.18,0.15c0,0,0.01,0,0.01,0
	c0.03,0,0.06-0.02,0.08-0.05l0.55-1.05c0-0.01,0.01-0.02,0.01-0.03c0.01-0.06-0.01-0.12-0.06-0.15c-0.01-0.01-0.03-0.02-0.06-0.02
	c-0.03,0-0.05,0.01-0.07,0.02l-0.25,0.12l-0.21-0.43c-0.24-0.46-0.57-0.47-0.59-0.47l-1.33,0c-0.59,0.03-0.83,0.39-0.84,0.4
	l-0.52,0.77c-0.01,0.02-0.02,0.04-0.01,0.07s0.02,0.04,0.04,0.06l1.16,0.72c0.01,0.01,0.03,0.01,0.05,0.01
	c0.03,0,0.06-0.01,0.07-0.04l0.69-1.05C16.09,17.3,16.39,17.89,16.39,17.89z M15.3,18.19l-1.01-0.63l0.47-0.7
	c0.01-0.01,0.2-0.3,0.7-0.33c0.2,0,0.38,0.27,0.43,0.38L16,17.13L15.3,18.19L15.3,18.19z M15.82,16.54l0.96,0
	c0.01,0,0.25,0.02,0.44,0.38l0.25,0.51c0.01,0.02,0.03,0.04,0.05,0.04c0.02,0.01,0.05,0.01,0.07,0l0.21-0.1l-0.46,0.87l-0.98-0.12
	l0.18-0.1c0.04-0.02,0.06-0.07,0.04-0.11l-0.53-1.05C16.04,16.83,15.96,16.67,15.82,16.54L15.82,16.54z"/>
</svg>
