<?xml version="1.0" encoding="utf-8"?>
<!-- Generator: Adobe Illustrator 21.1.0, SVG Export Plug-In . SVG Version: 6.00 Build 0)  -->
<!DOCTYPE svg PUBLIC "-//W3C//DTD SVG 1.1//EN" "http://www.w3.org/Graphics/SVG/1.1/DTD/svg11.dtd">
<svg version="1.1" id="Layer_1" xmlns="http://www.w3.org/2000/svg" xmlns:xlink="http://www.w3.org/1999/xlink" x="0px" y="0px"
	 viewBox="0 0 31.68 31.68" style="enable-background:new 0 0 31.68 31.68;" xml:space="preserve">
<g>
	<path d="M28.78,10.01v11.21v0.44c0,0.18-0.15,0.33-0.33,0.33H3.23c-0.18,0-0.33-0.15-0.33-0.33v-0.44V10.01
		c0-0.18,0.15-0.33,0.33-0.33h25.22C28.63,9.68,28.78,9.83,28.78,10.01z M28.12,10.35H3.56v10.54h24.55
		C28.12,20.89,28.12,10.35,28.12,10.35z"/>
	<path d="M6.15,20.05c0.09,0,0.17-0.07,0.17-0.17v-8.54c0-0.09-0.07-0.17-0.17-0.17c-0.09,0-0.17,0.08-0.17,0.17v8.54
		C5.98,19.98,6.06,20.05,6.15,20.05z"/>
	<path d="M9.37,20.05c0.09,0,0.17-0.07,0.17-0.17v-8.54c0-0.09-0.07-0.17-0.17-0.17S9.2,11.24,9.2,11.34v8.54
		C9.21,19.98,9.28,20.05,9.37,20.05z"/>
	<path d="M12.61,20.05c0.09,0,0.17-0.07,0.17-0.17v-8.54c0-0.09-0.07-0.17-0.17-0.17c-0.09,0-0.17,0.07-0.17,0.17v8.54
		C12.44,19.98,12.51,20.05,12.61,20.05z"/>
	<path d="M15.84,20.11c0.09,0,0.17-0.07,0.17-0.17V11.4c0-0.09-0.07-0.17-0.17-0.17s-0.17,0.07-0.17,0.17v8.54
		C15.67,20.03,15.75,20.11,15.84,20.11z"/>
	<path d="M19.07,20.05c0.09,0,0.17-0.07,0.17-0.17v-8.54c0-0.09-0.07-0.17-0.17-0.17c-0.09,0-0.17,0.07-0.17,0.17v8.54
		C18.91,19.98,18.98,20.05,19.07,20.05z"/>
	<path d="M22.31,20.05c0.09,0,0.17-0.07,0.17-0.17v-8.54c0-0.09-0.07-0.17-0.17-0.17c-0.09,0-0.17,0.07-0.17,0.17v8.54
		C22.14,19.98,22.21,20.05,22.31,20.05z"/>
	<path d="M25.54,20.05c0.09,0,0.17-0.07,0.17-0.17v-8.54c0-0.09-0.07-0.17-0.17-0.17c-0.09,0-0.17,0.07-0.17,0.17v8.54
		C25.37,19.98,25.45,20.05,25.54,20.05z"/>
</g>
</svg>
