<?xml version="1.0" encoding="utf-8"?>
<!-- Generator: Adobe Illustrator 21.1.0, SVG Export Plug-In . SVG Version: 6.00 Build 0)  -->
<!DOCTYPE svg PUBLIC "-//W3C//DTD SVG 1.1//EN" "http://www.w3.org/Graphics/SVG/1.1/DTD/svg11.dtd">
<svg version="1.1" id="Layer_1" xmlns="http://www.w3.org/2000/svg" xmlns:xlink="http://www.w3.org/1999/xlink" x="0px" y="0px"
	 viewBox="0 0 31.68 31.68" style="enable-background:new 0 0 31.68 31.68;" xml:space="preserve">
<g>
	<path d="M21.82,13.8c0-0.04,0.01-0.22,0.1-0.37c0.12-0.19,0.29-0.28,0.57-0.28c0.29,0,0.69-0.01,1.14-0.01l0,0
		c0.97,0,2.11,0.01,2.63,0.01l0.28-0.01c0.88,0,1.72,0.65,1.92,1.48l0.31,1.26c0.18,0.74,0.33,1.96,0.33,2.72v1.75
		c0,0.01-0.02,0.64-0.21,0.8c-0.09,0.07-0.09,0.08-0.84,0.08c-0.81,0-1.72-0.02-1.72-0.02h-0.34h-0.53c0,0.03,0.01,0.07,0.01,0.1
		c0,0.92-0.75,1.67-1.67,1.67s-1.67-0.75-1.67-1.67c0-0.03,0.01-0.07,0.01-0.1h-0.7h-8.77h-0.56c0,0.04,0.01,0.08,0.01,0.12
		c0,0.92-0.75,1.67-1.67,1.67s-1.67-0.75-1.67-1.67c0-0.04,0.01-0.08,0.01-0.12H8.08c-0.52,0-1.66,0.01-2.63,0.01l0,0
		c-0.44,0-0.85,0-1.14-0.01c-0.28,0-0.46-0.09-0.57-0.28c-0.09-0.15-0.1-0.34-0.1-0.37l-0.01-1.73v-0.17v-0.09V18.2
		c0-0.04,0.01-0.22,0.1-0.37c0.12-0.19,0.29-0.28,0.57-0.28c0.29,0,0.69-0.01,1.14-0.01l0,0c0.97,0,2.11,0.01,2.63,0.01h0.31
		c0.52,0,11.14,0.01,12.11,0.01l0,0c0.44,0,0.84,0,1.13,0c0.1,0,0.12-0.02,0.13-0.03c0.01-0.02,0.02-0.08,0.03-0.1v-1.3L21.82,13.8z
		 M28.34,15.98l-0.31-1.26c-0.15-0.63-0.82-1.14-1.49-1.14l-0.28,0.01c-0.75,0-2.84-0.02-3.76,0c-0.09,0-0.16,0.01-0.2,0.07
		c-0.02,0.04-0.03,0.11-0.04,0.14v1.73v1.89c0,0.02-0.01,0.19-0.09,0.33c-0.1,0.17-0.26,0.24-0.51,0.24c-0.29,0-0.69,0.01-1.14,0.01
		c-1.03,0-11.59-0.01-12.11-0.01H8.1c-0.75,0-2.84-0.02-3.76,0c-0.09,0-0.16,0.01-0.2,0.07C4.12,18.1,4.1,18.17,4.1,18.2v0.36
		l0.01,1.99c0,0.03,0.01,0.1,0.04,0.15c0.04,0.05,0.1,0.06,0.19,0.06c0.92,0.01,3,0,3.76,0h0.89l0.02-0.05
		c0.25-0.59,0.82-0.97,1.46-0.97s1.21,0.38,1.46,0.97l0.02,0.05h10.37l0.02-0.05c0.25-0.6,0.82-0.99,1.47-0.99
		c0.64,0,1.22,0.39,1.47,0.99l0.02,0.05h0.78c0.12,0,1.23,0.02,1.98,0.02c0.24,0,0.39,0,0.48,0h0.06l0.01-0.06
		c0.02-0.11,0.04-0.26,0.04-0.37V18.6C28.66,17.87,28.51,16.7,28.34,15.98z M11.41,20.68c-0.21-0.29-0.55-0.49-0.93-0.49
		s-0.73,0.19-0.93,0.49c0,0-0.21,0.26-0.21,0.65c0,0.04,0-0.04,0,0c0,0.63,0.51,1.14,1.14,1.14s1.14-0.51,1.14-1.14
		c0-0.04,0,0.04,0,0C11.62,20.98,11.41,20.68,11.41,20.68z M24.76,20.68c-0.2-0.31-0.55-0.51-0.95-0.51s-0.74,0.2-0.95,0.51
		c0,0-0.15,0.19-0.18,0.53c0,0.03-0.01,0.07-0.01,0.1c0,0.63,0.51,1.14,1.14,1.14s1.14-0.51,1.14-1.14c0-0.04,0,0.03,0,0
		C24.94,20.9,24.76,20.68,24.76,20.68z"/>
	<path d="M6.28,19.67c0.05,0.05,0.05,0.14,0,0.19c-0.03,0.03-0.06,0.04-0.09,0.04s-0.07-0.01-0.09-0.04L4.84,18.6
		c-0.05-0.05-0.05-0.14,0-0.19"/>
	<path d="M5.08,19.68c-0.03,0-0.07-0.01-0.09-0.04l-0.3-0.3c-0.05-0.05-0.05-0.14,0-0.19c0.05-0.05,0.14-0.05,0.19,0l0.3,0.3
		c0.05,0.05,0.05,0.14,0,0.19C5.15,19.67,5.11,19.68,5.08,19.68z"/>
	<path d="M8.54,20.41H3.99c-0.07,0-0.13-0.06-0.13-0.13s0.06-0.13,0.13-0.13h4.55c0.07,0,0.13,0.06,0.13,0.13
		C8.67,20.35,8.61,20.41,8.54,20.41z"/>
	<path d="M28.9,20.38h-3.23c-0.07,0-0.13-0.06-0.13-0.13s0.06-0.13,0.13-0.13h3.23c0.07,0,0.13,0.06,0.13,0.13
		C29.04,20.32,28.98,20.38,28.9,20.38z"/>
	<path d="M21.89,20.39H12.4c-0.07,0-0.13-0.06-0.13-0.13s0.06-0.13,0.13-0.13h9.49c0.07,0,0.13,0.06,0.13,0.13
		C22.02,20.33,21.96,20.39,21.89,20.39z"/>
	<path d="M27,17.98h-3.58c-0.21,0-0.38-0.17-0.38-0.39v-3.01c0-0.21,0.17-0.39,0.39-0.39h3.01c0.17,0,0.39,0.1,0.5,0.22
		c0.03,0.03,0.29,0.35,0.54,1.42c0.03,0.11,0.06,0.23,0.09,0.35l0.02,0.08c0.08,0.32,0.13,0.65,0.16,0.9
		c0.02,0.11,0.02,0.19,0.02,0.27c-0.01,0.13-0.01,0.24-0.07,0.31s-0.13,0.16-0.26,0.2C27.41,17.97,27.36,17.98,27,17.98z
		 M26.67,17.66H27c0.18,0,0.32-0.01,0.35-0.01c0.03-0.01,0.05-0.03,0.09-0.08c0-0.01,0-0.08,0-0.11c0-0.09,0-0.15-0.01-0.24
		c-0.03-0.24-0.08-0.56-0.15-0.87l-0.02-0.09c-0.03-0.12-0.05-0.23-0.08-0.35c-0.23-1-0.47-1.29-0.47-1.29
		c-0.05-0.06-0.18-0.12-0.26-0.12h-3.01c-0.04,0-0.07,0.03-0.07,0.07v3.01c0,0.04,0.03,0.07,0.06,0.07L26.67,17.66z"/>
	<g>
		<path d="M21.28,8.9v7.54v0.3c0,0.12-0.1,0.22-0.22,0.22H4.09c-0.12,0-0.22-0.1-0.22-0.22v-0.3V8.9c0-0.12,0.1-0.22,0.22-0.22
			h16.96C21.18,8.68,21.28,8.78,21.28,8.9z M20.83,9.13H4.32v7.09h16.51V9.13z"/>
		<path d="M6.06,15.65c0.06,0,0.11-0.05,0.11-0.11V9.8c0-0.06-0.05-0.11-0.11-0.11S5.94,9.74,5.94,9.8v5.74
			C5.94,15.6,5.99,15.65,6.06,15.65z"/>
		<path d="M8.22,15.65c0.06,0,0.11-0.05,0.11-0.11V9.8c0-0.06-0.05-0.11-0.11-0.11S8.11,9.74,8.11,9.8v5.74
			C8.11,15.6,8.16,15.65,8.22,15.65z"/>
		<path d="M10.4,15.65c0.06,0,0.11-0.05,0.11-0.11V9.8c0-0.06-0.05-0.11-0.11-0.11c-0.06,0-0.11,0.05-0.11,0.11v5.74
			C10.29,15.6,10.34,15.65,10.4,15.65z"/>
		<path d="M12.57,15.69c0.06,0,0.11-0.05,0.11-0.11V9.84c0-0.06-0.05-0.11-0.11-0.11s-0.11,0.05-0.11,0.11v5.74
			C12.46,15.64,12.51,15.69,12.57,15.69z"/>
		<path d="M14.75,15.65c0.06,0,0.11-0.05,0.11-0.11V9.8c0-0.06-0.05-0.11-0.11-0.11c-0.06,0-0.11,0.05-0.11,0.11v5.74
			C14.64,15.6,14.68,15.65,14.75,15.65z"/>
		<path d="M16.92,15.65c0.06,0,0.11-0.05,0.11-0.11V9.8c0-0.06-0.05-0.11-0.11-0.11c-0.06,0-0.11,0.05-0.11,0.11v5.74
			C16.81,15.6,16.86,15.65,16.92,15.65z"/>
		<path d="M19.1,15.65c0.06,0,0.11-0.05,0.11-0.11V9.8c0-0.06-0.05-0.11-0.11-0.11c-0.06,0-0.11,0.05-0.11,0.11v5.74
			C18.98,15.6,19.03,15.65,19.1,15.65z"/>
	</g>
</g>
</svg>
