<?xml version="1.0" encoding="utf-8"?>
<!-- Generator: Adobe Illustrator 21.1.0, SVG Export Plug-In . SVG Version: 6.00 Build 0)  -->
<!DOCTYPE svg PUBLIC "-//W3C//DTD SVG 1.1//EN" "http://www.w3.org/Graphics/SVG/1.1/DTD/svg11.dtd">
<svg version="1.1" id="Layer_1" xmlns="http://www.w3.org/2000/svg" xmlns:xlink="http://www.w3.org/1999/xlink" x="0px" y="0px"
	 viewBox="0 0 31.68 31.68" style="enable-background:new 0 0 31.68 31.68;" xml:space="preserve">
<g>
	<path d="M18.96,20.81h2.48c0.06,0,0.12-0.04,0.14-0.09l0.79-1.63c0.04-0.09,0-0.18-0.07-0.21c-0.07-0.04-0.18-0.01-0.22,0.07
		c-0.25,0.51-0.49,1.03-0.74,1.54h-2.38c-0.09,0-0.16,0.07-0.16,0.16C18.8,20.73,18.87,20.81,18.96,20.81z"/>
	<path d="M25.76,14.34c-0.06-0.09-0.16-0.14-0.27-0.14h-3.07v-2.59c0-0.08-0.04-0.17-0.1-0.22c-0.06-0.06-0.14-0.1-0.23-0.1h-8.18
		c-0.09-0.42-0.17-0.84-0.26-1.26c-0.03-0.15-0.16-0.26-0.31-0.26H9.57c-0.15,0-0.28,0.11-0.31,0.26C9.17,10.46,9.08,10.88,9,11.3
		H7.64c-0.09,0-0.17,0.04-0.22,0.1c-0.06,0.06-0.1,0.14-0.1,0.22v9.96l0.01,0.01c0,0.04,0.01,0.07,0.02,0.1
		c0.01,0.01,0.01,0.01,0.01,0.02c0.01,0.01,0.01,0.02,0.02,0.03c0.01,0.02,0.02,0.03,0.03,0.05c0.01,0.01,0.01,0.01,0.01,0.01v0.01
		c0.02,0.02,0.06,0.04,0.09,0.06c0.01,0,0.02,0.01,0.02,0.01c0.04,0.01,0.07,0.02,0.11,0.02H22.1c0.04,0,0.08-0.01,0.11-0.02
		c0.01,0,0.02-0.01,0.03-0.01c0.02-0.02,0.05-0.04,0.07-0.05c0,0,0.01,0,0.01-0.01c0.01,0,0.01,0,0.01,0
		c0.02-0.02,0.04-0.06,0.05-0.09c1.13-2.35,2.26-4.7,3.39-7.06C25.82,14.56,25.81,14.44,25.76,14.34z M7.96,11.95h1.3
		c0.16,0,0.28-0.11,0.31-0.25c0.09-0.42,0.18-0.84,0.26-1.26h3.25c0.09,0.42,0.17,0.84,0.26,1.26c0.03,0.14,0.16,0.25,0.31,0.25
		h8.13v1.51L8.73,13.44c-0.09,0-0.16,0.07-0.16,0.16c0,0.09,0.07,0.16,0.16,0.16h13.05v0.42H8.73c-0.09,0-0.16,0.07-0.16,0.16
		c0,0.09,0.07,0.15,0.16,0.15h1.95c-0.06,0.14-0.13,0.28-0.2,0.42H8.73c-0.09,0-0.16,0.07-0.16,0.16c0,0.09,0.07,0.16,0.16,0.16
		h1.61l-0.2,0.42h-1.4c-0.09,0-0.16,0.07-0.16,0.16c0,0.08,0.07,0.16,0.16,0.16H10c-0.07,0.13-0.14,0.28-0.2,0.41H8.73
		c-0.09,0-0.16,0.07-0.16,0.16c0,0.09,0.07,0.16,0.16,0.16h0.9c-0.06,0.14-0.13,0.28-0.2,0.42h-0.7c-0.09,0-0.16,0.07-0.16,0.16
		c0,0.09,0.07,0.15,0.16,0.15h0.55l-0.2,0.42H8.73c-0.09,0-0.16,0.07-0.16,0.16c0,0.09,0.07,0.16,0.16,0.16h0.2
		c-0.06,0.13-0.13,0.28-0.2,0.41c-0.09,0-0.16,0.07-0.16,0.16c0,0.04,0.01,0.07,0.04,0.1c-0.22,0.45-0.43,0.9-0.65,1.35V11.95z
		 M21.9,21.26H8.14c1.03-2.14,2.06-4.28,3.09-6.42h13.76C23.95,16.98,22.93,19.12,21.9,21.26z"/>
</g>
</svg>
