<?xml version="1.0" encoding="utf-8"?>
<!-- Generator: Adobe Illustrator 21.1.0, SVG Export Plug-In . SVG Version: 6.00 Build 0)  -->
<!DOCTYPE svg PUBLIC "-//W3C//DTD SVG 1.1//EN" "http://www.w3.org/Graphics/SVG/1.1/DTD/svg11.dtd">
<svg version="1.1" id="Layer_1" xmlns="http://www.w3.org/2000/svg" xmlns:xlink="http://www.w3.org/1999/xlink" x="0px" y="0px"
	 viewBox="0 0 32 32" style="enable-background:new 0 0 32 32;" xml:space="preserve">
<path d="M22.06,7.24h-3.53l-0.49-1.63c-0.03-0.12-0.16-0.19-0.28-0.16l-7.16,1.79h-0.28c-0.17,0-0.31,0.14-0.31,0.31v5.26
	l-2.49-1.51c-0.11-0.07-0.25-0.03-0.32,0.08c-0.07,0.11-0.03,0.25,0.08,0.32l2.73,1.66v1.93l-2.49-1.51
	c-0.11-0.07-0.25-0.03-0.32,0.08c-0.07,0.11-0.03,0.25,0.08,0.32l2.73,1.66v8.6c0,0.17,0.14,0.31,0.31,0.31h0.32
	c-0.2,0.19-0.32,0.47-0.32,0.77c0,0.59,0.48,1.07,1.07,1.07c0.59,0,1.07-0.48,1.07-1.07c0-0.3-0.12-0.57-0.32-0.77h8.09
	c-0.2,0.19-0.32,0.47-0.32,0.77c0,0.59,0.48,1.07,1.07,1.07s1.07-0.48,1.07-1.07c0-0.3-0.12-0.57-0.32-0.77h0.32
	c0.17,0,0.31-0.14,0.31-0.31V7.54C22.37,7.37,22.23,7.24,22.06,7.24L22.06,7.24z M17.66,5.95l0.39,1.29h-5.54L17.66,5.95L17.66,5.95
	z M10.64,7.85h11.12v0.81H10.64C10.64,8.66,10.64,7.85,10.64,7.85z M11.4,26.23c-0.41,0-0.74-0.33-0.74-0.74s0.33-0.74,0.74-0.74
	s0.74,0.33,0.74,0.74C12.14,25.89,11.81,26.23,11.4,26.23z M20.99,26.23c-0.41,0-0.74-0.33-0.74-0.74s0.33-0.74,0.74-0.74
	s0.74,0.33,0.74,0.74C21.73,25.89,21.4,26.23,20.99,26.23z M21.75,22.66h-0.9c-0.09,0-0.17-0.08-0.17-0.17
	c0-0.09,0.08-0.17,0.17-0.17h0.9C21.75,22.31,21.75,22.66,21.75,22.66z M21.75,22.01h-0.9c-0.26,0-0.48,0.22-0.48,0.48
	s0.22,0.48,0.48,0.48h0.9v1.14H10.64v-3.13h11.12L21.75,22.01L21.75,22.01z M21.75,19.08h-0.9c-0.09,0-0.17-0.08-0.17-0.17
	c0-0.09,0.08-0.17,0.17-0.17h0.9L21.75,19.08L21.75,19.08z M21.75,18.43h-0.9c-0.26,0-0.48,0.22-0.48,0.48s0.22,0.48,0.48,0.48h0.9
	v1.13H10.64V17.4h11.12C21.75,17.4,21.75,18.43,21.75,18.43z M21.75,12.67h-0.9c-0.09,0-0.17-0.08-0.17-0.17
	c0-0.1,0.08-0.17,0.17-0.17h0.9C21.75,12.32,21.75,12.67,21.75,12.67z M21.75,12.02h-0.9c-0.26,0-0.48,0.21-0.48,0.48
	c0,0.26,0.22,0.48,0.48,0.48h0.9v3.96H10.64v-6h11.12L21.75,12.02L21.75,12.02z M21.75,10.47H10.64V9.12h11.12L21.75,10.47
	L21.75,10.47z"/>
</svg>
