<?xml version="1.0" encoding="utf-8"?>
<!-- Generator: Adobe Illustrator 21.1.0, SVG Export Plug-In . SVG Version: 6.00 Build 0)  -->
<!DOCTYPE svg PUBLIC "-//W3C//DTD SVG 1.1//EN" "http://www.w3.org/Graphics/SVG/1.1/DTD/svg11.dtd">
<svg version="1.1" id="Layer_1" xmlns="http://www.w3.org/2000/svg" xmlns:xlink="http://www.w3.org/1999/xlink" x="0px" y="0px"
	 viewBox="0 0 32 32" style="enable-background:new 0 0 32 32;" xml:space="preserve">
<path d="M15.8,27.44c-0.03,0-0.06-0.01-0.08-0.02l-3.94-2.52c-0.07-0.05-0.09-0.14-0.05-0.21c0.05-0.07,0.14-0.09,0.21-0.05
	l3.94,2.52c0.07,0.05,0.09,0.14,0.05,0.21C15.9,27.42,15.85,27.44,15.8,27.44L15.8,27.44z M15.86,23.21c-0.03,0-0.06-0.01-0.09-0.03
	l-3.06-2.04c-0.07-0.05-0.09-0.15-0.04-0.22s0.15-0.09,0.22-0.04l3.06,2.04c0.07,0.05,0.09,0.15,0.04,0.22
	C15.95,23.19,15.9,23.21,15.86,23.21L15.86,23.21z M15.91,18.98c-0.03,0-0.07-0.01-0.09-0.03l-2.17-1.57
	c-0.07-0.05-0.08-0.15-0.03-0.22c0.05-0.07,0.15-0.08,0.22-0.03l2.17,1.57c0.07,0.05,0.08,0.15,0.03,0.22
	C16,18.96,15.96,18.98,15.91,18.98L15.91,18.98z M15.97,14.74c-0.03,0-0.07-0.01-0.1-0.04l-1.29-1.09
	c-0.07-0.06-0.07-0.15-0.02-0.22c0.05-0.06,0.15-0.07,0.22-0.02l1.29,1.09c0.07,0.06,0.07,0.15,0.02,0.22
	C16.06,14.72,16.01,14.74,15.97,14.74L15.97,14.74z M20.86,26.88c-0.02,0-0.05-0.01-0.07-0.02l-4.6-2.35
	c-0.08-0.04-0.11-0.13-0.07-0.21c0.04-0.08,0.13-0.1,0.21-0.07l4.6,2.35c0.08,0.04,0.11,0.13,0.07,0.21
	C20.97,26.85,20.91,26.88,20.86,26.88z M20,23.59c-0.03,0-0.05-0.01-0.08-0.02l-3.74-1.98c-0.07-0.04-0.1-0.13-0.06-0.21
	c0.04-0.07,0.14-0.1,0.21-0.06l3.74,1.98c0.07,0.04,0.1,0.13,0.06,0.21C20.11,23.56,20.06,23.59,20,23.59z M19.15,20.3
	c-0.03,0-0.06-0.01-0.08-0.02l-2.89-1.61c-0.07-0.04-0.09-0.14-0.05-0.21c0.05-0.07,0.14-0.09,0.21-0.05l2.89,1.61
	c0.07,0.04,0.09,0.14,0.05,0.21C19.25,20.28,19.2,20.3,19.15,20.3L19.15,20.3z M18.29,17.01c-0.03,0-0.06-0.01-0.09-0.03l-2.04-1.24
	c-0.07-0.05-0.09-0.14-0.04-0.21c0.05-0.07,0.14-0.09,0.21-0.04l2.04,1.24c0.07,0.05,0.09,0.14,0.04,0.21
	C18.39,16.99,18.34,17.01,18.29,17.01L18.29,17.01z M17.44,13.73c-0.03,0-0.06-0.01-0.09-0.03l-1.18-0.87
	c-0.07-0.05-0.08-0.15-0.03-0.21c0.05-0.07,0.15-0.08,0.21-0.03l1.18,0.87c0.07,0.05,0.08,0.15,0.03,0.21
	C17.53,13.7,17.49,13.73,17.44,13.73L17.44,13.73z M12.04,10.59c0.04,0.03,0.08,0.04,0.13,0.04c0.07,0,0.15-0.04,0.19-0.1
	c0.07-0.11,0.04-0.25-0.06-0.32c-1.05-0.69-1.67-1.86-1.67-3.1c0-1.24,0.62-2.39,1.66-3.09c0.11-0.07,0.13-0.21,0.06-0.32
	c-0.07-0.11-0.21-0.13-0.32-0.06c-1.16,0.78-1.86,2.08-1.86,3.47C10.16,8.51,10.87,9.81,12.04,10.59L12.04,10.59z M11.68,7.11
	c0,0.88,0.44,1.7,1.18,2.19c0.04,0.03,0.08,0.04,0.13,0.04c0.07,0,0.15-0.04,0.19-0.1c0.07-0.11,0.04-0.25-0.06-0.32
	c-0.61-0.4-0.97-1.08-0.97-1.8c0-0.72,0.36-1.39,0.96-1.8C13.21,5.24,13.24,5.1,13.17,5c-0.07-0.11-0.21-0.13-0.32-0.06
	C12.12,5.42,11.68,6.24,11.68,7.11L11.68,7.11z M13.68,8c0.04,0.03,0.08,0.04,0.13,0.04c0.07,0,0.15-0.04,0.19-0.1
	c0.07-0.11,0.04-0.25-0.07-0.32c-0.17-0.11-0.27-0.3-0.27-0.5c0-0.2,0.1-0.39,0.27-0.5c0.11-0.07,0.13-0.21,0.06-0.32
	c-0.07-0.11-0.21-0.13-0.32-0.06c-0.3,0.2-0.47,0.53-0.47,0.88C13.2,7.47,13.38,7.8,13.68,8L13.68,8z M21.38,7.11
	c0,1.25-0.63,2.41-1.67,3.1c-0.11,0.07-0.13,0.21-0.07,0.32c0.04,0.07,0.12,0.1,0.19,0.1c0.04,0,0.09-0.01,0.13-0.04
	c1.18-0.78,1.88-2.08,1.88-3.49c0-1.39-0.69-2.69-1.86-3.47c-0.11-0.07-0.25-0.04-0.32,0.06c-0.07,0.11-0.04,0.25,0.06,0.32
	C20.76,4.71,21.38,5.87,21.38,7.11L21.38,7.11z M19.86,7.11c0,0.72-0.36,1.4-0.97,1.8c-0.11,0.07-0.13,0.21-0.07,0.32
	c0.04,0.07,0.12,0.1,0.19,0.1c0.04,0,0.09-0.01,0.13-0.04c0.74-0.49,1.18-1.31,1.18-2.19c0-0.87-0.44-1.69-1.17-2.18
	c-0.11-0.07-0.25-0.04-0.32,0.06s-0.04,0.25,0.06,0.32C19.5,5.72,19.86,6.39,19.86,7.11L19.86,7.11z M18.06,7.61
	C17.96,7.68,17.93,7.83,18,7.93c0.04,0.07,0.12,0.1,0.19,0.1c0.04,0,0.09-0.01,0.13-0.04c0.3-0.2,0.48-0.53,0.48-0.89
	c0-0.35-0.18-0.68-0.47-0.88C18.22,6.16,18.07,6.18,18,6.29c-0.07,0.11-0.04,0.25,0.06,0.32c0.17,0.11,0.27,0.3,0.27,0.5
	C18.34,7.31,18.23,7.5,18.06,7.61z M16.52,7.96c0.3-0.16,0.51-0.48,0.51-0.85c0-0.53-0.43-0.97-0.97-0.97
	c-0.53,0-0.97,0.43-0.97,0.97c0,0.37,0.21,0.68,0.51,0.85L10.6,28.22c-0.04,0.16,0.06,0.33,0.22,0.37c0.02,0.01,0.05,0.01,0.07,0.01
	c0.14,0,0.26-0.09,0.3-0.23l0.4-1.63l4.16-2.13v5.31c0,0.17,0.14,0.31,0.31,0.31c0.17,0,0.31-0.14,0.31-0.31v-2.49
	c0.02,0,0.03,0,0.05-0.01l3.76-2.11l0.75,3.05c0.03,0.14,0.16,0.23,0.3,0.23c0.02,0,0.05,0,0.07-0.01c0.16-0.04,0.26-0.21,0.22-0.37
	L16.52,7.96z M19.15,21.15l-2.78,1.67v-3.91l1.91-1.28L19.15,21.15z M18.2,17.31l-1.83,1.23v-3.92l0.97-0.81L18.2,17.31L18.2,17.31z
	 M17.25,13.47l-0.88,0.74V9.9L17.25,13.47L17.25,13.47z M15.75,24.27l-4.06,2.08l0.71-2.88l3.35-1.77V24.27L15.75,24.27z
	 M15.75,21.35l-3.26,1.72l0.71-2.87l2.55-1.42V21.35z M15.75,18.43l-2.45,1.36l0.71-2.86l1.74-1.06V18.43L15.75,18.43z M15.75,15.52
	l-1.64,1l0.7-2.84l0.93-0.69V15.52z M15.75,12.6l-0.82,0.6l0.82-3.31C15.75,9.9,15.75,12.6,15.75,12.6z M16.33,7.34
	c-0.01,0.01-0.01,0.02-0.02,0.03c-0.01,0.01-0.02,0.01-0.02,0.02c-0.06,0.05-0.14,0.08-0.22,0.08c-0.08,0-0.16-0.03-0.22-0.08
	c-0.01-0.01-0.02-0.01-0.02-0.02c-0.01-0.01-0.01-0.02-0.02-0.03C15.74,7.28,15.7,7.2,15.7,7.11c0-0.2,0.16-0.36,0.36-0.36
	s0.36,0.16,0.36,0.36C16.42,7.2,16.38,7.28,16.33,7.34L16.33,7.34z M16.37,27.09v-3.91l2.86-1.72L20.1,25L16.37,27.09L16.37,27.09z"
	/>
</svg>
