<?xml version="1.0" encoding="utf-8"?>
<!-- Generator: Adobe Illustrator 21.1.0, SVG Export Plug-In . SVG Version: 6.00 Build 0)  -->
<!DOCTYPE svg PUBLIC "-//W3C//DTD SVG 1.1//EN" "http://www.w3.org/Graphics/SVG/1.1/DTD/svg11.dtd">
<svg version="1.1" id="Layer_1" xmlns="http://www.w3.org/2000/svg" xmlns:xlink="http://www.w3.org/1999/xlink" x="0px" y="0px"
	 viewBox="0 0 32 32" style="enable-background:new 0 0 32 32;" xml:space="preserve">
<path d="M25.6,11.67c-0.9-2.93-3.64-4.97-6.72-4.97c-3.09,0-5.81,2.02-6.71,4.94c-0.5-0.18-1.03-0.27-1.57-0.27
	c-2.19,0-4.07,1.51-4.56,3.61c-1.95,0.07-3.6,1.43-4.04,3.35c-0.02,0.09,0,0.18,0.06,0.25c0.06,0.07,0.14,0.11,0.23,0.11h10.05
	c-0.05,0.31-0.07,0.63-0.07,0.95c0,3.66,2.98,6.65,6.65,6.65s6.65-2.98,6.65-6.65c0-0.33-0.02-0.64-0.07-0.95h4.39
	c0.14,0,0.26-0.1,0.29-0.24c0.06-0.36,0.09-0.68,0.09-1C30.26,14.65,28.31,12.25,25.6,11.67L25.6,11.67z M18.92,25.68
	c-3.33,0-6.03-2.71-6.03-6.03s2.71-6.03,6.03-6.03s6.03,2.71,6.03,6.03C24.95,22.97,22.24,25.68,18.92,25.68z M29.63,18.11h-4.25
	c-0.7-2.93-3.33-5.11-6.47-5.11c-3.14,0-5.77,2.18-6.47,5.11H2.67c0.5-1.51,1.9-2.54,3.55-2.54h0l0.05,0
	c0.15,0.01,0.27-0.1,0.29-0.24c0.35-1.95,2.05-3.37,4.04-3.37c0.53,0,1.05,0.1,1.54,0.31c0.3,0.15,0.95,0.52,1.36,1.2
	c0.05,0.08,0.14,0.12,0.23,0.1c0.03-0.01,0.05-0.01,0.07-0.03c0.1-0.06,0.14-0.2,0.08-0.3c-0.35-0.58-0.84-0.96-1.21-1.19
	c0.76-2.81,3.31-4.76,6.22-4.76c2.8,0,5.27,1.79,6.12,4.44c-0.75-0.01-1.31,0.27-1.34,0.28c-0.11,0.05-0.17,0.17-0.12,0.28
	c0.05,0.11,0.17,0.16,0.28,0.12c0.01,0,0.78-0.31,1.66-0.16c2.44,0.53,4.2,2.68,4.2,5.2C29.68,17.66,29.67,17.88,29.63,18.11
	L29.63,18.11z M22.45,19.3c-0.3,0-0.56,0.17-0.7,0.42l-1.06-0.31c0-0.02,0-0.05,0-0.07c0-0.62-0.29-1.16-0.75-1.51l0.58-0.86
	c0.03,0,0.05,0.01,0.08,0.01c0.35,0,0.63-0.28,0.63-0.63s-0.28-0.63-0.63-0.63s-0.63,0.28-0.63,0.63c0,0.19,0.08,0.35,0.22,0.47
	l-0.55,0.82c-0.26-0.13-0.55-0.2-0.85-0.2c-0.58,0-1.1,0.26-1.45,0.67l-0.79-0.65c0.06-0.11,0.09-0.23,0.09-0.36
	c0-0.44-0.36-0.79-0.79-0.79c-0.44,0-0.79,0.36-0.79,0.79s0.36,0.79,0.79,0.79c0.17,0,0.34-0.06,0.47-0.15l0.81,0.67
	c-0.16,0.28-0.25,0.6-0.25,0.94c0,0.46,0.16,0.88,0.43,1.2l-0.53,0.44c-0.11-0.07-0.24-0.11-0.37-0.11c-0.37,0-0.67,0.3-0.67,0.67
	c0,0.37,0.3,0.67,0.67,0.67s0.67-0.3,0.67-0.67c0-0.1-0.02-0.19-0.06-0.28l0.55-0.46c0.33,0.28,0.76,0.44,1.23,0.44
	c0.23,0,0.45-0.04,0.65-0.12l0.45,1.2c-0.34,0.18-0.57,0.54-0.57,0.95c0,0.6,0.49,1.08,1.08,1.08s1.08-0.49,1.08-1.08
	c0-0.6-0.48-1.08-1.08-1.08c-0.06,0-0.11,0.01-0.16,0.02l-0.47-1.24c0.43-0.26,0.76-0.69,0.88-1.2l1.01,0.29c0,0.01,0,0.02,0,0.03
	c0,0.44,0.36,0.8,0.8,0.8c0.44,0,0.8-0.36,0.8-0.8C23.25,19.66,22.89,19.3,22.45,19.3L22.45,19.3z M20.6,16.09
	c0.15,0,0.26,0.12,0.26,0.26s-0.12,0.26-0.26,0.26s-0.26-0.12-0.26-0.26C20.33,16.2,20.45,16.09,20.6,16.09z M15.84,17.52
	c-0.23,0-0.43-0.19-0.43-0.43s0.19-0.43,0.43-0.43s0.43,0.19,0.43,0.43C16.26,17.33,16.07,17.52,15.84,17.52z M16.39,21.85
	c-0.17,0-0.3-0.14-0.3-0.3c0-0.17,0.14-0.3,0.3-0.3s0.3,0.14,0.3,0.3C16.69,21.72,16.56,21.85,16.39,21.85z M20.39,22.58
	c0.39,0,0.71,0.32,0.71,0.71c0,0.39-0.32,0.71-0.71,0.71s-0.71-0.32-0.71-0.71S20,22.58,20.39,22.58z M18.78,20.89
	c-0.85,0-1.55-0.69-1.55-1.55c0-0.85,0.69-1.55,1.55-1.55s1.55,0.69,1.55,1.55S19.63,20.89,18.78,20.89z M22.45,20.53
	c-0.24,0-0.43-0.19-0.43-0.43c0-0.24,0.19-0.43,0.43-0.43c0.24,0,0.43,0.19,0.43,0.43S22.69,20.53,22.45,20.53z"/>
</svg>
