<?xml version="1.0" encoding="utf-8"?>
<!-- Generator: Adobe Illustrator 21.1.0, SVG Export Plug-In . SVG Version: 6.00 Build 0)  -->
<!DOCTYPE svg PUBLIC "-//W3C//DTD SVG 1.1//EN" "http://www.w3.org/Graphics/SVG/1.1/DTD/svg11.dtd">
<svg version="1.1" id="Layer_1" xmlns="http://www.w3.org/2000/svg" xmlns:xlink="http://www.w3.org/1999/xlink" x="0px" y="0px"
	 viewBox="0 0 32 32" style="enable-background:new 0 0 32 32;" xml:space="preserve">
<path d="M22.15,18.41c-0.28-0.61-0.72-1.12-1.28-1.49c0.02-0.08,0.03-0.17,0.03-0.26c0-0.54-0.44-0.98-0.98-0.98
	c-0.41,0-0.78,0.26-0.92,0.65c-0.03,0-0.06,0-0.09,0c-0.81,0-1.59,0.28-2.22,0.78l-0.32-0.26c-0.02-0.02-0.06-0.03-0.09-0.03
	l-0.04,0.01c-0.04,0.02-0.08,0.05-0.09,0.1l-0.3,1.14c-0.33,0.55-0.5,1.18-0.5,1.82c0,0.07,0,0.14,0.01,0.21
	c-0.33,0.16-0.54,0.5-0.54,0.87c0,0.54,0.44,0.98,0.98,0.98c0.07,0,0.13-0.01,0.2-0.02c0.47,0.68,1.17,1.17,1.96,1.39l-0.03,0.37
	c0,0.05,0.02,0.09,0.05,0.12c0.02,0.02,0.05,0.03,0.09,0.03c0.01,0,0.03,0,0.05-0.01l1.12-0.4c0.62-0.06,1.22-0.27,1.73-0.64
	c0.16,0.11,0.36,0.17,0.55,0.17c0.54,0,0.98-0.44,0.98-0.98c0-0.27-0.11-0.52-0.3-0.7c0.19-0.44,0.29-0.92,0.29-1.4
	c0-0.09,0-0.18-0.01-0.27l0.4-0.13c0.04-0.01,0.08-0.05,0.09-0.1c0.01-0.04,0-0.09-0.03-0.13L22.15,18.41L22.15,18.41z M19.37,16.46
	c0.09-0.24,0.31-0.39,0.56-0.39c0.33,0,0.6,0.27,0.6,0.6c0,0.05-0.01,0.1-0.02,0.15c-0.02,0.07-0.05,0.13-0.08,0.18
	c-0.11,0.16-0.3,0.26-0.49,0.26c-0.33,0-0.6-0.27-0.6-0.6C19.34,16.59,19.35,16.52,19.37,16.46L19.37,16.46z M16.09,21.5
	c-0.06,0.03-0.12,0.06-0.19,0.07c-0.03,0-0.06,0.01-0.09,0.01c-0.33,0-0.6-0.27-0.6-0.6c0-0.22,0.12-0.41,0.31-0.52
	c0.06-0.03,0.12-0.06,0.19-0.07c0.03-0.01,0.06-0.01,0.1-0.01c0.33,0,0.6,0.27,0.6,0.6C16.4,21.19,16.28,21.39,16.09,21.5z
	 M20.7,22.53c-0.48,0.33-1.04,0.51-1.62,0.54l-0.86-0.49c-0.02-0.01-0.04-0.02-0.07-0.02c-0.02,0-0.04,0.01-0.06,0.02
	c-0.04,0.02-0.07,0.06-0.07,0.11L18,22.94c-0.65-0.2-1.23-0.61-1.64-1.16c0.26-0.18,0.42-0.48,0.42-0.8c0-0.54-0.44-0.98-0.98-0.98
	c-0.02,0-0.04,0-0.06,0c0-0.04,0-0.07,0-0.11c0-0.62,0.18-1.22,0.52-1.74l0.89-0.43c0.04-0.02,0.07-0.06,0.08-0.11
	s-0.01-0.09-0.05-0.12L17,17.36c0.55-0.42,1.23-0.65,1.92-0.65c0.01,0,0.02,0,0.04,0c0.03,0.51,0.45,0.93,0.98,0.93
	c0.3,0,0.59-0.14,0.77-0.38c0.52,0.35,0.91,0.83,1.15,1.4l-0.12,0.99c-0.01,0.05,0.01,0.09,0.05,0.12c0.02,0.02,0.06,0.03,0.09,0.03
	l0.23-0.07c0,0.05,0,0.1,0,0.16c0,0.41-0.08,0.81-0.24,1.2c-0.11-0.04-0.23-0.07-0.35-0.07c-0.54,0-0.98,0.44-0.98,0.98
	C20.55,22.19,20.6,22.37,20.7,22.53L20.7,22.53z M21.52,22.6c-0.12,0-0.23-0.03-0.33-0.1c-0.06-0.04-0.11-0.08-0.15-0.14
	c-0.08-0.11-0.12-0.23-0.12-0.36c0-0.33,0.27-0.6,0.6-0.6c0.09,0,0.18,0.02,0.26,0.06c0.06,0.03,0.12,0.07,0.16,0.12
	c0.11,0.11,0.17,0.26,0.17,0.42C22.12,22.33,21.85,22.6,21.52,22.6L21.52,22.6z M25.61,11.67c-0.9-2.93-3.64-4.97-6.72-4.97
	c-3.09,0-5.81,2.02-6.71,4.94c-0.5-0.18-1.03-0.27-1.57-0.27c-2.19,0-4.07,1.5-4.56,3.61c-1.95,0.07-3.6,1.43-4.04,3.35
	c-0.02,0.09,0,0.18,0.06,0.25c0.06,0.07,0.14,0.11,0.23,0.11h10.05c-0.05,0.31-0.07,0.63-0.07,0.95c0,3.66,2.98,6.65,6.65,6.65
	s6.65-2.98,6.65-6.65c0-0.33-0.02-0.64-0.07-0.95h4.39c0.14,0,0.26-0.1,0.29-0.24c0.06-0.36,0.09-0.68,0.09-1
	C30.26,14.65,28.31,12.25,25.61,11.67L25.61,11.67z M18.92,25.68c-3.33,0-6.03-2.71-6.03-6.03s2.71-6.03,6.03-6.03
	s6.03,2.71,6.03,6.03S22.24,25.68,18.92,25.68z M29.63,18.11h-4.25c-0.7-2.93-3.33-5.11-6.47-5.11s-5.77,2.18-6.47,5.11H2.67
	c0.5-1.51,1.9-2.54,3.55-2.54h0l0.05,0c0.15,0.01,0.27-0.1,0.29-0.24c0.35-1.95,2.05-3.37,4.04-3.37c0.53,0,1.05,0.11,1.54,0.31
	c0.3,0.15,0.95,0.52,1.35,1.2c0.05,0.08,0.14,0.12,0.23,0.1c0.02-0.01,0.05-0.01,0.07-0.03c0.1-0.06,0.14-0.2,0.08-0.3
	c-0.35-0.58-0.84-0.96-1.21-1.19c0.76-2.81,3.31-4.76,6.22-4.76c2.8,0,5.27,1.79,6.12,4.44c-0.75-0.01-1.31,0.27-1.34,0.28
	c-0.11,0.05-0.17,0.17-0.12,0.29c0.05,0.11,0.17,0.16,0.28,0.12c0.01,0,0.78-0.31,1.66-0.16c2.44,0.53,4.2,2.69,4.2,5.2
	C29.68,17.66,29.67,17.88,29.63,18.11L29.63,18.11z"/>
</svg>
