<?xml version="1.0" encoding="utf-8"?>
<!-- Generator: Adobe Illustrator 21.1.0, SVG Export Plug-In . SVG Version: 6.00 Build 0)  -->
<!DOCTYPE svg PUBLIC "-//W3C//DTD SVG 1.1//EN" "http://www.w3.org/Graphics/SVG/1.1/DTD/svg11.dtd">
<svg version="1.1" id="Layer_1" xmlns="http://www.w3.org/2000/svg" xmlns:xlink="http://www.w3.org/1999/xlink" x="0px" y="0px"
	 viewBox="0 0 32 32" style="enable-background:new 0 0 32 32;" xml:space="preserve">
<path d="M19.62,14.88c-0.06-0.08-0.15-0.13-0.25-0.13h-3.13V6.61c0-0.15-0.11-0.28-0.26-0.3c-0.15-0.02-0.29,0.07-0.34,0.21
	l-3.31,10.46c-0.03,0.09-0.01,0.19,0.05,0.27c0.06,0.08,0.15,0.13,0.25,0.13h2.87v8c0,0.15,0.11,0.28,0.26,0.3c0.02,0,0.03,0,0.05,0
	c0.13,0,0.25-0.08,0.29-0.21l3.57-10.32C19.69,15.07,19.68,14.97,19.62,14.88L19.62,14.88z M16.11,23.56v-6.48
	c0-0.17-0.14-0.31-0.31-0.31h-2.76l2.58-8.17v6.46c0,0.17,0.14,0.31,0.31,0.31h3.01L16.11,23.56L16.11,23.56z"/>
</svg>
