<?xml version="1.0" encoding="utf-8"?>
<!-- Generator: Adobe Illustrator 21.1.0, SVG Export Plug-In . SVG Version: 6.00 Build 0)  -->
<!DOCTYPE svg PUBLIC "-//W3C//DTD SVG 1.1//EN" "http://www.w3.org/Graphics/SVG/1.1/DTD/svg11.dtd">
<svg version="1.1" id="Layer_1" xmlns="http://www.w3.org/2000/svg" xmlns:xlink="http://www.w3.org/1999/xlink" x="0px" y="0px"
	 viewBox="0 0 31.68 31.68" style="enable-background:new 0 0 31.68 31.68;" xml:space="preserve">
<path d="M25.96,10.5l-9.98-4.61c-0.07-0.03-0.16-0.03-0.23,0L5.72,10.5c-0.12,0.06-0.18,0.18-0.15,0.31
	c0.03,0.12,0.14,0.21,0.27,0.21h1.23v1.72c0,0.15,0.12,0.28,0.28,0.28h0.96v8.3H7.35c-0.15,0-0.28,0.12-0.28,0.28v1.96
	c0,0.15,0.12,0.28,0.28,0.28h16.58c0.15,0,0.28-0.12,0.28-0.28V21.6c0-0.15-0.12-0.28-0.28-0.28h-0.64v-8.3h0.64
	c0.15,0,0.28-0.12,0.28-0.28v-1.71h1.64c0.13,0,0.24-0.09,0.27-0.21C26.14,10.68,26.08,10.55,25.96,10.5z M22.88,20.43h-1.26v-6.62
	h1.26V20.43z M21.21,21.3h-1.76v-8.29h1.76V21.3z M17.78,13.81h1.26v6.62h-1.26V13.81z M19.04,13.01v0.53h-1.26v-0.53H19.04z
	 M17.78,20.71h1.26v0.59h-1.26V20.71z M17.37,21.3h-3.15v-8.29h3.15V21.3z M12.55,13.81h1.26v6.62h-1.26V13.81z M13.81,13.01v0.53
	h-1.26v-0.53H13.81z M12.55,20.71h1.26v0.59h-1.26V20.71z M12.14,21.3h-1.76v-8.29h1.76V21.3z M8.71,13.81h1.26v6.62H8.71V13.81z
	 M9.97,13.01v0.53H8.71v-0.53H9.97z M8.71,20.71h1.26v0.59H8.71V20.71z M7.62,23.27V22.7h16.03v0.57H7.62z M23.65,22.42H7.62v-0.57
	h16.03C23.65,21.85,23.65,22.42,23.65,22.42z M21.62,21.3v-0.59h1.26v0.59H21.62z M22.88,13.53h-1.26V13h1.26V13.53z M23.65,12.46
	H7.62v-1.44h16.03C23.65,11.02,23.65,12.46,23.65,12.46z M7.09,10.47l8.78-4.04l8.74,4.04H7.09z M15.83,6.83
	c0.03-0.02,0.08-0.02,0.11,0l5.34,2.49c0.07,0.03,0.1,0.11,0.07,0.18c-0.02,0.05-0.07,0.08-0.12,0.08c-0.02,0-0.04-0.01-0.06-0.01
	l-5.29-2.46L14.7,7.63c-0.07,0.03-0.15,0-0.18-0.07c-0.03-0.07,0-0.15,0.07-0.18L15.83,6.83z"/>
</svg>
