<?xml version="1.0" encoding="utf-8"?>
<!-- Generator: Adobe Illustrator 21.1.0, SVG Export Plug-In . SVG Version: 6.00 Build 0)  -->
<!DOCTYPE svg PUBLIC "-//W3C//DTD SVG 1.1//EN" "http://www.w3.org/Graphics/SVG/1.1/DTD/svg11.dtd">
<svg version="1.1" id="Layer_1" xmlns="http://www.w3.org/2000/svg" xmlns:xlink="http://www.w3.org/1999/xlink" x="0px" y="0px"
	 viewBox="0 0 32 32" style="enable-background:new 0 0 32 32;" xml:space="preserve">
<style type="text/css">
	.st0{fill:#010101;}
</style>
<path class="st0" d="M29.04,15.32c-0.86-1.22-2.14-2.07-3.54-2.35C24.67,10.47,22.3,8,18.76,8c-3.09,0-5.75,1.98-6.73,4.95
	c-1.13-0.43-2.46-0.37-3.62,0.19c-1.25,0.6-2.14,1.71-2.52,3.12c-1.68,0.1-3.52,1.16-4.02,3.37c-0.02,0.09,0,0.18,0.06,0.25
	C1.99,19.96,2.08,20,2.17,20h27.59c0.14,0,0.27-0.1,0.29-0.25C30.31,18.19,29.96,16.62,29.04,15.32z M25.22,13.52
	c1.31,0.22,2.52,1,3.33,2.14c0.78,1.1,1.11,2.42,0.94,3.74H2.55c0.64-1.99,2.52-2.55,3.58-2.56c0.14,0,0.26-0.1,0.29-0.23
	c0.3-1.34,1.1-2.39,2.25-2.94c1.09-0.53,2.4-0.55,3.42-0.06l0.1,0.05c0.52,0.27,0.96,0.64,1.29,1.08c0.04,0.06,0.11,0.09,0.18,0.09
	c0.05,0,0.09-0.01,0.13-0.05c0.1-0.07,0.12-0.21,0.04-0.31c-0.34-0.45-0.79-0.83-1.3-1.12c0.83-2.85,3.33-4.77,6.23-4.77
	c3.18,0,5.34,2.18,6.13,4.43c-0.59-0.07-1.18-0.06-1.75,0.06c-0.12,0.02-0.2,0.14-0.17,0.26c0.02,0.1,0.11,0.18,0.22,0.18
	c0.01,0,0.03,0,0.05-0.01c0.6-0.12,1.23-0.13,1.86-0.03L25.22,13.52z"/>
</svg>
