<?xml version="1.0" encoding="utf-8"?>
<!-- Generator: Adobe Illustrator 21.1.0, SVG Export Plug-In . SVG Version: 6.00 Build 0)  -->
<!DOCTYPE svg PUBLIC "-//W3C//DTD SVG 1.1//EN" "http://www.w3.org/Graphics/SVG/1.1/DTD/svg11.dtd">
<svg version="1.1" id="Layer_1" xmlns="http://www.w3.org/2000/svg" xmlns:xlink="http://www.w3.org/1999/xlink" x="0px" y="0px"
	 viewBox="0 0 32 32" style="enable-background:new 0 0 32 32;" xml:space="preserve">
<path d="M25.11,6.52c0.04-0.14-0.02-0.29-0.16-0.35l-2.82-1.38C22.09,4.76,22.05,4.75,22,4.75H10.43c-0.04,0-0.08,0.01-0.12,0.02
	L7.06,6.16C6.92,6.22,6.85,6.37,6.89,6.52C6.89,6.54,6.88,6.57,6.88,6.6v10.15c0,0.01,0,0.01,0,0.02c0,0.01,0,0.01,0,0.02v10.15
	c0,0.17,0.14,0.31,0.31,0.31h17.63c0.17,0,0.31-0.14,0.31-0.31v-5.08v-5.08c0-0.01,0-0.01,0-0.02c0-0.01,0-0.01,0-0.02V6.6
	C25.12,6.57,25.11,6.54,25.11,6.52L25.11,6.52z M10.49,5.36h11.44l1.89,0.92H8.32C8.32,6.29,10.49,5.36,10.49,5.36z M24.51,26.63
	H7.49v-4.46h17.02L24.51,26.63L24.51,26.63z M24.51,21.56H7.49v-4.46h17.02L24.51,21.56L24.51,21.56z M24.51,16.44H7.49v-4.46h17.02
	L24.51,16.44C24.51,16.44,24.51,16.44,24.51,16.44z M24.51,8.79V9.7V8.79z M24.51,11.36H7.49V6.9h17.02L24.51,11.36L24.51,11.36z
	 M8.6,8.41c0,0.23,0.19,0.42,0.42,0.42s0.42-0.19,0.42-0.42c0-0.23-0.19-0.42-0.42-0.42S8.6,8.18,8.6,8.41z M8.6,9.91
	c0,0.23,0.19,0.42,0.42,0.42s0.42-0.19,0.42-0.42S9.26,9.49,9.02,9.49S8.6,9.68,8.6,9.91z M23.33,8.34H10.45
	c-0.08,0-0.15-0.07-0.15-0.15c0-0.08,0.07-0.15,0.15-0.15h12.87c0.08,0,0.15,0.07,0.15,0.15C23.48,8.27,23.41,8.34,23.33,8.34z
	 M23.33,9.26H10.45c-0.08,0-0.15-0.07-0.15-0.15s0.07-0.15,0.15-0.15h12.87c0.08,0,0.15,0.07,0.15,0.15
	C23.48,9.19,23.41,9.26,23.33,9.26z M23.33,10.18H10.45c-0.08,0-0.15-0.07-0.15-0.15s0.07-0.15,0.15-0.15h12.87
	c0.08,0,0.15,0.07,0.15,0.15S23.41,10.18,23.33,10.18z M23.33,13.55H10.45c-0.08,0-0.15-0.07-0.15-0.15s0.07-0.15,0.15-0.15h12.87
	c0.08,0,0.15,0.07,0.15,0.15S23.41,13.55,23.33,13.55z M23.33,14.47H10.45c-0.08,0-0.15-0.07-0.15-0.15s0.07-0.15,0.15-0.15h12.87
	c0.08,0,0.15,0.07,0.15,0.15S23.41,14.47,23.33,14.47z M23.33,15.39H10.45c-0.08,0-0.15-0.07-0.15-0.15s0.07-0.15,0.15-0.15h12.87
	c0.08,0,0.15,0.07,0.15,0.15S23.41,15.39,23.33,15.39z M23.33,18.45H10.45c-0.08,0-0.15-0.07-0.15-0.15s0.07-0.15,0.15-0.15h12.87
	c0.08,0,0.15,0.07,0.15,0.15S23.41,18.45,23.33,18.45z M23.33,19.37H10.45c-0.08,0-0.15-0.07-0.15-0.15s0.07-0.15,0.15-0.15h12.87
	c0.08,0,0.15,0.07,0.15,0.15S23.41,19.37,23.33,19.37z M23.33,20.29H10.45c-0.08,0-0.15-0.07-0.15-0.15s0.07-0.15,0.15-0.15h12.87
	c0.08,0,0.15,0.07,0.15,0.15S23.41,20.29,23.33,20.29z M23.33,23.66H10.45c-0.08,0-0.15-0.07-0.15-0.15s0.07-0.15,0.15-0.15h12.87
	c0.08,0,0.15,0.07,0.15,0.15S23.41,23.66,23.33,23.66z M23.33,24.58H10.45c-0.08,0-0.15-0.07-0.15-0.15s0.07-0.15,0.15-0.15h12.87
	c0.08,0,0.15,0.07,0.15,0.15S23.41,24.58,23.33,24.58z M23.33,25.5H10.45c-0.08,0-0.15-0.07-0.15-0.15s0.07-0.15,0.15-0.15h12.87
	c0.08,0,0.15,0.07,0.15,0.15S23.41,25.5,23.33,25.5z M8.6,13.62c0,0.23,0.19,0.42,0.42,0.42s0.42-0.19,0.42-0.42
	c0-0.23-0.19-0.42-0.42-0.42S8.6,13.39,8.6,13.62z M8.6,15.12c0,0.23,0.19,0.42,0.42,0.42s0.42-0.19,0.42-0.42S9.26,14.7,9.02,14.7
	S8.6,14.89,8.6,15.12z M8.6,18.53c0,0.23,0.19,0.42,0.42,0.42s0.42-0.19,0.42-0.42c0-0.23-0.19-0.42-0.42-0.42S8.6,18.3,8.6,18.53z
	 M8.6,20.02c0,0.23,0.19,0.42,0.42,0.42s0.42-0.19,0.42-0.42c0-0.23-0.19-0.42-0.42-0.42S8.6,19.79,8.6,20.02z M8.6,23.74
	c0,0.23,0.19,0.42,0.42,0.42s0.42-0.19,0.42-0.42c0-0.23-0.19-0.42-0.42-0.42S8.6,23.51,8.6,23.74z M8.6,25.23
	c0,0.23,0.19,0.42,0.42,0.42s0.42-0.19,0.42-0.42c0-0.23-0.19-0.42-0.42-0.42S8.6,25,8.6,25.23z"/>
</svg>
