<?xml version="1.0" encoding="utf-8"?>
<!-- Generator: Adobe Illustrator 21.1.0, SVG Export Plug-In . SVG Version: 6.00 Build 0)  -->
<!DOCTYPE svg PUBLIC "-//W3C//DTD SVG 1.1//EN" "http://www.w3.org/Graphics/SVG/1.1/DTD/svg11.dtd">
<svg version="1.1" id="Layer_1" xmlns="http://www.w3.org/2000/svg" xmlns:xlink="http://www.w3.org/1999/xlink" x="0px" y="0px"
	 viewBox="0 0 32 32" style="enable-background:new 0 0 32 32;" xml:space="preserve">
<path d="M8.61,20.18c-0.54,0-0.97,0.44-0.97,0.97c0,0.54,0.44,0.97,0.97,0.97c0.54,0,0.97-0.44,0.97-0.97
	C9.58,20.62,9.14,20.18,8.61,20.18z M8.61,21.83c-0.37,0-0.67-0.3-0.67-0.67c0-0.37,0.3-0.67,0.67-0.67s0.67,0.3,0.67,0.67
	C9.28,21.53,8.98,21.83,8.61,21.83z M23.85,20.18c-0.54,0-0.97,0.44-0.97,0.97c0,0.54,0.44,0.97,0.97,0.97s0.97-0.44,0.97-0.97
	C24.82,20.62,24.39,20.18,23.85,20.18z M23.85,21.83c-0.37,0-0.67-0.3-0.67-0.67c0-0.37,0.3-0.67,0.67-0.67s0.67,0.3,0.67,0.67
	C24.52,21.53,24.22,21.83,23.85,21.83z M29.08,16.32l-0.19-0.29c-0.42-1.46-0.91-2.46-0.92-2.48c-0.33-0.8-0.89-0.97-1.11-1.01
	l-0.41-0.44c-0.86-0.97-2.59-1.14-2.66-1.14c-0.12,0-0.21,0.09-0.21,0.21v6.71h-0.38V8.95c0-0.12-0.09-0.21-0.21-0.21H3.79
	c-0.12,0-0.21,0.09-0.21,0.21v9.55H3.26c-0.28,0-0.51,0.23-0.51,0.51v0.24c0,0.31,0.2,0.51,0.51,0.51h3.78
	c-0.33,0.37-0.54,0.86-0.54,1.4c0,1.16,0.94,2.1,2.1,2.1s2.1-0.94,2.1-2.1c0-0.23-0.04-0.45-0.1-0.65h4.99v0.34
	c0,0.39,0.32,0.71,0.71,0.71h4.13c0.39,0,0.71-0.32,0.71-0.71V20.5h0.69c-0.07,0.21-0.1,0.42-0.1,0.65c0,1.16,0.94,2.1,2.1,2.1
	c1.16,0,2.1-0.94,2.1-2.1c0-0.23-0.04-0.45-0.1-0.65h0.53c0.08,0.35,0.07,0.61,0.07,0.61c0,0.06,0.02,0.11,0.06,0.16
	c0.04,0.04,0.09,0.07,0.15,0.07h1.86c0.54,0,0.73-0.46,0.73-0.77v-3.74C29.25,16.54,29.14,16.38,29.08,16.32L29.08,16.32z
	 M22.79,9.16v9.28H4v-2.71h12.89l-0.19,0.98c-0.03,0.26-0.01,0.33,0.16,0.44c0.07,0.05,0.25,0.13,0.51-0.06l3.66-3.03
	c0.04-0.04,0.07-0.09,0.07-0.14s-0.03-0.11-0.07-0.14l-3.67-3.03c-0.25-0.19-0.43-0.1-0.5-0.06c-0.16,0.11-0.18,0.26-0.16,0.44
	l0.18,1.07H4V9.16L22.79,9.16L22.79,9.16z M17.28,12.37c0-0.02,0.01-0.04,0-0.06l-0.21-1.28c0-0.01-0.01-0.03-0.01-0.04
	c0.01,0,0.03,0.01,0.07,0.04l3.49,2.89l-3.48,2.88c-0.05,0.03-0.07,0.04-0.07,0.04c0,0,0,0-0.01,0c0.01-0.02,0.01-0.03,0.01-0.05
	l0.22-1.21c0.01-0.05-0.01-0.11-0.05-0.15c-0.04-0.04-0.09-0.07-0.14-0.07H4v-2.77h13.09c0.11,0,0.2-0.09,0.2-0.2
	C17.28,12.39,17.28,12.38,17.28,12.37L17.28,12.37z M8.61,22.81c-0.91,0-1.65-0.74-1.65-1.65c0-0.91,0.74-1.65,1.65-1.65
	s1.65,0.74,1.65,1.65C10.26,22.07,9.52,22.81,8.61,22.81z M20.81,20.09v0.76c0,0.2-0.17,0.37-0.37,0.37h-4.13
	c-0.2,0-0.37-0.16-0.37-0.37v-0.82c0-0.2,0.17-0.37,0.37-0.37h4.13c0.2,0,0.37,0.17,0.37,0.37C20.81,20.03,20.81,20.09,20.81,20.09z
	 M23.85,22.81c-0.91,0-1.65-0.74-1.65-1.65c0-0.91,0.74-1.65,1.65-1.65s1.65,0.74,1.65,1.65C25.5,22.07,24.76,22.81,23.85,22.81z
	 M25.66,20.09c-0.37-0.62-1.04-1.04-1.81-1.04s-1.44,0.42-1.81,1.04h-0.88v-0.06c0-0.39-0.32-0.71-0.71-0.71h-4.13
	c-0.39,0-0.71,0.32-0.71,0.71v0.06h-5.18c-0.37-0.62-1.04-1.04-1.81-1.04c-0.43,0-0.83,0.13-1.17,0.35H3.26
	c-0.14,0-0.16-0.08-0.16-0.16v-0.24c0-0.09,0.07-0.16,0.16-0.16h0.48c0.02,0,0.03,0.01,0.05,0.01H23c0.12,0,0.21-0.09,0.21-0.21
	V18.3h0.38v0.32c0,0.12,0.09,0.21,0.21,0.21h0.49c0.7,0,1.22,0.31,1.59,0.71c0.16,0.18,0.28,0.37,0.37,0.56H25.66L25.66,20.09z
	 M28.83,18.58l-0.4-0.14v-0.49h0.4V18.58z M28.83,17.67h-0.54c-0.08,0-0.14,0.06-0.14,0.14v0.67c0,0.01,0,0.02,0.01,0.03
	c-0.01,0.07,0.02,0.14,0.09,0.16l0.58,0.2v1.7c0,0.06-0.02,0.35-0.31,0.35h-1.65c-0.01-0.39-0.13-1.12-0.69-1.72
	c-0.45-0.49-1.08-0.8-1.9-0.8H24v-7.02c0.47,0.03,1.6,0.43,2.15,1l0.45,0.49c0.04,0.04,0.09,0.07,0.15,0.07
	c0.01,0,0.53,0.02,0.84,0.78c0.01,0.01,0.5,1.02,0.91,2.46c0.01,0.02,0.02,0.04,0.03,0.06l0.22,0.33c0.01,0.02,0.02,0.02,0.03,0.03
	c0,0,0.06,0.07,0.06,0.23L28.83,17.67L28.83,17.67z M28.25,20.16h-0.9c-0.08,0-0.14,0.06-0.14,0.14c0,0.08,0.06,0.14,0.14,0.14h0.9
	c0.08,0,0.14-0.06,0.14-0.14C28.38,20.22,28.32,20.16,28.25,20.16z M27.2,19.67c0,0.08,0.06,0.14,0.14,0.14h0.9
	c0.08,0,0.14-0.06,0.14-0.14s-0.06-0.14-0.14-0.14h-0.9C27.26,19.53,27.2,19.59,27.2,19.67z M27.96,16.39v-0.63
	c0-0.02,0-0.04-0.01-0.05l-0.14-0.34V14.9c0-0.42-0.26-0.47-0.38-0.47h-0.01l-0.41-0.98c-0.02-0.05-0.07-0.08-0.12-0.09l-1.66,0
	c-0.01,0-0.03,0-0.03,0c-0.15,0-0.31,0.1-0.31,0.33v1.94c0,0.05,0.03,0.09,0.07,0.12l2.13,0.76c0.02,0.01,0.05,0.02,0.07,0.02h0.67
	C27.9,16.53,27.96,16.47,27.96,16.39L27.96,16.39z M27.24,15.56v-0.86l0.19,0c0.04,0,0.1,0,0.1,0.19v0.49c0,0.01,0,0.02,0,0.03
	c-0.01,0.15-0.06,0.15-0.1,0.15L27.24,15.56L27.24,15.56L27.24,15.56z M27.68,16.26h-0.49l-2.04-0.7v-1.87
	c0-0.03,0.01-0.04,0.01-0.04l0.03,0l1.59,0l0.33,0.8c-0.15,0.03-0.15,0.18-0.15,0.28v0.85c0,0.08,0,0.14,0.03,0.19
	c0.05,0.1,0.16,0.1,0.2,0.1l0.24,0c0.06,0,0.16-0.01,0.24-0.09l0.01,0.03L27.68,16.26L27.68,16.26z"/>
</svg>
