<?xml version="1.0" encoding="utf-8"?>
<!-- Generator: Adobe Illustrator 21.1.0, SVG Export Plug-In . SVG Version: 6.00 Build 0)  -->
<!DOCTYPE svg PUBLIC "-//W3C//DTD SVG 1.1//EN" "http://www.w3.org/Graphics/SVG/1.1/DTD/svg11.dtd">
<svg version="1.1" id="Layer_1" xmlns="http://www.w3.org/2000/svg" xmlns:xlink="http://www.w3.org/1999/xlink" x="0px" y="0px"
	 viewBox="0 0 32 32" style="enable-background:new 0 0 32 32;" xml:space="preserve">
<path d="M13.6,8.81c1.28,0,2.32-1.04,2.32-2.32s-1.04-2.32-2.32-2.32s-2.32,1.04-2.32,2.32S12.32,8.81,13.6,8.81z M13.6,4.78
	c0.94,0,1.71,0.77,1.71,1.71S14.54,8.2,13.6,8.2c-0.94,0-1.71-0.77-1.71-1.71C11.89,5.55,12.66,4.78,13.6,4.78z M23.86,23.1
	c-0.16,0-0.28,0.02-0.33,0.04l-0.68,0.07l-1.52-4.65c-0.65-1.85-2.44-1.94-2.8-1.94c-0.04,0-0.07,0-0.07,0h-2.39V15.9h1.82
	c0.66,0,0.99-0.29,1.15-0.53c0.17-0.26,0.18-0.53,0.18-0.56c0-0.67-0.51-1.09-1.32-1.09h-1.82v-2.08c0-1.04-1.07-2.14-2.07-2.14
	h-0.44c-0.98,0-2.07,0.79-2.07,1.84c0,0,0,4.9,0,6.19c-1.54,1-2.56,2.73-2.56,4.69c0,3.08,2.51,5.59,5.59,5.59
	c2.67,0,4.9-1.88,5.46-4.38l0.63,1.96c0.04,0.12,0.16,0.2,0.28,0.2c0.03,0,0.05,0,0.08-0.01l3.91-1.11
	c0.15-0.04,0.24-0.19,0.21-0.34C24.96,23.48,24.51,23.09,23.86,23.1L23.86,23.1z M12.07,11.36c0-0.69,0.81-1.25,1.48-1.25h0.44
	c0.68,0,1.48,0.84,1.48,1.55v2.08h-1.23c-0.16,0-0.29,0.13-0.29,0.3s0.13,0.3,0.29,0.3h3.64c0.49,0,0.73,0.17,0.73,0.49
	c0,0.08-0.05,0.5-0.73,0.5l-3.47,0c-0.01,0-0.55,0.05-0.92-0.29c-0.24-0.22-0.36-0.56-0.36-1.02v-2.14c0-0.16-0.13-0.3-0.3-0.3
	c-0.16,0-0.3,0.13-0.3,0.3V14c0,0.64,0.19,1.13,0.56,1.47c0.43,0.39,0.99,0.44,1.24,0.44c0.05,0,0.09,0,0.12,0h1.02v0.84
	c-0.32-0.06-0.64-0.09-0.97-0.09c-0.88,0-1.7,0.21-2.44,0.57C12.06,15.58,12.07,11.36,12.07,11.36z M14.51,27.25c-2.76,0-5-2.24-5-5
	s2.24-5,5-5s5,2.24,5,5S17.26,27.25,14.51,27.25z M21.07,24.96l-0.99-3.06c-0.13-2.07-1.39-3.84-3.17-4.69l1.61,0
	c0.4,0,1.73,0.11,2.24,1.54l1.59,4.87c0.04,0.13,0.17,0.22,0.31,0.2l0.94-0.1c0.01,0,0.03,0,0.04-0.01c0,0,0.09-0.02,0.21-0.02
	c0.27,0,0.46,0.1,0.57,0.32C24.42,24.01,21.07,24.96,21.07,24.96z M14.51,18.06c-2.3,0-4.18,1.87-4.18,4.18s1.87,4.18,4.18,4.18
	s4.18-1.87,4.18-4.18S16.81,18.06,14.51,18.06z M14.51,25.83c-1.98,0-3.59-1.61-3.59-3.59s1.61-3.59,3.59-3.59s3.59,1.61,3.59,3.59
	C18.09,24.22,16.48,25.83,14.51,25.83z"/>
</svg>
