<?xml version="1.0" encoding="utf-8"?>
<!-- Generator: Adobe Illustrator 21.1.0, SVG Export Plug-In . SVG Version: 6.00 Build 0)  -->
<!DOCTYPE svg PUBLIC "-//W3C//DTD SVG 1.1//EN" "http://www.w3.org/Graphics/SVG/1.1/DTD/svg11.dtd">
<svg version="1.1" id="Layer_1" xmlns="http://www.w3.org/2000/svg" xmlns:xlink="http://www.w3.org/1999/xlink" x="0px" y="0px"
	 viewBox="0 0 31.68 31.68" style="enable-background:new 0 0 31.68 31.68;" xml:space="preserve">
<style type="text/css">
	.st0{fill:#010101;}
</style>
<g>
	<path class="st0" d="M24.09,11C24.09,11,24.09,11,24.09,11l1.33,0c0.12,0,0.21-0.09,0.21-0.21c0-0.12-0.09-0.21-0.21-0.21
		c0,0,0,0,0,0l-1.33,0c-0.04,0-0.07,0.01-0.1,0.03V8.96c0.03,0.02,0.06,0.03,0.1,0.03c0,0,0,0,0,0l1.33,0
		c0.12,0,0.21-0.09,0.21-0.21c0-0.12-0.09-0.21-0.21-0.21c0,0,0,0,0,0l-1.33,0c-0.04,0-0.07,0.01-0.1,0.03V7.91
		c0-0.15-0.12-0.28-0.28-0.28h-0.6c0-0.01,0-0.03,0-0.04l0-1.33c0-0.12-0.09-0.21-0.21-0.21c0,0,0,0,0,0
		c-0.12,0-0.21,0.09-0.21,0.21l0,1.33c0,0.01,0,0.03,0,0.04h-1.61c0-0.01,0-0.03,0-0.04l0-1.33c0-0.12-0.09-0.21-0.21-0.21
		c0,0,0,0,0,0c-0.12,0-0.21,0.09-0.21,0.21l0,1.33c0,0.01,0,0.03,0,0.04h-1.61c0-0.01,0-0.03,0-0.04l0-1.33
		c0-0.12-0.09-0.21-0.21-0.21c0,0,0,0,0,0c-0.12,0-0.21,0.09-0.21,0.21l0,1.33c0,0.01,0,0.03,0,0.04h-1.61c0-0.01,0-0.03,0-0.04
		l0-1.33c0-0.12-0.09-0.21-0.21-0.21h0c-0.12,0-0.21,0.09-0.21,0.21l0,1.33c0,0.01,0,0.03,0,0.04h-1.61c0-0.01,0-0.03,0-0.04l0-1.33
		c0-0.12-0.09-0.21-0.21-0.21l0,0c-0.12,0-0.21,0.09-0.21,0.21l0,1.33c0,0.01,0,0.03,0,0.04h-1.61c0-0.01,0-0.03,0-0.04l0-1.33
		c0-0.12-0.09-0.21-0.21-0.21h0c-0.12,0-0.21,0.09-0.21,0.21l0,1.33c0,0.01,0,0.03,0,0.04H11c0-0.01,0-0.03,0-0.04l0-1.33
		c0-0.12-0.09-0.21-0.21-0.21h0c-0.12,0-0.21,0.09-0.21,0.21l0,1.33c0,0.01,0,0.03,0,0.04H8.98c0-0.01,0-0.03,0-0.04l0-1.33
		c0-0.12-0.09-0.21-0.21-0.21c0,0,0,0,0,0c-0.12,0-0.21,0.09-0.21,0.21l0,1.33c0,0.01,0,0.03,0,0.04h-0.7
		c-0.15,0-0.28,0.12-0.28,0.28v0.65c0,0,0,0,0,0c0,0,0,0,0,0l-1.33,0c-0.12,0-0.21,0.09-0.21,0.21c0,0.12,0.09,0.21,0.21,0.21h0
		l1.33,0h0v1.6c0,0,0,0,0,0l0,0l-1.33,0c-0.12,0-0.21,0.09-0.21,0.21c0,0.12,0.09,0.21,0.21,0.21h0l1.33,0c0,0,0,0,0,0v1.6
		c0,0,0,0,0,0l0,0l-1.33,0c-0.12,0-0.21,0.09-0.21,0.21c0,0.12,0.09,0.21,0.21,0.21l0,0l1.33,0c0,0,0,0,0,0v1.6c0,0,0,0,0,0l0,0
		l-1.33,0c-0.12,0-0.21,0.09-0.21,0.21c0,0.12,0.09,0.21,0.21,0.21l0,0l1.33,0c0,0,0,0,0,0v1.6c0,0,0,0,0,0l-1.33,0l0,0
		c-0.12,0-0.21,0.09-0.21,0.21s0.09,0.21,0.21,0.21l1.33,0l0,0c0,0,0,0,0,0v1.6c0,0,0,0,0,0l-1.33,0h0c-0.12,0-0.21,0.09-0.21,0.21
		c0,0.12,0.09,0.21,0.21,0.21l1.33,0l0,0c0,0,0,0,0,0v1.6h0l-1.33,0h0c-0.12,0-0.21,0.09-0.21,0.21c0,0.12,0.09,0.21,0.21,0.21
		l1.33,0l0,0c0,0,0,0,0,0v1.6h0l-1.33,0h0c-0.12,0-0.21,0.09-0.21,0.21c0,0.12,0.09,0.21,0.21,0.21l1.33,0c0,0,0,0,0,0c0,0,0,0,0,0
		v0.63c0,0.15,0.12,0.28,0.28,0.28h0.7c-0.01,0.02-0.01,0.04-0.01,0.06l0,1.33c0,0.12,0.09,0.21,0.21,0.21c0,0,0,0,0,0
		c0.12,0,0.21-0.09,0.21-0.21l0-1.33c0-0.02,0-0.04-0.01-0.06h1.62c-0.01,0.02-0.01,0.04-0.01,0.06l0,1.33
		c0,0.12,0.09,0.21,0.21,0.21h0c0.12,0,0.21-0.09,0.21-0.21l0-1.33c0-0.02,0-0.04-0.01-0.06h1.62c-0.01,0.02-0.01,0.04-0.01,0.06
		l0,1.33c0,0.12,0.09,0.21,0.21,0.21h0c0.12,0,0.21-0.09,0.21-0.21l0-1.33c0-0.02,0-0.04-0.01-0.06h1.62
		c-0.01,0.02-0.01,0.04-0.01,0.06l0,1.33c0,0.12,0.09,0.21,0.21,0.21l0,0c0.12,0,0.21-0.09,0.21-0.21l0-1.33
		c0-0.02,0-0.04-0.01-0.06h1.62c-0.01,0.02-0.01,0.04-0.01,0.06l0,1.33c0,0.12,0.09,0.21,0.21,0.21l0,0c0.12,0,0.21-0.09,0.21-0.21
		l0-1.33c0-0.02,0-0.04-0.01-0.06h1.62c-0.01,0.02-0.01,0.04-0.01,0.06l0,1.33c0,0.12,0.09,0.21,0.21,0.21l0,0
		c0.12,0,0.21-0.09,0.21-0.21l0-1.33c0-0.02,0-0.04-0.01-0.06h1.62c-0.01,0.02-0.01,0.04-0.01,0.06l0,1.33
		c0,0.12,0.09,0.21,0.21,0.21h0c0.12,0,0.21-0.09,0.21-0.21l0-1.33c0-0.02,0-0.04-0.01-0.06h1.62c-0.01,0.02-0.01,0.04-0.01,0.06
		l0,1.33c0,0.12,0.09,0.21,0.21,0.21h0c0.12,0,0.21-0.09,0.21-0.21l0-1.33c0-0.02,0-0.04-0.01-0.06h0.6c0.15,0,0.28-0.12,0.28-0.28
		v-0.66c0.03,0.02,0.06,0.03,0.1,0.03l1.33,0c0,0,0,0,0,0c0.12,0,0.21-0.09,0.21-0.21c0-0.11-0.09-0.21-0.21-0.21l-1.33,0
		c0,0,0,0,0,0c-0.04,0-0.07,0.01-0.1,0.03v-1.65c0.03,0.02,0.06,0.03,0.1,0.03l1.33,0c0,0,0,0,0,0c0.12,0,0.21-0.09,0.21-0.21
		c0-0.12-0.09-0.21-0.21-0.21l-1.33,0c0,0,0,0,0,0c-0.04,0-0.07,0.01-0.1,0.03v-1.65c0.03,0.02,0.06,0.03,0.1,0.03l1.33,0h0
		c0.12,0,0.21-0.09,0.21-0.21c0-0.12-0.09-0.21-0.21-0.21l-1.33,0h0c-0.04,0-0.07,0.01-0.1,0.03v-1.65c0.03,0.02,0.06,0.03,0.1,0.03
		l1.33,0l0,0c0.12,0,0.21-0.09,0.21-0.21c0-0.12-0.09-0.21-0.21-0.21l-1.33,0l0,0c-0.04,0-0.07,0.01-0.1,0.03v-1.65
		c0.03,0.02,0.06,0.03,0.1,0.03l0,0l1.33,0c0.12,0,0.21-0.09,0.21-0.21c0-0.12-0.09-0.21-0.21-0.21h0l-1.33,0
		c-0.04,0-0.07,0.01-0.1,0.03V13c0.03,0.02,0.06,0.03,0.1,0.03h0l1.33,0c0.12,0,0.21-0.09,0.21-0.21c0-0.12-0.09-0.21-0.21-0.21h0
		l-1.33,0c-0.04,0-0.07,0.01-0.1,0.03v-1.65C24.01,10.99,24.05,11,24.09,11z M23.43,23.47H8.15V8.19h15.28V23.47z"/>
	<path class="st0" d="M13.84,16.53c-0.08,0-0.14,0.06-0.14,0.14v3.57h-1.04c-0.08,0-0.14,0.06-0.14,0.14c0,0.08,0.06,0.14,0.14,0.14
		h1.17c0.08,0,0.14-0.06,0.14-0.14v-3.71C13.98,16.59,13.92,16.53,13.84,16.53z"/>
	<path class="st0" d="M9.92,21.61h4.95c0.12,0,0.21-0.09,0.21-0.21V10.59c0-0.12-0.09-0.21-0.21-0.21H9.92
		c-0.12,0-0.21,0.09-0.21,0.21V21.4C9.71,21.51,9.8,21.61,9.92,21.61z M10.13,10.8h4.53v10.39h-4.53V10.8z"/>
	<path class="st0" d="M19.01,11.49h-1.17c-0.08,0-0.14,0.06-0.14,0.14v1.88c0,0.08,0.06,0.14,0.14,0.14c0.08,0,0.14-0.06,0.14-0.14
		v-1.74h1.04c0.08,0,0.14-0.06,0.14-0.14C19.15,11.56,19.08,11.49,19.01,11.49z"/>
	<path class="st0" d="M20.74,16.53c-0.08,0-0.14,0.06-0.14,0.14v3.57h-1.03c-0.08,0-0.14,0.06-0.14,0.14c0,0.08,0.06,0.14,0.14,0.14
		h1.17c0.08,0,0.14-0.06,0.14-0.14v-3.71C20.88,16.59,20.82,16.53,20.74,16.53z"/>
	<path class="st0" d="M16.81,21.61h4.94c0.12,0,0.21-0.09,0.21-0.21V10.59c0-0.12-0.09-0.21-0.21-0.21h-4.94
		c-0.12,0-0.21,0.09-0.21,0.21V21.4C16.6,21.51,16.7,21.61,16.81,21.61z M17.02,10.8h4.53v10.39h-4.53V10.8z"/>
</g>
</svg>
