<?xml version="1.0" encoding="utf-8"?>
<!-- Generator: Adobe Illustrator 21.1.0, SVG Export Plug-In . SVG Version: 6.00 Build 0)  -->
<!DOCTYPE svg PUBLIC "-//W3C//DTD SVG 1.1//EN" "http://www.w3.org/Graphics/SVG/1.1/DTD/svg11.dtd">
<svg version="1.1" id="Layer_1" xmlns="http://www.w3.org/2000/svg" xmlns:xlink="http://www.w3.org/1999/xlink" x="0px" y="0px"
	 viewBox="0 0 32 32" style="enable-background:new 0 0 32 32;" xml:space="preserve">
<path d="M21.38,11.34v-0.75c0-0.07-0.06-0.14-0.14-0.14c-0.08,0-0.14,0.06-0.14,0.14v0.75c0,0.07,0.06,0.14,0.14,0.14
	C21.32,11.48,21.38,11.42,21.38,11.34z M22.65,10.92c0.03,0,0.07-0.01,0.1-0.04c0.05-0.05,0.05-0.14,0-0.19l-0.53-0.53
	c-0.05-0.05-0.14-0.05-0.19,0c-0.05,0.05-0.05,0.14,0,0.19l0.53,0.53C22.58,10.91,22.62,10.92,22.65,10.92L22.65,10.92z
	 M19.82,10.95c0.03,0,0.07-0.01,0.1-0.04l0.53-0.53c0.05-0.05,0.05-0.14,0-0.19c-0.05-0.05-0.14-0.05-0.19,0l-0.53,0.53
	c-0.05,0.05-0.05,0.14,0,0.19C19.75,10.93,19.79,10.95,19.82,10.95z M7.59,8.34C7.62,8.35,8.4,8.67,9.21,8.67h1.72l-0.2,0.22
	c-0.05,0.06-0.07,0.15-0.03,0.22c0.03,0.07,0.11,0.12,0.19,0.12h1.33c0.03,0,0.06-0.01,0.09-0.02l1.04-0.54c0,0,0.01,0,0.01,0h2.49
	c0.75,0,1.75-0.08,1.75-0.73c0-0.38-0.41-0.84-2.36-0.84H9.82L8.73,6.12C8.69,6.09,8.64,6.07,8.59,6.07H7.86
	c-0.07,0-0.13,0.03-0.17,0.09C7.66,6.21,7.65,6.28,7.67,6.35l0.39,1.02L7.59,7.55C7.51,7.59,7.46,7.66,7.46,7.74v0.41
	C7.46,8.24,7.51,8.31,7.59,8.34L7.59,8.34z M7.87,7.88l0.54-0.21c0.1-0.04,0.15-0.16,0.11-0.26L8.16,6.48h0.35L9.6,7.45
	C9.64,7.49,9.69,7.5,9.74,7.5h5.49c0.82,0,1.31,0.09,1.6,0.18h-0.17c-0.08,0-0.14,0.06-0.14,0.14s0.06,0.14,0.14,0.14h0.52
	c-0.03,0.14-0.39,0.3-1.33,0.3h-1.78c0.04-0.06,0.05-0.14,0.01-0.2c-0.05-0.1-0.18-0.14-0.27-0.09l-1.65,0.85h-0.82l0.48-0.53
	C11.9,8.2,11.89,8.07,11.81,8c-0.08-0.07-0.21-0.07-0.29,0.02L11.3,8.26H9.21c-0.55,0-1.1-0.16-1.35-0.25L7.87,7.88L7.87,7.88z
	 M15.28,22.05h0.31l0.03-0.87h-0.31L15.28,22.05z M15.32,20.7h0.31l0.03-0.84h-0.31L15.32,20.7z M15.37,19.42h0.31l0.03-0.84h-0.31
	L15.37,19.42z M15.51,15.09h0.31l0.02-0.52h-0.31L15.51,15.09z M15.23,23.56h0.31l0.03-1.02h-0.31L15.23,23.56z M15.45,17.01h0.31
	l0.03-0.77h-0.31L15.45,17.01z M15.41,18.17h0.31l0.03-0.83h-0.31L15.41,18.17z M15.48,15.94h0.31l0.02-0.62H15.5L15.48,15.94z
	 M16.56,17.34h-0.31l0.03,0.83h0.31L16.56,17.34z M16.5,15.33h-0.31l0.02,0.62h0.31L16.5,15.33z M16.65,19.86h-0.31l0.03,0.84h0.31
	L16.65,19.86z M16.69,21.18h-0.31l0.03,0.87h0.31L16.69,21.18z M16.61,18.58H16.3l0.03,0.84h0.31L16.61,18.58z M16.47,14.57h-0.31
	l0.02,0.52h0.31L16.47,14.57z M16.53,16.23h-0.31l0.03,0.77h0.31L16.53,16.23z M16.43,22.54l0.03,1.02h0.31l-0.03-1.02H16.43z
	 M26.17,12.15h-0.98c-0.1-2.21-1.15-3.17-3.5-3.17h-1.44c-0.11,0-0.2,0.09-0.2,0.2c0,0.11,0.09,0.2,0.2,0.2h0.07
	c0.04,0.47,0.43,0.85,0.92,0.85c0.48,0,0.87-0.37,0.91-0.83c1.78,0.11,2.55,0.92,2.63,2.74H5.83c-0.15,0-0.27,0.12-0.27,0.27v1.64
	c0,0.15,0.12,0.27,0.27,0.27h2.76v1.57c0,0.15,0.12,0.27,0.27,0.27h1.1c0.12,0,0.22-0.08,0.26-0.19l0.51-1.65h2.23l-5.73,11.2
	c-0.04,0.08-0.04,0.18,0.01,0.27c0.05,0.08,0.14,0.13,0.23,0.13h17.06c0.09,0,0.18-0.05,0.23-0.13s0.05-0.18,0.01-0.27l-5.73-11.2
	h2.23l0.51,1.65c0.03,0.11,0.14,0.19,0.26,0.19h1.1c0.15,0,0.27-0.12,0.27-0.27v-1.57h1.39v8.74c0,0.11,0.09,0.2,0.2,0.2
	c0.11,0,0.2-0.09,0.2-0.2v-8.74h0.97c0.15,0,0.27-0.12,0.27-0.27v-1.65C26.44,12.27,26.32,12.15,26.17,12.15L26.17,12.15z
	 M21.24,9.83c-0.26,0-0.47-0.19-0.51-0.44h0.96c0.02,0,0.03,0,0.05,0C21.71,9.64,21.5,9.83,21.24,9.83L21.24,9.83z M24.08,25.39
	l-7.25,0l-0.04-1.26h-0.31l0.04,1.26h-1.05l0.04-1.26h-0.31l-0.04,1.26l-0.2,0H7.92l5.65-11.05h4.86L24.08,25.39z M25.89,13.79
	h-2.76c-0.15,0-0.27,0.12-0.27,0.27v1.56h-0.62l-0.51-1.65c-0.03-0.11-0.14-0.19-0.26-0.19H10.53c-0.12,0-0.22,0.08-0.26,0.19
	l-0.51,1.65H9.14v-1.57c0-0.15-0.12-0.27-0.27-0.27H6.1v-1.1h19.79L25.89,13.79L25.89,13.79z"/>
</svg>
