<?xml version="1.0" encoding="utf-8"?>
<!-- Generator: Adobe Illustrator 21.1.0, SVG Export Plug-In . SVG Version: 6.00 Build 0)  -->
<!DOCTYPE svg PUBLIC "-//W3C//DTD SVG 1.1//EN" "http://www.w3.org/Graphics/SVG/1.1/DTD/svg11.dtd">
<svg version="1.1" id="Layer_1" xmlns="http://www.w3.org/2000/svg" xmlns:xlink="http://www.w3.org/1999/xlink" x="0px" y="0px"
	 viewBox="0 0 32 32" style="enable-background:new 0 0 32 32;" xml:space="preserve">
<style type="text/css">
	.st0{fill:#010101;}
</style>
<g>
	<path class="st0" d="M21.27,4.6H10.73c-0.66,0-1.19,0.53-1.19,1.19v20.42c0,0.66,0.53,1.19,1.19,1.19h10.55
		c0.66,0,1.19-0.53,1.19-1.19V5.79C22.46,5.13,21.93,4.6,21.27,4.6z M21.87,26.21c0,0.33-0.27,0.6-0.6,0.6H10.73
		c-0.33,0-0.6-0.27-0.6-0.6v-2.67h11.74L21.87,26.21L21.87,26.21z M21.87,23.24H10.13V8.71h11.74L21.87,23.24L21.87,23.24z
		 M21.87,8.41H10.13V5.79c0-0.33,0.27-0.6,0.6-0.6h10.55c0.33,0,0.6,0.27,0.6,0.6L21.87,8.41L21.87,8.41z"/>
	<path class="st0" d="M15.43,26.22h1.17c0.45,0,0.81-0.36,0.81-0.81v-0.58c0-0.45-0.36-0.81-0.81-0.81h-1.17
		c-0.45,0-0.81,0.36-0.81,0.81v0.58C14.62,25.85,14.98,26.22,15.43,26.22z M15.06,24.83c0-0.2,0.16-0.36,0.36-0.36h1.17
		c0.2,0,0.36,0.16,0.36,0.36v0.58c0,0.2-0.16,0.36-0.36,0.36h-1.17c-0.2,0-0.36-0.16-0.36-0.36V24.83z"/>
	<path class="st0" d="M17.01,6.54h-1.99c-0.12,0-0.22,0.1-0.22,0.22c0,0.12,0.1,0.22,0.22,0.22h1.99c0.12,0,0.22-0.1,0.22-0.22
		C17.23,6.64,17.13,6.54,17.01,6.54z"/>
	<path class="st0" d="M15.42,14.85c0.03,0,0.06-0.01,0.08-0.02l4.55-3.01c0.07-0.05,0.09-0.14,0.04-0.2
		c-0.05-0.07-0.14-0.09-0.2-0.04l-4.55,3.01c-0.07,0.05-0.09,0.14-0.04,0.2C15.33,14.83,15.38,14.85,15.42,14.85z"/>
	<path class="st0" d="M14.07,16.97c0.03,0,0.06-0.01,0.08-0.02l3.6-2.4c0.07-0.05,0.09-0.14,0.04-0.2c-0.05-0.07-0.14-0.09-0.2-0.04
		l-3.6,2.4c-0.07,0.05-0.09,0.14-0.04,0.2C13.98,16.95,14.02,16.97,14.07,16.97z"/>
	<circle class="st0" cx="13.94" cy="6.81" r="0.31"/>
</g>
</svg>
