<?xml version="1.0" encoding="utf-8"?>
<!-- Generator: Adobe Illustrator 21.1.0, SVG Export Plug-In . SVG Version: 6.00 Build 0)  -->
<!DOCTYPE svg PUBLIC "-//W3C//DTD SVG 1.1//EN" "http://www.w3.org/Graphics/SVG/1.1/DTD/svg11.dtd">
<svg version="1.1" id="Layer_1" xmlns="http://www.w3.org/2000/svg" xmlns:xlink="http://www.w3.org/1999/xlink" x="0px" y="0px"
	 viewBox="0 0 32 32" style="enable-background:new 0 0 32 32;" xml:space="preserve">
<path d="M17.16,18.33c-0.18-0.14-0.39-0.16-0.54-0.06c-0.18,0.12-0.24,0.31-0.16,0.49l0.43,1.4c-3.02,0-5.38-0.84-7-2.47
	c-2.19-2.21-2.35-5.24-2.36-5.84c0-0.04,0-0.07,0-0.11l-0.45-0.01c0,0.02,0,0.09,0,0.21c0.04,3.98,1.13,6.93,3.26,8.77
	c2.05,1.77,4.51,2.05,5.86,2.05c0.28,0,0.51-0.01,0.68-0.02l-0.42,1.36c-0.08,0.18-0.02,0.37,0.16,0.49
	c0.06,0.04,0.14,0.06,0.21,0.06c0.11,0,0.21-0.04,0.33-0.13l3.53-2.92c0.05-0.04,0.08-0.11,0.08-0.17c0-0.07-0.03-0.13-0.08-0.17
	L17.16,18.33L17.16,18.33z M16.92,24.15l0.49-1.6c0.02-0.07,0.01-0.14-0.03-0.2c-0.04-0.06-0.1-0.09-0.17-0.1l-0.06,0
	c0,0-0.01,0-0.01,0c0,0-0.01,0-0.02,0l-0.64,0.04c-1.19,0.03-3.78-0.15-5.84-1.93c-1.3-1.13-2.2-2.71-2.68-4.72
	c0.37,0.8,0.88,1.62,1.62,2.36c1.76,1.78,4.31,2.66,7.6,2.61c0.04,0,0.08-0.01,0.11-0.03c0.04-0.02,0.08-0.04,0.1-0.08
	c0.04-0.06,0.05-0.13,0.03-0.19l-0.49-1.6l3.28,2.72L16.92,24.15L16.92,24.15z M24.92,20.05c-0.04-3.98-1.13-6.93-3.26-8.77
	c-2.47-2.13-5.54-2.1-6.54-2.02l0.42-1.36c0.08-0.18,0.02-0.37-0.16-0.49c-0.06-0.04-0.14-0.06-0.21-0.06
	c-0.11,0-0.21,0.04-0.33,0.13l-3.53,2.92c-0.05,0.04-0.08,0.11-0.08,0.18c0,0.07,0.03,0.13,0.08,0.17l3.54,2.93
	c0.18,0.14,0.39,0.16,0.54,0.06c0.18-0.12,0.24-0.31,0.16-0.49l-0.43-1.4c3.02,0,5.38,0.83,7,2.47c2.19,2.21,2.35,5.24,2.36,5.84
	c0,0.04,0,0.07,0,0.11l0.45,0.01C24.92,20.24,24.92,20.17,24.92,20.05L24.92,20.05z M22.43,13.99c-1.76-1.78-4.32-2.66-7.6-2.61
	c-0.04,0-0.08,0.01-0.11,0.03c-0.04,0.02-0.08,0.04-0.1,0.08c-0.04,0.06-0.05,0.13-0.03,0.19l0.49,1.6l-3.28-2.72l3.28-2.72
	l-0.49,1.6c-0.02,0.07-0.01,0.14,0.03,0.19s0.1,0.09,0.17,0.1l0.06,0c0,0,0.01,0,0.01,0c0,0,0.01,0,0.02,0l0.66-0.04
	c1.2-0.03,3.76,0.15,5.82,1.93c1.31,1.13,2.2,2.71,2.68,4.73C23.68,15.56,23.16,14.73,22.43,13.99L22.43,13.99z"/>
</svg>
