<?xml version="1.0" encoding="utf-8"?>
<!-- Generator: Adobe Illustrator 21.1.0, SVG Export Plug-In . SVG Version: 6.00 Build 0)  -->
<!DOCTYPE svg PUBLIC "-//W3C//DTD SVG 1.1//EN" "http://www.w3.org/Graphics/SVG/1.1/DTD/svg11.dtd">
<svg version="1.1" id="Layer_1" xmlns="http://www.w3.org/2000/svg" xmlns:xlink="http://www.w3.org/1999/xlink" x="0px" y="0px"
	 viewBox="0 0 32 32" style="enable-background:new 0 0 32 32;" xml:space="preserve">
<path d="M18.93,22.44h5.44c0.68,0,1.24-0.56,1.24-1.24V10.8c0-0.68-0.56-1.24-1.24-1.24H7.62c-0.68,0-1.24,0.56-1.24,1.24V21.2
	c0,0.68,0.56,1.24,1.24,1.24H18.93z M25,21.23c0,0.35-0.28,0.63-0.63,0.63H7.62C7.28,21.86,7,21.58,7,21.23V10.8
	c0-0.35,0.28-0.63,0.63-0.63h16.75c0.35,0,0.63,0.28,0.63,0.63V21.23z M16,19.51c-1.93,0-3.51-1.57-3.51-3.51s1.57-3.51,3.51-3.51
	s3.51,1.57,3.51,3.51S17.93,19.51,16,19.51z M16,12.95c-1.68,0-3.05,1.37-3.05,3.05c0,1.68,1.37,3.05,3.05,3.05s3.05-1.37,3.05-3.05
	C19.05,14.32,17.68,12.95,16,12.95z M14.96,17.55c-0.03,0-0.06-0.01-0.08-0.02c-0.05-0.03-0.07-0.08-0.07-0.13v-2.8
	c0-0.05,0.03-0.1,0.07-0.13c0.05-0.03,0.1-0.03,0.15-0.01l2.75,1.39c0.05,0.03,0.08,0.08,0.08,0.14c0,0.06-0.03,0.11-0.08,0.14
	l-2.75,1.41C15.01,17.55,14.98,17.55,14.96,17.55L14.96,17.55z M15.11,14.85v2.3l2.26-1.16C17.37,15.99,15.11,14.85,15.11,14.85z"/>
</svg>
