<?xml version="1.0" encoding="utf-8"?>
<!-- Generator: Adobe Illustrator 21.1.0, SVG Export Plug-In . SVG Version: 6.00 Build 0)  -->
<!DOCTYPE svg PUBLIC "-//W3C//DTD SVG 1.1//EN" "http://www.w3.org/Graphics/SVG/1.1/DTD/svg11.dtd">
<svg version="1.1" id="Layer_1" xmlns="http://www.w3.org/2000/svg" xmlns:xlink="http://www.w3.org/1999/xlink" x="0px" y="0px"
	 viewBox="0 0 32 32" style="enable-background:new 0 0 32 32;" xml:space="preserve">
<style type="text/css">
	.st0{fill:#010101;}
</style>
<g>
	<path class="st0" d="M10.47,10.4c1.27,0,2.31-1.04,2.31-2.31s-1.04-2.31-2.31-2.31S8.16,6.81,8.16,8.09S9.2,10.4,10.47,10.4z
		 M10.47,6.37c0.95,0,1.72,0.77,1.72,1.72S11.42,9.8,10.47,9.8S8.75,9.03,8.75,8.09S9.52,6.37,10.47,6.37z"/>
	<path class="st0" d="M24.27,16.31h-0.71c-0.28-1.8-1.5-5.37-2.22-6.44c-0.07-0.1-0.18-0.15-0.3-0.12l-0.42,0.08
		c0-0.01,0-0.02-0.01-0.04c-0.02-0.05-2.37-5.1-2.75-5.87c-0.36-0.75-1.11-0.85-1.79-0.85h-1.34c-0.16,0-0.3,0.13-0.3,0.3
		c0,0.16,0.13,0.3,0.3,0.3h1.34c0.73,0,1.08,0.14,1.26,0.52c0.34,0.7,2.36,5.04,2.69,5.76l-1.79,0.34V9.1c0-0.16-0.13-0.3-0.3-0.3
		h-1.18c-0.16,0-0.3,0.13-0.3,0.3v4.98c0,0.16,0.13,0.3,0.3,0.3h0.89v1.93h-1.4c0.06-0.16,0.1-0.34,0.1-0.55
		c0-0.63-0.61-1.13-1.38-1.13h-2.04v-1.32c0-1.27-1.04-2.31-2.31-2.31s-2.31,1.04-2.31,2.31v1.57c-0.1-0.04-0.22-0.07-0.34-0.07
		c-0.51,0-0.93,0.42-0.93,0.93v3.35c0,1.03,0.38,1.63,0.71,2.17c0.27,0.43,0.49,0.8,0.49,1.34v4.8c0,0.16,0.13,0.3,0.3,0.3h1.12
		c0.16,0,0.3-0.13,0.3-0.3v-4.62c0-0.06,0.05-0.1,0.1-0.1h3.55v4.33c0,0.38,0.31,0.69,0.69,0.69h9.98c0.38,0,0.69-0.31,0.69-0.69
		v-10C24.97,16.62,24.65,16.31,24.27,16.31z M17.06,13.79V9.4h0.59v1.23v3.16H17.06z M18.24,14.08v-3.21l2.7-0.51
		c0.68,1.15,1.74,4.3,2.01,5.95h-4.72V14.08z M13.6,17.01v1.27h-0.57c-0.06,0-0.1-0.05-0.1-0.1v-1.28h0.69
		C13.6,16.93,13.6,16.97,13.6,17.01z M8.9,13.31c0-0.95,0.77-1.72,1.72-1.72s1.72,0.77,1.72,1.72v1.32h-0.68
		c-0.16,0-0.3,0.13-0.3,0.3s0.13,0.3,0.3,0.3h3.32c0.44,0,0.79,0.23,0.79,0.53c0,0.35-0.12,0.53-0.35,0.53h-4.33
		c-0.57,0-1.03-0.46-1.03-1.03V13.4c0-0.16-0.13-0.3-0.3-0.3c-0.16,0-0.3,0.13-0.3,0.3v1.87c0,0.9,0.73,1.62,1.62,1.62h1.26v1.28
		c0,0.38,0.31,0.69,0.69,0.69h0.57v1.95h-2.94c-0.95,0-1.76-0.79-1.76-1.72v-3.35L8.9,13.31L8.9,13.31z M10.05,22.09
		c-0.38,0-0.69,0.31-0.69,0.69v4.33H8.83v-4.5c0-0.71-0.3-1.19-0.58-1.65c-0.32-0.51-0.62-1-0.62-1.86v-3.35
		c0-0.19,0.15-0.34,0.34-0.34s0.34,0.15,0.34,0.34v3.35c0,1.27,1.06,2.31,2.35,2.31h2.94v0.68L10.05,22.09L10.05,22.09z
		 M24.37,27.01c0,0.06-0.05,0.1-0.1,0.1h-9.98c-0.06,0-0.1-0.05-0.1-0.1v-10c0-0.06,0.05-0.1,0.1-0.1h9.98c0.06,0,0.1,0.05,0.1,0.1
		V27.01z"/>
</g>
</svg>
