<?xml version="1.0" encoding="utf-8"?>
<!-- Generator: Adobe Illustrator 21.1.0, SVG Export Plug-In . SVG Version: 6.00 Build 0)  -->
<!DOCTYPE svg PUBLIC "-//W3C//DTD SVG 1.1//EN" "http://www.w3.org/Graphics/SVG/1.1/DTD/svg11.dtd">
<svg version="1.1" id="Layer_1" xmlns="http://www.w3.org/2000/svg" xmlns:xlink="http://www.w3.org/1999/xlink" x="0px" y="0px"
	 viewBox="0 0 32 32" style="enable-background:new 0 0 32 32;" xml:space="preserve">
<path d="M25.92,22.4c0,0-0.01,0-0.01,0C25.91,22.4,25.91,22.4,25.92,22.4z M16.91,22.14c0-0.05,0-0.1-0.01-0.15
	C16.9,22.04,16.91,22.09,16.91,22.14z M6.64,22.42c0.04,0,0.08-0.01,0.12-0.01C6.71,22.41,6.67,22.42,6.64,22.42
	C6.63,22.42,6.64,22.42,6.64,22.42L6.64,22.42z M7,22.32c-0.06,0.03-0.12,0.06-0.18,0.07C6.88,22.38,6.94,22.36,7,22.32z
	 M16.78,21.74c0.02,0.03,0.03,0.06,0.05,0.08C16.82,21.79,16.8,21.76,16.78,21.74z M25.73,22.42c0.01,0,0.01,0,0.02,0
	c-0.02,0-0.03,0-0.05,0C25.71,22.42,25.72,22.42,25.73,22.42z M16.44,27.88c-0.03,0.01-0.07,0.03-0.11,0.03
	C16.37,27.91,16.4,27.9,16.44,27.88z M6.51,22.4c-0.02,0-0.04,0-0.06-0.01C6.47,22.4,6.49,22.4,6.51,22.4z M11.51,18.63
	c0.01,0.01,0.03,0.02,0.04,0.03C11.53,18.65,11.52,18.64,11.51,18.63z M11.37,18.53c0.01,0.01,0.03,0.02,0.04,0.03
	C11.39,18.54,11.38,18.53,11.37,18.53z M26.11,22.31c-0.01,0.01-0.03,0.02-0.04,0.02C26.08,22.33,26.1,22.32,26.11,22.31z
	 M10.83,18.47c0.02,0,0.03-0.01,0.05-0.01C10.86,18.46,10.84,18.46,10.83,18.47z M16.7,21.63c0.03,0.03,0.05,0.06,0.07,0.09
	C16.75,21.69,16.72,21.66,16.7,21.63z M11.03,18.44c-0.01,0-0.02,0-0.03,0c0.02,0,0.03,0,0.05,0
	C11.04,18.44,11.03,18.44,11.03,18.44L11.03,18.44z M11.2,18.46c0,0,0.01,0,0.01,0C11.21,18.46,11.2,18.46,11.2,18.46z M16.85,21.86
	c0.01,0.03,0.02,0.06,0.03,0.09C16.87,21.92,16.86,21.89,16.85,21.86z M15.56,21.78c0.01-0.02,0.02-0.03,0.03-0.05
	C15.58,21.75,15.57,21.77,15.56,21.78z M15.64,21.67c0.01-0.01,0.02-0.03,0.04-0.04C15.66,21.64,15.65,21.66,15.64,21.67z
	 M15.49,21.93c0.01-0.03,0.01-0.05,0.02-0.08C15.51,21.88,15.5,21.91,15.49,21.93z M15.73,21.59c0.02-0.01,0.03-0.03,0.06-0.05
	C15.76,21.55,15.74,21.57,15.73,21.59z M26.25,22.2c-0.01,0.01-0.02,0.02-0.04,0.03C26.22,22.22,26.24,22.21,26.25,22.2z
	 M16.59,21.54c0.03,0.02,0.06,0.04,0.08,0.07C16.64,21.58,16.62,21.56,16.59,21.54z M15.46,22.14c0-0.05,0.01-0.1,0.02-0.15
	C15.47,22.04,15.46,22.09,15.46,22.14z M16.18,27.93c0.03,0,0.06,0,0.08-0.01C16.24,27.93,16.21,27.93,16.18,27.93
	C16.18,27.93,16.18,27.93,16.18,27.93z M16.33,21.43c0.03,0.01,0.06,0.02,0.09,0.03C16.39,21.45,16.36,21.44,16.33,21.43z
	 M16.56,27.82c-0.03,0.02-0.07,0.04-0.1,0.06C16.5,27.86,16.53,27.84,16.56,27.82z M16.19,21.42
	C16.18,21.42,16.18,21.42,16.19,21.42c0.03,0,0.06,0,0.08,0.01C16.24,21.42,16.21,21.42,16.19,21.42z M16.18,21.42
	c-0.03,0-0.06,0-0.08,0.01C16.13,21.42,16.16,21.42,16.18,21.42C16.18,21.42,16.18,21.42,16.18,21.42L16.18,21.42z M15.96,21.46
	c0.03-0.01,0.05-0.02,0.08-0.02C16.01,21.44,15.99,21.45,15.96,21.46z M15.83,21.51c0.02-0.01,0.04-0.03,0.07-0.04
	C15.88,21.48,15.86,21.5,15.83,21.51z M16.47,21.47c0.03,0.01,0.05,0.03,0.08,0.04C16.52,21.5,16.49,21.49,16.47,21.47z
	 M21.52,15.82c0.01-0.01,0.01-0.03,0.02-0.04C21.53,15.79,21.52,15.81,21.52,15.82z M21.59,15.72c0.01-0.02,0.02-0.03,0.04-0.05
	C21.61,15.69,21.6,15.7,21.59,15.72z M27.87,15.9c0.01,0.03,0.02,0.06,0.03,0.09C27.89,15.96,27.89,15.93,27.87,15.9z M27.92,16.04
	c0.01,0.05,0.01,0.1,0.01,0.15C27.93,16.14,27.93,16.09,27.92,16.04z M21.42,16.18c0-0.05,0-0.1,0.01-0.15
	C21.42,16.08,21.42,16.13,21.42,16.18z M21.47,15.92c0-0.01,0-0.01,0.01-0.02C21.47,15.91,21.47,15.92,21.47,15.92z M11.19,26.23
	c-0.01,0.01-0.02,0.02-0.04,0.03C11.16,26.25,11.18,26.24,11.19,26.23z M13.36,20.64c0.02,0,0.03,0.01,0.05,0.01
	C13.39,20.64,13.37,20.64,13.36,20.64z M10.86,26.43c0,0-0.01,0-0.01,0C10.85,26.43,10.85,26.43,10.86,26.43z M11.05,26.34
	c-0.01,0.01-0.03,0.02-0.04,0.03C11.02,26.36,11.04,26.35,11.05,26.34z M12.83,20.73c0.01-0.01,0.03-0.02,0.04-0.02
	C12.85,20.71,12.84,20.72,12.83,20.73z M13.21,20.62c-0.01,0-0.01,0-0.02,0c0.02,0,0.03,0,0.05,0
	C13.23,20.62,13.22,20.62,13.21,20.62L13.21,20.62z M13.02,20.64c0,0,0.01,0,0.01,0C13.03,20.64,13.02,20.64,13.02,20.64z
	 M21.78,15.56c0.02-0.01,0.05-0.03,0.07-0.04C21.83,15.53,21.81,15.54,21.78,15.56z M12.69,20.84c0.01-0.01,0.02-0.02,0.04-0.03
	C12.71,20.82,12.7,20.83,12.69,20.84z M21.68,15.63c0.02-0.02,0.03-0.03,0.06-0.05C21.71,15.6,21.7,15.61,21.68,15.63z M26.21,10.14
	c0.01,0.01,0.02,0.02,0.04,0.03C26.24,10.16,26.23,10.15,26.21,10.14z M21.92,15.5c0.02-0.01,0.05-0.02,0.07-0.02
	C21.97,15.48,21.94,15.49,21.92,15.5z M10.52,26.43c-0.02,0-0.03-0.01-0.05-0.01C10.49,26.43,10.5,26.43,10.52,26.43z M22.14,15.46
	c-0.03,0-0.05,0.01-0.08,0.01C22.09,15.47,22.11,15.46,22.14,15.46L22.14,15.46z M11.01,6c0.01,0.01,0.03,0.02,0.04,0.03
	C11.04,6.02,11.03,6.01,11.01,6z M19.34,20.64c0,0,0.01,0,0.01,0C19.34,20.64,19.34,20.64,19.34,20.64z M19.5,20.71
	c0.01,0.01,0.03,0.02,0.04,0.03C19.53,20.72,19.52,20.71,19.5,20.71z M19.64,20.81c0.01,0.01,0.02,0.02,0.04,0.03
	C19.67,20.83,19.65,20.82,19.64,20.81z M19.16,20.62c-0.01,0-0.02,0-0.03,0c0.02,0,0.03,0,0.05,0
	C19.17,20.62,19.17,20.62,19.16,20.62z M18.96,20.65c0.02,0,0.03-0.01,0.05-0.01C18.99,20.64,18.98,20.64,18.96,20.65z M25.73,9.95
	c-0.01,0-0.02,0-0.03,0c0.02,0,0.03,0,0.05,0C25.74,9.95,25.74,9.95,25.73,9.95L25.73,9.95z M19.01,11.73
	c-0.02,0-0.03-0.01-0.05-0.01C18.98,11.72,18.99,11.73,19.01,11.73z M25.53,9.98c0.02-0.01,0.03-0.01,0.05-0.01
	C25.56,9.97,25.55,9.98,25.53,9.98z M16.18,4.44C16.18,4.44,16.18,4.44,16.18,4.44c0.03,0,0.06,0.01,0.08,0.01
	C16.24,4.44,16.21,4.44,16.18,4.44z M21.34,18.44c-0.01,0-0.01,0-0.02,0c0.02,0,0.03,0,0.05,0C21.36,18.44,21.35,18.44,21.34,18.44z
	 M16.33,4.45c0.03,0.01,0.06,0.02,0.09,0.03C16.39,4.47,16.36,4.46,16.33,4.45z M21.7,26.45c0.04,0,0.08-0.01,0.12-0.01
	C21.77,26.45,21.73,26.45,21.7,26.45C21.69,26.45,21.69,26.45,21.7,26.45z M21.49,18.46c0.02,0,0.03,0.01,0.05,0.01
	C21.53,18.46,21.51,18.46,21.49,18.46z M22.06,26.36c-0.06,0.03-0.12,0.06-0.18,0.07C21.94,26.42,22,26.39,22.06,26.36z
	 M21.57,26.44c-0.02,0-0.04,0-0.06-0.01C21.53,26.43,21.55,26.43,21.57,26.44z M26.07,10.04c0.01,0.01,0.03,0.02,0.04,0.02
	C26.1,10.05,26.08,10.04,26.07,10.04z M25.91,9.97C25.91,9.97,25.91,9.97,25.91,9.97C25.91,9.97,25.91,9.97,25.91,9.97z M21.32,6.03
	c0.01-0.01,0.03-0.02,0.04-0.03C21.34,6.01,21.33,6.02,21.32,6.03z M19.16,11.75c0.01,0,0.01,0,0.02,0c-0.02,0-0.03,0-0.05,0
	C19.14,11.75,19.15,11.75,19.16,11.75L19.16,11.75z M16.47,4.49c0.03,0.01,0.06,0.03,0.08,0.05C16.52,4.52,16.49,4.51,16.47,4.49z
	 M21.7,13.83c-0.06,0.03-0.12,0.06-0.18,0.07C21.58,13.89,21.64,13.86,21.7,13.83z M21.21,13.91c-0.02,0-0.04,0-0.06-0.01
	C21.17,13.91,21.19,13.91,21.21,13.91z M21.34,13.93c0.04,0,0.08-0.01,0.12-0.02C21.42,13.92,21.38,13.93,21.34,13.93
	C21.34,13.93,21.34,13.93,21.34,13.93z M21.18,6.14c0.01-0.01,0.02-0.02,0.04-0.03C21.2,6.11,21.19,6.12,21.18,6.14z M19.68,11.53
	c-0.01,0.01-0.02,0.02-0.04,0.03C19.65,11.55,19.67,11.54,19.68,11.53z M19.54,11.64c-0.01,0.01-0.03,0.02-0.04,0.02
	C19.51,11.65,19.53,11.65,19.54,11.64z M19.35,11.73C19.34,11.73,19.34,11.73,19.35,11.73C19.34,11.73,19.34,11.73,19.35,11.73z
	 M21.85,5.93c0.02,0,0.03,0.01,0.05,0.01C21.88,5.94,21.86,5.94,21.85,5.93z M21.51,5.94C21.51,5.94,21.52,5.94,21.51,5.94
	C21.52,5.94,21.51,5.94,21.51,5.94z M21.7,5.91c-0.01,0-0.01,0-0.02,0c0.02,0,0.03,0,0.05,0C21.72,5.92,21.71,5.91,21.7,5.91
	L21.7,5.91z M21.16,18.46c0,0,0.01,0,0.01,0C21.16,18.46,21.16,18.46,21.16,18.46z M11.03,13.93c0.01,0,0.01,0,0.02,0
	c-0.02,0-0.03,0-0.05,0C11.01,13.93,11.02,13.93,11.03,13.93L11.03,13.93z M11.21,13.91c0,0-0.01,0-0.01,0
	C11.2,13.91,11.21,13.91,11.21,13.91z M11.54,13.71c-0.01,0.01-0.02,0.02-0.04,0.03C11.52,13.73,11.53,13.72,11.54,13.71z
	 M6.26,10.06c0.01-0.01,0.03-0.02,0.04-0.02C6.28,10.04,6.27,10.05,6.26,10.06z M6.79,9.97c0.02,0,0.03,0.01,0.05,0.01
	C6.82,9.97,6.8,9.97,6.79,9.97z M6.45,9.97c0,0,0.01,0,0.01,0C6.46,9.97,6.45,9.97,6.45,9.97z M6.64,9.95c-0.01,0-0.01,0-0.02,0
	c0.02,0,0.03,0,0.05,0C6.66,9.95,6.65,9.95,6.64,9.95L6.64,9.95z M11.41,13.82c-0.01,0.01-0.03,0.02-0.04,0.02
	C11.38,13.83,11.39,13.83,11.41,13.82z M10.88,13.91c-0.02,0-0.03-0.01-0.05-0.01C10.84,13.9,10.86,13.91,10.88,13.91z M16.77,27.63
	c-0.02,0.03-0.05,0.06-0.07,0.09C16.72,27.69,16.74,27.66,16.77,27.63z M16.59,4.56c0.03,0.02,0.06,0.04,0.08,0.07
	C16.65,4.6,16.62,4.58,16.59,4.56z M16.83,27.53c-0.01,0.03-0.03,0.06-0.05,0.09C16.8,27.59,16.81,27.56,16.83,27.53z M20.82,18.66
	c0.01-0.01,0.02-0.02,0.04-0.03C20.85,18.64,20.84,18.65,20.82,18.66z M25.58,22.4c-0.02,0-0.03-0.01-0.05-0.01
	C25.55,22.39,25.56,22.4,25.58,22.4z M16.86,27.45c0,0.01-0.01,0.03-0.01,0.04C16.85,27.48,16.86,27.46,16.86,27.45z M10.47,5.94
	c0.02-0.01,0.03-0.01,0.05-0.01C10.5,5.94,10.49,5.94,10.47,5.94z M16.67,27.74c-0.03,0.03-0.06,0.05-0.09,0.07
	C16.62,27.79,16.65,27.76,16.67,27.74z M10.67,5.91c-0.01,0-0.02,0-0.03,0c0.02,0,0.03,0,0.05,0C10.69,5.92,10.68,5.91,10.67,5.91z
	 M16.78,4.76c0.02,0.03,0.04,0.07,0.06,0.11C16.82,4.82,16.81,4.79,16.78,4.76z M16.7,4.65c0.03,0.03,0.05,0.06,0.07,0.09
	C16.74,4.71,16.72,4.68,16.7,4.65z M16.85,4.88c0.04,0.09,0.06,0.18,0.06,0.28C16.91,5.06,16.89,4.96,16.85,4.88z M10.85,5.94
	C10.85,5.94,10.85,5.94,10.85,5.94C10.85,5.94,10.85,5.94,10.85,5.94z M13.57,11.65c-0.06,0.03-0.12,0.06-0.18,0.07
	C13.45,11.71,13.51,11.69,13.57,11.65z M13.08,11.73c-0.02,0-0.04,0-0.06-0.01C13.04,11.73,13.06,11.73,13.08,11.73z M20.96,18.55
	c0.01-0.01,0.03-0.02,0.04-0.02C20.99,18.53,20.97,18.54,20.96,18.55z M13.21,11.75c0.04,0,0.08-0.01,0.12-0.02
	C13.28,11.74,13.24,11.75,13.21,11.75C13.2,11.75,13.21,11.75,13.21,11.75z M11.15,6.1c0.01,0.01,0.02,0.02,0.04,0.03
	C11.18,6.12,11.17,6.11,11.15,6.1z M6.12,10.17c0.01-0.01,0.03-0.02,0.04-0.03C6.14,10.15,6.13,10.16,6.12,10.17z M10.67,26.45
	c0.01,0,0.01,0,0.02,0c-0.02,0-0.03,0-0.05,0C10.65,26.45,10.66,26.45,10.67,26.45L10.67,26.45z M27.61,15.59
	c0.02,0.02,0.04,0.03,0.06,0.05C27.65,15.62,27.64,15.6,27.61,15.59z M27.49,15.52c0.03,0.01,0.05,0.03,0.07,0.04
	C27.54,15.55,27.52,15.53,27.49,15.52z M27.21,15.46C27.21,15.46,27.21,15.46,27.21,15.46c0.03,0,0.05,0.01,0.08,0.01
	C27.26,15.47,27.24,15.46,27.21,15.46z M27.35,15.48c0.03,0.01,0.06,0.02,0.08,0.03C27.41,15.49,27.38,15.48,27.35,15.48z
	 M27.72,15.67c0.02,0.02,0.03,0.04,0.05,0.06C27.75,15.71,27.74,15.69,27.72,15.67z M27.81,15.78c0.02,0.02,0.03,0.05,0.04,0.08
	C27.84,15.83,27.82,15.81,27.81,15.78z M18.65,11.92c0.16,0.09,0.33,0.14,0.51,0.14c0.37,0,0.71-0.2,0.89-0.52l2.53-4.39
	c0.14-0.24,0.17-0.52,0.1-0.78s-0.24-0.49-0.48-0.62c-0.16-0.09-0.33-0.14-0.51-0.14c-0.37,0-0.71,0.2-0.89,0.51l-2.54,4.39
	C17.99,11,18.15,11.63,18.65,11.92L18.65,11.92z M18.53,10.66l2.54-4.39c0.03-0.05,0.07-0.1,0.11-0.14
	c0.01-0.01,0.02-0.02,0.04-0.03c0.03-0.03,0.07-0.05,0.1-0.08c0.01-0.01,0.03-0.02,0.04-0.03c0.05-0.03,0.1-0.05,0.16-0.06
	c0,0,0.01,0,0.01,0c0.05-0.01,0.1-0.02,0.16-0.02c0.01,0,0.01,0,0.02,0c0.01,0,0.02,0,0.03,0c0.04,0,0.08,0.01,0.12,0.02
	c0.02,0,0.03,0.01,0.05,0.01c0.05,0.02,0.11,0.04,0.16,0.07c0.35,0.2,0.47,0.64,0.26,0.99l-2.54,4.39c-0.03,0.05-0.07,0.1-0.11,0.14
	c-0.01,0.01-0.02,0.02-0.04,0.03c-0.03,0.03-0.07,0.05-0.1,0.08c-0.01,0.01-0.03,0.02-0.04,0.02c-0.05,0.03-0.1,0.05-0.16,0.06
	c0,0,0,0-0.01,0c-0.05,0.01-0.1,0.02-0.16,0.02c-0.01,0-0.01,0-0.02,0c-0.01,0-0.02,0-0.03,0c-0.04,0-0.08-0.01-0.12-0.02
	c-0.02,0-0.03-0.01-0.05-0.01c-0.06-0.02-0.11-0.04-0.16-0.07C18.46,11.45,18.34,11.01,18.53,10.66L18.53,10.66z M5.88,11.99
	l4.39,2.54c0.23,0.13,0.49,0.2,0.76,0.2c0.54,0,1.05-0.29,1.32-0.76c0.2-0.35,0.26-0.76,0.15-1.15c-0.06-0.22-0.17-0.42-0.31-0.59
	c0.07,0.06,0.15,0.12,0.23,0.17c0.24,0.14,0.52,0.21,0.79,0.21c0.28,0,0.55-0.07,0.79-0.21c0.49-0.28,0.77-0.79,0.78-1.32
	c0.14,0.23,0.34,0.43,0.58,0.57c0.25,0.15,0.54,0.22,0.82,0.22c0.91,0,1.64-0.74,1.64-1.64l0-5.07c0-0.91-0.74-1.64-1.64-1.64h0
	c-0.91,0-1.64,0.74-1.64,1.64l0,5.02l-2.5-4.33c-0.28-0.49-0.81-0.79-1.37-0.79c-0.28,0-0.55,0.07-0.79,0.21
	C9.13,5.7,8.87,6.67,9.3,7.43l2.53,4.39c0.05,0.08,0.1,0.15,0.16,0.23c-0.07-0.06-0.14-0.11-0.21-0.15L7.4,9.36
	c-0.23-0.13-0.49-0.2-0.76-0.2l0,0c-0.54,0-1.05,0.29-1.32,0.76c-0.2,0.35-0.26,0.76-0.15,1.15S5.52,11.78,5.88,11.99L5.88,11.99z
	 M15.46,5.16c0-0.4,0.32-0.72,0.72-0.72c0,0,0,0,0,0c0.03,0,0.06,0.01,0.08,0.01c0.02,0,0.04,0,0.06,0.01
	c0.03,0.01,0.06,0.02,0.09,0.03c0.02,0.01,0.03,0.01,0.05,0.01c0.03,0.01,0.06,0.03,0.08,0.05c0.01,0.01,0.03,0.01,0.04,0.02
	c0.03,0.02,0.06,0.04,0.08,0.07c0.01,0.01,0.02,0.01,0.02,0.02c0.03,0.03,0.05,0.06,0.07,0.09c0.01,0.01,0.01,0.01,0.02,0.02
	c0.02,0.03,0.04,0.07,0.06,0.11c0,0.01,0.01,0.01,0.01,0.02c0.04,0.09,0.06,0.18,0.06,0.28l0,5.07c0,0.4-0.32,0.72-0.72,0.72
	c-0.13,0-0.25-0.04-0.36-0.1c-0.22-0.12-0.36-0.36-0.36-0.63L15.46,5.16L15.46,5.16z M10.05,7c-0.2-0.35-0.08-0.79,0.27-0.99
	c0.05-0.03,0.11-0.05,0.16-0.07c0.02-0.01,0.03-0.01,0.05-0.01c0.04-0.01,0.08-0.01,0.12-0.02c0.01,0,0.02,0,0.03,0
	c0.01,0,0.01,0,0.02,0c0.05,0,0.1,0.01,0.16,0.02c0,0,0.01,0,0.01,0c0.05,0.01,0.11,0.04,0.15,0.06c0.01,0.01,0.03,0.02,0.04,0.03
	c0.04,0.02,0.07,0.05,0.1,0.08c0.01,0.01,0.02,0.02,0.04,0.03c0.04,0.04,0.08,0.09,0.11,0.14l2.53,4.39
	c0.2,0.35,0.08,0.79-0.27,0.99c-0.06,0.03-0.12,0.06-0.18,0.07c-0.02,0.01-0.04,0.01-0.06,0.01c-0.04,0.01-0.08,0.02-0.12,0.02
	c0,0,0,0,0,0c-0.04,0-0.08-0.01-0.12-0.02c-0.02,0-0.04,0-0.06-0.01c-0.06-0.02-0.12-0.04-0.17-0.07c-0.11-0.06-0.2-0.15-0.26-0.26
	L10.05,7L10.05,7z M6.01,10.31c0.03-0.05,0.07-0.1,0.11-0.14c0.01-0.01,0.03-0.02,0.04-0.03c0.03-0.03,0.07-0.05,0.1-0.08
	c0.01-0.01,0.03-0.02,0.04-0.02c0.05-0.03,0.1-0.05,0.15-0.06c0,0,0.01,0,0.01,0c0.05-0.01,0.1-0.02,0.16-0.02c0.01,0,0.01,0,0.02,0
	c0.01,0,0.02,0,0.03,0c0.04,0,0.08,0.01,0.12,0.02c0.02,0,0.03,0.01,0.05,0.01C6.89,9.99,6.95,10.02,7,10.04l4.39,2.54
	c0.35,0.2,0.46,0.64,0.26,0.99c-0.03,0.05-0.07,0.1-0.11,0.14c-0.01,0.01-0.02,0.02-0.04,0.03c-0.03,0.03-0.06,0.05-0.1,0.08
	c-0.01,0.01-0.03,0.02-0.04,0.02c-0.05,0.03-0.1,0.05-0.15,0.06c0,0-0.01,0-0.01,0c-0.05,0.01-0.1,0.02-0.15,0.02
	c-0.01,0-0.01,0-0.02,0c-0.01,0-0.02,0-0.03,0c-0.04,0-0.08-0.01-0.12-0.02c-0.02,0-0.03-0.01-0.05-0.01
	c-0.05-0.02-0.11-0.04-0.16-0.07L6.27,11.3C5.93,11.1,5.81,10.65,6.01,10.31L6.01,10.31z M4.43,17.45c0.22,0.13,0.47,0.19,0.73,0.19
	l5.07,0c0.81,0,1.46-0.66,1.46-1.46c0-0.8-0.65-1.46-1.46-1.46l-5.07,0c-0.8,0-1.46,0.65-1.46,1.46C3.7,16.7,3.98,17.19,4.43,17.45
	L4.43,17.45z M5.16,15.46l5.07,0c0.4,0,0.72,0.32,0.72,0.72c0,0.4-0.32,0.72-0.72,0.72l-5.07,0c-0.13,0-0.25-0.03-0.36-0.1
	c-0.22-0.12-0.36-0.36-0.36-0.63C4.44,15.78,4.76,15.46,5.16,15.46z M12.24,18.46c-0.25-0.43-0.71-0.7-1.21-0.7
	c-0.24,0-0.48,0.06-0.7,0.19l-4.39,2.53c-0.32,0.19-0.55,0.49-0.65,0.85c-0.1,0.36-0.05,0.74,0.14,1.06
	c0.12,0.21,0.3,0.39,0.51,0.51c0.21,0.12,0.45,0.19,0.7,0.19c0.24,0,0.49-0.07,0.7-0.19l4.39-2.53
	C12.39,19.99,12.62,19.13,12.24,18.46z M11.39,19.79L7,22.32c-0.06,0.03-0.12,0.06-0.18,0.07c-0.02,0.01-0.04,0-0.07,0.01
	c-0.04,0.01-0.08,0.01-0.12,0.01c0,0,0,0,0,0c-0.04,0-0.08-0.01-0.12-0.02c-0.02,0-0.04,0-0.06-0.01c-0.06-0.02-0.12-0.04-0.17-0.07
	c-0.11-0.06-0.2-0.15-0.26-0.26c-0.2-0.35-0.08-0.79,0.26-0.99l4.39-2.53c0.05-0.03,0.11-0.05,0.16-0.07c0.02,0,0.03-0.01,0.05-0.01
	c0.04-0.01,0.08-0.01,0.12-0.01c0.01,0,0.02,0,0.03,0c0.01,0,0.01,0,0.02,0c0.05,0,0.1,0.01,0.15,0.02c0,0,0.01,0,0.01,0
	c0.05,0.01,0.1,0.04,0.15,0.06c0.01,0.01,0.03,0.02,0.04,0.03c0.03,0.02,0.07,0.05,0.1,0.08c0.01,0.01,0.02,0.02,0.04,0.03
	c0.04,0.04,0.08,0.09,0.11,0.14C11.85,19.15,11.73,19.59,11.39,19.79L11.39,19.79z M10,26.89c0.2,0.12,0.43,0.18,0.67,0.18
	c0.48,0,0.92-0.26,1.16-0.67l2.53-4.39c0.18-0.31,0.23-0.67,0.13-1.01c-0.09-0.34-0.31-0.63-0.62-0.81
	c-0.2-0.12-0.43-0.18-0.67-0.18c-0.48,0-0.92,0.26-1.16,0.67l-2.53,4.39C9.15,25.7,9.37,26.52,10,26.89L10,26.89z M10.05,25.37
	l2.53-4.39c0.03-0.05,0.07-0.1,0.11-0.14c0.01-0.01,0.02-0.02,0.04-0.03c0.03-0.03,0.06-0.05,0.1-0.08
	c0.01-0.01,0.03-0.02,0.04-0.02c0.05-0.03,0.1-0.05,0.15-0.06c0,0,0.01,0,0.01,0c0.05-0.01,0.1-0.02,0.15-0.02c0.01,0,0.01,0,0.02,0
	c0.01,0,0.02,0,0.03,0c0.04,0,0.08,0.01,0.12,0.02c0.02,0,0.03,0.01,0.05,0.01c0.06,0.02,0.11,0.04,0.16,0.07
	c0.35,0.2,0.46,0.64,0.27,0.99l-2.53,4.39c-0.03,0.05-0.07,0.1-0.11,0.14c-0.01,0.01-0.02,0.02-0.04,0.03
	c-0.03,0.03-0.06,0.05-0.1,0.08c-0.01,0.01-0.03,0.02-0.04,0.03c-0.05,0.03-0.1,0.05-0.15,0.06c0,0-0.01,0-0.01,0
	c-0.05,0.01-0.1,0.02-0.15,0.02c-0.01,0-0.01,0-0.02,0c-0.01,0-0.02,0-0.03,0c-0.04,0-0.08-0.01-0.12-0.02
	c-0.02,0-0.03-0.01-0.05-0.01c-0.05-0.02-0.11-0.04-0.16-0.07C9.97,26.16,9.85,25.72,10.05,25.37L10.05,25.37z M16.19,20.87
	L16.19,20.87c-0.7,0-1.27,0.57-1.28,1.27l0,5.07c0,0.45,0.24,0.88,0.64,1.1c0.19,0.11,0.41,0.17,0.64,0.17
	c0.7,0,1.27-0.57,1.27-1.27l0-5.07c0-0.34-0.13-0.66-0.37-0.9C16.85,21,16.53,20.86,16.19,20.87L16.19,20.87z M16.91,27.21
	c0,0.08-0.02,0.16-0.04,0.24c0,0.01-0.01,0.03-0.01,0.04c-0.01,0.01-0.01,0.02-0.02,0.04c-0.01,0.03-0.03,0.06-0.05,0.09
	c0,0.01-0.01,0.01-0.02,0.02c-0.02,0.03-0.05,0.06-0.07,0.09c-0.01,0.01-0.01,0.01-0.02,0.02c-0.03,0.03-0.06,0.05-0.09,0.07
	c-0.01,0-0.01,0.01-0.02,0.01c-0.03,0.02-0.07,0.04-0.1,0.06c-0.01,0-0.02,0-0.03,0.01c-0.03,0.01-0.07,0.03-0.11,0.03
	c-0.02,0-0.04,0-0.06,0.01c-0.03,0-0.06,0.01-0.08,0.01c0,0,0,0,0,0c-0.13,0-0.25-0.03-0.36-0.1c-0.22-0.12-0.36-0.36-0.36-0.63
	l0-5.07c0-0.05,0.01-0.1,0.02-0.15c0-0.02,0.01-0.04,0.02-0.06c0.01-0.03,0.01-0.05,0.02-0.08c0.01-0.03,0.03-0.05,0.04-0.08
	c0.01-0.02,0.02-0.03,0.03-0.05c0.02-0.02,0.03-0.04,0.05-0.06c0.01-0.01,0.02-0.03,0.04-0.04c0.02-0.02,0.03-0.03,0.05-0.04
	c0.02-0.01,0.03-0.03,0.06-0.05c0.02-0.01,0.04-0.02,0.05-0.03c0.02-0.01,0.04-0.03,0.07-0.04c0.02-0.01,0.04-0.01,0.06-0.02
	c0.03-0.01,0.05-0.02,0.08-0.02c0.02,0,0.04,0,0.06-0.01c0.03,0,0.06-0.01,0.08-0.01c0,0,0,0,0,0h0c0.03,0,0.06,0,0.08,0.01
	c0.02,0,0.04,0,0.06,0.01c0.03,0.01,0.06,0.02,0.09,0.03c0.02,0.01,0.03,0.01,0.05,0.02c0.03,0.01,0.05,0.03,0.08,0.04
	c0.01,0.01,0.03,0.01,0.04,0.02c0.03,0.02,0.06,0.04,0.08,0.07c0.01,0.01,0.02,0.01,0.02,0.02c0.03,0.03,0.05,0.06,0.07,0.09
	c0,0.01,0.01,0.01,0.02,0.02c0.02,0.03,0.03,0.06,0.05,0.08c0.01,0.01,0.01,0.02,0.02,0.04c0.01,0.03,0.02,0.06,0.03,0.09
	c0,0.01,0.01,0.03,0.01,0.04c0.01,0.05,0.01,0.1,0.01,0.15L16.91,27.21L16.91,27.21z M20.64,26.34c0.11,0.18,0.26,0.34,0.44,0.44
	c0.19,0.11,0.4,0.16,0.61,0.16s0.42-0.06,0.61-0.16c0.28-0.16,0.48-0.42,0.57-0.74s0.04-0.64-0.12-0.92l-2.53-4.39
	c-0.22-0.37-0.62-0.61-1.05-0.61c-0.21,0-0.42,0.06-0.6,0.16c-0.58,0.33-0.78,1.08-0.44,1.66C18.11,21.95,20.64,26.34,20.64,26.34z
	 M18.8,20.71c0.05-0.03,0.11-0.05,0.16-0.07c0.02,0,0.03-0.01,0.05-0.01c0.04-0.01,0.08-0.01,0.12-0.02c0.01,0,0.02,0,0.03,0
	c0.01,0,0.01,0,0.02,0c0.05,0,0.1,0.01,0.16,0.02c0,0,0.01,0,0.01,0c0.05,0.01,0.1,0.04,0.15,0.06c0.01,0.01,0.03,0.02,0.04,0.03
	c0.03,0.02,0.07,0.05,0.1,0.08c0.01,0.01,0.02,0.02,0.04,0.03c0.04,0.04,0.08,0.09,0.11,0.14l2.53,4.39
	c0.2,0.35,0.08,0.79-0.26,0.99c-0.06,0.03-0.12,0.06-0.18,0.07c-0.02,0.01-0.04,0-0.07,0.01c-0.04,0.01-0.08,0.01-0.12,0.01
	c0,0,0,0,0,0c-0.04,0-0.08-0.01-0.13-0.02c-0.02,0-0.04,0-0.06-0.01c-0.06-0.02-0.12-0.04-0.17-0.07c-0.11-0.06-0.2-0.15-0.26-0.26
	l-2.53-4.39C18.33,21.36,18.45,20.91,18.8,20.71L18.8,20.71z M21.92,18.16c-0.17-0.1-0.37-0.15-0.58-0.15c-0.41,0-0.79,0.22-1,0.58
	c-0.15,0.26-0.2,0.58-0.12,0.87c0.08,0.3,0.27,0.55,0.54,0.7l4.39,2.54c0.17,0.1,0.37,0.15,0.58,0.15c0.41,0,0.79-0.22,1-0.58
	c0.32-0.55,0.13-1.25-0.42-1.57L21.92,18.16z M26.36,22.06c-0.03,0.05-0.07,0.1-0.11,0.14c-0.01,0.01-0.02,0.02-0.04,0.03
	c-0.03,0.03-0.07,0.05-0.1,0.08c-0.01,0.01-0.03,0.02-0.04,0.02c-0.05,0.03-0.1,0.05-0.15,0.06c0,0-0.01,0-0.01,0
	c-0.05,0.01-0.1,0.02-0.16,0.02c-0.01,0-0.01,0-0.02,0c-0.01,0-0.02,0-0.03,0c-0.04,0-0.08-0.01-0.12-0.02
	c-0.02,0-0.03-0.01-0.05-0.01c-0.05-0.02-0.11-0.04-0.16-0.07c0,0,0,0,0,0l-4.39-2.54c-0.35-0.2-0.46-0.64-0.26-0.99
	c0.03-0.05,0.07-0.1,0.11-0.14c0.01-0.01,0.02-0.02,0.04-0.03c0.03-0.03,0.07-0.05,0.1-0.08c0.01-0.01,0.03-0.02,0.04-0.02
	c0.05-0.03,0.1-0.05,0.15-0.06c0,0,0.01,0,0.01,0c0.05-0.01,0.1-0.02,0.16-0.02c0.01,0,0.01,0,0.02,0c0.01,0,0.02,0,0.03,0
	c0.04,0,0.08,0.01,0.12,0.02c0.02,0,0.03,0.01,0.05,0.01c0.06,0.02,0.11,0.04,0.16,0.07l4.39,2.54
	C26.44,21.27,26.55,21.71,26.36,22.06L26.36,22.06z M22.14,15.09c-0.6,0-1.09,0.49-1.09,1.09c0,0.39,0.21,0.75,0.55,0.94
	c0.17,0.09,0.35,0.15,0.54,0.15l5.07,0c0.6,0,1.09-0.49,1.09-1.09c0-0.6-0.49-1.09-1.09-1.09L22.14,15.09L22.14,15.09z M27.21,15.46
	c0.03,0,0.06,0.01,0.08,0.01c0.02,0,0.04,0,0.06,0.01c0.03,0.01,0.06,0.02,0.08,0.03c0.02,0.01,0.04,0.01,0.05,0.02
	c0.03,0.01,0.05,0.03,0.07,0.04c0.02,0.01,0.03,0.02,0.05,0.03c0.02,0.02,0.04,0.03,0.06,0.05c0.01,0.01,0.03,0.02,0.05,0.04
	c0.02,0.02,0.03,0.04,0.05,0.06c0.01,0.02,0.03,0.03,0.04,0.05c0.02,0.02,0.03,0.05,0.04,0.08c0.01,0.01,0.02,0.03,0.02,0.04
	c0.01,0.03,0.02,0.06,0.03,0.09c0,0.02,0.01,0.03,0.01,0.05c0.01,0.05,0.01,0.1,0.01,0.15c0,0.4-0.33,0.72-0.72,0.72l-5.07,0
	c-0.13,0-0.25-0.03-0.36-0.1c-0.22-0.12-0.36-0.36-0.36-0.63c0-0.05,0-0.1,0.01-0.15c0.01-0.04,0.02-0.08,0.03-0.11
	c0-0.01,0-0.01,0.01-0.02c0.01-0.03,0.03-0.05,0.04-0.08c0.01-0.01,0.01-0.03,0.02-0.04c0.01-0.02,0.03-0.04,0.05-0.06
	c0.01-0.02,0.02-0.03,0.04-0.05c0.02-0.02,0.03-0.03,0.05-0.04c0.02-0.02,0.03-0.03,0.06-0.05c0.02-0.01,0.03-0.02,0.05-0.03
	c0.02-0.01,0.05-0.03,0.07-0.04c0.02-0.01,0.04-0.01,0.06-0.02c0.02-0.01,0.05-0.02,0.07-0.02c0.02-0.01,0.05-0.01,0.07-0.01
	c0.03,0,0.05-0.01,0.08-0.01c0,0,0,0,0,0L27.21,15.46C27.21,15.46,27.21,15.46,27.21,15.46L27.21,15.46z M20.32,12.93
	c-0.07,0.27-0.04,0.56,0.11,0.8c0.09,0.16,0.23,0.3,0.39,0.39c0.16,0.09,0.34,0.14,0.53,0.14c0.18,0,0.37-0.05,0.53-0.14l4.39-2.53
	c0.25-0.14,0.42-0.37,0.49-0.65c0.07-0.27,0.03-0.56-0.11-0.8c-0.19-0.33-0.54-0.53-0.92-0.53c-0.18,0-0.37,0.05-0.53,0.14
	l-4.39,2.53C20.56,12.43,20.39,12.66,20.32,12.93L20.32,12.93z M20.98,12.58l4.39-2.53c0.05-0.03,0.11-0.05,0.16-0.07
	c0.02-0.01,0.03-0.01,0.05-0.01c0.04-0.01,0.08-0.01,0.12-0.02c0.01,0,0.02,0,0.03,0c0.01,0,0.01,0,0.02,0
	c0.05,0,0.11,0.01,0.16,0.02c0,0,0.01,0,0.01,0c0.05,0.01,0.11,0.04,0.16,0.06c0.01,0.01,0.03,0.02,0.04,0.02
	c0.04,0.02,0.07,0.05,0.1,0.08c0.01,0.01,0.02,0.02,0.04,0.03c0.04,0.04,0.08,0.09,0.11,0.14c0.2,0.35,0.08,0.79-0.26,0.99
	l-4.39,2.53c-0.06,0.03-0.12,0.06-0.18,0.07c-0.02,0.01-0.04,0.01-0.06,0.01c-0.04,0.01-0.08,0.02-0.12,0.02c0,0,0,0,0,0
	c-0.04,0-0.08-0.01-0.12-0.02c-0.02,0-0.04,0-0.06-0.01c-0.06-0.02-0.12-0.04-0.17-0.07c-0.11-0.06-0.2-0.15-0.26-0.26
	C20.51,13.22,20.63,12.78,20.98,12.58z"/>
</svg>
