<?xml version="1.0" encoding="utf-8"?>
<!-- Generator: Adobe Illustrator 21.1.0, SVG Export Plug-In . SVG Version: 6.00 Build 0)  -->
<!DOCTYPE svg PUBLIC "-//W3C//DTD SVG 1.1//EN" "http://www.w3.org/Graphics/SVG/1.1/DTD/svg11.dtd">
<svg version="1.1" id="Layer_1" xmlns="http://www.w3.org/2000/svg" xmlns:xlink="http://www.w3.org/1999/xlink" x="0px" y="0px"
	 viewBox="0 0 31.68 31.68" style="enable-background:new 0 0 31.68 31.68;" xml:space="preserve">
<g>
	<path d="M15.84,24.04c-0.09,0-0.17-0.04-0.23-0.11L8.4,15.26c-0.31-0.31-0.43-0.71-0.3-1.03c0.06-0.14,0.27-0.49,0.93-0.42
		l3.08,0.46V4.02c0-0.16,0.13-0.3,0.3-0.3h6.88c0.16,0,0.3,0.13,0.3,0.3v10.25l3.07-0.46c0.07-0.01,0.13-0.01,0.18-0.01
		c0.52,0,0.71,0.3,0.76,0.43c0.13,0.32,0.01,0.72-0.32,1.05l-7.19,8.66C16.01,24,15.93,24.04,15.84,24.04z M8.85,14.4
		c-0.13,0-0.2,0.03-0.21,0.06c-0.02,0.06,0.02,0.23,0.19,0.4l7,8.42l6.98-8.4c0.19-0.19,0.24-0.36,0.21-0.42
		c-0.02-0.04-0.13-0.07-0.31-0.05l-3.4,0.51c-0.09,0.01-0.17-0.01-0.24-0.07c-0.07-0.06-0.1-0.14-0.1-0.23V4.32H12.7v10.3
		c0,0.09-0.04,0.17-0.1,0.23s-0.15,0.08-0.24,0.07L8.95,14.4C8.92,14.4,8.89,14.4,8.85,14.4z"/>
	<path d="M22.81,27.96H8.87c-0.15,0-0.27-0.13-0.27-0.3v-2.23c0-0.16,0.12-0.3,0.27-0.3h13.93c0.15,0,0.27,0.13,0.27,0.3v2.23
		C23.08,27.83,22.96,27.96,22.81,27.96z M9.15,27.36h13.39v-1.64H9.15V27.36z"/>
</g>
</svg>
