<?xml version="1.0" encoding="utf-8"?>
<!-- Generator: Adobe Illustrator 21.1.0, SVG Export Plug-In . SVG Version: 6.00 Build 0)  -->
<!DOCTYPE svg PUBLIC "-//W3C//DTD SVG 1.1//EN" "http://www.w3.org/Graphics/SVG/1.1/DTD/svg11.dtd">
<svg version="1.1" id="Layer_1" xmlns="http://www.w3.org/2000/svg" xmlns:xlink="http://www.w3.org/1999/xlink" x="0px" y="0px"
	 viewBox="0 0 32 32" style="enable-background:new 0 0 32 32;" xml:space="preserve">
<path d="M18.19,15.55h-4.34v-4.34h3.99l-1.83,2.6l-0.77-1.37c-0.06-0.11-0.2-0.15-0.31-0.09c-0.11,0.06-0.15,0.2-0.09,0.31
	l0.95,1.69c0.04,0.07,0.11,0.11,0.19,0.12c0,0,0.01,0,0.01,0c0.08,0,0.15-0.04,0.19-0.1l2.01-2.85L18.19,15.55L18.19,15.55z
	 M19.17,9.73c-0.1-0.07-0.25-0.05-0.32,0.06l-0.57,0.81h-4.73c-0.17,0-0.31,0.14-0.31,0.31v4.95c0,0.17,0.14,0.31,0.31,0.31h4.95
	c0.17,0,0.31-0.14,0.31-0.31V10.9c0-0.07-0.03-0.12-0.06-0.17l0.48-0.68C19.29,9.95,19.27,9.8,19.17,9.73L19.17,9.73z M16.35,20.74
	l1.85-1.85v3.69C18.19,22.58,16.35,20.74,16.35,20.74z M16.02,21.06l1.85,1.85h-3.69L16.02,21.06L16.02,21.06z M14.18,18.56h3.69
	l-1.85,1.85C16.02,20.41,14.18,18.56,14.18,18.56z M15.7,20.74l-1.85,1.85v-3.69C13.85,18.89,15.7,20.74,15.7,20.74z M18.5,17.95
	h-4.95c-0.17,0-0.31,0.14-0.31,0.31v4.96c0,0.17,0.14,0.31,0.31,0.31h4.95c0.17,0,0.31-0.14,0.31-0.31v-4.96
	C18.81,18.09,18.67,17.95,18.5,17.95z M23.19,4.09H8.81C8,4.09,7.34,4.75,7.34,5.56v20.88c0,0.81,0.66,1.47,1.47,1.47h14.38
	c0.81,0,1.47-0.66,1.47-1.47V5.56C24.66,4.75,24,4.09,23.19,4.09z M24.05,26.44c0,0.47-0.39,0.86-0.86,0.86H8.81
	c-0.47,0-0.86-0.39-0.86-0.86V5.56c0-0.47,0.38-0.86,0.86-0.86h14.38c0.47,0,0.86,0.39,0.86,0.86L24.05,26.44L24.05,26.44z
	 M22.27,6.83H20V5.78c0-0.31-0.25-0.57-0.57-0.57h-6.86C12.25,5.21,12,5.46,12,5.78v1.05H9.73c-0.49,0-0.89,0.37-0.89,0.83v17.83
	c0,0.46,0.4,0.83,0.89,0.83h12.53c0.49,0,0.89-0.37,0.89-0.83V7.66C23.16,7.2,22.76,6.83,22.27,6.83L22.27,6.83z M12.46,6.83V5.78
	c0-0.06,0.05-0.11,0.11-0.11h6.86c0.06,0,0.11,0.05,0.11,0.11V7.5c0,0.06-0.05,0.11-0.11,0.11h-6.86c-0.06,0-0.11-0.05-0.11-0.11
	V7.29V6.83z M22.69,25.49c0,0.2-0.19,0.37-0.43,0.37H9.73c-0.24,0-0.43-0.17-0.43-0.37V7.66c0-0.2,0.19-0.37,0.43-0.37H12V7.5
	c0,0.31,0.25,0.57,0.57,0.57h6.86C19.75,8.07,20,7.81,20,7.5V7.29h2.27c0.24,0,0.43,0.16,0.43,0.37V25.49z"/>
</svg>
