<?xml version="1.0" encoding="utf-8"?>
<!-- Generator: Adobe Illustrator 21.1.0, SVG Export Plug-In . SVG Version: 6.00 Build 0)  -->
<!DOCTYPE svg PUBLIC "-//W3C//DTD SVG 1.1//EN" "http://www.w3.org/Graphics/SVG/1.1/DTD/svg11.dtd">
<svg version="1.1" id="Layer_1" xmlns="http://www.w3.org/2000/svg" xmlns:xlink="http://www.w3.org/1999/xlink" x="0px" y="0px"
	 viewBox="0 0 32 32" style="enable-background:new 0 0 32 32;" xml:space="preserve">
<path d="M24.38,8.73H7.62c-0.68,0-1.24,0.56-1.24,1.24v10.41c0,0.68,0.56,1.24,1.24,1.24h5.44v1.03h-1.67
	c-0.17,0-0.31,0.14-0.31,0.31s0.14,0.31,0.31,0.31h9.21c0.17,0,0.31-0.14,0.31-0.31s-0.14-0.31-0.31-0.31h-1.67v-1.03h5.44
	c0.68,0,1.24-0.56,1.24-1.24V9.97C25.61,9.29,25.06,8.73,24.38,8.73L24.38,8.73z M13.68,22.66v-0.92h4.64v0.92
	C18.32,22.66,13.68,22.66,13.68,22.66z M25,20.41c0,0.35-0.28,0.63-0.63,0.63H7.63C7.28,21.04,7,20.76,7,20.41V9.97
	c0-0.35,0.28-0.63,0.63-0.63h16.75c0.35,0,0.63,0.28,0.63,0.63V20.41L25,20.41z M8.45,20.45h15.1c0.42,0,0.76-0.37,0.76-0.82v-8.76
	c0-0.45-0.34-0.82-0.76-0.82H8.45c-0.42,0-0.76,0.37-0.76,0.82v8.76C7.69,20.08,8.03,20.45,8.45,20.45z M8.14,10.87
	c0-0.2,0.14-0.36,0.31-0.36h15.1c0.17,0,0.31,0.16,0.31,0.36v8.76c0,0.2-0.14,0.36-0.31,0.36H8.45c-0.17,0-0.31-0.16-0.31-0.36
	C8.14,19.63,8.14,10.87,8.14,10.87z M15.01,17.96h-4.82c-0.57,0-1.04-0.47-1.04-1.04v-3c0-0.57,0.47-1.04,1.04-1.04h4.82
	c0.57,0,1.04,0.47,1.04,1.04v3C16.05,17.5,15.58,17.96,15.01,17.96z M10.18,13.2c-0.4,0-0.73,0.33-0.73,0.73v3
	c0,0.4,0.33,0.73,0.73,0.73h4.82c0.4,0,0.73-0.33,0.73-0.73v-3c0-0.4-0.33-0.73-0.73-0.73C15.01,13.2,10.18,13.2,10.18,13.2z
	 M22.81,14.15h-5.78c-0.08,0-0.15-0.07-0.15-0.15s0.07-0.15,0.15-0.15h5.78c0.08,0,0.15,0.07,0.15,0.15S22.9,14.15,22.81,14.15z
	 M22.81,15.58h-5.78c-0.08,0-0.15-0.07-0.15-0.15s0.07-0.15,0.15-0.15h5.78c0.08,0,0.15,0.07,0.15,0.15S22.9,15.58,22.81,15.58z
	 M22.81,17.01h-5.78c-0.08,0-0.15-0.07-0.15-0.15s0.07-0.15,0.15-0.15h5.78c0.08,0,0.15,0.07,0.15,0.15S22.9,17.01,22.81,17.01z
	 M12.6,17c-0.89,0-1.62-0.73-1.62-1.62s0.73-1.62,1.62-1.62s1.62,0.73,1.62,1.62S13.49,17,12.6,17z M12.6,14.07
	c-0.72,0-1.31,0.59-1.31,1.31c0,0.72,0.59,1.31,1.31,1.31s1.31-0.59,1.31-1.31C13.91,14.65,13.32,14.07,12.6,14.07z M12.14,16.16
	c-0.03,0-0.06-0.01-0.08-0.02c-0.05-0.03-0.07-0.08-0.07-0.13v-1.25c0-0.05,0.03-0.1,0.07-0.13c0.05-0.03,0.1-0.03,0.15-0.01
	l1.23,0.62c0.05,0.03,0.08,0.08,0.08,0.14c0,0.06-0.03,0.11-0.08,0.14l-1.23,0.63C12.19,16.15,12.17,16.16,12.14,16.16L12.14,16.16z
	 M12.3,15v0.75l0.74-0.38L12.3,15L12.3,15z"/>
</svg>
