<?xml version="1.0" encoding="utf-8"?>
<!-- Generator: Adobe Illustrator 21.1.0, SVG Export Plug-In . SVG Version: 6.00 Build 0)  -->
<!DOCTYPE svg PUBLIC "-//W3C//DTD SVG 1.1//EN" "http://www.w3.org/Graphics/SVG/1.1/DTD/svg11.dtd">
<svg version="1.1" id="Layer_1" xmlns="http://www.w3.org/2000/svg" xmlns:xlink="http://www.w3.org/1999/xlink" x="0px" y="0px"
	 viewBox="0 0 31.68 31.68" style="enable-background:new 0 0 31.68 31.68;" xml:space="preserve">
<path d="M14.31,16.56h2.01c0.09,0,0.16-0.07,0.16-0.16s-0.07-0.16-0.16-0.16h-2.01c-0.09,0-0.16,0.07-0.16,0.16
	S14.22,16.56,14.31,16.56z M3.85,15.08h5.59c0.16,0,0.3-0.12,0.32-0.28c0.38-3.36,3.4-5.77,6.76-5.39c2.84,0.32,5.07,2.56,5.39,5.39
	c0.02,0.16,0.16,0.29,0.32,0.28h3.63c0.18,0,0.32-0.14,0.32-0.32s-0.14-0.32-0.32-0.32h-3.35c-0.56-3.69-4.01-6.22-7.69-5.66
	c-2.92,0.44-5.22,2.74-5.66,5.66h-5.3l0.41-0.41c0.1-0.14,0.07-0.34-0.08-0.45c-0.11-0.08-0.26-0.08-0.37,0l-0.94,0.94
	c-0.07,0.06-0.11,0.15-0.11,0.24c0,0.09,0.03,0.17,0.09,0.23l0.96,0.96c0.13,0.11,0.34,0.1,0.45-0.03c0.1-0.12,0.1-0.3,0-0.42
	L3.85,15.08z M14.31,14.96h2.01c0.09,0,0.16-0.07,0.16-0.16c0-0.09-0.07-0.16-0.16-0.16h-2.01c-0.09,0-0.16,0.07-0.16,0.16
	C14.15,14.89,14.22,14.96,14.31,14.96z M14.31,15.76h2.01c0.09,0,0.16-0.07,0.16-0.16c0-0.09-0.07-0.16-0.16-0.16h-2.01
	c-0.09,0-0.16,0.07-0.16,0.16C14.15,15.69,14.22,15.76,14.31,15.76z M14.13,12.37c-0.13,0-0.24,0.11-0.24,0.24v0.76h-0.81
	c-0.13,0-0.24,0.11-0.24,0.24v5.48c0,0.13,0.11,0.24,0.24,0.24h4.48c0.13,0,0.24-0.11,0.24-0.24v-0.76h0.81
	c0.13,0,0.24-0.11,0.24-0.24v-5.48c0-0.13-0.11-0.24-0.24-0.24L14.13,12.37z M17.31,18.85h-3.99v-5h3.99V18.85z M18.36,17.86h-0.57
	v-4.24c0-0.13-0.11-0.24-0.24-0.24h-3.18v-0.52h3.99V17.86z M28.92,16.93c0-0.09-0.03-0.17-0.09-0.23l-0.96-0.96
	c-0.13-0.11-0.34-0.1-0.45,0.03c-0.1,0.12-0.1,0.3,0,0.42l0.41,0.41h-5.6c-0.16,0-0.3,0.12-0.32,0.28c-0.38,3.36-3.4,5.77-6.76,5.39
	c-2.84-0.32-5.07-2.56-5.39-5.39c-0.02-0.16-0.16-0.29-0.32-0.28H5.8c-0.18,0-0.32,0.14-0.32,0.32c0,0.18,0.14,0.32,0.32,0.32h3.35
	c0.56,3.69,4.01,6.22,7.69,5.66c2.92-0.44,5.22-2.74,5.66-5.66h5.3l-0.41,0.41c-0.13,0.11-0.15,0.32-0.03,0.45
	c0.11,0.13,0.32,0.15,0.45,0.03c0.01-0.01,0.02-0.02,0.03-0.03l0.94-0.94c0.07-0.06,0.11-0.15,0.11-0.24L28.92,16.93z M14.31,17.37
	h2.01c0.09,0,0.16-0.07,0.16-0.16c0-0.09-0.07-0.16-0.16-0.16h-2.01c-0.09,0-0.16,0.07-0.16,0.16
	C14.15,17.3,14.22,17.37,14.31,17.37z M14.31,18.17h2.01c0.09,0,0.16-0.07,0.16-0.16c0-0.09-0.07-0.16-0.16-0.16h-2.01
	c-0.09,0-0.16,0.07-0.16,0.16C14.15,18.1,14.22,18.17,14.31,18.17z"/>
</svg>
