<?xml version="1.0" encoding="utf-8"?>
<!-- Generator: Adobe Illustrator 21.1.0, SVG Export Plug-In . SVG Version: 6.00 Build 0)  -->
<!DOCTYPE svg PUBLIC "-//W3C//DTD SVG 1.1//EN" "http://www.w3.org/Graphics/SVG/1.1/DTD/svg11.dtd">
<svg version="1.1" id="Layer_1" xmlns="http://www.w3.org/2000/svg" xmlns:xlink="http://www.w3.org/1999/xlink" x="0px" y="0px"
	 viewBox="0 0 32 32" style="enable-background:new 0 0 32 32;" xml:space="preserve">
<style type="text/css">
	.st0{fill:#010101;}
</style>
<g>
	<path class="st0" d="M27.34,16.1c0-2.38-1.56-3.46-3.02-3.46c-0.62,0-1.18,0.16-1.65,0.47c0-0.18,0-0.32,0-0.4
		c0-0.41-0.02-0.82-0.14-1.48c-0.06-0.34-0.35-0.59-0.7-0.59h-5.8c-0.34,0-0.64,0.25-0.7,0.59c-0.12,0.66-0.14,1.07-0.14,1.48
		c0,0.2,0.01,0.78,0.02,1.46c0.01,0.99,0.03,2.22,0.03,2.86c0,0.69-0.02,1.7-0.03,2.44c-0.01,0.42-0.01,0.75-0.01,0.88
		c0,0.12-0.18,0.54-0.29,0.8c-0.19,0.45-0.31,0.74-0.31,0.94c0,0.62,0.52,1.26,4.35,1.26s4.35-0.64,4.35-1.26
		c0-0.03-0.01-0.06-0.01-0.08C25.16,20.84,27.34,18.9,27.34,16.1z M22.69,20.34c0-0.13,0-0.46-0.01-0.88
		c-0.01-0.74-0.03-1.75-0.03-2.44c0-0.48,0.01-1.29,0.02-2.09c0.35-0.66,1.02-1.09,1.76-1.09c0.84,0,1.74,0.62,1.74,2.36
		c0,1.88-1.59,3.76-3.47,4.17C22.69,20.37,22.69,20.35,22.69,20.34z M18.95,22.75c-3.65,0-3.76-0.6-3.76-0.67
		c0.01-0.1,0.16-0.47,0.27-0.71c0.21-0.49,0.34-0.81,0.34-1.03c0-0.12,0.01-0.45,0.01-0.87c0.01-0.74,0.03-1.76,0.03-2.45
		c0-0.64-0.01-1.87-0.03-2.87c-0.01-0.68-0.02-1.25-0.02-1.45c0-0.38,0.02-0.76,0.13-1.38c0.01-0.06,0.06-0.1,0.11-0.1h5.8
		c0.06,0,0.1,0.04,0.11,0.1c0.11,0.62,0.13,1,0.13,1.38c0,0.2-0.01,0.77-0.01,1.45c-0.01,1-0.03,2.23-0.03,2.87
		c0,0.69,0.02,1.71,0.03,2.45c0.01,0.42,0.01,0.74,0.01,0.87c0,0.22,0.13,0.54,0.34,1.03c0.1,0.24,0.26,0.6,0.27,0.7
		C22.7,22.15,22.6,22.75,18.95,22.75z M23.09,21.41c-0.03-0.08-0.07-0.17-0.12-0.27c-0.06-0.13-0.13-0.31-0.19-0.47
		c1.99-0.45,3.67-2.45,3.67-4.46c0-2.53-1.69-2.66-2.03-2.66c-0.69,0-1.33,0.32-1.76,0.85c0-0.08,0-0.16,0-0.24c0-0.1,0-0.19,0-0.29
		c0.43-0.42,0.98-0.64,1.65-0.64c0.9,0,2.42,0.6,2.42,2.87C26.75,18.1,25.52,19.89,23.09,21.41z"/>
	<path class="st0" d="M13.38,10.28c0.08,0,0.15-0.07,0.15-0.15s-0.07-0.15-0.15-0.15H8.49c-0.07,0-0.13,0.05-0.15,0.12
		c-0.17,0.81-0.24,1.62-0.24,2.62c0,2.09,0.46,3.47,0.87,4.7c0.32,0.96,0.6,1.8,0.6,2.8c0,1.2-0.4,1.85-0.69,2.32l-0.05,0.09
		c-0.04,0.07-0.02,0.16,0.05,0.2c0.02,0.01,0.05,0.02,0.08,0.02c0.05,0,0.1-0.03,0.13-0.07l0.05-0.09c0.29-0.47,0.74-1.19,0.74-2.47
		c0-1.05-0.3-1.94-0.62-2.89c-0.4-1.2-0.86-2.56-0.86-4.6c0-0.93,0.07-1.68,0.21-2.44L13.38,10.28L13.38,10.28z"/>
	<path class="st0" d="M21.49,13.08H16.5c-0.08,0-0.15,0.07-0.15,0.15v7.12c0,0.32-0.14,0.67-0.38,1.21l-0.11,0.26
		c-0.03,0.08,0,0.16,0.08,0.19c0.02,0.01,0.04,0.01,0.06,0.01c0.06,0,0.11-0.03,0.14-0.09l0.11-0.25c0.25-0.58,0.4-0.95,0.4-1.33
		v-6.97h4.84c0.08,0,0.15-0.07,0.15-0.15S21.57,13.08,21.49,13.08z"/>
	<path class="st0" d="M13.31,20.04c0-0.69,0.25-1.45,0.53-2.33c0.4-1.24,0.91-2.77,0.91-4.77c0-1.24-0.08-2.73-0.66-4.38
		c-0.11-0.32-0.41-0.53-0.74-0.53H8.42c-0.33,0-0.63,0.21-0.74,0.53c-0.58,1.66-0.66,3.14-0.66,4.38c0,2,0.5,3.54,0.91,4.77
		c0.29,0.88,0.54,1.63,0.54,2.33c0,1.16-0.28,1.53-0.52,1.87c-0.18,0.24-0.36,0.49-0.36,0.93c0,0.33,0.16,0.9,1.22,1.02
		c0.56,0.07,1.33,0.1,2.09,0.1s1.53-0.03,2.08-0.1c1.06-0.12,1.22-0.69,1.22-1.02c0-0.44-0.18-0.69-0.36-0.93
		C13.59,21.58,13.31,21.2,13.31,20.04z M12.91,23.28C12.91,23.28,12.91,23.28,12.91,23.28c-1.07,0.13-2.95,0.13-4.03,0
		c-0.46-0.05-0.7-0.2-0.7-0.43c0-0.25,0.09-0.37,0.25-0.58c0.27-0.37,0.64-0.87,0.64-2.22c0-0.79-0.26-1.59-0.56-2.51
		c-0.41-1.26-0.88-2.68-0.88-4.59c0-1.19,0.07-2.61,0.62-4.19c0.03-0.08,0.1-0.13,0.18-0.13h4.94c0.08,0,0.15,0.05,0.18,0.13
		c0.55,1.57,0.62,3,0.62,4.19c0,1.91-0.47,3.33-0.88,4.59c-0.3,0.92-0.56,1.72-0.56,2.51c0,1.35,0.37,1.85,0.64,2.22
		c0.15,0.21,0.25,0.34,0.25,0.58C13.6,23.08,13.37,23.23,12.91,23.28z"/>
</g>
</svg>
