<?xml version="1.0" encoding="utf-8"?>
<!-- Generator: Adobe Illustrator 21.1.0, SVG Export Plug-In . SVG Version: 6.00 Build 0)  -->
<!DOCTYPE svg PUBLIC "-//W3C//DTD SVG 1.1//EN" "http://www.w3.org/Graphics/SVG/1.1/DTD/svg11.dtd">
<svg version="1.1" id="Layer_1" xmlns="http://www.w3.org/2000/svg" xmlns:xlink="http://www.w3.org/1999/xlink" x="0px" y="0px"
	 viewBox="0 0 32 32" style="enable-background:new 0 0 32 32;" xml:space="preserve">
<path d="M9.66,12.4l2.23-0.35c0.17-0.03,0.28-0.18,0.26-0.35c-0.03-0.17-0.18-0.28-0.35-0.26L9.52,11.8c-0.02,0-0.05,0.01-0.07,0.02
	c0-0.01,0.01-0.06,0.06-0.12l4.73-5.71l4.72,5.7c0.06,0.07,0.07,0.12,0.07,0.12c0,0,0,0.01-0.01,0.01
	c-0.03-0.01-0.05-0.02-0.08-0.02l-2.89-0.35c-0.09-0.01-0.17,0.02-0.24,0.07s-0.12,0.14-0.12,0.23v8.16l-2.52-0.31
	c-0.27-0.11-0.54-0.01-0.72,0.26c-0.07,0.11-0.21,0.41,0.1,0.83l4.96,6c0.06,0.07,0.15,0.11,0.24,0.11s0.18-0.04,0.24-0.11
	l4.97-6.01c0.31-0.41,0.17-0.71,0.09-0.82c-0.18-0.28-0.47-0.37-0.75-0.25l-2.25,0.35c-0.16,0.05-0.26,0.22-0.21,0.38
	c0.05,0.16,0.22,0.26,0.38,0.21l2.27-0.35c0.01,0,0.02-0.01,0.03-0.01c0,0.01-0.01,0.06-0.06,0.12l-4.73,5.71l-4.72-5.7
	c-0.06-0.08-0.07-0.12-0.07-0.12c0,0,0-0.01,0.01-0.01c0.03,0.01,0.05,0.02,0.08,0.02l2.89,0.35c0.09,0.01,0.17-0.02,0.24-0.08
	s0.12-0.14,0.12-0.23v-8.16l2.52,0.31c0.27,0.11,0.54,0.01,0.72-0.26c0.07-0.11,0.21-0.41-0.1-0.83l-4.96-6
	c-0.06-0.07-0.15-0.11-0.24-0.11S14.06,5.24,14,5.31l-4.97,6.01c-0.31,0.41-0.17,0.71-0.1,0.82C9.12,12.41,9.39,12.5,9.66,12.4
	L9.66,12.4z"/>
</svg>
