<?xml version="1.0" encoding="utf-8"?>
<!-- Generator: Adobe Illustrator 21.1.0, SVG Export Plug-In . SVG Version: 6.00 Build 0)  -->
<!DOCTYPE svg PUBLIC "-//W3C//DTD SVG 1.1//EN" "http://www.w3.org/Graphics/SVG/1.1/DTD/svg11.dtd">
<svg version="1.1" id="Layer_1" xmlns="http://www.w3.org/2000/svg" xmlns:xlink="http://www.w3.org/1999/xlink" x="0px" y="0px"
	 viewBox="0 0 32 32" style="enable-background:new 0 0 32 32;" xml:space="preserve">
<path d="M25.49,11.67c-0.9-2.93-3.64-4.97-6.72-4.97c-3.09,0-5.81,2.02-6.71,4.94c-0.5-0.18-1.03-0.27-1.57-0.27
	c-2.19,0-4.07,1.5-4.56,3.61c-1.95,0.07-3.6,1.43-4.04,3.35c-0.02,0.09,0,0.18,0.06,0.25c0.05,0.07,0.14,0.11,0.23,0.11h10.06
	c-0.05,0.31-0.07,0.63-0.07,0.95c0,3.67,2.98,6.65,6.65,6.65s6.65-2.98,6.65-6.65c0-0.33-0.02-0.64-0.07-0.96h4.38
	c0.14,0,0.26-0.1,0.29-0.24c0.06-0.36,0.09-0.68,0.09-1C30.14,14.65,28.2,12.26,25.49,11.67L25.49,11.67z M18.81,25.68
	c-3.33,0-6.03-2.71-6.03-6.03c0-3.33,2.71-6.03,6.03-6.03s6.03,2.71,6.03,6.03C24.85,22.97,22.14,25.68,18.81,25.68z M29.52,18.11
	h-4.24c-0.7-2.93-3.33-5.11-6.47-5.11s-5.77,2.18-6.47,5.11H2.55c0.5-1.51,1.9-2.54,3.55-2.54h0l0.05,0
	c0.15,0.01,0.27-0.1,0.29-0.24c0.35-1.95,2.05-3.37,4.04-3.37c0.53,0,1.05,0.11,1.54,0.31c0.3,0.15,0.95,0.52,1.36,1.2
	c0.05,0.08,0.14,0.12,0.23,0.1c0.03-0.01,0.05-0.01,0.07-0.03c0.1-0.06,0.14-0.2,0.08-0.3c-0.35-0.58-0.84-0.96-1.21-1.19
	c0.76-2.81,3.31-4.76,6.22-4.76c2.8,0,5.27,1.79,6.12,4.44c-0.75-0.01-1.31,0.27-1.34,0.28c-0.11,0.05-0.17,0.17-0.12,0.29
	c0.05,0.11,0.17,0.16,0.28,0.12c0.01,0,0.78-0.31,1.66-0.16c2.44,0.53,4.2,2.68,4.2,5.2C29.56,17.66,29.55,17.88,29.52,18.11
	L29.52,18.11z M22.04,17.04c-2.44-0.57-3.05-0.63-3.2-0.63c-0.02,0-0.03,0-0.04,0c-0.01,0-0.03,0-0.05,0c-0.15,0-0.76,0.06-3.2,0.63
	c-0.07,0.02-0.13,0.08-0.13,0.16v3.37c0,0.03,0.11,2.98,3.34,3.55c0.01,0,0.02,0,0.03,0l0.02,0c3.31-0.41,3.35-3.52,3.35-3.56V17.2
	C22.17,17.12,22.12,17.05,22.04,17.04L22.04,17.04z M21.84,20.56c0,0.03-0.04,2.84-3.04,3.23c-2.93-0.53-3.04-3.12-3.05-3.23v-3.24
	c0.3-0.07,0.56-0.13,0.81-0.18c1.69-0.38,2.1-0.41,2.19-0.41l0,0c0.03,0.01,0.06,0.01,0.08,0c0.07,0,0.51,0.03,2.57,0.5
	c0.14,0.03,0.28,0.07,0.43,0.1C21.84,17.33,21.84,20.56,21.84,20.56z M18.8,17.51L18.8,17.51l-0.17,0c-0.01,0-0.03,0-0.05,0.01
	c-0.27,0.04-0.94,0.15-2.53,0.52c-0.06,0.01-0.11,0.07-0.11,0.13l0,2.39c0.01,0.25,0.17,2.48,2.83,2.99c0.01,0,0.02,0,0.02,0l0.02,0
	c1.89-0.26,2.51-1.52,2.71-2.25c0.11-0.4,0.12-0.71,0.12-0.74V18.9l0.03-0.06l-0.03-0.01v-0.67c0-0.06-0.05-0.12-0.11-0.13
	c-1.7-0.39-2.35-0.49-2.59-0.52C18.95,17.51,18.8,17.51,18.8,17.51z M21.37,20.56c0,0.01-0.03,0.76-0.36,1.29l-0.1,0.17
	c0,0-0.2,0.31-0.4,0.48l-0.14,0.12c-0.41,0.34-0.94,0.55-1.57,0.64c-0.42-0.08-0.79-0.22-1.12-0.4c1.95-1.39,3.12-2.77,3.69-3.57
	L21.37,20.56L21.37,20.56z M20.73,18.13c0.19,0.04,0.41,0.09,0.64,0.15v0.44l-0.01,0.02c-0.32,0.5-1.54,2.24-3.98,3.94
	c-0.02-0.01-0.04-0.03-0.05-0.04l-0.16-0.13c-0.14-0.13-0.27-0.27-0.38-0.42L16.72,22c2.32-1.64,3.58-3.34,3.95-3.88L20.73,18.13
	L20.73,18.13z M16.55,21.72c-0.29-0.56-0.32-1.06-0.33-1.16l0-0.98l0-1.3l0.62-0.14c0.02,0,1.62-0.33,1.81-0.35l0.29,0
	c0.15,0.02,0.52,0.07,1.39,0.26C19.86,18.7,18.67,20.22,16.55,21.72L16.55,21.72z"/>
</svg>
