<?xml version="1.0" encoding="utf-8"?>
<!-- Generator: Adobe Illustrator 21.1.0, SVG Export Plug-In . SVG Version: 6.00 Build 0)  -->
<!DOCTYPE svg PUBLIC "-//W3C//DTD SVG 1.1//EN" "http://www.w3.org/Graphics/SVG/1.1/DTD/svg11.dtd">
<svg version="1.1" id="Layer_1" xmlns="http://www.w3.org/2000/svg" xmlns:xlink="http://www.w3.org/1999/xlink" x="0px" y="0px"
	 viewBox="0 0 31.68 31.68" style="enable-background:new 0 0 31.68 31.68;" xml:space="preserve">
<path d="M17.27,15.62l-0.22-0.5c-0.37,0.19-0.79,0.28-1.21,0.27c-1.51,0.04-2.77-1.14-2.81-2.65c0-0.06,0-0.11,0-0.17
	c0.02-1.55,1.3-2.79,2.85-2.77c1.49,0.02,2.7,1.2,2.77,2.68c0,0.87-0.23,1.37-0.81,1.37c-0.42,0-0.57-0.27-0.57-0.62V11.9
	c0-0.81-0.59-1.25-1.46-1.25c-0.47-0.01-0.93,0.11-1.33,0.36l0.33,0.61c0.3-0.17,0.65-0.26,1-0.24c0.27-0.04,0.51,0.15,0.54,0.42
	c0,0.03,0,0.06,0,0.08v0.25c-0.22-0.12-0.47-0.19-0.72-0.18c-0.82-0.01-1.45,0.39-1.45,1.17c-0.02,0.69,0.52,1.26,1.21,1.28
	c0.04,0,0.08,0,0.12,0c0.45,0.02,0.89-0.17,1.19-0.52c0.24,0.35,0.66,0.55,1.09,0.51c0.82,0,1.4-0.53,1.4-1.91
	c0-1.79-1.45-3.25-3.24-3.25c-0.03,0-0.07,0-0.1,0c-1.79-0.06-3.29,1.34-3.35,3.13c0,0.07,0,0.15,0,0.22
	c-0.06,1.79,1.34,3.29,3.13,3.35c0.07,0,0.15,0,0.22,0C16.33,15.95,16.82,15.84,17.27,15.62z M16.36,13.3
	c-0.15,0.23-0.42,0.37-0.7,0.36c-0.43,0-0.58-0.24-0.58-0.51s0.2-0.49,0.58-0.49c0.24-0.02,0.49,0.04,0.7,0.17V13.3z M24.24,12.8
	l-1.47-1.45V7.97c0-0.14-0.11-0.25-0.25-0.25h-3.4l-2.39-2.38c-0.53-0.53-1.4-0.53-1.93,0c0,0,0,0,0,0l-2.32,2.37H9.16
	c-0.14,0-0.25,0.11-0.25,0.25v3.35L7.44,12.8c-0.06,0.06-0.1,0.15-0.1,0.23v11.93c0,0.18,0.15,0.33,0.33,0.33H24
	c0.18,0,0.33-0.15,0.33-0.33V13.03C24.33,12.95,24.3,12.86,24.24,12.8z M22.77,12.28l0.71,0.72l-0.72,0.53L22.77,12.28z M15.27,5.83
	c0.28-0.27,0.72-0.27,1,0l1.9,1.9h-4.77L15.27,5.83z M9.41,8.22h12.86v5.67l-5.16,3.77l-0.39-0.38c-0.25-0.25-0.6-0.4-0.96-0.4
	c-0.36,0-0.71,0.15-0.96,0.41L14.5,17.6l-5.09-3.71V8.22z M8.91,12.26v1.26l-0.72-0.53L8.91,12.26z M8.01,13.69l6,4.39l-6,6.08
	V13.69z M8.47,24.65l6.8-6.9c0.13-0.13,0.31-0.21,0.49-0.21c0.18,0,0.36,0.07,0.49,0.2l6.94,6.89L8.47,24.65z M23.67,24.18
	l-6.08-6.05l6.08-4.44V24.18z"/>
</svg>
