<?xml version="1.0" encoding="utf-8"?>
<!-- Generator: Adobe Illustrator 21.1.0, SVG Export Plug-In . SVG Version: 6.00 Build 0)  -->
<!DOCTYPE svg PUBLIC "-//W3C//DTD SVG 1.1//EN" "http://www.w3.org/Graphics/SVG/1.1/DTD/svg11.dtd">
<svg version="1.1" id="Layer_1" xmlns="http://www.w3.org/2000/svg" xmlns:xlink="http://www.w3.org/1999/xlink" x="0px" y="0px"
	 viewBox="0 0 32 32" style="enable-background:new 0 0 32 32;" xml:space="preserve">
<path d="M22,5.92H10c-0.82,0-1.49,0.67-1.49,1.49v17.18c0,0.82,0.67,1.49,1.49,1.49h12c0.82,0,1.49-0.67,1.49-1.49V7.41
	C23.49,6.59,22.82,5.92,22,5.92L22,5.92z M22.88,24.59c0,0.48-0.39,0.88-0.88,0.88H10c-0.48,0-0.88-0.39-0.88-0.88V7.41
	c0-0.48,0.39-0.88,0.88-0.88h12c0.48,0,0.88,0.39,0.88,0.88V24.59z M21.01,8.23c0.18,0,0.33,0.16,0.33,0.35v3.25
	c0,0.19-0.15,0.35-0.33,0.35H10.99c-0.19,0-0.34-0.16-0.34-0.35V8.58c0-0.19,0.15-0.35,0.34-0.35L21.01,8.23L21.01,8.23z
	 M21.01,7.77H10.99c-0.44,0-0.79,0.36-0.79,0.81v3.25c0,0.45,0.36,0.81,0.79,0.81h10.02c0.44,0,0.79-0.36,0.79-0.81V8.58
	C21.81,8.14,21.45,7.77,21.01,7.77L21.01,7.77L21.01,7.77z M12.06,13.62h-1.32c-0.24,0-0.43,0.19-0.43,0.43v0.78
	c0,0.24,0.19,0.43,0.43,0.43h1.32c0.24,0,0.43-0.19,0.43-0.43v-0.78C12.48,13.81,12.29,13.62,12.06,13.62z M12.18,14.82
	c0,0.07-0.05,0.12-0.12,0.12h-1.33c-0.07,0-0.12-0.06-0.12-0.12v-0.78c0-0.07,0.05-0.12,0.12-0.12h1.33c0.07,0,0.12,0.06,0.12,0.12
	V14.82z M21.27,13.62h-1.32c-0.24,0-0.43,0.19-0.43,0.43v0.78c0,0.24,0.19,0.43,0.43,0.43h1.32c0.24,0,0.43-0.19,0.43-0.43v-0.78
	C21.69,13.81,21.5,13.62,21.27,13.62z M21.39,14.82c0,0.07-0.05,0.12-0.12,0.12h-1.32c-0.07,0-0.12-0.06-0.12-0.12v-0.78
	c0-0.07,0.05-0.12,0.12-0.12h1.32c0.07,0,0.12,0.06,0.12,0.12V14.82z M18.2,13.62h-1.33c-0.24,0-0.43,0.19-0.43,0.43v0.78
	c0,0.24,0.19,0.43,0.43,0.43h1.33c0.24,0,0.42-0.19,0.42-0.43v-0.78C18.62,13.81,18.43,13.62,18.2,13.62z M18.32,14.82
	c0,0.07-0.05,0.12-0.12,0.12h-1.33c-0.07,0-0.12-0.06-0.12-0.12v-0.78c0-0.07,0.05-0.12,0.12-0.12h1.33c0.07,0,0.12,0.06,0.12,0.12
	V14.82z M15.13,13.62H13.8c-0.24,0-0.43,0.19-0.43,0.43v0.78c0,0.24,0.19,0.43,0.43,0.43h1.32c0.24,0,0.43-0.19,0.43-0.43v-0.78
	C15.55,13.81,15.36,13.62,15.13,13.62z M15.25,14.82c0,0.07-0.05,0.12-0.12,0.12H13.8c-0.07,0-0.12-0.06-0.12-0.12v-0.78
	c0-0.07,0.05-0.12,0.12-0.12h1.32c0.07,0,0.12,0.06,0.12,0.12V14.82z M12.06,15.89h-1.32c-0.24,0-0.43,0.19-0.43,0.43v0.78
	c0,0.24,0.19,0.43,0.43,0.43h1.32c0.24,0,0.43-0.19,0.43-0.43v-0.78C12.48,16.08,12.29,15.89,12.06,15.89z M12.18,17.09
	c0,0.07-0.05,0.12-0.12,0.12h-1.33c-0.07,0-0.12-0.06-0.12-0.12v-0.78c0-0.07,0.05-0.12,0.12-0.12h1.33c0.07,0,0.12,0.06,0.12,0.12
	V17.09z M21.27,15.89h-1.32c-0.24,0-0.43,0.19-0.43,0.43v0.78c0,0.24,0.19,0.43,0.43,0.43h1.32c0.24,0,0.43-0.19,0.43-0.43v-0.78
	C21.69,16.08,21.5,15.89,21.27,15.89z M21.39,17.09c0,0.07-0.05,0.12-0.12,0.12h-1.32c-0.07,0-0.12-0.06-0.12-0.12v-0.78
	c0-0.07,0.05-0.12,0.12-0.12h1.32c0.07,0,0.12,0.06,0.12,0.12V17.09z M18.2,15.89h-1.33c-0.24,0-0.43,0.19-0.43,0.43v0.78
	c0,0.24,0.19,0.43,0.43,0.43h1.33c0.24,0,0.42-0.19,0.42-0.43v-0.78C18.62,16.08,18.43,15.89,18.2,15.89z M18.32,17.09
	c0,0.07-0.05,0.12-0.12,0.12h-1.33c-0.07,0-0.12-0.06-0.12-0.12v-0.78c0-0.07,0.05-0.12,0.12-0.12h1.33c0.07,0,0.12,0.06,0.12,0.12
	V17.09z M15.13,15.89H13.8c-0.24,0-0.43,0.19-0.43,0.43v0.78c0,0.24,0.19,0.43,0.43,0.43h1.32c0.24,0,0.43-0.19,0.43-0.43v-0.78
	C15.55,16.08,15.36,15.89,15.13,15.89z M15.25,17.09c0,0.07-0.05,0.12-0.12,0.12H13.8c-0.07,0-0.12-0.06-0.12-0.12v-0.78
	c0-0.07,0.05-0.12,0.12-0.12h1.32c0.07,0,0.12,0.06,0.12,0.12V17.09z M12.06,18.16h-1.32c-0.24,0-0.43,0.19-0.43,0.43v0.78
	c0,0.24,0.19,0.43,0.43,0.43h1.32c0.24,0,0.43-0.19,0.43-0.43v-0.78C12.48,18.35,12.29,18.16,12.06,18.16z M12.18,19.36
	c0,0.07-0.05,0.12-0.12,0.12h-1.33c-0.07,0-0.12-0.06-0.12-0.12v-0.78c0-0.07,0.05-0.12,0.12-0.12h1.33c0.07,0,0.12,0.06,0.12,0.12
	V19.36z M21.27,18.16h-1.32c-0.24,0-0.43,0.19-0.43,0.43v0.78c0,0.24,0.19,0.43,0.43,0.43h1.32c0.24,0,0.43-0.19,0.43-0.43v-0.78
	C21.69,18.35,21.5,18.16,21.27,18.16L21.27,18.16z M21.39,19.36c0,0.07-0.05,0.12-0.12,0.12h-1.32c-0.07,0-0.12-0.06-0.12-0.12
	v-0.78c0-0.07,0.05-0.12,0.12-0.12h1.32c0.07,0,0.12,0.06,0.12,0.12V19.36z M18.2,18.16h-1.33c-0.24,0-0.43,0.19-0.43,0.43v0.78
	c0,0.24,0.19,0.43,0.43,0.43h1.33c0.24,0,0.42-0.19,0.42-0.43v-0.78C18.62,18.35,18.43,18.16,18.2,18.16z M18.32,19.36
	c0,0.07-0.05,0.12-0.12,0.12h-1.33c-0.07,0-0.12-0.06-0.12-0.12v-0.78c0-0.07,0.05-0.12,0.12-0.12h1.33c0.07,0,0.12,0.06,0.12,0.12
	V19.36L18.32,19.36z M15.13,18.16H13.8c-0.24,0-0.43,0.19-0.43,0.43v0.78c0,0.24,0.19,0.43,0.43,0.43h1.32
	c0.24,0,0.43-0.19,0.43-0.43v-0.78C15.55,18.35,15.36,18.16,15.13,18.16L15.13,18.16z M15.25,19.36c0,0.07-0.05,0.12-0.12,0.12H13.8
	c-0.07,0-0.12-0.06-0.12-0.12v-0.78c0-0.07,0.05-0.12,0.12-0.12h1.32c0.07,0,0.12,0.06,0.12,0.12V19.36z M12.06,20.43h-1.32
	c-0.24,0-0.43,0.19-0.43,0.43v0.78c0,0.24,0.19,0.43,0.43,0.43h1.32c0.24,0,0.43-0.19,0.43-0.43v-0.78
	C12.48,20.62,12.29,20.43,12.06,20.43z M12.18,21.63c0,0.07-0.05,0.12-0.12,0.12h-1.33c-0.07,0-0.12-0.06-0.12-0.12v-0.78
	c0-0.07,0.05-0.12,0.12-0.12h1.33c0.07,0,0.12,0.06,0.12,0.12C12.18,20.86,12.18,21.63,12.18,21.63z M18.2,20.43h-1.33
	c-0.24,0-0.43,0.19-0.43,0.43v0.78c0,0.24,0.19,0.43,0.43,0.43h1.33c0.24,0,0.42-0.19,0.42-0.43v-0.78
	C18.62,20.62,18.43,20.43,18.2,20.43z M18.32,21.63c0,0.07-0.05,0.12-0.12,0.12h-1.33c-0.07,0-0.12-0.06-0.12-0.12v-0.78
	c0-0.07,0.05-0.12,0.12-0.12h1.33c0.07,0,0.12,0.06,0.12,0.12C18.32,20.86,18.32,21.63,18.32,21.63z M15.13,20.43H13.8
	c-0.24,0-0.43,0.19-0.43,0.43v0.78c0,0.24,0.19,0.43,0.43,0.43h1.32c0.24,0,0.43-0.19,0.43-0.43v-0.78
	C15.55,20.62,15.36,20.43,15.13,20.43z M15.25,21.63c0,0.07-0.05,0.12-0.12,0.12H13.8c-0.07,0-0.12-0.06-0.12-0.12v-0.78
	c0-0.07,0.05-0.12,0.12-0.12h1.32c0.07,0,0.12,0.06,0.12,0.12C15.25,20.86,15.25,21.63,15.25,21.63z M12.06,22.7h-1.32
	c-0.24,0-0.43,0.19-0.43,0.43v0.78c0,0.24,0.19,0.43,0.43,0.43h1.32c0.24,0,0.43-0.19,0.43-0.43v-0.78
	C12.48,22.89,12.29,22.7,12.06,22.7z M12.18,23.9c0,0.07-0.05,0.12-0.12,0.12h-1.33c-0.07,0-0.12-0.06-0.12-0.12v-0.78
	c0-0.07,0.05-0.12,0.12-0.12h1.33c0.07,0,0.12,0.06,0.12,0.12C12.18,23.13,12.18,23.9,12.18,23.9z M21.27,20.43h-1.32
	c-0.24,0-0.43,0.19-0.43,0.43v3.05c0,0.24,0.19,0.43,0.43,0.43h1.32c0.24,0,0.43-0.19,0.43-0.43v-3.05
	C21.69,20.62,21.5,20.43,21.27,20.43z M21.39,23.9c0,0.07-0.05,0.12-0.12,0.12h-1.32c-0.07,0-0.12-0.06-0.12-0.12v-3.05
	c0-0.07,0.05-0.12,0.12-0.12h1.32c0.07,0,0.12,0.06,0.12,0.12V23.9z M18.2,22.7h-1.33c-0.24,0-0.43,0.19-0.43,0.43v0.78
	c0,0.24,0.19,0.43,0.43,0.43h1.33c0.24,0,0.42-0.19,0.42-0.43v-0.78C18.62,22.89,18.43,22.7,18.2,22.7z M18.32,23.9
	c0,0.07-0.05,0.12-0.12,0.12h-1.33c-0.07,0-0.12-0.06-0.12-0.12v-0.78c0-0.07,0.05-0.12,0.12-0.12h1.33c0.07,0,0.12,0.06,0.12,0.12
	C18.32,23.13,18.32,23.9,18.32,23.9z M15.13,22.7H13.8c-0.24,0-0.43,0.19-0.43,0.43v0.78c0,0.24,0.19,0.43,0.43,0.43h1.32
	c0.24,0,0.43-0.19,0.43-0.43v-0.78C15.55,22.89,15.36,22.7,15.13,22.7z M15.25,23.9c0,0.07-0.05,0.12-0.12,0.12H13.8
	c-0.07,0-0.12-0.06-0.12-0.12v-0.78c0-0.07,0.05-0.12,0.12-0.12h1.32c0.07,0,0.12,0.06,0.12,0.12C15.25,23.13,15.25,23.9,15.25,23.9
	z"/>
</svg>
