<?xml version="1.0" encoding="utf-8"?>
<!-- Generator: Adobe Illustrator 18.0.0, SVG Export Plug-In . SVG Version: 6.00 Build 0)  -->
<!DOCTYPE svg PUBLIC "-//W3C//DTD SVG 1.0//EN" "http://www.w3.org/TR/2001/REC-SVG-20010904/DTD/svg10.dtd">
<svg version="1.0" xmlns="http://www.w3.org/2000/svg" xmlns:xlink="http://www.w3.org/1999/xlink" x="0px" y="0px"
	 viewBox="0 0 144 144" enable-background="new 0 0 144 144" xml:space="preserve">
<g id="template" display="none">
	<circle display="inline" fill="none" stroke="#FFFFFF" stroke-width="0.25" stroke-miterlimit="10" cx="72" cy="72" r="36"/>
	<g display="inline">
		
			<circle fill="none" stroke="#FFFFFF" stroke-width="0.25" stroke-linecap="round" stroke-miterlimit="10" stroke-dasharray="1.9875,1.9875" cx="72" cy="72" r="40.5"/>
	</g>
	
		<line display="inline" fill="none" stroke="#FFFFFF" stroke-width="0.25" stroke-miterlimit="10" x1="72" y1="18" x2="72" y2="126"/>
	
		<line display="inline" fill="none" stroke="#FFFFFF" stroke-width="0.25" stroke-miterlimit="10" x1="126" y1="72" x2="18" y2="72"/>
	
		<line display="inline" fill="none" stroke="#FFFFFF" stroke-width="0.25" stroke-miterlimit="10" x1="110.2" y1="33.8" x2="33.8" y2="110.2"/>
	
		<line display="inline" fill="none" stroke="#FFFFFF" stroke-width="0.25" stroke-miterlimit="10" x1="110.2" y1="110.2" x2="33.8" y2="33.8"/>
</g>
<g id="icon">
	<g>
		<path fill="#221F1F" d="M97.9,102.2h-1.8c-0.5,0-0.9-0.4-0.9-0.9c0-0.5,0.4-0.9,0.9-0.9h1.8c0.5,0,0.9,0.4,0.9,0.9
			C98.8,101.8,98.4,102.2,97.9,102.2z M92.5,102.2h-1.8c-0.5,0-0.9-0.4-0.9-0.9c0-0.5,0.4-0.9,0.9-0.9h1.8c0.5,0,0.9,0.4,0.9,0.9
			C93.4,101.8,93,102.2,92.5,102.2z M87.1,102.2h-1.8c-0.5,0-0.9-0.4-0.9-0.9c0-0.5,0.4-0.9,0.9-0.9h1.8c0.5,0,0.9,0.4,0.9,0.9
			C88,101.8,87.6,102.2,87.1,102.2z M81.8,102.2H80c-0.5,0-0.9-0.4-0.9-0.9c0-0.5,0.4-0.9,0.9-0.9h1.8c0.5,0,0.9,0.4,0.9,0.9
			C82.7,101.8,82.3,102.2,81.8,102.2z M76.4,102.2h-1.8c-0.5,0-0.9-0.4-0.9-0.9c0-0.5,0.4-0.9,0.9-0.9h1.8c0.5,0,0.9,0.4,0.9,0.9
			C77.3,101.8,76.9,102.2,76.4,102.2z M71,102.2h-1.8c-0.5,0-0.9-0.4-0.9-0.9c0-0.5,0.4-0.9,0.9-0.9H71c0.5,0,0.9,0.4,0.9,0.9
			C71.9,101.8,71.5,102.2,71,102.2z M65.6,102.2h-1.8c-0.5,0-0.9-0.4-0.9-0.9c0-0.5,0.4-0.9,0.9-0.9h1.8c0.5,0,0.9,0.4,0.9,0.9
			C66.5,101.8,66.1,102.2,65.6,102.2z M60.2,102.2h-1.8c-0.5,0-0.9-0.4-0.9-0.9c0-0.5,0.4-0.9,0.9-0.9h1.8c0.5,0,0.9,0.4,0.9,0.9
			C61.1,101.8,60.7,102.2,60.2,102.2z M54.8,102.2H53c-0.5,0-0.9-0.4-0.9-0.9c0-0.5,0.4-0.9,0.9-0.9h1.8c0.5,0,0.9,0.4,0.9,0.9
			C55.7,101.8,55.3,102.2,54.8,102.2z M49.4,102.2h-1.8c-0.5,0-0.9-0.4-0.9-0.9c0-0.5,0.4-0.9,0.9-0.9h1.8c0.5,0,0.9,0.4,0.9,0.9
			C50.3,101.8,49.9,102.2,49.4,102.2z M44,102.1c-0.1,0-0.2,0-0.2,0c-0.8-0.2-1.5-0.9-1.9-1.7c-0.2-0.5,0-1,0.5-1.2
			c0.5-0.2,1,0,1.2,0.5c0.1,0.3,0.4,0.5,0.7,0.6c0.5,0.1,0.8,0.6,0.6,1.1C44.8,101.9,44.4,102.1,44,102.1z M101.2,101.2
			c-0.2,0-0.3,0-0.4-0.1c-0.4-0.2-0.6-0.8-0.3-1.2c0.1-0.2,0.1-0.3,0.1-0.5v-0.8c0-0.5,0.4-0.9,0.9-0.9s0.9,0.4,0.9,0.9v0.8
			c0,0.5-0.1,1-0.4,1.4C101.8,101,101.5,101.2,101.2,101.2z M42.6,97.4c-0.5,0-0.9-0.4-0.9-0.9v-1.8c0-0.5,0.4-0.9,0.9-0.9
			c0.5,0,0.9,0.4,0.9,0.9v1.8C43.5,97,43.1,97.4,42.6,97.4z M101.4,95.9c-0.5,0-0.9-0.4-0.9-0.9v-1.8c0-0.5,0.4-0.9,0.9-0.9
			s0.9,0.4,0.9,0.9V95C102.3,95.5,101.9,95.9,101.4,95.9z M42.6,92c-0.5,0-0.9-0.4-0.9-0.9v-1.8c0-0.5,0.4-0.9,0.9-0.9
			c0.5,0,0.9,0.4,0.9,0.9v1.8C43.5,91.6,43.1,92,42.6,92z M101.4,90.5c-0.5,0-0.9-0.4-0.9-0.9v-1.8c0-0.5,0.4-0.9,0.9-0.9
			s0.9,0.4,0.9,0.9v1.8C102.3,90.1,101.9,90.5,101.4,90.5z M42.6,86.6c-0.5,0-0.9-0.4-0.9-0.9v-1.8c0-0.5,0.4-0.9,0.9-0.9
			c0.5,0,0.9,0.4,0.9,0.9v1.8C43.5,86.2,43.1,86.6,42.6,86.6z M101.4,85.1c-0.5,0-0.9-0.4-0.9-0.9v-1.8c0-0.5,0.4-0.9,0.9-0.9
			s0.9,0.4,0.9,0.9v1.8C102.3,84.7,101.9,85.1,101.4,85.1z M42.6,81.2c-0.5,0-0.9-0.4-0.9-0.9v-1.8c0-0.5,0.4-0.9,0.9-0.9
			c0.5,0,0.9,0.4,0.9,0.9v1.8C43.5,80.8,43.1,81.2,42.6,81.2z M101.4,79.7c-0.5,0-0.9-0.4-0.9-0.9V77c0-0.5,0.4-0.9,0.9-0.9
			s0.9,0.4,0.9,0.9v1.8C102.3,79.3,101.9,79.7,101.4,79.7z M42.6,75.8c-0.5,0-0.9-0.4-0.9-0.9v-1.8c0-0.5,0.4-0.9,0.9-0.9
			c0.5,0,0.9,0.4,0.9,0.9v1.8C43.5,75.4,43.1,75.8,42.6,75.8z M101.4,74.3c-0.5,0-0.9-0.4-0.9-0.9v-1.8c0-0.5,0.4-0.9,0.9-0.9
			s0.9,0.4,0.9,0.9v1.8C102.3,73.9,101.9,74.3,101.4,74.3z M42.6,70.4c-0.5,0-0.9-0.4-0.9-0.9v-1.8c0-0.5,0.4-0.9,0.9-0.9
			c0.5,0,0.9,0.4,0.9,0.9v1.8C43.5,70,43.1,70.4,42.6,70.4z M101.4,68.9c-0.5,0-0.9-0.4-0.9-0.9v-1.8c0-0.5,0.4-0.9,0.9-0.9
			s0.9,0.4,0.9,0.9V68C102.3,68.5,101.9,68.9,101.4,68.9z M42.6,65.1c-0.5,0-0.9-0.4-0.9-0.9v-1.8c0-0.5,0.4-0.9,0.9-0.9
			c0.5,0,0.9,0.4,0.9,0.9v1.8C43.5,64.7,43.1,65.1,42.6,65.1z M101.4,63.5c-0.5,0-0.9-0.4-0.9-0.9v-1.8c0-0.5,0.4-0.9,0.9-0.9
			s0.9,0.4,0.9,0.9v1.8C102.3,63.1,101.9,63.5,101.4,63.5z M42.6,59.7c-0.5,0-0.9-0.4-0.9-0.9V57c0-0.5,0.4-0.9,0.9-0.9
			c0.5,0,0.9,0.4,0.9,0.9v1.8C43.5,59.3,43.1,59.7,42.6,59.7z M101.4,58.1c-0.5,0-0.9-0.4-0.9-0.9v-1.8c0-0.5,0.4-0.9,0.9-0.9
			s0.9,0.4,0.9,0.9v1.8C102.3,57.7,101.9,58.1,101.4,58.1z M42.6,54.3c-0.5,0-0.9-0.4-0.9-0.9v-1.8c0-0.5,0.4-0.9,0.9-0.9
			c0.5,0,0.9,0.4,0.9,0.9v1.8C43.5,53.9,43.1,54.3,42.6,54.3z M101.4,52.7c-0.5,0-0.9-0.4-0.9-0.9v-1.8c0-0.5,0.4-0.9,0.9-0.9
			s0.9,0.4,0.9,0.9v1.8C102.3,52.3,101.9,52.7,101.4,52.7z M42.6,48.9c-0.5,0-0.9-0.4-0.9-0.9v-1.8c0-0.5,0.4-0.9,0.9-0.9
			c0.5,0,0.9,0.4,0.9,0.9V48C43.5,48.5,43.1,48.9,42.6,48.9z M101.4,47.4c-0.5,0-0.9-0.4-0.9-0.9v-1.6c0,0,0-0.1,0-0.1
			c-0.1-0.5,0.3-0.9,0.8-1c0.5-0.1,0.9,0.3,1,0.8c0,0.1,0,0.2,0,0.3v1.6C102.3,47,101.9,47.4,101.4,47.4z M43.8,44
			c-0.3,0-0.7-0.2-0.8-0.5c-0.2-0.5,0-1,0.5-1.2c0.4-0.2,0.8-0.2,1.2-0.2h1c0.5,0,0.9,0.4,0.9,0.9s-0.4,0.9-0.9,0.9h-1
			c-0.2,0-0.3,0-0.4,0.1C44,44,43.9,44,43.8,44z M99.4,43.8h-1.8c-0.5,0-0.9-0.4-0.9-0.9s0.4-0.9,0.9-0.9h1.8c0.5,0,0.9,0.4,0.9,0.9
			S99.9,43.8,99.4,43.8z M94.1,43.8h-1.8c-0.5,0-0.9-0.4-0.9-0.9s0.4-0.9,0.9-0.9h1.8c0.5,0,0.9,0.4,0.9,0.9S94.6,43.8,94.1,43.8z
			 M88.7,43.8h-1.8c-0.5,0-0.9-0.4-0.9-0.9s0.4-0.9,0.9-0.9h1.8c0.5,0,0.9,0.4,0.9,0.9S89.2,43.8,88.7,43.8z M83.3,43.8h-1.8
			c-0.5,0-0.9-0.4-0.9-0.9S81,42,81.5,42h1.8c0.5,0,0.9,0.4,0.9,0.9S83.8,43.8,83.3,43.8z M77.9,43.8h-1.8c-0.5,0-0.9-0.4-0.9-0.9
			s0.4-0.9,0.9-0.9h1.8c0.5,0,0.9,0.4,0.9,0.9S78.4,43.8,77.9,43.8z M72.5,43.8h-1.8c-0.5,0-0.9-0.4-0.9-0.9s0.4-0.9,0.9-0.9h1.8
			c0.5,0,0.9,0.4,0.9,0.9S73,43.8,72.5,43.8z M67.1,43.8h-1.8c-0.5,0-0.9-0.4-0.9-0.9s0.4-0.9,0.9-0.9h1.8c0.5,0,0.9,0.4,0.9,0.9
			S67.6,43.8,67.1,43.8z M61.7,43.8h-1.8c-0.5,0-0.9-0.4-0.9-0.9s0.4-0.9,0.9-0.9h1.8c0.5,0,0.9,0.4,0.9,0.9S62.2,43.8,61.7,43.8z
			 M56.3,43.8h-1.8c-0.5,0-0.9-0.4-0.9-0.9S54,42,54.5,42h1.8c0.5,0,0.9,0.4,0.9,0.9S56.8,43.8,56.3,43.8z M50.9,43.8h-1.8
			c-0.5,0-0.9-0.4-0.9-0.9s0.4-0.9,0.9-0.9h1.8c0.5,0,0.9,0.4,0.9,0.9S51.4,43.8,50.9,43.8z"/>
	</g>
</g>
</svg>
