<?xml version="1.0" encoding="utf-8"?>
<!-- Generator: Adobe Illustrator 21.1.0, SVG Export Plug-In . SVG Version: 6.00 Build 0)  -->
<!DOCTYPE svg PUBLIC "-//W3C//DTD SVG 1.1//EN" "http://www.w3.org/Graphics/SVG/1.1/DTD/svg11.dtd">
<svg version="1.1" id="Layer_1" xmlns="http://www.w3.org/2000/svg" xmlns:xlink="http://www.w3.org/1999/xlink" x="0px" y="0px"
	 viewBox="0 0 32 32" style="enable-background:new 0 0 32 32;" xml:space="preserve">
<path d="M17.26,19.97c-0.13,0-0.23,0.1-0.23,0.23v3.91c0,0.13,0.1,0.23,0.23,0.23s0.23-0.1,0.23-0.23V20.2
	C17.49,20.07,17.39,19.97,17.26,19.97z M15.95,10.88h-1.07c-0.13,0-0.23,0.1-0.23,0.23v3.91c0,0.13,0.1,0.23,0.23,0.23
	s0.23-0.1,0.23-0.23v-3.68h0.84c0.13,0,0.23-0.1,0.23-0.23S16.08,10.88,15.95,10.88z M22.65,7.75C22.6,7.67,22.5,7.62,22.4,7.62
	h-2.99c-0.03-0.57-0.18-0.98-0.35-1.27c0.08-0.14,0.11-0.32,0.07-0.52c-0.04-0.24-0.17-0.48-0.36-0.68
	c-0.41-0.43-1.01-0.55-1.32-0.26c-0.16,0.15-0.22,0.39-0.17,0.65c0.04,0.24,0.17,0.48,0.36,0.68c0.25,0.27,0.58,0.43,0.87,0.43
	c0.09,0,0.18-0.02,0.25-0.05c0.12,0.24,0.24,0.57,0.26,1.01H9.6c-0.1,0-0.19,0.05-0.25,0.13C9.29,7.83,9.28,7.94,9.31,8.03
	l1.04,2.82c0.04,0.12,0.16,0.2,0.29,0.2h2.94v12.78h-1.09c-0.15,0-0.29,0.12-0.3,0.27l-0.34,2.82c-0.01,0.09,0.02,0.17,0.07,0.24
	c0.06,0.07,0.14,0.1,0.23,0.1h7.69c0.09,0,0.17-0.04,0.23-0.1c0.06-0.07,0.09-0.15,0.08-0.24l-0.34-2.82
	c-0.02-0.15-0.15-0.27-0.3-0.27h-1.09V11.05h2.94c0.13,0,0.24-0.08,0.29-0.2l1.04-2.82C22.72,7.94,22.71,7.83,22.65,7.75L22.65,7.75
	z M18.56,5.77c-0.09-0.06-0.21-0.03-0.26,0.06c-0.06,0.09-0.03,0.21,0.05,0.26c0.01,0.01,0.09,0.06,0.18,0.17
	c-0.18,0.01-0.43-0.11-0.61-0.3c-0.14-0.15-0.24-0.32-0.27-0.48c-0.01-0.08-0.03-0.22,0.06-0.3c0.04-0.04,0.1-0.06,0.18-0.06
	c0.19,0,0.41,0.12,0.59,0.31c0.14,0.15,0.24,0.32,0.27,0.48c0,0.01,0,0.03,0,0.04C18.65,5.84,18.57,5.78,18.56,5.77L18.56,5.77z
	 M19.24,24.44l0.26,2.21h-7l0.26-2.21h0.82v0.99c0,0.17,0.14,0.31,0.31,0.31h4.22c0.17,0,0.31-0.14,0.31-0.31v-0.99H19.24
	L19.24,24.44z M14.2,25.12V10.44h3.61v14.68C17.81,25.12,14.2,25.12,14.2,25.12z M21.15,10.44h-2.73v-0.31
	c0-0.17-0.14-0.31-0.31-0.31h-4.22c-0.17,0-0.31,0.14-0.31,0.31v0.31h-2.73l-0.81-2.2h11.92L21.15,10.44z"/>
</svg>
