<?xml version="1.0" encoding="utf-8"?>
<!-- Generator: Adobe Illustrator 21.1.0, SVG Export Plug-In . SVG Version: 6.00 Build 0)  -->
<!DOCTYPE svg PUBLIC "-//W3C//DTD SVG 1.1//EN" "http://www.w3.org/Graphics/SVG/1.1/DTD/svg11.dtd">
<svg version="1.1" id="Layer_1" xmlns="http://www.w3.org/2000/svg" xmlns:xlink="http://www.w3.org/1999/xlink" x="0px" y="0px"
	 viewBox="0 0 31.68 31.68" style="enable-background:new 0 0 31.68 31.68;" xml:space="preserve">
<g>
	<g>
		<path d="M19.43,11.75l-4.22,2.83c-0.07,0.05-0.08,0.14-0.04,0.2c0.03,0.04,0.07,0.06,0.12,0.06c0.03,0,0.06-0.01,0.08-0.03
			L19.6,12c0.07-0.05,0.08-0.14,0.04-0.2C19.59,11.73,19.5,11.71,19.43,11.75"/>
		<path d="M17.3,14.28l-3.34,2.26c-0.07,0.05-0.09,0.14-0.04,0.2c0.03,0.04,0.07,0.06,0.12,0.06c0.03,0,0.06-0.01,0.08-0.03
			l3.34-2.26c0.07-0.05,0.09-0.14,0.04-0.2C17.46,14.25,17.37,14.24,17.3,14.28"/>
		<path d="M20.73,5.33h-9.77c-0.61,0-1.1,0.49-1.1,1.1v18.84c0,0.61,0.49,1.1,1.1,1.1h9.77c0.61,0,1.1-0.49,1.1-1.1V6.43
			C21.83,5.82,21.33,5.33,20.73,5.33 M10.95,5.89h9.77c0.29,0,0.53,0.24,0.53,0.53v2.41H10.42V6.43
			C10.42,6.13,10.66,5.89,10.95,5.89 M21.26,22.58H10.42V9.12h10.84V22.58z M20.73,25.8h-9.77c-0.29,0-0.53-0.24-0.53-0.53v-2.41
			h10.84v2.41C21.26,25.56,21.02,25.8,20.73,25.8"/>
		<path d="M14.88,7.57h1.92c0.12,0,0.21-0.1,0.21-0.21s-0.1-0.21-0.21-0.21h-1.92c-0.12,0-0.21,0.1-0.21,0.21S14.76,7.57,14.88,7.57
			"/>
		<path d="M13.92,7.64c0.08,0,0.15-0.03,0.2-0.08c0.05-0.05,0.08-0.12,0.08-0.2c0-0.07-0.03-0.15-0.08-0.2c-0.1-0.1-0.29-0.11-0.4,0
			c-0.05,0.05-0.09,0.12-0.09,0.2c0,0.08,0.03,0.15,0.09,0.2C13.77,7.61,13.85,7.64,13.92,7.64"/>
		<path d="M16.39,23.28h-1.1c-0.41,0-0.75,0.33-0.75,0.75v0.54c0,0.41,0.33,0.75,0.75,0.75h1.1c0.41,0,0.75-0.33,0.75-0.75v-0.54
			C17.14,23.62,16.8,23.28,16.39,23.28 M16.71,24.57c0,0.18-0.14,0.32-0.32,0.32h-1.1c-0.18,0-0.32-0.14-0.32-0.32v-0.54
			c0-0.18,0.14-0.32,0.32-0.32h1.1c0.18,0,0.32,0.14,0.32,0.32V24.57z"/>
	</g>
</g>
</svg>
