<?xml version="1.0" encoding="utf-8"?>
<!-- Generator: Adobe Illustrator 21.1.0, SVG Export Plug-In . SVG Version: 6.00 Build 0)  -->
<!DOCTYPE svg PUBLIC "-//W3C//DTD SVG 1.1//EN" "http://www.w3.org/Graphics/SVG/1.1/DTD/svg11.dtd">
<svg version="1.1" id="Layer_1" xmlns="http://www.w3.org/2000/svg" xmlns:xlink="http://www.w3.org/1999/xlink" x="0px" y="0px"
	 viewBox="0 0 31.68 31.68" style="enable-background:new 0 0 31.68 31.68;" xml:space="preserve">
<g>
	<g>
		<g>
			<path d="M15.84,9.39c-0.38,0-0.71,0.14-0.99,0.42c-0.28,0.28-0.42,0.61-0.42,0.99c0,0.38,0.14,0.71,0.42,0.99
				c0.28,0.28,0.61,0.42,0.99,0.42c0.38,0,0.71-0.14,0.99-0.42c0.28-0.28,0.42-0.61,0.42-0.99c0-0.38-0.14-0.71-0.42-0.99
				C16.55,9.53,16.22,9.39,15.84,9.39z"/>
			<rect x="14.61" y="12.96" width="2.47" height="9.33"/>
			<path d="M15.84,6.45c-5.18,0-9.39,4.21-9.39,9.39c0,5.17,4.21,9.39,9.39,9.39c5.17,0,9.39-4.21,9.39-9.39
				C25.23,10.66,21.01,6.45,15.84,6.45z M15.84,24.71c-4.89,0-8.87-3.98-8.87-8.87c0-4.89,3.98-8.87,8.87-8.87
				c4.89,0,8.87,3.98,8.87,8.87C24.71,20.73,20.73,24.71,15.84,24.71z"/>
			<path d="M15.84,4.51c-6.25,0-11.33,5.08-11.33,11.33c0,6.25,5.08,11.33,11.33,11.33c6.25,0,11.33-5.08,11.33-11.33
				C27.17,9.59,22.09,4.51,15.84,4.51z M15.84,26.48c-5.87,0-10.64-4.77-10.64-10.64S9.97,5.2,15.84,5.2s10.64,4.77,10.64,10.64
				S21.71,26.48,15.84,26.48z"/>
		</g>
	</g>
</g>
</svg>
