<?xml version="1.0" encoding="utf-8"?>
<!-- Generator: Adobe Illustrator 21.1.0, SVG Export Plug-In . SVG Version: 6.00 Build 0)  -->
<!DOCTYPE svg PUBLIC "-//W3C//DTD SVG 1.1//EN" "http://www.w3.org/Graphics/SVG/1.1/DTD/svg11.dtd">
<svg version="1.1" id="Layer_1" xmlns="http://www.w3.org/2000/svg" xmlns:xlink="http://www.w3.org/1999/xlink" x="0px" y="0px"
	 viewBox="0 0 32 32" style="enable-background:new 0 0 32 32;" xml:space="preserve">
<path d="M17.62,14.91c-0.05,0.02-1.2,0.62-1.14,1.99c0,0.02,0.02,0.2,0.12,0.61c0.01,0.02,0.01,0.04,0.02,0.07
	c-0.17-0.18-0.45-0.39-0.87-0.56c-0.09-0.04-0.2-0.01-0.26,0.07s-0.07,0.18-0.02,0.27c0.01,0.02,0.2,0.35,0.15,0.96l-0.5-0.28
	c-0.15-0.08-0.33-0.03-0.42,0.12s-0.03,0.33,0.12,0.42l0.68,0.38c-0.06,0.34-0.22,2.09,2.02,2.76c0.02,0.01,0.04,0.01,0.07,0.01
	c0.03,0,0.06-0.01,0.09-0.02c0.04-0.01,0.69-0.29,1.21-0.87l0.55,0.3c0.05,0.03,0.1,0.04,0.15,0.04c0.11,0,0.21-0.06,0.27-0.16
	c0.08-0.15,0.03-0.33-0.12-0.42l-0.5-0.28c0.04-0.08,0.08-0.15,0.11-0.24c0.24-0.62,0.17-1.31-0.19-2.05c0-0.01-0.43-0.69,0.04-1.51
	c0.05-0.08,0.04-0.19-0.02-0.26c-0.06-0.07-0.16-0.1-0.25-0.07c-0.03,0.01-0.69,0.24-0.97,0.98c-0.23-0.33-0.45-0.96,0.01-1.96
	c0.04-0.09,0.02-0.19-0.05-0.26C17.81,14.88,17.71,14.87,17.62,14.91z M17.56,21.24c-1.58-0.51-1.67-1.62-1.64-2.06l2.53,1.41
	C18.12,20.95,17.72,21.17,17.56,21.24L17.56,21.24z M17.92,17.82c0.07,0.05,0.15,0.05,0.23,0.02c0.07-0.03,0.12-0.1,0.13-0.18
	c0.03-0.26,0.12-0.45,0.22-0.6c-0.1,0.69,0.22,1.19,0.23,1.2c0.3,0.6,0.35,1.16,0.16,1.66c-0.02,0.06-0.06,0.12-0.08,0.18
	l-2.76-1.54c0.05-0.34,0.05-0.63,0.01-0.86c0.36,0.25,0.42,0.48,0.42,0.48c0.01,0.08,0.06,0.14,0.13,0.17
	c0.07,0.03,0.15,0.02,0.22-0.02c0.41-0.27,0.24-0.89,0.22-0.94c-0.09-0.36-0.1-0.52-0.1-0.52c-0.02-0.45,0.13-0.79,0.31-1.04
	C17.01,17.17,17.91,17.81,17.92,17.82L17.92,17.82z M21.92,10.87l-0.03-0.04c-0.67-0.79-1.37-1.39-2.1-1.77
	c0.25-0.28,0.39-0.65,0.39-1.03c0-0.86-0.7-1.56-1.57-1.56c-0.54,0-1.03,0.28-1.32,0.74c-0.19-0.01-0.5,0.01-0.7,0.11
	c-0.25,0.13-0.24,0.48-0.23,0.76v0.72l-1.51,0c-0.05-0.15-0.19-0.26-0.36-0.27l-4.26-0.69C9.99,7.78,9.78,7.99,9.78,8.23v2.47
	c0,0.23,0.18,0.41,0.41,0.41c0.01,0,0.02,0,0.04,0l4.26-0.69c0.19-0.01,0.34-0.15,0.37-0.33h1.49v0.98
	c-1.33,0.41-2.66,1.72-2.66,3.3v10.02c0,0.34,0,1.15,0.82,1.15h5.73c0.79,0,0.79-0.75,0.79-1.15V14.37c0-1.69-1.5-2.99-2.96-3.31
	v-0.93h0.27c0.04,0,1.04-0.02,2.43,1.64l0.04,0.05c0.15,0.18,0.35,0.42,0.61,0.42c0.01,0,0.02,0,0.03,0
	c0.15-0.01,0.25-0.07,0.38-0.18c0.18-0.15,0.37-0.34,0.39-0.58C22.23,11.24,22.05,11.03,21.92,10.87L21.92,10.87z M14.41,9.96
	l-4.17,0.67V8.29l4.17,0.67V9.96z M20.42,14.37v10.02c0,0.54-0.05,0.54-0.18,0.54h-5.73c-0.13,0-0.21,0-0.21-0.54V14.37
	c0-1.3,1.18-2.42,2.29-2.74h1.2C19.06,11.83,20.42,12.97,20.42,14.37z M21.53,11.71c-0.09,0.07-0.11,0.08-0.11,0.08
	c-0.06-0.01-0.2-0.18-0.26-0.25l-0.04-0.05c-1.51-1.8-2.67-1.81-2.79-1.81h-0.49c-0.13,0-0.23,0.1-0.23,0.23v1.11h-0.8V9.86
	c0-0.13-0.1-0.23-0.23-0.23h-1.71V9.25h1.71c0.13,0,0.23-0.1,0.23-0.23V8.06c0-0.18,0-0.3,0.02-0.36c0.13-0.05,0.4-0.05,0.56-0.04
	c0.09,0.01,0.18-0.04,0.22-0.13c0.19-0.38,0.57-0.62,0.99-0.62c0.61,0,1.1,0.5,1.1,1.11c0,0.35-0.17,0.69-0.47,0.9
	c-0.07,0.05-0.1,0.13-0.09,0.21c0.01,0.08,0.06,0.15,0.13,0.19c0.78,0.35,1.53,0.95,2.25,1.8l0.04,0.04
	c0.06,0.06,0.18,0.21,0.19,0.27C21.75,11.47,21.72,11.55,21.53,11.71L21.53,11.71z M18.1,8.03c0,0,0,0.01,0,0.01
	c0,0.28,0.23,0.51,0.51,0.51s0.51-0.23,0.51-0.51c0,0,0-0.01,0-0.01c0,0,0-0.01,0-0.01c0-0.28-0.23-0.51-0.51-0.51
	S18.1,7.74,18.1,8.02C18.1,8.02,18.1,8.03,18.1,8.03L18.1,8.03z"/>
</svg>
