<?xml version="1.0" encoding="utf-8"?>
<!-- Generator: Adobe Illustrator 21.1.0, SVG Export Plug-In . SVG Version: 6.00 Build 0)  -->
<!DOCTYPE svg PUBLIC "-//W3C//DTD SVG 1.1//EN" "http://www.w3.org/Graphics/SVG/1.1/DTD/svg11.dtd">
<svg version="1.1" id="Layer_1" xmlns="http://www.w3.org/2000/svg" xmlns:xlink="http://www.w3.org/1999/xlink" x="0px" y="0px"
	 viewBox="0 0 32 32" style="enable-background:new 0 0 32 32;" xml:space="preserve">
<path d="M10.99,14.8c0.07,0.07,0.17,0.11,0.27,0.11s0.2-0.04,0.27-0.11l1.35-1.35l1.35,1.35c0.07,0.07,0.17,0.11,0.27,0.11
	s0.2-0.04,0.27-0.11c0.15-0.15,0.15-0.39,0-0.54l-1.35-1.35l1.35-1.35c0.15-0.15,0.15-0.39,0-0.54s-0.39-0.15-0.54,0l-1.35,1.35
	l-1.35-1.35c-0.15-0.15-0.39-0.15-0.54,0s-0.15,0.39,0,0.54l1.35,1.35l-1.35,1.35C10.84,14.41,10.84,14.65,10.99,14.8L10.99,14.8z
	 M26.64,13.89c-0.72-3.67-3.12-6.5-6.44-7.66l0.1-0.4c0.01-0.03,0-0.05-0.02-0.07c-0.02-0.02-0.04-0.03-0.07-0.02L18.78,6
	c-0.03,0.01-0.05,0.03-0.06,0.05l0,0c-0.01,0.03,0,0.06,0.02,0.07l1.14,0.92c0.02,0.02,0.05,0.02,0.07,0.01
	c0.02-0.01,0.04-0.03,0.05-0.05l0.08-0.33c3.15,1.12,5.42,3.81,6.1,7.3c0.75,3.83-0.82,8.1-3.93,10.75
	c-0.33-0.38-0.82-0.63-1.37-0.63c-1,0-1.81,0.81-1.81,1.81c0,1,0.81,1.81,1.81,1.81s1.81-0.81,1.81-1.81c0-0.28-0.07-0.55-0.18-0.79
	C25.77,22.37,27.43,17.89,26.64,13.89L26.64,13.89z M20.89,26.95c-0.58,0-1.04-0.47-1.04-1.04c0-0.58,0.47-1.04,1.04-1.04
	s1.04,0.47,1.04,1.04C21.93,26.48,21.46,26.95,20.89,26.95z M19.3,17.64c0.08,0.08,0.17,0.11,0.27,0.11s0.2-0.04,0.27-0.11
	l1.35-1.35l1.35,1.35c0.08,0.08,0.17,0.11,0.27,0.11s0.2-0.04,0.27-0.11c0.15-0.15,0.15-0.39,0-0.54l-1.35-1.35l1.35-1.35
	c0.15-0.15,0.15-0.39,0-0.54s-0.39-0.15-0.54,0l-1.35,1.35l-1.35-1.35c-0.15-0.15-0.39-0.15-0.54,0c-0.15,0.15-0.15,0.39,0,0.54
	l1.35,1.35l-1.35,1.35C19.15,17.24,19.15,17.49,19.3,17.64z M14.85,23.62c-0.15-0.15-0.39-0.15-0.54,0l-1.35,1.35l-1.35-1.35
	c-0.15-0.15-0.39-0.15-0.54,0c-0.15,0.15-0.15,0.39,0,0.54l1.35,1.35l-1.35,1.35c-0.15,0.15-0.15,0.39,0,0.54
	c0.07,0.08,0.17,0.11,0.27,0.11s0.2-0.04,0.27-0.11l1.35-1.35l1.35,1.35c0.07,0.08,0.17,0.11,0.27,0.11s0.2-0.04,0.27-0.11
	c0.15-0.15,0.15-0.39,0-0.54l-1.35-1.35l1.35-1.35C15,24.01,15,23.77,14.85,23.62L14.85,23.62z M17.65,20.26
	c-0.25,0-0.49,0.05-0.7,0.14l-2.18-3.99l1.11-0.61l-0.22-0.4l-2.62,1.43l0.22,0.4l1.11-0.61l2.19,4.01
	c-0.43,0.33-0.71,0.85-0.71,1.43c0,1,0.81,1.81,1.81,1.81c1,0,1.81-0.81,1.81-1.81C19.46,21.07,18.65,20.26,17.65,20.26L17.65,20.26
	z M17.65,23.11c-0.58,0-1.04-0.47-1.04-1.04c0-0.57,0.47-1.04,1.04-1.04s1.04,0.47,1.04,1.04C18.69,22.65,18.22,23.11,17.65,23.11z
	 M9.88,20.8c-0.02-0.01-0.05-0.01-0.07,0L9.49,21l-3.84-5.55c-0.19-1.97,0.62-4.1,2.23-5.86c1.52-1.67,3.58-2.81,5.69-3.18
	c0.15,0.85,0.89,1.49,1.78,1.49c1,0,1.81-0.81,1.81-1.81s-0.81-1.81-1.81-1.81c-0.95,0-1.72,0.73-1.8,1.66
	c-2.24,0.37-4.43,1.59-6.05,3.38c-1.69,1.87-2.53,4.14-2.31,6.24L5.2,15.6l3.89,5.63l-0.32,0.19c-0.02,0.01-0.04,0.04-0.04,0.06
	c0,0.03,0.01,0.05,0.03,0.06l1.19,0.83c0.02,0.02,0.05,0.02,0.08,0h0c0.02-0.01,0.04-0.04,0.04-0.07l-0.15-1.45
	C9.92,20.84,9.9,20.81,9.88,20.8L9.88,20.8z M15.36,5.05c0.57,0,1.04,0.47,1.04,1.04s-0.47,1.04-1.04,1.04s-1.04-0.47-1.04-1.04
	S14.78,5.05,15.36,5.05z"/>
</svg>
