<?xml version="1.0" encoding="utf-8"?>
<!-- Generator: Adobe Illustrator 21.1.0, SVG Export Plug-In . SVG Version: 6.00 Build 0)  -->
<!DOCTYPE svg PUBLIC "-//W3C//DTD SVG 1.1//EN" "http://www.w3.org/Graphics/SVG/1.1/DTD/svg11.dtd">
<svg version="1.1" id="Layer_1" xmlns="http://www.w3.org/2000/svg" xmlns:xlink="http://www.w3.org/1999/xlink" x="0px" y="0px"
	 viewBox="0 0 31.68 31.68" style="enable-background:new 0 0 31.68 31.68;" xml:space="preserve">
<path d="M14.95,23.94l-1.1-1.59c0.1-0.12,0.16-0.27,0.16-0.44v-4.53c0-0.37-0.31-0.68-0.68-0.68H6.11c-0.37,0-0.68,0.31-0.68,0.68
	v4.53c0,0.17,0.07,0.32,0.17,0.44l-1.1,1.59c-0.17,0.23-0.2,0.49-0.1,0.7c0.11,0.21,0.34,0.33,0.63,0.33h9.38
	c0.29,0,0.52-0.12,0.63-0.33S15.11,24.16,14.95,23.94z M6.02,17.38c0-0.05,0.04-0.09,0.09-0.09h7.22c0.05,0,0.09,0.04,0.09,0.09
	v4.53c0,0.05-0.04,0.09-0.09,0.09H6.11c-0.05,0-0.09-0.04-0.09-0.09V17.38z M14.41,24.38H5.03c-0.06,0-0.09-0.01-0.1-0.01
	c0-0.01,0.01-0.05,0.05-0.09l1.17-1.68h7.15l1.17,1.69c0.04,0.05,0.04,0.09,0.05,0.08C14.51,24.37,14.49,24.38,14.41,24.38z
	 M6.65,21.52h6.15c0.08,0,0.14-0.07,0.14-0.14v-3.44c0-0.08-0.07-0.14-0.14-0.14H6.65c-0.08,0-0.14,0.07-0.14,0.14v3.44
	C6.51,21.46,6.57,21.52,6.65,21.52z M6.8,18.08h5.85v3.15H6.8V18.08z M13.14,23.41c0.08,0,0.14,0.07,0.14,0.14
	c0,0.08-0.07,0.14-0.14,0.14H6.31c-0.08,0-0.14-0.07-0.14-0.14s0.07-0.14,0.14-0.14H13.14z M27.18,23.94l-1.1-1.59
	c0.1-0.12,0.16-0.27,0.16-0.44v-4.53c0-0.37-0.31-0.68-0.68-0.68h-7.22c-0.37,0-0.68,0.31-0.68,0.68v4.53
	c0,0.17,0.07,0.32,0.17,0.44l-1.1,1.59c-0.17,0.23-0.2,0.49-0.1,0.7c0.11,0.21,0.34,0.33,0.63,0.33h9.38c0.29,0,0.52-0.12,0.63-0.33
	C27.38,24.43,27.34,24.16,27.18,23.94z M18.25,17.38c0-0.05,0.04-0.09,0.09-0.09h7.22c0.05,0,0.09,0.04,0.09,0.09v4.53
	c0,0.05-0.04,0.09-0.09,0.09h-7.22c-0.05,0-0.09-0.04-0.09-0.09V17.38z M26.64,24.38h-9.38c-0.06,0-0.09-0.01-0.1-0.01
	c0-0.01,0.01-0.05,0.05-0.09l1.17-1.68h7.14l1.17,1.69c0.04,0.05,0.04,0.09,0.05,0.08C26.74,24.37,26.72,24.38,26.64,24.38z
	 M18.88,21.52h6.15c0.08,0,0.14-0.07,0.14-0.14v-3.44c0-0.08-0.07-0.14-0.14-0.14h-6.15c-0.08,0-0.14,0.07-0.14,0.14v3.44
	C18.73,21.46,18.8,21.52,18.88,21.52z M19.03,18.08h5.85v3.15h-5.85V18.08z M18.39,23.56c0-0.08,0.07-0.14,0.14-0.14h6.83
	c0.08,0,0.14,0.07,0.14,0.14c0,0.08-0.07,0.14-0.14,0.14h-6.82C18.46,23.71,18.39,23.64,18.39,23.56z M22.25,13.63l-1.39-2.01
	c0.14-0.14,0.22-0.33,0.22-0.54v-5.6c0-0.42-0.34-0.77-0.77-0.77h-8.93c-0.42,0-0.77,0.34-0.77,0.77v5.6c0,0.21,0.08,0.4,0.22,0.54
	l-1.39,2c-0.19,0.26-0.23,0.56-0.11,0.8s0.38,0.37,0.71,0.37h11.6c0.33,0,0.59-0.14,0.71-0.37C22.47,14.18,22.43,13.88,22.25,13.63z
	 M11.19,5.48c0-0.1,0.08-0.18,0.18-0.18h8.93c0.1,0,0.18,0.08,0.18,0.18v5.6c0,0.1-0.08,0.18-0.18,0.18h-8.93
	c-0.1,0-0.18-0.08-0.18-0.18C11.19,11.08,11.19,5.48,11.19,5.48z M21.82,14.15c-0.01,0.02-0.07,0.05-0.19,0.05h-11.6
	c-0.12,0-0.18-0.03-0.19-0.05c-0.01-0.02-0.01-0.08,0.07-0.19l1.47-2.11h8.91l1.47,2.12C21.83,14.06,21.84,14.13,21.82,14.15z
	 M12.04,10.56h7.6c0.08,0,0.14-0.07,0.14-0.14V6.16c0-0.08-0.07-0.14-0.14-0.14h-7.6c-0.08,0-0.14,0.07-0.14,0.14v4.26
	C11.89,10.49,11.96,10.56,12.04,10.56z M12.19,6.3h7.31v3.96h-7.31C12.19,10.26,12.19,6.3,12.19,6.3z M11.47,12.61
	c0-0.08,0.07-0.14,0.14-0.14h8.44c0.08,0,0.14,0.07,0.14,0.14c0,0.08-0.07,0.14-0.14,0.14h-8.43
	C11.54,12.76,11.47,12.69,11.47,12.61z M20.57,13.36c0,0.08-0.07,0.14-0.14,0.14h-9.17c-0.08,0-0.14-0.07-0.14-0.14
	c0-0.08,0.07-0.14,0.14-0.14h9.17C20.51,13.21,20.57,13.28,20.57,13.36z"/>
</svg>
