<?xml version="1.0" encoding="utf-8"?>
<!-- Generator: Adobe Illustrator 21.1.0, SVG Export Plug-In . SVG Version: 6.00 Build 0)  -->
<!DOCTYPE svg PUBLIC "-//W3C//DTD SVG 1.1//EN" "http://www.w3.org/Graphics/SVG/1.1/DTD/svg11.dtd">
<svg version="1.1" id="Layer_1" xmlns="http://www.w3.org/2000/svg" xmlns:xlink="http://www.w3.org/1999/xlink" x="0px" y="0px"
	 viewBox="0 0 32 32" style="enable-background:new 0 0 32 32;" xml:space="preserve">
<path d="M23.47,6.52H8.53c-0.17,0-0.31,0.14-0.31,0.31v18.34c0,0.17,0.14,0.31,0.31,0.31h14.94c0.17,0,0.31-0.14,0.31-0.31V6.83
	C23.78,6.66,23.64,6.52,23.47,6.52L23.47,6.52z M23.16,24.87H8.84V7.14h14.33L23.16,24.87L23.16,24.87z M11.2,22.7h9.6
	c0.11,0,0.19-0.09,0.19-0.19V9.5c0-0.11-0.09-0.19-0.19-0.19h-9.6c-0.11,0-0.19,0.09-0.19,0.19V22.5
	C11.01,22.61,11.09,22.7,11.2,22.7L11.2,22.7z M20.61,22.31h-5.57c0.23-0.44,0.44-0.65,0.45-0.66c0.43-0.47,0.88-0.71,1.32-0.71
	c0.3,0.24,0.68,0.38,1.09,0.38c0.41,0,0.79-0.14,1.09-0.38c0,0,0.01,0,0.01,0c0.5,0,1.28,0.43,1.61,0.8
	C20.61,21.75,20.61,22.31,20.61,22.31z M16.44,19.56c0-0.8,0.65-1.46,1.46-1.46s1.46,0.65,1.46,1.46s-0.65,1.46-1.46,1.46
	S16.44,20.37,16.44,19.56z M11.39,9.69h9.22v6.7c-0.4-0.69-1.2-1.66-2.53-1.85c0.26-0.4,0.42-0.87,0.42-1.38
	c0-1.38-1.12-2.5-2.5-2.5s-2.5,1.12-2.5,2.5c0,0.5,0.15,0.96,0.4,1.35c-1.35,0.11-2.11,1.17-2.51,1.97V9.69L11.39,9.69z
	 M18.04,13.16c0,1.13-0.92,2.04-2.04,2.04c-1.13,0-2.04-0.92-2.04-2.04c0-1.13,0.92-2.04,2.04-2.04
	C17.13,11.11,18.04,12.03,18.04,13.16z M11.39,17.63c0.01-0.02,0.02-0.04,0.03-0.07c0.03-0.11,0.74-2.71,2.86-2.6
	c0.45,0.43,1.06,0.69,1.72,0.69c0.66,0,1.27-0.26,1.72-0.69c1.78,0.06,2.69,1.88,2.9,2.36v3.99c-0.36-0.3-0.89-0.57-1.34-0.66
	c0.25-0.3,0.39-0.69,0.39-1.11c0-0.97-0.79-1.76-1.76-1.76s-1.76,0.79-1.76,1.76c0,0.16,0.02,0.31,0.06,0.45
	c-0.32-0.3-0.74-0.51-1.15-0.6c0.27-0.31,0.44-0.72,0.44-1.16c0-0.97-0.79-1.76-1.76-1.76s-1.76,0.79-1.76,1.76
	c0,0.44,0.17,0.85,0.44,1.16c-0.38,0.08-0.74,0.27-1.01,0.49L11.39,17.63L11.39,17.63z M13.73,19.72c-0.8,0-1.46-0.65-1.46-1.46
	s0.65-1.46,1.46-1.46c0.8,0,1.46,0.65,1.46,1.46S14.53,19.72,13.73,19.72z M11.39,20.32c0.32-0.32,0.83-0.61,1.31-0.62
	c0.29,0.21,0.64,0.33,1.03,0.33c0.38,0,0.74-0.12,1.02-0.33c0.57,0.02,1.36,0.47,1.57,1.03c-0.36,0.11-0.71,0.35-1.05,0.72
	c-0.01,0.01-0.29,0.3-0.57,0.87h-3.31C11.39,22.31,11.39,20.32,11.39,20.32z"/>
</svg>
