<?xml version="1.0" encoding="utf-8"?>
<!-- Generator: Adobe Illustrator 21.1.0, SVG Export Plug-In . SVG Version: 6.00 Build 0)  -->
<!DOCTYPE svg PUBLIC "-//W3C//DTD SVG 1.1//EN" "http://www.w3.org/Graphics/SVG/1.1/DTD/svg11.dtd">
<svg version="1.1" id="Layer_1" xmlns="http://www.w3.org/2000/svg" xmlns:xlink="http://www.w3.org/1999/xlink" x="0px" y="0px"
	 viewBox="0 0 32 32" style="enable-background:new 0 0 32 32;" xml:space="preserve">
<path d="M22.36,6.86c0.92,0,1.67-0.75,1.67-1.67s-0.75-1.67-1.67-1.67s-1.67,0.75-1.67,1.67S21.44,6.86,22.36,6.86z M22.36,3.99
	c0.67,0,1.21,0.54,1.21,1.21c0,0.67-0.54,1.21-1.21,1.21s-1.21-0.54-1.21-1.21S21.69,3.99,22.36,3.99z M23.57,7.04h-2.45
	c-0.02,0-2.21,0.06-2.21,2.47V11c0,0.12,0.02,0.23,0.04,0.33l-8.32,3.08c-0.64-0.88-1.74-0.91-1.76-0.91H6.43
	c-0.02,0-2.21,0.06-2.21,2.47v1.49c0,0.84,0.69,1.33,1.15,1.65l0.04,0.03v0.65l0.05,0.06c0.07,0.09,0.48,0.52,2.17,0.52h0.07
	c1.69,0,2.1-0.44,2.17-0.52l0.05-0.06v-0.47l5.37,3.81c-0.35,0.37-0.63,0.92-0.63,1.77v1.49c0,0.84,0.69,1.33,1.15,1.65l0.04,0.03
	v0.65l0.05,0.06c0.07,0.09,0.48,0.53,2.17,0.53h0.07c1.69,0,2.1-0.44,2.17-0.53l0.05-0.06v-0.65l0.04-0.03
	c0.46-0.32,1.15-0.81,1.15-1.65v-1.49c0-1.26-0.6-1.88-1.17-2.18l2.23-8.81c1.53-0.03,1.92-0.44,1.98-0.52l0.05-0.06v-0.65
	l0.04-0.03c0.46-0.32,1.15-0.81,1.15-1.65V9.51C25.78,7.1,23.59,7.04,23.57,7.04L23.57,7.04z M22.12,7.5h0.48l-0.21,0.53l0.34,4.25
	l-0.35,0.28l-0.35-0.28l0.3-4.25L22.12,7.5L22.12,7.5z M8.53,13.96c-0.18,0.22-0.45,0.51-0.81,0.67c-0.37-0.14-0.69-0.44-0.9-0.67
	H8.53z M9.44,19.6c-0.14,0.09-0.6,0.31-1.75,0.31H7.62c-1.17,0-1.62-0.22-1.75-0.31v-3.65c0-0.13-0.1-0.23-0.23-0.23
	s-0.23,0.1-0.23,0.23v2.62c-0.36-0.27-0.73-0.61-0.73-1.11v-1.49c0-1.88,1.56-2,1.73-2.01c0.2,0.26,0.67,0.78,1.26,0.98l0.05,0.02
	l0.05-0.02c0.57-0.22,0.96-0.72,1.14-0.97c0.26,0.02,1.72,0.19,1.72,2.01v1.49c0,0.5-0.36,0.84-0.73,1.11v-2.62
	c0-0.13-0.1-0.23-0.23-0.23s-0.23,0.1-0.23,0.23L9.44,19.6L9.44,19.6z M21.05,24.89v1.49c0,0.5-0.36,0.84-0.73,1.11v-2.62
	c0-0.13-0.1-0.23-0.23-0.23s-0.23,0.1-0.23,0.23v3.65c-0.14,0.09-0.59,0.31-1.75,0.31h-0.07c-1.17,0-1.62-0.22-1.75-0.31v-3.65
	c0-0.13-0.1-0.23-0.23-0.23s-0.23,0.1-0.23,0.23v2.62c-0.36-0.27-0.73-0.61-0.73-1.11v-1.49c0-1.95,1.68-2.01,1.75-2.01h2.44
	C19.36,22.88,21.05,22.93,21.05,24.89L21.05,24.89z M19.3,22.42h-2.45c-0.01,0-0.53,0.02-1.07,0.31l-5.48-3.89
	c0.39-0.31,0.79-0.75,0.79-1.39v-1.49c0-0.4-0.06-0.73-0.16-1.01l8.29-3.07c0.24,0.33,0.58,0.58,0.85,0.76l0.04,0.03v0.65l0.05,0.06
	c0.06,0.08,0.42,0.46,1.8,0.52l-2.18,8.59C19.5,22.42,19.3,22.42,19.3,22.42L19.3,22.42z M25.32,11c0,0.5-0.36,0.84-0.73,1.11V9.49
	c0-0.13-0.1-0.23-0.23-0.23s-0.23,0.1-0.23,0.23v3.65c-0.14,0.09-0.59,0.31-1.75,0.31h-0.07c-1.17,0-1.62-0.22-1.75-0.31V9.49
	c0-0.13-0.1-0.23-0.23-0.23s-0.23,0.1-0.23,0.23v2.62c-0.36-0.27-0.73-0.61-0.73-1.11V9.51c0-1.95,1.68-2.01,1.75-2.01h0.66
	l0.23,0.58l-0.31,4.34l0.67,0.54l0.67-0.54L22.7,8.08l0.23-0.58h0.64c0.07,0,1.76,0.05,1.76,2.01L25.32,11L25.32,11z M7.66,13.32
	c0.92,0,1.67-0.75,1.67-1.67S8.58,9.98,7.66,9.98S6,10.73,6,11.65S6.74,13.32,7.66,13.32z M7.66,10.44c0.67,0,1.21,0.54,1.21,1.21
	s-0.54,1.21-1.21,1.21s-1.21-0.54-1.21-1.21C6.46,10.99,7,10.44,7.66,10.44z M18.09,18.91c-0.92,0-1.67,0.75-1.67,1.67
	s0.75,1.67,1.67,1.67s1.67-0.75,1.67-1.67S19.01,18.91,18.09,18.91z M18.09,21.78c-0.67,0-1.21-0.54-1.21-1.21
	c0-0.67,0.54-1.21,1.21-1.21s1.21,0.54,1.21,1.21S18.75,21.78,18.09,21.78z M16.64,23.3c0,0.13,0.11,0.24,0.24,0.24
	s0.24-0.11,0.24-0.24s-0.11-0.24-0.24-0.24S16.64,23.17,16.64,23.3z M17.23,23.55c-0.13,0-0.24,0.11-0.24,0.24
	c0,0.13,0.11,0.24,0.24,0.24c0.13,0,0.24-0.1,0.24-0.24C17.47,23.65,17.36,23.55,17.23,23.55z M17.55,24L17.55,24
	c0,0.13,0.1,0.24,0.24,0.24c0.13,0,0.24-0.1,0.24-0.24l0,0l0,0c0-0.13-0.1-0.24-0.24-0.24C17.66,23.77,17.55,23.87,17.55,24
	S17.55,24,17.55,24z M19.06,23.3c0,0.13,0.11,0.24,0.24,0.24s0.24-0.11,0.24-0.24s-0.11-0.24-0.24-0.24S19.06,23.17,19.06,23.3z
	 M18.71,23.78L18.71,23.78c0,0.13,0.1,0.24,0.24,0.24c0.13,0,0.24-0.1,0.24-0.24l0,0l0,0c0-0.13-0.1-0.24-0.24-0.24
	C18.81,23.55,18.71,23.65,18.71,23.78S18.71,23.78,18.71,23.78z M18.15,24c0,0.13,0.1,0.24,0.24,0.24s0.24-0.1,0.24-0.24
	c0-0.13-0.1-0.24-0.24-0.24C18.26,23.77,18.15,23.87,18.15,24z"/>
</svg>
