<?xml version="1.0" encoding="utf-8"?>
<!-- Generator: Adobe Illustrator 21.1.0, SVG Export Plug-In . SVG Version: 6.00 Build 0)  -->
<!DOCTYPE svg PUBLIC "-//W3C//DTD SVG 1.1//EN" "http://www.w3.org/Graphics/SVG/1.1/DTD/svg11.dtd">
<svg version="1.1" id="Layer_1" xmlns="http://www.w3.org/2000/svg" xmlns:xlink="http://www.w3.org/1999/xlink" x="0px" y="0px"
	 viewBox="0 0 32 32" style="enable-background:new 0 0 32 32;" xml:space="preserve">
<path d="M16,4.67C9.75,4.67,4.67,9.75,4.67,16c0,6.25,5.08,11.33,11.33,11.33S27.33,22.25,27.33,16C27.33,9.75,22.25,4.67,16,4.67z
	 M16,26.78c-5.94,0-10.78-4.84-10.78-10.78S10.06,5.22,16,5.22S26.78,10.06,26.78,16C26.78,21.95,21.94,26.78,16,26.78z M16.05,6.05
	c-5.45,0-9.88,4.43-9.88,9.88s4.43,9.88,9.88,9.88s9.88-4.43,9.88-9.88S21.49,6.05,16.05,6.05L16.05,6.05z M24.41,20.33l-0.86-0.5
	c-0.17-0.1-0.39-0.04-0.49,0.13c-0.1,0.17-0.04,0.4,0.13,0.49l0.86,0.5c-0.75,1.19-1.77,2.21-2.97,2.97l-0.49-0.86
	c-0.1-0.17-0.32-0.23-0.49-0.13c-0.17,0.1-0.23,0.32-0.13,0.49l0.49,0.86c-1.22,0.65-2.59,1.03-4.05,1.09v-0.99
	c0-0.2-0.16-0.36-0.36-0.36c-0.2,0-0.36,0.16-0.36,0.36v0.99c-1.46-0.06-2.83-0.44-4.05-1.09l0.49-0.86c0.1-0.17,0.04-0.4-0.13-0.5
	c-0.17-0.1-0.4-0.04-0.49,0.13l-0.49,0.86c-1.19-0.75-2.21-1.77-2.96-2.96l0.86-0.49c0.17-0.1,0.23-0.32,0.13-0.49
	c-0.1-0.17-0.32-0.23-0.49-0.13l-0.86,0.49c-0.64-1.22-1.03-2.59-1.09-4.05h0.99c0.2,0,0.36-0.16,0.36-0.36
	c0-0.2-0.16-0.36-0.36-0.36H6.59c0.05-1.46,0.44-2.83,1.09-4.05l0.86,0.5c0.06,0.03,0.12,0.05,0.18,0.05c0.12,0,0.25-0.06,0.31-0.18
	c0.1-0.17,0.04-0.4-0.13-0.49l-0.86-0.49c0.76-1.19,1.77-2.21,2.96-2.97l0.49,0.86c0.07,0.12,0.19,0.18,0.31,0.18
	c0.06,0,0.12-0.02,0.18-0.05c0.17-0.1,0.23-0.32,0.13-0.49l-0.5-0.86c1.22-0.64,2.59-1.03,4.05-1.09v0v0.99
	c0,0.2,0.16,0.36,0.36,0.36c0.2,0,0.36-0.16,0.36-0.36V6.47c1.46,0.05,2.83,0.44,4.05,1.09c0,0,0,0,0,0l-0.5,0.86
	c-0.1,0.17-0.04,0.4,0.13,0.49c0.06,0.03,0.12,0.05,0.18,0.05c0.12,0,0.25-0.06,0.31-0.18l0.5-0.86c1.19,0.76,2.21,1.77,2.97,2.97
	l-0.86,0.49c-0.17,0.1-0.23,0.32-0.13,0.49c0.07,0.12,0.19,0.18,0.31,0.18c0.06,0,0.12-0.02,0.18-0.05l0.86-0.49
	c0.65,1.22,1.03,2.59,1.09,4.05h-0.99c-0.2,0-0.36,0.16-0.36,0.36s0.16,0.36,0.36,0.36h0.99C25.44,17.75,25.06,19.12,24.41,20.33
	L24.41,20.33z M19.64,17.67l-3.11-1.83v-5.5c0-0.31-0.25-0.55-0.55-0.55s-0.55,0.25-0.55,0.55v5.82c0,0.23,0.14,0.43,0.35,0.51
	l3.31,1.95c0.09,0.05,0.18,0.08,0.28,0.08c0.19,0,0.37-0.1,0.48-0.27C19.99,18.17,19.91,17.83,19.64,17.67z"/>
</svg>
