<?xml version="1.0" encoding="utf-8"?>
<!-- Generator: Adobe Illustrator 21.1.0, SVG Export Plug-In . SVG Version: 6.00 Build 0)  -->
<!DOCTYPE svg PUBLIC "-//W3C//DTD SVG 1.1//EN" "http://www.w3.org/Graphics/SVG/1.1/DTD/svg11.dtd">
<svg version="1.1" id="Layer_1" xmlns="http://www.w3.org/2000/svg" xmlns:xlink="http://www.w3.org/1999/xlink" x="0px" y="0px"
	 viewBox="0 0 32 32" style="enable-background:new 0 0 32 32;" xml:space="preserve">
<path d="M29.41,15.61l-4.8-3.97c-0.25-0.19-0.52-0.21-0.73-0.08c-0.24,0.16-0.33,0.42-0.22,0.67l0.59,1.91l-6.77,0.41
	c-0.06-0.07-0.13-0.15-0.2-0.21l0.41-6.76l1.91,0.59c0.25,0.11,0.51,0.02,0.67-0.22c0.06-0.1,0.19-0.37-0.09-0.74l-3.96-4.79
	C16.18,2.36,16.09,2.32,16,2.32c-0.09,0-0.18,0.04-0.24,0.11l-3.97,4.8c-0.27,0.36-0.14,0.63-0.08,0.73
	c0.16,0.24,0.43,0.33,0.67,0.22l1.91-0.59l0.4,6.76c-0.07,0.06-0.13,0.13-0.19,0.2l-6.77-0.41l0.59-1.91
	c0.11-0.25,0.03-0.51-0.22-0.67c-0.2-0.13-0.47-0.12-0.74,0.09l-4.79,3.96c-0.07,0.06-0.11,0.15-0.11,0.24s0.04,0.18,0.11,0.24
	l4.8,3.97c0.15,0.11,0.29,0.16,0.44,0.16c0.1,0,0.2-0.03,0.29-0.09c0.24-0.16,0.33-0.42,0.22-0.67l-0.59-1.91l6.95-0.41
	c0.01,0,0.01,0.01,0.02,0.01l-0.41,7.26l-1.91-0.59c-0.24-0.11-0.51-0.02-0.67,0.22c-0.07,0.1-0.19,0.37,0.09,0.74l3.96,4.79
	c0.06,0.07,0.15,0.11,0.24,0.11c0.09,0,0.18-0.04,0.24-0.11l3.97-4.8c0.27-0.36,0.14-0.63,0.08-0.73c-0.16-0.24-0.42-0.33-0.67-0.22
	l-1.91,0.59l-0.42-7.25c0.01-0.01,0.02-0.01,0.02-0.02l6.95,0.41l-0.59,1.91c-0.11,0.25-0.03,0.51,0.22,0.67
	c0.08,0.06,0.18,0.09,0.29,0.09c0.14,0,0.29-0.06,0.45-0.17l4.79-3.96c0.07-0.06,0.11-0.15,0.11-0.24S29.48,15.67,29.41,15.61
	L29.41,15.61z M17.45,15.75c0,0.28-0.08,0.55-0.23,0.77c0,0,0,0.01-0.01,0.01c-0.14,0.21-0.33,0.38-0.56,0.5
	c-0.01,0-0.01,0.01-0.02,0.01c-0.19,0.1-0.41,0.16-0.64,0.16c-0.23,0-0.45-0.06-0.64-0.16c-0.01,0-0.02-0.01-0.03-0.01
	c-0.22-0.12-0.41-0.29-0.55-0.5c0,0,0,0,0-0.01c-0.14-0.22-0.23-0.49-0.23-0.77c0-0.2,0.04-0.39,0.12-0.57
	c0.02-0.05,0.05-0.09,0.07-0.14c0.1-0.18,0.23-0.33,0.39-0.45c0.06-0.05,0.12-0.08,0.19-0.12c0.2-0.11,0.43-0.18,0.68-0.18
	c0.24,0,0.47,0.07,0.67,0.17c0.07,0.04,0.14,0.08,0.2,0.12c0.16,0.12,0.28,0.27,0.38,0.43c0.03,0.05,0.06,0.1,0.08,0.15
	C17.41,15.35,17.45,15.55,17.45,15.75L17.45,15.75z M14.88,7.16c-0.01-0.09-0.05-0.18-0.13-0.23c-0.08-0.05-0.18-0.07-0.27-0.04
	l-2.17,0.67L16,3.11l3.68,4.45l-2.17-0.67c-0.09-0.03-0.19-0.01-0.26,0.04s-0.13,0.14-0.13,0.23l-0.41,6.81
	c-0.22-0.09-0.45-0.14-0.7-0.14c-0.25,0-0.49,0.05-0.71,0.14L14.88,7.16L14.88,7.16z M7.31,16.96c-0.09,0.01-0.18,0.05-0.23,0.13
	c-0.05,0.08-0.07,0.17-0.04,0.26l0.67,2.17l-4.45-3.68l4.45-3.68l-0.67,2.17c-0.03,0.09-0.01,0.19,0.04,0.27
	c0.05,0.08,0.14,0.13,0.23,0.13l6.87,0.42c-0.06,0.19-0.1,0.39-0.1,0.6c0,0.29,0.07,0.56,0.18,0.8L7.31,16.96L7.31,16.96z
	 M17.11,24.84c0.01,0.09,0.05,0.18,0.13,0.23c0.08,0.05,0.17,0.07,0.26,0.04l2.17-0.67L16,28.89l-3.68-4.45l2.17,0.67
	c0.09,0.03,0.19,0.01,0.27-0.04c0.08-0.05,0.12-0.14,0.13-0.23l0.42-7.32c0.22,0.08,0.45,0.13,0.7,0.13c0.24,0,0.47-0.05,0.69-0.13
	L17.11,24.84L17.11,24.84z M24.29,19.53l0.67-2.17c0.03-0.09,0.01-0.19-0.04-0.26c-0.05-0.08-0.14-0.12-0.23-0.13l-6.95-0.41
	c0.11-0.24,0.18-0.52,0.18-0.8c0-0.21-0.03-0.41-0.1-0.6l6.87-0.42c0.09-0.01,0.18-0.05,0.23-0.13c0.05-0.08,0.07-0.18,0.04-0.27
	l-0.67-2.17l4.45,3.68L24.29,19.53L24.29,19.53z"/>
</svg>
