<?xml version="1.0" encoding="utf-8"?>
<!-- Generator: Adobe Illustrator 21.1.0, SVG Export Plug-In . SVG Version: 6.00 Build 0)  -->
<!DOCTYPE svg PUBLIC "-//W3C//DTD SVG 1.1//EN" "http://www.w3.org/Graphics/SVG/1.1/DTD/svg11.dtd">
<svg version="1.1" id="Layer_1" xmlns="http://www.w3.org/2000/svg" xmlns:xlink="http://www.w3.org/1999/xlink" x="0px" y="0px"
	 viewBox="0 0 31.68 31.68" style="enable-background:new 0 0 31.68 31.68;" xml:space="preserve">
<g>
	<g>
		<g>
			<path d="M25.37,7.99L10.68,6.3c-0.23-0.03-0.46,0.04-0.64,0.18c-0.18,0.14-0.3,0.35-0.32,0.58l-0.64,5.54l-3.73,0.9
				c-0.37,0.09-0.6,0.46-0.51,0.83l2.17,9.05c0.07,0.31,0.35,0.53,0.67,0.53c0.05,0,0.11-0.01,0.16-0.02l4.69-1.13
				c0.18-0.04,0.33-0.15,0.43-0.31c0.1-0.16,0.13-0.34,0.08-0.52l-1.11-4.64l12.22,1.4c0.03,0,0.07,0.01,0.1,0.01
				c0.2,0,0.38-0.07,0.54-0.19c0.18-0.14,0.3-0.35,0.32-0.58l1.03-8.98C26.19,8.47,25.85,8.04,25.37,7.99z M5.48,14.06l4.72-1.13
				c0.06,0,0.1,0.04,0.12,0.09l0.26,1.09l-4.92,1.18L5.39,14.2C5.38,14.14,5.42,14.07,5.48,14.06z M11.28,14.59l0.73-6.39
				l11.63,1.33l-0.83,7.26l-11.32-1.3L11.28,14.59z M12.16,20.7l-4.92,1.18l-1.52-6.32l4.92-1.18L12.16,20.7z M12.47,22.16
				c-0.01,0.02-0.03,0.04-0.07,0.05l-4.69,1.13c-0.06,0.02-0.13-0.03-0.14-0.09L7.3,22.16l4.92-1.18l0.26,1.09
				C12.5,22.11,12.48,22.14,12.47,22.16z M24.54,17.87c-0.01,0.08-0.05,0.15-0.11,0.2c-0.06,0.05-0.14,0.07-0.22,0.06l-12.42-1.43
				l-0.22-0.91l11.49,1.32l0.9-7.83l-12.2-1.4l-0.68,5.9l-0.22-0.9c-0.09-0.36-0.46-0.6-0.83-0.51l-0.37,0.09l0.61-5.34
				c0.01-0.08,0.05-0.15,0.11-0.2c0.06-0.05,0.14-0.07,0.22-0.06l14.69,1.69c0.17,0.02,0.28,0.17,0.27,0.33L24.54,17.87z"/>
			<path d="M24.49,12.64l-0.26-0.03c-0.22-0.02-0.42,0.14-0.44,0.35l-0.06,0.53c-0.03,0.22,0.13,0.42,0.35,0.44l0.26,0.03
				c0.02,0,0.03,0,0.05,0c0.2,0,0.37-0.15,0.4-0.36l0.06-0.53C24.87,12.86,24.71,12.66,24.49,12.64z M24.5,13.58
				c-0.01,0.06-0.06,0.1-0.12,0.1l-0.27-0.03c-0.06-0.01-0.11-0.07-0.1-0.13l0.06-0.53c0.01-0.06,0.06-0.1,0.13-0.1c0,0,0,0,0,0
				l0.26,0.03c0.06,0.01,0.11,0.07,0.1,0.13L24.5,13.58z"/>
			<path d="M10.42,11.56c-0.04,0.04-0.06,0.1-0.06,0.15c0,0.06,0.02,0.11,0.06,0.15c0.04,0.04,0.1,0.06,0.15,0.06
				c0.06,0,0.11-0.02,0.15-0.06c0.04-0.04,0.06-0.09,0.06-0.15c0-0.05-0.02-0.11-0.06-0.15C10.64,11.48,10.5,11.49,10.42,11.56z"/>
			<path d="M7.5,14.31c0.01,0,0.02,0,0.03,0l0.92-0.22c0.08-0.02,0.12-0.1,0.1-0.17c-0.02-0.08-0.09-0.12-0.17-0.11l-0.92,0.22
				c-0.08,0.02-0.12,0.1-0.1,0.17C7.38,14.27,7.44,14.31,7.5,14.31z"/>
			<path d="M7.04,14.42c0.04,0,0.07-0.02,0.1-0.04c0.03-0.03,0.04-0.06,0.04-0.1c0-0.04-0.02-0.08-0.04-0.1
				c-0.06-0.05-0.15-0.05-0.2,0c-0.03,0.03-0.04,0.06-0.04,0.1c0,0.04,0.01,0.07,0.04,0.1C6.96,14.4,7,14.42,7.04,14.42z"/>
			<path d="M10.56,21.97c-0.05-0.21-0.27-0.35-0.49-0.3L9.54,21.8c-0.22,0.05-0.35,0.27-0.3,0.49l0.03,0.12
				c0.04,0.18,0.21,0.31,0.39,0.31c0.03,0,0.06,0,0.09-0.01l0.53-0.13c0.22-0.05,0.35-0.27,0.3-0.49L10.56,21.97z M10.22,22.3
				l-0.53,0.13c-0.06,0.01-0.13-0.03-0.15-0.09l-0.03-0.12c-0.02-0.06,0.02-0.13,0.09-0.15l0.53-0.13c0.01,0,0.02,0,0.03,0
				c0.06,0,0.1,0.04,0.12,0.09l0.03,0.12C10.32,22.22,10.28,22.29,10.22,22.3z"/>
			<path d="M23.67,19.18h-9.3c-0.38,0-0.69,0.31-0.69,0.69v4.83c0,0.38,0.31,0.69,0.69,0.69h9.3c0.38,0,0.69-0.31,0.69-0.69v-4.83
				C24.35,19.49,24.05,19.18,23.67,19.18z M22.27,19.75v5.06h-6.5v-5.06H22.27z M14.24,24.7v-4.83c0-0.07,0.05-0.12,0.12-0.12h1.12
				v5.06h-1.12C14.3,24.82,14.24,24.76,14.24,24.7z M23.79,24.7c0,0.07-0.05,0.12-0.12,0.12h-1.12v-5.06h1.12
				c0.07,0,0.12,0.05,0.12,0.12V24.7z"/>
			<path d="M23.21,21.67c-0.08,0-0.14,0.06-0.14,0.14v0.95c0,0.08,0.06,0.14,0.14,0.14s0.14-0.06,0.14-0.14v-0.95
				C23.35,21.73,23.29,21.67,23.21,21.67z"/>
			<path d="M23.11,21.24c-0.03,0.03-0.04,0.06-0.04,0.1c0,0.04,0.01,0.07,0.04,0.1c0.03,0.03,0.06,0.04,0.1,0.04
				c0.04,0,0.07-0.01,0.1-0.04c0.03-0.03,0.04-0.06,0.04-0.1c0-0.04-0.02-0.07-0.04-0.1C23.25,21.18,23.16,21.18,23.11,21.24z"/>
			<path d="M14.91,21.61h-0.12c-0.22,0-0.41,0.18-0.41,0.41v0.54c0,0.22,0.18,0.4,0.41,0.4h0.12c0.22,0,0.4-0.18,0.4-0.4v-0.54
				C15.31,21.79,15.13,21.61,14.91,21.61z M15.03,22.56c0,0.07-0.05,0.12-0.12,0.12h-0.12c-0.07,0-0.12-0.05-0.12-0.12v-0.54
				c0-0.07,0.05-0.12,0.12-0.12h0.12c0.07,0,0.12,0.05,0.12,0.12V22.56z"/>
		</g>
	</g>
</g>
</svg>
