<?xml version="1.0" encoding="utf-8"?>
<!-- Generator: Adobe Illustrator 21.1.0, SVG Export Plug-In . SVG Version: 6.00 Build 0)  -->
<!DOCTYPE svg PUBLIC "-//W3C//DTD SVG 1.1//EN" "http://www.w3.org/Graphics/SVG/1.1/DTD/svg11.dtd">
<svg version="1.1" id="Layer_1" xmlns="http://www.w3.org/2000/svg" xmlns:xlink="http://www.w3.org/1999/xlink" x="0px" y="0px"
	 viewBox="0 0 32 32" style="enable-background:new 0 0 32 32;" xml:space="preserve">
<path d="M21.07,7.66c-0.18-0.74-1.97-1.07-3.61-1.18c-0.15-0.31-0.45-0.52-0.81-0.52h-1.29c-0.36,0-0.67,0.21-0.81,0.52
	c-1.73,0.12-3.63,0.48-3.63,1.3c0,0,0,0,0,0c-0.6,0.74-0.6,0.97-0.6,1.04v14.5c0,0.3,0.26,0.58,0.68,0.81v0.38
	c0,0.9,2.64,1.53,5.01,1.53s5.01-0.63,5.01-1.53v-0.38c0.42-0.24,0.68-0.51,0.68-0.81V8.82C21.69,8.61,21.48,8.22,21.07,7.66
	L21.07,7.66z M15.35,6.42h1.29c0.22,0,0.4,0.16,0.43,0.36l-0.19,0.23c-0.03,0.04-0.05,0.09-0.05,0.15c0,0.11,0,0.19-0.44,0.19h-0.79
	c-0.44,0-0.44-0.08-0.44-0.19c0-0.05-0.02-0.11-0.05-0.15l-0.19-0.23C14.96,6.57,15.14,6.42,15.35,6.42z M14.57,7.08l0.14,0.16
	c0.02,0.21,0.12,0.34,0.24,0.42c-0.36,0.07-0.6,0.17-0.6,0.29c0,0.2,0.73,0.37,1.62,0.37c0.9,0,1.62-0.17,1.62-0.37
	c0-0.11-0.22-0.21-0.56-0.28c0.13-0.08,0.23-0.21,0.26-0.43l0.14-0.16c1.81,0.12,2.88,0.47,3.04,0.69c-0.2,0.28-1.79,0.74-4.47,0.74
	c-2.67,0-4.26-0.46-4.47-0.74C11.7,7.55,12.76,7.21,14.57,7.08L14.57,7.08z M20.55,24.52c0,0.31-1.81,1.07-4.55,1.07
	c-2.74,0-4.55-0.76-4.55-1.07v-0.16c1.11,0.44,2.87,0.71,4.55,0.71c1.69,0,3.44-0.26,4.55-0.71L20.55,24.52L20.55,24.52z
	 M19.94,23.92c-0.89,0.28-2.26,0.53-3.94,0.53c-1.68,0-3.06-0.25-3.95-0.53c-0.69-0.22-1.09-0.45-1.13-0.6V8.85
	c0-0.01,0.01-0.02,0.01-0.02c0.04-0.09,0.17-0.28,0.33-0.49c0.31,0.22,0.8,0.38,1.35,0.49c1.43,0.3,3.27,0.31,3.39,0.31
	c0.13,0,1.96-0.01,3.39-0.31c0.57-0.14,1.05-0.31,1.39-0.52c0.16,0.25,0.29,0.46,0.3,0.52l0,14.49
	C21.04,23.47,20.64,23.7,19.94,23.92L19.94,23.92z M13.06,10.36c0.11,0,0.21-0.08,0.23-0.2c0.02-0.13-0.07-0.24-0.2-0.26
	c-0.52-0.07-0.98-0.17-1.35-0.28c-0.12-0.04-0.25,0.03-0.28,0.16s0.03,0.25,0.16,0.28c0.4,0.12,0.87,0.21,1.41,0.29
	C13.04,10.36,13.05,10.36,13.06,10.36L13.06,10.36z M20.26,9.63c-0.99,0.29-2.59,0.47-4.26,0.47c-0.37,0-0.75-0.01-1.12-0.03
	c-0.11-0.01-0.23,0.09-0.24,0.22s0.09,0.23,0.22,0.24c0.38,0.02,0.76,0.03,1.14,0.03c1.74,0,3.34-0.18,4.39-0.49
	c0.12-0.04,0.19-0.16,0.16-0.29C20.51,9.66,20.38,9.59,20.26,9.63L20.26,9.63z M19.11,16.48c-0.01-0.03-0.04-0.05-0.07-0.06
	c-0.03-0.01-0.06,0-0.09,0.01l-1.58,0.93c-0.05,0.03-0.07,0.1-0.04,0.16l0.83,1.48h-0.89l0-0.35c0-0.06,0-0.11-0.07-0.16
	c-0.06-0.04-0.14-0.03-0.21,0.02c-0.01,0.01-0.02,0.02-0.03,0.03l-0.91,1.31c-0.03,0.04-0.03,0.09,0,0.13l0.91,1.31
	c0.01,0.01,0.02,0.02,0.03,0.03c0.04,0.03,0.08,0.04,0.12,0.04c0.03,0,0.06-0.01,0.09-0.03c0.07-0.05,0.07-0.1,0.07-0.16l0-0.35
	h0.65c0.69,0,0.92-0.39,0.93-0.41l0.82-1.58c0,0,0,0,0,0s0,0,0,0c0.33-0.72,0.05-1.22,0.04-1.24L19.11,16.48L19.11,16.48z
	 M18.64,20.3c0,0-0.18,0.29-0.72,0.29h-0.77c-0.03,0-0.06,0.01-0.08,0.03c-0.02,0.02-0.03,0.05-0.03,0.08l0,0.29l-0.75-1.08
	l0.75-1.08l0,0.29c0,0.03,0.01,0.06,0.03,0.08s0.05,0.03,0.08,0.03h1.6c0.07,0,0.28-0.01,0.49-0.08L18.64,20.3L18.64,20.3z
	 M19.46,18.73c-0.12,0.22-0.52,0.28-0.72,0.28h-0.32l-0.83-1.49l1.38-0.82l0.54,1C19.51,17.71,19.73,18.12,19.46,18.73L19.46,18.73z
	 M15.44,18.79l-1.71,0l0.47-0.81l0.31,0.19c0.03,0.02,0.06,0.04,0.1,0.04c0.03,0,0.06-0.01,0.07-0.02c0.07-0.03,0.1-0.1,0.09-0.19
	c0-0.01-0.01-0.03-0.01-0.04l-0.67-1.45c-0.02-0.04-0.07-0.07-0.11-0.07l-1.59,0.12c-0.01,0-0.02,0-0.04,0.01
	c-0.08,0.03-0.12,0.1-0.12,0.17c0.01,0.09,0.05,0.11,0.1,0.14l0.3,0.17l-0.33,0.57c-0.09,0.15-0.15,0.31-0.18,0.46c0,0,0,0,0,0l0,0
	c0,0,0,0.01,0,0.01c0,0,0,0.01,0,0.01c0,0,0,0,0,0v0c-0.05,0.32,0.16,0.68,0.17,0.7l0.84,1.34c0.45,0.65,1.03,0.66,1.05,0.66
	l1.25,0.04c0,0,0,0,0,0c0.03,0,0.06-0.01,0.08-0.03c0.02-0.02,0.03-0.05,0.03-0.08v-1.83C15.56,18.85,15.51,18.79,15.44,18.79
	L15.44,18.79z M12.36,18.12c0.02-0.12,0.07-0.25,0.15-0.38l0.39-0.67c0.02-0.03,0.02-0.06,0.01-0.09c-0.01-0.03-0.03-0.06-0.05-0.07
	l-0.24-0.14l1.31-0.1l0.55,1.19l-0.25-0.15c-0.03-0.02-0.06-0.02-0.09-0.01c-0.03,0.01-0.06,0.03-0.07,0.05l-0.6,1.03h0
	c-0.17,0-0.6-0.02-0.87-0.22C12.43,18.46,12.36,18.31,12.36,18.12L12.36,18.12z M15.33,20.62l-1.13-0.04
	c-0.02,0-0.49-0.02-0.86-0.56l-0.73-1.17c0.01,0,0.01,0,0.02,0.01c0.06,0.03,0.13,0.06,0.2,0.08c0.01,0,0.02,0.01,0.02,0.01
	c0.07,0.02,0.14,0.03,0.21,0.05c0.01,0,0.03,0,0.04,0.01c0.06,0.01,0.13,0.02,0.19,0.02c0.01,0,0.02,0,0.03,0
	c0.06,0,0.11,0.01,0.16,0.01c0.03,0,0.06,0,0.07,0l0.02,0l1.77,0L15.33,20.62L15.33,20.62z M16.5,15.93l-0.3,0.16
	c-0.05,0.02-0.1,0.05-0.11,0.14c-0.01,0.07,0.03,0.14,0.11,0.18c0.01,0.01,0.02,0.01,0.04,0.01l1.58,0.2c0.01,0,0.01,0,0.01,0
	c0.04,0,0.08-0.02,0.1-0.06l0.74-1.41c0.01-0.01,0.01-0.02,0.01-0.03c0.01-0.09-0.02-0.16-0.08-0.19c-0.01-0.01-0.04-0.02-0.08-0.02
	c-0.04,0-0.06,0.01-0.1,0.03l-0.33,0.17l-0.29-0.58c-0.32-0.61-0.77-0.63-0.79-0.63l-1.79,0c-0.79,0.04-1.11,0.52-1.12,0.54
	l-0.7,1.04c-0.02,0.03-0.02,0.06-0.02,0.09c0.01,0.03,0.03,0.06,0.05,0.07l1.56,0.97c0.02,0.01,0.04,0.02,0.06,0.02
	c0.04,0,0.07-0.02,0.1-0.05l0.93-1.41L16.5,15.93L16.5,15.93z M15.04,16.34l-1.36-0.84l0.63-0.94c0.01-0.02,0.27-0.4,0.94-0.44
	c0.27,0,0.51,0.37,0.58,0.51l0.15,0.28L15.04,16.34L15.04,16.34z M15.73,14.11l1.29,0c0.01,0,0.34,0.02,0.59,0.51l0.34,0.68
	c0.01,0.03,0.04,0.05,0.07,0.06s0.06,0.01,0.09-0.01l0.28-0.14l-0.62,1.17l-1.31-0.17l0.25-0.13c0.06-0.03,0.08-0.1,0.05-0.15
	l-0.53-1.04c0-0.02-0.01-0.03-0.02-0.04l-0.16-0.32C16.03,14.5,15.92,14.29,15.73,14.11z"/>
</svg>
