<?xml version="1.0" encoding="utf-8"?>
<!-- Generator: Adobe Illustrator 21.1.0, SVG Export Plug-In . SVG Version: 6.00 Build 0)  -->
<!DOCTYPE svg PUBLIC "-//W3C//DTD SVG 1.1//EN" "http://www.w3.org/Graphics/SVG/1.1/DTD/svg11.dtd">
<svg version="1.1" id="Layer_1" xmlns="http://www.w3.org/2000/svg" xmlns:xlink="http://www.w3.org/1999/xlink" x="0px" y="0px"
	 viewBox="0 0 32 32" style="enable-background:new 0 0 32 32;" xml:space="preserve">
<path d="M20.03,5.57c-0.06-0.06-0.14-0.09-0.22-0.09H8.55c-0.17,0-0.31,0.14-0.31,0.31v20.43c0,0.17,0.14,0.31,0.31,0.31h14.9
	c0.17,0,0.31-0.14,0.31-0.31V9.53c0-0.08-0.03-0.16-0.09-0.21L20.03,5.57L20.03,5.57z M20.12,6.54l2.77,2.85h-2.77
	C20.12,9.39,20.12,6.54,20.12,6.54z M8.86,6.09h10.65v3.48c0,0.02,0.01,0.04,0.01,0.07c0,0.02-0.01,0.04-0.01,0.07
	c0,0.17,0.14,0.31,0.31,0.31h3.33v15.9H8.86C8.86,25.91,8.86,6.09,8.86,6.09z M20.74,12.77h-9.65c-0.13,0-0.23-0.1-0.23-0.23
	s0.1-0.23,0.23-0.23h9.65c0.13,0,0.23,0.1,0.23,0.23S20.87,12.77,20.74,12.77z M18.77,15.15h-7.69c-0.13,0-0.23-0.1-0.23-0.23
	s0.1-0.23,0.23-0.23h7.69c0.13,0,0.23,0.1,0.23,0.23S18.9,15.15,18.77,15.15z M20.74,17.52h-9.65c-0.13,0-0.23-0.1-0.23-0.23
	s0.1-0.23,0.23-0.23h9.65c0.13,0,0.23,0.1,0.23,0.23S20.87,17.52,20.74,17.52z M18.77,19.9h-7.69c-0.13,0-0.23-0.1-0.23-0.23
	s0.1-0.23,0.23-0.23h7.69c0.13,0,0.23,0.1,0.23,0.23S18.9,19.9,18.77,19.9z M20.74,22.28h-9.65c-0.13,0-0.23-0.1-0.23-0.23
	s0.1-0.23,0.23-0.23h9.65c0.13,0,0.23,0.1,0.23,0.23S20.87,22.28,20.74,22.28z"/>
</svg>
