<?xml version="1.0" encoding="utf-8"?>
<!-- Generator: Adobe Illustrator 21.1.0, SVG Export Plug-In . SVG Version: 6.00 Build 0)  -->
<!DOCTYPE svg PUBLIC "-//W3C//DTD SVG 1.1//EN" "http://www.w3.org/Graphics/SVG/1.1/DTD/svg11.dtd">
<svg version="1.1" id="Layer_1" xmlns="http://www.w3.org/2000/svg" xmlns:xlink="http://www.w3.org/1999/xlink" x="0px" y="0px"
	 viewBox="0 0 32 32" style="enable-background:new 0 0 32 32;" xml:space="preserve">
<style type="text/css">
	.st0{fill:#010101;}
</style>
<g>
	<path class="st0" d="M7.44,13.77c-1.28,0-2.32-1.04-2.32-2.32s1.04-2.32,2.32-2.32s2.32,1.04,2.32,2.32S8.72,13.77,7.44,13.77z
		 M7.44,9.73c-0.95,0-1.72,0.77-1.72,1.73s0.77,1.73,1.72,1.73s1.73-0.77,1.73-1.73C9.17,10.51,8.39,9.73,7.44,9.73z"/>
	<path class="st0" d="M27.51,24.3H14.07c-0.38,0-0.7-0.31-0.7-0.7v-6.8h0.59v6.8c0,0.06,0.05,0.1,0.1,0.1h13.43
		c0.06,0,0.1-0.05,0.1-0.1V8.4c0-0.06-0.05-0.1-0.1-0.1H14.07c-0.06,0-0.1,0.05-0.1,0.1v6.16h-0.59V8.4c0-0.38,0.31-0.7,0.7-0.7
		h13.43c0.38,0,0.7,0.31,0.7,0.7V23.6C28.2,23.99,27.89,24.3,27.51,24.3z"/>
	<path class="st0" d="M27.26,23.13H14.34c-0.08,0-0.15-0.07-0.15-0.15s0.07-0.15,0.15-0.15h12.92c0.08,0,0.15,0.07,0.15,0.15
		S27.34,23.13,27.26,23.13z"/>
	<path class="st0" d="M4.53,22.78c-0.16,0-0.3-0.13-0.3-0.3v-4.42c0-0.16,0.13-0.3,0.3-0.3s0.3,0.13,0.3,0.3v4.42
		C4.82,22.65,4.69,22.78,4.53,22.78z"/>
	<path class="st0" d="M7.44,23.86c-1.09,0-2.1-0.18-3.1-0.54c-0.12-0.04-0.2-0.15-0.2-0.28v-0.47c-1.77-1.1-1.7-2.29-1.67-2.69
		c0-0.02,0-0.05,0-0.06V18.1c0-2.57,1.39-3.71,4.52-3.71h10.55c0.58,0,1.05,0.47,1.05,1.05c0,0.56-0.4,0.97-1.01,1.04
		c-0.34,0.05-1.52,0.22-2.76,0.4c-1.41,0.21-2.88,0.43-3.26,0.48c-0.54,0.07-0.85,0.42-0.85,0.97v4.7c0,0.12-0.08,0.24-0.2,0.28
		C9.5,23.68,8.49,23.86,7.44,23.86z M4.74,22.83c0.88,0.3,1.75,0.44,2.7,0.44c0.91,0,1.79-0.15,2.68-0.44v-4.49
		c0-0.84,0.53-1.45,1.36-1.56c0.38-0.05,1.84-0.27,3.25-0.48c1.24-0.18,2.42-0.36,2.76-0.4c0.19-0.02,0.49-0.11,0.49-0.46
		c0-0.25-0.2-0.45-0.45-0.45H6.99c-2.79,0-3.92,0.9-3.92,3.12v1.71c0,0.02,0,0.06,0,0.1c-0.02,0.35-0.08,1.29,1.53,2.23
		c0.09,0.05,0.15,0.15,0.15,0.25L4.74,22.83L4.74,22.83z"/>
	<path class="st0" d="M7.41,22.52L6.6,21.85l0.45-6.28l-0.3-0.65c-0.03-0.07,0-0.16,0.07-0.2c0.07-0.03,0.16,0,0.2,0.07l0.34,0.72
		l0,0.04L6.9,21.72l0.51,0.42l0.51-0.42l-0.44-6.21l0.34-0.72c0.03-0.07,0.12-0.11,0.2-0.07c0.07,0.03,0.11,0.12,0.07,0.2l-0.3,0.66
		l0.45,6.28L7.41,22.52z"/>
	<path class="st0" d="M7.59,15.75H7.18c-0.08,0-0.15-0.07-0.15-0.15s0.07-0.15,0.15-0.15h0.41c0.08,0,0.15,0.07,0.15,0.15
		S7.67,15.75,7.59,15.75z"/>
</g>
</svg>
