<?xml version="1.0" encoding="utf-8"?>
<!-- Generator: Adobe Illustrator 21.1.0, SVG Export Plug-In . SVG Version: 6.00 Build 0)  -->
<!DOCTYPE svg PUBLIC "-//W3C//DTD SVG 1.1//EN" "http://www.w3.org/Graphics/SVG/1.1/DTD/svg11.dtd">
<svg version="1.1" id="Layer_1" xmlns="http://www.w3.org/2000/svg" xmlns:xlink="http://www.w3.org/1999/xlink" x="0px" y="0px"
	 viewBox="0 0 32 32" style="enable-background:new 0 0 32 32;" xml:space="preserve">
<path d="M13.31,15.28c0.9,0.08,1.84,0.11,2.81,0.11c2.67,0,5.17-0.3,6.7-0.81c0.12-0.04,0.19-0.17,0.15-0.29
	c-0.04-0.12-0.17-0.19-0.29-0.15c-1.49,0.49-3.94,0.79-6.56,0.79c-0.95,0-1.88-0.04-2.77-0.11c-0.13-0.01-0.24,0.08-0.25,0.21
	C13.09,15.15,13.18,15.26,13.31,15.28L13.31,15.28z M9.12,14.39c0.59,0.23,1.37,0.43,2.31,0.58c0.01,0,0.02,0,0.02,0
	c0.07,0,0.14-0.05,0.15-0.13c0.01-0.08-0.04-0.16-0.13-0.18c-0.91-0.15-1.69-0.34-2.25-0.56c-0.08-0.03-0.17,0.01-0.2,0.09
	C9,14.27,9.04,14.36,9.12,14.39z M9.11,7.83c0.59,0.23,1.37,0.43,2.31,0.58c0.01,0,0.02,0,0.02,0c0.07,0,0.14-0.05,0.15-0.13
	c0.01-0.08-0.04-0.16-0.13-0.18c-0.91-0.15-1.69-0.34-2.25-0.56c-0.08-0.03-0.17,0.01-0.2,0.09C9,7.71,9.04,7.8,9.11,7.83L9.11,7.83
	z M13.3,8.71c0.9,0.08,1.85,0.11,2.81,0.11c2.67,0,5.17-0.3,6.7-0.81c0.12-0.04,0.19-0.17,0.15-0.29s-0.17-0.18-0.29-0.15
	c-1.49,0.49-3.94,0.79-6.56,0.79c-0.95,0-1.88-0.04-2.77-0.11c-0.12-0.01-0.24,0.08-0.25,0.21S13.17,8.7,13.3,8.71L13.3,8.71z
	 M11.48,21.21c-0.91-0.15-1.69-0.34-2.25-0.56c-0.08-0.03-0.17,0.01-0.2,0.09s0.01,0.17,0.09,0.2c0.59,0.23,1.37,0.42,2.31,0.58
	c0.01,0,0.02,0,0.02,0c0.07,0,0.14-0.05,0.15-0.13C11.62,21.3,11.57,21.22,11.48,21.21L11.48,21.21z M24.34,24.89v-4.67
	c0-0.36-0.26-0.67-0.7-0.93c0.44-0.26,0.7-0.57,0.7-0.93v-4.67c0-0.37-0.27-0.68-0.72-0.95c0.45-0.27,0.71-0.58,0.71-0.94V7.11
	c0-1.6-5.01-2.18-8.38-2.18S7.58,5.52,7.58,7.11v4.67c0,0.37,0.27,0.68,0.72,0.95C7.85,13,7.58,13.31,7.58,13.68v4.67
	c0,0.36,0.26,0.67,0.7,0.93c-0.44,0.26-0.7,0.57-0.7,0.93v4.67c0,1.6,5.01,2.17,8.38,2.17C19.33,27.06,24.34,26.48,24.34,24.89
	L24.34,24.89z M8.19,11.78V7.11c0-0.55,2.67-1.56,7.76-1.56s7.76,1.02,7.76,1.56v4.67c0,0.17-0.27,0.4-0.81,0.62
	c-0.27,0.11-0.61,0.22-1.01,0.33c-1.3,0.34-3.29,0.62-5.95,0.62c-2.65,0-4.64-0.27-5.94-0.62c-0.4-0.1-0.74-0.22-1.01-0.33
	C8.47,12.18,8.19,11.96,8.19,11.78L8.19,11.78z M8.2,18.35v-4.67c0-0.17,0.27-0.4,0.81-0.62c1.73,0.64,4.7,0.9,6.95,0.9
	c2.25,0,5.22-0.26,6.96-0.9c0.54,0.22,0.82,0.44,0.82,0.62v4.67c0,0.17-0.26,0.39-0.78,0.61c-0.26,0.11-0.6,0.22-1,0.33
	c-1.3,0.35-3.3,0.63-5.99,0.63s-4.69-0.28-5.99-0.63c-0.4-0.11-0.73-0.22-1-0.33C8.46,18.74,8.2,18.52,8.2,18.35L8.2,18.35z
	 M23.73,24.89c0,0.55-2.67,1.56-7.76,1.56S8.2,25.43,8.2,24.89v-4.67c0-0.17,0.26-0.39,0.78-0.61c1.73,0.65,4.73,0.91,6.99,0.91
	c2.26,0,5.25-0.26,6.99-0.91c0.52,0.22,0.78,0.43,0.78,0.61L23.73,24.89L23.73,24.89z M22.67,20.68c-1.49,0.5-3.94,0.79-6.56,0.79
	c-0.95,0-1.88-0.04-2.77-0.11c-0.13-0.01-0.24,0.08-0.25,0.21c-0.01,0.13,0.08,0.24,0.21,0.25c0.9,0.08,1.85,0.11,2.81,0.11
	c2.67,0,5.17-0.3,6.7-0.81c0.12-0.04,0.19-0.17,0.15-0.29S22.8,20.64,22.67,20.68L22.67,20.68z M6.86,18.92
	c-0.05-0.12-0.18-0.18-0.3-0.13c-0.12,0.05-0.18,0.18-0.13,0.3c0.03,0.07,0.05,0.13,0.09,0.2c-0.03,0.07-0.06,0.13-0.09,0.2
	c-0.05,0.12,0.01,0.25,0.13,0.3c0.03,0.01,0.05,0.01,0.08,0.01c0.09,0,0.18-0.06,0.22-0.15c0.03-0.08,0.07-0.17,0.11-0.24
	c0.04-0.07,0.04-0.16,0-0.23C6.93,19.09,6.89,19.01,6.86,18.92L6.86,18.92z M6.75,18.02v-0.67c0-0.13-0.1-0.23-0.23-0.23
	s-0.23,0.1-0.23,0.23v0.67c0,0.13,0.1,0.23,0.23,0.23S6.75,18.14,6.75,18.02z M6.75,14c0-0.13-0.1-0.23-0.23-0.23
	S6.29,13.87,6.29,14v0.67c0,0.13,0.1,0.23,0.23,0.23s0.23-0.1,0.23-0.23V14z M6.75,15.67c0-0.13-0.1-0.23-0.23-0.23
	s-0.23,0.1-0.23,0.23v0.67c0,0.13,0.1,0.23,0.23,0.23s0.23-0.1,0.23-0.23V15.67z M6.86,12.38c-0.05-0.12-0.18-0.18-0.3-0.13
	c-0.12,0.05-0.18,0.18-0.13,0.3c0.03,0.06,0.05,0.13,0.09,0.19c-0.03,0.06-0.06,0.13-0.09,0.19c-0.05,0.12,0.01,0.25,0.13,0.3
	c0.03,0.01,0.05,0.02,0.08,0.02c0.09,0,0.18-0.06,0.22-0.15c0.03-0.08,0.07-0.16,0.12-0.24c0.04-0.07,0.04-0.16,0-0.23
	C6.93,12.54,6.89,12.46,6.86,12.38L6.86,12.38z M25.48,10.66c-0.13,0-0.23,0.1-0.23,0.23v0.63c0,0.13,0.1,0.23,0.23,0.23
	s0.23-0.1,0.23-0.23v-0.63C25.71,10.77,25.6,10.66,25.48,10.66z M25.71,7.76c0-0.13-0.1-0.23-0.23-0.23s-0.23,0.1-0.23,0.23v0.63
	c0,0.13,0.1,0.23,0.23,0.23s0.23-0.1,0.23-0.23V7.76z M25.23,6.86c0.02,0.11,0.12,0.2,0.23,0.2c0.01,0,0.02,0,0.04,0
	c0.12-0.02,0.21-0.14,0.19-0.26c-0.04-0.23-0.11-0.45-0.23-0.66c-0.06-0.11-0.2-0.15-0.31-0.09c-0.11,0.06-0.15,0.2-0.09,0.31
	C25.14,6.51,25.2,6.68,25.23,6.86L25.23,6.86z M25.71,9.33c0-0.13-0.1-0.23-0.23-0.23s-0.23,0.1-0.23,0.23v0.63
	c0,0.13,0.1,0.23,0.23,0.23s0.23-0.1,0.23-0.23V9.33z M11.76,4.32c0.01,0,0.02,0,0.03,0C12,4.29,12.2,4.27,12.41,4.24
	c0.13-0.01,0.22-0.13,0.2-0.25c-0.01-0.13-0.13-0.22-0.25-0.2c-0.21,0.02-0.42,0.05-0.63,0.07c-0.13,0.02-0.21,0.13-0.2,0.26
	C11.55,4.23,11.65,4.32,11.76,4.32L11.76,4.32z M6.5,7.06c0.01,0,0.02,0,0.03,0c0.11,0,0.21-0.08,0.23-0.2
	c0.03-0.18,0.08-0.35,0.17-0.51c0.06-0.11,0.02-0.25-0.09-0.31C6.73,5.99,6.59,6.03,6.53,6.14C6.42,6.35,6.34,6.57,6.31,6.8
	C6.29,6.93,6.37,7.05,6.5,7.06L6.5,7.06z M13.32,4.16c0.01,0,0.01,0,0.02,0c0.21-0.02,0.42-0.03,0.62-0.04
	c0.13-0.01,0.22-0.11,0.22-0.24c-0.01-0.13-0.12-0.22-0.24-0.22c-0.21,0.01-0.42,0.03-0.63,0.04c-0.13,0.01-0.22,0.12-0.21,0.25
	C13.1,4.07,13.2,4.16,13.32,4.16L13.32,4.16z M10.21,4.59c0.02,0,0.03,0,0.05-0.01c0.2-0.04,0.4-0.09,0.61-0.12
	c0.12-0.02,0.21-0.14,0.19-0.27c-0.02-0.12-0.14-0.21-0.27-0.18c-0.21,0.04-0.42,0.08-0.62,0.12c-0.12,0.03-0.2,0.15-0.17,0.27
	C10.01,4.51,10.11,4.59,10.21,4.59L10.21,4.59z M6.51,8.63c0.13,0,0.23-0.1,0.23-0.23V7.77c0-0.13-0.1-0.23-0.23-0.23
	s-0.23,0.1-0.23,0.23V8.4C6.28,8.53,6.39,8.63,6.51,8.63z M24.01,5.38c0.18,0.1,0.35,0.21,0.49,0.33c0.04,0.03,0.09,0.05,0.14,0.05
	c0.07,0,0.13-0.03,0.18-0.09c0.08-0.1,0.06-0.24-0.03-0.32c-0.16-0.13-0.35-0.25-0.55-0.37c-0.11-0.06-0.25-0.02-0.31,0.09
	C23.86,5.18,23.9,5.32,24.01,5.38L24.01,5.38z M7.34,5.77c0.05,0,0.1-0.02,0.14-0.05c0.14-0.11,0.31-0.23,0.49-0.33
	c0.11-0.06,0.15-0.2,0.09-0.31c-0.06-0.11-0.2-0.15-0.31-0.09c-0.2,0.12-0.39,0.24-0.55,0.37c-0.1,0.08-0.11,0.22-0.03,0.32
	C7.21,5.74,7.27,5.77,7.34,5.77L7.34,5.77z M6.51,11.77c0.13,0,0.23-0.1,0.23-0.23v-0.63c0-0.13-0.1-0.23-0.23-0.23
	s-0.23,0.1-0.23,0.23v0.63C6.28,11.66,6.39,11.77,6.51,11.77z M6.51,10.2c0.13,0,0.23-0.1,0.23-0.23V9.34c0-0.13-0.1-0.23-0.23-0.23
	s-0.23,0.1-0.23,0.23v0.63C6.28,10.1,6.39,10.2,6.51,10.2z M8.71,5.03c0.03,0,0.06-0.01,0.08-0.01c0.18-0.07,0.38-0.14,0.58-0.2
	c0.12-0.04,0.19-0.16,0.15-0.29C9.49,4.41,9.36,4.34,9.24,4.37C9.02,4.44,8.82,4.51,8.63,4.58c-0.12,0.05-0.18,0.18-0.13,0.3
	C8.53,4.97,8.62,5.03,8.71,5.03z M18.02,4.12c0.2,0.01,0.41,0.02,0.62,0.04c0.01,0,0.01,0,0.02,0c0.12,0,0.22-0.09,0.23-0.21
	c0.01-0.13-0.09-0.24-0.21-0.25c-0.21-0.02-0.42-0.03-0.63-0.04c-0.13-0.01-0.24,0.09-0.24,0.22C17.79,4,17.89,4.11,18.02,4.12
	L18.02,4.12z M21.11,4.46c0.2,0.04,0.41,0.08,0.61,0.12c0.02,0,0.03,0.01,0.05,0.01c0.11,0,0.2-0.07,0.22-0.18
	c0.03-0.12-0.05-0.25-0.17-0.27c-0.2-0.05-0.41-0.09-0.62-0.12c-0.12-0.02-0.25,0.06-0.27,0.19S20.98,4.44,21.11,4.46L21.11,4.46z
	 M19.57,4.24c0.2,0.02,0.41,0.05,0.62,0.07c0.01,0,0.02,0,0.03,0c0.11,0,0.21-0.08,0.23-0.2c0.02-0.13-0.07-0.24-0.2-0.26
	c-0.21-0.03-0.42-0.05-0.63-0.07c-0.13-0.01-0.24,0.08-0.25,0.2C19.35,4.11,19.44,4.23,19.57,4.24z M22.61,4.81
	c0.2,0.06,0.4,0.13,0.58,0.2c0.03,0.01,0.05,0.01,0.08,0.01c0.09,0,0.18-0.06,0.22-0.15c0.05-0.12-0.01-0.25-0.13-0.3
	c-0.19-0.07-0.4-0.14-0.61-0.21c-0.12-0.04-0.25,0.03-0.29,0.15C22.42,4.65,22.49,4.77,22.61,4.81L22.61,4.81z M14.89,4.08
	C14.89,4.08,14.89,4.08,14.89,4.08c0.23-0.01,0.44-0.01,0.63-0.01c0.13,0,0.23-0.11,0.23-0.23c0-0.13-0.1-0.23-0.23-0.23
	c0,0,0,0,0,0c-0.2,0-0.41,0.01-0.63,0.01c-0.13,0-0.23,0.11-0.22,0.24C14.66,3.98,14.77,4.08,14.89,4.08L14.89,4.08z M16.46,4.07
	c0.2,0,0.41,0.01,0.62,0.01c0,0,0,0,0.01,0c0.12,0,0.23-0.1,0.23-0.22c0-0.13-0.1-0.23-0.22-0.24c-0.22-0.01-0.43-0.01-0.63-0.01
	c-0.13-0.01-0.23,0.1-0.23,0.23C16.23,3.96,16.33,4.07,16.46,4.07L16.46,4.07z M25.15,13.08c0.03,0.09,0.12,0.15,0.21,0.15
	c0.03,0,0.06-0.01,0.08-0.02c0.12-0.05,0.18-0.18,0.13-0.3c-0.02-0.06-0.05-0.13-0.09-0.19c0.03-0.06,0.06-0.13,0.08-0.19
	c0.05-0.12-0.01-0.25-0.13-0.3s-0.25,0.01-0.3,0.13c-0.03,0.08-0.07,0.17-0.12,0.24c-0.04,0.07-0.04,0.16,0,0.23
	C25.07,12.92,25.11,13,25.15,13.08L25.15,13.08z M25.49,13.76c-0.13,0-0.23,0.1-0.23,0.23v0.67c0,0.13,0.1,0.23,0.23,0.23
	s0.23-0.1,0.23-0.23v-0.67C25.72,13.86,25.61,13.76,25.49,13.76z M25.49,15.44c-0.13,0-0.23,0.1-0.23,0.23v0.67
	c0,0.13,0.1,0.23,0.23,0.23s0.23-0.1,0.23-0.23v-0.67C25.72,15.54,25.61,15.44,25.49,15.44z M25.49,17.11
	c-0.13,0-0.23,0.1-0.23,0.23v0.67c0,0.13,0.1,0.23,0.23,0.23s0.23-0.1,0.23-0.23v-0.67C25.72,17.22,25.61,17.11,25.49,17.11z
	 M25.15,19.64c0.03,0.09,0.12,0.15,0.22,0.15c0.03,0,0.05,0,0.08-0.01c0.12-0.05,0.18-0.18,0.13-0.3c-0.02-0.07-0.05-0.13-0.09-0.2
	c0.03-0.07,0.06-0.13,0.09-0.2c0.05-0.12-0.02-0.25-0.13-0.3c-0.12-0.04-0.25,0.02-0.3,0.13c-0.03,0.08-0.07,0.17-0.11,0.24
	c-0.04,0.07-0.04,0.16,0,0.23C25.08,19.47,25.12,19.56,25.15,19.64L25.15,19.64z M20.2,27.68c-0.21,0.03-0.41,0.05-0.62,0.07
	c-0.13,0.01-0.22,0.13-0.2,0.25c0.01,0.12,0.11,0.2,0.23,0.2c0.01,0,0.02,0,0.02,0c0.21-0.02,0.42-0.05,0.63-0.08
	c0.13-0.02,0.21-0.13,0.2-0.26C20.44,27.76,20.32,27.67,20.2,27.68L20.2,27.68z M25.49,23.39c-0.13,0-0.23,0.1-0.23,0.23v0.63
	c0,0.13,0.1,0.23,0.23,0.23s0.23-0.1,0.23-0.23v-0.63C25.72,23.49,25.61,23.39,25.49,23.39z M24.51,26.29
	c-0.14,0.11-0.31,0.22-0.49,0.33c-0.11,0.06-0.15,0.2-0.09,0.31c0.04,0.07,0.12,0.12,0.2,0.12c0.04,0,0.08-0.01,0.11-0.03
	c0.2-0.12,0.39-0.24,0.55-0.37c0.1-0.08,0.11-0.22,0.04-0.32C24.75,26.22,24.61,26.21,24.51,26.29L24.51,26.29z M25.49,20.26
	c-0.13,0-0.23,0.1-0.23,0.23v0.63c0,0.13,0.1,0.23,0.23,0.23s0.23-0.1,0.23-0.23v-0.63C25.72,20.36,25.61,20.26,25.49,20.26z
	 M25.5,24.95c-0.12-0.02-0.24,0.07-0.26,0.19c-0.03,0.18-0.09,0.35-0.18,0.51c-0.06,0.11-0.02,0.25,0.09,0.31
	c0.03,0.02,0.07,0.03,0.11,0.03c0.08,0,0.16-0.04,0.2-0.12c0.11-0.21,0.19-0.43,0.23-0.66C25.71,25.09,25.62,24.97,25.5,24.95
	L25.5,24.95z M25.49,21.82c-0.13,0-0.23,0.1-0.23,0.23v0.63c0,0.13,0.1,0.23,0.23,0.23s0.23-0.1,0.23-0.23v-0.63
	C25.72,21.92,25.61,21.82,25.49,21.82z M23.2,26.99c-0.18,0.07-0.38,0.13-0.58,0.19c-0.12,0.04-0.19,0.17-0.15,0.29
	c0.03,0.1,0.12,0.16,0.22,0.16c0.02,0,0.04,0,0.07-0.01c0.21-0.06,0.42-0.13,0.61-0.21c0.12-0.05,0.18-0.18,0.13-0.3
	S23.31,26.95,23.2,26.99L23.2,26.99z M21.73,27.42c-0.2,0.04-0.4,0.08-0.61,0.12c-0.12,0.02-0.21,0.14-0.19,0.27
	c0.02,0.11,0.12,0.19,0.23,0.19c0.01,0,0.03,0,0.04,0c0.21-0.04,0.42-0.08,0.62-0.12c0.12-0.03,0.2-0.15,0.17-0.27
	S21.85,27.39,21.73,27.42z M13.98,27.88c-0.2-0.01-0.41-0.02-0.62-0.04c-0.12-0.01-0.24,0.08-0.25,0.21
	c-0.01,0.13,0.09,0.24,0.21,0.25c0.21,0.02,0.43,0.03,0.63,0.04c0,0,0.01,0,0.01,0c0.12,0,0.22-0.09,0.23-0.22
	C14.2,28,14.11,27.89,13.98,27.88L13.98,27.88z M7.99,26.62c-0.18-0.1-0.35-0.21-0.49-0.33c-0.1-0.08-0.24-0.06-0.32,0.04
	c-0.08,0.1-0.06,0.24,0.04,0.32c0.16,0.13,0.35,0.25,0.55,0.37c0.04,0.02,0.07,0.03,0.11,0.03c0.08,0,0.16-0.04,0.2-0.12
	C8.14,26.82,8.1,26.68,7.99,26.62z M18.65,27.84c-0.21,0.02-0.42,0.03-0.62,0.04c-0.13,0.01-0.22,0.12-0.22,0.24
	c0.01,0.12,0.11,0.22,0.23,0.22c0,0,0.01,0,0.01,0c0.21-0.01,0.42-0.02,0.63-0.04c0.13-0.01,0.22-0.12,0.21-0.25
	C18.89,27.93,18.78,27.84,18.65,27.84L18.65,27.84z M6.52,24.47c0.13,0,0.23-0.1,0.23-0.23v-0.63c0-0.13-0.1-0.23-0.23-0.23
	s-0.23,0.1-0.23,0.23v0.63C6.29,24.37,6.4,24.47,6.52,24.47z M6.52,21.82c-0.13,0-0.23,0.1-0.23,0.23v0.63
	c0,0.13,0.1,0.23,0.23,0.23s0.23-0.1,0.23-0.23v-0.63C6.75,21.93,6.65,21.82,6.52,21.82z M6.75,20.49c0-0.13-0.1-0.23-0.23-0.23
	s-0.23,0.1-0.23,0.23v0.63c0,0.13,0.1,0.23,0.23,0.23s0.23-0.1,0.23-0.23V20.49z M6.77,25.15c-0.02-0.13-0.14-0.21-0.26-0.19
	c-0.12,0.02-0.21,0.14-0.19,0.26c0.04,0.23,0.11,0.45,0.23,0.66C6.59,25.95,6.67,26,6.75,26c0.04,0,0.08-0.01,0.11-0.03
	c0.11-0.06,0.15-0.2,0.09-0.31C6.86,25.5,6.8,25.32,6.77,25.15z M17.1,27.92c-0.22,0.01-0.43,0.01-0.62,0.01
	c-0.13,0-0.23,0.11-0.23,0.23c0,0.13,0.1,0.23,0.23,0.23c0,0,0,0,0,0c0.2,0,0.41-0.01,0.63-0.01c0.13,0,0.23-0.11,0.22-0.24
	S17.24,27.92,17.1,27.92L17.1,27.92z M15.54,27.93c-0.2,0-0.4-0.01-0.62-0.01c-0.13,0-0.23,0.1-0.24,0.22c0,0.13,0.1,0.23,0.22,0.24
	c0.22,0.01,0.43,0.01,0.63,0.01c0,0,0,0,0,0c0.13,0,0.23-0.1,0.23-0.23C15.77,28.04,15.66,27.93,15.54,27.93z M9.39,27.19
	c-0.2-0.06-0.4-0.13-0.58-0.19c-0.12-0.04-0.25,0.01-0.3,0.13c-0.05,0.12,0.01,0.25,0.13,0.3c0.19,0.07,0.4,0.14,0.61,0.2
	c0.02,0.01,0.04,0.01,0.07,0.01c0.1,0,0.19-0.06,0.22-0.16C9.58,27.36,9.51,27.23,9.39,27.19z M12.43,27.76
	c-0.2-0.02-0.41-0.05-0.62-0.07c-0.13-0.02-0.24,0.07-0.26,0.2c-0.02,0.13,0.07,0.24,0.2,0.26c0.21,0.03,0.42,0.05,0.63,0.08
	c0.01,0,0.02,0,0.02,0c0.12,0,0.22-0.09,0.23-0.2C12.64,27.88,12.55,27.77,12.43,27.76L12.43,27.76z M10.89,27.54
	c-0.2-0.04-0.41-0.08-0.61-0.12c-0.12-0.03-0.25,0.05-0.27,0.17c-0.03,0.12,0.05,0.25,0.17,0.27c0.2,0.05,0.41,0.09,0.62,0.12
	c0.01,0,0.03,0,0.04,0c0.11,0,0.21-0.08,0.23-0.19C11.1,27.68,11.02,27.56,10.89,27.54L10.89,27.54z"/>
</svg>
