<?xml version="1.0" encoding="utf-8"?>
<!-- Generator: Adobe Illustrator 21.1.0, SVG Export Plug-In . SVG Version: 6.00 Build 0)  -->
<!DOCTYPE svg PUBLIC "-//W3C//DTD SVG 1.1//EN" "http://www.w3.org/Graphics/SVG/1.1/DTD/svg11.dtd">
<svg version="1.1" id="Layer_1" xmlns="http://www.w3.org/2000/svg" xmlns:xlink="http://www.w3.org/1999/xlink" x="0px" y="0px"
	 viewBox="0 0 31.68 31.68" style="enable-background:new 0 0 31.68 31.68;" xml:space="preserve">
<g>
	<g>
		<g>
			<path d="M13.28,10.65c1.9,1.64,4.18,1.9,5.43,1.9c0.26,0,0.47-0.01,0.63-0.02l-0.39,1.26c-0.07,0.17-0.02,0.35,0.15,0.46
				c0.06,0.04,0.13,0.06,0.2,0.06c0.1,0,0.2-0.04,0.31-0.12l3.28-2.71c0.05-0.04,0.08-0.1,0.08-0.16c0-0.06-0.03-0.12-0.08-0.16
				l-3.28-2.72c-0.17-0.13-0.36-0.15-0.5-0.05c-0.17,0.11-0.22,0.29-0.15,0.46l0.4,1.3c-2.8,0-4.98-0.77-6.48-2.29
				c-2.03-2.05-2.18-4.86-2.19-5.41c0-0.03,0-0.07,0-0.1l-0.42-0.01c0,0.02,0,0.08,0,0.19C10.29,6.22,11.31,8.95,13.28,10.65z
				 M12.56,8.14c1.63,1.65,4,2.47,7.04,2.42c0.04,0,0.07-0.01,0.1-0.03c0.04-0.02,0.07-0.04,0.09-0.07
				c0.04-0.05,0.05-0.12,0.03-0.18L19.37,8.8l3.04,2.52l-3.04,2.52l0.46-1.48c0.02-0.06,0.01-0.13-0.03-0.18
				c-0.04-0.05-0.1-0.09-0.16-0.09l-0.06,0c0,0-0.01,0-0.01,0c0,0-0.01,0-0.02,0l-0.59,0.04c-1.11,0.03-3.5-0.13-5.41-1.79
				c-1.21-1.05-2.04-2.51-2.48-4.38C11.4,6.69,11.88,7.45,12.56,8.14z"/>
			<path d="M19.6,17.49c-0.11-0.08-0.21-0.12-0.31-0.12c-0.07,0-0.14,0.02-0.2,0.06c-0.17,0.11-0.22,0.29-0.15,0.46l0.39,1.26
				c-0.92-0.07-3.77-0.1-6.06,1.87c-1.97,1.7-2.98,4.44-3.02,8.13c0,0.11,0,0.18,0,0.19l0.42-0.01c0-0.03,0-0.07,0-0.1
				c0.01-0.55,0.16-3.36,2.19-5.41c1.5-1.52,3.68-2.29,6.48-2.29l-0.4,1.3c-0.07,0.17-0.02,0.35,0.15,0.46
				c0.14,0.09,0.33,0.07,0.5-0.05l3.28-2.72c0.05-0.04,0.08-0.1,0.08-0.16c0-0.06-0.03-0.12-0.08-0.16L19.6,17.49z M19.37,22.88
				l0.46-1.48c0.02-0.06,0.01-0.13-0.03-0.18c-0.02-0.03-0.06-0.06-0.09-0.07c-0.03-0.02-0.06-0.03-0.1-0.03
				c-3.04-0.05-5.41,0.77-7.04,2.42c-0.68,0.69-1.16,1.45-1.5,2.19c0.45-1.87,1.28-3.33,2.49-4.38c1.91-1.65,4.28-1.81,5.39-1.79
				l0.61,0.04c0.01,0,0.02,0,0.02,0c0,0,0.01,0,0.01,0l0.06,0c0.06,0,0.12-0.04,0.16-0.09c0.04-0.05,0.05-0.12,0.03-0.18l-0.46-1.48
				l3.04,2.52L19.37,22.88z"/>
			<path d="M26.53,15.69L23.28,13c-0.17-0.13-0.35-0.14-0.49-0.05c-0.16,0.11-0.22,0.29-0.15,0.45l0.4,1.29L3.08,15.59
				c0,0-0.01,0.52,0,0.52L23.04,17l-0.4,1.29c-0.07,0.17-0.02,0.34,0.15,0.45c0.06,0.04,0.13,0.06,0.2,0.06c0.1,0,0.2-0.04,0.3-0.12
				l3.24-2.68c0.05-0.04,0.08-0.1,0.08-0.16C26.6,15.78,26.58,15.73,26.53,15.69z M23.06,18.34l0.45-1.47
				c0.02-0.06,0.01-0.13-0.03-0.18c-0.04-0.05-0.09-0.08-0.16-0.09L3.37,15.85l19.96-0.75c0.06,0,0.12-0.04,0.16-0.09
				c0.04-0.05,0.05-0.12,0.03-0.18l-0.45-1.47l3.01,2.49L23.06,18.34z"/>
		</g>
	</g>
</g>
</svg>
