<?xml version="1.0" encoding="utf-8"?>
<!-- Generator: Adobe Illustrator 21.1.0, SVG Export Plug-In . SVG Version: 6.00 Build 0)  -->
<!DOCTYPE svg PUBLIC "-//W3C//DTD SVG 1.1//EN" "http://www.w3.org/Graphics/SVG/1.1/DTD/svg11.dtd">
<svg version="1.1" id="Layer_1" xmlns="http://www.w3.org/2000/svg" xmlns:xlink="http://www.w3.org/1999/xlink" x="0px" y="0px"
	 viewBox="0 0 32 32" style="enable-background:new 0 0 32 32;" xml:space="preserve">
<path d="M24.59,15.28c-0.81,0-1.5,0.52-1.76,1.24l-3.03-0.53c0.04-0.26,0.07-0.53,0.07-0.8c0-1.65-0.83-3.1-2.09-3.97l1.63-2.44
	c0.12,0.03,0.24,0.05,0.37,0.05c0.79,0,1.43-0.64,1.43-1.44c0-0.79-0.64-1.43-1.43-1.43s-1.43,0.64-1.43,1.43
	c0,0.52,0.28,0.97,0.69,1.22L17.43,11c-0.7-0.4-1.51-0.63-2.38-0.63c-1.56,0-2.95,0.75-3.83,1.91l-2.29-1.89
	c0.2-0.3,0.33-0.66,0.33-1.05c0-1.02-0.83-1.86-1.86-1.86c-1.02,0-1.86,0.83-1.86,1.86c0,1.02,0.83,1.86,1.86,1.86
	c0.49,0,0.93-0.19,1.27-0.5l2.32,1.92c-0.48,0.75-0.76,1.63-0.76,2.58c0,1.25,0.48,2.38,1.26,3.24l-1.63,1.35
	c-0.27-0.25-0.63-0.4-1.02-0.4c-0.85,0-1.53,0.69-1.53,1.53S8,22.45,8.85,22.45s1.53-0.69,1.53-1.53c0-0.31-0.09-0.59-0.25-0.83
	l1.65-1.37c0.86,0.8,2.01,1.29,3.27,1.29c0.67,0,1.31-0.14,1.9-0.39l1.28,3.42c-0.93,0.4-1.59,1.32-1.59,2.4
	c0,1.43,1.17,2.6,2.6,2.6s2.6-1.17,2.6-2.6s-1.17-2.6-2.6-2.6c-0.22,0-0.43,0.03-0.63,0.08l-1.3-3.47c1.18-0.63,2.06-1.73,2.4-3.05
	l3.02,0.53c-0.01,0.08-0.02,0.16-0.02,0.24c0,1.03,0.84,1.87,1.87,1.87c1.03,0,1.87-0.84,1.87-1.87
	C26.46,16.12,25.62,15.28,24.59,15.28L24.59,15.28z M19.78,6.51c0.49,0,0.89,0.4,0.89,0.89c0,0.49-0.4,0.89-0.89,0.89
	c-0.49,0-0.9-0.4-0.9-0.9S19.29,6.51,19.78,6.51z M7.4,10.65c-0.73,0-1.32-0.59-1.32-1.32c0-0.73,0.59-1.32,1.32-1.32
	c0.73,0,1.32,0.59,1.32,1.32C8.72,10.06,8.13,10.65,7.4,10.65z M21.31,25.44c0,1.14-0.92,2.06-2.06,2.06s-2.06-0.92-2.06-2.06
	c0-1.14,0.92-2.06,2.06-2.06S21.31,24.3,21.31,25.44z M8.85,21.91c-0.55,0-0.99-0.45-0.99-1c0-0.55,0.45-1,0.99-1s0.99,0.45,0.99,1
	C9.84,21.46,9.4,21.91,8.85,21.91z M15.05,19.36c-2.3,0-4.17-1.87-4.17-4.17s1.87-4.17,4.17-4.17c2.3,0,4.17,1.87,4.17,4.17
	S17.35,19.36,15.05,19.36z M24.59,18.48c-0.73,0-1.33-0.6-1.33-1.33c0-0.74,0.6-1.33,1.33-1.33c0.73,0,1.33,0.6,1.33,1.33
	C25.92,17.89,25.32,18.48,24.59,18.48z"/>
</svg>
