<?xml version="1.0" encoding="utf-8"?>
<!-- Generator: Adobe Illustrator 21.1.0, SVG Export Plug-In . SVG Version: 6.00 Build 0)  -->
<!DOCTYPE svg PUBLIC "-//W3C//DTD SVG 1.1//EN" "http://www.w3.org/Graphics/SVG/1.1/DTD/svg11.dtd">
<svg version="1.1" id="Layer_1" xmlns="http://www.w3.org/2000/svg" xmlns:xlink="http://www.w3.org/1999/xlink" x="0px" y="0px"
	 viewBox="0 0 31.68 31.68" style="enable-background:new 0 0 31.68 31.68;" xml:space="preserve">
<path d="M23.89,11.45c-0.07-0.06-0.17-0.05-0.22,0.01c-0.06,0.06-0.05,0.16,0,0.22c0.95,0.89,1.48,2.14,1.48,3.44
	c0,1.35-0.58,2.64-1.59,3.55c-0.07,0.06-0.07,0.16-0.02,0.22c0.06,0.07,0.16,0.07,0.22,0.02c0,0,0,0,0.01-0.01
	c1.08-0.96,1.69-2.33,1.7-3.78C25.48,13.74,24.91,12.41,23.89,11.45z M25.07,10.28c-0.08-0.06-0.2-0.05-0.26,0.03
	c-0.05,0.07-0.05,0.17,0.01,0.23c1.25,1.19,1.96,2.85,1.96,4.58c0,1.78-0.75,3.48-2.06,4.69c-0.07,0.07-0.07,0.19,0,0.26
	c0.03,0.03,0.08,0.05,0.12,0.05c0.05,0,0.09-0.02,0.13-0.05c1.39-1.28,2.18-3.08,2.18-4.96C27.15,13.29,26.4,11.54,25.07,10.28
	L25.07,10.28z M19.72,15.55c0.11,0,0.17-0.45,0.13-0.98s-0.17-0.94-0.28-0.94c-0.11,0-0.17,0.45-0.13,0.98S19.61,15.57,19.72,15.55
	L19.72,15.55z M23.05,13.01c-0.05-0.05-0.14-0.05-0.19,0s-0.05,0.14,0,0.19c0.53,0.5,0.84,1.2,0.84,1.93c0,0.76-0.33,1.48-0.89,1.99
	c-0.05,0.05-0.06,0.13-0.01,0.19c0.02,0.03,0.06,0.04,0.1,0.04c0.03,0,0.06-0.01,0.09-0.03c0.62-0.56,0.98-1.35,0.98-2.19
	C23.97,14.32,23.64,13.56,23.05,13.01L23.05,13.01z M19.15,7.29h-0.07c-0.68,0.05-1.19,0.88-1.49,2.38v0.07
	c-1.7,1.63-5.18,2.88-10.38,3.69c-2.2,0.46-2.82,1.71-2.65,2.72c0.18,1.09,1.33,2.14,2.95,2.14c0.15,0,0.29-0.01,0.44-0.03h0.17
	l0.66,1c0.16,0.26,0.46,0.42,0.76,0.41c0.36,1.26,2.11,4.2,2.33,4.56c0.06,0.1,0.16,0.15,0.27,0.15h0.05
	c1.16-0.18,1.81-1.48,1.84-1.54c0.04-0.09,0.04-0.19,0-0.28l-1.38-2.6v-0.94c0-0.05-0.01-0.09-0.03-0.14l-0.33-0.69
	c2.74,0.13,4.82,0.72,6.23,1.71c0.45,1.09,1.01,1.79,1.65,1.79h0.07c1.47-0.12,1.96-3.8,1.67-7.38
	C21.62,10.83,20.59,7.29,19.15,7.29z M5.14,16.05c-0.12-0.75,0.4-1.4,1.41-1.78c-0.38,0.63-0.49,1.38-0.31,2.09
	c0.1,0.48,0.34,0.91,0.68,1.26C5.94,17.42,5.27,16.76,5.14,16.05z M9.28,18.93L8.8,18.2c0.85-0.05,1.64-0.06,2.4-0.05
	c-0.42,0.3-0.87,0.57-1.34,0.81c-0.41,0.19-0.54,0-0.56-0.03H9.28z M13.37,22.71c-0.24,0.44-0.63,0.8-1.09,1
	c-0.79-1.34-1.91-3.38-2.14-4.18c0.56-0.28,1.1-0.61,1.61-0.98l0.26,0.54v0.94c0,0.05,0.01,0.1,0.04,0.14L13.37,22.71z M12.21,17.56
	h-0.03c-1.33-0.06-2.66-0.04-3.99,0.06l-0.31,0.02c-0.1,0.01-0.21,0.02-0.31,0.02c-0.52-0.29-0.87-0.8-0.98-1.38
	c-0.19-0.77,0-1.58,0.52-2.18l0.24-0.06c4.83-0.75,8.16-1.87,10.09-3.36c-0.13,1.32-0.14,2.65-0.03,3.98
	c0.1,1.45,0.36,2.89,0.76,4.29C16.7,18.16,14.71,17.7,12.21,17.56z M18.04,14.62c-0.04-0.53-0.07-1.05-0.07-1.56h1.12
	c-0.05,0.11-0.08,0.22-0.1,0.33c-0.07,0.42-0.09,0.84-0.05,1.26c0.02,0.54,0.16,1.07,0.4,1.55l-1.09,0.17
	C18.16,15.81,18.09,15.25,18.04,14.62z M19.45,13.05c0.09,0.02,0.38,0.51,0.46,1.52c0.08,1.01-0.12,1.54-0.21,1.57
	c-0.1-0.02-0.38-0.51-0.46-1.52S19.36,13.09,19.45,13.05L19.45,13.05z M20.18,21.05h-0.02c-0.55,0-1.4-1.62-1.87-4.38l1.44-0.22
	c0.2-0.03,0.35-0.25,0.43-0.65c0.07-0.42,0.09-0.84,0.05-1.26c-0.05-0.65-0.26-1.74-0.75-1.8h-1.51c-0.01-0.99,0.07-1.98,0.25-2.95
	c0.26-1.35,0.66-1.85,0.94-1.89c0.67,0,1.8,2.45,2.12,6.44c0.32,3.99-0.43,6.67-1.09,6.72L20.18,21.05z"/>
</svg>
