<?xml version="1.0" encoding="utf-8"?>
<!-- Generator: Adobe Illustrator 21.1.0, SVG Export Plug-In . SVG Version: 6.00 Build 0)  -->
<!DOCTYPE svg PUBLIC "-//W3C//DTD SVG 1.1//EN" "http://www.w3.org/Graphics/SVG/1.1/DTD/svg11.dtd">
<svg version="1.1" id="Layer_1" xmlns="http://www.w3.org/2000/svg" xmlns:xlink="http://www.w3.org/1999/xlink" x="0px" y="0px"
	 viewBox="0 0 31.68 31.68" style="enable-background:new 0 0 31.68 31.68;" xml:space="preserve">
<path d="M24,6.51H7.68c-0.64,0-1.16,0.52-1.16,1.16c0,0,0,0,0,0.01V24c0,0.64,0.52,1.16,1.16,1.16c0,0,0,0,0.01,0H24
	c0.64,0,1.16-0.52,1.16-1.16c0,0,0,0,0-0.01V7.68C25.17,7.04,24.65,6.52,24,6.51C24.01,6.51,24.01,6.51,24,6.51z M24.58,24
	c0,0.32-0.26,0.58-0.58,0.58c0,0,0,0-0.01,0H7.68c-0.32,0-0.58-0.26-0.58-0.58c0,0,0,0,0-0.01V7.68c0-0.32,0.26-0.58,0.58-0.58
	c0,0,0,0,0.01,0H24c0.32,0,0.58,0.26,0.58,0.58c0,0,0,0,0,0.01V24z M15.31,12.98l-2.26,6.34h0.97l0.52-1.52h2.52l0.52,1.52h1
	l-2.3-6.34H15.31z M14.85,16.96l0.52-1.45c0.03-0.13,0.1-0.26,0.13-0.39l0.13-0.42l0.13-0.39c0.03-0.09,0.06-0.19,0.06-0.29
	c0.03,0.1,0.06,0.2,0.1,0.29l0.13,0.39c0.03,0.13,0.1,0.29,0.13,0.42c0.03,0.13,0.1,0.26,0.13,0.39l0.52,1.45H14.85z M22.84,11.46
	c0,0.25,0.2,0.45,0.45,0.45c0.25,0,0.45-0.2,0.45-0.45c0-0.25-0.2-0.45-0.45-0.45c-0.23-0.02-0.44,0.16-0.45,0.39
	C22.84,11.42,22.84,11.44,22.84,11.46z M22.84,8.39c0,0.25,0.2,0.45,0.45,0.45s0.45-0.2,0.45-0.45c0-0.25-0.2-0.45-0.45-0.45
	c-0.24-0.01-0.45,0.19-0.45,0.43C22.84,8.38,22.84,8.38,22.84,8.39z M22.84,9.91c0,0.25,0.2,0.45,0.45,0.45
	c0.25,0,0.45-0.2,0.45-0.45c0-0.25-0.2-0.45-0.45-0.45c-0.24-0.01-0.45,0.19-0.45,0.43C22.84,9.89,22.84,9.9,22.84,9.91z"/>
</svg>
