<?xml version="1.0" encoding="utf-8"?>
<!-- Generator: Adobe Illustrator 21.1.0, SVG Export Plug-In . SVG Version: 6.00 Build 0)  -->
<!DOCTYPE svg PUBLIC "-//W3C//DTD SVG 1.1//EN" "http://www.w3.org/Graphics/SVG/1.1/DTD/svg11.dtd">
<svg version="1.1" id="Layer_1" xmlns="http://www.w3.org/2000/svg" xmlns:xlink="http://www.w3.org/1999/xlink" x="0px" y="0px"
	 viewBox="0 0 31.68 31.68" style="enable-background:new 0 0 31.68 31.68;" xml:space="preserve">
<g>
	<path d="M12.66,15.66c0.01,0,0.02,0,0.03,0h0.19h0.01h6.13c0.12,0,0.22-0.1,0.22-0.22c0-0.03-0.01-0.06-0.02-0.08l-0.09-0.22
		c-0.07-0.19-0.15-0.37-0.23-0.54c-0.1-0.13-0.26-0.21-0.42-0.18h-2.93h-2.5c-0.11,0-0.22,0.06-0.27,0.16l-0.05,0.09
		c-0.13,0.23-0.21,0.49-0.25,0.75C12.46,15.54,12.54,15.65,12.66,15.66z M13.1,14.87l0.02-0.03h0.05h1.32h1.03h2.96h0.06
		c0.05,0.12,0.1,0.23,0.16,0.37h-5.75C12.99,15.09,13.04,14.98,13.1,14.87z"/>
	<path d="M20.78,23.86c-0.28-1.61-1.2-2.88-2.71-3.79c-0.53-0.32-1.09-0.6-1.62-0.88c-0.35-0.18-0.71-0.37-1.05-0.56
		c-0.35-0.19-0.68-0.41-1-0.64c0.52,0,2.12,0,2.64,0h0.24l-0.55,0.42c-0.1,0.07-0.12,0.21-0.05,0.3c0.01,0.01,0.02,0.02,0.03,0.03
		l0.02,0.02c0.03,0.03,0.06,0.05,0.1,0.07l0.07,0.04c0.43,0.22,0.87,0.45,1.3,0.67c0.05,0.02,0.1,0.03,0.15,0.03
		c0.08,0,0.15-0.02,0.22-0.07c0.68-0.47,1.26-1.06,1.73-1.74c0.15-0.23,0.26-0.47,0.35-0.73c0.27-0.83,0.25-1.73-0.06-2.55
		c-0.02-0.05-0.04-0.09-0.05-0.14c-0.45-1.14-1.5-1.92-2.25-2.42c-0.54-0.36-1.12-0.65-1.67-0.95c-0.28-0.15-0.55-0.29-0.82-0.43
		l-0.82-0.46h0.12h0.52c0.37,0,1.09,0,1.63-0.03c-0.09,0.06-0.17,0.13-0.25,0.22c-0.06,0.07-0.09,0.16-0.09,0.25
		c0.02,0.12,0.1,0.22,0.22,0.26c0.32,0.16,0.63,0.31,0.95,0.47c0.12,0.06,0.25,0.1,0.39,0.1c0.19-0.01,0.38-0.08,0.52-0.22
		c1.12-0.9,1.79-2.25,1.84-3.68c0.03-0.36-0.14-0.7-0.45-0.89c-0.29-0.19-0.65-0.22-0.97-0.07c-0.31,0.16-0.53,0.47-0.56,0.82h-0.76
		h-5.19V7.25c-0.07-0.52-0.53-0.9-1.06-0.87c-0.53,0.03-0.94,0.48-0.92,1.01c0.02,0.92,0.3,1.82,0.81,2.59
		c0.51,0.73,1.18,1.33,1.96,1.77c0.63,0.37,1.2,0.68,1.76,0.94l0.47,0.22c0.31,0.14,0.62,0.28,0.93,0.43l0.08,0.04
		c0.25,0.12,0.43,0.22,0.55,0.28h-3.12c0.17-0.11,0.34-0.21,0.52-0.31c0.07-0.04,0.11-0.11,0.12-0.19c0-0.08-0.04-0.15-0.11-0.19
		c-0.28-0.17-0.58-0.33-0.87-0.49c-0.18-0.1-0.36-0.19-0.53-0.29c-0.59-0.34-1.25,0.57-1.57,1l-0.06,0.09
		c-0.61,0.77-0.94,1.72-0.95,2.7c0.04,2.08,1.99,3.45,2.83,3.94c0.64,0.38,1.3,0.74,1.95,1.09c0.34,0.19,0.69,0.37,1.03,0.57
		c0.17,0.09,0.33,0.19,0.48,0.29c-0.27-0.02-0.87-0.05-1.15-0.06c-0.28-0.01-0.99-0.02-1.44-0.05c0.11-0.08,0.22-0.16,0.26-0.19
		c0.11-0.04,0.18-0.16,0.14-0.27c-0.02-0.05-0.05-0.09-0.1-0.12l-0.38-0.22c-0.29-0.17-0.57-0.32-0.87-0.51
		c-0.19-0.14-0.45-0.12-0.62,0.04c-0.52,0.41-0.97,0.9-1.34,1.45c-0.42,0.62-0.69,1.33-0.77,2.07c-0.06,0.43,0.12,0.85,0.47,1.11
		c0.15,0.11,0.33,0.16,0.51,0.16c0.5-0.01,0.93-0.38,0.99-0.88v-0.05c0.83,0,1.71,0.05,2.57,0.09c0.94,0.02,2.54,0.06,3.47,0.06
		c0.09,0.39,0.42,0.69,0.82,0.74c0.05,0,0.09,0,0.14,0c0.36,0,0.69-0.2,0.87-0.51C20.83,24.47,20.86,24.16,20.78,23.86z
		 M20.32,24.55c-0.11,0.2-0.34,0.32-0.57,0.29c-0.23-0.03-0.42-0.2-0.47-0.43c0-0.03-0.01-0.07-0.02-0.1
		c-0.02-0.13-0.13-0.22-0.25-0.22h-0.54c-0.29,0-0.59,0-0.59,0c-0.81,0-1.65-0.05-2.46-0.09c-0.92-0.05-1.88-0.09-2.78-0.09
		c-0.11,0-0.2,0.08-0.22,0.19l-0.03,0.23c-0.03,0.28-0.25,0.49-0.53,0.52c-0.32,0-0.58-0.25-0.58-0.57c0-0.02,0-0.04,0-0.07
		c0.06-0.73,0.31-1.43,0.72-2.03c0.34-0.52,0.76-0.97,1.25-1.35c0.02-0.02,0.04-0.03,0.06-0.04c0.02,0.01,0.04,0.01,0.05,0.03
		c0.31,0.19,0.59,0.35,0.89,0.52l0.08,0.05l-0.06,0.05c-0.37,0.3-0.47,0.38-0.42,0.55s0.07,0.22,2.13,0.27h0.27l1.35,0.04h0.16
		c0.12-0.01,0.21-0.11,0.21-0.23c0-0.05-0.03-0.11-0.06-0.15c-0.31-0.27-0.66-0.51-1.02-0.71c-0.34-0.2-0.69-0.38-1.04-0.57
		c-0.64-0.35-1.3-0.7-1.93-1.09c-0.77-0.45-2.57-1.71-2.61-3.58c0.01-0.88,0.32-1.74,0.87-2.43l0.07-0.09
		c0.54-0.74,0.81-0.9,0.94-0.9c0.02,0,0.04,0.01,0.06,0.02c0.18,0.1,0.36,0.2,0.54,0.3c0.18,0.1,0.35,0.19,0.53,0.29
		c-0.26,0.16-0.51,0.33-0.74,0.53c-0.09,0.09-0.1,0.23-0.01,0.33c0.04,0.05,0.11,0.08,0.17,0.08h3.93h0.15h0.07
		c0.09,0,0.16-0.06,0.2-0.14l0.03-0.07c0.12-0.3-0.25-0.54-1.02-0.89L17,12.94c-0.31-0.16-0.63-0.3-0.94-0.43l-0.47-0.22
		c-0.55-0.25-1.11-0.56-1.72-0.92c-0.72-0.41-1.34-0.97-1.81-1.65c-0.46-0.7-0.72-1.52-0.73-2.37c-0.01-0.3,0.22-0.55,0.52-0.56
		c0.3-0.02,0.56,0.2,0.59,0.49c0,0.05,0.01,0.1,0.02,0.15v0.08c0.01,0.11,0.11,0.2,0.22,0.2h4.85h1.52c0.09,0,0.17-0.07,0.17-0.17
		c0-0.07,0.02-0.14,0.02-0.2c0.01-0.22,0.14-0.41,0.33-0.51c0.18-0.08,0.38-0.06,0.54,0.05c0.17,0.1,0.27,0.3,0.25,0.5
		c-0.03,1.32-0.65,2.56-1.68,3.38c-0.1,0.13-0.3,0.16-0.43,0.07c-0.27-0.13-0.55-0.26-0.82-0.4l0.08-0.06l0.07-0.05
		c0.18-0.13,0.37-0.26,0.54-0.42c0.07-0.06,0.08-0.17,0.02-0.25c-0.03-0.04-0.08-0.06-0.14-0.06l-2.4,0.03h-0.53
		c-0.11,0-0.65,0-0.92,0c-0.1,0-0.19,0.06-0.22,0.16c-0.03,0.1,0.01,0.2,0.1,0.25c0.51,0.29,1.03,0.59,1.54,0.87
		c0.28,0.15,0.55,0.3,0.83,0.45c0.53,0.3,1.11,0.6,1.62,0.95c0.7,0.46,1.68,1.19,2.09,2.22c0.02,0.04,0.03,0.08,0.05,0.13
		c0.28,0.73,0.3,1.53,0.07,2.27c-0.07,0.23-0.18,0.45-0.31,0.65c-0.43,0.62-0.96,1.16-1.58,1.59c-0.37-0.19-0.74-0.38-1.11-0.57
		L18,18.02c0.08-0.06,0.11-0.16,0.08-0.25l-0.01-0.05c-0.02-0.09-0.11-0.16-0.2-0.17H17.8h-0.15h-0.61c-0.52,0-2.11,0-2.63,0h-0.24
		c-0.27,0-0.63-0.05-0.7,0.09c-0.05,0.07-0.04,0.17,0.03,0.22c0,0,0,0,0,0c0.22,0.17,0.43,0.33,0.65,0.49
		c0.33,0.24,0.68,0.46,1.04,0.65c0.35,0.19,0.71,0.38,1.06,0.56c0.53,0.27,1.09,0.56,1.59,0.87c1.4,0.84,2.25,2.02,2.51,3.49
		C20.42,24.14,20.4,24.36,20.32,24.55z"/>
	<path d="M18.74,22.87c-0.11-0.16-0.29-0.27-0.48-0.27c-0.14,0-0.28-0.01-0.27,0c-0.96-0.04-3.94-0.16-4.35-0.17
		c-0.03,0-0.35-0.04-0.48,0.17c-0.08,0.13-0.17,0.27-0.27,0.42l-0.15,0.22c-0.07,0.1-0.04,0.23,0.06,0.3
		c0.03,0.02,0.07,0.04,0.11,0.04h0.11h0.17c0.7,0,1.45,0.05,2.17,0.09c0.72,0.04,1.44,0.09,2.13,0.09h0.99h0.26
		c0.16,0,0.28-0.13,0.28-0.28c0-0.03-0.01-0.07-0.02-0.1C18.92,23.19,18.83,23.02,18.74,22.87z M18.43,23.3v0.01
		c-0.72,0-2.28-0.05-3.04-0.09c-0.69-0.04-1.4-0.08-2.07-0.09c0.07-0.1,0.13-0.19,0.19-0.29c0.04,0,0.08,0,0.12,0
		c0.42,0,3.7,0.19,4.52,0.18c0.1,0,0.2,0.05,0.26,0.14c0.03,0.05,0.05,0.09,0.07,0.14H18.43z"/>
	<path d="M18.67,17.18c0.11,0,0.22-0.06,0.27-0.16L19,16.94c0.13-0.23,0.21-0.49,0.25-0.75c0.01-0.12-0.07-0.23-0.19-0.24
		c-0.01,0-0.02,0-0.03,0h-0.2v0h-6.14c-0.12,0-0.22,0.1-0.22,0.22c0,0.03,0.01,0.06,0.02,0.09l0.1,0.22
		c0.07,0.19,0.15,0.37,0.23,0.54c0.1,0.13,0.26,0.2,0.42,0.18h2.93H18.67z M13.17,16.75c-0.06-0.12-0.11-0.24-0.15-0.37h5.74
		c-0.04,0.12-0.08,0.24-0.15,0.35h0l-0.02,0.03h-0.05h-1.32h-1.03l-2.96-0.01H13.17z"/>
	<path d="M17.56,9.24h0.06l0.97-0.01c0.06,0,0.12-0.03,0.16-0.09c0.17-0.29,0.29-0.6,0.36-0.92c0.02-0.07-0.03-0.14-0.1-0.16
		c-0.01,0-0.02,0-0.03,0h-1.3c-0.75,0-1.5,0-2.24,0h-0.55c-0.59,0-2.02,0.03-2.04,0.03c-0.12,0-0.22,0.1-0.22,0.22
		c0,0.04,0.01,0.08,0.03,0.11l0.09,0.18c0.08,0.18,0.17,0.36,0.27,0.53c0.09,0.12,0.24,0.19,0.4,0.17
		C14.06,9.3,16.14,9.28,17.56,9.24L17.56,9.24z M13.36,8.86c-0.06-0.11-0.12-0.22-0.17-0.33c0.46,0,1.28-0.03,1.69-0.03h0.53
		c0.75,0,2.3,0,3.04,0c0.04,0,0.07-0.01,0.11-0.01c-0.04,0.11-0.08,0.21-0.13,0.31c-1.18,0.02-3.99,0.06-4.94,0.06
		C13.45,8.86,13.41,8.86,13.36,8.86z"/>
</g>
</svg>
