<?xml version="1.0" encoding="utf-8"?>
<!-- Generator: Adobe Illustrator 21.1.0, SVG Export Plug-In . SVG Version: 6.00 Build 0)  -->
<!DOCTYPE svg PUBLIC "-//W3C//DTD SVG 1.1//EN" "http://www.w3.org/Graphics/SVG/1.1/DTD/svg11.dtd">
<svg version="1.1" id="Layer_1" xmlns="http://www.w3.org/2000/svg" xmlns:xlink="http://www.w3.org/1999/xlink" x="0px" y="0px"
	 viewBox="0 0 32 32" style="enable-background:new 0 0 32 32;" xml:space="preserve">
<path d="M24.86,24.87l-3.72-7.81c-0.01-0.02-0.02-0.03-0.04-0.05l0.06-0.29c0.03-0.16,0.21-0.36,0.37-0.41l1.44-0.47
	c0.42-0.14,0.65-0.59,0.51-1.01l-0.47-1.44c-0.05-0.15,0.01-0.41,0.11-0.54l1.01-1.13c0.29-0.33,0.27-0.83-0.06-1.13l-1.12-1.02
	c-0.12-0.11-0.2-0.36-0.17-0.52l0.31-1.48c0.09-0.43-0.19-0.86-0.62-0.95l-1.48-0.32c-0.16-0.03-0.36-0.21-0.41-0.37l-0.47-1.44
	c-0.11-0.33-0.41-0.55-0.76-0.55c-0.08,0-0.17,0.01-0.25,0.04l-1.44,0.47c-0.15,0.05-0.42-0.01-0.54-0.11l-1.13-1.01
	c-0.31-0.28-0.85-0.25-1.13,0.06l-1.02,1.12c-0.11,0.12-0.37,0.2-0.52,0.17l-1.48-0.31C11.44,4.3,11.01,4.58,10.92,5l-0.32,1.48
	c-0.03,0.16-0.21,0.36-0.37,0.41L8.8,7.36C8.38,7.5,8.15,7.95,8.29,8.37l0.47,1.44c0.05,0.15-0.01,0.41-0.11,0.54l-1.01,1.13
	c-0.29,0.33-0.27,0.83,0.06,1.13l1.12,1.02c0.12,0.11,0.2,0.36,0.17,0.52l-0.31,1.48c-0.09,0.43,0.19,0.86,0.62,0.95l1.48,0.32
	c0.07,0.02,0.16,0.07,0.23,0.13l-3.82,7.86c-0.14,0.28-0.28,0.56-0.09,0.79c0.18,0.22,0.5,0.14,0.71,0.09l2.91-0.49
	c0.1-0.02,0.22-0.04,0.27-0.04c0.03,0.04,0.08,0.13,0.11,0.17l1.7,2.86c0.14,0.28,0.32,0.56,0.62,0.56l0,0
	c0.34,0,0.52-0.36,0.58-0.5l2.04-4.14l2.03,4.13c0.11,0.22,0.26,0.53,0.55,0.53h0c0.28,0,0.43-0.29,0.54-0.52l1.8-2.86
	c0.04-0.06,0.12-0.17,0.12-0.17c0.03-0.01,0.14,0.01,0.24,0.03l3.05,0.29c0.22,0.03,0.45,0.07,0.59-0.13
	C25.08,25.29,24.96,25.06,24.86,24.87L24.86,24.87z M10.89,16.29l-1.48-0.32c-0.1-0.02-0.16-0.12-0.14-0.22l0.31-1.48
	c0.08-0.37-0.07-0.85-0.36-1.1L8.1,12.15c-0.07-0.07-0.08-0.19-0.01-0.27l1.01-1.13c0.25-0.28,0.36-0.77,0.24-1.13L8.87,8.18
	c-0.03-0.1,0.02-0.2,0.12-0.24l1.44-0.47c0.36-0.12,0.7-0.49,0.77-0.86l0.32-1.48c0.02-0.1,0.12-0.17,0.22-0.14l1.48,0.31
	c0.37,0.08,0.85-0.08,1.1-0.36l1.02-1.12c0.05-0.05,0.11-0.06,0.14-0.06c0.05,0,0.09,0.02,0.12,0.05l1.13,1.01
	c0.2,0.18,0.51,0.29,0.81,0.29c0.12,0,0.22-0.02,0.32-0.05l1.44-0.47c0.09-0.03,0.2,0.03,0.24,0.12l0.47,1.44
	c0.12,0.36,0.49,0.7,0.86,0.78l1.48,0.32c0.1,0.02,0.17,0.12,0.14,0.22l-0.31,1.48c-0.08,0.37,0.08,0.85,0.36,1.1l1.12,1.02
	c0.08,0.07,0.08,0.19,0.01,0.27l-1.01,1.13c-0.25,0.28-0.36,0.77-0.24,1.13l0.47,1.44c0.03,0.1-0.02,0.2-0.12,0.24l-1.44,0.47
	c-0.36,0.12-0.7,0.49-0.78,0.86l-0.32,1.48c-0.02,0.1-0.12,0.17-0.22,0.14l-1.48-0.31c-0.37-0.08-0.85,0.08-1.1,0.36l-1.01,1.12
	c-0.05,0.05-0.11,0.06-0.14,0.06c-0.05,0-0.09-0.02-0.12-0.05l-1.13-1.01c-0.2-0.18-0.51-0.29-0.81-0.29
	c-0.12,0-0.22,0.02-0.32,0.05l-1.44,0.47c-0.1,0.03-0.2-0.03-0.24-0.12l-0.47-1.44c-0.02-0.07-0.06-0.14-0.1-0.2
	c-0.02-0.07-0.06-0.12-0.11-0.16C11.37,16.5,11.13,16.34,10.89,16.29L10.89,16.29z M13.44,28.06c-0.01,0.03-0.03,0.05-0.04,0.08
	c-0.02-0.04-0.05-0.09-0.08-0.16l-1.71-2.88c-0.28-0.49-0.45-0.52-1-0.43l-2.88,0.48c0,0,0,0,0,0l3.6-7.41l0.32,0.97
	c0.11,0.33,0.41,0.55,0.76,0.55c0.08,0,0.17-0.01,0.24-0.04l1.44-0.47c0.14-0.05,0.42,0.01,0.54,0.11l1.13,1.01
	c0.15,0.13,0.34,0.2,0.53,0.2c0.23,0,0.44-0.1,0.59-0.26l1.01-1.12c0.05-0.06,0.14-0.1,0.23-0.13L13.44,28.06L13.44,28.06z
	 M21.48,24.74l-0.08-0.01c-0.53-0.08-0.65-0.03-0.96,0.41l-1.81,2.89c-0.01,0.01-0.01,0.02-0.02,0.03c0,0,0,0.01,0,0.01l-2.23-4.56
	l2.42-4.91l1.12,0.24c0.42,0.09,0.86-0.19,0.95-0.62l0.05-0.24L24.25,25L21.48,24.74L21.48,24.74z M16.03,16.88
	c3,0,5.44-2.44,5.44-5.44S19.03,6,16.03,6c-3,0-5.44,2.44-5.44,5.44C10.59,14.44,13.03,16.88,16.03,16.88z M16.03,6.46
	c2.74,0,4.98,2.23,4.98,4.98s-2.23,4.98-4.98,4.98s-4.98-2.23-4.98-4.98C11.05,8.7,13.28,6.46,16.03,6.46z M16.03,15.98
	c2.5,0,4.54-2.04,4.54-4.54S18.53,6.9,16.03,6.9s-4.54,2.04-4.54,4.54C11.49,13.94,13.52,15.98,16.03,15.98z M16.03,7.28
	c2.29,0,4.16,1.87,4.16,4.16s-1.87,4.16-4.16,4.16c-2.29,0-4.16-1.86-4.16-4.16S13.73,7.28,16.03,7.28z"/>
</svg>
