<?xml version="1.0" encoding="utf-8"?>
<!-- Generator: Adobe Illustrator 21.1.0, SVG Export Plug-In . SVG Version: 6.00 Build 0)  -->
<!DOCTYPE svg PUBLIC "-//W3C//DTD SVG 1.1//EN" "http://www.w3.org/Graphics/SVG/1.1/DTD/svg11.dtd">
<svg version="1.1" id="Layer_1" xmlns="http://www.w3.org/2000/svg" xmlns:xlink="http://www.w3.org/1999/xlink" x="0px" y="0px"
	 viewBox="0 0 32 32" style="enable-background:new 0 0 32 32;" xml:space="preserve">
<path d="M25.13,8.46c-0.05-0.06-0.13-0.09-0.2-0.09c-0.48,0-4.8,0.07-8.19,2.69c-1.71,1.32-3.15,2.8-4.03,4.17
	c-0.77,1.19-1.05,2.19-0.83,2.89c-3.46,2.97-4.96,4.64-4.98,4.66c-0.13,0.15-0.12,0.38,0.03,0.52l0.27,0.24
	c0.07,0.06,0.16,0.09,0.24,0.09c0.1,0,0.2-0.04,0.27-0.12c0.03-0.03,1.5-1.66,4.9-4.58c0.26,0.12,0.58,0.18,0.96,0.18
	c1.69,0,4.41-1.25,6.92-3.18c3.52-2.72,4.65-7.07,4.7-7.26C25.21,8.6,25.18,8.52,25.13,8.46L25.13,8.46z M12.29,18.73
	c-3.37,2.9-4.82,4.51-4.85,4.54l-0.27-0.24c0.03-0.03,1.49-1.65,4.87-4.57c0.12-0.1,0.25-0.21,0.37-0.32
	c2.41-2.06,5.72-4.71,10.1-7.87l0.21,0.3c-4.36,3.15-7.66,5.79-10.06,7.84C12.54,18.51,12.41,18.62,12.29,18.73z M22.3,13.39
	c-0.01,0-0.01-0.01-0.02-0.01l-1.71-0.24c-0.07-0.01-0.13,0.04-0.14,0.1s0.04,0.13,0.1,0.14l1.6,0.23
	c-0.11,0.15-0.23,0.29-0.36,0.43l-1.96-0.23c-0.07-0.01-0.13,0.04-0.14,0.11s0.04,0.13,0.11,0.14l1.79,0.21
	c-0.41,0.45-0.87,0.88-1.38,1.28c-0.55,0.42-1.1,0.81-1.65,1.15c-0.01-0.01-0.03-0.01-0.04-0.01l-1.71-0.24
	c-0.07-0.01-0.13,0.04-0.14,0.1c-0.01,0.07,0.04,0.13,0.1,0.14l1.47,0.21c-1.78,1.08-3.49,1.73-4.66,1.73
	c-0.2,0-0.38-0.02-0.53-0.06c2.38-2.03,5.63-4.62,9.9-7.7c0.16-0.12,0.2-0.35,0.08-0.51l-0.21-0.3c-0.06-0.08-0.14-0.13-0.24-0.15
	c-0.02,0-0.04-0.01-0.06-0.01c-0.08,0-0.15,0.02-0.21,0.07c-4.31,3.11-7.6,5.73-10,7.78c-0.06-0.55,0.22-1.34,0.82-2.27
	c0.31-0.48,0.69-0.97,1.12-1.46l-0.15,1.53c-0.01,0.07,0.04,0.13,0.11,0.13c0,0,0.01,0,0.01,0c0.06,0,0.11-0.05,0.12-0.11l0.18-1.83
	c0-0.01,0-0.01,0-0.01c0.11-0.12,0.22-0.24,0.33-0.35l-0.15,1.58c-0.01,0.07,0.04,0.13,0.11,0.13c0,0,0.01,0,0.01,0
	c0.06,0,0.11-0.05,0.12-0.11l0.18-1.83c0-0.01,0-0.02,0-0.03c0.58-0.57,1.23-1.14,1.93-1.67c0.22-0.17,0.45-0.33,0.68-0.48
	l-0.2,1.43c-0.01,0.07,0.04,0.13,0.1,0.14c0.01,0,0.01,0,0.02,0c0.06,0,0.11-0.04,0.12-0.1l0.23-1.63c2.66-1.62,5.65-1.89,6.64-1.93
	C24.39,9.61,23.7,11.54,22.3,13.39L22.3,13.39z"/>
</svg>
