<?xml version="1.0" encoding="utf-8"?>
<!-- Generator: Adobe Illustrator 21.1.0, SVG Export Plug-In . SVG Version: 6.00 Build 0)  -->
<!DOCTYPE svg PUBLIC "-//W3C//DTD SVG 1.1//EN" "http://www.w3.org/Graphics/SVG/1.1/DTD/svg11.dtd">
<svg version="1.1" id="Layer_1" xmlns="http://www.w3.org/2000/svg" xmlns:xlink="http://www.w3.org/1999/xlink" x="0px" y="0px"
	 viewBox="0 0 31.68 31.68" style="enable-background:new 0 0 31.68 31.68;" xml:space="preserve">
<path d="M15.85,29.05c-0.01,0-0.03,0-0.04,0c-6.26-0.73-10.63-5.7-10.63-12.1V7.06c0-0.14,0.09-0.27,0.22-0.31
	c1.9-0.64,9.64-2.12,10.46-2.12c0.69,0,8.37,1.43,10.42,2.12c0.13,0.05,0.22,0.17,0.22,0.31v9.88c0,6.39-4.37,11.37-10.61,12.1
	C15.88,29.05,15.87,29.05,15.85,29.05z M5.84,7.31v9.65c0,7.07,5.02,10.84,10.02,11.44c4.98-0.6,10-4.36,10-11.44V7.31
	c-2.24-0.69-9.36-2.02-9.99-2.02C15.23,5.29,8.08,6.62,5.84,7.31z M15.85,27.23c-0.01,0-0.02,0-0.03,0
	c-4.44-0.6-8.92-4.02-8.92-10.28v-7.3c0-0.11,0.07-0.21,0.19-0.24c2.6-0.64,7.76-1.61,8.75-1.69c0.01,0,0.03,0,0.05,0
	c0.84,0.09,6.03,1.03,8.71,1.69c0.11,0.03,0.19,0.13,0.19,0.24v7.3c0,6.26-4.47,9.67-8.9,10.28C15.87,27.23,15.86,27.23,15.85,27.23
	z M7.4,9.84v7.11c0,5.95,4.25,9.2,8.46,9.79c4.2-0.58,8.44-3.84,8.44-9.79V9.84c-2.63-0.64-7.58-1.54-8.44-1.63
	C14.95,8.3,10.09,9.19,7.4,9.84z M16.63,20.59c-0.04,0-0.07-0.01-0.1-0.03c-0.04-0.03-0.06-0.08-0.06-0.13v-2.57
	c0-0.05,0.03-0.11,0.07-0.13c0.05-0.03,0.1-0.04,0.15-0.02c0.6,0.23,1.3,0.6,1.3,1.48c0,0.71-0.47,1.21-1.32,1.4
	C16.65,20.59,16.64,20.59,16.63,20.59z M16.79,18.11v2.11c0.43-0.13,0.87-0.42,0.87-1.02C17.65,18.7,17.4,18.38,16.79,18.11z
	 M15.3,16.08c-0.02,0-0.04-0.01-0.06-0.01c-0.56-0.21-1.2-0.56-1.2-1.31c0-0.46,0.21-1.05,1.23-1.24c0.05-0.01,0.09,0.01,0.13,0.03
	c0.04,0.03,0.06,0.08,0.06,0.13v2.23c0,0.05-0.03,0.11-0.07,0.13C15.36,16.08,15.34,16.08,15.3,16.08z M15.13,13.89
	c-0.52,0.14-0.77,0.43-0.77,0.87c0,0.39,0.23,0.66,0.77,0.91C15.13,15.67,15.13,13.89,15.13,13.89z M16.63,23.37H15.3
	c-0.09,0-0.16-0.07-0.16-0.16v-1.24c-1.46-0.18-2.22-0.93-2.69-1.38l-0.11-0.1c-0.03-0.03-0.05-0.07-0.05-0.12
	c0-0.05,0.02-0.09,0.05-0.12l1.02-0.98c0.03-0.03,0.07-0.05,0.12-0.05s0.09,0.02,0.11,0.05c0.38,0.42,0.93,0.76,1.53,0.93v-2.64
	c-1.23-0.38-2.5-0.95-2.5-2.69c0-1.42,0.95-2.45,2.5-2.71v-1.03c0-0.09,0.07-0.16,0.16-0.16h1.33c0.09,0,0.16,0.07,0.16,0.16v1.05
	c1.11,0.21,1.79,0.79,2.22,1.22c0.06,0.06,0.07,0.17,0,0.23l-0.97,1c-0.06,0.07-0.16,0.07-0.23,0.01c-0.29-0.27-0.61-0.53-1.03-0.69
	v2.28c1.28,0.41,2.59,1.03,2.59,2.83c0,0.93-0.34,2.51-2.59,2.87v1.28C16.79,23.3,16.71,23.37,16.63,23.37z M15.46,23.04h0.99v-1.25
	c0-0.08,0.06-0.15,0.14-0.16c2.02-0.27,2.45-1.54,2.45-2.57c0-1.64-1.22-2.16-2.48-2.56c-0.07-0.02-0.11-0.09-0.11-0.15v-2.63
	c0-0.05,0.03-0.1,0.07-0.13c0.04-0.03,0.09-0.04,0.14-0.03c0.52,0.15,0.91,0.43,1.26,0.73l0.74-0.77c-0.42-0.4-1.07-0.88-2.06-1.03
	c-0.08-0.01-0.14-0.08-0.14-0.16V11.3h-0.99v1.01c0,0.08-0.06,0.15-0.14,0.16c-1.48,0.2-2.36,1.1-2.36,2.4
	c0,1.57,1.18,2.06,2.38,2.42c0.07,0.02,0.11,0.09,0.11,0.15v2.97c0,0.05-0.02,0.09-0.06,0.13c-0.04,0.03-0.09,0.04-0.14,0.03
	c-0.67-0.15-1.33-0.51-1.79-0.97l-0.78,0.75c0.44,0.44,1.19,1.15,2.62,1.28c0.09,0.01,0.15,0.08,0.15,0.16V23.04L15.46,23.04z"/>
</svg>
