<?xml version="1.0" encoding="utf-8"?>
<!-- Generator: Adobe Illustrator 21.1.0, SVG Export Plug-In . SVG Version: 6.00 Build 0)  -->
<!DOCTYPE svg PUBLIC "-//W3C//DTD SVG 1.1//EN" "http://www.w3.org/Graphics/SVG/1.1/DTD/svg11.dtd">
<svg version="1.1" id="Layer_1" xmlns="http://www.w3.org/2000/svg" xmlns:xlink="http://www.w3.org/1999/xlink" x="0px" y="0px"
	 viewBox="0 0 31.68 31.68" style="enable-background:new 0 0 31.68 31.68;" xml:space="preserve">
<path d="M13.79,10.2c-1.98,0-3.59,1.6-3.59,3.58s1.6,3.59,3.58,3.59s3.59-1.6,3.59-3.58c0,0,0,0,0-0.01
	C17.37,11.81,15.77,10.21,13.79,10.2z M13.79,10.81c1,0,1.93,0.51,2.48,1.34h-4.96C11.86,11.32,12.79,10.81,13.79,10.81z
	 M13.79,16.75c-1.18,0-2.25-0.7-2.73-1.79h5.46C16.05,16.06,14.97,16.75,13.79,16.75z M16.76,13.79c0,0.25-0.03,0.49-0.09,0.73
	h-5.76c-0.17-0.64-0.11-1.31,0.15-1.91h5.46C16.68,12.98,16.76,13.38,16.76,13.79z M24.31,23.39c-0.07-0.64-0.52-1.07-0.92-1.45
	l-0.19-0.18l-0.38-0.38V9.37c0-0.08-0.03-0.16-0.09-0.21L19.1,5.43c-0.06-0.06-0.14-0.09-0.22-0.09H7.66
	c-0.17,0-0.31,0.14-0.31,0.31v20.39c0,0.17,0.14,0.31,0.31,0.31h14.87c0.17,0,0.31-0.14,0.31-0.31V24.7
	c0.08,0.01,0.16,0.02,0.24,0.02c0.33,0,0.64-0.12,0.89-0.34C24.23,24.12,24.36,23.75,24.31,23.39L24.31,23.39z M19.21,6.38
	l2.75,2.85h-2.75V6.38z M22.22,25.7H7.96V5.93h10.63v3.46c0,0.02,0,0.04,0,0.07c0,0.02,0,0.04,0,0.06c0,0.17,0.14,0.31,0.31,0.31
	h3.32v10.92l-1.43-1.44l-0.42-0.43l-1.51-1.53h0.95c0.13,0,0.23-0.1,0.23-0.23s-0.1-0.23-0.23-0.23h-1.4l-0.13-0.15
	c0.81-1.22,1.08-2.73,0.73-4.15h0.8c0.12,0.04,0.25-0.03,0.29-0.15s-0.03-0.25-0.15-0.29c-0.05-0.01-0.09-0.01-0.14,0H18.9
	c-0.93-2.79-3.95-4.29-6.74-3.36s-4.29,3.95-3.36,6.74s3.95,4.29,6.74,3.36c0.25-0.09,0.5-0.19,0.74-0.31
	c0.06,0.06,0.12,0.11,0.18,0.17l0.52,0.53h-6.79c-0.13,0-0.23,0.1-0.23,0.23s0.1,0.23,0.23,0.23h7.24l1.89,1.91h-9.13
	c-0.13,0-0.23,0.1-0.23,0.23s0.1,0.23,0.23,0.23h9.59l0.96,0.97l0.67,0.69c0.24,0.27,0.51,0.5,0.8,0.7L22.22,25.7z M23.54,23.93
	c-0.17,0.15-0.39,0.21-0.61,0.16c-0.41-0.08-0.75-0.43-1.07-0.76l-0.68-0.69c-1.43-1.45-2.86-2.9-4.28-4.34
	c-0.06-0.06-0.13-0.13-0.2-0.19l-0.17-0.15l-0.16-0.16l-0.24,0.14c-2.29,1.26-5.17,0.43-6.43-1.86s-0.43-5.17,1.86-6.43
	s5.17-0.43,6.43,1.86c0.89,1.62,0.76,3.6-0.33,5.09l-0.15,0.21L17.69,17c0.59,0.61,1.67,1.7,2.27,2.31l0.42,0.43
	c0.8,0.82,1.61,1.63,2.42,2.45l0.2,0.19c0.35,0.34,0.69,0.67,0.74,1.09C23.74,23.64,23.68,23.82,23.54,23.93L23.54,23.93z"/>
</svg>
