<?xml version="1.0" encoding="utf-8"?>
<!-- Generator: Adobe Illustrator 21.1.0, SVG Export Plug-In . SVG Version: 6.00 Build 0)  -->
<!DOCTYPE svg PUBLIC "-//W3C//DTD SVG 1.1//EN" "http://www.w3.org/Graphics/SVG/1.1/DTD/svg11.dtd">
<svg version="1.1" id="Layer_1" xmlns="http://www.w3.org/2000/svg" xmlns:xlink="http://www.w3.org/1999/xlink" x="0px" y="0px"
	 viewBox="0 0 31.68 31.68" style="enable-background:new 0 0 31.68 31.68;" xml:space="preserve">
<g>
	<g>
		<g>
			<path d="M16.04,7.16"/>
		</g>
	</g>
	<g>
		<g>
			<path d="M15.84,26.2c-2.99,0-5.47-0.47-7.02-0.87c-0.48-0.12-0.88-0.46-1.08-0.92c-0.2-0.46-0.19-0.98,0.05-1.43l3.93-7.48
				c0.71-1.43,1.08-2.99,1.08-4.61l-0.01-3.47c-0.43-0.11-0.75-0.5-0.75-0.96c0-0.55,0.45-0.99,0.99-0.99h5.64
				c0.55,0,0.99,0.44,0.99,0.99c0,0.46-0.32,0.85-0.75,0.96l-0.01,3.47c0,1.62,0.36,3.17,1.08,4.61l3.92,7.48
				c0.24,0.45,0.25,0.97,0.05,1.43c-0.2,0.46-0.6,0.79-1.08,0.92C21.31,25.73,18.84,26.2,15.84,26.2z M13.02,6.07
				c-0.22,0-0.4,0.18-0.4,0.4s0.18,0.4,0.4,0.4h0.06c0.16,0,0.3,0.13,0.3,0.3l0.01,3.73c0,1.71-0.38,3.35-1.14,4.88L8.3,23.26
				c-0.15,0.29-0.16,0.62-0.03,0.92c0.13,0.29,0.38,0.51,0.69,0.59c1.52,0.39,3.94,0.86,6.88,0.86s5.36-0.47,6.88-0.86
				c0.31-0.08,0.56-0.29,0.69-0.59c0.13-0.3,0.12-0.63-0.03-0.91l-3.93-7.48c-0.76-1.53-1.14-3.17-1.14-4.88l0.01-3.73
				c0-0.16,0.13-0.3,0.3-0.3h0.06c0.22,0,0.4-0.18,0.4-0.4s-0.18-0.4-0.4-0.4C18.66,6.07,13.02,6.07,13.02,6.07z"/>
		</g>
	</g>
	<g>
		<g>
			<path d="M20.95,21.86c-0.05,0-0.1-0.03-0.13-0.08l-2.53-4.82c-0.04-0.07-0.01-0.16,0.06-0.2c0.07-0.04,0.16-0.01,0.2,0.06
				l2.53,4.82c0.04,0.07,0.01,0.16-0.06,0.2C21,21.86,20.97,21.86,20.95,21.86z"/>
		</g>
	</g>
	<g>
		<g>
			<path d="M17.32,7.31h-3.33c-0.08,0-0.15-0.06-0.15-0.15c0-0.08,0.06-0.15,0.15-0.15h3.33c0.08,0,0.15,0.06,0.15,0.15
				C17.46,7.24,17.4,7.31,17.32,7.31z"/>
		</g>
	</g>
</g>
</svg>
