<?xml version="1.0" encoding="utf-8"?>
<!-- Generator: Adobe Illustrator 21.1.0, SVG Export Plug-In . SVG Version: 6.00 Build 0)  -->
<!DOCTYPE svg PUBLIC "-//W3C//DTD SVG 1.1//EN" "http://www.w3.org/Graphics/SVG/1.1/DTD/svg11.dtd">
<svg version="1.1" id="Layer_1" xmlns="http://www.w3.org/2000/svg" xmlns:xlink="http://www.w3.org/1999/xlink" x="0px" y="0px"
	 viewBox="0 0 32 32" style="enable-background:new 0 0 32 32;" xml:space="preserve">
<path d="M17.37,10.61c0-2.89-2.35-5.25-5.25-5.25s-5.25,2.35-5.25,5.25c0,2.89,2.35,5.25,5.25,5.25S17.37,13.5,17.37,10.61z
	 M7.34,10.61c0-2.64,2.15-4.79,4.79-4.79s4.79,2.15,4.79,4.79s-2.15,4.79-4.79,4.79S7.34,13.25,7.34,10.61z M15.52,9
	c0.04,0.08,0.12,0.13,0.21,0.13c0.03,0,0.07-0.01,0.1-0.02c0.11-0.05,0.16-0.19,0.11-0.31c-0.69-1.46-2.19-2.41-3.81-2.41
	c-0.13,0-0.23,0.1-0.23,0.23c0,0.13,0.1,0.23,0.23,0.23C13.57,6.85,14.9,7.7,15.52,9L15.52,9z M26.06,25.37l-7.04-8.76
	c-0.19-0.24-0.33-0.27-0.42-0.27c-0.07,0-0.15,0.03-0.2,0.07l-0.06,0.05l-1.39-1.73c0.96-1.11,1.54-2.56,1.54-4.14
	c0-3.51-2.85-6.36-6.36-6.36S5.77,7.1,5.77,10.61s2.85,6.36,6.36,6.36c1.03,0,2-0.25,2.86-0.69l1.41,1.75l-0.06,0.05
	c-0.06,0.05-0.11,0.14-0.12,0.22c0,0.05-0.02,0.19,0.18,0.43l7.04,8.76c0.19,0.24,0.33,0.26,0.42,0.26c0.07,0,0.15-0.03,0.2-0.07
	l2.06-1.66c0.06-0.05,0.11-0.14,0.12-0.22C26.24,25.76,26.25,25.62,26.06,25.37z M6.38,10.61c0-3.17,2.58-5.75,5.75-5.75
	s5.75,2.58,5.75,5.75c0,1.52-0.6,2.9-1.56,3.93l-1.25,1.01c-0.86,0.51-1.86,0.81-2.93,0.81C8.96,16.35,6.38,13.77,6.38,10.61z
	 M16.52,15.19l1.25,1.55l-0.98,0.79l-1.26-1.56C15.88,15.75,16.21,15.49,16.52,15.19L16.52,15.19z M23.86,27.05l-6.95-8.64
	l1.67-1.34l6.95,8.64L23.86,27.05L23.86,27.05z M24.28,25.19c0.05,0.06,0.11,0.09,0.18,0.09c0.05,0,0.1-0.02,0.14-0.05
	c0.1-0.08,0.11-0.22,0.03-0.32l-2.62-3.26c-0.08-0.1-0.22-0.11-0.32-0.03c-0.1,0.08-0.11,0.22-0.03,0.32
	C21.66,21.93,24.28,25.19,24.28,25.19z"/>
</svg>
