<?xml version="1.0" encoding="utf-8"?>
<!-- Generator: Adobe Illustrator 21.1.0, SVG Export Plug-In . SVG Version: 6.00 Build 0)  -->
<!DOCTYPE svg PUBLIC "-//W3C//DTD SVG 1.1//EN" "http://www.w3.org/Graphics/SVG/1.1/DTD/svg11.dtd">
<svg version="1.1" id="Layer_1" xmlns="http://www.w3.org/2000/svg" xmlns:xlink="http://www.w3.org/1999/xlink" x="0px" y="0px"
	 viewBox="0 0 31.68 31.68" style="enable-background:new 0 0 31.68 31.68;" xml:space="preserve">
<path d="M15.51,11.38l-1.32,1.31c-0.07,0.07-0.07,0.19,0,0.26c0.07,0.07,0.19,0.07,0.26,0l1.3-1.31c0.07-0.07,0.07-0.19,0-0.26
	c-0.07-0.07-0.19-0.07-0.26,0L15.51,11.38z M15.29,12.65l-1.32,1.32c-0.07,0.07-0.07,0.19,0,0.26c0.07,0.07,0.19,0.07,0.26,0
	l1.32-1.32c0.07-0.07,0.07-0.19,0-0.26C15.48,12.57,15.36,12.57,15.29,12.65z M19.42,8.66c1.33,0,2.4-1.07,2.4-2.4
	c0-1.33-1.07-2.4-2.4-2.4c-1.32,0-2.4,1.07-2.4,2.4C17.02,7.58,18.1,8.66,19.42,8.66z M19.42,4.47c0.99,0,1.79,0.8,1.79,1.79
	s-0.8,1.79-1.79,1.79c-0.99,0-1.79-0.8-1.79-1.79l0,0C17.64,5.27,18.44,4.48,19.42,4.47L19.42,4.47z M11.45,20.63h1.28v1.31h0.62
	v-3.12h-0.62v1.2h-1.28v-1.2h-0.62v3.12h0.62V20.63z M26.45,15.15h-2.36c0.02-0.14,0.03-0.28,0.03-0.42l-0.15-1.9
	c-0.12-1.17-0.37-3.6-3.53-3.6H18.4c-1.55,0-2.4,0.56-2.88,1.28h-4.14c-0.1,0-0.19,0.08-0.19,0.19v3.76h-0.52
	c-0.1,0-0.19,0.08-0.19,0.19v0.09c0,0.15,0.04,0.3,0.13,0.42H5c-0.17,0-0.31,0.14-0.31,0.31v1.29c0,0.17,0.14,0.31,0.31,0.31
	c0,0,0,0,0,0h1.53v8.78c0,0.17,0.14,0.31,0.31,0.31c0,0,0,0,0,0h19.62c0.17,0,0.31-0.14,0.31-0.31l0,0V15.45
	C26.76,15.28,26.62,15.15,26.45,15.15z M18.4,9.83h2.04c2.62,0,2.81,1.91,2.92,3.05l0.15,1.87c0,0.13-0.01,0.26-0.04,0.39H22.5
	l-0.17-2.6c-0.03-0.17-0.18-0.28-0.35-0.26c-0.15,0.02-0.26,0.15-0.26,0.3l0.17,2.54H17.9c0.08-0.13,0.13-0.27,0.13-0.42v-0.09
	c0-0.1-0.08-0.19-0.19-0.19h-0.52v-3.74c0-0.1-0.08-0.19-0.19-0.19h-0.8C16.91,10.02,17.65,9.78,18.4,9.83z M11.57,10.87h5.38v3.58
	h-5.38V10.87z M17.64,14.82c-0.04,0.18-0.21,0.31-0.39,0.31h-5.99c-0.19,0-0.35-0.13-0.39-0.31H17.64z M26.15,25.53H7.14v-8.48
	h19.01L26.15,25.53z M26.15,16.44H5.31v-0.68h20.84L26.15,16.44z M20.84,20.83h0.69c0.15,0,0.3-0.02,0.45-0.06
	c0.14-0.03,0.26-0.1,0.37-0.18c0.1-0.09,0.19-0.2,0.24-0.32c0.06-0.15,0.09-0.3,0.09-0.46c0-0.15-0.04-0.3-0.1-0.44
	c-0.05-0.12-0.13-0.22-0.23-0.31c-0.1-0.08-0.22-0.15-0.34-0.19c-0.13-0.04-0.27-0.06-0.42-0.06h-1.37v3.12h0.62L20.84,20.83z
	 M20.84,19.43h0.72c0.12-0.01,0.24,0.03,0.33,0.09c0.08,0.08,0.13,0.18,0.12,0.3c0,0.27-0.15,0.4-0.45,0.4h-0.74L20.84,19.43z
	 M16.61,21.32h-1.6v-0.74h0.89v-0.62h-0.89v-0.53h1.54v-0.61h-2.17v3.12h2.23V21.32z M19.68,21.32h-1.56v-2.51H17.5v3.12h2.18
	L19.68,21.32z"/>
</svg>
