<?xml version="1.0" encoding="utf-8"?>
<!-- Generator: Adobe Illustrator 21.1.0, SVG Export Plug-In . SVG Version: 6.00 Build 0)  -->
<!DOCTYPE svg PUBLIC "-//W3C//DTD SVG 1.1//EN" "http://www.w3.org/Graphics/SVG/1.1/DTD/svg11.dtd">
<svg version="1.1" id="Layer_1" xmlns="http://www.w3.org/2000/svg" xmlns:xlink="http://www.w3.org/1999/xlink" x="0px" y="0px"
	 viewBox="0 0 32 32" style="enable-background:new 0 0 32 32;" xml:space="preserve">
<path d="M25.43,10.7c-0.03-0.04-0.63-1.03,0.06-2.21c0.05-0.08,0.04-0.19-0.02-0.26c-0.06-0.07-0.16-0.1-0.25-0.07
	c-0.05,0.02-1.03,0.35-1.36,1.48c-0.35-0.43-0.84-1.38-0.11-2.98c0.04-0.09,0.02-0.19-0.05-0.26s-0.18-0.08-0.26-0.04
	c-0.07,0.03-1.63,0.84-1.54,2.7c0,0.02,0.05,0.48,0.35,1.27c0.01,0.03,0.17,0.51-0.01,0.87c-0.14-0.56-0.5-1.49-1.5-1.89
	c-0.09-0.04-0.2-0.01-0.26,0.07s-0.07,0.19-0.02,0.27c0.02,0.03,0.48,0.8,0.06,2.21c-0.01,0.03-0.64,2.83,2.75,3.85
	c0.02,0.01,0.04,0.01,0.07,0.01c0.03,0,0.06-0.01,0.09-0.02c0.07-0.03,1.7-0.71,2.27-2.22C26.01,12.64,25.93,11.71,25.43,10.7
	L25.43,10.7z M25.27,13.33c-0.43,1.15-1.64,1.78-1.95,1.92c-2.87-0.91-2.37-3.18-2.35-3.26c0.25-0.83,0.22-1.48,0.12-1.92
	c0.69,0.61,0.76,1.61,0.77,1.62c0,0.08,0.05,0.15,0.12,0.19s0.15,0.04,0.22,0c0.72-0.4,0.64-1.28,0.49-1.7
	c-0.27-0.72-0.33-1.15-0.33-1.15c-0.04-0.85,0.34-1.45,0.69-1.81c-0.58,2.06,0.8,3.05,0.82,3.06c0.07,0.05,0.15,0.05,0.23,0.02
	c0.07-0.03,0.12-0.1,0.13-0.18c0.07-0.56,0.32-0.93,0.57-1.17c-0.31,1.11,0.22,1.95,0.24,1.98C25.46,11.8,25.54,12.6,25.27,13.33
	L25.27,13.33z M20.7,15.04h-4.07c-0.16,0-0.3,0.13-0.3,0.3v4.07h-4.06c-0.16,0-0.3,0.13-0.3,0.3v4.19H7.81l0.17-0.97
	c0.03-0.09,0-0.15-0.07-0.2c-0.03-0.02-0.1-0.02-0.17,0.02l-1.62,1.44l1.37,1.28l0.24,0.17c0.07,0.04,0.15,0.04,0.18,0.02
	c0.07-0.05,0.11-0.11,0.07-0.2l-0.17-0.97H8.1l0.6,0.01h3.59c0.16,0,0.3-0.13,0.3-0.3V20h4.06c0.17,0,0.3-0.13,0.3-0.3v-4.07h3.76
	c0.17,0,0.3-0.13,0.3-0.3c0-0.01,0-0.01,0-0.02C20.99,15.16,20.86,15.04,20.7,15.04L20.7,15.04z"/>
</svg>
