<?xml version="1.0" encoding="utf-8"?>
<!-- Generator: Adobe Illustrator 21.1.0, SVG Export Plug-In . SVG Version: 6.00 Build 0)  -->
<!DOCTYPE svg PUBLIC "-//W3C//DTD SVG 1.1//EN" "http://www.w3.org/Graphics/SVG/1.1/DTD/svg11.dtd">
<svg version="1.1" id="Layer_1" xmlns="http://www.w3.org/2000/svg" xmlns:xlink="http://www.w3.org/1999/xlink" x="0px" y="0px"
	 viewBox="0 0 32 32" style="enable-background:new 0 0 32 32;" xml:space="preserve">
<path d="M15.07,3.52C15.07,3.52,15.07,3.52,15.07,3.52c0,0.09,0.44,0.16,0.98,0.16s0.98-0.07,0.98-0.16c0,0,0,0,0,0s0,0,0,0
	c0-0.09-0.44-0.16-0.98-0.16C15.51,3.36,15.07,3.43,15.07,3.52C15.07,3.52,15.07,3.52,15.07,3.52z M17.96,9.64l-0.34-4.01
	c0-0.05,0-0.11-0.01-0.16c0.17-0.1,0.27-0.24,0.27-0.43V3.31c0-0.58-1.02-0.7-1.88-0.7s-1.88,0.12-1.88,0.7v1.73
	c0,0.18,0.1,0.32,0.27,0.43c-0.01,0.05-0.01,0.11-0.01,0.16l-0.34,4.01c-2.22,1.35-2.68,3.67-2.71,6.27
	c-0.01,0.04,0.16,12.07,0.16,12.07c0,0.25,0.21,0.47,0.56,0.67l0.38,0.18c0.61,0.25,1.47,0.42,2.39,0.51
	c0.44,0.04,0.72,0.07,1.17,0.07c0.45,0,0.74-0.02,1.18-0.07c0.22-0.02,0.43-0.05,0.64-0.08c0.41-0.06,0.8-0.14,1.15-0.24
	c0.21-0.06,0.41-0.12,0.59-0.2l0.38-0.18c0.35-0.19,0.56-0.42,0.56-0.67l0.02-2.8c0.01-0.33,0.17-8.1,0.17-8.13v-1.03
	C20.67,13.07,19.95,10.77,17.96,9.64L17.96,9.64z M14.67,3.36c0.1-0.07,0.47-0.2,1.33-0.2c0.86,0,1.24,0.14,1.33,0.2v1.63
	c-0.1,0.07-0.47,0.2-1.33,0.2s-1.24-0.14-1.33-0.2V3.36z M19.04,28.36c-0.73,0.23-1.68,0.43-3.06,0.43c-1.38,0-2.33-0.2-3.07-0.43
	c-0.21-0.07-0.39-0.14-0.54-0.2c-0.24-0.11-0.29-0.21-0.31-0.29L11.88,15.9c0.01-0.35,0,0.37,0,0c-0.02-2.31,0.5-4.65,2.52-5.81
	c0.11-0.06,0.19-0.17,0.19-0.29l0.34-4.15c0.33,0.07,0.71,0.09,1.07,0.09c0.36,0,0.74-0.02,1.07-0.09l0.34,4.18
	c0,0.12,0.08,0.21,0.19,0.26c1.75,0.87,2.53,2.91,2.53,5.91L19.9,27.87C19.87,28,19.61,28.18,19.04,28.36L19.04,28.36z"/>
</svg>
