<?xml version="1.0" encoding="utf-8"?>
<!-- Generator: Adobe Illustrator 21.1.0, SVG Export Plug-In . SVG Version: 6.00 Build 0)  -->
<!DOCTYPE svg PUBLIC "-//W3C//DTD SVG 1.1//EN" "http://www.w3.org/Graphics/SVG/1.1/DTD/svg11.dtd">
<svg version="1.1" id="Layer_1" xmlns="http://www.w3.org/2000/svg" xmlns:xlink="http://www.w3.org/1999/xlink" x="0px" y="0px"
	 viewBox="0 0 31.68 31.68" style="enable-background:new 0 0 31.68 31.68;" xml:space="preserve">
<path d="M8.03,24.11h4.07c0.09,0,0.16-0.07,0.16-0.16s-0.07-0.16-0.16-0.16H8.03c-0.09,0-0.16,0.07-0.16,0.16S7.94,24.11,8.03,24.11
	z M24,6.52H7.68c-0.64,0-1.16,0.52-1.16,1.16V24c0,0.64,0.52,1.16,1.16,1.16c0,0,0,0,0,0H24c0.64,0,1.16-0.52,1.16-1.16v0V7.68
	C25.16,7.04,24.64,6.52,24,6.52C24,6.52,24,6.52,24,6.52z M24.58,24.01c0,0.32-0.26,0.58-0.58,0.58l0,0H7.68
	c-0.32,0-0.58-0.26-0.58-0.58l0,0v-0.74h17.48V24.01z M24.58,22.79H7.1V10.07h17.48V22.79z M24.58,9.59H7.1V7.68
	c0-0.32,0.26-0.58,0.58-0.58H24c0.32,0,0.58,0.26,0.58,0.58c0,0,0,0,0,0L24.58,9.59z M20.24,7.93c-0.26,0-0.47,0.21-0.47,0.47
	c0,0.26,0.21,0.47,0.47,0.47c0.26,0,0.47-0.21,0.47-0.47c0,0,0,0,0,0C20.7,8.13,20.49,7.93,20.24,7.93z M23.29,7.93
	c-0.26,0-0.47,0.21-0.47,0.46c0,0.26,0.21,0.47,0.46,0.47c0.26,0,0.47-0.21,0.47-0.46c0,0,0-0.01,0-0.01
	C23.75,8.13,23.54,7.93,23.29,7.93L23.29,7.93z M21.76,7.93c-0.26,0-0.47,0.21-0.47,0.47c0,0.26,0.21,0.47,0.47,0.47
	s0.47-0.21,0.47-0.47c0,0,0,0,0,0C22.23,8.13,22.02,7.93,21.76,7.93z"/>
</svg>
