<?xml version="1.0" encoding="utf-8"?>
<!-- Generator: Adobe Illustrator 21.1.0, SVG Export Plug-In . SVG Version: 6.00 Build 0)  -->
<!DOCTYPE svg PUBLIC "-//W3C//DTD SVG 1.1//EN" "http://www.w3.org/Graphics/SVG/1.1/DTD/svg11.dtd">
<svg version="1.1" id="Layer_1" xmlns="http://www.w3.org/2000/svg" xmlns:xlink="http://www.w3.org/1999/xlink" x="0px" y="0px"
	 viewBox="0 0 32 32" style="enable-background:new 0 0 32 32;" xml:space="preserve">
<path d="M20.03,5.57c-0.06-0.06-0.14-0.09-0.22-0.09H8.55c-0.17,0-0.31,0.14-0.31,0.31v20.43c0,0.17,0.14,0.31,0.31,0.31h14.9
	c0.17,0,0.31-0.14,0.31-0.31V9.53c0-0.08-0.03-0.16-0.09-0.21C23.67,9.32,20.03,5.57,20.03,5.57z M20.12,6.54l2.77,2.85h-2.77V6.54z
	 M8.86,6.09h10.65v3.48c0,0.02,0.01,0.04,0.01,0.07c0,0.02-0.01,0.04-0.01,0.07c0,0.17,0.14,0.31,0.31,0.31h3.33v15.9H8.86V6.09
	L8.86,6.09z"/>
</svg>
