<?xml version="1.0" encoding="utf-8"?>
<!-- Generator: Adobe Illustrator 21.1.0, SVG Export Plug-In . SVG Version: 6.00 Build 0)  -->
<!DOCTYPE svg PUBLIC "-//W3C//DTD SVG 1.1//EN" "http://www.w3.org/Graphics/SVG/1.1/DTD/svg11.dtd">
<svg version="1.1" id="Layer_1" xmlns="http://www.w3.org/2000/svg" xmlns:xlink="http://www.w3.org/1999/xlink" x="0px" y="0px"
	 viewBox="0 0 32 32" style="enable-background:new 0 0 32 32;" xml:space="preserve">
<path d="M21.45,24.27l1.42-6.35c0.01-0.02,0-0.04,0-0.07h0.01c0-0.01,0-0.02-0.01-0.03c0-0.01-0.01-0.03-0.01-0.04
	c-0.12-0.9-2.42-1.32-4.63-1.48c-0.05-0.57,0.07-1.23,0.62-1.88c0.02-0.02,1.94-2.08,0-4.11c-1.39-1.46-0.04-3.42,0.02-3.5
	c0.07-0.1,0.05-0.25-0.06-0.32s-0.25-0.05-0.32,0.05c-0.02,0.02-1.64,2.35,0.02,4.09c1.64,1.71,0.07,3.4-0.01,3.48
	c-0.63,0.74-0.79,1.5-0.74,2.16c-0.54-0.02-1.42-0.05-1.78-0.05c-0.05,0-0.1,0-0.15,0c-0.03-0.55,0.11-1.18,0.63-1.81
	c0.02-0.02,1.94-2.08,0-4.11c-1.39-1.46-0.04-3.42,0.02-3.5c0.07-0.1,0.05-0.25-0.06-0.32s-0.25-0.05-0.32,0.05
	c-0.02,0.02-1.64,2.35,0.02,4.09c1.64,1.71,0.07,3.4-0.01,3.48c-0.62,0.73-0.78,1.47-0.74,2.12c-0.53,0.02-1.52,0.06-2.05,0.1
	c-0.06-0.58,0.06-1.25,0.62-1.92c0.02-0.02,1.94-2.08,0-4.11c-1.39-1.46-0.04-3.42,0.02-3.5c0.07-0.1,0.05-0.25-0.06-0.32
	c-0.1-0.07-0.25-0.05-0.32,0.05c-0.02,0.02-1.64,2.35,0.02,4.09c1.64,1.71,0.07,3.4-0.01,3.48c-0.66,0.77-0.8,1.57-0.73,2.25
	c-1.71,0.23-3.69,0.72-3.77,1.43c0,0.01,0,0.01,0,0.02c0,0.01-0.01,0.03-0.01,0.04h0.01c0,0.02,0,0.04,0,0.07l1.42,6.35
	c0.12,0.83,3.27,1.28,5.45,1.28S21.33,25.1,21.45,24.27L21.45,24.27z M9.74,17.85c0.1-0.23,1.59-0.65,3.28-0.88
	c0.21,0.73,0.6,1.22,0.6,1.23c0.05,0.06,0.11,0.09,0.18,0.09c0.05,0,0.1-0.02,0.14-0.05c0.1-0.08,0.12-0.22,0.04-0.32
	c-0.03-0.03-0.32-0.41-0.5-0.97c0.47-0.04,1.43-0.08,2.01-0.1c0.2,0.8,0.63,1.34,0.64,1.36c0.05,0.06,0.11,0.09,0.18,0.09
	c0.05,0,0.1-0.02,0.14-0.05c0.1-0.08,0.12-0.22,0.04-0.32c-0.03-0.03-0.36-0.46-0.53-1.07c0.01,0,0.02,0,0.04,0
	c0.44,0,1.35,0.03,1.88,0.05c0.21,0.77,0.62,1.3,0.63,1.31c0.05,0.06,0.11,0.09,0.18,0.09c0.05,0,0.1-0.02,0.14-0.05
	c0.1-0.08,0.12-0.22,0.04-0.32c-0.03-0.03-0.33-0.42-0.51-0.98c2.41,0.19,3.78,0.65,3.89,0.92l-1.4,6.29
	c-0.28,0.25-2.16,0.8-4.85,0.8s-4.57-0.55-4.85-0.8L9.74,17.85L9.74,17.85z"/>
</svg>
