<?xml version="1.0" encoding="utf-8"?>
<!-- Generator: Adobe Illustrator 21.1.0, SVG Export Plug-In . SVG Version: 6.00 Build 0)  -->
<!DOCTYPE svg PUBLIC "-//W3C//DTD SVG 1.1//EN" "http://www.w3.org/Graphics/SVG/1.1/DTD/svg11.dtd">
<svg version="1.1" id="Layer_1" xmlns="http://www.w3.org/2000/svg" xmlns:xlink="http://www.w3.org/1999/xlink" x="0px" y="0px"
	 viewBox="0 0 32 32" style="enable-background:new 0 0 32 32;" xml:space="preserve">
<path d="M14.33,24.75c-0.55,0-1.25-0.36-1.61-0.82l-4.63-5.98c-0.39-0.5-0.34-1.28,0.11-1.73l0.63-0.63
	c0.22-0.22,0.5-0.33,0.79-0.33c0.33,0,0.64,0.15,0.85,0.4l3.3,4.02c0.17,0.2,0.39,0.19,0.53-0.04l7.01-11.8
	c0.22-0.36,0.61-0.58,1.03-0.58c0.21,0,0.42,0.06,0.6,0.16l0.62,0.37c0.56,0.33,0.76,1.06,0.44,1.63l-8.16,14.4
	C15.56,24.34,14.89,24.74,14.33,24.75L14.33,24.75z M9.62,15.87c-0.13,0-0.26,0.06-0.36,0.15l-0.63,0.63
	c-0.23,0.24-0.26,0.66-0.06,0.92l4.63,5.98c0.24,0.31,0.76,0.58,1.12,0.58c0.34,0,0.81-0.29,0.99-0.61l8.16-14.4
	c0.16-0.28,0.06-0.64-0.21-0.8l-0.62-0.37c-0.26-0.16-0.64-0.06-0.8,0.2l-7.01,11.8c-0.19,0.31-0.48,0.49-0.8,0.49l0,0
	c-0.27,0-0.53-0.13-0.73-0.36l-3.3-4.02C9.91,15.94,9.77,15.87,9.62,15.87L9.62,15.87z"/>
</svg>
