<?xml version="1.0" encoding="utf-8"?>
<!-- Generator: Adobe Illustrator 21.1.0, SVG Export Plug-In . SVG Version: 6.00 Build 0)  -->
<!DOCTYPE svg PUBLIC "-//W3C//DTD SVG 1.1//EN" "http://www.w3.org/Graphics/SVG/1.1/DTD/svg11.dtd">
<svg version="1.1" id="Layer_1" xmlns="http://www.w3.org/2000/svg" xmlns:xlink="http://www.w3.org/1999/xlink" x="0px" y="0px"
	 viewBox="0 0 32 32" style="enable-background:new 0 0 32 32;" xml:space="preserve">
<path d="M16,5.09C9.98,5.09,5.09,9.98,5.09,16c0,6.02,4.9,10.92,10.91,10.92h0c6.02,0,10.91-4.9,10.91-10.91
	C26.91,9.98,22.02,5.09,16,5.09L16,5.09z M16,26.3v0.31V26.3c-5.68,0-10.3-4.62-10.3-10.3c0-5.68,4.62-10.3,10.3-10.3
	S26.3,10.32,26.3,16C26.3,21.68,21.68,26.3,16,26.3L16,26.3z M23.85,12.02c-1.42-2.85-3.45-4.4-6.58-5.03
	C17.14,6.97,17.02,7.05,17,7.17c-0.02,0.12,0.06,0.25,0.18,0.27c2.98,0.6,4.91,2.07,6.26,4.78c0.04,0.08,0.12,0.13,0.21,0.13
	c0.03,0,0.07-0.01,0.1-0.02C23.87,12.27,23.91,12.14,23.85,12.02L23.85,12.02z"/>
</svg>
