<?xml version="1.0" encoding="utf-8"?>
<!-- Generator: Adobe Illustrator 21.1.0, SVG Export Plug-In . SVG Version: 6.00 Build 0)  -->
<!DOCTYPE svg PUBLIC "-//W3C//DTD SVG 1.1//EN" "http://www.w3.org/Graphics/SVG/1.1/DTD/svg11.dtd">
<svg version="1.1" id="Layer_1" xmlns="http://www.w3.org/2000/svg" xmlns:xlink="http://www.w3.org/1999/xlink" x="0px" y="0px"
	 viewBox="0 0 32 32" style="enable-background:new 0 0 32 32;" xml:space="preserve">
<path d="M28.09,23.49l-2.39-2.98c-0.03-0.33-0.19-0.62-0.43-0.82c0.26-0.23,0.43-0.56,0.43-0.93V8.32c0-0.68-0.56-1.24-1.24-1.24
	H7.72c-0.68,0-1.24,0.56-1.24,1.24v10.44c0,0.37,0.17,0.7,0.43,0.93c-0.23,0.2-0.39,0.49-0.43,0.82l-2.58,2.98
	c-0.05,0.06-0.07,0.13-0.07,0.2c0,0.82,0.31,1.24,0.93,1.24h22.46c0.62,0,0.93-0.42,0.93-1.24C28.16,23.61,28.14,23.54,28.09,23.49z
	 M7.09,8.32c0-0.35,0.28-0.63,0.63-0.63h16.75c0.35,0,0.63,0.28,0.63,0.63v10.44c0,0.35-0.28,0.63-0.63,0.63H7.72
	c-0.35,0-0.63-0.28-0.63-0.63C7.09,18.76,7.09,8.32,7.09,8.32z M27.23,24.31H4.77c-0.13,0-0.3,0-0.32-0.52l2.57-2.97
	c0.05-0.06,0.07-0.13,0.07-0.2c0-0.35,0.28-0.63,0.63-0.63h16.75c0.35,0,0.63,0.28,0.63,0.63c0,0.07,0.02,0.14,0.07,0.19l2.38,2.97
	C27.53,24.31,27.36,24.31,27.23,24.31L27.23,24.31z M7.19,21.95h17.78c0.08,0,0.15-0.07,0.15-0.15c0-0.08-0.07-0.15-0.15-0.15H7.19
	c-0.09,0-0.15,0.07-0.15,0.15S7.1,21.95,7.19,21.95z M8.55,18.79h15.1c0.42,0,0.76-0.37,0.76-0.82V9.22c0-0.45-0.34-0.82-0.76-0.82
	h-7.08c0-0.02,0.01-0.04,0.01-0.06c0-0.27-0.22-0.48-0.48-0.48s-0.48,0.22-0.48,0.48c0,0.02,0,0.04,0.01,0.06H8.55
	c-0.42,0-0.77,0.37-0.77,0.82v8.76C7.78,18.43,8.12,18.79,8.55,18.79z M8.24,9.22c0-0.2,0.14-0.36,0.31-0.36h15.1
	c0.17,0,0.31,0.16,0.31,0.36v8.76c0,0.2-0.14,0.36-0.31,0.36H8.55c-0.17,0-0.31-0.16-0.31-0.36L8.24,9.22L8.24,9.22z M7.73,20.92
	h16.76c0.08,0,0.15-0.07,0.15-0.15c0-0.08-0.07-0.15-0.15-0.15H7.73c-0.09,0-0.15,0.07-0.15,0.15S7.65,20.92,7.73,20.92z
	 M6.13,22.83c0,0.08,0.07,0.15,0.15,0.15h19.27c0.08,0,0.15-0.07,0.15-0.15c0-0.08-0.07-0.15-0.15-0.15H6.29
	C6.2,22.68,6.13,22.75,6.13,22.83z M16.13,17.65c0.59,0,1.09-0.5,1.09-1.09s-0.5-1.09-1.09-1.09c-0.59,0-1.09,0.5-1.09,1.09
	S15.54,17.65,16.13,17.65z M16.13,15.87c0.37,0,0.69,0.31,0.69,0.69s-0.31,0.69-0.69,0.69c-0.37,0-0.69-0.31-0.69-0.69
	S15.76,15.87,16.13,15.87z M15.44,15.06c0.01,0.1,0.1,0.18,0.2,0.18h0.98c0.1,0,0.19-0.08,0.2-0.18l0.24-2.03v-3
	c0-0.11-0.09-0.2-0.2-0.2H15.4c-0.11,0-0.2,0.09-0.2,0.2l0,3.03C15.2,13.06,15.44,15.06,15.44,15.06z M15.6,10.23h1.06l0,2.78
	l-0.22,1.83h-0.63l-0.22-1.8C15.6,13.03,15.6,10.23,15.6,10.23z"/>
</svg>
