<?xml version="1.0" encoding="utf-8"?>
<!-- Generator: Adobe Illustrator 21.1.0, SVG Export Plug-In . SVG Version: 6.00 Build 0)  -->
<!DOCTYPE svg PUBLIC "-//W3C//DTD SVG 1.1//EN" "http://www.w3.org/Graphics/SVG/1.1/DTD/svg11.dtd">
<svg version="1.1" id="Layer_1" xmlns="http://www.w3.org/2000/svg" xmlns:xlink="http://www.w3.org/1999/xlink" x="0px" y="0px"
	 viewBox="0 0 32 32" style="enable-background:new 0 0 32 32;" xml:space="preserve">
<path d="M27.99,14.65l-2.36-2.61c-0.85-1.86-2.23-3.43-3.94-4.52c0.09-0.28,0.15-0.57,0.15-0.87c0-1.49-1.22-2.71-2.71-2.71
	c-1.24,0-2.28,0.83-2.6,1.97c-0.15-0.01-0.3-0.02-0.45-0.02c-2.55,0-4.88,0.91-6.7,2.42l-1.1-0.89C8.23,7.37,8.16,7.36,8.1,7.38
	C8.04,7.4,8,7.45,7.98,7.51l-0.91,3.47c-0.95,1.58-1.5,3.43-1.5,5.41c0,0.26,0.01,0.52,0.03,0.77c-0.96,0.42-1.64,1.37-1.64,2.49
	c0,1.49,1.22,2.71,2.71,2.71c0.24,0,0.48-0.03,0.7-0.1c1.41,2.09,3.55,3.64,6.06,4.29l-0.11,1.31c-0.01,0.06,0.02,0.12,0.07,0.16
	s0.12,0.05,0.18,0.03l3.42-1.21c1.96-0.17,3.76-0.88,5.27-1.97c0.46,0.36,1.04,0.58,1.66,0.58c1.5,0,2.71-1.22,2.71-2.71
	c0-0.83-0.37-1.57-0.96-2.07c0.59-1.31,0.92-2.76,0.92-4.29c0-0.33-0.02-0.67-0.05-0.99l1.38-0.44c0.06-0.02,0.11-0.07,0.12-0.13
	C28.05,14.77,28.04,14.7,27.99,14.65z M17.09,6.62c0-0.23,0.05-0.46,0.12-0.67c0.28-0.78,1.03-1.34,1.91-1.34
	c1.12,0,2.03,0.91,2.03,2.03c0,0.18-0.03,0.35-0.07,0.52c-0.06,0.22-0.15,0.43-0.28,0.62c-0.37,0.54-0.98,0.89-1.68,0.89
	c-1.12,0-2.03-0.91-2.03-2.03C17.09,6.64,17.09,6.63,17.09,6.62L17.09,6.62z M6.99,21.65c-0.1,0.02-0.21,0.03-0.32,0.03
	c-1.12,0-2.03-0.91-2.03-2.03c0-0.76,0.42-1.42,1.04-1.77c0.2-0.11,0.42-0.19,0.66-0.23c0.11-0.02,0.22-0.03,0.33-0.03
	c1.12,0,2.03,0.91,2.03,2.03c0,0.77-0.43,1.43-1.05,1.78C7.45,21.54,7.22,21.62,6.99,21.65L6.99,21.65z M25.94,22.74
	c0,1.12-0.91,2.03-2.03,2.03c-0.41,0-0.79-0.12-1.11-0.33c-0.19-0.12-0.36-0.28-0.5-0.47c-0.26-0.34-0.42-0.77-0.42-1.24
	c0-1.12,0.91-2.03,2.03-2.03c0.32,0,0.62,0.08,0.88,0.2c0.21,0.1,0.4,0.23,0.56,0.39C25.71,21.67,25.94,22.18,25.94,22.74
	L25.94,22.74z M25.08,20.3c-0.36-0.17-0.75-0.27-1.17-0.27c-1.5,0-2.71,1.22-2.71,2.71c0,0.62,0.21,1.19,0.57,1.65
	c-1.5,1.07-3.31,1.73-5.27,1.81l-2.64-1.51c-0.05-0.03-0.12-0.03-0.18,0c-0.06,0.03-0.09,0.08-0.1,0.15l-0.09,1.03
	c-2.25-0.61-4.17-2.01-5.47-3.87c0.81-0.47,1.36-1.34,1.36-2.35c0-1.5-1.22-2.71-2.71-2.71c-0.14,0-0.27,0.01-0.4,0.03
	c-0.01-0.19-0.03-0.39-0.03-0.58c0-2,0.6-3.86,1.63-5.41l2.73-1.33c0.06-0.03,0.1-0.08,0.1-0.15c0.01-0.06-0.02-0.12-0.07-0.16
	L9.91,8.74c1.69-1.36,3.83-2.18,6.16-2.18c0.11,0,0.23,0.01,0.34,0.01c0,0.02,0,0.05,0,0.07c0,1.49,1.22,2.71,2.71,2.71
	c0.95,0,1.78-0.49,2.26-1.22c1.67,1.08,3,2.65,3.77,4.51l-0.38,3.04c-0.01,0.06,0.02,0.12,0.07,0.16c0.05,0.04,0.11,0.05,0.17,0.03
	l0.85-0.27c0.02,0.26,0.03,0.52,0.03,0.78C25.9,17.78,25.61,19.1,25.08,20.3L25.08,20.3z"/>
</svg>
