<?xml version="1.0" encoding="utf-8"?>
<!-- Generator: Adobe Illustrator 21.1.0, SVG Export Plug-In . SVG Version: 6.00 Build 0)  -->
<!DOCTYPE svg PUBLIC "-//W3C//DTD SVG 1.1//EN" "http://www.w3.org/Graphics/SVG/1.1/DTD/svg11.dtd">
<svg version="1.1" id="Layer_1" xmlns="http://www.w3.org/2000/svg" xmlns:xlink="http://www.w3.org/1999/xlink" x="0px" y="0px"
	 viewBox="0 0 32 32" style="enable-background:new 0 0 32 32;" xml:space="preserve">
<path d="M24.87,23.56h-1.62V8.04c0-0.14-0.11-0.25-0.25-0.25h-4.5c-0.14,0-0.25,0.11-0.25,0.25v2.27H14.1
	c-0.14,0-0.25,0.11-0.25,0.25v1.77H9.8c-0.14,0-0.25,0.11-0.25,0.25v10.98h-2.1V8.11c0-0.18-0.15-0.33-0.33-0.33S6.8,7.92,6.8,8.11
	v15.79c0,0.18,0.15,0.33,0.33,0.33h17.75c0.18,0,0.33-0.15,0.33-0.33C25.2,23.71,25.06,23.56,24.87,23.56z M22.76,8.29v15.27h-4v-13
	c0-0.01,0-0.02-0.01-0.03V8.29C18.75,8.29,22.76,8.29,22.76,8.29z M18.26,10.81v12.75h-3.9V12.58c0-0.02-0.01-0.05-0.01-0.07v-1.7
	C14.34,10.81,18.26,10.81,18.26,10.81z M10.05,12.83h3.8v10.74h-3.8V12.83L10.05,12.83z"/>
</svg>
