<?xml version="1.0" encoding="utf-8"?>
<!-- Generator: Adobe Illustrator 21.1.0, SVG Export Plug-In . SVG Version: 6.00 Build 0)  -->
<!DOCTYPE svg PUBLIC "-//W3C//DTD SVG 1.1//EN" "http://www.w3.org/Graphics/SVG/1.1/DTD/svg11.dtd">
<svg version="1.1" id="Layer_1" xmlns="http://www.w3.org/2000/svg" xmlns:xlink="http://www.w3.org/1999/xlink" x="0px" y="0px"
	 viewBox="0 0 31.68 31.68" style="enable-background:new 0 0 31.68 31.68;" xml:space="preserve">
<g>
	<path d="M15.84,7.9c-5.97,0-10.83,4.86-10.83,10.83c0,0.97,0.13,1.93,0.39,2.86c0.03,0.12,0.14,0.2,0.26,0.2h6.16
		c0.96,1.26,2.45,2,4.03,2s3.07-0.75,4.03-2h6.16c0.12,0,0.23-0.08,0.26-0.2c0.26-0.94,0.39-1.9,0.39-2.86
		C26.67,12.75,21.81,7.9,15.84,7.9z M23.97,16.66c0.01,0.01,0.01,0.01,0.01,0.02l0.1,0.56l-6.32,1.21l-0.02,0.15
		c-0.11,0.94-0.9,1.65-1.85,1.65c-0.69,0-1.31-0.38-1.64-0.98l-0.07-0.13l-1.3,0.25l-0.16-0.9l1.3-0.21l0.02-0.15
		c0.13-0.91,0.92-1.6,1.84-1.6c0.71,0,1.35,0.4,1.67,1.04l0.07,0.13L23.97,16.66z M17.85,17.24c-0.41-0.7-1.14-1.13-1.95-1.13
		c-1.07,0-2,0.76-2.21,1.8l-1.04,0.17c-0.1,0.02-0.19,0.07-0.25,0.15c-0.06,0.08-0.08,0.19-0.06,0.29l0.17,0.94
		c0.02,0.1,0.08,0.19,0.16,0.25c0.08,0.06,0.18,0.08,0.29,0.06l1.03-0.2c0.41,0.66,1.14,1.06,1.92,1.06c1.1,0,2.03-0.79,2.23-1.86
		l2.37-0.46c0,0.04,0.01,0.08,0.01,0.11c0,2.57-2.09,4.66-4.66,4.66s-4.66-2.09-4.66-4.66s2.09-4.66,4.66-4.66
		c1.96,0,3.72,1.26,4.38,3.08L17.85,17.24z M25.82,21.25h-5.94c0.56-0.8,0.88-1.76,0.88-2.81c0-0.06,0-0.11-0.01-0.16l3.46-0.67
		c0.2-0.04,0.34-0.24,0.3-0.44l-0.11-0.62c-0.04-0.2-0.24-0.34-0.43-0.31l-3.5,0.57c-0.69-1.96-2.56-3.31-4.65-3.31
		c-2.72,0-4.93,2.21-4.93,4.93c0,1.04,0.33,2.01,0.88,2.81H5.86c-0.21-0.83-0.32-1.68-0.32-2.53c0-5.68,4.62-10.29,10.29-10.29
		c5.68,0,10.29,4.62,10.29,10.29C26.13,19.57,26.03,20.42,25.82,21.25z"/>
	<path d="M24.17,18.7c0,0.11,0.09,0.2,0.2,0.2h0.82c0.11,0,0.2-0.09,0.2-0.2c0-0.11-0.09-0.2-0.2-0.2h-0.82
		C24.26,18.5,24.17,18.59,24.17,18.7z"/>
	<path d="M23.06,14.55c0.04,0.06,0.1,0.1,0.17,0.1c0.03,0,0.07-0.01,0.1-0.03l0.71-0.41c0.1-0.06,0.13-0.18,0.07-0.27
		c-0.05-0.1-0.18-0.13-0.27-0.07l-0.71,0.41C23.03,14.33,23,14.45,23.06,14.55z"/>
	<path d="M20.62,10.45c-0.1-0.06-0.22-0.02-0.27,0.07l-0.41,0.71c-0.06,0.1-0.02,0.22,0.07,0.27c0.03,0.02,0.07,0.03,0.1,0.03
		c0.07,0,0.14-0.04,0.17-0.1l0.41-0.71C20.75,10.63,20.72,10.5,20.62,10.45z"/>
	<path d="M15.86,9.17c-0.11,0-0.2,0.09-0.2,0.2l0,0.82c0,0.11,0.09,0.2,0.2,0.2s0.2-0.09,0.2-0.2l0-0.82
		C16.06,9.26,15.97,9.17,15.86,9.17z"/>
	<path d="M11.37,10.52c-0.06-0.1-0.18-0.13-0.27-0.07c-0.1,0.06-0.13,0.18-0.07,0.27l0.41,0.71c0.04,0.06,0.1,0.1,0.17,0.1
		c0.03,0,0.07-0.01,0.1-0.03c0.1-0.06,0.13-0.18,0.07-0.27L11.37,10.52z"/>
	<path d="M8.59,14.27l-0.71-0.41c-0.1-0.06-0.22-0.02-0.27,0.07c-0.06,0.1-0.02,0.22,0.07,0.27l0.71,0.41
		c0.03,0.02,0.07,0.03,0.1,0.03c0.07,0,0.14-0.04,0.17-0.1C8.72,14.45,8.69,14.33,8.59,14.27z"/>
	<path d="M7.47,18.63l-0.82,0l0,0c-0.11,0-0.2,0.09-0.2,0.2c0,0.11,0.09,0.2,0.2,0.2l0.82,0l0,0c0.11,0,0.2-0.09,0.2-0.2
		S7.58,18.63,7.47,18.63z"/>
</g>
</svg>
