<?xml version="1.0" encoding="utf-8"?>
<!-- Generator: Adobe Illustrator 21.1.0, SVG Export Plug-In . SVG Version: 6.00 Build 0)  -->
<!DOCTYPE svg PUBLIC "-//W3C//DTD SVG 1.1//EN" "http://www.w3.org/Graphics/SVG/1.1/DTD/svg11.dtd">
<svg version="1.1" id="Layer_1" xmlns="http://www.w3.org/2000/svg" xmlns:xlink="http://www.w3.org/1999/xlink" x="0px" y="0px"
	 viewBox="0 0 31.68 31.68" style="enable-background:new 0 0 31.68 31.68;" xml:space="preserve">
<g>
	<path d="M13.44,11.62c1.94,0,3.52-1.58,3.52-3.52s-1.58-3.52-3.52-3.52S9.92,6.16,9.92,8.1C9.92,10.04,11.5,11.62,13.44,11.62z
		 M13.44,5.09c1.66,0,3.01,1.35,3.01,3.01s-1.35,3.01-3.01,3.01s-3.01-1.35-3.01-3.01l0,0C10.43,6.44,11.78,5.09,13.44,5.09z
		 M15.13,12.3h-3.37c-4.9,0-5.19,3.59-5.35,5.53l-0.25,3.12v0.02c0,1.77,1.03,2.67,2.17,3.51l0.29,0.21l-0.08,1.23l0.19,0.16
		c0.45,0.38,1.66,1.02,4.71,1.02c2.96,0,4.19-0.61,4.67-0.98l0.21-0.16l-0.07-1.26l0.29-0.22c1.2-0.88,2.19-1.75,2.19-3.52
		l-0.25-3.14C20.29,15.89,19.93,12.3,15.13,12.3L15.13,12.3z M15.05,12.81c-0.26,0.89-1.19,1.4-2.07,1.14
		c-0.55-0.16-0.98-0.59-1.14-1.14H15.05z M8.63,24.06c-1.17-0.86-1.96-1.61-1.96-3.1l0.14-1.74h2.17L8.63,24.06z M17.79,25.73
		c-0.37,0.28-1.47,0.87-4.35,0.87c-2.99,0-4.06-0.63-4.38-0.9c0-0.02,0-0.04,0-0.06l0.49-8.26c0-0.12-0.1-0.22-0.22-0.22
		c-0.12,0-0.22,0.1-0.22,0.22c0,0,0,0,0,0l-0.1,1.36H6.84l0.07-0.87c0.18-2.26,0.64-4.91,4.49-5.05c0.26,1.12,1.39,1.82,2.51,1.56
		c0.77-0.18,1.38-0.79,1.56-1.56c3.85,0.16,4.29,2.93,4.49,5.05l0.07,0.87h-2.19l-0.1-1.36c0-0.12-0.1-0.22-0.22-0.22
		c-0.12,0-0.22,0.1-0.22,0.22l0,0L17.79,25.73z M18.24,24.08l-0.35-4.86h2.2l0.14,1.74C20.22,22.48,19.41,23.21,18.24,24.08
		L18.24,24.08z M25.38,15.02c-0.12-0.07-0.27-0.03-0.34,0.09l-0.4,0.67h-2.17c-0.1,0-0.18,0.08-0.18,0.18v2.47
		c0,0.1,0.08,0.18,0.18,0.18h2.47c0.1,0,0.18-0.08,0.18-0.18v-2.47c0-0.01,0-0.02,0-0.03l0.33-0.57
		C25.54,15.24,25.5,15.09,25.38,15.02z M24.77,18.24h-2.1v-2.1h1.76l-0.7,1.18l-0.23-0.43c-0.07-0.11-0.22-0.15-0.34-0.08
		c-0.1,0.07-0.14,0.2-0.09,0.31l0.43,0.81l0.01,0.02l0.01,0.02c0.02,0.02,0.04,0.04,0.06,0.05h0.02c0.03,0.01,0.06,0.02,0.1,0.02
		c0.02,0,0.04,0,0.06,0h0.02l0.03-0.01c0.03-0.01,0.05-0.03,0.07-0.05l0.01-0.02l0.01-0.02l0.84-1.41L24.77,18.24z M22.48,13.82
		h2.47c0.1,0,0.18-0.08,0.18-0.18v-2.46c0-0.01,0-0.02,0-0.03l0.34-0.57c0.08-0.11,0.06-0.26-0.05-0.34
		c-0.11-0.08-0.26-0.06-0.34,0.05c-0.01,0.01-0.02,0.03-0.03,0.04L24.65,11h-2.18c-0.1,0-0.18,0.08-0.18,0.18v2.45
		c-0.01,0.1,0.07,0.19,0.17,0.19C22.47,13.83,22.48,13.83,22.48,13.82L22.48,13.82z M22.66,11.35h1.76l-0.7,1.18L23.5,12.1
		c-0.07-0.11-0.22-0.15-0.34-0.08c-0.1,0.07-0.14,0.2-0.09,0.31l0.43,0.81l0.01,0.02l0.01,0.02c0.02,0.02,0.04,0.04,0.06,0.05h0.02
		c0.03,0.01,0.06,0.02,0.1,0.02c0.02,0,0.04,0,0.06,0h0.02l0.03-0.01c0.03-0.01,0.05-0.03,0.07-0.05l0.01-0.02l0.01-0.02l0.84-1.41
		v1.72h-2.1L22.66,11.35z M13.11,7.92c0-0.05-0.01-0.09-0.01-0.14c0.07-0.11,0.19-0.18,0.32-0.17h0.06
		c0.13-0.01,0.25,0.06,0.32,0.18c-0.01,0.04-0.01,0.09-0.01,0.13c-0.01,0.63,0.49,1.14,1.12,1.15c0.63,0.01,1.14-0.49,1.15-1.12
		c0.01-0.63-0.49-1.14-1.12-1.15C14.5,6.79,14.1,7.02,13.9,7.4c-0.13-0.09-0.28-0.14-0.44-0.14h-0.06c-0.16,0-0.31,0.05-0.43,0.14
		c-0.29-0.54-0.96-0.75-1.5-0.46c-0.54,0.29-0.75,0.96-0.46,1.5c0.29,0.54,0.96,0.75,1.5,0.46C12.88,8.71,13.11,8.33,13.11,7.92
		L13.11,7.92z M14.9,7.21c0.39,0,0.7,0.32,0.7,0.7c0,0.39-0.32,0.7-0.7,0.7c-0.39,0-0.7-0.32-0.7-0.7l0,0
		C14.2,7.53,14.51,7.22,14.9,7.21L14.9,7.21z M11.28,7.92c0-0.39,0.32-0.7,0.7-0.7c0.39,0,0.7,0.32,0.7,0.7s-0.32,0.7-0.7,0.7l0,0
		C11.59,8.63,11.28,8.31,11.28,7.92z M25.38,19.8c-0.12-0.07-0.27-0.03-0.34,0.09l-0.4,0.67h-2.17c-0.1,0-0.18,0.08-0.18,0.18v2.47
		c0,0.1,0.08,0.18,0.18,0.18h2.47c0.1,0,0.18-0.08,0.18-0.18v-2.47c0-0.01,0-0.02,0-0.03l0.34-0.57
		C25.54,20.02,25.5,19.87,25.38,19.8C25.38,19.8,25.38,19.8,25.38,19.8z M24.77,23.03h-2.1v-2.1h1.76l-0.7,1.18l-0.23-0.43
		c-0.07-0.11-0.22-0.15-0.34-0.08c-0.1,0.07-0.14,0.2-0.09,0.31l0.43,0.81l0.01,0.02l0.01,0.02c0.02,0.02,0.04,0.04,0.06,0.05h0.02
		c0.03,0.01,0.06,0.02,0.1,0.02c0.02,0,0.04,0,0.06,0h0.02l0.03-0.01c0.03-0.01,0.05-0.03,0.07-0.05l0.01-0.02l0.02-0.03l0.84-1.41
		L24.77,23.03z"/>
</g>
</svg>
