<?xml version="1.0" encoding="utf-8"?>
<!-- Generator: Adobe Illustrator 21.1.0, SVG Export Plug-In . SVG Version: 6.00 Build 0)  -->
<!DOCTYPE svg PUBLIC "-//W3C//DTD SVG 1.1//EN" "http://www.w3.org/Graphics/SVG/1.1/DTD/svg11.dtd">
<svg version="1.1" id="Layer_1" xmlns="http://www.w3.org/2000/svg" xmlns:xlink="http://www.w3.org/1999/xlink" x="0px" y="0px"
	 viewBox="0 0 32 32" style="enable-background:new 0 0 32 32;" xml:space="preserve">
<path d="M10.14,9c0.02,0.02,0.05,0.02,0.07,0.01l1.27-0.57c0.02-0.01,0.04-0.03,0.04-0.05c0-0.02-0.01-0.05-0.02-0.06l-0.24-0.2
	c1.57-1.5,3.53-2.32,5.57-2.32c2.77,0,5.41,1.55,7.06,4.14c0.04,0.07,0.11,0.1,0.18,0.1c0.04,0,0.08-0.01,0.12-0.03
	c0.1-0.06,0.13-0.2,0.07-0.3c-1.73-2.72-4.51-4.34-7.43-4.34c-2.16,0-4.25,0.88-5.9,2.47l-0.3-0.26c-0.02-0.02-0.04-0.02-0.06-0.02
	c-0.02,0.01-0.04,0.02-0.05,0.05l-0.39,1.33C10.11,8.95,10.12,8.98,10.14,9L10.14,9L10.14,9z M23.79,22.29
	c-0.02-0.01-0.05-0.01-0.08,0l-1.15,0.78c-0.02,0.01-0.03,0.03-0.03,0.06s0.01,0.05,0.03,0.06l0.32,0.19
	c-1.64,1.82-3.77,2.82-6.05,2.82h0c-2.49,0-4.88-1.24-6.54-3.4c-0.07-0.09-0.21-0.11-0.31-0.04s-0.11,0.21-0.04,0.31
	c1.75,2.27,4.26,3.57,6.89,3.57c0,0,0,0,0,0c2.43,0,4.7-1.08,6.43-3.02l0.29,0.17c0.02,0.01,0.05,0.01,0.07,0
	c0.02-0.01,0.03-0.03,0.04-0.05l0.16-1.37C23.82,22.34,23.81,22.31,23.79,22.29L23.79,22.29L23.79,22.29z M9.13,20.04
	c-0.16,0-0.31,0.04-0.44,0.11c0.23-0.25,0.41-0.55,0.53-0.87c0.27,0.55,0.84,0.94,1.49,0.94c0.92,0,1.67-0.75,1.67-1.67
	c0-0.02,0-0.04,0-0.07c0.12,0.05,0.26,0.09,0.4,0.09c0.55,0,0.99-0.44,0.99-0.99c0-0.44-0.29-0.81-0.69-0.94
	c0.79-0.52,1.31-1.42,1.31-2.43c0-1.33-0.9-2.46-2.13-2.8c-0.05-0.88-0.77-1.58-1.66-1.58c-0.92,0-1.67,0.75-1.67,1.67
	c0,0.33,0.1,0.64,0.26,0.9c-0.34,0.42-0.56,0.93-0.62,1.49c-0.13-0.24-0.31-0.44-0.53-0.59c0.5-0.05,0.89-0.47,0.89-0.98
	c0-0.55-0.44-0.99-0.99-0.99s-0.99,0.44-0.99,0.99c0,0.27,0.11,0.52,0.29,0.7C7.19,13.01,7.15,13,7.11,13c-0.47,0-0.9,0.2-1.2,0.52
	c0.12-0.23,0.19-0.5,0.19-0.77c0-0.92-0.75-1.67-1.67-1.67s-1.67,0.75-1.67,1.67c0,0.69,0.43,1.29,1.04,1.54
	c-0.32,0.16-0.54,0.49-0.54,0.88c0,0.55,0.44,0.99,0.99,0.99c0.08,0,0.16-0.01,0.23-0.03c-0.11,0.1-0.21,0.22-0.3,0.34
	c-0.17-0.06-0.35-0.09-0.53-0.09c-0.92,0-1.67,0.75-1.67,1.67c0,0.81,0.58,1.48,1.34,1.63c-0.22,0.18-0.37,0.46-0.37,0.77
	c0,0.55,0.44,0.99,0.99,0.99c0.47,0,0.87-0.33,0.97-0.77c0.46,0.3,1.01,0.48,1.59,0.48c0.67,0,1.28-0.23,1.77-0.6
	c-0.09,0.15-0.14,0.32-0.14,0.5c0,0.55,0.44,0.99,0.99,0.99s0.99-0.44,0.99-0.99S9.68,20.04,9.13,20.04L9.13,20.04z M10.72,19.79
	c-0.68,0-1.23-0.55-1.23-1.23s0.55-1.23,1.23-1.23s1.23,0.55,1.23,1.23S11.39,19.79,10.72,19.79z M11.56,17.12
	c0.12,0,0.24-0.02,0.36-0.03c-0.04,0.07-0.07,0.15-0.1,0.23C11.75,17.24,11.66,17.18,11.56,17.12z M13.33,17.59
	c0,0.31-0.25,0.56-0.56,0.56s-0.56-0.25-0.56-0.56s0.25-0.56,0.56-0.56S13.33,17.28,13.33,17.59z M10.6,10.27
	c0.68,0,1.23,0.55,1.23,1.23s-0.55,1.23-1.23,1.23c-0.68,0-1.23-0.55-1.23-1.23S9.92,10.27,10.6,10.27z M9.48,12.73
	c0.3,0.27,0.69,0.43,1.11,0.43c0.8,0,1.46-0.56,1.63-1.31c1,0.32,1.72,1.26,1.72,2.36c0,1.37-1.11,2.48-2.48,2.48
	s-2.48-1.11-2.48-2.48C8.99,13.66,9.18,13.15,9.48,12.73L9.48,12.73z M8.71,15.13c0.27,0.82,0.9,1.47,1.69,1.79
	C9.97,17,9.6,17.25,9.36,17.6c-0.15-0.7-0.56-1.3-1.11-1.71C8.46,15.68,8.62,15.42,8.71,15.13L8.71,15.13z M7.94,11.75
	c0.31,0,0.56,0.25,0.56,0.56c0,0.31-0.25,0.56-0.56,0.56s-0.56-0.25-0.56-0.56C7.38,12,7.63,11.75,7.94,11.75z M7.11,13.44
	c0.68,0,1.23,0.55,1.23,1.23S7.79,15.9,7.11,15.9c-0.68,0-1.23-0.55-1.23-1.23C5.88,13.99,6.43,13.44,7.11,13.44z M3.2,12.75
	c0-0.68,0.55-1.23,1.23-1.23c0.68,0,1.23,0.55,1.23,1.23s-0.55,1.23-1.23,1.23C3.75,13.98,3.2,13.42,3.2,12.75z M5.63,15.44
	c-0.19,0.06-0.36,0.14-0.53,0.23c0.09-0.15,0.14-0.32,0.14-0.5c0-0.33-0.16-0.62-0.41-0.8c0.31-0.08,0.59-0.24,0.81-0.47
	c-0.12,0.23-0.19,0.5-0.19,0.77C5.44,14.95,5.51,15.21,5.63,15.44L5.63,15.44z M4.25,15.72c-0.31,0-0.56-0.25-0.56-0.56
	s0.25-0.56,0.56-0.56c0.31,0,0.55,0.25,0.55,0.56S4.56,15.72,4.25,15.72z M2.43,18.04c0-0.68,0.55-1.23,1.23-1.23
	c0.68,0,1.23,0.55,1.23,1.23s-0.55,1.23-1.23,1.23C2.98,19.27,2.43,18.72,2.43,18.04z M3.95,21c-0.31,0-0.56-0.25-0.56-0.56
	s0.25-0.56,0.56-0.56c0.31,0,0.56,0.25,0.56,0.56S4.26,21,3.95,21z M6.51,20.7c-0.63,0-1.2-0.24-1.64-0.62
	c-0.08-0.21-0.24-0.38-0.43-0.49c-0.01-0.02-0.02-0.04-0.04-0.06c0.54-0.27,0.91-0.84,0.91-1.49c0-0.57-0.29-1.08-0.74-1.38
	c0.33-0.41,0.79-0.71,1.32-0.84c0.3,0.32,0.73,0.52,1.2,0.52c0.28,0,0.53-0.07,0.76-0.19c0.67,0.44,1.12,1.21,1.12,2.07
	C8.99,19.59,7.88,20.7,6.51,20.7L6.51,20.7z M9.13,21.59c-0.31,0-0.56-0.25-0.56-0.56s0.25-0.56,0.56-0.56
	c0.31,0,0.56,0.25,0.56,0.56S9.44,21.59,9.13,21.59z M24.89,10.88c-2.82,0-5.12,2.3-5.12,5.12s2.3,5.12,5.12,5.12
	s5.12-2.3,5.12-5.12S27.71,10.88,24.89,10.88z M24.89,20.54c-2.5,0-4.54-2.04-4.54-4.54c0-2.5,2.04-4.54,4.54-4.54
	s4.54,2.04,4.54,4.54C29.43,18.5,27.39,20.54,24.89,20.54z"/>
</svg>
