<?xml version="1.0" encoding="utf-8"?>
<!-- Generator: Adobe Illustrator 21.1.0, SVG Export Plug-In . SVG Version: 6.00 Build 0)  -->
<!DOCTYPE svg PUBLIC "-//W3C//DTD SVG 1.1//EN" "http://www.w3.org/Graphics/SVG/1.1/DTD/svg11.dtd">
<svg version="1.1" id="Layer_1" xmlns="http://www.w3.org/2000/svg" xmlns:xlink="http://www.w3.org/1999/xlink" x="0px" y="0px"
	 viewBox="0 0 32 32" style="enable-background:new 0 0 32 32;" xml:space="preserve">
<path d="M24.64,17.95c-0.65-9.11-7.89-8.85-7.94-8.85c-4.4-0.08-6.27,1.63-6.55,1.9c-0.27,0.16-0.32,0.48-0.31,0.67l-0.16,2.14
	c0,0.02,0,0.03,0.01,0.04c-0.98,1.64-1.14,3.33-1.16,3.97c-0.02,0-0.03,0.01-0.05,0.01L5.8,19.04c-0.12,0.05-0.18,0.19-0.15,0.32
	c0.09,0.35,0.47,0.92,1.25,0.92c0.11,0,0.23-0.01,0.35-0.04c0.02,0,1.76-0.44,3.84-0.49l5.3-0.04c0.23,0,5.65,0.11,7.87-0.4
	c0.37-0.07,1.01-0.24,1.05-0.66C25.34,18.31,24.99,18.1,24.64,17.95L24.64,17.95z M24.16,18.79c-2.16,0.5-7.7,0.39-7.76,0.39
	l-5.31,0.04c-2.15,0.04-3.89,0.48-3.95,0.5c-0.5,0.1-0.75-0.12-0.87-0.3l2.3-1.02c0.67,0.37,1.73,0.3,1.78,0.29
	c0.15-0.01,0.26-0.14,0.25-0.29c-0.01-0.15-0.14-0.25-0.29-0.25c-0.23,0.02-0.81,0.01-1.25-0.13c-0.02-0.67,0.05-6.44,6.88-7.29
	c0.15-0.02,0.25-0.15,0.23-0.3c-0.02-0.15-0.15-0.25-0.3-0.23c-2.79,0.35-4.52,1.5-5.59,2.82l0.1-1.32c0-0.02,0-0.04,0-0.05
	c0,0-0.01-0.15,0.06-0.18c0.03-0.01,0.06-0.03,0.08-0.06c0.02-0.02,1.77-1.85,6.19-1.77c0.28-0.02,6.76-0.25,7.4,8.28
	c-0.39,0.08-1.2,0.23-1.69,0.23c-0.15,0-0.27,0.12-0.27,0.27s0.12,0.27,0.27,0.27c0.62,0,1.66-0.21,1.95-0.28
	c0.21,0.08,0.32,0.15,0.37,0.19C24.62,18.67,24.38,18.75,24.16,18.79L24.16,18.79z M20.62,13.99c-0.12,0.04-0.19,0.17-0.15,0.29
	c0.01,0.02,0.76,2.4,0.59,3.84c-0.07,0.03-0.26,0.08-0.72,0.08c-0.81,0-1.96-0.01-2.44-0.02V17.8c0-0.13-0.1-0.23-0.23-0.23h-2.41
	c-0.13,0-0.23,0.1-0.23,0.23v0.39c-1.02,0.03-2.03-0.01-2.05-0.01c-0.8-0.01-1.05-0.11-1.13-0.15c0-1.8,0.48-3.16,0.48-3.18
	c0.04-0.12-0.02-0.25-0.14-0.29s-0.25,0.02-0.29,0.14c-0.02,0.06-0.5,1.45-0.51,3.33c-0.01,0.07,0,0.15,0.05,0.24
	c0.11,0.17,0.38,0.36,1.52,0.38c0.01,0,1.19,0.04,2.29,0c0.12,0,0.22-0.11,0.22-0.23v-0.39h1.95v0.39c0,0.13,0.1,0.23,0.23,0.23
	c0,0,1.62,0.02,2.67,0.02c0.66,0,1-0.09,1.13-0.3c0.05-0.08,0.05-0.15,0.05-0.22c0.16-1.54-0.58-3.9-0.62-4
	C20.88,14.02,20.75,13.96,20.62,13.99L20.62,13.99z"/>
</svg>
