<?xml version="1.0" encoding="utf-8"?>
<!-- Generator: Adobe Illustrator 21.1.0, SVG Export Plug-In . SVG Version: 6.00 Build 0)  -->
<!DOCTYPE svg PUBLIC "-//W3C//DTD SVG 1.1//EN" "http://www.w3.org/Graphics/SVG/1.1/DTD/svg11.dtd">
<svg version="1.1" id="Layer_1" xmlns="http://www.w3.org/2000/svg" xmlns:xlink="http://www.w3.org/1999/xlink" x="0px" y="0px"
	 viewBox="0 0 31.68 31.68" style="enable-background:new 0 0 31.68 31.68;" xml:space="preserve">
<path d="M14.88,11.31c-0.07-0.05-0.17-0.03-0.22,0.05c-0.14,0.23-0.27,0.46-0.39,0.71c-0.04,0.08-0.02,0.17,0.06,0.21
	c0.08,0.04,0.17,0.02,0.21-0.06c0-0.01,0.01-0.01,0.01-0.02c0.11-0.23,0.23-0.46,0.37-0.67C14.98,11.45,14.95,11.36,14.88,11.31
	C14.88,11.31,14.88,11.31,14.88,11.31z M15.17,14.59c-0.05-0.07-0.14-0.09-0.22-0.05c-0.14,0.09-0.28,0.19-0.42,0.29
	c-0.07,0.05-0.09,0.15-0.04,0.22c0.05,0.07,0.15,0.09,0.22,0.04c0.01,0,0.01-0.01,0.02-0.01c0.13-0.1,0.26-0.19,0.4-0.28
	C15.2,14.76,15.22,14.66,15.17,14.59z M14.18,15.35c-0.06-0.06-0.15-0.06-0.21,0c-0.01-0.09-0.09-0.15-0.18-0.14
	c-0.09,0.01-0.15,0.09-0.14,0.18c0,0.08,0.01,0.16,0.03,0.24l-0.16,0.18c-0.06,0.06-0.05,0.16,0.01,0.22c0.06,0.05,0.15,0.05,0.21,0
	c0.02,0.07,0.08,0.12,0.15,0.12h0.03c0.08-0.02,0.14-0.1,0.13-0.18L14,15.74l0.16-0.16c0.07-0.06,0.07-0.16,0.02-0.22
	C14.18,15.36,14.18,15.36,14.18,15.35L14.18,15.35z M13.47,13.5c-0.01,0.09,0.06,0.16,0.14,0.17c0,0,0,0,0,0h0.14
	c0,0.05-0.02,0.1-0.03,0.15c-0.01,0.09,0.05,0.17,0.13,0.18c0,0,0,0,0,0h0.03c0.08,0,0.14-0.06,0.15-0.13c0-0.05,0.01-0.1,0.03-0.16
	l0.16,0.03c0.09,0.02,0.17-0.04,0.18-0.13c0.02-0.09-0.04-0.17-0.13-0.18l0,0l-0.15-0.02c0-0.05,0.02-0.09,0.03-0.14
	c0.02-0.09-0.03-0.17-0.12-0.2c-0.09-0.02-0.17,0.03-0.2,0.12c-0.01,0.06-0.03,0.11-0.04,0.17l-0.15,0.01
	c-0.08-0.02-0.16,0.04-0.18,0.12C13.47,13.49,13.47,13.49,13.47,13.5L13.47,13.5z M14.19,9.43c0.17,0.08,0.34,0.18,0.51,0.27
	c0.08,0.04,0.17,0.02,0.21-0.06c0.04-0.07,0.02-0.17-0.05-0.21c-0.17-0.1-0.35-0.2-0.54-0.29c-0.08-0.04-0.17-0.02-0.21,0.06
	c-0.04,0.08-0.02,0.17,0.06,0.21C14.17,9.42,14.18,9.42,14.19,9.43L14.19,9.43z M15.99,14l-0.22-0.11c-0.08-0.04-0.17,0-0.21,0.08
	c-0.03,0.07,0,0.15,0.06,0.19c-0.07,0.05-0.1,0.14-0.05,0.22c0.04,0.07,0.13,0.09,0.2,0.06l0.21-0.1l0.1,0.05l0.1,0.06
	c0.02,0.01,0.05,0.02,0.08,0.02c0.06,0,0.11-0.03,0.13-0.08c0.04-0.07,0.02-0.15-0.04-0.2c0.07-0.03,0.11-0.12,0.08-0.19
	c-0.03-0.08-0.12-0.12-0.2-0.09L15.99,14L15.99,14z M15.53,10.3l-0.1,0.11c-0.06,0.06-0.07,0.16-0.01,0.22s0.16,0.07,0.22,0.01
	c0.01,0,0.01-0.01,0.01-0.02l0.11-0.11l0.12,0.11c0.06,0.07,0.16,0.07,0.22,0.02c0.07-0.06,0.07-0.16,0.02-0.22
	c-0.01-0.01-0.01-0.01-0.02-0.02l-0.11-0.1l0.1-0.09c0.07-0.05,0.08-0.15,0.02-0.22c-0.05-0.07-0.15-0.08-0.22-0.02
	c0,0-0.01,0.01-0.01,0.01l-0.13,0.12l-0.13-0.11c-0.07-0.05-0.17-0.04-0.22,0.02c-0.05,0.07-0.04,0.17,0.02,0.22L15.53,10.3z
	 M15.04,18.03c0.02-0.08-0.04-0.17-0.12-0.18c-0.01,0-0.01,0-0.02,0l-0.14-0.03l-0.09-0.02l-0.08-0.21
	c-0.04-0.08-0.13-0.11-0.21-0.07c0,0,0,0,0,0c-0.07,0.04-0.1,0.12-0.08,0.2c-0.07-0.01-0.14,0.04-0.16,0.11
	c-0.02,0.08,0.03,0.17,0.11,0.19c0,0,0,0,0,0l0.19,0.05v0.03h0.06l0.12,0.2c0.05,0.07,0.14,0.1,0.22,0.05c0,0,0,0,0,0
	c0.07-0.04,0.09-0.13,0.06-0.2C14.97,18.15,15.03,18.1,15.04,18.03z M14.65,13.68c-0.02,0.08,0.02,0.17,0.11,0.19c0,0,0,0,0,0
	c0.12,0.03,0.24,0.07,0.36,0.11h0.05c0.09,0.01,0.17-0.05,0.18-0.13c0.01-0.09-0.05-0.17-0.13-0.18c-0.12-0.04-0.25-0.08-0.37-0.12
	c-0.08-0.02-0.17,0.03-0.19,0.11C14.65,13.67,14.65,13.68,14.65,13.68z M13.79,14.96c0.09,0,0.15-0.07,0.16-0.15v-0.37
	c0.01-0.09-0.06-0.16-0.15-0.17c-0.09-0.01-0.16,0.06-0.17,0.15c0.01,0.12,0.01,0.25,0.01,0.39C13.65,14.88,13.71,14.95,13.79,14.96
	L13.79,14.96z M12.13,19.54c-0.08-0.01-0.16,0.05-0.17,0.13c0,0,0,0.01,0,0.01v0.57c0,0.08,0.07,0.15,0.16,0.15
	c0.09,0,0.15-0.08,0.15-0.16c0,0,0,0,0,0v-0.19V19.7C12.27,19.62,12.21,19.55,12.13,19.54z M10.45,15.35
	c0.1,0.15,0.21,0.31,0.31,0.44c0.05,0.07,0.14,0.09,0.22,0.04c0.07-0.05,0.09-0.14,0.04-0.22c0-0.01-0.01-0.01-0.02-0.02
	c-0.11-0.13-0.21-0.28-0.31-0.42c-0.05-0.07-0.15-0.09-0.22-0.04c-0.07,0.05-0.09,0.15-0.04,0.22L10.45,15.35z M12.37,18.9
	c0.03-0.18,0.08-0.35,0.12-0.53c0.02-0.09-0.02-0.18-0.11-0.2c-0.09-0.02-0.18,0.02-0.2,0.11c0,0,0,0,0,0.01
	c-0.05,0.18-0.09,0.37-0.13,0.55c-0.02,0.08,0.04,0.17,0.13,0.18h0.03C12.29,19.03,12.36,18.97,12.37,18.9L12.37,18.9z M11.05,13.99
	h0.05c0.16-0.06,0.31-0.1,0.49-0.15c0.09-0.02,0.14-0.11,0.12-0.2c-0.02-0.09-0.11-0.14-0.2-0.12c-0.17,0.04-0.34,0.09-0.51,0.15
	c-0.09,0.01-0.15,0.1-0.13,0.18C10.88,13.95,10.96,14.01,11.05,13.99L11.05,13.99z M16.68,11.6c0.05,0.07,0.15,0.09,0.22,0.04
	s0.09-0.15,0.04-0.22c-0.1-0.15-0.21-0.29-0.31-0.43c-0.06-0.06-0.16-0.07-0.22-0.01c-0.06,0.05-0.07,0.14-0.02,0.2
	C16.47,11.32,16.58,11.46,16.68,11.6L16.68,11.6z M12.32,13.7h0.02c0.17-0.02,0.34-0.03,0.51-0.04c0.09,0,0.16-0.07,0.16-0.16
	c0-0.09-0.07-0.16-0.16-0.16c-0.18,0-0.36,0.02-0.54,0.04c-0.09,0.01-0.15,0.08-0.15,0.17C12.17,13.64,12.24,13.7,12.32,13.7
	L12.32,13.7z M13.43,17.77c0.11,0.04,0.21,0.08,0.31,0.12h0.05c0.09,0.01,0.17-0.05,0.18-0.13s-0.05-0.17-0.13-0.18
	c-0.1-0.04-0.21-0.07-0.31-0.12c-0.08-0.03-0.17,0.01-0.2,0.09c-0.03,0.08,0.01,0.17,0.09,0.2L13.43,17.77z M13.43,16.18
	c-0.07-0.05-0.17-0.04-0.22,0.03c0,0,0,0,0,0c-0.07,0.09-0.13,0.18-0.19,0.27c-0.04,0.08-0.01,0.17,0.06,0.21
	c0.07,0.04,0.15,0.02,0.2-0.04c0.06-0.09,0.12-0.17,0.18-0.26c0.06-0.06,0.06-0.16-0.01-0.22c-0.01-0.01-0.02-0.01-0.03-0.02V16.18z
	 M12.82,8.96C13.01,9,13.2,9.05,13.38,9.11h0.05c0.09,0.01,0.17-0.05,0.17-0.14c0.01-0.08-0.05-0.16-0.13-0.17
	c-0.19-0.06-0.39-0.11-0.59-0.16c-0.09-0.02-0.17,0.04-0.19,0.12S12.74,8.93,12.82,8.96L12.82,8.96z M11.38,8.82h0.13
	c0.15,0,0.31,0.01,0.46,0.02c0.09,0,0.16-0.07,0.16-0.16s-0.07-0.16-0.16-0.16c-0.16-0.01-0.32-0.02-0.48-0.02h-0.13
	c-0.09,0-0.16,0.07-0.16,0.16c0,0.09,0.07,0.16,0.16,0.16L11.38,8.82z M19.47,20.27c0.08,0,0.15-0.07,0.16-0.15v-0.25v-0.28
	c-0.01-0.08-0.08-0.15-0.16-0.15c-0.09,0-0.15,0.08-0.15,0.16c0,0,0,0,0,0v0.5C19.31,20.19,19.38,20.27,19.47,20.27
	C19.47,20.27,19.47,20.27,19.47,20.27z M18.1,9.01h0.05c0.19-0.07,0.38-0.12,0.58-0.17c0.09-0.02,0.14-0.11,0.12-0.19
	s-0.11-0.14-0.19-0.12c-0.21,0.05-0.41,0.11-0.61,0.18c-0.09,0.01-0.15,0.1-0.13,0.18C17.93,8.97,18.01,9.03,18.1,9.01L18.1,9.01
	L18.1,9.01z M19.61,8.69c0.18-0.02,0.37-0.03,0.55-0.03h0.06c0.09,0,0.16-0.07,0.16-0.16c0-0.09-0.07-0.16-0.16-0.16h-0.06
	c-0.19,0-0.38,0-0.58,0.03c-0.09,0-0.16,0.07-0.16,0.16c0,0.09,0.07,0.16,0.16,0.16H19.61z M18.67,13.7
	c-0.01,0.09,0.06,0.16,0.15,0.17c0,0,0,0,0,0c0.17,0,0.34,0.03,0.5,0.05h0.02c0.09,0.01,0.16-0.06,0.17-0.15
	c0.01-0.09-0.06-0.16-0.15-0.17c-0.18-0.03-0.35-0.04-0.53-0.05c-0.08,0-0.14,0.05-0.16,0.12L18.67,13.7z M19.41,19.02
	c0.09-0.01,0.14-0.09,0.13-0.18c0,0,0,0,0,0c-0.03-0.17-0.07-0.35-0.11-0.52c-0.02-0.09-0.11-0.14-0.19-0.12s-0.14,0.11-0.12,0.19
	l0,0c0.04,0.16,0.07,0.33,0.1,0.49c0.01,0.08,0.08,0.13,0.15,0.13L19.41,19.02z M22,12.76c-0.03,0.19-0.08,0.39-0.13,0.58
	c-0.02,0.08,0.03,0.17,0.11,0.19h0.04c0.07,0,0.13-0.05,0.15-0.12c0.05-0.2,0.1-0.4,0.13-0.61c0.01-0.09-0.04-0.17-0.13-0.18
	C22.09,12.61,22.01,12.67,22,12.76L22,12.76L22,12.76z M21.95,10.4c0.02,0.07,0.08,0.12,0.15,0.12h0.03
	c0.08-0.02,0.14-0.1,0.12-0.19c0,0,0,0,0,0c-0.04-0.2-0.1-0.41-0.16-0.6c-0.03-0.09-0.12-0.13-0.2-0.11s-0.13,0.12-0.11,0.2
	c0.08,0.15,0.13,0.34,0.18,0.54L21.95,10.4z M19.96,13.88c-0.02,0.08,0.03,0.17,0.11,0.19c0.16,0.04,0.31,0.09,0.49,0.15
	c0.02,0,0.04,0,0.05,0c0.09,0.01,0.17-0.04,0.18-0.13s-0.04-0.17-0.13-0.18c-0.17-0.06-0.34-0.11-0.51-0.16
	c-0.08-0.02-0.16,0.02-0.19,0.1L19.96,13.88z M20.64,15.97c0.07,0.06,0.16,0.05,0.22-0.02c0,0,0,0,0,0
	c0.11-0.13,0.22-0.27,0.31-0.41c0.06-0.07,0.05-0.16-0.02-0.22c-0.07-0.06-0.16-0.05-0.22,0.02c-0.01,0.01-0.01,0.01-0.02,0.02
	c-0.1,0.13-0.2,0.26-0.31,0.39c-0.03,0.06-0.02,0.14,0.04,0.19L20.64,15.97z M18.15,16.02c0.07-0.05,0.08-0.15,0.02-0.22l-0.14-0.22
	c0-0.08,0-0.17,0.02-0.25c0-0.09-0.06-0.16-0.15-0.16c0,0,0,0,0,0c-0.07,0-0.14,0.05-0.15,0.12c-0.06-0.05-0.14-0.05-0.2,0
	c-0.06,0.06-0.06,0.16,0,0.22c0,0,0,0,0,0l0.15,0.15v0.02c0,0.07-0.02,0.14-0.03,0.22c-0.01,0.09,0.05,0.16,0.13,0.18h0.02
	c0.07,0,0.12-0.04,0.14-0.11c0.05,0.05,0.14,0.05,0.19,0L18.15,16.02z M17.52,13.48c0,0.04,0.02,0.09,0.03,0.13l-0.14,0.02
	c-0.09,0.01-0.15,0.1-0.13,0.18c0.01,0.09,0.1,0.15,0.18,0.13l0.16-0.03c0,0.05,0.02,0.11,0.03,0.16c0.01,0.08,0.08,0.13,0.15,0.13
	h0.03c0.08-0.01,0.14-0.09,0.13-0.18c0-0.05-0.02-0.09-0.03-0.14h0.14c0.09-0.01,0.15-0.08,0.14-0.17
	c-0.01-0.08-0.08-0.15-0.17-0.14h-0.18c0-0.06-0.03-0.12-0.04-0.17c-0.02-0.09-0.11-0.14-0.19-0.12c-0.09,0.02-0.14,0.11-0.12,0.19
	c0,0,0,0.01,0,0.01L17.52,13.48z M17.89,15.01c0.09,0,0.15-0.08,0.15-0.16c0,0,0,0,0,0c0-0.11-0.01-0.22-0.02-0.33
	c-0.01-0.09-0.08-0.15-0.17-0.14c-0.09,0.01-0.15,0.08-0.14,0.17c0,0,0,0,0,0c0,0.1,0,0.21,0.02,0.31c0.02,0.07,0.08,0.13,0.16,0.13
	L17.89,15.01z M16.72,9.69c0.03,0,0.06-0.01,0.08-0.03c0.17-0.11,0.34-0.21,0.52-0.31c0.08-0.04,0.11-0.13,0.07-0.21
	c-0.04-0.08-0.13-0.11-0.21-0.07c-0.18,0.1-0.37,0.2-0.55,0.31c-0.07,0.05-0.09,0.14-0.05,0.22c0.03,0.04,0.08,0.07,0.13,0.07V9.69z
	 M17.14,12.07c-0.08,0.04-0.11,0.13-0.07,0.21c0.08,0.15,0.15,0.31,0.21,0.47c0.02,0.06,0.08,0.1,0.14,0.1c0.02,0,0.04,0,0.06,0
	c0.08-0.03,0.12-0.12,0.09-0.2c0,0,0,0,0,0c-0.07-0.17-0.14-0.33-0.22-0.49c-0.02-0.08-0.11-0.13-0.19-0.11
	c-0.01,0-0.02,0.01-0.03,0.01L17.14,12.07z M16.96,18.35c0.07,0.04,0.17,0.02,0.21-0.06l0.12-0.21l0.25-0.06
	c0.09-0.02,0.14-0.11,0.12-0.19c-0.02-0.09-0.11-0.14-0.19-0.12c0.03-0.08-0.01-0.16-0.08-0.2c-0.08-0.03-0.17,0-0.21,0.08
	c0,0,0,0,0,0l-0.07,0.15l-0.01,0.04h-0.06v0.03l-0.18,0.03c-0.09,0.01-0.15,0.09-0.14,0.17c0.01,0.08,0.08,0.14,0.16,0.14h0.02
	C16.87,18.23,16.89,18.31,16.96,18.35z M17.06,15.07c0.07,0.06,0.17,0.05,0.22-0.02c0.06-0.07,0.05-0.17-0.02-0.22l-0.21-0.16
	l-0.15-0.11c-0.07-0.05-0.17-0.04-0.22,0.03c-0.05,0.07-0.04,0.17,0.03,0.22l0.14,0.11L17.06,15.07z M17.09,20.63
	c0.24,0.13,0.49,0.24,0.74,0.34c0.08,0.04,0.17,0,0.21-0.07c0.04-0.08,0-0.17-0.07-0.21c-0.01,0-0.01-0.01-0.02-0.01
	c-0.24-0.09-0.48-0.19-0.7-0.31c-0.07-0.05-0.17-0.02-0.22,0.05c-0.05,0.07-0.02,0.17,0.05,0.22
	C17.08,20.63,17.09,20.63,17.09,20.63L17.09,20.63z M17.52,17.16h0.04c0.07,0,0.14-0.05,0.16-0.12l0.02-0.07
	c0.02-0.06,0.04-0.12,0.06-0.19c0.02-0.07,0.03-0.11,0.04-0.16c0.02-0.09-0.03-0.17-0.12-0.19c-0.09-0.02-0.17,0.03-0.19,0.12l0,0
	c0,0.05-0.03,0.1-0.04,0.16c-0.02,0.06-0.03,0.11-0.05,0.16l-0.03,0.09l0.14,0.06l-0.14-0.05c-0.02,0.08,0.02,0.16,0.1,0.18
	C17.51,17.16,17.51,17.17,17.52,17.16L17.52,17.16z M22.08,11.25c0,0.15,0.01,0.3,0.02,0.45v0.15c0,0.09,0.07,0.16,0.15,0.16
	c0,0,0,0,0,0c0.09,0,0.15-0.07,0.16-0.15V11.7c0-0.16-0.01-0.32-0.02-0.47c-0.01-0.08-0.08-0.15-0.17-0.14
	C22.14,11.09,22.07,11.16,22.08,11.25C22.08,11.25,22.08,11.25,22.08,11.25L22.08,11.25z M18.66,17.6c0.02,0.01,0.05,0.01,0.07,0
	l0.13-0.07l0.05,0.13c0.04,0.08,0.13,0.11,0.21,0.07c0.07-0.03,0.11-0.11,0.08-0.19l-0.07-0.16l0.15-0.09
	c0.08-0.04,0.11-0.13,0.07-0.21c-0.04-0.08-0.13-0.11-0.21-0.07c-0.01,0-0.02,0.01-0.02,0.01L19,17.09l-0.06-0.13
	c-0.04-0.08-0.13-0.11-0.21-0.08c-0.08,0.04-0.11,0.13-0.08,0.21l0,0l0.07,0.14l-0.14,0.07c-0.09,0.02-0.14,0.11-0.12,0.19
	c0.02,0.08,0.1,0.14,0.19,0.12L18.66,17.6z M18.63,16.7c0.07-0.05,0.1-0.14,0.05-0.22c0,0,0,0,0,0c-0.06-0.1-0.13-0.2-0.19-0.29
	c-0.05-0.07-0.14-0.1-0.22-0.05c-0.07,0.05-0.1,0.14-0.05,0.22c0,0,0.01,0.01,0.01,0.01c0.06,0.09,0.12,0.18,0.18,0.28
	c0.03,0.05,0.08,0.08,0.13,0.08C18.58,16.72,18.61,16.71,18.63,16.7L18.63,16.7z M19.66,21.08l-0.14-0.02c0-0.05,0.02-0.1,0.03-0.15
	c0.01-0.09-0.05-0.17-0.13-0.18c-0.09-0.01-0.17,0.05-0.18,0.13c0,0.05-0.01,0.1-0.03,0.16L19.05,21c-0.09-0.02-0.17,0.04-0.18,0.13
	s0.04,0.17,0.13,0.18l0,0l0.15,0.02c0,0.05-0.02,0.09-0.03,0.14c-0.02,0.08,0.03,0.17,0.11,0.19c0,0,0,0,0,0h0.04
	c0.07,0,0.13-0.05,0.15-0.12c0-0.06,0.03-0.11,0.04-0.17l0.17,0.02c0.08,0,0.16-0.06,0.17-0.14C19.81,21.17,19.76,21.09,19.66,21.08
	C19.67,21.07,19.67,21.07,19.66,21.08L19.66,21.08z M18.1,23.6c-0.12,0.16-0.24,0.31-0.38,0.46c-0.06,0.06-0.06,0.16,0,0.22
	c0.06,0.06,0.16,0.06,0.22,0c0,0,0.01-0.01,0.01-0.01c0.14-0.15,0.27-0.31,0.4-0.48c0.05-0.07,0.04-0.17-0.03-0.22
	C18.25,23.51,18.15,23.53,18.1,23.6C18.1,23.6,18.1,23.6,18.1,23.6z M19.04,22.23c-0.08-0.03-0.17,0-0.21,0.08c0,0,0,0,0,0
	c-0.08,0.18-0.16,0.36-0.26,0.54c-0.04,0.08-0.01,0.17,0.06,0.21c0.08,0.04,0.17,0.01,0.21-0.06c0.1-0.18,0.19-0.37,0.27-0.56
	C19.16,22.35,19.12,22.26,19.04,22.23C19.04,22.22,19.04,22.22,19.04,22.23L19.04,22.23z M16.15,19.62l0.1-0.11
	c0.06-0.06,0.06-0.16-0.01-0.22c-0.06-0.06-0.16-0.06-0.22,0.01l0,0l-0.11,0.11l-0.11-0.11c-0.07-0.06-0.16-0.05-0.22,0.02
	c-0.05,0.06-0.05,0.15,0,0.2l0.11,0.1l-0.1,0.1c-0.07,0.05-0.08,0.15-0.02,0.22c0.05,0.07,0.15,0.08,0.22,0.02
	c0,0,0.01-0.01,0.01-0.01l0.13-0.12l0.13,0.11c0.07,0.05,0.17,0.04,0.22-0.02c0.05-0.07,0.04-0.17-0.02-0.22L16.15,19.62z
	 M17.07,24.67c-0.15,0.13-0.31,0.25-0.48,0.36c-0.07,0.05-0.09,0.15-0.04,0.22c0.03,0.04,0.08,0.07,0.13,0.07
	c0.03,0,0.06-0.01,0.09-0.03c0.17-0.12,0.34-0.24,0.5-0.38c0.07-0.06,0.08-0.15,0.02-0.22C17.23,24.62,17.13,24.61,17.07,24.67
	L17.07,24.67z M15.87,18.23h0.27c0.09,0,0.15-0.08,0.15-0.16c0,0,0,0,0,0c-0.01-0.08-0.08-0.15-0.16-0.15h-0.49
	c-0.08-0.01-0.16,0.06-0.16,0.14c0,0,0,0,0,0.01c0,0.09,0.06,0.16,0.15,0.16c0,0,0,0,0,0H15.87z M16.86,18.78
	c0.05-0.07,0.04-0.17-0.03-0.22c-0.07-0.05-0.17-0.04-0.22,0.03c0,0-0.01,0.01-0.01,0.01c-0.07,0.1-0.14,0.2-0.22,0.29
	c-0.05,0.07-0.04,0.17,0.03,0.22c0.07,0.05,0.17,0.04,0.22-0.03C16.72,18.98,16.79,18.88,16.86,18.78z M21.12,21.02
	c-0.19,0.03-0.38,0.05-0.58,0.06c-0.09,0-0.16,0.07-0.16,0.16c0,0.09,0.07,0.16,0.16,0.16c0.21,0,0.41-0.03,0.63-0.07
	c0.09-0.01,0.15-0.09,0.14-0.17C21.3,21.07,21.22,21.01,21.12,21.02C21.13,21.02,21.12,21.02,21.12,21.02L21.12,21.02z M23.81,19.91
	c-0.16,0.11-0.31,0.22-0.49,0.31c-0.08,0.04-0.1,0.14-0.06,0.21c0.04,0.08,0.14,0.1,0.21,0.06c0,0,0,0,0,0
	c0.18-0.1,0.35-0.22,0.51-0.33c0.07-0.05,0.09-0.15,0.03-0.22C23.98,19.87,23.88,19.85,23.81,19.91L23.81,19.91L23.81,19.91z
	 M20.11,16.25c-0.12,0.11-0.25,0.22-0.38,0.31c-0.07,0.05-0.09,0.14-0.04,0.22s0.14,0.09,0.22,0.04c0.01,0,0.01-0.01,0.02-0.02
	c0.13-0.11,0.27-0.22,0.39-0.34c0.06-0.06,0.06-0.16-0.01-0.22C20.26,16.2,20.17,16.19,20.11,16.25L20.11,16.25z M23.73,16.16
	c-0.05-0.07-0.15-0.08-0.22-0.03c-0.07,0.05-0.08,0.15-0.03,0.22c0,0,0,0,0,0c0.11,0.15,0.22,0.31,0.31,0.48
	c0.04,0.08,0.13,0.11,0.21,0.07c0.08-0.04,0.11-0.13,0.07-0.21c0-0.01-0.01-0.02-0.01-0.02C23.98,16.49,23.85,16.32,23.73,16.16z
	 M27.15,14.81c-0.01-3.19-2.21-5.96-5.32-6.69c-1.89-3.28-6.09-4.41-9.37-2.51c-1.11,0.64-2.02,1.58-2.62,2.71
	c-3.69,0.86-5.99,4.54-5.13,8.24c0.25,1.08,0.76,2.08,1.48,2.92c0,0.17-0.02,0.31-0.02,0.48c0,3.79,3.08,6.86,6.87,6.86
	c0.87,0,1.74-0.17,2.55-0.49c0.93,0.45,1.94,0.68,2.97,0.68c3.79-0.01,6.85-3.08,6.86-6.86c0-0.24-0.01-0.48-0.04-0.72
	C26.52,18.15,27.16,16.51,27.15,14.81L27.15,14.81z M24.92,18.91c-0.01-0.09-0.09-0.15-0.18-0.14c-0.09,0.01-0.15,0.09-0.14,0.18
	c0,0.01,0,0.01,0,0.02c0,0.08,0.03,0.15,0.03,0.23l-0.16,0.16c-0.06,0.06-0.05,0.16,0.01,0.22c0.06,0.05,0.14,0.05,0.2,0l0.06-0.06
	c0.02,0.21,0.03,0.41,0.03,0.61c-0.01,3.43-2.79,6.22-6.23,6.23c-0.92,0-1.82-0.2-2.65-0.59l0.05-0.02
	c0.08-0.04,0.11-0.13,0.07-0.21c-0.04-0.08-0.13-0.11-0.21-0.07l0,0l-0.21,0.1l-0.2-0.11c-0.08-0.04-0.17-0.01-0.21,0.07
	c-0.04,0.07-0.01,0.16,0.06,0.21l0.04,0.03c-3.2,1.26-6.81-0.32-8.07-3.52c-0.29-0.73-0.43-1.5-0.43-2.29v-0.35l0.05,0.05
	C6.9,19.71,7,19.72,7.06,19.66c0.07-0.06,0.07-0.15,0.02-0.22c-0.01-0.01-0.01-0.01-0.02-0.02L6.9,19.25c0-0.08,0.01-0.16,0.03-0.23
	c0.01-0.09-0.05-0.17-0.14-0.18c-0.08-0.01-0.16,0.05-0.17,0.13v0.04c-2.22-2.63-1.89-6.55,0.74-8.77C8.1,9.61,9,9.16,9.95,8.93
	l-0.05,0.1C9.88,9.11,9.92,9.2,10,9.23c0.07,0.03,0.16,0,0.19-0.07c0.03-0.07,0.06-0.14,0.1-0.21l0.23-0.04
	c0.08-0.01,0.14-0.09,0.13-0.18c-0.01-0.08-0.09-0.14-0.17-0.13c0,0,0,0,0,0l-0.09,0.02c1.62-3.04,5.39-4.19,8.43-2.57
	c1.03,0.55,1.89,1.38,2.47,2.39l-0.09-0.02c-0.09-0.02-0.17,0.04-0.19,0.13c-0.02,0.09,0.04,0.17,0.13,0.19c0,0,0.01,0,0.01,0
	l0.23,0.04l0.12,0.19c0.04,0.08,0.13,0.11,0.21,0.07c0.08-0.04,0.11-0.13,0.07-0.21l0,0l-0.05-0.09c3.35,0.77,5.44,4.12,4.66,7.46
	c-0.24,1.04-0.74,1.99-1.45,2.78C24.92,18.97,24.92,18.91,24.92,18.91z M24.48,17.47c-0.04-0.08-0.13-0.11-0.21-0.07
	c-0.07,0.04-0.11,0.12-0.08,0.2c0.08,0.18,0.14,0.36,0.2,0.54c0.02,0.07,0.08,0.11,0.15,0.11h0.05c0.08-0.02,0.13-0.11,0.11-0.19
	c0,0,0-0.01,0-0.01C24.64,17.84,24.57,17.65,24.48,17.47L24.48,17.47z M22.01,14.74c0.05-0.07,0.02-0.17-0.05-0.22c0,0,0,0,0,0
	l-0.15-0.09l0.07-0.16c0.04-0.08,0-0.17-0.07-0.21c-0.08-0.04-0.17,0-0.21,0.07c0,0,0,0.01,0,0.01l-0.06,0.13l-0.13-0.07
	c-0.07-0.04-0.17-0.02-0.21,0.05s-0.02,0.17,0.05,0.21c0.01,0,0.01,0.01,0.02,0.01l0.14,0.07l-0.08,0.14
	c-0.04,0.08-0.01,0.17,0.06,0.21s0.17,0.01,0.21-0.06l0.07-0.13l0.12,0.07C21.86,14.84,21.96,14.82,22.01,14.74
	C22,14.74,22,14.74,22.01,14.74L22.01,14.74z M22.69,15.05c-0.06-0.06-0.16-0.07-0.22-0.01c-0.06,0.06-0.07,0.16-0.01,0.22
	c0.01,0.01,0.02,0.02,0.03,0.02c0.15,0.13,0.29,0.26,0.42,0.39c0.06,0.07,0.15,0.07,0.22,0.02c0.07-0.06,0.07-0.15,0.02-0.22
	c-0.01-0.01-0.01-0.01-0.02-0.02C23,15.33,22.85,15.19,22.69,15.05L22.69,15.05z M15.22,18.6c-0.05-0.07-0.15-0.08-0.22-0.03
	c-0.07,0.05-0.08,0.15-0.03,0.22c0.08,0.1,0.16,0.21,0.24,0.31c0.06,0.07,0.15,0.07,0.22,0.02c0.07-0.06,0.07-0.15,0.02-0.22l0,0
	C15.36,18.8,15.28,18.7,15.22,18.6z M22.54,20.63c-0.18,0.08-0.37,0.14-0.55,0.2c-0.09,0.02-0.14,0.1-0.13,0.19
	c0.02,0.08,0.09,0.14,0.17,0.13h0.05c0.19-0.06,0.39-0.13,0.58-0.21c0.08-0.03,0.12-0.12,0.09-0.2c-0.03-0.08-0.12-0.12-0.2-0.09
	L22.54,20.63z M9.49,11.97c0.09,0,0.16-0.07,0.15-0.16c0,0,0,0,0,0V11.7v-0.44c0.01-0.09-0.06-0.16-0.14-0.17
	c-0.08-0.01-0.16,0.06-0.17,0.14c0,0,0,0,0,0c-0.01,0.15-0.02,0.31-0.02,0.46v0.11c0,0.09,0.07,0.16,0.16,0.15
	C9.49,11.97,9.49,11.97,9.49,11.97z M14.97,20.22c-0.15,0.1-0.31,0.19-0.45,0.28c-0.08,0.04-0.11,0.13-0.07,0.21
	c0.04,0.08,0.13,0.11,0.21,0.07c0.01,0,0.01-0.01,0.01-0.01c0.16-0.09,0.31-0.19,0.47-0.29c0.07-0.05,0.09-0.15,0.04-0.22
	C15.14,20.19,15.05,20.18,14.97,20.22z M9.58,20.97c-0.19-0.06-0.37-0.13-0.55-0.21c-0.08-0.04-0.17-0.01-0.21,0.07
	c-0.04,0.08-0.01,0.17,0.07,0.21c0,0,0.01,0,0.01,0.01c0.19,0.08,0.38,0.16,0.58,0.22h0.05c0.09,0.01,0.17-0.05,0.17-0.14
	c0.01-0.08-0.05-0.16-0.13-0.17L9.58,20.97z M10.32,14.49l-0.07-0.14l0.14-0.07c0.08-0.04,0.11-0.13,0.07-0.21s-0.13-0.11-0.21-0.07
	l-0.13,0.07l-0.05-0.13c-0.03-0.08-0.11-0.13-0.2-0.1c-0.08,0.03-0.13,0.11-0.1,0.2c0,0.01,0.01,0.01,0.01,0.02l0.07,0.16L9.7,14.3
	c-0.07,0.05-0.08,0.15-0.03,0.22c0.05,0.06,0.13,0.08,0.2,0.05l0.12-0.07l0.06,0.13c0.03,0.08,0.12,0.12,0.2,0.08
	c0.08-0.03,0.12-0.12,0.08-0.2C10.33,14.5,10.32,14.49,10.32,14.49L10.32,14.49z M8.24,20.35c-0.17-0.1-0.33-0.22-0.49-0.33
	c-0.07-0.05-0.17-0.04-0.22,0.03c-0.05,0.07-0.04,0.17,0.03,0.22c0.17,0.13,0.34,0.24,0.51,0.35c0.02,0.01,0.05,0.02,0.08,0.02
	c0.09,0,0.16-0.07,0.16-0.15C8.31,20.43,8.28,20.37,8.24,20.35z M7.61,16.8c0.06,0,0.11-0.03,0.13-0.08
	c0.1-0.18,0.22-0.35,0.33-0.51c0.05-0.07,0.04-0.17-0.03-0.22c-0.07-0.05-0.17-0.04-0.22,0.03c-0.13,0.17-0.24,0.35-0.35,0.54
	c-0.04,0.07-0.02,0.17,0.06,0.21C7.56,16.79,7.58,16.8,7.61,16.8L7.61,16.8z M9.58,10.58h0.03c0.07,0,0.14-0.05,0.15-0.13
	C9.8,10.27,9.85,10.1,9.9,9.92c0.03-0.09-0.02-0.18-0.11-0.2s-0.18,0.02-0.2,0.11c-0.05,0.18-0.1,0.37-0.14,0.55
	c-0.02,0.08,0.03,0.17,0.12,0.19C9.57,10.57,9.58,10.58,9.58,10.58z M9.53,12.49c-0.09,0.01-0.14,0.09-0.13,0.18c0,0,0,0,0,0
	c0.03,0.19,0.07,0.38,0.11,0.56c0.02,0.07,0.08,0.12,0.15,0.12H9.7c0.08-0.02,0.14-0.1,0.12-0.19c-0.04-0.18-0.08-0.36-0.1-0.54
	C9.7,12.54,9.63,12.48,9.53,12.49L9.53,12.49z M11.02,21.25c-0.2,0-0.39-0.04-0.59-0.07c-0.09-0.01-0.17,0.04-0.18,0.13
	c-0.01,0.09,0.04,0.17,0.13,0.18c0.2,0.03,0.41,0.06,0.63,0.08c0.09,0,0.16-0.07,0.16-0.16c0-0.09-0.07-0.16-0.16-0.16L11.02,21.25z
	 M7.25,17.34c-0.08-0.03-0.17,0.01-0.2,0.09c0,0,0,0,0,0c-0.08,0.2-0.15,0.4-0.21,0.6c-0.02,0.08,0.02,0.17,0.11,0.19h0.04
	c0.07,0,0.13-0.05,0.15-0.11c0.06-0.19,0.13-0.39,0.2-0.58C7.36,17.46,7.33,17.37,7.25,17.34z M9.13,14.89
	c-0.06-0.07-0.15-0.07-0.22-0.02c-0.16,0.14-0.31,0.28-0.47,0.43c-0.07,0.06-0.07,0.16-0.02,0.22c0.06,0.07,0.16,0.07,0.22,0.02
	c0.01-0.01,0.01-0.01,0.02-0.02c0.14-0.14,0.29-0.28,0.45-0.41C9.18,15.06,9.19,14.96,9.13,14.89C9.13,14.89,9.13,14.89,9.13,14.89
	L9.13,14.89z M14.17,17.21c0.09,0,0.16-0.07,0.16-0.16c0-0.02,0-0.04-0.01-0.05c-0.05-0.13-0.09-0.27-0.13-0.41
	c-0.03-0.09-0.12-0.13-0.21-0.1c-0.08,0.03-0.12,0.11-0.11,0.19c0.04,0.15,0.09,0.29,0.14,0.43C14.04,17.18,14.11,17.22,14.17,17.21
	L14.17,17.21z M13.81,20.83c-0.17,0.07-0.33,0.13-0.5,0.18c-0.09,0.02-0.14,0.1-0.13,0.19c0.02,0.08,0.09,0.14,0.17,0.13h0.05
	c0.18-0.05,0.35-0.12,0.53-0.18c0.08-0.03,0.12-0.12,0.09-0.2c-0.03-0.08-0.12-0.12-0.2-0.09L13.81,20.83z M13.39,23.63
	c-0.05-0.07-0.15-0.09-0.22-0.04s-0.09,0.15-0.04,0.22l0,0c0.11,0.16,0.23,0.31,0.35,0.46c0.05,0.07,0.14,0.09,0.22,0.04
	c0.07-0.05,0.09-0.14,0.04-0.22c-0.01-0.01-0.01-0.02-0.02-0.03C13.61,23.92,13.5,23.78,13.39,23.63z M14.3,24.65
	c-0.07-0.05-0.17-0.04-0.22,0.02c-0.05,0.06-0.05,0.15,0.01,0.21c0.14,0.13,0.29,0.25,0.44,0.37c0.07,0.06,0.16,0.05,0.22-0.01
	c0.06-0.07,0.05-0.16-0.01-0.22c0,0-0.01-0.01-0.02-0.01C14.59,24.89,14.43,24.77,14.3,24.65z M13.1,17.27l-0.14-0.07l0.08-0.14
	c0.05-0.07,0.03-0.17-0.04-0.22c-0.07-0.05-0.17-0.03-0.22,0.04c-0.01,0.01-0.01,0.02-0.02,0.03l-0.07,0.13l-0.13-0.08
	c-0.07-0.05-0.17-0.02-0.22,0.05c-0.05,0.07-0.02,0.17,0.05,0.22l0.15,0.09l-0.07,0.16c-0.03,0.08,0.01,0.17,0.09,0.2
	c0.08,0.03,0.16-0.01,0.2-0.08l0.06-0.13l0.13,0.07c0.08,0.04,0.17,0.01,0.21-0.07C13.21,17.4,13.18,17.3,13.1,17.27L13.1,17.27z
	 M11.95,16.73c0.05-0.07,0.04-0.16-0.02-0.22c-0.13-0.11-0.26-0.23-0.39-0.35c-0.06-0.06-0.16-0.06-0.22,0
	c-0.06,0.06-0.06,0.16,0,0.22l0,0c0.13,0.13,0.27,0.25,0.41,0.36C11.8,16.81,11.9,16.8,11.95,16.73L11.95,16.73z M12.47,21.65
	c0-0.04-0.02-0.09-0.03-0.13l0.14-0.02c0.09-0.01,0.14-0.1,0.13-0.18c-0.01-0.09-0.1-0.14-0.18-0.13l0,0l-0.16,0.03
	c0-0.05-0.01-0.11-0.03-0.16c-0.01-0.09-0.1-0.15-0.18-0.13c-0.09,0.01-0.15,0.1-0.13,0.18c0,0.05,0.02,0.09,0.03,0.14h-0.14
	c-0.09,0.01-0.15,0.09-0.14,0.17c0.01,0.08,0.08,0.14,0.16,0.14l0.18-0.02c0,0.06,0.03,0.12,0.04,0.17
	c0.02,0.07,0.08,0.12,0.15,0.12h0.04C12.43,21.8,12.48,21.73,12.47,21.65L12.47,21.65z M12.73,22.41c-0.04-0.08-0.14-0.11-0.21-0.06
	c-0.07,0.04-0.1,0.11-0.08,0.18c0.07,0.18,0.16,0.35,0.24,0.52c0.04,0.08,0.13,0.11,0.21,0.07s0.11-0.13,0.07-0.21l0,0
	C12.88,22.77,12.8,22.6,12.73,22.41z"/>
</svg>
