<?xml version="1.0" encoding="utf-8"?>
<!-- Generator: Adobe Illustrator 21.1.0, SVG Export Plug-In . SVG Version: 6.00 Build 0)  -->
<!DOCTYPE svg PUBLIC "-//W3C//DTD SVG 1.1//EN" "http://www.w3.org/Graphics/SVG/1.1/DTD/svg11.dtd">
<svg version="1.1" id="Layer_1" xmlns="http://www.w3.org/2000/svg" xmlns:xlink="http://www.w3.org/1999/xlink" x="0px" y="0px"
	 viewBox="0 0 32 32" style="enable-background:new 0 0 32 32;" xml:space="preserve">
<path d="M15.8,12.55c0,0,0.05-0.15,0.25-0.15l1.6,0.02c0.12,0.01,0.61,0.02,0.93-0.64l1.55-3.01c0.25-0.47,0.06-0.85-0.09-1
	L19.1,6.62l-0.05-0.05c-0.03-0.02-0.66-0.47-1.62-0.47c-0.52,0-1.05,0.13-1.56,0.39c-0.07,0.04-1.83,0.93-2.83,3.36
	c-0.1,0.19-2.42,4.76-0.6,11.55c0.01,0.05,0.82,4.5,4.69,4.5c0.31,0,0.63-0.03,0.96-0.09l0.05-0.01l1.37-0.8
	c0.38-0.22,0.38-0.69,0.32-0.93l-0.85-3.46c-0.07-0.23-0.31-0.63-0.78-0.65l-2.35-0.03c-0.04,0-0.19-0.02-0.23-0.19
	c-0.01-0.04-1.21-4.17,0.18-7.16L15.8,12.55L15.8,12.55z M19.58,8.16l0.03,0.03c0,0,0.09,0.09-0.02,0.28l-1.56,3.02
	c-0.15,0.3-0.3,0.31-0.32,0.31l-0.85-0.01l1.97-4.53C18.84,7.27,19.58,8.16,19.58,8.16z M18.18,20.58c0.14,0.01,0.2,0.2,0.2,0.2h0
	l0.85,3.44c0.01,0.06,0.02,0.22-0.03,0.26l-1.09,0.63l-0.86-4.54L18.18,20.58L18.18,20.58z M15.23,12.34
	c-1.48,3.21-0.26,7.41-0.2,7.58c0.14,0.49,0.59,0.63,0.81,0.63l1.11,0.01l0.88,4.67c-0.24,0.03-0.47,0.05-0.7,0.05
	c-3.35,0-4.06-3.83-4.09-4.02c-1.76-6.57,0.52-11.09,0.56-11.16c0.91-2.23,2.53-3.06,2.55-3.07c0.42-0.22,0.86-0.33,1.28-0.33
	c0.59,0,1.02,0.22,1.19,0.31l-2.08,4.78l-0.42-0.01C15.58,11.76,15.31,12.12,15.23,12.34L15.23,12.34z"/>
</svg>
