<?xml version="1.0" encoding="utf-8"?>
<!-- Generator: Adobe Illustrator 21.1.0, SVG Export Plug-In . SVG Version: 6.00 Build 0)  -->
<!DOCTYPE svg PUBLIC "-//W3C//DTD SVG 1.1//EN" "http://www.w3.org/Graphics/SVG/1.1/DTD/svg11.dtd">
<svg version="1.1" id="Layer_1" xmlns="http://www.w3.org/2000/svg" xmlns:xlink="http://www.w3.org/1999/xlink" x="0px" y="0px"
	 viewBox="0 0 32 32" style="enable-background:new 0 0 32 32;" xml:space="preserve">
<path d="M12.75,12.76c0.92,0,1.67-0.75,1.67-1.67c0-0.92-0.75-1.67-1.67-1.67c-0.92,0-1.67,0.75-1.67,1.67S11.83,12.76,12.75,12.76z
	 M12.75,10.01c0.59,0,1.08,0.48,1.08,1.08c0,0.59-0.48,1.08-1.08,1.08s-1.08-0.48-1.08-1.08C11.67,10.49,12.16,10.01,12.75,10.01z
	 M23.33,9.06c-0.92,0.1-1.58,0.92-1.48,1.84c0.09,0.85,0.8,1.49,1.66,1.49c0.06,0,0.12,0,0.18-0.01c0.92-0.1,1.58-0.92,1.48-1.84
	C25.07,9.63,24.26,8.96,23.33,9.06z M23.62,11.79c-0.6,0.06-1.12-0.37-1.19-0.96c-0.06-0.59,0.37-1.12,0.96-1.19
	c0.04,0,0.08-0.01,0.12-0.01c0.55,0,1.01,0.41,1.07,0.96C24.64,11.19,24.21,11.73,23.62,11.79z M28.35,9.84
	c-0.02-0.14-0.14-0.25-0.28-0.26l-1.46-0.06c-0.08-0.22-0.18-0.42-0.3-0.6c-0.12-0.19-0.26-0.36-0.42-0.53l0.56-1.35
	c0.05-0.13,0.01-0.29-0.12-0.36c-0.37-0.23-0.75-0.43-1.15-0.6c-0.13-0.06-0.29-0.01-0.36,0.11l-0.78,1.23
	c-0.45-0.07-0.9-0.05-1.34,0.06L21.8,6.34c-0.09-0.11-0.25-0.15-0.37-0.08c-0.38,0.2-0.75,0.44-1.09,0.7
	c-0.11,0.09-0.15,0.25-0.08,0.37l0.68,1.29c-0.23,0.28-0.4,0.59-0.53,0.93c-0.08-0.38-0.17-0.75-0.3-1.1
	c-0.05-0.14-0.19-0.22-0.33-0.19l-1.42,0.25C18.19,8.17,18,7.85,17.78,7.54l0.93-1.11c0.09-0.11,0.09-0.27,0-0.38
	c-0.28-0.33-0.59-0.64-0.92-0.92c-0.11-0.09-0.27-0.09-0.38,0L16.3,6.06c-0.31-0.22-0.64-0.41-0.97-0.57l0.25-1.43
	c0.03-0.14-0.05-0.28-0.19-0.33c-0.4-0.14-0.82-0.26-1.25-0.33C14,3.38,13.86,3.46,13.81,3.6l-0.49,1.36
	c-0.41-0.04-0.72-0.04-1.12,0L11.7,3.6c-0.05-0.14-0.19-0.22-0.33-0.19c-0.43,0.08-0.85,0.19-1.25,0.33
	C9.98,3.79,9.9,3.93,9.93,4.07l0.25,1.43C9.84,5.65,9.52,5.84,9.21,6.07L8.1,5.13c-0.11-0.09-0.27-0.09-0.38,0
	C7.39,5.41,7.08,5.72,6.8,6.05C6.7,6.16,6.7,6.32,6.8,6.43l0.93,1.11C7.51,7.85,7.32,8.18,7.17,8.51L5.74,8.26
	C5.6,8.23,5.46,8.31,5.41,8.45C5.27,8.85,5.15,9.27,5.08,9.7c-0.03,0.14,0.05,0.28,0.19,0.33l1.36,0.49
	c-0.02,0.2-0.03,0.39-0.03,0.56c0,0.18,0.01,0.36,0.03,0.56l-1.36,0.49c-0.14,0.05-0.22,0.19-0.19,0.33
	c0.08,0.43,0.19,0.85,0.33,1.25c0.05,0.14,0.19,0.22,0.33,0.19l1.43-0.25c0.16,0.34,0.35,0.66,0.57,0.97L6.8,15.75
	c-0.09,0.11-0.09,0.27,0,0.38c0.28,0.33,0.59,0.64,0.92,0.92c0.11,0.09,0.27,0.09,0.38,0l1.11-0.93c0.31,0.22,0.64,0.41,0.97,0.57
	l-0.25,1.43c-0.03,0.14,0.05,0.28,0.19,0.33c0.4,0.14,0.82,0.26,1.25,0.33c0.02,0,0.04,0,0.05,0c0.02,0,0.04-0.01,0.07-0.01
	c-0.05,0.1-0.04,0.23,0.04,0.32l0.93,1.1c-0.25,0.4-0.43,0.83-0.53,1.29l-1.44,0.12c-0.14,0.01-0.26,0.13-0.27,0.27
	c-0.04,0.43-0.04,0.87,0,1.3c0.01,0.14,0.13,0.26,0.27,0.27l1.44,0.12c0.11,0.46,0.29,0.89,0.53,1.29l-0.93,1.1
	c-0.09,0.11-0.09,0.27,0,0.38c0.28,0.33,0.59,0.64,0.92,0.92c0.11,0.09,0.27,0.09,0.38,0l1.1-0.93c0.4,0.25,0.83,0.42,1.29,0.53
	l0.12,1.44c0.01,0.14,0.13,0.26,0.27,0.27c0.21,0.02,0.43,0.03,0.65,0.03s0.43-0.01,0.65-0.03c0.14-0.01,0.26-0.13,0.27-0.27
	l0.12-1.44c0.46-0.11,0.89-0.29,1.29-0.53l1.1,0.93c0.11,0.09,0.27,0.09,0.38,0c0.33-0.28,0.64-0.59,0.92-0.92
	c0.09-0.11,0.09-0.27,0-0.38l-0.93-1.1c0.25-0.4,0.42-0.83,0.53-1.29l1.44-0.12c0.14-0.01,0.26-0.13,0.27-0.27
	c0.04-0.43,0.04-0.87,0-1.3c-0.01-0.14-0.13-0.26-0.27-0.27l-1.44-0.12c-0.11-0.46-0.29-0.89-0.53-1.29l0.93-1.1
	c0.09-0.11,0.09-0.27,0-0.38c-0.28-0.33-0.58-0.63-0.92-0.92c-0.11-0.09-0.27-0.09-0.38,0l-1.1,0.93c-0.4-0.25-0.83-0.42-1.29-0.53
	l-0.11-1.31l0.22,0.19c0.11,0.09,0.27,0.09,0.38,0c0.33-0.28,0.64-0.59,0.92-0.92c0.09-0.11,0.09-0.27,0-0.38l-0.93-1.11
	c0.22-0.31,0.41-0.64,0.57-0.97l1.43,0.25c0.14,0.03,0.28-0.05,0.33-0.19c0.14-0.4,0.26-0.82,0.33-1.25
	c0.03-0.14-0.05-0.28-0.19-0.33l-0.77-0.28l0.93,0.04c0.08,0.22,0.18,0.42,0.3,0.6c0.12,0.19,0.26,0.36,0.42,0.53l-0.56,1.35
	c-0.05,0.13-0.01,0.29,0.12,0.36c0.36,0.23,0.75,0.43,1.15,0.6c0.04,0.02,0.08,0.02,0.11,0.02c0.1,0,0.19-0.05,0.25-0.14L22.99,14
	c0.45,0.07,0.91,0.05,1.34-0.06l0.89,1.16c0.09,0.11,0.25,0.15,0.37,0.08c0.38-0.2,0.75-0.44,1.09-0.7
	c0.11-0.09,0.15-0.25,0.08-0.37l-0.68-1.29c0.29-0.35,0.5-0.76,0.62-1.2l1.45-0.19c0.14-0.02,0.25-0.14,0.26-0.28
	C28.43,10.71,28.41,10.27,28.35,9.84L28.35,9.84z M11.74,18.46l0.45-1.25c0.41,0.04,0.73,0.04,1.12,0l0.49,1.36
	c0.01,0.02,0.02,0.04,0.04,0.06l-1.02-0.86c-0.11-0.09-0.27-0.09-0.38,0C12.19,17.99,11.96,18.22,11.74,18.46L11.74,18.46z
	 M18.45,19.32c0.11,0.08,0.26,0.07,0.36-0.02l1.08-0.91c0.17,0.16,0.34,0.32,0.5,0.5l-0.91,1.08c-0.09,0.1-0.09,0.25-0.02,0.36
	c0.31,0.44,0.51,0.94,0.61,1.48c0.03,0.13,0.13,0.23,0.27,0.24l1.41,0.12c0.01,0.23,0.01,0.47,0,0.7l-1.41,0.12
	C20.2,23,20.1,23.1,20.07,23.23c-0.1,0.54-0.3,1.03-0.61,1.48c-0.08,0.11-0.07,0.26,0.02,0.36l0.91,1.08
	c-0.16,0.17-0.32,0.34-0.5,0.5l-1.08-0.91c-0.1-0.09-0.25-0.09-0.36-0.02c-0.44,0.31-0.94,0.51-1.48,0.61
	c-0.13,0.03-0.23,0.13-0.24,0.27L16.61,28c-0.23,0.01-0.47,0.01-0.7,0l-0.12-1.41c-0.01-0.13-0.11-0.24-0.24-0.27
	c-0.54-0.1-1.03-0.3-1.48-0.61c-0.11-0.08-0.26-0.07-0.36,0.02l-1.08,0.91c-0.17-0.16-0.34-0.32-0.5-0.5l0.91-1.08
	c0.09-0.1,0.09-0.25,0.02-0.36c-0.31-0.45-0.51-0.94-0.61-1.48c-0.03-0.13-0.13-0.23-0.27-0.24l-1.41-0.12
	c-0.01-0.23-0.01-0.47,0-0.7l1.41-0.12c0.13-0.01,0.24-0.11,0.27-0.24c0.1-0.54,0.31-1.03,0.61-1.48c0.08-0.11,0.07-0.26-0.02-0.36
	l-0.91-1.08c0.16-0.17,0.32-0.34,0.5-0.5l1.08,0.91c0.1,0.09,0.25,0.09,0.36,0.02c0.45-0.31,0.94-0.51,1.48-0.61
	c0.13-0.03,0.23-0.13,0.24-0.27l0.12-1.41c0.24-0.01,0.47-0.01,0.7,0l0.12,1.41c0.01,0.13,0.11,0.24,0.24,0.27
	C17.51,18.81,18.01,19.01,18.45,19.32L18.45,19.32z M15.75,16.46c0.19-0.11,0.37-0.22,0.55-0.35l0.41,0.35
	C16.39,16.44,16.07,16.44,15.75,16.46L15.75,16.46z M19.62,13.29l-1.4-0.25c-0.14-0.03-0.27,0.05-0.33,0.18
	c-0.18,0.44-0.43,0.86-0.73,1.25c-0.08,0.11-0.08,0.26,0.01,0.37l0.92,1.09c-0.16,0.17-0.32,0.34-0.5,0.5l-1.09-0.92
	c-0.11-0.09-0.26-0.09-0.37-0.01c-0.4,0.3-0.82,0.55-1.25,0.73c-0.13,0.05-0.2,0.19-0.18,0.33l0.25,1.4
	c-0.22,0.07-0.45,0.13-0.68,0.18l-0.49-1.34c-0.04-0.12-0.15-0.19-0.28-0.19c-0.01,0-0.03,0-0.04,0c-0.54,0.07-0.88,0.07-1.45,0
	c-0.14-0.02-0.27,0.06-0.32,0.19l-0.49,1.34c-0.23-0.05-0.46-0.11-0.68-0.18l0.25-1.4c0.03-0.14-0.05-0.27-0.18-0.33
	c-0.44-0.18-0.86-0.43-1.25-0.73C9.26,15.42,9.11,15.42,9,15.51l-1.09,0.92c-0.17-0.16-0.34-0.32-0.5-0.5l0.92-1.09
	c0.09-0.11,0.09-0.26,0.01-0.37c-0.3-0.39-0.55-0.81-0.73-1.25c-0.05-0.13-0.19-0.2-0.33-0.18l-1.4,0.25
	c-0.07-0.22-0.13-0.45-0.18-0.68l1.34-0.49c0.13-0.05,0.21-0.18,0.19-0.32c-0.04-0.27-0.05-0.5-0.05-0.72
	c0-0.22,0.02-0.45,0.05-0.72c0.02-0.14-0.06-0.27-0.19-0.32L5.7,9.56c0.05-0.23,0.11-0.46,0.18-0.68l1.4,0.25
	c0.14,0.02,0.27-0.05,0.33-0.18C7.79,8.52,8.04,8.1,8.34,7.71C8.43,7.6,8.42,7.44,8.33,7.34L7.41,6.25c0.16-0.17,0.32-0.34,0.5-0.5
	L9,6.67c0.11,0.09,0.26,0.09,0.37,0.01c0.39-0.3,0.81-0.55,1.25-0.73c0.13-0.05,0.2-0.19,0.18-0.33l-0.25-1.4
	c0.22-0.07,0.45-0.13,0.68-0.18l0.49,1.34c0.05,0.13,0.18,0.21,0.32,0.19c0.56-0.07,0.89-0.07,1.45,0c0.14,0.02,0.27-0.06,0.32-0.19
	l0.49-1.34c0.23,0.05,0.46,0.11,0.68,0.18l-0.25,1.4c-0.03,0.14,0.05,0.27,0.18,0.33c0.44,0.18,0.86,0.43,1.25,0.73
	c0.11,0.08,0.26,0.08,0.37-0.01l1.09-0.92c0.17,0.16,0.34,0.32,0.5,0.5l-0.92,1.09c-0.09,0.11-0.09,0.26-0.01,0.37
	c0.3,0.39,0.55,0.81,0.73,1.25c0.05,0.13,0.19,0.2,0.33,0.18l1.4-0.25c0.07,0.22,0.13,0.45,0.18,0.68l-1.34,0.49
	c-0.13,0.05-0.21,0.18-0.19,0.32c0.04,0.27,0.05,0.5,0.05,0.72c0,0.22-0.02,0.45-0.05,0.72c-0.02,0.14,0.06,0.27,0.19,0.32
	l1.34,0.49C19.75,12.85,19.69,13.07,19.62,13.29L19.62,13.29z M26.43,11.05c-0.12,0.02-0.22,0.11-0.25,0.23
	c-0.1,0.48-0.33,0.92-0.66,1.28c-0.08,0.09-0.1,0.23-0.04,0.34l0.66,1.25c-0.19,0.14-0.39,0.26-0.59,0.38l-0.86-1.12
	c-0.08-0.1-0.21-0.14-0.33-0.1c-0.47,0.15-0.97,0.18-1.44,0.07c-0.12-0.03-0.25,0.03-0.31,0.13l-0.75,1.19
	c-0.21-0.1-0.42-0.21-0.62-0.32l0.54-1.3c0.05-0.12,0.02-0.25-0.08-0.33c-0.18-0.17-0.34-0.35-0.47-0.55
	c-0.13-0.2-0.23-0.42-0.3-0.66c-0.04-0.12-0.15-0.2-0.27-0.21l-1.41-0.05c-0.02-0.23-0.03-0.47-0.03-0.7l1.39-0.18
	c0.12-0.02,0.22-0.11,0.25-0.23c0.1-0.48,0.33-0.92,0.67-1.28c0.08-0.09,0.1-0.23,0.04-0.34l-0.66-1.24
	c0.19-0.14,0.39-0.26,0.59-0.38l0.86,1.12c0.08,0.1,0.21,0.14,0.33,0.1c0.47-0.15,0.97-0.18,1.44-0.07
	c0.12,0.03,0.25-0.03,0.32-0.13l0.75-1.19c0.21,0.1,0.42,0.21,0.62,0.32l-0.54,1.3c-0.05,0.12-0.02,0.25,0.08,0.33
	c0.19,0.17,0.35,0.36,0.47,0.55c0.13,0.2,0.23,0.42,0.3,0.66c0.04,0.12,0.15,0.2,0.27,0.21l1.41,0.05c0.02,0.23,0.03,0.47,0.03,0.7
	L26.43,11.05L26.43,11.05z M14.59,22.52c0,0.92,0.75,1.67,1.67,1.67c0.92,0,1.67-0.75,1.67-1.67s-0.75-1.67-1.67-1.67
	C15.34,20.85,14.59,21.6,14.59,22.52z M17.34,22.52c0,0.59-0.48,1.08-1.08,1.08c-0.59,0-1.08-0.48-1.08-1.08
	c0-0.59,0.48-1.08,1.08-1.08C16.86,21.44,17.34,21.92,17.34,22.52z M12.75,8.25c-0.37,0-0.73,0.07-1.06,0.21
	c-0.08,0.03-0.11,0.12-0.08,0.19c0.03,0.08,0.12,0.11,0.19,0.08c0.3-0.12,0.62-0.18,0.95-0.18c1.4,0,2.55,1.14,2.55,2.55
	s-1.14,2.55-2.55,2.55s-2.55-1.14-2.55-2.55c0-0.5,0.14-0.98,0.42-1.4c0.04-0.07,0.03-0.16-0.04-0.2c-0.07-0.04-0.16-0.03-0.2,0.04
	c-0.3,0.46-0.46,1-0.46,1.56c0,1.57,1.28,2.84,2.84,2.84s2.84-1.28,2.84-2.84S14.32,8.25,12.75,8.25L12.75,8.25z M13.42,22.52
	c0,1.57,1.28,2.84,2.84,2.84c0.8,0,1.57-0.34,2.11-0.93c0.05-0.06,0.05-0.15-0.01-0.21c-0.06-0.05-0.15-0.05-0.21,0.01
	c-0.48,0.53-1.17,0.84-1.89,0.84c-1.4,0-2.55-1.14-2.55-2.55c0-1.4,1.14-2.55,2.55-2.55s2.55,1.14,2.55,2.55
	c0,0.17-0.02,0.34-0.05,0.51c-0.02,0.08,0.04,0.16,0.12,0.17c0.08,0.02,0.16-0.04,0.17-0.12c0.04-0.19,0.06-0.38,0.06-0.57
	c0-1.57-1.28-2.84-2.84-2.84C14.7,19.67,13.42,20.95,13.42,22.52L13.42,22.52z"/>
</svg>
