<?xml version="1.0" encoding="utf-8"?>
<!-- Generator: Adobe Illustrator 21.1.0, SVG Export Plug-In . SVG Version: 6.00 Build 0)  -->
<!DOCTYPE svg PUBLIC "-//W3C//DTD SVG 1.1//EN" "http://www.w3.org/Graphics/SVG/1.1/DTD/svg11.dtd">
<svg version="1.1" id="Layer_1" xmlns="http://www.w3.org/2000/svg" xmlns:xlink="http://www.w3.org/1999/xlink" x="0px" y="0px"
	 viewBox="0 0 32 32" style="enable-background:new 0 0 32 32;" xml:space="preserve">
<path d="M16.17,20.16c0.5-1.34,0.77-2.78,0.77-4.23c0-1.48-0.26-2.92-0.77-4.26c0.59-1.5,1.5-2.87,2.7-4.03
	C19,7.51,19,7.32,18.88,7.2c-0.06-0.06-0.14-0.09-0.22-0.09c-0.08,0-0.15,0.03-0.21,0.09c-1.11,1.08-1.98,2.32-2.6,3.68
	c-0.62-1.36-1.49-2.61-2.6-3.68c-0.12-0.12-0.31-0.11-0.43,0.01c-0.12,0.12-0.11,0.32,0.01,0.43c1.2,1.16,2.11,2.53,2.7,4.03
	c-0.5,1.34-0.77,2.78-0.77,4.26c0,1.45,0.27,2.89,0.77,4.23c-0.63,1.58-1.6,3.03-2.86,4.21c-0.12,0.12-0.13,0.31-0.02,0.43
	c0.06,0.07,0.14,0.1,0.22,0.1c0.07,0,0.15-0.03,0.21-0.08c1.18-1.1,2.11-2.42,2.77-3.87c0.66,1.45,1.59,2.77,2.77,3.87
	c0.12,0.11,0.32,0.11,0.43-0.01c0.12-0.12,0.11-0.32-0.01-0.43C17.77,23.19,16.8,21.74,16.17,20.16L16.17,20.16z M15.36,15.92
	c0-1.14,0.17-2.26,0.48-3.32c0.32,1.06,0.48,2.18,0.48,3.32c0,1.12-0.17,2.22-0.48,3.28C15.53,18.15,15.36,17.04,15.36,15.92z
	 M8.32,12.85c-0.08-0.07-0.2-0.07-0.27,0.01c-0.07,0.08-0.07,0.2,0.01,0.27c0.78,0.74,1.21,1.73,1.21,2.8c0,1.09-0.47,2.14-1.3,2.88
	C7.89,18.87,7.88,19,7.95,19.07c0.04,0.04,0.09,0.06,0.14,0.06c0.05,0,0.09-0.02,0.13-0.05c0.9-0.81,1.42-1.96,1.42-3.16
	C9.65,14.76,9.18,13.66,8.32,12.85L8.32,12.85z M11.25,8.9c-0.11-0.1-0.28-0.1-0.38,0.01s-0.1,0.28,0.01,0.38
	c1.83,1.76,2.83,4.12,2.83,6.64c0,2.57-1.09,5.04-2.99,6.79c-0.11,0.1-0.12,0.27-0.02,0.38c0.05,0.06,0.12,0.09,0.2,0.09
	c0.06,0,0.13-0.02,0.18-0.07c2.01-1.85,3.16-4.47,3.16-7.18C14.24,13.25,13.18,10.76,11.25,8.9z M9.54,10.6
	c-0.09-0.09-0.24-0.08-0.32,0.01c-0.09,0.09-0.08,0.24,0.01,0.32c1.39,1.32,2.15,3.09,2.15,4.99c0,1.96-0.84,3.83-2.31,5.14
	c-0.1,0.08-0.1,0.23-0.02,0.33c0.05,0.05,0.11,0.08,0.17,0.08c0.05,0,0.11-0.02,0.15-0.06c1.56-1.4,2.46-3.39,2.46-5.48
	C11.83,13.9,11.02,12.01,9.54,10.6L9.54,10.6z M17.99,15.92c0-2.52,1.01-4.88,2.83-6.64c0.11-0.1,0.11-0.27,0.01-0.38
	c-0.05-0.05-0.12-0.08-0.19-0.08c-0.07,0-0.13,0.02-0.19,0.07c-1.93,1.86-3,4.35-3,7.03c0,2.72,1.15,5.34,3.16,7.19
	c0.11,0.1,0.28,0.09,0.38-0.02c0.1-0.11,0.09-0.28-0.02-0.38C19.08,20.97,17.99,18.49,17.99,15.92L17.99,15.92z M20.32,15.92
	c0-1.9,0.76-3.67,2.15-4.99c0.09-0.09,0.1-0.23,0.01-0.32c-0.05-0.05-0.11-0.07-0.17-0.07c-0.06,0-0.11,0.02-0.16,0.06
	c-1.48,1.4-2.29,3.29-2.29,5.32c0,2.09,0.9,4.08,2.46,5.48c0.09,0.08,0.24,0.08,0.33-0.02c0.08-0.09,0.08-0.24-0.02-0.33
	C21.16,19.75,20.32,17.88,20.32,15.92L20.32,15.92z M24.03,18.8c-0.82-0.73-1.3-1.78-1.3-2.88c0-1.06,0.43-2.06,1.21-2.8
	c0.08-0.07,0.08-0.19,0.01-0.27c-0.04-0.04-0.09-0.06-0.14-0.06c-0.05,0-0.09,0.02-0.13,0.05c-0.85,0.81-1.33,1.9-1.33,3.07
	c0,1.2,0.52,2.36,1.42,3.16c0.08,0.07,0.2,0.06,0.27-0.01C24.12,19,24.11,18.87,24.03,18.8L24.03,18.8z"/>
</svg>
