<?xml version="1.0" encoding="utf-8"?>
<!-- Generator: Adobe Illustrator 21.1.0, SVG Export Plug-In . SVG Version: 6.00 Build 0)  -->
<!DOCTYPE svg PUBLIC "-//W3C//DTD SVG 1.1//EN" "http://www.w3.org/Graphics/SVG/1.1/DTD/svg11.dtd">
<svg version="1.1" id="Layer_1" xmlns="http://www.w3.org/2000/svg" xmlns:xlink="http://www.w3.org/1999/xlink" x="0px" y="0px"
	 viewBox="0 0 31.68 31.68" style="enable-background:new 0 0 31.68 31.68;" xml:space="preserve">
<g>
	<g>
		<g>
			<path d="M15.84,4.51c-6.25,0-11.33,5.08-11.33,11.33s5.08,11.33,11.33,11.33s11.33-5.08,11.33-11.33S22.09,4.51,15.84,4.51z
				 M15.84,26.62c-5.94,0-10.78-4.84-10.78-10.78C5.06,9.9,9.9,5.06,15.84,5.06S26.62,9.9,26.62,15.84
				C26.62,21.78,21.78,26.62,15.84,26.62z"/>
			<path d="M15.84,15.23c-1.42,0-2.57,1.15-2.57,2.57c0,1.42,1.15,2.57,2.57,2.57s2.57-1.15,2.57-2.57
				C18.41,16.38,17.26,15.23,15.84,15.23z M17.96,17.6c-0.11,0-0.19,0.09-0.19,0.19c0,0.11,0.09,0.19,0.19,0.19h0.14
				c-0.02,0.27-0.09,0.52-0.2,0.76l-0.12-0.07c-0.09-0.05-0.21-0.02-0.27,0.07c-0.03,0.05-0.03,0.1-0.02,0.15
				c0.01,0.05,0.05,0.09,0.09,0.12l0.12,0.07c-0.15,0.22-0.34,0.41-0.56,0.56l-0.07-0.12c-0.05-0.09-0.18-0.12-0.27-0.07
				c-0.04,0.03-0.08,0.07-0.09,0.12c-0.01,0.05-0.01,0.1,0.02,0.15l0.07,0.12c-0.24,0.11-0.5,0.18-0.76,0.2v-0.14
				c0-0.11-0.09-0.19-0.19-0.19c-0.11,0-0.19,0.09-0.19,0.19v0.14c-0.27-0.02-0.52-0.09-0.76-0.21l0.07-0.12
				c0.03-0.05,0.03-0.1,0.02-0.15c-0.01-0.05-0.05-0.09-0.09-0.12c-0.09-0.05-0.21-0.02-0.27,0.07l-0.07,0.12
				c-0.22-0.15-0.41-0.34-0.56-0.56l0.12-0.07c0.04-0.03,0.08-0.07,0.09-0.12c0.01-0.05,0.01-0.1-0.02-0.15
				c-0.05-0.09-0.18-0.12-0.27-0.07l-0.12,0.07c-0.11-0.24-0.18-0.5-0.2-0.76h0.14c0.11,0,0.19-0.09,0.19-0.19
				c0-0.11-0.09-0.19-0.19-0.19h-0.14c0.02-0.27,0.09-0.52,0.2-0.76l0.12,0.07c0.09,0.05,0.21,0.02,0.26-0.07
				c0.03-0.04,0.03-0.1,0.02-0.15c-0.01-0.05-0.05-0.09-0.09-0.12l-0.12-0.07c0.15-0.22,0.34-0.41,0.56-0.56l0.07,0.12
				c0.05,0.09,0.17,0.12,0.27,0.07c0.09-0.05,0.12-0.17,0.07-0.26l-0.07-0.12c0.24-0.11,0.5-0.18,0.76-0.2v0.14
				c0,0.11,0.09,0.19,0.19,0.19c0.11,0,0.19-0.09,0.19-0.19v-0.14c0.27,0.02,0.52,0.09,0.76,0.21l-0.07,0.12
				c-0.05,0.09-0.02,0.21,0.07,0.27c0.09,0.05,0.21,0.02,0.27-0.07l0.07-0.12c0.22,0.15,0.41,0.34,0.56,0.56l-0.12,0.07
				c-0.05,0.03-0.08,0.07-0.09,0.12c-0.01,0.05-0.01,0.1,0.02,0.15c0.05,0.09,0.17,0.12,0.26,0.07l0.12-0.07
				c0.11,0.24,0.18,0.5,0.2,0.76H17.96z"/>
			<path d="M16.79,18.22l-0.74-0.44v-1.34c0-0.11-0.09-0.21-0.21-0.21c-0.11,0-0.21,0.09-0.21,0.21v1.46c0,0.09,0.05,0.16,0.12,0.19
				l0.83,0.49c0.03,0.02,0.07,0.03,0.1,0.03c0.07,0,0.14-0.04,0.18-0.1C16.92,18.4,16.89,18.27,16.79,18.22z"/>
			<path d="M21.65,15.23c-1.42,0-2.57,1.15-2.57,2.57c0,1.42,1.15,2.57,2.57,2.57c1.42,0,2.57-1.15,2.57-2.57
				C24.22,16.38,23.07,15.23,21.65,15.23z M22.94,19.65l-0.07-0.12c-0.05-0.09-0.18-0.12-0.26-0.07c-0.09,0.05-0.12,0.17-0.07,0.26
				l0.07,0.12c-0.24,0.11-0.5,0.18-0.76,0.2v-0.14c0-0.11-0.09-0.19-0.19-0.19c-0.11,0-0.19,0.09-0.19,0.19v0.14
				c-0.27-0.02-0.52-0.09-0.76-0.21l0.07-0.12c0.03-0.05,0.03-0.1,0.02-0.15c-0.01-0.05-0.05-0.09-0.09-0.12
				c-0.09-0.05-0.21-0.02-0.27,0.07l-0.07,0.12c-0.22-0.15-0.41-0.34-0.56-0.56l0.12-0.07c0.04-0.03,0.08-0.07,0.09-0.12
				c0.01-0.05,0.01-0.1-0.02-0.15c-0.05-0.09-0.18-0.12-0.26-0.07l-0.12,0.07c-0.11-0.24-0.18-0.5-0.21-0.76h0.14
				c0.11,0,0.19-0.09,0.19-0.19c0-0.11-0.09-0.19-0.19-0.19H19.4c0.02-0.27,0.09-0.52,0.21-0.76l0.12,0.07
				c0.09,0.05,0.21,0.02,0.26-0.07c0.03-0.04,0.03-0.1,0.02-0.15c-0.01-0.05-0.05-0.09-0.09-0.12l-0.12-0.07
				c0.15-0.22,0.34-0.41,0.56-0.56l0.07,0.12c0.05,0.09,0.18,0.12,0.26,0.07c0.04-0.03,0.08-0.07,0.09-0.12
				c0.01-0.05,0.01-0.1-0.02-0.15l-0.07-0.12c0.24-0.11,0.5-0.18,0.76-0.2v0.14c0,0.11,0.09,0.19,0.19,0.19
				c0.11,0,0.19-0.09,0.19-0.19l0-0.14c0.27,0.02,0.52,0.09,0.76,0.21l-0.07,0.12c-0.05,0.09-0.02,0.21,0.07,0.27
				c0.09,0.05,0.21,0.02,0.26-0.07l0.07-0.12c0.22,0.15,0.41,0.34,0.56,0.56l-0.12,0.07c-0.05,0.03-0.08,0.07-0.09,0.12
				c-0.01,0.05-0.01,0.1,0.02,0.15c0.05,0.09,0.17,0.12,0.26,0.07l0.12-0.07c0.11,0.24,0.18,0.5,0.2,0.76h-0.14
				c-0.11,0-0.19,0.09-0.19,0.19c0,0.11,0.09,0.19,0.19,0.19h0.14c-0.02,0.27-0.09,0.52-0.21,0.76l-0.12-0.07
				c-0.09-0.05-0.21-0.02-0.26,0.07c-0.03,0.05-0.03,0.1-0.02,0.15c0.01,0.05,0.05,0.09,0.09,0.12l0.12,0.07
				C23.35,19.31,23.16,19.5,22.94,19.65z"/>
			<path d="M22.6,18.22l-0.74-0.44v-1.34c0-0.11-0.09-0.21-0.21-0.21c-0.11,0-0.21,0.09-0.21,0.21v1.46c0,0.08,0.05,0.16,0.12,0.19
				l0.83,0.49c0.03,0.02,0.07,0.03,0.1,0.03c0.07,0,0.14-0.04,0.18-0.1c0.03-0.05,0.04-0.1,0.02-0.16
				C22.68,18.29,22.64,18.24,22.6,18.22z"/>
			<path d="M10.05,15.23c-1.42,0-2.57,1.15-2.57,2.57c0,1.42,1.15,2.57,2.57,2.57s2.57-1.15,2.57-2.57
				C12.62,16.38,11.47,15.23,10.05,15.23z M12.16,17.6c-0.11,0-0.19,0.09-0.19,0.19c0,0.11,0.09,0.19,0.19,0.19h0.14
				c-0.02,0.27-0.09,0.52-0.21,0.76l-0.12-0.07c-0.09-0.05-0.21-0.02-0.27,0.07c-0.03,0.05-0.03,0.1-0.02,0.15
				c0.01,0.05,0.05,0.09,0.09,0.12l0.12,0.07c-0.15,0.22-0.34,0.41-0.56,0.56l-0.07-0.12c-0.05-0.09-0.18-0.12-0.27-0.07
				c-0.04,0.03-0.08,0.07-0.09,0.12c-0.01,0.05-0.01,0.1,0.02,0.15l0.07,0.12c-0.24,0.11-0.5,0.18-0.76,0.2v-0.14
				c0-0.11-0.09-0.19-0.19-0.19c-0.11,0-0.19,0.09-0.19,0.19v0.14c-0.27-0.02-0.52-0.09-0.76-0.21l0.07-0.12
				c0.03-0.05,0.03-0.1,0.02-0.15c-0.01-0.05-0.05-0.09-0.09-0.12C9,19.41,8.88,19.44,8.82,19.53l-0.07,0.12
				c-0.22-0.15-0.41-0.34-0.56-0.56l0.12-0.07c0.04-0.03,0.08-0.07,0.09-0.12c0.01-0.05,0.01-0.1-0.02-0.15
				c-0.05-0.09-0.18-0.12-0.26-0.07L8,18.76c-0.11-0.24-0.18-0.5-0.2-0.76h0.14c0.11,0,0.19-0.09,0.19-0.19
				c0-0.11-0.09-0.19-0.19-0.19H7.8c0.02-0.27,0.09-0.52,0.2-0.76l0.12,0.07c0.09,0.05,0.21,0.02,0.26-0.07
				c0.03-0.04,0.03-0.1,0.02-0.15c-0.01-0.05-0.05-0.09-0.09-0.12L8.2,16.51c0.15-0.22,0.34-0.41,0.56-0.56l0.07,0.12
				c0.05,0.09,0.17,0.12,0.27,0.07c0.09-0.05,0.12-0.17,0.07-0.26l-0.07-0.12c0.24-0.11,0.5-0.18,0.76-0.2v0.14
				c0,0.11,0.09,0.19,0.19,0.19c0.11,0,0.19-0.09,0.19-0.19v-0.14c0.27,0.02,0.52,0.09,0.76,0.21l-0.07,0.12
				c-0.05,0.09-0.02,0.21,0.07,0.27c0.09,0.05,0.21,0.02,0.27-0.07l0.07-0.12c0.22,0.15,0.41,0.34,0.56,0.56l-0.12,0.07
				c-0.05,0.03-0.08,0.07-0.09,0.12c-0.01,0.05-0.01,0.1,0.02,0.15c0.05,0.09,0.17,0.12,0.26,0.07l0.12-0.07
				c0.11,0.24,0.18,0.5,0.21,0.76H12.16z"/>
			<path d="M11,18.22l-0.74-0.44v-1.34c0-0.11-0.09-0.21-0.21-0.21c-0.11,0-0.21,0.09-0.21,0.21v1.46c0,0.09,0.05,0.16,0.12,0.19
				l0.83,0.49c0.03,0.02,0.07,0.03,0.1,0.03c0.07,0,0.14-0.04,0.18-0.1C11.13,18.4,11.1,18.27,11,18.22z"/>
			<path d="M12.33,13.71h2.06h0.42h2.06h0.42h2.08h0.4h2.5v-3.4h-2.5h-0.4h-2.08h-0.42h-2.06h-0.42h-2.06h-0.42H9.43v3.4h2.48H12.33
				z M19.79,10.74h2.06v2.56h-2.06V10.74z M17.29,10.74h2.06v2.56h-2.06V10.74z M14.81,10.74h2.06v2.56h-2.06V10.74z M12.33,10.74
				h2.06v2.56h-2.06V10.74z M9.85,13.29v-2.56h2.06v2.56H9.85z"/>
			<path d="M15.84,5.77c-5.55,0-10.07,4.52-10.07,10.07s4.52,10.07,10.07,10.07s10.07-4.52,10.07-10.07S21.39,5.77,15.84,5.77z
				 M15.84,25.49c-5.32,0-9.65-4.33-9.65-9.65s4.33-9.65,9.65-9.65s9.65,4.33,9.65,9.65S21.16,25.49,15.84,25.49z"/>
		</g>
	</g>
</g>
</svg>
