<?xml version="1.0" encoding="utf-8"?>
<!-- Generator: Adobe Illustrator 22.1.0, SVG Export Plug-In . SVG Version: 6.00 Build 0)  -->
<!DOCTYPE svg PUBLIC "-//W3C//DTD SVG 1.1//EN" "http://www.w3.org/Graphics/SVG/1.1/DTD/svg11.dtd">
<svg version="1.1" id="Layer_1" xmlns="http://www.w3.org/2000/svg" xmlns:xlink="http://www.w3.org/1999/xlink" x="0px" y="0px"
	 viewBox="0 0 32 32" style="enable-background:new 0 0 32 32;" xml:space="preserve">
<path d="M8.71,27.66c0,2.41-1.96,4.37-4.37,4.37s-4.37-1.96-4.37-4.37s1.96-4.37,4.37-4.37S8.71,25.25,8.71,27.66z"/>
<path d="M-0.02,11.59c11.29,0,20.43,9.15,20.43,20.43h-5.96c0-7.99-6.48-14.47-14.47-14.47L-0.02,11.59L-0.02,11.59z"/>
<path d="M-0.02,0C17.66,0,32,14.33,32,32.02h-6.15c0-14.28-11.58-25.87-25.87-25.87C-0.02,6.15-0.02,0-0.02,0z"/>
</svg>
