<?xml version="1.0" encoding="utf-8"?>
<!-- Generator: Adobe Illustrator 22.1.0, SVG Export Plug-In . SVG Version: 6.00 Build 0)  -->
<!DOCTYPE svg PUBLIC "-//W3C//DTD SVG 1.1//EN" "http://www.w3.org/Graphics/SVG/1.1/DTD/svg11.dtd">
<svg version="1.1" id="Layer_1" xmlns="http://www.w3.org/2000/svg" xmlns:xlink="http://www.w3.org/1999/xlink" x="0px" y="0px"
	 viewBox="0 0 32 32" style="enable-background:new 0 0 32 32;" xml:space="preserve">
<path d="M16.02,0.33c-4.44,0.99-8.84,5.49-9.74,9.96c-0.72,3.57,0.02,6.95,1.73,9.65l-7.61,7.62c-0.54,0.54-0.54,1.4,0,1.94
	l2.08,2.08c0.54,0.54,1.4,0.54,1.94,0l7.61-7.61c2.71,1.73,6.1,2.48,9.68,1.76c4.95-0.99,8.88-4.82,9.98-9.75
	C33.77,6.49,25.51-1.78,16.02,0.33z M27.25,13c0,4.56-3.69,8.25-8.25,8.25s-8.25-3.69-8.25-8.25S14.44,4.75,19,4.75
	S27.25,8.44,27.25,13z"/>
</svg>
