<?xml version="1.0" encoding="utf-8"?>
<!-- Generator: Adobe Illustrator 22.1.0, SVG Export Plug-In . SVG Version: 6.00 Build 0)  -->
<!DOCTYPE svg PUBLIC "-//W3C//DTD SVG 1.1//EN" "http://www.w3.org/Graphics/SVG/1.1/DTD/svg11.dtd">
<svg version="1.1" id="Layer_1" xmlns="http://www.w3.org/2000/svg" xmlns:xlink="http://www.w3.org/1999/xlink" x="0px" y="0px"
	 viewBox="0 0 32 32" style="enable-background:new 0 0 32 32;" xml:space="preserve">
<g>
	<path d="M27.04,31.02H1c-0.55,0-1-0.45-1-1v-24c0-0.55,0.45-1,1-1h9.25l-3.75,4H4v18h20.06v-7l3.98-3.19v13.19
		C28.04,30.57,27.59,31.02,27.04,31.02z"/>
	<path d="M19.63,5.01c-6.46,0-11.59,4.98-11.59,11.44c0,2.53,0.96,4.89,1.88,6.56C11.41,17.2,15.09,13,20.59,13
		c0.24,0,1.16-0.01,1.39,0v4.09L32,9.05L21.98,0.98v4.03L19.63,5.01L19.63,5.01z"/>
</g>
</svg>
