<?xml version="1.0" encoding="utf-8"?>
<!-- Generator: Adobe Illustrator 22.1.0, SVG Export Plug-In . SVG Version: 6.00 Build 0)  -->
<!DOCTYPE svg PUBLIC "-//W3C//DTD SVG 1.1//EN" "http://www.w3.org/Graphics/SVG/1.1/DTD/svg11.dtd">
<svg version="1.1" id="Layer_1" xmlns="http://www.w3.org/2000/svg" xmlns:xlink="http://www.w3.org/1999/xlink" x="0px" y="0px"
	 viewBox="0 0 32 32" style="enable-background:new 0 0 32 32;" xml:space="preserve">
<path d="M13.57,21.14c0,0.32-0.11,0.58-0.34,0.81c-0.22,0.22-0.49,0.34-0.81,0.34s-0.58-0.11-0.81-0.34
	c-0.22-0.22-0.34-0.49-0.34-0.81c0-0.32,0.11-0.58,0.34-0.81S12.11,20,12.42,20s0.58,0.11,0.81,0.33S13.57,20.83,13.57,21.14z
	 M21.57,21.14c0,0.32-0.11,0.58-0.34,0.81c-0.22,0.22-0.49,0.34-0.81,0.34s-0.58-0.11-0.81-0.34c-0.22-0.22-0.33-0.49-0.33-0.81
	c0-0.32,0.11-0.58,0.33-0.81c0.22-0.22,0.49-0.33,0.81-0.33s0.58,0.11,0.81,0.33S21.57,20.83,21.57,21.14z M22.71,11.43V16
	c0,0.14-0.05,0.27-0.14,0.38s-0.22,0.17-0.37,0.19l-9.32,1.09c0.01,0.04,0.02,0.11,0.04,0.19c0.02,0.09,0.04,0.17,0.05,0.24
	s0.02,0.14,0.02,0.2c0,0.1-0.07,0.29-0.21,0.57h8.21c0.15,0,0.29,0.06,0.4,0.17s0.17,0.25,0.17,0.4s-0.06,0.29-0.17,0.4
	S21.15,20,20.99,20h-9.14c-0.15,0-0.29-0.06-0.4-0.17s-0.17-0.25-0.17-0.4c0-0.08,0.03-0.2,0.1-0.35c0.07-0.15,0.15-0.33,0.26-0.53
	s0.17-0.31,0.18-0.34l-1.58-7.35H8.42c-0.15,0-0.29-0.06-0.4-0.17c-0.11-0.11-0.17-0.25-0.17-0.4S7.91,10,8.02,9.88
	c0.11-0.11,0.25-0.17,0.4-0.17h2.29c0.1,0,0.18,0.02,0.25,0.06c0.07,0.04,0.13,0.08,0.18,0.14c0.05,0.05,0.08,0.13,0.12,0.22
	c0.03,0.09,0.05,0.17,0.07,0.24s0.03,0.15,0.05,0.26c0.02,0.11,0.03,0.19,0.04,0.23h10.72c0.15,0,0.29,0.06,0.4,0.17
	C22.65,11.14,22.71,11.27,22.71,11.43L22.71,11.43z"/>
</svg>
