<?xml version="1.0" encoding="utf-8"?>
<!-- Generator: Adobe Illustrator 22.1.0, SVG Export Plug-In . SVG Version: 6.00 Build 0)  -->
<!DOCTYPE svg PUBLIC "-//W3C//DTD SVG 1.1//EN" "http://www.w3.org/Graphics/SVG/1.1/DTD/svg11.dtd">
<svg version="1.1" id="Layer_1" xmlns="http://www.w3.org/2000/svg" xmlns:xlink="http://www.w3.org/1999/xlink" x="0px" y="0px"
	 viewBox="0 0 32 32" style="enable-background:new 0 0 32 32;" xml:space="preserve">
<path d="M18,14v7.32c0,1.86-0.02,2.93,0.17,3.45c0.19,0.52,0.68,1.07,1.22,1.38c0.71,0.42,1.52,0.64,2.43,0.64
	c1.62,0,2.58-0.21,4.18-1.27v4.81c-1.37,0.64-2.56,1.02-3.67,1.28c-1.11,0.26-2.31,0.39-3.6,0.39c-1.46,0-2.33-0.18-3.45-0.55
	c-1.12-0.37-2.08-0.9-2.88-1.58c-0.8-0.68-1.34-1.41-1.65-2.18c-0.31-0.77-0.46-1.89-0.46-3.35V13.11H6V8.58
	c1.26-0.41,2.66-0.99,3.56-1.76c0.9-0.76,1.62-1.68,2.16-2.75c0.54-1.07,0.92-2.43,1.12-4.08H18v8h8v6L18,14L18,14z"/>
</svg>
