<?xml version="1.0" encoding="utf-8"?>
<!-- Generator: Adobe Illustrator 22.1.0, SVG Export Plug-In . SVG Version: 6.00 Build 0)  -->
<!DOCTYPE svg PUBLIC "-//W3C//DTD SVG 1.1//EN" "http://www.w3.org/Graphics/SVG/1.1/DTD/svg11.dtd">
<svg version="1.1" id="Layer_1" xmlns="http://www.w3.org/2000/svg" xmlns:xlink="http://www.w3.org/1999/xlink" x="0px" y="0px"
	 viewBox="0 0 32 32" style="enable-background:new 0 0 32 32;" xml:space="preserve">
<path d="M32,6.09c-0.9,1.33-2,2.45-3.29,3.39c0.01,0.19,0.02,0.48,0.02,0.85c0,1.76-0.26,3.51-0.77,5.27
	c-0.51,1.76-1.29,3.43-2.35,5.04c-1.05,1.61-2.3,3.04-3.75,4.27c-1.45,1.24-3.19,2.22-5.24,2.96c-2.04,0.74-4.23,1.1-6.55,1.11
	c-3.67,0-7.02-0.98-10.06-2.94c0.48,0.06,1,0.08,1.59,0.08c3.04,0,5.76-0.93,8.14-2.8c-1.42-0.03-2.69-0.46-3.82-1.31
	c-1.12-0.85-1.9-1.93-2.32-3.23c0.45,0.06,0.86,0.1,1.24,0.1c0.58,0,1.16-0.07,1.73-0.22c-1.51-0.31-2.77-1.07-3.77-2.26
	S1.3,13.81,1.3,12.22v-0.08c0.92,0.51,1.9,0.79,2.96,0.83c-0.89-0.6-1.61-1.37-2.13-2.33c-0.53-0.96-0.79-2-0.79-3.13
	c0-1.19,0.3-2.3,0.9-3.3c1.64,2.02,3.63,3.63,5.98,4.84s4.86,1.88,7.54,2.02c-0.11-0.51-0.16-1.02-0.16-1.5
	c0-1.81,0.64-3.36,1.92-4.63c1.28-1.28,2.82-1.92,4.63-1.92c1.9,0,3.49,0.69,4.79,2.07C28.41,4.8,29.8,4.27,31.1,3.5
	c-0.5,1.56-1.46,2.76-2.89,3.61C29.48,6.97,30.73,6.63,32,6.09L32,6.09L32,6.09z"/>
</svg>
