<?xml version="1.0" encoding="utf-8"?>
<!-- Generator: Adobe Illustrator 22.1.0, SVG Export Plug-In . SVG Version: 6.00 Build 0)  -->
<!DOCTYPE svg PUBLIC "-//W3C//DTD SVG 1.1//EN" "http://www.w3.org/Graphics/SVG/1.1/DTD/svg11.dtd">
<svg version="1.1" id="Layer_1" xmlns="http://www.w3.org/2000/svg" xmlns:xlink="http://www.w3.org/1999/xlink" x="0px" y="0px"
	 viewBox="0 0 32 32" style="enable-background:new 0 0 32 32;" xml:space="preserve">
<path d="M26.77,16c0-0.38-0.12-0.69-0.38-0.94l-9.44-9.44c-0.25-0.25-0.56-0.38-0.94-0.38s-0.69,0.12-0.94,0.38l-9.44,9.44
	C5.39,15.31,5.27,15.62,5.27,16s0.12,0.69,0.38,0.94l1.89,1.89c0.25,0.25,0.56,0.38,0.94,0.38s0.69-0.12,0.94-0.38l3.94-3.94v10.46
	c0,0.36,0.13,0.67,0.39,0.94s0.57,0.39,0.94,0.39h2.67c0.36,0,0.67-0.13,0.94-0.39s0.39-0.58,0.39-0.94V14.89l3.94,3.94
	c0.26,0.26,0.58,0.39,0.94,0.39s0.67-0.13,0.94-0.39l1.89-1.89C26.65,16.69,26.78,16.38,26.77,16L26.77,16L26.77,16z M32.02,16.02
	c0,2.9-0.71,5.58-2.14,8.03c-1.43,2.45-3.37,4.39-5.83,5.83s-5.13,2.14-8.03,2.14s-5.58-0.71-8.03-2.14s-4.39-3.37-5.82-5.83
	s-2.14-5.12-2.14-8.03c0-2.9,0.71-5.58,2.14-8.03s3.37-4.39,5.82-5.82s5.13-2.14,8.03-2.14s5.58,0.71,8.03,2.14s4.39,3.37,5.83,5.82
	S32.02,13.12,32.02,16.02z"/>
</svg>
