<?xml version="1.0" encoding="utf-8"?>
<!-- Generator: Adobe Illustrator 22.1.0, SVG Export Plug-In . SVG Version: 6.00 Build 0)  -->
<!DOCTYPE svg PUBLIC "-//W3C//DTD SVG 1.1//EN" "http://www.w3.org/Graphics/SVG/1.1/DTD/svg11.dtd">
<svg version="1.1" id="Layer_1" xmlns="http://www.w3.org/2000/svg" xmlns:xlink="http://www.w3.org/1999/xlink" x="0px" y="0px"
	 viewBox="0 0 32 32" style="enable-background:new 0 0 32 32;" xml:space="preserve">
<path d="M19.25,22.55v3.77c0,0.8-0.31,1.19-0.77,1.19c-0.27,0-0.6-0.13-0.86-0.39v-5.38c0.26-0.26,0.59-0.39,0.86-0.39
	C18.94,21.36,19.25,21.75,19.25,22.55C19.25,22.55,19.25,22.55,19.25,22.55z M25.64,22.57v0.82h-1.61v-0.82
	c0-0.81,0.27-1.21,0.81-1.21C25.37,21.36,25.64,21.76,25.64,22.57C25.64,22.57,25.64,22.57,25.64,22.57z M8.26,18.67h1.39v-1.68
	H4.84v1.68h1.6v10.16h1.61V18.67L8.26,18.67L8.26,18.67z M12.86,28.84h1.59v-8.82h-1.59v6.75c-0.36,0.5-0.69,0.75-1.02,0.75
	c-0.44,0-0.59-0.39-0.59-1v-6.5H9.65v7.46c0,0.8,0.44,1.48,1.38,1.48c0.57,0,1.18-0.36,1.82-1.09L12.86,28.84L12.86,28.84z
	 M20.84,26.19v-3.52c0-0.87-0.06-1.46-0.16-1.77c-0.2-0.67-0.62-1-1.27-1c-0.59,0-1.27,0.32-1.79,0.96v-3.88h-1.58v11.84h1.58v-0.86
	c0.54,0.66,1.22,0.98,1.79,0.98c0.64,0,1.06-0.33,1.27-0.98C20.79,27.65,20.84,27.06,20.84,26.19L20.84,26.19L20.84,26.19z
	 M27.23,26.01v-0.23h-1.61c0,0.61-0.01,0.97-0.04,1.09c-0.08,0.43-0.34,0.64-0.73,0.64c-0.55,0-0.82-0.41-0.82-1.23v-1.56h3.19
	v-1.84c0-0.94-0.16-1.63-0.48-2.07c-0.46-0.61-1.09-0.91-1.89-0.91c-0.81,0-1.44,0.31-1.91,0.91c-0.33,0.44-0.5,1.13-0.5,2.07v3.09
	c0,0.94,0.17,1.63,0.52,2.07c0.46,0.61,1.11,0.91,1.93,0.91c0.86,0,1.5-0.31,1.93-0.94c0.21-0.32,0.34-0.64,0.38-0.96
	C27.22,26.94,27.23,26.6,27.23,26.01L27.23,26.01L27.23,26.01z M16.04,9.34V5.59c0-0.82-0.29-1.23-0.8-1.23s-0.81,0.41-0.81,1.23
	v3.75c0,0.83,0.29,1.25,0.8,1.25S16.04,10.17,16.04,9.34z M30.44,23.17c0,2.79-0.16,4.44-0.46,5.82c-0.17,0.7-0.51,1.29-1.04,1.77
	c-0.52,0.48-1.13,0.75-1.82,0.82c-2.19,0.25-6.65,0.38-11.07,0.38s-8.89-0.12-11.08-0.38c-0.69-0.07-1.3-0.34-1.83-0.82
	s-0.87-1.06-1.03-1.77C1.81,27.66,1.65,26,1.65,23.17c0-2.79,0.16-4.45,0.46-5.83c0.17-0.7,0.51-1.29,1.04-1.77
	c0.53-0.48,1.14-0.76,1.84-0.84c2.18-0.24,6.65-0.36,11.07-0.36s8.88,0.12,11.07,0.36c0.69,0.08,1.3,0.36,1.83,0.84
	c0.53,0.47,0.87,1.06,1.02,1.77C30.28,18.67,30.44,20.34,30.44,23.17L30.44,23.17z M9.98-0.04h1.82L9.63,7.09v4.84H8.02V7.09
	C7.85,6.21,7.31,4.94,6.76,3.3C6.31,2.07,5.93,0.96,5.59-0.04h1.89l1.27,4.69C8.76,4.66,9.98-0.04,9.98-0.04z M17.64,5.91v3.12
	c0,0.96-0.23,1.67-0.57,2.11c-0.44,0.61-1.02,0.91-1.84,0.91c-0.8,0-1.48-0.31-1.93-0.91c-0.33-0.45-0.47-1.16-0.47-2.11V5.91
	c0-0.95,0.13-1.65,0.47-2.09c0.45-0.61,1.12-0.91,1.92-0.91c0.82,0,1.41,0.31,1.85,0.91C17.4,4.26,17.64,4.96,17.64,5.91z
	 M24.05,3.02v8.91h-1.62v-0.98c-0.35,0.68-1.07,1.11-1.57,1.11c-1.08,0-1.64-0.89-1.64-2V3.02h1.62v6.56c0,0.66,0.36,1.02,0.72,1.02
	c0.38,0,0.62-0.27,0.87-0.77V3.02C22.43,3.02,24.05,3.02,24.05,3.02L24.05,3.02z"/>
</svg>
