<?xml version="1.0" encoding="utf-8"?>
<!-- Generator: Adobe Illustrator 25.0.1, SVG Export Plug-In . SVG Version: 6.00 Build 0)  -->
<svg version="1.1" id="Layer_1" xmlns="http://www.w3.org/2000/svg" xmlns:xlink="http://www.w3.org/1999/xlink" x="0px" y="0px"
	 viewBox="0 0 308 36" style="enable-background:new 0 0 308 36;" xml:space="preserve">
<style type="text/css">
	.st0{fill:none;}
	.st1{fill:none;stroke:#0066CC;}
	.st2{enable-background:new    ;}
	.st3{fill:#0066CC;}
	.st4{fill:#FFFFFF;}
	.st5{fill:#C9190B;}
</style>
<g transform="translate(532 1120)">
	<g transform="translate(318 449)">
		<g transform="translate(360 222)">
			<path class="st0" d="M-969-1791h64c1.7,0,3,1.3,3,3v30c0,1.7-1.3,3-3,3h-64c-1.7,0-3-1.3-3-3v-30
				C-972-1789.7-970.7-1791-969-1791z"/>
			<path class="st1" d="M-969-1790.5h64c1.4,0,2.5,1.1,2.5,2.5v30c0,1.4-1.1,2.5-2.5,2.5h-64c-1.4,0-2.5-1.1-2.5-2.5v-30
				C-971.5-1789.4-970.4-1790.5-969-1790.5z"/>
		</g>
		<g class="st2">
			<path class="st3" d="M-586-1547.5l0.8,0.8c-1.1,1.2-2.6,1.8-4.2,1.8c-3.2,0-5.7-2.6-5.7-5.8c0-3.2,2.5-5.8,5.7-5.8
				c1.7,0,3.2,0.7,4.2,1.8l-0.8,0.9c-0.8-1-2.1-1.6-3.4-1.6c-2.5,0-4.5,2-4.5,4.7s1.9,4.7,4.5,4.7
				C-588.1-1545.9-586.8-1546.5-586-1547.5z"/>
			<path class="st3" d="M-582-1545h-1.2v-11.4l1.2-0.2V-1545z"/>
			<path class="st3" d="M-576.1-1544.9c-2.2,0-3.9-1.8-3.9-4.1c0-2.3,1.6-4,3.7-4c2.1,0,3.6,1.7,3.6,3.9v0.3h-6.1
				c0.1,1.6,1.3,2.8,2.8,2.8c0.8,0,1.6-0.3,2.2-0.8l0.7,0.8C-574.1-1545.2-575-1544.9-576.1-1544.9z M-578.8-1549.5h5
				c-0.2-1.4-1.2-2.4-2.5-2.4C-577.6-1551.9-578.6-1550.9-578.8-1549.5z"/>
			<path class="st3" d="M-571.2-1547.2c0-1.4,1.2-2.3,2.9-2.3c0.9,0,1.7,0.2,2.4,0.6v-1.1c0-1.3-0.7-1.9-2-1.9
				c-0.7,0-1.5,0.2-2.4,0.7l-0.4-0.9c1.1-0.5,2-0.8,3-0.8c1.9,0,3,1,3,2.8v5.2h-1.1v-0.9c-0.7,0.7-1.5,1.1-2.5,1.1
				C-570.1-1544.9-571.2-1545.8-571.2-1547.2z M-568.2-1545.8c0.9,0,1.6-0.3,2.2-0.9v-1.5c-0.7-0.4-1.3-0.6-2.2-0.6
				c-1.2,0-2,0.6-2,1.4C-570.1-1546.4-569.3-1545.8-568.2-1545.8z"/>
			<path class="st3" d="M-562.4-1552.8h1.2v1.6c0.4-1.1,1.2-1.7,2.2-1.7c0.3,0,0.5,0,0.7,0.1v1.1c-0.3-0.1-0.6-0.1-0.8-0.1
				c-1,0-1.7,0.6-2.1,1.6v5.3h-1.2V-1552.8L-562.4-1552.8z"/>
		</g>
	</g>
	<g transform="translate(176 449)">
		<path class="st3" d="M-609-1569h120c1.7,0,3,1.3,3,3v30c0,1.7-1.3,3-3,3h-120c-1.7,0-3-1.3-3-3v-30
			C-612-1567.7-610.7-1569-609-1569z"/>
		<g class="st2">
			<path class="st4" d="M-586-1547.5l0.8,0.8c-1.1,1.2-2.6,1.8-4.2,1.8c-3.2,0-5.7-2.6-5.7-5.8c0-3.2,2.5-5.8,5.7-5.8
				c1.7,0,3.2,0.7,4.2,1.8l-0.8,0.9c-0.8-1-2.1-1.6-3.4-1.6c-2.5,0-4.5,2-4.5,4.7s1.9,4.7,4.5,4.7
				C-588.1-1545.9-586.8-1546.5-586-1547.5z"/>
			<path class="st4" d="M-583.2-1552.8h1.2v1.6c0.4-1.1,1.2-1.7,2.2-1.7c0.3,0,0.5,0,0.7,0.1v1.1c-0.3-0.1-0.6-0.1-0.8-0.1
				c-1,0-1.7,0.6-2.1,1.6v5.3h-1.2L-583.2-1552.8L-583.2-1552.8z"/>
			<path class="st4" d="M-574.5-1544.9c-2.2,0-3.9-1.8-3.9-4.1c0-2.3,1.6-4,3.7-4c2,0,3.6,1.7,3.6,3.9v0.3h-6.1
				c0.1,1.6,1.3,2.8,2.8,2.8c0.8,0,1.6-0.3,2.1-0.8l0.7,0.8C-572.5-1545.2-573.4-1544.9-574.5-1544.9z M-577.2-1549.5h4.9
				c-0.2-1.4-1.2-2.4-2.4-2.4C-576-1551.9-577-1550.9-577.2-1549.5z"/>
			<path class="st4" d="M-569.7-1547.2c0-1.4,1.2-2.3,2.9-2.3c0.9,0,1.7,0.2,2.4,0.6v-1.1c0-1.3-0.7-1.9-2-1.9
				c-0.7,0-1.5,0.2-2.4,0.7l-0.4-0.9c1.1-0.5,2-0.8,2.9-0.8c1.9,0,3,1,3,2.8v5.2h-1.2v-0.9c-0.7,0.7-1.5,1.1-2.5,1.1
				C-568.5-1544.9-569.7-1545.8-569.7-1547.2z M-566.6-1545.8c0.9,0,1.6-0.3,2.2-0.9v-1.5c-0.7-0.4-1.3-0.6-2.2-0.6
				c-1.2,0-2,0.6-2,1.4C-568.6-1546.4-567.8-1545.8-566.6-1545.8z"/>
			<path class="st4" d="M-560.2-1551.8h-1.6v-1h1.6v-2.1l1.2-0.3v2.4h2.2v1h-2.2v4.8c0,0.8,0.3,1.2,1.1,1.2c0.4,0,0.7-0.1,1.1-0.2v1
				c-0.4,0.1-0.9,0.2-1.4,0.2c-1.3,0-2-0.7-2-1.9L-560.2-1551.8L-560.2-1551.8z"/>
			<path class="st4" d="M-551.7-1544.9c-2.2,0-3.9-1.8-3.9-4.1c0-2.3,1.6-4,3.7-4c2.1,0,3.6,1.7,3.6,3.9v0.3h-6.1
				c0.1,1.6,1.3,2.8,2.8,2.8c0.8,0,1.6-0.3,2.1-0.8l0.7,0.8C-549.7-1545.2-550.6-1544.9-551.7-1544.9z M-554.4-1549.5h5
				c-0.2-1.4-1.2-2.4-2.5-2.4C-553.2-1551.9-554.2-1550.9-554.4-1549.5z"/>
			<path class="st4" d="M-543-1548.9c0-2.2,1.6-4,3.7-4c1,0,1.8,0.4,2.5,1.1v-1h1.1v8.2c0,1.9-1.2,3-3.3,3c-1.1,0-2.2-0.3-3-0.8
				l0.5-0.9c1,0.5,1.7,0.7,2.5,0.7c1.4,0,2.2-0.7,2.2-2v-1.5c-0.6,0.8-1.5,1.1-2.5,1.1C-541.4-1544.9-543-1546.7-543-1548.9z
				 M-539-1545.9c0.9,0,1.7-0.4,2.2-1.1v-3.9c-0.5-0.7-1.3-1.1-2.2-1.1c-1.6,0-2.7,1.3-2.7,3C-541.8-1547.2-540.6-1545.9-539-1545.9
				z"/>
			<path class="st4" d="M-533.3-1552.8h1.2v1.6c0.4-1.1,1.2-1.7,2.2-1.7c0.3,0,0.5,0,0.7,0.1v1.1c-0.3-0.1-0.6-0.1-0.8-0.1
				c-1,0-1.7,0.6-2.1,1.6v5.3h-1.2V-1552.8L-533.3-1552.8z"/>
			<path class="st4" d="M-524.7-1552.9c2.2,0,3.8,1.7,3.8,4c0,2.3-1.7,4.1-3.8,4.1c-2.1,0-3.8-1.8-3.8-4.1
				C-528.5-1551.2-526.9-1552.9-524.7-1552.9z M-522-1548.9c0-1.7-1.1-3-2.7-3c-1.5,0-2.6,1.3-2.6,3c0,1.8,1.1,3,2.6,3
				C-523.2-1545.9-522-1547.2-522-1548.9z"/>
			<path class="st4" d="M-517.7-1548.1c0,1.4,0.8,2.3,2.1,2.3c0.9,0,1.6-0.4,2-1.2v-5.8h1.2v7.8h-1.2v-1.3c-0.6,0.9-1.4,1.4-2.5,1.4
				c-1.7,0-2.8-1.2-2.8-2.9v-5h1.2L-517.7-1548.1L-517.7-1548.1z"/>
			<path class="st4" d="M-510-1552.8h1.1v1.1c0.6-0.8,1.5-1.2,2.5-1.2c2,0,3.6,1.8,3.6,4c0,2.3-1.6,4-3.7,4c-1,0-1.8-0.4-2.5-1.1
				v4.3h-1.2L-510-1552.8L-510-1552.8z M-508.9-1550.8v3.8c0.5,0.7,1.3,1.1,2.2,1.1c1.6,0,2.7-1.3,2.7-3s-1.2-3-2.7-3
				C-507.5-1551.9-508.4-1551.5-508.9-1550.8z"/>
		</g>
	</g>
	<g transform="translate(80 449)">
		<path class="st5" d="M-609-1569h74c1.7,0,3,1.3,3,3v30c0,1.7-1.3,3-3,3h-74c-1.7,0-3-1.3-3-3v-30C-612-1567.7-610.7-1569-609-1569
			z"/>
		<g class="st2">
			<path class="st4" d="M-594.6-1556.2h3.7c3.3,0,5.6,2.4,5.6,5.6c0,3.2-2.3,5.6-5.6,5.6h-3.7V-1556.2z M-593.3-1555.1v9h2.6
				c2.4,0,4.3-1.9,4.3-4.5c0-2.6-1.9-4.5-4.3-4.5H-593.3z"/>
			<path class="st4" d="M-579.6-1544.9c-2.2,0-3.9-1.8-3.9-4.1c0-2.3,1.6-4,3.7-4c2,0,3.6,1.7,3.6,3.9v0.3h-6.1
				c0.1,1.6,1.3,2.8,2.8,2.8c0.8,0,1.6-0.3,2.1-0.8l0.7,0.8C-577.6-1545.2-578.5-1544.9-579.6-1544.9z M-582.3-1549.5h4.9
				c-0.2-1.4-1.2-2.4-2.4-2.4C-581.1-1551.9-582.1-1550.9-582.3-1549.5z"/>
			<path class="st4" d="M-573.1-1545h-1.2v-11.4l1.2-0.2V-1545z"/>
			<path class="st4" d="M-567.2-1544.9c-2.2,0-3.9-1.8-3.9-4.1c0-2.3,1.6-4,3.7-4c2,0,3.6,1.7,3.6,3.9v0.3h-6.1
				c0.1,1.6,1.3,2.8,2.8,2.8c0.8,0,1.6-0.3,2.1-0.8l0.7,0.8C-565.1-1545.2-566.1-1544.9-567.2-1544.9z M-569.9-1549.5h5
				c-0.2-1.4-1.2-2.4-2.5-2.4C-568.7-1551.9-569.7-1550.9-569.9-1549.5z"/>
			<path class="st4" d="M-561.1-1551.8h-1.6v-1h1.6v-2.1l1.2-0.3v2.4h2.2v1h-2.2v4.8c0,0.8,0.3,1.2,1.1,1.2c0.4,0,0.7-0.1,1.1-0.2v1
				c-0.4,0.1-0.9,0.2-1.4,0.2c-1.3,0-2-0.7-2-1.9L-561.1-1551.8L-561.1-1551.8z"/>
			<path class="st4" d="M-552.6-1544.9c-2.2,0-3.9-1.8-3.9-4.1c0-2.3,1.6-4,3.7-4c2,0,3.6,1.7,3.6,3.9v0.3h-6.1
				c0.1,1.6,1.3,2.8,2.8,2.8c0.8,0,1.6-0.3,2.1-0.8l0.7,0.8C-550.6-1545.2-551.5-1544.9-552.6-1544.9z M-555.3-1549.5h4.9
				c-0.2-1.4-1.2-2.4-2.4-2.4C-554.1-1551.9-555.1-1550.9-555.3-1549.5z"/>
		</g>
	</g>
</g>
</svg>
